<svg xmlns="http://www.w3.org/2000/svg" viewBox="0 0 105.29 104.84"><defs><style>.cls-1{isolation:isolate;}.cls-2{fill:#e30613;}.cls-14,.cls-3,.cls-9{fill:#c80613;}.cls-14,.cls-3,.cls-8{mix-blend-mode:multiply;}.cls-4{fill:#f4a081;mix-blend-mode:color-dodge;}.cls-5{fill:#3d1a0b;}.cls-6{fill:#fff;}.cls-7{fill:#790613;}.cls-10{fill:#623f24;}.cls-11{fill:#a06640;}.cls-12{fill:#279235;}.cls-13{fill:#8abd24;}.cls-14{opacity:0.5;}</style></defs><title>apple9 </title><g class="cls-1"><g id="Layer_1" data-name="Layer 1"><path class="cls-2" d="M57.91,23.8a13.74,13.74,0,0,1,10.34-7.87c5.21-.62,6.23,1.23,8.2,2.05s3.36-.33,6.31-1.48,8.7.66,10.67,4.1a21.81,21.81,0,0,1-.82,21.33c-4.84,8.37-11.08,8.12-14,7.06-2.3-.66-3.13,1-6.46.7a17.87,17.87,0,0,1-14.54-14.4A18.91,18.91,0,0,1,57.91,23.8Z"/><path class="cls-3" d="M73.11,26.08c.06.94.39,1.68.74,1.64s.58-.83.51-1.77-.39-1.68-.74-1.64S73,25.14,73.11,26.08Z"/><path class="cls-4" d="M67.82,18.66s-4.5,2.27-5.61,9.9l-2.78-.43a15,15,0,0,1,7-10Z"/><path class="cls-4" d="M58.91,30a7.4,7.4,0,0,1,2.58.28c-.47,1.9-.67,3.18-.67,3.18l-1.55-.24A7.74,7.74,0,0,1,58.91,30Z"/><path class="cls-5" d="M72.9,25.94c.07.94.4,1.68.75,1.64s.58-.83.51-1.78-.39-1.67-.74-1.64S72.84,25,72.9,25.94Z"/><path class="cls-6" d="M73.58,25.15c0,.28.15.49.26.47s.15-.27.11-.55-.15-.5-.26-.48S73.54,24.86,73.58,25.15Z"/><path class="cls-3" d="M79.89,25.24c.06,1,.39,1.7.74,1.66s.58-.84.52-1.8-.4-1.7-.75-1.67S79.82,24.28,79.89,25.24Z"/><path class="cls-5" d="M79.69,25.09c.06,1,.39,1.71.74,1.67S81,25.91,81,25s-.4-1.71-.75-1.67S79.62,24.14,79.69,25.09Z"/><path class="cls-6" d="M80.36,24.29c0,.29.15.5.26.48s.15-.28.12-.56-.16-.5-.27-.48S80.32,24,80.36,24.29Z"/><path class="cls-7" d="M70.38,33a4.8,4.8,0,0,0,.18.92,6.26,6.26,0,0,0,1.13,2.16,5.51,5.51,0,0,0,1.19,1.1,6.49,6.49,0,0,0,1.63.79,8.9,8.9,0,0,0,1.9.4,10.38,10.38,0,0,0,2,0,6.45,6.45,0,0,0,1.93-.49,5.49,5.49,0,0,0,1.59-1.07,7.32,7.32,0,0,0,1.76-2.93,11.41,11.41,0,0,0,.52-2.4c.06-.6.06-.94.06-.94a6.76,6.76,0,0,1,0,.94,11.53,11.53,0,0,1-.44,2.44,8.48,8.48,0,0,1-.63,1.54A6.46,6.46,0,0,1,82.09,37a5.62,5.62,0,0,1-1.65,1.13,6.56,6.56,0,0,1-2,.52,10,10,0,0,1-2,0,8.25,8.25,0,0,1-2-.42,6.16,6.16,0,0,1-1.66-.84,5.54,5.54,0,0,1-1.2-1.16,5.63,5.63,0,0,1-.72-1.22,6.74,6.74,0,0,1-.34-1A4.4,4.4,0,0,1,70.38,33Z"/><path class="cls-7" d="M83.17,29.36a3.26,3.26,0,0,0,.33.38,4.28,4.28,0,0,0,.37.32,2.51,2.51,0,0,0,.47.3c.08.05.17.08.25.12l.26.1.25.07.23.05.2,0,.15,0,.14,0-.14,0a1.56,1.56,0,0,1-.36,0,1.07,1.07,0,0,1-.25,0l-.28,0-.28-.08-.29-.13a2.54,2.54,0,0,1-.49-.35,1.94,1.94,0,0,1-.2-.21,2.43,2.43,0,0,1-.14-.2A1.68,1.68,0,0,1,83.17,29.36Z"/><g class="cls-8"><path class="cls-9" d="M93.43,20.6c-2-3.44-7.71-5.24-10.67-4.1S78.42,18.8,76.45,18c-1.15-.48-2-1.31-3.5-1.79a4.56,4.56,0,0,1,1,1c1.23,1.64,2.86,2.78,5.33,1.56,4.47-2.22,7.9-.82,10,2.41,3.46,5.3,3.4,17-2.63,22.85-4.18,3.46-7.09,3.53-9.31,1.81s-4.67,7.26-15.26-1.48h0a17.61,17.61,0,0,0,10,5.38c3.33.32,4.16-1.36,6.46-.7,3,1.06,9.19,1.31,14-7.06A21.81,21.81,0,0,0,93.43,20.6Z"/></g><path class="cls-10" d="M75.56,5.32l0-.05s-.31-.43-1.26,0-.86.69-.46,1A2.88,2.88,0,0,0,75.56,5.32Z"/><path class="cls-11" d="M75.56,5.32a2.88,2.88,0,0,1-1.75,1c.41.35,4,7.28,3.13,12.73a1.54,1.54,0,0,0,.72.2S78.67,9.76,75.56,5.32Z"/><path class="cls-7" d="M74.73,17.77s1.73,3.4,5.55.31a6.64,6.64,0,0,1-3,1A4.66,4.66,0,0,1,74.73,17.77Z"/><path class="cls-12" d="M77.52,14.44C89.48,16.05,90,5.13,90,5.13S81.94,7.26,77.52,14.44Z"/><path class="cls-13" d="M77.52,14.44C81.94,7.26,90,5.13,90,5.13,79,2.84,77.52,14.44,77.52,14.44Z"/><path class="cls-5" d="M73.22,21.86a.87.87,0,0,0-.83.82.09.09,0,0,0,.12.09,0,0,0,0,0,0,0,1.22,1.22,0,0,1,1.13-.07c.08,0,.15-.06.17-.13A.63.63,0,0,0,73.22,21.86Z"/><path class="cls-5" d="M80.35,21.13a.88.88,0,0,0-.83.82c0,.08.07.12.12.09s0,0,0,0A1.22,1.22,0,0,1,80.82,22c.09,0,.16-.06.17-.13A.63.63,0,0,0,80.35,21.13Z"/><path class="cls-7" d="M71.84,27.35a2.15,2.15,0,0,1,2.57,1A4,4,0,0,0,71.84,27.35Z"/><path class="cls-7" d="M82,26.64a2.16,2.16,0,0,0-2.57,1A4,4,0,0,1,82,26.64Z"/><path class="cls-14" d="M70.3,32.5s1.43,5.68,6.91,5.63c4.2-.1,6.56-3.44,7-7.55-1.08-.16-1.13-1.64-1.13-1.64a4.05,4.05,0,0,0,3.12,1.63,1.73,1.73,0,0,1-1.7.14s.3,8.17-6.27,8.51C73.35,39.57,70.2,37.29,70.3,32.5Z"/><path class="cls-2" d="M32,23.74a13.76,13.76,0,0,1,10.33-7.88c5.21-.61,6.24,1.23,8.21,2.06s3.36-.33,6.31-1.48,8.7.65,10.67,4.1a21.83,21.83,0,0,1-.82,21.33c-4.84,8.36-11.08,8.12-14,7.05-2.3-.65-3.13,1-6.46.7a17.84,17.84,0,0,1-14.54-14.4A18.78,18.78,0,0,1,32,23.74Z"/><path class="cls-3" d="M47.19,26c.07.94.4,1.67.75,1.64s.58-.84.51-1.78-.4-1.67-.75-1.64S47.13,25.08,47.19,26Z"/><path class="cls-4" d="M41.9,18.6s-4.49,2.26-5.6,9.9l-2.79-.44a15.08,15.08,0,0,1,7-10Z"/><path class="cls-4" d="M33,29.89a7.45,7.45,0,0,1,2.59.28c-.48,1.91-.68,3.18-.68,3.18l-1.55-.24A7.94,7.94,0,0,1,33,29.89Z"/><path class="cls-5" d="M47,25.87c.07.95.4,1.68.75,1.64s.58-.83.51-1.77-.4-1.68-.75-1.64S46.93,24.93,47,25.87Z"/><path class="cls-6" d="M47.66,25.08c0,.28.16.49.26.47s.16-.27.12-.55-.15-.49-.26-.47S47.62,24.8,47.66,25.08Z"/><path class="cls-3" d="M54,25.17c.07,1,.4,1.7.75,1.67s.58-.85.51-1.81-.4-1.7-.74-1.66S53.91,24.22,54,25.17Z"/><path class="cls-5" d="M53.77,25c.07,1,.4,1.7.75,1.66s.58-.84.51-1.8-.4-1.7-.74-1.66S53.71,24.07,53.77,25Z"/><path class="cls-6" d="M54.44,24.22c0,.29.16.5.26.48s.16-.27.12-.56-.15-.5-.26-.48S54.4,23.94,54.44,24.22Z"/><path class="cls-7" d="M44.47,32.93a4.79,4.79,0,0,0,.18.91A6.07,6.07,0,0,0,45.77,36a5.82,5.82,0,0,0,1.2,1.1,6.78,6.78,0,0,0,1.62.79,9.11,9.11,0,0,0,1.91.39,10.38,10.38,0,0,0,2,0,6.3,6.3,0,0,0,1.92-.48A5.43,5.43,0,0,0,56,36.73a7.32,7.32,0,0,0,1.76-2.93,12.69,12.69,0,0,0,.52-2.4c.06-.59.06-.93.06-.93a8.18,8.18,0,0,1,0,.93,10.63,10.63,0,0,1-.43,2.44,8.26,8.26,0,0,1-.64,1.54,5.83,5.83,0,0,1-1.11,1.5A5.61,5.61,0,0,1,54.53,38a6.56,6.56,0,0,1-2,.52,10.9,10.9,0,0,1-2.06,0,9,9,0,0,1-1.95-.42,6.5,6.5,0,0,1-1.66-.85,6,6,0,0,1-1.2-1.16A6.22,6.22,0,0,1,45,34.88a6.61,6.61,0,0,1-.35-1A4.68,4.68,0,0,1,44.47,32.93Z"/><path class="cls-7" d="M57.26,29.3a4.61,4.61,0,0,0,.32.37A4.1,4.1,0,0,0,58,30a3.76,3.76,0,0,0,.47.3,2.06,2.06,0,0,0,.26.12l.26.09.25.07a1.06,1.06,0,0,0,.23.05l.19,0,.16,0,.14,0-.14,0a1.77,1.77,0,0,1-.37,0,1.92,1.92,0,0,1-.24,0c-.09,0-.18,0-.28-.05a1.82,1.82,0,0,1-.29-.08c-.09,0-.19-.07-.28-.12a2.06,2.06,0,0,1-.5-.36,1.8,1.8,0,0,1-.19-.2l-.15-.2A1.82,1.82,0,0,1,57.26,29.3Z"/><g class="cls-8"><path class="cls-9" d="M67.52,20.54c-2-3.45-7.72-5.25-10.67-4.1s-4.35,2.3-6.31,1.48c-1.15-.48-2-1.31-3.51-1.79a4.13,4.13,0,0,1,1,1c1.23,1.65,2.87,2.78,5.34,1.56,4.47-2.21,7.9-.82,10,2.41,3.46,5.31,3.4,17-2.63,22.86-4.18,3.46-7.1,3.53-9.31,1.8S46.8,53,36.22,44.25h0a17.58,17.58,0,0,0,10,5.37c3.33.33,4.16-1.35,6.46-.7,2.95,1.07,9.19,1.31,14-7.05A21.83,21.83,0,0,0,67.52,20.54Z"/></g><path class="cls-10" d="M49.65,5.25l0,0s-.31-.44-1.26,0-.86.68-.46,1A2.88,2.88,0,0,0,49.65,5.25Z"/><path class="cls-11" d="M49.65,5.25a2.88,2.88,0,0,1-1.75,1c.4.34,4,7.27,3.13,12.73a1.42,1.42,0,0,0,.72.19S52.76,9.7,49.65,5.25Z"/><path class="cls-7" d="M48.82,17.7s1.73,3.4,5.54.32a6.61,6.61,0,0,1-3,1A4.66,4.66,0,0,1,48.82,17.7Z"/><path class="cls-12" d="M51.61,14.38c12,1.6,12.45-9.32,12.45-9.32S56,7.2,51.61,14.38Z"/><path class="cls-13" d="M51.61,14.38C56,7.2,64.06,5.06,64.06,5.06,53.13,2.78,51.61,14.38,51.61,14.38Z"/><path class="cls-5" d="M47.31,21.79a.88.88,0,0,0-.84.82c0,.08.07.12.12.09a0,0,0,0,0,.06,0,1.2,1.2,0,0,1,1.12-.08c.09,0,.16-.06.17-.13A.62.62,0,0,0,47.31,21.79Z"/><path class="cls-5" d="M54.44,21.06a.88.88,0,0,0-.83.83.08.08,0,0,0,.12.08s0,0,.05,0a1.22,1.22,0,0,1,1.13-.07c.08,0,.15-.06.17-.13A.64.64,0,0,0,54.44,21.06Z"/><path class="cls-7" d="M45.93,27.28a2.16,2.16,0,0,1,2.57,1A4,4,0,0,0,45.93,27.28Z"/><path class="cls-7" d="M56.08,26.58a2.15,2.15,0,0,0-2.57,1A4,4,0,0,1,56.08,26.58Z"/><path class="cls-14" d="M44.38,32.43s1.43,5.69,6.92,5.64c4.2-.1,6.56-3.44,7-7.55-1.08-.16-1.13-1.64-1.13-1.64a4,4,0,0,0,3.11,1.63,1.72,1.72,0,0,1-1.7.13s.31,8.17-6.26,8.52C47.44,39.5,44.28,37.23,44.38,32.43Z"/><path class="cls-2" d="M11.17,23.36a13.76,13.76,0,0,1,10.34-7.87c5.21-.62,6.23,1.23,8.2,2s3.36-.33,6.32-1.48,8.69.66,10.66,4.1a21.78,21.78,0,0,1-.82,21.33c-4.84,8.37-11.07,8.12-14,7-2.29-.65-3.13,1-6.45.7A17.85,17.85,0,0,1,10.84,34.85,18.89,18.89,0,0,1,11.17,23.36Z"/><path class="cls-3" d="M26.37,25.64c.06.94.4,1.68.75,1.64s.57-.83.51-1.78-.4-1.67-.75-1.64S26.3,24.7,26.37,25.64Z"/><path class="cls-4" d="M21.08,18.22s-4.49,2.26-5.61,9.9l-2.78-.44a15,15,0,0,1,7-10Z"/><path class="cls-4" d="M12.17,29.51a7.47,7.47,0,0,1,2.59.28c-.48,1.91-.68,3.18-.68,3.18l-1.55-.23A7.81,7.81,0,0,1,12.17,29.51Z"/><path class="cls-5" d="M26.17,25.5c.06.94.4,1.67.74,1.63s.58-.83.52-1.77-.4-1.68-.75-1.64S26.1,24.55,26.17,25.5Z"/><path class="cls-6" d="M26.84,24.7c0,.29.15.5.26.48s.16-.27.12-.56-.16-.49-.26-.47S26.8,24.42,26.84,24.7Z"/><path class="cls-3" d="M33.15,24.79c.06,1,.4,1.71.75,1.67s.57-.85.51-1.8S34,23,33.66,23,33.08,23.84,33.15,24.79Z"/><path class="cls-5" d="M33,24.65c.06,1,.4,1.7.75,1.66s.57-.84.51-1.8-.4-1.7-.75-1.66S32.88,23.69,33,24.65Z"/><path class="cls-6" d="M33.62,23.84c0,.29.16.51.26.49s.16-.28.12-.56-.16-.51-.26-.48S33.58,23.56,33.62,23.84Z"/><path class="cls-7" d="M23.64,32.55a4.47,4.47,0,0,0,.19.91,5.87,5.87,0,0,0,2.31,3.27,6.85,6.85,0,0,0,1.63.79,8.43,8.43,0,0,0,1.9.39,9.65,9.65,0,0,0,2,0,6.36,6.36,0,0,0,1.93-.48,5.52,5.52,0,0,0,1.59-1.08A7.2,7.2,0,0,0,37,33.42a11.29,11.29,0,0,0,.52-2.4,8.78,8.78,0,0,0,.07-.93,8.35,8.35,0,0,1,0,.94,10.37,10.37,0,0,1-.44,2.44A8.78,8.78,0,0,1,36.46,35a6.19,6.19,0,0,1-1.11,1.5,5.68,5.68,0,0,1-1.65,1.13,6.41,6.41,0,0,1-2,.52,10.79,10.79,0,0,1-2.05,0,8.78,8.78,0,0,1-1.95-.42A6.34,6.34,0,0,1,26,36.87a5.77,5.77,0,0,1-1.2-1.16,5.14,5.14,0,0,1-.71-1.21,5.9,5.9,0,0,1-.35-1A4.49,4.49,0,0,1,23.64,32.55Z"/><path class="cls-7" d="M36.44,28.92a4.61,4.61,0,0,0,.32.37,3.08,3.08,0,0,0,.37.33,3.15,3.15,0,0,0,.47.3c.08,0,.17.08.25.12l.26.1.25.07.23,0a.79.79,0,0,0,.2,0l.16,0,.13,0-.13,0a1.83,1.83,0,0,1-.37,0h-.25l-.27,0a2.46,2.46,0,0,1-.29-.09l-.29-.12a2.21,2.21,0,0,1-.49-.36,1.8,1.8,0,0,1-.19-.2,1.3,1.3,0,0,1-.15-.2A1.46,1.46,0,0,1,36.44,28.92Z"/><g class="cls-8"><path class="cls-9" d="M46.69,20.16c-2-3.44-7.71-5.25-10.66-4.1s-4.35,2.3-6.32,1.48c-1.15-.48-2-1.31-3.5-1.79a4.16,4.16,0,0,1,1,1c1.23,1.64,2.87,2.78,5.33,1.56,4.47-2.22,7.91-.83,10,2.41C46.05,26,46,37.63,40,43.54c-4.19,3.46-7.1,3.53-9.31,1.8S26,52.6,15.4,43.87h0a17.52,17.52,0,0,0,10,5.37c3.32.33,4.16-1.35,6.45-.7,3,1.07,9.19,1.32,14-7A21.78,21.78,0,0,0,46.69,20.16Z"/></g><path class="cls-10" d="M28.83,4.87s0,0,0,0-.31-.43-1.25,0-.87.69-.46,1A2.88,2.88,0,0,0,28.83,4.87Z"/><path class="cls-11" d="M28.83,4.87a2.88,2.88,0,0,1-1.75,1c.4.35,4,7.27,3.12,12.73a1.55,1.55,0,0,0,.73.2S31.94,9.32,28.83,4.87Z"/><path class="cls-7" d="M28,17.32s1.73,3.4,5.54.32a6.67,6.67,0,0,1-3,1A4.54,4.54,0,0,1,28,17.32Z"/><path class="cls-12" d="M30.79,14c12,1.6,12.45-9.32,12.45-9.32S35.21,6.82,30.79,14Z"/><path class="cls-13" d="M30.79,14c4.42-7.18,12.45-9.32,12.45-9.32C32.3,2.4,30.79,14,30.79,14Z"/><path class="cls-5" d="M26.48,21.41a.88.88,0,0,0-.83.82c0,.08.06.12.12.09s0,0,.05,0A1.25,1.25,0,0,1,27,22.25c.08,0,.16-.05.17-.13A.63.63,0,0,0,26.48,21.41Z"/><path class="cls-5" d="M33.62,20.69a.88.88,0,0,0-.84.82.09.09,0,0,0,.12.09s0,0,.06,0a1.22,1.22,0,0,1,1.13-.07c.08,0,.15-.06.17-.13A.63.63,0,0,0,33.62,20.69Z"/><path class="cls-7" d="M25.1,26.91a2.15,2.15,0,0,1,2.57,1A4,4,0,0,0,25.1,26.91Z"/><path class="cls-7" d="M35.26,26.2a2.15,2.15,0,0,0-2.57,1A4,4,0,0,1,35.26,26.2Z"/><path class="cls-14" d="M23.56,32.06s1.43,5.68,6.92,5.63c4.2-.1,6.55-3.44,7-7.55-1.07-.16-1.12-1.64-1.12-1.64a4,4,0,0,0,3.11,1.63,1.72,1.72,0,0,1-1.7.13s.31,8.17-6.26,8.52C26.61,39.12,23.46,36.85,23.56,32.06Z"/><path class="cls-2" d="M57.24,47.85A13.76,13.76,0,0,1,67.58,40c5.21-.61,6.23,1.23,8.2,2.05s3.36-.32,6.31-1.47,8.7.65,10.67,4.1A21.8,21.8,0,0,1,91.94,66c-4.84,8.36-11.08,8.12-14,7-2.3-.65-3.13,1-6.45.7a17.85,17.85,0,0,1-14.55-14.4A18.87,18.87,0,0,1,57.24,47.85Z"/><path class="cls-3" d="M72.44,50.13c.06.94.39,1.67.74,1.64s.58-.84.52-1.78-.4-1.68-.75-1.64S72.37,49.19,72.44,50.13Z"/><path class="cls-4" d="M67.15,42.7s-4.5,2.27-5.61,9.91l-2.78-.44a15,15,0,0,1,7-10Z"/><path class="cls-4" d="M58.24,54a7.4,7.4,0,0,1,2.58.28c-.47,1.91-.67,3.18-.67,3.18l-1.55-.24A7.74,7.74,0,0,1,58.24,54Z"/><path class="cls-5" d="M72.23,50c.07,1,.4,1.68.75,1.64s.58-.83.51-1.77-.39-1.68-.74-1.64S72.17,49,72.23,50Z"/><path class="cls-6" d="M72.91,49.19c0,.28.15.49.26.47s.15-.27.11-.55-.15-.49-.26-.47S72.87,48.91,72.91,49.19Z"/><path class="cls-3" d="M79.22,49.28c.06,1,.39,1.7.74,1.66s.58-.84.52-1.8-.4-1.7-.75-1.66S79.15,48.33,79.22,49.28Z"/><path class="cls-5" d="M79,49.14c.06,1,.39,1.7.74,1.66s.58-.84.52-1.8-.4-1.7-.75-1.66S79,48.18,79,49.14Z"/><path class="cls-6" d="M79.69,48.33c0,.29.15.5.26.48s.15-.27.12-.56-.16-.5-.26-.48S79.65,48.05,79.69,48.33Z"/><path class="cls-7" d="M69.71,57a4.79,4.79,0,0,0,.18.91A6.29,6.29,0,0,0,71,60.12a5.51,5.51,0,0,0,1.19,1.1,6.85,6.85,0,0,0,1.63.79,8.89,8.89,0,0,0,1.9.39,10.38,10.38,0,0,0,2,0,6.36,6.36,0,0,0,1.93-.48,5.52,5.52,0,0,0,1.59-1.08A7.32,7.32,0,0,0,83,57.91a11.29,11.29,0,0,0,.52-2.4c.06-.59.06-.94.06-.94a6.81,6.81,0,0,1,0,.94A11.32,11.32,0,0,1,83.16,58a8.2,8.2,0,0,1-.63,1.54A6.26,6.26,0,0,1,81.42,61a5.52,5.52,0,0,1-1.65,1.14,6.56,6.56,0,0,1-2,.52,10.78,10.78,0,0,1-2,0,8.78,8.78,0,0,1-2-.42,6.18,6.18,0,0,1-1.66-.85,5.54,5.54,0,0,1-1.2-1.16A5.82,5.82,0,0,1,70.19,59a6.82,6.82,0,0,1-.34-1A4.36,4.36,0,0,1,69.71,57Z"/><path class="cls-7" d="M82.51,53.41a3,3,0,0,0,.32.37,4.27,4.27,0,0,0,.37.33,3.15,3.15,0,0,0,.47.3c.08.05.17.08.25.12l.26.09.25.07c.08,0,.16,0,.23.05l.2,0,.15,0,.14,0-.14,0a1.66,1.66,0,0,1-.36,0,1.07,1.07,0,0,1-.25,0l-.28,0a1.47,1.47,0,0,1-.28-.08,2.52,2.52,0,0,1-.29-.12,2.21,2.21,0,0,1-.49-.36,1.26,1.26,0,0,1-.2-.2l-.14-.2A1.46,1.46,0,0,1,82.51,53.41Z"/><g class="cls-8"><path class="cls-9" d="M92.76,44.65c-2-3.45-7.71-5.25-10.67-4.1S77.75,42.84,75.78,42c-1.15-.47-2-1.3-3.5-1.79a4.56,4.56,0,0,1,1,1c1.23,1.64,2.86,2.78,5.33,1.56,4.47-2.21,7.9-.82,10,2.41C92.12,50.48,92.06,62.12,86,68c-4.18,3.45-7.09,3.53-9.31,1.8s-4.67,7.26-15.26-1.47h0a17.57,17.57,0,0,0,10,5.37c3.32.33,4.15-1.35,6.45-.7,3,1.07,9.19,1.31,14-7A21.8,21.8,0,0,0,92.76,44.65Z"/></g><path class="cls-10" d="M74.89,29.36l0-.05s-.31-.43-1.26,0-.86.69-.46,1A2.85,2.85,0,0,0,74.89,29.36Z"/><path class="cls-11" d="M74.89,29.36a2.85,2.85,0,0,1-1.75,1c.41.34,4,7.27,3.13,12.73a1.62,1.62,0,0,0,.72.19S78,33.81,74.89,29.36Z"/><path class="cls-7" d="M74.06,41.81s1.73,3.4,5.55.32a6.67,6.67,0,0,1-3,1A4.66,4.66,0,0,1,74.06,41.81Z"/><path class="cls-12" d="M76.85,38.49c12,1.6,12.45-9.32,12.45-9.32S81.27,31.31,76.85,38.49Z"/><path class="cls-13" d="M76.85,38.49c4.42-7.18,12.45-9.32,12.45-9.32C78.37,26.88,76.85,38.49,76.85,38.49Z"/><path class="cls-5" d="M72.55,45.9a.87.87,0,0,0-.83.82.08.08,0,0,0,.12.09s0,0,0,0A1.22,1.22,0,0,1,73,46.74c.08,0,.15-.06.17-.13A.63.63,0,0,0,72.55,45.9Z"/><path class="cls-5" d="M79.68,45.17a.89.89,0,0,0-.83.83.08.08,0,0,0,.12.08s0,0,.06,0A1.23,1.23,0,0,1,80.15,46a.14.14,0,0,0,.17-.13A.63.63,0,0,0,79.68,45.17Z"/><path class="cls-7" d="M71.17,51.39a2.16,2.16,0,0,1,2.57,1A4,4,0,0,0,71.17,51.39Z"/><path class="cls-7" d="M81.32,50.69a2.15,2.15,0,0,0-2.57,1A4,4,0,0,1,81.32,50.69Z"/><path class="cls-14" d="M69.63,56.54s1.43,5.69,6.91,5.64c4.2-.1,6.56-3.44,7-7.55C82.47,54.47,82.42,53,82.42,53a4.05,4.05,0,0,0,3.12,1.63,1.72,1.72,0,0,1-1.7.13s.3,8.17-6.27,8.52C72.68,63.61,69.53,61.34,69.63,56.54Z"/><path class="cls-2" d="M31.33,47.78a13.73,13.73,0,0,1,10.33-7.87c5.21-.62,6.24,1.23,8.21,2.05s3.36-.33,6.31-1.48,8.7.66,10.67,4.1A21.83,21.83,0,0,1,66,65.91C61.19,74.28,55,74,52,73c-2.3-.66-3.13,1-6.46.7A17.86,17.86,0,0,1,31,59.27,18.82,18.82,0,0,1,31.33,47.78Z"/><path class="cls-3" d="M46.52,50.06c.07.94.4,1.68.75,1.64s.58-.83.51-1.77-.4-1.68-.74-1.64S46.46,49.12,46.52,50.06Z"/><path class="cls-4" d="M41.24,42.64s-4.5,2.27-5.61,9.9l-2.79-.43a15.09,15.09,0,0,1,7-10Z"/><path class="cls-4" d="M32.32,53.94a7.59,7.59,0,0,1,2.59.27c-.48,1.91-.68,3.19-.68,3.19l-1.55-.24A7.94,7.94,0,0,1,32.32,53.94Z"/><path class="cls-5" d="M46.32,49.92c.07.94.4,1.67.75,1.64s.58-.84.51-1.78-.4-1.67-.75-1.64S46.26,49,46.32,49.92Z"/><path class="cls-6" d="M47,49.13c0,.28.16.49.26.47s.16-.27.12-.55-.15-.5-.26-.48S47,48.84,47,49.13Z"/><path class="cls-3" d="M53.3,49.22c.07,1,.4,1.7.75,1.66s.58-.84.51-1.8-.4-1.7-.74-1.67S53.24,48.26,53.3,49.22Z"/><path class="cls-5" d="M53.1,49.07c.07,1,.4,1.7.75,1.67s.58-.85.51-1.81-.4-1.7-.74-1.66S53,48.12,53.1,49.07Z"/><path class="cls-6" d="M53.77,48.27c0,.28.16.5.26.48s.16-.28.12-.56-.15-.5-.26-.48S53.73,48,53.77,48.27Z"/><path class="cls-7" d="M43.8,57a5,5,0,0,0,.18.92,6.12,6.12,0,0,0,1.12,2.16,5.82,5.82,0,0,0,1.2,1.1,6.42,6.42,0,0,0,1.62.79,9.12,9.12,0,0,0,1.91.4,11.24,11.24,0,0,0,2,0,6.31,6.31,0,0,0,1.92-.49,5.41,5.41,0,0,0,1.6-1.07,7.32,7.32,0,0,0,1.76-2.93,12,12,0,0,0,.52-2.41c.06-.59.06-.93.06-.93a8.35,8.35,0,0,1,0,.94,10.81,10.81,0,0,1-.43,2.44,8.55,8.55,0,0,1-.64,1.54,6.19,6.19,0,0,1-1.11,1.5,5.58,5.58,0,0,1-1.64,1.13,6.56,6.56,0,0,1-2,.52,10.12,10.12,0,0,1-2.06,0,8.81,8.81,0,0,1-1.94-.42,6.38,6.38,0,0,1-1.67-.84,5.61,5.61,0,0,1-1.91-2.38,5.78,5.78,0,0,1-.34-1A4.4,4.4,0,0,1,43.8,57Z"/><path class="cls-7" d="M56.59,53.34a3.18,3.18,0,0,0,.32.37,4.1,4.1,0,0,0,.37.33,2.88,2.88,0,0,0,.47.3,2.06,2.06,0,0,0,.26.12l.26.1.25.07.23,0,.19,0,.16,0,.14,0-.14,0a1.66,1.66,0,0,1-.37,0h-.24l-.28,0-.29-.08-.28-.13a2.62,2.62,0,0,1-.5-.35L57,54a1.21,1.21,0,0,1-.14-.2A1.68,1.68,0,0,1,56.59,53.34Z"/><g class="cls-8"><path class="cls-9" d="M66.85,44.58c-2-3.44-7.71-5.25-10.67-4.1s-4.35,2.3-6.31,1.48c-1.15-.48-2-1.31-3.51-1.79a4.37,4.37,0,0,1,1,1c1.24,1.64,2.87,2.78,5.34,1.56,4.47-2.22,7.9-.83,10,2.41,3.46,5.3,3.4,17-2.63,22.85-4.18,3.46-7.1,3.53-9.31,1.81S46.13,77,35.55,68.29h0a17.61,17.61,0,0,0,10,5.38C48.87,74,49.7,72.31,52,73c3,1.06,9.19,1.31,14-7.06A21.83,21.83,0,0,0,66.85,44.58Z"/></g><path class="cls-10" d="M49,29.3l0-.05s-.31-.43-1.26,0-.86.69-.46,1A2.88,2.88,0,0,0,49,29.3Z"/><path class="cls-11" d="M49,29.3a2.88,2.88,0,0,1-1.75,1c.4.35,4,7.28,3.13,12.73a1.48,1.48,0,0,0,.72.2S52.09,33.74,49,29.3Z"/><path class="cls-7" d="M48.15,41.74s1.73,3.4,5.54.32a6.58,6.58,0,0,1-3,1A4.64,4.64,0,0,1,48.15,41.74Z"/><path class="cls-12" d="M50.94,38.42c12,1.61,12.45-9.31,12.45-9.31S55.36,31.24,50.94,38.42Z"/><path class="cls-13" d="M50.94,38.42c4.42-7.18,12.45-9.31,12.45-9.31C52.46,26.82,50.94,38.42,50.94,38.42Z"/><path class="cls-5" d="M46.64,45.84a.88.88,0,0,0-.84.82.08.08,0,0,0,.12.08s0,0,.06,0a1.2,1.2,0,0,1,1.12-.07.17.17,0,0,0,.18-.13A.62.62,0,0,0,46.64,45.84Z"/><path class="cls-5" d="M53.77,45.11a.87.87,0,0,0-.83.82c0,.08.06.11.12.09a0,0,0,0,0,0,0A1.25,1.25,0,0,1,54.24,46c.08,0,.16-.06.17-.13A.63.63,0,0,0,53.77,45.11Z"/><path class="cls-7" d="M45.26,51.33a2.15,2.15,0,0,1,2.57,1A4,4,0,0,0,45.26,51.33Z"/><path class="cls-7" d="M55.41,50.62a2.16,2.16,0,0,0-2.57,1A4,4,0,0,1,55.41,50.62Z"/><path class="cls-14" d="M43.71,56.48s1.43,5.68,6.92,5.63c4.2-.1,6.56-3.44,7-7.55-1.08-.16-1.13-1.64-1.13-1.64a4,4,0,0,0,3.11,1.63,1.73,1.73,0,0,1-1.7.14s.31,8.17-6.26,8.51C46.77,63.55,43.61,61.27,43.71,56.48Z"/><path class="cls-2" d="M10.5,47.41a13.76,13.76,0,0,1,10.34-7.88c5.21-.62,6.23,1.23,8.2,2s3.37-.33,6.32-1.48,8.69.66,10.66,4.11a21.76,21.76,0,0,1-.82,21.32c-4.84,8.37-11.07,8.12-14,7.06-2.29-.66-3.13,1-6.45.7a17.85,17.85,0,0,1-14.54-14.4A18.82,18.82,0,0,1,10.5,47.41Z"/><path class="cls-3" d="M25.7,49.68c.06,1,.4,1.68.75,1.64s.57-.83.51-1.77-.4-1.68-.75-1.64S25.63,48.74,25.7,49.68Z"/><path class="cls-4" d="M20.41,42.26s-4.49,2.27-5.61,9.91L12,51.73a15,15,0,0,1,7-10Z"/><path class="cls-4" d="M11.5,53.56a7.47,7.47,0,0,1,2.59.28c-.48,1.91-.68,3.18-.68,3.18l-1.55-.24A7.74,7.74,0,0,1,11.5,53.56Z"/><path class="cls-5" d="M25.5,49.54c.06.94.4,1.68.74,1.64s.58-.83.52-1.78-.4-1.67-.75-1.63S25.43,48.6,25.5,49.54Z"/><path class="cls-6" d="M26.17,48.75c0,.28.15.49.26.47s.16-.27.12-.55-.16-.5-.26-.47S26.13,48.46,26.17,48.75Z"/><path class="cls-3" d="M32.48,48.84c.06,1,.4,1.7.75,1.66s.57-.84.51-1.8S33.34,47,33,47,32.41,47.88,32.48,48.84Z"/><path class="cls-5" d="M32.28,48.7c.06.95.4,1.7.75,1.66s.57-.85.51-1.8-.4-1.71-.75-1.67S32.21,47.74,32.28,48.7Z"/><path class="cls-6" d="M33,47.89c0,.29.16.5.26.48s.16-.27.12-.56-.16-.5-.26-.48S32.91,47.6,33,47.89Z"/><path class="cls-7" d="M23,56.59a4.47,4.47,0,0,0,.19.92,6,6,0,0,0,1.12,2.16,5.74,5.74,0,0,0,1.19,1.1,6.49,6.49,0,0,0,1.63.79A9,9,0,0,0,29,62a10.38,10.38,0,0,0,2,0,6.37,6.37,0,0,0,1.93-.49,5.3,5.3,0,0,0,1.59-1.07,7.2,7.2,0,0,0,1.76-2.93,11.41,11.41,0,0,0,.52-2.4,9,9,0,0,0,.07-.94,8.35,8.35,0,0,1,0,.94,10.72,10.72,0,0,1-.43,2.44,9.34,9.34,0,0,1-.64,1.54,6.19,6.19,0,0,1-1.11,1.5A5.5,5.5,0,0,1,33,61.68a6.41,6.41,0,0,1-2,.52,10,10,0,0,1-2.05,0A9.52,9.52,0,0,1,27,61.77a6.34,6.34,0,0,1-1.66-.85,6,6,0,0,1-1.2-1.16,5.35,5.35,0,0,1-.71-1.21,6.27,6.27,0,0,1-.35-1A4.4,4.4,0,0,1,23,56.59Z"/><path class="cls-7" d="M35.77,53a3.76,3.76,0,0,0,.32.38,4.28,4.28,0,0,0,.37.32,2.51,2.51,0,0,0,.47.3l.25.13.26.09.25.07c.08,0,.16,0,.23,0l.2,0,.16,0,.13,0-.13,0a1.73,1.73,0,0,1-.37,0,1.07,1.07,0,0,1-.25,0l-.27,0-.29-.08-.28-.13a2.34,2.34,0,0,1-.5-.35l-.19-.2a2,2,0,0,1-.36-.67Z"/><g class="cls-8"><path class="cls-9" d="M46,44.21c-2-3.45-7.71-5.25-10.66-4.11S31,42.4,29,41.58a32.18,32.18,0,0,0-3.5-1.79,4.56,4.56,0,0,1,1,1c1.23,1.64,2.87,2.78,5.33,1.56,4.47-2.22,7.91-.82,10,2.41,3.45,5.3,3.39,17-2.63,22.85C35.11,71,32.2,71.11,30,69.39s-4.68,7.26-15.26-1.48h0a17.61,17.61,0,0,0,10,5.38c3.32.32,4.16-1.36,6.45-.7,3,1.06,9.19,1.31,14-7.06A21.76,21.76,0,0,0,46,44.21Z"/></g><path class="cls-10" d="M28.16,28.92l0-.05s-.31-.43-1.25,0-.86.69-.46,1A2.94,2.94,0,0,0,28.16,28.92Z"/><path class="cls-11" d="M28.16,28.92a2.94,2.94,0,0,1-1.75,1c.4.34,4,7.27,3.12,12.72a1.55,1.55,0,0,0,.73.2S31.27,33.36,28.16,28.92Z"/><path class="cls-7" d="M27.33,41.37s1.73,3.4,5.54.31a6.64,6.64,0,0,1-3,1A4.61,4.61,0,0,1,27.33,41.37Z"/><path class="cls-12" d="M30.12,38c12,1.61,12.45-9.31,12.45-9.31S34.54,30.86,30.12,38Z"/><path class="cls-13" d="M30.12,38c4.42-7.18,12.45-9.31,12.45-9.31C31.63,26.44,30.12,38,30.12,38Z"/><path class="cls-5" d="M25.81,45.46a.87.87,0,0,0-.83.82.09.09,0,0,0,.12.09,0,0,0,0,0,0,0,1.22,1.22,0,0,1,1.13-.07c.08,0,.16-.06.17-.13A.63.63,0,0,0,25.81,45.46Z"/><path class="cls-5" d="M33,44.73a.88.88,0,0,0-.84.82c0,.08.07.12.12.09a0,0,0,0,0,.06,0,1.22,1.22,0,0,1,1.13-.08c.08,0,.15-.06.17-.13A.63.63,0,0,0,33,44.73Z"/><path class="cls-7" d="M24.43,51A2.14,2.14,0,0,1,27,52,4,4,0,0,0,24.43,51Z"/><path class="cls-7" d="M34.59,50.24a2.16,2.16,0,0,0-2.57,1A4,4,0,0,1,34.59,50.24Z"/><path class="cls-14" d="M22.89,56.1s1.43,5.68,6.92,5.63c4.2-.1,6.55-3.44,7-7.55-1.08-.16-1.13-1.64-1.13-1.64a4,4,0,0,0,3.11,1.63,1.7,1.7,0,0,1-1.7.14s.31,8.17-6.26,8.51C25.94,63.17,22.79,60.89,22.89,56.1Z"/><path class="cls-2" d="M57.24,74.53a13.76,13.76,0,0,1,10.34-7.88c5.21-.61,6.23,1.24,8.2,2.06s3.36-.33,6.31-1.48,8.7.66,10.67,4.1a21.81,21.81,0,0,1-.82,21.33c-4.84,8.36-11.08,8.12-14,7-2.3-.65-3.13,1-6.45.7A17.85,17.85,0,0,1,56.91,86,18.87,18.87,0,0,1,57.24,74.53Z"/><path class="cls-3" d="M72.44,76.81c.06.94.39,1.67.74,1.64s.58-.84.52-1.78S73.3,75,73,75,72.37,75.87,72.44,76.81Z"/><path class="cls-4" d="M67.15,69.39s-4.5,2.26-5.61,9.9l-2.78-.44a15,15,0,0,1,7-10Z"/><path class="cls-4" d="M58.24,80.68a7.4,7.4,0,0,1,2.58.28c-.47,1.91-.67,3.18-.67,3.18L58.6,83.9A7.74,7.74,0,0,1,58.24,80.68Z"/><path class="cls-5" d="M72.23,76.66c.07,1,.4,1.68.75,1.64s.58-.83.51-1.77-.39-1.68-.74-1.64S72.17,75.72,72.23,76.66Z"/><path class="cls-6" d="M72.91,75.87c0,.28.15.5.26.47s.15-.27.11-.55-.15-.49-.26-.47S72.87,75.59,72.91,75.87Z"/><path class="cls-3" d="M79.22,76c.06,1,.39,1.7.74,1.67s.58-.85.52-1.81-.4-1.7-.75-1.66S79.15,75,79.22,76Z"/><path class="cls-5" d="M79,75.82c.06,1,.39,1.7.74,1.66s.58-.84.52-1.8-.4-1.7-.75-1.66S79,74.86,79,75.82Z"/><path class="cls-6" d="M79.69,75c0,.29.15.51.26.48s.15-.27.12-.55-.16-.51-.26-.49S79.65,74.73,79.69,75Z"/><path class="cls-7" d="M69.71,83.72a4.79,4.79,0,0,0,.18.91A6.29,6.29,0,0,0,71,86.8a5.51,5.51,0,0,0,1.19,1.1,6.85,6.85,0,0,0,1.63.79,8.32,8.32,0,0,0,1.9.39,10.38,10.38,0,0,0,2,0,6.36,6.36,0,0,0,1.93-.48,5.52,5.52,0,0,0,1.59-1.08A7.32,7.32,0,0,0,83,84.59a11.29,11.29,0,0,0,.52-2.4c.06-.59.06-.93.06-.93a6.64,6.64,0,0,1,0,.93,11.5,11.5,0,0,1-.44,2.45,8.4,8.4,0,0,1-.63,1.53,6.07,6.07,0,0,1-1.11,1.5,5.52,5.52,0,0,1-1.65,1.14,6.56,6.56,0,0,1-2,.52,10.78,10.78,0,0,1-2,0,8.78,8.78,0,0,1-2-.42A6.18,6.18,0,0,1,72.11,88a5.54,5.54,0,0,1-1.2-1.16,5.82,5.82,0,0,1-.72-1.21,6.74,6.74,0,0,1-.34-1A4.49,4.49,0,0,1,69.71,83.72Z"/><path class="cls-7" d="M82.51,80.09a3,3,0,0,0,.32.37,3.08,3.08,0,0,0,.37.33,3.15,3.15,0,0,0,.47.3c.08,0,.17.08.25.12l.26.1.25.06a1.06,1.06,0,0,0,.23,0l.2,0,.15,0,.14,0-.14,0a1.66,1.66,0,0,1-.36,0H84.4c-.09,0-.18,0-.28,0a1.47,1.47,0,0,1-.28-.08,2.52,2.52,0,0,1-.29-.12,2.21,2.21,0,0,1-.49-.36,1.26,1.26,0,0,1-.2-.2l-.14-.2A1.46,1.46,0,0,1,82.51,80.09Z"/><g class="cls-8"><path class="cls-9" d="M92.76,71.33c-2-3.44-7.71-5.25-10.67-4.1s-4.34,2.3-6.31,1.48c-1.15-.48-2-1.31-3.5-1.79a4.16,4.16,0,0,1,1,1c1.23,1.64,2.86,2.78,5.33,1.55,4.47-2.21,7.9-.82,10,2.42,3.46,5.3,3.4,16.94-2.63,22.85-4.18,3.46-7.09,3.53-9.31,1.8S72.05,103.77,61.46,95h0a17.57,17.57,0,0,0,10,5.37c3.32.33,4.15-1.35,6.45-.7,3,1.07,9.19,1.31,14-7A21.81,21.81,0,0,0,92.76,71.33Z"/></g><path class="cls-10" d="M74.89,56l0,0s-.31-.44-1.26,0-.86.69-.46,1A2.85,2.85,0,0,0,74.89,56Z"/><path class="cls-11" d="M74.89,56a2.85,2.85,0,0,1-1.75,1c.41.34,4,7.27,3.13,12.73A1.54,1.54,0,0,0,77,70S78,60.49,74.89,56Z"/><path class="cls-7" d="M74.06,68.49s1.73,3.4,5.55.32a6.67,6.67,0,0,1-3,1A4.66,4.66,0,0,1,74.06,68.49Z"/><path class="cls-12" d="M76.85,65.17c12,1.6,12.45-9.32,12.45-9.32S81.27,58,76.85,65.17Z"/><path class="cls-13" d="M76.85,65.17C81.27,58,89.3,55.85,89.3,55.85,78.37,53.57,76.85,65.17,76.85,65.17Z"/><path class="cls-5" d="M72.55,72.58a.87.87,0,0,0-.83.82.08.08,0,0,0,.12.09s0,0,0,0A1.22,1.22,0,0,1,73,73.42c.08,0,.15-.06.17-.13A.63.63,0,0,0,72.55,72.58Z"/><path class="cls-5" d="M79.68,71.86a.88.88,0,0,0-.83.82.08.08,0,0,0,.12.08s0,0,.06,0a1.2,1.2,0,0,1,1.12-.07.15.15,0,0,0,.17-.13A.62.62,0,0,0,79.68,71.86Z"/><path class="cls-7" d="M71.17,78.07a2.16,2.16,0,0,1,2.57,1A4,4,0,0,0,71.17,78.07Z"/><path class="cls-7" d="M81.32,77.37a2.15,2.15,0,0,0-2.57,1A4,4,0,0,1,81.32,77.37Z"/><path class="cls-14" d="M69.63,83.22s1.43,5.69,6.91,5.64c4.2-.1,6.56-3.44,7-7.55-1.08-.16-1.13-1.64-1.13-1.64a4.05,4.05,0,0,0,3.12,1.63,1.72,1.72,0,0,1-1.7.13s.3,8.17-6.27,8.52C72.68,90.29,69.53,88,69.63,83.22Z"/><path class="cls-2" d="M31.33,74.46a13.73,13.73,0,0,1,10.33-7.87c5.21-.62,6.24,1.23,8.21,2s3.36-.33,6.31-1.48,8.7.66,10.67,4.11A21.81,21.81,0,0,1,66,92.59C61.19,101,55,100.71,52,99.65c-2.3-.66-3.13,1-6.46.7A17.86,17.86,0,0,1,31,86,18.82,18.82,0,0,1,31.33,74.46Z"/><path class="cls-3" d="M46.52,76.74c.07,1,.4,1.68.75,1.64s.58-.83.51-1.77S47.38,74.93,47,75,46.46,75.8,46.52,76.74Z"/><path class="cls-4" d="M41.24,69.32s-4.5,2.27-5.61,9.91l-2.79-.44a15.09,15.09,0,0,1,7-10Z"/><path class="cls-4" d="M32.32,80.62a7.45,7.45,0,0,1,2.59.28c-.48,1.91-.68,3.18-.68,3.18l-1.55-.24A7.94,7.94,0,0,1,32.32,80.62Z"/><path class="cls-5" d="M46.32,76.6c.07.94.4,1.68.75,1.64s.58-.83.51-1.78-.4-1.67-.75-1.64S46.26,75.66,46.32,76.6Z"/><path class="cls-6" d="M47,75.81c0,.28.16.49.26.47s.16-.27.12-.55-.15-.5-.26-.47S47,75.52,47,75.81Z"/><path class="cls-3" d="M53.3,75.9c.07.95.4,1.7.75,1.66s.58-.84.51-1.8-.4-1.7-.74-1.66S53.24,74.94,53.3,75.9Z"/><path class="cls-5" d="M53.1,75.75c.07,1,.4,1.71.75,1.67s.58-.85.51-1.8S54,73.91,53.62,74,53,74.8,53.1,75.75Z"/><path class="cls-6" d="M53.77,75c0,.29.16.5.26.48s.16-.27.12-.56-.15-.5-.26-.48S53.73,74.66,53.77,75Z"/><path class="cls-7" d="M43.8,83.65a4.8,4.8,0,0,0,.18.92,6,6,0,0,0,1.12,2.16,5.82,5.82,0,0,0,1.2,1.1,6.42,6.42,0,0,0,1.62.79,9.12,9.12,0,0,0,1.91.4,10.38,10.38,0,0,0,2,0,6.31,6.31,0,0,0,1.92-.49,5.41,5.41,0,0,0,1.6-1.07,7.32,7.32,0,0,0,1.76-2.93,12.09,12.09,0,0,0,.52-2.4c.06-.6.06-.94.06-.94a8.35,8.35,0,0,1,0,.94,10.81,10.81,0,0,1-.43,2.44,8.55,8.55,0,0,1-.64,1.54,6.19,6.19,0,0,1-1.11,1.5,5.58,5.58,0,0,1-1.64,1.13,6.56,6.56,0,0,1-2,.52,10.12,10.12,0,0,1-2.06,0,8.8,8.8,0,0,1-1.94-.41A6.72,6.72,0,0,1,46.19,88,6,6,0,0,1,45,86.82a6.22,6.22,0,0,1-.71-1.21,6.13,6.13,0,0,1-.34-1A4.4,4.4,0,0,1,43.8,83.65Z"/><path class="cls-7" d="M56.59,80a3.76,3.76,0,0,0,.32.38c.11.1.23.21.37.32a2.88,2.88,0,0,0,.47.3l.26.13.26.09.25.07.23,0,.19,0,.16,0,.14,0-.14,0a1.66,1.66,0,0,1-.37,0,1,1,0,0,1-.24,0l-.28,0-.29-.08-.28-.13a2.62,2.62,0,0,1-.5-.35L57,80.68a.9.9,0,0,1-.14-.2A1.68,1.68,0,0,1,56.59,80Z"/><g class="cls-8"><path class="cls-9" d="M66.85,71.27c-2-3.45-7.71-5.25-10.67-4.11s-4.35,2.3-6.31,1.48c-1.15-.48-2-1.31-3.51-1.79a4.37,4.37,0,0,1,1,1c1.24,1.64,2.87,2.78,5.34,1.56,4.47-2.22,7.9-.82,10,2.41,3.46,5.3,3.4,16.95-2.63,22.85-4.18,3.46-7.1,3.53-9.31,1.81S46.13,103.71,35.55,95h0a17.61,17.61,0,0,0,10,5.38c3.33.32,4.16-1.36,6.46-.7,3,1.06,9.19,1.31,14-7.06A21.81,21.81,0,0,0,66.85,71.27Z"/></g><path class="cls-10" d="M49,56l0,0s-.31-.43-1.26,0-.86.69-.46,1A2.91,2.91,0,0,0,49,56Z"/><path class="cls-11" d="M49,56a2.91,2.91,0,0,1-1.75,1c.4.34,4,7.27,3.13,12.72a1.48,1.48,0,0,0,.72.2S52.09,60.42,49,56Z"/><path class="cls-7" d="M48.15,68.43s1.73,3.4,5.54.31a6.58,6.58,0,0,1-3,1A4.66,4.66,0,0,1,48.15,68.43Z"/><path class="cls-12" d="M50.94,65.1c12,1.61,12.45-9.31,12.45-9.31S55.36,57.92,50.94,65.1Z"/><path class="cls-13" d="M50.94,65.1c4.42-7.18,12.45-9.31,12.45-9.31C52.46,53.5,50.94,65.1,50.94,65.1Z"/><path class="cls-5" d="M46.64,72.52a.88.88,0,0,0-.84.82.09.09,0,0,0,.12.09s0,0,.06,0a1.2,1.2,0,0,1,1.12-.07.17.17,0,0,0,.18-.13A.63.63,0,0,0,46.64,72.52Z"/><path class="cls-5" d="M53.77,71.79a.87.87,0,0,0-.83.82.08.08,0,0,0,.12.09s0,0,0,0a1.22,1.22,0,0,1,1.13-.08c.08,0,.16-.06.17-.13A.63.63,0,0,0,53.77,71.79Z"/><path class="cls-7" d="M45.26,78a2.15,2.15,0,0,1,2.57,1A4,4,0,0,0,45.26,78Z"/><path class="cls-7" d="M55.41,77.3a2.16,2.16,0,0,0-2.57,1A4,4,0,0,1,55.41,77.3Z"/><path class="cls-14" d="M43.71,83.16s1.43,5.68,6.92,5.63c4.2-.1,6.56-3.44,7-7.55-1.08-.16-1.13-1.64-1.13-1.64a4,4,0,0,0,3.11,1.63,1.7,1.7,0,0,1-1.7.14s.31,8.17-6.26,8.51C46.77,90.23,43.61,88,43.71,83.16Z"/><path class="cls-2" d="M10.5,74.09a13.76,13.76,0,0,1,10.34-7.88c5.21-.61,6.23,1.23,8.2,2.05s3.37-.33,6.32-1.47,8.69.65,10.66,4.1a21.76,21.76,0,0,1-.82,21.32c-4.84,8.37-11.07,8.13-14,7.06-2.29-.66-3.13,1-6.45.7a17.83,17.83,0,0,1-14.54-14.4A18.82,18.82,0,0,1,10.5,74.09Z"/><path class="cls-3" d="M25.7,76.37c.06.94.4,1.67.75,1.63s.57-.83.51-1.77-.4-1.68-.75-1.64S25.63,75.42,25.7,76.37Z"/><path class="cls-4" d="M20.41,68.94s-4.49,2.27-5.61,9.91L12,78.41a15,15,0,0,1,7-10Z"/><path class="cls-4" d="M11.5,80.24a7.47,7.47,0,0,1,2.59.28c-.48,1.91-.68,3.18-.68,3.18l-1.55-.24A7.74,7.74,0,0,1,11.5,80.24Z"/><path class="cls-5" d="M25.5,76.22c.06.94.4,1.68.74,1.64s.58-.83.52-1.78-.4-1.67-.75-1.63S25.43,75.28,25.5,76.22Z"/><path class="cls-6" d="M26.17,75.43c0,.28.15.49.26.47s.16-.27.12-.55-.16-.49-.26-.47S26.13,75.15,26.17,75.43Z"/><path class="cls-3" d="M32.48,75.52c.06,1,.4,1.7.75,1.66s.57-.84.51-1.8-.4-1.7-.75-1.66S32.41,74.56,32.48,75.52Z"/><path class="cls-5" d="M32.28,75.38c.06,1,.4,1.7.75,1.66s.57-.85.51-1.8-.4-1.7-.75-1.67S32.21,74.42,32.28,75.38Z"/><path class="cls-6" d="M33,74.57c0,.29.16.5.26.48s.16-.27.12-.56-.16-.5-.26-.48S32.91,74.28,33,74.57Z"/><path class="cls-7" d="M23,83.27a4.47,4.47,0,0,0,.19.92,6,6,0,0,0,1.12,2.16,5.48,5.48,0,0,0,1.19,1.1,6.49,6.49,0,0,0,1.63.79,9,9,0,0,0,1.9.4,10.38,10.38,0,0,0,2,0,6.1,6.1,0,0,0,1.93-.49,5.3,5.3,0,0,0,1.59-1.07,7.2,7.2,0,0,0,1.76-2.93,11.41,11.41,0,0,0,.52-2.4,9,9,0,0,0,.07-.94,8.35,8.35,0,0,1,0,.94,10.72,10.72,0,0,1-.43,2.44,9.34,9.34,0,0,1-.64,1.54,6.19,6.19,0,0,1-1.11,1.5A5.5,5.5,0,0,1,33,88.36a6.15,6.15,0,0,1-2,.52,10,10,0,0,1-2.05,0A9.52,9.52,0,0,1,27,88.45a6.34,6.34,0,0,1-1.66-.85,6,6,0,0,1-1.2-1.16,5.35,5.35,0,0,1-.71-1.21,6.27,6.27,0,0,1-.35-1A4.4,4.4,0,0,1,23,83.27Z"/><path class="cls-7" d="M35.77,79.64a3.76,3.76,0,0,0,.32.38,4.27,4.27,0,0,0,.37.33,4.22,4.22,0,0,0,.47.3c.08,0,.17.08.25.12l.26.09.25.07c.08,0,.16,0,.23,0l.2,0,.16,0,.13,0-.13,0a1.26,1.26,0,0,1-.37,0,1.07,1.07,0,0,1-.25,0l-.27,0A2.45,2.45,0,0,1,37.1,81a1.75,1.75,0,0,1-.28-.13,2.34,2.34,0,0,1-.5-.35c-.07-.06-.13-.14-.19-.2a2,2,0,0,1-.36-.67Z"/><g class="cls-8"><path class="cls-9" d="M46,70.89c-2-3.45-7.71-5.25-10.66-4.1S31,69.08,29,68.26a32.18,32.18,0,0,0-3.5-1.79,4.56,4.56,0,0,1,1,1c1.23,1.64,2.87,2.78,5.33,1.56,4.47-2.21,7.91-.82,10,2.41,3.45,5.3,3.39,17-2.63,22.86-4.19,3.45-7.1,3.52-9.31,1.8s-4.68,7.26-15.26-1.48h0a17.55,17.55,0,0,0,10,5.38c3.32.32,4.16-1.36,6.45-.7,3,1.07,9.19,1.31,14-7.06A21.76,21.76,0,0,0,46,70.89Z"/></g><path class="cls-10" d="M28.16,55.6l0-.05s-.31-.43-1.25,0-.86.69-.46,1A2.94,2.94,0,0,0,28.16,55.6Z"/><path class="cls-11" d="M28.16,55.6a2.94,2.94,0,0,1-1.75,1c.4.34,4,7.27,3.12,12.72a1.55,1.55,0,0,0,.73.2S31.27,60,28.16,55.6Z"/><path class="cls-7" d="M27.33,68.05s1.73,3.4,5.54.31a6.64,6.64,0,0,1-3,1A4.61,4.61,0,0,1,27.33,68.05Z"/><path class="cls-12" d="M30.12,64.73c12,1.6,12.45-9.32,12.45-9.32S34.54,57.54,30.12,64.73Z"/><path class="cls-13" d="M30.12,64.73c4.42-7.19,12.45-9.32,12.45-9.32C31.63,53.12,30.12,64.73,30.12,64.73Z"/><path class="cls-5" d="M25.81,72.14A.87.87,0,0,0,25,73a.09.09,0,0,0,.12.09,0,0,0,0,0,0,0A1.22,1.22,0,0,1,26.28,73c.08,0,.16-.06.17-.13A.63.63,0,0,0,25.81,72.14Z"/><path class="cls-5" d="M33,71.41a.88.88,0,0,0-.84.82c0,.08.07.12.12.09a0,0,0,0,0,.06,0,1.25,1.25,0,0,1,1.13-.08c.08,0,.15-.06.17-.13A.63.63,0,0,0,33,71.41Z"/><path class="cls-7" d="M24.43,77.63a2.16,2.16,0,0,1,2.57,1A4,4,0,0,0,24.43,77.63Z"/><path class="cls-7" d="M34.59,76.92a2.16,2.16,0,0,0-2.57,1A4,4,0,0,1,34.59,76.92Z"/><path class="cls-14" d="M22.89,82.78s1.43,5.68,6.92,5.63c4.2-.09,6.55-3.44,7-7.55-1.08-.15-1.13-1.64-1.13-1.64a4,4,0,0,0,3.11,1.63,1.7,1.7,0,0,1-1.7.14s.31,8.17-6.26,8.51C25.94,89.85,22.79,87.57,22.89,82.78Z"/></g></g></svg>