<svg xmlns="http://www.w3.org/2000/svg" viewBox="0 0 105.29 104.84"><defs><style>.cls-1{isolation:isolate;}.cls-2{fill:#e30613;}.cls-14,.cls-3,.cls-9{fill:#c80613;}.cls-14,.cls-3,.cls-8{mix-blend-mode:multiply;}.cls-4{fill:#f4a081;mix-blend-mode:color-dodge;}.cls-5{fill:#3d1a0b;}.cls-6{fill:#fff;}.cls-7{fill:#790613;}.cls-10{fill:#623f24;}.cls-11{fill:#a06640;}.cls-12{fill:#279235;}.cls-13{fill:#8abd24;}.cls-14{opacity:0.5;}</style></defs><title>apple3</title><g class="cls-1"><g id="Layer_1" data-name="Layer 1"><path class="cls-2" d="M29.28,36a15.84,15.84,0,0,1,11.91-9.08c6-.71,7.19,1.42,9.46,2.36s3.87-.38,7.28-1.7,10,.76,12.29,4.73a25.12,25.12,0,0,1-1,24.58C63.69,66.52,56.51,66.24,53.1,65c-2.64-.75-3.61,1.18-7.44.81A20.57,20.57,0,0,1,28.9,49.22,21.66,21.66,0,0,1,29.28,36Z"/><path class="cls-3" d="M46.79,38.61c.08,1.09.46,1.93.86,1.89s.67-1,.59-2-.46-1.93-.86-1.88S46.72,37.53,46.79,38.61Z"/><path class="cls-4" d="M40.7,30.06s-5.18,2.61-6.47,11.41L31,41a17.39,17.39,0,0,1,8-11.51Z"/><path class="cls-4" d="M30.43,43.08a8.56,8.56,0,0,1,3,.32c-.55,2.2-.78,3.67-.78,3.67l-1.79-.28A9,9,0,0,1,30.43,43.08Z"/><path class="cls-5" d="M46.56,38.45c.07,1.08.46,1.93.86,1.88s.67-.95.59-2-.46-1.93-.86-1.89S46.48,37.36,46.56,38.45Z"/><path class="cls-6" d="M47.33,37.53c.05.33.18.57.3.55s.18-.31.14-.64-.18-.57-.3-.54S47.29,37.21,47.33,37.53Z"/><path class="cls-3" d="M54.61,37.64c.07,1.1.46,2,.86,1.91s.66-1,.59-2.07-.46-2-.86-1.92S54.53,36.54,54.61,37.64Z"/><path class="cls-5" d="M54.38,37.47c.07,1.11.45,2,.86,1.92s.66-1,.59-2.08-.46-2-.86-1.91S54.3,36.37,54.38,37.47Z"/><path class="cls-6" d="M55.15,36.54c.05.34.18.58.3.56s.18-.32.14-.65-.18-.58-.3-.55S55.1,36.21,55.15,36.54Z"/><path class="cls-7" d="M43.65,46.58a5.19,5.19,0,0,0,.21,1.05,7,7,0,0,0,1.3,2.49,6,6,0,0,0,1.37,1.27,7.83,7.83,0,0,0,1.88.92,10.38,10.38,0,0,0,2.19.45,12,12,0,0,0,2.32,0,7.11,7.11,0,0,0,2.22-.56A6,6,0,0,0,57,51a8.27,8.27,0,0,0,2-3.38,13,13,0,0,0,.6-2.76,8.54,8.54,0,0,0,.07-1.08,8.92,8.92,0,0,1,0,1.08,12.86,12.86,0,0,1-.5,2.81,10.07,10.07,0,0,1-.74,1.78,7.32,7.32,0,0,1-1.27,1.73,6.39,6.39,0,0,1-1.91,1.3,7.23,7.23,0,0,1-2.3.6,11.73,11.73,0,0,1-2.37,0,10.38,10.38,0,0,1-2.24-.48,7.39,7.39,0,0,1-1.92-1A6.53,6.53,0,0,1,45,50.22a6.22,6.22,0,0,1-.82-1.39,6.84,6.84,0,0,1-.4-1.18A5.21,5.21,0,0,1,43.65,46.58Z"/><path class="cls-7" d="M58.4,42.39a3.39,3.39,0,0,0,.37.43,5.5,5.5,0,0,0,.42.38,3.43,3.43,0,0,0,.55.35l.29.14.3.11.29.08.26,0a1,1,0,0,0,.23,0l.18,0,.16,0-.16,0a1.61,1.61,0,0,1-.42,0,1.43,1.43,0,0,1-.29,0l-.32,0-.33-.1c-.11,0-.22-.08-.33-.14a3.08,3.08,0,0,1-.57-.41c-.08-.07-.15-.16-.22-.23l-.17-.24A1.71,1.71,0,0,1,58.4,42.39Z"/><g class="cls-8"><path class="cls-9" d="M70.22,32.3c-2.27-4-8.89-6-12.29-4.73s-5,2.65-7.28,1.7c-1.33-.55-2.28-1.5-4-2.06a5.11,5.11,0,0,1,1.2,1.12c1.42,1.89,3.3,3.2,6.14,1.79,5.16-2.55,9.11-.94,11.54,2.78,4,6.11,3.92,19.54-3,26.34-4.82,4-8.18,4.07-10.73,2.08s-5.39,8.37-17.58-1.7h0a20.22,20.22,0,0,0,11.51,6.2c3.83.37,4.8-1.56,7.44-.81,3.41,1.23,10.59,1.51,16.17-8.13A25.12,25.12,0,0,0,70.22,32.3Z"/></g><path class="cls-10" d="M49.62,14.68l0-.06s-.36-.49-1.45,0-1,.8-.53,1.2A3.32,3.32,0,0,0,49.62,14.68Z"/><path class="cls-11" d="M49.62,14.68a3.32,3.32,0,0,1-2,1.14c.46.39,4.62,8.38,3.6,14.67a1.74,1.74,0,0,0,.83.22S53.21,19.8,49.62,14.68Z"/><path class="cls-7" d="M48.67,29s2,3.91,6.39.36c0,0-2.11,1.29-3.45,1.16A5.31,5.31,0,0,1,48.67,29Z"/><path class="cls-12" d="M51.89,25.2C65.66,27,66.23,14.46,66.23,14.46S57,16.92,51.89,25.2Z"/><path class="cls-13" d="M51.89,25.2C57,16.92,66.23,14.46,66.23,14.46,53.63,11.82,51.89,25.2,51.89,25.2Z"/><path class="cls-5" d="M46.92,33.74a1,1,0,0,0-1,.95.1.1,0,0,0,.14.1,0,0,0,0,0,.06,0,1.39,1.39,0,0,1,1.3-.09c.1,0,.18-.07.2-.15A.72.72,0,0,0,46.92,33.74Z"/><path class="cls-5" d="M55.15,32.9a1,1,0,0,0-1,1,.09.09,0,0,0,.13.1,0,0,0,0,0,.07,0,1.39,1.39,0,0,1,1.3-.09c.09,0,.18-.06.19-.15A.72.72,0,0,0,55.15,32.9Z"/><path class="cls-7" d="M45.33,40.07a2.48,2.48,0,0,1,3,1.17A4.6,4.6,0,0,0,45.33,40.07Z"/><path class="cls-7" d="M57,39.26s-1.58-.71-3,1.17A4.58,4.58,0,0,1,57,39.26Z"/><path class="cls-14" d="M43.55,46s1.65,6.55,8,6.49c4.84-.11,7.55-4,8.07-8.7-1.24-.18-1.3-1.89-1.3-1.89a4.68,4.68,0,0,0,3.59,1.88,2,2,0,0,1-2,.15s.36,9.42-7.22,9.82C47.07,54.15,43.44,51.53,43.55,46Z"/><path class="cls-2" d="M3.79,60.84A15.84,15.84,0,0,1,15.7,51.77c6-.71,7.19,1.42,9.46,2.36s3.87-.38,7.28-1.7,10,.76,12.29,4.73a25.12,25.12,0,0,1-.95,24.58C38.21,91.38,31,91.1,27.62,89.87c-2.65-.76-3.61,1.18-7.44.81A20.58,20.58,0,0,1,3.41,74.08,21.79,21.79,0,0,1,3.79,60.84Z"/><path class="cls-3" d="M21.3,63.47c.08,1.09.46,1.93.87,1.89s.66-1,.59-2-.46-1.93-.86-1.89S21.23,62.38,21.3,63.47Z"/><path class="cls-4" d="M15.21,54.91S10,57.53,8.75,66.33l-3.21-.5a17.35,17.35,0,0,1,8-11.51Z"/><path class="cls-4" d="M4.94,67.94a8.56,8.56,0,0,1,3,.32c-.55,2.2-.78,3.66-.78,3.66l-1.79-.27A9,9,0,0,1,4.94,67.94Z"/><path class="cls-5" d="M21.07,63.31c.08,1.08.46,1.93.86,1.88s.67-1,.6-2-.46-1.93-.87-1.89S21,62.22,21.07,63.31Z"/><path class="cls-6" d="M21.85,62.39c0,.33.18.57.3.55s.18-.32.13-.64-.18-.57-.3-.54S21.8,62.07,21.85,62.39Z"/><path class="cls-3" d="M29.12,62.5c.08,1.1.46,2,.86,1.91s.67-1,.59-2.07-.46-2-.86-1.92S29.05,61.39,29.12,62.5Z"/><path class="cls-5" d="M28.89,62.33c.07,1.1.46,2,.86,1.92s.67-1,.59-2.08-.46-2-.86-1.92S28.81,61.23,28.89,62.33Z"/><path class="cls-6" d="M29.66,61.4c.05.33.18.58.3.56s.18-.32.14-.65-.18-.58-.3-.55S29.62,61.07,29.66,61.4Z"/><path class="cls-7" d="M18.16,71.43a5.85,5.85,0,0,0,.22,1.06A6.82,6.82,0,0,0,19.67,75,6.72,6.72,0,0,0,21,76.25a7.45,7.45,0,0,0,1.88.91,10.38,10.38,0,0,0,2.19.46,12,12,0,0,0,2.32,0,7.63,7.63,0,0,0,2.22-.56,6.4,6.4,0,0,0,1.84-1.24,8.44,8.44,0,0,0,2-3.38,14.31,14.31,0,0,0,.6-2.77c.07-.68.07-1.07.07-1.07s0,.39,0,1.08a12.46,12.46,0,0,1-.5,2.81,10.8,10.8,0,0,1-.73,1.78A7.12,7.12,0,0,1,31.66,76a6.38,6.38,0,0,1-1.9,1.31,7.29,7.29,0,0,1-2.31.6,12.39,12.39,0,0,1-2.36,0,11,11,0,0,1-2.25-.48,7.17,7.17,0,0,1-1.91-1,6.84,6.84,0,0,1-1.39-1.34,6.44,6.44,0,0,1-.82-1.4,7.15,7.15,0,0,1-.4-1.18A5.12,5.12,0,0,1,18.16,71.43Z"/><path class="cls-7" d="M32.91,67.25a4.87,4.87,0,0,0,.37.43c.12.12.27.25.43.38a2.91,2.91,0,0,0,.54.34,1.92,1.92,0,0,0,.29.14l.3.11.29.08a2.61,2.61,0,0,0,.27.06,2.07,2.07,0,0,0,.22,0l.18,0,.16,0-.16,0a1.56,1.56,0,0,1-.42,0,1.45,1.45,0,0,1-.29,0,1.81,1.81,0,0,1-.31,0c-.11,0-.22,0-.33-.09a3.31,3.31,0,0,1-.33-.15,2.64,2.64,0,0,1-.57-.4,1.6,1.6,0,0,1-.22-.24,1.13,1.13,0,0,1-.17-.23A1.73,1.73,0,0,1,32.91,67.25Z"/><g class="cls-8"><path class="cls-9" d="M44.73,57.16c-2.27-4-8.89-6-12.29-4.73s-5,2.65-7.28,1.7c-1.33-.55-2.28-1.5-4-2.06a4.72,4.72,0,0,1,1.2,1.12c1.42,1.89,3.31,3.2,6.15,1.79C33.62,52.43,37.58,54,40,57.76c4,6.11,3.92,19.54-3,26.34-4.82,4-8.18,4.07-10.73,2.08s-5.39,8.37-17.59-1.7h0a20.28,20.28,0,0,0,11.52,6.2c3.83.37,4.79-1.57,7.44-.81,3.4,1.23,10.59,1.51,16.16-8.13A25.12,25.12,0,0,0,44.73,57.16Z"/></g><path class="cls-10" d="M24.14,39.54a.21.21,0,0,1,0-.06s-.36-.49-1.45,0-1,.8-.53,1.19A3.33,3.33,0,0,0,24.14,39.54Z"/><path class="cls-11" d="M24.14,39.54a3.33,3.33,0,0,1-2,1.13c.47.4,4.62,8.39,3.6,14.67a1.74,1.74,0,0,0,.84.23S27.72,44.66,24.14,39.54Z"/><path class="cls-7" d="M23.18,53.88s2,3.92,6.39.37c0,0-2.1,1.28-3.44,1.16A5.34,5.34,0,0,1,23.18,53.88Z"/><path class="cls-12" d="M26.4,50.05C40.18,51.9,40.75,39.32,40.75,39.32S31.49,41.78,26.4,50.05Z"/><path class="cls-13" d="M26.4,50.05c5.09-8.27,14.35-10.73,14.35-10.73C28.14,36.68,26.4,50.05,26.4,50.05Z"/><path class="cls-5" d="M21.44,58.6a1,1,0,0,0-1,.95.09.09,0,0,0,.13.1s0,0,.07,0a1.42,1.42,0,0,1,1.3-.08c.09,0,.18-.07.19-.15A.72.72,0,0,0,21.44,58.6Z"/><path class="cls-5" d="M29.66,57.76a1,1,0,0,0-1,1,.1.1,0,0,0,.14.1s0,0,.06,0a1.39,1.39,0,0,1,1.3-.09c.1,0,.18-.07.2-.15A.73.73,0,0,0,29.66,57.76Z"/><path class="cls-7" d="M19.85,64.93s1.58-.71,3,1.17A4.6,4.6,0,0,0,19.85,64.93Z"/><path class="cls-7" d="M31.55,64.11a2.48,2.48,0,0,0-3,1.17A4.6,4.6,0,0,1,31.55,64.11Z"/><path class="cls-14" d="M18.07,70.87s1.65,6.55,8,6.49c4.84-.12,7.56-4,8.08-8.71-1.25-.18-1.3-1.88-1.3-1.88a4.65,4.65,0,0,0,3.58,1.87,2,2,0,0,1-1.95.16s.35,9.42-7.22,9.81C21.59,79,18,76.39,18.07,70.87Z"/><path class="cls-2" d="M59,55.77A15.84,15.84,0,0,1,70.91,46.7c6-.71,7.18,1.41,9.45,2.36s3.88-.38,7.28-1.7,10,.75,12.29,4.72A25.13,25.13,0,0,1,99,76.67C93.41,86.31,86.23,86,82.82,84.8c-2.65-.76-3.61,1.18-7.44.8A20.56,20.56,0,0,1,58.62,69,21.7,21.7,0,0,1,59,55.77Z"/><path class="cls-3" d="M76.51,58.4c.07,1.08.46,1.93.86,1.89s.67-1,.59-2-.46-1.93-.86-1.89S76.43,57.31,76.51,58.4Z"/><path class="cls-4" d="M70.42,49.84S65.23,52.46,64,61.26l-3.21-.51a17.36,17.36,0,0,1,8-11.5Z"/><path class="cls-4" d="M60.15,62.86a8.86,8.86,0,0,1,3,.32c-.55,2.21-.78,3.67-.78,3.67l-1.79-.27A9,9,0,0,1,60.15,62.86Z"/><path class="cls-5" d="M76.28,58.23c.07,1.09.46,1.93.86,1.89s.66-1,.59-2-.46-1.94-.86-1.89S76.2,57.15,76.28,58.23Z"/><path class="cls-6" d="M77.05,57.32c0,.32.18.57.3.54s.18-.31.14-.63-.18-.57-.3-.55S77,57,77.05,57.32Z"/><path class="cls-3" d="M84.33,57.42c.07,1.11.45,2,.86,1.92s.66-1,.59-2.08-.46-2-.86-1.91S84.25,56.32,84.33,57.42Z"/><path class="cls-5" d="M84.09,57.26c.08,1.1.46,2,.87,1.92s.66-1,.59-2.08-.46-2-.86-1.92S84,56.16,84.09,57.26Z"/><path class="cls-6" d="M84.87,56.33c0,.33.18.58.3.55s.18-.31.13-.64-.18-.58-.3-.55S84.82,56,84.87,56.33Z"/><path class="cls-7" d="M73.37,66.36a5.2,5.2,0,0,0,.21,1.06,7.23,7.23,0,0,0,1.29,2.49,6.79,6.79,0,0,0,1.38,1.27,7.92,7.92,0,0,0,1.87.91,9.87,9.87,0,0,0,2.2.45,11.88,11.88,0,0,0,2.31,0A7.69,7.69,0,0,0,84.86,72a6.49,6.49,0,0,0,1.83-1.24,8.44,8.44,0,0,0,2-3.38,13.07,13.07,0,0,0,.6-2.77c.07-.68.07-1.08.07-1.08a8.23,8.23,0,0,1,0,1.09,12.46,12.46,0,0,1-.5,2.81,9,9,0,0,1-.73,1.77,6.92,6.92,0,0,1-1.28,1.73A6.38,6.38,0,0,1,85,72.23a7.51,7.51,0,0,1-2.3.6,12.5,12.5,0,0,1-2.37,0,10.14,10.14,0,0,1-2.24-.49,7.37,7.37,0,0,1-1.92-1A6.53,6.53,0,0,1,74.75,70a6.05,6.05,0,0,1-.82-1.4,6.32,6.32,0,0,1-.4-1.18A5.12,5.12,0,0,1,73.37,66.36Z"/><path class="cls-7" d="M88.12,62.18a3.39,3.39,0,0,0,.37.43,5.5,5.5,0,0,0,.42.38,4.93,4.93,0,0,0,.54.34c.1.06.2.09.3.14l.3.11.28.08.27.06.23,0,.18,0,.16,0-.16,0a2.21,2.21,0,0,1-.42,0,1.43,1.43,0,0,1-.29,0,1.92,1.92,0,0,1-.32,0c-.11,0-.22,0-.33-.09l-.33-.15a2.64,2.64,0,0,1-.57-.4l-.22-.24c-.06-.08-.12-.15-.17-.23A1.83,1.83,0,0,1,88.12,62.18Z"/><g class="cls-8"><path class="cls-9" d="M99.93,52.08c-2.26-4-8.88-6-12.29-4.72s-5,2.65-7.28,1.7c-1.32-.55-2.28-1.51-4-2.06a4.87,4.87,0,0,1,1.2,1.11c1.42,1.9,3.3,3.21,6.14,1.8,5.16-2.55,9.11-.95,11.54,2.78,4,6.11,3.92,19.53-3,26.34C87.36,83,84,83.1,81.45,81.11s-5.39,8.37-17.59-1.7h0A20.24,20.24,0,0,0,75.38,85.6c3.83.38,4.79-1.56,7.44-.8C86.23,86,93.41,86.31,99,76.67A25.13,25.13,0,0,0,99.93,52.08Z"/></g><path class="cls-10" d="M79.34,34.47l0-.06s-.35-.5-1.44,0-1,.79-.53,1.19A3.34,3.34,0,0,0,79.34,34.47Z"/><path class="cls-11" d="M79.34,34.47a3.34,3.34,0,0,1-2,1.13c.46.4,4.62,8.38,3.6,14.67a1.67,1.67,0,0,0,.83.23S82.93,39.59,79.34,34.47Z"/><path class="cls-7" d="M78.39,48.81s2,3.92,6.39.37c0,0-2.11,1.28-3.45,1.15A5.24,5.24,0,0,1,78.39,48.81Z"/><path class="cls-12" d="M81.6,45C95.38,46.83,96,34.25,96,34.25S86.7,36.7,81.6,45Z"/><path class="cls-13" d="M81.6,45C86.7,36.7,96,34.25,96,34.25,83.35,31.61,81.6,45,81.6,45Z"/><path class="cls-5" d="M76.64,53.53a1,1,0,0,0-1,.94.11.11,0,0,0,.14.11,0,0,0,0,0,.06,0,1.42,1.42,0,0,1,1.3-.08c.1,0,.18-.07.2-.15A.72.72,0,0,0,76.64,53.53Z"/><path class="cls-5" d="M84.87,52.69a1,1,0,0,0-1,1,.1.1,0,0,0,.14.1,0,0,0,0,0,.06,0,1.4,1.4,0,0,1,1.3-.09c.1,0,.18-.07.2-.15A.72.72,0,0,0,84.87,52.69Z"/><path class="cls-7" d="M75.05,59.86A2.48,2.48,0,0,1,78,61,4.55,4.55,0,0,0,75.05,59.86Z"/><path class="cls-7" d="M86.75,59a2.48,2.48,0,0,0-3,1.17A4.6,4.6,0,0,1,86.75,59Z"/><path class="cls-14" d="M73.27,65.79s1.65,6.55,8,6.5c4.84-.12,7.56-4,8.08-8.71-1.24-.18-1.3-1.89-1.3-1.89a4.65,4.65,0,0,0,3.59,1.88,2,2,0,0,1-2,.16s.36,9.41-7.22,9.81C76.79,73.94,73.16,71.32,73.27,65.79Z"/></g></g></svg>