<svg xmlns="http://www.w3.org/2000/svg" viewBox="0 0 105.29 104.84"><defs><style>.cls-1{isolation:isolate;}.cls-2{fill:#e30613;}.cls-14,.cls-3,.cls-9{fill:#c80613;}.cls-14,.cls-3,.cls-8{mix-blend-mode:multiply;}.cls-4{fill:#f4a081;mix-blend-mode:color-dodge;}.cls-5{fill:#3d1a0b;}.cls-6{fill:#fff;}.cls-7{fill:#790613;}.cls-10{fill:#623f24;}.cls-11{fill:#a06640;}.cls-12{fill:#279235;}.cls-13{fill:#8abd24;}.cls-14{opacity:0.5;}</style></defs><title>apple8</title><g class="cls-1"><g id="Layer_1" data-name="Layer 1"><path class="cls-2" d="M48.76,23.55a14.12,14.12,0,0,1,10.61-8.08c5.34-.63,6.39,1.26,8.41,2.1s3.45-.33,6.48-1.51,8.92.67,10.94,4.21a22.33,22.33,0,0,1-.85,21.87C79.39,50.72,73,50.47,70,49.38c-2.36-.67-3.22,1-6.63.72A18.3,18.3,0,0,1,48.43,35.33,19.37,19.37,0,0,1,48.76,23.55Z"/><path class="cls-3" d="M64.35,25.89c.07,1,.41,1.71.77,1.68s.59-.86.52-1.82-.41-1.72-.76-1.69S64.28,24.92,64.35,25.89Z"/><path class="cls-4" d="M58.93,18.27s-4.61,2.33-5.76,10.16L50.32,28a15.45,15.45,0,0,1,7.14-10.24Z"/><path class="cls-4" d="M49.79,29.86a7.81,7.81,0,0,1,2.65.28c-.49,2-.69,3.27-.69,3.27l-1.6-.25A7.93,7.93,0,0,1,49.79,29.86Z"/><path class="cls-5" d="M64.14,25.74c.07,1,.41,1.72.77,1.68s.59-.85.53-1.82-.41-1.72-.77-1.68S64.08,24.77,64.14,25.74Z"/><path class="cls-6" d="M64.83,24.92c0,.29.16.51.27.49s.16-.28.12-.57-.16-.5-.27-.48S64.79,24.64,64.83,24.92Z"/><path class="cls-3" d="M71.3,25c.07,1,.41,1.74.77,1.7s.59-.86.53-1.84-.41-1.75-.77-1.71S71.24,24,71.3,25Z"/><path class="cls-5" d="M71.1,24.87c.07,1,.41,1.75.77,1.71s.59-.87.52-1.85S72,23,71.63,23,71,23.89,71.1,24.87Z"/><path class="cls-6" d="M71.79,24c0,.3.16.52.26.5s.17-.28.13-.58-.16-.51-.27-.49S71.75,23.75,71.79,24Z"/><path class="cls-7" d="M61.55,33a5.94,5.94,0,0,0,.19.94,6.46,6.46,0,0,0,1.15,2.22,6.12,6.12,0,0,0,1.23,1.13,7,7,0,0,0,1.67.81,8.23,8.23,0,0,0,1.95.4,10.13,10.13,0,0,0,2.06,0,6.7,6.7,0,0,0,2-.5,5.47,5.47,0,0,0,1.63-1.11,7.46,7.46,0,0,0,1.81-3,12.82,12.82,0,0,0,.53-2.46,7.49,7.49,0,0,0,.06-1,7.07,7.07,0,0,1,0,1,11.46,11.46,0,0,1-.45,2.5,8,8,0,0,1-.65,1.58A6.33,6.33,0,0,1,73.56,37a5.59,5.59,0,0,1-1.69,1.16,6.82,6.82,0,0,1-2.05.54,11.44,11.44,0,0,1-2.11,0,9.91,9.91,0,0,1-2-.43A7,7,0,0,1,64,37.41a6.35,6.35,0,0,1-1.23-1.19A6.06,6.06,0,0,1,62.05,35a6.5,6.5,0,0,1-.35-1.06A4.28,4.28,0,0,1,61.55,33Z"/><path class="cls-7" d="M74.68,29.25a3.26,3.26,0,0,0,.33.38,2.6,2.6,0,0,0,.38.34,3.3,3.3,0,0,0,.48.31c.08,0,.18.08.26.12l.27.1.25.07.24.05.2,0,.16,0,.14,0-.14,0a1.83,1.83,0,0,1-.37,0h-.26l-.28-.05c-.1,0-.2,0-.3-.08l-.29-.13a2.74,2.74,0,0,1-.51-.36l-.19-.21a2.13,2.13,0,0,1-.37-.68Z"/><g class="cls-8"><path class="cls-9" d="M85.2,20.27c-2-3.54-7.91-5.39-10.94-4.21s-4.46,2.36-6.48,1.51c-1.18-.49-2-1.33-3.59-1.83a4.34,4.34,0,0,1,1.06,1c1.27,1.69,3,2.85,5.47,1.6,4.59-2.27,8.11-.84,10.27,2.47,3.55,5.44,3.49,17.39-2.69,23.45C74,47.79,71,47.86,68.75,46.1S64,53.54,53.1,44.58h0A18.07,18.07,0,0,0,63.34,50.1c3.41.33,4.27-1.39,6.63-.72,3,1.09,9.42,1.34,14.38-7.24A22.33,22.33,0,0,0,85.2,20.27Z"/></g><path class="cls-10" d="M66.87,4.59l0,0s-.32-.44-1.29,0-.89.7-.47,1.06A3,3,0,0,0,66.87,4.59Z"/><path class="cls-11" d="M66.87,4.59a3,3,0,0,1-1.79,1c.41.35,4.11,7.46,3.2,13.05a1.5,1.5,0,0,0,.74.21S70.06,9.15,66.87,4.59Z"/><path class="cls-7" d="M66,17.35s1.77,3.49,5.69.33a6.88,6.88,0,0,1-3.07,1A4.7,4.7,0,0,1,66,17.35Z"/><path class="cls-12" d="M68.88,14c12.26,1.64,12.77-9.56,12.77-9.56S73.42,6.58,68.88,14Z"/><path class="cls-13" d="M68.88,14c4.54-7.37,12.77-9.56,12.77-9.56C70.44,2.05,68.88,14,68.88,14Z"/><path class="cls-5" d="M64.47,21.55a.91.91,0,0,0-.86.84.09.09,0,0,0,.13.09s0,0,0,0A1.25,1.25,0,0,1,65,22.41c.08,0,.16-.06.17-.13A.64.64,0,0,0,64.47,21.55Z"/><path class="cls-5" d="M71.79,20.8a.92.92,0,0,0-.86.85.09.09,0,0,0,.12.09s0,0,.06,0a1.28,1.28,0,0,1,1.16-.07c.08,0,.15-.06.17-.14A.65.65,0,0,0,71.79,20.8Z"/><path class="cls-7" d="M63.05,27.18a2.21,2.21,0,0,1,2.64,1.05A4.09,4.09,0,0,0,63.05,27.18Z"/><path class="cls-7" d="M73.47,26.46a2.21,2.21,0,0,0-2.64,1A4.1,4.1,0,0,1,73.47,26.46Z"/><path class="cls-14" d="M61.47,32.47s1.47,5.83,7.09,5.77c4.31-.1,6.73-3.52,7.19-7.74-1.11-.16-1.16-1.68-1.16-1.68a4.16,4.16,0,0,0,3.2,1.67,1.77,1.77,0,0,1-1.75.14s.32,8.38-6.42,8.73C64.6,39.72,61.37,37.38,61.47,32.47Z"/><path class="cls-2" d="M19.64,23a14.09,14.09,0,0,1,10.6-8.07c5.34-.64,6.39,1.26,8.41,2.1s3.45-.34,6.48-1.51,8.92.67,10.94,4.2a22.37,22.37,0,0,1-.84,21.88c-5,8.58-11.36,8.33-14.39,7.23-2.36-.67-3.21,1-6.62.72A18.31,18.31,0,0,1,19.3,34.79,19.32,19.32,0,0,1,19.64,23Z"/><path class="cls-3" d="M35.22,25.35c.07,1,.41,1.72.77,1.68s.59-.85.53-1.82-.41-1.72-.77-1.68S35.16,24.39,35.22,25.35Z"/><path class="cls-4" d="M29.8,17.74s-4.61,2.32-5.75,10.16l-2.86-.45a15.45,15.45,0,0,1,7.14-10.24Z"/><path class="cls-4" d="M20.66,29.32a7.66,7.66,0,0,1,2.65.29c-.49,2-.69,3.26-.69,3.26L21,32.63A8.06,8.06,0,0,1,20.66,29.32Z"/><path class="cls-5" d="M35,25.2c.06,1,.41,1.72.76,1.68s.6-.85.53-1.82-.41-1.72-.77-1.68S35,24.24,35,25.2Z"/><path class="cls-6" d="M35.71,24.39c0,.29.16.51.26.49s.16-.28.12-.57-.16-.51-.26-.49S35.67,24.1,35.71,24.39Z"/><path class="cls-3" d="M42.18,24.48c.07,1,.41,1.75.77,1.71s.59-.87.52-1.85-.41-1.74-.76-1.7S42.11,23.5,42.18,24.48Z"/><path class="cls-5" d="M42,24.34c.07,1,.41,1.74.77,1.7s.59-.86.53-1.85-.41-1.74-.77-1.7S41.91,23.36,42,24.34Z"/><path class="cls-6" d="M42.66,23.51c0,.29.16.51.27.49s.16-.28.12-.57-.16-.52-.27-.49S42.62,23.22,42.66,23.51Z"/><path class="cls-7" d="M32.43,32.44a4.77,4.77,0,0,0,.19.94,6.12,6.12,0,0,0,1.15,2.22A5.51,5.51,0,0,0,35,36.72a6.83,6.83,0,0,0,1.67.82,9.36,9.36,0,0,0,2,.4,10.91,10.91,0,0,0,2.06,0,6.14,6.14,0,0,0,2-.5,5.44,5.44,0,0,0,1.63-1.1,7.46,7.46,0,0,0,1.81-3,11.39,11.39,0,0,0,.53-2.47,9.37,9.37,0,0,0,.07-1,8.88,8.88,0,0,1,0,1,10.78,10.78,0,0,1-.44,2.5A9.36,9.36,0,0,1,45.57,35a6.48,6.48,0,0,1-1.13,1.54,5.91,5.91,0,0,1-1.69,1.16,6.59,6.59,0,0,1-2.06.53,9.82,9.82,0,0,1-2.1,0,8.79,8.79,0,0,1-2-.43,6.2,6.2,0,0,1-1.7-.87,5.59,5.59,0,0,1-1.23-1.19,5.48,5.48,0,0,1-.74-1.24,6.12,6.12,0,0,1-.35-1A4.65,4.65,0,0,1,32.43,32.44Z"/><path class="cls-7" d="M45.55,28.71a3.83,3.83,0,0,0,.33.39,4.29,4.29,0,0,0,.38.33,3,3,0,0,0,.48.31l.27.13.26.09.26.07a1.06,1.06,0,0,0,.23,0,.86.86,0,0,0,.21,0l.15,0,.15,0-.14,0a1.76,1.76,0,0,1-.38,0,1,1,0,0,1-.25,0l-.29,0c-.09,0-.2-.05-.29-.09a1.51,1.51,0,0,1-.29-.13,2.12,2.12,0,0,1-.51-.36,1.31,1.31,0,0,1-.2-.21,2.08,2.08,0,0,1-.15-.2A1.78,1.78,0,0,1,45.55,28.71Z"/><g class="cls-8"><path class="cls-9" d="M56.07,19.73c-2-3.53-7.91-5.38-10.94-4.2S40.67,17.88,38.65,17c-1.18-.49-2-1.34-3.59-1.84a4.84,4.84,0,0,1,1.07,1c1.26,1.68,2.94,2.85,5.47,1.6,4.58-2.27,8.1-.85,10.27,2.47,3.55,5.44,3.48,17.38-2.7,23.44-4.29,3.55-7.28,3.62-9.55,1.85S34.82,53,24,44.05h0a18,18,0,0,0,10.25,5.51c3.41.33,4.26-1.39,6.62-.72,3,1.1,9.42,1.35,14.39-7.23A22.37,22.37,0,0,0,56.07,19.73Z"/></g><path class="cls-10" d="M37.74,4.05l0,0s-.32-.44-1.29,0-.88.71-.47,1.06A3,3,0,0,0,37.74,4.05Z"/><path class="cls-11" d="M37.74,4.05a3,3,0,0,1-1.79,1c.41.36,4.11,7.46,3.21,13.06a1.57,1.57,0,0,0,.74.2S40.94,8.61,37.74,4.05Z"/><path class="cls-7" d="M36.89,16.82s1.78,3.49,5.69.32a6.7,6.7,0,0,1-3.06,1A4.77,4.77,0,0,1,36.89,16.82Z"/><path class="cls-12" d="M39.76,13.41C52,15.06,52.53,3.86,52.53,3.86S44.29,6,39.76,13.41Z"/><path class="cls-13" d="M39.76,13.41C44.29,6,52.53,3.86,52.53,3.86,41.31,1.51,39.76,13.41,39.76,13.41Z"/><path class="cls-5" d="M35.34,21a.89.89,0,0,0-.85.84c0,.08.06.11.12.09s0,0,0,0a1.28,1.28,0,0,1,1.16-.07c.09,0,.16-.06.18-.14A.64.64,0,0,0,35.34,21Z"/><path class="cls-5" d="M42.66,20.27a.91.91,0,0,0-.86.84.09.09,0,0,0,.13.09s0,0,0,0a1.26,1.26,0,0,1,1.16-.08c.09,0,.16-.06.17-.13A.64.64,0,0,0,42.66,20.27Z"/><path class="cls-7" d="M33.93,26.65a2.2,2.2,0,0,1,2.63,1A4.09,4.09,0,0,0,33.93,26.65Z"/><path class="cls-7" d="M44.34,25.92a2.21,2.21,0,0,0-2.64,1A4.09,4.09,0,0,1,44.34,25.92Z"/><path class="cls-14" d="M32.34,31.93s1.47,5.83,7.1,5.78c4.3-.1,6.72-3.53,7.19-7.75-1.11-.16-1.16-1.68-1.16-1.68A4.16,4.16,0,0,0,48.66,30a1.76,1.76,0,0,1-1.74.13s.31,8.38-6.43,8.74C35.47,39.18,32.24,36.85,32.34,31.93Z"/><path class="cls-2" d="M57.68,47.59a14,14,0,0,1,10.55-8c5.32-.63,6.36,1.25,8.37,2.09s3.44-.33,6.45-1.51,8.88.67,10.89,4.19a22.24,22.24,0,0,1-.84,21.77c-4.94,8.54-11.3,8.29-14.32,7.2-2.34-.67-3.2,1-6.59.72a18.22,18.22,0,0,1-14.85-14.7A19.22,19.22,0,0,1,57.68,47.59Z"/><path class="cls-3" d="M73.19,49.91c.07,1,.41,1.71.76,1.67s.59-.84.53-1.81-.41-1.71-.77-1.67S73.12,49,73.19,49.91Z"/><path class="cls-4" d="M67.79,42.33s-4.59,2.32-5.72,10.12L59.22,52a15.39,15.39,0,0,1,7.11-10.19Z"/><path class="cls-4" d="M58.7,53.87a7.75,7.75,0,0,1,2.64.28c-.49,2-.69,3.25-.69,3.25l-1.59-.24A7.9,7.9,0,0,1,58.7,53.87Z"/><path class="cls-5" d="M73,49.77c.06,1,.4,1.71.76,1.67s.59-.85.52-1.81-.41-1.71-.76-1.68S72.92,48.8,73,49.77Z"/><path class="cls-6" d="M73.67,49c0,.28.16.5.27.48s.16-.28.12-.56-.16-.51-.27-.49S73.63,48.67,73.67,49Z"/><path class="cls-3" d="M80.11,49.05c.07,1,.41,1.74.77,1.7s.59-.87.52-1.84-.41-1.74-.76-1.7S80.05,48.07,80.11,49.05Z"/><path class="cls-5" d="M79.91,48.9c.06,1,.4,1.74.76,1.7s.59-.86.52-1.84-.4-1.74-.76-1.7S79.84,47.93,79.91,48.9Z"/><path class="cls-6" d="M80.59,48.08c0,.29.16.51.27.49S81,48.29,81,48s-.16-.51-.27-.49S80.55,47.79,80.59,48.08Z"/><path class="cls-7" d="M70.41,57a4.63,4.63,0,0,0,.19.94,6.2,6.2,0,0,0,1.14,2.21A5.75,5.75,0,0,0,73,61.23a7.11,7.11,0,0,0,1.66.81,9.4,9.4,0,0,0,1.94.4,10.13,10.13,0,0,0,2.06,0,6.27,6.27,0,0,0,2-.49,5.44,5.44,0,0,0,1.63-1.1,7.51,7.51,0,0,0,1.8-3,12.75,12.75,0,0,0,.53-2.45c.06-.61.06-1,.06-1s0,.35,0,1a11.39,11.39,0,0,1-.45,2.49,8.18,8.18,0,0,1-.65,1.57A6,6,0,0,1,82.36,61a5.69,5.69,0,0,1-1.68,1.15,6.54,6.54,0,0,1-2,.53,9.82,9.82,0,0,1-2.1,0,9.26,9.26,0,0,1-2-.42,6.64,6.64,0,0,1-1.7-.87,6,6,0,0,1-1.22-1.18A6.06,6.06,0,0,1,70.9,59a6.12,6.12,0,0,1-.35-1.05A4.57,4.57,0,0,1,70.41,57Z"/><path class="cls-7" d="M83.47,53.26a3.26,3.26,0,0,0,.33.38,3.34,3.34,0,0,0,.38.34,2.8,2.8,0,0,0,.48.3l.26.13.26.09.26.07a1.06,1.06,0,0,0,.23,0,.79.79,0,0,0,.2,0l.16,0,.14,0-.14,0a2.78,2.78,0,0,1-.37,0H85.4l-.28,0-.29-.09a1.51,1.51,0,0,1-.29-.13,2.34,2.34,0,0,1-.51-.36c-.07-.06-.13-.14-.19-.2a2.12,2.12,0,0,1-.15-.21A1.37,1.37,0,0,1,83.47,53.26Z"/><g class="cls-8"><path class="cls-9" d="M93.94,44.32c-2-3.52-7.87-5.36-10.89-4.19s-4.44,2.35-6.45,1.51c-1.17-.49-2-1.33-3.57-1.83a4.34,4.34,0,0,1,1.06,1c1.26,1.68,2.93,2.84,5.44,1.59,4.57-2.26,8.07-.84,10.23,2.47,3.53,5.41,3.47,17.3-2.69,23.33-4.27,3.53-7.24,3.6-9.5,1.84S72.79,77.44,62,68.52h0A17.93,17.93,0,0,0,72.19,74c3.39.33,4.25-1.39,6.59-.72,3,1.09,9.38,1.34,14.32-7.2A22.24,22.24,0,0,0,93.94,44.32Z"/></g><path class="cls-10" d="M75.7,28.71l0,0s-.32-.44-1.29,0-.88.7-.47,1A3,3,0,0,0,75.7,28.71Z"/><path class="cls-11" d="M75.7,28.71a3,3,0,0,1-1.79,1c.41.35,4.1,7.43,3.19,13a1.55,1.55,0,0,0,.74.21S78.88,33.25,75.7,28.71Z"/><path class="cls-7" d="M74.85,41.42s1.77,3.47,5.66.32a6.77,6.77,0,0,1-3.05,1A4.72,4.72,0,0,1,74.85,41.42Z"/><path class="cls-12" d="M77.7,38c12.2,1.64,12.71-9.51,12.71-9.51S82.21,30.7,77.7,38Z"/><path class="cls-13" d="M77.7,38c4.51-7.33,12.71-9.51,12.71-9.51C79.25,26.18,77.7,38,77.7,38Z"/><path class="cls-5" d="M73.31,45.6a.89.89,0,0,0-.85.84.09.09,0,0,0,.12.09,0,0,0,0,0,0,0,1.28,1.28,0,0,1,1.16-.07c.08,0,.15-.06.17-.14A.64.64,0,0,0,73.31,45.6Z"/><path class="cls-5" d="M80.59,44.86a.89.89,0,0,0-.85.83c0,.08.07.12.12.09s0,0,.06,0a1.26,1.26,0,0,1,1.15-.08c.08,0,.16-.05.17-.13A.63.63,0,0,0,80.59,44.86Z"/><path class="cls-7" d="M71.9,51.2a2.2,2.2,0,0,1,2.62,1A4.06,4.06,0,0,0,71.9,51.2Z"/><path class="cls-7" d="M82.26,50.48a2.19,2.19,0,0,0-2.62,1A4.06,4.06,0,0,1,82.26,50.48Z"/><path class="cls-14" d="M70.32,56.46s1.46,5.8,7.06,5.75c4.29-.1,6.7-3.51,7.16-7.71-1.1-.16-1.15-1.67-1.15-1.67a4.12,4.12,0,0,0,3.17,1.67,1.75,1.75,0,0,1-1.73.13s.31,8.34-6.4,8.7C73.44,63.68,70.22,61.35,70.32,56.46Z"/><path class="cls-2" d="M31.22,47.52a14,14,0,0,1,10.56-8c5.31-.63,6.36,1.26,8.37,2.09s3.43-.33,6.45-1.5,8.87.67,10.88,4.18A22.28,22.28,0,0,1,66.65,66c-4.94,8.54-11.31,8.29-14.32,7.2-2.35-.67-3.2,1-6.59.71a18.22,18.22,0,0,1-14.85-14.7A19.26,19.26,0,0,1,31.22,47.52Z"/><path class="cls-3" d="M46.74,49.85c.06,1,.4,1.71.76,1.67s.59-.85.52-1.81S47.61,48,47.26,48,46.67,48.88,46.74,49.85Z"/><path class="cls-4" d="M41.34,42.27s-4.59,2.31-5.73,10.11l-2.84-.45a15.34,15.34,0,0,1,7.11-10.19Z"/><path class="cls-4" d="M32.24,53.8a7.75,7.75,0,0,1,2.64.28c-.49,2-.69,3.25-.69,3.25l-1.58-.24A8,8,0,0,1,32.24,53.8Z"/><path class="cls-5" d="M46.53,49.7c.07,1,.41,1.71.76,1.67s.59-.85.53-1.81-.41-1.71-.77-1.67S46.46,48.74,46.53,49.7Z"/><path class="cls-6" d="M47.22,48.89c0,.29.16.5.26.48s.16-.27.12-.56-.16-.51-.26-.48S47.18,48.6,47.22,48.89Z"/><path class="cls-3" d="M53.66,49c.07,1,.41,1.74.76,1.7s.59-.86.53-1.84-.41-1.74-.77-1.7S53.59,48,53.66,49Z"/><path class="cls-5" d="M53.45,48.84c.07,1,.41,1.73.77,1.69s.59-.86.52-1.84S54.33,47,54,47,53.39,47.86,53.45,48.84Z"/><path class="cls-6" d="M54.14,48c0,.3.16.52.26.49s.17-.28.13-.57-.16-.51-.27-.49S54.1,47.72,54.14,48Z"/><path class="cls-7" d="M44,56.9a5.74,5.74,0,0,0,.19.93A6.18,6.18,0,0,0,45.29,60a5.8,5.8,0,0,0,1.22,1.13,6.55,6.55,0,0,0,1.66.8,8.15,8.15,0,0,0,1.94.4,10,10,0,0,0,2,0,6.64,6.64,0,0,0,2-.5,5.4,5.4,0,0,0,1.62-1.1,7.29,7.29,0,0,0,1.8-3,11.26,11.26,0,0,0,.53-2.45,9.11,9.11,0,0,0,.07-1,8.53,8.53,0,0,1,0,1,11.35,11.35,0,0,1-.44,2.5A9.19,9.19,0,0,1,57,59.41a6.71,6.71,0,0,1-1.13,1.53,5.68,5.68,0,0,1-1.69,1.15,6.76,6.76,0,0,1-2,.54,11.21,11.21,0,0,1-2.09,0,9.76,9.76,0,0,1-2-.43,6.46,6.46,0,0,1-1.7-.86,6,6,0,0,1-1.22-1.19,5.63,5.63,0,0,1-.73-1.24,6.35,6.35,0,0,1-.35-1A4.36,4.36,0,0,1,44,56.9Z"/><path class="cls-7" d="M57,53.19a3.26,3.26,0,0,0,.33.38,3.11,3.11,0,0,0,.37.34,3.94,3.94,0,0,0,.48.31c.08.05.18.08.26.12l.27.1.25.07.24.05.2,0,.16,0,.14,0-.14,0a1.29,1.29,0,0,1-.38,0,1.09,1.09,0,0,1-.25,0l-.28,0-.3-.08-.29-.13a2.66,2.66,0,0,1-.5-.36,1.94,1.94,0,0,1-.2-.21c-.05-.07-.11-.14-.15-.21A1.45,1.45,0,0,1,57,53.19Z"/><g class="cls-8"><path class="cls-9" d="M67.48,44.25c-2-3.51-7.87-5.36-10.88-4.18s-4.44,2.34-6.45,1.5c-1.17-.48-2-1.33-3.57-1.82a4.73,4.73,0,0,1,1.06,1c1.25,1.67,2.92,2.83,5.44,1.59,4.56-2.26,8.07-.84,10.22,2.46,3.53,5.41,3.47,17.3-2.68,23.33-4.27,3.53-7.25,3.6-9.51,1.84s-4.77,7.41-15.57-1.51h0a17.84,17.84,0,0,0,10.2,5.49c3.39.33,4.24-1.38,6.59-.71,3,1.09,9.38,1.34,14.32-7.2A22.28,22.28,0,0,0,67.48,44.25Z"/></g><path class="cls-10" d="M49.25,28.65l0,0s-.31-.44-1.28,0-.88.7-.47,1A2.94,2.94,0,0,0,49.25,28.65Z"/><path class="cls-11" d="M49.25,28.65a2.94,2.94,0,0,1-1.79,1c.41.36,4.09,7.43,3.19,13a1.57,1.57,0,0,0,.74.2S52.42,33.18,49.25,28.65Z"/><path class="cls-7" d="M48.4,41.35s1.76,3.48,5.66.33a6.72,6.72,0,0,1-3.05,1A4.72,4.72,0,0,1,48.4,41.35Z"/><path class="cls-12" d="M51.25,38C63.45,39.6,64,28.45,64,28.45S55.76,30.63,51.25,38Z"/><path class="cls-13" d="M51.25,38C55.76,30.63,64,28.45,64,28.45,52.79,26.12,51.25,38,51.25,38Z"/><path class="cls-5" d="M46.85,45.53a.9.9,0,0,0-.85.84c0,.08.07.12.12.09a0,0,0,0,0,.06,0,1.23,1.23,0,0,1,1.15-.08c.09,0,.16-.06.18-.13A.65.65,0,0,0,46.85,45.53Z"/><path class="cls-5" d="M54.14,44.79a.89.89,0,0,0-.85.84c0,.08.06.11.12.09a0,0,0,0,0,.05,0,1.26,1.26,0,0,1,1.15-.07c.09,0,.16-.06.18-.14A.64.64,0,0,0,54.14,44.79Z"/><path class="cls-7" d="M45.44,51.14a2.2,2.2,0,0,1,2.63,1A4.06,4.06,0,0,0,45.44,51.14Z"/><path class="cls-7" d="M55.81,50.42a2.19,2.19,0,0,0-2.62,1A4.07,4.07,0,0,1,55.81,50.42Z"/><path class="cls-14" d="M43.87,56.4s1.46,5.8,7.06,5.75c4.29-.1,6.69-3.52,7.15-7.71-1.1-.16-1.15-1.68-1.15-1.68a4.12,4.12,0,0,0,3.18,1.67,1.78,1.78,0,0,1-1.74.14s.32,8.34-6.39,8.69C47,63.61,43.77,61.29,43.87,56.4Z"/><path class="cls-2" d="M10,47.13a14,14,0,0,1,10.55-8c5.32-.62,6.36,1.26,8.37,2.1s3.43-.34,6.45-1.51,8.88.67,10.89,4.19a22.24,22.24,0,0,1-.84,21.77c-4.94,8.54-11.31,8.29-14.32,7.2-2.35-.67-3.2,1-6.59.72A18.23,18.23,0,0,1,9.63,58.86,19.26,19.26,0,0,1,10,47.13Z"/><path class="cls-3" d="M25.48,49.46c.06,1,.4,1.71.76,1.67s.59-.85.52-1.81-.4-1.71-.76-1.67S25.41,48.5,25.48,49.46Z"/><path class="cls-4" d="M20.08,41.88S15.49,44.2,14.35,52l-2.84-.44a15.42,15.42,0,0,1,7.11-10.2Z"/><path class="cls-4" d="M11,53.41a7.59,7.59,0,0,1,2.64.29c-.48,1.95-.69,3.25-.69,3.25l-1.58-.25A8,8,0,0,1,11,53.41Z"/><path class="cls-5" d="M25.27,49.31c.07,1,.41,1.71.77,1.68s.59-.85.52-1.82-.41-1.71-.76-1.67S25.21,48.35,25.27,49.31Z"/><path class="cls-6" d="M26,48.5c0,.29.16.51.26.49s.16-.28.12-.57-.15-.5-.26-.48S25.92,48.22,26,48.5Z"/><path class="cls-3" d="M32.4,48.6c.07,1,.41,1.73.76,1.69s.59-.86.53-1.84-.41-1.73-.77-1.69S32.33,47.62,32.4,48.6Z"/><path class="cls-5" d="M32.2,48.45c.06,1,.4,1.74.76,1.7s.59-.86.52-1.84-.41-1.74-.76-1.7S32.13,47.47,32.2,48.45Z"/><path class="cls-6" d="M32.88,47.63c0,.29.16.51.27.49s.16-.28.12-.57-.16-.52-.27-.49S32.84,47.34,32.88,47.63Z"/><path class="cls-7" d="M22.69,56.51a5.94,5.94,0,0,0,.19.94A6.43,6.43,0,0,0,24,59.66a5.51,5.51,0,0,0,1.22,1.12,6.92,6.92,0,0,0,1.66.81,9.4,9.4,0,0,0,1.94.4,10.8,10.8,0,0,0,2,0,6,6,0,0,0,2-.5A5.61,5.61,0,0,0,34.5,60.4a7.37,7.37,0,0,0,1.79-3A11.33,11.33,0,0,0,36.82,55a9.11,9.11,0,0,0,.07-1,8.71,8.71,0,0,1,0,1,10.71,10.71,0,0,1-.44,2.49A8.87,8.87,0,0,1,35.78,59a6.5,6.5,0,0,1-1.13,1.53A5.77,5.77,0,0,1,33,61.71a6.4,6.4,0,0,1-2,.53,10.42,10.42,0,0,1-2.09,0,8.7,8.7,0,0,1-2-.43,6.62,6.62,0,0,1-1.7-.86,6,6,0,0,1-1.22-1.19,5.36,5.36,0,0,1-.73-1.23,6.42,6.42,0,0,1-.35-1A4.36,4.36,0,0,1,22.69,56.51Z"/><path class="cls-7" d="M35.76,52.81a3.26,3.26,0,0,0,.33.38,3.08,3.08,0,0,0,.37.33,3.94,3.94,0,0,0,.48.31l.26.12.27.1.25.07c.08,0,.17,0,.24.05l.2,0,.16,0,.14,0-.14,0a1.83,1.83,0,0,1-.37,0h-.26c-.09,0-.18,0-.28-.05a1.57,1.57,0,0,1-.29-.08l-.29-.13a2.12,2.12,0,0,1-.51-.36,2,2,0,0,1-.2-.21l-.14-.2A1.47,1.47,0,0,1,35.76,52.81Z"/><g class="cls-8"><path class="cls-9" d="M46.23,43.87c-2-3.52-7.88-5.36-10.89-4.19S30.9,42,28.89,41.19c-1.17-.49-2-1.34-3.57-1.83a4.53,4.53,0,0,1,1.06,1c1.26,1.68,2.93,2.84,5.44,1.59,4.57-2.26,8.07-.84,10.22,2.46,3.53,5.42,3.47,17.3-2.68,23.33-4.27,3.53-7.24,3.6-9.51,1.85S25.08,77,14.28,68.07h0a18,18,0,0,0,10.2,5.49c3.39.33,4.24-1.39,6.59-.72,3,1.09,9.38,1.34,14.32-7.2A22.24,22.24,0,0,0,46.23,43.87Z"/></g><path class="cls-10" d="M28,28.26l0-.05s-.31-.44-1.28,0-.88.71-.47,1.06A3,3,0,0,0,28,28.26Z"/><path class="cls-11" d="M28,28.26a3,3,0,0,1-1.79,1c.41.35,4.09,7.42,3.19,13a1.57,1.57,0,0,0,.74.2S31.16,32.8,28,28.26Z"/><path class="cls-7" d="M27.14,41s1.77,3.47,5.66.32a6.82,6.82,0,0,1-3,1A4.72,4.72,0,0,1,27.14,41Z"/><path class="cls-12" d="M30,37.58c12.2,1.63,12.71-9.51,12.71-9.51S34.5,30.24,30,37.58Z"/><path class="cls-13" d="M30,37.58c4.51-7.34,12.71-9.51,12.71-9.51C31.54,25.73,30,37.58,30,37.58Z"/><path class="cls-5" d="M25.59,45.14a.92.92,0,0,0-.85.84.09.09,0,0,0,.13.09s0,0,.05,0A1.26,1.26,0,0,1,26.07,46c.09,0,.16-.06.18-.13A.65.65,0,0,0,25.59,45.14Z"/><path class="cls-5" d="M32.88,44.4a.89.89,0,0,0-.85.84.08.08,0,0,0,.12.09s0,0,.06,0a1.23,1.23,0,0,1,1.15-.08c.08,0,.16-.06.17-.13A.65.65,0,0,0,32.88,44.4Z"/><path class="cls-7" d="M24.19,50.75a2.19,2.19,0,0,1,2.62,1A4.06,4.06,0,0,0,24.19,50.75Z"/><path class="cls-7" d="M34.55,50a2.19,2.19,0,0,0-2.62,1A4.06,4.06,0,0,1,34.55,50Z"/><path class="cls-14" d="M22.61,56s1.46,5.8,7.06,5.75c4.29-.1,6.7-3.51,7.16-7.71-1.11-.16-1.16-1.67-1.16-1.67A4.13,4.13,0,0,0,38.85,54a1.73,1.73,0,0,1-1.73.14s.31,8.34-6.4,8.69C25.73,63.23,22.51,60.9,22.61,56Z"/><path class="cls-2" d="M57.68,74.82a14,14,0,0,1,10.55-8c5.32-.62,6.36,1.26,8.37,2.1s3.44-.34,6.45-1.51,8.88.67,10.89,4.19a22.24,22.24,0,0,1-.84,21.77c-4.94,8.54-11.3,8.29-14.32,7.2-2.34-.67-3.2,1-6.59.72a18.23,18.23,0,0,1-14.85-14.7A19.26,19.26,0,0,1,57.68,74.82Z"/><path class="cls-3" d="M73.19,77.15c.07,1,.41,1.71.76,1.67s.59-.85.53-1.81-.41-1.71-.77-1.67S73.12,76.19,73.19,77.15Z"/><path class="cls-4" d="M67.79,69.57s-4.59,2.32-5.72,10.11l-2.85-.44A15.42,15.42,0,0,1,66.33,69Z"/><path class="cls-4" d="M58.7,81.1a7.61,7.61,0,0,1,2.64.29c-.49,2-.69,3.25-.69,3.25l-1.59-.25A7.87,7.87,0,0,1,58.7,81.1Z"/><path class="cls-5" d="M73,77c.06,1,.4,1.71.76,1.68s.59-.85.52-1.82-.41-1.71-.76-1.67S72.92,76,73,77Z"/><path class="cls-6" d="M73.67,76.19c0,.29.16.51.27.49s.16-.28.12-.57-.16-.5-.27-.48S73.63,75.91,73.67,76.19Z"/><path class="cls-3" d="M80.11,76.29c.07,1,.41,1.73.77,1.69s.59-.86.52-1.83-.41-1.74-.76-1.7S80.05,75.31,80.11,76.29Z"/><path class="cls-5" d="M79.91,76.14c.06,1,.4,1.74.76,1.7s.59-.86.52-1.84-.4-1.74-.76-1.7S79.84,75.16,79.91,76.14Z"/><path class="cls-6" d="M80.59,75.32c0,.29.16.51.27.49s.16-.28.12-.57-.16-.52-.27-.49S80.55,75,80.59,75.32Z"/><path class="cls-7" d="M70.41,84.2a4.77,4.77,0,0,0,.19.94,6.2,6.2,0,0,0,1.14,2.21A5.75,5.75,0,0,0,73,88.47a7.11,7.11,0,0,0,1.66.81,9.4,9.4,0,0,0,1.94.4,10.91,10.91,0,0,0,2.06,0,6,6,0,0,0,2-.5,5.61,5.61,0,0,0,1.63-1.09,7.51,7.51,0,0,0,1.8-3,12.67,12.67,0,0,0,.53-2.46c.06-.6.06-1,.06-1s0,.35,0,1a11.39,11.39,0,0,1-.45,2.49,8.18,8.18,0,0,1-.65,1.57,6,6,0,0,1-1.13,1.53,5.72,5.72,0,0,1-1.68,1.16,6.54,6.54,0,0,1-2,.53,10.52,10.52,0,0,1-2.1,0,8.7,8.7,0,0,1-2-.43,6.62,6.62,0,0,1-1.7-.86,6,6,0,0,1-1.22-1.19,5.75,5.75,0,0,1-.73-1.23,6.42,6.42,0,0,1-.35-1A4.65,4.65,0,0,1,70.41,84.2Z"/><path class="cls-7" d="M83.47,80.5a3.26,3.26,0,0,0,.33.38,2.57,2.57,0,0,0,.38.33,2.83,2.83,0,0,0,.48.31,2.06,2.06,0,0,0,.26.12l.26.1.26.07c.08,0,.16,0,.23,0l.2,0,.16,0,.14,0L86,82a1.83,1.83,0,0,1-.37,0,2.25,2.25,0,0,1-.26,0c-.08,0-.18,0-.28,0a1.82,1.82,0,0,1-.29-.08,1.51,1.51,0,0,1-.29-.13,2.34,2.34,0,0,1-.51-.36,1.9,1.9,0,0,1-.19-.21,1.3,1.3,0,0,1-.15-.2A1.47,1.47,0,0,1,83.47,80.5Z"/><g class="cls-8"><path class="cls-9" d="M93.94,71.56c-2-3.52-7.87-5.36-10.89-4.19s-4.44,2.35-6.45,1.51c-1.17-.49-2-1.33-3.57-1.83a4.34,4.34,0,0,1,1.06,1c1.26,1.68,2.93,2.84,5.44,1.59,4.57-2.26,8.07-.84,10.23,2.46,3.53,5.42,3.47,17.3-2.69,23.33C82.8,99,79.83,99,77.57,97.27S72.79,104.68,62,95.76h0a18,18,0,0,0,10.2,5.49c3.39.33,4.25-1.39,6.59-.72,3,1.09,9.38,1.34,14.32-7.2A22.24,22.24,0,0,0,93.94,71.56Z"/></g><path class="cls-10" d="M75.7,56l0-.05s-.32-.44-1.29,0-.88.71-.47,1.06A3,3,0,0,0,75.7,56Z"/><path class="cls-11" d="M75.7,56a3,3,0,0,1-1.79,1c.41.35,4.1,7.42,3.19,13a1.63,1.63,0,0,0,.74.2S78.88,60.49,75.7,56Z"/><path class="cls-7" d="M74.85,68.66s1.77,3.47,5.66.32a6.77,6.77,0,0,1-3.05,1A4.72,4.72,0,0,1,74.85,68.66Z"/><path class="cls-12" d="M77.7,65.27c12.2,1.63,12.71-9.51,12.71-9.51S82.21,57.93,77.7,65.27Z"/><path class="cls-13" d="M77.7,65.27c4.51-7.34,12.71-9.51,12.71-9.51C79.25,53.42,77.7,65.27,77.7,65.27Z"/><path class="cls-5" d="M73.31,72.83a.9.9,0,0,0-.85.84.08.08,0,0,0,.12.09s0,0,0,0a1.28,1.28,0,0,1,1.16-.08c.08,0,.15-.06.17-.13A.65.65,0,0,0,73.31,72.83Z"/><path class="cls-5" d="M80.59,72.09a.89.89,0,0,0-.85.84c0,.08.07.12.12.09a0,0,0,0,0,.06,0A1.23,1.23,0,0,1,81.07,73c.08,0,.16-.06.17-.13A.64.64,0,0,0,80.59,72.09Z"/><path class="cls-7" d="M71.9,78.44a2.19,2.19,0,0,1,2.62,1A4.06,4.06,0,0,0,71.9,78.44Z"/><path class="cls-7" d="M82.26,77.72a2.19,2.19,0,0,0-2.62,1A4.06,4.06,0,0,1,82.26,77.72Z"/><path class="cls-14" d="M70.32,83.7s1.46,5.8,7.06,5.75c4.29-.1,6.7-3.51,7.16-7.71-1.1-.16-1.15-1.67-1.15-1.67a4.1,4.1,0,0,0,3.17,1.66,1.73,1.73,0,0,1-1.73.14s.31,8.34-6.4,8.69C73.44,90.92,70.22,88.59,70.32,83.7Z"/><path class="cls-2" d="M31.22,74.76a14,14,0,0,1,10.56-8c5.31-.63,6.36,1.25,8.37,2.09s3.43-.33,6.45-1.51,8.87.67,10.88,4.19a22.26,22.26,0,0,1-.83,21.77c-4.94,8.55-11.31,8.29-14.32,7.21-2.35-.67-3.2,1-6.59.71a18.22,18.22,0,0,1-14.85-14.7A19.26,19.26,0,0,1,31.22,74.76Z"/><path class="cls-3" d="M46.74,77.08c.06,1,.4,1.71.76,1.68s.59-.85.52-1.82-.41-1.71-.76-1.67S46.67,76.12,46.74,77.08Z"/><path class="cls-4" d="M41.34,69.51s-4.59,2.31-5.73,10.11l-2.84-.45A15.34,15.34,0,0,1,39.88,69Z"/><path class="cls-4" d="M32.24,81a7.75,7.75,0,0,1,2.64.28c-.49,2-.69,3.25-.69,3.25l-1.58-.24A8,8,0,0,1,32.24,81Z"/><path class="cls-5" d="M46.53,76.94c.07,1,.41,1.71.76,1.67s.59-.85.53-1.81-.41-1.71-.77-1.68S46.46,76,46.53,76.94Z"/><path class="cls-6" d="M47.22,76.13c0,.29.16.5.26.48s.16-.28.12-.56-.16-.51-.26-.49S47.18,75.84,47.22,76.13Z"/><path class="cls-3" d="M53.66,76.22c.07,1,.41,1.74.76,1.7s.59-.86.53-1.84-.41-1.74-.77-1.7S53.59,75.24,53.66,76.22Z"/><path class="cls-5" d="M53.45,76.07c.07,1,.41,1.74.77,1.7s.59-.86.52-1.84-.41-1.73-.76-1.7S53.39,75.1,53.45,76.07Z"/><path class="cls-6" d="M54.14,75.25c0,.29.16.51.26.49s.17-.28.13-.57-.16-.51-.27-.49S54.1,75,54.14,75.25Z"/><path class="cls-7" d="M44,84.14a5.74,5.74,0,0,0,.19.93,6.18,6.18,0,0,0,1.15,2.21,5.51,5.51,0,0,0,1.22,1.12,6.25,6.25,0,0,0,1.66.81,8.15,8.15,0,0,0,1.94.4,10,10,0,0,0,2,0,6.33,6.33,0,0,0,2-.49A5.4,5.4,0,0,0,55.75,88a7.29,7.29,0,0,0,1.8-3,11.38,11.38,0,0,0,.53-2.45,9.37,9.37,0,0,0,.07-1,8.71,8.71,0,0,1,0,1,11.18,11.18,0,0,1-.44,2.49A8.57,8.57,0,0,1,57,86.64a6.55,6.55,0,0,1-1.13,1.54,5.88,5.88,0,0,1-1.69,1.15,6.47,6.47,0,0,1-2,.53,10.42,10.42,0,0,1-2.09,0,9.76,9.76,0,0,1-2-.43,6.2,6.2,0,0,1-1.7-.87,5.72,5.72,0,0,1-1.22-1.18,5.63,5.63,0,0,1-.73-1.24,6.12,6.12,0,0,1-.35-1A4.24,4.24,0,0,1,44,84.14Z"/><path class="cls-7" d="M57,80.43a3.26,3.26,0,0,0,.33.38,4.26,4.26,0,0,0,.37.34,3,3,0,0,0,.48.3c.08,0,.18.09.26.13l.27.09.25.08.24,0a.79.79,0,0,0,.2,0l.16,0,.14,0-.14,0a1.76,1.76,0,0,1-.38,0,1.09,1.09,0,0,1-.25,0l-.28,0c-.1,0-.2,0-.3-.09l-.29-.12a2.32,2.32,0,0,1-.5-.37,1.26,1.26,0,0,1-.2-.2c-.05-.07-.11-.14-.15-.21A1.45,1.45,0,0,1,57,80.43Z"/><g class="cls-8"><path class="cls-9" d="M67.48,71.49c-2-3.52-7.87-5.36-10.88-4.19s-4.44,2.35-6.45,1.51A32.52,32.52,0,0,0,46.58,67a5,5,0,0,1,1.06,1c1.25,1.68,2.92,2.84,5.44,1.6,4.56-2.27,8.07-.84,10.22,2.46,3.53,5.41,3.47,17.3-2.68,23.33-4.27,3.53-7.25,3.6-9.51,1.84s-4.77,7.41-15.57-1.51h0a17.9,17.9,0,0,0,10.2,5.49c3.39.33,4.24-1.38,6.59-.71,3,1.08,9.38,1.34,14.32-7.21A22.26,22.26,0,0,0,67.48,71.49Z"/></g><path class="cls-10" d="M49.25,55.89l0,0s-.31-.44-1.28,0-.88.7-.47,1A3,3,0,0,0,49.25,55.89Z"/><path class="cls-11" d="M49.25,55.89a3,3,0,0,1-1.79,1c.41.35,4.09,7.43,3.19,13a1.57,1.57,0,0,0,.74.2S52.42,60.42,49.25,55.89Z"/><path class="cls-7" d="M48.4,68.59s1.76,3.47,5.66.33a6.85,6.85,0,0,1-3.05,1A4.72,4.72,0,0,1,48.4,68.59Z"/><path class="cls-12" d="M51.25,65.2C63.45,66.84,64,55.69,64,55.69S55.76,57.87,51.25,65.2Z"/><path class="cls-13" d="M51.25,65.2C55.76,57.87,64,55.69,64,55.69,52.79,53.36,51.25,65.2,51.25,65.2Z"/><path class="cls-5" d="M46.85,72.77a.9.9,0,0,0-.85.84.09.09,0,0,0,.12.09s0,0,.06,0a1.26,1.26,0,0,1,1.15-.07.16.16,0,0,0,.18-.14A.65.65,0,0,0,46.85,72.77Z"/><path class="cls-5" d="M54.14,72a.89.89,0,0,0-.85.84.09.09,0,0,0,.12.09,0,0,0,0,0,.05,0,1.26,1.26,0,0,1,1.15-.07.16.16,0,0,0,.18-.14A.64.64,0,0,0,54.14,72Z"/><path class="cls-7" d="M45.44,78.38a2.2,2.2,0,0,1,2.63,1A4.08,4.08,0,0,0,45.44,78.38Z"/><path class="cls-7" d="M55.81,77.65a2.2,2.2,0,0,0-2.62,1A4.06,4.06,0,0,1,55.81,77.65Z"/><path class="cls-14" d="M43.87,83.63s1.46,5.8,7.06,5.75c4.29-.1,6.69-3.51,7.15-7.7C57,81.51,56.93,80,56.93,80a4.12,4.12,0,0,0,3.18,1.67,1.76,1.76,0,0,1-1.74.13s.32,8.34-6.39,8.7C47,90.85,43.77,88.53,43.87,83.63Z"/><path class="cls-2" d="M10,74.37a14,14,0,0,1,10.55-8c5.32-.63,6.36,1.26,8.37,2.1s3.43-.34,6.45-1.51,8.88.67,10.89,4.19a22.24,22.24,0,0,1-.84,21.77c-4.94,8.54-11.31,8.29-14.32,7.2-2.35-.67-3.2,1-6.59.71A18.22,18.22,0,0,1,9.63,86.1,19.26,19.26,0,0,1,10,74.37Z"/><path class="cls-3" d="M25.48,76.7c.06,1,.4,1.71.76,1.67s.59-.85.52-1.81-.4-1.71-.76-1.68S25.41,75.74,25.48,76.7Z"/><path class="cls-4" d="M20.08,69.12s-4.59,2.31-5.73,10.11l-2.84-.45a15.41,15.41,0,0,1,7.11-10.19Z"/><path class="cls-4" d="M11,80.65a7.59,7.59,0,0,1,2.64.29c-.48,2-.69,3.25-.69,3.25l-1.58-.25A8,8,0,0,1,11,80.65Z"/><path class="cls-5" d="M25.27,76.55c.07,1,.41,1.71.77,1.67s.59-.85.52-1.81-.41-1.71-.76-1.67S25.21,75.59,25.27,76.55Z"/><path class="cls-6" d="M26,75.74c0,.29.16.5.26.48s.16-.27.12-.56-.15-.5-.26-.48S25.92,75.45,26,75.74Z"/><path class="cls-3" d="M32.4,75.83c.07,1,.41,1.74.76,1.7s.59-.86.53-1.84S33.28,74,32.92,74,32.33,74.86,32.4,75.83Z"/><path class="cls-5" d="M32.2,75.69c.06,1,.4,1.73.76,1.7s.59-.87.52-1.84-.41-1.74-.76-1.7S32.13,74.71,32.2,75.69Z"/><path class="cls-6" d="M32.88,74.87c0,.29.16.51.27.49s.16-.28.12-.57-.16-.52-.27-.5S32.84,74.57,32.88,74.87Z"/><path class="cls-7" d="M22.69,83.75a5.94,5.94,0,0,0,.19.94A6.31,6.31,0,0,0,24,86.89,5.8,5.8,0,0,0,25.25,88a6.92,6.92,0,0,0,1.66.81,9.4,9.4,0,0,0,1.94.4,10.8,10.8,0,0,0,2,0,6.56,6.56,0,0,0,2-.5,5.44,5.44,0,0,0,1.63-1.1,7.3,7.3,0,0,0,1.79-3,11.14,11.14,0,0,0,.53-2.45,9.11,9.11,0,0,0,.07-1,8.71,8.71,0,0,1,0,1,10.8,10.8,0,0,1-.44,2.49,9.19,9.19,0,0,1-.65,1.57,6.71,6.71,0,0,1-1.13,1.53A5.77,5.77,0,0,1,33,89a6.67,6.67,0,0,1-2,.53,11.22,11.22,0,0,1-2.09,0,9.27,9.27,0,0,1-2-.43,6.62,6.62,0,0,1-1.7-.86A6,6,0,0,1,23.92,87a5.41,5.41,0,0,1-.73-1.24,6,6,0,0,1-.35-1A4.36,4.36,0,0,1,22.69,83.75Z"/><path class="cls-7" d="M35.76,80a3.83,3.83,0,0,0,.33.39,4.27,4.27,0,0,0,.37.33,3.94,3.94,0,0,0,.48.31l.26.12.27.1.25.07.24,0,.2,0,.16,0,.14,0-.14,0a1.83,1.83,0,0,1-.37,0,1.15,1.15,0,0,1-.26,0l-.28,0-.29-.08-.29-.13a2.12,2.12,0,0,1-.51-.36l-.2-.21-.14-.2A1.46,1.46,0,0,1,35.76,80Z"/><g class="cls-8"><path class="cls-9" d="M46.23,71.11c-2-3.52-7.88-5.36-10.89-4.19s-4.44,2.34-6.45,1.51c-1.17-.49-2-1.34-3.57-1.83a4.53,4.53,0,0,1,1.06,1c1.26,1.67,2.93,2.84,5.44,1.59,4.57-2.26,8.07-.84,10.22,2.46,3.53,5.41,3.47,17.3-2.68,23.33-4.27,3.53-7.24,3.6-9.51,1.84s-4.77,7.41-15.57-1.5h0a17.87,17.87,0,0,0,10.2,5.48c3.39.34,4.24-1.38,6.59-.71,3,1.09,9.38,1.34,14.32-7.2A22.24,22.24,0,0,0,46.23,71.11Z"/></g><path class="cls-10" d="M28,55.5l0,0s-.31-.44-1.28,0-.88.7-.47,1.06A3,3,0,0,0,28,55.5Z"/><path class="cls-11" d="M28,55.5a3,3,0,0,1-1.79,1c.41.35,4.09,7.42,3.19,13a1.57,1.57,0,0,0,.74.2S31.16,60,28,55.5Z"/><path class="cls-7" d="M27.14,68.21s1.77,3.47,5.66.32a6.72,6.72,0,0,1-3,1A4.66,4.66,0,0,1,27.14,68.21Z"/><path class="cls-12" d="M30,64.81c12.2,1.64,12.71-9.5,12.71-9.5S34.5,57.48,30,64.81Z"/><path class="cls-13" d="M30,64.81c4.51-7.33,12.71-9.5,12.71-9.5C31.54,53,30,64.81,30,64.81Z"/><path class="cls-5" d="M25.59,72.38a.9.9,0,0,0-.85.84.09.09,0,0,0,.13.09s0,0,.05,0a1.23,1.23,0,0,1,1.15-.08c.09,0,.16-.06.18-.13A.65.65,0,0,0,25.59,72.38Z"/><path class="cls-5" d="M32.88,71.64a.89.89,0,0,0-.85.84.08.08,0,0,0,.12.09s0,0,.06,0a1.23,1.23,0,0,1,1.15-.08c.08,0,.16-.06.17-.13A.65.65,0,0,0,32.88,71.64Z"/><path class="cls-7" d="M24.19,78a2.19,2.19,0,0,1,2.62,1A4.06,4.06,0,0,0,24.19,78Z"/><path class="cls-7" d="M34.55,77.27a2.19,2.19,0,0,0-2.62,1A4.07,4.07,0,0,1,34.55,77.27Z"/><path class="cls-14" d="M22.61,83.25s1.46,5.8,7.06,5.75c4.29-.1,6.7-3.51,7.16-7.71-1.11-.16-1.16-1.67-1.16-1.67a4.13,4.13,0,0,0,3.18,1.66,1.73,1.73,0,0,1-1.73.14s.31,8.34-6.4,8.69C25.73,90.46,22.51,88.14,22.61,83.25Z"/></g></g></svg>