<svg xmlns="http://www.w3.org/2000/svg" viewBox="0 0 105.29 104.84"><defs><style>.cls-1{isolation:isolate;}.cls-2{fill:#e30613;}.cls-14,.cls-3,.cls-9{fill:#c80613;}.cls-14,.cls-3,.cls-8{mix-blend-mode:multiply;}.cls-4{fill:#f4a081;mix-blend-mode:color-dodge;}.cls-5{fill:#3d1a0b;}.cls-6{fill:#fff;}.cls-7{fill:#790613;}.cls-10{fill:#623f24;}.cls-11{fill:#a06640;}.cls-12{fill:#279235;}.cls-13{fill:#8abd24;}.cls-14{opacity:0.5;}</style></defs><title>apple1</title><g class="cls-1"><g id="Layer_1" data-name="Layer 1"><path class="cls-2" d="M24.28,47.07A21.15,21.15,0,0,1,40.18,35c8-1,9.59,1.89,12.62,3.15s5.17-.5,9.72-2.27,13.38,1,16.41,6.31A33.57,33.57,0,0,1,77.66,75c-7.44,12.87-17,12.49-21.58,10.85-3.53-1-4.82,1.58-9.93,1.08-4.61-.46-19-5.37-22.38-22.16A29,29,0,0,1,24.28,47.07Z"/><path class="cls-3" d="M47.66,50.58c.1,1.45.61,2.58,1.15,2.52s.88-1.28.78-2.73-.61-2.58-1.14-2.52S47.56,49.13,47.66,50.58Z"/><path class="cls-4" d="M39.52,39.16s-6.91,3.49-8.63,15.24l-4.28-.68A23.19,23.19,0,0,1,37.32,38.36Z"/><path class="cls-4" d="M25.81,56.54a11.59,11.59,0,0,1,4,.43c-.73,2.94-1,4.9-1,4.9l-2.39-.37A12.14,12.14,0,0,1,25.81,56.54Z"/><path class="cls-5" d="M47.35,50.36c.1,1.45.61,2.58,1.15,2.52s.89-1.28.79-2.73-.62-2.58-1.15-2.52S47.25,48.91,47.35,50.36Z"/><path class="cls-6" d="M48.38,49.14c.06.43.24.76.4.73S49,49.45,49,49s-.24-.76-.4-.73S48.32,48.7,48.38,49.14Z"/><path class="cls-3" d="M58.09,49.28c.1,1.47.61,2.62,1.15,2.56s.89-1.3.79-2.77-.62-2.62-1.15-2.56S58,47.81,58.09,49.28Z"/><path class="cls-5" d="M57.78,49.06c.1,1.47.61,2.62,1.15,2.56s.89-1.3.79-2.78-.62-2.61-1.15-2.55S57.68,47.59,57.78,49.06Z"/><path class="cls-6" d="M58.81,47.82c.06.44.24.77.4.74s.25-.42.19-.86-.24-.78-.4-.74S58.75,47.38,58.81,47.82Z"/><path class="cls-7" d="M43.46,61.21a6.92,6.92,0,0,0,.29,1.41A9.45,9.45,0,0,0,45.47,66a8.85,8.85,0,0,0,1.84,1.69,10.19,10.19,0,0,0,2.5,1.22,13.24,13.24,0,0,0,2.93.6,16,16,0,0,0,3.09,0,9.76,9.76,0,0,0,3-.75,8.35,8.35,0,0,0,2.45-1.66A11.17,11.17,0,0,0,64,62.56a18.21,18.21,0,0,0,.8-3.7,12.49,12.49,0,0,0,.09-1.44,11.47,11.47,0,0,1,0,1.45,17.24,17.24,0,0,1-.67,3.75,12.28,12.28,0,0,1-1,2.37,9.68,9.68,0,0,1-1.7,2.31A8.75,8.75,0,0,1,58.94,69a10.07,10.07,0,0,1-3.08.8,15.88,15.88,0,0,1-3.16,0,13.94,13.94,0,0,1-3-.64,9.78,9.78,0,0,1-2.56-1.3,9,9,0,0,1-1.84-1.79,7.85,7.85,0,0,1-1.1-1.87,9.36,9.36,0,0,1-.53-1.57A6.7,6.7,0,0,1,43.46,61.21Z"/><path class="cls-7" d="M63.15,55.62a4.71,4.71,0,0,0,.5.58,5.77,5.77,0,0,0,.56.5,5.37,5.37,0,0,0,.73.47c.12.07.26.12.39.18l.4.15.38.11.36.07a1.87,1.87,0,0,0,.3,0l.24,0,.21,0-.21,0a3.41,3.41,0,0,1-.56.06,2.68,2.68,0,0,1-.39,0l-.42-.06a3.66,3.66,0,0,1-.44-.13,3.43,3.43,0,0,1-.44-.19A3.58,3.58,0,0,1,64,57a3,3,0,0,1-.3-.32,2.18,2.18,0,0,1-.22-.31A2.32,2.32,0,0,1,63.15,55.62Z"/><g class="cls-8"><path class="cls-9" d="M78.93,42.15c-3-5.3-11.87-8.08-16.41-6.31s-6.69,3.54-9.72,2.27c-1.77-.73-3-2-5.39-2.75A6.66,6.66,0,0,1,49,36.85c1.9,2.53,4.41,4.28,8.21,2.4C64.1,35.84,69.38,38,72.62,43c5.32,8.16,5.23,26.07-4,35.16-6.44,5.32-10.92,5.43-14.33,2.78s-7.19,11.17-23.47-2.27h0c5.5,5.86,12.43,8,15.37,8.27,5.11.5,6.4-2.09,9.93-1.08,4.55,1.64,14.14,2,21.58-10.85A33.57,33.57,0,0,0,78.93,42.15Z"/></g><path class="cls-10" d="M51.44,18.63l0-.07s-.48-.67-1.94,0-1.32,1.06-.7,1.59A4.48,4.48,0,0,0,51.44,18.63Z"/><path class="cls-11" d="M51.44,18.63a4.48,4.48,0,0,1-2.69,1.52c.62.53,6.16,11.19,4.8,19.58a2.4,2.4,0,0,0,1.12.31S56.22,25.47,51.44,18.63Z"/><path class="cls-7" d="M50.16,37.78s2.66,5.23,8.53.49c0,0-2.81,1.71-4.6,1.54A7.12,7.12,0,0,1,50.16,37.78Z"/><path class="cls-12" d="M54.46,32.67c18.39,2.47,19.15-14.33,19.15-14.33S61.25,21.62,54.46,32.67Z"/><path class="cls-13" d="M54.46,32.67c6.79-11,19.15-14.33,19.15-14.33C56.79,14.82,54.46,32.67,54.46,32.67Z"/><path class="cls-5" d="M47.83,44.08a1.35,1.35,0,0,0-1.28,1.26.13.13,0,0,0,.18.14.07.07,0,0,0,.09,0,1.86,1.86,0,0,1,1.73-.12c.13,0,.24-.09.26-.2A1,1,0,0,0,47.83,44.08Z"/><path class="cls-5" d="M58.81,43a1.34,1.34,0,0,0-1.28,1.26.13.13,0,0,0,.18.14.07.07,0,0,0,.09,0,1.86,1.86,0,0,1,1.73-.12c.13,0,.24-.09.26-.2A1,1,0,0,0,58.81,43Z"/><path class="cls-7" d="M45.71,52.53s2.12-1,3.95,1.56A6.13,6.13,0,0,0,45.71,52.53Z"/><path class="cls-7" d="M61.33,51.44s-2.12-.95-3.95,1.56A6.13,6.13,0,0,1,61.33,51.44Z"/><path class="cls-14" d="M43.33,60.45S45.54,69.19,54,69.12c6.46-.15,10.08-5.3,10.78-11.62C63.1,57.26,63,55,63,55a6.24,6.24,0,0,0,4.79,2.51,2.63,2.63,0,0,1-2.61.2s.47,12.57-9.64,13.11C48,71.33,43.18,67.83,43.33,60.45Z"/></g></g></svg>