<svg xmlns="http://www.w3.org/2000/svg" viewBox="0 0 105.29 104.84"><defs><style>.cls-1{isolation:isolate;}.cls-2{fill:#e30613;}.cls-14,.cls-3,.cls-9{fill:#c80613;}.cls-14,.cls-3,.cls-8{mix-blend-mode:multiply;}.cls-4{fill:#f4a081;mix-blend-mode:color-dodge;}.cls-5{fill:#3d1a0b;}.cls-6{fill:#fff;}.cls-7{fill:#790613;}.cls-10{fill:#623f24;}.cls-11{fill:#a06640;}.cls-12{fill:#279235;}.cls-13{fill:#8abd24;}.cls-14{opacity:0.5;}</style></defs><title>apple2</title><g class="cls-1"><g id="Layer_1" data-name="Layer 1"><path class="cls-2" d="M14.31,37.9a17,17,0,0,1,12.78-9.74c6.44-.76,7.71,1.52,10.14,2.54s4.16-.41,7.81-1.83,10.76.81,13.19,5.07a27,27,0,0,1-1,26.38c-6,10.35-13.7,10-17.35,8.72-2.84-.81-3.87,1.27-8,.87a22.08,22.08,0,0,1-18-17.81A23.25,23.25,0,0,1,14.31,37.9Z"/><path class="cls-3" d="M33.1,40.72c.08,1.16.49,2.07.92,2s.72-1,.64-2.19-.5-2.07-.93-2S33,39.55,33.1,40.72Z"/><path class="cls-4" d="M26.56,31.54S21,34.34,19.62,43.79l-3.44-.54A18.63,18.63,0,0,1,24.79,30.9Z"/><path class="cls-4" d="M15.54,45.51a9.26,9.26,0,0,1,3.2.34c-.59,2.37-.84,3.94-.84,3.94L16,49.49A9.58,9.58,0,0,1,15.54,45.51Z"/><path class="cls-5" d="M32.85,40.54c.08,1.17.49,2.07.92,2s.72-1,.64-2.2-.5-2.07-.93-2S32.77,39.38,32.85,40.54Z"/><path class="cls-6" d="M33.68,39.56c0,.35.19.61.32.58s.2-.33.15-.68-.19-.61-.32-.58S33.63,39.21,33.68,39.56Z"/><path class="cls-3" d="M41.48,39.67c.08,1.19.5,2.11.93,2.06s.71-1,.63-2.23-.49-2.1-.92-2.06S41.4,38.49,41.48,39.67Z"/><path class="cls-5" d="M41.24,39.5c.08,1.18.49,2.1.92,2s.71-1,.63-2.23-.49-2.1-.92-2S41.16,38.31,41.24,39.5Z"/><path class="cls-6" d="M42.07,38.5c0,.35.19.62.32.59s.19-.34.14-.69-.19-.62-.32-.59S42,38.14,42.07,38.5Z"/><path class="cls-7" d="M29.73,49.26A5.35,5.35,0,0,0,30,50.4a7.48,7.48,0,0,0,1.38,2.67,6.94,6.94,0,0,0,1.48,1.36,8.34,8.34,0,0,0,2,1,11.27,11.27,0,0,0,2.35.49,13.81,13.81,0,0,0,2.49,0,7.71,7.71,0,0,0,2.38-.6A6.64,6.64,0,0,0,44,54a9,9,0,0,0,2.18-3.62,14.8,14.8,0,0,0,.64-3c.08-.73.08-1.15.08-1.15a9.3,9.3,0,0,1,0,1.16,12.88,12.88,0,0,1-.54,3,9.91,9.91,0,0,1-.78,1.9,8,8,0,0,1-1.37,1.86,7.18,7.18,0,0,1-2,1.4,8.1,8.1,0,0,1-2.48.64,12.58,12.58,0,0,1-2.53,0,11.1,11.1,0,0,1-2.41-.52,8,8,0,0,1-2.06-1,7.22,7.22,0,0,1-1.48-1.43,7.1,7.1,0,0,1-.89-1.5,8.88,8.88,0,0,1-.42-1.27A5.56,5.56,0,0,1,29.73,49.26Z"/><path class="cls-7" d="M45.55,44.77a4.7,4.7,0,0,0,.4.47,4.89,4.89,0,0,0,.46.4A3.38,3.38,0,0,0,47,46c.1.06.21.1.31.15l.32.12.31.09c.1,0,.2,0,.29.06l.24,0,.19,0,.17,0-.17,0a2.39,2.39,0,0,1-.45,0,1.66,1.66,0,0,1-.31,0c-.1,0-.22,0-.34-.05l-.35-.1a3.73,3.73,0,0,1-.35-.16,2.78,2.78,0,0,1-.62-.44,2.61,2.61,0,0,1-.23-.25,1.5,1.5,0,0,1-.19-.25A1.8,1.8,0,0,1,45.55,44.77Z"/><g class="cls-8"><path class="cls-9" d="M58.23,33.94C55.8,29.68,48.7,27.45,45,28.87s-5.37,2.84-7.81,1.83c-1.42-.59-2.44-1.62-4.33-2.22a5.65,5.65,0,0,1,1.29,1.2c1.52,2,3.54,3.44,6.59,1.93,5.53-2.74,9.78-1,12.39,3,4.27,6.56,4.2,21-3.26,28.27-5.17,4.27-8.77,4.36-11.51,2.23s-5.78,9-18.87-1.83h0a21.68,21.68,0,0,0,12.36,6.65c4.11.4,5.14-1.68,8-.87,3.65,1.32,11.36,1.63,17.35-8.72A27,27,0,0,0,58.23,33.94Z"/></g><path class="cls-10" d="M36.14,15a.21.21,0,0,1,0-.06s-.38-.53-1.56,0-1.06.85-.57,1.28A3.63,3.63,0,0,0,36.14,15Z"/><path class="cls-11" d="M36.14,15A3.63,3.63,0,0,1,34,16.26c.5.42,5,9,3.87,15.74a1.81,1.81,0,0,0,.89.24S40,20.53,36.14,15Z"/><path class="cls-7" d="M35.11,30.43s2.14,4.21,6.86.39c0,0-2.26,1.38-3.7,1.25A5.7,5.7,0,0,1,35.11,30.43Z"/><path class="cls-12" d="M38.56,26.32C53.35,28.31,54,14.8,54,14.8S44,17.44,38.56,26.32Z"/><path class="cls-13" d="M38.56,26.32C44,17.44,54,14.8,54,14.8,40.44,12,38.56,26.32,38.56,26.32Z"/><path class="cls-5" d="M33.24,35.49a1.09,1.09,0,0,0-1,1,.11.11,0,0,0,.15.11s0,0,.06,0a1.54,1.54,0,0,1,1.4-.09c.1,0,.19-.07.21-.16A.77.77,0,0,0,33.24,35.49Z"/><path class="cls-5" d="M42.06,34.59a1.09,1.09,0,0,0-1,1,.11.11,0,0,0,.15.11.06.06,0,0,0,.07,0,1.49,1.49,0,0,1,1.39-.1c.11,0,.19-.07.21-.16A.77.77,0,0,0,42.06,34.59Z"/><path class="cls-7" d="M31.53,42.28s1.71-.76,3.18,1.26A4.92,4.92,0,0,0,31.53,42.28Z"/><path class="cls-7" d="M44.09,41.41s-1.71-.76-3.18,1.26A5,5,0,0,1,44.09,41.41Z"/><path class="cls-14" d="M29.62,48.65s1.77,7,8.56,7c5.19-.12,8.11-4.26,8.67-9.34-1.34-.19-1.4-2-1.4-2a5,5,0,0,0,3.85,2,2.13,2.13,0,0,1-2.1.17s.38,10.1-7.75,10.53C33.4,57.39,29.5,54.58,29.62,48.65Z"/><path class="cls-2" d="M45.38,58.35a17,17,0,0,1,12.78-9.74c6.44-.77,7.71,1.52,10.15,2.53s4.16-.4,7.81-1.82,10.75.81,13.19,5.07a27,27,0,0,1-1,26.37c-6,10.35-13.69,10-17.35,8.73-2.84-.81-3.87,1.27-8,.86a22.07,22.07,0,0,1-18-17.8A23.34,23.34,0,0,1,45.38,58.35Z"/><path class="cls-3" d="M64.17,61.16c.08,1.17.49,2.08.93,2s.71-1,.63-2.2-.49-2.07-.92-2S64.09,60,64.17,61.16Z"/><path class="cls-4" d="M57.63,52s-5.56,2.81-6.93,12.25l-3.45-.54a18.63,18.63,0,0,1,8.61-12.35Z"/><path class="cls-4" d="M46.61,66a9.39,9.39,0,0,1,3.2.35c-.59,2.36-.84,3.93-.84,3.93l-1.91-.29A9.71,9.71,0,0,1,46.61,66Z"/><path class="cls-5" d="M63.92,61c.08,1.16.5,2.07.93,2s.71-1,.63-2.19-.49-2.08-.92-2S63.84,59.82,63.92,61Z"/><path class="cls-6" d="M64.75,60c0,.35.2.62.33.59s.19-.33.14-.68-.19-.61-.32-.59S64.71,59.66,64.75,60Z"/><path class="cls-3" d="M72.56,60.12c.08,1.18.49,2.1.92,2.05s.72-1,.64-2.22-.5-2.11-.93-2.06S72.48,58.94,72.56,60.12Z"/><path class="cls-5" d="M72.31,59.94c.08,1.18.49,2.1.92,2.06s.72-1,.64-2.23-.5-2.11-.93-2.06S72.23,58.76,72.31,59.94Z"/><path class="cls-6" d="M73.14,58.94c0,.36.19.62.32.6s.2-.34.15-.69-.19-.62-.32-.6S73.09,58.59,73.14,58.94Z"/><path class="cls-7" d="M60.8,69.71A6.3,6.3,0,0,0,61,70.84a7.48,7.48,0,0,0,1.39,2.68,7.17,7.17,0,0,0,1.47,1.36,8.53,8.53,0,0,0,2,1,11.22,11.22,0,0,0,2.36.48,12.09,12.09,0,0,0,2.48,0,7.85,7.85,0,0,0,2.39-.6,6.71,6.71,0,0,0,2-1.33,9,9,0,0,0,2.17-3.62,14.19,14.19,0,0,0,.65-3A9.74,9.74,0,0,0,78,66.66a10.51,10.51,0,0,1,0,1.17,14.05,14.05,0,0,1-.54,3,10.75,10.75,0,0,1-.79,1.91,7.64,7.64,0,0,1-1.37,1.85,6.67,6.67,0,0,1-2,1.4,8,8,0,0,1-2.47.65,13.45,13.45,0,0,1-2.54,0,10.54,10.54,0,0,1-2.41-.52,7.67,7.67,0,0,1-2.06-1,7.25,7.25,0,0,1-1.48-1.44,6.57,6.57,0,0,1-.88-1.5A7.54,7.54,0,0,1,61,70.86,5.65,5.65,0,0,1,60.8,69.71Z"/><path class="cls-7" d="M76.62,65.22a5.52,5.52,0,0,0,.4.46c.13.13.29.27.46.41a4.79,4.79,0,0,0,.58.37,3.13,3.13,0,0,0,.32.15l.32.11.31.09a2.8,2.8,0,0,0,.28.06,1.2,1.2,0,0,0,.24,0l.2,0,.17,0-.17,0a1.91,1.91,0,0,1-.46,0,1.55,1.55,0,0,1-.3,0,2,2,0,0,1-.34,0,2.42,2.42,0,0,1-.36-.1c-.11,0-.24-.09-.35-.15a3,3,0,0,1-.85-.69,3,3,0,0,1-.18-.25A2,2,0,0,1,76.62,65.22Z"/><g class="cls-8"><path class="cls-9" d="M89.31,54.39c-2.44-4.26-9.54-6.49-13.19-5.07s-5.38,2.84-7.81,1.82c-1.42-.59-2.45-1.61-4.33-2.21a5.21,5.21,0,0,1,1.28,1.2c1.52,2,3.55,3.44,6.6,1.93,5.53-2.74,9.77-1,12.38,3,4.28,6.55,4.2,21-3.25,28.26-5.17,4.28-8.78,4.36-11.52,2.23s-5.78,9-18.87-1.82h0A21.71,21.71,0,0,0,63,90.35c4.11.41,5.14-1.67,8-.86,3.66,1.32,11.37,1.62,17.35-8.73A27,27,0,0,0,89.31,54.39Z"/></g><path class="cls-10" d="M67.21,35.48l0-.06s-.38-.53-1.55,0-1.07.86-.57,1.28A3.53,3.53,0,0,0,67.21,35.48Z"/><path class="cls-11" d="M67.21,35.48a3.53,3.53,0,0,1-2.16,1.22c.5.43,5,9,3.86,15.74a1.94,1.94,0,0,0,.9.25S71.06,41,67.21,35.48Z"/><path class="cls-7" d="M66.18,50.88s2.14,4.2,6.86.39c0,0-2.26,1.38-3.69,1.24A5.72,5.72,0,0,1,66.18,50.88Z"/><path class="cls-12" d="M69.64,46.77C84.42,48.75,85,35.25,85,35.25S75.1,37.89,69.64,46.77Z"/><path class="cls-13" d="M69.64,46.77C75.1,37.89,85,35.25,85,35.25,71.51,32.42,69.64,46.77,69.64,46.77Z"/><path class="cls-5" d="M64.31,55.94a1.08,1.08,0,0,0-1,1,.11.11,0,0,0,.15.11,0,0,0,0,0,.07,0A1.49,1.49,0,0,1,64.89,57c.11,0,.19-.08.21-.16A.77.77,0,0,0,64.31,55.94Z"/><path class="cls-5" d="M73.14,55a1.07,1.07,0,0,0-1,1,.1.1,0,0,0,.14.11,0,0,0,0,0,.07,0,1.54,1.54,0,0,1,1.4-.09c.1,0,.19-.07.21-.16A.78.78,0,0,0,73.14,55Z"/><path class="cls-7" d="M62.61,62.73S64.31,62,65.78,64A4.91,4.91,0,0,0,62.61,62.73Z"/><path class="cls-7" d="M75.16,61.85s-1.7-.76-3.17,1.26A4.91,4.91,0,0,1,75.16,61.85Z"/><path class="cls-14" d="M60.7,69.1s1.77,7,8.55,7c5.2-.12,8.11-4.25,8.67-9.33-1.34-.2-1.4-2-1.4-2a5,5,0,0,0,3.85,2,2.11,2.11,0,0,1-2.1.16s.38,10.1-7.75,10.53C64.47,77.84,60.57,75,60.7,69.1Z"/></g></g></svg>