<svg xmlns="http://www.w3.org/2000/svg" viewBox="0 0 105.29 104.84"><defs><style>.cls-1{isolation:isolate;}.cls-2{fill:#72bf44;}.cls-3{fill:#00a447;}.cls-4,.cls-5{fill:#00803d;}.cls-21,.cls-22,.cls-26,.cls-5{opacity:0.5;}.cls-21,.cls-24,.cls-26,.cls-5{mix-blend-mode:multiply;}.cls-6{fill:#00a650;}.cls-7{fill:#ed1c24;}.cls-25,.cls-8{fill:#fff;}.cls-9{fill:#ce181e;}.cls-10{fill:#bc2026;}.cls-11{fill:#9c1d20;}.cls-12{fill:#6a0809;}.cls-13{fill:#d01b21;}.cls-14{fill:#a8171c;}.cls-15{fill:#da1e21;}.cls-16{fill:#b82025;}.cls-17{fill:#df2329;}.cls-18{fill:#b86313;}.cls-19,.cls-21{fill:#cc7917;}.cls-20{fill:#9e4727;}.cls-23,.cls-24{opacity:0.3;}.cls-23{mix-blend-mode:screen;}.cls-25{opacity:0.1;}</style></defs><title>apple87</title><g class="cls-1"><g id="Layer_1" data-name="Layer 1"><path class="cls-2" d="M51.62,2.07c-.06,0-.12-.2-.21-.18s-.18.27-.23.36-.17.36-.25.54a9.55,9.55,0,0,0-.41,1A18,18,0,0,0,49.9,6.3a12.53,12.53,0,0,0-.15,3.06,11.39,11.39,0,0,0,.41,2.89.61.61,0,0,0,.07.13l.33.1c-.05-.31-.1-.63-.14-.94L50.3,10.3a28.12,28.12,0,0,1,0-3.18c0-.3.06-.6.11-.9a9.43,9.43,0,0,1,.7-2.38A2.57,2.57,0,0,1,51.7,3c.13-.13.43-.31.47-.49S51.74,2.2,51.62,2.07Z"/><path class="cls-3" d="M51.7,2.49C51.2,2.2,50.44,5,50.38,5.18c-.58,2.07-.21,4.05-.26,6.15a.17.17,0,0,1-.16.17,4.34,4.34,0,0,0,.2.75.61.61,0,0,0,.07.13l.33.1c-.05-.31-.1-.63-.14-.94L50.3,10.3a28.12,28.12,0,0,1,0-3.18c0-.3.06-.6.11-.9a9.43,9.43,0,0,1,.7-2.38A2.57,2.57,0,0,1,51.7,3c.12-.12.38-.28.46-.45A.87.87,0,0,1,51.7,2.49Z"/><path class="cls-4" d="M63.43,2.51a11.45,11.45,0,0,0-8.29,1,10,10,0,0,0-3.27,2.65,7,7,0,0,0-.94,1.48,3.34,3.34,0,0,0-.29,1.2c0,.13,0,.27,0,.4h0c.45.12.92.09,1.37.2.66.15,1.34.24,2,.35a8.47,8.47,0,0,0,4.41-.29,8.21,8.21,0,0,0,3.46-2.74,7.15,7.15,0,0,0,.94-2A15.35,15.35,0,0,0,63.43,2.51Z"/><path class="cls-5" d="M63.43,2.51S62.35,6.65,60.17,8a8.29,8.29,0,0,1-4.4,1.33c-1.61,0-3.61-.86-5.12-.09h0c.45.12.92.09,1.37.2.66.15,1.34.24,2,.35a8.47,8.47,0,0,0,4.41-.29,8.21,8.21,0,0,0,3.46-2.74,7.15,7.15,0,0,0,.94-2A15.35,15.35,0,0,0,63.43,2.51Z"/><path class="cls-6" d="M62.25,3.53a11.43,11.43,0,0,0-5.11.62,2.7,2.7,0,0,1,.22-.33,7.57,7.57,0,0,1,1-1.13s0-.07,0,0a5.4,5.4,0,0,0-1.71,1.72A13.22,13.22,0,0,0,55,5.2a22.42,22.42,0,0,0-2,1.38,7.44,7.44,0,0,1,.42-.79c.34-.53.72-1,1.07-1.52,0,0,0-.1-.07-.07a6.27,6.27,0,0,0-1.22,1.45,5.11,5.11,0,0,0-.81,1.43,10.87,10.87,0,0,0-1.21,1.24h0a.13.13,0,0,0-.06.07,6.33,6.33,0,0,0-1,1.63s0,.09.09.05c.46-.52.87-1.06,1.33-1.57a5.8,5.8,0,0,1,1.28-.22,10,10,0,0,1,1.8.18,25.63,25.63,0,0,0,3,.42c.07,0,.09-.1,0-.11-1.08-.22-2.17-.47-3.25-.71A5.88,5.88,0,0,0,52.06,8l.14-.14A18.52,18.52,0,0,1,54,6.34a2.9,2.9,0,0,0,.65.14c.58.08,1.15.23,1.72.34a10.19,10.19,0,0,0,2.84.35s0-.09,0-.1c-.83-.19-1.67-.39-2.5-.53S55.25,6.15,54.48,6l.68-.44a10.54,10.54,0,0,1,1.32-.71.08.08,0,0,0,.07,0,0,0,0,0,0,0,0,13.1,13.1,0,0,1,1.63-.57,7.61,7.61,0,0,1,3.74.94A.05.05,0,0,0,62,5.11a5.62,5.62,0,0,0-2.34-1.17,20.3,20.3,0,0,1,2.58-.25A.08.08,0,0,0,62.25,3.53Z"/><path class="cls-7" d="M59,15.69a7.68,7.68,0,0,0-2.47-4.42,5,5,0,0,0-4.33-1,3.15,3.15,0,0,0-2,1.74,5.78,5.78,0,0,0-1.56-1.13,6.19,6.19,0,0,0-3.31-.56c-2.16.11-4,2-4.83,4.1-1.83,4.89,1.88,9.77,6.28,10.86a12,12,0,0,0,3.77.36,11.09,11.09,0,0,0,4.7-1.29,7.93,7.93,0,0,0,3.33-3.38A10.09,10.09,0,0,0,59,15.69Z"/><path class="cls-8" d="M43.49,15.52a9.16,9.16,0,0,1,.78-1.32,7.64,7.64,0,0,1,2.79-2.32,6.82,6.82,0,0,0-.41-.68q-.21-.25-.42-.48a7,7,0,0,0-4.14,3A6.15,6.15,0,0,0,43.49,15.52Z"/><path class="cls-8" d="M42.73,17.37c.15-.42.3-.83.48-1.24a8,8,0,0,1-1.48-1.71,7.86,7.86,0,0,0-.49,1.31A12.25,12.25,0,0,0,42.73,17.37Z"/><path class="cls-9" d="M52.22,10.22a3.15,3.15,0,0,0-2,1.74,5.78,5.78,0,0,0-1.56-1.13,5,5,0,0,0-2-.55,4.7,4.7,0,0,1,1.53.78c.67.59,1.5,1.06,1.82,1.9a4.65,4.65,0,0,1,3-2.85A3.39,3.39,0,0,0,52.22,10.22Z"/><path class="cls-9" d="M59,15.69a7.25,7.25,0,0,0-1-2.64,11.26,11.26,0,0,1,.54,3.52c0,3.73-3.38,6.51-6.69,7.56a10.74,10.74,0,0,1-9.33-1.33,9.12,9.12,0,0,0,4.21,2.43,12,12,0,0,0,3.77.36,11.09,11.09,0,0,0,4.7-1.29,7.93,7.93,0,0,0,3.33-3.38A10.09,10.09,0,0,0,59,15.69Z"/><path class="cls-2" d="M78.56,19.54c0-.08,0-.23-.1-.26s-.27.15-.35.21-.31.24-.46.36-.55.43-.8.67a19.77,19.77,0,0,0-1.64,1.9A12.14,12.14,0,0,0,73.72,25a11.09,11.09,0,0,0-.91,2.67,1,1,0,0,0,0,.14,2.73,2.73,0,0,1,.25.23c.09-.29.19-.58.29-.87L73.79,26a25.3,25.3,0,0,1,1.37-2.76,8.46,8.46,0,0,1,.49-.73,8.78,8.78,0,0,1,1.66-1.73,2.57,2.57,0,0,1,.9-.42c.17,0,.5-.07.62-.21S78.61,19.7,78.56,19.54Z"/><path class="cls-3" d="M78.45,19.93c-.31-.47-2.19,1.58-2.33,1.74-1.42,1.52-2,3.39-3,5.18a.14.14,0,0,1-.2.07,3.39,3.39,0,0,0-.16.74,1,1,0,0,0,0,.14,2.73,2.73,0,0,1,.25.23c.09-.29.19-.58.29-.87L73.79,26a25.3,25.3,0,0,1,1.37-2.76,8.46,8.46,0,0,1,.49-.73,8.78,8.78,0,0,1,1.66-1.73,2.57,2.57,0,0,1,.9-.42,1.77,1.77,0,0,0,.58-.18A.81.81,0,0,1,78.45,19.93Z"/><path class="cls-7" d="M78.92,34.54a7.47,7.47,0,0,0-.18-4.9,4.89,4.89,0,0,0-3.27-2.83,3.08,3.08,0,0,0-2.53.6,5.65,5.65,0,0,0-.84-1.66,5.84,5.84,0,0,0-2.61-1.94c-1.91-.87-4.38,0-6,1.39-3.74,3.4-2.7,9.25.61,12.13a11.28,11.28,0,0,0,3.09,2,10.62,10.62,0,0,0,4.61,1,7.75,7.75,0,0,0,4.37-1.45A9.75,9.75,0,0,0,78.92,34.54Z"/><path class="cls-8" d="M65.61,27.52a10.24,10.24,0,0,1,1.26-.79A7.24,7.24,0,0,1,70.3,26a5,5,0,0,0-.06-.77c0-.21-.09-.41-.14-.6a6.75,6.75,0,0,0-4.91.79A5.94,5.94,0,0,0,65.61,27.52Z"/><path class="cls-8" d="M64.14,28.78c.31-.29.63-.58,1-.86a7.54,7.54,0,0,1-.51-2.12,6.65,6.65,0,0,0-1,.91A11.3,11.3,0,0,0,64.14,28.78Z"/><path class="cls-9" d="M75.47,26.81a3.08,3.08,0,0,0-2.53.6,5.65,5.65,0,0,0-.84-1.66,5,5,0,0,0-1.48-1.36,4.54,4.54,0,0,1,1,1.35,5.31,5.31,0,0,1,.73,2.43A4.52,4.52,0,0,1,76.14,27,4.08,4.08,0,0,0,75.47,26.81Z"/><path class="cls-9" d="M78.92,34.54a7.15,7.15,0,0,0,.3-2.72,11.05,11.05,0,0,1-1.09,3.27c-1.63,3.22-5.79,4.12-9.1,3.56a10.42,10.42,0,0,1-7.46-5.28,8.76,8.76,0,0,0,2.56,4,11.28,11.28,0,0,0,3.09,2,10.62,10.62,0,0,0,4.61,1,7.75,7.75,0,0,0,4.37-1.45A9.75,9.75,0,0,0,78.92,34.54Z"/><path class="cls-2" d="M31.37,10.38c-.06,0-.16-.16-.24-.13s-.11.3-.13.39a5.4,5.4,0,0,0-.11.58,8.68,8.68,0,0,0-.17,1,19.13,19.13,0,0,0,0,2.51,12.24,12.24,0,0,0,.55,2.92,11.17,11.17,0,0,0,1,2.62.37.37,0,0,0,.1.11l.33,0c-.12-.28-.24-.57-.34-.85L32,18.42a25.47,25.47,0,0,1-.75-3,8.62,8.62,0,0,1-.11-.87,9.2,9.2,0,0,1,.14-2.4,2.53,2.53,0,0,1,.41-.9c.1-.15.34-.38.33-.57S31.52,10.48,31.37,10.38Z"/><path class="cls-3" d="M31.54,10.75c-.53-.15-.63,2.63-.63,2.84-.09,2.08.7,3.86,1.13,5.85a.16.16,0,0,1-.11.19,3.73,3.73,0,0,0,.35.66.37.37,0,0,0,.1.11l.33,0c-.12-.28-.24-.57-.34-.85L32,18.42a25.47,25.47,0,0,1-.75-3,8.62,8.62,0,0,1-.11-.87,9.2,9.2,0,0,1,.14-2.4,2.53,2.53,0,0,1,.41-.9,1.84,1.84,0,0,0,.33-.52A.8.8,0,0,1,31.54,10.75Z"/><path class="cls-7" d="M41.4,21.55a7.49,7.49,0,0,0-3.32-3.61,4.89,4.89,0,0,0-4.32,0A3.07,3.07,0,0,0,32.23,20a5.8,5.8,0,0,0-1.73-.72,6,6,0,0,0-3.24.22c-2,.59-3.36,2.82-3.63,4.95-.63,5,4,8.78,8.35,8.82a11.93,11.93,0,0,0,3.63-.51,10.75,10.75,0,0,0,4.14-2.26,7.72,7.72,0,0,0,2.38-3.94A9.8,9.8,0,0,0,41.4,21.55Z"/><path class="cls-8" d="M26.73,24.87a9,9,0,0,1,.44-1.42,7.24,7.24,0,0,1,2.11-2.8,4,4,0,0,0-.54-.55,3.9,3.9,0,0,0-.5-.36A6.72,6.72,0,0,0,25,23.53,5.68,5.68,0,0,0,26.73,24.87Z"/><path class="cls-8" d="M26.44,26.79c0-.43.09-.86.16-1.28a7.55,7.55,0,0,1-1.77-1.28,7.33,7.33,0,0,0-.17,1.34A11.23,11.23,0,0,0,26.44,26.79Z"/><path class="cls-9" d="M33.76,17.92A3.07,3.07,0,0,0,32.23,20a5.8,5.8,0,0,0-1.73-.72,4.84,4.84,0,0,0-2-.06,4.5,4.5,0,0,1,1.61.39A5.21,5.21,0,0,1,32.25,21a4.51,4.51,0,0,1,2.16-3.35A4,4,0,0,0,33.76,17.92Z"/><path class="cls-9" d="M41.4,21.55a6.73,6.73,0,0,0-1.54-2.26,10.51,10.51,0,0,1,1.3,3.19c.86,3.51-1.72,6.89-4.6,8.62a10.38,10.38,0,0,1-9.09.84A8.85,8.85,0,0,0,32,33.29a11.93,11.93,0,0,0,3.63-.51,10.75,10.75,0,0,0,4.14-2.26,7.72,7.72,0,0,0,2.38-3.94A9.8,9.8,0,0,0,41.4,21.55Z"/><path class="cls-2" d="M41.82,7.89c-.07,0-.16-.16-.25-.13s-.1.3-.13.39-.07.38-.11.57a9.21,9.21,0,0,0-.17,1,19.12,19.12,0,0,0,0,2.51,12.22,12.22,0,0,0,.54,2.92,10.94,10.94,0,0,0,1,2.62.28.28,0,0,0,.09.11l.34,0c-.13-.28-.24-.57-.35-.85l-.39-1.15a25.47,25.47,0,0,1-.75-3c-.05-.29-.08-.58-.11-.88a9.13,9.13,0,0,1,.14-2.39,2.53,2.53,0,0,1,.41-.9c.1-.15.34-.39.34-.57S42,8,41.82,7.89Z"/><path class="cls-3" d="M42,8.26c-.53-.15-.62,2.63-.63,2.84-.09,2.08.7,3.85,1.13,5.85a.15.15,0,0,1-.11.19,3.48,3.48,0,0,0,.36.66.28.28,0,0,0,.09.11l.34,0c-.13-.28-.24-.57-.35-.85l-.39-1.15a25.47,25.47,0,0,1-.75-3c-.05-.29-.08-.58-.11-.88a9.13,9.13,0,0,1,.14-2.39,2.53,2.53,0,0,1,.41-.9,1.84,1.84,0,0,0,.33-.52A.9.9,0,0,1,42,8.26Z"/><path class="cls-7" d="M51.84,19.05a7.42,7.42,0,0,0-3.32-3.6,4.86,4.86,0,0,0-4.32,0,3.07,3.07,0,0,0-1.53,2.1A5.85,5.85,0,0,0,41,16.81,6,6,0,0,0,37.7,17c-2,.59-3.36,2.82-3.62,4.95-.64,5,4,8.78,8.34,8.81a11.45,11.45,0,0,0,3.64-.51A10.65,10.65,0,0,0,50.19,28a7.69,7.69,0,0,0,2.38-3.93A9.74,9.74,0,0,0,51.84,19.05Z"/><path class="cls-8" d="M37.17,22.38A8.07,8.07,0,0,1,37.62,21a7.33,7.33,0,0,1,2.1-2.81,4.28,4.28,0,0,0-1-.9A6.72,6.72,0,0,0,35.47,21,5.94,5.94,0,0,0,37.17,22.38Z"/><path class="cls-8" d="M36.88,24.29c0-.42.09-.85.17-1.27a7.65,7.65,0,0,1-1.78-1.29,8.59,8.59,0,0,0-.17,1.35A11.17,11.17,0,0,0,36.88,24.29Z"/><path class="cls-9" d="M44.2,15.43a3.07,3.07,0,0,0-1.53,2.1A5.85,5.85,0,0,0,41,16.81a4.9,4.9,0,0,0-2-.06,4.3,4.3,0,0,1,1.61.39,5.15,5.15,0,0,1,2.14,1.38,4.54,4.54,0,0,1,2.16-3.36A5.24,5.24,0,0,0,44.2,15.43Z"/><path class="cls-9" d="M51.84,19.05a6.91,6.91,0,0,0-1.53-2.25A10.75,10.75,0,0,1,51.6,20c.86,3.5-1.71,6.89-4.6,8.62a10.38,10.38,0,0,1-9.09.84,8.75,8.75,0,0,0,4.51,1.34,11.45,11.45,0,0,0,3.64-.51A10.65,10.65,0,0,0,50.19,28a7.69,7.69,0,0,0,2.38-3.93A9.74,9.74,0,0,0,51.84,19.05Z"/><path class="cls-2" d="M69.36,11.52c0-.07,0-.23-.1-.26s-.27.16-.35.22a5.19,5.19,0,0,0-.46.36,10.13,10.13,0,0,0-.8.67A18.63,18.63,0,0,0,66,14.41,12.32,12.32,0,0,0,64.52,17a11.24,11.24,0,0,0-.91,2.67,1,1,0,0,0,0,.14l.25.24c.09-.3.19-.59.29-.88L64.59,18A28.16,28.16,0,0,1,66,15.27a7.15,7.15,0,0,1,.49-.73,8.83,8.83,0,0,1,1.66-1.74,2.38,2.38,0,0,1,.9-.41c.17-.05.5-.08.62-.22S69.41,11.69,69.36,11.52Z"/><path class="cls-3" d="M69.25,11.91c-.31-.46-2.19,1.59-2.33,1.74-1.42,1.53-2,3.39-3,5.18a.14.14,0,0,1-.2.07,3.52,3.52,0,0,0-.16.74,1,1,0,0,0,0,.14l.25.24c.09-.3.19-.59.29-.88L64.59,18A28.16,28.16,0,0,1,66,15.27a7.15,7.15,0,0,1,.49-.73,8.83,8.83,0,0,1,1.66-1.74,2.38,2.38,0,0,1,.9-.41,2.05,2.05,0,0,0,.58-.18A.83.83,0,0,1,69.25,11.91Z"/><path class="cls-7" d="M69.72,26.52a7.44,7.44,0,0,0-.18-4.89,4.87,4.87,0,0,0-3.27-2.83,3.08,3.08,0,0,0-2.53.6,5.7,5.7,0,0,0-.84-1.67,6,6,0,0,0-2.61-1.94c-1.91-.86-4.38,0-6,1.4-3.74,3.39-2.7,9.25.61,12.12a11.55,11.55,0,0,0,3.09,2,10.75,10.75,0,0,0,4.61,1A7.74,7.74,0,0,0,67,30.82,9.78,9.78,0,0,0,69.72,26.52Z"/><path class="cls-8" d="M56.41,19.51a8.3,8.3,0,0,1,1.26-.79A7.24,7.24,0,0,1,61.1,18a4.9,4.9,0,0,0-.06-.77c0-.22-.09-.41-.14-.6a6.75,6.75,0,0,0-4.91.79A6,6,0,0,0,56.41,19.51Z"/><path class="cls-8" d="M54.94,20.77c.31-.3.63-.59,1-.86a7.61,7.61,0,0,1-.51-2.13,7.91,7.91,0,0,0-1,.91A11.19,11.19,0,0,0,54.94,20.77Z"/><path class="cls-9" d="M66.27,18.8a3.08,3.08,0,0,0-2.53.6,5.7,5.7,0,0,0-.84-1.67,5,5,0,0,0-1.48-1.35,4.65,4.65,0,0,1,1,1.34,5.26,5.26,0,0,1,.73,2.44A4.51,4.51,0,0,1,66.94,19,4,4,0,0,0,66.27,18.8Z"/><path class="cls-9" d="M69.72,26.52a6.89,6.89,0,0,0,.3-2.71,10.9,10.9,0,0,1-1.09,3.26c-1.63,3.23-5.79,4.12-9.1,3.56a10.44,10.44,0,0,1-7.46-5.27,8.78,8.78,0,0,0,2.56,3.95,11.55,11.55,0,0,0,3.09,2,10.75,10.75,0,0,0,4.61,1A7.74,7.74,0,0,0,67,30.82,9.78,9.78,0,0,0,69.72,26.52Z"/><path class="cls-2" d="M81.93,30.35c0-.08,0-.23-.11-.26s-.27.17-.34.23a5.19,5.19,0,0,0-.45.37,8.53,8.53,0,0,0-.77.7,16.42,16.42,0,0,0-1.58,2A12.14,12.14,0,0,0,77.28,36a10.91,10.91,0,0,0-.83,2.7.59.59,0,0,0,0,.14l.25.23c.09-.3.17-.59.26-.88L77.38,37a26.17,26.17,0,0,1,1.28-2.8c.14-.25.29-.5.46-.75a9,9,0,0,1,1.6-1.78,2.67,2.67,0,0,1,.89-.45c.16,0,.5-.09.61-.23S82,30.51,81.93,30.35Z"/><path class="cls-3" d="M81.83,30.74c-.32-.45-2.13,1.66-2.27,1.81C78.2,34.13,77.7,36,76.79,37.83a.17.17,0,0,1-.21.08,5,5,0,0,0-.13.74.59.59,0,0,0,0,.14l.25.23c.09-.3.17-.59.26-.88L77.38,37a26.17,26.17,0,0,1,1.28-2.8c.14-.25.29-.5.46-.75a9,9,0,0,1,1.6-1.78,2.67,2.67,0,0,1,.89-.45,1.82,1.82,0,0,0,.58-.2A.86.86,0,0,1,81.83,30.74Z"/><path class="cls-4" d="M92.09,35.61a11.15,11.15,0,0,0-7.68-2.53,9.4,9.4,0,0,0-4,1A7,7,0,0,0,79,35a3.41,3.41,0,0,0-.74.93l-.16.36,0,0c.34.29.77.45,1.12.74.51.41,1.07.76,1.61,1.13a8.19,8.19,0,0,0,4,1.58,7.9,7.9,0,0,0,4.17-1,7.24,7.24,0,0,0,1.64-1.34A14.11,14.11,0,0,0,92.09,35.61Z"/><path class="cls-5" d="M92.09,35.61S89.43,38.79,87,39.08a7.93,7.93,0,0,1-4.4-.65c-1.41-.68-2.81-2.25-4.45-2.19h0l0,0c.34.29.77.45,1.12.74.51.41,1.07.76,1.61,1.13a8.19,8.19,0,0,0,4,1.58,7.9,7.9,0,0,0,4.17-1,7.24,7.24,0,0,0,1.64-1.34A14.11,14.11,0,0,0,92.09,35.61Z"/><path class="cls-6" d="M90.64,36a11.15,11.15,0,0,0-4.74-1.58c.12-.07.23-.14.34-.19a7.09,7.09,0,0,1,1.32-.59s0-.06,0,0a5.26,5.26,0,0,0-2.21.79,11.83,11.83,0,0,0-1.78.07,20.76,20.76,0,0,0-2.3.38c.22-.18.44-.36.68-.52.52-.32,1-.58,1.58-.89,0,0,0-.1,0-.09a6.34,6.34,0,0,0-1.67.77,4.91,4.91,0,0,0-1.3.92,10.52,10.52,0,0,0-1.57.58h0s-.07,0-.08,0a6.32,6.32,0,0,0-1.53,1s0,.1.05.08c.62-.27,1.21-.57,1.82-.83a6.09,6.09,0,0,1,1.21.34,9.17,9.17,0,0,1,1.5.9,25,25,0,0,0,2.47,1.62s.11,0,.06-.09c-.85-.64-1.69-1.31-2.54-2a5.81,5.81,0,0,0-2-1.06l.18-.07a16.54,16.54,0,0,1,2.21-.53,3.21,3.21,0,0,0,.52.39c.47.31.91.68,1.37,1A9.51,9.51,0,0,0,86.51,38s.08-.05,0-.08c-.64-.51-1.29-1-2-1.5s-1.17-1-1.78-1.39l.77-.11A10.13,10.13,0,0,1,85,34.81h.1a11.39,11.39,0,0,1,1.65.17,7.41,7.41,0,0,1,2.9,2.37,0,0,0,0,0,.08-.05,5.45,5.45,0,0,0-1.56-2,17.48,17.48,0,0,1,2.36.86A.08.08,0,0,0,90.64,36Z"/><path class="cls-10" d="M82.78,45.33a7.37,7.37,0,0,0-.34-4.89,4.85,4.85,0,0,0-3.35-2.72,3.09,3.09,0,0,0-2.51.68,5.81,5.81,0,0,0-.9-1.63A6,6,0,0,0,73,34.91c-1.94-.8-4.39.1-5.92,1.59-3.63,3.52-2.4,9.34,1,12.1a11.65,11.65,0,0,0,3.16,1.88,10.82,10.82,0,0,0,4.64.82,7.68,7.68,0,0,0,4.32-1.59A9.83,9.83,0,0,0,82.78,45.33Z"/><path class="cls-8" d="M69.25,38.75a10.19,10.19,0,0,1,1.23-.83,7.22,7.22,0,0,1,3.4-.87,3.94,3.94,0,0,0-.08-.77,5.08,5.08,0,0,0-.16-.59,6.78,6.78,0,0,0-4.88,1A5.69,5.69,0,0,0,69.25,38.75Z"/><path class="cls-8" d="M67.83,40.06c.3-.3.6-.6.92-.89a7.78,7.78,0,0,1-.58-2.11,8,8,0,0,0-1,.95A11.09,11.09,0,0,0,67.83,40.06Z"/><path class="cls-11" d="M79.09,37.72a3.09,3.09,0,0,0-2.51.68,5.81,5.81,0,0,0-.9-1.63,5,5,0,0,0-1.53-1.31,4.58,4.58,0,0,1,1,1.31,5.11,5.11,0,0,1,.8,2.42,4.54,4.54,0,0,1,3.79-1.27A5.67,5.67,0,0,0,79.09,37.72Z"/><path class="cls-11" d="M82.78,45.33A6.8,6.8,0,0,0,83,42.6a10.87,10.87,0,0,1-1,3.31c-1.52,3.27-5.65,4.3-9,3.85a10.41,10.41,0,0,1-7.62-5,8.79,8.79,0,0,0,2.68,3.86,11.65,11.65,0,0,0,3.16,1.88,10.82,10.82,0,0,0,4.64.82,7.68,7.68,0,0,0,4.32-1.59A9.83,9.83,0,0,0,82.78,45.33Z"/><path class="cls-2" d="M54.27,12.13c-.06-.06-.13-.21-.22-.19s-.17.27-.22.36-.17.36-.25.54a9.63,9.63,0,0,0-.42,1,19.29,19.29,0,0,0-.61,2.52,12.5,12.5,0,0,0-.16,3.06,11.85,11.85,0,0,0,.42,2.88.87.87,0,0,0,.06.13l.34.1c-.05-.31-.11-.63-.15-.94S53,20.76,53,20.35a28.12,28.12,0,0,1,0-3.18c0-.3.05-.6.1-.9a9.46,9.46,0,0,1,.71-2.38,2.57,2.57,0,0,1,.63-.8c.13-.13.43-.31.47-.49S54.39,12.26,54.27,12.13Z"/><path class="cls-3" d="M54.35,12.54c-.5-.28-1.26,2.48-1.32,2.69-.58,2.07-.21,4.05-.27,6.15a.16.16,0,0,1-.15.17,4.34,4.34,0,0,0,.2.75.87.87,0,0,0,.06.13l.34.1c-.05-.31-.11-.63-.15-.94S53,20.76,53,20.35a28.12,28.12,0,0,1,0-3.18c0-.3.05-.6.1-.9a9.46,9.46,0,0,1,.71-2.38,2.57,2.57,0,0,1,.63-.8c.12-.11.38-.28.45-.45A.83.83,0,0,1,54.35,12.54Z"/><path class="cls-4" d="M66.08,12.56a11.44,11.44,0,0,0-8.29,1,10,10,0,0,0-3.28,2.65,7.88,7.88,0,0,0-.94,1.48,3.54,3.54,0,0,0-.28,1.2v.4l0,0c.45.11.93.08,1.38.19.66.16,1.33.24,2,.35a8.46,8.46,0,0,0,4.41-.28,8.2,8.2,0,0,0,3.47-2.75,7.44,7.44,0,0,0,.94-2A15.35,15.35,0,0,0,66.08,12.56Z"/><path class="cls-5" d="M66.08,12.56S65,16.71,62.81,18.07a8.14,8.14,0,0,1-4.39,1.33c-1.61,0-3.61-.86-5.13-.09h0l0,0c.45.11.93.08,1.38.19.66.16,1.33.24,2,.35a8.46,8.46,0,0,0,4.41-.28,8.2,8.2,0,0,0,3.47-2.75,7.44,7.44,0,0,0,.94-2A15.35,15.35,0,0,0,66.08,12.56Z"/><path class="cls-6" d="M64.9,13.58a11.48,11.48,0,0,0-5.12.62c.08-.12.15-.23.23-.33a7.43,7.43,0,0,1,1-1.13s0-.06,0-.05a5.51,5.51,0,0,0-1.71,1.72,12.55,12.55,0,0,0-1.63.84,22.42,22.42,0,0,0-2,1.38,7.44,7.44,0,0,1,.42-.79c.33-.53.72-1,1.07-1.52,0-.05,0-.1-.07-.07a6.27,6.27,0,0,0-1.22,1.45A4.81,4.81,0,0,0,55,17.14a10,10,0,0,0-1.21,1.23h0a.13.13,0,0,0-.06.07,6.22,6.22,0,0,0-1,1.63c0,.05.05.09.08.05.46-.52.88-1.06,1.34-1.57a5.81,5.81,0,0,1,1.27-.22,9.81,9.81,0,0,1,1.8.18,23.84,23.84,0,0,0,3,.42.06.06,0,0,0,0-.11c-1.08-.22-2.16-.47-3.24-.71A5.89,5.89,0,0,0,54.71,18l.14-.14a18.68,18.68,0,0,1,1.83-1.47,3.11,3.11,0,0,0,.66.14c.58.08,1.15.23,1.72.34a10.19,10.19,0,0,0,2.84.35.05.05,0,0,0,0-.1c-.83-.19-1.67-.38-2.51-.53s-1.5-.39-2.27-.52l.68-.44a11.18,11.18,0,0,1,1.32-.71s0,0,.06,0l0,0a13.54,13.54,0,0,1,1.62-.57,7.62,7.62,0,0,1,3.75.94.05.05,0,0,0,.06-.09A5.68,5.68,0,0,0,62.31,14a20.3,20.3,0,0,1,2.58-.25A.08.08,0,0,0,64.9,13.58Z"/><path class="cls-7" d="M61.67,25.74a7.79,7.79,0,0,0-2.47-4.42,5,5,0,0,0-4.34-1.05,3.14,3.14,0,0,0-2,1.74,6.18,6.18,0,0,0-1.56-1.13A6.11,6.11,0,0,0,48,20.33c-2.17.1-4.05,2-4.83,4.09C41.29,29.31,45,34.2,49.4,35.28a12,12,0,0,0,3.77.36,11.14,11.14,0,0,0,4.69-1.28A8,8,0,0,0,61.2,31,10.08,10.08,0,0,0,61.67,25.74Z"/><path class="cls-8" d="M46.14,25.57a8.8,8.8,0,0,1,.78-1.32,7.56,7.56,0,0,1,2.79-2.32,4.69,4.69,0,0,0-.42-.67,5.06,5.06,0,0,0-.41-.49,7,7,0,0,0-4.14,3A6,6,0,0,0,46.14,25.57Z"/><path class="cls-8" d="M45.38,27.42c.15-.42.3-.83.47-1.24a7.7,7.7,0,0,1-1.47-1.71,7.89,7.89,0,0,0-.5,1.31A11.15,11.15,0,0,0,45.38,27.42Z"/><path class="cls-9" d="M54.86,20.27a3.14,3.14,0,0,0-2,1.74,6.18,6.18,0,0,0-1.56-1.13,5.31,5.31,0,0,0-2-.55,4.73,4.73,0,0,1,1.52.78c.68.59,1.51,1.06,1.82,1.9a4.68,4.68,0,0,1,3-2.85A4.16,4.16,0,0,0,54.86,20.27Z"/><path class="cls-9" d="M61.67,25.74a7.44,7.44,0,0,0-1-2.64,11,11,0,0,1,.53,3.52c0,3.73-3.37,6.51-6.68,7.56a10.73,10.73,0,0,1-9.33-1.33,9.07,9.07,0,0,0,4.21,2.43,12,12,0,0,0,3.77.36,11.14,11.14,0,0,0,4.69-1.28A8,8,0,0,0,61.2,31,10.08,10.08,0,0,0,61.67,25.74Z"/><path class="cls-12" d="M68.68,46c-3.7-1.26-7.61-4.43-8.51-8.43H25.48v23.7h45V46.49A17.58,17.58,0,0,1,68.68,46Z"/><path class="cls-2" d="M67.16,22c0-.08,0-.23-.1-.26s-.27.16-.35.21-.31.24-.46.36a10.27,10.27,0,0,0-.8.68,18.52,18.52,0,0,0-1.64,1.89,12.39,12.39,0,0,0-1.49,2.57,11.24,11.24,0,0,0-.91,2.67,1,1,0,0,0,0,.14l.25.23c.09-.29.19-.58.29-.87l.45-1.12a27.25,27.25,0,0,1,1.37-2.76c.16-.25.32-.49.49-.73a9.06,9.06,0,0,1,1.66-1.73,2.65,2.65,0,0,1,.9-.42c.17,0,.5-.07.62-.21S67.21,22.19,67.16,22Z"/><path class="cls-3" d="M67.05,22.42c-.31-.47-2.19,1.58-2.33,1.74-1.42,1.52-2,3.39-2.95,5.18a.14.14,0,0,1-.2.07,3.39,3.39,0,0,0-.16.74,1,1,0,0,0,0,.14l.25.23c.09-.29.19-.58.29-.87l.45-1.12a27.25,27.25,0,0,1,1.37-2.76c.16-.25.32-.49.49-.73a9.06,9.06,0,0,1,1.66-1.73,2.65,2.65,0,0,1,.9-.42,1.77,1.77,0,0,0,.58-.18A.81.81,0,0,1,67.05,22.42Z"/><path class="cls-7" d="M67.52,37a7.47,7.47,0,0,0-.18-4.9,4.89,4.89,0,0,0-3.27-2.83,3.08,3.08,0,0,0-2.53.6,5.65,5.65,0,0,0-.84-1.66,5.91,5.91,0,0,0-2.61-1.94c-1.91-.87-4.38-.05-6,1.39-3.74,3.4-2.7,9.25.61,12.13a11.55,11.55,0,0,0,3.09,2,10.75,10.75,0,0,0,4.61,1,7.67,7.67,0,0,0,4.37-1.45A9.69,9.69,0,0,0,67.52,37Z"/><path class="cls-8" d="M54.21,30a9.1,9.1,0,0,1,1.26-.78,7.25,7.25,0,0,1,3.43-.77,5,5,0,0,0-.06-.77c0-.21-.09-.41-.14-.59a6.7,6.7,0,0,0-4.91.78A5.94,5.94,0,0,0,54.21,30Z"/><path class="cls-8" d="M52.74,31.28c.31-.3.63-.59,1-.86a7.69,7.69,0,0,1-.51-2.13,7.83,7.83,0,0,0-1,.91A11.4,11.4,0,0,0,52.74,31.28Z"/><path class="cls-9" d="M64.07,29.3a3.08,3.08,0,0,0-2.53.6,5.65,5.65,0,0,0-.84-1.66,5.13,5.13,0,0,0-1.48-1.36,4.67,4.67,0,0,1,1,1.35,5.23,5.23,0,0,1,.73,2.44,4.47,4.47,0,0,1,3.82-1.14A4.08,4.08,0,0,0,64.07,29.3Z"/><path class="cls-9" d="M67.52,37a6.94,6.94,0,0,0,.3-2.72,11.05,11.05,0,0,1-1.09,3.27c-1.63,3.22-5.79,4.12-9.1,3.56a10.44,10.44,0,0,1-7.46-5.27,8.78,8.78,0,0,0,2.56,4,11.55,11.55,0,0,0,3.09,2,10.75,10.75,0,0,0,4.61,1,7.67,7.67,0,0,0,4.37-1.45A9.69,9.69,0,0,0,67.52,37Z"/><path class="cls-2" d="M27.07,21c-.07,0-.16-.16-.25-.13s-.1.3-.13.39-.08.39-.11.58a8.85,8.85,0,0,0-.17,1,19,19,0,0,0,0,2.5,12.13,12.13,0,0,0,.54,2.92,10.77,10.77,0,0,0,1,2.62.5.5,0,0,0,.09.12h.34a8.93,8.93,0,0,1-.35-.85l-.39-1.15a25.47,25.47,0,0,1-.75-3,8.62,8.62,0,0,1-.11-.87,9.2,9.2,0,0,1,.14-2.4,2.53,2.53,0,0,1,.41-.9c.1-.14.34-.38.33-.57S27.21,21.12,27.07,21Z"/><path class="cls-3" d="M27.23,21.39c-.53-.15-.62,2.63-.63,2.84-.09,2.08.7,3.86,1.13,5.85a.15.15,0,0,1-.11.19,3.2,3.2,0,0,0,.36.66.5.5,0,0,0,.09.12h.34a8.93,8.93,0,0,1-.35-.85l-.39-1.15a25.47,25.47,0,0,1-.75-3,8.62,8.62,0,0,1-.11-.87,9.2,9.2,0,0,1,.14-2.4,2.53,2.53,0,0,1,.41-.9,1.84,1.84,0,0,0,.33-.52A.8.8,0,0,1,27.23,21.39Z"/><path class="cls-7" d="M37.09,32.19a7.44,7.44,0,0,0-3.32-3.61,4.89,4.89,0,0,0-4.32,0,3.07,3.07,0,0,0-1.53,2.1,5.55,5.55,0,0,0-5-.49c-2,.58-3.36,2.81-3.63,4.94-.63,5,4,8.78,8.35,8.82a11.74,11.74,0,0,0,3.64-.51,10.78,10.78,0,0,0,4.13-2.26,7.72,7.72,0,0,0,2.38-3.94A9.7,9.7,0,0,0,37.09,32.19Z"/><path class="cls-8" d="M22.42,35.51a8.54,8.54,0,0,1,.44-1.41A7.3,7.3,0,0,1,25,31.29a3.51,3.51,0,0,0-.54-.55,3.9,3.9,0,0,0-.5-.36,6.72,6.72,0,0,0-3.21,3.79A5.94,5.94,0,0,0,22.42,35.51Z"/><path class="cls-8" d="M22.13,37.43c0-.43.09-.86.17-1.28a7.61,7.61,0,0,1-1.78-1.28,8.32,8.32,0,0,0-.17,1.34A11.23,11.23,0,0,0,22.13,37.43Z"/><path class="cls-9" d="M29.45,28.56a3.07,3.07,0,0,0-1.53,2.1,5.85,5.85,0,0,0-1.72-.72,5.07,5.07,0,0,0-2-.06,4.5,4.5,0,0,1,1.61.39,5.15,5.15,0,0,1,2.14,1.38A4.51,4.51,0,0,1,30.1,28.3,5.18,5.18,0,0,0,29.45,28.56Z"/><path class="cls-9" d="M37.09,32.19a6.83,6.83,0,0,0-1.54-2.26,10.51,10.51,0,0,1,1.3,3.19c.86,3.51-1.72,6.89-4.6,8.62a10.38,10.38,0,0,1-9.09.84,8.76,8.76,0,0,0,4.51,1.35,11.74,11.74,0,0,0,3.64-.51,10.78,10.78,0,0,0,4.13-2.26,7.72,7.72,0,0,0,2.38-3.94A9.7,9.7,0,0,0,37.09,32.19Z"/><path class="cls-2" d="M38.47,16.53c-.06,0-.16-.16-.24-.13s-.11.3-.13.39-.08.38-.12.57c-.06.34-.13.69-.16,1a17.54,17.54,0,0,0,0,2.51,12.22,12.22,0,0,0,.54,2.92,11.83,11.83,0,0,0,1,2.62l.09.11.34,0c-.12-.28-.24-.57-.35-.85s-.26-.77-.38-1.15a25.47,25.47,0,0,1-.75-3,8.62,8.62,0,0,1-.11-.87,9.63,9.63,0,0,1,.13-2.4,2.56,2.56,0,0,1,.42-.9c.09-.15.33-.38.33-.57S38.62,16.63,38.47,16.53Z"/><path class="cls-3" d="M38.64,16.9c-.53-.15-.63,2.63-.64,2.84-.08,2.08.71,3.85,1.13,5.85a.15.15,0,0,1-.11.19,5.14,5.14,0,0,0,.36.66l.09.11.34,0c-.12-.28-.24-.57-.35-.85s-.26-.77-.38-1.15a25.47,25.47,0,0,1-.75-3,8.62,8.62,0,0,1-.11-.87,9.63,9.63,0,0,1,.13-2.4,2.56,2.56,0,0,1,.42-.9,1.62,1.62,0,0,0,.32-.52A.86.86,0,0,1,38.64,16.9Z"/><path class="cls-7" d="M48.5,27.69a7.46,7.46,0,0,0-3.32-3.6,4.86,4.86,0,0,0-4.32,0,3,3,0,0,0-1.53,2.1,5.6,5.6,0,0,0-5-.5c-2,.59-3.36,2.82-3.63,4.95-.63,5,4,8.78,8.35,8.81a11.71,11.71,0,0,0,3.63-.5,10.71,10.71,0,0,0,4.14-2.27,7.76,7.76,0,0,0,2.38-3.93A9.84,9.84,0,0,0,48.5,27.69Z"/><path class="cls-8" d="M33.83,31a9,9,0,0,1,.44-1.42,7.25,7.25,0,0,1,2.11-2.81,4.68,4.68,0,0,0-.55-.54,3.83,3.83,0,0,0-.49-.36,6.78,6.78,0,0,0-3.22,3.79A5.85,5.85,0,0,0,33.83,31Z"/><path class="cls-8" d="M33.53,32.93c0-.42.1-.85.17-1.27a7.59,7.59,0,0,1-1.77-1.29,8.6,8.6,0,0,0-.18,1.35A11.64,11.64,0,0,0,33.53,32.93Z"/><path class="cls-9" d="M40.86,24.07a3,3,0,0,0-1.53,2.1,5.91,5.91,0,0,0-1.73-.72,4.85,4.85,0,0,0-2-.06,4.35,4.35,0,0,1,1.61.39,5.21,5.21,0,0,1,2.14,1.38,4.5,4.5,0,0,1,2.16-3.36A4.67,4.67,0,0,0,40.86,24.07Z"/><path class="cls-9" d="M48.5,27.69A6.94,6.94,0,0,0,47,25.44a10.51,10.51,0,0,1,1.3,3.19c.85,3.51-1.72,6.89-4.6,8.62a10.38,10.38,0,0,1-9.09.84,8.72,8.72,0,0,0,4.51,1.34,11.71,11.71,0,0,0,3.63-.5,10.71,10.71,0,0,0,4.14-2.27,7.76,7.76,0,0,0,2.38-3.93A9.84,9.84,0,0,0,48.5,27.69Z"/><path class="cls-2" d="M21.62,32.82c-.06,0-.16-.16-.24-.13s-.11.3-.13.39-.08.39-.11.58a8.85,8.85,0,0,0-.17,1,19,19,0,0,0,0,2.5,12.14,12.14,0,0,0,.55,2.92,11.17,11.17,0,0,0,1,2.62l.1.12H23c-.12-.28-.24-.56-.34-.85l-.39-1.14a26.14,26.14,0,0,1-.75-3,8.62,8.62,0,0,1-.11-.87,9.2,9.2,0,0,1,.14-2.4,2.53,2.53,0,0,1,.41-.9c.1-.14.34-.38.33-.57S21.77,32.92,21.62,32.82Z"/><path class="cls-3" d="M21.79,33.19c-.53-.15-.63,2.63-.63,2.84-.09,2.08.7,3.86,1.13,5.85a.16.16,0,0,1-.11.19,3.73,3.73,0,0,0,.35.66l.1.12H23c-.12-.28-.24-.56-.34-.85l-.39-1.14a26.14,26.14,0,0,1-.75-3,8.62,8.62,0,0,1-.11-.87,9.2,9.2,0,0,1,.14-2.4,2.53,2.53,0,0,1,.41-.9,1.84,1.84,0,0,0,.33-.52A.8.8,0,0,1,21.79,33.19Z"/><path class="cls-7" d="M31.65,44a7.49,7.49,0,0,0-3.32-3.61,4.89,4.89,0,0,0-4.32,0,3.07,3.07,0,0,0-1.53,2.1,5.8,5.8,0,0,0-1.73-.72,6,6,0,0,0-3.24.23c-2,.58-3.36,2.81-3.63,4.94-.63,5,4,8.78,8.35,8.82a11.63,11.63,0,0,0,3.63-.51A10.75,10.75,0,0,0,30,53,7.72,7.72,0,0,0,32.38,49,9.8,9.8,0,0,0,31.65,44Z"/><path class="cls-8" d="M17,47.31a8.54,8.54,0,0,1,.44-1.41,7.2,7.2,0,0,1,2.11-2.81,4,4,0,0,0-.54-.55,3.9,3.9,0,0,0-.5-.36A6.78,6.78,0,0,0,15.27,46,5.85,5.85,0,0,0,17,47.31Z"/><path class="cls-8" d="M16.69,49.23c0-.43.09-.86.16-1.28a7.55,7.55,0,0,1-1.77-1.28A7.33,7.33,0,0,0,14.91,48,11.23,11.23,0,0,0,16.69,49.23Z"/><path class="cls-9" d="M24,40.36a3.07,3.07,0,0,0-1.53,2.1,5.8,5.8,0,0,0-1.73-.72,5,5,0,0,0-2-.06,4.5,4.5,0,0,1,1.61.39,5.21,5.21,0,0,1,2.14,1.38,4.51,4.51,0,0,1,2.16-3.35A5.18,5.18,0,0,0,24,40.36Z"/><path class="cls-9" d="M31.65,44a6.83,6.83,0,0,0-1.54-2.26,10.51,10.51,0,0,1,1.3,3.19c.86,3.51-1.72,6.89-4.6,8.62a10.38,10.38,0,0,1-9.09.84,8.76,8.76,0,0,0,4.51,1.35,11.63,11.63,0,0,0,3.63-.51A10.75,10.75,0,0,0,30,53,7.72,7.72,0,0,0,32.38,49,9.8,9.8,0,0,0,31.65,44Z"/><path class="cls-2" d="M68,30.07c0-.05-.13-.19-.22-.16s-.14.27-.18.36-.13.37-.2.55-.23.66-.31,1a17.06,17.06,0,0,0-.38,2.48,12.77,12.77,0,0,0,.11,3A11.75,11.75,0,0,0,67.44,40l.08.12.33.07c-.08-.3-.16-.6-.22-.9s-.15-.79-.22-1.19a28.31,28.31,0,0,1-.31-3.06c0-.29,0-.59,0-.88a9,9,0,0,1,.48-2.35,2.64,2.64,0,0,1,.54-.83c.12-.13.39-.33.41-.51S68.11,30.18,68,30.07Z"/><path class="cls-3" d="M68.09,30.46c-.51-.23-1,2.51-1,2.71-.38,2,.14,3.92.27,6a.15.15,0,0,1-.13.17,4.94,4.94,0,0,0,.25.71l.08.12.33.07c-.08-.3-.16-.6-.22-.9s-.15-.79-.22-1.19a28.31,28.31,0,0,1-.31-3.06c0-.29,0-.59,0-.88a9,9,0,0,1,.48-2.35,2.64,2.64,0,0,1,.54-.83c.11-.12.34-.3.4-.47A.74.74,0,0,1,68.09,30.46Z"/><path class="cls-13" d="M76.29,42.56a7.5,7.5,0,0,0-2.77-4,4.87,4.87,0,0,0-4.27-.65,3.07,3.07,0,0,0-1.82,1.86,5.58,5.58,0,0,0-4.84-1.21c-2.08.29-3.74,2.3-4.31,4.37-1.35,4.87,2.65,9.26,7,9.93a11.59,11.59,0,0,0,3.67,0,10.73,10.73,0,0,0,4.42-1.64,7.72,7.72,0,0,0,2.92-3.55A9.87,9.87,0,0,0,76.29,42.56Z"/><path class="cls-14" d="M69.25,37.87a3.07,3.07,0,0,0-1.82,1.86,6,6,0,0,0-1.6-1,5,5,0,0,0-2-.35,4.63,4.63,0,0,1,1.54.61c.7.51,1.54.9,1.92,1.68a4.48,4.48,0,0,1,2.62-3A5.2,5.2,0,0,0,69.25,37.87Z"/><path class="cls-14" d="M76.29,42.56a7.09,7.09,0,0,0-1.2-2.45,10.77,10.77,0,0,1,.82,3.34c.34,3.6-2.69,6.58-5.8,7.87A10.38,10.38,0,0,1,61,50.84a8.88,8.88,0,0,0,4.27,2,11.59,11.59,0,0,0,3.67,0,10.73,10.73,0,0,0,4.42-1.64,7.72,7.72,0,0,0,2.92-3.55A9.87,9.87,0,0,0,76.29,42.56Z"/><path class="cls-2" d="M46.82,25.2c0-.05-.12-.2-.21-.19s-.18.28-.23.36-.17.37-.25.55a9.55,9.55,0,0,0-.41,1,18,18,0,0,0-.62,2.51A12.53,12.53,0,0,0,45,32.49a11.86,11.86,0,0,0,.41,2.89,1.11,1.11,0,0,0,.07.13l.34.1c-.06-.32-.11-.63-.15-.94s-.08-.83-.11-1.24a26,26,0,0,1,0-3.18,8.85,8.85,0,0,1,.1-.9,9.31,9.31,0,0,1,.7-2.38,2.72,2.72,0,0,1,.63-.8c.14-.13.43-.31.48-.5S46.94,25.33,46.82,25.2Z"/><path class="cls-3" d="M46.9,25.61c-.5-.28-1.26,2.49-1.32,2.7-.58,2.07-.21,4-.26,6.15a.15.15,0,0,1-.16.16,5.26,5.26,0,0,0,.2.76,1.11,1.11,0,0,0,.07.13l.34.1c-.06-.32-.11-.63-.15-.94s-.08-.83-.11-1.24a26,26,0,0,1,0-3.18,8.85,8.85,0,0,1,.1-.9,9.31,9.31,0,0,1,.7-2.38,2.72,2.72,0,0,1,.63-.8c.13-.12.38-.28.46-.45A.87.87,0,0,1,46.9,25.61Z"/><path class="cls-4" d="M58.63,25.64a11.45,11.45,0,0,0-8.29,1,9.88,9.88,0,0,0-3.27,2.65,6.74,6.74,0,0,0-.94,1.48,3.13,3.13,0,0,0-.28,1.2,2.67,2.67,0,0,0,0,.4h0c.45.12.92.09,1.37.19.66.16,1.34.25,2,.36a8.58,8.58,0,0,0,4.41-.29,8.15,8.15,0,0,0,3.46-2.74,7.15,7.15,0,0,0,.94-2A15.35,15.35,0,0,0,58.63,25.64Z"/><path class="cls-5" d="M58.63,25.64c-.05,0-1.08,4.14-3.26,5.51A8.29,8.29,0,0,1,51,32.48c-1.61,0-3.61-.87-5.12-.09h0c.45.12.92.09,1.37.19.66.16,1.34.25,2,.36a8.58,8.58,0,0,0,4.41-.29,8.15,8.15,0,0,0,3.46-2.74,7.15,7.15,0,0,0,.94-2A15.35,15.35,0,0,0,58.63,25.64Z"/><path class="cls-6" d="M57.45,26.66a11.57,11.57,0,0,0-5.11.61,3.71,3.71,0,0,1,.23-.32,6.57,6.57,0,0,1,1-1.13s0-.07,0-.05a5.4,5.4,0,0,0-1.71,1.72,10.94,10.94,0,0,0-1.63.84c-.64.4-1.32.86-2,1.37a6.47,6.47,0,0,1,.41-.78c.34-.53.72-1,1.08-1.53,0-.05,0-.09-.08-.06a6.27,6.27,0,0,0-1.22,1.45,5.37,5.37,0,0,0-.81,1.43,10.87,10.87,0,0,0-1.21,1.24h0a.21.21,0,0,0-.06.08,6.29,6.29,0,0,0-1,1.63,0,0,0,0,0,.08.05c.46-.52.87-1.06,1.33-1.57A5.8,5.8,0,0,1,48,31.42a10,10,0,0,1,1.8.18,25.8,25.8,0,0,0,3,.42c.06,0,.08-.1,0-.11-1.08-.22-2.17-.48-3.24-.71a5.9,5.9,0,0,0-2.34-.12l.13-.14a18.52,18.52,0,0,1,1.84-1.47,3.58,3.58,0,0,0,.65.14c.58.08,1.15.23,1.73.34a9.74,9.74,0,0,0,2.84.34s0-.08,0-.09c-.83-.19-1.66-.39-2.5-.53s-1.51-.39-2.27-.52c.22-.15.44-.3.67-.44A10.54,10.54,0,0,1,51.68,28a.08.08,0,0,0,.07,0l0,0a12.41,12.41,0,0,1,1.62-.57,7.75,7.75,0,0,1,3.75.93,0,0,0,1,0,.05-.08,5.62,5.62,0,0,0-2.34-1.17,18.62,18.62,0,0,1,2.58-.25A.08.08,0,1,0,57.45,26.66Z"/><path class="cls-7" d="M54.22,38.82a7.65,7.65,0,0,0-2.47-4.42,5,5,0,0,0-4.33-1.06,3.22,3.22,0,0,0-2.05,1.75A5.58,5.58,0,0,0,43.81,34a6.1,6.1,0,0,0-3.31-.56c-2.16.11-4,2-4.83,4.1-1.83,4.89,1.88,9.77,6.28,10.86a11.73,11.73,0,0,0,3.77.35,10.9,10.9,0,0,0,4.7-1.28,8,8,0,0,0,3.33-3.38A10.1,10.1,0,0,0,54.22,38.82Z"/><path class="cls-8" d="M38.69,38.65a9.16,9.16,0,0,1,.78-1.32A7.54,7.54,0,0,1,42.26,35a4.72,4.72,0,0,0-.41-.68,5,5,0,0,0-.42-.48,6.94,6.94,0,0,0-4.13,3A6.11,6.11,0,0,0,38.69,38.65Z"/><path class="cls-8" d="M37.93,40.5c.15-.42.31-.84.48-1.24a7.75,7.75,0,0,1-1.47-1.72,7.48,7.48,0,0,0-.5,1.32A12.25,12.25,0,0,0,37.93,40.5Z"/><path class="cls-9" d="M47.42,33.34a3.22,3.22,0,0,0-2.05,1.75A5.58,5.58,0,0,0,43.81,34a5,5,0,0,0-2-.55,4.6,4.6,0,0,1,1.53.78c.67.58,1.5,1.06,1.82,1.9a4.65,4.65,0,0,1,3-2.85A4.19,4.19,0,0,0,47.42,33.34Z"/><path class="cls-9" d="M54.22,38.82a7,7,0,0,0-1-2.64,11.21,11.21,0,0,1,.54,3.52c0,3.73-3.38,6.51-6.69,7.56a10.74,10.74,0,0,1-9.33-1.33A9.21,9.21,0,0,0,42,48.36a11.73,11.73,0,0,0,3.77.35,10.9,10.9,0,0,0,4.7-1.28,8,8,0,0,0,3.33-3.38A10.1,10.1,0,0,0,54.22,38.82Z"/><path class="cls-2" d="M57.13,32.86c0-.06-.08-.21-.17-.22s-.21.23-.27.31-.23.32-.34.48a9.9,9.9,0,0,0-.56.87,17.42,17.42,0,0,0-1,2.29,12.29,12.29,0,0,0-.68,2.89A10.66,10.66,0,0,0,54,42.29a.39.39,0,0,0,0,.14l.3.16c0-.31,0-.62,0-.92s.08-.81.11-1.21a28.2,28.2,0,0,1,.52-3,7.46,7.46,0,0,1,.26-.84,9,9,0,0,1,1.08-2.14,2.74,2.74,0,0,1,.74-.66c.15-.09.47-.21.54-.38S57.23,33,57.13,32.86Z"/><path class="cls-3" d="M57.14,33.27c-.43-.36-1.63,2.15-1.73,2.33-.91,1.88-.91,3.82-1.32,5.82a.15.15,0,0,1-.18.12,4.38,4.38,0,0,0,.06.75.39.39,0,0,0,0,.14l.3.16c0-.31,0-.62,0-.92s.08-.81.11-1.21a28.2,28.2,0,0,1,.52-3,7.46,7.46,0,0,1,.26-.84,9,9,0,0,1,1.08-2.14,2.74,2.74,0,0,1,.74-.66,1.57,1.57,0,0,0,.51-.34A.9.9,0,0,1,57.14,33.27Z"/><path class="cls-15" d="M61.81,47.12a7.51,7.51,0,0,0-1.59-4.64,4.85,4.85,0,0,0-3.94-1.76A3.07,3.07,0,0,0,54,42a5.88,5.88,0,0,0-1.29-1.35,6,6,0,0,0-3.06-1.1c-2.08-.28-4.21,1.22-5.31,3-2.6,4.34.08,9.64,4.08,11.44a11.49,11.49,0,0,0,3.53,1,10.7,10.7,0,0,0,4.7-.4A7.69,7.69,0,0,0,60.44,52,9.85,9.85,0,0,0,61.81,47.12Z"/><path class="cls-8" d="M47,44.24a9.38,9.38,0,0,1,1-1.11,7.1,7.1,0,0,1,3.06-1.72,4.48,4.48,0,0,0-.28-.72,3.36,3.36,0,0,0-.31-.53A6.72,6.72,0,0,0,46,42.33,5.72,5.72,0,0,0,47,44.24Z"/><path class="cls-8" d="M46,45.88c.21-.38.43-.75.67-1.1a7.69,7.69,0,0,1-1.11-1.89,7.94,7.94,0,0,0-.7,1.16A10.78,10.78,0,0,0,46,45.88Z"/><path class="cls-16" d="M56.28,40.72A3.07,3.07,0,0,0,54,42a5.88,5.88,0,0,0-1.29-1.35,5,5,0,0,0-1.81-.87,4.79,4.79,0,0,1,1.32,1,5.31,5.31,0,0,1,1.4,2.12A4.51,4.51,0,0,1,57,40.74,4.12,4.12,0,0,0,56.28,40.72Z"/><path class="cls-16" d="M61.81,47.12a7.13,7.13,0,0,0-.5-2.69,10.82,10.82,0,0,1-.1,3.45c-.63,3.55-4.35,5.61-7.69,6A10.4,10.4,0,0,1,44.86,51a8.8,8.8,0,0,0,3.59,3.05,11.49,11.49,0,0,0,3.53,1,10.7,10.7,0,0,0,4.7-.4A7.69,7.69,0,0,0,60.44,52,9.85,9.85,0,0,0,61.81,47.12Z"/><path class="cls-2" d="M31.77,32.65c-.05,0-.13-.18-.22-.16s-.15.28-.18.37-.13.36-.2.55a10.37,10.37,0,0,0-.31,1,17.44,17.44,0,0,0-.36,2.48,12.33,12.33,0,0,0,.12,3,11.2,11.2,0,0,0,.66,2.74l.07.12.34.07c-.08-.3-.16-.6-.23-.9s-.15-.79-.22-1.18a26.46,26.46,0,0,1-.32-3.06,6.43,6.43,0,0,1,0-.88,8.9,8.9,0,0,1,.46-2.35,2.57,2.57,0,0,1,.54-.84c.12-.13.39-.33.41-.51S31.9,32.77,31.77,32.65Z"/><path class="cls-3" d="M31.89,33c-.51-.23-1,2.51-1,2.72-.38,2.05.16,3.92.29,6a.14.14,0,0,1-.13.17,3.49,3.49,0,0,0,.26.71l.07.12.34.07c-.08-.3-.16-.6-.23-.9s-.15-.79-.22-1.18a26.46,26.46,0,0,1-.32-3.06,6.43,6.43,0,0,1,0-.88,8.9,8.9,0,0,1,.46-2.35,2.57,2.57,0,0,1,.54-.84c.11-.12.34-.3.4-.47A.74.74,0,0,1,31.89,33Z"/><path class="cls-15" d="M40.13,45.11a7.45,7.45,0,0,0-2.78-4,4.87,4.87,0,0,0-4.27-.63,3.07,3.07,0,0,0-1.82,1.86,5.7,5.7,0,0,0-1.6-1,6,6,0,0,0-3.24-.24c-2.08.3-3.73,2.32-4.29,4.39-1.33,4.87,2.68,9.25,7,9.9a11.59,11.59,0,0,0,3.67,0,10.62,10.62,0,0,0,4.41-1.66,7.61,7.61,0,0,0,2.91-3.56A9.76,9.76,0,0,0,40.13,45.11Z"/><path class="cls-8" d="M25.14,46.34A9.62,9.62,0,0,1,25.77,45a7.29,7.29,0,0,1,2.49-2.48,4.74,4.74,0,0,0-.46-.62,6,6,0,0,0-.45-.43,6.76,6.76,0,0,0-3.71,3.3A5.87,5.87,0,0,0,25.14,46.34Z"/><path class="cls-8" d="M24.58,48.2c.1-.42.21-.84.34-1.24a7.56,7.56,0,0,1-1.57-1.52,6.93,6.93,0,0,0-.36,1.3A10.48,10.48,0,0,0,24.58,48.2Z"/><path class="cls-16" d="M33.08,40.45a3.07,3.07,0,0,0-1.82,1.86,5.7,5.7,0,0,0-1.6-1,5,5,0,0,0-2-.35,4.33,4.33,0,0,1,1.54.62c.7.5,1.55.88,1.92,1.66a4.51,4.51,0,0,1,2.62-3A3.76,3.76,0,0,0,33.08,40.45Z"/><path class="cls-16" d="M40.13,45.11a6.91,6.91,0,0,0-1.2-2.45A10.85,10.85,0,0,1,39.76,46c.35,3.6-2.67,6.59-5.77,7.89a10.4,10.4,0,0,1-9.12-.44,8.83,8.83,0,0,0,4.28,2,11.59,11.59,0,0,0,3.67,0,10.62,10.62,0,0,0,4.41-1.66,7.61,7.61,0,0,0,2.91-3.56A9.76,9.76,0,0,0,40.13,45.11Z"/><path class="cls-2" d="M75.42,40.18c0-.06-.1-.21-.19-.2s-.19.25-.24.33a5.14,5.14,0,0,0-.29.51,10.1,10.1,0,0,0-.49.92,18,18,0,0,0-.8,2.38A12,12,0,0,0,73,47.05a11,11,0,0,0,.16,2.82.62.62,0,0,0,0,.14,2.08,2.08,0,0,1,.32.12c0-.31,0-.62-.07-.92V48a26.42,26.42,0,0,1,.23-3.07c0-.29.1-.58.17-.86a9.33,9.33,0,0,1,.88-2.23,2.59,2.59,0,0,1,.68-.72c.14-.11.44-.26.5-.44S75.53,40.32,75.42,40.18Z"/><path class="cls-3" d="M75.46,40.58C75,40.27,74,42.88,74,43.07c-.74,2-.55,3.89-.78,5.91a.16.16,0,0,1-.16.15,3.47,3.47,0,0,0,.13.74.62.62,0,0,0,0,.14,2.08,2.08,0,0,1,.32.12c0-.31,0-.62-.07-.92V48a26.42,26.42,0,0,1,.23-3.07c0-.29.1-.58.17-.86a9.33,9.33,0,0,1,.88-2.23,2.59,2.59,0,0,1,.68-.72,2,2,0,0,0,.48-.39A.92.92,0,0,1,75.46,40.58Z"/><path class="cls-4" d="M86.78,41.6A11.67,11.67,0,0,0,82.94,41a11.89,11.89,0,0,0-4.24.91,9.8,9.8,0,0,0-3.39,2.28,7.09,7.09,0,0,0-1,1.35,3.33,3.33,0,0,0-.37,1.13c0,.13,0,.26,0,.39l0,0c.42.15.88.15,1.3.3.63.2,1.27.35,1.91.51A8.18,8.18,0,0,0,81.4,48,7.8,7.8,0,0,0,85,45.6,7.08,7.08,0,0,0,86,43.78,14.79,14.79,0,0,0,86.78,41.6Z"/><path class="cls-5" d="M86.78,41.6s-1.4,3.9-3.61,5a7.87,7.87,0,0,1-4.36.92c-1.55-.15-3.41-1.14-4.93-.52h0l0,0c.42.15.88.15,1.3.3.63.2,1.27.35,1.91.51A8.18,8.18,0,0,0,81.4,48,7.8,7.8,0,0,0,85,45.6,7.08,7.08,0,0,0,86,43.78,14.79,14.79,0,0,0,86.78,41.6Z"/><path class="cls-6" d="M85.55,42.48a11.14,11.14,0,0,0-5,.16,3.47,3.47,0,0,1,.25-.29,6.56,6.56,0,0,1,1-1s0-.06,0-.05A5.43,5.43,0,0,0,80,42.8a12.1,12.1,0,0,0-1.64.68,20.41,20.41,0,0,0-2,1.16,5.66,5.66,0,0,1,.47-.73c.36-.48.78-.91,1.16-1.38,0,0,0-.09-.07-.06a6.07,6.07,0,0,0-1.29,1.29,4.81,4.81,0,0,0-.9,1.32,9.52,9.52,0,0,0-1.27,1.08h0a.13.13,0,0,0-.06.07,5.85,5.85,0,0,0-1.07,1.49s0,.09.07.05c.49-.46.94-1,1.42-1.4A6.46,6.46,0,0,1,76,46.27a10.89,10.89,0,0,1,1.72.33,24.43,24.43,0,0,0,2.88.66c.06,0,.09-.08,0-.1l-3.07-1a5.72,5.72,0,0,0-2.24-.31l.14-.13a18.26,18.26,0,0,1,1.89-1.26,3.67,3.67,0,0,0,.62.19c.56.13,1.09.32,1.64.48a10.08,10.08,0,0,0,2.71.57s0-.08,0-.09c-.78-.26-1.57-.52-2.37-.73s-1.42-.5-2.15-.69l.69-.37a9.8,9.8,0,0,1,1.34-.57h.06l0,0a11.17,11.17,0,0,1,1.61-.41,7.35,7.35,0,0,1,3.54,1.21s.1,0,.06-.08A5.53,5.53,0,0,0,83,42.66a17.54,17.54,0,0,1,2.51,0A.08.08,0,0,0,85.55,42.48Z"/><path class="cls-10" d="M81.41,53.94a7.47,7.47,0,0,0-2-4.47,4.91,4.91,0,0,0-4.09-1.39,3.08,3.08,0,0,0-2.12,1.51,5.77,5.77,0,0,0-1.41-1.22,5.9,5.9,0,0,0-3.14-.81c-2.1-.08-4.08,1.61-5,3.54-2.18,4.56,1,9.59,5.14,11a11.76,11.76,0,0,0,3.61.67A10.89,10.89,0,0,0,77,61.93a7.75,7.75,0,0,0,3.5-3A9.71,9.71,0,0,0,81.41,53.94Z"/><path class="cls-8" d="M66.45,52.46a7.73,7.73,0,0,1,.86-1.2,7.19,7.19,0,0,1,2.89-2,4.47,4.47,0,0,0-.35-.69,4,4,0,0,0-.35-.5,6.75,6.75,0,0,0-4.25,2.58A5.72,5.72,0,0,0,66.45,52.46Z"/><path class="cls-8" d="M65.56,54.19c.18-.4.36-.78.56-1.16a7.53,7.53,0,0,1-1.27-1.78,7.27,7.27,0,0,0-.6,1.22A11.65,11.65,0,0,0,65.56,54.19Z"/><path class="cls-11" d="M75.31,48.08a3.08,3.08,0,0,0-2.12,1.51,5.77,5.77,0,0,0-1.41-1.22,5,5,0,0,0-1.88-.7,4.57,4.57,0,0,1,1.4.88c.61.63,1.37,1.15,1.6,2A4.52,4.52,0,0,1,76,48,5.37,5.37,0,0,0,75.31,48.08Z"/><path class="cls-11" d="M81.41,53.94a7,7,0,0,0-.74-2.63,11,11,0,0,1,.22,3.44c-.29,3.59-3.8,6-7.09,6.73a10.41,10.41,0,0,1-8.89-2.07,8.78,8.78,0,0,0,3.86,2.69,11.76,11.76,0,0,0,3.61.67A10.89,10.89,0,0,0,77,61.93a7.75,7.75,0,0,0,3.5-3A9.71,9.71,0,0,0,81.41,53.94Z"/><path class="cls-2" d="M63.6,44.37c0-.06-.08-.22-.17-.22s-.21.23-.27.31-.23.31-.34.47a10.17,10.17,0,0,0-.57.88,18.78,18.78,0,0,0-1,2.29A11.85,11.85,0,0,0,60.55,51a10.75,10.75,0,0,0-.11,2.82.39.39,0,0,0,0,.14l.3.15c0-.3,0-.61,0-.92s.08-.8.11-1.2a27.78,27.78,0,0,1,.52-3,7.46,7.46,0,0,1,.26-.84A8.78,8.78,0,0,1,62.77,46a2.6,2.6,0,0,1,.74-.66c.15-.09.47-.22.54-.38S63.7,44.51,63.6,44.37Z"/><path class="cls-3" d="M63.61,44.77c-.43-.35-1.64,2.15-1.73,2.34C61,49,61,50.93,60.56,52.92a.16.16,0,0,1-.18.13,3.62,3.62,0,0,0,.06.75.39.39,0,0,0,0,.14l.3.15c0-.3,0-.61,0-.92s.08-.8.11-1.2a27.78,27.78,0,0,1,.52-3,7.46,7.46,0,0,1,.26-.84A8.78,8.78,0,0,1,62.77,46a2.6,2.6,0,0,1,.74-.66A2,2,0,0,0,64,45,.82.82,0,0,1,63.61,44.77Z"/><path class="cls-17" d="M68.27,58.63A7.44,7.44,0,0,0,66.69,54a4.87,4.87,0,0,0-3.94-1.76,3.07,3.07,0,0,0-2.25,1.3,5.88,5.88,0,0,0-1.29-1.35,6.05,6.05,0,0,0-3.06-1.11c-2.08-.27-4.21,1.22-5.31,3.06-2.6,4.33.08,9.64,4.08,11.44a11.78,11.78,0,0,0,3.53,1,10.79,10.79,0,0,0,4.69-.4,7.8,7.8,0,0,0,3.77-2.64A9.74,9.74,0,0,0,68.27,58.63Z"/><path class="cls-8" d="M53.51,55.75a8.74,8.74,0,0,1,1-1.12,7.31,7.31,0,0,1,3.06-1.72,4.87,4.87,0,0,0-.28-.72c-.1-.19-.2-.36-.31-.53a6.81,6.81,0,0,0-4.47,2.17A5.66,5.66,0,0,0,53.51,55.75Z"/><path class="cls-8" d="M52.47,57.38c.21-.37.43-.74.67-1.1A7.69,7.69,0,0,1,52,54.39a7.54,7.54,0,0,0-.7,1.17A10.31,10.31,0,0,0,52.47,57.38Z"/><path class="cls-9" d="M62.75,52.23a3.07,3.07,0,0,0-2.25,1.3,5.88,5.88,0,0,0-1.29-1.35,5,5,0,0,0-1.81-.87,4.43,4.43,0,0,1,1.32,1,5.24,5.24,0,0,1,1.4,2.12,4.51,4.51,0,0,1,3.33-2.19A3.3,3.3,0,0,0,62.75,52.23Z"/><path class="cls-9" d="M68.27,58.63a6.9,6.9,0,0,0-.49-2.69,10.82,10.82,0,0,1-.1,3.45c-.63,3.55-4.36,5.61-7.69,6a10.4,10.4,0,0,1-8.66-2.9,8.88,8.88,0,0,0,3.59,3,11.78,11.78,0,0,0,3.53,1,10.79,10.79,0,0,0,4.69-.4,7.8,7.8,0,0,0,3.77-2.64A9.74,9.74,0,0,0,68.27,58.63Z"/><path class="cls-2" d="M43.22,39.33c0-.06-.11-.2-.2-.19s-.18.26-.23.35-.17.35-.25.52a8.2,8.2,0,0,0-.42,1,18.38,18.38,0,0,0-.65,2.42,12.2,12.2,0,0,0-.21,3,11.19,11.19,0,0,0,.35,2.8l.06.13.32.1c-.05-.3-.09-.61-.12-.91l-.09-1.21a26.21,26.21,0,0,1,0-3.07,6.42,6.42,0,0,1,.12-.88A8.79,8.79,0,0,1,42.66,41a2.42,2.42,0,0,1,.62-.77c.13-.11.42-.28.47-.46S43.34,39.46,43.22,39.33Z"/><path class="cls-3" d="M43.29,39.73c-.48-.28-1.27,2.38-1.33,2.58-.6,2-.29,3.91-.38,5.95a.16.16,0,0,1-.15.16,4.1,4.1,0,0,0,.18.73l.06.13.32.1c-.05-.3-.09-.61-.12-.91l-.09-1.21a26.21,26.21,0,0,1,0-3.07,6.42,6.42,0,0,1,.12-.88A8.79,8.79,0,0,1,42.66,41a2.42,2.42,0,0,1,.62-.77,1.79,1.79,0,0,0,.45-.42A.82.82,0,0,1,43.29,39.73Z"/><path class="cls-10" d="M50.12,52.66a7.49,7.49,0,0,0-2.31-4.33,4.88,4.88,0,0,0-4.17-1.11,3.07,3.07,0,0,0-2,1.65,5.64,5.64,0,0,0-1.49-1.13,6,6,0,0,0-3.19-.6c-2.1.06-4,1.88-4.75,3.87-1.88,4.69,1.62,9.5,5.86,10.64a11.78,11.78,0,0,0,3.64.42,10.69,10.69,0,0,0,4.57-1.15,7.61,7.61,0,0,0,3.29-3.21A9.73,9.73,0,0,0,50.12,52.66Z"/><path class="cls-8" d="M35.08,52.18a9.17,9.17,0,0,1,.79-1.26,7.3,7.3,0,0,1,2.74-2.19,4.4,4.4,0,0,0-.39-.66,3.71,3.71,0,0,0-.39-.48,6.77,6.77,0,0,0-4.06,2.86A5.87,5.87,0,0,0,35.08,52.18Z"/><path class="cls-8" d="M34.31,54c.15-.4.31-.8.49-1.19a7.2,7.2,0,0,1-1.39-1.69,6.92,6.92,0,0,0-.51,1.26A10.92,10.92,0,0,0,34.31,54Z"/><path class="cls-11" d="M43.64,47.22a3.07,3.07,0,0,0-2,1.65,5.64,5.64,0,0,0-1.49-1.13,5.1,5.1,0,0,0-1.92-.57,4.43,4.43,0,0,1,1.46.79c.64.58,1.44,1,1.72,1.87a4.53,4.53,0,0,1,2.94-2.7A3.83,3.83,0,0,0,43.64,47.22Z"/><path class="cls-11" d="M50.12,52.66a7.19,7.19,0,0,0-.92-2.58,10.9,10.9,0,0,1,.45,3.42c0,3.61-3.4,6.24-6.62,7.18a10.37,10.37,0,0,1-9-1.47,8.88,8.88,0,0,0,4,2.44,11.78,11.78,0,0,0,3.64.42,10.69,10.69,0,0,0,4.57-1.15,7.61,7.61,0,0,0,3.29-3.21A9.73,9.73,0,0,0,50.12,52.66Z"/><path class="cls-2" d="M19.56,41.14c-.07,0-.18-.15-.26-.1s-.08.3-.09.4,0,.38-.06.58-.07.69-.07,1a18.89,18.89,0,0,0,.23,2.49,12.44,12.44,0,0,0,.81,2.86,11.65,11.65,0,0,0,1.29,2.51l.1.1h.34c-.15-.27-.3-.55-.43-.82s-.33-.74-.49-1.1a25,25,0,0,1-1-2.9,6.63,6.63,0,0,1-.19-.86,8.77,8.77,0,0,1-.1-2.4,2.57,2.57,0,0,1,.32-.93c.09-.16.3-.42.28-.6S19.71,41.22,19.56,41.14Z"/><path class="cls-3" d="M19.76,41.49c-.55-.1-.37,2.68-.36,2.89.11,2.08,1.07,3.77,1.68,5.71a.16.16,0,0,1-.09.2,4.93,4.93,0,0,0,.42.63l.1.1h.34c-.15-.27-.3-.55-.43-.82s-.33-.74-.49-1.1a25,25,0,0,1-1-2.9,6.63,6.63,0,0,1-.19-.86,8.77,8.77,0,0,1-.1-2.4,2.57,2.57,0,0,1,.32-.93,1.79,1.79,0,0,0,.28-.55A.78.78,0,0,1,19.76,41.49Z"/><path class="cls-13" d="M30.6,51.3A7.43,7.43,0,0,0,27,48a4.89,4.89,0,0,0-4.3.38,3.06,3.06,0,0,0-1.32,2.24,5.59,5.59,0,0,0-5,0c-1.95.78-3.08,3.13-3.15,5.27C13,61,18,64.27,22.34,63.88A11.43,11.43,0,0,0,25.91,63a10.65,10.65,0,0,0,3.9-2.65,7.65,7.65,0,0,0,2-4.14A9.77,9.77,0,0,0,30.6,51.3Z"/><path class="cls-14" d="M22.65,48.41a3.06,3.06,0,0,0-1.32,2.24,5.92,5.92,0,0,0-1.79-.55,4.92,4.92,0,0,0-2,.13,4.54,4.54,0,0,1,1.64.23,5.25,5.25,0,0,1,2.26,1.17,4.53,4.53,0,0,1,1.84-3.54A4.65,4.65,0,0,0,22.65,48.41Z"/><path class="cls-14" d="M30.6,51.3a7.07,7.07,0,0,0-1.74-2.11,10.74,10.74,0,0,1,1.59,3.06c1.19,3.41-1.05,7-3.76,9a10.35,10.35,0,0,1-9,1.7,8.67,8.67,0,0,0,4.61.91A11.43,11.43,0,0,0,25.91,63a10.65,10.65,0,0,0,3.9-2.65,7.65,7.65,0,0,0,2-4.14A9.77,9.77,0,0,0,30.6,51.3Z"/><path class="cls-4" d="M37.87,23.15a9.27,9.27,0,0,1,3,.92,9.42,9.42,0,0,1,2.73,2.17,7.71,7.71,0,0,1,1.62,2.85,5.13,5.13,0,0,1,.26,1.34,2.64,2.64,0,0,1-.13.95l-.12.29h0c-.35,0-.69-.2-1-.25-.53-.07-1-.2-1.56-.31a6.63,6.63,0,0,1-3.11-1.46,6.41,6.41,0,0,1-1.74-3,6,6,0,0,1-.12-1.7A12.66,12.66,0,0,1,37.87,23.15Z"/><path class="cls-5" d="M37.87,23.15s-.39,3.31.8,4.91a6.45,6.45,0,0,0,2.81,2.22c1.18.45,2.87.4,3.74,1.39h0c-.35,0-.69-.2-1-.25-.53-.07-1-.2-1.56-.31a6.63,6.63,0,0,1-3.11-1.46,6.41,6.41,0,0,1-1.74-3,6,6,0,0,1-.12-1.7A12.66,12.66,0,0,1,37.87,23.15Z"/><path class="cls-6" d="M38.44,24.22A8.9,8.9,0,0,1,42,26.12a2.64,2.64,0,0,0-.07-.3,5.55,5.55,0,0,0-.39-1.1s0,0,0,0a4.23,4.23,0,0,1,.76,1.73,10.74,10.74,0,0,1,.94,1.07,17.63,17.63,0,0,1,1,1.56c0-.23,0-.46-.08-.68-.09-.48-.24-.94-.35-1.42,0,0,.06-.06.08,0a4.92,4.92,0,0,1,.47,1.4,4,4,0,0,1,.18,1.27,7.31,7.31,0,0,1,.52,1.23h0a.11.11,0,0,1,0,.07,5,5,0,0,1,.24,1.46s-.06,0-.08,0c-.18-.51-.33-1-.52-1.52a5.17,5.17,0,0,0-.86-.52A8,8,0,0,0,42.58,30a19.91,19.91,0,0,1-2.31-.55,0,0,0,0,1,0-.08l2.55.4a4.6,4.6,0,0,1,1.73.58c0-.05,0-.1-.07-.14a13.82,13.82,0,0,0-.9-1.59,2.83,2.83,0,0,1-.52-.08c-.44-.11-.9-.16-1.35-.25a7.91,7.91,0,0,1-2.15-.55s0-.08,0-.07c.65.09,1.32.19,2,.32s1.2.15,1.79.27L43,27.72a9.37,9.37,0,0,0-.76-.89s0,0,0,0l0,0a8.49,8.49,0,0,0-1-.88,5.91,5.91,0,0,0-3-.38s-.07-.07,0-.08a4.44,4.44,0,0,1,2-.19,15.18,15.18,0,0,0-1.8-.91A.06.06,0,0,1,38.44,24.22Z"/><path class="cls-18" d="M16.34,66.37c.92,6,3.29,21,4.71,26.68,1.8,7.15,1,10.29,6.9,11.27,5.11.84,15.62.45,20.07.26,4.44.19,15,.58,20.07-.26,5.94-1,5.1-4.12,6.9-11.27,1.42-5.67,4-23,4.9-29Z"/><path class="cls-19" d="M81.62,61.1c-.48-2.84-3.2-2.22-4.51-2.11-.44,0-.89,0-1.34,0-2.23.06-4.46.1-6.69.15-2.53.06-32.54,1-35,1.2l-7.42.42-6.57.35c-.44,0-.88.06-1.32.06-1.28,0-4-.41-4.35,2.41-.21,1.49.34,3.24,1.3,3.51A7.07,7.07,0,0,0,18.27,67c2.5-.26,5-.33,7.52-.43s5.05-.21,7.58-.3L41.09,66c.94,0,5.75-.09,6.94-.13l6.47-.26,7.86-.32L70.09,65c2.56-.09,5.11-.21,7.67-.14a7.27,7.27,0,0,0,2.63-.07C81.37,64.43,81.87,62.6,81.62,61.1Z"/><path class="cls-20" d="M19.78,66.81c-.64-.16-.8-1.69-.85-2.53a8.59,8.59,0,0,1,.35-2.7s0-.09-.05,0a6.18,6.18,0,0,0-.41,3.39,7.57,7.57,0,0,0,.13.79,5,5,0,0,1,0-4.08c0-.07,0-.15-.07-.09-.8,1.36-.61,4.15.4,5.17h0a.54.54,0,0,0,.46.31C19.86,67,19.85,66.83,19.78,66.81Z"/><path class="cls-20" d="M19.88,66.58a6.48,6.48,0,0,1-.07-5c0-.08,0-.16-.08-.09a5.46,5.46,0,0,0-.6,2.58,4.89,4.89,0,0,0,.67,2.68C19.85,66.76,19.92,66.67,19.88,66.58Z"/><path class="cls-20" d="M27.45,66.63a10.1,10.1,0,0,1-.61-5.95c0-.09-.06-.15-.09-.06-.52,1.83-.55,4.93.59,6.19C27.42,66.89,27.51,66.75,27.45,66.63Z"/><path class="cls-20" d="M28.08,66.62a10.18,10.18,0,0,1-.59-5.83c0-.06,0-.1-.06,0a7.75,7.75,0,0,0-.29,3c0,.19,0,.4.07.61-.06-.19-.12-.38-.17-.58a7.39,7.39,0,0,1,.09-3.07c0-.1-.06-.15-.09-.06-.48,1.71-.49,4.23.53,5.49l0,0a2.08,2.08,0,0,0,.35.61C28,66.91,28.15,66.75,28.08,66.62Z"/><path class="cls-20" d="M37.53,66a11.75,11.75,0,0,1-.71-2.86A8.94,8.94,0,0,1,37,60.73a1.87,1.87,0,0,0,.13-.64s0-.08,0-.07c-.4.12-.54,2.06-.54,2.56,0,1.25.23,2.85.93,3.54C37.49,66.16,37.56,66.1,37.53,66Z"/><path class="cls-20" d="M38.33,66a9.91,9.91,0,0,1-.73-5.74c0-.09-.06-.14-.08-.06-.56,1.62-.37,5,.72,6C38.32,66.23,38.37,66.07,38.33,66Z"/><path class="cls-20" d="M48.72,62.13c-.07-.81,0-1.56,0-2.35,0-.11-.09-.1-.11,0A8.27,8.27,0,0,0,49,64.69c0,.07.11,0,.09-.09A19.88,19.88,0,0,1,48.72,62.13Z"/><path class="cls-20" d="M48.69,65.72A17.36,17.36,0,0,1,48,59.84c0-.12-.09-.13-.11,0a12.12,12.12,0,0,0,0,3.24,8.77,8.77,0,0,0,.61,2.81C48.6,66,48.74,65.88,48.69,65.72Z"/><path class="cls-20" d="M48.36,66a17.14,17.14,0,0,1-.62-2.85,24,24,0,0,1,0-3.17c0-.12-.1-.14-.12,0-.22,1.88-.4,4.81.59,6.24C48.28,66.28,48.41,66.11,48.36,66Z"/><path class="cls-20" d="M55.23,61.1a6.33,6.33,0,0,0-.12-1.77s-.06,0-.07,0a13.16,13.16,0,0,0,.33,4.58c0,.08.1.05.09,0C55.39,63,55.28,62,55.23,61.1Z"/><path class="cls-20" d="M56,62.28c0-1,0-2,0-2.91,0-.11-.11-.11-.12,0a18.88,18.88,0,0,0,.24,6.06c0,.07.09,0,.08,0C56.14,64.35,56,63.32,56,62.28Z"/><path class="cls-20" d="M55.54,62c0-.81,0-1.64,0-2.45,0-.11-.1-.1-.12,0a12.41,12.41,0,0,0,.34,5.17c0,.06.08,0,.07,0C55.72,63.82,55.6,62.94,55.54,62Z"/><path class="cls-20" d="M62,62.2c-.05-1,.13-2,0-3,0-.11-.12-.13-.13,0-.1,1.89-.38,4.64.43,6.24.07.13.19,0,.15-.15A20,20,0,0,1,62,62.2Z"/><path class="cls-20" d="M62.58,62.49c0-1,.07-2.06.06-3.1,0-.13-.12-.11-.13,0-.25,1.72-.55,4.74.33,6.13,0,.09.17,0,.15-.14A24.52,24.52,0,0,1,62.58,62.49Z"/><path class="cls-20" d="M71.8,62.52c0-1.1-.17-3-.76-3.68,0,0-.1,0-.08.09a17.4,17.4,0,0,1,.48,3.28c.06.92-.21,1.9-.13,2.77,0,.09.07.16.13.12C71.9,64.69,71.81,63.22,71.8,62.52Z"/><path class="cls-20" d="M71.84,58.94c-.06-.12-.17,0-.14.13A13.92,13.92,0,0,1,72,64.68c0,.08.05.17.08.08A8,8,0,0,0,71.84,58.94Z"/><path class="cls-20" d="M79.7,61.07a5,5,0,0,0-.58-2.49c-.08-.09-.16.06-.11.18.66,1.64.46,4,.31,5.83,0,.21.19.31.23.1A14.11,14.11,0,0,0,79.7,61.07Z"/><path class="cls-20" d="M78.85,58.61c0-.11-.14,0-.12.11.12.57.28,1.06.36,1.65s0,1.23.09,1.85c0,.21.21.21.23,0A7.14,7.14,0,0,0,78.85,58.61Z"/><path class="cls-21" d="M81.62,61.1a3,3,0,0,0-.54-1.33A2,2,0,0,1,80,61.15a7,7,0,0,1-2.59.07c-2.52-.07-5,.05-7.57.14l-7.62.28L54.47,62l-6.38.26c-1.17,0-5.93.1-6.86.13l-7.6.28-7.49.29c-2.47.1-4.95.17-7.42.42a7.07,7.07,0,0,1-2.55.12A2,2,0,0,1,15.05,62a2.79,2.79,0,0,0-.67,1.58c-.21,1.49.34,3.24,1.3,3.51A7.07,7.07,0,0,0,18.27,67c2.5-.26,5-.33,7.52-.43s5.05-.21,7.58-.3L41.09,66c.94,0,5.75-.09,6.94-.13l6.47-.26,7.86-.32L70.09,65c2.56-.09,5.11-.21,7.67-.14a7.27,7.27,0,0,0,2.63-.07C81.37,64.43,81.87,62.6,81.62,61.1Z"/><path class="cls-21" d="M71.73,63.82c-2.77.1-5.54.19-8.3.3L55,64.46l-7,.28c-1.27.05-6.45.12-7.46.15l-8.28.3-8.15.32c-2.69.11-5.39.18-8.08.46-.43,0-.88.14-1.33.19a1.68,1.68,0,0,0,.95,1A7.07,7.07,0,0,0,18.27,67c2.5-.26,5-.33,7.52-.43s5.05-.21,7.58-.3L41.09,66c.94,0,5.75-.09,6.94-.13l6.47-.26,7.86-.32L70.09,65c2.56-.09,5.11-.21,7.67-.14a7.27,7.27,0,0,0,2.63-.07,1.84,1.84,0,0,0,.93-1c-.46,0-.91-.08-1.36-.09C77.22,63.59,74.47,63.72,71.73,63.82Z"/><g class="cls-22"><path class="cls-8" d="M16.49,61.77a1.63,1.63,0,0,0-1,.18c-.12,0-.14.37,0,.4a1.71,1.71,0,0,0,.39,0,2.47,2.47,0,0,0,.59-.12C16.63,62.16,16.64,61.82,16.49,61.77Z"/><path class="cls-8" d="M17.5,61.56a.53.53,0,0,0-.41,0c-.13,0-.13.37,0,.39a.53.53,0,0,0,.41,0A.27.27,0,0,0,17.5,61.56Z"/><path class="cls-8" d="M26.16,61.3a11.92,11.92,0,0,0-3.1,0,10,10,0,0,0-2.82.26s0,.13,0,.14a9.07,9.07,0,0,0,2.65.09,17,17,0,0,0,3.27-.17C26.28,61.62,26.29,61.32,26.16,61.3Z"/><path class="cls-8" d="M35.41,61.05c-1-.32-2.18.05-3.21.07a31,31,0,0,0-3.85.18c-.05,0-.06.16,0,.17,1.19.11,2.4.21,3.6.23a9.61,9.61,0,0,0,3.46-.23A.25.25,0,0,0,35.41,61.05Z"/><path class="cls-8" d="M47.08,60.36a17.46,17.46,0,0,0-4.21.07,15.93,15.93,0,0,0-4.13.37c-.07,0-.07.19,0,.19a36.63,36.63,0,0,0,3.92.06,21.19,21.19,0,0,0,4.43-.26C47.23,60.75,47.23,60.4,47.08,60.36Z"/><path class="cls-8" d="M53.87,60.28a9.35,9.35,0,0,0-2,0c-.68,0-1.38.2-2,.17-.07,0-.09.15,0,.17a6,6,0,0,0,1.8.09,10.58,10.58,0,0,0,2.25,0C54,60.61,54,60.3,53.87,60.28Z"/><path class="cls-8" d="M61.25,60.18c-1.41-.43-2.86.07-4.28,0,0,0-.06.11,0,.13a6.78,6.78,0,0,0,2.15.17,6.68,6.68,0,0,0,2.14,0C61.36,60.45,61.36,60.22,61.25,60.18Z"/><path class="cls-8" d="M69.42,60c-2.09-.38-4.19,0-6.29-.1-.14,0-.17.32,0,.35a10.73,10.73,0,0,0,2.88.16c1.15-.12,2.3,0,3.44-.18C69.5,60.19,69.5,60,69.42,60Z"/><path class="cls-8" d="M70.94,59.91a.82.82,0,0,0-.87-.17c-.13,0-.14.37,0,.38.28,0,.55.19.83.11A.23.23,0,0,0,70.94,59.91Z"/><path class="cls-8" d="M77.77,59.36a14.31,14.31,0,0,0-4.75.19s0,.11,0,.11a14.91,14.91,0,0,0,4.76,0C77.86,59.6,77.86,59.37,77.77,59.36Z"/><path class="cls-8" d="M80.66,59.53A.77.77,0,0,0,80,59.3c-.11,0-.11.28,0,.29a4.75,4.75,0,0,0,.64.2C80.67,59.8,80.74,59.62,80.66,59.53Z"/></g><path class="cls-20" d="M20.44,78.75c-.24-1.29-.52-2.53-.64-3.86s-.05-2.49-.06-3.74c0-.14-.13-.12-.15,0a20.34,20.34,0,0,0,.61,7.76C20.27,79.15,20.48,79,20.44,78.75Z"/><path class="cls-20" d="M22.34,79.68a20.87,20.87,0,0,1-.9-3.76c-.15-1.27-.08-2.61-.13-3.91,0-.2-.21-.2-.22,0-.13,2.76-.14,5.66,1,7.88C22.21,80.07,22.41,79.9,22.34,79.68Z"/><path class="cls-20" d="M23.93,78.42c-.24-1.09-.5-2.11-.64-3.24a33.84,33.84,0,0,1-.12-3.77c0-.2-.2-.2-.21,0a16.51,16.51,0,0,0,.77,7.2C23.81,78.8,24,78.62,23.93,78.42Z"/><path class="cls-20" d="M24.07,97a34.08,34.08,0,0,1-1-6.21c0-.12-.13-.1-.12,0a20.82,20.82,0,0,0,.92,6.34C24,97.29,24.11,97.15,24.07,97Z"/><path class="cls-20" d="M25.75,96.42A32.5,32.5,0,0,1,25,92.54a17.27,17.27,0,0,0-.35-2.92c0-.14-.18-.09-.17.07.12,1.09.17,2.21.28,3.31a18.4,18.4,0,0,0,.81,3.57C25.6,96.78,25.8,96.65,25.75,96.42Z"/><path class="cls-20" d="M27.58,97.09a34.27,34.27,0,0,1-1-6.88c0-.22-.23-.22-.24,0a21.2,21.2,0,0,0,.95,7.06C27.4,97.53,27.66,97.37,27.58,97.09Z"/><path class="cls-20" d="M28.72,88.42a17.55,17.55,0,0,1-.88-3.6c-.19-1.42-.24-2.85-.34-4.29,0-.15-.16-.15-.16,0a19.2,19.2,0,0,0,1.16,8.1C28.59,88.81,28.79,88.63,28.72,88.42Z"/><path class="cls-20" d="M30.1,88.84c-.29-1.36-.6-2.68-.77-4.1s-.2-2.62-.34-3.93c0-.19-.2-.15-.18,0A34.21,34.21,0,0,0,29.92,89C30,89.14,30.14,89,30.1,88.84Z"/><path class="cls-20" d="M31.77,87.38c-.29-1.68-.65-3.37-.79-5.11,0-.15-.16-.16-.16,0a18.22,18.22,0,0,0,.74,5.26C31.62,87.75,31.81,87.61,31.77,87.38Z"/><path class="cls-20" d="M31.9,80.89c-.17-1.06-.41-2.08-.51-3.18-.11-1.3-.19-2.61-.29-3.92,0-.21-.21-.16-.2,0A29.44,29.44,0,0,0,31.69,81C31.74,81.16,31.93,81.1,31.9,80.89Z"/><path class="cls-20" d="M33.91,81a28.71,28.71,0,0,1-.82-3.82c-.14-1.06-.16-2.17-.39-3.2,0-.13-.16-.07-.14.06.28,2.45.23,5,1.12,7.18C33.77,81.38,34,81.17,33.91,81Z"/><path class="cls-20" d="M34.78,73.9c0-.1-.12-.05-.11,0,.28,2.14.37,4.34.8,6.43,0,.17.22.09.2-.09C35.43,78.15,35.15,76,34.78,73.9Z"/><path class="cls-20" d="M42.7,85.65c0-.15-.12-.18-.14,0A22.05,22.05,0,0,0,42.71,92c0,.23.28.13.25-.11A33.37,33.37,0,0,1,42.7,85.65Z"/><path class="cls-20" d="M44,85.93c0-.23-.25-.23-.25,0a31.19,31.19,0,0,0,.46,7.25c0,.21.24.11.23-.1C44.27,90.68,44,88.36,44,85.93Z"/><path class="cls-20" d="M47.09,92.25a42,42,0,0,1-.87-7.08c0-.22-.21-.17-.21,0a25,25,0,0,0,.85,7.2C46.93,92.65,47.15,92.51,47.09,92.25Z"/><path class="cls-20" d="M48.15,77.83c0-.11-.12-.11-.13,0A54,54,0,0,0,48.28,86c0,.22.22.18.21,0C48.29,83.21,48.18,80.58,48.15,77.83Z"/><path class="cls-20" d="M50.05,77.14c0-.19-.15-.21-.17,0A27.58,27.58,0,0,0,49.81,85c0,.22.21.18.21,0A60.17,60.17,0,0,1,50.05,77.14Z"/><path class="cls-20" d="M51.88,80.76c-.07-1.44,0-2.9,0-4.34,0-.19-.17-.18-.19,0a27.39,27.39,0,0,0,.51,9.06c0,.19.24.11.22-.1C52.23,83.81,51.94,82.35,51.88,80.76Z"/><path class="cls-20" d="M60.26,86.61c.08-1.47.31-2.92.43-4.38,0-.19-.14-.22-.17,0a30.7,30.7,0,0,0-.43,9.13c0,.3.32.25.3-.07A34.21,34.21,0,0,1,60.26,86.61Z"/><path class="cls-20" d="M62.1,83.6c0-.22-.19-.27-.21,0a36.38,36.38,0,0,0-.21,8.28c0,.24.24.19.23,0C61.82,89,61.92,86.36,62.1,83.6Z"/><path class="cls-20" d="M64.36,86.22c0-1.29.17-2.58.11-3.87,0-.17-.16-.13-.16,0,0,1.39-.22,2.82-.28,4.22a26.48,26.48,0,0,0,.11,4.18c0,.25.25.2.24-.05C64.35,89.23,64.33,87.73,64.36,86.22Z"/><path class="cls-20" d="M72,82.73A32.76,32.76,0,0,0,71.31,91c0,.17.17.17.18,0,.06-1.37.05-2.75.16-4.12s.42-2.72.46-4.07C72.11,82.67,72,82.6,72,82.73Z"/><path class="cls-20" d="M73.62,83.15A54.8,54.8,0,0,0,73.06,92c0,.26.28.27.28,0,0-1.57,0-3.13.16-4.69.09-1.39.3-2.76.32-4.15C73.82,83,73.64,82.94,73.62,83.15Z"/><path class="cls-20" d="M65.2,96c0-1,.12-2,.13-2.92,0-.11-.08-.16-.11-.06A12.84,12.84,0,0,0,65,96a19.62,19.62,0,0,0,.18,3.43c0,.22.24.19.22,0A28.35,28.35,0,0,1,65.2,96Z"/><path class="cls-20" d="M67,93.32c0-.14-.11-.18-.14-.06a15.87,15.87,0,0,0-.06,6.33c0,.18.23.09.2-.09A25.56,25.56,0,0,1,67,93.32Z"/><path class="cls-20" d="M68.89,93.41c0-.15-.16-.16-.17,0a34.61,34.61,0,0,0,.08,5.85c0,.27.28.23.26-.05C68.92,97.28,69,95.32,68.89,93.41Z"/><path class="cls-20" d="M66.54,77c0-1.22.23-2.38.35-3.58,0-.12-.1-.14-.12,0a22.29,22.29,0,0,0-.22,7.73c0,.15.18.08.17-.07A27.47,27.47,0,0,1,66.54,77Z"/><path class="cls-20" d="M68.74,77.05c0-1.1.13-2.19.13-3.3,0-.16-.17-.16-.18,0-.11,2.65-.51,5.18,0,7.81,0,.23.27.12.25-.11A40.26,40.26,0,0,1,68.74,77.05Z"/><path class="cls-20" d="M71.11,73.88c0-.22-.2-.27-.21,0-.08,2.6-.58,5.17-.28,7.8,0,.23.23.18.22,0C70.73,79,71.07,76.47,71.11,73.88Z"/><path class="cls-20" d="M34.17,67.55a9.17,9.17,0,0,1-4.09.58c-.07,0-.08.15,0,.17A4.71,4.71,0,0,0,34.23,68C34.36,67.86,34.31,67.5,34.17,67.55Z"/><path class="cls-20" d="M34.77,69.86c-1.46.48-3.17,1.27-4.67.64-.06,0-.07.12,0,.16a3,3,0,0,0,2,.41,4.82,4.82,0,0,0,2.72-.85C35,70.14,34.9,69.82,34.77,69.86Z"/><path class="cls-20" d="M29.87,73.58a6.33,6.33,0,0,1-3.85.13c-.06,0-.09.13,0,.16,1.24.63,2.73,1,4,.11C30.06,73.88,30,73.54,29.87,73.58Z"/><path class="cls-20" d="M30.12,76.72a10.21,10.21,0,0,1-3.89.18c-.07,0-.1.15,0,.19a4.78,4.78,0,0,0,4,.09C30.37,77.1,30.28,76.68,30.12,76.72Z"/><path class="cls-20" d="M30,79.49a8.35,8.35,0,0,1-3.65-.15c-.06,0-.09.15,0,.19a3.64,3.64,0,0,0,3.74.3C30.17,79.76,30.11,79.48,30,79.49Z"/><path class="cls-20" d="M36.73,81.61a11.32,11.32,0,0,1-4.68.91c-.15,0-.19.37,0,.39a6.82,6.82,0,0,0,4.79-.86C37,82,36.89,81.55,36.73,81.61Z"/><path class="cls-20" d="M36.31,85.19a8.79,8.79,0,0,1-4.19.3c-.12,0-.17.27-.06.32a4.73,4.73,0,0,0,4.33-.16C36.55,85.56,36.47,85.16,36.31,85.19Z"/><path class="cls-20" d="M36.17,88.56c-1.14.39-2.55,1.19-3.73.85-.09,0-.13.22,0,.27,1.13.65,2.77,0,3.85-.61C36.43,89,36.35,88.49,36.17,88.56Z"/><path class="cls-20" d="M32.24,90.83c-1.44,0-2.88.43-4.31-.1-.05,0-.07.12,0,.15a4.79,4.79,0,0,0,4.33.37C32.36,91.19,32.4,90.83,32.24,90.83Z"/><path class="cls-20" d="M32.62,92.92a9.88,9.88,0,0,1-4.08.24c-.1,0-.11.22,0,.25a6.07,6.07,0,0,0,4.14,0C32.86,93.37,32.82,92.88,32.62,92.92Z"/><path class="cls-20" d="M32.58,95.17c-1.37.37-2.71.94-4.11.55-.08,0-.12.2,0,.24a4.51,4.51,0,0,0,4.21-.44C32.76,95.44,32.7,95.13,32.58,95.17Z"/><path class="cls-20" d="M25.25,81.51c-1.54,0-3.05.59-4.6.29-.1,0-.11.2,0,.24a6.11,6.11,0,0,0,4.67-.19C25.43,81.79,25.36,81.51,25.25,81.51Z"/><path class="cls-20" d="M25.07,85c-1.19-.26-2.37-.23-3.56-.4-.09,0-.11.22,0,.24a14.93,14.93,0,0,0,3.55.52C25.18,85.35,25.22,85,25.07,85Z"/><path class="cls-20" d="M25.34,87.94a12.37,12.37,0,0,1-3.54.15c-.13,0-.16.28,0,.32a4.36,4.36,0,0,0,3.62-.16C25.5,88.18,25.45,87.93,25.34,87.94Z"/><path class="cls-20" d="M46.24,79.43a36.44,36.44,0,0,1-4.9,0c-.08,0-.1.18,0,.2a8.2,8.2,0,0,0,5,.06C46.39,79.7,46.37,79.42,46.24,79.43Z"/><path class="cls-20" d="M47.2,82.16c-1.06,0-2.11.23-3.17.29a17.28,17.28,0,0,1-3-.25c-.09,0-.11.19,0,.22a10.55,10.55,0,0,0,6.17.1C47.38,82.48,47.34,82.15,47.2,82.16Z"/><path class="cls-20" d="M46.6,84.54a18.49,18.49,0,0,1-5.65.18c-.09,0-.1.17,0,.2a6.29,6.29,0,0,0,2.47.26,11.77,11.77,0,0,0,3.22-.38C46.72,84.76,46.7,84.53,46.6,84.54Z"/><path class="cls-20" d="M51.75,70.59c-.72,0-1.45.12-2.17.1a14.45,14.45,0,0,1-2.06-.32c-.06,0-.07.12,0,.14a6.21,6.21,0,0,0,4.24.45C51.87,70.92,51.89,70.59,51.75,70.59Z"/><path class="cls-20" d="M51.65,72.6a10.26,10.26,0,0,1-4.3-.26c-.06,0-.09.15,0,.19a5.32,5.32,0,0,0,4.35.36C51.79,72.85,51.76,72.6,51.65,72.6Z"/><path class="cls-20" d="M52,74.44a9.32,9.32,0,0,1-5.69.31c-.06,0-.07.13,0,.16a6.79,6.79,0,0,0,5.76-.12C52.2,74.73,52.14,74.39,52,74.44Z"/><path class="cls-20" d="M65.44,74.73a10.68,10.68,0,0,1-3,.2,13,13,0,0,1-2.67-.74c-.08,0-.12.18,0,.23a6.27,6.27,0,0,0,5.77.71C65.62,75.07,65.6,74.71,65.44,74.73Z"/><path class="cls-20" d="M64.84,77.64a9.68,9.68,0,0,1-4.62-.32c-.08,0-.12.18,0,.22a5.51,5.51,0,0,0,4.69.52C65,78,65,77.62,64.84,77.64Z"/><path class="cls-20" d="M65.66,80.22a7.45,7.45,0,0,1-5.86.44c-.13,0-.15.29,0,.34a5.94,5.94,0,0,0,6-.39C65.92,80.49,65.82,80.13,65.66,80.22Z"/><path class="cls-20" d="M76.61,73.65a18.7,18.7,0,0,1-4-.26c-.09,0-.11.2,0,.23a8.87,8.87,0,0,0,4,.45C76.76,74.06,76.76,73.65,76.61,73.65Z"/><path class="cls-20" d="M75.72,76.25a6.7,6.7,0,0,1-3,.09c-.11,0-.13.24,0,.28a4.68,4.68,0,0,0,3.07,0C75.91,76.6,75.88,76.23,75.72,76.25Z"/><path class="cls-20" d="M75.36,79.68c-1.15.37-2.21.82-3.39.4-.08,0-.12.19,0,.24a3.14,3.14,0,0,0,3.49-.26C75.54,80,75.49,79.64,75.36,79.68Z"/><path class="cls-20" d="M70.16,82.75a11.51,11.51,0,0,1-4,0c-.07,0-.11.19,0,.22a4.36,4.36,0,0,0,1.87.33,7.11,7.11,0,0,0,2.16-.12C70.37,83.15,70.34,82.74,70.16,82.75Z"/><path class="cls-20" d="M69.79,86.63A14.78,14.78,0,0,1,65.54,86c-.11,0-.16.26-.05.31a8.23,8.23,0,0,0,4.3.76C70,87.06,70,86.63,69.79,86.63Z"/><path class="cls-20" d="M69.68,90.5A8.39,8.39,0,0,1,65.52,90c-.1,0-.15.24,0,.3a5.67,5.67,0,0,0,4.25.61C69.9,90.89,69.86,90.48,69.68,90.5Z"/><g class="cls-23"><path class="cls-18" d="M51.53,71.15a.5.5,0,0,1,.19.72,2,2,0,0,1-1.64.61,3.92,3.92,0,0,1-2.17-.56.35.35,0,0,1-.11-.13c-.26-.16-.12-.86.19-.78a7.68,7.68,0,0,0,2.13.26A7.53,7.53,0,0,1,51.53,71.15Z"/><path class="cls-18" d="M49.56,85.46a.54.54,0,0,1-.1.44c-.07.3-.33.41-.46.08a15.46,15.46,0,0,1-.61-5.18c0-.86,0-2.72.59-3.11.09,0,.18,0,.25.11a3.6,3.6,0,0,1,.15,1.92A22,22,0,0,0,49.56,85.46Z"/><path class="cls-18" d="M48.08,74.63a1.46,1.46,0,0,1-1.21-1.16c-.16-.29.07-.83.34-.63,1.23,1,2.78.72,4.09.53.3,0,.34.71.07.83A6.14,6.14,0,0,1,48.08,74.63Z"/><path class="cls-18" d="M50.81,77.26c.15-.21.37-.13.43.19a6,6,0,0,1-.14,2.31,16.31,16.31,0,0,0,0,3.35c.11.8.31,1.52.43,2.31.06.38-.18.62-.38.48-.81-.6-1-2.61-1.06-3.91S50.11,78.27,50.81,77.26Z"/><path class="cls-18" d="M34.53,76.2c0,.88.1,1.74.18,2.61a3.73,3.73,0,0,1,0,1.25c-.06.24-.23.41-.38.25-.74-.8-.85-2.93-.87-4.35s0-2.48.51-2.35S34.49,75.54,34.53,76.2Z"/><path class="cls-18" d="M35.5,84.8a4.47,4.47,0,0,1-3.07-.21.25.25,0,0,1-.13-.12.61.61,0,0,1-.11-.18.84.84,0,0,1,.09-.68l0,0c0-.12.11-.21.22-.2a7.29,7.29,0,0,0,2.18-.18c.64-.11,1.21-.47,1.82-.62.18,0,.31.11.33.4A1.79,1.79,0,0,1,35.5,84.8Z"/><path class="cls-18" d="M36.5,86.7c-.54,2.45-3.09,2.12-4.07.72a.63.63,0,0,1,0-.64c0-.23.14-.42.31-.34a3.11,3.11,0,0,0,2.16.17c.34-.08,1.13-.74,1.46-.38A.55.55,0,0,1,36.5,86.7Z"/><path class="cls-18" d="M31.54,76.7a5.49,5.49,0,0,1,.25-2.65c.08-.13.22-.17.32-.07.43.48.3,1.84.35,2.57a21.15,21.15,0,0,1,.37,3.53.3.3,0,0,1-.22.3c-.08.08-.19.08-.27-.1A9,9,0,0,1,31.54,76.7Z"/><path class="cls-18" d="M30.37,68.66a4.49,4.49,0,0,0,2.17.28c.47,0,.94-.29,1.4-.15.19.06.25.49.12.7a2.48,2.48,0,0,1-2.47.89,1.87,1.87,0,0,1-1.47-.93.39.39,0,0,1,0-.18C30,69,30.12,68.54,30.37,68.66Z"/><path class="cls-18" d="M30.8,88.17c-1.18.53-1.36-5.51-1.29-6.39a.39.39,0,0,1,.26-.39c.08-.2.24-.27.38-.07a2.12,2.12,0,0,1,.3,1.14,28.16,28.16,0,0,0,.35,3.08C30.91,86.07,31.41,87.89,30.8,88.17Z"/><path class="cls-18" d="M30.2,78.34a1.31,1.31,0,0,1-.79.88,2.34,2.34,0,0,1-3.15-.88.52.52,0,0,1,.12-.69.19.19,0,0,1,.23-.08,5.26,5.26,0,0,0,3.37.14C30.18,77.67,30.29,78.09,30.2,78.34Z"/><path class="cls-18" d="M29.8,75.65a2.59,2.59,0,0,1-3.49.57c-.22-.19-.59-.75-.23-1.1h0c0-.23.14-.47.32-.41a13.28,13.28,0,0,0,3.27.17C29.94,74.88,30,75.4,29.8,75.65Z"/><path class="cls-18" d="M25.35,82.55c.15,0,.25.19.26.42.08,1.62-1.65,1.48-2.25,1.42-.45,0-1.91,0-2.16-1-.21-.23-.07-.86.22-.75C22.73,83.2,24,82.55,25.35,82.55Z"/><path class="cls-18" d="M21.6,72.67a.38.38,0,0,1,0-.11,1.6,1.6,0,0,1,.12-.35.66.66,0,0,1,.32-.38c.11-.1.22-.11.31.14a6.76,6.76,0,0,1,.1,1.5c.06.87.14,1.74.27,2.59.06.46.38,1.74.09,2.13s-.47.16-.68-.22A8.79,8.79,0,0,1,21.6,72.67Z"/><path class="cls-18" d="M20.42,78a5.76,5.76,0,0,1-.38-2,14.7,14.7,0,0,1,0-3.18s0,0,0-.08a1.32,1.32,0,0,1,.34-.88c.56-.48.54,3.59.54,3.88S21.1,79,20.42,78Z"/><path class="cls-18" d="M25,96.61c0,.35-.27.58-.44.3a11.85,11.85,0,0,1-1-4.66c0-.22-.05-.45-.06-.67a.34.34,0,0,1,0-.1.22.22,0,0,1,0-.08c0-.63.07-1.14.43-1.14.56,0,.53,1.56.58,2.11A30.6,30.6,0,0,1,25,96.61Z"/><path class="cls-18" d="M25,87.19c-.95,1-3.8.88-4.28-1.17a.52.52,0,0,1,.11-.45c0-.28.1-.59.3-.46,1.19.77,2.42.34,3.64.62A.87.87,0,0,1,25,87.19Z"/><path class="cls-18" d="M26.09,96.35a12.28,12.28,0,0,1-.91-5.21A5.81,5.81,0,0,1,25.25,90c.09-.48.36-1.11.72-.76s.22,1.31.23,1.89a19.75,19.75,0,0,0,.14,3.27,12.31,12.31,0,0,1,.19,1.63C26.54,96.4,26.24,96.62,26.09,96.35Z"/><path class="cls-18" d="M28,81.67c0-.28.18-.34.3-.27s.17,0,.23.11a5.17,5.17,0,0,1,.24,1.83c.05,1.24.3,2.45.39,3.68,0,.43-.36.56-.48.21A13.83,13.83,0,0,1,28,81.67Z"/><path class="cls-18" d="M28.51,91.37c.94.77,2.06.19,3.06.38a.49.49,0,0,1,.22.64c-.38.87-1.1.68-1.68.68a1.78,1.78,0,0,1-1.9-1s0-.06,0-.09C28,91.73,28.24,91.15,28.51,91.37Z"/><path class="cls-18" d="M28.17,94.25c-.07-.29.14-.61.32-.51l.15.09a.14.14,0,0,1,.16,0,9.93,9.93,0,0,0,2.9.38c.23,0,.35.45.19.71-.53.87-1.59.67-2.26.6A1.44,1.44,0,0,1,28.17,94.25Z"/><path class="cls-18" d="M63.53,90.37c0,.43,0,1.14-.33,1.14s-.65-1-.79-1.42a11.58,11.58,0,0,1-.22-4A14.27,14.27,0,0,1,62.52,84c.13-.56.39-1.71.87-1.62.15,0,.24.21.29.43a4.33,4.33,0,0,1,.1,1.14c0,.22-.05.45-.07.68-.06.68-.11,1.36-.16,2s-.08,1.58-.07,2.38C63.49,89.46,63.51,89.92,63.53,90.37Z"/><path class="cls-18" d="M62.59,80.66c-.82,0-2.66,0-2.82-1.85a.6.6,0,0,1,.09-.43c0-.24.14-.45.31-.35a5.28,5.28,0,0,0,2.8.8c.55,0,1.14-.37,1.68-.22.11,0,.2.24.19.41C64.77,80.71,63.32,80.66,62.59,80.66Z"/><path class="cls-18" d="M61.32,89.86c0,.41,0,.82,0,1.22s-.3.59-.43.3a8.79,8.79,0,0,1-.45-4.51c.11-1.07.12-3.11.68-3.88.17-.24.42-.08.44.3,0,.78-.19,1.52-.22,2.3,0,.12,0,.24,0,.37,0,.58-.07,1.16-.08,1.75S61.29,89.14,61.32,89.86Z"/><path class="cls-18" d="M62.76,77.42a2.73,2.73,0,0,1-2.57-1.37,1.21,1.21,0,0,1,0-.18c-.14-.29,0-.81.25-.67A5.3,5.3,0,0,0,63,76a11.18,11.18,0,0,0,2-.41c.2,0,.3.38.22.63C64.79,77.56,63.56,77.49,62.76,77.42Z"/><path class="cls-18" d="M66.07,99.76c-.69-.86-.83-2.61-.75-3.93.05-1,.07-2.7.66-3.25.13-.12.35,0,.38.25a6.42,6.42,0,0,1,0,.76.57.57,0,0,1,.06.36,13.41,13.41,0,0,0-.14,3.29,14,14,0,0,1,.18,2.15C66.45,99.68,66.24,100,66.07,99.76Z"/><path class="cls-18" d="M68.36,97.62a10.64,10.64,0,0,1,0,1.49c-.07.38-.26.83-.54.59-.81-.67-.94-3.58-.86-4.77a5.65,5.65,0,0,1,.67-2.75c.17-.25.5-.26.61.13a6.16,6.16,0,0,1,.17,1.79.61.61,0,0,1,0,.24A29.88,29.88,0,0,0,68.36,97.62Z"/><path class="cls-18" d="M68.74,89.74a3.24,3.24,0,0,1-2.53-.59c-.8-.33-1.37-.9-.9-1.78a.19.19,0,0,1,.25-.11,2.14,2.14,0,0,1,.32.2,5.43,5.43,0,0,0,2,.28,7.7,7.7,0,0,1,2-.06.39.39,0,0,1,.18.3C70.25,89,69.22,89.56,68.74,89.74Z"/><path class="cls-18" d="M68.76,86.05a3.87,3.87,0,0,1-3-1.45.51.51,0,0,1-.07-.37c-.08-.29.06-.73.29-.6a6.45,6.45,0,0,0,2.53.33,16.5,16.5,0,0,1,2,0c.11,0,.19.24.19.41A1.77,1.77,0,0,1,68.76,86.05Z"/><path class="cls-18" d="M68.21,79.49c.06.53.09,1.41-.31,1.59-1,.43-1.13-3.4-1.13-4.14S67,72.19,68,73.13a1,1,0,0,1,.28.76.51.51,0,0,1,.1.45A15.61,15.61,0,0,0,68.21,79.49Z"/><path class="cls-18" d="M70.18,79.71a2.76,2.76,0,0,1-.09,1.38.19.19,0,0,1-.31.06c-.59-.5-.7-2-.72-2.92a14.46,14.46,0,0,1,.34-4.58c.1-.31.27-.4.42-.34.09-.1.18-.13.29,0,.48.32.31,1.91.15,3.06A22.43,22.43,0,0,0,70.18,79.71Z"/><path class="cls-18" d="M73.09,83.28a56.43,56.43,0,0,0-.24,6c0,.66,0,2-.49,2.24a.21.21,0,0,1-.25-.11,9.28,9.28,0,0,1-.36-3.79,26.88,26.88,0,0,1,.67-4.34c0-.17.11-.26.2-.28C72.76,82.58,73.16,82.78,73.09,83.28Z"/><path class="cls-18" d="M76.77,77.39c-.71,2.34-4,3.1-4.86.51,0,0,0-.08,0-.13s0,0,0,0a.49.49,0,0,1,0-.12s0,0,0,0c0-.4.15-.63.34-.69h.07a.36.36,0,0,1,.29.1,4.42,4.42,0,0,0,3.94-.21C76.71,76.65,76.87,77.09,76.77,77.39Z"/><path class="cls-18" d="M72.39,74.44c0-.22.14-.45.32-.39a8.54,8.54,0,0,0,3.75.29c.23,0,.35.48.19.72a2.64,2.64,0,0,1-4.26,0A.6.6,0,0,1,72.39,74.44Z"/><path class="cls-18" d="M46.35,92.45c.1.5-.12,1.23-.5,1.06-1.41-.62-1.69-4.21-1.57-6.15,0-.73.12-1.74.6-2.06.33-.22.77-.21.88.47a7,7,0,0,1,0,2A18.54,18.54,0,0,0,46.35,92.45Z"/><path class="cls-18" d="M43.18,84.38a2.43,2.43,0,0,1-2.06-.85.53.53,0,0,1-.07-.34c-.07-.3.06-.7.29-.56,1.7,1,3.37.36,5.12.38.29,0,.34.69.06.83A6.17,6.17,0,0,1,43.18,84.38Z"/><path class="cls-18" d="M43.61,87.33a29,29,0,0,0,.26,5c0,.36-.25.78-.43.41a8.7,8.7,0,0,1-.61-3.3,11.7,11.7,0,0,1,.09-3.24c.16-.52.49-.53.66,0a2.57,2.57,0,0,1,0,1A.56.56,0,0,1,43.61,87.33Z"/><path class="cls-18" d="M41.36,80.34h0a.15.15,0,0,1,.13,0,15.89,15.89,0,0,0,4.77,0c.14,0,.26.21.26.42,0,1.36-1.38,1.24-1.94,1.28-1.19.07-2.46.47-3.44-.93C41,80.82,41.14,80.31,41.36,80.34Z"/></g><g class="cls-24"><path class="cls-18" d="M16.41,66.37c.92,6,3.29,21,4.72,26.68,1.8,7.15,1,10.29,6.89,11.27,5.11.84,15.63.45,20.07.26,4.45.19,15,.58,20.07-.26,5.94-1,5.1-4.12,6.9-11.27,1.43-5.67,4-23,4.9-29ZM73,92.65A9.3,9.3,0,0,1,72,94.3c-2.09,2.53-4.91,3.3-7.5,3.63a41.33,41.33,0,0,1-4.45.24c-5.21.11-10.41.82-15.63,1-2.46.06-4.91,0-7.37,0-3.84-.12-8,.53-11.59-2.19-2.24-1.72-3.71-5-4.65-8.46C19.39,83.35,16.55,70.42,23,71c1.83.16,3.63.2,5.47.22,5.64.08,11.29.33,16.94.15,1.63-.05,3.27-.14,4.9-.28,5.77-.48,14.16-1.35,19.94-1.61,1.73-.08,3.9-.61,5.52.51C79.13,72.29,74.25,90.31,73,92.65Z"/></g><path class="cls-25" d="M37.51,73.21c-2.5,0-5,0-7.49,0-1.82,0-4.18-.6-5.9.4-2.22,1.27-.9,5.61-.27,7.66a11.06,11.06,0,0,0,3,4.9c3.54,3.32,8.32,4.17,12.58,4.48A68.45,68.45,0,0,0,50,90.52c4.63-.36,9.43-.25,14-1.8S72.09,82.47,73.84,77c.45-1.4,1.5-4.18.12-5.22S55.32,72.89,48.72,73Q43.11,73.13,37.51,73.21Z"/><g class="cls-26"><path class="cls-18" d="M73.39,97.79c-4,4.8-17.54,3.92-19.93,4-4.81.18-9.62.21-14.42.18-2.42,0-11.45-.84-13.49-1.51a6.43,6.43,0,0,1-3.49-2.73c.8,3.91,1.46,5.85,5.89,6.58,5.11.84,15.62.45,20.07.26,4.44.19,15,.58,20.07-.26,4.83-.8,5.17-3,6.11-7.7A10.47,10.47,0,0,1,73.39,97.79Z"/><path class="cls-18" d="M21.58,67.43c3.35-.5,6.76-.15,10.13-.17,4.85,0,9.69-.36,14.53-.4s9.74.13,14.61,0,9.6-.92,14.37-.51c1,.08,2.93,0,3.58,1.57a4.39,4.39,0,0,1,.28,1.49c.32-2.16.61-4,.81-5.33L16.34,66.37c.14.88.3,2,.49,3.19A3.68,3.68,0,0,1,18,68.67,7.2,7.2,0,0,1,21.58,67.43Z"/></g><path class="cls-8" d="M41,92.15a11.87,11.87,0,0,1-4.43-.75,6.34,6.34,0,0,1-2.85-2.12,5.43,5.43,0,0,1-1-3.3,5.72,5.72,0,0,1,.62-2.7,5.21,5.21,0,0,1,4.14-2.8v.87a5.32,5.32,0,0,1-3-1.85,5.21,5.21,0,0,1-1.18-3.45,5.14,5.14,0,0,1,1-3.12,6.08,6.08,0,0,1,2.69-2,10.93,10.93,0,0,1,4.1-.7,10.83,10.83,0,0,1,4.1.7,6,6,0,0,1,2.68,2,5.14,5.14,0,0,1,.95,3.12,5.85,5.85,0,0,1-.53,2.49,5,5,0,0,1-1.46,1.85,4.54,4.54,0,0,1-2.16.9v-.81A5.3,5.3,0,0,1,49.26,86a5.49,5.49,0,0,1-1,3.3,6.4,6.4,0,0,1-2.85,2.12A11.76,11.76,0,0,1,41,92.15ZM41,88a4,4,0,0,0,2.42-.62,2.37,2.37,0,0,0,0-3.59A4.09,4.09,0,0,0,41,83.15a4.13,4.13,0,0,0-2.43.61,2.37,2.37,0,0,0,0,3.59A4.05,4.05,0,0,0,41,88Zm0-9a3.57,3.57,0,0,0,1.47-.27,2,2,0,0,0,.92-.79,2.36,2.36,0,0,0,.31-1.22A2.07,2.07,0,0,0,43,75a3,3,0,0,0-2-.62A2.89,2.89,0,0,0,39,75a2.37,2.37,0,0,0,0,3.34A2.89,2.89,0,0,0,41,79Z"/><path class="cls-8" d="M55.34,92.09a2.66,2.66,0,0,1-1.66-.48A1.78,1.78,0,0,1,53,90.34a2.88,2.88,0,0,1,.42-1.71L61.71,73.5v1.59H53.26a2.37,2.37,0,0,1-1.73-.59,2.55,2.55,0,0,1,0-3.33,2.37,2.37,0,0,1,1.73-.59H64.57a2.79,2.79,0,0,1,1.87.62,2.11,2.11,0,0,1,.72,1.7,4.4,4.4,0,0,1-.29,1.64c-.19.47-.42,1-.7,1.51l-7.7,14.26a3.3,3.3,0,0,1-1.24,1.34A3.72,3.72,0,0,1,55.34,92.09Z"/></g></g></svg>