<svg xmlns="http://www.w3.org/2000/svg" viewBox="0 0 105.29 104.84"><defs><style>.cls-1{isolation:isolate;}.cls-2{fill:#6a0809;}.cls-3{fill:#72bf44;}.cls-4{fill:#00a447;}.cls-5{fill:#ed1c24;}.cls-25,.cls-6{fill:#fff;}.cls-7{fill:#ce181e;}.cls-8{fill:#d01b21;}.cls-9{fill:#a8171c;}.cls-10,.cls-11{fill:#00803d;}.cls-11,.cls-21,.cls-22,.cls-26{opacity:0.5;}.cls-11,.cls-21,.cls-24,.cls-26{mix-blend-mode:multiply;}.cls-12{fill:#00a650;}.cls-13{fill:#da1e21;}.cls-14{fill:#b82025;}.cls-15{fill:#bc2026;}.cls-16{fill:#9c1d20;}.cls-17{fill:#df2329;}.cls-18{fill:#b86313;}.cls-19,.cls-21{fill:#cc7917;}.cls-20{fill:#9e4727;}.cls-23,.cls-24{opacity:0.3;}.cls-23{mix-blend-mode:screen;}.cls-25{opacity:0.1;}</style></defs><title>apple21</title><g class="cls-1"><g id="Layer_1" data-name="Layer 1"><path class="cls-2" d="M77.12,42.1c-4.85-1.64-10-5.8-11.15-11H20.55v31H79.42V42.73A20,20,0,0,1,77.12,42.1Z"/><path class="cls-3" d="M75.13,10.71c0-.1,0-.3-.13-.34s-.36.2-.46.28-.4.31-.6.47a11.11,11.11,0,0,0-1,.88,25.3,25.3,0,0,0-2.15,2.48,16.5,16.5,0,0,0-1.94,3.36,14.66,14.66,0,0,0-1.2,3.5.69.69,0,0,0,0,.19l.32.3c.12-.38.25-.77.38-1.14s.4-1,.6-1.47a34.61,34.61,0,0,1,1.79-3.61c.2-.33.41-.65.64-1a12,12,0,0,1,2.17-2.27,3.34,3.34,0,0,1,1.18-.54c.22-.06.66-.1.81-.28S75.19,10.92,75.13,10.71Z"/><path class="cls-4" d="M75,11.22c-.4-.61-2.86,2.07-3,2.27-1.85,2-2.58,4.44-3.85,6.79a.21.21,0,0,1-.28.09,6,6,0,0,0-.2,1,.69.69,0,0,0,0,.19l.32.3c.12-.38.25-.77.38-1.14s.4-1,.6-1.47a34.61,34.61,0,0,1,1.79-3.61c.2-.33.41-.65.64-1a12,12,0,0,1,2.17-2.27,3.34,3.34,0,0,1,1.18-.54,2.32,2.32,0,0,0,.76-.24A1.12,1.12,0,0,1,75,11.22Z"/><path class="cls-5" d="M75.6,30.35a9.7,9.7,0,0,0-.24-6.41,6.36,6.36,0,0,0-4.27-3.7,4,4,0,0,0-3.32.78,7.46,7.46,0,0,0-1.1-2.18,7.77,7.77,0,0,0-3.42-2.54c-2.5-1.13-5.74-.06-7.81,1.82-4.9,4.45-3.54,12.12.79,15.88a15.18,15.18,0,0,0,4.05,2.59,14,14,0,0,0,6,1.27A10,10,0,0,0,72,36,12.74,12.74,0,0,0,75.6,30.35Z"/><path class="cls-6" d="M58.17,21.16a12.28,12.28,0,0,1,1.65-1,9.46,9.46,0,0,1,4.49-1,5.73,5.73,0,0,0-.08-1,6.34,6.34,0,0,0-.18-.78,8.81,8.81,0,0,0-6.43,1A7.86,7.86,0,0,0,58.17,21.16Z"/><path class="cls-6" d="M56.25,22.82c.41-.39.82-.77,1.25-1.13a10.14,10.14,0,0,1-.67-2.79,9.94,9.94,0,0,0-1.32,1.2A15,15,0,0,0,56.25,22.82Z"/><path class="cls-7" d="M71.09,20.24a4,4,0,0,0-3.32.78,7.46,7.46,0,0,0-1.1-2.18,6.48,6.48,0,0,0-1.94-1.77A6,6,0,0,1,66,18.82c.42,1.06,1.08,2.07,1,3.2a5.91,5.91,0,0,1,5-1.49A5.92,5.92,0,0,0,71.09,20.24Z"/><path class="cls-7" d="M75.6,30.35A9.11,9.11,0,0,0,76,26.79a13.77,13.77,0,0,1-1.43,4.28c-2.13,4.22-7.57,5.4-11.92,4.66a13.59,13.59,0,0,1-9.75-6.9A11.54,11.54,0,0,0,56.23,34a15.18,15.18,0,0,0,4.05,2.59,14,14,0,0,0,6,1.27A10,10,0,0,0,72,36,12.74,12.74,0,0,0,75.6,30.35Z"/><path class="cls-3" d="M22.63,9.39c-.09-.05-.21-.21-.32-.17s-.14.39-.17.51-.1.5-.15.75a12.65,12.65,0,0,0-.22,1.35,23.94,23.94,0,0,0,0,3.28,16.09,16.09,0,0,0,.71,3.82,14.43,14.43,0,0,0,1.36,3.44.67.67,0,0,0,.12.14l.44,0c-.16-.37-.31-.75-.46-1.12s-.33-1-.5-1.5a32.87,32.87,0,0,1-1-3.91,11.08,11.08,0,0,1-.14-1.14,11.72,11.72,0,0,1,.17-3.13A3.17,3.17,0,0,1,23,10.56c.13-.2.44-.51.44-.75S22.82,9.52,22.63,9.39Z"/><path class="cls-4" d="M22.85,9.88c-.7-.2-.82,3.43-.84,3.71-.11,2.72.93,5.05,1.48,7.66a.2.2,0,0,1-.14.25,5.54,5.54,0,0,0,.47.87.67.67,0,0,0,.12.14l.44,0c-.16-.37-.31-.75-.46-1.12s-.33-1-.5-1.5a32.87,32.87,0,0,1-1-3.91,11.08,11.08,0,0,1-.14-1.14,11.72,11.72,0,0,1,.17-3.13A3.17,3.17,0,0,1,23,10.56a2.3,2.3,0,0,0,.43-.68A1.18,1.18,0,0,1,22.85,9.88Z"/><path class="cls-5" d="M35.76,24a9.76,9.76,0,0,0-4.35-4.72,6.4,6.4,0,0,0-5.66,0,4,4,0,0,0-2,2.75,7.82,7.82,0,0,0-2.26-.94,7.88,7.88,0,0,0-4.25.29c-2.64.77-4.4,3.69-4.75,6.48-.83,6.56,5.19,11.5,10.93,11.54a15.26,15.26,0,0,0,4.76-.66,14.15,14.15,0,0,0,5.41-3,10,10,0,0,0,3.12-5.15A12.79,12.79,0,0,0,35.76,24Z"/><path class="cls-6" d="M16.55,28.36a11,11,0,0,1,.58-1.85,9.45,9.45,0,0,1,2.76-3.68,6.12,6.12,0,0,0-.72-.72,5.61,5.61,0,0,0-.65-.47,8.84,8.84,0,0,0-4.21,5A7.81,7.81,0,0,0,16.55,28.36Z"/><path class="cls-6" d="M16.16,30.87c.06-.56.13-1.12.22-1.67a10,10,0,0,1-2.32-1.68,10.21,10.21,0,0,0-.23,1.76A14.54,14.54,0,0,0,16.16,30.87Z"/><path class="cls-7" d="M25.75,19.26a4,4,0,0,0-2,2.75,7.82,7.82,0,0,0-2.26-.94A6.52,6.52,0,0,0,18.86,21,6,6,0,0,1,21,21.5c1,.52,2.17.86,2.8,1.8a5.94,5.94,0,0,1,2.84-4.39A6,6,0,0,0,25.75,19.26Z"/><path class="cls-7" d="M35.76,24a9.22,9.22,0,0,0-2-3,14,14,0,0,1,1.7,4.18c1.12,4.59-2.25,9-6,11.29a13.61,13.61,0,0,1-11.91,1.1,11.47,11.47,0,0,0,5.91,1.76,15.26,15.26,0,0,0,4.76-.66,14.15,14.15,0,0,0,5.41-3,10,10,0,0,0,3.12-5.15A12.79,12.79,0,0,0,35.76,24Z"/><path class="cls-3" d="M76.19,21.24c-.07-.07-.17-.25-.29-.22s-.19.36-.24.48-.17.48-.25.72a12.23,12.23,0,0,0-.41,1.3,22.39,22.39,0,0,0-.5,3.25,15.78,15.78,0,0,0,.15,3.88,14.67,14.67,0,0,0,.85,3.6.93.93,0,0,0,.1.16,3.29,3.29,0,0,1,.43.09c-.1-.39-.2-.78-.29-1.17s-.19-1-.28-1.56a33.84,33.84,0,0,1-.41-4,11,11,0,0,1,0-1.15,12,12,0,0,1,.62-3.08,3.42,3.42,0,0,1,.71-1.09c.15-.17.51-.43.54-.67S76.37,21.39,76.19,21.24Z"/><path class="cls-4" d="M76.34,21.75C75.68,21.45,75,25,75,25.3c-.5,2.68.19,5.13.36,7.8a.2.2,0,0,1-.18.22,5.11,5.11,0,0,0,.34.93.93.93,0,0,0,.1.16,3.29,3.29,0,0,1,.43.09c-.1-.39-.2-.78-.29-1.17s-.19-1-.28-1.56a33.84,33.84,0,0,1-.41-4,11,11,0,0,1,0-1.15,12,12,0,0,1,.62-3.08,3.42,3.42,0,0,1,.71-1.09,2.37,2.37,0,0,0,.52-.61A1.16,1.16,0,0,1,76.34,21.75Z"/><path class="cls-8" d="M87.08,37.6a9.78,9.78,0,0,0-3.62-5.3,6.41,6.41,0,0,0-5.6-.85,4,4,0,0,0-2.38,2.43,7.59,7.59,0,0,0-2.1-1.25,7.86,7.86,0,0,0-4.24-.33c-2.72.38-4.89,3-5.64,5.72C61.74,44.4,67,50.15,72.65,51a15.16,15.16,0,0,0,4.8,0,14.07,14.07,0,0,0,5.79-2.14,10.11,10.11,0,0,0,3.83-4.65A12.86,12.86,0,0,0,87.08,37.6Z"/><path class="cls-9" d="M77.86,31.45a4,4,0,0,0-2.38,2.43,7.59,7.59,0,0,0-2.1-1.25,6.6,6.6,0,0,0-2.58-.47,6.36,6.36,0,0,1,2,.81c.92.67,2,1.17,2.51,2.2a5.93,5.93,0,0,1,3.44-3.94A6.57,6.57,0,0,0,77.86,31.45Z"/><path class="cls-9" d="M87.08,37.6a9.11,9.11,0,0,0-1.57-3.22,14.15,14.15,0,0,1,1.08,4.38c.44,4.71-3.53,8.61-7.6,10.3a13.59,13.59,0,0,1-11.93-.63A11.47,11.47,0,0,0,72.65,51a15.16,15.16,0,0,0,4.8,0,14.07,14.07,0,0,0,5.79-2.14,10.11,10.11,0,0,0,3.83-4.65A12.86,12.86,0,0,0,87.08,37.6Z"/><path class="cls-3" d="M48.49,14.86c-.07-.07-.15-.26-.27-.24s-.24.35-.3.47-.22.48-.33.72a13.64,13.64,0,0,0-.54,1.3,25.07,25.07,0,0,0-.81,3.29,17.33,17.33,0,0,0-.2,4,15,15,0,0,0,.55,3.77,1.23,1.23,0,0,0,.08.18l.44.13c-.07-.41-.14-.82-.19-1.23l-.15-1.63a36.09,36.09,0,0,1-.05-4.16c0-.4.07-.79.13-1.18a12.4,12.4,0,0,1,.93-3.11,3.36,3.36,0,0,1,.82-1.05c.18-.17.57-.41.62-.65S48.66,15,48.49,14.86Z"/><path class="cls-4" d="M48.6,15.4C48,15,47,18.66,46.87,18.93c-.76,2.72-.27,5.3-.34,8.06a.21.21,0,0,1-.21.21,5.61,5.61,0,0,0,.27,1,1.23,1.23,0,0,0,.08.18l.44.13c-.07-.41-.14-.82-.19-1.23l-.15-1.63a36.09,36.09,0,0,1-.05-4.16c0-.4.07-.79.13-1.18a12.4,12.4,0,0,1,.93-3.11,3.36,3.36,0,0,1,.82-1.05c.16-.15.5-.37.6-.59A1.09,1.09,0,0,1,48.6,15.4Z"/><path class="cls-10" d="M64,15.43a15,15,0,0,0-10.85,1.34,13,13,0,0,0-4.29,3.47,9.36,9.36,0,0,0-1.23,1.94,4.33,4.33,0,0,0-.37,1.57c0,.17,0,.35,0,.53h0c.59.15,1.21.11,1.8.25.86.21,1.75.33,2.62.47a11.12,11.12,0,0,0,5.78-.38A10.65,10.65,0,0,0,62,21a9.72,9.72,0,0,0,1.23-2.58A20.25,20.25,0,0,0,64,15.43Z"/><path class="cls-11" d="M64,15.43c-.07,0-1.42,5.43-4.27,7.22a10.78,10.78,0,0,1-5.76,1.74c-2.11,0-4.73-1.13-6.71-.12h0c.59.15,1.21.11,1.8.25.86.21,1.75.33,2.62.47a11.12,11.12,0,0,0,5.78-.38A10.65,10.65,0,0,0,62,21a9.72,9.72,0,0,0,1.23-2.58A20.25,20.25,0,0,0,64,15.43Z"/><path class="cls-12" d="M62.42,16.77a15,15,0,0,0-6.7.81,4.67,4.67,0,0,1,.3-.43,9,9,0,0,1,1.27-1.48s0-.09,0-.06A7.11,7.11,0,0,0,55,17.86,15.35,15.35,0,0,0,52.87,19a29.12,29.12,0,0,0-2.6,1.8,10.09,10.09,0,0,1,.54-1c.44-.69.95-1.32,1.41-2,.05-.06,0-.12-.1-.08a8.08,8.08,0,0,0-1.59,1.9,6.45,6.45,0,0,0-1.06,1.87A14.17,14.17,0,0,0,47.89,23h0a.19.19,0,0,0-.08.1,8.34,8.34,0,0,0-1.27,2.13c0,.06.07.12.11.07.6-.69,1.15-1.39,1.75-2.06A8.82,8.82,0,0,1,50.05,23a13.28,13.28,0,0,1,2.35.24,33.65,33.65,0,0,0,4,.55c.08,0,.11-.13,0-.14-1.42-.3-2.84-.63-4.25-.94a7.81,7.81,0,0,0-3.06-.15l.18-.18a23.56,23.56,0,0,1,2.4-1.93,4.3,4.3,0,0,0,.85.18c.77.11,1.51.31,2.26.45a13.44,13.44,0,0,0,3.72.45c.06,0,.07-.11,0-.12-1.08-.25-2.18-.51-3.28-.7s-2-.51-3-.68l.88-.58a13.7,13.7,0,0,1,1.73-.92.16.16,0,0,0,.09,0l0,0a15.77,15.77,0,0,1,2.13-.74A10,10,0,0,1,62,19a.07.07,0,0,0,.08-.11A7.41,7.41,0,0,0,59,17.31,24,24,0,0,1,62.41,17,.11.11,0,0,0,62.42,16.77Z"/><path class="cls-5" d="M58.19,32.69A10.1,10.1,0,0,0,55,26.91a6.57,6.57,0,0,0-5.67-1.38,4.12,4.12,0,0,0-2.68,2.28,7.68,7.68,0,0,0-2.05-1.48,8,8,0,0,0-4.33-.73c-2.83.14-5.3,2.65-6.32,5.37-2.4,6.39,2.46,12.79,8.22,14.21a15.55,15.55,0,0,0,4.94.47A14.43,14.43,0,0,0,53.21,44a10.41,10.41,0,0,0,4.36-4.43A13.26,13.26,0,0,0,58.19,32.69Z"/><path class="cls-6" d="M37.85,32.47a12.47,12.47,0,0,1,1-1.73,9.84,9.84,0,0,1,3.66-3,6.27,6.27,0,0,0-.55-.89,5.57,5.57,0,0,0-.54-.63,9.09,9.09,0,0,0-5.42,4A8,8,0,0,0,37.85,32.47Z"/><path class="cls-6" d="M36.86,34.89c.19-.54.39-1.09.62-1.62A10.06,10.06,0,0,1,35.55,31a11.08,11.08,0,0,0-.65,1.72A14.85,14.85,0,0,0,36.86,34.89Z"/><path class="cls-7" d="M49.28,25.53a4.12,4.12,0,0,0-2.68,2.28,7.68,7.68,0,0,0-2.05-1.48,6.64,6.64,0,0,0-2.61-.72,6.08,6.08,0,0,1,2,1c.89.77,2,1.39,2.39,2.48a6.11,6.11,0,0,1,3.89-3.73A5.64,5.64,0,0,0,49.28,25.53Z"/><path class="cls-7" d="M58.19,32.69a9.37,9.37,0,0,0-1.32-3.45,14.51,14.51,0,0,1,.71,4.6c0,4.89-4.42,8.53-8.76,9.9A14.06,14.06,0,0,1,36.6,42a11.92,11.92,0,0,0,5.52,3.18,15.55,15.55,0,0,0,4.94.47A14.43,14.43,0,0,0,53.21,44a10.41,10.41,0,0,0,4.36-4.43A13.26,13.26,0,0,0,58.19,32.69Z"/><path class="cls-3" d="M62,24.89c0-.08-.11-.28-.22-.28s-.29.3-.36.4-.3.41-.44.62a12.6,12.6,0,0,0-.75,1.15,23.53,23.53,0,0,0-1.34,3A15.76,15.76,0,0,0,58,33.55a14.87,14.87,0,0,0-.15,3.69c0,.11,0,.16,0,.19l.4.2c0-.41,0-.81,0-1.21l.15-1.57a33.42,33.42,0,0,1,.68-4,10.68,10.68,0,0,1,.33-1.1A11.71,11.71,0,0,1,60.91,27a3.32,3.32,0,0,1,1-.86c.2-.12.61-.28.7-.5S62.12,25.08,62,24.89Z"/><path class="cls-4" d="M62,25.42c-.56-.46-2.14,2.82-2.26,3.06-1.2,2.45-1.2,5-1.74,7.61a.21.21,0,0,1-.23.17,6,6,0,0,0,.07,1c0,.11,0,.16,0,.19l.4.2c0-.41,0-.81,0-1.21l.15-1.57a33.42,33.42,0,0,1,.68-4,10.68,10.68,0,0,1,.33-1.1A11.71,11.71,0,0,1,60.91,27a3.32,3.32,0,0,1,1-.86,2.32,2.32,0,0,0,.67-.45A1,1,0,0,1,62,25.42Z"/><path class="cls-13" d="M68.12,43.56A9.86,9.86,0,0,0,66,37.49a6.36,6.36,0,0,0-5.16-2.31,4.06,4.06,0,0,0-3,1.71,7.44,7.44,0,0,0-1.69-1.77,7.81,7.81,0,0,0-4-1.45c-2.72-.36-5.51,1.6-7,4-3.4,5.67.11,12.61,5.35,15A15.26,15.26,0,0,0,55.25,54a14.08,14.08,0,0,0,6.15-.52A10.17,10.17,0,0,0,66.33,50,12.82,12.82,0,0,0,68.12,43.56Z"/><path class="cls-6" d="M48.78,39.8a11.93,11.93,0,0,1,1.28-1.47,9.46,9.46,0,0,1,4-2.25,6.28,6.28,0,0,0-.36-.94,6.77,6.77,0,0,0-.41-.7,8.8,8.8,0,0,0-5.85,2.85A7.81,7.81,0,0,0,48.78,39.8Z"/><path class="cls-6" d="M47.42,41.93q.4-.74.87-1.44A9.91,9.91,0,0,1,46.85,38a9.31,9.31,0,0,0-.92,1.52A14.29,14.29,0,0,0,47.42,41.93Z"/><path class="cls-14" d="M60.88,35.18a4.06,4.06,0,0,0-3,1.71,7.44,7.44,0,0,0-1.69-1.77A6.44,6.44,0,0,0,53.88,34,6,6,0,0,1,55.6,35.3c.71.89,1.63,1.66,1.83,2.78a5.94,5.94,0,0,1,4.37-2.87A7.13,7.13,0,0,0,60.88,35.18Z"/><path class="cls-14" d="M68.12,43.56A9.27,9.27,0,0,0,67.47,40a14,14,0,0,1-.14,4.52c-.82,4.65-5.7,7.35-10.06,7.89a13.61,13.61,0,0,1-11.34-3.79,11.54,11.54,0,0,0,4.7,4A15.26,15.26,0,0,0,55.25,54a14.08,14.08,0,0,0,6.15-.52A10.17,10.17,0,0,0,66.33,50,12.82,12.82,0,0,0,68.12,43.56Z"/><path class="cls-3" d="M28.79,24.62c-.07-.07-.18-.24-.29-.21s-.19.36-.24.48-.17.48-.26.72c-.14.42-.3.86-.4,1.3a23.8,23.8,0,0,0-.48,3.25A15.78,15.78,0,0,0,27.28,34a14.5,14.5,0,0,0,.87,3.59.76.76,0,0,0,.09.16l.44.09q-.16-.59-.3-1.17c-.09-.52-.19-1-.28-1.56a33.66,33.66,0,0,1-.43-4c0-.38,0-.76,0-1.15a11.88,11.88,0,0,1,.62-3.07,3.27,3.27,0,0,1,.7-1.1c.15-.17.51-.43.54-.67S29,24.77,28.79,24.62Z"/><path class="cls-4" d="M28.94,25.13c-.66-.3-1.3,3.29-1.35,3.56-.49,2.68.21,5.13.39,7.79a.21.21,0,0,1-.18.23,5.86,5.86,0,0,0,.35.92.76.76,0,0,0,.09.16l.44.09q-.16-.59-.3-1.17c-.09-.52-.19-1-.28-1.56a33.66,33.66,0,0,1-.43-4c0-.38,0-.76,0-1.15a11.88,11.88,0,0,1,.62-3.07,3.27,3.27,0,0,1,.7-1.1,2.37,2.37,0,0,0,.52-.61A1.15,1.15,0,0,1,28.94,25.13Z"/><path class="cls-13" d="M39.73,40.94a9.74,9.74,0,0,0-3.64-5.29,6.38,6.38,0,0,0-5.59-.82,4,4,0,0,0-2.38,2.44A7.22,7.22,0,0,0,26,36a7.85,7.85,0,0,0-4.24-.31c-2.72.39-4.88,3-5.62,5.74-1.74,6.38,3.52,12.12,9.2,13a15.16,15.16,0,0,0,4.8,0,14,14,0,0,0,5.78-2.17,10,10,0,0,0,3.81-4.66A12.75,12.75,0,0,0,39.73,40.94Z"/><path class="cls-6" d="M20.1,42.54a11.71,11.71,0,0,1,.84-1.75,9.36,9.36,0,0,1,3.25-3.25,5.37,5.37,0,0,0-.61-.81,6.07,6.07,0,0,0-.58-.56,8.84,8.84,0,0,0-4.86,4.32A7.62,7.62,0,0,0,20.1,42.54Z"/><path class="cls-6" d="M19.37,45c.13-.54.28-1.09.45-1.62a10,10,0,0,1-2.06-2,10.81,10.81,0,0,0-.48,1.71A14.41,14.41,0,0,0,19.37,45Z"/><path class="cls-14" d="M30.5,34.83a4,4,0,0,0-2.38,2.44A7.22,7.22,0,0,0,26,36a6.47,6.47,0,0,0-2.59-.45,5.91,5.91,0,0,1,2,.8c.92.66,2,1.16,2.52,2.18a5.9,5.9,0,0,1,3.42-3.95A6.1,6.1,0,0,0,30.5,34.83Z"/><path class="cls-14" d="M39.73,40.94a9.11,9.11,0,0,0-1.57-3.22,14.16,14.16,0,0,1,1.09,4.38c.46,4.71-3.5,8.62-7.55,10.33a13.61,13.61,0,0,1-11.94-.58,11.5,11.5,0,0,0,5.6,2.57,15.16,15.16,0,0,0,4.8,0,14,14,0,0,0,5.78-2.17,10,10,0,0,0,3.81-4.66A12.75,12.75,0,0,0,39.73,40.94Z"/><path class="cls-3" d="M86,34.47c-.07-.07-.13-.26-.25-.26s-.26.33-.32.43-.26.45-.38.67a9.26,9.26,0,0,0-.63,1.21,22.79,22.79,0,0,0-1.06,3.11,16.55,16.55,0,0,0-.54,3.85A15,15,0,0,0,83,47.16a.78.78,0,0,0,.07.18l.41.16c0-.4-.06-.8-.08-1.2V44.72a33.82,33.82,0,0,1,.3-4,10.77,10.77,0,0,1,.23-1.13,11.69,11.69,0,0,1,1.15-2.92,3.46,3.46,0,0,1,.88-.95c.19-.14.58-.34.66-.57S86.09,34.65,86,34.47Z"/><path class="cls-4" d="M86,35c-.6-.41-1.86,3-2,3.26-1,2.56-.72,5.09-1,7.74a.21.21,0,0,1-.22.19,5.76,5.76,0,0,0,.17,1,.78.78,0,0,0,.07.18l.41.16c0-.4-.06-.8-.08-1.2V44.72a33.82,33.82,0,0,1,.3-4,10.77,10.77,0,0,1,.23-1.13,11.69,11.69,0,0,1,1.15-2.92,3.46,3.46,0,0,1,.88-.95,2.57,2.57,0,0,0,.63-.51A1.08,1.08,0,0,1,86,35Z"/><path class="cls-10" d="M100.82,36.33a15.37,15.37,0,0,0-5-.82,15.55,15.55,0,0,0-5.55,1.19,12.8,12.8,0,0,0-4.44,3,9.57,9.57,0,0,0-1.35,1.76A4.34,4.34,0,0,0,84,42.93c0,.17,0,.34,0,.52l0,0c.56.19,1.16.2,1.71.39.82.27,1.66.46,2.5.67a10.75,10.75,0,0,0,5.6.12,10.31,10.31,0,0,0,4.68-3.08,9,9,0,0,0,1.4-2.38A19.34,19.34,0,0,0,100.82,36.33Z"/><path class="cls-11" d="M100.82,36.33c-.07,0-1.83,5.12-4.73,6.6a10.37,10.37,0,0,1-5.7,1.19c-2-.19-4.47-1.49-6.47-.67h0l0,0c.56.19,1.16.2,1.71.39.82.27,1.66.46,2.5.67a10.75,10.75,0,0,0,5.6.12,10.31,10.31,0,0,0,4.68-3.08,9,9,0,0,0,1.4-2.38A19.34,19.34,0,0,0,100.82,36.33Z"/><path class="cls-12" d="M99.21,37.49a14.52,14.52,0,0,0-6.53.21c.11-.13.22-.27.33-.39A9.83,9.83,0,0,1,94.36,36s0-.09,0-.07a7,7,0,0,0-2.36,2,14.77,14.77,0,0,0-2.15.89,26.12,26.12,0,0,0-2.66,1.51,10.88,10.88,0,0,1,.61-1c.48-.63,1-1.19,1.53-1.8,0-.06,0-.13-.09-.09a7.83,7.83,0,0,0-1.7,1.7,6.31,6.31,0,0,0-1.18,1.72,12.67,12.67,0,0,0-1.66,1.42h0a.14.14,0,0,0-.08.09,7.88,7.88,0,0,0-1.4,2s0,.12.09.07c.64-.61,1.23-1.24,1.86-1.84a8.78,8.78,0,0,1,1.64-.14,12.27,12.27,0,0,1,2.25.44,33.1,33.1,0,0,0,3.77.86c.08,0,.12-.11,0-.14-1.34-.4-2.68-.84-4-1.26a7.49,7.49,0,0,0-2.94-.4l.19-.16a21.87,21.87,0,0,1,2.48-1.66,4,4,0,0,0,.81.25c.72.17,1.42.42,2.14.62a12.43,12.43,0,0,0,3.55.75c.06,0,.07-.1,0-.12-1-.33-2.06-.67-3.1-1s-1.86-.66-2.81-.9l.9-.49a14.17,14.17,0,0,1,1.75-.75.08.08,0,0,0,.08,0l0,0A15.51,15.51,0,0,1,94,38a9.62,9.62,0,0,1,4.63,1.59c.08,0,.14-.05.08-.1a7.15,7.15,0,0,0-2.82-1.74,24.07,24.07,0,0,1,3.29,0A.1.1,0,0,0,99.21,37.49Z"/><path class="cls-15" d="M93.79,52.49a9.69,9.69,0,0,0-2.63-5.85,6.36,6.36,0,0,0-5.36-1.81,4,4,0,0,0-2.77,2,7.55,7.55,0,0,0-1.85-1.6,7.67,7.67,0,0,0-4.12-1.06c-2.75-.11-5.34,2.1-6.55,4.64-2.86,6,1.29,12.55,6.73,14.4a15,15,0,0,0,4.72.87A14.09,14.09,0,0,0,88,63,10.09,10.09,0,0,0,92.62,59,12.75,12.75,0,0,0,93.79,52.49Z"/><path class="cls-6" d="M74.19,50.56A11.13,11.13,0,0,1,75.33,49a9.37,9.37,0,0,1,3.78-2.62,6.87,6.87,0,0,0-.45-.9,7,7,0,0,0-.47-.66,8.88,8.88,0,0,0-5.57,3.39A8,8,0,0,0,74.19,50.56Z"/><path class="cls-6" d="M73,52.81c.23-.51.47-1,.74-1.51A9.67,9.67,0,0,1,72.1,49a9.87,9.87,0,0,0-.78,1.6A15.22,15.22,0,0,0,73,52.81Z"/><path class="cls-16" d="M85.8,44.83a4,4,0,0,0-2.77,2,7.55,7.55,0,0,0-1.85-1.6,6.42,6.42,0,0,0-2.46-.91,5.84,5.84,0,0,1,1.83,1.15c.79.82,1.79,1.5,2.09,2.6a5.92,5.92,0,0,1,4.08-3.27A4.69,4.69,0,0,0,85.8,44.83Z"/><path class="cls-16" d="M93.79,52.49a9.23,9.23,0,0,0-1-3.44,14.11,14.11,0,0,1,.29,4.5c-.39,4.71-5,7.86-9.28,8.81a13.63,13.63,0,0,1-11.64-2.71,11.46,11.46,0,0,0,5,3.53,15,15,0,0,0,4.72.87A14.09,14.09,0,0,0,88,63,10.09,10.09,0,0,0,92.62,59,12.75,12.75,0,0,0,93.79,52.49Z"/><path class="cls-3" d="M70.47,40c0-.08-.1-.28-.22-.28s-.29.29-.36.39-.3.42-.44.63a12.6,12.6,0,0,0-.75,1.15,22.91,22.91,0,0,0-1.34,3,15.76,15.76,0,0,0-.89,3.78,14.39,14.39,0,0,0-.14,3.69,1.09,1.09,0,0,0,0,.19l.39.2c0-.41,0-.81,0-1.21s.09-1.05.14-1.58a33.25,33.25,0,0,1,.68-4,10.68,10.68,0,0,1,.33-1.1A11.71,11.71,0,0,1,69.38,42a3.32,3.32,0,0,1,1-.86c.2-.12.61-.28.7-.5S70.6,40.15,70.47,40Z"/><path class="cls-4" d="M70.48,40.49c-.56-.46-2.14,2.82-2.26,3.06-1.2,2.45-1.2,5-1.74,7.61a.21.21,0,0,1-.23.17,5.12,5.12,0,0,0,.08,1,1.09,1.09,0,0,0,0,.19l.39.2c0-.41,0-.81,0-1.21s.09-1.05.14-1.58a33.25,33.25,0,0,1,.68-4,10.68,10.68,0,0,1,.33-1.1A11.71,11.71,0,0,1,69.38,42a3.32,3.32,0,0,1,1-.86,2.32,2.32,0,0,0,.67-.45A1,1,0,0,1,70.48,40.49Z"/><path class="cls-17" d="M76.59,58.63a9.7,9.7,0,0,0-2.08-6.07,6.36,6.36,0,0,0-5.16-2.31A4.06,4.06,0,0,0,66.4,52a7.44,7.44,0,0,0-1.69-1.77,7.72,7.72,0,0,0-4-1.45c-2.72-.36-5.51,1.6-7,4-3.4,5.67.11,12.61,5.35,15A15.26,15.26,0,0,0,63.72,69a14.07,14.07,0,0,0,6.15-.52,10.12,10.12,0,0,0,4.93-3.46A12.82,12.82,0,0,0,76.59,58.63Z"/><path class="cls-6" d="M57.25,54.86a11.84,11.84,0,0,1,1.28-1.46,9.46,9.46,0,0,1,4-2.25,6.28,6.28,0,0,0-.36-.94,5.86,5.86,0,0,0-.41-.7,8.8,8.8,0,0,0-5.85,2.85A7.76,7.76,0,0,0,57.25,54.86Z"/><path class="cls-6" d="M55.89,57q.4-.73.87-1.44a9.91,9.91,0,0,1-1.44-2.47,10.07,10.07,0,0,0-.92,1.52A14.29,14.29,0,0,0,55.89,57Z"/><path class="cls-7" d="M69.35,50.25A4.06,4.06,0,0,0,66.4,52a7.44,7.44,0,0,0-1.69-1.77,6.44,6.44,0,0,0-2.36-1.14,6,6,0,0,1,1.72,1.32c.71.89,1.63,1.66,1.84,2.78a5.89,5.89,0,0,1,4.36-2.87A4.75,4.75,0,0,0,69.35,50.25Z"/><path class="cls-7" d="M76.59,58.63a9.27,9.27,0,0,0-.65-3.52,14,14,0,0,1-.14,4.51C75,64.28,70.11,67,65.74,67.52A13.61,13.61,0,0,1,54.4,63.73a11.6,11.6,0,0,0,4.7,4A15.26,15.26,0,0,0,63.72,69a14.07,14.07,0,0,0,6.15-.52,10.12,10.12,0,0,0,4.93-3.46A12.82,12.82,0,0,0,76.59,58.63Z"/><path class="cls-3" d="M43.78,33.36c-.07-.07-.15-.26-.26-.24s-.24.34-.3.45-.22.45-.33.69a11.41,11.41,0,0,0-.55,1.24,23.29,23.29,0,0,0-.85,3.18,16.14,16.14,0,0,0-.27,3.87,14.7,14.7,0,0,0,.45,3.67,1.51,1.51,0,0,0,.08.17l.42.13c-.06-.4-.12-.79-.16-1.19s-.07-1.06-.11-1.58a36.12,36.12,0,0,1,0-4c0-.38.08-.76.15-1.14a12,12,0,0,1,1-3,3.2,3.2,0,0,1,.82-1c.17-.15.55-.37.61-.61S43.93,33.53,43.78,33.36Z"/><path class="cls-4" d="M43.87,33.88c-.62-.37-1.66,3.13-1.74,3.39-.79,2.61-.37,5.12-.49,7.79a.2.2,0,0,1-.21.2,5.62,5.62,0,0,0,.24,1,1.51,1.51,0,0,0,.08.17l.42.13c-.06-.4-.12-.79-.16-1.19s-.07-1.06-.11-1.58a36.12,36.12,0,0,1,0-4c0-.38.08-.76.15-1.14a12,12,0,0,1,1-3,3.2,3.2,0,0,1,.82-1c.16-.14.49-.34.59-.55A1,1,0,0,1,43.87,33.88Z"/><path class="cls-15" d="M52.81,50.81a9.75,9.75,0,0,0-3-5.66,6.36,6.36,0,0,0-5.47-1.45,4,4,0,0,0-2.63,2.16,7.34,7.34,0,0,0-1.95-1.48,7.78,7.78,0,0,0-4.18-.79c-2.75.08-5.19,2.46-6.23,5.07C26.88,54.8,31.46,61.1,37,62.59a15.49,15.49,0,0,0,4.78.55,14,14,0,0,0,6-1.51,10,10,0,0,0,4.31-4.2A12.73,12.73,0,0,0,52.81,50.81Z"/><path class="cls-6" d="M33.12,50.19a12.28,12.28,0,0,1,1-1.65,9.35,9.35,0,0,1,3.6-2.86,5.93,5.93,0,0,0-.51-.88c-.17-.22-.34-.43-.51-.62a8.91,8.91,0,0,0-5.33,3.75A7.71,7.71,0,0,0,33.12,50.19Z"/><path class="cls-6" d="M32.12,52.52q.29-.8.63-1.56a10.06,10.06,0,0,1-1.82-2.21,10,10,0,0,0-.67,1.65A15.1,15.1,0,0,0,32.12,52.52Z"/><path class="cls-16" d="M44.32,43.7a4,4,0,0,0-2.63,2.16,7.34,7.34,0,0,0-1.95-1.48,6.63,6.63,0,0,0-2.52-.75,6,6,0,0,1,1.91,1C40,45.42,41,46,41.39,47.11a5.9,5.9,0,0,1,3.85-3.53A4.73,4.73,0,0,0,44.32,43.7Z"/><path class="cls-16" d="M52.81,50.81a9.33,9.33,0,0,0-1.2-3.37,14.3,14.3,0,0,1,.59,4.48c-.07,4.72-4.45,8.17-8.67,9.41a13.65,13.65,0,0,1-11.8-1.93A11.54,11.54,0,0,0,37,62.59a15.49,15.49,0,0,0,4.78.55,14,14,0,0,0,6-1.51,10,10,0,0,0,4.31-4.2A12.73,12.73,0,0,0,52.81,50.81Z"/><path class="cls-3" d="M12.79,35.73c-.08,0-.22-.19-.33-.13s-.1.39-.12.52-.05.51-.08.76a12.4,12.4,0,0,0-.08,1.36,22.32,22.32,0,0,0,.29,3.27,15.82,15.82,0,0,0,1.07,3.74,14.77,14.77,0,0,0,1.68,3.29l.13.13.45,0c-.2-.35-.39-.71-.57-1.07l-.64-1.44a34.32,34.32,0,0,1-1.35-3.8A10.66,10.66,0,0,1,13,41.22a11.82,11.82,0,0,1-.13-3.14,3.3,3.3,0,0,1,.43-1.22c.11-.21.39-.55.36-.79S13,35.84,12.79,35.73Z"/><path class="cls-4" d="M13.06,36.19c-.71-.13-.49,3.5-.48,3.78.16,2.72,1.41,4.94,2.21,7.49a.2.2,0,0,1-.12.26,5.58,5.58,0,0,0,.55.82l.13.13.45,0c-.2-.35-.39-.71-.57-1.07l-.64-1.44a34.32,34.32,0,0,1-1.35-3.8A10.66,10.66,0,0,1,13,41.22a11.82,11.82,0,0,1-.13-3.14,3.3,3.3,0,0,1,.43-1.22,2.43,2.43,0,0,0,.36-.72A1.09,1.09,0,0,1,13.06,36.19Z"/><path class="cls-8" d="M27.26,49a9.78,9.78,0,0,0-4.78-4.28,6.34,6.34,0,0,0-5.63.51,4,4,0,0,0-1.74,2.93,7.26,7.26,0,0,0-2.34-.72,7.84,7.84,0,0,0-4.19.69c-2.56,1-4,4.09-4.12,6.9-.19,6.61,6.26,11,12,10.45a15,15,0,0,0,4.67-1.12,14,14,0,0,0,5.11-3.46,10.15,10.15,0,0,0,2.61-5.43A12.76,12.76,0,0,0,27.26,49Z"/><path class="cls-9" d="M16.85,45.26a4,4,0,0,0-1.74,2.93,7.26,7.26,0,0,0-2.34-.72,6.52,6.52,0,0,0-2.62.16,6.12,6.12,0,0,1,2.15.31c1,.43,2.24.66,3,1.53a6,6,0,0,1,2.4-4.64A5.68,5.68,0,0,0,16.85,45.26Z"/><path class="cls-9" d="M27.26,49A9.05,9.05,0,0,0,25,46.28a14,14,0,0,1,2.09,4c1.56,4.46-1.38,9.2-4.92,11.81A13.61,13.61,0,0,1,10.4,64.32a11.54,11.54,0,0,0,6,1.19,15,15,0,0,0,4.67-1.12,14,14,0,0,0,5.11-3.46,10.15,10.15,0,0,0,2.61-5.43A12.76,12.76,0,0,0,27.26,49Z"/><path class="cls-10" d="M36.78,12.17a12.26,12.26,0,0,1,3.91,1.21,12.62,12.62,0,0,1,3.58,2.84A10.23,10.23,0,0,1,46.39,20a7.43,7.43,0,0,1,.34,1.75A3.33,3.33,0,0,1,46.55,23a2.5,2.5,0,0,1-.15.38s0,0,0,0c-.47,0-.91-.26-1.38-.33-.68-.09-1.36-.26-2-.41a8.6,8.6,0,0,1-4.08-1.91,8.22,8.22,0,0,1-2.27-3.89,7.87,7.87,0,0,1-.16-2.22A17,17,0,0,1,36.78,12.17Z"/><path class="cls-11" d="M36.78,12.17s-.51,4.34,1,6.44a8.36,8.36,0,0,0,3.67,2.9c1.54.58,3.75.52,4.9,1.82h0s0,0,0,0c-.47,0-.91-.26-1.38-.33-.68-.09-1.36-.26-2-.41a8.6,8.6,0,0,1-4.08-1.91,8.22,8.22,0,0,1-2.27-3.89,7.87,7.87,0,0,1-.16-2.22A17,17,0,0,1,36.78,12.17Z"/><path class="cls-12" d="M37.52,13.58a11.61,11.61,0,0,1,4.63,2.48c0-.13-.06-.27-.1-.39a7.81,7.81,0,0,0-.5-1.43s0-.06.05,0a5.57,5.57,0,0,1,1,2.27,12,12,0,0,1,1.24,1.41,22.59,22.59,0,0,1,1.37,2,6.88,6.88,0,0,0-.1-.9c-.12-.63-.31-1.23-.46-1.85a.05.05,0,0,1,.1,0A6.49,6.49,0,0,1,45.35,19a5.29,5.29,0,0,1,.23,1.66,10.37,10.37,0,0,1,.69,1.62h0a.16.16,0,0,1,0,.09,6.75,6.75,0,0,1,.31,1.91.05.05,0,0,1-.1,0c-.24-.67-.43-1.33-.68-2a6.68,6.68,0,0,0-1.13-.69,10.79,10.79,0,0,0-1.77-.49,25.06,25.06,0,0,1-3-.72c-.06,0-.05-.13,0-.12,1.11.19,2.23.36,3.34.53a6.05,6.05,0,0,1,2.26.76l-.08-.18a17.17,17.17,0,0,0-1.19-2.08,3.75,3.75,0,0,1-.67-.11c-.58-.14-1.18-.21-1.77-.32A10.1,10.1,0,0,1,39,18.14s0-.09,0-.09c.86.13,1.73.25,2.57.42s1.58.2,2.35.36l-.47-.67a11.21,11.21,0,0,0-1-1.17.05.05,0,0,1-.05,0s0,0,0,0a13,13,0,0,0-1.32-1.14,7.88,7.88,0,0,0-3.91-.51.05.05,0,0,1,0-.1,5.77,5.77,0,0,1,2.66-.24,20.92,20.92,0,0,0-2.36-1.2A.08.08,0,1,1,37.52,13.58Z"/><path class="cls-18" d="M8.58,64.8c1.21,4.8,4.31,16.83,6.17,21.38,2.36,5.73,1.26,8.24,9,9,6.68.67,20.45.36,26.27.21,5.82.15,19.6.46,26.28-.21,7.78-.79,6.68-3.3,9-9,1.87-4.55,5.22-18.45,6.42-23.25Z"/><path class="cls-19" d="M94.06,60.58c-.63-2.28-4.19-1.78-5.9-1.7-.58,0-1.17,0-1.75,0-2.93.06-5.85.09-8.77.13-3.31,0-42.61.84-45.88,1L22,60.33c-2.87.1-5.73.2-8.6.28-.57,0-1.15,0-1.72,0-1.68,0-5.2-.33-5.71,1.93A2.32,2.32,0,0,0,7.72,65.4a14.82,14.82,0,0,0,3.39-.1C14.38,65.1,17.67,65,21,65l9.94-.24L41,64.5c1.23,0,7.54-.08,9.09-.11l8.48-.21,10.28-.26L79,63.7c3.34-.08,6.69-.18,10-.12a15.22,15.22,0,0,0,3.44-.06A2.37,2.37,0,0,0,94.06,60.58Z"/><path class="cls-20" d="M13.09,65.15c-.84-.13-1.05-1.36-1.12-2A4.39,4.39,0,0,1,12.43,61a0,0,0,0,0-.07,0,3.25,3.25,0,0,0-.53,2.72,4,4,0,0,0,.17.63A2.62,2.62,0,0,1,12,61a.06.06,0,0,0-.09-.07,2.88,2.88,0,0,0,.52,4.14h.06a.79.79,0,0,0,.6.25C13.19,65.33,13.18,65.16,13.09,65.15Z"/><path class="cls-20" d="M13.22,65a3.39,3.39,0,0,1-.1-4,.06.06,0,0,0-.09-.08,3.08,3.08,0,0,0-.79,2.07,2.88,2.88,0,0,0,.87,2.15C13.18,65.11,13.27,65,13.22,65Z"/><path class="cls-20" d="M23.13,65a5.29,5.29,0,0,1-.8-4.76.06.06,0,1,0-.11-.05c-.69,1.46-.73,4,.77,5A.1.1,0,0,0,23.13,65Z"/><path class="cls-20" d="M24,65a5.25,5.25,0,0,1-.77-4.67s-.06-.08-.08,0a4,4,0,0,0-.39,2.44c0,.15.06.32.09.49-.07-.15-.15-.31-.21-.47a3.71,3.71,0,0,1,.11-2.46.07.07,0,0,0-.12,0c-.63,1.38-.63,3.39.7,4.4l.05,0a1.93,1.93,0,0,0,.45.49C23.9,65.23,24.05,65.1,24,65Z"/><path class="cls-20" d="M36.33,64.51a6.78,6.78,0,0,1-.93-2.28,4.29,4.29,0,0,1,.21-1.95c0-.13.2-.35.17-.51a.07.07,0,0,0-.07-.06c-.52.1-.71,1.65-.7,2.06a3.32,3.32,0,0,0,1.22,2.83C36.28,64.63,36.37,64.58,36.33,64.51Z"/><path class="cls-20" d="M37.38,64.48c-.85-1.33-1.58-3-1-4.6,0-.08-.07-.11-.11-.05-.72,1.3-.48,4,.95,4.8C37.36,64.69,37.43,64.55,37.38,64.48Z"/><path class="cls-20" d="M51,61.4c-.09-.65,0-1.25,0-1.88,0-.09-.11-.09-.14,0a4.27,4.27,0,0,0,.55,4,.07.07,0,0,0,.11-.07A11.35,11.35,0,0,1,51,61.4Z"/><path class="cls-20" d="M50.94,64.28a8.93,8.93,0,0,1-.86-4.71c0-.1-.12-.11-.14,0a6,6,0,0,0,0,2.6,4.9,4.9,0,0,0,.79,2.25A.12.12,0,0,0,50.94,64.28Z"/><path class="cls-20" d="M50.51,64.47a9.68,9.68,0,0,1-.81-2.28,12,12,0,0,1,0-2.54.08.08,0,1,0-.15,0c-.29,1.51-.52,3.85.77,5C50.4,64.73,50.57,64.59,50.51,64.47Z"/><path class="cls-20" d="M59.51,60.57c0-.34.07-1.15-.16-1.41,0,0-.09,0-.09,0a6.74,6.74,0,0,0,.43,3.67c0,.06.13,0,.12,0C59.72,62.07,59.57,61.33,59.51,60.57Z"/><path class="cls-20" d="M60.51,61.52c0-.78.05-1.56,0-2.33a.08.08,0,0,0-.16,0A9.28,9.28,0,0,0,60.65,64c0,.06.11,0,.1,0C60.7,63.18,60.56,62.35,60.51,61.52Z"/><path class="cls-20" d="M59.92,61.32c-.06-.65,0-1.31,0-2,0-.08-.13-.07-.15,0a6.23,6.23,0,0,0,.44,4.15s.1,0,.09,0A13,13,0,0,1,59.92,61.32Z"/><path class="cls-20" d="M68.36,61.46a15.62,15.62,0,0,0,0-2.37c0-.09-.16-.1-.17,0-.13,1.51-.5,3.72.56,5a.12.12,0,0,0,.2-.12A10.29,10.29,0,0,1,68.36,61.46Z"/><path class="cls-20" d="M69.13,61.69c-.07-.84.09-1.65.08-2.48,0-.11-.15-.09-.17,0-.33,1.37-.73,3.79.43,4.91.07.07.22,0,.2-.12A12.93,12.93,0,0,1,69.13,61.69Z"/><path class="cls-20" d="M81.2,61.71c0-.87-.21-2.4-1-2.94a.06.06,0,0,0-.09.07,9.11,9.11,0,0,1,.62,2.62c.08.74-.28,1.53-.17,2.22,0,.07.1.14.17.1C81.33,63.45,81.21,62.28,81.2,61.71Z"/><path class="cls-20" d="M81.25,58.85a.1.1,0,0,0-.18.1,7,7,0,0,1,.38,4.49c0,.07.06.14.11.07A4.14,4.14,0,0,0,81.25,58.85Z"/><path class="cls-20" d="M91.55,60.55a2.78,2.78,0,0,0-.77-2c-.09-.07-.2,0-.14.14.87,1.32.61,3.21.42,4.67a.15.15,0,0,0,.29.08A7.09,7.09,0,0,0,91.55,60.55Z"/><path class="cls-20" d="M90.44,58.58a.09.09,0,0,0-.16.09A12.12,12.12,0,0,1,90.74,60a10.43,10.43,0,0,1,.12,1.48.15.15,0,0,0,.3,0A3.81,3.81,0,0,0,90.44,58.58Z"/><path class="cls-21" d="M94.06,60.58a2,2,0,0,0-.71-1.07A2.09,2.09,0,0,1,92,60.62a15.46,15.46,0,0,1-3.4.05c-3.3-.05-6.61,0-9.91.12l-10,.22-10.15.25-8.37.2c-1.53,0-7.75.09-9,.11l-10,.22-9.8.23c-3.24.08-6.49.14-9.72.34a14.94,14.94,0,0,1-3.34.1,2.05,2.05,0,0,1-1.47-1.13A2,2,0,0,0,6,62.59,2.32,2.32,0,0,0,7.72,65.4a14.82,14.82,0,0,0,3.39-.1C14.38,65.1,17.67,65,21,65l9.94-.24L41,64.5c1.23,0,7.54-.08,9.09-.11l8.48-.21,10.28-.26L79,63.7c3.34-.08,6.69-.18,10-.12a15.22,15.22,0,0,0,3.44-.06A2.37,2.37,0,0,0,94.06,60.58Z"/><path class="cls-21" d="M81.11,62.75,70.24,63l-11,.27-9.11.22c-1.67,0-8.44.1-9.77.12l-10.84.24-10.68.26c-3.52.09-7,.15-10.57.37-.57,0-1.16.11-1.75.15a2,2,0,0,0,1.25.77,14.82,14.82,0,0,0,3.39-.1C14.38,65.1,17.67,65,21,65l9.94-.24L41,64.5c1.23,0,7.54-.08,9.09-.11l8.48-.21,10.28-.26L79,63.7c3.34-.08,6.69-.18,10-.12a15.22,15.22,0,0,0,3.44-.06,2,2,0,0,0,1.22-.82c-.6,0-1.2-.07-1.78-.07C88.3,62.57,84.71,62.67,81.11,62.75Z"/><g class="cls-22"><path class="cls-6" d="M8.77,61.12a3.06,3.06,0,0,0-1.27.14.16.16,0,0,0,0,.32,4.19,4.19,0,0,0,.5,0,6.48,6.48,0,0,0,.77-.09A.17.17,0,0,0,8.77,61.12Z"/><path class="cls-6" d="M10.11,60.94a1.1,1.1,0,0,0-.54,0,.16.16,0,0,0,0,.31,1.1,1.1,0,0,0,.54,0A.16.16,0,0,0,10.11,60.94Z"/><path class="cls-6" d="M21.45,60.73a26.2,26.2,0,0,0-4.06,0,20.78,20.78,0,0,0-3.7.21.06.06,0,0,0,0,.11,18.28,18.28,0,0,0,3.47.07A35.87,35.87,0,0,0,21.44,61,.14.14,0,0,0,21.45,60.73Z"/><path class="cls-6" d="M33.56,60.54a21.18,21.18,0,0,0-4.21.05c-1.69,0-3.36,0-5,.15-.07,0-.07.12,0,.13,1.56.09,3.14.17,4.71.19a21.5,21.5,0,0,0,4.54-.18A.17.17,0,0,0,33.56,60.54Z"/><path class="cls-6" d="M48.84,60a37.69,37.69,0,0,0-5.52.06,32.49,32.49,0,0,0-5.41.3c-.08,0-.09.15,0,.15,1.72,0,3.4.1,5.12,0a46.88,46.88,0,0,0,5.81-.21A.18.18,0,0,0,48.84,60Z"/><path class="cls-6" d="M57.73,59.91a24.87,24.87,0,0,0-2.59,0c-.89,0-1.81.16-2.69.14a.07.07,0,0,0,0,.14,12.16,12.16,0,0,0,2.34.07,22.48,22.48,0,0,0,3,0A.15.15,0,0,0,57.73,59.91Z"/><path class="cls-6" d="M67.39,59.84c-1.85-.34-3.75.06-5.6,0-.07,0-.08.08,0,.1a14.53,14.53,0,0,0,2.8.14,13.89,13.89,0,0,0,2.81,0A.12.12,0,0,0,67.39,59.84Z"/><path class="cls-6" d="M78.09,59.67c-2.74-.3-5.49,0-8.24-.08-.18,0-.22.27,0,.29a23.73,23.73,0,0,0,3.77.13c1.5-.1,3,0,4.51-.15A.1.1,0,0,0,78.09,59.67Z"/><path class="cls-6" d="M80.08,59.62a1.63,1.63,0,0,0-1.15-.13c-.16,0-.18.29,0,.3a4.93,4.93,0,0,0,1.08.09C80.12,59.86,80.2,59.69,80.08,59.62Z"/><path class="cls-6" d="M89,59.18a30.18,30.18,0,0,0-6.23.16s-.05.08,0,.08a32.42,32.42,0,0,0,6.23,0A.11.11,0,0,0,89,59.18Z"/><path class="cls-6" d="M92.8,59.32a1.51,1.51,0,0,0-.93-.19c-.14,0-.13.22,0,.24.29,0,.55.14.84.16C92.82,59.53,92.91,59.39,92.8,59.32Z"/></g><path class="cls-20" d="M14,74.72a21.05,21.05,0,0,1-.83-3.09,23.13,23.13,0,0,1-.09-3c0-.12-.16-.1-.19,0a10.19,10.19,0,0,0,.8,6.22C13.73,75,14,74.91,14,74.72Z"/><path class="cls-20" d="M16.44,75.47a11.68,11.68,0,0,1-1.17-3,21.74,21.74,0,0,1-.18-3.13c0-.16-.27-.16-.29,0-.17,2.21-.18,4.53,1.35,6.32C16.27,75.77,16.53,75.64,16.44,75.47Z"/><path class="cls-20" d="M18.52,74.45a17.92,17.92,0,0,1-.84-2.6,16.78,16.78,0,0,1-.15-3,.14.14,0,0,0-.28,0,8.51,8.51,0,0,0,1,5.77C18.36,74.76,18.58,74.61,18.52,74.45Z"/><path class="cls-20" d="M18.7,89.34a17.89,17.89,0,0,1-1.26-5,.08.08,0,1,0-.15,0,10.77,10.77,0,0,0,1.21,5.07C18.57,89.57,18.76,89.46,18.7,89.34Z"/><path class="cls-20" d="M20.9,88.88a18,18,0,0,1-1-3.11,9.16,9.16,0,0,0-.46-2.34.12.12,0,0,0-.22.06c.16.87.22,1.77.37,2.65A9.71,9.71,0,0,0,20.62,89,.15.15,0,0,0,20.9,88.88Z"/><path class="cls-20" d="M23.3,89.41A17.36,17.36,0,0,1,22,83.9c0-.17-.31-.18-.32,0a11.2,11.2,0,0,0,1.24,5.66C23.06,89.77,23.4,89.64,23.3,89.41Z"/><path class="cls-20" d="M24.79,82.47a10.34,10.34,0,0,1-1.15-2.89,32.81,32.81,0,0,1-.44-3.43c0-.12-.21-.13-.22,0a10.09,10.09,0,0,0,1.53,6.48C24.62,82.78,24.88,82.63,24.79,82.47Z"/><path class="cls-20" d="M26.6,82.81a25.48,25.48,0,0,1-1-3.29c-.2-1-.26-2.1-.44-3.15a.12.12,0,0,0-.24,0c.26,2.3.37,4.41,1.46,6.5A.12.12,0,0,0,26.6,82.81Z"/><path class="cls-20" d="M28.79,81.63a29.18,29.18,0,0,1-1-4.09.11.11,0,0,0-.21,0,9.51,9.51,0,0,0,1,4.21A.15.15,0,0,0,28.79,81.63Z"/><path class="cls-20" d="M29,76.43a22.06,22.06,0,0,1-.67-2.54c-.15-1-.25-2.1-.38-3.14a.13.13,0,0,0-.26,0,15.07,15.07,0,0,0,1,5.73C28.75,76.65,29,76.6,29,76.43Z"/><path class="cls-20" d="M31.59,76.48a15.67,15.67,0,0,1-1.08-3.06A18.84,18.84,0,0,0,30,70.85a.09.09,0,0,0-.18.05c.37,2,.3,4,1.47,5.76A.18.18,0,0,0,31.59,76.48Z"/><path class="cls-20" d="M32.73,70.83a.07.07,0,0,0-.14,0,43.12,43.12,0,0,0,1,5.15c0,.14.28.08.25-.07C33.58,74.24,33.21,72.5,32.73,70.83Z"/><path class="cls-20" d="M43.1,80.25a.1.1,0,0,0-.19,0,11,11,0,0,0,.2,5.13c0,.18.36.1.32-.09A16.54,16.54,0,0,1,43.1,80.25Z"/><path class="cls-20" d="M44.85,80.47c0-.18-.32-.18-.33,0a15.61,15.61,0,0,0,.61,5.81.15.15,0,0,0,.29-.08A44,44,0,0,1,44.85,80.47Z"/><path class="cls-20" d="M48.85,85.54a22,22,0,0,1-1.15-5.68c0-.18-.27-.13-.27,0a12.79,12.79,0,0,0,1.11,5.77A.17.17,0,0,0,48.85,85.54Z"/><path class="cls-20" d="M50.24,74c0-.09-.17-.09-.17,0a26.94,26.94,0,0,0,.33,6.53.14.14,0,0,0,.28,0A64.3,64.3,0,0,1,50.24,74Z"/><path class="cls-20" d="M52.73,73.43c0-.15-.2-.17-.23,0a13.72,13.72,0,0,0-.09,6.34.14.14,0,0,0,.27,0A29.21,29.21,0,0,1,52.73,73.43Z"/><path class="cls-20" d="M55.11,76.33c-.08-1.16,0-2.33,0-3.48,0-.15-.23-.14-.25,0a13.55,13.55,0,0,0,.66,7.25A.15.15,0,0,0,55.8,80,35.76,35.76,0,0,1,55.11,76.33Z"/><path class="cls-20" d="M66.1,81c.1-1.17.39-2.34.56-3.51a.11.11,0,0,0-.22,0c-.58,2.45-1.19,4.82-.57,7.32a.2.2,0,0,0,.39-.05A17.25,17.25,0,0,1,66.1,81Z"/><path class="cls-20" d="M68.5,78.61a.14.14,0,0,0-.28,0A18.06,18.06,0,0,0,68,85.2a.15.15,0,0,0,.3,0A41,41,0,0,1,68.5,78.61Z"/><path class="cls-20" d="M71.46,80.7a26.8,26.8,0,0,0,.14-3.1c0-.13-.21-.1-.21,0,0,1.12-.29,2.26-.36,3.38a13.39,13.39,0,0,0,.15,3.35.16.16,0,0,0,.31,0C71.45,83.11,71.42,81.91,71.46,80.7Z"/><path class="cls-20" d="M81.44,77.91a16.32,16.32,0,0,0-.88,6.61.12.12,0,0,0,.24,0c.08-1.1.07-2.2.21-3.3s.54-2.18.6-3.27C81.61,77.86,81.47,77.81,81.44,77.91Z"/><path class="cls-20" d="M83.59,78.25c-.37,2.37-1,4.69-.74,7.12,0,.21.37.22.38,0a36.28,36.28,0,0,1,.2-3.76c.12-1.11.39-2.21.42-3.33A.13.13,0,0,0,83.59,78.25Z"/><path class="cls-20" d="M72.56,88.54c0-.78.16-1.56.18-2.34a.08.08,0,0,0-.15,0,6.36,6.36,0,0,0-.34,2.34,9.43,9.43,0,0,0,.23,2.75c0,.18.32.15.29,0A14,14,0,0,1,72.56,88.54Z"/><path class="cls-20" d="M74.89,86.39c0-.11-.14-.14-.19,0a8,8,0,0,0-.07,5.07.14.14,0,0,0,.27-.07A12.5,12.5,0,0,1,74.89,86.39Z"/><path class="cls-20" d="M77.39,86.46a.11.11,0,0,0-.22,0,17.2,17.2,0,0,0,.1,4.7.18.18,0,0,0,.35,0C77.44,89.57,77.59,88,77.39,86.46Z"/><path class="cls-20" d="M74.31,73.31c.07-1,.31-1.9.47-2.86a.08.08,0,0,0-.16,0c-.49,2.09-1,4.08-.29,6.2,0,.12.24.06.22-.06A13.75,13.75,0,0,1,74.31,73.31Z"/><path class="cls-20" d="M77.19,73.35c0-.88.18-1.75.18-2.64,0-.13-.23-.13-.23,0-.15,2.12-.67,4.16,0,6.26.05.19.34.1.32-.09A19.76,19.76,0,0,1,77.19,73.35Z"/><path class="cls-20" d="M80.3,70.81c0-.17-.26-.21-.27,0-.11,2.08-.76,4.14-.37,6.24A.15.15,0,0,0,80,77,60.43,60.43,0,0,1,80.3,70.81Z"/><path class="cls-20" d="M31.92,65.75a19.22,19.22,0,0,1-5.35.46c-.09,0-.1.12,0,.14A9.84,9.84,0,0,0,32,66.07C32.18,66,32.11,65.71,31.92,65.75Z"/><path class="cls-20" d="M32.72,67.6c-1.91.38-4.16,1-6.12.51-.07,0-.1.1,0,.13a6.28,6.28,0,0,0,2.66.33,9.64,9.64,0,0,0,3.57-.68C33,67.82,32.89,67.56,32.72,67.6Z"/><path class="cls-20" d="M26.3,70.58a13.61,13.61,0,0,1-5.05.1c-.07,0-.11.1,0,.13a7.29,7.29,0,0,0,5.16.09C26.55,70.82,26.49,70.54,26.3,70.58Z"/><path class="cls-20" d="M26.63,73.09a21.23,21.23,0,0,1-5.1.14c-.09,0-.13.13,0,.15a9.81,9.81,0,0,0,5.24.08C27,73.4,26.84,73.06,26.63,73.09Z"/><path class="cls-20" d="M26.45,75.31a17.74,17.74,0,0,1-4.77-.12c-.09,0-.12.12,0,.15a7.28,7.28,0,0,0,4.89.24C26.69,75.53,26.61,75.3,26.45,75.31Z"/><path class="cls-20" d="M35.28,77a23,23,0,0,1-6.13.73c-.2,0-.25.3,0,.32a14,14,0,0,0,6.27-.7A.18.18,0,0,0,35.28,77Z"/><path class="cls-20" d="M34.73,79.88a18.73,18.73,0,0,1-5.49.24.14.14,0,0,0-.07.26,9.83,9.83,0,0,0,5.66-.13A.19.19,0,0,0,34.73,79.88Z"/><path class="cls-20" d="M34.55,82.58c-1.5.31-3.34,1-4.88.68a.12.12,0,0,0-.06.22c1.48.51,3.62,0,5-.49A.22.22,0,0,0,34.55,82.58Z"/><path class="cls-20" d="M29.4,84.4c-1.88,0-3.76.34-5.64-.08-.07,0-.1.09,0,.12a9.79,9.79,0,0,0,5.67.29C29.56,84.69,29.61,84.4,29.4,84.4Z"/><path class="cls-20" d="M29.9,86.07a21.23,21.23,0,0,1-5.34.2c-.13,0-.15.17,0,.2a12.7,12.7,0,0,0,5.42,0A.21.21,0,0,0,29.9,86.07Z"/><path class="cls-20" d="M29.85,87.87a16,16,0,0,1-5.38.45c-.11,0-.16.16,0,.19a9.09,9.09,0,0,0,5.5-.36C30.08,88.1,30,87.85,29.85,87.87Z"/><path class="cls-20" d="M20.25,76.93c-2,0-4,.48-6,.23-.12,0-.14.16,0,.19a12.8,12.8,0,0,0,6.12-.15C20.49,77.16,20.39,76.93,20.25,76.93Z"/><path class="cls-20" d="M20,79.71c-1.55-.21-3.1-.18-4.65-.32a.1.1,0,0,0,0,.2A31.37,31.37,0,0,0,20,80C20.16,80,20.2,79.73,20,79.71Z"/><path class="cls-20" d="M20.37,82.08a26.63,26.63,0,0,1-4.64.12.13.13,0,0,0,0,.26,9.11,9.11,0,0,0,4.75-.13A.13.13,0,0,0,20.37,82.08Z"/><path class="cls-20" d="M47.74,75.26c-2.16.07-4.27.15-6.43,0a.08.08,0,0,0,0,.16,17.43,17.43,0,0,0,6.48,0A.13.13,0,0,0,47.74,75.26Z"/><path class="cls-20" d="M49,77.45c-1.38,0-2.76.18-4.15.23a33.56,33.56,0,0,1-3.87-.2.09.09,0,0,0,0,.18,22.39,22.39,0,0,0,8.08.08A.15.15,0,0,0,49,77.45Z"/><path class="cls-20" d="M48.2,79.36a39,39,0,0,1-7.4.14.08.08,0,0,0,0,.16,13.44,13.44,0,0,0,3.23.21,23.84,23.84,0,0,0,4.22-.31A.1.1,0,0,0,48.2,79.36Z"/><path class="cls-20" d="M55,68.18c-1,0-1.89.1-2.85.08s-1.81-.16-2.69-.26a.06.06,0,0,0,0,.12,13.08,13.08,0,0,0,5.56.36C55.11,68.44,55.13,68.18,55,68.18Z"/><path class="cls-20" d="M54.82,69.79a21.65,21.65,0,0,1-5.63-.21c-.08,0-.12.12,0,.16a11.13,11.13,0,0,0,5.7.28A.12.12,0,0,0,54.82,69.79Z"/><path class="cls-20" d="M55.3,71.26a19.61,19.61,0,0,1-7.44.26c-.09,0-.1.1,0,.12a14.09,14.09,0,0,0,7.54-.09C55.54,71.5,55.46,71.23,55.3,71.26Z"/><path class="cls-20" d="M72.87,71.5a21.92,21.92,0,0,1-4,.16,25.57,25.57,0,0,1-3.48-.6.1.1,0,0,0-.06.19,12.78,12.78,0,0,0,7.56.57A.16.16,0,0,0,72.87,71.5Z"/><path class="cls-20" d="M72.09,73.83A20.54,20.54,0,0,1,66,73.57c-.1,0-.14.15,0,.18a11.27,11.27,0,0,0,6.14.42A.17.17,0,0,0,72.09,73.83Z"/><path class="cls-20" d="M73.16,75.89a15.33,15.33,0,0,1-7.67.36c-.18,0-.2.23,0,.27a12.2,12.2,0,0,0,7.85-.31C73.5,76.12,73.37,75.83,73.16,75.89Z"/><path class="cls-20" d="M87.5,70.63a38.5,38.5,0,0,1-5.26-.21c-.12,0-.14.16,0,.19A19.06,19.06,0,0,0,87.5,71C87.7,71,87.7,70.63,87.5,70.63Z"/><path class="cls-20" d="M86.34,72.72a14.52,14.52,0,0,1-4,.07.11.11,0,0,0,0,.22,9.9,9.9,0,0,0,4,0A.16.16,0,0,0,86.34,72.72Z"/><path class="cls-20" d="M85.86,75.46a10.55,10.55,0,0,1-4.43.33c-.11,0-.16.15-.05.19a6.3,6.3,0,0,0,4.56-.21C86.1,75.7,86,75.43,85.86,75.46Z"/><path class="cls-20" d="M79.05,77.92a23.7,23.7,0,0,1-5.19,0c-.1,0-.15.15,0,.18a9.16,9.16,0,0,0,2.45.26,15.73,15.73,0,0,0,2.83-.1A.18.18,0,0,0,79.05,77.92Z"/><path class="cls-20" d="M78.58,81a31.44,31.44,0,0,1-5.57-.5c-.15,0-.21.21-.07.25a17,17,0,0,0,5.64.6C78.78,81.38,78.78,81,78.58,81Z"/><path class="cls-20" d="M78.43,84.13A16.85,16.85,0,0,1,73,83.75a.13.13,0,0,0-.07.25,11.67,11.67,0,0,0,5.56.49A.18.18,0,0,0,78.43,84.13Z"/><g class="cls-23"><path class="cls-18" d="M54.67,68.63c.25,0,.5.37.24.58a3.7,3.7,0,0,1-2.15.49,7.84,7.84,0,0,1-2.84-.46.3.3,0,0,1-.14-.1c-.34-.13-.16-.69.24-.63a16.43,16.43,0,0,0,2.8.22A14.34,14.34,0,0,1,54.67,68.63Z"/><path class="cls-18" d="M52.08,80.09a.31.31,0,0,1-.13.36.33.33,0,0,1-.6.06,8,8,0,0,1-.8-4.15c0-.69,0-2.18.77-2.49a.37.37,0,0,1,.33.09c.38.33.26,1.1.2,1.54A10.77,10.77,0,0,0,52.08,80.09Z"/><path class="cls-18" d="M50.14,71.42c-.53,0-1.42-.34-1.58-.93-.21-.23.1-.67.44-.5,1.61.78,3.64.57,5.36.42.39,0,.45.56.09.66A12.77,12.77,0,0,1,50.14,71.42Z"/><path class="cls-18" d="M53.72,73.52a.34.34,0,0,1,.56.15,3,3,0,0,1-.18,1.86,7.78,7.78,0,0,0,0,2.68c.14.65.41,1.22.57,1.85a.34.34,0,0,1-.5.38c-1.06-.47-1.37-2.09-1.4-3.12S52.8,74.33,53.72,73.52Z"/><path class="cls-18" d="M32.4,72.68c.06.7.13,1.39.24,2.09a1.89,1.89,0,0,1-.06,1,.34.34,0,0,1-.49.2c-1-.64-1.11-2.35-1.15-3.49s0-2,.68-1.88S32.35,72.15,32.4,72.68Z"/><path class="cls-18" d="M33.67,79.57a9.37,9.37,0,0,1-4-.17.34.34,0,0,1-.18-.1.62.62,0,0,1-.14-.14.43.43,0,0,1,.12-.54.1.1,0,0,1,.05,0,.27.27,0,0,1,.28-.16,16.08,16.08,0,0,0,2.86-.14c.84-.09,1.58-.38,2.39-.5a.35.35,0,0,1,.43.32C35.56,79,34.4,79.41,33.67,79.57Z"/><path class="cls-18" d="M35,81.09c-.72,2-4.05,1.7-5.34.57a.33.33,0,0,1,.05-.51.31.31,0,0,1,.4-.27,6.55,6.55,0,0,0,2.82.14c.45-.06,1.48-.59,1.91-.31A.34.34,0,0,1,35,81.09Z"/><path class="cls-18" d="M28.49,73.08c0-.66-.2-1.63.33-2.13a.33.33,0,0,1,.41,0c.57.38.4,1.47.46,2,.1.92.64,1.92.48,2.83a.29.29,0,0,1-.28.24.26.26,0,0,1-.36-.07A5.05,5.05,0,0,1,28.49,73.08Z"/><path class="cls-18" d="M27,66.64a9.4,9.4,0,0,0,2.85.21,9.42,9.42,0,0,1,1.83-.11.34.34,0,0,1,.15.56,4.48,4.48,0,0,1-3.22.71,3,3,0,0,1-1.93-.74.32.32,0,0,1-.06-.15A.33.33,0,0,1,27,66.64Z"/><path class="cls-18" d="M27.51,82.27c-1.54.42-1.77-4.42-1.68-5.12a.35.35,0,0,1,.33-.31.32.32,0,0,1,.51-.06,1.31,1.31,0,0,1,.39.91,13.79,13.79,0,0,0,.46,2.47C27.66,80.58,28.32,82.05,27.51,82.27Z"/><path class="cls-18" d="M26.74,74.39a1.51,1.51,0,0,1-1,.7,4.25,4.25,0,0,1-4.12-.7.32.32,0,0,1,.16-.55.27.27,0,0,1,.28-.06,11.39,11.39,0,0,0,4.43.11C26.71,73.85,26.85,74.19,26.74,74.39Z"/><path class="cls-18" d="M26.2,72.23a4.92,4.92,0,0,1-4.56.46c-.29-.15-.77-.6-.3-.88h0a.37.37,0,0,1,.42-.33,27.67,27.67,0,0,0,4.27.14A.33.33,0,0,1,26.2,72.23Z"/><path class="cls-18" d="M20.38,77.77a.34.34,0,0,1,.34.33c.1,1.3-2.17,1.18-2.94,1.14-.6,0-2.51,0-2.83-.77a.34.34,0,0,1,.28-.6C17,78.28,18.66,77.76,20.38,77.77Z"/><path class="cls-18" d="M15.48,69.84a.18.18,0,0,1,.06-.09,1.17,1.17,0,0,1,.15-.27.68.68,0,0,1,.43-.31.25.25,0,0,1,.39.11,3.27,3.27,0,0,1,.14,1.21A18.43,18.43,0,0,0,17,72.57c.09.36.5,1.38.12,1.7s-.62.13-.88-.18A4.53,4.53,0,0,1,15.48,69.84Z"/><path class="cls-18" d="M13.92,74.09c-.36-.34-.42-1.18-.5-1.64a7.28,7.28,0,0,1,0-2.55.14.14,0,0,1,0-.06.91.91,0,0,1,.44-.71c.73-.38.71,2.88.72,3.12S14.82,75,13.92,74.09Z"/><path class="cls-18" d="M19.87,89a.34.34,0,0,1-.57.24c-.92-.93-1.12-2.43-1.31-3.74,0-.17-.06-.35-.08-.53,0,0,0,0,0-.08v-.06c0-.51.1-.92.57-.92.74,0,.69,1.25.76,1.7A15.46,15.46,0,0,1,19.87,89Z"/><path class="cls-18" d="M19.91,81.48c-1.24.79-5,.7-5.6-.94a.31.31,0,0,1,.14-.36c0-.22.13-.47.4-.36,1.55.61,3.16.26,4.76.49C20.28,80.4,20.58,81.06,19.91,81.48Z"/><path class="cls-18" d="M21.35,88.82a6.64,6.64,0,0,1-1.2-4.17,2.93,2.93,0,0,1,.11-.9c.11-.39.45-.89.93-.61s.3,1,.3,1.51a10,10,0,0,0,.18,2.62,5.41,5.41,0,0,1,.25,1.31A.34.34,0,0,1,21.35,88.82Z"/><path class="cls-18" d="M23.83,77.06a.49.49,0,0,1,.69-.13,2.63,2.63,0,0,1,.31,1.47c.07,1,.39,2,.51,2.95.05.34-.47.44-.62.17A7.11,7.11,0,0,1,23.83,77.06Z"/><path class="cls-18" d="M24.52,84.83c1.23.62,2.7.16,4,.31.23,0,.45.27.29.51-.49.7-1.44.54-2.2.54s-1.95,0-2.48-.76a.26.26,0,0,1,0-.08C23.86,85.12,24.17,84.66,24.52,84.83Z"/><path class="cls-18" d="M24.07,87.14a.34.34,0,0,1,.42-.41l.19.07a.33.33,0,0,1,.22,0,21,21,0,0,0,3.8.3.34.34,0,0,1,.24.57c-.69.7-2.07.54-3,.48S24.38,88,24.07,87.14Z"/><path class="cls-18" d="M70.38,84c0,.34.06.91-.44.91s-.85-.79-1-1.14a5.67,5.67,0,0,1-.29-3.16,7.19,7.19,0,0,1,.43-1.76c.17-.44.51-1.36,1.14-1.29a.49.49,0,0,1,.38.34,2.24,2.24,0,0,1,.13.92l-.09.54c-.08.54-.15,1.09-.21,1.63a13.57,13.57,0,0,0-.09,1.91C70.32,83.3,70.35,83.67,70.38,84Z"/><path class="cls-18" d="M69.15,76.25c-1.08,0-3.5,0-3.7-1.49a.36.36,0,0,1,.12-.34.31.31,0,0,1,.41-.28,10.34,10.34,0,0,0,3.66.65,11.11,11.11,0,0,1,2.21-.18.32.32,0,0,1,.24.32C72,76.29,70.1,76.25,69.15,76.25Z"/><path class="cls-18" d="M67.48,83.62l.06,1a.34.34,0,0,1-.58.24,4.6,4.6,0,0,1-.58-3.61c.15-.86.16-2.5.89-3.11a.34.34,0,0,1,.57.24,11.7,11.7,0,0,1-.28,1.84,2.83,2.83,0,0,0,0,.29c0,.47-.1.94-.11,1.4A16.66,16.66,0,0,0,67.48,83.62Z"/><path class="cls-18" d="M69.36,73.65c-1.13-.05-2.57-.14-3.35-1.1a.27.27,0,0,1-.07-.14c-.18-.23,0-.65.33-.53a10.18,10.18,0,0,0,3.37.6,23.73,23.73,0,0,0,2.67-.32c.27,0,.39.3.29.5C72,73.77,70.42,73.71,69.36,73.65Z"/><path class="cls-18" d="M73.7,91.55a3.63,3.63,0,0,1-1-3.15c.07-.77.11-2.15.87-2.6a.35.35,0,0,1,.5.2,3.11,3.11,0,0,1,0,.61.32.32,0,0,1,.08.29A6.72,6.72,0,0,0,74,89.54a6.6,6.6,0,0,1,.23,1.72C74.2,91.49,73.92,91.72,73.7,91.55Z"/><path class="cls-18" d="M76.7,89.84a4.75,4.75,0,0,1,0,1.19c-.09.31-.33.67-.71.48C75,91,74.81,88.64,74.92,87.68a3.23,3.23,0,0,1,.88-2.2.51.51,0,0,1,.79.11A3.13,3.13,0,0,1,76.82,87a.31.31,0,0,1,0,.19A14.46,14.46,0,0,0,76.7,89.84Z"/><path class="cls-18" d="M77.19,83.52a6.42,6.42,0,0,1-3.31-.47c-1-.26-1.79-.72-1.18-1.43a.33.33,0,0,1,.33-.08l.43.15a10.63,10.63,0,0,0,2.65.23,15.68,15.68,0,0,1,2.65,0,.33.33,0,0,1,.24.23C79.17,83,77.83,83.38,77.19,83.52Z"/><path class="cls-18" d="M77.23,80.57a6.73,6.73,0,0,1-4-1.16.27.27,0,0,1-.09-.3.33.33,0,0,1,.38-.48,13.47,13.47,0,0,0,3.3.27c.86,0,1.77-.11,2.61,0a.34.34,0,0,1,.24.33C79.68,80.27,78,80.59,77.23,80.57Z"/><path class="cls-18" d="M76.5,75.31c.09.42.12,1.13-.41,1.28-1.23.34-1.48-2.73-1.48-3.33s.32-3.8,1.61-3.05a.73.73,0,0,1,.36.62.28.28,0,0,1,.13.36A7.79,7.79,0,0,0,76.5,75.31Z"/><path class="cls-18" d="M79.08,75.49c0,.37.15.79-.12,1.1a.32.32,0,0,1-.4,0c-.78-.4-.92-1.57-1-2.34a7.25,7.25,0,0,1,.45-3.67.49.49,0,0,1,.56-.27.35.35,0,0,1,.37,0c.63.25.41,1.53.19,2.45A12.3,12.3,0,0,0,79.08,75.49Z"/><path class="cls-18" d="M82.89,78.35a27.24,27.24,0,0,0-.31,4.78c0,.53,0,1.61-.64,1.79a.33.33,0,0,1-.33-.08,4.77,4.77,0,0,1-.48-3A14.53,14.53,0,0,1,82,78.32a.5.5,0,0,1,.88,0Z"/><path class="cls-18" d="M87.72,73.63c-.94,1.87-5.32,2.48-6.37.41l0-.1s0,0,0,0a.34.34,0,0,1,0-.1v0a.51.51,0,0,1,.44-.55h.09a.67.67,0,0,1,.39.08,9.16,9.16,0,0,0,5.16-.17C87.64,73,87.84,73.38,87.72,73.63Z"/><path class="cls-18" d="M82,71.27a.33.33,0,0,1,.41-.31,18.44,18.44,0,0,0,4.92.23.34.34,0,0,1,.24.57,4.89,4.89,0,0,1-5.57,0A.31.31,0,0,1,82,71.27Z"/><path class="cls-18" d="M47.88,85.7c.12.4-.16,1-.66.85-1.84-.5-2.2-3.38-2.06-4.93.06-.59.17-1.39.8-1.65.43-.18,1-.17,1.15.38a3.61,3.61,0,0,1,0,1.6A9.58,9.58,0,0,0,47.88,85.7Z"/><path class="cls-18" d="M43.72,79.23A4.43,4.43,0,0,1,41,78.55a.29.29,0,0,1-.09-.28c-.09-.23.08-.55.38-.44,2.23.8,4.41.28,6.7.3a.34.34,0,0,1,.09.66A12.73,12.73,0,0,1,43.72,79.23Z"/><path class="cls-18" d="M44.29,81.59a14.34,14.34,0,0,0,.34,4c0,.29-.32.63-.56.33a4.7,4.7,0,0,1-.81-2.64,6,6,0,0,1,.13-2.6.46.46,0,0,1,.87,0,1.36,1.36,0,0,1,0,.8A.33.33,0,0,1,44.29,81.59Z"/><path class="cls-18" d="M41.35,76h0a.35.35,0,0,1,.18,0,33.46,33.46,0,0,0,6.25,0,.34.34,0,0,1,.33.34c0,1.09-1.8,1-2.53,1-1.56.06-3.23.38-4.51-.74A.34.34,0,0,1,41.35,76Z"/></g><g class="cls-24"><path class="cls-18" d="M8.68,64.8c1.2,4.8,4.3,16.83,6.17,21.38,2.36,5.73,1.26,8.24,9,9,6.69.67,20.46.36,26.28.21,5.82.15,19.59.46,26.28-.21,7.77-.79,6.68-3.3,9-9,1.87-4.55,5.21-18.45,6.42-23.25ZM82.82,85.86a8.4,8.4,0,0,1-1.4,1.32c-2.73,2-6.42,2.64-9.81,2.91-1.94.15-3.88.17-5.83.19-6.83.09-13.64.66-20.47.76q-4.81.08-9.65,0c-5-.1-10.53.42-15.18-1.76a13,13,0,0,1-6.08-6.78c-1.82-4.08-5.55-14.44,3-14,2.4.13,4.76.16,7.16.18,7.4.06,14.79.26,22.19.11q3.21-.06,6.42-.22c7.56-.39,18.54-1.08,26.11-1.29,2.26-.06,5.1-.49,7.22.41C90.8,69.54,84.41,84,82.82,85.86Z"/></g><path class="cls-25" d="M36.3,70.28c-3.27,0-6.54,0-9.8,0-2.39,0-5.48-.48-7.74.31-2.89,1-1.16,4.5-.34,6.15a9.62,9.62,0,0,0,3.95,3.92C27,83.33,33.26,84,38.84,84.26c4.59.21,9.19.12,13.78-.11,6.07-.29,12.34-.2,18.27-1.44a19.33,19.33,0,0,0,13-9.37c.59-1.12,2-3.35.17-4.18-2-.91-24.41.86-33.06,1Q43.63,70.21,36.3,70.28Z"/><g class="cls-26"><path class="cls-18" d="M83.28,90c-5.26,3.84-23,3.14-26.1,3.21-6.29.14-12.58.17-18.87.14-3.17,0-15-.67-17.66-1.21a9.05,9.05,0,0,1-4.57-2.19c1,3.14,1.9,4.69,7.71,5.28,6.68.67,20.45.36,26.27.21,5.82.15,19.6.46,26.28-.21,6.34-.64,6.78-2.43,8-6.17A8.59,8.59,0,0,1,83.28,90Z"/><path class="cls-18" d="M15.44,65.64c4.4-.39,8.86-.11,13.27-.13,6.34,0,12.68-.29,19-.32s12.75.11,19.12,0,12.58-.74,18.83-.41c1.29.06,3.83,0,4.68,1.26a2.34,2.34,0,0,1,.36,1.19l1.06-4.27L8.58,64.8l.65,2.55a5,5,0,0,1,1.47-.71A14.29,14.29,0,0,1,15.44,65.64Z"/></g><path class="cls-6" d="M36.61,89.66a2.15,2.15,0,0,1-2.5-2.43,3.12,3.12,0,0,1,.36-1.51,6.31,6.31,0,0,1,1-1.32l5.24-5.48a11.25,11.25,0,0,0,1.7-2.16A3.71,3.71,0,0,0,42.89,75a2.06,2.06,0,0,0-.75-1.73A3.51,3.51,0,0,0,40,72.64a6,6,0,0,0-1.51.21,9.15,9.15,0,0,0-1.77.69,2.15,2.15,0,0,1-1.42.21,2.07,2.07,0,0,1-1.1-.65,2.28,2.28,0,0,1-.34-2.49,2.31,2.31,0,0,1,1.11-1.07,10.93,10.93,0,0,1,2.86-1.1,13.31,13.31,0,0,1,3-.35,10.33,10.33,0,0,1,4.14.73,5.39,5.39,0,0,1,2.54,2.12,6.21,6.21,0,0,1,.87,3.35,8.19,8.19,0,0,1-.38,2.48,9.18,9.18,0,0,1-1.2,2.41,18.37,18.37,0,0,1-2.21,2.6L39.68,86.6V85.18h7.4a2.32,2.32,0,0,1,1.71.57,2.26,2.26,0,0,1,.57,1.66,2,2,0,0,1-2.28,2.25Z"/><path class="cls-6" d="M55.08,89.66a2.32,2.32,0,0,1-1.73-.6,2.27,2.27,0,0,1-.59-1.65,2.23,2.23,0,0,1,.59-1.66,2.39,2.39,0,0,1,1.73-.57h2.65V72.85h2.55l-4.36,2.71a2.16,2.16,0,0,1-1.47.37,1.94,1.94,0,0,1-1.16-.59,2.47,2.47,0,0,1-.63-1.17,2.33,2.33,0,0,1,.1-1.4,2.25,2.25,0,0,1,1.09-1.16L58,69a5.19,5.19,0,0,1,1.34-.65,4.84,4.84,0,0,1,1.49-.23,2.51,2.51,0,0,1,1.79.61,2.22,2.22,0,0,1,.64,1.71V85.18h2.38a2.34,2.34,0,0,1,1.7.57A2.23,2.23,0,0,1,68,87.41a2.27,2.27,0,0,1-.59,1.67,2.31,2.31,0,0,1-1.7.58Z"/></g></g></svg>