<svg xmlns="http://www.w3.org/2000/svg" viewBox="0 0 105.29 104.84"><defs><style>.cls-1{isolation:isolate;}.cls-2{fill:#e30613;}.cls-14,.cls-3,.cls-9{fill:#c80613;}.cls-14,.cls-3,.cls-8{mix-blend-mode:multiply;}.cls-4{fill:#f4a081;mix-blend-mode:color-dodge;}.cls-5{fill:#3d1a0b;}.cls-6{fill:#fff;}.cls-7{fill:#790613;}.cls-10{fill:#623f24;}.cls-11{fill:#a06640;}.cls-12{fill:#279235;}.cls-13{fill:#8abd24;}.cls-14{opacity:0.5;}</style></defs><title>apple6</title><g class="cls-1"><g id="Layer_1" data-name="Layer 1"><path class="cls-2" d="M58.33,33.3a15.84,15.84,0,0,1,11.91-9.07c6-.71,7.18,1.41,9.45,2.36s3.87-.38,7.27-1.7,10,.75,12.29,4.72a25.14,25.14,0,0,1-.94,24.58c-5.58,9.64-12.76,9.36-16.17,8.13-2.64-.76-3.6,1.18-7.43.8A20.57,20.57,0,0,1,58,46.53,21.66,21.66,0,0,1,58.33,33.3Z"/><path class="cls-3" d="M75.83,35.93c.08,1.08.46,1.93.87,1.88s.66-1,.59-2-.46-1.93-.86-1.89S75.76,34.84,75.83,35.93Z"/><path class="cls-4" d="M69.74,27.37S64.56,30,63.28,38.79l-3.21-.51a17.37,17.37,0,0,1,8-11.5Z"/><path class="cls-4" d="M59.48,40.39a8.51,8.51,0,0,1,3,.32c-.55,2.2-.77,3.67-.77,3.67l-1.79-.28A9,9,0,0,1,59.48,40.39Z"/><path class="cls-5" d="M75.6,35.76c.08,1.09.46,1.93.86,1.89s.67-1,.59-2-.46-1.93-.86-1.89S75.53,34.68,75.6,35.76Z"/><path class="cls-6" d="M76.38,34.85c0,.32.18.57.3.54s.18-.31.13-.63-.18-.57-.3-.55S76.33,34.52,76.38,34.85Z"/><path class="cls-3" d="M83.65,35c.07,1.1.46,2,.86,1.92s.66-1,.59-2.08-.46-2-.86-1.92S83.57,33.85,83.65,35Z"/><path class="cls-5" d="M83.42,34.79c.07,1.1.46,2,.86,1.91s.66-1,.59-2.07-.46-2-.86-1.92S83.34,33.68,83.42,34.79Z"/><path class="cls-6" d="M84.19,33.86c0,.33.18.58.3.55s.18-.31.14-.64-.18-.58-.3-.56S84.15,33.53,84.19,33.86Z"/><path class="cls-7" d="M72.69,43.89a5.86,5.86,0,0,0,.22,1,6.9,6.9,0,0,0,1.29,2.49,6.21,6.21,0,0,0,1.37,1.27,7.45,7.45,0,0,0,1.88.91,10.38,10.38,0,0,0,2.19.46,12,12,0,0,0,2.32,0,7,7,0,0,0,2.22-.56A6.35,6.35,0,0,0,86,48.27a8.3,8.3,0,0,0,2-3.37,13.2,13.2,0,0,0,.6-2.77,8.54,8.54,0,0,0,.07-1.08,8.92,8.92,0,0,1,0,1.08,13,13,0,0,1-.51,2.81,9.3,9.3,0,0,1-.73,1.78,7.1,7.1,0,0,1-1.28,1.73,6.41,6.41,0,0,1-1.9,1.3,7.23,7.23,0,0,1-2.3.6,12.5,12.5,0,0,1-2.37,0,10.38,10.38,0,0,1-2.24-.48,7.17,7.17,0,0,1-1.91-1,6.84,6.84,0,0,1-1.39-1.34,6.62,6.62,0,0,1-.82-1.39,9.15,9.15,0,0,1-.4-1.18A5.21,5.21,0,0,1,72.69,43.89Z"/><path class="cls-7" d="M87.44,39.7a3.39,3.39,0,0,0,.37.43,3.13,3.13,0,0,0,.42.38,3.84,3.84,0,0,0,.54.35l.3.14.3.11.29.08c.09,0,.18,0,.26.05a1,1,0,0,0,.23,0l.18,0,.16,0-.16,0a2.09,2.09,0,0,1-.42,0h-.29l-.32,0a2.44,2.44,0,0,1-.33-.1,2.33,2.33,0,0,1-.33-.14,2.37,2.37,0,0,1-.57-.41c-.08-.07-.15-.16-.22-.23l-.17-.23A1.82,1.82,0,0,1,87.44,39.7Z"/><g class="cls-8"><path class="cls-9" d="M99.25,29.61c-2.27-4-8.88-6-12.29-4.72s-5,2.64-7.27,1.7c-1.33-.55-2.28-1.5-4-2.06a4.87,4.87,0,0,1,1.2,1.11c1.42,1.89,3.3,3.21,6.14,1.8,5.16-2.55,9.11-1,11.54,2.78,4,6.11,3.92,19.53-3,26.33-4.82,4-8.17,4.07-10.73,2.08S75.39,67,63.19,56.93h0a20.21,20.21,0,0,0,11.52,6.19c3.83.38,4.79-1.56,7.43-.8,3.41,1.23,10.59,1.51,16.17-8.13A25.14,25.14,0,0,0,99.25,29.61Z"/></g><path class="cls-10" d="M78.67,12l0-.06s-.36-.49-1.45,0-1,.8-.53,1.2A3.36,3.36,0,0,0,78.67,12Z"/><path class="cls-11" d="M78.67,12a3.36,3.36,0,0,1-2,1.14c.46.39,4.62,8.38,3.6,14.66a1.74,1.74,0,0,0,.84.23S82.25,17.12,78.67,12Z"/><path class="cls-7" d="M77.71,26.34s2,3.92,6.39.37c0,0-2.11,1.28-3.44,1.15A5.29,5.29,0,0,1,77.71,26.34Z"/><path class="cls-12" d="M80.93,22.51C94.7,24.36,95.27,11.78,95.27,11.78S86,14.24,80.93,22.51Z"/><path class="cls-13" d="M80.93,22.51C86,14.24,95.27,11.78,95.27,11.78,82.67,9.14,80.93,22.51,80.93,22.51Z"/><path class="cls-5" d="M76,31.06A1,1,0,0,0,75,32a.09.09,0,0,0,.13.1,0,0,0,0,0,.07,0,1.45,1.45,0,0,1,1.3-.09c.09,0,.17-.06.19-.15A.71.71,0,0,0,76,31.06Z"/><path class="cls-5" d="M84.19,30.22a1,1,0,0,0-1,1,.1.1,0,0,0,.14.1s0,0,.06,0a1.42,1.42,0,0,1,1.3-.08c.09,0,.18-.07.19-.15A.72.72,0,0,0,84.19,30.22Z"/><path class="cls-7" d="M74.38,37.38s1.58-.71,3,1.17A4.6,4.6,0,0,0,74.38,37.38Z"/><path class="cls-7" d="M86.07,36.57s-1.58-.71-3,1.17A4.63,4.63,0,0,1,86.07,36.57Z"/><path class="cls-14" d="M72.6,43.32s1.65,6.55,8,6.49c4.84-.11,7.55-4,8.07-8.7-1.24-.18-1.3-1.89-1.3-1.89a4.68,4.68,0,0,0,3.59,1.88,2,2,0,0,1-2,.15s.36,9.42-7.22,9.81C76.12,51.46,72.48,48.84,72.6,43.32Z"/><path class="cls-2" d="M28.47,33.23a15.84,15.84,0,0,1,11.91-9.08c6-.71,7.18,1.42,9.45,2.36s3.87-.37,7.28-1.7,10,.76,12.28,4.73a25.09,25.09,0,0,1-.94,24.57c-5.58,9.64-12.76,9.36-16.16,8.13-2.65-.75-3.61,1.18-7.44.81A20.57,20.57,0,0,1,28.09,46.46,21.66,21.66,0,0,1,28.47,33.23Z"/><path class="cls-3" d="M46,35.85c.07,1.09.45,1.93.86,1.89s.66-1,.59-2.05-.46-1.93-.86-1.88S45.9,34.77,46,35.85Z"/><path class="cls-4" d="M39.88,27.3s-5.17,2.61-6.46,11.41l-3.21-.5a17.4,17.4,0,0,1,8-11.51Z"/><path class="cls-4" d="M29.62,40.31a8.7,8.7,0,0,1,3,.33c-.55,2.2-.78,3.66-.78,3.66L30,44A9,9,0,0,1,29.62,40.31Z"/><path class="cls-5" d="M45.74,35.69c.08,1.08.46,1.93.87,1.88s.66-1,.59-2-.46-1.93-.86-1.89S45.67,34.6,45.74,35.69Z"/><path class="cls-6" d="M46.52,34.77c0,.33.18.57.3.55S47,35,47,34.68s-.17-.57-.3-.54S46.47,34.45,46.52,34.77Z"/><path class="cls-3" d="M53.79,34.88c.07,1.1.46,2,.86,1.91s.67-1,.59-2.07-.46-2-.86-1.92S53.71,33.77,53.79,34.88Z"/><path class="cls-5" d="M53.56,34.71c.07,1.1.46,2,.86,1.92s.66-1,.59-2.08-.46-2-.86-1.92S53.48,33.61,53.56,34.71Z"/><path class="cls-6" d="M54.33,33.78c.05.33.18.58.3.56s.18-.32.14-.65-.18-.58-.3-.55S54.29,33.45,54.33,33.78Z"/><path class="cls-7" d="M42.83,43.81a5.85,5.85,0,0,0,.22,1.06,7.06,7.06,0,0,0,1.29,2.49,6.79,6.79,0,0,0,1.38,1.27,7.73,7.73,0,0,0,1.87.91,9.79,9.79,0,0,0,2.19.45,11.24,11.24,0,0,0,2.32,0,7,7,0,0,0,2.22-.56,6.13,6.13,0,0,0,1.83-1.23,8.33,8.33,0,0,0,2-3.38,13.07,13.07,0,0,0,.6-2.77A8.35,8.35,0,0,0,58.85,41a8.92,8.92,0,0,1,0,1.08,13.06,13.06,0,0,1-.5,2.81,9.69,9.69,0,0,1-.74,1.77,7.32,7.32,0,0,1-1.27,1.73,6.7,6.7,0,0,1-1.9,1.31,7.87,7.87,0,0,1-2.31.6,12.39,12.39,0,0,1-2.36,0,11,11,0,0,1-2.25-.49,7.15,7.15,0,0,1-1.91-1,6.79,6.79,0,0,1-1.38-1.34,6.34,6.34,0,0,1-.83-1.4A7,7,0,0,1,43,44.88,4.84,4.84,0,0,1,42.83,43.81Z"/><path class="cls-7" d="M57.58,39.63a4.87,4.87,0,0,0,.37.43,4.28,4.28,0,0,0,.43.38,3.55,3.55,0,0,0,.54.34,1.55,1.55,0,0,0,.29.14l.3.11.29.08.26.06.23,0,.18,0,.16,0-.16,0a2.21,2.21,0,0,1-.42,0,1.43,1.43,0,0,1-.29,0,1.92,1.92,0,0,1-.32,0l-.33-.09a3.13,3.13,0,0,1-.32-.15,2.71,2.71,0,0,1-.58-.4L58,40.39c-.06-.08-.12-.15-.17-.23A1.83,1.83,0,0,1,57.58,39.63Z"/><g class="cls-8"><path class="cls-9" d="M69.39,29.54c-2.26-4-8.88-6.05-12.28-4.73s-5,2.65-7.28,1.7c-1.32-.55-2.28-1.5-4-2.06A5.11,5.11,0,0,1,47,25.57c1.42,1.89,3.31,3.2,6.15,1.8,5.15-2.56,9.1-.95,11.53,2.77,4,6.11,3.92,19.53-3,26.34-4.81,4-8.17,4.06-10.72,2.08s-5.39,8.36-17.58-1.71h0a20.2,20.2,0,0,0,11.51,6.2c3.83.37,4.79-1.56,7.44-.81,3.4,1.23,10.58,1.51,16.16-8.13A25.09,25.09,0,0,0,69.39,29.54Z"/></g><path class="cls-10" d="M48.81,11.93a.21.21,0,0,1,0-.06s-.36-.5-1.45,0-1,.79-.53,1.19A3.38,3.38,0,0,0,48.81,11.93Z"/><path class="cls-11" d="M48.81,11.93a3.38,3.38,0,0,1-2,1.13c.47.4,4.62,8.38,3.6,14.67a1.82,1.82,0,0,0,.84.22S52.39,17.05,48.81,11.93Z"/><path class="cls-7" d="M47.85,26.27s2,3.91,6.39.36c0,0-2.1,1.29-3.44,1.16A5.36,5.36,0,0,1,47.85,26.27Z"/><path class="cls-12" d="M51.07,22.44c13.77,1.85,14.34-10.73,14.34-10.73S56.16,14.16,51.07,22.44Z"/><path class="cls-13" d="M51.07,22.44c5.09-8.28,14.34-10.73,14.34-10.73C52.81,9.07,51.07,22.44,51.07,22.44Z"/><path class="cls-5" d="M46.11,31a1,1,0,0,0-1,.95.1.1,0,0,0,.14.1s0,0,.06,0a1.39,1.39,0,0,1,1.3-.09c.09,0,.18-.07.19-.15A.72.72,0,0,0,46.11,31Z"/><path class="cls-5" d="M54.33,30.14a1,1,0,0,0-1,.95.1.1,0,0,0,.14.1,0,0,0,0,0,.06,0,1.39,1.39,0,0,1,1.3-.09.16.16,0,0,0,.19-.15A.72.72,0,0,0,54.33,30.14Z"/><path class="cls-7" d="M44.52,37.31a2.48,2.48,0,0,1,3,1.17A4.6,4.6,0,0,0,44.52,37.31Z"/><path class="cls-7" d="M56.22,36.49a2.49,2.49,0,0,0-3,1.17A4.6,4.6,0,0,1,56.22,36.49Z"/><path class="cls-14" d="M42.74,43.24s1.65,6.55,8,6.49c4.84-.11,7.55-4,8.08-8.7-1.25-.18-1.31-1.89-1.31-1.89A4.65,4.65,0,0,0,61.07,41a2,2,0,0,1-2,.16s.36,9.41-7.21,9.81C46.26,51.39,42.62,48.77,42.74,43.24Z"/><path class="cls-2" d="M4.47,32.79a15.84,15.84,0,0,1,11.91-9.07c6-.71,7.19,1.41,9.46,2.36s3.87-.38,7.27-1.7,10,.75,12.29,4.72a25.12,25.12,0,0,1-.95,24.58C38.88,63.32,31.69,63,28.29,61.81c-2.64-.76-3.61,1.18-7.44.8A20.56,20.56,0,0,1,4.1,46,21.71,21.71,0,0,1,4.47,32.79Z"/><path class="cls-3" d="M22,35.42c.08,1.08.46,1.93.86,1.88s.67-1,.59-2-.46-1.93-.86-1.89S21.91,34.33,22,35.42Z"/><path class="cls-4" d="M15.89,26.86s-5.18,2.61-6.46,11.41l-3.21-.5a17.32,17.32,0,0,1,8-11.5Z"/><path class="cls-4" d="M5.62,39.88a8.56,8.56,0,0,1,3,.32c-.55,2.2-.78,3.67-.78,3.67L6,43.59A8.88,8.88,0,0,1,5.62,39.88Z"/><path class="cls-5" d="M21.75,35.25c.08,1.09.46,1.93.86,1.89s.67-1,.59-2-.46-1.93-.86-1.89S21.68,34.16,21.75,35.25Z"/><path class="cls-6" d="M22.53,34.34c0,.32.17.56.29.54s.19-.31.14-.63-.18-.57-.3-.55S22.48,34,22.53,34.34Z"/><path class="cls-3" d="M29.8,34.44c.07,1.1.45,2,.86,1.92s.66-1,.59-2.08-.46-2-.86-1.92S29.72,33.34,29.8,34.44Z"/><path class="cls-5" d="M29.56,34.28c.08,1.1.46,2,.87,1.91s.66-1,.59-2.07-.46-2-.86-1.92S29.49,33.17,29.56,34.28Z"/><path class="cls-6" d="M30.34,33.35c0,.33.18.58.3.55s.18-.31.13-.64-.18-.58-.3-.56S30.29,33,30.34,33.35Z"/><path class="cls-7" d="M18.84,43.38a6.28,6.28,0,0,0,.21,1,7,7,0,0,0,1.3,2.49,6.22,6.22,0,0,0,1.37,1.27,7.45,7.45,0,0,0,1.88.91,10.38,10.38,0,0,0,2.19.46,12,12,0,0,0,2.32,0A7.4,7.4,0,0,0,30.33,49a6.49,6.49,0,0,0,1.83-1.24,8.38,8.38,0,0,0,2-3.38,13,13,0,0,0,.6-2.76c.07-.69.07-1.08.07-1.08a8.06,8.06,0,0,1,0,1.08,12.28,12.28,0,0,1-.5,2.81,10,10,0,0,1-.73,1.78,7.1,7.1,0,0,1-1.28,1.73,6.54,6.54,0,0,1-1.9,1.3,7.23,7.23,0,0,1-2.3.6,12.5,12.5,0,0,1-2.37,0,10.38,10.38,0,0,1-2.24-.48,7.39,7.39,0,0,1-1.92-1A7,7,0,0,1,20.22,47a6.22,6.22,0,0,1-.82-1.39,7.55,7.55,0,0,1-.4-1.19A5.08,5.08,0,0,1,18.84,43.38Z"/><path class="cls-7" d="M33.58,39.19a4.23,4.23,0,0,0,.38.43,4.08,4.08,0,0,0,.42.38,3.84,3.84,0,0,0,.54.35l.3.14.29.11.29.08c.1,0,.19,0,.27,0a1,1,0,0,0,.23,0l.18,0,.15,0-.15,0a1.65,1.65,0,0,1-.43,0h-.28l-.32,0-.33-.1c-.11-.05-.22-.08-.33-.14a2.68,2.68,0,0,1-.57-.41c-.08-.07-.15-.16-.22-.23l-.17-.24A1.93,1.93,0,0,1,33.58,39.19Z"/><g class="cls-8"><path class="cls-9" d="M45.4,29.1c-2.27-4-8.88-6.05-12.29-4.72s-5,2.64-7.27,1.7c-1.33-.55-2.28-1.51-4-2.06A4.87,4.87,0,0,1,23,25.13c1.42,1.89,3.3,3.21,6.14,1.8,5.15-2.55,9.11-.95,11.54,2.78,4,6.11,3.92,19.53-3,26.33-4.82,4-8.18,4.06-10.73,2.08s-5.39,8.36-17.58-1.7h0a20.19,20.19,0,0,0,11.51,6.19c3.83.38,4.8-1.56,7.44-.8,3.4,1.22,10.59,1.51,16.16-8.13A25.12,25.12,0,0,0,45.4,29.1Z"/></g><path class="cls-10" d="M24.81,11.49l0-.06s-.36-.49-1.45,0-1,.8-.53,1.2A3.32,3.32,0,0,0,24.81,11.49Z"/><path class="cls-11" d="M24.81,11.49a3.32,3.32,0,0,1-2,1.14c.46.39,4.62,8.38,3.6,14.66a1.81,1.81,0,0,0,.83.23S28.4,16.61,24.81,11.49Z"/><path class="cls-7" d="M23.86,25.83s2,3.92,6.39.37c0,0-2.11,1.28-3.45,1.15A5.24,5.24,0,0,1,23.86,25.83Z"/><path class="cls-12" d="M27.07,22c13.78,1.85,14.35-10.73,14.35-10.73S32.17,13.73,27.07,22Z"/><path class="cls-13" d="M27.07,22c5.1-8.27,14.35-10.73,14.35-10.73C28.82,8.63,27.07,22,27.07,22Z"/><path class="cls-5" d="M22.11,30.54a1,1,0,0,0-1,.95.1.1,0,0,0,.14.1s0,0,.06,0a1.46,1.46,0,0,1,1.3-.09c.1,0,.18-.06.2-.15A.73.73,0,0,0,22.11,30.54Z"/><path class="cls-5" d="M30.34,29.71a1,1,0,0,0-1,.94.1.1,0,0,0,.14.11.06.06,0,0,0,.07,0,1.4,1.4,0,0,1,1.29-.08c.1,0,.18-.07.2-.15A.72.72,0,0,0,30.34,29.71Z"/><path class="cls-7" d="M20.52,36.87a2.48,2.48,0,0,1,3,1.17A4.6,4.6,0,0,0,20.52,36.87Z"/><path class="cls-7" d="M32.22,36.06a2.48,2.48,0,0,0-3,1.17A4.6,4.6,0,0,1,32.22,36.06Z"/><path class="cls-14" d="M18.74,42.81s1.66,6.55,8,6.49c4.83-.12,7.55-4,8.07-8.7-1.24-.18-1.3-1.89-1.3-1.89a4.68,4.68,0,0,0,3.59,1.88,2,2,0,0,1-2,.15s.35,9.42-7.22,9.81C22.26,51,18.63,48.33,18.74,42.81Z"/><path class="cls-2" d="M58.33,64A15.84,15.84,0,0,1,70.24,55c6-.71,7.18,1.42,9.45,2.36S83.56,57,87,55.63s10,.76,12.29,4.73a25.12,25.12,0,0,1-.94,24.57c-5.58,9.64-12.76,9.36-16.17,8.13-2.64-.76-3.6,1.18-7.43.8A20.54,20.54,0,0,1,58,77.28,21.7,21.7,0,0,1,58.33,64Z"/><path class="cls-3" d="M75.83,66.67c.08,1.08.46,1.93.87,1.89s.66-1,.59-2-.46-1.93-.86-1.89S75.76,65.58,75.83,66.67Z"/><path class="cls-4" d="M69.74,58.12s-5.18,2.61-6.46,11.41L60.07,69a17.37,17.37,0,0,1,8-11.5Z"/><path class="cls-4" d="M59.48,71.13a8.79,8.79,0,0,1,3,.32c-.55,2.2-.77,3.67-.77,3.67l-1.79-.28A9,9,0,0,1,59.48,71.13Z"/><path class="cls-5" d="M75.6,66.5c.08,1.09.46,1.93.86,1.89s.67-1,.59-2-.46-1.93-.86-1.89S75.53,65.42,75.6,66.5Z"/><path class="cls-6" d="M76.38,65.59c0,.32.18.57.3.54s.18-.31.13-.63-.18-.57-.3-.55S76.33,65.26,76.38,65.59Z"/><path class="cls-3" d="M83.65,65.69c.07,1.11.46,2,.86,1.92s.66-1,.59-2.08-.46-2-.86-1.91S83.57,64.59,83.65,65.69Z"/><path class="cls-5" d="M83.42,65.53c.07,1.1.46,2,.86,1.92s.66-1,.59-2.08-.46-2-.86-1.92S83.34,64.43,83.42,65.53Z"/><path class="cls-6" d="M84.19,64.6c0,.33.18.58.3.55s.18-.31.14-.64-.18-.58-.3-.55S84.15,64.27,84.19,64.6Z"/><path class="cls-7" d="M72.69,74.63a5.86,5.86,0,0,0,.22,1.05,7,7,0,0,0,1.29,2.5,6.72,6.72,0,0,0,1.37,1.27,7.81,7.81,0,0,0,1.88.91,10.38,10.38,0,0,0,2.19.45,12,12,0,0,0,2.32,0,7,7,0,0,0,2.22-.56A6,6,0,0,0,86,79a8.3,8.3,0,0,0,2-3.37,13.07,13.07,0,0,0,.6-2.77,8.46,8.46,0,0,0,.07-1.08,9.12,9.12,0,0,1,0,1.09,13.18,13.18,0,0,1-.51,2.81,9.22,9.22,0,0,1-.73,1.77,7.1,7.1,0,0,1-1.28,1.73,6.22,6.22,0,0,1-1.9,1.3,7.23,7.23,0,0,1-2.3.6,11.73,11.73,0,0,1-2.37,0,10.38,10.38,0,0,1-2.24-.48,7.17,7.17,0,0,1-1.91-1,6.81,6.81,0,0,1-1.39-1.33,6.94,6.94,0,0,1-.82-1.4,8.67,8.67,0,0,1-.4-1.18A5.12,5.12,0,0,1,72.69,74.63Z"/><path class="cls-7" d="M87.44,70.45a3.39,3.39,0,0,0,.37.43,5.5,5.5,0,0,0,.42.38,4.93,4.93,0,0,0,.54.34c.1.06.2.09.3.14l.3.11.29.08.26.06.23,0,.18,0,.16,0-.16,0a3.53,3.53,0,0,1-.42,0,1.43,1.43,0,0,1-.29,0c-.1,0-.21,0-.32,0S89.08,72,89,72s-.22-.09-.33-.15a2.78,2.78,0,0,1-.79-.64L87.68,71A1.83,1.83,0,0,1,87.44,70.45Z"/><g class="cls-8"><path class="cls-9" d="M99.25,60.36c-2.27-4-8.88-6-12.29-4.73s-5,2.65-7.27,1.7c-1.33-.55-2.28-1.5-4-2.06a5.11,5.11,0,0,1,1.2,1.12c1.42,1.89,3.3,3.2,6.14,1.79,5.16-2.55,9.11-1,11.54,2.78,4,6.11,3.92,19.53-3,26.33-4.82,4-8.17,4.07-10.73,2.08s-5.38,8.37-17.58-1.7h0a20.21,20.21,0,0,0,11.52,6.19c3.83.38,4.79-1.56,7.43-.8,3.41,1.23,10.59,1.51,16.17-8.13A25.12,25.12,0,0,0,99.25,60.36Z"/></g><path class="cls-10" d="M78.67,42.74l0-.05s-.36-.5-1.45,0-1,.79-.53,1.19A3.36,3.36,0,0,0,78.67,42.74Z"/><path class="cls-11" d="M78.67,42.74a3.36,3.36,0,0,1-2,1.14c.46.4,4.62,8.38,3.6,14.66a1.74,1.74,0,0,0,.84.23S82.25,47.86,78.67,42.74Z"/><path class="cls-7" d="M77.71,57.08s2,3.92,6.39.37c0,0-2.11,1.28-3.44,1.16A5.34,5.34,0,0,1,77.71,57.08Z"/><path class="cls-12" d="M80.93,53.26C94.7,55.1,95.27,42.52,95.27,42.52S86,45,80.93,53.26Z"/><path class="cls-13" d="M80.93,53.26C86,45,95.27,42.52,95.27,42.52,82.67,39.89,80.93,53.26,80.93,53.26Z"/><path class="cls-5" d="M76,61.8a1,1,0,0,0-1,1,.09.09,0,0,0,.13.1s0,0,.07,0a1.42,1.42,0,0,1,1.3-.08c.09,0,.17-.07.19-.15A.72.72,0,0,0,76,61.8Z"/><path class="cls-5" d="M84.19,61a1,1,0,0,0-1,.95.1.1,0,0,0,.14.1s0,0,.06,0a1.39,1.39,0,0,1,1.3-.09c.09,0,.18-.07.19-.15A.72.72,0,0,0,84.19,61Z"/><path class="cls-7" d="M74.38,68.13s1.58-.71,3,1.17A4.55,4.55,0,0,0,74.38,68.13Z"/><path class="cls-7" d="M86.07,67.31s-1.58-.71-3,1.17A4.63,4.63,0,0,1,86.07,67.31Z"/><path class="cls-14" d="M72.6,74.06s1.65,6.55,8,6.49c4.84-.11,7.55-4,8.07-8.7-1.24-.18-1.3-1.89-1.3-1.89a4.65,4.65,0,0,0,3.59,1.88A2,2,0,0,1,89,72s.36,9.41-7.22,9.81C76.12,82.21,72.48,79.58,72.6,74.06Z"/><path class="cls-2" d="M28.47,64a15.86,15.86,0,0,1,11.91-9.08c6-.71,7.18,1.42,9.45,2.37s3.87-.38,7.28-1.7,10,.75,12.28,4.72a25.11,25.11,0,0,1-.94,24.58C62.87,94.5,55.69,94.21,52.29,93c-2.65-.76-3.61,1.17-7.44.8A20.57,20.57,0,0,1,28.09,77.2,21.66,21.66,0,0,1,28.47,64Z"/><path class="cls-3" d="M46,66.59c.07,1.09.45,1.93.86,1.89s.66-1,.59-2-.46-1.93-.86-1.89S45.9,65.51,46,66.59Z"/><path class="cls-4" d="M39.88,58s-5.17,2.61-6.46,11.41L30.21,69a17.37,17.37,0,0,1,8-11.5Z"/><path class="cls-4" d="M29.62,71.06a8.56,8.56,0,0,1,3,.32c-.55,2.2-.78,3.67-.78,3.67L30,74.77A9,9,0,0,1,29.62,71.06Z"/><path class="cls-5" d="M45.74,66.43c.08,1.08.46,1.93.87,1.89s.66-1,.59-2-.46-1.93-.86-1.89S45.67,65.34,45.74,66.43Z"/><path class="cls-6" d="M46.52,65.51c0,.33.18.57.3.55s.18-.31.13-.64-.17-.57-.3-.54S46.47,65.19,46.52,65.51Z"/><path class="cls-3" d="M53.79,65.62c.07,1.1.46,2,.86,1.92s.67-1,.59-2.08-.46-2-.86-1.92S53.71,64.52,53.79,65.62Z"/><path class="cls-5" d="M53.56,65.45c.07,1.11.46,2,.86,1.92s.66-1,.59-2.08-.46-2-.86-1.91S53.48,64.35,53.56,65.45Z"/><path class="cls-6" d="M54.33,64.53c.05.33.18.57.3.55s.18-.32.14-.64-.18-.58-.3-.56S54.29,64.2,54.33,64.53Z"/><path class="cls-7" d="M42.83,74.55a5.85,5.85,0,0,0,.22,1.06,7,7,0,0,0,1.29,2.49,6.79,6.79,0,0,0,1.38,1.27,7.73,7.73,0,0,0,1.87.91,10.38,10.38,0,0,0,2.19.46,12,12,0,0,0,2.32,0,7.63,7.63,0,0,0,2.22-.56,6.35,6.35,0,0,0,1.83-1.24,8.33,8.33,0,0,0,2-3.38,13,13,0,0,0,.6-2.76,8.54,8.54,0,0,0,.07-1.08,8.92,8.92,0,0,1,0,1.08,13,13,0,0,1-.5,2.81,10.07,10.07,0,0,1-.74,1.78,7.08,7.08,0,0,1-1.27,1.72,6.51,6.51,0,0,1-1.9,1.31,7.57,7.57,0,0,1-2.31.6,12.39,12.39,0,0,1-2.36,0,10.35,10.35,0,0,1-2.25-.49,6.87,6.87,0,0,1-1.91-1,6.53,6.53,0,0,1-1.38-1.34,6.12,6.12,0,0,1-.83-1.4A7,7,0,0,1,43,75.62,4.84,4.84,0,0,1,42.83,74.55Z"/><path class="cls-7" d="M57.58,70.37a4.87,4.87,0,0,0,.37.43,4.28,4.28,0,0,0,.43.38,3,3,0,0,0,.54.35l.29.14.3.11.29.08.26,0a1,1,0,0,0,.23,0l.18,0,.16,0-.16,0a1.61,1.61,0,0,1-.42,0,1.43,1.43,0,0,1-.29,0l-.32,0-.33-.1a3.09,3.09,0,0,1-.32-.14,3.16,3.16,0,0,1-.58-.41c-.08-.07-.15-.16-.22-.23l-.17-.24A1.71,1.71,0,0,1,57.58,70.37Z"/><g class="cls-8"><path class="cls-9" d="M69.39,60.28c-2.26-4-8.88-6.05-12.28-4.72s-5,2.64-7.28,1.7c-1.32-.55-2.28-1.51-4-2.06A4.87,4.87,0,0,1,47,56.31c1.42,1.89,3.31,3.21,6.15,1.8,5.15-2.55,9.1-1,11.53,2.78,4,6.11,3.92,19.52-3,26.33-4.81,4-8.17,4.06-10.72,2.08s-5.39,8.36-17.58-1.7h0a20.23,20.23,0,0,0,11.51,6.19c3.83.37,4.79-1.56,7.44-.8,3.4,1.22,10.58,1.51,16.16-8.13A25.11,25.11,0,0,0,69.39,60.28Z"/></g><path class="cls-10" d="M48.81,42.67a.21.21,0,0,1,0-.06s-.36-.49-1.45,0-1,.8-.53,1.19A3.33,3.33,0,0,0,48.81,42.67Z"/><path class="cls-11" d="M48.81,42.67a3.33,3.33,0,0,1-2,1.13c.47.4,4.62,8.38,3.6,14.67a1.89,1.89,0,0,0,.84.23S52.39,47.79,48.81,42.67Z"/><path class="cls-7" d="M47.85,57s2,3.92,6.39.36c0,0-2.1,1.29-3.44,1.16A5.36,5.36,0,0,1,47.85,57Z"/><path class="cls-12" d="M51.07,53.18C64.84,55,65.41,42.45,65.41,42.45S56.16,44.91,51.07,53.18Z"/><path class="cls-13" d="M51.07,53.18c5.09-8.27,14.34-10.73,14.34-10.73C52.81,39.81,51.07,53.18,51.07,53.18Z"/><path class="cls-5" d="M46.11,61.72a1,1,0,0,0-1,1,.1.1,0,0,0,.14.1s0,0,.06,0a1.39,1.39,0,0,1,1.3-.09c.09,0,.18-.06.19-.15A.72.72,0,0,0,46.11,61.72Z"/><path class="cls-5" d="M54.33,60.89a1,1,0,0,0-1,.94.1.1,0,0,0,.14.1,0,0,0,0,0,.06,0,1.42,1.42,0,0,1,1.3-.08c.1,0,.18-.07.19-.15A.72.72,0,0,0,54.33,60.89Z"/><path class="cls-7" d="M44.52,68.05a2.48,2.48,0,0,1,3,1.17A4.6,4.6,0,0,0,44.52,68.05Z"/><path class="cls-7" d="M56.22,67.24a2.48,2.48,0,0,0-3,1.17A4.55,4.55,0,0,1,56.22,67.24Z"/><path class="cls-14" d="M42.74,74s1.65,6.54,8,6.49c4.84-.12,7.55-4,8.08-8.7-1.25-.18-1.31-1.89-1.31-1.89a4.68,4.68,0,0,0,3.59,1.88,2,2,0,0,1-2,.15s.36,9.41-7.21,9.81C46.26,82.13,42.62,79.51,42.74,74Z"/><path class="cls-2" d="M4.47,63.53a15.84,15.84,0,0,1,11.91-9.07c6-.71,7.19,1.42,9.46,2.36s3.87-.38,7.27-1.7,10,.76,12.29,4.73a25.1,25.1,0,0,1-.95,24.57c-5.57,9.64-12.76,9.36-16.16,8.13-2.64-.76-3.61,1.18-7.44.8A20.53,20.53,0,0,1,4.1,76.76,21.72,21.72,0,0,1,4.47,63.53Z"/><path class="cls-3" d="M22,66.16c.08,1.08.46,1.93.86,1.89s.67-1,.59-2-.46-1.93-.86-1.89S21.91,65.07,22,66.16Z"/><path class="cls-4" d="M15.89,57.61S10.71,60.22,9.43,69l-3.21-.51a17.32,17.32,0,0,1,8-11.5Z"/><path class="cls-4" d="M5.62,70.62a8.56,8.56,0,0,1,3,.32c-.55,2.2-.78,3.67-.78,3.67L6,74.33A8.88,8.88,0,0,1,5.62,70.62Z"/><path class="cls-5" d="M21.75,66c.08,1.09.46,1.93.86,1.89s.67-1,.59-2-.46-1.93-.86-1.88S21.68,64.91,21.75,66Z"/><path class="cls-6" d="M22.53,65.08c0,.32.17.57.29.54S23,65.31,23,65s-.18-.57-.3-.55S22.48,64.75,22.53,65.08Z"/><path class="cls-3" d="M29.8,65.18c.07,1.11.45,2,.86,1.92s.66-1,.59-2.08-.46-2-.86-1.91S29.72,64.08,29.8,65.18Z"/><path class="cls-5" d="M29.56,65c.08,1.1.46,2,.87,1.91s.66-1,.59-2.07-.46-2-.86-1.92S29.49,63.92,29.56,65Z"/><path class="cls-6" d="M30.34,64.09c0,.33.18.58.3.55s.18-.31.13-.64-.18-.58-.3-.55S30.29,63.76,30.34,64.09Z"/><path class="cls-7" d="M18.84,74.12a6.28,6.28,0,0,0,.21,1,7.06,7.06,0,0,0,1.3,2.5,6.19,6.19,0,0,0,1.37,1.26,7.83,7.83,0,0,0,1.88.92,10.38,10.38,0,0,0,2.19.45,12,12,0,0,0,2.32,0,7.11,7.11,0,0,0,2.22-.56,6.1,6.1,0,0,0,1.83-1.24,8.41,8.41,0,0,0,2-3.37,13.2,13.2,0,0,0,.6-2.77c.07-.68.07-1.08.07-1.08a8.09,8.09,0,0,1,0,1.08,12.44,12.44,0,0,1-.5,2.82A9.91,9.91,0,0,1,33.61,77a7.1,7.1,0,0,1-1.28,1.73,6.35,6.35,0,0,1-1.9,1.3,7.23,7.23,0,0,1-2.3.6,11.73,11.73,0,0,1-2.37,0,10.38,10.38,0,0,1-2.24-.48,7.39,7.39,0,0,1-1.92-1,6.78,6.78,0,0,1-1.38-1.34,6.22,6.22,0,0,1-.82-1.39,7.47,7.47,0,0,1-.4-1.18A5.12,5.12,0,0,1,18.84,74.12Z"/><path class="cls-7" d="M33.58,69.94a4.23,4.23,0,0,0,.38.43,3.16,3.16,0,0,0,.42.37,3.84,3.84,0,0,0,.54.35c.1.06.2.09.3.14l.29.11.29.08.27.06.23,0,.18,0,.15,0-.15,0a3.52,3.52,0,0,1-.43,0,1.36,1.36,0,0,1-.28,0c-.1,0-.21,0-.32,0s-.22,0-.33-.09-.22-.09-.33-.15A2.78,2.78,0,0,1,34,70.7l-.17-.23A2.09,2.09,0,0,1,33.58,69.94Z"/><g class="cls-8"><path class="cls-9" d="M45.4,59.85c-2.27-4-8.88-6.05-12.29-4.73s-5,2.65-7.27,1.7c-1.33-.55-2.28-1.5-4-2.06A4.91,4.91,0,0,1,23,55.88c1.42,1.89,3.3,3.2,6.14,1.79,5.15-2.55,9.11-1,11.54,2.78,4,6.11,3.92,19.53-3,26.33-4.82,4-8.18,4.07-10.73,2.08s-5.39,8.37-17.58-1.7h0a20.19,20.19,0,0,0,11.51,6.19c3.83.38,4.8-1.56,7.44-.8,3.4,1.23,10.59,1.51,16.16-8.13A25.1,25.1,0,0,0,45.4,59.85Z"/></g><path class="cls-10" d="M24.81,42.23l0,0s-.36-.5-1.45,0-1,.79-.53,1.19A3.32,3.32,0,0,0,24.81,42.23Z"/><path class="cls-11" d="M24.81,42.23a3.32,3.32,0,0,1-2,1.14c.46.4,4.62,8.38,3.6,14.66a1.67,1.67,0,0,0,.83.23S28.4,47.35,24.81,42.23Z"/><path class="cls-7" d="M23.86,56.57s2,3.92,6.39.37c0,0-2.11,1.28-3.45,1.16A5.29,5.29,0,0,1,23.86,56.57Z"/><path class="cls-12" d="M27.07,52.75C40.85,54.59,41.42,42,41.42,42S32.17,44.47,27.07,52.75Z"/><path class="cls-13" d="M27.07,52.75C32.17,44.47,41.42,42,41.42,42,28.82,39.38,27.07,52.75,27.07,52.75Z"/><path class="cls-5" d="M22.11,61.29a1,1,0,0,0-1,.94.1.1,0,0,0,.14.11s0,0,.06,0a1.42,1.42,0,0,1,1.3-.08c.1,0,.18-.07.2-.15A.72.72,0,0,0,22.11,61.29Z"/><path class="cls-5" d="M30.34,60.45a1,1,0,0,0-1,.95.1.1,0,0,0,.14.1.06.06,0,0,0,.07,0,1.37,1.37,0,0,1,1.29-.09c.1,0,.18-.07.2-.15A.72.72,0,0,0,30.34,60.45Z"/><path class="cls-7" d="M20.52,67.62a2.48,2.48,0,0,1,3,1.17A4.55,4.55,0,0,0,20.52,67.62Z"/><path class="cls-7" d="M32.22,66.8a2.48,2.48,0,0,0-3,1.17A4.6,4.6,0,0,1,32.22,66.8Z"/><path class="cls-14" d="M18.74,73.55s1.66,6.55,8,6.49c4.83-.11,7.55-4,8.07-8.7-1.24-.18-1.3-1.89-1.3-1.89a4.65,4.65,0,0,0,3.59,1.88,2,2,0,0,1-2,.16s.35,9.41-7.22,9.81C22.26,81.7,18.63,79.07,18.74,73.55Z"/></g></g></svg>