<svg xmlns="http://www.w3.org/2000/svg" viewBox="0 0 105.29 104.84"><defs><style>.cls-1{isolation:isolate;}.cls-2{fill:#e30613;}.cls-14,.cls-3,.cls-9{fill:#c80613;}.cls-14,.cls-3,.cls-8{mix-blend-mode:multiply;}.cls-4{fill:#f4a081;mix-blend-mode:color-dodge;}.cls-5{fill:#3d1a0b;}.cls-6{fill:#fff;}.cls-7{fill:#790613;}.cls-10{fill:#623f24;}.cls-11{fill:#a06640;}.cls-12{fill:#279235;}.cls-13{fill:#8abd24;}.cls-14{opacity:0.5;}</style></defs><title>apple4</title><g class="cls-1"><g id="Layer_1" data-name="Layer 1"><path class="cls-2" d="M32.19,34.5A16.66,16.66,0,0,1,44.72,25c6.32-.75,7.57,1.49,10,2.49s4.08-.4,7.67-1.79,10.54.79,12.93,5a26.45,26.45,0,0,1-1,25.87c-5.87,10.15-13.44,9.86-17,8.56-2.79-.79-3.8,1.24-7.83.85A21.65,21.65,0,0,1,31.79,48.43,22.81,22.81,0,0,1,32.19,34.5Z"/><path class="cls-3" d="M50.62,37.27c.08,1.14.48,2,.9,2s.7-1,.63-2.16-.49-2-.91-2S50.54,36.13,50.62,37.27Z"/><path class="cls-4" d="M44.2,28.26s-5.45,2.75-6.8,12L34,39.75a18.26,18.26,0,0,1,8.45-12.11Z"/><path class="cls-4" d="M33.4,42a8.86,8.86,0,0,1,3.13.34c-.58,2.31-.82,3.86-.82,3.86l-1.88-.29A9.36,9.36,0,0,1,33.4,42Z"/><path class="cls-5" d="M50.37,37.09c.08,1.15.49,2,.91,2s.7-1,.62-2.15-.48-2-.9-2S50.3,36,50.37,37.09Z"/><path class="cls-6" d="M51.19,36.13c.05.34.19.6.31.58s.2-.33.15-.67-.19-.6-.32-.58S51.14,35.79,51.19,36.13Z"/><path class="cls-3" d="M58.84,36.24c.08,1.16.49,2.07.91,2s.7-1,.62-2.19-.48-2.06-.9-2S58.76,35.08,58.84,36.24Z"/><path class="cls-5" d="M58.6,36.07c.08,1.16.48,2.06.91,2s.7-1,.62-2.19-.49-2.06-.91-2S58.52,34.91,58.6,36.07Z"/><path class="cls-6" d="M59.42,35.09c0,.35.18.61.31.58s.19-.33.14-.67-.19-.61-.31-.59S59.37,34.74,59.42,35.09Z"/><path class="cls-7" d="M47.31,45.65a6,6,0,0,0,.23,1.11,7.15,7.15,0,0,0,1.36,2.62,6.89,6.89,0,0,0,1.44,1.34,8.09,8.09,0,0,0,2,1,10.63,10.63,0,0,0,2.31.48,13.15,13.15,0,0,0,2.43,0,7.74,7.74,0,0,0,2.34-.59,6.33,6.33,0,0,0,1.93-1.31,8.78,8.78,0,0,0,2.14-3.55,14.17,14.17,0,0,0,.63-2.91c.08-.72.08-1.14.08-1.14s0,.42,0,1.14a13.47,13.47,0,0,1-.53,3,10,10,0,0,1-.77,1.87,7.4,7.4,0,0,1-1.35,1.82,6.71,6.71,0,0,1-2,1.37,7.74,7.74,0,0,1-2.42.64,12.94,12.94,0,0,1-2.49,0,10.86,10.86,0,0,1-2.37-.51,7.75,7.75,0,0,1-2-1,7.56,7.56,0,0,1-1.46-1.41A7.16,7.16,0,0,1,47.9,48a8.33,8.33,0,0,1-.42-1.25A5.27,5.27,0,0,1,47.31,45.65Z"/><path class="cls-7" d="M62.83,41.25a5.43,5.43,0,0,0,.39.45c.13.13.28.26.45.4a3.67,3.67,0,0,0,.57.36c.1.06.21.1.31.15l.31.11.31.09a2.8,2.8,0,0,0,.28.06l.24,0,.19,0L66,43l-.16,0a2.35,2.35,0,0,1-.45,0c-.09,0-.19,0-.3,0L64.8,43l-.35-.1a2.21,2.21,0,0,1-.35-.16,2.58,2.58,0,0,1-.6-.42,2.61,2.61,0,0,1-.23-.25,1.88,1.88,0,0,1-.18-.24A2.17,2.17,0,0,1,62.83,41.25Z"/><g class="cls-8"><path class="cls-9" d="M75.27,30.62c-2.39-4.18-9.35-6.36-12.93-5s-5.28,2.78-7.67,1.79c-1.39-.58-2.39-1.58-4.24-2.17a5.38,5.38,0,0,1,1.26,1.17c1.49,2,3.48,3.38,6.47,1.9,5.42-2.69,9.58-1,12.14,2.92,4.2,6.43,4.13,20.56-3.19,27.72-5.07,4.2-8.61,4.28-11.29,2.19S50.15,70,37.31,59.38h0A21.34,21.34,0,0,0,49.43,65.9c4,.39,5-1.64,7.83-.85,3.58,1.3,11.15,1.59,17-8.56A26.45,26.45,0,0,0,75.27,30.62Z"/></g><path class="cls-10" d="M53.6,12.08l0-.06s-.37-.52-1.52,0-1,.84-.56,1.26A3.49,3.49,0,0,0,53.6,12.08Z"/><path class="cls-11" d="M53.6,12.08a3.49,3.49,0,0,1-2.12,1.2c.49.41,4.86,8.82,3.79,15.44a1.93,1.93,0,0,0,.88.24S57.37,17.47,53.6,12.08Z"/><path class="cls-7" d="M52.59,27.18s2.1,4.12,6.73.38c0,0-2.22,1.36-3.63,1.22A5.59,5.59,0,0,1,52.59,27.18Z"/><path class="cls-12" d="M56,23.15c14.5,1.94,15.1-11.3,15.1-11.3S61.34,14.44,56,23.15Z"/><path class="cls-13" d="M56,23.15c5.36-8.71,15.1-11.3,15.1-11.3C57.82,9.07,56,23.15,56,23.15Z"/><path class="cls-5" d="M50.76,32.14a1.05,1.05,0,0,0-1,1,.09.09,0,0,0,.14.1,0,0,0,0,0,.07,0,1.46,1.46,0,0,1,1.36-.09c.11,0,.19-.07.21-.16A.76.76,0,0,0,50.76,32.14Z"/><path class="cls-5" d="M59.41,31.26a1.07,1.07,0,0,0-1,1,.1.1,0,0,0,.15.1,0,0,0,0,0,.06,0A1.48,1.48,0,0,1,60,32.28c.1,0,.19-.07.21-.16A.77.77,0,0,0,59.41,31.26Z"/><path class="cls-7" d="M49.08,38.8s1.67-.74,3.12,1.24A4.83,4.83,0,0,0,49.08,38.8Z"/><path class="cls-7" d="M61.4,38s-1.67-.75-3.12,1.23A4.85,4.85,0,0,1,61.4,38Z"/><path class="cls-14" d="M47.21,45.05S49,51.94,55.6,51.88c5.09-.12,7.95-4.17,8.5-9.16-1.31-.19-1.37-2-1.37-2a4.91,4.91,0,0,0,3.78,2,2.08,2.08,0,0,1-2.06.17s.37,9.91-7.6,10.33C50.92,53.63,47.09,50.86,47.21,45.05Z"/><path class="cls-2" d="M3.38,60.62a15.89,15.89,0,0,1,11.93-9.09c6-.71,7.2,1.42,9.47,2.37s3.88-.38,7.29-1.7,10,.75,12.31,4.73a25.13,25.13,0,0,1-.94,24.62c-5.59,9.66-12.79,9.38-16.2,8.15-2.65-.76-3.61,1.18-7.45.8A20.58,20.58,0,0,1,3,73.88,21.77,21.77,0,0,1,3.38,60.62Z"/><path class="cls-3" d="M20.92,63.26c.08,1.08.46,1.93.86,1.89s.67-1,.6-2.05-.46-1.94-.87-1.89S20.85,62.17,20.92,63.26Z"/><path class="cls-4" d="M14.82,54.69S9.63,57.3,8.34,66.12l-3.21-.5a17.36,17.36,0,0,1,8-11.53Z"/><path class="cls-4" d="M4.53,67.73a8.62,8.62,0,0,1,3,.32c-.55,2.2-.78,3.67-.78,3.67l-1.8-.27A9,9,0,0,1,4.53,67.73Z"/><path class="cls-5" d="M20.69,63.09c.07,1.09.46,1.93.86,1.89s.67-1,.59-2.05S21.68,61,21.28,61,20.61,62,20.69,63.09Z"/><path class="cls-6" d="M21.47,62.17c0,.33.17.57.3.55s.18-.31.13-.64-.18-.57-.3-.54S21.42,61.85,21.47,62.17Z"/><path class="cls-3" d="M28.75,62.28c.08,1.1.46,2,.86,1.92s.67-1,.6-2.08-.47-2-.87-1.92S28.68,61.18,28.75,62.28Z"/><path class="cls-5" d="M28.52,62.11c.07,1.11.46,2,.86,1.92s.67-1,.59-2.08-.46-2-.86-1.92S28.44,61,28.52,62.11Z"/><path class="cls-6" d="M29.29,61.18c.05.34.18.58.3.56s.19-.32.14-.65-.18-.58-.3-.55S29.25,60.85,29.29,61.18Z"/><path class="cls-7" d="M17.77,71.23A5.85,5.85,0,0,0,18,72.29a7.09,7.09,0,0,0,1.29,2.5,6.79,6.79,0,0,0,1.38,1.27,7.81,7.81,0,0,0,1.88.91,9.76,9.76,0,0,0,2.2.45,12,12,0,0,0,2.32,0,7.63,7.63,0,0,0,2.22-.56,6.24,6.24,0,0,0,1.84-1.25,8.27,8.27,0,0,0,2-3.38,13.07,13.07,0,0,0,.6-2.77,10.27,10.27,0,0,0,.08-1.08s0,.39,0,1.08a13,13,0,0,1-.5,2.82,10.07,10.07,0,0,1-.74,1.78,7.1,7.1,0,0,1-1.28,1.73,6.56,6.56,0,0,1-1.9,1.31,7.57,7.57,0,0,1-2.31.6,12.5,12.5,0,0,1-2.37,0,10.35,10.35,0,0,1-2.25-.49,7.37,7.37,0,0,1-1.92-1,6.57,6.57,0,0,1-1.38-1.35,6.29,6.29,0,0,1-.83-1.39,7.4,7.4,0,0,1-.39-1.19A4.84,4.84,0,0,1,17.77,71.23Z"/><path class="cls-7" d="M32.55,67a3.39,3.39,0,0,0,.37.43,4.28,4.28,0,0,0,.43.38,3,3,0,0,0,.54.35l.29.14.3.11.29.08c.09,0,.18,0,.26,0a1.11,1.11,0,0,0,.23,0l.18,0,.16,0-.16,0a2,2,0,0,1-.42,0h-.29l-.31,0a2.19,2.19,0,0,1-.34-.1c-.1,0-.22-.08-.32-.14a2.74,2.74,0,0,1-.58-.41c-.08-.07-.15-.16-.22-.23l-.17-.24A1.83,1.83,0,0,1,32.55,67Z"/><g class="cls-8"><path class="cls-9" d="M44.38,56.93c-2.27-4-8.9-6.06-12.31-4.73s-5,2.65-7.29,1.7c-1.32-.55-2.28-1.51-4-2.07A5.11,5.11,0,0,1,21.94,53c1.42,1.9,3.31,3.21,6.16,1.8,5.16-2.55,9.12-1,11.56,2.79,4,6.12,3.92,19.56-3,26.38-4.83,4-8.19,4.07-10.75,2.08s-5.4,8.39-17.61-1.7h0a20.2,20.2,0,0,0,11.53,6.2c3.84.38,4.8-1.56,7.45-.8,3.41,1.23,10.61,1.51,16.2-8.15A25.13,25.13,0,0,0,44.38,56.93Z"/></g><path class="cls-10" d="M23.76,39.28l0-.05s-.35-.5-1.45,0-1,.79-.53,1.19A3.36,3.36,0,0,0,23.76,39.28Z"/><path class="cls-11" d="M23.76,39.28a3.36,3.36,0,0,1-2,1.14c.46.4,4.63,8.4,3.61,14.7a1.74,1.74,0,0,0,.83.22S27.35,44.41,23.76,39.28Z"/><path class="cls-7" d="M22.8,53.65s2,3.93,6.4.37c0,0-2.11,1.29-3.45,1.16A5.34,5.34,0,0,1,22.8,53.65Z"/><path class="cls-12" d="M26,49.82C39.82,51.67,40.4,39.06,40.4,39.06S31.13,41.53,26,49.82Z"/><path class="cls-13" d="M26,49.82C31.13,41.53,40.4,39.06,40.4,39.06,27.77,36.42,26,49.82,26,49.82Z"/><path class="cls-5" d="M21.05,58.38a1,1,0,0,0-1,.94.1.1,0,0,0,.14.11,0,0,0,0,0,.06,0,1.42,1.42,0,0,1,1.3-.08c.1,0,.18-.07.2-.15A.72.72,0,0,0,21.05,58.38Z"/><path class="cls-5" d="M29.29,57.54a1,1,0,0,0-1,1,.1.1,0,0,0,.14.1s0,0,.06,0a1.42,1.42,0,0,1,1.3-.08c.1,0,.18-.07.2-.15A.72.72,0,0,0,29.29,57.54Z"/><path class="cls-7" d="M19.46,64.72a2.49,2.49,0,0,1,3,1.17A4.59,4.59,0,0,0,19.46,64.72Z"/><path class="cls-7" d="M31.18,63.9a2.48,2.48,0,0,0-3,1.17A4.6,4.6,0,0,1,31.18,63.9Z"/><path class="cls-14" d="M17.68,70.66s1.65,6.56,8,6.51c4.85-.12,7.57-4,8.1-8.72-1.25-.18-1.31-1.89-1.31-1.89a4.69,4.69,0,0,0,3.6,1.88,2,2,0,0,1-2,.15s.36,9.43-7.23,9.83C21.2,78.82,17.56,76.2,17.68,70.66Z"/><path class="cls-2" d="M32.76,61.88a15.84,15.84,0,0,1,11.93-9.09c6-.71,7.2,1.42,9.47,2.36s3.88-.37,7.29-1.7,10,.76,12.31,4.73a25.15,25.15,0,0,1-.94,24.63C67.23,92.47,60,92.18,56.62,91c-2.65-.76-3.61,1.18-7.45.81A20.61,20.61,0,0,1,32.38,75.14,21.75,21.75,0,0,1,32.76,61.88Z"/><path class="cls-3" d="M50.3,64.51c.08,1.09.46,1.93.86,1.89s.67-1,.6-2.05-.47-1.93-.87-1.89S50.23,63.42,50.3,64.51Z"/><path class="cls-4" d="M44.2,55.94S39,58.56,37.72,67.37l-3.21-.5a17.38,17.38,0,0,1,8-11.53Z"/><path class="cls-4" d="M33.91,69a8.62,8.62,0,0,1,3,.32c-.56,2.21-.79,3.68-.79,3.68l-1.79-.28A9,9,0,0,1,33.91,69Z"/><path class="cls-5" d="M50.07,64.34c.07,1.09.46,1.94.86,1.89s.67-1,.59-2-.46-1.94-.86-1.9S50,63.26,50.07,64.34Z"/><path class="cls-6" d="M50.84,63.43c0,.32.18.57.3.54s.19-.31.14-.63-.18-.57-.3-.55S50.8,63.1,50.84,63.43Z"/><path class="cls-3" d="M58.13,63.53c.07,1.11.46,2,.86,1.92s.67-1,.59-2.08-.46-2-.86-1.92S58.05,62.43,58.13,63.53Z"/><path class="cls-5" d="M57.9,63.37c.07,1.1.46,2,.86,1.92s.67-1,.59-2.08-.46-2-.86-1.92S57.82,62.26,57.9,63.37Z"/><path class="cls-6" d="M58.67,62.44c0,.33.18.58.3.55s.18-.31.14-.64-.18-.58-.3-.56S58.63,62.11,58.67,62.44Z"/><path class="cls-7" d="M47.15,72.48a5.85,5.85,0,0,0,.22,1.06A7,7,0,0,0,48.66,76,6.79,6.79,0,0,0,50,77.31a7.45,7.45,0,0,0,1.88.91,10.35,10.35,0,0,0,2.2.46,12,12,0,0,0,2.32,0,7,7,0,0,0,2.22-.56,6.4,6.4,0,0,0,1.84-1.24,8.4,8.4,0,0,0,2-3.38,13.13,13.13,0,0,0,.6-2.78,8.46,8.46,0,0,0,.07-1.08,9.12,9.12,0,0,1,0,1.09,12.58,12.58,0,0,1-.51,2.81A9,9,0,0,1,62,75.32a6.92,6.92,0,0,1-1.28,1.73,6.38,6.38,0,0,1-1.9,1.31,7.29,7.29,0,0,1-2.31.6,11.73,11.73,0,0,1-2.37,0,10.34,10.34,0,0,1-2.25-.48,7.39,7.39,0,0,1-1.92-1,6.53,6.53,0,0,1-1.38-1.34,6.34,6.34,0,0,1-.83-1.4,8.67,8.67,0,0,1-.4-1.18A5.25,5.25,0,0,1,47.15,72.48Z"/><path class="cls-7" d="M61.93,68.29a3,3,0,0,0,.37.44,4,4,0,0,0,.42.37,3.43,3.43,0,0,0,.55.35,2.59,2.59,0,0,0,.29.14l.3.11.29.08.26.06.23,0,.18,0,.16,0-.16,0a2.12,2.12,0,0,1-.42,0,1.43,1.43,0,0,1-.29,0,1.67,1.67,0,0,1-.31,0c-.11,0-.23,0-.34-.09s-.22-.09-.33-.15a2.78,2.78,0,0,1-.79-.64l-.17-.23A1.82,1.82,0,0,1,61.93,68.29Z"/><g class="cls-8"><path class="cls-9" d="M73.76,58.18c-2.27-4-8.9-6.06-12.31-4.73s-5,2.65-7.29,1.7c-1.33-.55-2.28-1.5-4-2.06a5.11,5.11,0,0,1,1.2,1.12c1.42,1.89,3.31,3.21,6.16,1.8,5.16-2.56,9.12-.95,11.55,2.78,4,6.12,3.93,19.57-3,26.38-4.83,4-8.19,4.08-10.75,2.09s-5.4,8.38-17.61-1.71h0a20.29,20.29,0,0,0,11.53,6.21c3.84.37,4.8-1.57,7.45-.81,3.41,1.23,10.61,1.52,16.2-8.14A25.15,25.15,0,0,0,73.76,58.18Z"/></g><path class="cls-10" d="M53.14,40.54l0-.06s-.36-.5-1.45,0-1,.8-.53,1.2A3.36,3.36,0,0,0,53.14,40.54Z"/><path class="cls-11" d="M53.14,40.54a3.36,3.36,0,0,1-2,1.14c.46.39,4.63,8.39,3.61,14.69a1.81,1.81,0,0,0,.83.23S56.73,45.67,53.14,40.54Z"/><path class="cls-7" d="M52.18,54.91s2,3.92,6.4.36c0,0-2.11,1.29-3.45,1.16A5.36,5.36,0,0,1,52.18,54.91Z"/><path class="cls-12" d="M55.4,51.07c13.8,1.85,14.37-10.75,14.37-10.75S60.5,42.78,55.4,51.07Z"/><path class="cls-13" d="M55.4,51.07c5.1-8.29,14.37-10.75,14.37-10.75C57.15,37.68,55.4,51.07,55.4,51.07Z"/><path class="cls-5" d="M50.43,59.63a1,1,0,0,0-1,.95.1.1,0,0,0,.14.1s0,0,.06,0A1.39,1.39,0,0,1,51,60.6c.1,0,.18-.07.2-.15A.72.72,0,0,0,50.43,59.63Z"/><path class="cls-5" d="M58.67,58.79a1,1,0,0,0-1,1,.1.1,0,0,0,.14.1,0,0,0,0,0,.06,0,1.39,1.39,0,0,1,1.3-.09c.1,0,.18-.07.2-.15A.73.73,0,0,0,58.67,58.79Z"/><path class="cls-7" d="M48.84,66a2.49,2.49,0,0,1,3,1.17A4.64,4.64,0,0,0,48.84,66Z"/><path class="cls-7" d="M60.56,65.15s-1.59-.71-3,1.18A4.59,4.59,0,0,1,60.56,65.15Z"/><path class="cls-14" d="M47.06,71.92s1.65,6.56,8,6.5c4.85-.12,7.57-4,8.09-8.72-1.24-.18-1.3-1.89-1.3-1.89a4.65,4.65,0,0,0,3.59,1.88,2,2,0,0,1-2,.16s.36,9.43-7.23,9.83C50.58,80.08,46.94,77.45,47.06,71.92Z"/><path class="cls-2" d="M59.34,62.11A15.84,15.84,0,0,1,71.27,53c6-.71,7.2,1.42,9.47,2.37S84.62,55,88,53.68s10,.76,12.31,4.74A25.13,25.13,0,0,1,99.4,83c-5.59,9.66-12.79,9.37-16.2,8.14-2.65-.76-3.61,1.18-7.45.81A20.61,20.61,0,0,1,59,75.37,21.75,21.75,0,0,1,59.34,62.11Z"/><path class="cls-3" d="M76.88,64.74c.07,1.09.46,1.93.86,1.89s.67-1,.59-2-.46-1.93-.86-1.89S76.81,63.65,76.88,64.74Z"/><path class="cls-4" d="M70.78,56.17s-5.19,2.62-6.48,11.44l-3.21-.51a17.38,17.38,0,0,1,8-11.53Z"/><path class="cls-4" d="M60.49,69.21a8.62,8.62,0,0,1,3,.32c-.56,2.21-.79,3.68-.79,3.68l-1.79-.28A9,9,0,0,1,60.49,69.21Z"/><path class="cls-5" d="M76.65,64.57c.07,1.09.46,1.94.86,1.9s.67-1,.59-2-.46-1.94-.86-1.9S76.57,63.49,76.65,64.57Z"/><path class="cls-6" d="M77.42,63.66c0,.32.18.57.3.54s.19-.31.14-.63-.18-.57-.3-.55S77.38,63.33,77.42,63.66Z"/><path class="cls-3" d="M84.71,63.76c.07,1.11.46,2,.86,1.92s.67-1,.59-2.08-.46-2-.86-1.92S84.63,62.66,84.71,63.76Z"/><path class="cls-5" d="M84.48,63.6c.07,1.1.46,2,.86,1.92s.67-1,.59-2.08-.46-2-.86-1.92S84.4,62.49,84.48,63.6Z"/><path class="cls-6" d="M85.25,62.67c0,.33.18.58.3.55s.18-.31.14-.64-.18-.58-.3-.56S85.21,62.34,85.25,62.67Z"/><path class="cls-7" d="M73.73,72.72a5.86,5.86,0,0,0,.22,1,7,7,0,0,0,1.29,2.5,6.79,6.79,0,0,0,1.38,1.27,7.45,7.45,0,0,0,1.88.91,9.79,9.79,0,0,0,2.19.46,12.09,12.09,0,0,0,2.33,0,7,7,0,0,0,2.22-.56,6.4,6.4,0,0,0,1.84-1.24,8.51,8.51,0,0,0,2-3.38,13.13,13.13,0,0,0,.6-2.78,8.46,8.46,0,0,0,.07-1.08,9.12,9.12,0,0,1,0,1.09,12.55,12.55,0,0,1-.51,2.82,9.22,9.22,0,0,1-.73,1.77,6.92,6.92,0,0,1-1.28,1.73,6.38,6.38,0,0,1-1.9,1.31,7.36,7.36,0,0,1-2.31.6,11.73,11.73,0,0,1-2.37,0,10.34,10.34,0,0,1-2.25-.48,7.39,7.39,0,0,1-1.92-1,6.53,6.53,0,0,1-1.38-1.34,6.34,6.34,0,0,1-.83-1.4,8.67,8.67,0,0,1-.4-1.18A5.21,5.21,0,0,1,73.73,72.72Z"/><path class="cls-7" d="M88.51,68.53a3.39,3.39,0,0,0,.37.43,5.5,5.5,0,0,0,.42.38,4.26,4.26,0,0,0,.55.34,2.59,2.59,0,0,0,.29.14l.3.11.29.08.26.06.23,0,.18,0,.16,0-.16,0a2.12,2.12,0,0,1-.42,0,1.43,1.43,0,0,1-.29,0,1.92,1.92,0,0,1-.32,0c-.1,0-.22,0-.33-.09l-.33-.15a2.78,2.78,0,0,1-.79-.64l-.17-.23A1.83,1.83,0,0,1,88.51,68.53Z"/><g class="cls-8"><path class="cls-9" d="M100.34,58.42c-2.27-4-8.9-6.06-12.31-4.74s-5,2.65-7.29,1.71c-1.33-.56-2.28-1.51-4-2.07a5.11,5.11,0,0,1,1.2,1.12c1.42,1.89,3.31,3.21,6.15,1.8,5.17-2.56,9.13-1,11.56,2.78,4,6.12,3.93,19.57-3,26.39-4.83,4-8.19,4.07-10.75,2.08s-5.4,8.38-17.61-1.71h0A20.29,20.29,0,0,0,75.75,92c3.84.37,4.8-1.57,7.45-.81C86.61,92.41,93.81,92.7,99.4,83A25.13,25.13,0,0,0,100.34,58.42Z"/></g><path class="cls-10" d="M79.72,40.77l0-.06s-.36-.49-1.45,0-1,.8-.53,1.2A3.36,3.36,0,0,0,79.72,40.77Z"/><path class="cls-11" d="M79.72,40.77a3.36,3.36,0,0,1-2,1.14c.46.39,4.63,8.39,3.61,14.69a1.81,1.81,0,0,0,.83.23S83.31,45.9,79.72,40.77Z"/><path class="cls-7" d="M78.76,55.14s2,3.92,6.4.36c0,0-2.11,1.29-3.45,1.16A5.36,5.36,0,0,1,78.76,55.14Z"/><path class="cls-12" d="M82,51.3c13.8,1.85,14.37-10.75,14.37-10.75S87.08,43,82,51.3Z"/><path class="cls-13" d="M82,51.3C87.08,43,96.35,40.55,96.35,40.55,83.73,37.91,82,51.3,82,51.3Z"/><path class="cls-5" d="M77,59.86a1,1,0,0,0-1,1,.1.1,0,0,0,.14.1,0,0,0,0,0,.06,0,1.39,1.39,0,0,1,1.3-.09c.1,0,.18-.07.2-.15A.73.73,0,0,0,77,59.86Z"/><path class="cls-5" d="M85.25,59a1,1,0,0,0-1,.95.1.1,0,0,0,.14.1s0,0,.06,0a1.39,1.39,0,0,1,1.3-.09c.1,0,.18-.06.2-.15A.73.73,0,0,0,85.25,59Z"/><path class="cls-7" d="M75.42,66.2a2.49,2.49,0,0,1,3,1.17A4.64,4.64,0,0,0,75.42,66.2Z"/><path class="cls-7" d="M87.14,65.39s-1.59-.72-3,1.17A4.59,4.59,0,0,1,87.14,65.39Z"/><path class="cls-14" d="M73.64,72.15s1.65,6.56,8,6.5c4.85-.11,7.57-4,8.09-8.72-1.24-.18-1.3-1.89-1.3-1.89A4.65,4.65,0,0,0,92,69.92a2,2,0,0,1-2,.16s.36,9.43-7.23,9.83C77.16,80.31,73.52,77.68,73.64,72.15Z"/></g></g></svg>