<svg xmlns="http://www.w3.org/2000/svg" viewBox="0 0 105.29 104.84"><defs><style>.cls-1{isolation:isolate;}.cls-2{fill:#e30613;}.cls-14,.cls-3,.cls-9{fill:#c80613;}.cls-14,.cls-3,.cls-8{mix-blend-mode:multiply;}.cls-4{fill:#f4a081;mix-blend-mode:color-dodge;}.cls-5{fill:#3d1a0b;}.cls-6{fill:#fff;}.cls-7{fill:#790613;}.cls-10{fill:#623f24;}.cls-11{fill:#a06640;}.cls-12{fill:#279235;}.cls-13{fill:#8abd24;}.cls-14{opacity:0.5;}</style></defs><title>apple7</title><g class="cls-1"><g id="Layer_1" data-name="Layer 1"><path class="cls-2" d="M33.88,25.45a14,14,0,0,1,10.52-8c5.3-.63,6.34,1.25,8.35,2.08s3.42-.33,6.43-1.5S68,18.69,70,22.2a22.18,22.18,0,0,1-.84,21.7c-4.92,8.52-11.27,8.27-14.27,7.18-2.34-.67-3.19,1.05-6.57.71A18.16,18.16,0,0,1,33.54,37.14,19.22,19.22,0,0,1,33.88,25.45Z"/><path class="cls-3" d="M49.34,27.77c.07,1,.41,1.71.76,1.67s.59-.85.53-1.81-.41-1.7-.76-1.67S49.28,26.81,49.34,27.77Z"/><path class="cls-4" d="M44,20.22s-4.57,2.3-5.71,10.08l-2.83-.45a15.31,15.31,0,0,1,7.09-10.16Z"/><path class="cls-4" d="M34.89,31.71a7.61,7.61,0,0,1,2.64.29c-.49,1.94-.69,3.24-.69,3.24L35.26,35A7.9,7.9,0,0,1,34.89,31.71Z"/><path class="cls-5" d="M49.14,27.63c.07.95.4,1.7.76,1.66s.59-.84.52-1.8-.4-1.71-.76-1.67S49.07,26.67,49.14,27.63Z"/><path class="cls-6" d="M49.82,26.82c0,.29.16.5.27.48s.16-.28.12-.56-.16-.5-.27-.48S49.78,26.53,49.82,26.82Z"/><path class="cls-3" d="M56.25,26.91c.06,1,.4,1.73.76,1.69s.58-.86.52-1.83-.41-1.73-.76-1.69S56.18,25.94,56.25,26.91Z"/><path class="cls-5" d="M56,26.77c.07,1,.41,1.73.76,1.69s.59-.86.52-1.84-.4-1.73-.76-1.69S56,25.79,56,26.77Z"/><path class="cls-6" d="M56.73,25.94c0,.3.15.52.26.49s.16-.27.12-.56-.16-.52-.27-.49S56.69,25.65,56.73,25.94Z"/><path class="cls-7" d="M46.57,34.8a4.77,4.77,0,0,0,.19.94,6.17,6.17,0,0,0,1.14,2.2,6,6,0,0,0,1.21,1.12,6.72,6.72,0,0,0,1.66.8,8.15,8.15,0,0,0,1.94.4,9.93,9.93,0,0,0,2,0,6.21,6.21,0,0,0,2-.49,5.43,5.43,0,0,0,1.62-1.09,7.51,7.51,0,0,0,1.8-3,12.52,12.52,0,0,0,.53-2.44c.06-.6.06-1,.06-1a8.53,8.53,0,0,1,0,1,10.71,10.71,0,0,1-.44,2.49,8.1,8.1,0,0,1-.65,1.56,6.19,6.19,0,0,1-1.12,1.53A5.51,5.51,0,0,1,56.81,40a6.47,6.47,0,0,1-2,.53,9.74,9.74,0,0,1-2.09,0,9.3,9.3,0,0,1-2-.42A6.56,6.56,0,0,1,49,39.21,6,6,0,0,1,47.79,38a5.36,5.36,0,0,1-.73-1.23,6.35,6.35,0,0,1-.35-1A4.65,4.65,0,0,1,46.57,34.8Z"/><path class="cls-7" d="M59.59,31.11a3.26,3.26,0,0,0,.33.38,4,4,0,0,0,.85.64l.26.12.27.1.25.07.24,0,.2,0,.16,0,.14,0-.14,0a1.87,1.87,0,0,1-.38,0,1.09,1.09,0,0,1-.25,0l-.28,0L61,32.48l-.29-.13a2.34,2.34,0,0,1-.51-.36L60,31.78a1.3,1.3,0,0,1-.15-.2A1.66,1.66,0,0,1,59.59,31.11Z"/><g class="cls-8"><path class="cls-9" d="M70,22.2c-2-3.51-7.85-5.35-10.85-4.18s-4.43,2.34-6.43,1.5c-1.17-.48-2-1.32-3.57-1.82a4.34,4.34,0,0,1,1.06,1c1.25,1.67,2.92,2.83,5.43,1.59,4.55-2.26,8-.84,10.19,2.45C69.38,28.13,69.32,40,63.18,46c-4.25,3.52-7.22,3.59-9.47,1.84S49,55.22,38.18,46.32h0a17.85,17.85,0,0,0,10.17,5.47c3.38.34,4.23-1.38,6.57-.71,3,1.09,9.35,1.34,14.27-7.18A22.18,22.18,0,0,0,70,22.2Z"/></g><path class="cls-10" d="M51.85,6.64l0,0s-.31-.44-1.28,0-.87.7-.46,1A3,3,0,0,0,51.85,6.64Z"/><path class="cls-11" d="M51.85,6.64a3,3,0,0,1-1.78,1c.4.35,4.08,7.4,3.18,13a1.55,1.55,0,0,0,.73.2S55,11.16,51.85,6.64Z"/><path class="cls-7" d="M51,19.31s1.76,3.46,5.64.32a6.79,6.79,0,0,1-3,1A4.73,4.73,0,0,1,51,19.31Z"/><path class="cls-12" d="M53.84,15.92C66,17.56,66.51,6.44,66.51,6.44S58.34,8.61,53.84,15.92Z"/><path class="cls-13" d="M53.84,15.92c4.5-7.31,12.67-9.48,12.67-9.48C55.38,4.12,53.84,15.92,53.84,15.92Z"/><path class="cls-5" d="M49.46,23.47a.9.9,0,0,0-.85.84.09.09,0,0,0,.12.09s0,0,.06,0a1.26,1.26,0,0,1,1.15-.07.16.16,0,0,0,.17-.14A.64.64,0,0,0,49.46,23.47Z"/><path class="cls-5" d="M56.72,22.73a.9.9,0,0,0-.85.84.1.1,0,0,0,.13.09,0,0,0,0,0,0,0,1.26,1.26,0,0,1,1.15-.07.16.16,0,0,0,.17-.14A.64.64,0,0,0,56.72,22.73Z"/><path class="cls-7" d="M48.06,29.06a2.18,2.18,0,0,1,2.61,1A4.06,4.06,0,0,0,48.06,29.06Z"/><path class="cls-7" d="M58.39,28.34a2.19,2.19,0,0,0-2.62,1A4.07,4.07,0,0,1,58.39,28.34Z"/><path class="cls-14" d="M46.48,34.3s1.46,5.79,7,5.73c4.28-.1,6.68-3.5,7.14-7.68-1.1-.16-1.15-1.67-1.15-1.67a4.1,4.1,0,0,0,3.17,1.66,1.76,1.76,0,0,1-1.73.14s.31,8.31-6.38,8.66C49.59,41.5,46.38,39.18,46.48,34.3Z"/><path class="cls-2" d="M57.32,48.82a13,13,0,0,1,9.8-7.47c4.94-.59,5.91,1.17,7.78,1.94s3.19-.31,6-1.4,8.24.63,10.11,3.89A20.65,20.65,0,0,1,90.22,66c-4.59,7.93-10.5,7.7-13.3,6.69-2.18-.63-3,1-6.12.66A16.93,16.93,0,0,1,57,59.71,17.89,17.89,0,0,1,57.32,48.82Z"/><path class="cls-3" d="M71.73,51c.06.89.38,1.59.71,1.55s.55-.79.48-1.68-.37-1.59-.7-1.56S71.67,50.08,71.73,51Z"/><path class="cls-4" d="M66.72,43.94s-4.27,2.15-5.32,9.39l-2.64-.41a14.24,14.24,0,0,1,6.6-9.47Z"/><path class="cls-4" d="M58.27,54.65a7.23,7.23,0,0,1,2.45.26c-.45,1.82-.64,3-.64,3l-1.47-.22A7.4,7.4,0,0,1,58.27,54.65Z"/><path class="cls-5" d="M71.54,50.84c.06.89.38,1.59.71,1.55s.54-.78.48-1.68-.38-1.59-.71-1.55S71.48,50,71.54,50.84Z"/><path class="cls-6" d="M72.18,50.09c0,.27.14.47.24.45s.15-.26.11-.53-.14-.46-.24-.44S72.14,49.82,72.18,50.09Z"/><path class="cls-3" d="M78.16,50.18c.06.9.38,1.61.71,1.57s.55-.8.48-1.71-.37-1.61-.7-1.57S78.1,49.27,78.16,50.18Z"/><path class="cls-5" d="M78,50c.06.91.38,1.61.71,1.58s.54-.8.48-1.71-.38-1.62-.7-1.58S77.91,49.13,78,50Z"/><path class="cls-6" d="M78.61,49.27c0,.28.14.48.24.46s.15-.26.11-.53-.14-.48-.24-.46S78.57,49,78.61,49.27Z"/><path class="cls-7" d="M69.14,57.53a4.48,4.48,0,0,0,.18.87,5.82,5.82,0,0,0,1.06,2.05,5.42,5.42,0,0,0,1.13,1,6.36,6.36,0,0,0,1.55.75,8.1,8.1,0,0,0,1.8.37,10.15,10.15,0,0,0,1.91,0,6,6,0,0,0,1.83-.46,5.29,5.29,0,0,0,1.51-1,7.1,7.1,0,0,0,1.67-2.78,11.24,11.24,0,0,0,.49-2.28c.06-.56.06-.89.06-.89a7.5,7.5,0,0,1,0,.89,10,10,0,0,1-.41,2.32,7.64,7.64,0,0,1-.6,1.46,6.06,6.06,0,0,1-1,1.42,5.08,5.08,0,0,1-1.57,1.07,6.07,6.07,0,0,1-1.89.5,9.77,9.77,0,0,1-2,0,8.57,8.57,0,0,1-1.85-.4,5.81,5.81,0,0,1-1.57-.8,5.44,5.44,0,0,1-1.14-1.1,5.66,5.66,0,0,1-.68-1.15,5.18,5.18,0,0,1-.32-1A4,4,0,0,1,69.14,57.53Z"/><path class="cls-7" d="M81.28,54.09a4,4,0,0,0,.3.35,3.66,3.66,0,0,0,.35.31,3.46,3.46,0,0,0,.45.29l.24.11.25.09.23.07.22,0,.19,0,.15,0,.13,0-.13,0a1.61,1.61,0,0,1-.35,0h-.24l-.26,0a2.76,2.76,0,0,1-.27-.08l-.27-.12a2.32,2.32,0,0,1-.47-.33,1.12,1.12,0,0,1-.18-.2,1.33,1.33,0,0,1-.14-.19A1.37,1.37,0,0,1,81.28,54.09Z"/><g class="cls-8"><path class="cls-9" d="M91,45.78c-1.87-3.26-7.31-5-10.11-3.89s-4.12,2.18-6,1.4a30.77,30.77,0,0,0-3.32-1.69,4.11,4.11,0,0,1,1,.92c1.16,1.55,2.71,2.63,5.05,1.47,4.24-2.1,7.5-.78,9.5,2.29,3.28,5,3.22,16.07-2.5,21.67-4,3.28-6.73,3.35-8.83,1.71s-4.43,6.89-14.46-1.4h0a16.63,16.63,0,0,0,9.47,5.1c3.15.31,3.94-1.29,6.12-.66,2.8,1,8.71,1.24,13.3-6.69A20.65,20.65,0,0,0,91,45.78Z"/></g><path class="cls-10" d="M74.06,31.29l0-.05s-.29-.41-1.19,0-.82.65-.44,1A2.74,2.74,0,0,0,74.06,31.29Z"/><path class="cls-11" d="M74.06,31.29a2.74,2.74,0,0,1-1.66.93c.38.33,3.8,6.9,3,12.07a1.51,1.51,0,0,0,.69.19S77,35.5,74.06,31.29Z"/><path class="cls-7" d="M73.27,43.09s1.64,3.22,5.26.3a6.22,6.22,0,0,1-2.83,1A4.39,4.39,0,0,1,73.27,43.09Z"/><path class="cls-12" d="M75.92,39.94c11.33,1.52,11.8-8.83,11.8-8.83S80.11,33.13,75.92,39.94Z"/><path class="cls-13" d="M75.92,39.94c4.19-6.81,11.8-8.83,11.8-8.83C77.36,28.94,75.92,39.94,75.92,39.94Z"/><path class="cls-5" d="M71.84,47a.82.82,0,0,0-.79.78.07.07,0,0,0,.11.08s0,0,0,0a1.16,1.16,0,0,1,1.07-.07c.08,0,.15-.06.16-.13A.59.59,0,0,0,71.84,47Z"/><path class="cls-5" d="M78.6,46.28a.84.84,0,0,0-.79.78.08.08,0,0,0,.12.08s0,0,0,0a1.16,1.16,0,0,1,1.07-.07c.08,0,.14-.06.16-.13A.6.6,0,0,0,78.6,46.28Z"/><path class="cls-7" d="M70.53,52.18a2,2,0,0,1,2.43,1A3.73,3.73,0,0,0,70.53,52.18Z"/><path class="cls-7" d="M80.16,51.51a2,2,0,0,0-2.44,1A3.74,3.74,0,0,1,80.16,51.51Z"/><path class="cls-14" d="M69.06,57.06s1.36,5.39,6.56,5.34c4-.09,6.22-3.26,6.65-7.16-1-.15-1.07-1.55-1.07-1.55a3.83,3.83,0,0,0,3,1.54,1.6,1.6,0,0,1-1.61.13s.29,7.75-5.94,8.08C72,63.76,69,61.61,69.06,57.06Z"/><path class="cls-2" d="M32.75,48.75a13,13,0,0,1,9.8-7.46c4.94-.59,5.91,1.16,7.78,1.94s3.19-.31,6-1.4,8.24.62,10.11,3.89a20.66,20.66,0,0,1-.78,20.22c-4.59,7.94-10.5,7.71-13.3,6.69-2.18-.62-3,1-6.12.67A16.93,16.93,0,0,1,32.44,59.64,17.81,17.81,0,0,1,32.75,48.75Z"/><path class="cls-3" d="M47.16,50.92c.06.89.37,1.58.7,1.55s.55-.79.49-1.68-.38-1.59-.71-1.56S47.09,50,47.16,50.92Z"/><path class="cls-4" d="M42.14,43.88S37.88,46,36.82,53.27l-2.64-.42a14.27,14.27,0,0,1,6.61-9.46Z"/><path class="cls-4" d="M33.69,54.59a7.28,7.28,0,0,1,2.46.26c-.46,1.81-.65,3-.65,3L34,57.64A7.53,7.53,0,0,1,33.69,54.59Z"/><path class="cls-5" d="M47,50.78c.06.89.37,1.59.7,1.55s.55-.79.49-1.68-.38-1.59-.71-1.55S46.9,49.89,47,50.78Z"/><path class="cls-6" d="M47.6,50c0,.26.15.46.25.45S48,50.22,48,50s-.15-.47-.25-.45S47.57,49.76,47.6,50Z"/><path class="cls-3" d="M53.59,50.11c.06.91.37,1.62.71,1.58s.54-.8.48-1.71-.38-1.61-.71-1.58S53.53,49.21,53.59,50.11Z"/><path class="cls-5" d="M53.4,50c.06.9.37,1.61.7,1.57s.55-.8.49-1.7-.38-1.62-.71-1.58S53.33,49.07,53.4,50Z"/><path class="cls-6" d="M54,49.21c0,.28.15.48.25.46s.15-.26.11-.53-.15-.48-.25-.46S54,48.94,54,49.21Z"/><path class="cls-7" d="M44.57,57.47a4.48,4.48,0,0,0,.18.87,5.73,5.73,0,0,0,1.06,2,5.42,5.42,0,0,0,1.13,1,6.19,6.19,0,0,0,1.55.75,8,8,0,0,0,1.8.37,10.15,10.15,0,0,0,1.91,0A6,6,0,0,0,54,62.09a5,5,0,0,0,1.51-1A6.78,6.78,0,0,0,57.2,58.3,11.38,11.38,0,0,0,57.7,56c.06-.56.06-.89.06-.89a7.5,7.5,0,0,1,0,.89,10.61,10.61,0,0,1-.41,2.32,9.6,9.6,0,0,1-.6,1.46,5.84,5.84,0,0,1-1.06,1.42,5.21,5.21,0,0,1-1.56,1.07,6.13,6.13,0,0,1-1.9.5,9.67,9.67,0,0,1-1.94,0,8.57,8.57,0,0,1-1.85-.4,5.87,5.87,0,0,1-1.58-.8A5.52,5.52,0,0,1,45,59.32a6.56,6.56,0,0,1-.33-1A4.34,4.34,0,0,1,44.57,57.47Z"/><path class="cls-7" d="M56.7,54a4.53,4.53,0,0,0,.31.36,3.66,3.66,0,0,0,.35.31,3.4,3.4,0,0,0,.45.28,1.79,1.79,0,0,0,.24.12l.24.09.24.07.22,0,.19,0,.14,0,.13,0-.13,0a1.52,1.52,0,0,1-.34,0H58.5l-.26,0L58,55.3a2.21,2.21,0,0,1-.27-.12,2.07,2.07,0,0,1-.47-.33,1.62,1.62,0,0,1-.18-.2.77.77,0,0,1-.14-.19A1.57,1.57,0,0,1,56.7,54Z"/><g class="cls-8"><path class="cls-9" d="M66.43,45.72c-1.87-3.27-7.31-5-10.11-3.89s-4.13,2.18-6,1.4A30.69,30.69,0,0,0,47,41.53a4.29,4.29,0,0,1,1,.92c1.17,1.56,2.72,2.64,5.06,1.48,4.24-2.1,7.49-.78,9.49,2.29,3.28,5,3.23,16.07-2.49,21.67-4,3.28-6.73,3.34-8.83,1.71s-4.43,6.88-14.47-1.4h0a16.71,16.71,0,0,0,9.48,5.1c3.15.31,3.94-1.29,6.12-.67,2.8,1,8.71,1.25,13.3-6.69A20.66,20.66,0,0,0,66.43,45.72Z"/></g><path class="cls-10" d="M49.49,31.22l0,0s-.3-.41-1.2,0-.81.65-.43,1A2.72,2.72,0,0,0,49.49,31.22Z"/><path class="cls-11" d="M49.49,31.22a2.72,2.72,0,0,1-1.66.94c.38.33,3.8,6.9,3,12.07a1.51,1.51,0,0,0,.69.19S52.44,35.44,49.49,31.22Z"/><path class="cls-7" d="M48.7,43s1.64,3.22,5.26.3a6.22,6.22,0,0,1-2.84,1A4.39,4.39,0,0,1,48.7,43Z"/><path class="cls-12" d="M51.35,39.88C62.68,41.4,63.15,31,63.15,31S55.54,33.07,51.35,39.88Z"/><path class="cls-13" d="M51.35,39.88C55.54,33.07,63.15,31,63.15,31,52.78,28.88,51.35,39.88,51.35,39.88Z"/><path class="cls-5" d="M47.26,46.91a.84.84,0,0,0-.79.78.09.09,0,0,0,.12.08s0,0,0,0a1.16,1.16,0,0,1,1.07-.08c.08,0,.15-.05.16-.12A.59.59,0,0,0,47.26,46.91Z"/><path class="cls-5" d="M54,46.22a.82.82,0,0,0-.79.78c0,.07.06.11.11.08a0,0,0,0,0,.06,0A1.14,1.14,0,0,1,54.47,47c.08,0,.15-.06.17-.13A.6.6,0,0,0,54,46.22Z"/><path class="cls-7" d="M46,52.12a2,2,0,0,1,2.43,1A3.73,3.73,0,0,0,46,52.12Z"/><path class="cls-7" d="M55.58,51.45a2,2,0,0,0-2.43,1A3.73,3.73,0,0,1,55.58,51.45Z"/><path class="cls-14" d="M44.49,57s1.36,5.39,6.56,5.34c4-.09,6.22-3.26,6.65-7.16-1-.15-1.07-1.55-1.07-1.55a3.8,3.8,0,0,0,2.95,1.54A1.63,1.63,0,0,1,58,55.3s.29,7.75-5.94,8.07C47.39,63.7,44.4,61.54,44.49,57Z"/><path class="cls-2" d="M13,48.4a13,13,0,0,1,9.8-7.47c4.94-.59,5.91,1.16,7.78,1.94s3.19-.31,6-1.4,8.25.62,10.11,3.89a20.65,20.65,0,0,1-.78,20.23c-4.59,7.93-10.5,7.7-13.3,6.69-2.18-.63-3,1-6.12.66A16.93,16.93,0,0,1,12.69,59.29,17.89,17.89,0,0,1,13,48.4Z"/><path class="cls-3" d="M27.41,50.56c.06.89.38,1.59.71,1.55s.55-.79.48-1.68-.37-1.59-.7-1.56S27.35,49.66,27.41,50.56Z"/><path class="cls-4" d="M22.4,43.52s-4.27,2.15-5.32,9.39l-2.64-.42A14.28,14.28,0,0,1,21,43Z"/><path class="cls-4" d="M14,54.23a7.23,7.23,0,0,1,2.45.26c-.45,1.81-.64,3-.64,3l-1.47-.22A7.4,7.4,0,0,1,14,54.23Z"/><path class="cls-5" d="M27.22,50.42c.06.89.38,1.59.71,1.55s.55-.79.48-1.68-.37-1.59-.7-1.55S27.16,49.53,27.22,50.42Z"/><path class="cls-6" d="M27.86,49.67c0,.27.14.47.24.45s.15-.26.11-.53-.14-.46-.24-.44S27.82,49.4,27.86,49.67Z"/><path class="cls-3" d="M33.84,49.76c.06.9.38,1.61.71,1.57s.55-.8.49-1.71-.38-1.61-.71-1.57S33.78,48.85,33.84,49.76Z"/><path class="cls-5" d="M33.65,49.62c.06.91.38,1.61.71,1.58s.55-.81.48-1.71-.37-1.62-.7-1.58S33.59,48.71,33.65,49.62Z"/><path class="cls-6" d="M34.29,48.85c0,.28.14.48.24.46s.15-.26.12-.53-.15-.48-.25-.46S34.25,48.58,34.29,48.85Z"/><path class="cls-7" d="M24.82,57.11A5.72,5.72,0,0,0,25,58,6,6,0,0,0,26.06,60a5.48,5.48,0,0,0,1.14,1,6.12,6.12,0,0,0,1.54.75,8.22,8.22,0,0,0,1.8.37,10.15,10.15,0,0,0,1.91,0,6,6,0,0,0,1.83-.46,5.5,5.5,0,0,0,1.51-1,7,7,0,0,0,1.67-2.78A11.24,11.24,0,0,0,38,55.66c.06-.56.06-.89.06-.89a7.5,7.5,0,0,1,0,.89A10,10,0,0,1,37.58,58a7.64,7.64,0,0,1-.6,1.46,6.06,6.06,0,0,1-1,1.42,5.08,5.08,0,0,1-1.57,1.07,6.07,6.07,0,0,1-1.89.5,9.77,9.77,0,0,1-1.95,0,8.7,8.7,0,0,1-1.85-.4,5.81,5.81,0,0,1-1.57-.8A5.44,5.44,0,0,1,26,60.11,5.66,5.66,0,0,1,25.28,59,6,6,0,0,1,25,58,4,4,0,0,1,24.82,57.11Z"/><path class="cls-7" d="M37,53.67a3.39,3.39,0,0,0,.31.35,2.62,2.62,0,0,0,.34.31,5,5,0,0,0,.45.29l.24.11.25.09.23.07.22,0,.19,0,.15,0,.13,0-.13,0a2.27,2.27,0,0,1-.35,0h-.23l-.27,0c-.08,0-.18,0-.27-.08L38,54.82a2.32,2.32,0,0,1-.47-.33,1.12,1.12,0,0,1-.18-.2,1.33,1.33,0,0,1-.14-.19A1.37,1.37,0,0,1,37,53.67Z"/><g class="cls-8"><path class="cls-9" d="M46.68,45.36c-1.86-3.27-7.31-5-10.11-3.89s-4.12,2.18-6,1.4a28.24,28.24,0,0,0-3.32-1.69,4.11,4.11,0,0,1,1,.92c1.16,1.55,2.72,2.63,5,1.47,4.24-2.1,7.5-.78,9.5,2.29,3.28,5,3.22,16.07-2.5,21.67-4,3.28-6.72,3.35-8.82,1.71S27,76.13,17,67.84h0a16.63,16.63,0,0,0,9.47,5.1c3.15.31,3.94-1.29,6.12-.66,2.8,1,8.71,1.24,13.3-6.69A20.65,20.65,0,0,0,46.68,45.36Z"/></g><path class="cls-10" d="M29.74,30.87l0-.05s-.29-.41-1.19,0-.82.65-.44,1A2.74,2.74,0,0,0,29.74,30.87Z"/><path class="cls-11" d="M29.74,30.87a2.74,2.74,0,0,1-1.66.93c.38.33,3.8,6.9,3,12.07a1.43,1.43,0,0,0,.68.19S32.69,35.08,29.74,30.87Z"/><path class="cls-7" d="M29,42.67s1.64,3.22,5.26.3a6.22,6.22,0,0,1-2.83,1A4.39,4.39,0,0,1,29,42.67Z"/><path class="cls-12" d="M31.6,39.52C42.94,41,43.41,30.69,43.41,30.69S35.79,32.71,31.6,39.52Z"/><path class="cls-13" d="M31.6,39.52c4.19-6.81,11.81-8.83,11.81-8.83C33,28.52,31.6,39.52,31.6,39.52Z"/><path class="cls-5" d="M27.52,46.55a.82.82,0,0,0-.79.78.07.07,0,0,0,.11.08s0,0,.05,0A1.16,1.16,0,0,1,28,47.35c.08,0,.15-.06.16-.13A.59.59,0,0,0,27.52,46.55Z"/><path class="cls-5" d="M34.28,45.86a.84.84,0,0,0-.79.78.08.08,0,0,0,.12.08s0,0,0,0a1.16,1.16,0,0,1,1.07-.07c.08,0,.15-.06.16-.13A.6.6,0,0,0,34.28,45.86Z"/><path class="cls-7" d="M26.21,51.76a2,2,0,0,1,2.44,1A3.77,3.77,0,0,0,26.21,51.76Z"/><path class="cls-7" d="M35.84,51.09a2,2,0,0,0-2.44,1A3.74,3.74,0,0,1,35.84,51.09Z"/><path class="cls-14" d="M24.75,56.64S26.1,62,31.3,62c4-.09,6.22-3.26,6.65-7.16-1-.15-1.07-1.55-1.07-1.55a3.83,3.83,0,0,0,2.95,1.54,1.6,1.6,0,0,1-1.61.13s.29,7.75-5.94,8.08C27.64,63.34,24.65,61.19,24.75,56.64Z"/><path class="cls-2" d="M57.32,74.12a13,13,0,0,1,9.8-7.47c4.94-.58,5.91,1.17,7.78,1.94s3.19-.31,6-1.4,8.24.63,10.11,3.89a20.65,20.65,0,0,1-.78,20.23C85.63,99.24,79.72,99,76.92,98c-2.18-.63-3,1-6.12.66A16.93,16.93,0,0,1,57,85,17.89,17.89,0,0,1,57.32,74.12Z"/><path class="cls-3" d="M71.73,76.28c.06.89.38,1.59.71,1.55s.55-.79.48-1.68-.37-1.59-.7-1.56S71.67,75.38,71.73,76.28Z"/><path class="cls-4" d="M66.72,69.24s-4.27,2.15-5.32,9.39l-2.64-.41a14.24,14.24,0,0,1,6.6-9.47Z"/><path class="cls-4" d="M58.27,80a7.09,7.09,0,0,1,2.45.27c-.45,1.81-.64,3-.64,3L58.61,83A7.4,7.4,0,0,1,58.27,80Z"/><path class="cls-5" d="M71.54,76.14c.06.89.38,1.59.71,1.55s.54-.78.48-1.68-.38-1.59-.71-1.55S71.48,75.25,71.54,76.14Z"/><path class="cls-6" d="M72.18,75.39c0,.27.14.47.24.45s.15-.26.11-.52-.14-.47-.24-.45S72.14,75.12,72.18,75.39Z"/><path class="cls-3" d="M78.16,75.48c.06.9.38,1.61.71,1.57s.55-.8.48-1.71-.37-1.61-.7-1.57S78.1,74.57,78.16,75.48Z"/><path class="cls-5" d="M78,75.34c.06.91.38,1.61.71,1.58s.54-.8.48-1.71-.38-1.62-.7-1.58S77.91,74.43,78,75.34Z"/><path class="cls-6" d="M78.61,74.58c0,.27.14.47.24.45s.15-.26.11-.53-.14-.48-.24-.45S78.57,74.3,78.61,74.58Z"/><path class="cls-7" d="M69.14,82.83a4.48,4.48,0,0,0,.18.87,5.82,5.82,0,0,0,1.06,2,5.42,5.42,0,0,0,1.13,1,6.36,6.36,0,0,0,1.55.75,8.71,8.71,0,0,0,1.8.38,10.16,10.16,0,0,0,1.91,0,6,6,0,0,0,1.83-.46,5.29,5.29,0,0,0,1.51-1,7.1,7.1,0,0,0,1.67-2.78,11.24,11.24,0,0,0,.49-2.28c.06-.56.06-.89.06-.89a7.66,7.66,0,0,1,0,.9,10.06,10.06,0,0,1-.41,2.31,7.64,7.64,0,0,1-.6,1.46,6.06,6.06,0,0,1-1,1.42,5.29,5.29,0,0,1-1.57,1.08,6.34,6.34,0,0,1-1.89.49,9.77,9.77,0,0,1-2,0,8.57,8.57,0,0,1-1.85-.4,5.81,5.81,0,0,1-1.57-.8,5.44,5.44,0,0,1-1.82-2.25,5,5,0,0,1-.32-1A4,4,0,0,1,69.14,82.83Z"/><path class="cls-7" d="M81.28,79.39a4,4,0,0,0,.3.35,3.66,3.66,0,0,0,.35.31,3.46,3.46,0,0,0,.45.29l.24.11.25.09.23.07.22,0,.19,0,.15,0,.13,0-.13,0a1.61,1.61,0,0,1-.35,0h-.24l-.26,0a2.76,2.76,0,0,1-.27-.08c-.09,0-.18-.07-.27-.12a2,2,0,0,1-.47-.33,1.57,1.57,0,0,1-.18-.19,2.43,2.43,0,0,1-.14-.2A1.37,1.37,0,0,1,81.28,79.39Z"/><g class="cls-8"><path class="cls-9" d="M91,71.08c-1.87-3.26-7.31-5-10.11-3.89s-4.12,2.18-6,1.4a30.77,30.77,0,0,0-3.32-1.69,4.11,4.11,0,0,1,1,.92c1.16,1.55,2.71,2.63,5.05,1.47,4.24-2.1,7.5-.78,9.5,2.29,3.28,5,3.22,16.07-2.5,21.67-4,3.28-6.73,3.35-8.83,1.71s-4.43,6.89-14.46-1.4h0a16.63,16.63,0,0,0,9.47,5.1C74,99,74.74,97.37,76.92,98c2.8,1,8.71,1.24,13.3-6.69A20.65,20.65,0,0,0,91,71.08Z"/></g><path class="cls-10" d="M74.06,56.59l0-.05s-.29-.41-1.19,0-.82.66-.44,1A2.74,2.74,0,0,0,74.06,56.59Z"/><path class="cls-11" d="M74.06,56.59a2.74,2.74,0,0,1-1.66.93c.38.33,3.8,6.9,3,12.07a1.51,1.51,0,0,0,.69.19S77,60.8,74.06,56.59Z"/><path class="cls-7" d="M73.27,68.39s1.64,3.22,5.26.3a6.22,6.22,0,0,1-2.83,1A4.39,4.39,0,0,1,73.27,68.39Z"/><path class="cls-12" d="M75.92,65.24c11.33,1.52,11.8-8.83,11.8-8.83S80.11,58.43,75.92,65.24Z"/><path class="cls-13" d="M75.92,65.24c4.19-6.81,11.8-8.83,11.8-8.83C77.36,54.24,75.92,65.24,75.92,65.24Z"/><path class="cls-5" d="M71.84,72.27a.82.82,0,0,0-.79.78.07.07,0,0,0,.11.08s0,0,0,0a1.16,1.16,0,0,1,1.07-.07c.08,0,.15-.06.16-.13A.59.59,0,0,0,71.84,72.27Z"/><path class="cls-5" d="M78.6,71.58a.84.84,0,0,0-.79.78.08.08,0,0,0,.12.08s0,0,0,0a1.16,1.16,0,0,1,1.07-.07c.08,0,.14-.06.16-.13A.6.6,0,0,0,78.6,71.58Z"/><path class="cls-7" d="M70.53,77.48a2,2,0,0,1,2.43,1A3.73,3.73,0,0,0,70.53,77.48Z"/><path class="cls-7" d="M80.16,76.81a2,2,0,0,0-2.44,1A3.74,3.74,0,0,1,80.16,76.81Z"/><path class="cls-14" d="M69.06,82.36s1.36,5.39,6.56,5.34c4-.09,6.22-3.26,6.65-7.16-1-.15-1.07-1.55-1.07-1.55a3.83,3.83,0,0,0,3,1.54,1.6,1.6,0,0,1-1.61.13s.29,7.75-5.94,8.08C72,89.06,69,86.91,69.06,82.36Z"/><path class="cls-2" d="M32.75,74.06a13,13,0,0,1,9.8-7.47c4.94-.59,5.91,1.16,7.78,1.94s3.19-.31,6-1.4,8.24.62,10.11,3.89a20.68,20.68,0,0,1-.78,20.23c-4.59,7.93-10.5,7.7-13.3,6.69-2.18-.63-3,1-6.12.66A16.93,16.93,0,0,1,32.44,85,17.8,17.8,0,0,1,32.75,74.06Z"/><path class="cls-3" d="M47.16,76.22c.06.89.37,1.59.7,1.55s.55-.79.49-1.68-.38-1.59-.71-1.56S47.09,75.32,47.16,76.22Z"/><path class="cls-4" d="M42.14,69.18s-4.26,2.15-5.32,9.39l-2.64-.42a14.27,14.27,0,0,1,6.61-9.46Z"/><path class="cls-4" d="M33.69,79.89a7.28,7.28,0,0,1,2.46.26c-.46,1.81-.65,3-.65,3L34,82.94A7.53,7.53,0,0,1,33.69,79.89Z"/><path class="cls-5" d="M47,76.08c.06.89.37,1.59.7,1.55s.55-.79.49-1.68-.38-1.59-.71-1.55S46.9,75.19,47,76.08Z"/><path class="cls-6" d="M47.6,75.33c0,.27.15.47.25.45s.15-.26.11-.53-.15-.47-.25-.45S47.57,75.06,47.6,75.33Z"/><path class="cls-3" d="M53.59,75.41c.06.91.37,1.62.71,1.58s.54-.8.48-1.71-.38-1.61-.71-1.58S53.53,74.51,53.59,75.41Z"/><path class="cls-5" d="M53.4,75.28c.06.91.37,1.61.7,1.58s.55-.81.49-1.71-.38-1.62-.71-1.58S53.33,74.37,53.4,75.28Z"/><path class="cls-6" d="M54,74.51c0,.28.15.48.25.46s.15-.26.11-.53-.15-.48-.25-.46S54,74.24,54,74.51Z"/><path class="cls-7" d="M44.57,82.77a4.48,4.48,0,0,0,.18.87,5.73,5.73,0,0,0,1.06,2,5.42,5.42,0,0,0,1.13,1,6.19,6.19,0,0,0,1.55.75,8,8,0,0,0,1.8.37,10.15,10.15,0,0,0,1.91,0A5.75,5.75,0,0,0,54,87.39a5.12,5.12,0,0,0,1.51-1A6.87,6.87,0,0,0,57.2,83.6a11.38,11.38,0,0,0,.5-2.28c.06-.56.06-.89.06-.89a7.5,7.5,0,0,1,0,.89,10.61,10.61,0,0,1-.41,2.32,9.6,9.6,0,0,1-.6,1.46,5.84,5.84,0,0,1-1.06,1.42,5.21,5.21,0,0,1-1.56,1.07,6.13,6.13,0,0,1-1.9.5,9.67,9.67,0,0,1-1.94,0,8.57,8.57,0,0,1-1.85-.4,5.87,5.87,0,0,1-1.58-.8A5.52,5.52,0,0,1,45,84.62a6.56,6.56,0,0,1-.33-1A4.34,4.34,0,0,1,44.57,82.77Z"/><path class="cls-7" d="M56.7,79.32a4.53,4.53,0,0,0,.31.36,3.66,3.66,0,0,0,.35.31,3.4,3.4,0,0,0,.45.28,1.79,1.79,0,0,0,.24.12l.24.09.24.07.22,0,.19,0,.14,0,.13,0-.13,0a2.27,2.27,0,0,1-.34,0H58.5l-.26,0L58,80.6a2.21,2.21,0,0,1-.27-.12,2.07,2.07,0,0,1-.47-.33,1.12,1.12,0,0,1-.18-.2.77.77,0,0,1-.14-.19A1.57,1.57,0,0,1,56.7,79.32Z"/><g class="cls-8"><path class="cls-9" d="M66.43,71c-1.87-3.27-7.31-5-10.11-3.89s-4.13,2.18-6,1.4A29.05,29.05,0,0,0,47,66.84a4,4,0,0,1,1,.91c1.17,1.56,2.72,2.64,5.06,1.48,4.24-2.1,7.49-.78,9.49,2.29,3.28,5,3.23,16.07-2.49,21.67-4,3.28-6.73,3.35-8.83,1.71s-4.43,6.89-14.47-1.4h0a16.65,16.65,0,0,0,9.48,5.1c3.15.31,3.94-1.29,6.12-.66,2.8,1,8.71,1.24,13.3-6.69A20.68,20.68,0,0,0,66.43,71Z"/></g><path class="cls-10" d="M49.49,56.53l0-.05s-.3-.41-1.2,0-.81.65-.43,1A2.74,2.74,0,0,0,49.49,56.53Z"/><path class="cls-11" d="M49.49,56.53a2.74,2.74,0,0,1-1.66.93c.38.33,3.8,6.9,3,12.07a1.51,1.51,0,0,0,.69.19S52.44,60.74,49.49,56.53Z"/><path class="cls-7" d="M48.7,68.33s1.64,3.22,5.26.3a6.22,6.22,0,0,1-2.84,1A4.39,4.39,0,0,1,48.7,68.33Z"/><path class="cls-12" d="M51.35,65.18c11.33,1.52,11.8-8.83,11.8-8.83S55.54,58.37,51.35,65.18Z"/><path class="cls-13" d="M51.35,65.18c4.19-6.81,11.8-8.83,11.8-8.83C52.78,54.18,51.35,65.18,51.35,65.18Z"/><path class="cls-5" d="M47.26,72.21a.84.84,0,0,0-.79.78.09.09,0,0,0,.12.08s0,0,0,0A1.16,1.16,0,0,1,47.71,73c.08,0,.15,0,.16-.12A.59.59,0,0,0,47.26,72.21Z"/><path class="cls-5" d="M54,71.52a.82.82,0,0,0-.79.78c0,.07.06.11.11.08a0,0,0,0,0,.06,0,1.14,1.14,0,0,1,1.06-.07c.08,0,.15-.06.17-.13A.6.6,0,0,0,54,71.52Z"/><path class="cls-7" d="M46,77.42a2,2,0,0,1,2.43,1A3.73,3.73,0,0,0,46,77.42Z"/><path class="cls-7" d="M55.58,76.75a2,2,0,0,0-2.43,1A3.73,3.73,0,0,1,55.58,76.75Z"/><path class="cls-14" d="M44.49,82.3s1.36,5.39,6.56,5.34c4-.09,6.22-3.26,6.65-7.16-1-.15-1.07-1.55-1.07-1.55a3.8,3.8,0,0,0,2.95,1.54A1.63,1.63,0,0,1,58,80.6s.29,7.75-5.94,8.07C47.39,89,44.4,86.84,44.49,82.3Z"/><path class="cls-2" d="M13,73.7a13,13,0,0,1,9.8-7.47c4.94-.59,5.91,1.17,7.78,1.94s3.19-.31,6-1.4,8.25.63,10.11,3.89a20.65,20.65,0,0,1-.78,20.23c-4.59,7.93-10.5,7.7-13.3,6.69-2.18-.63-3,1-6.12.66A16.93,16.93,0,0,1,12.69,84.59,17.89,17.89,0,0,1,13,73.7Z"/><path class="cls-3" d="M27.41,75.86c.06.89.38,1.59.71,1.55s.55-.79.48-1.68-.37-1.59-.7-1.56S27.35,75,27.41,75.86Z"/><path class="cls-4" d="M22.4,68.82S18.13,71,17.08,78.21l-2.64-.41A14.29,14.29,0,0,1,21,68.33Z"/><path class="cls-4" d="M14,79.53a7.23,7.23,0,0,1,2.45.26c-.45,1.82-.64,3-.64,3l-1.47-.22A7.4,7.4,0,0,1,14,79.53Z"/><path class="cls-5" d="M27.22,75.72c.06.89.38,1.59.71,1.55s.55-.78.48-1.68S28,74,27.71,74,27.16,74.83,27.22,75.72Z"/><path class="cls-6" d="M27.86,75c0,.27.14.47.24.45s.15-.26.11-.53-.14-.46-.24-.44S27.82,74.7,27.86,75Z"/><path class="cls-3" d="M33.84,75.06c.06.9.38,1.61.71,1.57s.55-.8.49-1.71-.38-1.61-.71-1.57S33.78,74.15,33.84,75.06Z"/><path class="cls-5" d="M33.65,74.92c.06.91.38,1.61.71,1.58s.55-.8.48-1.71-.37-1.62-.7-1.58S33.59,74,33.65,74.92Z"/><path class="cls-6" d="M34.29,74.16c0,.27.14.47.24.45s.15-.26.12-.53-.15-.48-.25-.45S34.25,73.88,34.29,74.16Z"/><path class="cls-7" d="M24.82,82.41a5.72,5.72,0,0,0,.18.87,6,6,0,0,0,1.06,2,5.48,5.48,0,0,0,1.14,1,6.12,6.12,0,0,0,1.54.75,8.85,8.85,0,0,0,1.8.38,10.16,10.16,0,0,0,1.91,0A6,6,0,0,0,34.28,87a5.29,5.29,0,0,0,1.51-1,7,7,0,0,0,1.67-2.78A11.24,11.24,0,0,0,38,81c.06-.56.06-.89.06-.89a7.66,7.66,0,0,1,0,.9,10.06,10.06,0,0,1-.41,2.31,7.64,7.64,0,0,1-.6,1.46,6.06,6.06,0,0,1-1,1.42,5.08,5.08,0,0,1-1.57,1.07,6.07,6.07,0,0,1-1.89.5,9.77,9.77,0,0,1-1.95,0,8.7,8.7,0,0,1-1.85-.4,5.81,5.81,0,0,1-1.57-.8A5.44,5.44,0,0,1,26,85.41a5.66,5.66,0,0,1-.68-1.15,6,6,0,0,1-.32-1A4,4,0,0,1,24.82,82.41Z"/><path class="cls-7" d="M37,79a3.39,3.39,0,0,0,.31.35,2.62,2.62,0,0,0,.34.31,3.46,3.46,0,0,0,.45.29l.24.11.25.09.23.07.22,0,.19,0,.15,0,.13,0-.13,0a1.46,1.46,0,0,1-.35,0h-.23l-.27,0c-.08,0-.18,0-.27-.08s-.18-.07-.27-.12a2,2,0,0,1-.47-.33,1.12,1.12,0,0,1-.18-.2,1.33,1.33,0,0,1-.14-.19A1.37,1.37,0,0,1,37,79Z"/><g class="cls-8"><path class="cls-9" d="M46.68,70.66c-1.86-3.26-7.31-5-10.11-3.89s-4.12,2.18-6,1.4a29.86,29.86,0,0,0-3.32-1.69,4.11,4.11,0,0,1,1,.92C29.41,69,31,70,33.3,68.87c4.24-2.1,7.5-.78,9.5,2.29,3.28,5,3.22,16.07-2.5,21.67-4,3.28-6.72,3.35-8.82,1.71S27,101.43,17,93.14h0a16.63,16.63,0,0,0,9.47,5.1c3.15.31,3.94-1.29,6.12-.66,2.8,1,8.71,1.24,13.3-6.69A20.65,20.65,0,0,0,46.68,70.66Z"/></g><path class="cls-10" d="M29.74,56.17l0-.05s-.29-.41-1.19,0-.82.66-.44,1A2.74,2.74,0,0,0,29.74,56.17Z"/><path class="cls-11" d="M29.74,56.17a2.74,2.74,0,0,1-1.66.93c.38.33,3.8,6.9,3,12.07a1.43,1.43,0,0,0,.68.19S32.69,60.38,29.74,56.17Z"/><path class="cls-7" d="M29,68s1.64,3.22,5.26.3a6.22,6.22,0,0,1-2.83,1A4.39,4.39,0,0,1,29,68Z"/><path class="cls-12" d="M31.6,64.82C42.94,66.34,43.41,56,43.41,56S35.79,58,31.6,64.82Z"/><path class="cls-13" d="M31.6,64.82C35.79,58,43.41,56,43.41,56,33,53.82,31.6,64.82,31.6,64.82Z"/><path class="cls-5" d="M27.52,71.85a.82.82,0,0,0-.79.78.07.07,0,0,0,.11.08s0,0,.05,0A1.16,1.16,0,0,1,28,72.65c.08,0,.15-.06.16-.13A.59.59,0,0,0,27.52,71.85Z"/><path class="cls-5" d="M34.28,71.16a.84.84,0,0,0-.79.78.08.08,0,0,0,.12.08s0,0,0,0A1.16,1.16,0,0,1,34.73,72c.08,0,.15-.06.16-.13A.6.6,0,0,0,34.28,71.16Z"/><path class="cls-7" d="M26.21,77.06a2,2,0,0,1,2.44,1A3.77,3.77,0,0,0,26.21,77.06Z"/><path class="cls-7" d="M35.84,76.39a2,2,0,0,0-2.44,1A3.74,3.74,0,0,1,35.84,76.39Z"/><path class="cls-14" d="M24.75,81.94s1.35,5.39,6.55,5.34c4-.09,6.22-3.26,6.65-7.16-1-.15-1.07-1.55-1.07-1.55a3.83,3.83,0,0,0,2.95,1.54,1.6,1.6,0,0,1-1.61.13s.29,7.75-5.94,8.08C27.64,88.64,24.65,86.49,24.75,81.94Z"/></g></g></svg>