<svg id="Layer_1" data-name="Layer 1" xmlns="http://www.w3.org/2000/svg" viewBox="0 0 105.29 104.84"><defs><style>.cls-1{fill:#ff8c03;}.cls-2{fill:#fcbc08;}.cls-3{fill:#f28106;opacity:0.7;}.cls-4{fill:#7c6a13;}.cls-5{fill:#937b18;}</style></defs><title>orange7</title><path class="cls-1" d="M65.11,18.9C70.2,22.59,76.91,34.24,69,43.83S49.62,54,40.93,48.35c-9-5.86-13.38-20.18-2.43-30.43C47.27,9.7,57.43,13.34,65.11,18.9Z"/><path class="cls-2" d="M43.8,17.53h0Z"/><path class="cls-2" d="M45,18.74c.59-.28,1.26-.88.7-1.42s-1.33.08-1.86.21C43.09,18.2,43.4,19.51,45,18.74Z"/><path class="cls-2" d="M43.83,17.52l.91-.34A1.41,1.41,0,0,0,43.83,17.52Z"/><path class="cls-2" d="M42.2,20.09c.23-.16.53-.5.23-.73a.38.38,0,0,0-.57.12.75.75,0,0,0-.37.48C41.44,20.45,42,20.26,42.2,20.09Z"/><path class="cls-2" d="M46.1,19.79a.59.59,0,0,0-.56,0c-.27,0-.6.14-.66.35a.76.76,0,0,0,0,.14l-.07.05.08,0c.07.24.65.06.86,0S46.56,20,46.1,19.79Z"/><path class="cls-2" d="M44.8,20.35l0,0Z"/><path class="cls-2" d="M47.35,18.47c-.25.08-.54.36-.39.61s.75.15,1,0C48.78,18.64,47.67,18.29,47.35,18.47Z"/><path class="cls-2" d="M48.42,16.93c-.17,0-.49-.11-.63,0a.24.24,0,0,0,0,.3c0,.18.3.33.42.39s1.56.55,1.66.11S48.74,17,48.42,16.93Z"/><path class="cls-2" d="M47,16.05c.26.14,1.22.11,1.31-.27s-.52-.46-.77-.43a1,1,0,0,0-.41.23C46.89,15.7,46.7,15.89,47,16.05Z"/><path class="cls-2" d="M42.37,18.28c.5-.37,0-.57-.38-.5h0c-.22,0-.78.24-.63.54S42.18,18.42,42.37,18.28Z"/><path class="cls-2" d="M40.29,20.6c.19-.21.75-1.13.1-1.16a.45.45,0,0,0-.34.17,1.78,1.78,0,0,0-.65.89C39.15,21.34,40,21,40.29,20.6Z"/><path class="cls-2" d="M43.79,20.85a1.38,1.38,0,0,0-.86.07,1.7,1.7,0,0,0-1.14.87c-.21.87,1.34.24,1.67.13C44,21.75,44.51,21.12,43.79,20.85Z"/><path class="cls-2" d="M46.39,21.54c-.25.08-.52.28-.51.48,0,.43.89.3,1.14.19C48,21.77,46.73,21.35,46.39,21.54Z"/><path class="cls-2" d="M52.51,16.7a.44.44,0,0,0-.43.17,1.18,1.18,0,0,0,1.78,0A1,1,0,0,0,52.51,16.7Z"/><path class="cls-2" d="M50,19c.53.19,2,.28,2.1-.46a1.3,1.3,0,0,0-1.16-.14C50.47,18.33,50,18.49,50,19Z"/><path class="cls-2" d="M51,15.09A.78.78,0,0,0,50,15a.45.45,0,0,0-.25.3A1,1,0,0,0,51,15.09Z"/><path class="cls-2" d="M55,18.16c-1.07,0,.31,1.36.9.93S55.4,17.89,55,18.16Z"/><path class="cls-2" d="M39.74,22.51c-.33-.26-.61,0-.8.3-.72.46-1.58,1.52-.9,1.78C38.89,24.92,39.72,23.09,39.74,22.51Z"/><path class="cls-2" d="M37.77,21.13c-.92.18-.48,1.68.39.65C38.71,21.14,38.15,20.94,37.77,21.13Z"/><path class="cls-2" d="M43,23.9a.47.47,0,0,0-.33.42c.34.24,1.26.26,1.49-.19C44.51,23.46,43.32,23.38,43,23.9Z"/><path class="cls-2" d="M51.19,21.42l0-.07a.58.58,0,0,0,0,.18c-.05.09-.05.17,0,.2.19.49,1.25.51,1-.12S51.44,21.18,51.19,21.42Z"/><path class="cls-2" d="M60.67,20.1c-.62-.84-1.91,0-1.1.27C60.05,20.71,61.29,20.93,60.67,20.1Z"/><path class="cls-2" d="M38.58,28.14l.13-.22A1.48,1.48,0,0,0,38,29c.36.1,1.45-.62,1.42-1.09C39.4,27.18,38.9,27.68,38.58,28.14Z"/><path class="cls-2" d="M48.26,25.76a.27.27,0,0,0,.37.08c.44.05,1.26-.06.91-.53S48.39,25.39,48.26,25.76Z"/><path class="cls-2" d="M34.89,25.29a.88.88,0,0,0,0,.37c.54.18,1.93,0,1.48-.86S35.05,24.66,34.89,25.29Z"/><path class="cls-2" d="M36.8,23v0a.45.45,0,0,0-.56.45.68.68,0,0,0,.94-.36A.58.58,0,0,0,36.8,23Z"/><path class="cls-3" d="M38.59,42c-2,1.44,8.2,8.72,14.83,8.46a19.49,19.49,0,0,0,16-10.06c1.76-3.6,1.14-13.81-1-13.1-.78.25.17,3.72-3,9-2.82,4.61-7.64,9.15-14,8.84C42.63,44.68,39.92,41.05,38.59,42Z"/><path class="cls-4" d="M60.47,16.73a.92.92,0,0,0-.83,1.4c.55,1.34,3.88,3.52,4.83,3.16s1-1.46-.39-2.51S61.74,16.89,60.47,16.73Z"/><path class="cls-4" d="M62.2,18.52s3.86-3.92,5-5.4A68.51,68.51,0,0,0,70.81,6s.34-.5.81-.41.34.78.34.78-2.69,5.42-3.78,6.91C66,16.34,63,19.64,63,19.64Z"/><path class="cls-4" d="M68.93,11.13c-.24-.05-6.37-.79-6.37-.79l-.23.35,3.16.52,3.16.51Z"/><path class="cls-4" d="M55.67,18.18c-6.58,1.65-16.3-3-16.3-3s6.49-7.45,12.06-8S66.67,11,66.67,11,62.26,16.53,55.67,18.18Z"/><path class="cls-5" d="M60.53,17.13a1.32,1.32,0,0,0-.15,1.32,7,7,0,0,0,2.39,1.88l.15-1.19s-.51-.34-.56-.64a.68.68,0,0,1,0-.45Z"/><path class="cls-5" d="M64.52,11.18a52.64,52.64,0,0,0-11,.11c-5.11.72-12.82,3.13-12.73,3.47s8.44-2.75,12.57-3,11.49,0,11.49,0Z"/><path class="cls-5" d="M61.93,11.37a5.64,5.64,0,0,1-1.07,2A13.89,13.89,0,0,0,59,16.17a18,18,0,0,0,2.14-2.63c.6-.89,1.39-2.13,1.39-2.13Z"/><path class="cls-5" d="M56.81,11.41a8.53,8.53,0,0,1-1.12,3.21c-1.13,2.28-1.59,2.94-1.31,3s1.12-1.68,1.69-2.93,1.45-3.36,1.45-3.36Z"/><path class="cls-5" d="M51.84,11.87a6.26,6.26,0,0,1-.39,2.38c-.51,1.69-1.13,2.64-.9,2.76s.83-1.45,1.17-2.67.85-2.73.85-2.73Z"/><path class="cls-5" d="M46.49,13.11a3.81,3.81,0,0,1-.27,1.41c-.32.87-.81,1.74-.66,1.73a3.09,3.09,0,0,0,.91-1.54c.22-.78.47-1.69.47-1.69Z"/><path class="cls-5" d="M62.53,11.23A7.26,7.26,0,0,0,60.6,9.41a6.07,6.07,0,0,0-2.48-1c-.13.12,1.41.55,2,.9a20.25,20.25,0,0,1,2,1.91Z"/><path class="cls-5" d="M57.28,11.08A4.83,4.83,0,0,0,55.71,9,7.81,7.81,0,0,0,52.2,7.68c-.33.11,2.56.82,3.21,1.45a7,7,0,0,1,1.18,2Z"/><path class="cls-5" d="M52.57,11.61a11.57,11.57,0,0,0-2.36-1.83,10.32,10.32,0,0,0-2.83-.71c-.34,0,2.17.55,2.88,1A15.72,15.72,0,0,1,52,11.76Z"/><path class="cls-5" d="M46.48,13s-.08-.41-1.25-.84-1.82-.72-1.56-.72a8.13,8.13,0,0,1,1.55.4,10,10,0,0,1,1.83,1Z"/><path class="cls-1" d="M65.57,40c5.09,3.68,11.79,15.34,3.9,24.93s-19.4,10.15-28.09,4.52C32.34,63.62,28,49.29,39,39.05,47.73,30.83,57.88,34.47,65.57,40Z"/><path class="cls-2" d="M44.26,38.66h0Z"/><path class="cls-2" d="M45.44,39.87c.59-.28,1.27-.89.7-1.42s-1.32.07-1.86.21C43.54,39.32,43.85,40.63,45.44,39.87Z"/><path class="cls-2" d="M44.28,38.65l.91-.35A1.5,1.5,0,0,0,44.28,38.65Z"/><path class="cls-2" d="M42.65,41.22c.23-.16.53-.5.24-.73a.38.38,0,0,0-.57.12.69.69,0,0,0-.37.48C41.9,41.58,42.42,41.39,42.65,41.22Z"/><path class="cls-2" d="M46.55,40.92a.56.56,0,0,0-.56,0c-.26,0-.59.14-.65.35a.23.23,0,0,0,0,.14l-.08,0,.08,0c.07.24.65.07.87,0S47,41.16,46.55,40.92Z"/><path class="cls-2" d="M45.25,41.48l0,0Z"/><path class="cls-2" d="M47.81,39.6c-.26.07-.55.36-.4.6s.75.16,1,0C49.23,39.77,48.12,39.42,47.81,39.6Z"/><path class="cls-2" d="M48.88,38.05c-.18,0-.5-.11-.64.05a.24.24,0,0,0,0,.3c0,.17.31.33.43.39s1.56.54,1.65.11S49.2,38.1,48.88,38.05Z"/><path class="cls-2" d="M47.46,37.18c.26.14,1.22.11,1.32-.27s-.52-.47-.77-.43a1,1,0,0,0-.42.23C47.34,36.83,47.15,37,47.46,37.18Z"/><path class="cls-2" d="M42.82,39.4c.5-.36,0-.56-.37-.49h0c-.23,0-.79.25-.64.55S42.63,39.54,42.82,39.4Z"/><path class="cls-2" d="M40.74,41.72c.19-.21.75-1.12.1-1.16a.51.51,0,0,0-.33.17,1.87,1.87,0,0,0-.66.9C39.6,42.47,40.42,42.09,40.74,41.72Z"/><path class="cls-2" d="M44.24,42a1.31,1.31,0,0,0-.86.07c-.48.13-1.05.51-1.13.86-.22.87,1.33.25,1.67.14S45,42.25,44.24,42Z"/><path class="cls-2" d="M46.84,42.67c-.24.08-.51.28-.51.48,0,.43.89.3,1.14.19C48.43,42.9,47.18,42.47,46.84,42.67Z"/><path class="cls-2" d="M53,37.83a.44.44,0,0,0-.43.17,1.21,1.21,0,0,0,1.79,0A1,1,0,0,0,53,37.83Z"/><path class="cls-2" d="M50.44,40.08c.54.18,2,.28,2.1-.46a1.3,1.3,0,0,0-1.16-.14C50.93,39.46,50.45,39.61,50.44,40.08Z"/><path class="cls-2" d="M51.49,36.22a.79.79,0,0,0-1.07-.11.53.53,0,0,0-.25.31A1,1,0,0,0,51.49,36.22Z"/><path class="cls-2" d="M55.43,39.29c-1.07,0,.31,1.36.9.93S55.86,39,55.43,39.29Z"/><path class="cls-2" d="M40.19,43.64c-.33-.26-.61,0-.8.3-.72.45-1.58,1.52-.89,1.78C39.35,46,40.17,44.22,40.19,43.64Z"/><path class="cls-2" d="M38.22,42.26c-.92.17-.48,1.68.4.65C39.16,42.27,38.6,42.06,38.22,42.26Z"/><path class="cls-2" d="M43.47,45a.46.46,0,0,0-.34.41c.34.25,1.26.27,1.49-.18C45,44.59,43.77,44.51,43.47,45Z"/><path class="cls-2" d="M51.65,42.54l0-.07a.77.77,0,0,0-.05.19c0,.08,0,.16,0,.19.19.5,1.25.51,1.05-.11S51.89,42.31,51.65,42.54Z"/><path class="cls-2" d="M61.13,41.23c-.63-.84-1.91,0-1.1.27C60.5,41.83,61.74,42.06,61.13,41.23Z"/><path class="cls-2" d="M39,49.27l.13-.23a1.52,1.52,0,0,0-.68,1.07c.37.09,1.45-.62,1.42-1.09C39.86,48.31,39.35,48.81,39,49.27Z"/><path class="cls-2" d="M48.72,46.89a.27.27,0,0,0,.36.08c.45.05,1.27-.06.92-.53S48.84,46.52,48.72,46.89Z"/><path class="cls-2" d="M35.35,46.42a.7.7,0,0,0-.06.36c.55.19,1.94,0,1.48-.85S35.5,45.79,35.35,46.42Z"/><path class="cls-2" d="M37.25,44.13h0a.46.46,0,0,0-.56.44.67.67,0,0,0,.94-.36A.64.64,0,0,0,37.25,44.13Z"/><path class="cls-3" d="M39.05,63.13c-2,1.44,8.19,8.72,14.82,8.46a19.52,19.52,0,0,0,16-10.06c1.76-3.6,1.14-13.82-1-13.1-.78.25.18,3.72-3,9-2.82,4.6-7.63,9.15-14,8.84C43.08,65.81,40.37,62.17,39.05,63.13Z"/><path class="cls-4" d="M60.92,37.86a.92.92,0,0,0-.83,1.4c.55,1.34,3.88,3.52,4.83,3.15s1-1.46-.39-2.51S62.19,38,60.92,37.86Z"/><path class="cls-4" d="M62.65,39.65s3.86-3.93,5-5.4a68.51,68.51,0,0,0,3.65-7.09s.34-.5.81-.41.34.78.34.78S69.72,33,68.63,34.44c-2.21,3-5.13,6.33-5.13,6.33Z"/><path class="cls-4" d="M69.38,32.25c-.24,0-6.37-.79-6.37-.79l-.23.36,3.16.51,3.16.51Z"/><path class="cls-4" d="M56.12,39.31c-6.58,1.65-16.3-3-16.3-3s6.49-7.44,12.06-8,15.24,3.81,15.24,3.81S62.71,37.66,56.12,39.31Z"/><path class="cls-5" d="M61,38.25a1.35,1.35,0,0,0-.15,1.33,7,7,0,0,0,2.39,1.87l.16-1.18s-.52-.35-.57-.64a.68.68,0,0,1,0-.45Z"/><path class="cls-5" d="M65,32.31a53,53,0,0,0-11,.1c-5.11.73-12.83,3.13-12.73,3.47s8.43-2.75,12.56-3,11.49,0,11.49,0Z"/><path class="cls-5" d="M62.38,32.5a5.64,5.64,0,0,1-1.07,2,14.28,14.28,0,0,0-1.85,2.82,17.25,17.25,0,0,0,2.14-2.62c.6-.89,1.39-2.13,1.39-2.13Z"/><path class="cls-5" d="M57.27,32.54a8.8,8.8,0,0,1-1.13,3.21c-1.13,2.28-1.58,2.94-1.31,3s1.13-1.67,1.69-2.92S58,32.45,58,32.45Z"/><path class="cls-5" d="M52.29,33a6.05,6.05,0,0,1-.39,2.39c-.51,1.69-1.13,2.64-.9,2.75s.83-1.44,1.17-2.66.86-2.73.86-2.73Z"/><path class="cls-5" d="M46.94,34.24a3.81,3.81,0,0,1-.27,1.41c-.31.87-.81,1.74-.66,1.73a3.09,3.09,0,0,0,.91-1.54c.22-.78.47-1.69.47-1.69Z"/><path class="cls-5" d="M63,32.36a7.28,7.28,0,0,0-1.93-1.82,6,6,0,0,0-2.49-1c-.13.12,1.42.55,2,.9a20.25,20.25,0,0,1,2,1.91Z"/><path class="cls-5" d="M57.73,32.21a4.83,4.83,0,0,0-1.57-2.06,7.81,7.81,0,0,0-3.51-1.34c-.33.1,2.56.82,3.21,1.45a7,7,0,0,1,1.18,2Z"/><path class="cls-5" d="M53,32.74a11.09,11.09,0,0,0-2.37-1.83,10.32,10.32,0,0,0-2.83-.71c-.33.05,2.18.55,2.88,1a15.72,15.72,0,0,1,1.78,1.65Z"/><path class="cls-5" d="M46.93,34.09s-.08-.4-1.25-.83-1.81-.72-1.56-.72a7,7,0,0,1,1.55.39,9.67,9.67,0,0,1,1.83,1Z"/><path class="cls-1" d="M37.19,40C42.28,43.71,49,55.37,41.09,65S21.69,75.11,13,69.48C4,63.62-.38,49.29,10.57,39.05,19.34,30.83,29.5,34.47,37.19,40Z"/><path class="cls-2" d="M15.88,38.66h0Z"/><path class="cls-2" d="M17.06,39.87c.59-.28,1.26-.89.7-1.42s-1.32.07-1.86.21C15.16,39.32,15.47,40.63,17.06,39.87Z"/><path class="cls-2" d="M15.9,38.65l.91-.35A1.5,1.5,0,0,0,15.9,38.65Z"/><path class="cls-2" d="M14.27,41.22c.23-.16.53-.5.24-.73a.38.38,0,0,0-.57.12.69.69,0,0,0-.37.48C13.52,41.58,14,41.39,14.27,41.22Z"/><path class="cls-2" d="M18.17,40.92a.56.56,0,0,0-.56,0c-.26,0-.6.14-.65.35a.23.23,0,0,0,0,.14l-.08,0,.08,0c.07.24.65.07.87,0S18.63,41.16,18.17,40.92Z"/><path class="cls-2" d="M16.87,41.48l0,0Z"/><path class="cls-2" d="M19.43,39.6c-.26.07-.55.36-.4.6s.75.16,1,0C20.85,39.77,19.74,39.42,19.43,39.6Z"/><path class="cls-2" d="M20.49,38.05c-.17,0-.49-.11-.63.05a.24.24,0,0,0,0,.3c0,.17.3.33.42.39s1.57.54,1.66.11S20.81,38.1,20.49,38.05Z"/><path class="cls-2" d="M19.08,37.18c.26.14,1.22.11,1.32-.27s-.53-.47-.77-.43a1,1,0,0,0-.42.23C19,36.83,18.77,37,19.08,37.18Z"/><path class="cls-2" d="M14.44,39.4c.5-.36,0-.56-.37-.49h0c-.23,0-.79.25-.64.55S14.25,39.54,14.44,39.4Z"/><path class="cls-2" d="M12.36,41.72c.19-.21.75-1.12.1-1.16a.51.51,0,0,0-.33.17,1.87,1.87,0,0,0-.66.9C11.22,42.47,12,42.09,12.36,41.72Z"/><path class="cls-2" d="M15.86,42a1.31,1.31,0,0,0-.86.07c-.48.13-1.05.51-1.13.86-.22.87,1.33.25,1.67.14C16,42.88,16.58,42.25,15.86,42Z"/><path class="cls-2" d="M18.46,42.67c-.24.08-.51.28-.51.48,0,.43.89.3,1.14.19C20.05,42.9,18.8,42.47,18.46,42.67Z"/><path class="cls-2" d="M24.58,37.83a.44.44,0,0,0-.43.17,1.21,1.21,0,0,0,1.79,0A1,1,0,0,0,24.58,37.83Z"/><path class="cls-2" d="M22.06,40.08c.54.18,2,.28,2.1-.46A1.3,1.3,0,0,0,23,39.48C22.55,39.46,22.07,39.61,22.06,40.08Z"/><path class="cls-2" d="M23.11,36.22A.79.79,0,0,0,22,36.11a.53.53,0,0,0-.25.31A1,1,0,0,0,23.11,36.22Z"/><path class="cls-2" d="M27.05,39.29c-1.07,0,.31,1.36.9.93S27.48,39,27.05,39.29Z"/><path class="cls-2" d="M11.81,43.64c-.33-.26-.61,0-.8.3-.72.45-1.58,1.52-.89,1.78C11,46,11.79,44.22,11.81,43.64Z"/><path class="cls-2" d="M9.84,42.26c-.92.17-.48,1.68.39.65C10.78,42.27,10.22,42.06,9.84,42.26Z"/><path class="cls-2" d="M15.09,45a.46.46,0,0,0-.34.41c.34.25,1.26.27,1.49-.18C16.58,44.59,15.39,44.51,15.09,45Z"/><path class="cls-2" d="M23.27,42.54l-.06-.07a1.62,1.62,0,0,0,0,.19c-.05.08-.05.16,0,.19.19.5,1.25.51,1.05-.11S23.51,42.31,23.27,42.54Z"/><path class="cls-2" d="M32.75,41.23c-.63-.84-1.91,0-1.1.27C32.12,41.83,33.36,42.06,32.75,41.23Z"/><path class="cls-2" d="M10.65,49.27l.13-.23a1.52,1.52,0,0,0-.68,1.07c.37.09,1.45-.62,1.42-1.09C11.48,48.31,11,48.81,10.65,49.27Z"/><path class="cls-2" d="M20.34,46.89a.27.27,0,0,0,.36.08c.44.05,1.27-.06.92-.53S20.46,46.52,20.34,46.89Z"/><path class="cls-2" d="M7,46.42a.7.7,0,0,0-.06.36c.55.19,1.94,0,1.48-.85S7.12,45.79,7,46.42Z"/><path class="cls-2" d="M8.87,44.13h0a.46.46,0,0,0-.56.44.67.67,0,0,0,.94-.36A.64.64,0,0,0,8.87,44.13Z"/><path class="cls-3" d="M10.67,63.13c-2,1.44,8.19,8.72,14.82,8.46a19.52,19.52,0,0,0,16-10.06c1.76-3.6,1.14-13.82-1.05-13.1-.78.25.18,3.72-3,9-2.82,4.6-7.63,9.15-14,8.84C14.7,65.81,12,62.17,10.67,63.13Z"/><path class="cls-4" d="M32.54,37.86a.92.92,0,0,0-.83,1.4c.55,1.34,3.88,3.52,4.83,3.15s1-1.46-.39-2.51S33.81,38,32.54,37.86Z"/><path class="cls-4" d="M34.27,39.65s3.86-3.93,5-5.4a68.51,68.51,0,0,0,3.65-7.09s.34-.5.81-.41.34.78.34.78S41.34,33,40.25,34.44c-2.21,3-5.13,6.33-5.13,6.33Z"/><path class="cls-4" d="M41,32.25c-.24,0-6.37-.79-6.37-.79l-.23.36,3.16.51,3.16.51Z"/><path class="cls-4" d="M27.74,39.31c-6.58,1.65-16.3-3-16.3-3s6.49-7.44,12.06-8,15.24,3.81,15.24,3.81S34.33,37.66,27.74,39.31Z"/><path class="cls-5" d="M32.6,38.25a1.35,1.35,0,0,0-.15,1.33,7,7,0,0,0,2.39,1.87L35,40.27s-.52-.35-.57-.64a.68.68,0,0,1,0-.45Z"/><path class="cls-5" d="M36.59,32.31a53,53,0,0,0-11,.1c-5.11.73-12.83,3.13-12.73,3.47s8.43-2.75,12.56-3,11.49,0,11.49,0Z"/><path class="cls-5" d="M34,32.5a5.64,5.64,0,0,1-1.07,2,14.28,14.28,0,0,0-1.85,2.82,17.25,17.25,0,0,0,2.14-2.62c.6-.89,1.39-2.13,1.39-2.13Z"/><path class="cls-5" d="M28.89,32.54a8.8,8.8,0,0,1-1.13,3.21c-1.13,2.28-1.59,2.94-1.31,3s1.13-1.67,1.69-2.92,1.45-3.37,1.45-3.37Z"/><path class="cls-5" d="M23.91,33a6.05,6.05,0,0,1-.39,2.39c-.51,1.69-1.13,2.64-.9,2.75s.83-1.44,1.17-2.66.85-2.73.85-2.73Z"/><path class="cls-5" d="M18.56,34.24a3.81,3.81,0,0,1-.27,1.41c-.32.87-.81,1.74-.66,1.73a3.09,3.09,0,0,0,.91-1.54c.22-.78.47-1.69.47-1.69Z"/><path class="cls-5" d="M34.61,32.36a7.28,7.28,0,0,0-1.93-1.82,6,6,0,0,0-2.49-1c-.13.12,1.41.55,2,.9a20.25,20.25,0,0,1,2,1.91Z"/><path class="cls-5" d="M29.35,32.21a4.83,4.83,0,0,0-1.57-2.06,7.81,7.81,0,0,0-3.51-1.34c-.33.1,2.56.82,3.21,1.45a7,7,0,0,1,1.18,2Z"/><path class="cls-5" d="M24.64,32.74a11,11,0,0,0-2.36-1.83,10.32,10.32,0,0,0-2.83-.71c-.34.05,2.17.55,2.88,1a15.72,15.72,0,0,1,1.78,1.65Z"/><path class="cls-5" d="M18.55,34.09s-.08-.4-1.25-.83-1.81-.72-1.56-.72a7,7,0,0,1,1.55.39,9.67,9.67,0,0,1,1.83,1Z"/><path class="cls-1" d="M94.8,40c5.09,3.68,11.79,15.34,3.91,24.93s-19.4,10.15-28.1,4.52c-9-5.86-13.37-20.19-2.42-30.43C77,30.83,87.12,34.47,94.8,40Z"/><path class="cls-2" d="M73.49,38.66h0Z"/><path class="cls-2" d="M74.68,39.87c.59-.28,1.26-.89.7-1.42s-1.33.07-1.87.21C72.78,39.32,73.08,40.63,74.68,39.87Z"/><path class="cls-2" d="M73.52,38.65l.91-.35A1.48,1.48,0,0,0,73.52,38.65Z"/><path class="cls-2" d="M71.89,41.22c.23-.16.53-.5.23-.73a.38.38,0,0,0-.57.12.72.72,0,0,0-.37.48C71.13,41.58,71.66,41.39,71.89,41.22Z"/><path class="cls-2" d="M75.79,40.92a.56.56,0,0,0-.56,0c-.27,0-.6.14-.66.35a.35.35,0,0,0,0,.14l-.07,0,.08,0c.07.24.65.07.86,0S76.25,41.16,75.79,40.92Z"/><path class="cls-2" d="M74.49,41.48l0,0Z"/><path class="cls-2" d="M77,39.6c-.25.07-.54.36-.4.6s.76.16,1,0C78.46,39.77,77.36,39.42,77,39.6Z"/><path class="cls-2" d="M78.11,38.05c-.17,0-.5-.11-.63.05a.24.24,0,0,0,0,.3c0,.17.31.33.43.39s1.56.54,1.66.11S78.43,38.1,78.11,38.05Z"/><path class="cls-2" d="M76.69,37.18c.27.14,1.22.11,1.32-.27s-.52-.47-.77-.43a1,1,0,0,0-.41.23C76.58,36.83,76.39,37,76.69,37.18Z"/><path class="cls-2" d="M72.06,39.4c.5-.36,0-.56-.38-.49h0c-.22,0-.78.25-.63.55S71.87,39.54,72.06,39.4Z"/><path class="cls-2" d="M70,41.72c.18-.21.75-1.12.1-1.16a.51.51,0,0,0-.34.17,1.84,1.84,0,0,0-.65.9C68.83,42.47,69.66,42.09,70,41.72Z"/><path class="cls-2" d="M73.48,42a1.3,1.3,0,0,0-.86.07,1.7,1.7,0,0,0-1.14.86c-.21.87,1.34.25,1.67.14C73.64,42.88,74.2,42.25,73.48,42Z"/><path class="cls-2" d="M76.08,42.67c-.25.08-.52.28-.51.48,0,.43.89.3,1.14.19C77.66,42.9,76.42,42.47,76.08,42.67Z"/><path class="cls-2" d="M82.2,37.83a.44.44,0,0,0-.43.17,1.2,1.2,0,0,0,1.78,0A1,1,0,0,0,82.2,37.83Z"/><path class="cls-2" d="M79.68,40.08c.53.18,2,.28,2.1-.46a1.32,1.32,0,0,0-1.17-.14C80.16,39.46,79.68,39.61,79.68,40.08Z"/><path class="cls-2" d="M80.72,36.22a.78.78,0,0,0-1.06-.11.47.47,0,0,0-.25.31A1,1,0,0,0,80.72,36.22Z"/><path class="cls-2" d="M84.67,39.29c-1.07,0,.31,1.36.9.93S85.09,39,84.67,39.29Z"/><path class="cls-2" d="M69.43,43.64c-.33-.26-.61,0-.8.3-.72.45-1.58,1.52-.9,1.78C68.58,46,69.41,44.22,69.43,43.64Z"/><path class="cls-2" d="M67.46,42.26c-.92.17-.49,1.68.39.65C68.4,42.27,67.84,42.06,67.46,42.26Z"/><path class="cls-2" d="M72.7,45a.48.48,0,0,0-.34.41c.35.25,1.26.27,1.49-.18C74.2,44.59,73,44.51,72.7,45Z"/><path class="cls-2" d="M80.88,42.54l0-.07a.46.46,0,0,0,0,.19c-.05.08-.06.16,0,.19.19.5,1.24.51,1-.11S81.13,42.31,80.88,42.54Z"/><path class="cls-2" d="M90.36,41.23c-.62-.84-1.91,0-1.1.27C89.74,41.83,91,42.06,90.36,41.23Z"/><path class="cls-2" d="M68.27,49.27,68.4,49a1.57,1.57,0,0,0-.69,1.07c.37.09,1.46-.62,1.43-1.09C69.09,48.31,68.59,48.81,68.27,49.27Z"/><path class="cls-2" d="M78,46.89a.27.27,0,0,0,.36.08c.45.05,1.27-.06.92-.53S78.08,46.52,78,46.89Z"/><path class="cls-2" d="M64.58,46.42a.61.61,0,0,0,0,.36c.54.19,1.93,0,1.47-.85S64.74,45.79,64.58,46.42Z"/><path class="cls-2" d="M66.48,44.13h0a.46.46,0,0,0-.57.44.68.68,0,0,0,.95-.36A.67.67,0,0,0,66.48,44.13Z"/><path class="cls-3" d="M68.28,63.13c-2,1.44,8.2,8.72,14.83,8.46a19.55,19.55,0,0,0,16-10.06c1.75-3.6,1.14-13.82-1.05-13.1-.79.25.17,3.72-3,9-2.82,4.6-7.64,9.15-14,8.84C72.32,65.81,69.61,62.17,68.28,63.13Z"/><path class="cls-4" d="M90.16,37.86a.92.92,0,0,0-.83,1.4c.55,1.34,3.87,3.52,4.83,3.15s1-1.46-.4-2.51S91.43,38,90.16,37.86Z"/><path class="cls-4" d="M91.89,39.65s3.85-3.93,5-5.4a67.06,67.06,0,0,0,3.66-7.09s.34-.5.81-.41.34.78.34.78S99,33,97.87,34.44c-2.22,3-5.14,6.33-5.14,6.33Z"/><path class="cls-4" d="M98.62,32.25c-.24,0-6.37-.79-6.37-.79l-.23.36,3.16.51,3.16.51Z"/><path class="cls-4" d="M85.35,39.31c-6.57,1.65-16.29-3-16.29-3s6.49-7.44,12.06-8,15.23,3.81,15.23,3.81S92,37.66,85.35,39.31Z"/><path class="cls-5" d="M90.21,38.25a1.35,1.35,0,0,0-.14,1.33,6.9,6.9,0,0,0,2.39,1.87l.15-1.18s-.51-.35-.56-.64a.68.68,0,0,1,0-.45Z"/><path class="cls-5" d="M94.2,32.31a53,53,0,0,0-11,.1c-5.11.73-12.83,3.13-12.73,3.47s8.44-2.75,12.57-3,11.49,0,11.49,0Z"/><path class="cls-5" d="M91.62,32.5a5.64,5.64,0,0,1-1.07,2,14.28,14.28,0,0,0-1.85,2.82,17.25,17.25,0,0,0,2.14-2.62c.6-.89,1.38-2.13,1.38-2.13Z"/><path class="cls-5" d="M86.5,32.54a8.8,8.8,0,0,1-1.13,3.21c-1.13,2.28-1.58,2.94-1.3,3s1.12-1.67,1.69-2.92,1.45-3.37,1.45-3.37Z"/><path class="cls-5" d="M81.52,33a6.12,6.12,0,0,1-.38,2.39c-.51,1.69-1.13,2.64-.9,2.75s.82-1.44,1.17-2.66.85-2.73.85-2.73Z"/><path class="cls-5" d="M76.18,34.24a3.72,3.72,0,0,1-.28,1.41c-.31.87-.8,1.74-.66,1.73a3.08,3.08,0,0,0,.92-1.54c.22-.78.47-1.69.47-1.69Z"/><path class="cls-5" d="M92.22,32.36a7.1,7.1,0,0,0-1.93-1.82,5.92,5.92,0,0,0-2.48-1c-.14.12,1.41.55,2,.9a20.25,20.25,0,0,1,2,1.91Z"/><path class="cls-5" d="M87,32.21a4.91,4.91,0,0,0-1.58-2.06,7.78,7.78,0,0,0-3.5-1.34c-.34.1,2.56.82,3.21,1.45a7,7,0,0,1,1.18,2Z"/><path class="cls-5" d="M82.26,32.74a11.22,11.22,0,0,0-2.36-1.83,10.4,10.4,0,0,0-2.83-.71c-.34.05,2.17.55,2.87,1a15.23,15.23,0,0,1,1.79,1.65Z"/><path class="cls-5" d="M76.17,34.09s-.08-.4-1.25-.83-1.82-.72-1.57-.72a7,7,0,0,1,1.56.39,10,10,0,0,1,1.83,1Z"/><path class="cls-1" d="M65.57,66.15c5.09,3.69,11.79,15.34,3.9,24.93s-19.4,10.16-28.09,4.52C32.34,89.74,28,75.42,39,65.17,47.73,57,57.88,60.59,65.57,66.15Z"/><path class="cls-2" d="M44.26,64.78h0Z"/><path class="cls-2" d="M45.44,66c.59-.28,1.27-.88.7-1.42s-1.32.08-1.86.21C43.54,65.45,43.85,66.76,45.44,66Z"/><path class="cls-2" d="M44.28,64.77l.91-.34A1.44,1.44,0,0,0,44.28,64.77Z"/><path class="cls-2" d="M42.65,67.34c.23-.16.53-.5.24-.73a.38.38,0,0,0-.57.12.69.69,0,0,0-.37.48C41.9,67.7,42.42,67.51,42.65,67.34Z"/><path class="cls-2" d="M46.55,67a.59.59,0,0,0-.56,0c-.26,0-.59.14-.65.35a.23.23,0,0,0,0,.14l-.08,0,.08,0c.07.25.65.07.87,0S47,67.28,46.55,67Z"/><path class="cls-2" d="M45.25,67.6l0,0Z"/><path class="cls-2" d="M47.81,65.72c-.26.08-.55.36-.4.61s.75.15,1,0C49.23,65.89,48.12,65.54,47.81,65.72Z"/><path class="cls-2" d="M48.88,64.17c-.18,0-.5-.1-.64,0a.24.24,0,0,0,0,.3c0,.17.31.33.43.39s1.56.54,1.65.11S49.2,64.22,48.88,64.17Z"/><path class="cls-2" d="M47.46,63.3c.26.14,1.22.11,1.32-.27s-.52-.46-.77-.43a1,1,0,0,0-.42.23C47.34,63,47.15,63.14,47.46,63.3Z"/><path class="cls-2" d="M42.82,65.53c.5-.37,0-.57-.37-.5h0c-.23,0-.79.25-.64.55S42.63,65.66,42.82,65.53Z"/><path class="cls-2" d="M40.74,67.84c.19-.2.75-1.12.1-1.15a.43.43,0,0,0-.33.17,1.8,1.8,0,0,0-.66.89C39.6,68.59,40.42,68.21,40.74,67.84Z"/><path class="cls-2" d="M44.24,68.1a1.31,1.31,0,0,0-.86.07c-.48.13-1.05.51-1.13.87-.22.87,1.33.24,1.67.13S45,68.37,44.24,68.1Z"/><path class="cls-2" d="M46.84,68.79c-.24.08-.51.28-.51.48,0,.43.89.3,1.14.19C48.43,69,47.18,68.6,46.84,68.79Z"/><path class="cls-2" d="M53,64a.44.44,0,0,0-.43.17,1.19,1.19,0,0,0,1.79,0A1,1,0,0,0,53,64Z"/><path class="cls-2" d="M50.44,66.2c.54.19,2,.28,2.1-.46a1.3,1.3,0,0,0-1.16-.14C50.93,65.58,50.45,65.73,50.44,66.2Z"/><path class="cls-2" d="M51.49,62.34a.78.78,0,0,0-1.07-.1.51.51,0,0,0-.25.3A1,1,0,0,0,51.49,62.34Z"/><path class="cls-2" d="M55.43,65.41c-1.07,0,.31,1.36.9.93S55.86,65.14,55.43,65.41Z"/><path class="cls-2" d="M40.19,69.76c-.33-.26-.61,0-.8.3-.72.45-1.58,1.52-.89,1.78C39.35,72.17,40.17,70.34,40.19,69.76Z"/><path class="cls-2" d="M38.22,68.38c-.92.17-.48,1.68.4.65C39.16,68.39,38.6,68.18,38.22,68.38Z"/><path class="cls-2" d="M43.47,71.15a.47.47,0,0,0-.34.42c.34.24,1.26.26,1.49-.19C45,70.71,43.77,70.63,43.47,71.15Z"/><path class="cls-2" d="M51.65,68.67l0-.08a.77.77,0,0,0-.05.19c0,.09,0,.16,0,.19.19.5,1.25.52,1.05-.11S51.89,68.43,51.65,68.67Z"/><path class="cls-2" d="M61.13,67.35c-.63-.84-1.91,0-1.1.27C60.5,68,61.74,68.18,61.13,67.35Z"/><path class="cls-2" d="M39,75.39l.13-.22a1.48,1.48,0,0,0-.68,1.06c.37.09,1.45-.62,1.42-1.09C39.86,74.43,39.35,74.93,39,75.39Z"/><path class="cls-2" d="M48.72,73a.26.26,0,0,0,.36.08c.45,0,1.27-.06.92-.53S48.84,72.64,48.72,73Z"/><path class="cls-2" d="M35.35,72.54a.74.74,0,0,0-.06.37c.55.18,1.94,0,1.48-.86S35.5,71.91,35.35,72.54Z"/><path class="cls-2" d="M37.25,70.25h0a.46.46,0,0,0-.56.45.68.68,0,0,0,.94-.36A.65.65,0,0,0,37.25,70.25Z"/><path class="cls-3" d="M39.05,89.25c-2,1.44,8.19,8.72,14.82,8.46a19.49,19.49,0,0,0,16-10.06c1.76-3.6,1.14-13.81-1-13.1-.78.25.18,3.72-3,9-2.82,4.61-7.63,9.15-14,8.84C43.08,91.93,40.37,88.3,39.05,89.25Z"/><path class="cls-4" d="M60.92,64a.92.92,0,0,0-.83,1.4c.55,1.34,3.88,3.52,4.83,3.16s1-1.46-.39-2.52S62.19,64.14,60.92,64Z"/><path class="cls-4" d="M62.65,65.77s3.86-3.92,5-5.4a68.51,68.51,0,0,0,3.65-7.09s.34-.5.81-.41.34.78.34.78-2.69,5.42-3.78,6.91c-2.21,3-5.13,6.33-5.13,6.33Z"/><path class="cls-4" d="M69.38,58.38c-.24-.05-6.37-.79-6.37-.79l-.23.35,3.16.51L69.1,59Z"/><path class="cls-4" d="M56.12,65.43c-6.58,1.65-16.3-3-16.3-3s6.49-7.45,12.06-8,15.24,3.81,15.24,3.81S62.71,63.78,56.12,65.43Z"/><path class="cls-5" d="M61,64.38a1.32,1.32,0,0,0-.15,1.32,7,7,0,0,0,2.39,1.87l.16-1.18s-.52-.34-.57-.64a.68.68,0,0,1,0-.45Z"/><path class="cls-5" d="M65,58.43a53,53,0,0,0-11,.1c-5.11.73-12.83,3.14-12.73,3.47s8.43-2.75,12.56-3,11.49,0,11.49,0Z"/><path class="cls-5" d="M62.38,58.62a5.64,5.64,0,0,1-1.07,2,13.89,13.89,0,0,0-1.85,2.83,18,18,0,0,0,2.14-2.63c.6-.89,1.39-2.13,1.39-2.13Z"/><path class="cls-5" d="M57.27,58.66a8.74,8.74,0,0,1-1.13,3.21c-1.13,2.28-1.58,2.94-1.31,3s1.13-1.68,1.69-2.93S58,58.58,58,58.58Z"/><path class="cls-5" d="M52.29,59.12a6,6,0,0,1-.39,2.38c-.51,1.69-1.13,2.64-.9,2.76s.83-1.45,1.17-2.67.86-2.73.86-2.73Z"/><path class="cls-5" d="M46.94,60.36a3.81,3.81,0,0,1-.27,1.41c-.31.87-.81,1.74-.66,1.73A3.09,3.09,0,0,0,46.92,62c.22-.78.47-1.69.47-1.69Z"/><path class="cls-5" d="M63,58.48a7.46,7.46,0,0,0-1.93-1.82,6.14,6.14,0,0,0-2.49-1c-.13.12,1.42.55,2,.9a20.25,20.25,0,0,1,2,1.91Z"/><path class="cls-5" d="M57.73,58.33a4.83,4.83,0,0,0-1.57-2.06,7.81,7.81,0,0,0-3.51-1.34c-.33.11,2.56.82,3.21,1.45a7,7,0,0,1,1.18,2Z"/><path class="cls-5" d="M53,58.86A11.09,11.09,0,0,0,50.66,57a10.32,10.32,0,0,0-2.83-.71c-.33,0,2.18.55,2.88,1A15.72,15.72,0,0,1,52.49,59Z"/><path class="cls-5" d="M46.93,60.22s-.08-.41-1.25-.84-1.81-.72-1.56-.72a7.66,7.66,0,0,1,1.55.39,10.3,10.3,0,0,1,1.83,1Z"/><path class="cls-1" d="M37.19,66.15c5.09,3.69,11.79,15.34,3.9,24.93S21.69,101.24,13,95.6C4,89.74-.38,75.42,10.57,65.17,19.34,57,29.5,60.59,37.19,66.15Z"/><path class="cls-2" d="M15.88,64.78h0Z"/><path class="cls-2" d="M17.06,66c.59-.28,1.26-.88.7-1.42s-1.32.08-1.86.21C15.16,65.45,15.47,66.76,17.06,66Z"/><path class="cls-2" d="M15.9,64.77l.91-.34A1.44,1.44,0,0,0,15.9,64.77Z"/><path class="cls-2" d="M14.27,67.34c.23-.16.53-.5.24-.73a.38.38,0,0,0-.57.12.69.69,0,0,0-.37.48C13.52,67.7,14,67.51,14.27,67.34Z"/><path class="cls-2" d="M18.17,67a.59.59,0,0,0-.56,0c-.26,0-.6.14-.65.35a.23.23,0,0,0,0,.14l-.08,0,.08,0c.07.25.65.07.87,0S18.63,67.28,18.17,67Z"/><path class="cls-2" d="M16.87,67.6l0,0Z"/><path class="cls-2" d="M19.43,65.72c-.26.08-.55.36-.4.61s.75.15,1,0C20.85,65.89,19.74,65.54,19.43,65.72Z"/><path class="cls-2" d="M20.49,64.17c-.17,0-.49-.1-.63,0a.24.24,0,0,0,0,.3c0,.17.3.33.42.39s1.57.54,1.66.11S20.81,64.22,20.49,64.17Z"/><path class="cls-2" d="M19.08,63.3c.26.14,1.22.11,1.32-.27s-.53-.46-.77-.43a1,1,0,0,0-.42.23C19,63,18.77,63.14,19.08,63.3Z"/><path class="cls-2" d="M14.44,65.53c.5-.37,0-.57-.37-.5h0c-.23,0-.79.25-.64.55S14.25,65.66,14.44,65.53Z"/><path class="cls-2" d="M12.36,67.84c.19-.2.75-1.12.1-1.15a.43.43,0,0,0-.33.17,1.8,1.8,0,0,0-.66.89C11.22,68.59,12,68.21,12.36,67.84Z"/><path class="cls-2" d="M15.86,68.1a1.31,1.31,0,0,0-.86.07c-.48.13-1.05.51-1.13.87-.22.87,1.33.24,1.67.13C16,69,16.58,68.37,15.86,68.1Z"/><path class="cls-2" d="M18.46,68.79c-.24.08-.51.28-.51.48,0,.43.89.3,1.14.19C20.05,69,18.8,68.6,18.46,68.79Z"/><path class="cls-2" d="M24.58,64a.44.44,0,0,0-.43.17,1.19,1.19,0,0,0,1.79,0A1,1,0,0,0,24.58,64Z"/><path class="cls-2" d="M22.06,66.2c.54.19,2,.28,2.1-.46A1.3,1.3,0,0,0,23,65.6C22.55,65.58,22.07,65.73,22.06,66.2Z"/><path class="cls-2" d="M23.11,62.34a.78.78,0,0,0-1.07-.1.51.51,0,0,0-.25.3A1,1,0,0,0,23.11,62.34Z"/><path class="cls-2" d="M27.05,65.41c-1.07,0,.31,1.36.9.93S27.48,65.14,27.05,65.41Z"/><path class="cls-2" d="M11.81,69.76c-.33-.26-.61,0-.8.3-.72.45-1.58,1.52-.89,1.78C11,72.17,11.79,70.34,11.81,69.76Z"/><path class="cls-2" d="M9.84,68.38c-.92.17-.48,1.68.39.65C10.78,68.39,10.22,68.18,9.84,68.38Z"/><path class="cls-2" d="M15.09,71.15a.47.47,0,0,0-.34.42c.34.24,1.26.26,1.49-.19C16.58,70.71,15.39,70.63,15.09,71.15Z"/><path class="cls-2" d="M23.27,68.67l-.06-.08a1.62,1.62,0,0,0,0,.19c-.05.09-.05.16,0,.19.19.5,1.25.52,1.05-.11S23.51,68.43,23.27,68.67Z"/><path class="cls-2" d="M32.75,67.35c-.63-.84-1.91,0-1.1.27C32.12,68,33.36,68.18,32.75,67.35Z"/><path class="cls-2" d="M10.65,75.39l.13-.22a1.48,1.48,0,0,0-.68,1.06c.37.09,1.45-.62,1.42-1.09C11.48,74.43,11,74.93,10.65,75.39Z"/><path class="cls-2" d="M20.34,73a.26.26,0,0,0,.36.08c.44,0,1.27-.06.92-.53S20.46,72.64,20.34,73Z"/><path class="cls-2" d="M7,72.54a.74.74,0,0,0-.06.37c.55.18,1.94,0,1.48-.86S7.12,71.91,7,72.54Z"/><path class="cls-2" d="M8.87,70.25h0a.46.46,0,0,0-.56.45.68.68,0,0,0,.94-.36A.65.65,0,0,0,8.87,70.25Z"/><path class="cls-3" d="M10.67,89.25c-2,1.44,8.19,8.72,14.82,8.46a19.49,19.49,0,0,0,16-10.06c1.76-3.6,1.14-13.81-1.05-13.1-.78.25.18,3.72-3,9-2.82,4.61-7.63,9.15-14,8.84C14.7,91.93,12,88.3,10.67,89.25Z"/><path class="cls-4" d="M32.54,64a.92.92,0,0,0-.83,1.4c.55,1.34,3.88,3.52,4.83,3.16s1-1.46-.39-2.52S33.81,64.14,32.54,64Z"/><path class="cls-4" d="M34.27,65.77s3.86-3.92,5-5.4a68.51,68.51,0,0,0,3.65-7.09s.34-.5.81-.41.34.78.34.78-2.69,5.42-3.78,6.91c-2.21,3-5.13,6.33-5.13,6.33Z"/><path class="cls-4" d="M41,58.38c-.24-.05-6.37-.79-6.37-.79l-.23.35,3.16.51,3.16.51Z"/><path class="cls-4" d="M27.74,65.43c-6.58,1.65-16.3-3-16.3-3s6.49-7.45,12.06-8,15.24,3.81,15.24,3.81S34.33,63.78,27.74,65.43Z"/><path class="cls-5" d="M32.6,64.38a1.32,1.32,0,0,0-.15,1.32,7,7,0,0,0,2.39,1.87L35,66.39s-.52-.34-.57-.64a.68.68,0,0,1,0-.45Z"/><path class="cls-5" d="M36.59,58.43a53,53,0,0,0-11,.1c-5.11.73-12.83,3.14-12.73,3.47s8.43-2.75,12.56-3,11.49,0,11.49,0Z"/><path class="cls-5" d="M34,58.62a5.64,5.64,0,0,1-1.07,2,13.89,13.89,0,0,0-1.85,2.83,18,18,0,0,0,2.14-2.63c.6-.89,1.39-2.13,1.39-2.13Z"/><path class="cls-5" d="M28.89,58.66a8.74,8.74,0,0,1-1.13,3.21c-1.13,2.28-1.59,2.94-1.31,3s1.13-1.68,1.69-2.93,1.45-3.36,1.45-3.36Z"/><path class="cls-5" d="M23.91,59.12a6,6,0,0,1-.39,2.38c-.51,1.69-1.13,2.64-.9,2.76s.83-1.45,1.17-2.67.85-2.73.85-2.73Z"/><path class="cls-5" d="M18.56,60.36a3.81,3.81,0,0,1-.27,1.41c-.32.87-.81,1.74-.66,1.73A3.09,3.09,0,0,0,18.54,62c.22-.78.47-1.69.47-1.69Z"/><path class="cls-5" d="M34.61,58.48a7.46,7.46,0,0,0-1.93-1.82,6.14,6.14,0,0,0-2.49-1c-.13.12,1.41.55,2,.9a20.25,20.25,0,0,1,2,1.91Z"/><path class="cls-5" d="M29.35,58.33a4.83,4.83,0,0,0-1.57-2.06,7.81,7.81,0,0,0-3.51-1.34c-.33.11,2.56.82,3.21,1.45a7,7,0,0,1,1.18,2Z"/><path class="cls-5" d="M24.64,58.86A11,11,0,0,0,22.28,57a10.32,10.32,0,0,0-2.83-.71c-.34,0,2.17.55,2.88,1A15.72,15.72,0,0,1,24.11,59Z"/><path class="cls-5" d="M18.55,60.22s-.08-.41-1.25-.84-1.81-.72-1.56-.72a7.66,7.66,0,0,1,1.55.39,10.3,10.3,0,0,1,1.83,1Z"/><path class="cls-1" d="M94.8,66.15c5.09,3.69,11.79,15.34,3.91,24.93s-19.4,10.16-28.1,4.52c-9-5.86-13.37-20.18-2.42-30.43C77,57,87.12,60.59,94.8,66.15Z"/><path class="cls-2" d="M73.49,64.78h0Z"/><path class="cls-2" d="M74.68,66c.59-.28,1.26-.88.7-1.42s-1.33.08-1.87.21C72.78,65.45,73.08,66.76,74.68,66Z"/><path class="cls-2" d="M73.52,64.77l.91-.34A1.41,1.41,0,0,0,73.52,64.77Z"/><path class="cls-2" d="M71.89,67.34c.23-.16.53-.5.23-.73a.38.38,0,0,0-.57.12.72.72,0,0,0-.37.48C71.13,67.7,71.66,67.51,71.89,67.34Z"/><path class="cls-2" d="M75.79,67a.59.59,0,0,0-.56,0c-.27,0-.6.14-.66.35a.35.35,0,0,0,0,.14l-.07,0,.08,0c.07.25.65.07.86,0S76.25,67.28,75.79,67Z"/><path class="cls-2" d="M74.49,67.6l0,0Z"/><path class="cls-2" d="M77,65.72c-.25.08-.54.36-.4.61s.76.15,1,0C78.46,65.89,77.36,65.54,77,65.72Z"/><path class="cls-2" d="M78.11,64.17c-.17,0-.5-.1-.63,0a.24.24,0,0,0,0,.3c0,.17.31.33.43.39s1.56.54,1.66.11S78.43,64.22,78.11,64.17Z"/><path class="cls-2" d="M76.69,63.3c.27.14,1.22.11,1.32-.27s-.52-.46-.77-.43a1,1,0,0,0-.41.23C76.58,63,76.39,63.14,76.69,63.3Z"/><path class="cls-2" d="M72.06,65.53c.5-.37,0-.57-.38-.5h0c-.22,0-.78.25-.63.55S71.87,65.66,72.06,65.53Z"/><path class="cls-2" d="M70,67.84c.18-.2.75-1.12.1-1.15a.43.43,0,0,0-.34.17,1.78,1.78,0,0,0-.65.89C68.83,68.59,69.66,68.21,70,67.84Z"/><path class="cls-2" d="M73.48,68.1a1.3,1.3,0,0,0-.86.07,1.68,1.68,0,0,0-1.14.87c-.21.87,1.34.24,1.67.13C73.64,69,74.2,68.37,73.48,68.1Z"/><path class="cls-2" d="M76.08,68.79c-.25.08-.52.28-.51.48,0,.43.89.3,1.14.19C77.66,69,76.42,68.6,76.08,68.79Z"/><path class="cls-2" d="M82.2,64a.44.44,0,0,0-.43.17,1.18,1.18,0,0,0,1.78,0A1,1,0,0,0,82.2,64Z"/><path class="cls-2" d="M79.68,66.2c.53.19,2,.28,2.1-.46a1.32,1.32,0,0,0-1.17-.14C80.16,65.58,79.68,65.73,79.68,66.2Z"/><path class="cls-2" d="M80.72,62.34a.77.77,0,0,0-1.06-.1.45.45,0,0,0-.25.3A1,1,0,0,0,80.72,62.34Z"/><path class="cls-2" d="M84.67,65.41c-1.07,0,.31,1.36.9.93S85.09,65.14,84.67,65.41Z"/><path class="cls-2" d="M69.43,69.76c-.33-.26-.61,0-.8.3-.72.45-1.58,1.52-.9,1.78C68.58,72.17,69.41,70.34,69.43,69.76Z"/><path class="cls-2" d="M67.46,68.38c-.92.17-.49,1.68.39.65C68.4,68.39,67.84,68.18,67.46,68.38Z"/><path class="cls-2" d="M72.7,71.15a.48.48,0,0,0-.34.42c.35.24,1.26.26,1.49-.19C74.2,70.71,73,70.63,72.7,71.15Z"/><path class="cls-2" d="M80.88,68.67l0-.08a.46.46,0,0,0,0,.19c-.05.09-.06.16,0,.19.19.5,1.24.52,1-.11S81.13,68.43,80.88,68.67Z"/><path class="cls-2" d="M90.36,67.35c-.62-.84-1.91,0-1.1.27C89.74,68,91,68.18,90.36,67.35Z"/><path class="cls-2" d="M68.27,75.39l.13-.22a1.53,1.53,0,0,0-.69,1.06c.37.09,1.46-.62,1.43-1.09C69.09,74.43,68.59,74.93,68.27,75.39Z"/><path class="cls-2" d="M78,73a.26.26,0,0,0,.36.08c.45,0,1.27-.06.92-.53S78.08,72.64,78,73Z"/><path class="cls-2" d="M64.58,72.54a.65.65,0,0,0,0,.37c.54.18,1.93,0,1.47-.86S64.74,71.91,64.58,72.54Z"/><path class="cls-2" d="M66.48,70.25h0a.46.46,0,0,0-.57.45.69.69,0,0,0,.95-.36A.68.68,0,0,0,66.48,70.25Z"/><path class="cls-3" d="M68.28,89.25c-2,1.44,8.2,8.72,14.83,8.46a19.53,19.53,0,0,0,16-10.06c1.75-3.6,1.14-13.81-1.05-13.1-.79.25.17,3.72-3,9-2.82,4.61-7.64,9.15-14,8.84C72.32,91.93,69.61,88.3,68.28,89.25Z"/><path class="cls-4" d="M90.16,64a.92.92,0,0,0-.83,1.4c.55,1.34,3.87,3.52,4.83,3.16s1-1.46-.4-2.52S91.43,64.14,90.16,64Z"/><path class="cls-4" d="M91.89,65.77s3.85-3.92,5-5.4a67.06,67.06,0,0,0,3.66-7.09s.34-.5.81-.41.34.78.34.78S99,59.07,97.87,60.56c-2.22,3-5.14,6.33-5.14,6.33Z"/><path class="cls-4" d="M98.62,58.38c-.24-.05-6.37-.79-6.37-.79l-.23.35,3.16.51,3.16.51Z"/><path class="cls-4" d="M85.35,65.43c-6.57,1.65-16.29-3-16.29-3s6.49-7.45,12.06-8,15.23,3.81,15.23,3.81S92,63.78,85.35,65.43Z"/><path class="cls-5" d="M90.21,64.38a1.33,1.33,0,0,0-.14,1.32,6.9,6.9,0,0,0,2.39,1.87l.15-1.18s-.51-.34-.56-.64a.68.68,0,0,1,0-.45Z"/><path class="cls-5" d="M94.2,58.43a53,53,0,0,0-11,.1c-5.11.73-12.83,3.14-12.73,3.47S78.89,59.25,83,59s11.49,0,11.49,0Z"/><path class="cls-5" d="M91.62,58.62a5.64,5.64,0,0,1-1.07,2,13.89,13.89,0,0,0-1.85,2.83,18,18,0,0,0,2.14-2.63c.6-.89,1.38-2.13,1.38-2.13Z"/><path class="cls-5" d="M86.5,58.66a8.74,8.74,0,0,1-1.13,3.21c-1.13,2.28-1.58,2.94-1.3,3s1.12-1.68,1.69-2.93,1.45-3.36,1.45-3.36Z"/><path class="cls-5" d="M81.52,59.12a6.06,6.06,0,0,1-.38,2.38c-.51,1.69-1.13,2.64-.9,2.76s.82-1.45,1.17-2.67.85-2.73.85-2.73Z"/><path class="cls-5" d="M76.18,60.36a3.72,3.72,0,0,1-.28,1.41c-.31.87-.8,1.74-.66,1.73A3.08,3.08,0,0,0,76.16,62c.22-.78.47-1.69.47-1.69Z"/><path class="cls-5" d="M92.22,58.48a7.26,7.26,0,0,0-1.93-1.82,6.07,6.07,0,0,0-2.48-1c-.14.12,1.41.55,2,.9a20.25,20.25,0,0,1,2,1.91Z"/><path class="cls-5" d="M87,58.33a4.91,4.91,0,0,0-1.58-2.06,7.78,7.78,0,0,0-3.5-1.34c-.34.11,2.56.82,3.21,1.45a7,7,0,0,1,1.18,2Z"/><path class="cls-5" d="M82.26,58.86A11.22,11.22,0,0,0,79.9,57a10.4,10.4,0,0,0-2.83-.71c-.34,0,2.17.55,2.87,1A15.23,15.23,0,0,1,81.73,59Z"/><path class="cls-5" d="M76.17,60.22s-.08-.41-1.25-.84-1.82-.72-1.57-.72a7.7,7.7,0,0,1,1.56.39,10.71,10.71,0,0,1,1.83,1Z"/></svg>