<svg xmlns="http://www.w3.org/2000/svg" viewBox="0 0 105.29 104.84"><defs><style>.cls-1{isolation:isolate;}.cls-2{fill:#ed7d03;}.cls-3{fill:#ff8c03;}.cls-4{fill:#fcbc08;}.cls-5{fill:#f28106;opacity:0.7;}.cls-6{fill:#7c6a13;}.cls-7{fill:#937b18;}.cls-8{fill:#b86313;}.cls-11,.cls-9{fill:#cc7917;}.cls-10{fill:#9e4727;}.cls-11,.cls-12,.cls-17{opacity:0.5;}.cls-11,.cls-15,.cls-17{mix-blend-mode:multiply;}.cls-13,.cls-16{fill:#fff;}.cls-14,.cls-15{opacity:0.3;}.cls-14{mix-blend-mode:screen;}.cls-16{opacity:0.1;}</style></defs><title>orange30</title><g class="cls-1"><g id="Layer_1" data-name="Layer 1"><path class="cls-2" d="M80.21,46.57C75.48,45,70.5,40.92,69.36,35.83H25.13V66H82.44V47.18A19.36,19.36,0,0,1,80.21,46.57Z"/><path class="cls-3" d="M67.66,12.66c3,2.2,6.91,9.14,2.29,14.86s-11.37,6.05-16.46,2.69a11.48,11.48,0,0,1-1.43-18.13C57.21,7.18,63.16,9.35,67.66,12.66Z"/><path class="cls-4" d="M55.17,11.85h0Z"/><path class="cls-4" d="M55.87,12.57c.35-.17.74-.53.41-.85s-.78,0-1.09.12C54.75,12.24,54.93,13,55.87,12.57Z"/><path class="cls-4" d="M55.19,11.84l.53-.21A.88.88,0,0,0,55.19,11.84Z"/><path class="cls-4" d="M54.23,13.37c.14-.09.31-.29.14-.44s-.25,0-.33.08a.41.41,0,0,0-.22.28C53.79,13.59,54.1,13.47,54.23,13.37Z"/><path class="cls-4" d="M56.52,13.19a.35.35,0,0,0-.33,0c-.15,0-.35.09-.38.21a.28.28,0,0,0,0,.08s0,0,0,0l0,0c0,.14.39,0,.51,0S56.79,13.34,56.52,13.19Z"/><path class="cls-4" d="M55.76,13.53h0Z"/><path class="cls-4" d="M57.25,12.41c-.15,0-.32.21-.23.36s.44.09.56,0C58.09,12.51,57.44,12.3,57.25,12.41Z"/><path class="cls-4" d="M57.88,11.48c-.1,0-.29-.06-.37,0a.14.14,0,0,0,0,.18c0,.1.18.2.25.23s.91.33,1,.07S58.07,11.51,57.88,11.48Z"/><path class="cls-4" d="M57.05,11c.16.08.71.06.77-.17s-.3-.27-.45-.25a.57.57,0,0,0-.24.13C57,10.76,56.87,10.87,57.05,11Z"/><path class="cls-4" d="M54.33,12.29c.29-.22,0-.34-.22-.29h0c-.13,0-.46.15-.37.33S54.22,12.37,54.33,12.29Z"/><path class="cls-4" d="M53.11,13.67c.11-.12.44-.67.06-.69a.28.28,0,0,0-.19.1,1.08,1.08,0,0,0-.39.53C52.44,14.12,52.93,13.89,53.11,13.67Z"/><path class="cls-4" d="M55.16,13.82a.75.75,0,0,0-.5,0,1,1,0,0,0-.66.51c-.13.52.78.15,1,.08S55.59,14,55.16,13.82Z"/><path class="cls-4" d="M56.69,14.23c-.15,0-.3.17-.3.29s.52.18.67.11C57.62,14.37,56.89,14.12,56.69,14.23Z"/><path class="cls-4" d="M60.27,11.35a.27.27,0,0,0-.25.1.69.69,0,0,0,1,0A.58.58,0,0,0,60.27,11.35Z"/><path class="cls-4" d="M58.8,12.69c.31.11,1.16.17,1.23-.27a.7.7,0,0,0-.68-.08C59.08,12.32,58.8,12.41,58.8,12.69Z"/><path class="cls-4" d="M59.41,10.39a.44.44,0,0,0-.62-.06.3.3,0,0,0-.15.18A.59.59,0,0,0,59.41,10.39Z"/><path class="cls-4" d="M61.72,12.22c-.62,0,.18.81.53.55S62,12.06,61.72,12.22Z"/><path class="cls-4" d="M52.79,14.81c-.19-.15-.36,0-.47.18-.42.27-.92.91-.52,1.06S52.78,15.16,52.79,14.81Z"/><path class="cls-4" d="M51.64,14c-.54.1-.29,1,.23.39C52.19,14,51.86,13.87,51.64,14Z"/><path class="cls-4" d="M54.71,15.64a.3.3,0,0,0-.2.25c.2.14.74.16.88-.11S54.89,15.33,54.71,15.64Z"/><path class="cls-4" d="M59.5,14.16l0,0a.43.43,0,0,0,0,.11s0,.1,0,.11c.11.3.73.31.61-.06S59.65,14,59.5,14.16Z"/><path class="cls-4" d="M65.06,13.38c-.36-.5-1.12,0-.64.16C64.69,13.74,65.42,13.87,65.06,13.38Z"/><path class="cls-4" d="M52.11,18.17l.08-.14a.92.92,0,0,0-.4.64c.21,0,.85-.37.83-.65S52.3,17.9,52.11,18.17Z"/><path class="cls-4" d="M57.79,16.75a.16.16,0,0,0,.21.05c.26,0,.74,0,.54-.32S57.86,16.53,57.79,16.75Z"/><path class="cls-4" d="M50,16.47a.4.4,0,0,0,0,.22c.32.11,1.13,0,.86-.51S50,16.09,50,16.47Z"/><path class="cls-4" d="M51.07,15.11h0a.27.27,0,0,0-.33.26.4.4,0,0,0,.56-.21A.34.34,0,0,0,51.07,15.11Z"/><path class="cls-5" d="M52.12,26.43c-1.17.86,4.8,5.19,8.69,5a11.45,11.45,0,0,0,9.4-6c1-2.14.67-8.23-.62-7.8-.46.15.11,2.21-1.78,5.34-1.65,2.75-4.47,5.45-8.21,5.27C54.48,28,52.9,25.86,52.12,26.43Z"/><path class="cls-6" d="M64.94,11.37a.54.54,0,0,0-.49.83c.33.8,2.28,2.1,2.84,1.88s.58-.87-.24-1.49A4.57,4.57,0,0,0,64.94,11.37Z"/><path class="cls-6" d="M66,12.44s2.26-2.34,2.91-3.22A41.89,41.89,0,0,0,71,5a.55.55,0,0,1,.48-.24c.27,0,.19.47.19.47S70.1,8.44,69.46,9.33c-1.3,1.81-3,3.77-3,3.77Z"/><path class="cls-6" d="M69.9,8c-.14,0-3.73-.47-3.73-.47L66,7.77l1.85.31,1.85.3Z"/><path class="cls-6" d="M62.13,12.23c-3.86,1-9.55-1.76-9.55-1.76S56.38,6,59.64,5.7,68.57,8,68.57,8A13.44,13.44,0,0,1,62.13,12.23Z"/><path class="cls-7" d="M65,11.6a.8.8,0,0,0-.08.79,4,4,0,0,0,1.4,1.12l.09-.7s-.3-.21-.33-.39a.41.41,0,0,1,0-.27Z"/><path class="cls-7" d="M67.31,8.06a30.48,30.48,0,0,0-6.46.06c-3,.44-7.52,1.87-7.46,2.07s5-1.64,7.36-1.8,6.74,0,6.74,0Z"/><path class="cls-7" d="M65.8,8.17a3.61,3.61,0,0,1-.63,1.18A8.25,8.25,0,0,0,64.08,11a10.76,10.76,0,0,0,1.26-1.56c.35-.53.81-1.27.81-1.27Z"/><path class="cls-7" d="M62.8,8.2a5.29,5.29,0,0,1-.66,1.91c-.66,1.36-.93,1.76-.77,1.79s.66-1,1-1.75.85-2,.85-2Z"/><path class="cls-7" d="M59.88,8.47a3.63,3.63,0,0,1-.23,1.42c-.29,1-.66,1.57-.52,1.64s.48-.86.68-1.59.5-1.62.5-1.62Z"/><path class="cls-7" d="M56.75,9.21a2.36,2.36,0,0,1-.16.84c-.19.52-.48,1-.39,1a1.82,1.82,0,0,0,.54-.91c.13-.47.27-1,.27-1Z"/><path class="cls-7" d="M66.15,8.09A4.25,4.25,0,0,0,65,7a3.53,3.53,0,0,0-1.46-.6c-.07.07.83.33,1.15.54A12.62,12.62,0,0,1,65.9,8.09Z"/><path class="cls-7" d="M63.07,8a2.85,2.85,0,0,0-.92-1.22A4.44,4.44,0,0,0,60.09,6c-.19.06,1.5.49,1.88.86a4.36,4.36,0,0,1,.7,1.21Z"/><path class="cls-7" d="M60.31,8.32a6.6,6.6,0,0,0-1.38-1.09,5.66,5.66,0,0,0-1.66-.42c-.2,0,1.27.32,1.68.61a9.25,9.25,0,0,1,1,1Z"/><path class="cls-7" d="M56.74,9.13s-.05-.25-.73-.5S55,8.2,55.09,8.2a4.57,4.57,0,0,1,.91.23A6.29,6.29,0,0,1,57.08,9Z"/><path class="cls-3" d="M47.92,13.78c3,2.19,6.91,9.13,2.29,14.85s-11.38,6.05-16.47,2.69a11.47,11.47,0,0,1-1.42-18.13C37.46,8.29,43.41,10.46,47.92,13.78Z"/><path class="cls-4" d="M35.43,13h0Z"/><path class="cls-4" d="M36.12,13.68c.35-.17.74-.53.41-.85s-.78.05-1.09.13C35,13.35,35.19,14.14,36.12,13.68Z"/><path class="cls-4" d="M35.44,13l.54-.2A.88.88,0,0,0,35.44,13Z"/><path class="cls-4" d="M34.49,14.48c.13-.09.31-.29.13-.43a.22.22,0,0,0-.33.07.44.44,0,0,0-.22.29C34,14.7,34.35,14.58,34.49,14.48Z"/><path class="cls-4" d="M36.77,14.3a.33.33,0,0,0-.33,0c-.15,0-.35.08-.38.21a.25.25,0,0,0,0,.08l0,0,0,0c.05.15.39,0,.51,0S37,14.45,36.77,14.3Z"/><path class="cls-4" d="M36,14.64h0Z"/><path class="cls-4" d="M37.51,13.52c-.15,0-.32.21-.24.36s.44.09.57,0C38.34,13.62,37.69,13.41,37.51,13.52Z"/><path class="cls-4" d="M38.13,12.6c-.1,0-.29-.07-.37,0a.14.14,0,0,0,0,.17c0,.11.18.2.25.24s.91.32,1,.06S38.32,12.62,38.13,12.6Z"/><path class="cls-4" d="M37.3,12.08c.16.08.72.06.77-.17s-.3-.27-.45-.25a.61.61,0,0,0-.24.14C37.23,11.87,37.12,12,37.3,12.08Z"/><path class="cls-4" d="M34.59,13.4c.29-.21,0-.34-.23-.29h0c-.13,0-.46.15-.37.33S34.47,13.48,34.59,13.4Z"/><path class="cls-4" d="M33.37,14.78c.11-.12.44-.67.06-.69a.3.3,0,0,0-.2.1,1.17,1.17,0,0,0-.39.54C32.7,15.23,33.18,15,33.37,14.78Z"/><path class="cls-4" d="M35.42,14.94a.77.77,0,0,0-.51,0c-.28.08-.61.3-.66.51-.13.52.78.15,1,.08S35.84,15.1,35.42,14.94Z"/><path class="cls-4" d="M36.94,15.35c-.14.05-.3.17-.3.29s.53.17.67.1C37.87,15.48,37.14,15.23,36.94,15.35Z"/><path class="cls-4" d="M40.53,12.46a.26.26,0,0,0-.25.11.68.68,0,0,0,1,0A.59.59,0,0,0,40.53,12.46Z"/><path class="cls-4" d="M39.05,13.81c.31.1,1.16.16,1.23-.28a.75.75,0,0,0-.68-.08C39.33,13.44,39.05,13.53,39.05,13.81Z"/><path class="cls-4" d="M39.66,11.51a.44.44,0,0,0-.62-.07.34.34,0,0,0-.15.18A.59.59,0,0,0,39.66,11.51Z"/><path class="cls-4" d="M42,13.33c-.63,0,.18.81.52.56S42.22,13.17,42,13.33Z"/><path class="cls-4" d="M33,15.93c-.19-.16-.35,0-.47.18-.42.26-.92.9-.52,1.06S33,16.27,33,15.93Z"/><path class="cls-4" d="M31.89,15.1c-.54.11-.28,1,.23.39C32.44,15.11,32.11,15,31.89,15.1Z"/><path class="cls-4" d="M35,16.75a.27.27,0,0,0-.19.25c.2.15.73.16.87-.11S35.14,16.44,35,16.75Z"/><path class="cls-4" d="M39.76,15.27l0,0a.26.26,0,0,0,0,.11c0,.05,0,.1,0,.12.11.29.73.3.61-.07S39.9,15.13,39.76,15.27Z"/><path class="cls-4" d="M45.31,14.49c-.36-.5-1.12,0-.64.16C45,14.85,45.67,15,45.31,14.49Z"/><path class="cls-4" d="M32.37,19.28l.07-.13a.88.88,0,0,0-.4.63c.22.06.85-.37.83-.65S32.55,19,32.37,19.28Z"/><path class="cls-4" d="M38,17.86a.16.16,0,0,0,.21.05c.26,0,.74,0,.54-.32S38.11,17.64,38,17.86Z"/><path class="cls-4" d="M30.2,17.58a.51.51,0,0,0,0,.22c.32.11,1.14,0,.87-.51S30.3,17.21,30.2,17.58Z"/><path class="cls-4" d="M31.32,16.22h0a.27.27,0,0,0-.33.27.4.4,0,0,0,.55-.22A.39.39,0,0,0,31.32,16.22Z"/><path class="cls-5" d="M32.37,27.54c-1.17.86,4.8,5.19,8.69,5a11.43,11.43,0,0,0,9.4-6c1-2.14.67-8.23-.61-7.8-.46.15.1,2.22-1.78,5.34-1.66,2.75-4.48,5.46-8.22,5.27C34.74,29.14,33.15,27,32.37,27.54Z"/><path class="cls-6" d="M45.19,12.48a.55.55,0,0,0-.48.84c.32.79,2.27,2.09,2.83,1.88s.58-.87-.23-1.5A4.73,4.73,0,0,0,45.19,12.48Z"/><path class="cls-6" d="M46.21,13.55s2.26-2.34,2.9-3.22A39.83,39.83,0,0,0,51.25,6.1a.55.55,0,0,1,.48-.24c.28,0,.2.47.2.47s-1.58,3.22-2.22,4.11c-1.3,1.81-3,3.78-3,3.78Z"/><path class="cls-6" d="M50.15,9.14l-3.73-.47-.14.21,1.86.31,1.85.3Z"/><path class="cls-6" d="M42.38,13.35c-3.86,1-9.55-1.77-9.55-1.77s3.8-4.44,7.07-4.77,8.92,2.27,8.92,2.27A13.5,13.5,0,0,1,42.38,13.35Z"/><path class="cls-7" d="M45.23,12.72a.81.81,0,0,0-.09.79,4.09,4.09,0,0,0,1.4,1.11l.09-.7s-.3-.21-.33-.38a.39.39,0,0,1,0-.27Z"/><path class="cls-7" d="M47.56,9.18a29.67,29.67,0,0,0-6.45.06c-3,.43-7.52,1.86-7.47,2.06s5-1.63,7.37-1.8,6.73,0,6.73,0Z"/><path class="cls-7" d="M46.05,9.29a3.28,3.28,0,0,1-.63,1.17,9.15,9.15,0,0,0-1.08,1.68,9.72,9.72,0,0,0,1.25-1.56c.35-.53.81-1.27.81-1.27Z"/><path class="cls-7" d="M43.05,9.31a5.29,5.29,0,0,1-.66,1.91c-.66,1.36-.93,1.76-.76,1.79s.65-1,1-1.74.84-2,.84-2Z"/><path class="cls-7" d="M40.13,9.58A3.7,3.7,0,0,1,39.91,11c-.3,1-.66,1.58-.53,1.65s.48-.87.69-1.59.5-1.63.5-1.63Z"/><path class="cls-7" d="M37,10.32a2.36,2.36,0,0,1-.16.84c-.18.52-.47,1-.39,1a1.75,1.75,0,0,0,.54-.91c.13-.47.27-1,.27-1Z"/><path class="cls-7" d="M46.4,9.21a4.19,4.19,0,0,0-1.13-1.09,3.48,3.48,0,0,0-1.46-.6c-.07.07.83.33,1.15.54A11.47,11.47,0,0,1,46.15,9.2Z"/><path class="cls-7" d="M43.32,9.12a2.91,2.91,0,0,0-.92-1.23,4.45,4.45,0,0,0-2-.8c-.2.06,1.5.49,1.88.86a4.23,4.23,0,0,1,.69,1.21Z"/><path class="cls-7" d="M40.57,9.43a6.75,6.75,0,0,0-1.39-1.09,5.58,5.58,0,0,0-1.66-.42c-.2,0,1.28.33,1.69.62a9.06,9.06,0,0,1,1,1Z"/><path class="cls-7" d="M37,10.24s0-.25-.73-.5-1.06-.43-.91-.43a4.31,4.31,0,0,1,.91.24,6,6,0,0,1,1.07.6Z"/><path class="cls-3" d="M81.57,24.34c3,2.2,6.91,9.14,2.29,14.86s-11.37,6-16.47,2.69A11.47,11.47,0,0,1,66,23.76C71.11,18.86,77.06,21,81.57,24.34Z"/><path class="cls-4" d="M69.08,23.53h0Z"/><path class="cls-4" d="M69.77,24.25c.35-.17.75-.53.42-.85s-.78.05-1.1.13C68.66,23.92,68.84,24.7,69.77,24.25Z"/><path class="cls-4" d="M69.1,23.52l.53-.2A.83.83,0,0,0,69.1,23.52Z"/><path class="cls-4" d="M68.14,25.05c.13-.09.31-.29.14-.43a.23.23,0,0,0-.34.07.43.43,0,0,0-.21.29C67.7,25.27,68,25.15,68.14,25.05Z"/><path class="cls-4" d="M70.43,24.87a.35.35,0,0,0-.33,0c-.16,0-.35.09-.39.21a.14.14,0,0,0,0,.09l0,0,0,0c0,.14.38,0,.51,0S70.69,25,70.43,24.87Z"/><path class="cls-4" d="M69.66,25.21h0Z"/><path class="cls-4" d="M71.16,24.09c-.15,0-.32.21-.23.36s.44.09.56,0C72,24.19,71.35,24,71.16,24.09Z"/><path class="cls-4" d="M71.79,23.17c-.11,0-.29-.07-.37,0a.15.15,0,0,0,0,.18c0,.11.18.2.25.24s.92.32,1,.06S72,23.19,71.79,23.17Z"/><path class="cls-4" d="M71,22.65c.15.08.71.06.77-.17s-.31-.27-.45-.25a.43.43,0,0,0-.24.14C70.89,22.44,70.78,22.55,71,22.65Z"/><path class="cls-4" d="M68.24,24c.29-.21,0-.34-.22-.29h0c-.14,0-.47.15-.38.33S68.13,24.05,68.24,24Z"/><path class="cls-4" d="M67,25.35c.11-.12.44-.67.06-.69a.3.3,0,0,0-.2.1,1.08,1.08,0,0,0-.38.54C66.35,25.8,66.83,25.57,67,25.35Z"/><path class="cls-4" d="M69.07,25.51a.74.74,0,0,0-.5,0c-.29.08-.62.3-.67.51-.12.52.79.15,1,.08S69.49,25.66,69.07,25.51Z"/><path class="cls-4" d="M70.6,25.91c-.15.05-.31.17-.3.29s.52.18.66.11C71.53,26.05,70.79,25.8,70.6,25.91Z"/><path class="cls-4" d="M74.18,23a.27.27,0,0,0-.25.1.69.69,0,0,0,1,0A.6.6,0,0,0,74.18,23Z"/><path class="cls-4" d="M72.7,24.37c.32.11,1.17.17,1.23-.27a.72.72,0,0,0-.68-.08C73,24,72.71,24.1,72.7,24.37Z"/><path class="cls-4" d="M73.32,22.07A.44.44,0,0,0,72.7,22a.3.3,0,0,0-.15.18A.59.59,0,0,0,73.32,22.07Z"/><path class="cls-4" d="M75.63,23.9c-.63,0,.18.81.53.56S75.88,23.74,75.63,23.9Z"/><path class="cls-4" d="M66.7,26.5c-.2-.16-.36,0-.47.17-.42.27-.93.91-.53,1.07S66.69,26.84,66.7,26.5Z"/><path class="cls-4" d="M65.54,25.67c-.54.11-.28,1,.23.39C66.09,25.68,65.77,25.56,65.54,25.67Z"/><path class="cls-4" d="M68.62,27.32a.28.28,0,0,0-.2.25c.2.15.74.16.87-.11S68.8,27,68.62,27.32Z"/><path class="cls-4" d="M73.41,25.84l0,0a.52.52,0,0,0,0,.11c0,.05,0,.1,0,.12.11.29.73.3.62-.07S73.56,25.7,73.41,25.84Z"/><path class="cls-4" d="M79,25.06c-.37-.5-1.12,0-.65.16C78.6,25.42,79.33,25.55,79,25.06Z"/><path class="cls-4" d="M66,29.85l.07-.13a.91.91,0,0,0-.4.63c.22.06.85-.37.84-.65S66.21,29.58,66,29.85Z"/><path class="cls-4" d="M71.69,28.43a.17.17,0,0,0,.22.05c.26,0,.74,0,.53-.32S71.77,28.21,71.69,28.43Z"/><path class="cls-4" d="M63.86,28.15a.4.4,0,0,0,0,.22c.32.11,1.13,0,.86-.51S64,27.77,63.86,28.15Z"/><path class="cls-4" d="M65,26.79h0a.27.27,0,0,0-.33.27.4.4,0,0,0,.55-.22A.33.33,0,0,0,65,26.79Z"/><path class="cls-5" d="M66,38.11c-1.18.86,4.8,5.19,8.68,5a11.43,11.43,0,0,0,9.41-6c1-2.14.66-8.23-.62-7.8-.46.15.1,2.21-1.78,5.34-1.65,2.75-4.48,5.46-8.21,5.27C68.39,39.71,66.8,37.54,66,38.11Z"/><path class="cls-6" d="M78.85,23.05a.55.55,0,0,0-.49.83c.32.8,2.27,2.1,2.83,1.88s.59-.87-.23-1.49A4.66,4.66,0,0,0,78.85,23.05Z"/><path class="cls-6" d="M79.86,24.12s2.26-2.34,2.91-3.22a41.89,41.89,0,0,0,2.14-4.23s.2-.29.47-.24.2.47.2.47S84,20.12,83.37,21c-1.3,1.81-3,3.78-3,3.78Z"/><path class="cls-6" d="M83.8,19.71c-.13,0-3.73-.47-3.73-.47l-.13.21,1.85.31,1.85.3Z"/><path class="cls-6" d="M76,23.92c-3.85,1-9.55-1.77-9.55-1.77s3.81-4.44,7.07-4.77,8.93,2.27,8.93,2.27A13.5,13.5,0,0,1,76,23.92Z"/><path class="cls-7" d="M78.88,23.29a.81.81,0,0,0-.09.79,4.09,4.09,0,0,0,1.4,1.11l.1-.7s-.3-.21-.33-.38a.33.33,0,0,1,0-.27Z"/><path class="cls-7" d="M81.22,19.74a30.09,30.09,0,0,0-6.46.07c-3,.43-7.52,1.86-7.46,2.06s4.94-1.64,7.36-1.8,6.74,0,6.74,0Z"/><path class="cls-7" d="M79.7,19.86A3.34,3.34,0,0,1,79.08,21,8.89,8.89,0,0,0,78,22.71a10.21,10.21,0,0,0,1.25-1.56c.36-.53.82-1.27.82-1.27Z"/><path class="cls-7" d="M76.7,19.88A5,5,0,0,1,76,21.79c-.66,1.36-.92,1.76-.76,1.79s.66-1,1-1.75.85-2,.85-2Z"/><path class="cls-7" d="M73.79,20.15a3.63,3.63,0,0,1-.23,1.42c-.3,1-.66,1.58-.53,1.64s.49-.86.69-1.58.5-1.63.5-1.63Z"/><path class="cls-7" d="M70.65,20.89a2.11,2.11,0,0,1-.16.84c-.18.52-.47,1-.38,1a1.83,1.83,0,0,0,.53-.91l.28-1Z"/><path class="cls-7" d="M80.06,19.77a4.43,4.43,0,0,0-1.13-1.08,3.53,3.53,0,0,0-1.46-.6c-.08.07.83.33,1.15.54a12.23,12.23,0,0,1,1.18,1.14Z"/><path class="cls-7" d="M77,19.69a2.91,2.91,0,0,0-.92-1.23,4.48,4.48,0,0,0-2.06-.8c-.2.06,1.5.49,1.88.86a4.23,4.23,0,0,1,.69,1.21Z"/><path class="cls-7" d="M74.22,20a6.75,6.75,0,0,0-1.39-1.09,5.58,5.58,0,0,0-1.66-.42c-.19,0,1.28.33,1.69.62a9.06,9.06,0,0,1,1,1Z"/><path class="cls-7" d="M70.65,20.81s-.05-.25-.73-.5-1.07-.43-.92-.43a4.16,4.16,0,0,1,.91.24,5.61,5.61,0,0,1,1.07.6Z"/><path class="cls-3" d="M61,21.1c3,2.2,6.91,9.14,2.29,14.86s-11.37,6-16.46,2.69A11.48,11.48,0,0,1,45.4,20.52C50.55,15.62,56.5,17.79,61,21.1Z"/><path class="cls-4" d="M48.51,20.29h0Z"/><path class="cls-4" d="M49.21,21c.35-.17.74-.53.41-.85s-.78.05-1.09.13C48.09,20.68,48.27,21.46,49.21,21Z"/><path class="cls-4" d="M48.53,20.28l.53-.2A.87.87,0,0,0,48.53,20.28Z"/><path class="cls-4" d="M47.57,21.81c.14-.09.31-.29.14-.43a.22.22,0,0,0-.33.07.44.44,0,0,0-.22.29C47.13,22,47.44,21.91,47.57,21.81Z"/><path class="cls-4" d="M49.86,21.63a.35.35,0,0,0-.33,0c-.15,0-.35.09-.38.21a.31.31,0,0,0,0,.09l0,0,0,0c0,.14.39,0,.51,0S50.13,21.78,49.86,21.63Z"/><path class="cls-4" d="M49.1,22h0Z"/><path class="cls-4" d="M50.59,20.85c-.15,0-.32.21-.23.36s.44.09.56,0C51.43,21,50.78,20.74,50.59,20.85Z"/><path class="cls-4" d="M51.22,19.93c-.1,0-.29-.07-.37,0a.14.14,0,0,0,0,.18c0,.11.17.2.25.24s.91.32,1,.06S51.41,20,51.22,19.93Z"/><path class="cls-4" d="M50.39,19.41c.16.08.71.06.77-.17s-.3-.27-.45-.25a.51.51,0,0,0-.24.14C50.32,19.2,50.21,19.31,50.39,19.41Z"/><path class="cls-4" d="M47.67,20.73c.29-.21,0-.34-.22-.29h0c-.13,0-.46.15-.37.33S47.56,20.81,47.67,20.73Z"/><path class="cls-4" d="M46.45,22.11c.11-.12.44-.67.06-.69a.28.28,0,0,0-.19.1,1.1,1.1,0,0,0-.39.54C45.78,22.56,46.27,22.33,46.45,22.11Z"/><path class="cls-4" d="M48.5,22.27a.74.74,0,0,0-.5,0c-.28.08-.61.3-.66.51-.13.52.78.15,1,.08S48.93,22.42,48.5,22.27Z"/><path class="cls-4" d="M50,22.67c-.15,0-.3.17-.3.29s.52.18.67.11C51,22.81,50.23,22.56,50,22.67Z"/><path class="cls-4" d="M53.61,19.79a.29.29,0,0,0-.25.1.69.69,0,0,0,1,0A.59.59,0,0,0,53.61,19.79Z"/><path class="cls-4" d="M52.14,21.13c.31.11,1.16.17,1.23-.27a.72.72,0,0,0-.68-.08C52.42,20.77,52.14,20.86,52.14,21.13Z"/><path class="cls-4" d="M52.75,18.83a.44.44,0,0,0-.62-.06A.34.34,0,0,0,52,19,.59.59,0,0,0,52.75,18.83Z"/><path class="cls-4" d="M55.06,20.66c-.62,0,.18.81.53.56S55.31,20.5,55.06,20.66Z"/><path class="cls-4" d="M46.13,23.26c-.19-.16-.36,0-.47.17-.42.27-.92.91-.52,1.07S46.12,23.6,46.13,23.26Z"/><path class="cls-4" d="M45,22.43c-.54.11-.29,1,.23.39C45.53,22.44,45.2,22.32,45,22.43Z"/><path class="cls-4" d="M48.05,24.08a.3.3,0,0,0-.2.25c.2.15.74.16.88-.11S48.23,23.77,48.05,24.08Z"/><path class="cls-4" d="M52.84,22.6l0,0a.52.52,0,0,0,0,.11s0,.1,0,.12c.11.29.73.3.61-.07S53,22.46,52.84,22.6Z"/><path class="cls-4" d="M58.4,21.82c-.36-.5-1.12,0-.64.16C58,22.18,58.76,22.31,58.4,21.82Z"/><path class="cls-4" d="M45.45,26.61l.08-.13a.88.88,0,0,0-.4.63c.21.06.85-.37.83-.65S45.64,26.34,45.45,26.61Z"/><path class="cls-4" d="M51.13,25.19a.16.16,0,0,0,.21,0c.26,0,.74,0,.54-.32S51.2,25,51.13,25.19Z"/><path class="cls-4" d="M43.29,24.91a.4.4,0,0,0,0,.22c.32.11,1.13,0,.86-.51S43.38,24.53,43.29,24.91Z"/><path class="cls-4" d="M44.41,23.55h0a.27.27,0,0,0-.33.27.41.41,0,0,0,.56-.22A.34.34,0,0,0,44.41,23.55Z"/><path class="cls-5" d="M45.46,34.87c-1.17.86,4.8,5.19,8.69,5a11.43,11.43,0,0,0,9.4-6c1-2.14.67-8.23-.62-7.8-.46.15.11,2.21-1.78,5.34-1.65,2.75-4.47,5.46-8.21,5.27C47.82,36.47,46.24,34.3,45.46,34.87Z"/><path class="cls-6" d="M58.28,19.81a.55.55,0,0,0-.49.83c.33.8,2.28,2.1,2.84,1.88s.58-.87-.24-1.49A4.57,4.57,0,0,0,58.28,19.81Z"/><path class="cls-6" d="M59.29,20.88s2.26-2.34,2.91-3.22a41.89,41.89,0,0,0,2.14-4.23.55.55,0,0,1,.48-.24c.27.05.19.47.19.47s-1.57,3.22-2.21,4.11c-1.3,1.81-3,3.78-3,3.78Z"/><path class="cls-6" d="M63.24,16.47c-.14,0-3.73-.47-3.73-.47l-.14.21,1.85.31,1.85.3Z"/><path class="cls-6" d="M55.46,20.68c-3.85,1-9.54-1.77-9.54-1.77s3.8-4.44,7.06-4.77,8.93,2.27,8.93,2.27A13.5,13.5,0,0,1,55.46,20.68Z"/><path class="cls-7" d="M58.31,20.05a.8.8,0,0,0-.08.79A4.09,4.09,0,0,0,59.63,22l.09-.7s-.3-.21-.33-.38a.39.39,0,0,1,0-.27Z"/><path class="cls-7" d="M60.65,16.5a30.09,30.09,0,0,0-6.46.07c-3,.43-7.52,1.86-7.46,2.06s5-1.64,7.36-1.8,6.74,0,6.74,0Z"/><path class="cls-7" d="M59.14,16.62a3.52,3.52,0,0,1-.63,1.17,8.89,8.89,0,0,0-1.09,1.68,10.76,10.76,0,0,0,1.26-1.56c.35-.53.81-1.27.81-1.27Z"/><path class="cls-7" d="M56.14,16.64a5.29,5.29,0,0,1-.66,1.91c-.66,1.36-.93,1.76-.77,1.79s.66-1,1-1.75.85-2,.85-2Z"/><path class="cls-7" d="M53.22,16.91A3.63,3.63,0,0,1,53,18.33c-.29,1-.66,1.58-.52,1.64s.48-.86.68-1.58.5-1.63.5-1.63Z"/><path class="cls-7" d="M50.09,17.65a2.36,2.36,0,0,1-.16.84c-.19.52-.48,1-.39,1a1.75,1.75,0,0,0,.53-.91c.14-.47.28-1,.28-1Z"/><path class="cls-7" d="M59.49,16.53a4.43,4.43,0,0,0-1.13-1.08,3.53,3.53,0,0,0-1.46-.6c-.08.07.83.33,1.15.54a12.62,12.62,0,0,1,1.19,1.14Z"/><path class="cls-7" d="M56.41,16.45a2.91,2.91,0,0,0-.92-1.23,4.44,4.44,0,0,0-2.06-.8c-.19.06,1.5.49,1.88.86a4.36,4.36,0,0,1,.7,1.21Z"/><path class="cls-7" d="M53.65,16.76a6.6,6.6,0,0,0-1.38-1.09,5.66,5.66,0,0,0-1.66-.42c-.2,0,1.27.33,1.68.62a8.6,8.6,0,0,1,1.05,1Z"/><path class="cls-7" d="M50.08,17.57s0-.25-.73-.5-1.06-.43-.92-.43a4.16,4.16,0,0,1,.91.24,5.82,5.82,0,0,1,1.08.6Z"/><path class="cls-3" d="M70.72,31.3c3,2.19,6.91,9.14,2.29,14.85s-11.37,6.05-16.46,2.7a11.49,11.49,0,0,1-1.43-18.14C60.27,25.82,66.22,28,70.72,31.3Z"/><path class="cls-4" d="M58.23,30.48h0Z"/><path class="cls-4" d="M58.93,31.2c.34-.17.74-.53.41-.84s-.78,0-1.09.12C57.81,30.88,58,31.66,58.93,31.2Z"/><path class="cls-4" d="M58.25,30.48l.53-.21A.82.82,0,0,0,58.25,30.48Z"/><path class="cls-4" d="M57.29,32c.14-.1.31-.3.14-.44a.22.22,0,0,0-.33.07.44.44,0,0,0-.22.29C56.85,32.22,57.16,32.11,57.29,32Z"/><path class="cls-4" d="M59.58,31.83a.3.3,0,0,0-.33,0c-.16,0-.35.08-.38.21a.25.25,0,0,0,0,.08l0,0,0,0c0,.15.39,0,.51,0S59.85,32,59.58,31.83Z"/><path class="cls-4" d="M58.82,32.16h0Z"/><path class="cls-4" d="M60.31,31c-.15.05-.32.21-.23.36s.44.09.56,0C61.15,31.14,60.5,30.93,60.31,31Z"/><path class="cls-4" d="M60.94,30.12c-.1,0-.29-.06-.37,0a.14.14,0,0,0,0,.17c0,.11.18.2.25.24s.92.32,1,.06S61.13,30.14,60.94,30.12Z"/><path class="cls-4" d="M60.11,29.6c.16.08.71.06.77-.16s-.3-.28-.45-.26a.55.55,0,0,0-.24.14C60,29.39,59.93,29.5,60.11,29.6Z"/><path class="cls-4" d="M57.39,30.92c.29-.21,0-.33-.22-.29h0c-.13,0-.46.14-.37.32S57.28,31,57.39,30.92Z"/><path class="cls-4" d="M56.17,32.31c.11-.13.44-.67.06-.69a.21.21,0,0,0-.19.1,1.08,1.08,0,0,0-.39.53C55.5,32.75,56,32.52,56.17,32.31Z"/><path class="cls-4" d="M58.22,32.46a.74.74,0,0,0-.5,0,1,1,0,0,0-.67.52c-.12.51.79.14,1,.07S58.65,32.62,58.22,32.46Z"/><path class="cls-4" d="M59.75,32.87c-.15.05-.3.17-.3.29s.52.18.67.11C60.68,33,60,32.75,59.75,32.87Z"/><path class="cls-4" d="M63.33,30a.25.25,0,0,0-.25.1.69.69,0,0,0,1,0A.59.59,0,0,0,63.33,30Z"/><path class="cls-4" d="M61.86,31.33c.31.11,1.16.16,1.23-.28a.75.75,0,0,0-.68-.08C62.14,31,61.86,31.05,61.86,31.33Z"/><path class="cls-4" d="M62.47,29a.45.45,0,0,0-.62-.07.32.32,0,0,0-.15.19A.61.61,0,0,0,62.47,29Z"/><path class="cls-4" d="M64.78,30.86c-.63,0,.18.8.53.55S65,30.69,64.78,30.86Z"/><path class="cls-4" d="M55.85,33.45c-.19-.16-.36,0-.47.18-.42.27-.92.9-.52,1.06S55.84,33.8,55.85,33.45Z"/><path class="cls-4" d="M54.7,32.62c-.54.11-.29,1,.23.39C55.25,32.63,54.92,32.51,54.7,32.62Z"/><path class="cls-4" d="M57.77,34.27a.29.29,0,0,0-.2.25c.2.15.74.16.88-.11S58,34,57.77,34.27Z"/><path class="cls-4" d="M62.56,32.8l0,0a.52.52,0,0,0,0,.11c0,.06,0,.1,0,.12.11.29.73.3.61-.07S62.71,32.65,62.56,32.8Z"/><path class="cls-4" d="M68.12,32c-.36-.5-1.12,0-.65.16C67.75,32.37,68.48,32.5,68.12,32Z"/><path class="cls-4" d="M55.17,36.8l.08-.13a.87.87,0,0,0-.4.63c.21.06.85-.36.83-.65S55.36,36.53,55.17,36.8Z"/><path class="cls-4" d="M60.85,35.38c.08.09.14.09.21,0,.26,0,.74,0,.54-.31S60.92,35.16,60.85,35.38Z"/><path class="cls-4" d="M53,35.1a.41.41,0,0,0,0,.22c.32.11,1.13,0,.86-.51S53.1,34.73,53,35.1Z"/><path class="cls-4" d="M54.13,33.74h0a.27.27,0,0,0-.33.27.4.4,0,0,0,.56-.22A.41.41,0,0,0,54.13,33.74Z"/><path class="cls-5" d="M55.18,45.06c-1.18.86,4.8,5.19,8.69,5a11.44,11.44,0,0,0,9.4-6c1-2.15.67-8.23-.62-7.81-.46.15.11,2.22-1.78,5.35-1.65,2.74-4.47,5.45-8.21,5.26C57.54,46.66,56,44.49,55.18,45.06Z"/><path class="cls-6" d="M68,30a.55.55,0,0,0-.49.84c.33.8,2.28,2.1,2.84,1.88s.58-.87-.24-1.5A4.8,4.8,0,0,0,68,30Z"/><path class="cls-6" d="M69,31.07s2.26-2.34,2.91-3.22a42,42,0,0,0,2.14-4.22s.2-.3.48-.25.19.47.19.47S73.16,27.08,72.52,28c-1.3,1.8-3,3.77-3,3.77Z"/><path class="cls-6" d="M73,26.66l-3.73-.47-.14.22,1.85.3,1.85.31Z"/><path class="cls-6" d="M65.18,30.87c-3.85,1-9.55-1.77-9.55-1.77s3.81-4.43,7.07-4.77,8.93,2.27,8.93,2.27A13.5,13.5,0,0,1,65.18,30.87Z"/><path class="cls-7" d="M68,30.24A.8.8,0,0,0,68,31a4.16,4.16,0,0,0,1.4,1.12l.09-.71s-.3-.2-.33-.38a.39.39,0,0,1,0-.27Z"/><path class="cls-7" d="M70.37,26.7a30.48,30.48,0,0,0-6.46.06c-3,.43-7.52,1.86-7.46,2.07s4.95-1.64,7.36-1.8,6.74,0,6.74,0Z"/><path class="cls-7" d="M68.85,26.81A3.34,3.34,0,0,1,68.23,28a8.47,8.47,0,0,0-1.09,1.69A10.43,10.43,0,0,0,68.4,28.1c.35-.53.81-1.27.81-1.27Z"/><path class="cls-7" d="M65.86,26.83a5.29,5.29,0,0,1-.66,1.91c-.67,1.36-.93,1.76-.77,1.79s.66-1,1-1.74.85-2,.85-2Z"/><path class="cls-7" d="M62.94,27.11a3.65,3.65,0,0,1-.23,1.42c-.3,1-.66,1.57-.52,1.64s.48-.87.68-1.59.5-1.63.5-1.63Z"/><path class="cls-7" d="M59.81,27.85a2.39,2.39,0,0,1-.16.84c-.19.51-.48,1-.39,1a1.85,1.85,0,0,0,.53-.92c.14-.46.28-1,.28-1Z"/><path class="cls-7" d="M69.21,26.73a4.38,4.38,0,0,0-1.13-1.09,3.46,3.46,0,0,0-1.46-.59c-.08.07.83.32,1.15.53A12.62,12.62,0,0,1,69,26.72Z"/><path class="cls-7" d="M66.13,26.64a2.91,2.91,0,0,0-.92-1.23,4.56,4.56,0,0,0-2.06-.8c-.19.06,1.5.49,1.88.87a4.22,4.22,0,0,1,.7,1.2Z"/><path class="cls-7" d="M63.37,27A6.6,6.6,0,0,0,62,25.86a6.39,6.39,0,0,0-1.66-.42c-.2,0,1.27.33,1.68.62a8.6,8.6,0,0,1,1.05,1Z"/><path class="cls-7" d="M59.8,27.76s0-.24-.73-.5-1.07-.43-.92-.43a4.88,4.88,0,0,1,.91.24,5.66,5.66,0,0,1,1.08.61Z"/><path class="cls-3" d="M19.88,21.15c-3,2.2-6.92,9.14-2.29,14.85S29,42.06,34.05,38.7a11.48,11.48,0,0,0,1.42-18.14C30.33,15.67,24.38,17.84,19.88,21.15Z"/><path class="cls-4" d="M32.36,20.34h0Z"/><path class="cls-4" d="M31.67,21.06c-.35-.17-.74-.53-.41-.85s.78,0,1.09.12C32.78,20.73,32.6,21.51,31.67,21.06Z"/><path class="cls-4" d="M32.35,20.33l-.54-.21A.83.83,0,0,1,32.35,20.33Z"/><path class="cls-4" d="M33.3,21.86c-.13-.1-.31-.3-.13-.44a.22.22,0,0,1,.33.07.44.44,0,0,1,.22.29C33.75,22.07,33.44,22,33.3,21.86Z"/><path class="cls-4" d="M31,21.68a.35.35,0,0,1,.33,0c.15,0,.35.08.38.21a.25.25,0,0,1,0,.08l0,0,0,0c0,.14-.39,0-.51,0S30.75,21.83,31,21.68Z"/><path class="cls-4" d="M31.78,22h0Z"/><path class="cls-4" d="M30.28,20.9c.15,0,.32.21.24.35s-.44.09-.57,0C29.45,21,30.1,20.78,30.28,20.9Z"/><path class="cls-4" d="M29.66,20c.1,0,.29-.06.37,0a.15.15,0,0,1,0,.18c0,.1-.18.2-.25.23s-.91.32-1,.06S29.47,20,29.66,20Z"/><path class="cls-4" d="M30.49,19.45c-.16.09-.72.07-.77-.16s.3-.28.45-.26a.61.61,0,0,1,.24.14C30.56,19.24,30.67,19.36,30.49,19.45Z"/><path class="cls-4" d="M33.2,20.78c-.29-.22,0-.34.23-.3h0c.13,0,.46.14.37.32S33.32,20.86,33.2,20.78Z"/><path class="cls-4" d="M34.42,22.16c-.11-.13-.44-.67-.06-.69a.26.26,0,0,1,.2.1,1.15,1.15,0,0,1,.39.53C35.09,22.6,34.61,22.38,34.42,22.16Z"/><path class="cls-4" d="M32.37,22.31a.83.83,0,0,1,.51,0,1,1,0,0,1,.66.52c.13.52-.78.14-1,.08S32,22.47,32.37,22.31Z"/><path class="cls-4" d="M30.85,22.72c.14.05.3.17.3.29s-.52.18-.67.11C29.92,22.86,30.65,22.61,30.85,22.72Z"/><path class="cls-4" d="M27.26,19.84a.23.23,0,0,1,.25.1.69.69,0,0,1-1,0A.57.57,0,0,1,27.26,19.84Z"/><path class="cls-4" d="M28.74,21.18c-.31.11-1.16.17-1.23-.28a.75.75,0,0,1,.68-.08C28.46,20.81,28.74,20.9,28.74,21.18Z"/><path class="cls-4" d="M28.13,18.88a.44.44,0,0,1,.62-.06.28.28,0,0,1,.15.18A.59.59,0,0,1,28.13,18.88Z"/><path class="cls-4" d="M25.82,20.71c.62,0-.19.81-.53.55S25.57,20.55,25.82,20.71Z"/><path class="cls-4" d="M34.75,23.3c.19-.15.36,0,.47.18.42.27.92.91.52,1.06S34.76,23.65,34.75,23.3Z"/><path class="cls-4" d="M35.9,22.48c.54.1.28,1-.23.39C35.35,22.48,35.68,22.36,35.9,22.48Z"/><path class="cls-4" d="M32.83,24.13a.28.28,0,0,1,.2.25c-.21.14-.74.15-.88-.11S32.65,23.82,32.83,24.13Z"/><path class="cls-4" d="M28,22.65l0,0a.2.2,0,0,1,0,.11c0,.05,0,.09,0,.11-.11.3-.73.31-.61-.06S27.89,22.51,28,22.65Z"/><path class="cls-4" d="M22.48,21.87c.36-.51,1.12,0,.64.15C22.84,22.22,22.12,22.36,22.48,21.87Z"/><path class="cls-4" d="M35.43,26.65l-.08-.13a.9.9,0,0,1,.4.63c-.21.06-.85-.36-.83-.64C34.94,26.08,35.24,26.38,35.43,26.65Z"/><path class="cls-4" d="M29.75,25.24a.14.14,0,0,1-.21,0c-.26,0-.74,0-.54-.31S29.68,25,29.75,25.24Z"/><path class="cls-4" d="M37.59,25a.49.49,0,0,1,0,.22c-.32.1-1.14,0-.87-.51S37.49,24.58,37.59,25Z"/><path class="cls-4" d="M36.47,23.59h0a.26.26,0,0,1,.33.26.39.39,0,0,1-.55-.21A.42.42,0,0,1,36.47,23.59Z"/><path class="cls-5" d="M35.42,34.91c1.17.86-4.8,5.2-8.69,5.05a11.47,11.47,0,0,1-9.4-6c-1-2.14-.67-8.23.62-7.81.45.16-.11,2.22,1.78,5.35,1.65,2.74,4.47,5.45,8.21,5.27C33.05,36.51,34.64,34.34,35.42,34.91Z"/><path class="cls-6" d="M22.6,19.85a.55.55,0,0,1,.48.84c-.32.8-2.27,2.1-2.83,1.88s-.58-.87.23-1.5A4.83,4.83,0,0,1,22.6,19.85Z"/><path class="cls-6" d="M21.58,20.92s-2.26-2.34-2.9-3.22a39.9,39.9,0,0,1-2.14-4.22s-.2-.3-.48-.24-.2.46-.2.46,1.58,3.23,2.22,4.12c1.3,1.8,3,3.77,3,3.77Z"/><path class="cls-6" d="M17.64,16.52c.14,0,3.73-.47,3.73-.47l.14.21-1.86.3-1.85.31Z"/><path class="cls-6" d="M25.41,20.72C29.27,21.7,35,19,35,19s-3.8-4.43-7.06-4.77S19,16.46,19,16.46A13.44,13.44,0,0,0,25.41,20.72Z"/><path class="cls-7" d="M22.56,20.09a.82.82,0,0,1,.09.79A4.16,4.16,0,0,1,21.25,22l-.09-.71s.3-.2.33-.38a.41.41,0,0,0,0-.27Z"/><path class="cls-7" d="M20.23,16.55a30.48,30.48,0,0,1,6.46.06c3,.43,7.51,1.87,7.46,2.07S29.2,17,26.78,16.88s-6.73,0-6.73,0Z"/><path class="cls-7" d="M21.74,16.66a3.36,3.36,0,0,0,.63,1.18,8.47,8.47,0,0,1,1.08,1.68A10.55,10.55,0,0,1,22.2,18c-.35-.52-.81-1.26-.81-1.26Z"/><path class="cls-7" d="M24.74,16.69a5.29,5.29,0,0,0,.66,1.91c.66,1.36.93,1.75.77,1.78s-.66-1-1-1.74-.85-2-.85-2Z"/><path class="cls-7" d="M27.66,17a3.65,3.65,0,0,0,.23,1.42c.29,1,.66,1.57.52,1.64s-.48-.86-.68-1.59-.5-1.62-.5-1.62Z"/><path class="cls-7" d="M30.79,17.7a2.39,2.39,0,0,0,.16.84c.18.52.47,1,.39,1a1.79,1.79,0,0,1-.54-.92c-.13-.46-.27-1-.27-1Z"/><path class="cls-7" d="M21.39,16.58a4.38,4.38,0,0,1,1.13-1.09A3.56,3.56,0,0,1,24,14.9c.07.07-.83.33-1.15.54a11.62,11.62,0,0,0-1.19,1.13Z"/><path class="cls-7" d="M24.47,16.49a2.91,2.91,0,0,1,.92-1.23,4.7,4.7,0,0,1,2.05-.8c.2.07-1.5.49-1.88.87a4.1,4.1,0,0,0-.69,1.2Z"/><path class="cls-7" d="M27.23,16.81a6.28,6.28,0,0,1,1.38-1.09,6,6,0,0,1,1.66-.43c.2,0-1.27.33-1.69.62a8.84,8.84,0,0,0-1,1Z"/><path class="cls-7" d="M30.8,17.61s0-.24.73-.5,1.06-.42.92-.43a4.69,4.69,0,0,0-.91.24,5.66,5.66,0,0,0-1.08.61Z"/><path class="cls-3" d="M14.12,34c-3,2.2-6.91,9.14-2.29,14.85s11.37,6.06,16.46,2.7a11.49,11.49,0,0,0,1.43-18.14C24.57,28.5,18.62,30.67,14.12,34Z"/><path class="cls-4" d="M26.61,33.17h0Z"/><path class="cls-4" d="M25.91,33.89c-.35-.17-.74-.53-.41-.85s.78,0,1.09.12C27,33.56,26.84,34.34,25.91,33.89Z"/><path class="cls-4" d="M26.59,33.16,26.06,33A.82.82,0,0,1,26.59,33.16Z"/><path class="cls-4" d="M27.54,34.69c-.13-.1-.31-.3-.13-.44a.22.22,0,0,1,.33.07.44.44,0,0,1,.22.29C28,34.9,27.68,34.79,27.54,34.69Z"/><path class="cls-4" d="M25.26,34.51a.35.35,0,0,1,.33,0c.15,0,.35.08.38.21a.25.25,0,0,1,0,.08l0,0,0,0c-.05.14-.39,0-.51,0S25,34.66,25.26,34.51Z"/><path class="cls-4" d="M26,34.84l0,0Z"/><path class="cls-4" d="M24.52,33.73c.15,0,.32.21.24.35s-.44.1-.57,0C23.69,33.83,24.34,33.61,24.52,33.73Z"/><path class="cls-4" d="M23.9,32.8c.1,0,.29-.06.37,0a.14.14,0,0,1,0,.18c0,.1-.18.2-.25.23s-.91.33-1,.07S23.71,32.83,23.9,32.8Z"/><path class="cls-4" d="M24.73,32.28c-.16.09-.72.07-.77-.16s.3-.28.45-.26a.77.77,0,0,1,.24.14C24.8,32.07,24.91,32.19,24.73,32.28Z"/><path class="cls-4" d="M27.44,33.61c-.29-.22,0-.34.23-.3h0c.13,0,.46.14.37.33S27.56,33.69,27.44,33.61Z"/><path class="cls-4" d="M28.66,35c-.1-.13-.44-.67-.05-.69a.3.3,0,0,1,.19.1,1.15,1.15,0,0,1,.39.53C29.33,35.44,28.85,35.21,28.66,35Z"/><path class="cls-4" d="M26.61,35.14a.83.83,0,0,1,.51,0,1,1,0,0,1,.66.52c.13.52-.78.15-1,.08S26.19,35.3,26.61,35.14Z"/><path class="cls-4" d="M25.09,35.55c.14.05.3.17.3.29s-.52.18-.67.11C24.16,35.69,24.89,35.44,25.09,35.55Z"/><path class="cls-4" d="M21.5,32.67a.25.25,0,0,1,.25.1.69.69,0,0,1-1,0A.57.57,0,0,1,21.5,32.67Z"/><path class="cls-4" d="M23,34c-.31.11-1.16.17-1.23-.27a.73.73,0,0,1,.68-.09C22.7,33.64,23,33.73,23,34Z"/><path class="cls-4" d="M22.37,31.71a.44.44,0,0,1,.62-.06.28.28,0,0,1,.15.18A.59.59,0,0,1,22.37,31.71Z"/><path class="cls-4" d="M20.06,33.54c.62,0-.18.81-.53.55S19.81,33.38,20.06,33.54Z"/><path class="cls-4" d="M29,36.13c.19-.15.36,0,.47.18.42.27.92.91.52,1.06S29,36.48,29,36.13Z"/><path class="cls-4" d="M30.14,35.31c.54.1.29,1-.23.39C29.59,35.31,29.92,35.19,30.14,35.31Z"/><path class="cls-4" d="M27.07,37a.28.28,0,0,1,.2.25c-.21.14-.74.15-.88-.11S26.89,36.65,27.07,37Z"/><path class="cls-4" d="M22.27,35.48l0,0a.23.23,0,0,1,0,.11c0,.05,0,.09,0,.11-.11.3-.73.31-.61-.06S22.13,35.34,22.27,35.48Z"/><path class="cls-4" d="M16.72,34.7c.36-.51,1.12,0,.64.15C17.08,35.06,16.36,35.19,16.72,34.7Z"/><path class="cls-4" d="M29.67,39.48l-.08-.13A.9.9,0,0,1,30,40c-.21.06-.85-.36-.83-.64C29.18,38.91,29.48,39.21,29.67,39.48Z"/><path class="cls-4" d="M24,38.07a.14.14,0,0,1-.21,0c-.26,0-.74,0-.54-.31S23.92,37.85,24,38.07Z"/><path class="cls-4" d="M31.83,37.79a.51.51,0,0,1,0,.22c-.32.11-1.14,0-.87-.51S31.73,37.41,31.83,37.79Z"/><path class="cls-4" d="M30.71,36.43h0a.26.26,0,0,1,.32.26.39.39,0,0,1-.55-.21A.34.34,0,0,1,30.71,36.43Z"/><path class="cls-5" d="M29.66,47.74c1.17.86-4.8,5.2-8.69,5a11.45,11.45,0,0,1-9.4-6c-1-2.14-.67-8.23.62-7.81.45.16-.11,2.22,1.78,5.35,1.65,2.74,4.47,5.45,8.21,5.27C27.29,49.34,28.88,47.18,29.66,47.74Z"/><path class="cls-6" d="M16.84,32.69a.54.54,0,0,1,.48.83c-.32.8-2.27,2.1-2.83,1.88s-.58-.87.23-1.5A4.7,4.7,0,0,1,16.84,32.69Z"/><path class="cls-6" d="M15.82,33.76s-2.26-2.34-2.9-3.23a39.9,39.9,0,0,1-2.14-4.22s-.2-.3-.48-.24-.2.46-.2.46,1.58,3.23,2.22,4.12c1.3,1.81,3,3.77,3,3.77Z"/><path class="cls-6" d="M11.88,29.35c.14,0,3.73-.47,3.73-.47l.14.21-1.86.3L12,29.7Z"/><path class="cls-6" d="M19.65,33.55c3.86,1,9.55-1.77,9.55-1.77S25.4,27.35,22.14,27s-8.93,2.27-8.93,2.27A13.44,13.44,0,0,0,19.65,33.55Z"/><path class="cls-7" d="M16.81,32.92a.8.8,0,0,1,.08.79,4.16,4.16,0,0,1-1.4,1.12l-.09-.71s.3-.2.33-.38a.41.41,0,0,0,0-.27Z"/><path class="cls-7" d="M14.47,29.38a30.48,30.48,0,0,1,6.46.06c3,.44,7.51,1.87,7.46,2.07s-4.95-1.64-7.37-1.8-6.73,0-6.73,0Z"/><path class="cls-7" d="M16,29.49a3.61,3.61,0,0,0,.63,1.18,8,8,0,0,1,1.08,1.68,10.55,10.55,0,0,1-1.25-1.57c-.35-.52-.81-1.26-.81-1.26Z"/><path class="cls-7" d="M19,29.52a5.29,5.29,0,0,0,.66,1.91c.66,1.36.93,1.75.77,1.78s-.66-1-1-1.74-.85-2-.85-2Z"/><path class="cls-7" d="M21.9,29.79a3.63,3.63,0,0,0,.23,1.42c.29,1,.66,1.57.52,1.64S22.17,32,22,31.26s-.5-1.62-.5-1.62Z"/><path class="cls-7" d="M25,30.53a2.39,2.39,0,0,0,.16.84c.19.52.47,1,.39,1a1.74,1.74,0,0,1-.54-.92c-.13-.46-.27-1-.27-1Z"/><path class="cls-7" d="M15.63,29.41a4.25,4.25,0,0,1,1.13-1.08,3.48,3.48,0,0,1,1.46-.6c.07.07-.83.33-1.15.54a12.81,12.81,0,0,0-1.19,1.13Z"/><path class="cls-7" d="M18.71,29.32a2.91,2.91,0,0,1,.92-1.23,4.68,4.68,0,0,1,2.06-.8c.19.07-1.5.49-1.89.87a4.1,4.1,0,0,0-.69,1.2Z"/><path class="cls-7" d="M21.47,29.64a6.28,6.28,0,0,1,1.38-1.09,6.1,6.1,0,0,1,1.66-.43c.2,0-1.27.33-1.69.62a8.84,8.84,0,0,0-1,1Z"/><path class="cls-7" d="M25,30.44s.05-.24.73-.5,1.06-.42.92-.42a3.82,3.82,0,0,0-.91.23,6.29,6.29,0,0,0-1.08.61Z"/><path class="cls-3" d="M86.84,36.74c3,2.19,6.91,9.14,2.29,14.85s-11.38,6.06-16.47,2.7a11.48,11.48,0,0,1-1.42-18.14C76.38,31.26,82.33,33.43,86.84,36.74Z"/><path class="cls-4" d="M74.35,35.92h0Z"/><path class="cls-4" d="M75,36.65c.35-.17.74-.53.41-.85s-.77,0-1.09.12C73.93,36.32,74.11,37.1,75,36.65Z"/><path class="cls-4" d="M74.36,35.92l.54-.21A.83.83,0,0,0,74.36,35.92Z"/><path class="cls-4" d="M73.41,37.45c.13-.1.31-.3.13-.44a.22.22,0,0,0-.33.07.44.44,0,0,0-.22.29C73,37.66,73.27,37.55,73.41,37.45Z"/><path class="cls-4" d="M75.69,37.27a.35.35,0,0,0-.33,0c-.15,0-.35.08-.38.21a.25.25,0,0,0,0,.08l0,0,0,0c0,.14.38,0,.5,0S76,37.41,75.69,37.27Z"/><path class="cls-4" d="M74.93,37.6h0Z"/><path class="cls-4" d="M76.43,36.48c-.15.05-.32.22-.24.36s.44.09.57,0C77.26,36.59,76.61,36.37,76.43,36.48Z"/><path class="cls-4" d="M77.05,35.56c-.1,0-.29-.06-.37,0a.15.15,0,0,0,0,.18c0,.1.18.2.25.23s.91.32,1,.06S77.24,35.59,77.05,35.56Z"/><path class="cls-4" d="M76.22,35c.16.09.72.06.78-.16s-.31-.28-.46-.26a.61.61,0,0,0-.24.14C76.15,34.83,76,35,76.22,35Z"/><path class="cls-4" d="M73.51,36.37c.29-.22,0-.34-.22-.3h0c-.13,0-.46.14-.37.32S73.4,36.45,73.51,36.37Z"/><path class="cls-4" d="M72.29,37.75c.11-.13.44-.67.06-.69a.26.26,0,0,0-.2.1,1.06,1.06,0,0,0-.38.53C71.62,38.19,72.1,38,72.29,37.75Z"/><path class="cls-4" d="M74.34,37.9a.83.83,0,0,0-.51,0,1,1,0,0,0-.66.52c-.13.52.78.14,1,.08S74.76,38.06,74.34,37.9Z"/><path class="cls-4" d="M75.86,38.31c-.14,0-.3.17-.3.29s.53.18.67.11C76.79,38.45,76.06,38.2,75.86,38.31Z"/><path class="cls-4" d="M79.45,35.43a.23.23,0,0,0-.25.1.69.69,0,0,0,1,0A.57.57,0,0,0,79.45,35.43Z"/><path class="cls-4" d="M78,36.77c.31.11,1.16.17,1.23-.28a.75.75,0,0,0-.68-.08C78.26,36.4,78,36.49,78,36.77Z"/><path class="cls-4" d="M78.58,34.47a.44.44,0,0,0-.62-.06.28.28,0,0,0-.15.18A.59.59,0,0,0,78.58,34.47Z"/><path class="cls-4" d="M80.9,36.3c-.63,0,.18.81.52.55S81.15,36.14,80.9,36.3Z"/><path class="cls-4" d="M72,38.89c-.19-.15-.35,0-.46.18-.42.27-.93.91-.53,1.06S72,39.24,72,38.89Z"/><path class="cls-4" d="M70.81,38.07c-.54.1-.28,1,.23.38C71.36,38.07,71,38,70.81,38.07Z"/><path class="cls-4" d="M73.88,39.72a.26.26,0,0,0-.19.25c.2.14.73.15.87-.11S74.06,39.41,73.88,39.72Z"/><path class="cls-4" d="M78.68,38.24l0,0a.2.2,0,0,0,0,.11s0,.09,0,.11c.11.3.73.31.61-.06S78.82,38.1,78.68,38.24Z"/><path class="cls-4" d="M84.23,37.45c-.36-.5-1.12,0-.64.16C83.87,37.81,84.59,38,84.23,37.45Z"/><path class="cls-4" d="M71.29,42.24l.07-.13a.9.9,0,0,0-.4.63c.22.06.85-.36.83-.64S71.47,42,71.29,42.24Z"/><path class="cls-4" d="M77,40.83a.14.14,0,0,0,.21,0c.26,0,.75,0,.54-.31S77,40.61,77,40.83Z"/><path class="cls-4" d="M69.12,40.55a.47.47,0,0,0,0,.21c.32.11,1.14,0,.87-.51S69.22,40.17,69.12,40.55Z"/><path class="cls-4" d="M70.24,39.18h0a.26.26,0,0,0-.33.26.39.39,0,0,0,.55-.21A.34.34,0,0,0,70.24,39.18Z"/><path class="cls-5" d="M71.29,50.5c-1.17.86,4.81,5.2,8.69,5a11.47,11.47,0,0,0,9.4-6c1-2.15.67-8.23-.61-7.81-.46.15.1,2.22-1.78,5.35-1.66,2.74-4.48,5.45-8.22,5.27C73.66,52.1,72.07,49.93,71.29,50.5Z"/><path class="cls-6" d="M84.11,35.44a.55.55,0,0,0-.48.84c.32.8,2.27,2.1,2.83,1.88s.58-.87-.23-1.5A4.83,4.83,0,0,0,84.11,35.44Z"/><path class="cls-6" d="M85.13,36.51s2.26-2.34,2.9-3.22a39.9,39.9,0,0,0,2.14-4.22s.2-.3.48-.25.2.47.2.47-1.58,3.23-2.22,4.12c-1.3,1.8-3,3.77-3,3.77Z"/><path class="cls-6" d="M89.07,32.11c-.14,0-3.73-.47-3.73-.47l-.14.21,1.86.3,1.85.31Z"/><path class="cls-6" d="M81.3,36.31c-3.86,1-9.55-1.77-9.55-1.77s3.8-4.43,7.07-4.77,8.92,2.28,8.92,2.28A13.44,13.44,0,0,1,81.3,36.31Z"/><path class="cls-7" d="M84.15,35.68a.82.82,0,0,0-.09.79,4.16,4.16,0,0,0,1.4,1.12l.09-.71s-.3-.2-.33-.38a.41.41,0,0,1,0-.27Z"/><path class="cls-7" d="M86.49,32.14A30.51,30.51,0,0,0,80,32.2c-3,.43-7.52,1.87-7.47,2.07s5-1.64,7.37-1.8,6.73,0,6.73,0Z"/><path class="cls-7" d="M85,32.25a3.36,3.36,0,0,1-.63,1.18,8.47,8.47,0,0,0-1.08,1.68,9.93,9.93,0,0,0,1.25-1.57c.36-.52.81-1.26.81-1.26Z"/><path class="cls-7" d="M82,32.27a5.29,5.29,0,0,1-.66,1.92c-.66,1.36-.93,1.75-.76,1.78s.65-1,1-1.74.84-2,.84-2Z"/><path class="cls-7" d="M79.05,32.55A3.72,3.72,0,0,1,78.83,34c-.3,1-.66,1.57-.53,1.64s.48-.86.69-1.59.5-1.62.5-1.62Z"/><path class="cls-7" d="M75.92,33.29a2.39,2.39,0,0,1-.16.84c-.18.52-.47,1-.39,1a1.79,1.79,0,0,0,.54-.92c.13-.46.27-1,.27-1Z"/><path class="cls-7" d="M85.32,32.17a4.19,4.19,0,0,0-1.13-1.09,3.59,3.59,0,0,0-1.45-.59c-.08.07.82.33,1.15.54a12.41,12.41,0,0,1,1.18,1.13Z"/><path class="cls-7" d="M82.24,32.08a2.91,2.91,0,0,0-.92-1.23,4.7,4.7,0,0,0-2-.8c-.2.07,1.5.49,1.88.87a4.1,4.1,0,0,1,.69,1.2Z"/><path class="cls-7" d="M79.49,32.4a6.42,6.42,0,0,0-1.39-1.09,6,6,0,0,0-1.66-.43c-.2,0,1.28.33,1.69.62a8.84,8.84,0,0,1,1,1Z"/><path class="cls-7" d="M75.91,33.2s0-.24-.73-.5-1.06-.42-.91-.43a5.09,5.09,0,0,1,.91.24,5.81,5.81,0,0,1,1.07.61Z"/><path class="cls-3" d="M91.58,46.87c3,2.2,6.91,9.14,2.29,14.86S82.5,67.78,77.41,64.42A11.48,11.48,0,0,1,76,46.29C81.13,41.39,87.08,43.56,91.58,46.87Z"/><path class="cls-4" d="M79.09,46.06h0Z"/><path class="cls-4" d="M79.79,46.78c.34-.17.74-.53.41-.85s-.78,0-1.09.12C78.67,46.45,78.85,47.23,79.79,46.78Z"/><path class="cls-4" d="M79.11,46.05l.53-.21A.88.88,0,0,0,79.11,46.05Z"/><path class="cls-4" d="M78.15,47.58c.14-.09.31-.29.14-.44s-.25,0-.33.08a.41.41,0,0,0-.22.28C77.71,47.8,78,47.68,78.15,47.58Z"/><path class="cls-4" d="M80.44,47.4a.35.35,0,0,0-.33,0c-.16,0-.35.09-.38.21a.31.31,0,0,0,0,.09l0,0,0,0c0,.14.39,0,.51,0S80.71,47.55,80.44,47.4Z"/><path class="cls-4" d="M79.68,47.74h0Z"/><path class="cls-4" d="M81.17,46.62c-.15,0-.32.21-.23.36s.44.09.56,0C82,46.72,81.36,46.51,81.17,46.62Z"/><path class="cls-4" d="M81.8,45.69c-.1,0-.29-.06-.37,0a.15.15,0,0,0,0,.18c0,.1.18.2.25.23s.92.33,1,.07S82,45.72,81.8,45.69Z"/><path class="cls-4" d="M81,45.18c.16.08.71.06.77-.17s-.3-.27-.45-.25a.52.52,0,0,0-.24.13C80.9,45,80.79,45.08,81,45.18Z"/><path class="cls-4" d="M78.25,46.5c.29-.22,0-.34-.22-.29h0c-.13,0-.46.15-.37.33S78.14,46.58,78.25,46.5Z"/><path class="cls-4" d="M77,47.88c.11-.12.44-.67.06-.69a.26.26,0,0,0-.19.1,1.06,1.06,0,0,0-.39.54C76.36,48.33,76.84,48.1,77,47.88Z"/><path class="cls-4" d="M79.08,48a.68.68,0,0,0-.5,0,1,1,0,0,0-.67.51c-.12.52.79.15,1,.08S79.51,48.19,79.08,48Z"/><path class="cls-4" d="M80.61,48.44c-.15.05-.3.17-.3.29s.52.18.67.11C81.54,48.58,80.81,48.33,80.61,48.44Z"/><path class="cls-4" d="M84.19,45.56a.27.27,0,0,0-.25.1.69.69,0,0,0,1,0A.58.58,0,0,0,84.19,45.56Z"/><path class="cls-4" d="M82.72,46.9c.31.11,1.16.17,1.23-.27a.72.72,0,0,0-.68-.08C83,46.53,82.72,46.62,82.72,46.9Z"/><path class="cls-4" d="M83.33,44.6a.44.44,0,0,0-.62-.06.3.3,0,0,0-.15.18A.59.59,0,0,0,83.33,44.6Z"/><path class="cls-4" d="M85.64,46.43c-.63,0,.18.81.53.55S85.89,46.27,85.64,46.43Z"/><path class="cls-4" d="M76.71,49c-.19-.15-.36,0-.47.18-.42.27-.92.91-.52,1.06S76.7,49.37,76.71,49Z"/><path class="cls-4" d="M75.56,48.2c-.54.1-.29,1,.23.39C76.11,48.21,75.78,48.08,75.56,48.2Z"/><path class="cls-4" d="M78.63,49.85a.28.28,0,0,0-.2.25c.2.14.74.16.88-.11S78.81,49.54,78.63,49.85Z"/><path class="cls-4" d="M83.42,48.37l0,0a.43.43,0,0,0,0,.11c0,.05,0,.1,0,.11.12.3.74.31.62-.06S83.57,48.23,83.42,48.37Z"/><path class="cls-4" d="M89,47.59c-.36-.5-1.12,0-.65.16C88.61,48,89.34,48.08,89,47.59Z"/><path class="cls-4" d="M76,52.38l.08-.14a.89.89,0,0,0-.4.64c.21,0,.85-.37.83-.65S76.22,52.11,76,52.38Z"/><path class="cls-4" d="M81.71,51a.16.16,0,0,0,.21,0c.26,0,.74,0,.54-.32S81.78,50.74,81.71,51Z"/><path class="cls-4" d="M73.87,50.68a.4.4,0,0,0,0,.22c.32.11,1.13,0,.86-.51S74,50.3,73.87,50.68Z"/><path class="cls-4" d="M75,49.32h0a.27.27,0,0,0-.33.26.4.4,0,0,0,.56-.21A.34.34,0,0,0,75,49.32Z"/><path class="cls-5" d="M76,60.64c-1.18.86,4.8,5.19,8.69,5a11.45,11.45,0,0,0,9.4-6c1-2.14.67-8.23-.62-7.8-.46.15.11,2.21-1.78,5.34-1.65,2.75-4.47,5.45-8.21,5.27C78.4,62.23,76.82,60.07,76,60.64Z"/><path class="cls-6" d="M88.86,45.58a.54.54,0,0,0-.49.83c.33.8,2.28,2.1,2.84,1.88s.58-.87-.24-1.49A4.61,4.61,0,0,0,88.86,45.58Z"/><path class="cls-6" d="M89.87,46.65s2.26-2.34,2.91-3.22a41.89,41.89,0,0,0,2.14-4.23A.55.55,0,0,1,95.4,39c.27,0,.19.47.19.47S94,42.65,93.38,43.54c-1.3,1.81-3,3.77-3,3.77Z"/><path class="cls-6" d="M93.82,42.24c-.14,0-3.73-.47-3.73-.47L90,42l1.85.31,1.85.3Z"/><path class="cls-6" d="M86,46.44c-3.85,1-9.55-1.76-9.55-1.76s3.81-4.44,7.07-4.77,8.93,2.27,8.93,2.27A13.44,13.44,0,0,1,86,46.44Z"/><path class="cls-7" d="M88.89,45.81a.8.8,0,0,0-.08.79,4,4,0,0,0,1.4,1.12l.09-.7s-.3-.21-.33-.39a.41.41,0,0,1,0-.27Z"/><path class="cls-7" d="M91.23,42.27a30.48,30.48,0,0,0-6.46.06c-3,.44-7.52,1.87-7.46,2.07s5-1.64,7.36-1.8,6.74,0,6.74,0Z"/><path class="cls-7" d="M89.71,42.38a3.41,3.41,0,0,1-.62,1.18A8.25,8.25,0,0,0,88,45.24a10.76,10.76,0,0,0,1.26-1.56c.35-.53.81-1.27.81-1.27Z"/><path class="cls-7" d="M86.72,42.41a5.29,5.29,0,0,1-.66,1.91c-.67,1.36-.93,1.76-.77,1.79s.66-1,1-1.75.85-2,.85-2Z"/><path class="cls-7" d="M83.8,42.68a3.63,3.63,0,0,1-.23,1.42c-.3,1-.66,1.58-.52,1.64s.48-.86.68-1.59.5-1.62.5-1.62Z"/><path class="cls-7" d="M80.67,43.42a2.36,2.36,0,0,1-.16.84c-.19.52-.48,1-.39,1a1.83,1.83,0,0,0,.53-.91l.28-1Z"/><path class="cls-7" d="M90.07,42.3a4.25,4.25,0,0,0-1.13-1.08,3.53,3.53,0,0,0-1.46-.6c-.08.07.83.33,1.15.54a12.62,12.62,0,0,1,1.19,1.14Z"/><path class="cls-7" d="M87,42.21A2.85,2.85,0,0,0,86.07,41a4.44,4.44,0,0,0-2.06-.8c-.19.06,1.5.49,1.88.86a4.36,4.36,0,0,1,.7,1.21Z"/><path class="cls-7" d="M84.23,42.53a6.6,6.6,0,0,0-1.38-1.09A5.66,5.66,0,0,0,81.19,41c-.2,0,1.27.32,1.68.61a9.25,9.25,0,0,1,1,1Z"/><path class="cls-7" d="M80.66,43.34s0-.25-.73-.5-1.07-.43-.92-.43a4.57,4.57,0,0,1,.91.23,6.29,6.29,0,0,1,1.08.61Z"/><path class="cls-3" d="M71.83,47.43c3,2.19,6.92,9.14,2.29,14.85s-11.37,6-16.46,2.7a11.48,11.48,0,0,1-1.42-18.14C61.38,42,67.33,44.12,71.83,47.43Z"/><path class="cls-4" d="M59.35,46.61h0Z"/><path class="cls-4" d="M60,47.34c.35-.17.74-.53.41-.85s-.78,0-1.09.12C58.93,47,59.11,47.79,60,47.34Z"/><path class="cls-4" d="M59.36,46.61l.54-.21A.83.83,0,0,0,59.36,46.61Z"/><path class="cls-4" d="M58.41,48.14c.13-.1.31-.3.13-.44a.22.22,0,0,0-.33.07.44.44,0,0,0-.22.29C58,48.35,58.27,48.24,58.41,48.14Z"/><path class="cls-4" d="M60.69,48a.35.35,0,0,0-.33,0c-.15,0-.35.08-.38.21a.25.25,0,0,0,0,.08l0,0,0,0c.05.15.39,0,.51,0S61,48.1,60.69,48Z"/><path class="cls-4" d="M59.93,48.29h0Z"/><path class="cls-4" d="M61.43,47.17c-.15,0-.32.22-.24.36s.44.09.57,0C62.26,47.27,61.61,47.06,61.43,47.17Z"/><path class="cls-4" d="M62.05,46.25c-.1,0-.29-.06-.37,0a.15.15,0,0,0,0,.18c0,.1.18.2.25.23s.91.32,1,.06S62.24,46.28,62.05,46.25Z"/><path class="cls-4" d="M61.22,45.73c.16.09.72.06.77-.16s-.3-.28-.45-.26a.61.61,0,0,0-.24.14C61.15,45.52,61,45.64,61.22,45.73Z"/><path class="cls-4" d="M58.51,47.06c.29-.22,0-.34-.23-.3h0c-.13,0-.46.14-.37.32S58.39,47.14,58.51,47.06Z"/><path class="cls-4" d="M57.29,48.44c.11-.13.44-.67.06-.69a.26.26,0,0,0-.2.1,1.15,1.15,0,0,0-.39.53C56.62,48.88,57.1,48.66,57.29,48.44Z"/><path class="cls-4" d="M59.34,48.59a.76.76,0,0,0-.51,0,1,1,0,0,0-.66.52c-.13.52.78.14,1,.08S59.76,48.75,59.34,48.59Z"/><path class="cls-4" d="M60.86,49c-.14,0-.3.17-.3.29s.52.18.67.11C61.79,49.14,61.06,48.89,60.86,49Z"/><path class="cls-4" d="M64.45,46.12a.23.23,0,0,0-.25.1.69.69,0,0,0,1,0A.57.57,0,0,0,64.45,46.12Z"/><path class="cls-4" d="M63,47.46c.31.11,1.16.16,1.23-.28a.75.75,0,0,0-.68-.08C63.25,47.09,63,47.18,63,47.46Z"/><path class="cls-4" d="M63.58,45.16A.44.44,0,0,0,63,45.1a.28.28,0,0,0-.15.18A.59.59,0,0,0,63.58,45.16Z"/><path class="cls-4" d="M65.89,47c-.62,0,.19.81.53.55S66.14,46.83,65.89,47Z"/><path class="cls-4" d="M57,49.58c-.19-.15-.35,0-.47.18-.42.27-.92.91-.52,1.06S57,49.93,57,49.58Z"/><path class="cls-4" d="M55.81,48.76c-.54.1-.28,1,.23.38C56.36,48.76,56,48.64,55.81,48.76Z"/><path class="cls-4" d="M58.88,50.41a.28.28,0,0,0-.2.25c.21.14.74.15.88-.11S59.06,50.1,58.88,50.41Z"/><path class="cls-4" d="M63.68,48.93l0,0a.27.27,0,0,0,0,.12s0,.09,0,.11c.11.3.73.31.61-.06S63.82,48.79,63.68,48.93Z"/><path class="cls-4" d="M69.23,48.14c-.36-.5-1.12,0-.64.16C68.87,48.5,69.59,48.64,69.23,48.14Z"/><path class="cls-4" d="M56.28,52.93l.08-.13a.9.9,0,0,0-.4.63c.21.06.85-.36.83-.64S56.47,52.66,56.28,52.93Z"/><path class="cls-4" d="M62,51.52a.14.14,0,0,0,.21,0c.26,0,.74,0,.54-.31S62,51.3,62,51.52Z"/><path class="cls-4" d="M54.12,51.24a.47.47,0,0,0,0,.21c.32.11,1.14,0,.87-.51S54.22,50.86,54.12,51.24Z"/><path class="cls-4" d="M55.24,49.87h0a.26.26,0,0,0-.33.26.39.39,0,0,0,.55-.21A.35.35,0,0,0,55.24,49.87Z"/><path class="cls-5" d="M56.29,61.19c-1.17.86,4.8,5.2,8.69,5a11.47,11.47,0,0,0,9.4-6c1-2.15.67-8.23-.62-7.81-.45.15.11,2.22-1.78,5.35-1.65,2.74-4.47,5.45-8.21,5.26C58.66,62.79,57.07,60.62,56.29,61.19Z"/><path class="cls-6" d="M69.11,46.13a.55.55,0,0,0-.48.84c.32.8,2.27,2.1,2.83,1.88s.58-.87-.23-1.5A4.83,4.83,0,0,0,69.11,46.13Z"/><path class="cls-6" d="M70.13,47.2S72.39,44.86,73,44a39.9,39.9,0,0,0,2.14-4.22s.2-.3.48-.25.2.47.2.47-1.58,3.23-2.22,4.12c-1.3,1.8-3,3.77-3,3.77Z"/><path class="cls-6" d="M74.07,42.8c-.14,0-3.73-.47-3.73-.47l-.14.21,1.86.3,1.85.31Z"/><path class="cls-6" d="M66.3,47c-3.86,1-9.55-1.77-9.55-1.77s3.8-4.43,7.07-4.77,8.92,2.27,8.92,2.27A13.43,13.43,0,0,1,66.3,47Z"/><path class="cls-7" d="M69.15,46.37a.82.82,0,0,0-.09.79,4.16,4.16,0,0,0,1.4,1.12l.09-.71s-.3-.2-.33-.38a.41.41,0,0,1,0-.27Z"/><path class="cls-7" d="M71.48,42.83a30.4,30.4,0,0,0-6.45.06c-3,.43-7.52,1.87-7.47,2.07s4.95-1.64,7.37-1.8,6.73,0,6.73,0Z"/><path class="cls-7" d="M70,42.94a3.36,3.36,0,0,1-.63,1.18,8.47,8.47,0,0,0-1.08,1.68,10.55,10.55,0,0,0,1.25-1.57c.35-.52.81-1.26.81-1.26Z"/><path class="cls-7" d="M67,43a5.29,5.29,0,0,1-.66,1.92c-.66,1.36-.93,1.75-.77,1.78s.66-1,1-1.74.85-2,.85-2Z"/><path class="cls-7" d="M64.05,43.24a3.65,3.65,0,0,1-.23,1.42c-.29,1-.66,1.57-.52,1.64s.48-.86.68-1.59.5-1.62.5-1.62Z"/><path class="cls-7" d="M60.92,44a2.39,2.39,0,0,1-.16.84c-.18.52-.47,1-.39,1a1.79,1.79,0,0,0,.54-.92c.13-.46.27-1,.27-1Z"/><path class="cls-7" d="M70.32,42.86a4.38,4.38,0,0,0-1.13-1.09,3.56,3.56,0,0,0-1.46-.59c-.07.07.83.33,1.15.54a10.61,10.61,0,0,1,1.19,1.13Z"/><path class="cls-7" d="M67.24,42.77a2.91,2.91,0,0,0-.92-1.23,4.57,4.57,0,0,0-2-.8c-.2.07,1.5.49,1.88.87a4.1,4.1,0,0,1,.69,1.2Z"/><path class="cls-7" d="M64.48,43.09A6.28,6.28,0,0,0,63.1,42a6,6,0,0,0-1.66-.43c-.2,0,1.27.33,1.69.62a8.84,8.84,0,0,1,1,1Z"/><path class="cls-7" d="M60.91,43.89s0-.24-.73-.5S59.12,43,59.26,43a4.69,4.69,0,0,1,.91.24,5.66,5.66,0,0,1,1.08.61Z"/><path class="cls-3" d="M52.92,29.63c3,2.19,6.91,9.14,2.29,14.85s-11.37,6.05-16.46,2.7A11.49,11.49,0,0,1,37.32,29C42.47,24.15,48.42,26.32,52.92,29.63Z"/><path class="cls-4" d="M40.43,28.81h0Z"/><path class="cls-4" d="M41.13,29.53c.34-.16.74-.52.41-.84s-.78,0-1.09.12C40,29.21,40.19,30,41.13,29.53Z"/><path class="cls-4" d="M40.45,28.81,41,28.6A.8.8,0,0,0,40.45,28.81Z"/><path class="cls-4" d="M39.49,30.34c.14-.1.31-.3.14-.44a.24.24,0,0,0-.34.07.46.46,0,0,0-.21.29C39.05,30.55,39.36,30.44,39.49,30.34Z"/><path class="cls-4" d="M41.78,30.16a.35.35,0,0,0-.33,0c-.16,0-.35.08-.39.21s0,.06,0,.08l0,0,0,0c0,.15.38,0,.51,0S42.05,30.3,41.78,30.16Z"/><path class="cls-4" d="M41,30.49h0Z"/><path class="cls-4" d="M42.51,29.37c-.15.05-.32.22-.23.36s.44.09.56,0C43.35,29.47,42.7,29.26,42.51,29.37Z"/><path class="cls-4" d="M43.14,28.45c-.1,0-.29-.06-.37,0a.15.15,0,0,0,0,.18c0,.1.18.19.25.23s.92.32,1,.06S43.33,28.48,43.14,28.45Z"/><path class="cls-4" d="M42.31,27.93c.15.08.71.06.77-.16s-.3-.28-.45-.26a.55.55,0,0,0-.24.14C42.24,27.72,42.13,27.83,42.31,27.93Z"/><path class="cls-4" d="M39.59,29.26c.29-.22,0-.34-.22-.3h0c-.13,0-.46.14-.38.32S39.48,29.34,39.59,29.26Z"/><path class="cls-4" d="M38.37,30.64c.11-.13.44-.67.06-.69a.23.23,0,0,0-.19.1,1.08,1.08,0,0,0-.39.53C37.7,31.08,38.18,30.86,38.37,30.64Z"/><path class="cls-4" d="M40.42,30.79a.74.74,0,0,0-.5,0,1,1,0,0,0-.67.52c-.12.52.79.14,1,.08S40.85,31,40.42,30.79Z"/><path class="cls-4" d="M42,31.2c-.15.05-.3.17-.3.29s.52.18.67.11C42.88,31.34,42.15,31.09,42,31.2Z"/><path class="cls-4" d="M45.53,28.32a.25.25,0,0,0-.25.1.7.7,0,0,0,1,0A.58.58,0,0,0,45.53,28.32Z"/><path class="cls-4" d="M44.06,29.66c.31.11,1.16.16,1.23-.28a.75.75,0,0,0-.68-.08C44.34,29.29,44.06,29.38,44.06,29.66Z"/><path class="cls-4" d="M44.67,27.36a.44.44,0,0,0-.62-.06.28.28,0,0,0-.15.18A.59.59,0,0,0,44.67,27.36Z"/><path class="cls-4" d="M47,29.19c-.63,0,.18.81.53.55S47.23,29,47,29.19Z"/><path class="cls-4" d="M38.05,31.78c-.19-.15-.36,0-.47.18-.42.27-.92.91-.52,1.06S38,32.13,38.05,31.78Z"/><path class="cls-4" d="M36.9,31c-.54.1-.29,1,.23.38C37.45,31,37.12,30.84,36.9,31Z"/><path class="cls-4" d="M40,32.61a.27.27,0,0,0-.2.24c.2.15.74.16.87-.11S40.15,32.3,40,32.61Z"/><path class="cls-4" d="M44.76,31.13l0-.05a.52.52,0,0,0,0,.11c0,.06,0,.1,0,.12.12.29.74.31.62-.07S44.91,31,44.76,31.13Z"/><path class="cls-4" d="M50.32,30.34c-.37-.5-1.12,0-.65.16C50,30.7,50.68,30.84,50.32,30.34Z"/><path class="cls-4" d="M37.37,35.13l.08-.13a.87.87,0,0,0-.4.63c.21.06.85-.36.83-.64S37.56,34.86,37.37,35.13Z"/><path class="cls-4" d="M43.05,33.71c.08.1.14.09.21,0,.26,0,.74,0,.54-.31S43.12,33.49,43.05,33.71Z"/><path class="cls-4" d="M35.21,33.43a.41.41,0,0,0,0,.22c.32.11,1.13,0,.86-.51S35.3,33.06,35.21,33.43Z"/><path class="cls-4" d="M36.33,32.07h0a.27.27,0,0,0-.33.26.4.4,0,0,0,.56-.21A.36.36,0,0,0,36.33,32.07Z"/><path class="cls-5" d="M37.38,43.39c-1.18.86,4.8,5.2,8.69,5a11.44,11.44,0,0,0,9.4-6c1-2.15.67-8.23-.62-7.81-.46.15.11,2.22-1.78,5.35-1.65,2.74-4.47,5.45-8.21,5.26C39.74,45,38.16,42.82,37.38,43.39Z"/><path class="cls-6" d="M50.2,28.33a.55.55,0,0,0-.49.84c.33.8,2.27,2.1,2.83,1.88s.59-.87-.23-1.5A4.86,4.86,0,0,0,50.2,28.33Z"/><path class="cls-6" d="M51.21,29.4s2.26-2.34,2.91-3.22A42,42,0,0,0,56.26,22s.2-.3.48-.25.19.47.19.47-1.57,3.23-2.21,4.12c-1.3,1.8-3,3.77-3,3.77Z"/><path class="cls-6" d="M55.16,25c-.14,0-3.73-.48-3.73-.48l-.14.22,1.85.3,1.85.31Z"/><path class="cls-6" d="M47.38,29.2c-3.85,1-9.55-1.77-9.55-1.77S41.64,23,44.9,22.66s8.93,2.27,8.93,2.27A13.42,13.42,0,0,1,47.38,29.2Z"/><path class="cls-7" d="M50.23,28.57a.8.8,0,0,0-.08.79,4.06,4.06,0,0,0,1.4,1.12l.09-.71s-.3-.2-.33-.38a.41.41,0,0,1,0-.27Z"/><path class="cls-7" d="M52.57,25a30.48,30.48,0,0,0-6.46.06c-3,.43-7.52,1.87-7.46,2.07s4.94-1.64,7.36-1.8,6.74,0,6.74,0Z"/><path class="cls-7" d="M51.05,25.14a3.41,3.41,0,0,1-.62,1.18A8.25,8.25,0,0,0,49.34,28a10.43,10.43,0,0,0,1.26-1.57c.35-.52.81-1.27.81-1.27Z"/><path class="cls-7" d="M48.06,25.16a5.29,5.29,0,0,1-.66,1.92c-.67,1.36-.93,1.75-.77,1.78s.66-1,1-1.74.85-2,.85-2Z"/><path class="cls-7" d="M45.14,25.44a3.65,3.65,0,0,1-.23,1.42c-.3,1-.66,1.57-.52,1.64s.48-.86.68-1.59.5-1.62.5-1.62Z"/><path class="cls-7" d="M42,26.18a2.39,2.39,0,0,1-.16.84c-.19.52-.48,1-.39,1a1.93,1.93,0,0,0,.53-.92l.28-1Z"/><path class="cls-7" d="M51.41,25.06A4.38,4.38,0,0,0,50.28,24a3.46,3.46,0,0,0-1.46-.59c-.08.07.83.33,1.15.53a12.62,12.62,0,0,1,1.19,1.14Z"/><path class="cls-7" d="M48.33,25a2.91,2.91,0,0,0-.92-1.23,4.56,4.56,0,0,0-2.06-.8c-.19.07,1.5.49,1.88.87a4.22,4.22,0,0,1,.7,1.2Z"/><path class="cls-7" d="M45.57,25.29a6.54,6.54,0,0,0-1.38-1.1,6.39,6.39,0,0,0-1.66-.42c-.2,0,1.27.33,1.68.62a8.6,8.6,0,0,1,1,1Z"/><path class="cls-7" d="M42,26.09s0-.24-.73-.5-1.07-.43-.92-.43a4.88,4.88,0,0,1,.91.24,5.66,5.66,0,0,1,1.08.61Z"/><path class="cls-3" d="M26.44,45.32c-3,2.2-6.91,9.14-2.29,14.86s11.37,6.05,16.47,2.69A11.47,11.47,0,0,0,42,44.74C36.9,39.84,31,42,26.44,45.32Z"/><path class="cls-4" d="M38.93,44.51h0Z"/><path class="cls-4" d="M38.24,45.23c-.35-.17-.75-.53-.42-.85s.78,0,1.1.13C39.35,44.9,39.17,45.68,38.24,45.23Z"/><path class="cls-4" d="M38.91,44.5l-.53-.21A.83.83,0,0,1,38.91,44.5Z"/><path class="cls-4" d="M39.87,46c-.13-.09-.31-.29-.14-.44a.23.23,0,0,1,.34.08.41.41,0,0,1,.21.28C40.31,46.25,40,46.13,39.87,46Z"/><path class="cls-4" d="M37.58,45.85a.35.35,0,0,1,.33,0c.16,0,.35.09.39.21a.14.14,0,0,1,0,.09l.05,0-.05,0c0,.14-.38,0-.51,0S37.32,46,37.58,45.85Z"/><path class="cls-4" d="M38.35,46.19h0Z"/><path class="cls-4" d="M36.85,45.07c.15,0,.32.21.23.36s-.44.09-.56,0C36,45.17,36.66,45,36.85,45.07Z"/><path class="cls-4" d="M36.22,44.15c.11,0,.29-.07.37,0a.15.15,0,0,1,0,.18c0,.11-.18.2-.25.23s-.92.33-1,.07S36,44.17,36.22,44.15Z"/><path class="cls-4" d="M37.05,43.63c-.15.08-.71.06-.77-.17s.31-.27.45-.25a.48.48,0,0,1,.24.13C37.12,43.42,37.23,43.53,37.05,43.63Z"/><path class="cls-4" d="M39.77,45c-.29-.22,0-.34.22-.29h0c.14,0,.47.15.38.33S39.88,45,39.77,45Z"/><path class="cls-4" d="M41,46.33c-.11-.12-.44-.67-.06-.69a.3.3,0,0,1,.2.1,1,1,0,0,1,.38.54C41.66,46.78,41.18,46.55,41,46.33Z"/><path class="cls-4" d="M38.94,46.49a.68.68,0,0,1,.5,0,1,1,0,0,1,.67.51c.12.52-.79.15-1,.08S38.52,46.64,38.94,46.49Z"/><path class="cls-4" d="M37.41,46.89c.15,0,.31.17.3.29s-.52.18-.67.11C36.48,47,37.22,46.78,37.41,46.89Z"/><path class="cls-4" d="M33.83,44a.25.25,0,0,1,.25.1.69.69,0,0,1-1,0A.59.59,0,0,1,33.83,44Z"/><path class="cls-4" d="M35.31,45.35c-.32.11-1.17.17-1.24-.27a.74.74,0,0,1,.69-.08C35,45,35.3,45.07,35.31,45.35Z"/><path class="cls-4" d="M34.69,43.05a.44.44,0,0,1,.62-.06.27.27,0,0,1,.15.18A.59.59,0,0,1,34.69,43.05Z"/><path class="cls-4" d="M32.38,44.88c.63,0-.18.81-.53.55S32.13,44.72,32.38,44.88Z"/><path class="cls-4" d="M41.31,47.47c.2-.15.36,0,.47.18.42.27.93.91.52,1.06S41.32,47.82,41.31,47.47Z"/><path class="cls-4" d="M42.47,46.65c.54.11.28,1-.23.39C41.92,46.66,42.24,46.53,42.47,46.65Z"/><path class="cls-4" d="M39.39,48.3a.28.28,0,0,1,.2.25c-.2.14-.74.16-.87-.11S39.21,48,39.39,48.3Z"/><path class="cls-4" d="M34.6,46.82l0,0a.52.52,0,0,1,0,.11s0,.1,0,.12c-.12.29-.73.3-.62-.07S34.45,46.68,34.6,46.82Z"/><path class="cls-4" d="M29,46c.37-.5,1.12,0,.65.16C29.41,46.4,28.68,46.53,29,46Z"/><path class="cls-4" d="M42,50.83l-.07-.14a1,1,0,0,1,.4.64c-.22.06-.85-.37-.84-.65S41.8,50.56,42,50.83Z"/><path class="cls-4" d="M36.32,49.41a.17.17,0,0,1-.22.05c-.26,0-.74,0-.53-.32S36.24,49.19,36.32,49.41Z"/><path class="cls-4" d="M44.15,49.13a.4.4,0,0,1,0,.22c-.32.11-1.13,0-.86-.51S44.06,48.75,44.15,49.13Z"/><path class="cls-4" d="M43,47.77h0a.27.27,0,0,1,.33.26.39.39,0,0,1-.55-.21A.33.33,0,0,1,43,47.77Z"/><path class="cls-5" d="M42,59.09c1.18.86-4.8,5.19-8.68,5a11.43,11.43,0,0,1-9.41-6c-1-2.14-.66-8.23.62-7.8.46.15-.1,2.21,1.78,5.34,1.65,2.75,4.48,5.45,8.21,5.27C39.62,60.69,41.21,58.52,42,59.09Z"/><path class="cls-6" d="M29.16,44a.55.55,0,0,1,.49.83c-.32.8-2.27,2.1-2.83,1.88s-.59-.87.23-1.49A4.66,4.66,0,0,1,29.16,44Z"/><path class="cls-6" d="M28.15,45.1s-2.26-2.34-2.91-3.22a41.89,41.89,0,0,1-2.14-4.23s-.2-.29-.47-.24-.2.47-.2.47S24,41.1,24.64,42c1.3,1.81,3,3.78,3,3.78Z"/><path class="cls-6" d="M24.21,40.69c.13,0,3.73-.47,3.73-.47l.13.21-1.85.31-1.85.3Z"/><path class="cls-6" d="M32,44.9c3.85,1,9.55-1.77,9.55-1.77s-3.81-4.44-7.07-4.77-8.93,2.27-8.93,2.27A13.5,13.5,0,0,0,32,44.9Z"/><path class="cls-7" d="M29.13,44.27a.81.81,0,0,1,.09.79,4.09,4.09,0,0,1-1.4,1.11l-.1-.7s.3-.21.33-.38a.39.39,0,0,0,0-.27Z"/><path class="cls-7" d="M26.79,40.72a30.48,30.48,0,0,1,6.46.06c3,.44,7.52,1.87,7.46,2.07s-4.94-1.64-7.36-1.8-6.74,0-6.74,0Z"/><path class="cls-7" d="M28.31,40.83A3.41,3.41,0,0,0,28.93,42,8.56,8.56,0,0,1,30,43.69a10.21,10.21,0,0,1-1.25-1.56c-.36-.53-.82-1.27-.82-1.27Z"/><path class="cls-7" d="M31.31,40.86A5,5,0,0,0,32,42.77c.66,1.36.92,1.76.76,1.79s-.66-1-1-1.75-.85-2-.85-2Z"/><path class="cls-7" d="M34.22,41.13a3.63,3.63,0,0,0,.23,1.42c.3,1,.66,1.58.52,1.64s-.48-.86-.68-1.59-.5-1.62-.5-1.62Z"/><path class="cls-7" d="M37.36,41.87a2.11,2.11,0,0,0,.16.84c.18.52.47,1,.38,1a1.83,1.83,0,0,1-.53-.91l-.28-1Z"/><path class="cls-7" d="M28,40.75a4.43,4.43,0,0,1,1.13-1.08,3.53,3.53,0,0,1,1.46-.6c.08.07-.83.33-1.15.54a12.23,12.23,0,0,0-1.18,1.14Z"/><path class="cls-7" d="M31,40.66A2.85,2.85,0,0,1,32,39.44a4.48,4.48,0,0,1,2.06-.8c.2.06-1.5.49-1.88.86a4.23,4.23,0,0,0-.69,1.21Z"/><path class="cls-7" d="M33.79,41a6.75,6.75,0,0,1,1.39-1.09,5.51,5.51,0,0,1,1.66-.42,17.77,17.77,0,0,0-1.69.62,9.48,9.48,0,0,0-1,1Z"/><path class="cls-7" d="M37.36,41.79s0-.25.73-.5,1.07-.43.92-.43a4.57,4.57,0,0,0-.91.23A6.06,6.06,0,0,0,37,41.7Z"/><path class="cls-3" d="M55.42,47.43c3,2.19,6.92,9.14,2.29,14.85s-11.37,6-16.46,2.7a11.48,11.48,0,0,1-1.42-18.14C45,42,50.92,44.12,55.42,47.43Z"/><path class="cls-4" d="M42.94,46.61h0Z"/><path class="cls-4" d="M43.63,47.34c.35-.17.74-.53.41-.85s-.78,0-1.09.12C42.52,47,42.7,47.79,43.63,47.34Z"/><path class="cls-4" d="M43,46.61l.54-.21A.83.83,0,0,0,43,46.61Z"/><path class="cls-4" d="M42,48.14c.13-.1.31-.3.13-.44a.22.22,0,0,0-.33.07.44.44,0,0,0-.22.29C41.55,48.35,41.86,48.24,42,48.14Z"/><path class="cls-4" d="M44.28,48A.35.35,0,0,0,44,48c-.15,0-.35.08-.38.21a.25.25,0,0,0,0,.08l0,0,0,0c0,.15.39,0,.51,0S44.55,48.1,44.28,48Z"/><path class="cls-4" d="M43.52,48.29h0Z"/><path class="cls-4" d="M45,47.17c-.15,0-.32.22-.24.36s.44.09.57,0C45.85,47.27,45.2,47.06,45,47.17Z"/><path class="cls-4" d="M45.64,46.25c-.1,0-.29-.06-.37,0a.15.15,0,0,0,0,.18c0,.1.18.2.25.23s.91.32,1,.06S45.83,46.28,45.64,46.25Z"/><path class="cls-4" d="M44.81,45.73c.16.09.72.06.77-.16s-.3-.28-.45-.26a.61.61,0,0,0-.24.14C44.74,45.52,44.63,45.64,44.81,45.73Z"/><path class="cls-4" d="M42.1,47.06c.29-.22,0-.34-.23-.3h0c-.13,0-.46.14-.37.32S42,47.14,42.1,47.06Z"/><path class="cls-4" d="M40.88,48.44c.11-.13.44-.67.06-.69a.26.26,0,0,0-.2.1,1.15,1.15,0,0,0-.39.53C40.21,48.88,40.69,48.66,40.88,48.44Z"/><path class="cls-4" d="M42.93,48.59a.76.76,0,0,0-.51,0,1,1,0,0,0-.66.52c-.13.52.78.14,1,.08S43.35,48.75,42.93,48.59Z"/><path class="cls-4" d="M44.45,49c-.14,0-.3.17-.3.29s.52.18.67.11C45.38,49.14,44.65,48.89,44.45,49Z"/><path class="cls-4" d="M48,46.12a.23.23,0,0,0-.25.1.69.69,0,0,0,1,0A.57.57,0,0,0,48,46.12Z"/><path class="cls-4" d="M46.56,47.46c.31.11,1.16.16,1.23-.28a.75.75,0,0,0-.68-.08C46.84,47.09,46.56,47.18,46.56,47.46Z"/><path class="cls-4" d="M47.17,45.16a.44.44,0,0,0-.62-.06.28.28,0,0,0-.15.18A.59.59,0,0,0,47.17,45.16Z"/><path class="cls-4" d="M49.48,47c-.62,0,.19.81.53.55S49.73,46.83,49.48,47Z"/><path class="cls-4" d="M40.55,49.58c-.19-.15-.35,0-.47.18-.42.27-.92.91-.52,1.06S40.54,49.93,40.55,49.58Z"/><path class="cls-4" d="M39.4,48.76c-.54.1-.28,1,.23.38C40,48.76,39.62,48.64,39.4,48.76Z"/><path class="cls-4" d="M42.47,50.41a.28.28,0,0,0-.2.25c.21.14.74.15.88-.11S42.65,50.1,42.47,50.41Z"/><path class="cls-4" d="M47.27,48.93l0,0a.27.27,0,0,0,0,.12s0,.09,0,.11c.11.3.73.31.61-.06S47.41,48.79,47.27,48.93Z"/><path class="cls-4" d="M52.82,48.14c-.36-.5-1.12,0-.64.16C52.46,48.5,53.18,48.64,52.82,48.14Z"/><path class="cls-4" d="M39.88,52.93,40,52.8a.9.9,0,0,0-.4.63c.22.06.85-.36.83-.64S40.06,52.66,39.88,52.93Z"/><path class="cls-4" d="M45.55,51.52a.14.14,0,0,0,.21,0c.26,0,.74,0,.54-.31S45.62,51.3,45.55,51.52Z"/><path class="cls-4" d="M37.71,51.24a.47.47,0,0,0,0,.21c.32.11,1.14,0,.87-.51S37.81,50.86,37.71,51.24Z"/><path class="cls-4" d="M38.83,49.87h0a.26.26,0,0,0-.33.26.39.39,0,0,0,.55-.21A.34.34,0,0,0,38.83,49.87Z"/><path class="cls-5" d="M39.88,61.19c-1.17.86,4.8,5.2,8.69,5a11.47,11.47,0,0,0,9.4-6c1-2.15.67-8.23-.61-7.81-.46.15.1,2.22-1.79,5.35-1.65,2.74-4.47,5.45-8.21,5.26C42.25,62.79,40.66,60.62,39.88,61.19Z"/><path class="cls-6" d="M52.7,46.13a.55.55,0,0,0-.48.84c.32.8,2.27,2.1,2.83,1.88s.58-.87-.23-1.5A4.83,4.83,0,0,0,52.7,46.13Z"/><path class="cls-6" d="M53.72,47.2S56,44.86,56.62,44a39.9,39.9,0,0,0,2.14-4.22s.2-.3.48-.25.2.47.2.47-1.58,3.23-2.22,4.12c-1.3,1.8-3,3.77-3,3.77Z"/><path class="cls-6" d="M57.66,42.8c-.14,0-3.73-.47-3.73-.47l-.14.21,1.86.3,1.85.31Z"/><path class="cls-6" d="M49.89,47c-3.86,1-9.55-1.77-9.55-1.77s3.8-4.43,7.07-4.77,8.92,2.27,8.92,2.27A13.43,13.43,0,0,1,49.89,47Z"/><path class="cls-7" d="M52.74,46.37a.82.82,0,0,0-.09.79,4.16,4.16,0,0,0,1.4,1.12l.09-.71s-.3-.2-.33-.38a.41.41,0,0,1,0-.27Z"/><path class="cls-7" d="M55.07,42.83a30.4,30.4,0,0,0-6.45.06c-3,.43-7.52,1.87-7.47,2.07s5-1.64,7.37-1.8,6.73,0,6.73,0Z"/><path class="cls-7" d="M53.56,42.94a3.36,3.36,0,0,1-.63,1.18,8.47,8.47,0,0,0-1.08,1.68,10.55,10.55,0,0,0,1.25-1.57c.35-.52.81-1.26.81-1.26Z"/><path class="cls-7" d="M50.56,43a5.29,5.29,0,0,1-.66,1.92c-.66,1.36-.93,1.75-.76,1.78s.65-1,1-1.74.85-2,.85-2Z"/><path class="cls-7" d="M47.64,43.24a3.65,3.65,0,0,1-.23,1.42c-.29,1-.66,1.57-.52,1.64s.48-.86.68-1.59.5-1.62.5-1.62Z"/><path class="cls-7" d="M44.51,44a2.39,2.39,0,0,1-.16.84c-.18.52-.47,1-.39,1a1.79,1.79,0,0,0,.54-.92c.13-.46.27-1,.27-1Z"/><path class="cls-7" d="M53.91,42.86a4.38,4.38,0,0,0-1.13-1.09,3.56,3.56,0,0,0-1.46-.59c-.07.07.83.33,1.15.54a10.61,10.61,0,0,1,1.19,1.13Z"/><path class="cls-7" d="M50.83,42.77a2.91,2.91,0,0,0-.92-1.23,4.57,4.57,0,0,0-2-.8c-.2.07,1.5.49,1.88.87a4.1,4.1,0,0,1,.69,1.2Z"/><path class="cls-7" d="M48.07,43.09A6.28,6.28,0,0,0,46.69,42,6,6,0,0,0,45,41.57c-.2,0,1.27.33,1.69.62a8.84,8.84,0,0,1,1,1Z"/><path class="cls-7" d="M44.5,43.89s0-.24-.73-.5S42.71,43,42.85,43a4.91,4.91,0,0,1,.92.24,5.81,5.81,0,0,1,1.07.61Z"/><path class="cls-3" d="M9.2,47.07c-3,2.2-6.91,9.14-2.29,14.86S18.29,68,23.38,64.62A11.47,11.47,0,0,0,24.8,46.49C19.66,41.59,13.71,43.76,9.2,47.07Z"/><path class="cls-4" d="M21.69,46.26h0Z"/><path class="cls-4" d="M21,47c-.35-.17-.74-.53-.41-.85s.77,0,1.09.13C22.11,46.65,21.93,47.43,21,47Z"/><path class="cls-4" d="M21.68,46.25,21.14,46A.88.88,0,0,1,21.68,46.25Z"/><path class="cls-4" d="M22.63,47.78c-.13-.09-.31-.29-.13-.44s.25,0,.33.08a.43.43,0,0,1,.22.28C23.08,48,22.77,47.88,22.63,47.78Z"/><path class="cls-4" d="M20.35,47.6a.35.35,0,0,1,.33,0c.15,0,.35.09.38.21a.31.31,0,0,1,0,.09l0,0-.05,0c0,.14-.38,0-.5,0S20.08,47.75,20.35,47.6Z"/><path class="cls-4" d="M21.11,47.94h0Z"/><path class="cls-4" d="M19.61,46.82c.15,0,.32.21.24.36s-.44.09-.57,0C18.78,46.92,19.43,46.71,19.61,46.82Z"/><path class="cls-4" d="M19,45.9c.1,0,.29-.07.37,0a.15.15,0,0,1,0,.18c0,.11-.18.2-.25.23s-.91.33-1,.07S18.8,45.92,19,45.9Z"/><path class="cls-4" d="M19.82,45.38c-.16.08-.72.06-.78-.17s.31-.27.46-.25a.57.57,0,0,1,.24.13C19.89,45.17,20,45.28,19.82,45.38Z"/><path class="cls-4" d="M22.53,46.7c-.29-.22,0-.34.22-.29h0c.13,0,.46.15.37.33S22.64,46.78,22.53,46.7Z"/><path class="cls-4" d="M23.75,48.08c-.11-.12-.44-.67-.06-.69a.3.3,0,0,1,.2.1,1,1,0,0,1,.38.54C24.42,48.53,23.94,48.3,23.75,48.08Z"/><path class="cls-4" d="M21.7,48.24a.71.71,0,0,1,.51,0,1,1,0,0,1,.66.51c.13.52-.78.15-1,.08S21.28,48.39,21.7,48.24Z"/><path class="cls-4" d="M20.18,48.64c.14,0,.3.17.3.29s-.53.18-.67.11C19.25,48.78,20,48.53,20.18,48.64Z"/><path class="cls-4" d="M16.59,45.76a.25.25,0,0,1,.25.1.68.68,0,0,1-1,0A.57.57,0,0,1,16.59,45.76Z"/><path class="cls-4" d="M18.07,47.1c-.31.11-1.16.17-1.23-.27a.72.72,0,0,1,.68-.08C17.78,46.73,18.07,46.82,18.07,47.1Z"/><path class="cls-4" d="M17.46,44.8a.44.44,0,0,1,.62-.06.3.3,0,0,1,.15.18A.59.59,0,0,1,17.46,44.8Z"/><path class="cls-4" d="M15.14,46.63c.63,0-.18.81-.52.55S14.89,46.47,15.14,46.63Z"/><path class="cls-4" d="M24.08,49.22c.19-.15.35,0,.46.18.42.27.93.91.53,1.06S24.09,49.57,24.08,49.22Z"/><path class="cls-4" d="M25.23,48.4c.54.1.28,1-.23.39C24.68,48.41,25,48.28,25.23,48.4Z"/><path class="cls-4" d="M22.16,50.05a.27.27,0,0,1,.19.25c-.2.14-.73.16-.87-.11S22,49.74,22.16,50.05Z"/><path class="cls-4" d="M17.36,48.57l0,0a.23.23,0,0,1,0,.11s0,.1,0,.12c-.11.29-.73.3-.61-.07S17.22,48.43,17.36,48.57Z"/><path class="cls-4" d="M11.81,47.79c.36-.5,1.12,0,.64.16C12.17,48.15,11.45,48.28,11.81,47.79Z"/><path class="cls-4" d="M24.75,52.58l-.07-.14a.92.92,0,0,1,.4.64c-.22.06-.85-.37-.83-.65S24.57,52.31,24.75,52.58Z"/><path class="cls-4" d="M19.08,51.16a.16.16,0,0,1-.21.05c-.26,0-.75,0-.54-.32S19,50.94,19.08,51.16Z"/><path class="cls-4" d="M26.92,50.88a.51.51,0,0,1,0,.22c-.32.11-1.14,0-.87-.51S26.82,50.5,26.92,50.88Z"/><path class="cls-4" d="M25.8,49.52h0a.26.26,0,0,1,.33.26.39.39,0,0,1-.55-.21A.33.33,0,0,1,25.8,49.52Z"/><path class="cls-5" d="M24.75,60.84c1.17.86-4.81,5.19-8.69,5a11.43,11.43,0,0,1-9.4-6c-1-2.14-.67-8.23.61-7.8.46.15-.1,2.21,1.78,5.34,1.66,2.75,4.48,5.45,8.22,5.27C22.38,62.44,24,60.27,24.75,60.84Z"/><path class="cls-6" d="M11.93,45.78a.54.54,0,0,1,.48.83c-.32.8-2.27,2.1-2.83,1.88S9,47.62,9.81,47A4.64,4.64,0,0,1,11.93,45.78Z"/><path class="cls-6" d="M10.91,46.85S8.65,44.51,8,43.63A39.83,39.83,0,0,1,5.87,39.4a.55.55,0,0,0-.48-.24c-.28.05-.2.47-.2.47s1.58,3.22,2.22,4.11c1.3,1.81,3,3.78,3,3.78Z"/><path class="cls-6" d="M7,42.44c.14,0,3.73-.47,3.73-.47l.14.21L9,42.49l-1.85.3Z"/><path class="cls-6" d="M14.74,46.65c3.86,1,9.55-1.77,9.55-1.77s-3.8-4.44-7.07-4.77S8.3,42.38,8.3,42.38A13.5,13.5,0,0,0,14.74,46.65Z"/><path class="cls-7" d="M11.89,46a.81.81,0,0,1,.09.79,4.09,4.09,0,0,1-1.4,1.11l-.09-.7s.3-.21.33-.38a.39.39,0,0,0,0-.27Z"/><path class="cls-7" d="M9.55,42.47a30.51,30.51,0,0,1,6.46.06c3,.44,7.52,1.87,7.47,2.07S18.53,43,16.11,42.8s-6.73,0-6.73,0Z"/><path class="cls-7" d="M11.07,42.58a3.36,3.36,0,0,0,.63,1.18,8.79,8.79,0,0,1,1.08,1.68,10.21,10.21,0,0,1-1.25-1.56c-.36-.53-.81-1.27-.81-1.27Z"/><path class="cls-7" d="M14.07,42.61a5.29,5.29,0,0,0,.66,1.91c.66,1.36.93,1.76.76,1.79s-.65-1-1-1.75-.84-2-.84-2Z"/><path class="cls-7" d="M17,42.88a3.7,3.7,0,0,0,.22,1.42c.3,1,.66,1.58.53,1.64s-.48-.86-.69-1.59-.5-1.62-.5-1.62Z"/><path class="cls-7" d="M20.12,43.62a2.36,2.36,0,0,0,.16.84c.18.52.47,1,.39,1a1.75,1.75,0,0,1-.54-.91c-.13-.47-.27-1-.27-1Z"/><path class="cls-7" d="M10.72,42.5a4.24,4.24,0,0,1,1.13-1.08,3.51,3.51,0,0,1,1.45-.6c.08.07-.82.33-1.15.54A12.23,12.23,0,0,0,11,42.5Z"/><path class="cls-7" d="M13.8,42.41a2.85,2.85,0,0,1,.92-1.22,4.45,4.45,0,0,1,2-.8c.2.06-1.5.49-1.88.86a4.23,4.23,0,0,0-.69,1.21Z"/><path class="cls-7" d="M16.55,42.73a6.75,6.75,0,0,1,1.39-1.09,5.58,5.58,0,0,1,1.66-.42c.2,0-1.28.32-1.69.62a9.06,9.06,0,0,0-1,1Z"/><path class="cls-7" d="M20.13,43.54s0-.25.73-.5,1.06-.43.91-.43a4.75,4.75,0,0,0-.91.23,6.49,6.49,0,0,0-1.07.61Z"/><path class="cls-8" d="M8.58,64.8c1.21,4.8,4.31,16.83,6.17,21.38,2.36,5.73,1.26,8.24,9,9,6.68.67,20.45.36,26.27.21,5.82.15,19.6.46,26.28-.21,7.78-.79,6.68-3.3,9-9,1.87-4.55,5.22-18.45,6.42-23.25Z"/><path class="cls-9" d="M94.06,60.58c-.63-2.28-4.19-1.78-5.9-1.7-.58,0-1.17,0-1.75,0-2.93.06-5.85.09-8.77.13-3.31,0-42.61.84-45.88,1L22,60.33c-2.87.1-5.73.2-8.6.28-.57,0-1.15,0-1.72,0-1.68,0-5.2-.33-5.71,1.93A2.32,2.32,0,0,0,7.72,65.4a14.82,14.82,0,0,0,3.39-.1C14.38,65.1,17.67,65,21,65l9.94-.24L41,64.5c1.23,0,7.54-.08,9.09-.11l8.48-.21,10.28-.26L79,63.7c3.34-.08,6.69-.18,10-.12a15.22,15.22,0,0,0,3.44-.06A2.37,2.37,0,0,0,94.06,60.58Z"/><path class="cls-10" d="M13.09,65.15c-.84-.13-1.05-1.36-1.12-2A4.39,4.39,0,0,1,12.43,61a0,0,0,0,0-.07,0,3.25,3.25,0,0,0-.53,2.72,4,4,0,0,0,.17.63A2.62,2.62,0,0,1,12,61a.06.06,0,0,0-.09-.07,2.88,2.88,0,0,0,.52,4.14h.06a.79.79,0,0,0,.6.25C13.19,65.33,13.18,65.16,13.09,65.15Z"/><path class="cls-10" d="M13.22,65a3.39,3.39,0,0,1-.1-4,.06.06,0,0,0-.09-.08,3.08,3.08,0,0,0-.79,2.07,2.88,2.88,0,0,0,.87,2.15C13.18,65.11,13.27,65,13.22,65Z"/><path class="cls-10" d="M23.13,65a5.29,5.29,0,0,1-.8-4.76.06.06,0,1,0-.11-.05c-.69,1.46-.73,4,.77,5A.1.1,0,0,0,23.13,65Z"/><path class="cls-10" d="M24,65a5.25,5.25,0,0,1-.77-4.67s-.06-.08-.08,0a4,4,0,0,0-.39,2.44c0,.15.06.32.09.49-.07-.15-.15-.31-.21-.47a3.71,3.71,0,0,1,.11-2.46.07.07,0,0,0-.12,0c-.63,1.38-.63,3.39.7,4.4l.05,0a1.93,1.93,0,0,0,.45.49C23.9,65.23,24.05,65.1,24,65Z"/><path class="cls-10" d="M36.33,64.51a6.78,6.78,0,0,1-.93-2.28,4.29,4.29,0,0,1,.21-1.95c0-.13.2-.35.17-.51a.07.07,0,0,0-.07-.06c-.52.1-.71,1.65-.7,2.06a3.32,3.32,0,0,0,1.22,2.83C36.28,64.63,36.37,64.58,36.33,64.51Z"/><path class="cls-10" d="M37.38,64.48c-.85-1.33-1.58-3-1-4.6,0-.08-.07-.11-.11-.05-.72,1.3-.48,4,.95,4.8C37.36,64.69,37.43,64.55,37.38,64.48Z"/><path class="cls-10" d="M51,61.4c-.09-.65,0-1.25,0-1.88,0-.09-.11-.09-.14,0a4.27,4.27,0,0,0,.55,4,.07.07,0,0,0,.11-.07A11.35,11.35,0,0,1,51,61.4Z"/><path class="cls-10" d="M50.94,64.28a8.93,8.93,0,0,1-.86-4.71c0-.1-.12-.11-.14,0a6,6,0,0,0,0,2.6,4.9,4.9,0,0,0,.79,2.25A.12.12,0,0,0,50.94,64.28Z"/><path class="cls-10" d="M50.51,64.47a9.68,9.68,0,0,1-.81-2.28,12,12,0,0,1,0-2.54.08.08,0,1,0-.15,0c-.29,1.51-.52,3.85.77,5C50.4,64.73,50.57,64.59,50.51,64.47Z"/><path class="cls-10" d="M59.51,60.57c0-.34.07-1.15-.16-1.41,0,0-.09,0-.09,0a6.74,6.74,0,0,0,.43,3.67c0,.06.13,0,.12,0C59.72,62.07,59.57,61.33,59.51,60.57Z"/><path class="cls-10" d="M60.51,61.52c0-.78.05-1.56,0-2.33a.08.08,0,0,0-.16,0A9.28,9.28,0,0,0,60.65,64c0,.06.11,0,.1,0C60.7,63.18,60.56,62.35,60.51,61.52Z"/><path class="cls-10" d="M59.92,61.32c-.06-.65,0-1.31,0-2,0-.08-.13-.07-.15,0a6.23,6.23,0,0,0,.44,4.15s.1,0,.09,0A13,13,0,0,1,59.92,61.32Z"/><path class="cls-10" d="M68.36,61.46a15.62,15.62,0,0,0,0-2.37c0-.09-.16-.1-.17,0-.13,1.51-.5,3.72.56,5a.12.12,0,0,0,.2-.12A10.29,10.29,0,0,1,68.36,61.46Z"/><path class="cls-10" d="M69.13,61.69c-.07-.84.09-1.65.08-2.48,0-.11-.15-.09-.17,0-.33,1.37-.73,3.79.43,4.91.07.07.22,0,.2-.12A12.93,12.93,0,0,1,69.13,61.69Z"/><path class="cls-10" d="M81.2,61.71c0-.87-.21-2.4-1-2.94a.06.06,0,0,0-.09.07,9.11,9.11,0,0,1,.62,2.62c.08.74-.28,1.53-.17,2.22,0,.07.1.14.17.1C81.33,63.45,81.21,62.28,81.2,61.71Z"/><path class="cls-10" d="M81.25,58.85a.1.1,0,0,0-.18.1,7,7,0,0,1,.38,4.49c0,.07.06.14.11.07A4.14,4.14,0,0,0,81.25,58.85Z"/><path class="cls-10" d="M91.55,60.55a2.78,2.78,0,0,0-.77-2c-.09-.07-.2,0-.14.14.87,1.32.61,3.21.42,4.67a.15.15,0,0,0,.29.08A7.09,7.09,0,0,0,91.55,60.55Z"/><path class="cls-10" d="M90.44,58.58a.09.09,0,0,0-.16.09A12.12,12.12,0,0,1,90.74,60a10.43,10.43,0,0,1,.12,1.48.15.15,0,0,0,.3,0A3.81,3.81,0,0,0,90.44,58.58Z"/><path class="cls-11" d="M94.06,60.58a2,2,0,0,0-.71-1.07A2.09,2.09,0,0,1,92,60.62a15.46,15.46,0,0,1-3.4.05c-3.3-.05-6.61,0-9.91.12l-10,.22-10.15.25-8.37.2c-1.53,0-7.75.09-9,.11l-10,.22-9.8.23c-3.24.08-6.49.14-9.72.34a14.94,14.94,0,0,1-3.34.1,2.05,2.05,0,0,1-1.47-1.13A2,2,0,0,0,6,62.59,2.32,2.32,0,0,0,7.72,65.4a14.82,14.82,0,0,0,3.39-.1C14.38,65.1,17.67,65,21,65l9.94-.24L41,64.5c1.23,0,7.54-.08,9.09-.11l8.48-.21,10.28-.26L79,63.7c3.34-.08,6.69-.18,10-.12a15.22,15.22,0,0,0,3.44-.06A2.37,2.37,0,0,0,94.06,60.58Z"/><path class="cls-11" d="M81.11,62.75,70.24,63l-11,.27-9.11.22c-1.67,0-8.44.1-9.77.12l-10.84.24-10.68.26c-3.52.09-7,.15-10.57.37-.57,0-1.16.11-1.75.15a2,2,0,0,0,1.25.77,14.82,14.82,0,0,0,3.39-.1C14.38,65.1,17.67,65,21,65l9.94-.24L41,64.5c1.23,0,7.54-.08,9.09-.11l8.48-.21,10.28-.26L79,63.7c3.34-.08,6.69-.18,10-.12a15.22,15.22,0,0,0,3.44-.06,2,2,0,0,0,1.22-.82c-.6,0-1.2-.07-1.78-.07C88.3,62.57,84.71,62.67,81.11,62.75Z"/><g class="cls-12"><path class="cls-13" d="M8.77,61.12a3.06,3.06,0,0,0-1.27.14.16.16,0,0,0,0,.32,4.19,4.19,0,0,0,.5,0,6.48,6.48,0,0,0,.77-.09A.17.17,0,0,0,8.77,61.12Z"/><path class="cls-13" d="M10.11,60.94a1.1,1.1,0,0,0-.54,0,.16.16,0,0,0,0,.31,1.1,1.1,0,0,0,.54,0A.16.16,0,0,0,10.11,60.94Z"/><path class="cls-13" d="M21.45,60.73a26.2,26.2,0,0,0-4.06,0,20.78,20.78,0,0,0-3.7.21.06.06,0,0,0,0,.11,18.28,18.28,0,0,0,3.47.07A35.87,35.87,0,0,0,21.44,61,.14.14,0,0,0,21.45,60.73Z"/><path class="cls-13" d="M33.56,60.54a21.18,21.18,0,0,0-4.21.05c-1.69,0-3.36,0-5,.15-.07,0-.07.12,0,.13,1.56.09,3.14.17,4.71.19a21.5,21.5,0,0,0,4.54-.18A.17.17,0,0,0,33.56,60.54Z"/><path class="cls-13" d="M48.84,60a37.69,37.69,0,0,0-5.52.06,32.49,32.49,0,0,0-5.41.3c-.08,0-.09.15,0,.15,1.72,0,3.4.1,5.12,0a46.88,46.88,0,0,0,5.81-.21A.18.18,0,0,0,48.84,60Z"/><path class="cls-13" d="M57.73,59.91a24.87,24.87,0,0,0-2.59,0c-.89,0-1.81.16-2.69.14a.07.07,0,0,0,0,.14,12.16,12.16,0,0,0,2.34.07,22.48,22.48,0,0,0,3,0A.15.15,0,0,0,57.73,59.91Z"/><path class="cls-13" d="M67.39,59.84c-1.85-.34-3.75.06-5.6,0-.07,0-.08.08,0,.1a14.53,14.53,0,0,0,2.8.14,13.89,13.89,0,0,0,2.81,0A.12.12,0,0,0,67.39,59.84Z"/><path class="cls-13" d="M78.09,59.67c-2.74-.3-5.49,0-8.24-.08-.18,0-.22.27,0,.29a23.73,23.73,0,0,0,3.77.13c1.5-.1,3,0,4.51-.15A.1.1,0,0,0,78.09,59.67Z"/><path class="cls-13" d="M80.08,59.62a1.63,1.63,0,0,0-1.15-.13c-.16,0-.18.29,0,.3a4.93,4.93,0,0,0,1.08.09C80.12,59.86,80.2,59.69,80.08,59.62Z"/><path class="cls-13" d="M89,59.18a30.18,30.18,0,0,0-6.23.16s-.05.08,0,.08a32.42,32.42,0,0,0,6.23,0A.11.11,0,0,0,89,59.18Z"/><path class="cls-13" d="M92.8,59.32a1.51,1.51,0,0,0-.93-.19c-.14,0-.13.22,0,.24.29,0,.55.14.84.16C92.82,59.53,92.91,59.39,92.8,59.32Z"/></g><path class="cls-10" d="M14,74.72a21.05,21.05,0,0,1-.83-3.09,23.13,23.13,0,0,1-.09-3c0-.12-.16-.1-.19,0a10.19,10.19,0,0,0,.8,6.22C13.73,75,14,74.91,14,74.72Z"/><path class="cls-10" d="M16.44,75.47a11.68,11.68,0,0,1-1.17-3,21.74,21.74,0,0,1-.18-3.13c0-.16-.27-.16-.29,0-.17,2.21-.18,4.53,1.35,6.32C16.27,75.77,16.53,75.64,16.44,75.47Z"/><path class="cls-10" d="M18.52,74.45a17.92,17.92,0,0,1-.84-2.6,16.78,16.78,0,0,1-.15-3,.14.14,0,0,0-.28,0,8.51,8.51,0,0,0,1,5.77C18.36,74.76,18.58,74.61,18.52,74.45Z"/><path class="cls-10" d="M18.7,89.34a17.89,17.89,0,0,1-1.26-5,.08.08,0,1,0-.15,0,10.77,10.77,0,0,0,1.21,5.07C18.57,89.57,18.76,89.46,18.7,89.34Z"/><path class="cls-10" d="M20.9,88.88a18,18,0,0,1-1-3.11,9.16,9.16,0,0,0-.46-2.34.12.12,0,0,0-.22.06c.16.87.22,1.77.37,2.65A9.71,9.71,0,0,0,20.62,89,.15.15,0,0,0,20.9,88.88Z"/><path class="cls-10" d="M23.3,89.41A17.36,17.36,0,0,1,22,83.9c0-.17-.31-.18-.32,0a11.2,11.2,0,0,0,1.24,5.66C23.06,89.77,23.4,89.64,23.3,89.41Z"/><path class="cls-10" d="M24.79,82.47a10.34,10.34,0,0,1-1.15-2.89,32.81,32.81,0,0,1-.44-3.43c0-.12-.21-.13-.22,0a10.09,10.09,0,0,0,1.53,6.48C24.62,82.78,24.88,82.63,24.79,82.47Z"/><path class="cls-10" d="M26.6,82.81a25.48,25.48,0,0,1-1-3.29c-.2-1-.26-2.1-.44-3.15a.12.12,0,0,0-.24,0c.26,2.3.37,4.41,1.46,6.5A.12.12,0,0,0,26.6,82.81Z"/><path class="cls-10" d="M28.79,81.63a29.18,29.18,0,0,1-1-4.09.11.11,0,0,0-.21,0,9.51,9.51,0,0,0,1,4.21A.15.15,0,0,0,28.79,81.63Z"/><path class="cls-10" d="M29,76.43a22.06,22.06,0,0,1-.67-2.54c-.15-1-.25-2.1-.38-3.14a.13.13,0,0,0-.26,0,15.07,15.07,0,0,0,1,5.73C28.75,76.65,29,76.6,29,76.43Z"/><path class="cls-10" d="M31.59,76.48a15.67,15.67,0,0,1-1.08-3.06A18.84,18.84,0,0,0,30,70.85a.09.09,0,0,0-.18.05c.37,2,.3,4,1.47,5.76A.18.18,0,0,0,31.59,76.48Z"/><path class="cls-10" d="M32.73,70.83a.07.07,0,0,0-.14,0,43.12,43.12,0,0,0,1,5.15c0,.14.28.08.25-.07C33.58,74.24,33.21,72.5,32.73,70.83Z"/><path class="cls-10" d="M43.1,80.25a.1.1,0,0,0-.19,0,11,11,0,0,0,.2,5.13c0,.18.36.1.32-.09A16.54,16.54,0,0,1,43.1,80.25Z"/><path class="cls-10" d="M44.85,80.47c0-.18-.32-.18-.33,0a15.61,15.61,0,0,0,.61,5.81.15.15,0,0,0,.29-.08A44,44,0,0,1,44.85,80.47Z"/><path class="cls-10" d="M48.85,85.54a22,22,0,0,1-1.15-5.68c0-.18-.27-.13-.27,0a12.79,12.79,0,0,0,1.11,5.77A.17.17,0,0,0,48.85,85.54Z"/><path class="cls-10" d="M50.24,74c0-.09-.17-.09-.17,0a26.94,26.94,0,0,0,.33,6.53.14.14,0,0,0,.28,0A64.3,64.3,0,0,1,50.24,74Z"/><path class="cls-10" d="M52.73,73.43c0-.15-.2-.17-.23,0a13.72,13.72,0,0,0-.09,6.34.14.14,0,0,0,.27,0A29.21,29.21,0,0,1,52.73,73.43Z"/><path class="cls-10" d="M55.11,76.33c-.08-1.16,0-2.33,0-3.48,0-.15-.23-.14-.25,0a13.55,13.55,0,0,0,.66,7.25A.15.15,0,0,0,55.8,80,35.76,35.76,0,0,1,55.11,76.33Z"/><path class="cls-10" d="M66.1,81c.1-1.17.39-2.34.56-3.51a.11.11,0,0,0-.22,0c-.58,2.45-1.19,4.82-.57,7.32a.2.2,0,0,0,.39-.05A17.25,17.25,0,0,1,66.1,81Z"/><path class="cls-10" d="M68.5,78.61a.14.14,0,0,0-.28,0A18.06,18.06,0,0,0,68,85.2a.15.15,0,0,0,.3,0A41,41,0,0,1,68.5,78.61Z"/><path class="cls-10" d="M71.46,80.7a26.8,26.8,0,0,0,.14-3.1c0-.13-.21-.1-.21,0,0,1.12-.29,2.26-.36,3.38a13.39,13.39,0,0,0,.15,3.35.16.16,0,0,0,.31,0C71.45,83.11,71.42,81.91,71.46,80.7Z"/><path class="cls-10" d="M81.44,77.91a16.32,16.32,0,0,0-.88,6.61.12.12,0,0,0,.24,0c.08-1.1.07-2.2.21-3.3s.54-2.18.6-3.27C81.61,77.86,81.47,77.81,81.44,77.91Z"/><path class="cls-10" d="M83.59,78.25c-.37,2.37-1,4.69-.74,7.12,0,.21.37.22.38,0a36.28,36.28,0,0,1,.2-3.76c.12-1.11.39-2.21.42-3.33A.13.13,0,0,0,83.59,78.25Z"/><path class="cls-10" d="M72.56,88.54c0-.78.16-1.56.18-2.34a.08.08,0,0,0-.15,0,6.36,6.36,0,0,0-.34,2.34,9.43,9.43,0,0,0,.23,2.75c0,.18.32.15.29,0A14,14,0,0,1,72.56,88.54Z"/><path class="cls-10" d="M74.89,86.39c0-.11-.14-.14-.19,0a8,8,0,0,0-.07,5.07.14.14,0,0,0,.27-.07A12.5,12.5,0,0,1,74.89,86.39Z"/><path class="cls-10" d="M77.39,86.46a.11.11,0,0,0-.22,0,17.2,17.2,0,0,0,.1,4.7.18.18,0,0,0,.35,0C77.44,89.57,77.59,88,77.39,86.46Z"/><path class="cls-10" d="M74.31,73.31c.07-1,.31-1.9.47-2.86a.08.08,0,0,0-.16,0c-.49,2.09-1,4.08-.29,6.2,0,.12.24.06.22-.06A13.75,13.75,0,0,1,74.31,73.31Z"/><path class="cls-10" d="M77.19,73.35c0-.88.18-1.75.18-2.64,0-.13-.23-.13-.23,0-.15,2.12-.67,4.16,0,6.26.05.19.34.1.32-.09A19.76,19.76,0,0,1,77.19,73.35Z"/><path class="cls-10" d="M80.3,70.81c0-.17-.26-.21-.27,0-.11,2.08-.76,4.14-.37,6.24A.15.15,0,0,0,80,77,60.43,60.43,0,0,1,80.3,70.81Z"/><path class="cls-10" d="M31.92,65.75a19.22,19.22,0,0,1-5.35.46c-.09,0-.1.12,0,.14A9.84,9.84,0,0,0,32,66.07C32.18,66,32.11,65.71,31.92,65.75Z"/><path class="cls-10" d="M32.72,67.6c-1.91.38-4.16,1-6.12.51-.07,0-.1.1,0,.13a6.28,6.28,0,0,0,2.66.33,9.64,9.64,0,0,0,3.57-.68C33,67.82,32.89,67.56,32.72,67.6Z"/><path class="cls-10" d="M26.3,70.58a13.61,13.61,0,0,1-5.05.1c-.07,0-.11.1,0,.13a7.29,7.29,0,0,0,5.16.09C26.55,70.82,26.49,70.54,26.3,70.58Z"/><path class="cls-10" d="M26.63,73.09a21.23,21.23,0,0,1-5.1.14c-.09,0-.13.13,0,.15a9.81,9.81,0,0,0,5.24.08C27,73.4,26.84,73.06,26.63,73.09Z"/><path class="cls-10" d="M26.45,75.31a17.74,17.74,0,0,1-4.77-.12c-.09,0-.12.12,0,.15a7.28,7.28,0,0,0,4.89.24C26.69,75.53,26.61,75.3,26.45,75.31Z"/><path class="cls-10" d="M35.28,77a23,23,0,0,1-6.13.73c-.2,0-.25.3,0,.32a14,14,0,0,0,6.27-.7A.18.18,0,0,0,35.28,77Z"/><path class="cls-10" d="M34.73,79.88a18.73,18.73,0,0,1-5.49.24.14.14,0,0,0-.07.26,9.83,9.83,0,0,0,5.66-.13A.19.19,0,0,0,34.73,79.88Z"/><path class="cls-10" d="M34.55,82.58c-1.5.31-3.34,1-4.88.68a.12.12,0,0,0-.06.22c1.48.51,3.62,0,5-.49A.22.22,0,0,0,34.55,82.58Z"/><path class="cls-10" d="M29.4,84.4c-1.88,0-3.76.34-5.64-.08-.07,0-.1.09,0,.12a9.79,9.79,0,0,0,5.67.29C29.56,84.69,29.61,84.4,29.4,84.4Z"/><path class="cls-10" d="M29.9,86.07a21.23,21.23,0,0,1-5.34.2c-.13,0-.15.17,0,.2a12.7,12.7,0,0,0,5.42,0A.21.21,0,0,0,29.9,86.07Z"/><path class="cls-10" d="M29.85,87.87a16,16,0,0,1-5.38.45c-.11,0-.16.16,0,.19a9.09,9.09,0,0,0,5.5-.36C30.08,88.1,30,87.85,29.85,87.87Z"/><path class="cls-10" d="M20.25,76.93c-2,0-4,.48-6,.23-.12,0-.14.16,0,.19a12.8,12.8,0,0,0,6.12-.15C20.49,77.16,20.39,76.93,20.25,76.93Z"/><path class="cls-10" d="M20,79.71c-1.55-.21-3.1-.18-4.65-.32a.1.1,0,0,0,0,.2A31.37,31.37,0,0,0,20,80C20.16,80,20.2,79.73,20,79.71Z"/><path class="cls-10" d="M20.37,82.08a26.63,26.63,0,0,1-4.64.12.13.13,0,0,0,0,.26,9.11,9.11,0,0,0,4.75-.13A.13.13,0,0,0,20.37,82.08Z"/><path class="cls-10" d="M47.74,75.26c-2.16.07-4.27.15-6.43,0a.08.08,0,0,0,0,.16,17.43,17.43,0,0,0,6.48,0A.13.13,0,0,0,47.74,75.26Z"/><path class="cls-10" d="M49,77.45c-1.38,0-2.76.18-4.15.23a33.56,33.56,0,0,1-3.87-.2.09.09,0,0,0,0,.18,22.39,22.39,0,0,0,8.08.08A.15.15,0,0,0,49,77.45Z"/><path class="cls-10" d="M48.2,79.36a39,39,0,0,1-7.4.14.08.08,0,0,0,0,.16,13.44,13.44,0,0,0,3.23.21,23.84,23.84,0,0,0,4.22-.31A.1.1,0,0,0,48.2,79.36Z"/><path class="cls-10" d="M55,68.18c-1,0-1.89.1-2.85.08s-1.81-.16-2.69-.26a.06.06,0,0,0,0,.12,13.08,13.08,0,0,0,5.56.36C55.11,68.44,55.13,68.18,55,68.18Z"/><path class="cls-10" d="M54.82,69.79a21.65,21.65,0,0,1-5.63-.21c-.08,0-.12.12,0,.16a11.13,11.13,0,0,0,5.7.28A.12.12,0,0,0,54.82,69.79Z"/><path class="cls-10" d="M55.3,71.26a19.61,19.61,0,0,1-7.44.26c-.09,0-.1.1,0,.12a14.09,14.09,0,0,0,7.54-.09C55.54,71.5,55.46,71.23,55.3,71.26Z"/><path class="cls-10" d="M72.87,71.5a21.92,21.92,0,0,1-4,.16,25.57,25.57,0,0,1-3.48-.6.1.1,0,0,0-.06.19,12.78,12.78,0,0,0,7.56.57A.16.16,0,0,0,72.87,71.5Z"/><path class="cls-10" d="M72.09,73.83A20.54,20.54,0,0,1,66,73.57c-.1,0-.14.15,0,.18a11.27,11.27,0,0,0,6.14.42A.17.17,0,0,0,72.09,73.83Z"/><path class="cls-10" d="M73.16,75.89a15.33,15.33,0,0,1-7.67.36c-.18,0-.2.23,0,.27a12.2,12.2,0,0,0,7.85-.31C73.5,76.12,73.37,75.83,73.16,75.89Z"/><path class="cls-10" d="M87.5,70.63a38.5,38.5,0,0,1-5.26-.21c-.12,0-.14.16,0,.19A19.06,19.06,0,0,0,87.5,71C87.7,71,87.7,70.63,87.5,70.63Z"/><path class="cls-10" d="M86.34,72.72a14.52,14.52,0,0,1-4,.07.11.11,0,0,0,0,.22,9.9,9.9,0,0,0,4,0A.16.16,0,0,0,86.34,72.72Z"/><path class="cls-10" d="M85.86,75.46a10.55,10.55,0,0,1-4.43.33c-.11,0-.16.15-.05.19a6.3,6.3,0,0,0,4.56-.21C86.1,75.7,86,75.43,85.86,75.46Z"/><path class="cls-10" d="M79.05,77.92a23.7,23.7,0,0,1-5.19,0c-.1,0-.15.15,0,.18a9.16,9.16,0,0,0,2.45.26,15.73,15.73,0,0,0,2.83-.1A.18.18,0,0,0,79.05,77.92Z"/><path class="cls-10" d="M78.58,81a31.44,31.44,0,0,1-5.57-.5c-.15,0-.21.21-.07.25a17,17,0,0,0,5.64.6C78.78,81.38,78.78,81,78.58,81Z"/><path class="cls-10" d="M78.43,84.13A16.85,16.85,0,0,1,73,83.75a.13.13,0,0,0-.07.25,11.67,11.67,0,0,0,5.56.49A.18.18,0,0,0,78.43,84.13Z"/><g class="cls-14"><path class="cls-8" d="M54.67,68.63c.25,0,.5.37.24.58a3.7,3.7,0,0,1-2.15.49,7.84,7.84,0,0,1-2.84-.46.3.3,0,0,1-.14-.1c-.34-.13-.16-.69.24-.63a16.43,16.43,0,0,0,2.8.22A14.34,14.34,0,0,1,54.67,68.63Z"/><path class="cls-8" d="M52.08,80.09a.31.31,0,0,1-.13.36.33.33,0,0,1-.6.06,8,8,0,0,1-.8-4.15c0-.69,0-2.18.77-2.49a.37.37,0,0,1,.33.09c.38.33.26,1.1.2,1.54A10.77,10.77,0,0,0,52.08,80.09Z"/><path class="cls-8" d="M50.14,71.42c-.53,0-1.42-.34-1.58-.93-.21-.23.1-.67.44-.5,1.61.78,3.64.57,5.36.42.39,0,.45.56.09.66A12.77,12.77,0,0,1,50.14,71.42Z"/><path class="cls-8" d="M53.72,73.52a.34.34,0,0,1,.56.15,3,3,0,0,1-.18,1.86,7.78,7.78,0,0,0,0,2.68c.14.65.41,1.22.57,1.85a.34.34,0,0,1-.5.38c-1.06-.47-1.37-2.09-1.4-3.12S52.8,74.33,53.72,73.52Z"/><path class="cls-8" d="M32.4,72.68c.06.7.13,1.39.24,2.09a1.89,1.89,0,0,1-.06,1,.34.34,0,0,1-.49.2c-1-.64-1.11-2.35-1.15-3.49s0-2,.68-1.88S32.35,72.15,32.4,72.68Z"/><path class="cls-8" d="M33.67,79.57a9.37,9.37,0,0,1-4-.17.34.34,0,0,1-.18-.1.62.62,0,0,1-.14-.14.43.43,0,0,1,.12-.54.1.1,0,0,1,.05,0,.27.27,0,0,1,.28-.16,16.08,16.08,0,0,0,2.86-.14c.84-.09,1.58-.38,2.39-.5a.35.35,0,0,1,.43.32C35.56,79,34.4,79.41,33.67,79.57Z"/><path class="cls-8" d="M35,81.09c-.72,2-4.05,1.7-5.34.57a.33.33,0,0,1,.05-.51.31.31,0,0,1,.4-.27,6.55,6.55,0,0,0,2.82.14c.45-.06,1.48-.59,1.91-.31A.34.34,0,0,1,35,81.09Z"/><path class="cls-8" d="M28.49,73.08c0-.66-.2-1.63.33-2.13a.33.33,0,0,1,.41,0c.57.38.4,1.47.46,2,.1.92.64,1.92.48,2.83a.29.29,0,0,1-.28.24.26.26,0,0,1-.36-.07A5.05,5.05,0,0,1,28.49,73.08Z"/><path class="cls-8" d="M27,66.64a9.4,9.4,0,0,0,2.85.21,9.42,9.42,0,0,1,1.83-.11.34.34,0,0,1,.15.56,4.48,4.48,0,0,1-3.22.71,3,3,0,0,1-1.93-.74.32.32,0,0,1-.06-.15A.33.33,0,0,1,27,66.64Z"/><path class="cls-8" d="M27.51,82.27c-1.54.42-1.77-4.42-1.68-5.12a.35.35,0,0,1,.33-.31.32.32,0,0,1,.51-.06,1.31,1.31,0,0,1,.39.91,13.79,13.79,0,0,0,.46,2.47C27.66,80.58,28.32,82.05,27.51,82.27Z"/><path class="cls-8" d="M26.74,74.39a1.51,1.51,0,0,1-1,.7,4.25,4.25,0,0,1-4.12-.7.32.32,0,0,1,.16-.55.27.27,0,0,1,.28-.06,11.39,11.39,0,0,0,4.43.11C26.71,73.85,26.85,74.19,26.74,74.39Z"/><path class="cls-8" d="M26.2,72.23a4.92,4.92,0,0,1-4.56.46c-.29-.15-.77-.6-.3-.88h0a.37.37,0,0,1,.42-.33,27.67,27.67,0,0,0,4.27.14A.33.33,0,0,1,26.2,72.23Z"/><path class="cls-8" d="M20.38,77.77a.34.34,0,0,1,.34.33c.1,1.3-2.17,1.18-2.94,1.14-.6,0-2.51,0-2.83-.77a.34.34,0,0,1,.28-.6C17,78.28,18.66,77.76,20.38,77.77Z"/><path class="cls-8" d="M15.48,69.84a.18.18,0,0,1,.06-.09,1.17,1.17,0,0,1,.15-.27.68.68,0,0,1,.43-.31.25.25,0,0,1,.39.11,3.27,3.27,0,0,1,.14,1.21A18.43,18.43,0,0,0,17,72.57c.09.36.5,1.38.12,1.7s-.62.13-.88-.18A4.53,4.53,0,0,1,15.48,69.84Z"/><path class="cls-8" d="M13.92,74.09c-.36-.34-.42-1.18-.5-1.64a7.28,7.28,0,0,1,0-2.55.14.14,0,0,1,0-.06.91.91,0,0,1,.44-.71c.73-.38.71,2.88.72,3.12S14.82,75,13.92,74.09Z"/><path class="cls-8" d="M19.87,89a.34.34,0,0,1-.57.24c-.92-.93-1.12-2.43-1.31-3.74,0-.17-.06-.35-.08-.53,0,0,0,0,0-.08v-.06c0-.51.1-.92.57-.92.74,0,.69,1.25.76,1.7A15.46,15.46,0,0,1,19.87,89Z"/><path class="cls-8" d="M19.91,81.48c-1.24.79-5,.7-5.6-.94a.31.31,0,0,1,.14-.36c0-.22.13-.47.4-.36,1.55.61,3.16.26,4.76.49C20.28,80.4,20.58,81.06,19.91,81.48Z"/><path class="cls-8" d="M21.35,88.82a6.64,6.64,0,0,1-1.2-4.17,2.93,2.93,0,0,1,.11-.9c.11-.39.45-.89.93-.61s.3,1,.3,1.51a10,10,0,0,0,.18,2.62,5.41,5.41,0,0,1,.25,1.31A.34.34,0,0,1,21.35,88.82Z"/><path class="cls-8" d="M23.83,77.06a.49.49,0,0,1,.69-.13,2.63,2.63,0,0,1,.31,1.47c.07,1,.39,2,.51,2.95.05.34-.47.44-.62.17A7.11,7.11,0,0,1,23.83,77.06Z"/><path class="cls-8" d="M24.52,84.83c1.23.62,2.7.16,4,.31.23,0,.45.27.29.51-.49.7-1.44.54-2.2.54s-1.95,0-2.48-.76a.26.26,0,0,1,0-.08C23.86,85.12,24.17,84.66,24.52,84.83Z"/><path class="cls-8" d="M24.07,87.14a.34.34,0,0,1,.42-.41l.19.07a.33.33,0,0,1,.22,0,21,21,0,0,0,3.8.3.34.34,0,0,1,.24.57c-.69.7-2.07.54-3,.48S24.38,88,24.07,87.14Z"/><path class="cls-8" d="M70.38,84c0,.34.06.91-.44.91s-.85-.79-1-1.14a5.67,5.67,0,0,1-.29-3.16,7.19,7.19,0,0,1,.43-1.76c.17-.44.51-1.36,1.14-1.29a.49.49,0,0,1,.38.34,2.24,2.24,0,0,1,.13.92l-.09.54c-.08.54-.15,1.09-.21,1.63a13.57,13.57,0,0,0-.09,1.91C70.32,83.3,70.35,83.67,70.38,84Z"/><path class="cls-8" d="M69.15,76.25c-1.08,0-3.5,0-3.7-1.49a.36.36,0,0,1,.12-.34.31.31,0,0,1,.41-.28,10.34,10.34,0,0,0,3.66.65,11.11,11.11,0,0,1,2.21-.18.32.32,0,0,1,.24.32C72,76.29,70.1,76.25,69.15,76.25Z"/><path class="cls-8" d="M67.48,83.62l.06,1a.34.34,0,0,1-.58.24,4.6,4.6,0,0,1-.58-3.61c.15-.86.16-2.5.89-3.11a.34.34,0,0,1,.57.24,11.7,11.7,0,0,1-.28,1.84,2.83,2.83,0,0,0,0,.29c0,.47-.1.94-.11,1.4A16.66,16.66,0,0,0,67.48,83.62Z"/><path class="cls-8" d="M69.36,73.65c-1.13-.05-2.57-.14-3.35-1.1a.27.27,0,0,1-.07-.14c-.18-.23,0-.65.33-.53a10.18,10.18,0,0,0,3.37.6,23.73,23.73,0,0,0,2.67-.32c.27,0,.39.3.29.5C72,73.77,70.42,73.71,69.36,73.65Z"/><path class="cls-8" d="M73.7,91.55a3.63,3.63,0,0,1-1-3.15c.07-.77.11-2.15.87-2.6a.35.35,0,0,1,.5.2,3.11,3.11,0,0,1,0,.61.32.32,0,0,1,.08.29A6.72,6.72,0,0,0,74,89.54a6.6,6.6,0,0,1,.23,1.72C74.2,91.49,73.92,91.72,73.7,91.55Z"/><path class="cls-8" d="M76.7,89.84a4.75,4.75,0,0,1,0,1.19c-.09.31-.33.67-.71.48C75,91,74.81,88.64,74.92,87.68a3.23,3.23,0,0,1,.88-2.2.51.51,0,0,1,.79.11A3.13,3.13,0,0,1,76.82,87a.31.31,0,0,1,0,.19A14.46,14.46,0,0,0,76.7,89.84Z"/><path class="cls-8" d="M77.19,83.52a6.42,6.42,0,0,1-3.31-.47c-1-.26-1.79-.72-1.18-1.43a.33.33,0,0,1,.33-.08l.43.15a10.63,10.63,0,0,0,2.65.23,15.68,15.68,0,0,1,2.65,0,.33.33,0,0,1,.24.23C79.17,83,77.83,83.38,77.19,83.52Z"/><path class="cls-8" d="M77.23,80.57a6.73,6.73,0,0,1-4-1.16.27.27,0,0,1-.09-.3.33.33,0,0,1,.38-.48,13.47,13.47,0,0,0,3.3.27c.86,0,1.77-.11,2.61,0a.34.34,0,0,1,.24.33C79.68,80.27,78,80.59,77.23,80.57Z"/><path class="cls-8" d="M76.5,75.31c.09.42.12,1.13-.41,1.28-1.23.34-1.48-2.73-1.48-3.33s.32-3.8,1.61-3.05a.73.73,0,0,1,.36.62.28.28,0,0,1,.13.36A7.79,7.79,0,0,0,76.5,75.31Z"/><path class="cls-8" d="M79.08,75.49c0,.37.15.79-.12,1.1a.32.32,0,0,1-.4,0c-.78-.4-.92-1.57-1-2.34a7.25,7.25,0,0,1,.45-3.67.49.49,0,0,1,.56-.27.35.35,0,0,1,.37,0c.63.25.41,1.53.19,2.45A12.3,12.3,0,0,0,79.08,75.49Z"/><path class="cls-8" d="M82.89,78.35a27.24,27.24,0,0,0-.31,4.78c0,.53,0,1.61-.64,1.79a.33.33,0,0,1-.33-.08,4.77,4.77,0,0,1-.48-3A14.53,14.53,0,0,1,82,78.32a.5.5,0,0,1,.88,0Z"/><path class="cls-8" d="M87.72,73.63c-.94,1.87-5.32,2.48-6.37.41l0-.1s0,0,0,0a.34.34,0,0,1,0-.1v0a.51.51,0,0,1,.44-.55h.09a.67.67,0,0,1,.39.08,9.16,9.16,0,0,0,5.16-.17C87.64,73,87.84,73.38,87.72,73.63Z"/><path class="cls-8" d="M82,71.27a.33.33,0,0,1,.41-.31,18.44,18.44,0,0,0,4.92.23.34.34,0,0,1,.24.57,4.89,4.89,0,0,1-5.57,0A.31.31,0,0,1,82,71.27Z"/><path class="cls-8" d="M47.88,85.7c.12.4-.16,1-.66.85-1.84-.5-2.2-3.38-2.06-4.93.06-.59.17-1.39.8-1.65.43-.18,1-.17,1.15.38a3.61,3.61,0,0,1,0,1.6A9.58,9.58,0,0,0,47.88,85.7Z"/><path class="cls-8" d="M43.72,79.23A4.43,4.43,0,0,1,41,78.55a.29.29,0,0,1-.09-.28c-.09-.23.08-.55.38-.44,2.23.8,4.41.28,6.7.3a.34.34,0,0,1,.09.66A12.73,12.73,0,0,1,43.72,79.23Z"/><path class="cls-8" d="M44.29,81.59a14.34,14.34,0,0,0,.34,4c0,.29-.32.63-.56.33a4.7,4.7,0,0,1-.81-2.64,6,6,0,0,1,.13-2.6.46.46,0,0,1,.87,0,1.36,1.36,0,0,1,0,.8A.33.33,0,0,1,44.29,81.59Z"/><path class="cls-8" d="M41.35,76h0a.35.35,0,0,1,.18,0,33.46,33.46,0,0,0,6.25,0,.34.34,0,0,1,.33.34c0,1.09-1.8,1-2.53,1-1.56.06-3.23.38-4.51-.74A.34.34,0,0,1,41.35,76Z"/></g><g class="cls-15"><path class="cls-8" d="M8.68,64.8c1.2,4.8,4.3,16.83,6.17,21.38,2.36,5.73,1.26,8.24,9,9,6.69.67,20.46.36,26.28.21,5.82.15,19.59.46,26.28-.21,7.77-.79,6.68-3.3,9-9,1.87-4.55,5.21-18.45,6.42-23.25ZM82.82,85.86a8.4,8.4,0,0,1-1.4,1.32c-2.73,2-6.42,2.64-9.81,2.91-1.94.15-3.88.17-5.83.19-6.83.09-13.64.66-20.47.76q-4.81.08-9.65,0c-5-.1-10.53.42-15.18-1.76a13,13,0,0,1-6.08-6.78c-1.82-4.08-5.55-14.44,3-14,2.4.13,4.76.16,7.16.18,7.4.06,14.79.26,22.19.11q3.21-.06,6.42-.22c7.56-.39,18.54-1.08,26.11-1.29,2.26-.06,5.1-.49,7.22.41C90.8,69.54,84.41,84,82.82,85.86Z"/></g><path class="cls-16" d="M36.3,70.28c-3.27,0-6.54,0-9.8,0-2.39,0-5.48-.48-7.74.31-2.89,1-1.16,4.5-.34,6.15a9.62,9.62,0,0,0,3.95,3.92C27,83.33,33.26,84,38.84,84.26c4.59.21,9.19.12,13.78-.11,6.07-.29,12.34-.2,18.27-1.44a19.33,19.33,0,0,0,13-9.37c.59-1.12,2-3.35.17-4.18-2-.91-24.41.86-33.06,1Q43.63,70.21,36.3,70.28Z"/><g class="cls-17"><path class="cls-8" d="M83.28,90c-5.26,3.84-23,3.14-26.1,3.21-6.29.14-12.58.17-18.87.14-3.17,0-15-.67-17.66-1.21a9.05,9.05,0,0,1-4.57-2.19c1,3.14,1.9,4.69,7.71,5.28,6.68.67,20.45.36,26.27.21,5.82.15,19.6.46,26.28-.21,6.34-.64,6.78-2.43,8-6.17A8.59,8.59,0,0,1,83.28,90Z"/><path class="cls-8" d="M15.44,65.64c4.4-.39,8.86-.11,13.27-.13,6.34,0,12.68-.29,19-.32s12.75.11,19.12,0,12.58-.74,18.83-.41c1.29.06,3.83,0,4.68,1.26a2.34,2.34,0,0,1,.36,1.19l1.06-4.27L8.58,64.8l.65,2.55a5,5,0,0,1,1.47-.71A14.29,14.29,0,0,1,15.44,65.64Z"/></g><path class="cls-13" d="M41.67,90a15.23,15.23,0,0,1-3.07-.31A10.42,10.42,0,0,1,36,88.82a2.72,2.72,0,0,1-1.34-1.08,2.24,2.24,0,0,1-.3-1.37,2.42,2.42,0,0,1,.5-1.25A2,2,0,0,1,36,84.41a2.54,2.54,0,0,1,1.57.2,11.45,11.45,0,0,0,2.09.68,9.3,9.3,0,0,0,1.88.19,5.35,5.35,0,0,0,1.77-.25,2.19,2.19,0,0,0,1.09-.77,2.08,2.08,0,0,0,.36-1.23A1.73,1.73,0,0,0,44,81.68a3.83,3.83,0,0,0-2.16-.5H40.19a2.43,2.43,0,0,1-1.74-.57,2.14,2.14,0,0,1-.6-1.63,2.1,2.1,0,0,1,.6-1.61,2.47,2.47,0,0,1,1.74-.55h1.12a4,4,0,0,0,1.46-.24,2,2,0,0,0,1-.73,1.9,1.9,0,0,0,.34-1.14,1.8,1.8,0,0,0-.72-1.53,3.52,3.52,0,0,0-2.13-.54,7.71,7.71,0,0,0-1.67.19,8.61,8.61,0,0,0-1.88.68,2.26,2.26,0,0,1-1.43.12,2.05,2.05,0,0,1-1.07-.71,2.37,2.37,0,0,1-.51-1.17,2.15,2.15,0,0,1,.22-1.28,2.45,2.45,0,0,1,1.19-1,11.82,11.82,0,0,1,2.72-1,13.23,13.23,0,0,1,3-.35,10.59,10.59,0,0,1,4.09.71,5.76,5.76,0,0,1,2.59,2,5.46,5.46,0,0,1,.9,3.15,5.16,5.16,0,0,1-.47,2.22,4.5,4.5,0,0,1-1.34,1.69,5.38,5.38,0,0,1-2.07,1v-.42A5.09,5.09,0,0,1,50,83.77a5.59,5.59,0,0,1-1,3.32,6.39,6.39,0,0,1-2.86,2.17A11.7,11.7,0,0,1,41.67,90Z"/><path class="cls-13" d="M60.35,90a7,7,0,0,1-6-2.88C53,85.21,52.26,82.48,52.26,79A16.64,16.64,0,0,1,53.19,73a7.13,7.13,0,0,1,7.16-4.94,7,7,0,0,1,6,2.79q2.07,2.78,2.07,8.07a17,17,0,0,1-.93,6,8,8,0,0,1-2.74,3.78A7.32,7.32,0,0,1,60.35,90Zm0-4.42A2.27,2.27,0,0,0,62.49,84,13.58,13.58,0,0,0,63.18,79a12.8,12.8,0,0,0-.69-5,2.29,2.29,0,0,0-4.28,0,12.8,12.8,0,0,0-.69,5A13.58,13.58,0,0,0,58.21,84,2.27,2.27,0,0,0,60.35,85.6Z"/></g></g></svg>