<svg id="Layer_1" data-name="Layer 1" xmlns="http://www.w3.org/2000/svg" viewBox="0 0 105.29 104.84"><defs><style>.cls-1{fill:#ff8c03;}.cls-2{fill:#fcbc08;}.cls-3{fill:#f28106;opacity:0.7;}.cls-4{fill:#7c6a13;}.cls-5{fill:#937b18;}</style></defs><title>orange2</title><path class="cls-1" d="M52.82,30.37c6,4.3,13.79,17.93,4.57,29.14S34.7,71.39,24.54,64.8C14,57.94,8.9,41.2,21.7,29.22,32,19.61,43.84,23.87,52.82,30.37Z"/><path class="cls-2" d="M27.91,28.77h0Z"/><path class="cls-2" d="M29.29,30.18c.7-.33,1.48-1,.82-1.66s-1.55.09-2.18.24C27.07,29.54,27.43,31.07,29.29,30.18Z"/><path class="cls-2" d="M27.94,28.76,29,28.35A1.65,1.65,0,0,0,27.94,28.76Z"/><path class="cls-2" d="M26,31.76c.27-.19.62-.58.28-.86a.45.45,0,0,0-.67.14.83.83,0,0,0-.43.57C25.15,32.18,25.76,32,26,31.76Z"/><path class="cls-2" d="M30.59,31.4a.66.66,0,0,0-.65,0c-.31,0-.7.16-.77.41a.3.3,0,0,0,0,.16l-.09.06.09-.05c.09.28.77.07,1,0S31.13,31.69,30.59,31.4Z"/><path class="cls-2" d="M29.07,32.06l0,0Z"/><path class="cls-2" d="M32.06,29.87c-.3.08-.64.41-.47.7s.88.18,1.13,0C33.72,30.06,32.43,29.65,32.06,29.87Z"/><path class="cls-2" d="M33.31,28.06c-.21,0-.58-.13-.74.05a.29.29,0,0,0,0,.35c0,.2.36.39.5.46.3.15,1.82.63,1.93.12S33.68,28.11,33.31,28.06Z"/><path class="cls-2" d="M31.65,27c.31.16,1.43.12,1.54-.32s-.61-.55-.9-.51a1.18,1.18,0,0,0-.48.27C31.51,26.62,31.29,26.85,31.65,27Z"/><path class="cls-2" d="M26.23,29.63c.58-.42,0-.66-.44-.57h0c-.26,0-.92.28-.74.64S26,29.8,26.23,29.63Z"/><path class="cls-2" d="M23.8,32.35c.22-.25.88-1.32.12-1.36a.55.55,0,0,0-.4.2,2.11,2.11,0,0,0-.76,1.05C22.46,33.22,23.42,32.77,23.8,32.35Z"/><path class="cls-2" d="M27.89,32.65a1.54,1.54,0,0,0-1,.08,2,2,0,0,0-1.33,1c-.25,1,1.56.29,2,.15C28.08,33.7,28.73,33,27.89,32.65Z"/><path class="cls-2" d="M30.93,33.45c-.29.1-.6.33-.6.57,0,.5,1.05.35,1.34.21C32.78,33.72,31.33,33.23,30.93,33.45Z"/><path class="cls-2" d="M38.08,27.79a.54.54,0,0,0-.5.2,1.4,1.4,0,0,0,2.09,0A1.18,1.18,0,0,0,38.08,27.79Z"/><path class="cls-2" d="M35.14,30.43c.62.21,2.32.32,2.45-.54a1.48,1.48,0,0,0-1.36-.16C35.7,29.7,35.14,29.88,35.14,30.43Z"/><path class="cls-2" d="M36.36,25.91a.9.9,0,0,0-1.24-.12.61.61,0,0,0-.3.36A1.19,1.19,0,0,0,36.36,25.91Z"/><path class="cls-2" d="M41,29.5c-1.25,0,.36,1.59,1.06,1.09S41.47,29.18,41,29.5Z"/><path class="cls-2" d="M23.15,34.59c-.38-.3-.71,0-.93.35-.84.53-1.85,1.78-1,2.08C22.17,37.4,23.13,35.27,23.15,34.59Z"/><path class="cls-2" d="M20.85,33c-1.08.21-.56,2,.46.76C22,33,21.3,32.74,20.85,33Z"/><path class="cls-2" d="M27,36.21a.55.55,0,0,0-.39.49c.4.28,1.47.3,1.74-.22C28.73,35.7,27.34,35.6,27,36.21Z"/><path class="cls-2" d="M36.55,33.31l-.06-.09a.63.63,0,0,0-.05.22c-.07.1-.07.19,0,.23.22.57,1.46.6,1.22-.13S36.84,33,36.55,33.31Z"/><path class="cls-2" d="M47.63,31.77c-.73-1-2.23,0-1.29.31C46.9,32.48,48.35,32.74,47.63,31.77Z"/><path class="cls-2" d="M21.8,41.17l.15-.26a1.77,1.77,0,0,0-.8,1.24c.43.11,1.7-.72,1.66-1.27C22.76,40,22.17,40.63,21.8,41.17Z"/><path class="cls-2" d="M33.12,38.38a.3.3,0,0,0,.42.1c.53.06,1.49-.07,1.08-.62S33.27,38,33.12,38.38Z"/><path class="cls-2" d="M17.49,37.83a.89.89,0,0,0-.07.43c.64.22,2.27,0,1.73-1S17.67,37.1,17.49,37.83Z"/><path class="cls-2" d="M19.71,35.16h0a.53.53,0,0,0-.66.52.81.81,0,0,0,1.11-.42A.76.76,0,0,0,19.71,35.16Z"/><path class="cls-3" d="M21.81,57.37c-2.34,1.69,9.59,10.2,17.34,9.9A22.81,22.81,0,0,0,57.9,55.5c2.06-4.21,1.34-16.15-1.23-15.32-.91.3.21,4.35-3.55,10.49-3.3,5.39-8.93,10.7-16.38,10.34C26.53,60.51,23.36,56.26,21.81,57.37Z"/><path class="cls-4" d="M47.39,27.82a1.08,1.08,0,0,0-1,1.64c.64,1.57,4.53,4.12,5.65,3.69s1.17-1.7-.46-2.93S48.88,28,47.39,27.82Z"/><path class="cls-4" d="M49.42,29.92s4.5-4.59,5.79-6.31,4.27-8.3,4.27-8.3.4-.58,1-.47.4.91.4.91-3.15,6.34-4.42,8.08c-2.6,3.54-6,7.4-6,7.4Z"/><path class="cls-4" d="M57.28,21.28c-.28-.06-7.44-.93-7.44-.93l-.27.42,3.69.6L57,22Z"/><path class="cls-4" d="M41.78,29.53c-7.69,1.92-19.06-3.47-19.06-3.47s7.59-8.7,14.1-9.36,17.82,4.46,17.82,4.46S49.48,27.6,41.78,29.53Z"/><path class="cls-5" d="M47.46,28.29a1.58,1.58,0,0,0-.18,1.55c.56,1.06,2.8,2.19,2.8,2.19l.18-1.38s-.6-.41-.66-.75a.79.79,0,0,1,.06-.53Z"/><path class="cls-5" d="M52.12,21.34a61.38,61.38,0,0,0-12.88.12c-6,.85-15,3.66-14.89,4.06S34.22,22.3,39,22s13.44,0,13.44,0Z"/><path class="cls-5" d="M49.1,21.56a6.82,6.82,0,0,1-1.25,2.31c-1.09,1.46-2.39,3.34-2.17,3.3a19.86,19.86,0,0,0,2.5-3.07c.71-1,1.63-2.49,1.63-2.49Z"/><path class="cls-5" d="M43.12,21.61a10.25,10.25,0,0,1-1.32,3.75C40.48,28,40,28.8,40.27,28.86s1.32-2,2-3.42,1.69-3.93,1.69-3.93Z"/><path class="cls-5" d="M37.3,22.14a7,7,0,0,1-.46,2.79c-.59,2-1.31,3.09-1,3.22s1-1.69,1.36-3.12,1-3.18,1-3.18Z"/><path class="cls-5" d="M31.05,23.6a4.55,4.55,0,0,1-.32,1.64c-.37,1-.95,2-.78,2A3.51,3.51,0,0,0,31,25.47c.26-.91.55-2,.55-2Z"/><path class="cls-5" d="M49.81,21.4a8.65,8.65,0,0,0-2.26-2.13,7.07,7.07,0,0,0-2.91-1.17c-.15.14,1.66.64,2.3,1.06a24.12,24.12,0,0,1,2.36,2.23Z"/><path class="cls-5" d="M43.66,21.23a5.64,5.64,0,0,0-1.84-2.41,9.08,9.08,0,0,0-4.1-1.57c-.39.12,3,1,3.75,1.7a8.18,8.18,0,0,1,1.39,2.36Z"/><path class="cls-5" d="M38.16,21.85A13.33,13.33,0,0,0,35.4,19.7a11.65,11.65,0,0,0-3.32-.82c-.39.05,2.55.64,3.37,1.21A17.9,17.9,0,0,1,37.53,22Z"/><path class="cls-5" d="M31,23.43s-.1-.48-1.47-1-2.12-.84-1.82-.84a8.43,8.43,0,0,1,1.81.46,11.39,11.39,0,0,1,2.14,1.19Z"/><path class="cls-1" d="M82.37,51.34c5.95,4.31,13.78,17.93,4.57,29.14S64.25,92.36,54.09,85.77c-10.57-6.85-15.64-23.6-2.84-35.58C61.51,40.58,73.38,44.84,82.37,51.34Z"/><path class="cls-2" d="M57.45,49.74h0Z"/><path class="cls-2" d="M58.84,51.16c.69-.34,1.47-1,.82-1.66s-1.55.08-2.18.23C56.61,50.52,57,52.05,58.84,51.16Z"/><path class="cls-2" d="M57.48,49.73l1.07-.41A1.68,1.68,0,0,0,57.48,49.73Z"/><path class="cls-2" d="M55.58,52.73c.26-.19.62-.58.27-.86a.47.47,0,0,0-.67.14.85.85,0,0,0-.43.57C54.69,53.15,55.3,52.93,55.58,52.73Z"/><path class="cls-2" d="M60.14,52.38a.67.67,0,0,0-.66,0c-.31,0-.7.16-.77.41a.47.47,0,0,0,0,.16l-.09.06.1-.05c.08.28.76.08,1,0S60.67,52.66,60.14,52.38Z"/><path class="cls-2" d="M58.61,53l0,0Z"/><path class="cls-2" d="M61.6,50.84c-.3.09-.64.42-.46.7s.87.18,1.12.05C63.27,51,62,50.62,61.6,50.84Z"/><path class="cls-2" d="M62.85,49c-.2,0-.58-.13-.74,0a.29.29,0,0,0,0,.35c0,.21.36.39.5.46.3.15,1.83.64,1.94.13S63.23,49.08,62.85,49Z"/><path class="cls-2" d="M61.19,48c.32.16,1.43.12,1.55-.32s-.61-.54-.9-.5a1.1,1.1,0,0,0-.49.27C61.06,47.6,60.83,47.82,61.19,48Z"/><path class="cls-2" d="M55.78,50.61c.58-.43,0-.66-.45-.58h0c-.27,0-.92.29-.75.64S55.55,50.77,55.78,50.61Z"/><path class="cls-2" d="M53.34,53.32c.22-.25.88-1.31.12-1.36a.57.57,0,0,0-.39.2,2.18,2.18,0,0,0-.77,1.05C52,54.19,53,53.75,53.34,53.32Z"/><path class="cls-2" d="M57.43,53.62a1.54,1.54,0,0,0-1,.08,2,2,0,0,0-1.33,1c-.25,1,1.57.29,1.95.16C57.63,54.67,58.28,53.93,57.43,53.62Z"/><path class="cls-2" d="M60.47,54.42c-.28.1-.6.33-.59.57,0,.5,1,.35,1.33.22C62.33,54.69,60.87,54.2,60.47,54.42Z"/><path class="cls-2" d="M67.63,48.77a.49.49,0,0,0-.5.2,1.39,1.39,0,0,0,2.08,0A1.17,1.17,0,0,0,67.63,48.77Z"/><path class="cls-2" d="M64.68,51.4c.63.21,2.32.32,2.46-.54a1.5,1.5,0,0,0-1.36-.16C65.25,50.68,64.69,50.85,64.68,51.4Z"/><path class="cls-2" d="M65.91,46.89a.91.91,0,0,0-1.25-.13.56.56,0,0,0-.29.36A1.2,1.2,0,0,0,65.91,46.89Z"/><path class="cls-2" d="M70.52,50.48c-1.25,0,.36,1.58,1,1.08S71,50.15,70.52,50.48Z"/><path class="cls-2" d="M52.7,55.56c-.39-.3-.72,0-.94.35-.83.53-1.84,1.78-1,2.08C51.71,58.37,52.68,56.24,52.7,55.56Z"/><path class="cls-2" d="M50.4,53.94c-1.08.21-.57,2,.46.77C51.49,54,50.84,53.72,50.4,53.94Z"/><path class="cls-2" d="M56.53,57.18a.56.56,0,0,0-.4.49c.41.28,1.48.31,1.74-.22C58.27,56.67,56.89,56.57,56.53,57.18Z"/><path class="cls-2" d="M66.09,54.28,66,54.2a.91.91,0,0,0,0,.21c-.06.1-.06.19,0,.23.23.58,1.46.6,1.23-.13S66.38,54,66.09,54.28Z"/><path class="cls-2" d="M77.18,52.74c-.73-1-2.24,0-1.29.31C76.45,53.45,77.89,53.71,77.18,52.74Z"/><path class="cls-2" d="M51.35,62.14l.14-.26a1.75,1.75,0,0,0-.79,1.24c.43.11,1.69-.72,1.66-1.27C52.31,61,51.72,61.61,51.35,62.14Z"/><path class="cls-2" d="M62.67,59.36a.3.3,0,0,0,.42.09c.52.06,1.48-.07,1.07-.62S62.81,58.93,62.67,59.36Z"/><path class="cls-2" d="M47,58.81a.85.85,0,0,0-.06.43c.64.21,2.26,0,1.73-1S47.22,58.07,47,58.81Z"/><path class="cls-2" d="M49.26,56.14v0a.54.54,0,0,0-.66.52.8.8,0,0,0,1.11-.42A.73.73,0,0,0,49.26,56.14Z"/><path class="cls-3" d="M51.36,78.35C49,80,60.94,88.54,68.69,88.24A22.85,22.85,0,0,0,87.45,76.48c2-4.21,1.33-16.16-1.23-15.32-.92.3.21,4.35-3.55,10.48C79.37,77,73.74,82.34,66.28,82,56.08,81.48,52.91,77.23,51.36,78.35Z"/><path class="cls-4" d="M76.94,48.8a1.07,1.07,0,0,0-1,1.64c.64,1.56,4.53,4.11,5.65,3.69s1.16-1.71-.47-2.94S78.42,49,76.94,48.8Z"/><path class="cls-4" d="M79,50.9s4.51-4.59,5.79-6.32S89,36.29,89,36.29a1.07,1.07,0,0,1,1-.48c.55.1.39.92.39.92S87.22,43.06,86,44.8c-2.59,3.55-6,7.41-6,7.41Z"/><path class="cls-4" d="M86.83,42.25c-.28,0-7.45-.93-7.45-.93l-.27.42,3.7.6,3.69.6Z"/><path class="cls-4" d="M71.32,50.5c-7.69,1.93-19-3.47-19-3.47s7.59-8.7,14.1-9.36,17.81,4.46,17.81,4.46S79,48.57,71.32,50.5Z"/><path class="cls-5" d="M77,49.26a1.57,1.57,0,0,0-.17,1.55c.56,1.07,2.79,2.19,2.79,2.19l.19-1.38s-.6-.4-.66-.75a.79.79,0,0,1,.06-.53Z"/><path class="cls-5" d="M81.67,42.31a61.46,61.46,0,0,0-12.89.12c-6,.85-15,3.67-14.88,4.06S63.76,43.28,68.59,43s13.43,0,13.43,0Z"/><path class="cls-5" d="M78.64,42.53a6.49,6.49,0,0,1-1.25,2.31c-1.09,1.46-2.38,3.34-2.16,3.3a20.47,20.47,0,0,0,2.5-3.07c.71-1,1.62-2.49,1.62-2.49Z"/><path class="cls-5" d="M72.66,42.58a10.25,10.25,0,0,1-1.32,3.75C70,49,69.49,49.78,69.82,49.84s1.31-2,2-3.42,1.7-3.94,1.7-3.94Z"/><path class="cls-5" d="M66.84,43.12a7.06,7.06,0,0,1-.45,2.78c-.6,2-1.32,3.09-1,3.22s1-1.69,1.37-3.11,1-3.19,1-3.19Z"/><path class="cls-5" d="M60.59,44.57a4.35,4.35,0,0,1-.32,1.65c-.36,1-.94,2-.77,2a3.58,3.58,0,0,0,1.07-1.8c.26-.91.55-2,.55-2Z"/><path class="cls-5" d="M79.35,42.37a8.46,8.46,0,0,0-2.26-2.13,7.2,7.2,0,0,0-2.9-1.17c-.16.14,1.65.65,2.29,1.06a24.12,24.12,0,0,1,2.36,2.23Z"/><path class="cls-5" d="M73.2,42.2a5.63,5.63,0,0,0-1.83-2.41,9.08,9.08,0,0,0-4.1-1.57c-.39.12,3,1,3.75,1.7a8.06,8.06,0,0,1,1.38,2.36Z"/><path class="cls-5" d="M67.7,42.82a12.77,12.77,0,0,0-2.76-2.14,11.77,11.77,0,0,0-3.31-.83c-.39,0,2.54.64,3.36,1.21A17.43,17.43,0,0,1,67.08,43Z"/><path class="cls-5" d="M60.58,44.4s-.1-.48-1.46-1-2.12-.84-1.83-.84a9.32,9.32,0,0,1,1.82.46,11.75,11.75,0,0,1,2.14,1.19Z"/></svg>