<svg id="Layer_1" data-name="Layer 1" xmlns="http://www.w3.org/2000/svg" viewBox="0 0 105.29 104.84"><defs><style>.cls-1{fill:#ff8c03;}.cls-2{fill:#fcbc08;}.cls-3{fill:#f28106;opacity:0.7;}.cls-4{fill:#7c6a13;}.cls-5{fill:#937b18;}</style></defs><title>orange8</title><path class="cls-1" d="M50.55,17.9c5.09,3.69,11.79,15.34,3.91,24.93S35.05,53,26.36,47.35c-9-5.86-13.37-20.18-2.43-30.43C32.71,8.7,42.86,12.34,50.55,17.9Z"/><path class="cls-2" d="M29.24,16.53h0Z"/><path class="cls-2" d="M30.42,17.74c.6-.28,1.27-.88.71-1.42s-1.33.08-1.87.21C28.52,17.2,28.83,18.51,30.42,17.74Z"/><path class="cls-2" d="M29.27,16.52l.91-.34A1.41,1.41,0,0,0,29.27,16.52Z"/><path class="cls-2" d="M27.64,19.09c.22-.16.53-.5.23-.73a.38.38,0,0,0-.57.12.72.72,0,0,0-.37.48C26.88,19.45,27.4,19.26,27.64,19.09Z"/><path class="cls-2" d="M31.54,18.79a.59.59,0,0,0-.56,0c-.27,0-.6.14-.66.35a.23.23,0,0,0,0,.14l-.08.05.08,0c.08.24.66.06.87,0S32,19,31.54,18.79Z"/><path class="cls-2" d="M30.23,19.35l0,0Z"/><path class="cls-2" d="M32.79,17.47c-.26.08-.55.36-.4.61s.75.15,1,0C34.21,17.64,33.11,17.29,32.79,17.47Z"/><path class="cls-2" d="M33.86,15.93c-.18,0-.5-.11-.63,0a.24.24,0,0,0,0,.3c0,.18.31.33.43.39s1.56.55,1.65.11S34.18,16,33.86,15.93Z"/><path class="cls-2" d="M32.44,15.05c.27.14,1.22.11,1.32-.27s-.52-.46-.77-.43a1,1,0,0,0-.41.23C32.32,14.7,32.13,14.89,32.44,15.05Z"/><path class="cls-2" d="M27.81,17.28c.49-.37,0-.57-.38-.5h0c-.22,0-.79.24-.64.54S27.62,17.42,27.81,17.28Z"/><path class="cls-2" d="M25.73,19.6c.18-.21.75-1.13.1-1.16a.43.43,0,0,0-.34.17,1.72,1.72,0,0,0-.65.89C24.58,20.34,25.4,20,25.73,19.6Z"/><path class="cls-2" d="M29.22,19.85a1.34,1.34,0,0,0-.85.07,1.68,1.68,0,0,0-1.14.87c-.21.87,1.34.24,1.67.13C29.39,20.75,30,20.12,29.22,19.85Z"/><path class="cls-2" d="M31.83,20.54c-.25.08-.52.28-.51.48,0,.43.89.3,1.14.19C33.41,20.77,32.16,20.35,31.83,20.54Z"/><path class="cls-2" d="M37.94,15.7a.43.43,0,0,0-.42.17,1.18,1.18,0,0,0,1.78,0A1,1,0,0,0,37.94,15.7Z"/><path class="cls-2" d="M35.42,18c.54.19,2,.28,2.1-.46a1.3,1.3,0,0,0-1.16-.14C35.91,17.33,35.43,17.49,35.42,18Z"/><path class="cls-2" d="M36.47,14.09a.77.77,0,0,0-1.06-.1.49.49,0,0,0-.26.3A1,1,0,0,0,36.47,14.09Z"/><path class="cls-2" d="M40.42,17.16c-1.07,0,.3,1.36.9.93S40.84,16.89,40.42,17.16Z"/><path class="cls-2" d="M25.18,21.51c-.34-.26-.62,0-.8.3-.72.46-1.58,1.52-.9,1.78C24.33,23.92,25.16,22.09,25.18,21.51Z"/><path class="cls-2" d="M23.21,20.13c-.93.18-.49,1.68.39.65C24.14,20.14,23.59,19.94,23.21,20.13Z"/><path class="cls-2" d="M28.45,22.9a.48.48,0,0,0-.34.42c.35.24,1.26.26,1.49-.19C29.94,22.46,28.76,22.38,28.45,22.9Z"/><path class="cls-2" d="M36.63,20.42l-.05-.07a.39.39,0,0,0,0,.18c-.06.09-.06.17,0,.2.2.49,1.25.51,1-.12S36.88,20.18,36.63,20.42Z"/><path class="cls-2" d="M46.11,19.1c-.62-.84-1.91,0-1.1.27C45.49,19.71,46.72,19.93,46.11,19.1Z"/><path class="cls-2" d="M24,27.14l.12-.22A1.51,1.51,0,0,0,23.46,28c.37.1,1.45-.62,1.42-1.09C24.84,26.18,24.33,26.68,24,27.14Z"/><path class="cls-2" d="M33.7,24.76a.26.26,0,0,0,.36.08c.45.05,1.27-.06.92-.53S33.82,24.39,33.7,24.76Z"/><path class="cls-2" d="M20.33,24.29a.65.65,0,0,0,0,.37c.54.18,1.93,0,1.47-.86S20.49,23.66,20.33,24.29Z"/><path class="cls-2" d="M22.23,22v0a.46.46,0,0,0-.56.45.69.69,0,0,0,.95-.36A.6.6,0,0,0,22.23,22Z"/><path class="cls-3" d="M24,41c-2,1.44,8.19,8.72,14.82,8.46a19.53,19.53,0,0,0,16-10.06c1.75-3.6,1.14-13.81-1.06-13.1-.78.25.18,3.72-3,9-2.83,4.61-7.64,9.15-14,8.84C28.06,43.68,25.35,40.05,24,41Z"/><path class="cls-4" d="M45.91,15.73a.92.92,0,0,0-.83,1.4c.55,1.34,3.87,3.52,4.83,3.16s1-1.46-.4-2.51S47.18,15.89,45.91,15.73Z"/><path class="cls-4" d="M47.64,17.52s3.85-3.92,5-5.4A69.06,69.06,0,0,0,56.25,5s.34-.5.81-.41.34.78.34.78-2.69,5.42-3.78,6.91c-2.22,3-5.14,6.33-5.14,6.33Z"/><path class="cls-4" d="M54.36,10.13c-.23-.05-6.36-.79-6.36-.79l-.23.35,3.16.52,3.16.51Z"/><path class="cls-4" d="M41.1,17.18c-6.57,1.65-16.29-3-16.29-3s6.49-7.45,12.06-8S52.1,10,52.1,10,47.7,15.53,41.1,17.18Z"/><path class="cls-5" d="M46,16.13a1.35,1.35,0,0,0-.15,1.32,7.06,7.06,0,0,0,2.39,1.88l.16-1.19s-.51-.34-.56-.64a.61.61,0,0,1,.05-.45Z"/><path class="cls-5" d="M50,10.18a52.56,52.56,0,0,0-11,.11C33.82,11,26.1,13.42,26.2,13.76s8.44-2.75,12.56-3,11.5,0,11.5,0Z"/><path class="cls-5" d="M47.36,10.37a5.47,5.47,0,0,1-1.06,2,13.89,13.89,0,0,0-1.85,2.83,18.14,18.14,0,0,0,2.13-2.63c.61-.89,1.39-2.13,1.39-2.13Z"/><path class="cls-5" d="M42.25,10.41a8.74,8.74,0,0,1-1.13,3.21c-1.13,2.28-1.58,2.94-1.3,3s1.12-1.68,1.69-2.93S43,10.33,43,10.33Z"/><path class="cls-5" d="M37.27,10.87a6,6,0,0,1-.39,2.38c-.5,1.69-1.12,2.64-.89,2.76s.82-1.45,1.17-2.67.85-2.73.85-2.73Z"/><path class="cls-5" d="M31.92,12.11a3.81,3.81,0,0,1-.27,1.41c-.31.87-.8,1.74-.66,1.73a3.08,3.08,0,0,0,.92-1.54c.22-.78.47-1.69.47-1.69Z"/><path class="cls-5" d="M48,10.23A7.26,7.26,0,0,0,46,8.41a6,6,0,0,0-2.49-1c-.13.12,1.42.55,2,.9a21.46,21.46,0,0,1,2,1.91Z"/><path class="cls-5" d="M42.71,10.08A4.83,4.83,0,0,0,41.14,8a7.78,7.78,0,0,0-3.5-1.34c-.34.11,2.56.82,3.2,1.45a7.08,7.08,0,0,1,1.19,2Z"/><path class="cls-5" d="M38,10.61a11.57,11.57,0,0,0-2.36-1.83,10.37,10.37,0,0,0-2.84-.71c-.33,0,2.18.55,2.88,1a15.72,15.72,0,0,1,1.78,1.65Z"/><path class="cls-5" d="M31.92,12s-.09-.41-1.25-.84-1.82-.72-1.57-.72a8.16,8.16,0,0,1,1.56.4,10,10,0,0,1,1.83,1Z"/><path class="cls-1" d="M81.51,18.1c5.1,3.68,11.8,15.33,3.91,24.92S66,53.18,57.33,47.54c-9-5.86-13.38-20.18-2.43-30.43C63.67,8.89,73.83,12.53,81.51,18.1Z"/><path class="cls-2" d="M60.2,16.73h0Z"/><path class="cls-2" d="M61.39,17.94c.59-.29,1.26-.89.7-1.42s-1.32.07-1.86.2C59.49,17.39,59.8,18.7,61.39,17.94Z"/><path class="cls-2" d="M60.23,16.72l.91-.35A1.37,1.37,0,0,0,60.23,16.72Z"/><path class="cls-2" d="M58.6,19.29c.23-.17.53-.5.23-.74a.38.38,0,0,0-.57.12.78.78,0,0,0-.37.48C57.85,19.64,58.37,19.45,58.6,19.29Z"/><path class="cls-2" d="M62.5,19a.59.59,0,0,0-.56,0c-.26,0-.6.14-.66.36a.28.28,0,0,0,0,.13l-.08.05.08,0c.07.24.65.06.86,0S63,19.23,62.5,19Z"/><path class="cls-2" d="M61.2,19.54l0,0Z"/><path class="cls-2" d="M63.75,17.67c-.25.07-.54.35-.39.6s.75.15,1,0C65.18,17.84,64.07,17.48,63.75,17.67Z"/><path class="cls-2" d="M64.82,16.12c-.17,0-.49-.11-.63.05a.23.23,0,0,0,0,.29c0,.18.3.34.42.4s1.57.54,1.66.1S65.14,16.16,64.82,16.12Z"/><path class="cls-2" d="M63.41,15.25c.26.14,1.22.1,1.31-.28s-.52-.46-.76-.43a1,1,0,0,0-.42.23C63.29,14.89,63.1,15.08,63.41,15.25Z"/><path class="cls-2" d="M58.77,17.47c.5-.36,0-.57-.38-.49h0c-.23,0-.79.24-.64.54S58.58,17.61,58.77,17.47Z"/><path class="cls-2" d="M56.69,19.79c.19-.21.75-1.13.1-1.16a.42.42,0,0,0-.33.17,1.89,1.89,0,0,0-.66.89C55.55,20.54,56.37,20.15,56.69,19.79Z"/><path class="cls-2" d="M60.19,20.05a1.3,1.3,0,0,0-.86.06,1.73,1.73,0,0,0-1.14.87c-.21.87,1.34.24,1.68.13S60.91,20.31,60.19,20.05Z"/><path class="cls-2" d="M62.79,20.73c-.25.08-.51.29-.51.49,0,.43.89.3,1.14.18C64.38,21,63.13,20.54,62.79,20.73Z"/><path class="cls-2" d="M68.91,15.89a.44.44,0,0,0-.43.17,1.18,1.18,0,0,0,1.78,0A1,1,0,0,0,68.91,15.89Z"/><path class="cls-2" d="M66.39,18.15c.53.18,2,.27,2.1-.47a1.27,1.27,0,0,0-1.16-.13C66.87,17.53,66.39,17.68,66.39,18.15Z"/><path class="cls-2" d="M67.44,14.29a.77.77,0,0,0-1.07-.11.5.5,0,0,0-.25.3A1,1,0,0,0,67.44,14.29Z"/><path class="cls-2" d="M71.38,17.36c-1.07,0,.31,1.35.9.92S71.8,17.08,71.38,17.36Z"/><path class="cls-2" d="M56.14,21.71c-.33-.26-.61,0-.8.3-.72.45-1.58,1.52-.89,1.78S56.12,22.29,56.14,21.71Z"/><path class="cls-2" d="M54.17,20.32c-.92.18-.48,1.68.39.65C55.11,20.33,54.55,20.13,54.17,20.32Z"/><path class="cls-2" d="M59.41,23.09a.48.48,0,0,0-.33.42c.34.24,1.26.26,1.49-.19C60.91,22.66,59.72,22.57,59.41,23.09Z"/><path class="cls-2" d="M67.59,20.61l0-.07a.65.65,0,0,0,0,.18c0,.09,0,.17,0,.2.19.49,1.25.51,1-.11S67.84,20.37,67.59,20.61Z"/><path class="cls-2" d="M77.08,19.3c-.63-.85-1.91,0-1.11.26C76.45,19.9,77.69,20.12,77.08,19.3Z"/><path class="cls-2" d="M55,27.33l.13-.22a1.48,1.48,0,0,0-.68,1.06c.36.1,1.45-.61,1.42-1.08C55.8,26.37,55.3,26.88,55,27.33Z"/><path class="cls-2" d="M64.67,25A.25.25,0,0,0,65,25c.44.06,1.26-.05.92-.53S64.79,24.58,64.67,25Z"/><path class="cls-2" d="M51.29,24.48a.88.88,0,0,0,0,.37c.55.18,1.94,0,1.48-.86S51.45,23.85,51.29,24.48Z"/><path class="cls-2" d="M53.2,22.2v0a.45.45,0,0,0-.56.45.68.68,0,0,0,.94-.36A.58.58,0,0,0,53.2,22.2Z"/><path class="cls-3" d="M55,41.19c-2,1.45,8.2,8.72,14.83,8.47a19.52,19.52,0,0,0,16-10.07c1.76-3.6,1.14-13.81-1-13.1-.78.26.18,3.72-3,9-2.82,4.61-7.64,9.15-14,8.84C59,43.88,56.32,40.24,55,41.19Z"/><path class="cls-4" d="M76.87,15.92a.92.92,0,0,0-.83,1.4c.55,1.34,3.88,3.52,4.83,3.16s1-1.46-.39-2.51S78.14,16.08,76.87,15.92Z"/><path class="cls-4" d="M78.6,17.72s3.86-3.93,5-5.41a68.51,68.51,0,0,0,3.65-7.09s.34-.5.81-.41.34.79.34.79S85.67,11,84.58,12.5c-2.22,3-5.14,6.34-5.14,6.34Z"/><path class="cls-4" d="M85.33,10.32c-.24-.05-6.37-.79-6.37-.79l-.23.36,3.16.51,3.16.51Z"/><path class="cls-4" d="M72.07,17.38c-6.58,1.64-16.3-3-16.3-3s6.49-7.44,12.06-8,15.24,3.81,15.24,3.81S78.66,15.72,72.07,17.38Z"/><path class="cls-5" d="M76.93,16.32a1.34,1.34,0,0,0-.15,1.33,7,7,0,0,0,2.39,1.87l.16-1.18s-.52-.35-.57-.64a.7.7,0,0,1,0-.46Z"/><path class="cls-5" d="M80.92,10.38a52.2,52.2,0,0,0-11,.1c-5.12.73-12.83,3.13-12.74,3.47s8.44-2.75,12.57-3,11.49,0,11.49,0Z"/><path class="cls-5" d="M78.33,10.56a5.64,5.64,0,0,1-1.07,2,14.19,14.19,0,0,0-1.85,2.83,18,18,0,0,0,2.14-2.63c.6-.88,1.39-2.13,1.39-2.13Z"/><path class="cls-5" d="M73.21,10.6a8.53,8.53,0,0,1-1.12,3.21c-1.13,2.28-1.59,3-1.31,3s1.12-1.68,1.69-2.93,1.45-3.36,1.45-3.36Z"/><path class="cls-5" d="M68.24,11.06a6.32,6.32,0,0,1-.39,2.39c-.51,1.68-1.13,2.64-.9,2.75s.83-1.45,1.17-2.67.85-2.72.85-2.72Z"/><path class="cls-5" d="M62.89,12.3a3.78,3.78,0,0,1-.27,1.41c-.32.87-.81,1.74-.66,1.73a3.09,3.09,0,0,0,.91-1.54c.22-.77.47-1.69.47-1.69Z"/><path class="cls-5" d="M78.93,10.43A7.27,7.27,0,0,0,77,8.6a6.31,6.31,0,0,0-2.49-1c-.13.12,1.41.55,2,.91a20.25,20.25,0,0,1,2,1.91Z"/><path class="cls-5" d="M73.68,10.28a4.77,4.77,0,0,0-1.57-2.06A8,8,0,0,0,68.6,6.87c-.33.11,2.56.83,3.21,1.46a7,7,0,0,1,1.18,2Z"/><path class="cls-5" d="M69,10.81A11.22,11.22,0,0,0,66.61,9a9.62,9.62,0,0,0-2.83-.71c-.34,0,2.17.55,2.88,1A15.48,15.48,0,0,1,68.44,11Z"/><path class="cls-5" d="M62.88,12.16s-.08-.41-1.25-.84-1.81-.72-1.56-.72a8,8,0,0,1,1.55.4,10,10,0,0,1,1.83,1Z"/><path class="cls-1" d="M65,40C70.09,43.71,76.8,55.37,68.91,65s-19.4,10.15-28.09,4.52c-9-5.86-13.38-20.19-2.43-30.43C47.16,30.83,57.32,34.47,65,40Z"/><path class="cls-2" d="M43.69,38.66h0Z"/><path class="cls-2" d="M44.88,39.87c.59-.28,1.26-.89.7-1.42s-1.33.07-1.86.21C43,39.32,43.28,40.63,44.88,39.87Z"/><path class="cls-2" d="M43.72,38.65l.91-.35A1.48,1.48,0,0,0,43.72,38.65Z"/><path class="cls-2" d="M42.09,41.22c.23-.16.53-.5.23-.73a.38.38,0,0,0-.57.12.75.75,0,0,0-.37.48C41.33,41.58,41.86,41.39,42.09,41.22Z"/><path class="cls-2" d="M46,40.92a.56.56,0,0,0-.56,0c-.27,0-.6.14-.66.35a.76.76,0,0,0,0,.14l-.07,0,.08,0c.07.24.65.07.86,0S46.45,41.16,46,40.92Z"/><path class="cls-2" d="M44.69,41.48l0,0Z"/><path class="cls-2" d="M47.24,39.6c-.25.07-.54.36-.39.6s.75.16,1,0C48.67,39.77,47.56,39.42,47.24,39.6Z"/><path class="cls-2" d="M48.31,38.05c-.17,0-.49-.11-.63.05a.23.23,0,0,0,0,.3c0,.17.3.33.42.39s1.56.54,1.66.11S48.63,38.1,48.31,38.05Z"/><path class="cls-2" d="M46.89,37.18c.27.14,1.23.11,1.32-.27s-.52-.47-.77-.43a1,1,0,0,0-.41.23C46.78,36.83,46.59,37,46.89,37.18Z"/><path class="cls-2" d="M42.26,39.4c.5-.36,0-.56-.38-.49h0c-.22,0-.78.25-.63.55S42.07,39.54,42.26,39.4Z"/><path class="cls-2" d="M40.18,41.72c.19-.21.75-1.12.1-1.16a.53.53,0,0,0-.34.17,1.84,1.84,0,0,0-.65.9C39,42.47,39.86,42.09,40.18,41.72Z"/><path class="cls-2" d="M43.68,42a1.31,1.31,0,0,0-.86.07,1.72,1.72,0,0,0-1.14.86c-.21.87,1.34.25,1.67.14C43.84,42.88,44.4,42.25,43.68,42Z"/><path class="cls-2" d="M46.28,42.67c-.25.08-.52.28-.51.48,0,.43.89.3,1.14.19C47.87,42.9,46.62,42.47,46.28,42.67Z"/><path class="cls-2" d="M52.4,37.83A.44.44,0,0,0,52,38a1.2,1.2,0,0,0,1.78,0A1,1,0,0,0,52.4,37.83Z"/><path class="cls-2" d="M49.88,40.08c.53.18,2,.28,2.1-.46a1.3,1.3,0,0,0-1.16-.14C50.36,39.46,49.88,39.61,49.88,40.08Z"/><path class="cls-2" d="M50.92,36.22a.78.78,0,0,0-1.06-.11.47.47,0,0,0-.25.31A1,1,0,0,0,50.92,36.22Z"/><path class="cls-2" d="M54.87,39.29c-1.07,0,.31,1.36.9.93S55.29,39,54.87,39.29Z"/><path class="cls-2" d="M39.63,43.64c-.33-.26-.61,0-.8.3-.72.45-1.58,1.52-.9,1.78C38.78,46,39.61,44.22,39.63,43.64Z"/><path class="cls-2" d="M37.66,42.26c-.92.17-.48,1.68.39.65C38.6,42.27,38,42.06,37.66,42.26Z"/><path class="cls-2" d="M42.9,45a.45.45,0,0,0-.33.41c.34.25,1.26.27,1.49-.18C44.4,44.59,43.21,44.51,42.9,45Z"/><path class="cls-2" d="M51.08,42.54l0-.07a.72.72,0,0,0,0,.19c-.05.08-.05.16,0,.19.19.5,1.25.51,1-.11S51.33,42.31,51.08,42.54Z"/><path class="cls-2" d="M60.56,41.23c-.62-.84-1.91,0-1.1.27C59.94,41.83,61.17,42.06,60.56,41.23Z"/><path class="cls-2" d="M38.47,49.27,38.6,49a1.52,1.52,0,0,0-.68,1.07c.36.09,1.45-.62,1.42-1.09C39.29,48.31,38.79,48.81,38.47,49.27Z"/><path class="cls-2" d="M48.15,46.89a.27.27,0,0,0,.36.08c.45.05,1.27-.06.92-.53S48.28,46.52,48.15,46.89Z"/><path class="cls-2" d="M34.78,46.42a.83.83,0,0,0-.05.36c.54.19,1.93,0,1.47-.85S34.94,45.79,34.78,46.42Z"/><path class="cls-2" d="M36.69,44.13h0c-.33,0-.54.12-.56.44a.67.67,0,0,0,.94-.36A.64.64,0,0,0,36.69,44.13Z"/><path class="cls-3" d="M38.48,63.13c-2,1.44,8.2,8.72,14.83,8.46a19.55,19.55,0,0,0,16-10.06c1.76-3.6,1.14-13.82-1-13.1-.79.25.17,3.72-3,9-2.82,4.6-7.64,9.15-14,8.84C42.52,65.81,39.81,62.17,38.48,63.13Z"/><path class="cls-4" d="M60.36,37.86a.92.92,0,0,0-.83,1.4c.55,1.34,3.88,3.52,4.83,3.15s1-1.46-.4-2.51S61.63,38,60.36,37.86Z"/><path class="cls-4" d="M62.09,39.65s3.86-3.93,5-5.4a68.51,68.51,0,0,0,3.65-7.09s.34-.5.81-.41.34.78.34.78S69.16,33,68.07,34.44c-2.22,3-5.14,6.33-5.14,6.33Z"/><path class="cls-4" d="M68.82,32.25c-.24,0-6.37-.79-6.37-.79l-.23.36,3.16.51,3.16.51Z"/><path class="cls-4" d="M55.55,39.31c-6.57,1.65-16.29-3-16.29-3s6.49-7.44,12.06-8,15.23,3.81,15.23,3.81S62.15,37.66,55.55,39.31Z"/><path class="cls-5" d="M60.41,38.25a1.35,1.35,0,0,0-.14,1.33,6.9,6.9,0,0,0,2.39,1.87l.15-1.18s-.51-.35-.56-.64a.68.68,0,0,1,0-.45Z"/><path class="cls-5" d="M64.41,32.31a53.06,53.06,0,0,0-11,.1c-5.11.73-12.82,3.13-12.73,3.47s8.44-2.75,12.57-3,11.49,0,11.49,0Z"/><path class="cls-5" d="M61.82,32.5a5.64,5.64,0,0,1-1.07,2,14.28,14.28,0,0,0-1.85,2.82A17.25,17.25,0,0,0,61,34.67c.6-.89,1.39-2.13,1.39-2.13Z"/><path class="cls-5" d="M56.7,32.54a8.86,8.86,0,0,1-1.12,3.21c-1.13,2.28-1.59,2.94-1.31,3s1.12-1.67,1.69-2.92,1.45-3.37,1.45-3.37Z"/><path class="cls-5" d="M51.72,33a6.12,6.12,0,0,1-.38,2.39c-.51,1.69-1.13,2.64-.9,2.75s.82-1.44,1.17-2.66.85-2.73.85-2.73Z"/><path class="cls-5" d="M46.38,34.24a3.72,3.72,0,0,1-.28,1.41c-.31.87-.8,1.74-.66,1.73a3,3,0,0,0,.92-1.54c.22-.78.47-1.69.47-1.69Z"/><path class="cls-5" d="M62.42,32.36a7.1,7.1,0,0,0-1.93-1.82,5.92,5.92,0,0,0-2.48-1c-.13.12,1.41.55,2,.9a20.25,20.25,0,0,1,2,1.91Z"/><path class="cls-5" d="M57.17,32.21a4.91,4.91,0,0,0-1.58-2.06,7.74,7.74,0,0,0-3.5-1.34c-.34.1,2.56.82,3.21,1.45a7,7,0,0,1,1.18,2Z"/><path class="cls-5" d="M52.46,32.74a11.22,11.22,0,0,0-2.36-1.83,10.32,10.32,0,0,0-2.83-.71c-.34.05,2.17.55,2.87,1a15.23,15.23,0,0,1,1.79,1.65Z"/><path class="cls-5" d="M46.37,34.09s-.08-.4-1.25-.83-1.82-.72-1.56-.72a7.14,7.14,0,0,1,1.55.39,10,10,0,0,1,1.83,1Z"/><path class="cls-1" d="M36.62,40c5.09,3.68,11.8,15.34,3.91,24.93s-19.4,10.15-28.09,4.52C3.39,63.62-.94,49.29,10,39.05,18.78,30.83,28.94,34.47,36.62,40Z"/><path class="cls-2" d="M15.31,38.66h0Z"/><path class="cls-2" d="M16.5,39.87c.59-.28,1.26-.89.7-1.42s-1.33.07-1.87.21C14.6,39.32,14.9,40.63,16.5,39.87Z"/><path class="cls-2" d="M15.34,38.65l.91-.35A1.48,1.48,0,0,0,15.34,38.65Z"/><path class="cls-2" d="M13.71,41.22c.23-.16.53-.5.23-.73a.38.38,0,0,0-.57.12.75.75,0,0,0-.37.48C13,41.58,13.48,41.39,13.71,41.22Z"/><path class="cls-2" d="M17.61,40.92a.56.56,0,0,0-.56,0c-.27,0-.6.14-.66.35a.35.35,0,0,0,0,.14l-.07,0,.08,0c.07.24.65.07.86,0S18.07,41.16,17.61,40.92Z"/><path class="cls-2" d="M16.31,41.48l0,0Z"/><path class="cls-2" d="M18.86,39.6c-.25.07-.54.36-.39.6s.75.16,1,0C20.29,39.77,19.18,39.42,18.86,39.6Z"/><path class="cls-2" d="M19.93,38.05c-.17,0-.5-.11-.63.05a.24.24,0,0,0,0,.3c0,.17.31.33.43.39s1.56.54,1.66.11S20.25,38.1,19.93,38.05Z"/><path class="cls-2" d="M18.51,37.18c.27.14,1.22.11,1.32-.27s-.52-.47-.77-.43a1,1,0,0,0-.41.23C18.4,36.83,18.21,37,18.51,37.18Z"/><path class="cls-2" d="M13.88,39.4c.5-.36,0-.56-.38-.49h0c-.22,0-.78.25-.63.55S13.69,39.54,13.88,39.4Z"/><path class="cls-2" d="M11.8,41.72c.19-.21.75-1.12.1-1.16a.51.51,0,0,0-.34.17,1.84,1.84,0,0,0-.65.9C10.66,42.47,11.48,42.09,11.8,41.72Z"/><path class="cls-2" d="M15.3,42a1.3,1.3,0,0,0-.86.07,1.7,1.7,0,0,0-1.14.86c-.21.87,1.34.25,1.67.14C15.46,42.88,16,42.25,15.3,42Z"/><path class="cls-2" d="M17.9,42.67c-.25.08-.52.28-.51.48,0,.43.89.3,1.14.19C19.48,42.9,18.24,42.47,17.9,42.67Z"/><path class="cls-2" d="M24,37.83a.44.44,0,0,0-.43.17,1.2,1.2,0,0,0,1.78,0A1,1,0,0,0,24,37.83Z"/><path class="cls-2" d="M21.5,40.08c.53.18,2,.28,2.1-.46a1.32,1.32,0,0,0-1.17-.14C22,39.46,21.5,39.61,21.5,40.08Z"/><path class="cls-2" d="M22.54,36.22a.78.78,0,0,0-1.06-.11.47.47,0,0,0-.25.31A1,1,0,0,0,22.54,36.22Z"/><path class="cls-2" d="M26.49,39.29c-1.07,0,.31,1.36.9.93S26.91,39,26.49,39.29Z"/><path class="cls-2" d="M11.25,43.64c-.33-.26-.61,0-.8.3-.72.45-1.58,1.52-.9,1.78C10.4,46,11.23,44.22,11.25,43.64Z"/><path class="cls-2" d="M9.28,42.26c-.92.17-.48,1.68.39.65C10.22,42.27,9.66,42.06,9.28,42.26Z"/><path class="cls-2" d="M14.52,45a.45.45,0,0,0-.33.41c.34.25,1.26.27,1.48-.18C16,44.59,14.83,44.51,14.52,45Z"/><path class="cls-2" d="M22.7,42.54l-.05-.07a.72.72,0,0,0,0,.19c-.05.08-.06.16,0,.19.19.5,1.24.51,1-.11S23,42.31,22.7,42.54Z"/><path class="cls-2" d="M32.18,41.23c-.62-.84-1.91,0-1.1.27C31.56,41.83,32.79,42.06,32.18,41.23Z"/><path class="cls-2" d="M10.09,49.27l.13-.23a1.52,1.52,0,0,0-.68,1.07C9.9,50.2,11,49.49,11,49,10.91,48.31,10.41,48.81,10.09,49.27Z"/><path class="cls-2" d="M19.77,46.89a.27.27,0,0,0,.36.08c.45.05,1.27-.06.92-.53S19.9,46.52,19.77,46.89Z"/><path class="cls-2" d="M6.4,46.42a.7.7,0,0,0-.05.36c.54.19,1.93,0,1.47-.85S6.56,45.79,6.4,46.42Z"/><path class="cls-2" d="M8.31,44.13h0a.46.46,0,0,0-.57.44.68.68,0,0,0,.95-.36A.64.64,0,0,0,8.31,44.13Z"/><path class="cls-3" d="M10.1,63.13c-2,1.44,8.2,8.72,14.83,8.46A19.55,19.55,0,0,0,41,61.53c1.75-3.6,1.14-13.82-1-13.1-.79.25.17,3.72-3,9-2.82,4.6-7.64,9.15-14,8.84C14.14,65.81,11.43,62.17,10.1,63.13Z"/><path class="cls-4" d="M32,37.86a.92.92,0,0,0-.83,1.4C31.7,40.6,35,42.78,36,42.41s1-1.46-.4-2.51S33.25,38,32,37.86Z"/><path class="cls-4" d="M33.71,39.65s3.85-3.93,5-5.4a68.51,68.51,0,0,0,3.65-7.09s.34-.5.81-.41.34.78.34.78S40.78,33,39.69,34.44c-2.22,3-5.14,6.33-5.14,6.33Z"/><path class="cls-4" d="M40.44,32.25c-.24,0-6.37-.79-6.37-.79l-.23.36,3.16.51,3.16.51Z"/><path class="cls-4" d="M27.17,39.31c-6.57,1.65-16.29-3-16.29-3s6.49-7.44,12.06-8,15.23,3.81,15.23,3.81S33.77,37.66,27.17,39.31Z"/><path class="cls-5" d="M32,38.25a1.35,1.35,0,0,0-.14,1.33,6.9,6.9,0,0,0,2.39,1.87l.15-1.18s-.51-.35-.56-.64a.68.68,0,0,1,.05-.45Z"/><path class="cls-5" d="M36,32.31a53,53,0,0,0-11,.1c-5.11.73-12.82,3.13-12.73,3.47s8.44-2.75,12.57-3,11.49,0,11.49,0Z"/><path class="cls-5" d="M33.44,32.5a5.64,5.64,0,0,1-1.07,2,14.28,14.28,0,0,0-1.85,2.82,17.25,17.25,0,0,0,2.14-2.62c.6-.89,1.38-2.13,1.38-2.13Z"/><path class="cls-5" d="M28.32,32.54a8.8,8.8,0,0,1-1.13,3.21c-1.12,2.28-1.58,2.94-1.3,3s1.12-1.67,1.69-2.92S29,32.45,29,32.45Z"/><path class="cls-5" d="M23.34,33A6.12,6.12,0,0,1,23,35.38c-.51,1.69-1.13,2.64-.9,2.75s.82-1.44,1.17-2.66.85-2.73.85-2.73Z"/><path class="cls-5" d="M18,34.24a3.72,3.72,0,0,1-.28,1.41c-.31.87-.8,1.74-.66,1.73A3.08,3.08,0,0,0,18,35.84c.22-.78.47-1.69.47-1.69Z"/><path class="cls-5" d="M34,32.36a7.1,7.1,0,0,0-1.93-1.82,5.92,5.92,0,0,0-2.48-1c-.14.12,1.41.55,2,.9a20.25,20.25,0,0,1,2,1.91Z"/><path class="cls-5" d="M28.79,32.21a4.91,4.91,0,0,0-1.58-2.06,7.78,7.78,0,0,0-3.5-1.34c-.34.1,2.56.82,3.21,1.45a7,7,0,0,1,1.18,2Z"/><path class="cls-5" d="M24.08,32.74a11.22,11.22,0,0,0-2.36-1.83,10.32,10.32,0,0,0-2.83-.71c-.34.05,2.17.55,2.87,1a15.23,15.23,0,0,1,1.79,1.65Z"/><path class="cls-5" d="M18,34.09s-.08-.4-1.25-.83-1.82-.72-1.56-.72a7.14,7.14,0,0,1,1.55.39,10,10,0,0,1,1.83,1Z"/><path class="cls-1" d="M94.24,40C99.33,43.71,106,55.37,98.15,65s-19.41,10.15-28.1,4.52c-9-5.86-13.37-20.19-2.43-30.43C76.4,30.83,86.55,34.47,94.24,40Z"/><path class="cls-2" d="M72.93,38.66h0Z"/><path class="cls-2" d="M74.11,39.87c.6-.28,1.27-.89.71-1.42s-1.33.07-1.87.21C72.21,39.32,72.52,40.63,74.11,39.87Z"/><path class="cls-2" d="M73,38.65l.91-.35A1.45,1.45,0,0,0,73,38.65Z"/><path class="cls-2" d="M71.33,41.22c.22-.16.53-.5.23-.73a.38.38,0,0,0-.57.12.72.72,0,0,0-.37.48C70.57,41.58,71.09,41.39,71.33,41.22Z"/><path class="cls-2" d="M75.23,40.92a.56.56,0,0,0-.56,0c-.27,0-.6.14-.66.35a.23.23,0,0,0,0,.14l-.08,0,.08,0c.07.24.66.07.87,0S75.68,41.16,75.23,40.92Z"/><path class="cls-2" d="M73.92,41.48l0,0Z"/><path class="cls-2" d="M76.48,39.6c-.26.07-.55.36-.4.6s.75.16,1,0C77.9,39.77,76.8,39.42,76.48,39.6Z"/><path class="cls-2" d="M77.55,38.05c-.18,0-.5-.11-.64.05a.26.26,0,0,0,0,.3c0,.17.31.33.43.39s1.56.54,1.65.11S77.87,38.1,77.55,38.05Z"/><path class="cls-2" d="M76.13,37.18c.27.14,1.22.11,1.32-.27s-.52-.47-.77-.43a.9.9,0,0,0-.41.23C76,36.83,75.82,37,76.13,37.18Z"/><path class="cls-2" d="M71.5,39.4c.49-.36,0-.56-.38-.49h0c-.23,0-.79.25-.64.55S71.31,39.54,71.5,39.4Z"/><path class="cls-2" d="M69.42,41.72c.18-.21.75-1.12.1-1.16a.51.51,0,0,0-.34.17,1.87,1.87,0,0,0-.66.9C68.27,42.47,69.09,42.09,69.42,41.72Z"/><path class="cls-2" d="M72.91,42a1.28,1.28,0,0,0-.85.07,1.7,1.7,0,0,0-1.14.86c-.22.87,1.34.25,1.67.14C73.08,42.88,73.64,42.25,72.91,42Z"/><path class="cls-2" d="M75.51,42.67c-.24.08-.51.28-.51.48,0,.43.9.3,1.15.19C77.1,42.9,75.85,42.47,75.51,42.67Z"/><path class="cls-2" d="M81.63,37.83a.43.43,0,0,0-.42.17A1.2,1.2,0,0,0,83,38,1,1,0,0,0,81.63,37.83Z"/><path class="cls-2" d="M79.11,40.08c.54.18,2,.28,2.1-.46a1.3,1.3,0,0,0-1.16-.14C79.6,39.46,79.12,39.61,79.11,40.08Z"/><path class="cls-2" d="M80.16,36.22a.78.78,0,0,0-1.06-.11.51.51,0,0,0-.26.31A1,1,0,0,0,80.16,36.22Z"/><path class="cls-2" d="M84.1,39.29c-1.07,0,.31,1.36.91.93S84.53,39,84.1,39.29Z"/><path class="cls-2" d="M68.86,43.64c-.33-.26-.61,0-.8.3-.71.45-1.57,1.52-.89,1.78C68,46,68.84,44.22,68.86,43.64Z"/><path class="cls-2" d="M66.9,42.26c-.93.17-.49,1.68.39.65C67.83,42.27,67.27,42.06,66.9,42.26Z"/><path class="cls-2" d="M72.14,45a.46.46,0,0,0-.34.41c.35.25,1.26.27,1.49-.18C73.63,44.59,72.44,44.51,72.14,45Z"/><path class="cls-2" d="M80.32,42.54l0-.07a.77.77,0,0,0,0,.19c0,.08,0,.16,0,.19.19.5,1.25.51,1-.11S80.57,42.31,80.32,42.54Z"/><path class="cls-2" d="M89.8,41.23c-.62-.84-1.91,0-1.1.27C89.17,41.83,90.41,42.06,89.8,41.23Z"/><path class="cls-2" d="M67.71,49.27l.12-.23a1.55,1.55,0,0,0-.68,1.07c.37.09,1.45-.62,1.42-1.09C68.53,48.31,68,48.81,67.71,49.27Z"/><path class="cls-2" d="M77.39,46.89a.27.27,0,0,0,.36.08c.45.05,1.27-.06.92-.53S77.51,46.52,77.39,46.89Z"/><path class="cls-2" d="M64,46.42a.7.7,0,0,0-.06.36c.55.19,1.94,0,1.48-.85S64.18,45.79,64,46.42Z"/><path class="cls-2" d="M65.92,44.13h0a.46.46,0,0,0-.56.44.68.68,0,0,0,.95-.36A.67.67,0,0,0,65.92,44.13Z"/><path class="cls-3" d="M67.72,63.13c-2,1.44,8.19,8.72,14.82,8.46a19.55,19.55,0,0,0,16-10.06c1.75-3.6,1.14-13.82-1.06-13.1-.78.25.18,3.72-3,9-2.83,4.6-7.64,9.15-14,8.84C71.75,65.81,69,62.17,67.72,63.13Z"/><path class="cls-4" d="M89.6,37.86a.92.92,0,0,0-.84,1.4c.55,1.34,3.88,3.52,4.84,3.15s1-1.46-.4-2.51S90.87,38,89.6,37.86Z"/><path class="cls-4" d="M91.33,39.65s3.85-3.93,5-5.4a68.51,68.51,0,0,0,3.65-7.09.92.92,0,0,1,.82-.41c.47.08.33.78.33.78S98.39,33,97.3,34.44c-2.21,3-5.13,6.33-5.13,6.33Z"/><path class="cls-4" d="M98.05,32.25c-.23,0-6.36-.79-6.36-.79l-.24.36,3.17.51,3.16.51Z"/><path class="cls-4" d="M84.79,39.31c-6.57,1.65-16.29-3-16.29-3s6.49-7.44,12.06-8,15.23,3.81,15.23,3.81S91.38,37.66,84.79,39.31Z"/><path class="cls-5" d="M89.65,38.25a1.37,1.37,0,0,0-.15,1.33,7,7,0,0,0,2.39,1.87l.16-1.18s-.51-.35-.56-.64a.61.61,0,0,1,.05-.45Z"/><path class="cls-5" d="M93.64,32.31a53,53,0,0,0-11,.1c-5.11.73-12.83,3.13-12.73,3.47s8.44-2.75,12.56-3,11.49,0,11.49,0Z"/><path class="cls-5" d="M91.05,32.5a5.64,5.64,0,0,1-1.07,2,14.83,14.83,0,0,0-1.85,2.82,16.65,16.65,0,0,0,2.14-2.62c.61-.89,1.39-2.13,1.39-2.13Z"/><path class="cls-5" d="M85.94,32.54a8.8,8.8,0,0,1-1.13,3.21c-1.13,2.28-1.58,2.94-1.3,3s1.12-1.67,1.69-2.92,1.44-3.37,1.44-3.37Z"/><path class="cls-5" d="M81,33a6.05,6.05,0,0,1-.39,2.39c-.51,1.69-1.12,2.64-.89,2.75s.82-1.44,1.16-2.66.86-2.73.86-2.73Z"/><path class="cls-5" d="M75.61,34.24a3.81,3.81,0,0,1-.27,1.41c-.31.87-.81,1.74-.66,1.73a3,3,0,0,0,.91-1.54c.23-.78.48-1.69.48-1.69Z"/><path class="cls-5" d="M91.66,32.36a7.28,7.28,0,0,0-1.93-1.82,5.94,5.94,0,0,0-2.49-1c-.13.12,1.42.55,2,.9a21.46,21.46,0,0,1,2,1.91Z"/><path class="cls-5" d="M86.4,32.21a4.83,4.83,0,0,0-1.57-2.06,7.77,7.77,0,0,0-3.51-1.34c-.33.1,2.56.82,3.21,1.45a7,7,0,0,1,1.18,2Z"/><path class="cls-5" d="M81.7,32.74a11.22,11.22,0,0,0-2.36-1.83,10.37,10.37,0,0,0-2.84-.71c-.33.05,2.18.55,2.88,1a15.72,15.72,0,0,1,1.78,1.65Z"/><path class="cls-5" d="M75.6,34.09s-.08-.4-1.25-.83-1.81-.72-1.56-.72a7,7,0,0,1,1.55.39,9.88,9.88,0,0,1,1.84,1Z"/><path class="cls-1" d="M65,66.15c5.09,3.69,11.8,15.34,3.91,24.93s-19.4,10.16-28.09,4.52c-9-5.86-13.38-20.18-2.43-30.43C47.16,57,57.32,60.59,65,66.15Z"/><path class="cls-2" d="M43.69,64.78h0Z"/><path class="cls-2" d="M44.88,66c.59-.28,1.26-.88.7-1.42s-1.33.08-1.86.21C43,65.45,43.28,66.76,44.88,66Z"/><path class="cls-2" d="M43.72,64.77l.91-.34A1.41,1.41,0,0,0,43.72,64.77Z"/><path class="cls-2" d="M42.09,67.34c.23-.16.53-.5.23-.73a.38.38,0,0,0-.57.12.75.75,0,0,0-.37.48C41.33,67.7,41.86,67.51,42.09,67.34Z"/><path class="cls-2" d="M46,67a.59.59,0,0,0-.56,0c-.27,0-.6.14-.66.35a.76.76,0,0,0,0,.14l-.07,0,.08,0c.07.25.65.07.86,0S46.45,67.28,46,67Z"/><path class="cls-2" d="M44.69,67.6l0,0Z"/><path class="cls-2" d="M47.24,65.72c-.25.08-.54.36-.39.61s.75.15,1,0C48.67,65.89,47.56,65.54,47.24,65.72Z"/><path class="cls-2" d="M48.31,64.17c-.17,0-.49-.1-.63,0a.23.23,0,0,0,0,.3c0,.17.3.33.42.39s1.56.54,1.66.11S48.63,64.22,48.31,64.17Z"/><path class="cls-2" d="M46.89,63.3c.27.14,1.23.11,1.32-.27s-.52-.46-.77-.43a1,1,0,0,0-.41.23C46.78,63,46.59,63.14,46.89,63.3Z"/><path class="cls-2" d="M42.26,65.53c.5-.37,0-.57-.38-.5h0c-.22,0-.78.25-.63.55S42.07,65.66,42.26,65.53Z"/><path class="cls-2" d="M40.18,67.84c.19-.2.75-1.12.1-1.15a.45.45,0,0,0-.34.17,1.78,1.78,0,0,0-.65.89C39,68.59,39.86,68.21,40.18,67.84Z"/><path class="cls-2" d="M43.68,68.1a1.31,1.31,0,0,0-.86.07,1.7,1.7,0,0,0-1.14.87c-.21.87,1.34.24,1.67.13C43.84,69,44.4,68.37,43.68,68.1Z"/><path class="cls-2" d="M46.28,68.79c-.25.08-.52.28-.51.48,0,.43.89.3,1.14.19C47.87,69,46.62,68.6,46.28,68.79Z"/><path class="cls-2" d="M52.4,64a.44.44,0,0,0-.43.17,1.18,1.18,0,0,0,1.78,0A1,1,0,0,0,52.4,64Z"/><path class="cls-2" d="M49.88,66.2c.53.19,2,.28,2.1-.46a1.3,1.3,0,0,0-1.16-.14C50.36,65.58,49.88,65.73,49.88,66.2Z"/><path class="cls-2" d="M50.92,62.34a.77.77,0,0,0-1.06-.1.45.45,0,0,0-.25.3A1,1,0,0,0,50.92,62.34Z"/><path class="cls-2" d="M54.87,65.41c-1.07,0,.31,1.36.9.93S55.29,65.14,54.87,65.41Z"/><path class="cls-2" d="M39.63,69.76c-.33-.26-.61,0-.8.3-.72.45-1.58,1.52-.9,1.78C38.78,72.17,39.61,70.34,39.63,69.76Z"/><path class="cls-2" d="M37.66,68.38c-.92.17-.48,1.68.39.65C38.6,68.39,38,68.18,37.66,68.38Z"/><path class="cls-2" d="M42.9,71.15a.46.46,0,0,0-.33.42c.34.24,1.26.26,1.49-.19C44.4,70.71,43.21,70.63,42.9,71.15Z"/><path class="cls-2" d="M51.08,68.67l0-.08a.72.72,0,0,0,0,.19c-.05.09-.05.16,0,.19.19.5,1.25.52,1-.11S51.33,68.43,51.08,68.67Z"/><path class="cls-2" d="M60.56,67.35c-.62-.84-1.91,0-1.1.27C59.94,68,61.17,68.18,60.56,67.35Z"/><path class="cls-2" d="M38.47,75.39l.13-.22a1.48,1.48,0,0,0-.68,1.06c.36.09,1.45-.62,1.42-1.09C39.29,74.43,38.79,74.93,38.47,75.39Z"/><path class="cls-2" d="M48.15,73a.26.26,0,0,0,.36.08c.45,0,1.27-.06.92-.53S48.28,72.64,48.15,73Z"/><path class="cls-2" d="M34.78,72.54a.88.88,0,0,0-.05.37c.54.18,1.93,0,1.47-.86S34.94,71.91,34.78,72.54Z"/><path class="cls-2" d="M36.69,70.25h0a.45.45,0,0,0-.56.45.68.68,0,0,0,.94-.36A.65.65,0,0,0,36.69,70.25Z"/><path class="cls-3" d="M38.48,89.25c-2,1.44,8.2,8.72,14.83,8.46a19.53,19.53,0,0,0,16-10.06c1.76-3.6,1.14-13.81-1-13.1-.79.25.17,3.72-3,9-2.82,4.61-7.64,9.15-14,8.84C42.52,91.93,39.81,88.3,38.48,89.25Z"/><path class="cls-4" d="M60.36,64a.92.92,0,0,0-.83,1.4c.55,1.34,3.88,3.52,4.83,3.16s1-1.46-.4-2.52S61.63,64.14,60.36,64Z"/><path class="cls-4" d="M62.09,65.77s3.86-3.92,5-5.4a68.51,68.51,0,0,0,3.65-7.09s.34-.5.81-.41.34.78.34.78-2.69,5.42-3.78,6.91c-2.22,3-5.14,6.33-5.14,6.33Z"/><path class="cls-4" d="M68.82,58.38c-.24-.05-6.37-.79-6.37-.79l-.23.35,3.16.51,3.16.51Z"/><path class="cls-4" d="M55.55,65.43c-6.57,1.65-16.29-3-16.29-3s6.49-7.45,12.06-8,15.23,3.81,15.23,3.81S62.15,63.78,55.55,65.43Z"/><path class="cls-5" d="M60.41,64.38a1.33,1.33,0,0,0-.14,1.32,6.9,6.9,0,0,0,2.39,1.87l.15-1.18s-.51-.34-.56-.64a.68.68,0,0,1,0-.45Z"/><path class="cls-5" d="M64.41,58.43a53.06,53.06,0,0,0-11,.1c-5.11.73-12.82,3.14-12.73,3.47s8.44-2.75,12.57-3,11.49,0,11.49,0Z"/><path class="cls-5" d="M61.82,58.62a5.64,5.64,0,0,1-1.07,2,13.89,13.89,0,0,0-1.85,2.83A18,18,0,0,0,61,60.79c.6-.89,1.39-2.13,1.39-2.13Z"/><path class="cls-5" d="M56.7,58.66a8.79,8.79,0,0,1-1.12,3.21c-1.13,2.28-1.59,2.94-1.31,3s1.12-1.68,1.69-2.93,1.45-3.36,1.45-3.36Z"/><path class="cls-5" d="M51.72,59.12a6.06,6.06,0,0,1-.38,2.38c-.51,1.69-1.13,2.64-.9,2.76s.82-1.45,1.17-2.67.85-2.73.85-2.73Z"/><path class="cls-5" d="M46.38,60.36a3.72,3.72,0,0,1-.28,1.41c-.31.87-.8,1.74-.66,1.73A3,3,0,0,0,46.36,62c.22-.78.47-1.69.47-1.69Z"/><path class="cls-5" d="M62.42,58.48a7.26,7.26,0,0,0-1.93-1.82,6.07,6.07,0,0,0-2.48-1c-.13.12,1.41.55,2,.9a20.25,20.25,0,0,1,2,1.91Z"/><path class="cls-5" d="M57.17,58.33a4.91,4.91,0,0,0-1.58-2.06,7.74,7.74,0,0,0-3.5-1.34c-.34.11,2.56.82,3.21,1.45a7,7,0,0,1,1.18,2Z"/><path class="cls-5" d="M52.46,58.86A11.22,11.22,0,0,0,50.1,57a10.32,10.32,0,0,0-2.83-.71c-.34,0,2.17.55,2.87,1A15.23,15.23,0,0,1,51.93,59Z"/><path class="cls-5" d="M46.37,60.22s-.08-.41-1.25-.84-1.82-.72-1.56-.72a7.83,7.83,0,0,1,1.55.39,10.71,10.71,0,0,1,1.83,1Z"/><path class="cls-1" d="M36.62,66.15c5.09,3.69,11.8,15.34,3.91,24.93s-19.4,10.16-28.09,4.52C3.39,89.74-.94,75.42,10,65.17,18.78,57,28.94,60.59,36.62,66.15Z"/><path class="cls-2" d="M15.31,64.78h0Z"/><path class="cls-2" d="M16.5,66c.59-.28,1.26-.88.7-1.42s-1.33.08-1.87.21C14.6,65.45,14.9,66.76,16.5,66Z"/><path class="cls-2" d="M15.34,64.77l.91-.34A1.41,1.41,0,0,0,15.34,64.77Z"/><path class="cls-2" d="M13.71,67.34c.23-.16.53-.5.23-.73a.38.38,0,0,0-.57.12.75.75,0,0,0-.37.48C13,67.7,13.48,67.51,13.71,67.34Z"/><path class="cls-2" d="M17.61,67a.59.59,0,0,0-.56,0c-.27,0-.6.14-.66.35a.35.35,0,0,0,0,.14l-.07,0,.08,0c.07.25.65.07.86,0S18.07,67.28,17.61,67Z"/><path class="cls-2" d="M16.31,67.6l0,0Z"/><path class="cls-2" d="M18.86,65.72c-.25.08-.54.36-.39.61s.75.15,1,0C20.29,65.89,19.18,65.54,18.86,65.72Z"/><path class="cls-2" d="M19.93,64.17c-.17,0-.5-.1-.63,0a.24.24,0,0,0,0,.3c0,.17.31.33.43.39s1.56.54,1.66.11S20.25,64.22,19.93,64.17Z"/><path class="cls-2" d="M18.51,63.3c.27.14,1.22.11,1.32-.27s-.52-.46-.77-.43a1,1,0,0,0-.41.23C18.4,63,18.21,63.14,18.51,63.3Z"/><path class="cls-2" d="M13.88,65.53c.5-.37,0-.57-.38-.5h0c-.22,0-.78.25-.63.55S13.69,65.66,13.88,65.53Z"/><path class="cls-2" d="M11.8,67.84c.19-.2.75-1.12.1-1.15a.43.43,0,0,0-.34.17,1.78,1.78,0,0,0-.65.89C10.66,68.59,11.48,68.21,11.8,67.84Z"/><path class="cls-2" d="M15.3,68.1a1.3,1.3,0,0,0-.86.07A1.68,1.68,0,0,0,13.3,69c-.21.87,1.34.24,1.67.13C15.46,69,16,68.37,15.3,68.1Z"/><path class="cls-2" d="M17.9,68.79c-.25.08-.52.28-.51.48,0,.43.89.3,1.14.19C19.48,69,18.24,68.6,17.9,68.79Z"/><path class="cls-2" d="M24,64a.44.44,0,0,0-.43.17,1.18,1.18,0,0,0,1.78,0A1,1,0,0,0,24,64Z"/><path class="cls-2" d="M21.5,66.2c.53.19,2,.28,2.1-.46a1.32,1.32,0,0,0-1.17-.14C22,65.58,21.5,65.73,21.5,66.2Z"/><path class="cls-2" d="M22.54,62.34a.77.77,0,0,0-1.06-.1.45.45,0,0,0-.25.3A1,1,0,0,0,22.54,62.34Z"/><path class="cls-2" d="M26.49,65.41c-1.07,0,.31,1.36.9.93S26.91,65.14,26.49,65.41Z"/><path class="cls-2" d="M11.25,69.76c-.33-.26-.61,0-.8.3-.72.45-1.58,1.52-.9,1.78C10.4,72.17,11.23,70.34,11.25,69.76Z"/><path class="cls-2" d="M9.28,68.38c-.92.17-.48,1.68.39.65C10.22,68.39,9.66,68.18,9.28,68.38Z"/><path class="cls-2" d="M14.52,71.15a.46.46,0,0,0-.33.42c.34.24,1.26.26,1.48-.19C16,70.71,14.83,70.63,14.52,71.15Z"/><path class="cls-2" d="M22.7,68.67l-.05-.08a.72.72,0,0,0,0,.19c-.05.09-.06.16,0,.19.19.5,1.24.52,1-.11S23,68.43,22.7,68.67Z"/><path class="cls-2" d="M32.18,67.35c-.62-.84-1.91,0-1.1.27C31.56,68,32.79,68.18,32.18,67.35Z"/><path class="cls-2" d="M10.09,75.39l.13-.22a1.48,1.48,0,0,0-.68,1.06c.36.09,1.45-.62,1.42-1.09C10.91,74.43,10.41,74.93,10.09,75.39Z"/><path class="cls-2" d="M19.77,73a.26.26,0,0,0,.36.08c.45,0,1.27-.06.92-.53S19.9,72.64,19.77,73Z"/><path class="cls-2" d="M6.4,72.54a.74.74,0,0,0-.05.37c.54.18,1.93,0,1.47-.86S6.56,71.91,6.4,72.54Z"/><path class="cls-2" d="M8.31,70.25h0a.46.46,0,0,0-.57.45.69.69,0,0,0,.95-.36A.65.65,0,0,0,8.31,70.25Z"/><path class="cls-3" d="M10.1,89.25c-2,1.44,8.2,8.72,14.83,8.46A19.53,19.53,0,0,0,41,87.65c1.75-3.6,1.14-13.81-1-13.1-.79.25.17,3.72-3,9-2.82,4.61-7.64,9.15-14,8.84C14.14,91.93,11.43,88.3,10.1,89.25Z"/><path class="cls-4" d="M32,64a.92.92,0,0,0-.83,1.4C31.7,66.72,35,68.9,36,68.54s1-1.46-.4-2.52S33.25,64.14,32,64Z"/><path class="cls-4" d="M33.71,65.77s3.85-3.92,5-5.4a68.51,68.51,0,0,0,3.65-7.09s.34-.5.81-.41.34.78.34.78-2.69,5.42-3.78,6.91c-2.22,3-5.14,6.33-5.14,6.33Z"/><path class="cls-4" d="M40.44,58.38c-.24-.05-6.37-.79-6.37-.79l-.23.35,3.16.51,3.16.51Z"/><path class="cls-4" d="M27.17,65.43c-6.57,1.65-16.29-3-16.29-3s6.49-7.45,12.06-8,15.23,3.81,15.23,3.81S33.77,63.78,27.17,65.43Z"/><path class="cls-5" d="M32,64.38a1.33,1.33,0,0,0-.14,1.32,6.9,6.9,0,0,0,2.39,1.87l.15-1.18s-.51-.34-.56-.64a.68.68,0,0,1,.05-.45Z"/><path class="cls-5" d="M36,58.43a53,53,0,0,0-11,.1c-5.11.73-12.82,3.14-12.73,3.47s8.44-2.75,12.57-3,11.49,0,11.49,0Z"/><path class="cls-5" d="M33.44,58.62a5.64,5.64,0,0,1-1.07,2,13.89,13.89,0,0,0-1.85,2.83,18,18,0,0,0,2.14-2.63c.6-.89,1.38-2.13,1.38-2.13Z"/><path class="cls-5" d="M28.32,58.66a8.74,8.74,0,0,1-1.13,3.21c-1.12,2.28-1.58,2.94-1.3,3s1.12-1.68,1.69-2.93S29,58.58,29,58.58Z"/><path class="cls-5" d="M23.34,59.12A6.06,6.06,0,0,1,23,61.5c-.51,1.69-1.13,2.64-.9,2.76s.82-1.45,1.17-2.67.85-2.73.85-2.73Z"/><path class="cls-5" d="M18,60.36a3.72,3.72,0,0,1-.28,1.41c-.31.87-.8,1.74-.66,1.73A3.08,3.08,0,0,0,18,62c.22-.78.47-1.69.47-1.69Z"/><path class="cls-5" d="M34,58.48a7.26,7.26,0,0,0-1.93-1.82,6.07,6.07,0,0,0-2.48-1c-.14.12,1.41.55,2,.9a20.25,20.25,0,0,1,2,1.91Z"/><path class="cls-5" d="M28.79,58.33a4.91,4.91,0,0,0-1.58-2.06,7.78,7.78,0,0,0-3.5-1.34c-.34.11,2.56.82,3.21,1.45a7,7,0,0,1,1.18,2Z"/><path class="cls-5" d="M24.08,58.86A11.22,11.22,0,0,0,21.72,57a10.32,10.32,0,0,0-2.83-.71c-.34,0,2.17.55,2.87,1A15.23,15.23,0,0,1,23.55,59Z"/><path class="cls-5" d="M18,60.22s-.08-.41-1.25-.84-1.82-.72-1.56-.72a7.83,7.83,0,0,1,1.55.39,10.71,10.71,0,0,1,1.83,1Z"/><path class="cls-1" d="M94.24,66.15c5.09,3.69,11.79,15.34,3.91,24.93s-19.41,10.16-28.1,4.52c-9-5.86-13.37-20.18-2.43-30.43C76.4,57,86.55,60.59,94.24,66.15Z"/><path class="cls-2" d="M72.93,64.78h0Z"/><path class="cls-2" d="M74.11,66c.6-.28,1.27-.88.71-1.42s-1.33.08-1.87.21C72.21,65.45,72.52,66.76,74.11,66Z"/><path class="cls-2" d="M73,64.77l.91-.34A1.39,1.39,0,0,0,73,64.77Z"/><path class="cls-2" d="M71.33,67.34c.22-.16.53-.5.23-.73a.38.38,0,0,0-.57.12.72.72,0,0,0-.37.48C70.57,67.7,71.09,67.51,71.33,67.34Z"/><path class="cls-2" d="M75.23,67a.58.58,0,0,0-.56,0c-.27,0-.6.14-.66.35a.23.23,0,0,0,0,.14l-.08,0,.08,0c.07.25.66.07.87,0S75.68,67.28,75.23,67Z"/><path class="cls-2" d="M73.92,67.6l0,0Z"/><path class="cls-2" d="M76.48,65.72c-.26.08-.55.36-.4.61s.75.15,1,0C77.9,65.89,76.8,65.54,76.48,65.72Z"/><path class="cls-2" d="M77.55,64.17c-.18,0-.5-.1-.64,0a.26.26,0,0,0,0,.3c0,.17.31.33.43.39s1.56.54,1.65.11S77.87,64.22,77.55,64.17Z"/><path class="cls-2" d="M76.13,63.3c.27.14,1.22.11,1.32-.27s-.52-.46-.77-.43a.9.9,0,0,0-.41.23C76,63,75.82,63.14,76.13,63.3Z"/><path class="cls-2" d="M71.5,65.53c.49-.37,0-.57-.38-.5h0c-.23,0-.79.25-.64.55S71.31,65.66,71.5,65.53Z"/><path class="cls-2" d="M69.42,67.84c.18-.2.75-1.12.1-1.15a.43.43,0,0,0-.34.17,1.8,1.8,0,0,0-.66.89C68.27,68.59,69.09,68.21,69.42,67.84Z"/><path class="cls-2" d="M72.91,68.1a1.28,1.28,0,0,0-.85.07,1.68,1.68,0,0,0-1.14.87c-.22.87,1.34.24,1.67.13C73.08,69,73.64,68.37,72.91,68.1Z"/><path class="cls-2" d="M75.51,68.79c-.24.08-.51.28-.51.48,0,.43.9.3,1.15.19C77.1,69,75.85,68.6,75.51,68.79Z"/><path class="cls-2" d="M81.63,64a.43.43,0,0,0-.42.17,1.18,1.18,0,0,0,1.78,0A1,1,0,0,0,81.63,64Z"/><path class="cls-2" d="M79.11,66.2c.54.19,2,.28,2.1-.46a1.3,1.3,0,0,0-1.16-.14C79.6,65.58,79.12,65.73,79.11,66.2Z"/><path class="cls-2" d="M80.16,62.34a.77.77,0,0,0-1.06-.1.49.49,0,0,0-.26.3A1,1,0,0,0,80.16,62.34Z"/><path class="cls-2" d="M84.1,65.41c-1.07,0,.31,1.36.91.93S84.53,65.14,84.1,65.41Z"/><path class="cls-2" d="M68.86,69.76c-.33-.26-.61,0-.8.3-.71.45-1.57,1.52-.89,1.78C68,72.17,68.84,70.34,68.86,69.76Z"/><path class="cls-2" d="M66.9,68.38c-.93.17-.49,1.68.39.65C67.83,68.39,67.27,68.18,66.9,68.38Z"/><path class="cls-2" d="M72.14,71.15a.47.47,0,0,0-.34.42c.35.24,1.26.26,1.49-.19C73.63,70.71,72.44,70.63,72.14,71.15Z"/><path class="cls-2" d="M80.32,68.67l0-.08a.77.77,0,0,0,0,.19c0,.09,0,.16,0,.19.19.5,1.25.52,1-.11S80.57,68.43,80.32,68.67Z"/><path class="cls-2" d="M89.8,67.35c-.62-.84-1.91,0-1.1.27C89.17,68,90.41,68.18,89.8,67.35Z"/><path class="cls-2" d="M67.71,75.39l.12-.22a1.51,1.51,0,0,0-.68,1.06c.37.09,1.45-.62,1.42-1.09C68.53,74.43,68,74.93,67.71,75.39Z"/><path class="cls-2" d="M77.39,73a.26.26,0,0,0,.36.08c.45,0,1.27-.06.92-.53S77.51,72.64,77.39,73Z"/><path class="cls-2" d="M64,72.54a.74.74,0,0,0-.06.37c.55.18,1.94,0,1.48-.86S64.18,71.91,64,72.54Z"/><path class="cls-2" d="M65.92,70.25h0a.46.46,0,0,0-.56.45.69.69,0,0,0,.95-.36A.68.68,0,0,0,65.92,70.25Z"/><path class="cls-3" d="M67.72,89.25c-2,1.44,8.19,8.72,14.82,8.46a19.53,19.53,0,0,0,16-10.06c1.75-3.6,1.14-13.81-1.06-13.1-.78.25.18,3.72-3,9-2.83,4.61-7.64,9.15-14,8.84C71.75,91.93,69,88.3,67.72,89.25Z"/><path class="cls-4" d="M89.6,64a.92.92,0,0,0-.84,1.4c.55,1.34,3.88,3.52,4.84,3.16s1-1.46-.4-2.52S90.87,64.14,89.6,64Z"/><path class="cls-4" d="M91.33,65.77s3.85-3.92,5-5.4a68.51,68.51,0,0,0,3.65-7.09.92.92,0,0,1,.82-.41c.47.09.33.78.33.78s-2.69,5.42-3.78,6.91c-2.21,3-5.13,6.33-5.13,6.33Z"/><path class="cls-4" d="M98.05,58.38c-.23-.05-6.36-.79-6.36-.79l-.24.35,3.17.51,3.16.51Z"/><path class="cls-4" d="M84.79,65.43c-6.57,1.65-16.29-3-16.29-3S75,55,80.56,54.46s15.23,3.81,15.23,3.81S91.38,63.78,84.79,65.43Z"/><path class="cls-5" d="M89.65,64.38a1.35,1.35,0,0,0-.15,1.32,7,7,0,0,0,2.39,1.87l.16-1.18s-.51-.34-.56-.64a.61.61,0,0,1,.05-.45Z"/><path class="cls-5" d="M93.64,58.43a53,53,0,0,0-11,.1c-5.11.73-12.83,3.14-12.73,3.47s8.44-2.75,12.56-3,11.49,0,11.49,0Z"/><path class="cls-5" d="M91.05,58.62a5.64,5.64,0,0,1-1.07,2,14.41,14.41,0,0,0-1.85,2.83,17.37,17.37,0,0,0,2.14-2.63c.61-.89,1.39-2.13,1.39-2.13Z"/><path class="cls-5" d="M85.94,58.66a8.74,8.74,0,0,1-1.13,3.21c-1.13,2.28-1.58,2.94-1.3,3s1.12-1.68,1.69-2.93,1.44-3.36,1.44-3.36Z"/><path class="cls-5" d="M81,59.12a6,6,0,0,1-.39,2.38c-.51,1.69-1.12,2.64-.89,2.76s.82-1.45,1.16-2.67.86-2.73.86-2.73Z"/><path class="cls-5" d="M75.61,60.36a3.81,3.81,0,0,1-.27,1.41c-.31.87-.81,1.74-.66,1.73A3,3,0,0,0,75.59,62c.23-.78.48-1.69.48-1.69Z"/><path class="cls-5" d="M91.66,58.48a7.46,7.46,0,0,0-1.93-1.82,6.09,6.09,0,0,0-2.49-1c-.13.12,1.42.55,2,.9a21.46,21.46,0,0,1,2,1.91Z"/><path class="cls-5" d="M86.4,58.33a4.83,4.83,0,0,0-1.57-2.06,7.77,7.77,0,0,0-3.51-1.34c-.33.11,2.56.82,3.21,1.45a7,7,0,0,1,1.18,2Z"/><path class="cls-5" d="M81.7,58.86A11.22,11.22,0,0,0,79.34,57a10.37,10.37,0,0,0-2.84-.71c-.33,0,2.18.55,2.88,1A15.72,15.72,0,0,1,81.16,59Z"/><path class="cls-5" d="M75.6,60.22s-.08-.41-1.25-.84-1.81-.72-1.56-.72a7.66,7.66,0,0,1,1.55.39,10.53,10.53,0,0,1,1.84,1Z"/></svg>