<svg id="Layer_1" data-name="Layer 1" xmlns="http://www.w3.org/2000/svg" viewBox="0 0 105.29 104.84"><defs><style>.cls-1{fill:#ff8c03;}.cls-2{fill:#fcbc08;}.cls-3{fill:#f28106;opacity:0.7;}.cls-4{fill:#7c6a13;}.cls-5{fill:#937b18;}</style></defs><title>orange9 </title><path class="cls-1" d="M65.25,17.75C70.34,21.44,77,33.09,69.16,42.68S49.75,52.84,41.06,47.2C32,41.34,27.69,27,38.63,16.77,47.41,8.55,57.56,12.19,65.25,17.75Z"/><path class="cls-2" d="M43.94,16.39h0Z"/><path class="cls-2" d="M45.12,17.59c.6-.28,1.27-.88.71-1.42s-1.33.08-1.87.21C43.22,17.05,43.53,18.36,45.12,17.59Z"/><path class="cls-2" d="M44,16.37l.91-.34A1.39,1.39,0,0,0,44,16.37Z"/><path class="cls-2" d="M42.34,18.94c.22-.16.53-.49.23-.73a.38.38,0,0,0-.57.12.72.72,0,0,0-.37.48C41.58,19.3,42.1,19.11,42.34,18.94Z"/><path class="cls-2" d="M46.24,18.64a.58.58,0,0,0-.56,0c-.27,0-.6.14-.66.35a.23.23,0,0,0,0,.14l-.08.05.08,0c.07.24.66.06.87,0S46.69,18.89,46.24,18.64Z"/><path class="cls-2" d="M44.93,19.2l0,0Z"/><path class="cls-2" d="M47.49,17.32c-.26.08-.55.36-.4.61s.75.15,1,0C48.91,17.49,47.81,17.14,47.49,17.32Z"/><path class="cls-2" d="M48.56,15.78c-.18,0-.5-.11-.64,0a.26.26,0,0,0,0,.3c0,.18.31.33.43.39s1.56.55,1.65.11S48.88,15.82,48.56,15.78Z"/><path class="cls-2" d="M47.14,14.9c.27.14,1.22.11,1.32-.27s-.52-.46-.77-.43a.9.9,0,0,0-.41.23C47,14.55,46.83,14.74,47.14,14.9Z"/><path class="cls-2" d="M42.51,17.13c.49-.37,0-.57-.38-.5h0c-.23,0-.79.24-.64.54S42.32,17.27,42.51,17.13Z"/><path class="cls-2" d="M40.43,19.45c.18-.21.75-1.13.1-1.16a.43.43,0,0,0-.34.17,1.8,1.8,0,0,0-.66.89C39.28,20.19,40.1,19.81,40.43,19.45Z"/><path class="cls-2" d="M43.92,19.7a1.34,1.34,0,0,0-.85.07,1.68,1.68,0,0,0-1.14.87c-.22.87,1.34.24,1.67.13C44.09,20.6,44.65,20,43.92,19.7Z"/><path class="cls-2" d="M46.52,20.39c-.24.08-.51.28-.51.48,0,.43.9.3,1.15.19C48.11,20.62,46.86,20.2,46.52,20.39Z"/><path class="cls-2" d="M52.64,15.55a.43.43,0,0,0-.42.17,1.18,1.18,0,0,0,1.78,0A1,1,0,0,0,52.64,15.55Z"/><path class="cls-2" d="M50.12,17.8c.54.19,2,.28,2.1-.46a1.27,1.27,0,0,0-1.16-.13C50.61,17.18,50.13,17.34,50.12,17.8Z"/><path class="cls-2" d="M51.17,13.94a.77.77,0,0,0-1.06-.1.49.49,0,0,0-.26.3A1,1,0,0,0,51.17,13.94Z"/><path class="cls-2" d="M55.11,17c-1.07,0,.31,1.36.91.93S55.54,16.74,55.11,17Z"/><path class="cls-2" d="M39.87,21.36c-.33-.26-.61,0-.8.3-.71.46-1.57,1.52-.89,1.78C39,23.77,39.85,21.94,39.87,21.36Z"/><path class="cls-2" d="M37.91,20c-.93.18-.49,1.68.39.65C38.84,20,38.28,19.79,37.91,20Z"/><path class="cls-2" d="M43.15,22.75a.48.48,0,0,0-.34.42c.35.24,1.26.26,1.49-.19C44.64,22.32,43.45,22.23,43.15,22.75Z"/><path class="cls-2" d="M51.33,20.27l0-.07a.61.61,0,0,0-.05.18c0,.09,0,.17,0,.2.19.49,1.25.51,1.05-.12S51.58,20,51.33,20.27Z"/><path class="cls-2" d="M60.81,19c-.62-.84-1.91,0-1.1.27C60.18,19.56,61.42,19.78,60.81,19Z"/><path class="cls-2" d="M38.72,27l.12-.22a1.51,1.51,0,0,0-.68,1.06c.37.1,1.45-.62,1.42-1.09C39.54,26,39,26.53,38.72,27Z"/><path class="cls-2" d="M48.4,24.61a.26.26,0,0,0,.36.08c.45,0,1.27-.06.92-.53S48.52,24.24,48.4,24.61Z"/><path class="cls-2" d="M35,24.14a.74.74,0,0,0-.06.37c.55.18,1.94,0,1.48-.86S35.19,23.51,35,24.14Z"/><path class="cls-2" d="M36.93,21.86v0a.46.46,0,0,0-.56.45.69.69,0,0,0,.95-.36A.6.6,0,0,0,36.93,21.86Z"/><path class="cls-3" d="M38.73,40.85c-2,1.44,8.19,8.72,14.82,8.46a19.53,19.53,0,0,0,16-10.06c1.75-3.6,1.14-13.81-1.06-13.1-.78.25.18,3.72-3,9-2.83,4.61-7.64,9.15-14,8.84C42.76,43.53,40.05,39.9,38.73,40.85Z"/><path class="cls-4" d="M60.61,15.58a.92.92,0,0,0-.84,1.4c.55,1.34,3.88,3.52,4.84,3.16s1-1.46-.4-2.51S61.88,15.74,60.61,15.58Z"/><path class="cls-4" d="M62.34,17.37s3.85-3.92,5-5.4a68.51,68.51,0,0,0,3.65-7.09.92.92,0,0,1,.82-.41c.47.09.33.78.33.78s-2.69,5.42-3.78,6.91c-2.21,3-5.13,6.33-5.13,6.33Z"/><path class="cls-4" d="M69.06,10c-.23-.05-6.36-.79-6.36-.79l-.24.35,3.17.52,3.16.51Z"/><path class="cls-4" d="M55.8,17c-6.57,1.65-16.29-3-16.29-3s6.49-7.45,12.06-8S66.8,9.87,66.8,9.87,62.39,15.38,55.8,17Z"/><path class="cls-5" d="M60.66,16a1.35,1.35,0,0,0-.15,1.32,7.06,7.06,0,0,0,2.39,1.88L63.06,18s-.51-.34-.57-.64a.64.64,0,0,1,.06-.45Z"/><path class="cls-5" d="M64.65,10a52.56,52.56,0,0,0-11,.11c-5.11.72-12.83,3.13-12.73,3.47s8.44-2.75,12.56-3,11.49,0,11.49,0Z"/><path class="cls-5" d="M62.06,10.22a5.64,5.64,0,0,1-1.07,2A14.41,14.41,0,0,0,59.14,15a17.37,17.37,0,0,0,2.14-2.63c.61-.89,1.39-2.13,1.39-2.13Z"/><path class="cls-5" d="M57,10.26a8.74,8.74,0,0,1-1.13,3.21c-1.13,2.28-1.58,2.94-1.3,3s1.12-1.68,1.69-2.93,1.44-3.36,1.44-3.36Z"/><path class="cls-5" d="M52,10.72a6,6,0,0,1-.39,2.38c-.51,1.69-1.12,2.64-.89,2.76s.82-1.45,1.16-2.67.86-2.73.86-2.73Z"/><path class="cls-5" d="M46.62,12a3.81,3.81,0,0,1-.27,1.41c-.31.87-.81,1.74-.66,1.73a3,3,0,0,0,.91-1.54c.23-.78.48-1.69.48-1.69Z"/><path class="cls-5" d="M62.67,10.08a7.46,7.46,0,0,0-1.93-1.82,6.09,6.09,0,0,0-2.49-1c-.13.12,1.42.55,2,.9a22.86,22.86,0,0,1,2,1.91Z"/><path class="cls-5" d="M57.41,9.93a4.83,4.83,0,0,0-1.57-2.06,7.77,7.77,0,0,0-3.51-1.34c-.33.11,2.56.82,3.21,1.45a7,7,0,0,1,1.18,2Z"/><path class="cls-5" d="M52.71,10.46a11.57,11.57,0,0,0-2.36-1.83,10.37,10.37,0,0,0-2.84-.71c-.33,0,2.18.55,2.88,1a15.72,15.72,0,0,1,1.78,1.65Z"/><path class="cls-5" d="M46.61,11.82s-.08-.41-1.25-.84-1.81-.72-1.56-.72a8,8,0,0,1,1.55.4,9.88,9.88,0,0,1,1.84,1Z"/><path class="cls-1" d="M36.87,17.75C42,21.44,48.66,33.09,40.78,42.68S21.37,52.84,12.68,47.2C3.64,41.34-.7,27,10.25,16.77,19,8.55,29.18,12.19,36.87,17.75Z"/><path class="cls-2" d="M15.56,16.39h0Z"/><path class="cls-2" d="M16.74,17.59c.6-.28,1.27-.88.71-1.42s-1.33.08-1.87.21C14.84,17.05,15.15,18.36,16.74,17.59Z"/><path class="cls-2" d="M15.59,16.37,16.5,16A1.39,1.39,0,0,0,15.59,16.37Z"/><path class="cls-2" d="M14,18.94c.22-.16.53-.49.23-.73a.38.38,0,0,0-.57.12.72.72,0,0,0-.37.48C13.2,19.3,13.72,19.11,14,18.94Z"/><path class="cls-2" d="M17.86,18.64a.6.6,0,0,0-.57,0c-.26,0-.59.14-.65.35a.23.23,0,0,0,0,.14l-.08.05.08,0c.07.24.66.06.87,0S18.31,18.89,17.86,18.64Z"/><path class="cls-2" d="M16.55,19.2l0,0Z"/><path class="cls-2" d="M19.11,17.32c-.26.08-.55.36-.4.61s.75.15,1,0C20.53,17.49,19.43,17.14,19.11,17.32Z"/><path class="cls-2" d="M20.18,15.78c-.18,0-.5-.11-.64,0a.26.26,0,0,0,0,.3c0,.18.31.33.43.39s1.56.55,1.65.11S20.5,15.82,20.18,15.78Z"/><path class="cls-2" d="M18.76,14.9C19,15,20,15,20.08,14.63s-.52-.46-.77-.43a.9.9,0,0,0-.41.23C18.64,14.55,18.45,14.74,18.76,14.9Z"/><path class="cls-2" d="M14.13,17.13c.49-.37,0-.57-.38-.5h0c-.23,0-.79.24-.64.54S13.94,17.27,14.13,17.13Z"/><path class="cls-2" d="M12.05,19.45c.18-.21.75-1.13.1-1.16a.43.43,0,0,0-.34.17,1.8,1.8,0,0,0-.66.89C10.9,20.19,11.72,19.81,12.05,19.45Z"/><path class="cls-2" d="M15.54,19.7a1.38,1.38,0,0,0-.86.07c-.48.13-1,.51-1.13.87-.22.87,1.34.24,1.67.13C15.71,20.6,16.26,20,15.54,19.7Z"/><path class="cls-2" d="M18.14,20.39c-.24.08-.51.28-.51.48,0,.43.9.3,1.14.19C19.73,20.62,18.48,20.2,18.14,20.39Z"/><path class="cls-2" d="M24.26,15.55a.43.43,0,0,0-.42.17,1.18,1.18,0,0,0,1.78,0A1,1,0,0,0,24.26,15.55Z"/><path class="cls-2" d="M21.74,17.8c.54.19,2,.28,2.1-.46a1.27,1.27,0,0,0-1.16-.13C22.23,17.18,21.75,17.34,21.74,17.8Z"/><path class="cls-2" d="M22.79,13.94a.77.77,0,0,0-1.06-.1.49.49,0,0,0-.26.3A1,1,0,0,0,22.79,13.94Z"/><path class="cls-2" d="M26.73,17c-1.07,0,.31,1.36.91.93S27.16,16.74,26.73,17Z"/><path class="cls-2" d="M11.49,21.36c-.33-.26-.61,0-.8.3-.71.46-1.57,1.52-.89,1.78C10.65,23.77,11.47,21.94,11.49,21.36Z"/><path class="cls-2" d="M9.53,20c-.93.18-.49,1.68.39.65C10.46,20,9.9,19.79,9.53,20Z"/><path class="cls-2" d="M14.77,22.75a.48.48,0,0,0-.34.42c.35.24,1.26.26,1.49-.19C16.26,22.32,15.07,22.23,14.77,22.75Z"/><path class="cls-2" d="M23,20.27l-.05-.07a.61.61,0,0,0,0,.18c-.05.09-.05.17,0,.2.19.49,1.25.51,1.05-.12S23.2,20,23,20.27Z"/><path class="cls-2" d="M32.43,19c-.62-.84-1.91,0-1.1.27C31.8,19.56,33,19.78,32.43,19Z"/><path class="cls-2" d="M10.34,27l.12-.22a1.51,1.51,0,0,0-.68,1.06c.37.1,1.45-.62,1.42-1.09C11.16,26,10.65,26.53,10.34,27Z"/><path class="cls-2" d="M20,24.61a.26.26,0,0,0,.36.08c.45,0,1.27-.06.92-.53S20.14,24.24,20,24.61Z"/><path class="cls-2" d="M6.65,24.14a.74.74,0,0,0-.06.37c.55.18,1.94,0,1.48-.86S6.81,23.51,6.65,24.14Z"/><path class="cls-2" d="M8.55,21.86v0a.46.46,0,0,0-.56.45A.69.69,0,0,0,9,21.93.61.61,0,0,0,8.55,21.86Z"/><path class="cls-3" d="M10.35,40.85c-2,1.44,8.19,8.72,14.82,8.46a19.53,19.53,0,0,0,16-10.06c1.75-3.6,1.14-13.81-1.06-13.1-.78.25.18,3.72-3,9-2.82,4.61-7.63,9.15-14,8.84C14.38,43.53,11.67,39.9,10.35,40.85Z"/><path class="cls-4" d="M32.22,15.58a.92.92,0,0,0-.83,1.4c.55,1.34,3.88,3.52,4.84,3.16s1-1.46-.4-2.51S33.49,15.74,32.22,15.58Z"/><path class="cls-4" d="M34,17.37s3.86-3.92,5-5.4a68.51,68.51,0,0,0,3.65-7.09.92.92,0,0,1,.82-.41c.47.09.33.78.33.78S41,10.67,39.93,12.16c-2.21,3-5.13,6.33-5.13,6.33Z"/><path class="cls-4" d="M40.68,10c-.23-.05-6.36-.79-6.36-.79l-.24.35,3.17.52,3.15.51Z"/><path class="cls-4" d="M27.42,17c-6.58,1.65-16.29-3-16.29-3s6.49-7.45,12.06-8S38.42,9.87,38.42,9.87,34,15.38,27.42,17Z"/><path class="cls-5" d="M32.28,16a1.35,1.35,0,0,0-.15,1.32,7.06,7.06,0,0,0,2.39,1.88L34.68,18s-.51-.34-.57-.64a.64.64,0,0,1,.06-.45Z"/><path class="cls-5" d="M36.27,10a52.56,52.56,0,0,0-11,.11c-5.11.72-12.83,3.13-12.73,3.47s8.43-2.75,12.56-3,11.49,0,11.49,0Z"/><path class="cls-5" d="M33.68,10.22a5.64,5.64,0,0,1-1.07,2A14.41,14.41,0,0,0,30.76,15a17.37,17.37,0,0,0,2.14-2.63c.61-.89,1.39-2.13,1.39-2.13Z"/><path class="cls-5" d="M28.57,10.26a8.74,8.74,0,0,1-1.13,3.21c-1.13,2.28-1.58,2.94-1.3,3s1.12-1.68,1.69-2.93,1.44-3.36,1.44-3.36Z"/><path class="cls-5" d="M23.59,10.72a6,6,0,0,1-.39,2.38c-.51,1.69-1.12,2.64-.89,2.76s.82-1.45,1.16-2.67.86-2.73.86-2.73Z"/><path class="cls-5" d="M18.24,12A3.81,3.81,0,0,1,18,13.37c-.31.87-.81,1.74-.66,1.73a3,3,0,0,0,.91-1.54c.23-.78.48-1.69.48-1.69Z"/><path class="cls-5" d="M34.29,10.08a7.46,7.46,0,0,0-1.93-1.82,6.09,6.09,0,0,0-2.49-1c-.13.12,1.42.55,2,.9a21.92,21.92,0,0,1,2,1.91Z"/><path class="cls-5" d="M29,9.93a4.83,4.83,0,0,0-1.57-2.06A7.77,7.77,0,0,0,24,6.53c-.33.11,2.56.82,3.21,1.45a7,7,0,0,1,1.18,2Z"/><path class="cls-5" d="M24.33,10.46A11.43,11.43,0,0,0,22,8.63a10.23,10.23,0,0,0-2.83-.71c-.33,0,2.18.55,2.88,1a15.72,15.72,0,0,1,1.78,1.65Z"/><path class="cls-5" d="M18.23,11.82S18.15,11.41,17,11s-1.81-.72-1.56-.72a8,8,0,0,1,1.55.4,9.88,9.88,0,0,1,1.84,1Z"/><path class="cls-1" d="M94.48,17.75c5.1,3.69,11.8,15.34,3.91,24.93S79,52.84,70.3,47.2c-9-5.86-13.38-20.18-2.43-30.43C76.64,8.55,86.8,12.19,94.48,17.75Z"/><path class="cls-2" d="M73.17,16.39h0Z"/><path class="cls-2" d="M74.36,17.59c.59-.28,1.26-.88.7-1.42s-1.32.08-1.86.21C72.46,17.05,72.77,18.36,74.36,17.59Z"/><path class="cls-2" d="M73.2,16.37l.91-.34A1.41,1.41,0,0,0,73.2,16.37Z"/><path class="cls-2" d="M71.57,18.94c.23-.16.53-.49.23-.73a.38.38,0,0,0-.57.12.75.75,0,0,0-.37.48C70.82,19.3,71.34,19.11,71.57,18.94Z"/><path class="cls-2" d="M75.47,18.64a.59.59,0,0,0-.56,0c-.26,0-.6.14-.66.35a.33.33,0,0,0,0,.14l-.08.05.08,0c.07.24.65.06.86,0S75.93,18.89,75.47,18.64Z"/><path class="cls-2" d="M74.17,19.2l0,0Z"/><path class="cls-2" d="M76.72,17.32c-.25.08-.54.36-.39.61s.75.15,1,0C78.15,17.49,77,17.14,76.72,17.32Z"/><path class="cls-2" d="M77.79,15.78c-.17,0-.49-.11-.63,0a.24.24,0,0,0,0,.3c0,.18.3.33.42.39s1.57.55,1.66.11S78.11,15.82,77.79,15.78Z"/><path class="cls-2" d="M76.38,14.9c.26.14,1.22.11,1.31-.27s-.52-.46-.76-.43a1,1,0,0,0-.42.23C76.26,14.55,76.07,14.74,76.38,14.9Z"/><path class="cls-2" d="M71.74,17.13c.5-.37,0-.57-.38-.5h0c-.23,0-.79.24-.64.54S71.55,17.27,71.74,17.13Z"/><path class="cls-2" d="M69.66,19.45c.19-.21.75-1.13.1-1.16a.42.42,0,0,0-.33.17,1.8,1.8,0,0,0-.66.89C68.52,20.19,69.34,19.81,69.66,19.45Z"/><path class="cls-2" d="M73.16,19.7a1.38,1.38,0,0,0-.86.07,1.7,1.7,0,0,0-1.14.87c-.21.87,1.34.24,1.68.13S73.88,20,73.16,19.7Z"/><path class="cls-2" d="M75.76,20.39c-.25.08-.51.28-.51.48,0,.43.89.3,1.14.19C77.35,20.62,76.1,20.2,75.76,20.39Z"/><path class="cls-2" d="M81.88,15.55a.44.44,0,0,0-.43.17,1.18,1.18,0,0,0,1.78,0A1,1,0,0,0,81.88,15.55Z"/><path class="cls-2" d="M79.36,17.8c.53.19,2,.28,2.1-.46a1.27,1.27,0,0,0-1.16-.13C79.84,17.18,79.37,17.34,79.36,17.8Z"/><path class="cls-2" d="M80.41,13.94a.78.78,0,0,0-1.07-.1.48.48,0,0,0-.25.3A1,1,0,0,0,80.41,13.94Z"/><path class="cls-2" d="M84.35,17c-1.07,0,.31,1.36.9.93S84.77,16.74,84.35,17Z"/><path class="cls-2" d="M69.11,21.36c-.33-.26-.61,0-.8.3-.72.46-1.58,1.52-.89,1.78C68.26,23.77,69.09,21.94,69.11,21.36Z"/><path class="cls-2" d="M67.14,20c-.92.18-.48,1.68.39.65C68.08,20,67.52,19.79,67.14,20Z"/><path class="cls-2" d="M72.38,22.75a.48.48,0,0,0-.33.42c.34.24,1.26.26,1.49-.19C73.88,22.32,72.69,22.23,72.38,22.75Z"/><path class="cls-2" d="M80.56,20.27l0-.07a.58.58,0,0,0,0,.18c0,.09,0,.17,0,.2.19.49,1.25.51,1-.12S80.81,20,80.56,20.27Z"/><path class="cls-2" d="M90.05,19c-.63-.84-1.91,0-1.11.27C89.42,19.56,90.66,19.78,90.05,19Z"/><path class="cls-2" d="M68,27l.13-.22a1.48,1.48,0,0,0-.68,1.06c.36.1,1.45-.62,1.42-1.09C68.77,26,68.27,26.53,68,27Z"/><path class="cls-2" d="M77.64,24.61a.26.26,0,0,0,.36.08c.44,0,1.26-.06.92-.53S77.76,24.24,77.64,24.61Z"/><path class="cls-2" d="M64.26,24.14a.88.88,0,0,0-.05.37c.55.18,1.94,0,1.48-.86S64.42,23.51,64.26,24.14Z"/><path class="cls-2" d="M66.17,21.86v0a.45.45,0,0,0-.56.45.68.68,0,0,0,.94-.36A.58.58,0,0,0,66.17,21.86Z"/><path class="cls-3" d="M68,40.85c-2,1.44,8.2,8.72,14.83,8.46a19.49,19.49,0,0,0,16-10.06c1.76-3.6,1.14-13.81-1-13.1-.78.25.18,3.72-3,9-2.82,4.61-7.64,9.15-14,8.84C72,43.53,69.29,39.9,68,40.85Z"/><path class="cls-4" d="M89.84,15.58A.92.92,0,0,0,89,17c.55,1.34,3.88,3.52,4.83,3.16s1-1.46-.39-2.51S91.11,15.74,89.84,15.58Z"/><path class="cls-4" d="M91.57,17.37s3.86-3.92,5-5.4a68.51,68.51,0,0,0,3.65-7.09s.34-.5.81-.41.34.78.34.78-2.69,5.42-3.78,6.91c-2.22,3-5.14,6.33-5.14,6.33Z"/><path class="cls-4" d="M98.3,10c-.24-.05-6.37-.79-6.37-.79l-.23.35,3.16.52,3.16.51Z"/><path class="cls-4" d="M85,17c-6.58,1.65-16.3-3-16.3-3s6.49-7.45,12.06-8S96,9.87,96,9.87,91.63,15.38,85,17Z"/><path class="cls-5" d="M89.9,16a1.32,1.32,0,0,0-.15,1.32,7,7,0,0,0,2.39,1.88L92.3,18s-.52-.34-.57-.64a.68.68,0,0,1,0-.45Z"/><path class="cls-5" d="M93.89,10a52.56,52.56,0,0,0-11,.11c-5.12.72-12.83,3.13-12.74,3.47s8.44-2.75,12.57-3,11.49,0,11.49,0Z"/><path class="cls-5" d="M91.3,10.22a5.64,5.64,0,0,1-1.07,2A13.89,13.89,0,0,0,88.38,15a18,18,0,0,0,2.14-2.63c.6-.89,1.39-2.13,1.39-2.13Z"/><path class="cls-5" d="M86.18,10.26a8.53,8.53,0,0,1-1.12,3.21c-1.13,2.28-1.59,2.94-1.31,3s1.12-1.68,1.69-2.93,1.45-3.36,1.45-3.36Z"/><path class="cls-5" d="M81.21,10.72a6.26,6.26,0,0,1-.39,2.38c-.51,1.69-1.13,2.64-.9,2.76s.83-1.45,1.17-2.67.85-2.73.85-2.73Z"/><path class="cls-5" d="M75.86,12a3.81,3.81,0,0,1-.27,1.41c-.32.87-.81,1.74-.66,1.73a3.09,3.09,0,0,0,.91-1.54c.22-.78.47-1.69.47-1.69Z"/><path class="cls-5" d="M91.9,10.08A7.32,7.32,0,0,0,90,8.26a6.14,6.14,0,0,0-2.49-1c-.13.12,1.41.55,2,.9a21.5,21.5,0,0,1,2,1.91Z"/><path class="cls-5" d="M86.65,9.93a4.83,4.83,0,0,0-1.57-2.06,7.81,7.81,0,0,0-3.51-1.34c-.33.11,2.56.82,3.21,1.45A7,7,0,0,1,86,10Z"/><path class="cls-5" d="M81.94,10.46a11.57,11.57,0,0,0-2.36-1.83,10.32,10.32,0,0,0-2.83-.71c-.34,0,2.17.55,2.88,1a15.72,15.72,0,0,1,1.78,1.65Z"/><path class="cls-5" d="M75.85,11.82s-.08-.41-1.25-.84-1.81-.72-1.56-.72a8,8,0,0,1,1.55.4,10,10,0,0,1,1.83,1Z"/><path class="cls-1" d="M64.76,41.18c5.09,3.68,11.79,15.34,3.91,24.93s-19.41,10.15-28.1,4.52c-9-5.86-13.38-20.19-2.43-30.43C46.92,32,57.07,35.62,64.76,41.18Z"/><path class="cls-2" d="M43.45,39.81h0Z"/><path class="cls-2" d="M44.63,41c.6-.28,1.27-.89.7-1.42s-1.32.07-1.86.21C42.73,40.47,43,41.78,44.63,41Z"/><path class="cls-2" d="M43.48,39.8l.91-.35A1.45,1.45,0,0,0,43.48,39.8Z"/><path class="cls-2" d="M41.85,42.37c.22-.16.53-.5.23-.74a.39.39,0,0,0-.57.13.7.7,0,0,0-.37.48C41.09,42.73,41.61,42.54,41.85,42.37Z"/><path class="cls-2" d="M45.74,42.07a.56.56,0,0,0-.56,0c-.26,0-.59.14-.65.35a.23.23,0,0,0,0,.14l-.08.05.08-.05c.07.24.65.07.87,0S46.2,42.31,45.74,42.07Z"/><path class="cls-2" d="M44.44,42.63l0,0Z"/><path class="cls-2" d="M47,40.75c-.26.07-.55.36-.4.6s.75.16,1,0C48.42,40.92,47.31,40.56,47,40.75Z"/><path class="cls-2" d="M48.07,39.2c-.18,0-.5-.11-.64,0a.26.26,0,0,0,0,.3c0,.17.31.33.43.39s1.56.54,1.65.11S48.39,39.24,48.07,39.2Z"/><path class="cls-2" d="M46.65,38.33c.27.14,1.22.11,1.32-.27s-.52-.47-.77-.43a.9.9,0,0,0-.41.23C46.53,38,46.34,38.17,46.65,38.33Z"/><path class="cls-2" d="M42,40.55c.49-.36,0-.56-.38-.49h0c-.23,0-.79.25-.64.55S41.82,40.69,42,40.55Z"/><path class="cls-2" d="M39.93,42.87c.19-.21.76-1.12.1-1.16a.51.51,0,0,0-.33.17,1.87,1.87,0,0,0-.66.9C38.79,43.62,39.61,43.24,39.93,42.87Z"/><path class="cls-2" d="M43.43,43.13a1.31,1.31,0,0,0-.86.07c-.48.13-1,.51-1.13.86-.22.87,1.34.25,1.67.14C43.6,44,44.15,43.4,43.43,43.13Z"/><path class="cls-2" d="M46,43.82c-.24.08-.51.28-.51.48,0,.43.9.3,1.14.19C47.62,44.05,46.37,43.62,46,43.82Z"/><path class="cls-2" d="M52.15,39a.43.43,0,0,0-.43.17,1.21,1.21,0,0,0,1.79,0A1,1,0,0,0,52.15,39Z"/><path class="cls-2" d="M49.63,41.23c.54.18,2,.28,2.1-.46a1.27,1.27,0,0,0-1.16-.14C50.12,40.61,49.64,40.76,49.63,41.23Z"/><path class="cls-2" d="M50.68,37.37a.78.78,0,0,0-1.06-.11.51.51,0,0,0-.26.31A1,1,0,0,0,50.68,37.37Z"/><path class="cls-2" d="M54.62,40.44c-1.07,0,.31,1.35.9.93S55.05,40.17,54.62,40.44Z"/><path class="cls-2" d="M39.38,44.79c-.33-.26-.61,0-.8.3-.71.45-1.58,1.52-.89,1.78C38.54,47.19,39.36,45.37,39.38,44.79Z"/><path class="cls-2" d="M37.41,43.41c-.92.17-.48,1.68.4.65C38.35,43.42,37.79,43.21,37.41,43.41Z"/><path class="cls-2" d="M42.66,46.18a.46.46,0,0,0-.34.41c.34.25,1.26.27,1.49-.18C44.15,45.74,43,45.65,42.66,46.18Z"/><path class="cls-2" d="M50.84,43.69l-.05-.07a.77.77,0,0,0,0,.19c-.05.08-.05.16,0,.19.19.5,1.25.51,1-.11S51.08,43.46,50.84,43.69Z"/><path class="cls-2" d="M60.32,42.38c-.62-.84-1.91,0-1.1.27C59.69,43,60.93,43.21,60.32,42.38Z"/><path class="cls-2" d="M38.23,50.42l.12-.23a1.55,1.55,0,0,0-.68,1.07c.37.09,1.45-.62,1.42-1.09C39.05,49.46,38.54,50,38.23,50.42Z"/><path class="cls-2" d="M47.91,48a.27.27,0,0,0,.36.08c.45.05,1.27-.06.92-.53S48,47.67,47.91,48Z"/><path class="cls-2" d="M34.54,47.57a.7.7,0,0,0-.06.36c.55.19,1.94,0,1.48-.85S34.7,46.94,34.54,47.57Z"/><path class="cls-2" d="M36.44,45.28h0a.46.46,0,0,0-.56.44.67.67,0,0,0,.94-.36A.64.64,0,0,0,36.44,45.28Z"/><path class="cls-3" d="M38.24,64.28c-2,1.44,8.19,8.72,14.82,8.46a19.52,19.52,0,0,0,16-10.06c1.76-3.6,1.14-13.82-1-13.1-.78.25.18,3.72-3,9-2.82,4.6-7.63,9.15-14,8.84C42.27,67,39.56,63.32,38.24,64.28Z"/><path class="cls-4" d="M60.11,39a.93.93,0,0,0-.83,1.41c.55,1.34,3.88,3.52,4.83,3.15s1-1.46-.39-2.51S61.38,39.17,60.11,39Z"/><path class="cls-4" d="M61.84,40.8s3.86-3.93,5-5.4a68.51,68.51,0,0,0,3.65-7.09.92.92,0,0,1,.82-.41c.47.08.33.78.33.78s-2.69,5.42-3.78,6.91c-2.21,3-5.13,6.33-5.13,6.33Z"/><path class="cls-4" d="M68.57,33.4c-.24,0-6.37-.79-6.37-.79L62,33l3.17.51,3.15.51Z"/><path class="cls-4" d="M55.31,40.46c-6.58,1.65-16.3-3-16.3-3s6.5-7.44,12.06-8S66.31,33.3,66.31,33.3,61.9,38.81,55.31,40.46Z"/><path class="cls-5" d="M60.17,39.4A1.35,1.35,0,0,0,60,40.73a7,7,0,0,0,2.39,1.87l.16-1.18s-.51-.35-.57-.64a.64.64,0,0,1,.06-.45Z"/><path class="cls-5" d="M64.16,33.46a53,53,0,0,0-11,.1C48,34.29,40.31,36.69,40.41,37S48.84,34.28,53,34s11.49,0,11.49,0Z"/><path class="cls-5" d="M61.57,33.65a5.64,5.64,0,0,1-1.07,2,14.28,14.28,0,0,0-1.85,2.82,17,17,0,0,0,2.14-2.63c.61-.88,1.39-2.12,1.39-2.12Z"/><path class="cls-5" d="M56.46,33.69a8.8,8.8,0,0,1-1.13,3.21c-1.13,2.28-1.58,2.94-1.3,3s1.12-1.68,1.68-2.92,1.45-3.37,1.45-3.37Z"/><path class="cls-5" d="M51.48,34.14a6.05,6.05,0,0,1-.39,2.39c-.51,1.69-1.13,2.64-.89,2.75s.82-1.45,1.16-2.66.86-2.73.86-2.73Z"/><path class="cls-5" d="M46.13,35.39a3.81,3.81,0,0,1-.27,1.41c-.31.87-.81,1.74-.66,1.73A3,3,0,0,0,46.11,37c.22-.78.47-1.69.47-1.69Z"/><path class="cls-5" d="M62.18,33.51a7.28,7.28,0,0,0-1.93-1.82,5.94,5.94,0,0,0-2.49-1c-.13.12,1.42.55,2,.9a20.25,20.25,0,0,1,2,1.91Z"/><path class="cls-5" d="M56.92,33.36a4.83,4.83,0,0,0-1.57-2.06A7.77,7.77,0,0,0,51.84,30c-.33.1,2.56.82,3.21,1.45a7,7,0,0,1,1.18,2Z"/><path class="cls-5" d="M52.22,33.89a11.09,11.09,0,0,0-2.37-1.83A10.23,10.23,0,0,0,47,31.35c-.33,0,2.18.55,2.88,1A15.72,15.72,0,0,1,51.68,34Z"/><path class="cls-5" d="M46.12,35.24s-.08-.41-1.25-.83-1.81-.72-1.56-.72a7,7,0,0,1,1.55.39,9.67,9.67,0,0,1,1.83,1Z"/><path class="cls-1" d="M36.38,41.18c5.09,3.68,11.79,15.34,3.91,24.93s-19.41,10.15-28.1,4.52c-9-5.86-13.38-20.19-2.43-30.43C18.54,32,28.69,35.62,36.38,41.18Z"/><path class="cls-2" d="M15.07,39.81h0Z"/><path class="cls-2" d="M16.25,41c.6-.28,1.27-.89.7-1.42s-1.32.07-1.86.21C14.35,40.47,14.66,41.78,16.25,41Z"/><path class="cls-2" d="M15.09,39.8l.92-.35A1.51,1.51,0,0,0,15.09,39.8Z"/><path class="cls-2" d="M13.46,42.37c.23-.16.53-.5.24-.74a.39.39,0,0,0-.57.13.7.7,0,0,0-.37.48C12.71,42.73,13.23,42.54,13.46,42.37Z"/><path class="cls-2" d="M17.36,42.07a.56.56,0,0,0-.56,0c-.26,0-.59.14-.65.35a.23.23,0,0,0,0,.14l-.08.05.08-.05c.07.24.65.07.87,0S17.82,42.31,17.36,42.07Z"/><path class="cls-2" d="M16.06,42.63l0,0Z"/><path class="cls-2" d="M18.62,40.75c-.26.07-.55.36-.4.6s.75.16,1,0C20,40.92,18.93,40.56,18.62,40.75Z"/><path class="cls-2" d="M19.69,39.2c-.18,0-.5-.11-.64,0a.24.24,0,0,0,0,.3c0,.17.31.33.43.39s1.56.54,1.65.11S20,39.24,19.69,39.2Z"/><path class="cls-2" d="M18.27,38.33c.27.14,1.22.11,1.32-.27s-.52-.47-.77-.43a1,1,0,0,0-.42.23C18.15,38,18,38.17,18.27,38.33Z"/><path class="cls-2" d="M13.63,40.55c.5-.36,0-.56-.37-.49h0c-.23,0-.79.25-.64.55S13.44,40.69,13.63,40.55Z"/><path class="cls-2" d="M11.55,42.87c.19-.21.76-1.12.1-1.16a.51.51,0,0,0-.33.17,1.87,1.87,0,0,0-.66.9C10.41,43.62,11.23,43.24,11.55,42.87Z"/><path class="cls-2" d="M15.05,43.13a1.31,1.31,0,0,0-.86.07c-.48.13-1,.51-1.13.86-.22.87,1.34.25,1.67.14C15.22,44,15.77,43.4,15.05,43.13Z"/><path class="cls-2" d="M17.65,43.82c-.24.08-.51.28-.51.48,0,.43.89.3,1.14.19C19.24,44.05,18,43.62,17.65,43.82Z"/><path class="cls-2" d="M23.77,39a.43.43,0,0,0-.43.17,1.21,1.21,0,0,0,1.79,0A1,1,0,0,0,23.77,39Z"/><path class="cls-2" d="M21.25,41.23c.54.18,2,.28,2.1-.46a1.27,1.27,0,0,0-1.16-.14C21.74,40.61,21.26,40.76,21.25,41.23Z"/><path class="cls-2" d="M22.3,37.37a.78.78,0,0,0-1.06-.11.51.51,0,0,0-.26.31A1,1,0,0,0,22.3,37.37Z"/><path class="cls-2" d="M26.24,40.44c-1.07,0,.31,1.35.9.93S26.67,40.17,26.24,40.44Z"/><path class="cls-2" d="M11,44.79c-.33-.26-.61,0-.8.3-.71.45-1.58,1.52-.89,1.78C10.16,47.19,11,45.37,11,44.79Z"/><path class="cls-2" d="M9,43.41c-.92.17-.48,1.68.4.65C10,43.42,9.41,43.21,9,43.41Z"/><path class="cls-2" d="M14.28,46.18a.46.46,0,0,0-.34.41c.34.25,1.26.27,1.49-.18C15.77,45.74,14.58,45.65,14.28,46.18Z"/><path class="cls-2" d="M22.46,43.69l-.05-.07a.77.77,0,0,0-.05.19c-.05.08-.05.16,0,.19.19.5,1.25.51,1.05-.11S22.7,43.46,22.46,43.69Z"/><path class="cls-2" d="M31.94,42.38c-.63-.84-1.91,0-1.1.27C31.31,43,32.55,43.21,31.94,42.38Z"/><path class="cls-2" d="M9.84,50.42l.13-.23a1.55,1.55,0,0,0-.68,1.07c.37.09,1.45-.62,1.42-1.09C10.67,49.46,10.16,50,9.84,50.42Z"/><path class="cls-2" d="M19.53,48a.27.27,0,0,0,.36.08c.45.05,1.27-.06.92-.53S19.65,47.67,19.53,48Z"/><path class="cls-2" d="M6.16,47.57a.7.7,0,0,0-.06.36c.55.19,1.94,0,1.48-.85S6.32,46.94,6.16,47.57Z"/><path class="cls-2" d="M8.06,45.28h0a.46.46,0,0,0-.56.44.67.67,0,0,0,.94-.36A.64.64,0,0,0,8.06,45.28Z"/><path class="cls-3" d="M9.86,64.28c-2,1.44,8.19,8.72,14.82,8.46a19.52,19.52,0,0,0,16-10.06c1.76-3.6,1.14-13.82-1-13.1-.78.25.18,3.72-3,9-2.82,4.6-7.63,9.15-14,8.84C13.89,67,11.18,63.32,9.86,64.28Z"/><path class="cls-4" d="M31.73,39a.93.93,0,0,0-.83,1.41c.55,1.34,3.88,3.52,4.83,3.15s1-1.46-.39-2.51S33,39.17,31.73,39Z"/><path class="cls-4" d="M33.46,40.8s3.86-3.93,5-5.4a68.51,68.51,0,0,0,3.65-7.09s.34-.5.81-.41.34.78.34.78-2.69,5.42-3.78,6.91c-2.21,3-5.13,6.33-5.13,6.33Z"/><path class="cls-4" d="M40.19,33.4c-.24,0-6.37-.79-6.37-.79l-.23.36,3.16.51,3.16.51Z"/><path class="cls-4" d="M26.93,40.46c-6.58,1.65-16.3-3-16.3-3s6.5-7.44,12.06-8S37.93,33.3,37.93,33.3,33.52,38.81,26.93,40.46Z"/><path class="cls-5" d="M31.79,39.4a1.35,1.35,0,0,0-.15,1.33A7,7,0,0,0,34,42.6l.16-1.18s-.52-.35-.57-.64a.68.68,0,0,1,.05-.45Z"/><path class="cls-5" d="M35.78,33.46a53,53,0,0,0-11,.1C19.65,34.29,11.93,36.69,12,37s8.43-2.75,12.56-3,11.49,0,11.49,0Z"/><path class="cls-5" d="M33.19,33.65a5.64,5.64,0,0,1-1.07,2,14.28,14.28,0,0,0-1.85,2.82,17,17,0,0,0,2.14-2.63c.61-.88,1.39-2.12,1.39-2.12Z"/><path class="cls-5" d="M28.08,33.69A8.8,8.8,0,0,1,27,36.9c-1.13,2.28-1.58,2.94-1.3,3s1.12-1.68,1.68-2.92,1.45-3.37,1.45-3.37Z"/><path class="cls-5" d="M23.1,34.14a6.05,6.05,0,0,1-.39,2.39c-.51,1.69-1.13,2.64-.89,2.75s.82-1.45,1.16-2.66.86-2.73.86-2.73Z"/><path class="cls-5" d="M17.75,35.39a3.81,3.81,0,0,1-.27,1.41c-.31.87-.81,1.74-.66,1.73A3.09,3.09,0,0,0,17.73,37c.22-.78.47-1.69.47-1.69Z"/><path class="cls-5" d="M33.8,33.51a7.28,7.28,0,0,0-1.93-1.82,6,6,0,0,0-2.49-1c-.13.12,1.42.55,2,.9a20.25,20.25,0,0,1,2,1.91Z"/><path class="cls-5" d="M28.54,33.36A4.83,4.83,0,0,0,27,31.3,7.81,7.81,0,0,0,23.46,30c-.33.1,2.56.82,3.21,1.45a7,7,0,0,1,1.18,2Z"/><path class="cls-5" d="M23.84,33.89a11.09,11.09,0,0,0-2.37-1.83,10.32,10.32,0,0,0-2.83-.71c-.33,0,2.18.55,2.88,1A15.72,15.72,0,0,1,23.3,34Z"/><path class="cls-5" d="M17.74,35.24s-.08-.41-1.25-.83-1.81-.72-1.56-.72a7,7,0,0,1,1.55.39,9.67,9.67,0,0,1,1.83,1Z"/><path class="cls-1" d="M94,41.18c5.09,3.68,11.8,15.34,3.91,24.93S78.5,76.26,69.81,70.63c-9.05-5.86-13.38-20.19-2.43-30.43C76.15,32,86.31,35.62,94,41.18Z"/><path class="cls-2" d="M72.68,39.81h0Z"/><path class="cls-2" d="M73.87,41c.59-.28,1.26-.89.7-1.42s-1.33.07-1.86.21C72,40.47,72.27,41.78,73.87,41Z"/><path class="cls-2" d="M72.71,39.8l.91-.35A1.48,1.48,0,0,0,72.71,39.8Z"/><path class="cls-2" d="M71.08,42.37c.23-.16.53-.5.23-.74a.39.39,0,0,0-.57.13.73.73,0,0,0-.37.48C70.32,42.73,70.85,42.54,71.08,42.37Z"/><path class="cls-2" d="M75,42.07a.56.56,0,0,0-.56,0c-.27,0-.6.14-.66.35a.71.71,0,0,0,0,.14l-.07.05.08-.05c.07.24.65.07.86,0S75.44,42.31,75,42.07Z"/><path class="cls-2" d="M73.68,42.63l0,0Z"/><path class="cls-2" d="M76.23,40.75c-.25.07-.54.36-.39.6s.75.16,1,0C77.66,40.92,76.55,40.56,76.23,40.75Z"/><path class="cls-2" d="M77.3,39.2c-.17,0-.49-.11-.63,0a.23.23,0,0,0,0,.3c0,.17.3.33.42.39s1.56.54,1.66.11S77.62,39.24,77.3,39.2Z"/><path class="cls-2" d="M75.88,38.33c.27.14,1.23.11,1.32-.27s-.52-.47-.77-.43a1,1,0,0,0-.41.23C75.77,38,75.58,38.17,75.88,38.33Z"/><path class="cls-2" d="M71.25,40.55c.5-.36,0-.56-.38-.49h0c-.22,0-.78.25-.63.55S71.06,40.69,71.25,40.55Z"/><path class="cls-2" d="M69.17,42.87c.19-.21.75-1.12.1-1.16a.53.53,0,0,0-.34.17,1.84,1.84,0,0,0-.65.9C68,43.62,68.85,43.24,69.17,42.87Z"/><path class="cls-2" d="M72.67,43.13a1.31,1.31,0,0,0-.86.07,1.72,1.72,0,0,0-1.14.86c-.21.87,1.34.25,1.67.14C72.83,44,73.39,43.4,72.67,43.13Z"/><path class="cls-2" d="M75.27,43.82c-.25.08-.52.28-.51.48,0,.43.89.3,1.14.19C76.86,44.05,75.61,43.62,75.27,43.82Z"/><path class="cls-2" d="M81.39,39a.42.42,0,0,0-.43.17,1.2,1.2,0,0,0,1.78,0A1,1,0,0,0,81.39,39Z"/><path class="cls-2" d="M78.87,41.23c.53.18,2,.28,2.1-.46a1.27,1.27,0,0,0-1.16-.14C79.35,40.61,78.87,40.76,78.87,41.23Z"/><path class="cls-2" d="M79.91,37.37a.78.78,0,0,0-1.06-.11.47.47,0,0,0-.25.31A1,1,0,0,0,79.91,37.37Z"/><path class="cls-2" d="M83.86,40.44c-1.07,0,.31,1.35.9.93S84.28,40.17,83.86,40.44Z"/><path class="cls-2" d="M68.62,44.79c-.33-.26-.61,0-.8.3-.72.45-1.58,1.52-.9,1.78C67.77,47.19,68.6,45.37,68.62,44.79Z"/><path class="cls-2" d="M66.65,43.41c-.92.17-.48,1.68.39.65C67.59,43.42,67,43.21,66.65,43.41Z"/><path class="cls-2" d="M71.89,46.18a.45.45,0,0,0-.33.41c.34.25,1.26.27,1.49-.18C73.39,45.74,72.2,45.65,71.89,46.18Z"/><path class="cls-2" d="M80.07,43.69l0-.07a.72.72,0,0,0,0,.19c0,.08,0,.16,0,.19.19.5,1.25.51,1-.11S80.32,43.46,80.07,43.69Z"/><path class="cls-2" d="M89.55,42.38c-.62-.84-1.91,0-1.1.27C88.93,43,90.16,43.21,89.55,42.38Z"/><path class="cls-2" d="M67.46,50.42l.13-.23a1.52,1.52,0,0,0-.68,1.07c.36.09,1.45-.62,1.42-1.09C68.28,49.46,67.78,50,67.46,50.42Z"/><path class="cls-2" d="M77.14,48a.27.27,0,0,0,.36.08c.45.05,1.27-.06.92-.53S77.27,47.67,77.14,48Z"/><path class="cls-2" d="M63.77,47.57a.83.83,0,0,0-.05.36c.54.19,1.93,0,1.47-.85S63.93,46.94,63.77,47.57Z"/><path class="cls-2" d="M65.68,45.28h0c-.33,0-.54.12-.56.44a.67.67,0,0,0,.94-.36A.64.64,0,0,0,65.68,45.28Z"/><path class="cls-3" d="M67.47,64.28c-2,1.44,8.2,8.72,14.83,8.46a19.55,19.55,0,0,0,16-10.06c1.76-3.6,1.14-13.82-1-13.1-.79.25.17,3.72-3,9-2.82,4.6-7.64,9.15-14,8.84C71.51,67,68.8,63.32,67.47,64.28Z"/><path class="cls-4" d="M89.35,39a.93.93,0,0,0-.83,1.41c.55,1.34,3.88,3.52,4.83,3.15s1-1.46-.4-2.51S90.62,39.17,89.35,39Z"/><path class="cls-4" d="M91.08,40.8s3.86-3.93,5-5.4a68.51,68.51,0,0,0,3.65-7.09s.34-.5.81-.41.34.78.34.78-2.69,5.42-3.78,6.91c-2.22,3-5.14,6.33-5.14,6.33Z"/><path class="cls-4" d="M97.81,33.4c-.24,0-6.37-.79-6.37-.79l-.23.36,3.16.51,3.16.51Z"/><path class="cls-4" d="M84.54,40.46c-6.57,1.65-16.29-3-16.29-3s6.49-7.44,12.06-8S95.54,33.3,95.54,33.3,91.14,38.81,84.54,40.46Z"/><path class="cls-5" d="M89.4,39.4a1.35,1.35,0,0,0-.14,1.33,6.9,6.9,0,0,0,2.39,1.87l.15-1.18s-.51-.35-.56-.64a.68.68,0,0,1,.05-.45Z"/><path class="cls-5" d="M93.4,33.46a53.06,53.06,0,0,0-11,.1c-5.11.73-12.82,3.13-12.73,3.47s8.44-2.75,12.57-3S93.7,34,93.7,34Z"/><path class="cls-5" d="M90.81,33.65a5.64,5.64,0,0,1-1.07,2,14.28,14.28,0,0,0-1.85,2.82A17,17,0,0,0,90,35.81c.6-.88,1.39-2.12,1.39-2.12Z"/><path class="cls-5" d="M85.69,33.69a8.86,8.86,0,0,1-1.12,3.21c-1.13,2.28-1.59,2.94-1.31,3S84.38,38.21,85,37,86.4,33.6,86.4,33.6Z"/><path class="cls-5" d="M80.71,34.14a6.12,6.12,0,0,1-.38,2.39c-.51,1.69-1.13,2.64-.9,2.75s.82-1.45,1.17-2.66.85-2.73.85-2.73Z"/><path class="cls-5" d="M75.37,35.39a3.72,3.72,0,0,1-.28,1.41c-.31.87-.8,1.74-.66,1.73A3,3,0,0,0,75.35,37c.22-.78.47-1.69.47-1.69Z"/><path class="cls-5" d="M91.41,33.51a7.1,7.1,0,0,0-1.93-1.82,5.92,5.92,0,0,0-2.48-1c-.13.12,1.41.55,2,.9a20.25,20.25,0,0,1,2,1.91Z"/><path class="cls-5" d="M86.16,33.36a4.91,4.91,0,0,0-1.58-2.06A7.74,7.74,0,0,0,81.08,30c-.34.1,2.56.82,3.21,1.45a7,7,0,0,1,1.18,2Z"/><path class="cls-5" d="M81.45,33.89a11.22,11.22,0,0,0-2.36-1.83,10.32,10.32,0,0,0-2.83-.71c-.34,0,2.17.55,2.87,1A15.23,15.23,0,0,1,80.92,34Z"/><path class="cls-5" d="M75.36,35.24s-.08-.41-1.25-.83-1.82-.72-1.56-.72a7.14,7.14,0,0,1,1.55.39,10,10,0,0,1,1.83,1Z"/><path class="cls-1" d="M64.76,67.3C69.85,71,76.55,82.64,68.67,92.23s-19.41,10.16-28.1,4.52c-9-5.86-13.38-20.18-2.43-30.43C46.92,58.1,57.07,61.74,64.76,67.3Z"/><path class="cls-2" d="M43.45,65.93h0Z"/><path class="cls-2" d="M44.63,67.14c.6-.28,1.27-.88.7-1.42s-1.32.08-1.86.21C42.73,66.6,43,67.91,44.63,67.14Z"/><path class="cls-2" d="M43.48,65.92l.91-.35A1.45,1.45,0,0,0,43.48,65.92Z"/><path class="cls-2" d="M41.85,68.49c.22-.16.53-.5.23-.73a.38.38,0,0,0-.57.12.72.72,0,0,0-.37.48C41.09,68.85,41.61,68.66,41.85,68.49Z"/><path class="cls-2" d="M45.74,68.19a.56.56,0,0,0-.56,0c-.26,0-.59.14-.65.35a.23.23,0,0,0,0,.14l-.08,0,.08,0c.07.25.65.07.87,0S46.2,68.43,45.74,68.19Z"/><path class="cls-2" d="M44.44,68.75l0,0Z"/><path class="cls-2" d="M47,66.87c-.26.08-.55.36-.4.61s.75.15,1,0C48.42,67,47.31,66.69,47,66.87Z"/><path class="cls-2" d="M48.07,65.32c-.18,0-.5-.1-.64.05a.26.26,0,0,0,0,.3c0,.17.31.33.43.39s1.56.54,1.65.11S48.39,65.37,48.07,65.32Z"/><path class="cls-2" d="M46.65,64.45c.27.14,1.22.11,1.32-.27s-.52-.47-.77-.43a.9.9,0,0,0-.41.23C46.53,64.1,46.34,64.29,46.65,64.45Z"/><path class="cls-2" d="M42,66.67c.49-.36,0-.56-.38-.49h0c-.23,0-.79.25-.64.55S41.82,66.81,42,66.67Z"/><path class="cls-2" d="M39.93,69c.19-.21.76-1.12.1-1.15a.45.45,0,0,0-.33.16,1.87,1.87,0,0,0-.66.9C38.79,69.74,39.61,69.36,39.93,69Z"/><path class="cls-2" d="M43.43,69.25a1.31,1.31,0,0,0-.86.07c-.48.13-1,.51-1.13.87-.22.87,1.34.24,1.67.13C43.6,70.15,44.15,69.52,43.43,69.25Z"/><path class="cls-2" d="M46,69.94c-.24.08-.51.28-.51.48,0,.43.9.3,1.14.19C47.62,70.17,46.37,69.75,46,69.94Z"/><path class="cls-2" d="M52.15,65.1a.45.45,0,0,0-.43.17,1.2,1.2,0,0,0,1.79,0A1,1,0,0,0,52.15,65.1Z"/><path class="cls-2" d="M49.63,67.35c.54.19,2,.28,2.1-.46a1.3,1.3,0,0,0-1.16-.14C50.12,66.73,49.64,66.88,49.63,67.35Z"/><path class="cls-2" d="M50.68,63.49a.77.77,0,0,0-1.06-.1.49.49,0,0,0-.26.3A1,1,0,0,0,50.68,63.49Z"/><path class="cls-2" d="M54.62,66.56c-1.07,0,.31,1.36.9.93S55.05,66.29,54.62,66.56Z"/><path class="cls-2" d="M39.38,70.91c-.33-.26-.61,0-.8.3-.71.45-1.58,1.52-.89,1.78C38.54,73.32,39.36,71.49,39.38,70.91Z"/><path class="cls-2" d="M37.41,69.53c-.92.17-.48,1.68.4.65C38.35,69.54,37.79,69.33,37.41,69.53Z"/><path class="cls-2" d="M42.66,72.3a.47.47,0,0,0-.34.42c.34.24,1.26.26,1.49-.19C44.15,71.86,43,71.78,42.66,72.3Z"/><path class="cls-2" d="M50.84,69.82l-.05-.08a.77.77,0,0,0,0,.19c-.05.09-.05.16,0,.19.19.5,1.25.52,1-.11S51.08,69.58,50.84,69.82Z"/><path class="cls-2" d="M60.32,68.5c-.62-.84-1.91,0-1.1.27C59.69,69.11,60.93,69.33,60.32,68.5Z"/><path class="cls-2" d="M38.23,76.54l.12-.22a1.51,1.51,0,0,0-.68,1.06c.37.09,1.45-.62,1.42-1.09C39.05,75.58,38.54,76.08,38.23,76.54Z"/><path class="cls-2" d="M47.91,74.16a.26.26,0,0,0,.36.08c.45.05,1.27-.06.92-.53S48,73.79,47.91,74.16Z"/><path class="cls-2" d="M34.54,73.69a.74.74,0,0,0-.06.37c.55.18,1.94,0,1.48-.86S34.7,73.06,34.54,73.69Z"/><path class="cls-2" d="M36.44,71.4h0a.46.46,0,0,0-.56.44.66.66,0,0,0,.94-.36A.64.64,0,0,0,36.44,71.4Z"/><path class="cls-3" d="M38.24,90.4c-2,1.44,8.19,8.72,14.82,8.46a19.49,19.49,0,0,0,16-10.06c1.76-3.6,1.14-13.81-1-13.1-.78.25.18,3.72-3,9-2.82,4.61-7.63,9.15-14,8.84C42.27,93.08,39.56,89.45,38.24,90.4Z"/><path class="cls-4" d="M60.11,65.13a.92.92,0,0,0-.83,1.4c.55,1.34,3.88,3.52,4.83,3.16s1-1.47-.39-2.52S61.38,65.29,60.11,65.13Z"/><path class="cls-4" d="M61.84,66.92s3.86-3.92,5-5.4a68.51,68.51,0,0,0,3.65-7.09.92.92,0,0,1,.82-.41c.47.09.33.78.33.78s-2.69,5.42-3.78,6.91c-2.21,3-5.13,6.33-5.13,6.33Z"/><path class="cls-4" d="M68.57,59.53c-.24-.05-6.37-.79-6.37-.79l-.23.35,3.17.51,3.15.51Z"/><path class="cls-4" d="M55.31,66.58c-6.58,1.65-16.3-3-16.3-3s6.5-7.45,12.06-8,15.24,3.81,15.24,3.81S61.9,64.93,55.31,66.58Z"/><path class="cls-5" d="M60.17,65.53A1.32,1.32,0,0,0,60,66.85a7,7,0,0,0,2.39,1.87l.16-1.18s-.51-.34-.57-.64a.64.64,0,0,1,.06-.45Z"/><path class="cls-5" d="M64.16,59.58a53,53,0,0,0-11,.1c-5.11.73-12.83,3.14-12.73,3.47s8.43-2.75,12.56-3,11.49,0,11.49,0Z"/><path class="cls-5" d="M61.57,59.77a5.64,5.64,0,0,1-1.07,2,13.89,13.89,0,0,0-1.85,2.83,18,18,0,0,0,2.14-2.63c.61-.89,1.39-2.13,1.39-2.13Z"/><path class="cls-5" d="M56.46,59.81A8.8,8.8,0,0,1,55.33,63C54.2,65.3,53.75,66,54,66s1.12-1.68,1.68-2.93,1.45-3.36,1.45-3.36Z"/><path class="cls-5" d="M51.48,60.27a6,6,0,0,1-.39,2.38c-.51,1.69-1.13,2.64-.89,2.76S51,64,51.36,62.74s.86-2.73.86-2.73Z"/><path class="cls-5" d="M46.13,61.51a3.81,3.81,0,0,1-.27,1.41c-.31.87-.81,1.74-.66,1.73a3,3,0,0,0,.91-1.54c.22-.78.47-1.69.47-1.69Z"/><path class="cls-5" d="M62.18,59.63a7.46,7.46,0,0,0-1.93-1.82,5.94,5.94,0,0,0-2.49-1c-.13.12,1.42.55,2,.9a20.25,20.25,0,0,1,2,1.91Z"/><path class="cls-5" d="M56.92,59.48a4.83,4.83,0,0,0-1.57-2.06,7.77,7.77,0,0,0-3.51-1.34c-.33.11,2.56.82,3.21,1.45a7,7,0,0,1,1.18,2Z"/><path class="cls-5" d="M52.22,60a11.09,11.09,0,0,0-2.37-1.83A10.23,10.23,0,0,0,47,57.47c-.33.05,2.18.55,2.88,1a15.72,15.72,0,0,1,1.78,1.65Z"/><path class="cls-5" d="M46.12,61.37S46,61,44.87,60.53s-1.81-.72-1.56-.72a7.66,7.66,0,0,1,1.55.39,10.3,10.3,0,0,1,1.83,1Z"/><path class="cls-1" d="M36.38,67.3C41.47,71,48.17,82.64,40.29,92.23s-19.41,10.16-28.1,4.52c-9-5.86-13.38-20.18-2.43-30.43C18.54,58.1,28.69,61.74,36.38,67.3Z"/><path class="cls-2" d="M15.07,65.93h0Z"/><path class="cls-2" d="M16.25,67.14c.6-.28,1.27-.88.7-1.42s-1.32.08-1.86.21C14.35,66.6,14.66,67.91,16.25,67.14Z"/><path class="cls-2" d="M15.09,65.92l.92-.35A1.51,1.51,0,0,0,15.09,65.92Z"/><path class="cls-2" d="M13.46,68.49c.23-.16.53-.5.24-.73a.38.38,0,0,0-.57.12.72.72,0,0,0-.37.48C12.71,68.85,13.23,68.66,13.46,68.49Z"/><path class="cls-2" d="M17.36,68.19a.56.56,0,0,0-.56,0c-.26,0-.59.14-.65.35a.23.23,0,0,0,0,.14l-.08,0,.08,0c.07.25.65.07.87,0S17.82,68.43,17.36,68.19Z"/><path class="cls-2" d="M16.06,68.75l0,0Z"/><path class="cls-2" d="M18.62,66.87c-.26.08-.55.36-.4.61s.75.15,1,0C20,67,18.93,66.69,18.62,66.87Z"/><path class="cls-2" d="M19.69,65.32c-.18,0-.5-.1-.64.05a.24.24,0,0,0,0,.3c0,.17.31.33.43.39s1.56.54,1.65.11S20,65.37,19.69,65.32Z"/><path class="cls-2" d="M18.27,64.45c.27.14,1.22.11,1.32-.27s-.52-.47-.77-.43a1,1,0,0,0-.42.23C18.15,64.1,18,64.29,18.27,64.45Z"/><path class="cls-2" d="M13.63,66.67c.5-.36,0-.56-.37-.49h0c-.23,0-.79.25-.64.55S13.44,66.81,13.63,66.67Z"/><path class="cls-2" d="M11.55,69c.19-.21.76-1.12.1-1.15a.45.45,0,0,0-.33.16,1.87,1.87,0,0,0-.66.9C10.41,69.74,11.23,69.36,11.55,69Z"/><path class="cls-2" d="M15.05,69.25a1.31,1.31,0,0,0-.86.07c-.48.13-1,.51-1.13.87-.22.87,1.34.24,1.67.13C15.22,70.15,15.77,69.52,15.05,69.25Z"/><path class="cls-2" d="M17.65,69.94c-.24.08-.51.28-.51.48,0,.43.89.3,1.14.19C19.24,70.17,18,69.75,17.65,69.94Z"/><path class="cls-2" d="M23.77,65.1a.45.45,0,0,0-.43.17,1.2,1.2,0,0,0,1.79,0A1,1,0,0,0,23.77,65.1Z"/><path class="cls-2" d="M21.25,67.35c.54.19,2,.28,2.1-.46a1.3,1.3,0,0,0-1.16-.14C21.74,66.73,21.26,66.88,21.25,67.35Z"/><path class="cls-2" d="M22.3,63.49a.77.77,0,0,0-1.06-.1.49.49,0,0,0-.26.3A1,1,0,0,0,22.3,63.49Z"/><path class="cls-2" d="M26.24,66.56c-1.07,0,.31,1.36.9.93S26.67,66.29,26.24,66.56Z"/><path class="cls-2" d="M11,70.91c-.33-.26-.61,0-.8.3-.71.45-1.58,1.52-.89,1.78C10.16,73.32,11,71.49,11,70.91Z"/><path class="cls-2" d="M9,69.53c-.92.17-.48,1.68.4.65C10,69.54,9.41,69.33,9,69.53Z"/><path class="cls-2" d="M14.28,72.3a.47.47,0,0,0-.34.42c.34.24,1.26.26,1.49-.19C15.77,71.86,14.58,71.78,14.28,72.3Z"/><path class="cls-2" d="M22.46,69.82l-.05-.08a.77.77,0,0,0-.05.19c-.05.09-.05.16,0,.19.19.5,1.25.52,1.05-.11S22.7,69.58,22.46,69.82Z"/><path class="cls-2" d="M31.94,68.5c-.63-.84-1.91,0-1.1.27C31.31,69.11,32.55,69.33,31.94,68.5Z"/><path class="cls-2" d="M9.84,76.54l.13-.22a1.51,1.51,0,0,0-.68,1.06c.37.09,1.45-.62,1.42-1.09C10.67,75.58,10.16,76.08,9.84,76.54Z"/><path class="cls-2" d="M19.53,74.16a.26.26,0,0,0,.36.08c.45.05,1.27-.06.92-.53S19.65,73.79,19.53,74.16Z"/><path class="cls-2" d="M6.16,73.69a.74.74,0,0,0-.06.37c.55.18,1.94,0,1.48-.86S6.32,73.06,6.16,73.69Z"/><path class="cls-2" d="M8.06,71.4h0a.46.46,0,0,0-.56.44.66.66,0,0,0,.94-.36A.64.64,0,0,0,8.06,71.4Z"/><path class="cls-3" d="M9.86,90.4c-2,1.44,8.19,8.72,14.82,8.46a19.49,19.49,0,0,0,16-10.06c1.76-3.6,1.14-13.81-1-13.1-.78.25.18,3.72-3,9-2.82,4.61-7.63,9.15-14,8.84C13.89,93.08,11.18,89.45,9.86,90.4Z"/><path class="cls-4" d="M31.73,65.13a.92.92,0,0,0-.83,1.4c.55,1.34,3.88,3.52,4.83,3.16s1-1.47-.39-2.52S33,65.29,31.73,65.13Z"/><path class="cls-4" d="M33.46,66.92s3.86-3.92,5-5.4a68.51,68.51,0,0,0,3.65-7.09s.34-.5.81-.41.34.78.34.78-2.69,5.42-3.78,6.91c-2.21,3-5.13,6.33-5.13,6.33Z"/><path class="cls-4" d="M40.19,59.53c-.24-.05-6.37-.79-6.37-.79l-.23.35,3.16.51,3.16.51Z"/><path class="cls-4" d="M26.93,66.58c-6.58,1.65-16.3-3-16.3-3s6.5-7.45,12.06-8,15.24,3.81,15.24,3.81S33.52,64.93,26.93,66.58Z"/><path class="cls-5" d="M31.79,65.53a1.32,1.32,0,0,0-.15,1.32A7,7,0,0,0,34,68.72l.16-1.18s-.52-.34-.57-.64a.68.68,0,0,1,.05-.45Z"/><path class="cls-5" d="M35.78,59.58a53,53,0,0,0-11,.1c-5.11.73-12.83,3.14-12.73,3.47s8.43-2.75,12.56-3,11.49,0,11.49,0Z"/><path class="cls-5" d="M33.19,59.77a5.64,5.64,0,0,1-1.07,2,13.89,13.89,0,0,0-1.85,2.83,18,18,0,0,0,2.14-2.63c.61-.89,1.39-2.13,1.39-2.13Z"/><path class="cls-5" d="M28.08,59.81A8.8,8.8,0,0,1,27,63c-1.13,2.28-1.58,2.94-1.3,3s1.12-1.68,1.68-2.93,1.45-3.36,1.45-3.36Z"/><path class="cls-5" d="M23.1,60.27a6,6,0,0,1-.39,2.38c-.51,1.69-1.13,2.64-.89,2.76S22.64,64,23,62.74s.86-2.73.86-2.73Z"/><path class="cls-5" d="M17.75,61.51a3.81,3.81,0,0,1-.27,1.41c-.31.87-.81,1.74-.66,1.73a3.09,3.09,0,0,0,.91-1.54c.22-.78.47-1.69.47-1.69Z"/><path class="cls-5" d="M33.8,59.63a7.46,7.46,0,0,0-1.93-1.82,6,6,0,0,0-2.49-1c-.13.12,1.42.55,2,.9a20.25,20.25,0,0,1,2,1.91Z"/><path class="cls-5" d="M28.54,59.48A4.83,4.83,0,0,0,27,57.42a7.81,7.81,0,0,0-3.51-1.34c-.33.11,2.56.82,3.21,1.45a7,7,0,0,1,1.18,2Z"/><path class="cls-5" d="M23.84,60a11.09,11.09,0,0,0-2.37-1.83,10.32,10.32,0,0,0-2.83-.71c-.33.05,2.18.55,2.88,1a15.72,15.72,0,0,1,1.78,1.65Z"/><path class="cls-5" d="M17.74,61.37s-.08-.41-1.25-.84-1.81-.72-1.56-.72a7.66,7.66,0,0,1,1.55.39,10.3,10.3,0,0,1,1.83,1Z"/><path class="cls-1" d="M94,67.3c5.09,3.69,11.8,15.34,3.91,24.93s-19.4,10.16-28.09,4.52c-9.05-5.86-13.38-20.18-2.43-30.43C76.15,58.1,86.31,61.74,94,67.3Z"/><path class="cls-2" d="M72.68,65.93h0Z"/><path class="cls-2" d="M73.87,67.14c.59-.28,1.26-.88.7-1.42s-1.33.08-1.86.21C72,66.6,72.27,67.91,73.87,67.14Z"/><path class="cls-2" d="M72.71,65.92l.91-.35A1.48,1.48,0,0,0,72.71,65.92Z"/><path class="cls-2" d="M71.08,68.49c.23-.16.53-.5.23-.73a.38.38,0,0,0-.57.12.75.75,0,0,0-.37.48C70.32,68.85,70.85,68.66,71.08,68.49Z"/><path class="cls-2" d="M75,68.19a.56.56,0,0,0-.56,0c-.27,0-.6.14-.66.35a.76.76,0,0,0,0,.14l-.07,0,.08,0c.07.25.65.07.86,0S75.44,68.43,75,68.19Z"/><path class="cls-2" d="M73.68,68.75l0,0Z"/><path class="cls-2" d="M76.23,66.87c-.25.08-.54.36-.39.61s.75.15,1,0C77.66,67,76.55,66.69,76.23,66.87Z"/><path class="cls-2" d="M77.3,65.32c-.17,0-.49-.1-.63.05a.23.23,0,0,0,0,.3c0,.17.3.33.42.39s1.56.54,1.66.11S77.62,65.37,77.3,65.32Z"/><path class="cls-2" d="M75.88,64.45c.27.14,1.23.11,1.32-.27s-.52-.47-.77-.43A1,1,0,0,0,76,64C75.77,64.1,75.58,64.29,75.88,64.45Z"/><path class="cls-2" d="M71.25,66.67c.5-.36,0-.56-.38-.49h0c-.22,0-.78.25-.63.55S71.06,66.81,71.25,66.67Z"/><path class="cls-2" d="M69.17,69c.19-.21.75-1.12.1-1.15a.47.47,0,0,0-.34.16,1.84,1.84,0,0,0-.65.9C68,69.74,68.85,69.36,69.17,69Z"/><path class="cls-2" d="M72.67,69.25a1.31,1.31,0,0,0-.86.07,1.7,1.7,0,0,0-1.14.87c-.21.87,1.34.24,1.67.13C72.83,70.15,73.39,69.52,72.67,69.25Z"/><path class="cls-2" d="M75.27,69.94c-.25.08-.52.28-.51.48,0,.43.89.3,1.14.19C76.86,70.17,75.61,69.75,75.27,69.94Z"/><path class="cls-2" d="M81.39,65.1a.44.44,0,0,0-.43.17,1.19,1.19,0,0,0,1.78,0A1,1,0,0,0,81.39,65.1Z"/><path class="cls-2" d="M78.87,67.35c.53.19,2,.28,2.1-.46a1.3,1.3,0,0,0-1.16-.14C79.35,66.73,78.87,66.88,78.87,67.35Z"/><path class="cls-2" d="M79.91,63.49a.77.77,0,0,0-1.06-.1.45.45,0,0,0-.25.3A1,1,0,0,0,79.91,63.49Z"/><path class="cls-2" d="M83.86,66.56c-1.07,0,.31,1.36.9.93S84.28,66.29,83.86,66.56Z"/><path class="cls-2" d="M68.62,70.91c-.33-.26-.61,0-.8.3-.72.45-1.58,1.52-.9,1.78C67.77,73.32,68.6,71.49,68.62,70.91Z"/><path class="cls-2" d="M66.65,69.53c-.92.17-.48,1.68.39.65C67.59,69.54,67,69.33,66.65,69.53Z"/><path class="cls-2" d="M71.89,72.3a.46.46,0,0,0-.33.42c.34.24,1.26.26,1.49-.19C73.39,71.86,72.2,71.78,71.89,72.3Z"/><path class="cls-2" d="M80.07,69.82l0-.08a.72.72,0,0,0,0,.19c0,.09,0,.16,0,.19.19.5,1.25.52,1-.11S80.32,69.58,80.07,69.82Z"/><path class="cls-2" d="M89.55,68.5c-.62-.84-1.91,0-1.1.27C88.93,69.11,90.16,69.33,89.55,68.5Z"/><path class="cls-2" d="M67.46,76.54l.13-.22a1.48,1.48,0,0,0-.68,1.06c.36.09,1.45-.62,1.42-1.09C68.28,75.58,67.78,76.08,67.46,76.54Z"/><path class="cls-2" d="M77.14,74.16a.26.26,0,0,0,.36.08c.45.05,1.27-.06.92-.53S77.27,73.79,77.14,74.16Z"/><path class="cls-2" d="M63.77,73.69a.88.88,0,0,0-.05.37c.54.18,1.93,0,1.47-.86S63.93,73.06,63.77,73.69Z"/><path class="cls-2" d="M65.68,71.4h0c-.33,0-.54.12-.56.44a.66.66,0,0,0,.94-.36A.64.64,0,0,0,65.68,71.4Z"/><path class="cls-3" d="M67.47,90.4c-2,1.44,8.2,8.72,14.83,8.46a19.53,19.53,0,0,0,16-10.06c1.76-3.6,1.14-13.81-1-13.1-.79.25.17,3.72-3,9-2.82,4.61-7.64,9.15-14,8.84C71.51,93.08,68.8,89.45,67.47,90.4Z"/><path class="cls-4" d="M89.35,65.13a.92.92,0,0,0-.83,1.4c.55,1.34,3.88,3.52,4.83,3.16s1-1.47-.4-2.52S90.62,65.29,89.35,65.13Z"/><path class="cls-4" d="M91.08,66.92s3.86-3.92,5-5.4a68.51,68.51,0,0,0,3.65-7.09s.34-.5.81-.41.34.78.34.78-2.69,5.42-3.78,6.91c-2.22,3-5.14,6.33-5.14,6.33Z"/><path class="cls-4" d="M97.81,59.53c-.24-.05-6.37-.79-6.37-.79l-.23.35,3.16.51,3.16.51Z"/><path class="cls-4" d="M84.54,66.58c-6.57,1.65-16.29-3-16.29-3s6.49-7.45,12.06-8,15.23,3.81,15.23,3.81S91.14,64.93,84.54,66.58Z"/><path class="cls-5" d="M89.4,65.53a1.33,1.33,0,0,0-.14,1.32,6.9,6.9,0,0,0,2.39,1.87l.15-1.18s-.51-.34-.56-.64a.68.68,0,0,1,.05-.45Z"/><path class="cls-5" d="M93.4,59.58a53.06,53.06,0,0,0-11,.1c-5.11.73-12.82,3.14-12.73,3.47s8.44-2.75,12.57-3,11.49,0,11.49,0Z"/><path class="cls-5" d="M90.81,59.77a5.64,5.64,0,0,1-1.07,2,13.89,13.89,0,0,0-1.85,2.83A18,18,0,0,0,90,61.94c.6-.89,1.39-2.13,1.39-2.13Z"/><path class="cls-5" d="M85.69,59.81A8.86,8.86,0,0,1,84.57,63C83.44,65.3,83,66,83.26,66s1.12-1.68,1.69-2.93,1.45-3.36,1.45-3.36Z"/><path class="cls-5" d="M80.71,60.27a6.06,6.06,0,0,1-.38,2.38c-.51,1.69-1.13,2.64-.9,2.76s.82-1.45,1.17-2.67.85-2.73.85-2.73Z"/><path class="cls-5" d="M75.37,61.51a3.72,3.72,0,0,1-.28,1.41c-.31.87-.8,1.74-.66,1.73a3,3,0,0,0,.92-1.54c.22-.78.47-1.69.47-1.69Z"/><path class="cls-5" d="M91.41,59.63a7.26,7.26,0,0,0-1.93-1.82,5.92,5.92,0,0,0-2.48-1c-.13.12,1.41.55,2,.9a20.25,20.25,0,0,1,2,1.91Z"/><path class="cls-5" d="M86.16,59.48a4.91,4.91,0,0,0-1.58-2.06,7.74,7.74,0,0,0-3.5-1.34c-.34.11,2.56.82,3.21,1.45a7,7,0,0,1,1.18,2Z"/><path class="cls-5" d="M81.45,60a11.22,11.22,0,0,0-2.36-1.83,10.32,10.32,0,0,0-2.83-.71c-.34.05,2.17.55,2.87,1a15.23,15.23,0,0,1,1.79,1.65Z"/><path class="cls-5" d="M75.36,61.37s-.08-.41-1.25-.84-1.82-.72-1.56-.72a7.83,7.83,0,0,1,1.55.39,10.71,10.71,0,0,1,1.83,1Z"/></svg>