<svg xmlns="http://www.w3.org/2000/svg" viewBox="0 0 105.29 104.84"><defs><style>.cls-1{isolation:isolate;}.cls-2{fill:#ed7d03;}.cls-3{fill:#ff8c03;}.cls-4{fill:#fcbc08;}.cls-5{fill:#f28106;opacity:0.7;}.cls-6{fill:#7c6a13;}.cls-7{fill:#937b18;}.cls-8{fill:#b86313;}.cls-11,.cls-9{fill:#cc7917;}.cls-10{fill:#9e4727;}.cls-11,.cls-12,.cls-17{opacity:0.5;}.cls-11,.cls-15,.cls-17{mix-blend-mode:multiply;}.cls-13,.cls-16{fill:#fff;}.cls-14,.cls-15{opacity:0.3;}.cls-14{mix-blend-mode:screen;}.cls-16{opacity:0.1;}</style></defs><title>orange22</title><g class="cls-1"><g id="Layer_1" data-name="Layer 1"><path class="cls-2" d="M79.14,44.77c-4.72-1.6-9.71-5.64-10.85-10.73H24.07v30.2H81.38V45.39A21.17,21.17,0,0,1,79.14,44.77Z"/><path class="cls-3" d="M66.6,10.87c3,2.19,6.91,9.14,2.29,14.85s-11.38,6.05-16.47,2.69A11.47,11.47,0,0,1,51,10.28C56.14,5.38,62.09,7.55,66.6,10.87Z"/><path class="cls-4" d="M54.11,10.05h0Z"/><path class="cls-4" d="M54.8,10.77c.35-.17.74-.53.41-.84s-.77,0-1.09.12C53.69,10.45,53.87,11.23,54.8,10.77Z"/><path class="cls-4" d="M54.12,10l.54-.2A.88.88,0,0,0,54.12,10Z"/><path class="cls-4" d="M53.17,11.57c.13-.09.31-.29.13-.43a.22.22,0,0,0-.33.07.44.44,0,0,0-.22.29C52.72,11.79,53,11.67,53.17,11.57Z"/><path class="cls-4" d="M55.45,11.39a.33.33,0,0,0-.33,0c-.15,0-.35.08-.38.21a.25.25,0,0,0,0,.08l0,0,.05,0c0,.15.38,0,.5,0S55.72,11.54,55.45,11.39Z"/><path class="cls-4" d="M54.69,11.73h0Z"/><path class="cls-4" d="M56.19,10.61c-.15,0-.32.21-.24.36s.44.09.57,0C57,10.71,56.37,10.5,56.19,10.61Z"/><path class="cls-4" d="M56.81,9.69c-.1,0-.29-.07-.37,0a.14.14,0,0,0,0,.17c0,.11.18.2.25.24s.91.32,1,.06S57,9.71,56.81,9.69Z"/><path class="cls-4" d="M56,9.17c.16.08.72.06.78-.16s-.31-.28-.45-.26a.58.58,0,0,0-.25.14C55.91,9,55.8,9.07,56,9.17Z"/><path class="cls-4" d="M53.27,10.49c.29-.21,0-.33-.22-.29h0c-.13,0-.46.15-.37.33S53.16,10.58,53.27,10.49Z"/><path class="cls-4" d="M52.05,11.87c.11-.12.44-.66.06-.69a.3.3,0,0,0-.2.1,1.08,1.08,0,0,0-.38.54C51.38,12.32,51.86,12.09,52.05,11.87Z"/><path class="cls-4" d="M54.1,12a.74.74,0,0,0-.5,0c-.29.08-.62.3-.67.51-.13.52.78.15,1,.08S54.52,12.19,54.1,12Z"/><path class="cls-4" d="M55.62,12.44c-.14.05-.3.17-.3.29s.53.17.67.11C56.55,12.57,55.82,12.32,55.62,12.44Z"/><path class="cls-4" d="M59.21,9.55a.26.26,0,0,0-.25.11.68.68,0,0,0,1,0A.59.59,0,0,0,59.21,9.55Z"/><path class="cls-4" d="M57.73,10.9c.32.11,1.17.16,1.23-.28a.75.75,0,0,0-.68-.08C58,10.53,57.73,10.62,57.73,10.9Z"/><path class="cls-4" d="M58.35,8.6a.46.46,0,0,0-.63-.07.34.34,0,0,0-.15.18A.61.61,0,0,0,58.35,8.6Z"/><path class="cls-4" d="M60.66,10.42c-.63,0,.18.81.53.56S60.91,10.26,60.66,10.42Z"/><path class="cls-4" d="M51.72,13c-.19-.16-.35,0-.46.18-.42.27-.93.9-.53,1.06S51.71,13.36,51.72,13Z"/><path class="cls-4" d="M50.57,12.19c-.54.11-.28,1,.23.39C51.12,12.2,50.79,12.08,50.57,12.19Z"/><path class="cls-4" d="M53.64,13.84a.27.27,0,0,0-.19.25c.2.15.73.16.87-.11S53.82,13.53,53.64,13.84Z"/><path class="cls-4" d="M58.44,12.36l0,0a.61.61,0,0,0,0,.11c0,.05,0,.1,0,.12.11.29.73.3.61-.07S58.58,12.22,58.44,12.36Z"/><path class="cls-4" d="M64,11.58c-.36-.5-1.11,0-.64.16C63.63,11.94,64.35,12.07,64,11.58Z"/><path class="cls-4" d="M51.05,16.37l.07-.13a.88.88,0,0,0-.4.63c.22.06.85-.37.83-.65S51.23,16.1,51.05,16.37Z"/><path class="cls-4" d="M56.72,15a.16.16,0,0,0,.21.05c.26,0,.75,0,.54-.32S56.79,14.73,56.72,15Z"/><path class="cls-4" d="M48.89,14.67a.54.54,0,0,0,0,.22c.32.11,1.14,0,.87-.51S49,14.3,48.89,14.67Z"/><path class="cls-4" d="M50,13.31h0a.27.27,0,0,0-.33.27.4.4,0,0,0,.55-.22A.39.39,0,0,0,50,13.31Z"/><path class="cls-5" d="M51.05,24.63c-1.17.86,4.81,5.19,8.69,5a11.44,11.44,0,0,0,9.4-6c1-2.15.67-8.24-.61-7.81-.46.15.1,2.22-1.78,5.34-1.66,2.75-4.48,5.46-8.22,5.27C53.42,26.23,51.83,24.06,51.05,24.63Z"/><path class="cls-6" d="M63.87,9.57a.55.55,0,0,0-.48.84c.32.79,2.27,2.09,2.83,1.88s.59-.87-.23-1.5A4.73,4.73,0,0,0,63.87,9.57Z"/><path class="cls-6" d="M64.89,10.64s2.26-2.34,2.9-3.22a39.83,39.83,0,0,0,2.14-4.23A.55.55,0,0,1,70.41,3c.28,0,.2.47.2.47S69,6.65,68.39,7.53c-1.3,1.81-3,3.78-3,3.78Z"/><path class="cls-6" d="M68.83,6.23,65.1,5.76,65,6l1.86.31,1.85.3Z"/><path class="cls-6" d="M61.06,10.44c-3.85,1-9.55-1.77-9.55-1.77s3.8-4.44,7.07-4.77,8.93,2.27,8.93,2.27A13.56,13.56,0,0,1,61.06,10.44Z"/><path class="cls-7" d="M63.91,9.81a.81.81,0,0,0-.09.79,4.09,4.09,0,0,0,1.4,1.11l.09-.7s-.3-.21-.33-.38a.39.39,0,0,1,0-.27Z"/><path class="cls-7" d="M66.25,6.27a29.77,29.77,0,0,0-6.46.06c-3,.43-7.52,1.86-7.46,2.06s4.94-1.63,7.36-1.8,6.73,0,6.73,0Z"/><path class="cls-7" d="M64.73,6.38a3.28,3.28,0,0,1-.63,1.17A8.7,8.7,0,0,0,63,9.24a10.44,10.44,0,0,0,1.25-1.57c.36-.53.82-1.27.82-1.27Z"/><path class="cls-7" d="M61.73,6.4a5.29,5.29,0,0,1-.66,1.91c-.66,1.36-.93,1.76-.76,1.79s.65-1,1-1.74.84-2,.84-2Z"/><path class="cls-7" d="M58.81,6.67a3.76,3.76,0,0,1-.22,1.43c-.3,1-.66,1.57-.53,1.64s.48-.87.69-1.59.5-1.63.5-1.63Z"/><path class="cls-7" d="M55.68,7.42a2.39,2.39,0,0,1-.16.84c-.18.51-.47,1-.39,1a1.84,1.84,0,0,0,.54-.92l.28-1Z"/><path class="cls-7" d="M65.08,6.3A4.19,4.19,0,0,0,64,5.21a3.51,3.51,0,0,0-1.45-.6c-.08.07.82.33,1.15.54a12.23,12.23,0,0,1,1.18,1.14Z"/><path class="cls-7" d="M62,6.21A2.91,2.91,0,0,0,61.08,5a4.57,4.57,0,0,0-2-.8c-.2.06,1.5.49,1.88.86a4.23,4.23,0,0,1,.69,1.21Z"/><path class="cls-7" d="M59.25,6.52a6.75,6.75,0,0,0-1.39-1.09A5.58,5.58,0,0,0,56.2,5c-.19,0,1.28.33,1.69.62a9.06,9.06,0,0,1,1,1Z"/><path class="cls-7" d="M55.68,7.33s0-.24-.74-.5S53.88,6.4,54,6.4a4.31,4.31,0,0,1,.91.24,5.61,5.61,0,0,1,1.07.6Z"/><path class="cls-3" d="M46.85,12c3,2.19,6.91,9.14,2.29,14.85s-11.37,6.05-16.47,2.7a11.48,11.48,0,0,1-1.42-18.14C36.39,6.5,42.34,8.67,46.85,12Z"/><path class="cls-4" d="M34.36,11.16h0Z"/><path class="cls-4" d="M35.05,11.88c.35-.17.74-.53.42-.84s-.78,0-1.1.12C33.94,11.56,34.12,12.34,35.05,11.88Z"/><path class="cls-4" d="M34.38,11.16l.53-.21A.78.78,0,0,0,34.38,11.16Z"/><path class="cls-4" d="M33.42,12.69c.13-.1.31-.3.14-.44a.23.23,0,0,0-.34.07.43.43,0,0,0-.21.29C33,12.9,33.28,12.79,33.42,12.69Z"/><path class="cls-4" d="M35.71,12.51a.32.32,0,0,0-.33,0c-.16,0-.35.08-.39.21a.11.11,0,0,0,0,.08l-.05,0,.05,0c0,.15.38,0,.51,0S36,12.65,35.71,12.51Z"/><path class="cls-4" d="M34.94,12.84h0Z"/><path class="cls-4" d="M36.44,11.72c-.15,0-.32.22-.23.36s.44.09.56,0C37.27,11.82,36.63,11.61,36.44,11.72Z"/><path class="cls-4" d="M37.07,10.8c-.11,0-.29-.06-.37,0a.15.15,0,0,0,0,.18c0,.1.18.19.25.23s.92.32,1,.06S37.25,10.83,37.07,10.8Z"/><path class="cls-4" d="M36.24,10.28c.15.08.71.06.77-.16s-.31-.28-.45-.26a.5.5,0,0,0-.24.14C36.17,10.07,36.06,10.18,36.24,10.28Z"/><path class="cls-4" d="M33.52,11.6c.29-.21,0-.33-.22-.29h0c-.14,0-.47.14-.38.32S33.41,11.69,33.52,11.6Z"/><path class="cls-4" d="M32.3,13c.11-.13.44-.67.06-.69a.23.23,0,0,0-.2.1,1.06,1.06,0,0,0-.38.53C31.63,13.43,32.11,13.2,32.3,13Z"/><path class="cls-4" d="M34.35,13.14a.74.74,0,0,0-.5,0,1,1,0,0,0-.67.52c-.12.52.79.14,1,.08S34.77,13.3,34.35,13.14Z"/><path class="cls-4" d="M35.87,13.55c-.14,0-.3.17-.29.29s.52.18.66.11C36.8,13.69,36.07,13.44,35.87,13.55Z"/><path class="cls-4" d="M39.46,10.67a.23.23,0,0,0-.25.1.7.7,0,0,0,1,0A.59.59,0,0,0,39.46,10.67Z"/><path class="cls-4" d="M38,12c.32.11,1.17.16,1.23-.28a.75.75,0,0,0-.68-.08C38.27,11.64,38,11.73,38,12Z"/><path class="cls-4" d="M38.6,9.71A.45.45,0,0,0,38,9.65a.26.26,0,0,0-.14.18A.61.61,0,0,0,38.6,9.71Z"/><path class="cls-4" d="M40.91,11.54c-.63,0,.18.8.53.55S41.16,11.37,40.91,11.54Z"/><path class="cls-4" d="M32,14.13c-.2-.15-.36,0-.47.18-.42.27-.93.9-.53,1.06S32,14.48,32,14.13Z"/><path class="cls-4" d="M30.82,13.3c-.54.11-.28,1,.23.39C31.37,13.31,31.05,13.19,30.82,13.3Z"/><path class="cls-4" d="M33.9,15a.27.27,0,0,0-.2.24c.2.15.74.16.87-.11S34.08,14.64,33.9,15Z"/><path class="cls-4" d="M38.69,13.48l0-.05a.52.52,0,0,0,0,.11c0,.06,0,.1,0,.12.11.29.73.3.62-.07S38.84,13.34,38.69,13.48Z"/><path class="cls-4" d="M44.25,12.69c-.37-.5-1.12,0-.65.16C43.88,13.05,44.6,13.19,44.25,12.69Z"/><path class="cls-4" d="M31.3,17.48l.07-.13A.93.93,0,0,0,31,18c.22.06.85-.36.84-.65S31.48,17.21,31.3,17.48Z"/><path class="cls-4" d="M37,16.06a.15.15,0,0,0,.22.05c.26,0,.74,0,.53-.31S37.05,15.84,37,16.06Z"/><path class="cls-4" d="M29.14,15.78a.41.41,0,0,0,0,.22c.32.11,1.13,0,.86-.51S29.23,15.41,29.14,15.78Z"/><path class="cls-4" d="M30.25,14.42h0a.26.26,0,0,0-.33.26.39.39,0,0,0,.55-.21A.34.34,0,0,0,30.25,14.42Z"/><path class="cls-5" d="M31.31,25.74c-1.18.86,4.8,5.2,8.68,5a11.44,11.44,0,0,0,9.41-6c1-2.15.66-8.23-.62-7.81-.46.15.1,2.22-1.78,5.35-1.65,2.74-4.48,5.45-8.21,5.26C33.67,27.34,32.08,25.17,31.31,25.74Z"/><path class="cls-6" d="M44.13,10.68a.55.55,0,0,0-.49.84c.32.8,2.27,2.1,2.83,1.88s.59-.87-.23-1.5A4.86,4.86,0,0,0,44.13,10.68Z"/><path class="cls-6" d="M45.14,11.75s2.26-2.34,2.91-3.22a42,42,0,0,0,2.14-4.22s.2-.3.47-.25.2.47.2.47-1.58,3.23-2.22,4.12c-1.29,1.8-3,3.77-3,3.77Z"/><path class="cls-6" d="M49.08,7.34l-3.73-.47-.13.22,1.85.3,1.85.31Z"/><path class="cls-6" d="M41.31,11.55c-3.85,1-9.55-1.77-9.55-1.77S35.57,5.35,38.83,5s8.93,2.27,8.93,2.27A13.42,13.42,0,0,1,41.31,11.55Z"/><path class="cls-7" d="M44.16,10.92a.82.82,0,0,0-.09.79,4.16,4.16,0,0,0,1.4,1.12l.1-.71s-.31-.2-.34-.38a.39.39,0,0,1,0-.27Z"/><path class="cls-7" d="M46.5,7.38A30.51,30.51,0,0,0,40,7.44c-3,.43-7.52,1.87-7.46,2.07s4.94-1.64,7.36-1.8,6.74,0,6.74,0Z"/><path class="cls-7" d="M45,7.49a3.28,3.28,0,0,1-.63,1.17,8.7,8.7,0,0,0-1.08,1.69,9.93,9.93,0,0,0,1.25-1.57c.36-.53.82-1.27.82-1.27Z"/><path class="cls-7" d="M42,7.51a5,5,0,0,1-.66,1.92c-.66,1.36-.92,1.75-.76,1.78s.66-1,1-1.74.85-2,.85-2Z"/><path class="cls-7" d="M39.07,7.79a3.65,3.65,0,0,1-.23,1.42c-.3,1-.66,1.57-.53,1.64S38.8,10,39,9.26s.5-1.62.5-1.62Z"/><path class="cls-7" d="M35.93,8.53a2.13,2.13,0,0,1-.16.84c-.18.51-.47,1-.38,1a1.93,1.93,0,0,0,.53-.92l.28-1Z"/><path class="cls-7" d="M45.34,7.41a4.38,4.38,0,0,0-1.13-1.09,3.46,3.46,0,0,0-1.46-.59c-.08.07.83.32,1.15.53A12.23,12.23,0,0,1,45.08,7.4Z"/><path class="cls-7" d="M42.26,7.32a2.88,2.88,0,0,0-.93-1.23,4.57,4.57,0,0,0-2-.8c-.2.06,1.5.49,1.88.87a4.1,4.1,0,0,1,.69,1.2Z"/><path class="cls-7" d="M39.5,7.64a6.69,6.69,0,0,0-1.39-1.1,6.29,6.29,0,0,0-1.66-.42c-.19,0,1.28.33,1.69.62a9.06,9.06,0,0,1,1,1Z"/><path class="cls-7" d="M35.93,8.44s0-.24-.73-.5-1.07-.43-.92-.43a4.88,4.88,0,0,1,.91.24,5.46,5.46,0,0,1,1.07.61Z"/><path class="cls-3" d="M80.5,22.55c3,2.19,6.91,9.14,2.29,14.85s-11.37,6.05-16.46,2.69A11.48,11.48,0,0,1,64.9,22C70.05,17.07,76,19.23,80.5,22.55Z"/><path class="cls-4" d="M68,21.73h0Z"/><path class="cls-4" d="M68.71,22.45c.35-.17.74-.53.41-.84s-.78,0-1.09.12C67.59,22.13,67.77,22.91,68.71,22.45Z"/><path class="cls-4" d="M68,21.73l.53-.21A.82.82,0,0,0,68,21.73Z"/><path class="cls-4" d="M67.07,23.26c.14-.1.32-.3.14-.44a.22.22,0,0,0-.33.07.44.44,0,0,0-.22.29C66.63,23.47,66.94,23.36,67.07,23.26Z"/><path class="cls-4" d="M69.36,23.08a.3.3,0,0,0-.33,0c-.15,0-.35.08-.38.21a.25.25,0,0,0,0,.08l0,0,0,0c0,.15.39,0,.51,0S69.63,23.22,69.36,23.08Z"/><path class="cls-4" d="M68.6,23.41h0Z"/><path class="cls-4" d="M70.09,22.29c-.15.05-.32.21-.23.36s.44.09.57,0C70.93,22.39,70.28,22.18,70.09,22.29Z"/><path class="cls-4" d="M70.72,21.37c-.1,0-.29-.07-.37,0a.12.12,0,0,0,0,.17c0,.11.18.2.25.24s.91.32,1,.06S70.91,21.39,70.72,21.37Z"/><path class="cls-4" d="M69.89,20.85c.16.08.72.06.77-.16s-.3-.28-.45-.26a.61.61,0,0,0-.24.14C69.82,20.64,69.71,20.75,69.89,20.85Z"/><path class="cls-4" d="M67.17,22.17c.29-.21,0-.33-.22-.29h0c-.13,0-.46.14-.37.32S67.06,22.26,67.17,22.17Z"/><path class="cls-4" d="M66,23.56c.1-.13.44-.67.05-.69a.22.22,0,0,0-.19.1,1.08,1.08,0,0,0-.39.53C65.28,24,65.77,23.77,66,23.56Z"/><path class="cls-4" d="M68,23.71a.74.74,0,0,0-.5,0,1,1,0,0,0-.66.52c-.13.51.78.14,1,.07S68.43,23.87,68,23.71Z"/><path class="cls-4" d="M69.53,24.12c-.15.05-.3.17-.3.29s.52.18.67.11C70.46,24.26,69.73,24,69.53,24.12Z"/><path class="cls-4" d="M73.11,21.24a.25.25,0,0,0-.25.1.69.69,0,0,0,1,0A.59.59,0,0,0,73.11,21.24Z"/><path class="cls-4" d="M71.64,22.58c.31.11,1.16.16,1.23-.28a.75.75,0,0,0-.68-.08C71.92,22.21,71.64,22.3,71.64,22.58Z"/><path class="cls-4" d="M72.25,20.28a.45.45,0,0,0-.62-.07.32.32,0,0,0-.15.19A.61.61,0,0,0,72.25,20.28Z"/><path class="cls-4" d="M74.56,22.11c-.62,0,.18.8.53.55S74.81,21.94,74.56,22.11Z"/><path class="cls-4" d="M65.63,24.7c-.19-.16-.36,0-.47.18-.42.27-.92.9-.52,1.06S65.62,25,65.63,24.7Z"/><path class="cls-4" d="M64.48,23.87c-.54.11-.29,1,.23.39C65,23.88,64.7,23.76,64.48,23.87Z"/><path class="cls-4" d="M67.55,25.52a.31.31,0,0,0-.2.25c.2.15.74.16.88-.11S67.73,25.21,67.55,25.52Z"/><path class="cls-4" d="M72.34,24.05l0-.05a.52.52,0,0,0,0,.11c0,.06,0,.1,0,.12.11.29.73.3.61-.07S72.49,23.9,72.34,24.05Z"/><path class="cls-4" d="M77.9,23.26c-.36-.5-1.12,0-.64.16C77.53,23.62,78.26,23.75,77.9,23.26Z"/><path class="cls-4" d="M65,28.05l.08-.13a.9.9,0,0,0-.4.63c.21.06.85-.37.83-.65S65.14,27.78,65,28.05Z"/><path class="cls-4" d="M70.63,26.63c.08.09.14.09.21.05.26,0,.74,0,.54-.31S70.7,26.41,70.63,26.63Z"/><path class="cls-4" d="M62.79,26.35a.41.41,0,0,0,0,.22c.32.11,1.13,0,.87-.51S62.88,26,62.79,26.35Z"/><path class="cls-4" d="M63.91,25h0a.27.27,0,0,0-.33.27.4.4,0,0,0,.56-.22A.41.41,0,0,0,63.91,25Z"/><path class="cls-5" d="M65,36.31c-1.17.86,4.8,5.19,8.69,5a11.44,11.44,0,0,0,9.4-6c1-2.15.67-8.23-.62-7.81-.46.15.11,2.22-1.78,5.35-1.65,2.74-4.47,5.45-8.21,5.26C67.32,37.91,65.74,35.74,65,36.31Z"/><path class="cls-6" d="M77.78,21.25a.55.55,0,0,0-.49.84c.33.8,2.28,2.1,2.84,1.88s.58-.87-.24-1.5A4.66,4.66,0,0,0,77.78,21.25Z"/><path class="cls-6" d="M78.8,22.32S81.05,20,81.7,19.1a42,42,0,0,0,2.14-4.22s.2-.3.48-.25.19.47.19.47-1.57,3.23-2.21,4.12c-1.3,1.8-3,3.77-3,3.77Z"/><path class="cls-6" d="M82.74,17.91,79,17.44l-.14.22,1.85.3,1.86.3Z"/><path class="cls-6" d="M75,22.12c-3.86,1-9.55-1.77-9.55-1.77s3.8-4.43,7.06-4.77,8.93,2.27,8.93,2.27A13.5,13.5,0,0,1,75,22.12Z"/><path class="cls-7" d="M77.81,21.49a.8.8,0,0,0-.08.79,4.09,4.09,0,0,0,1.4,1.11l.09-.7s-.3-.21-.33-.38a.39.39,0,0,1,0-.27Z"/><path class="cls-7" d="M80.15,18a30.48,30.48,0,0,0-6.46.06c-3,.43-7.52,1.86-7.46,2.07s5-1.64,7.36-1.8,6.74,0,6.74,0Z"/><path class="cls-7" d="M78.64,18.06A3.52,3.52,0,0,1,78,19.23a8.47,8.47,0,0,0-1.09,1.69,10.43,10.43,0,0,0,1.26-1.57c.35-.53.81-1.27.81-1.27Z"/><path class="cls-7" d="M75.64,18.08A5.29,5.29,0,0,1,75,20c-.66,1.36-.93,1.76-.77,1.79s.66-1,1-1.74.85-2,.85-2Z"/><path class="cls-7" d="M72.72,18.36a3.65,3.65,0,0,1-.23,1.42c-.29,1-.66,1.57-.52,1.64s.48-.87.68-1.59.5-1.63.5-1.63Z"/><path class="cls-7" d="M69.59,19.1a2.39,2.39,0,0,1-.16.84c-.19.51-.48,1-.39,1a1.92,1.92,0,0,0,.54-.92c.13-.46.27-1,.27-1Z"/><path class="cls-7" d="M79,18a4.38,4.38,0,0,0-1.13-1.09,3.46,3.46,0,0,0-1.46-.59c-.07.07.83.32,1.15.53A12.62,12.62,0,0,1,78.74,18Z"/><path class="cls-7" d="M75.91,17.89A2.91,2.91,0,0,0,75,16.66a4.56,4.56,0,0,0-2.06-.8c-.19.06,1.5.49,1.88.87a4.22,4.22,0,0,1,.7,1.2Z"/><path class="cls-7" d="M73.15,18.2a6.6,6.6,0,0,0-1.38-1.09,6,6,0,0,0-1.66-.42c-.2,0,1.27.33,1.68.62a8.6,8.6,0,0,1,1,1Z"/><path class="cls-7" d="M69.58,19s0-.24-.73-.5-1.06-.43-.92-.43a4.88,4.88,0,0,1,.91.24,5.66,5.66,0,0,1,1.08.61Z"/><path class="cls-3" d="M59.94,19.31c3,2.19,6.91,9.14,2.29,14.85s-11.38,6.05-16.47,2.69a11.47,11.47,0,0,1-1.42-18.13C49.48,13.83,55.43,16,59.94,19.31Z"/><path class="cls-4" d="M47.45,18.49h0Z"/><path class="cls-4" d="M48.14,19.21c.35-.17.74-.53.41-.84s-.77,0-1.09.12C47,18.89,47.21,19.67,48.14,19.21Z"/><path class="cls-4" d="M47.46,18.49l.54-.21A.83.83,0,0,0,47.46,18.49Z"/><path class="cls-4" d="M46.51,20c.13-.1.31-.3.13-.44a.22.22,0,0,0-.33.07.44.44,0,0,0-.22.29C46.06,20.23,46.37,20.12,46.51,20Z"/><path class="cls-4" d="M48.79,19.84a.3.3,0,0,0-.33,0c-.15,0-.35.08-.38.21a.25.25,0,0,0,0,.08l0,0,0,0c0,.15.38,0,.5,0S49.06,20,48.79,19.84Z"/><path class="cls-4" d="M48,20.17h0Z"/><path class="cls-4" d="M49.53,19.05c-.15.05-.32.21-.24.36s.44.09.57,0C50.36,19.15,49.71,18.94,49.53,19.05Z"/><path class="cls-4" d="M50.15,18.13c-.1,0-.29-.07-.37,0a.14.14,0,0,0,0,.17c0,.11.18.2.25.24s.91.32,1,.06S50.34,18.15,50.15,18.13Z"/><path class="cls-4" d="M49.32,17.61c.16.08.72.06.78-.16s-.31-.28-.46-.26a.61.61,0,0,0-.24.14C49.25,17.4,49.14,17.51,49.32,17.61Z"/><path class="cls-4" d="M46.61,18.93c.29-.21,0-.33-.22-.29h0c-.13,0-.46.14-.37.32S46.5,19,46.61,18.93Z"/><path class="cls-4" d="M45.39,20.32c.11-.13.44-.67.06-.69a.23.23,0,0,0-.2.1,1.06,1.06,0,0,0-.38.53C44.72,20.76,45.2,20.53,45.39,20.32Z"/><path class="cls-4" d="M47.44,20.47a.77.77,0,0,0-.51,0,1,1,0,0,0-.66.52c-.13.51.78.14,1,.07S47.86,20.63,47.44,20.47Z"/><path class="cls-4" d="M49,20.88c-.14.05-.3.17-.3.29s.53.18.67.11C49.89,21,49.16,20.76,49,20.88Z"/><path class="cls-4" d="M52.55,18a.23.23,0,0,0-.25.1.68.68,0,0,0,1,0A.58.58,0,0,0,52.55,18Z"/><path class="cls-4" d="M51.07,19.34c.32.11,1.17.16,1.23-.28a.75.75,0,0,0-.68-.08C51.36,19,51.07,19.06,51.07,19.34Z"/><path class="cls-4" d="M51.68,17a.44.44,0,0,0-.62-.07.32.32,0,0,0-.15.19A.61.61,0,0,0,51.68,17Z"/><path class="cls-4" d="M54,18.87c-.63,0,.18.8.53.55S54.25,18.7,54,18.87Z"/><path class="cls-4" d="M45.06,21.46c-.19-.16-.35,0-.46.18-.42.27-.93.9-.53,1.06S45.05,21.8,45.06,21.46Z"/><path class="cls-4" d="M43.91,20.63c-.54.11-.28,1,.23.39C44.46,20.64,44.13,20.52,43.91,20.63Z"/><path class="cls-4" d="M47,22.28a.28.28,0,0,0-.19.25c.2.15.73.16.87-.11S47.16,22,47,22.28Z"/><path class="cls-4" d="M51.78,20.81l0,0a.26.26,0,0,0,0,.11c0,.05,0,.1,0,.12.11.29.73.3.61-.07S51.92,20.66,51.78,20.81Z"/><path class="cls-4" d="M57.33,20c-.36-.5-1.12,0-.64.16C57,20.38,57.69,20.51,57.33,20Z"/><path class="cls-4" d="M44.39,24.81l.07-.13a.9.9,0,0,0-.4.63c.22.06.85-.37.83-.65S44.57,24.54,44.39,24.81Z"/><path class="cls-4" d="M50.06,23.39c.08.09.14.09.21.05.26,0,.75,0,.54-.31S50.13,23.17,50.06,23.39Z"/><path class="cls-4" d="M42.23,23.11a.54.54,0,0,0,0,.22c.32.11,1.14,0,.87-.51S42.32,22.74,42.23,23.11Z"/><path class="cls-4" d="M43.34,21.75h0c-.19,0-.32.07-.33.27a.39.39,0,0,0,.55-.22A.39.39,0,0,0,43.34,21.75Z"/><path class="cls-5" d="M44.39,33.07c-1.17.86,4.81,5.19,8.69,5a11.44,11.44,0,0,0,9.4-6c1-2.15.67-8.23-.61-7.81-.46.15.1,2.22-1.78,5.35-1.66,2.74-4.48,5.45-8.22,5.26C46.76,34.67,45.17,32.5,44.39,33.07Z"/><path class="cls-6" d="M57.21,18a.55.55,0,0,0-.48.84c.32.8,2.27,2.1,2.83,1.88s.59-.87-.23-1.5A4.73,4.73,0,0,0,57.21,18Z"/><path class="cls-6" d="M58.23,19.08s2.26-2.34,2.9-3.22a39.9,39.9,0,0,0,2.14-4.22s.2-.3.48-.25.2.47.2.47S62.37,15.09,61.73,16c-1.3,1.8-3,3.77-3,3.77Z"/><path class="cls-6" d="M62.17,14.67l-3.73-.47-.14.22,1.86.3L62,15Z"/><path class="cls-6" d="M54.4,18.88c-3.85,1-9.55-1.77-9.55-1.77s3.8-4.43,7.07-4.77,8.93,2.27,8.93,2.27A13.56,13.56,0,0,1,54.4,18.88Z"/><path class="cls-7" d="M57.25,18.25a.82.82,0,0,0-.09.79,4.09,4.09,0,0,0,1.4,1.11l.09-.7s-.3-.21-.33-.38a.39.39,0,0,1,0-.27Z"/><path class="cls-7" d="M59.59,14.71a30.51,30.51,0,0,0-6.46.06c-3,.43-7.52,1.86-7.46,2.07S50.61,15.2,53,15s6.73,0,6.73,0Z"/><path class="cls-7" d="M58.07,14.82A3.28,3.28,0,0,1,57.44,16a8.7,8.7,0,0,0-1.08,1.69,9.93,9.93,0,0,0,1.25-1.57c.36-.53.82-1.27.82-1.27Z"/><path class="cls-7" d="M55.07,14.84a5.29,5.29,0,0,1-.66,1.91c-.66,1.36-.93,1.76-.76,1.79s.65-1,1-1.74.84-2,.84-2Z"/><path class="cls-7" d="M52.15,15.12a3.72,3.72,0,0,1-.22,1.42c-.3,1-.66,1.57-.53,1.64s.48-.87.69-1.59.5-1.63.5-1.63Z"/><path class="cls-7" d="M49,15.86a2.39,2.39,0,0,1-.16.84c-.18.51-.47,1-.39,1a1.84,1.84,0,0,0,.54-.92l.28-1Z"/><path class="cls-7" d="M58.42,14.74a4.19,4.19,0,0,0-1.13-1.09,3.44,3.44,0,0,0-1.45-.59c-.08.07.82.32,1.15.53a12.23,12.23,0,0,1,1.18,1.14Z"/><path class="cls-7" d="M55.34,14.65a2.91,2.91,0,0,0-.92-1.23,4.57,4.57,0,0,0-2.05-.8c-.2.06,1.5.49,1.88.87a4.1,4.1,0,0,1,.69,1.2Z"/><path class="cls-7" d="M52.59,15a6.75,6.75,0,0,0-1.39-1.09,5.58,5.58,0,0,0-1.66-.42c-.19,0,1.28.33,1.69.62a9.06,9.06,0,0,1,1,1Z"/><path class="cls-7" d="M49,15.77s-.05-.24-.74-.5-1.06-.43-.91-.43a5.09,5.09,0,0,1,.91.24,5.81,5.81,0,0,1,1.07.61Z"/><path class="cls-3" d="M69.66,29.5c3,2.2,6.91,9.14,2.29,14.85s-11.38,6.06-16.47,2.7a11.48,11.48,0,0,1-1.42-18.14C59.2,24,65.15,26.19,69.66,29.5Z"/><path class="cls-4" d="M57.17,28.69h0Z"/><path class="cls-4" d="M57.86,29.41c.35-.17.74-.53.41-.85s-.77,0-1.09.12C56.75,29.08,56.93,29.86,57.86,29.41Z"/><path class="cls-4" d="M57.18,28.68l.54-.21A.83.83,0,0,0,57.18,28.68Z"/><path class="cls-4" d="M56.23,30.21c.13-.1.31-.3.13-.44a.22.22,0,0,0-.33.07.44.44,0,0,0-.22.29C55.78,30.42,56.09,30.31,56.23,30.21Z"/><path class="cls-4" d="M58.51,30a.35.35,0,0,0-.33,0c-.15,0-.35.08-.38.21a.25.25,0,0,0,0,.08l0,0,0,0c0,.14.38,0,.5,0S58.78,30.18,58.51,30Z"/><path class="cls-4" d="M57.75,30.36l0,0Z"/><path class="cls-4" d="M59.25,29.25c-.15,0-.32.21-.24.35s.44.09.57,0C60.08,29.35,59.43,29.13,59.25,29.25Z"/><path class="cls-4" d="M59.87,28.32c-.1,0-.29-.06-.37,0a.15.15,0,0,0,0,.18c0,.1.18.2.25.23s.91.33,1,.07S60.06,28.35,59.87,28.32Z"/><path class="cls-4" d="M59,27.8c.16.09.72.07.78-.16s-.31-.28-.46-.26a.61.61,0,0,0-.24.14C59,27.59,58.86,27.71,59,27.8Z"/><path class="cls-4" d="M56.33,29.13c.29-.22,0-.34-.22-.3h0c-.13,0-.46.14-.37.32S56.22,29.21,56.33,29.13Z"/><path class="cls-4" d="M55.11,30.51c.11-.13.44-.67.06-.69a.26.26,0,0,0-.2.1,1.06,1.06,0,0,0-.38.53C54.44,31,54.92,30.73,55.11,30.51Z"/><path class="cls-4" d="M57.16,30.66a.83.83,0,0,0-.51,0,1,1,0,0,0-.66.52c-.13.52.78.15,1,.08S57.58,30.82,57.16,30.66Z"/><path class="cls-4" d="M58.68,31.07c-.14.05-.3.17-.3.29s.53.18.67.11C59.61,31.21,58.88,31,58.68,31.07Z"/><path class="cls-4" d="M62.27,28.19a.25.25,0,0,0-.25.1.69.69,0,0,0,1,0A.57.57,0,0,0,62.27,28.19Z"/><path class="cls-4" d="M60.79,29.53c.31.11,1.16.17,1.23-.28a.75.75,0,0,0-.68-.08C61.08,29.16,60.79,29.25,60.79,29.53Z"/><path class="cls-4" d="M61.4,27.23a.44.44,0,0,0-.62-.06.28.28,0,0,0-.15.18A.59.59,0,0,0,61.4,27.23Z"/><path class="cls-4" d="M63.72,29.06c-.63,0,.18.81.52.55S64,28.9,63.72,29.06Z"/><path class="cls-4" d="M54.78,31.65c-.19-.15-.35,0-.46.18-.42.27-.93.91-.53,1.06S54.77,32,54.78,31.65Z"/><path class="cls-4" d="M53.63,30.83c-.54.1-.28,1,.23.39C54.18,30.83,53.85,30.71,53.63,30.83Z"/><path class="cls-4" d="M56.7,32.48a.26.26,0,0,0-.19.25c.2.14.73.15.87-.11S56.88,32.17,56.7,32.48Z"/><path class="cls-4" d="M61.5,31l0,0a.23.23,0,0,0,0,.11c0,.05,0,.09,0,.11.11.3.73.31.61-.06S61.64,30.86,61.5,31Z"/><path class="cls-4" d="M67.05,30.22c-.36-.51-1.12,0-.64.15C66.69,30.58,67.41,30.71,67.05,30.22Z"/><path class="cls-4" d="M54.11,35l.07-.13a.9.9,0,0,0-.4.63c.22.06.85-.36.83-.64S54.29,34.73,54.11,35Z"/><path class="cls-4" d="M59.78,33.59a.14.14,0,0,0,.21,0c.26,0,.75,0,.54-.31S59.85,33.37,59.78,33.59Z"/><path class="cls-4" d="M51.94,33.31a.49.49,0,0,0,0,.22c.32.1,1.14,0,.87-.51S52,32.93,51.94,33.31Z"/><path class="cls-4" d="M53.06,32h0a.26.26,0,0,0-.33.26.39.39,0,0,0,.55-.21A.33.33,0,0,0,53.06,32Z"/><path class="cls-5" d="M54.11,43.26c-1.17.86,4.81,5.2,8.69,5.05a11.47,11.47,0,0,0,9.4-6c1-2.14.67-8.23-.61-7.81-.46.16.1,2.22-1.78,5.35-1.66,2.74-4.48,5.45-8.22,5.27C56.48,44.86,54.89,42.7,54.11,43.26Z"/><path class="cls-6" d="M66.93,28.2a.55.55,0,0,0-.48.84c.32.8,2.27,2.1,2.83,1.88s.58-.87-.23-1.5A4.83,4.83,0,0,0,66.93,28.2Z"/><path class="cls-6" d="M68,29.28s2.26-2.35,2.9-3.23A39.9,39.9,0,0,0,73,21.83s.2-.3.48-.24.2.46.2.46-1.58,3.23-2.22,4.12c-1.3,1.81-3,3.77-3,3.77Z"/><path class="cls-6" d="M71.89,24.87c-.14,0-3.73-.47-3.73-.47l-.14.21,1.86.3,1.85.31Z"/><path class="cls-6" d="M64.12,29.07c-3.86,1-9.55-1.77-9.55-1.77s3.8-4.43,7.07-4.76,8.92,2.27,8.92,2.27A13.44,13.44,0,0,1,64.12,29.07Z"/><path class="cls-7" d="M67,28.44a.82.82,0,0,0-.09.79,4.16,4.16,0,0,0,1.4,1.12l.09-.71s-.3-.2-.33-.38a.41.41,0,0,1,0-.27Z"/><path class="cls-7" d="M69.31,24.9a30.51,30.51,0,0,0-6.46.06c-3,.44-7.52,1.87-7.47,2.07s4.95-1.64,7.37-1.8,6.73,0,6.73,0Z"/><path class="cls-7" d="M67.79,25a3.36,3.36,0,0,1-.63,1.18,8.47,8.47,0,0,0-1.08,1.68,9.93,9.93,0,0,0,1.25-1.57c.36-.52.81-1.26.81-1.26Z"/><path class="cls-7" d="M64.79,25A5.29,5.29,0,0,1,64.13,27c-.66,1.36-.93,1.75-.76,1.78s.65-1,1-1.74.84-2,.84-2Z"/><path class="cls-7" d="M61.87,25.31a3.7,3.7,0,0,1-.22,1.42c-.3,1-.66,1.57-.53,1.64s.48-.86.69-1.59.5-1.62.5-1.62Z"/><path class="cls-7" d="M58.74,26.05a2.39,2.39,0,0,1-.16.84c-.18.52-.47,1-.39,1a1.74,1.74,0,0,0,.54-.92c.13-.46.27-1,.27-1Z"/><path class="cls-7" d="M68.14,24.93A4.07,4.07,0,0,0,67,23.85a3.51,3.51,0,0,0-1.45-.6c-.08.07.82.33,1.15.54a12.41,12.41,0,0,1,1.18,1.13Z"/><path class="cls-7" d="M65.06,24.84a2.91,2.91,0,0,0-.92-1.23,4.7,4.7,0,0,0-2-.8c-.2.07,1.5.49,1.88.87a4.1,4.1,0,0,1,.69,1.2Z"/><path class="cls-7" d="M62.31,25.16a6.42,6.42,0,0,0-1.39-1.09,6,6,0,0,0-1.66-.43c-.2,0,1.28.33,1.69.62a8.84,8.84,0,0,1,1,1Z"/><path class="cls-7" d="M58.73,26s0-.24-.73-.5S56.94,25,57.09,25a4.06,4.06,0,0,1,.91.23,6.49,6.49,0,0,1,1.07.61Z"/><path class="cls-3" d="M18.81,19.35c-3,2.2-6.91,9.14-2.29,14.86s11.37,6,16.46,2.69a11.48,11.48,0,0,0,1.43-18.13C29.27,13.87,23.31,16,18.81,19.35Z"/><path class="cls-4" d="M31.3,18.54h0Z"/><path class="cls-4" d="M30.6,19.26c-.34-.17-.74-.53-.41-.85s.78.05,1.1.12C31.72,18.93,31.54,19.71,30.6,19.26Z"/><path class="cls-4" d="M31.28,18.53l-.53-.21A.85.85,0,0,1,31.28,18.53Z"/><path class="cls-4" d="M32.24,20.06c-.13-.09-.31-.29-.14-.44a.23.23,0,0,1,.34.08.39.39,0,0,1,.21.28C32.68,20.28,32.37,20.16,32.24,20.06Z"/><path class="cls-4" d="M30,19.88a.35.35,0,0,1,.33,0c.16,0,.35.09.39.21s0,.06,0,.09l0,0,0,0c0,.14-.38,0-.51,0S29.68,20,30,19.88Z"/><path class="cls-4" d="M30.72,20.22h0Z"/><path class="cls-4" d="M29.22,19.1c.15,0,.32.21.23.36s-.44.09-.56,0C28.38,19.2,29,19,29.22,19.1Z"/><path class="cls-4" d="M28.59,18.18c.1,0,.29-.07.37,0a.15.15,0,0,1,0,.18c0,.11-.18.2-.25.23s-.92.33-1,.07S28.4,18.2,28.59,18.18Z"/><path class="cls-4" d="M29.42,17.66c-.15.08-.71.06-.77-.17s.3-.27.45-.25a.52.52,0,0,1,.24.13C29.49,17.45,29.6,17.56,29.42,17.66Z"/><path class="cls-4" d="M32.14,19c-.29-.22,0-.34.22-.29h0c.14,0,.46.15.38.33S32.25,19.06,32.14,19Z"/><path class="cls-4" d="M33.36,20.36c-.11-.12-.44-.67-.06-.69a.3.3,0,0,1,.2.1,1.1,1.1,0,0,1,.38.54C34,20.81,33.55,20.58,33.36,20.36Z"/><path class="cls-4" d="M31.31,20.52a.68.68,0,0,1,.5,0,1,1,0,0,1,.67.51c.12.52-.79.15-1,.08S30.88,20.67,31.31,20.52Z"/><path class="cls-4" d="M29.78,20.92c.15,0,.3.17.3.29s-.52.18-.67.11C28.85,21.06,29.58,20.81,29.78,20.92Z"/><path class="cls-4" d="M26.2,18a.26.26,0,0,1,.25.1.69.69,0,0,1-1.05,0A.59.59,0,0,1,26.2,18Z"/><path class="cls-4" d="M27.67,19.38c-.31.11-1.16.17-1.23-.27a.72.72,0,0,1,.68-.08C27.39,19,27.67,19.1,27.67,19.38Z"/><path class="cls-4" d="M27.06,17.08a.44.44,0,0,1,.62-.06.3.3,0,0,1,.15.18A.59.59,0,0,1,27.06,17.08Z"/><path class="cls-4" d="M24.75,18.91c.63,0-.18.81-.53.55S24.5,18.75,24.75,18.91Z"/><path class="cls-4" d="M33.68,21.5c.2-.15.36,0,.47.18.42.27.92.91.52,1.06S33.69,21.85,33.68,21.5Z"/><path class="cls-4" d="M34.83,20.68c.54.1.29,1-.23.39C34.28,20.69,34.61,20.56,34.83,20.68Z"/><path class="cls-4" d="M31.76,22.33a.28.28,0,0,1,.2.25c-.2.14-.74.16-.87-.11S31.58,22,31.76,22.33Z"/><path class="cls-4" d="M27,20.85l0,0a.43.43,0,0,1,0,.11s0,.1,0,.11c-.12.3-.74.31-.62-.06S26.82,20.71,27,20.85Z"/><path class="cls-4" d="M21.41,20.07c.37-.5,1.12,0,.65.16C21.78,20.43,21.05,20.56,21.41,20.07Z"/><path class="cls-4" d="M34.36,24.86l-.08-.14a.89.89,0,0,1,.4.64c-.21.05-.85-.37-.83-.65C33.88,24.28,34.17,24.59,34.36,24.86Z"/><path class="cls-4" d="M28.68,23.44a.16.16,0,0,1-.21,0c-.26,0-.74,0-.54-.32S28.61,23.22,28.68,23.44Z"/><path class="cls-4" d="M36.52,23.16a.4.4,0,0,1,0,.22c-.32.11-1.13,0-.86-.51S36.43,22.78,36.52,23.16Z"/><path class="cls-4" d="M35.41,21.8h0a.27.27,0,0,1,.33.26.4.4,0,0,1-.56-.21A.36.36,0,0,1,35.41,21.8Z"/><path class="cls-5" d="M34.35,33.12c1.18.86-4.8,5.19-8.69,5a11.45,11.45,0,0,1-9.4-6c-1-2.14-.67-8.23.62-7.8.46.15-.11,2.21,1.78,5.34,1.65,2.75,4.47,5.45,8.21,5.27C32,34.71,33.58,32.55,34.35,33.12Z"/><path class="cls-6" d="M21.53,18.06a.54.54,0,0,1,.49.83c-.32.8-2.27,2.1-2.83,1.88s-.59-.87.23-1.49A4.66,4.66,0,0,1,21.53,18.06Z"/><path class="cls-6" d="M20.52,19.13s-2.26-2.34-2.91-3.22a41.89,41.89,0,0,1-2.14-4.23s-.2-.29-.47-.24-.2.47-.2.47S16.37,15.13,17,16c1.3,1.81,3,3.77,3,3.77Z"/><path class="cls-6" d="M16.57,14.72c.14,0,3.74-.47,3.74-.47l.13.21-1.85.31-1.85.3Z"/><path class="cls-6" d="M24.35,18.92c3.85,1,9.55-1.76,9.55-1.76s-3.81-4.44-7.07-4.77-8.93,2.27-8.93,2.27A13.44,13.44,0,0,0,24.35,18.92Z"/><path class="cls-7" d="M21.5,18.29a.84.84,0,0,1,.09.8,4.1,4.1,0,0,1-1.41,1.11l-.09-.7s.3-.21.33-.39a.41.41,0,0,0,0-.27Z"/><path class="cls-7" d="M19.16,14.75a30.48,30.48,0,0,1,6.46.06c3,.44,7.52,1.87,7.46,2.07s-4.94-1.64-7.36-1.8-6.74,0-6.74,0Z"/><path class="cls-7" d="M20.68,14.86A3.41,3.41,0,0,0,21.3,16a8.56,8.56,0,0,1,1.09,1.68,10.76,10.76,0,0,1-1.26-1.56c-.35-.53-.81-1.27-.81-1.27Z"/><path class="cls-7" d="M23.67,14.89a5.29,5.29,0,0,0,.66,1.91c.67,1.36.93,1.76.77,1.79s-.66-1-1-1.75-.85-2-.85-2Z"/><path class="cls-7" d="M26.59,15.16a3.63,3.63,0,0,0,.23,1.42c.3,1,.66,1.58.52,1.64s-.48-.86-.68-1.59-.5-1.62-.5-1.62Z"/><path class="cls-7" d="M29.73,15.9a2.11,2.11,0,0,0,.16.84c.18.52.47,1,.38,1a1.83,1.83,0,0,1-.53-.91l-.28-1Z"/><path class="cls-7" d="M20.32,14.78a4.25,4.25,0,0,1,1.13-1.08,3.53,3.53,0,0,1,1.46-.6c.08.07-.83.33-1.15.54a12.62,12.62,0,0,0-1.19,1.14Z"/><path class="cls-7" d="M23.4,14.69a2.85,2.85,0,0,1,.92-1.22,4.48,4.48,0,0,1,2.06-.8c.19.06-1.5.49-1.88.86a4.23,4.23,0,0,0-.69,1.21Z"/><path class="cls-7" d="M26.16,15a6.6,6.6,0,0,1,1.38-1.09,5.66,5.66,0,0,1,1.66-.42c.2,0-1.27.32-1.68.61a10.28,10.28,0,0,0-1.05,1Z"/><path class="cls-7" d="M29.73,15.82s.05-.25.73-.5,1.07-.43.92-.43a4.57,4.57,0,0,0-.91.23,6.06,6.06,0,0,0-1.07.61Z"/><path class="cls-3" d="M13.05,32.18c-3,2.2-6.91,9.14-2.29,14.86s11.37,6.05,16.47,2.69A11.49,11.49,0,0,0,28.65,31.6C23.51,26.7,17.55,28.87,13.05,32.18Z"/><path class="cls-4" d="M25.54,31.37h0Z"/><path class="cls-4" d="M24.85,32.09c-.35-.17-.75-.53-.42-.85s.78.05,1.1.13C26,31.76,25.78,32.54,24.85,32.09Z"/><path class="cls-4" d="M25.52,31.36l-.53-.2A.78.78,0,0,1,25.52,31.36Z"/><path class="cls-4" d="M26.48,32.89c-.13-.09-.31-.29-.14-.43a.22.22,0,0,1,.34.07.43.43,0,0,1,.21.28C26.92,33.11,26.61,33,26.48,32.89Z"/><path class="cls-4" d="M24.19,32.71a.35.35,0,0,1,.33,0c.16,0,.35.09.39.21a.14.14,0,0,1,0,.09l.05,0-.05,0c0,.14-.38,0-.51,0S23.92,32.86,24.19,32.71Z"/><path class="cls-4" d="M25,33.05h0Z"/><path class="cls-4" d="M23.46,31.93c.15,0,.32.21.23.36s-.44.09-.56,0C22.62,32,23.27,31.82,23.46,31.93Z"/><path class="cls-4" d="M22.83,31c.11,0,.29-.07.37,0a.15.15,0,0,1,0,.18c0,.11-.18.2-.25.24s-.92.32-1,.06S22.64,31,22.83,31Z"/><path class="cls-4" d="M23.66,30.49c-.15.08-.71.06-.77-.17s.31-.27.45-.25a.43.43,0,0,1,.24.14C23.73,30.28,23.84,30.39,23.66,30.49Z"/><path class="cls-4" d="M26.38,31.81c-.29-.21,0-.34.22-.29h0c.14,0,.47.15.38.33S26.49,31.89,26.38,31.81Z"/><path class="cls-4" d="M27.6,33.19c-.11-.12-.44-.67-.06-.69a.3.3,0,0,1,.2.1,1.1,1.1,0,0,1,.38.54C28.27,33.64,27.79,33.41,27.6,33.19Z"/><path class="cls-4" d="M25.55,33.35a.68.68,0,0,1,.5,0,1,1,0,0,1,.67.51c.12.52-.79.15-1,.08S25.13,33.5,25.55,33.35Z"/><path class="cls-4" d="M24,33.75c.15,0,.31.17.3.29s-.52.18-.67.11C23.09,33.89,23.83,33.64,24,33.75Z"/><path class="cls-4" d="M20.44,30.87a.26.26,0,0,1,.25.1.69.69,0,0,1-1.05,0A.59.59,0,0,1,20.44,30.87Z"/><path class="cls-4" d="M21.91,32.21c-.31.11-1.16.17-1.23-.27a.74.74,0,0,1,.69-.08C21.63,31.85,21.91,31.94,21.91,32.21Z"/><path class="cls-4" d="M21.3,29.91a.44.44,0,0,1,.62-.06.3.3,0,0,1,.15.18A.59.59,0,0,1,21.3,29.91Z"/><path class="cls-4" d="M19,31.74c.63,0-.18.81-.53.56S18.74,31.58,19,31.74Z"/><path class="cls-4" d="M27.92,34.33c.2-.15.36,0,.47.18.42.27.92.91.52,1.07S27.93,34.68,27.92,34.33Z"/><path class="cls-4" d="M29.07,33.51c.55.11.29,1-.22.39C28.53,33.52,28.85,33.4,29.07,33.51Z"/><path class="cls-4" d="M26,35.16a.28.28,0,0,1,.2.25c-.2.14-.74.16-.87-.11S25.82,34.85,26,35.16Z"/><path class="cls-4" d="M21.21,33.68l0,0a.52.52,0,0,1,0,.11s0,.1,0,.12c-.12.29-.73.3-.62-.07S21.06,33.54,21.21,33.68Z"/><path class="cls-4" d="M15.65,32.9c.37-.5,1.12,0,.65.16C16,33.26,15.29,33.39,15.65,32.9Z"/><path class="cls-4" d="M28.6,37.69l-.07-.14a1,1,0,0,1,.4.64c-.22.06-.86-.37-.84-.65S28.41,37.42,28.6,37.69Z"/><path class="cls-4" d="M22.92,36.27a.15.15,0,0,1-.21,0c-.26,0-.74,0-.54-.32S22.85,36.05,22.92,36.27Z"/><path class="cls-4" d="M30.76,36a.4.4,0,0,1,0,.22c-.32.11-1.13,0-.86-.51S30.67,35.61,30.76,36Z"/><path class="cls-4" d="M29.65,34.63h0a.27.27,0,0,1,.33.27.41.41,0,0,1-.56-.22A.36.36,0,0,1,29.65,34.63Z"/><path class="cls-5" d="M28.59,46c1.18.86-4.8,5.19-8.69,5a11.43,11.43,0,0,1-9.4-6c-1-2.14-.67-8.23.62-7.8.46.15-.1,2.21,1.78,5.34,1.65,2.75,4.48,5.45,8.21,5.27C26.23,47.55,27.82,45.38,28.59,46Z"/><path class="cls-6" d="M15.77,30.89a.55.55,0,0,1,.49.83c-.32.8-2.27,2.1-2.83,1.88s-.59-.87.23-1.49A4.66,4.66,0,0,1,15.77,30.89Z"/><path class="cls-6" d="M14.76,32s-2.26-2.34-2.91-3.22a41.89,41.89,0,0,1-2.14-4.23s-.2-.29-.47-.24-.2.47-.2.47,1.57,3.22,2.21,4.11c1.3,1.81,3,3.78,3,3.78Z"/><path class="cls-6" d="M10.82,27.55c.13,0,3.73-.47,3.73-.47l.13.21-1.85.31L11,27.9Z"/><path class="cls-6" d="M18.59,31.76c3.85,1,9.55-1.77,9.55-1.77s-3.81-4.44-7.07-4.77-8.93,2.27-8.93,2.27A13.5,13.5,0,0,0,18.59,31.76Z"/><path class="cls-7" d="M15.74,31.13a.81.81,0,0,1,.09.79A4.1,4.1,0,0,1,14.42,33l-.09-.7s.3-.21.33-.38a.39.39,0,0,0,0-.27Z"/><path class="cls-7" d="M13.4,27.58a30.09,30.09,0,0,1,6.46.07c3,.43,7.52,1.86,7.46,2.06s-4.94-1.64-7.36-1.8-6.74,0-6.74,0Z"/><path class="cls-7" d="M14.92,27.69a3.41,3.41,0,0,0,.62,1.18,8.56,8.56,0,0,1,1.09,1.68A10.76,10.76,0,0,1,15.37,29c-.35-.53-.81-1.27-.81-1.27Z"/><path class="cls-7" d="M17.91,27.72a5.23,5.23,0,0,0,.67,1.91c.66,1.36.92,1.76.76,1.79s-.66-1-1-1.75-.85-2-.85-2Z"/><path class="cls-7" d="M20.83,28a3.63,3.63,0,0,0,.23,1.42c.3,1,.66,1.58.52,1.64s-.48-.86-.68-1.58-.5-1.63-.5-1.63Z"/><path class="cls-7" d="M24,28.73a2.11,2.11,0,0,0,.16.84c.18.52.47,1,.38,1a1.83,1.83,0,0,1-.53-.91l-.28-1Z"/><path class="cls-7" d="M14.56,27.61a4.43,4.43,0,0,1,1.13-1.08,3.53,3.53,0,0,1,1.46-.6c.08.07-.83.33-1.15.54a12.23,12.23,0,0,0-1.18,1.14Z"/><path class="cls-7" d="M17.64,27.52a2.91,2.91,0,0,1,.92-1.22,4.48,4.48,0,0,1,2.06-.8c.19.06-1.5.49-1.88.86a4.23,4.23,0,0,0-.69,1.21Z"/><path class="cls-7" d="M20.4,27.84a6.6,6.6,0,0,1,1.38-1.09,5.66,5.66,0,0,1,1.66-.42c.2,0-1.27.33-1.68.62a9.48,9.48,0,0,0-1.05,1Z"/><path class="cls-7" d="M24,28.65s.05-.25.73-.5,1.07-.43.92-.43a4.16,4.16,0,0,0-.91.24,5.61,5.61,0,0,0-1.07.6Z"/><path class="cls-3" d="M85.77,34.94c3,2.2,6.91,9.14,2.29,14.86s-11.37,6.05-16.47,2.69a11.47,11.47,0,0,1-1.42-18.13C75.31,29.46,81.26,31.63,85.77,34.94Z"/><path class="cls-4" d="M73.28,34.13h0Z"/><path class="cls-4" d="M74,34.85c.35-.17.75-.53.42-.85s-.78,0-1.1.12C72.86,34.52,73,35.3,74,34.85Z"/><path class="cls-4" d="M73.3,34.12l.53-.21A.83.83,0,0,0,73.3,34.12Z"/><path class="cls-4" d="M72.34,35.65c.13-.09.31-.29.14-.44a.23.23,0,0,0-.34.08.39.39,0,0,0-.21.28C71.9,35.87,72.2,35.75,72.34,35.65Z"/><path class="cls-4" d="M74.63,35.47a.35.35,0,0,0-.33,0c-.16,0-.35.09-.39.21a.11.11,0,0,0,0,.08l0,0,0,0c0,.14.38,0,.51,0S74.89,35.62,74.63,35.47Z"/><path class="cls-4" d="M73.86,35.81h0Z"/><path class="cls-4" d="M75.36,34.69c-.15,0-.32.21-.23.36s.44.09.56,0C76.19,34.79,75.55,34.58,75.36,34.69Z"/><path class="cls-4" d="M76,33.76c-.11,0-.29-.06-.37,0a.15.15,0,0,0,0,.18c0,.1.18.2.25.23s.92.33,1,.07S76.17,33.79,76,33.76Z"/><path class="cls-4" d="M75.16,33.25c.15.08.71.06.77-.17s-.31-.27-.45-.25a.48.48,0,0,0-.24.13C75.09,33,75,33.15,75.16,33.25Z"/><path class="cls-4" d="M72.44,34.57c.29-.22,0-.34-.22-.29h0c-.14,0-.47.15-.38.33S72.33,34.65,72.44,34.57Z"/><path class="cls-4" d="M71.22,36c.11-.12.44-.67.06-.69a.3.3,0,0,0-.2.1,1.06,1.06,0,0,0-.38.53C70.55,36.4,71,36.17,71.22,36Z"/><path class="cls-4" d="M73.27,36.1a.75.75,0,0,0-.5,0,1,1,0,0,0-.67.51c-.12.52.79.15,1,.08S73.69,36.26,73.27,36.1Z"/><path class="cls-4" d="M74.8,36.51c-.15.05-.31.17-.3.29s.52.18.67.11C75.73,36.65,75,36.4,74.8,36.51Z"/><path class="cls-4" d="M78.38,33.63a.25.25,0,0,0-.25.1.69.69,0,0,0,1.05,0A.59.59,0,0,0,78.38,33.63Z"/><path class="cls-4" d="M76.9,35c.32.11,1.17.17,1.24-.27a.72.72,0,0,0-.69-.08C77.19,34.6,76.91,34.69,76.9,35Z"/><path class="cls-4" d="M77.52,32.67a.44.44,0,0,0-.62-.06.27.27,0,0,0-.15.18A.59.59,0,0,0,77.52,32.67Z"/><path class="cls-4" d="M79.83,34.5c-.63,0,.18.81.53.55S80.08,34.34,79.83,34.5Z"/><path class="cls-4" d="M70.9,37.09c-.2-.15-.36,0-.47.18-.42.27-.93.91-.52,1.06S70.89,37.44,70.9,37.09Z"/><path class="cls-4" d="M69.74,36.27c-.54.1-.28,1,.23.39C70.29,36.28,70,36.15,69.74,36.27Z"/><path class="cls-4" d="M72.82,37.92a.28.28,0,0,0-.2.25c.2.14.74.16.87-.11S73,37.61,72.82,37.92Z"/><path class="cls-4" d="M77.61,36.44l0,0a.43.43,0,0,0,0,.11c0,.05,0,.1,0,.11.11.3.73.31.62-.06S77.76,36.3,77.61,36.44Z"/><path class="cls-4" d="M83.17,35.66c-.37-.5-1.12,0-.65.16C82.8,36,83.53,36.15,83.17,35.66Z"/><path class="cls-4" d="M70.22,40.45l.07-.14a1,1,0,0,0-.4.64c.22,0,.85-.37.84-.65S70.41,40.18,70.22,40.45Z"/><path class="cls-4" d="M75.89,39a.17.17,0,0,0,.22,0c.26,0,.74,0,.53-.32S76,38.81,75.89,39Z"/><path class="cls-4" d="M68.06,38.75A.4.4,0,0,0,68,39c.32.11,1.13,0,.86-.51S68.15,38.37,68.06,38.75Z"/><path class="cls-4" d="M69.17,37.39h0a.27.27,0,0,0-.33.26.39.39,0,0,0,.55-.21A.33.33,0,0,0,69.17,37.39Z"/><path class="cls-5" d="M70.23,48.71c-1.18.86,4.8,5.19,8.68,5a11.45,11.45,0,0,0,9.41-6c1-2.14.66-8.23-.62-7.8-.46.15.1,2.21-1.78,5.34-1.65,2.75-4.48,5.45-8.21,5.27C72.59,50.3,71,48.14,70.23,48.71Z"/><path class="cls-6" d="M83.05,33.65a.54.54,0,0,0-.49.83c.32.8,2.27,2.1,2.83,1.88s.59-.87-.23-1.49A4.66,4.66,0,0,0,83.05,33.65Z"/><path class="cls-6" d="M84.06,34.72S86.32,32.38,87,31.5a41.89,41.89,0,0,0,2.14-4.23s.2-.29.47-.24.2.47.2.47-1.58,3.22-2.21,4.11c-1.3,1.81-3,3.77-3,3.77Z"/><path class="cls-6" d="M88,30.31c-.13,0-3.73-.47-3.73-.47l-.13.21,1.85.31,1.85.3Z"/><path class="cls-6" d="M80.23,34.51c-3.85,1-9.55-1.76-9.55-1.76s3.81-4.44,7.07-4.77,8.93,2.27,8.93,2.27A13.44,13.44,0,0,1,80.23,34.51Z"/><path class="cls-7" d="M83.08,33.88a.82.82,0,0,0-.09.79,4,4,0,0,0,1.4,1.12l.1-.7s-.3-.21-.33-.39a.35.35,0,0,1,0-.27Z"/><path class="cls-7" d="M85.42,30.34A30.48,30.48,0,0,0,79,30.4c-3,.44-7.52,1.87-7.46,2.07s4.94-1.64,7.36-1.8,6.74,0,6.74,0Z"/><path class="cls-7" d="M83.9,30.45a3.41,3.41,0,0,1-.62,1.18,8.25,8.25,0,0,0-1.09,1.68,10.21,10.21,0,0,0,1.25-1.56c.36-.53.82-1.27.82-1.27Z"/><path class="cls-7" d="M80.9,30.48a5,5,0,0,1-.66,1.91c-.66,1.36-.92,1.76-.76,1.79s.66-1,1-1.75.85-2,.85-2Z"/><path class="cls-7" d="M78,30.75a3.63,3.63,0,0,1-.23,1.42c-.3,1-.66,1.57-.52,1.64s.48-.86.68-1.59.5-1.62.5-1.62Z"/><path class="cls-7" d="M74.85,31.49a2.11,2.11,0,0,1-.16.84c-.18.52-.47,1-.38,1a1.83,1.83,0,0,0,.53-.91l.28-1Z"/><path class="cls-7" d="M84.26,30.37a4.25,4.25,0,0,0-1.13-1.08,3.53,3.53,0,0,0-1.46-.6c-.08.07.83.33,1.15.54A12.23,12.23,0,0,1,84,30.37Z"/><path class="cls-7" d="M81.18,30.28a2.85,2.85,0,0,0-.92-1.22,4.48,4.48,0,0,0-2.06-.8c-.2.06,1.5.49,1.88.86a4.23,4.23,0,0,1,.69,1.21Z"/><path class="cls-7" d="M78.42,30.6A6.75,6.75,0,0,0,77,29.51a5.51,5.51,0,0,0-1.66-.42c-.19,0,1.28.32,1.69.61a10.28,10.28,0,0,1,1,1Z"/><path class="cls-7" d="M74.85,31.41s0-.25-.73-.5-1.07-.43-.92-.43a4.57,4.57,0,0,1,.91.23,6.06,6.06,0,0,1,1.07.61Z"/><path class="cls-3" d="M90.52,45.08c3,2.19,6.91,9.14,2.29,14.85S81.43,66,76.34,62.62a11.47,11.47,0,0,1-1.42-18.13C80.06,39.59,86,41.76,90.52,45.08Z"/><path class="cls-4" d="M78,44.26h0Z"/><path class="cls-4" d="M78.72,45c.35-.17.74-.53.41-.84s-.77,0-1.09.12C77.61,44.66,77.79,45.44,78.72,45Z"/><path class="cls-4" d="M78,44.25l.54-.2A.88.88,0,0,0,78,44.25Z"/><path class="cls-4" d="M77.09,45.79c.13-.1.31-.3.13-.44a.22.22,0,0,0-.33.07.44.44,0,0,0-.22.29C76.64,46,77,45.88,77.09,45.79Z"/><path class="cls-4" d="M79.37,45.6a.33.33,0,0,0-.33,0c-.15,0-.35.08-.38.21a.25.25,0,0,0,0,.08l0,0,0,0c0,.15.38,0,.5,0S79.64,45.75,79.37,45.6Z"/><path class="cls-4" d="M78.61,45.94h0Z"/><path class="cls-4" d="M80.11,44.82c-.15,0-.32.21-.24.36s.44.09.57,0C80.94,44.92,80.29,44.71,80.11,44.82Z"/><path class="cls-4" d="M80.73,43.9c-.1,0-.29-.07-.37,0a.14.14,0,0,0,0,.17c0,.11.18.2.25.24s.91.32,1,.06S80.92,43.92,80.73,43.9Z"/><path class="cls-4" d="M79.9,43.38c.16.08.72.06.77-.16s-.3-.28-.45-.26a.61.61,0,0,0-.24.14C79.83,43.17,79.72,43.28,79.9,43.38Z"/><path class="cls-4" d="M77.19,44.7c.29-.21,0-.33-.22-.29h0c-.13,0-.46.15-.37.33S77.08,44.79,77.19,44.7Z"/><path class="cls-4" d="M76,46.08c.11-.12.44-.66.06-.69a.27.27,0,0,0-.2.11,1,1,0,0,0-.38.53C75.3,46.53,75.78,46.3,76,46.08Z"/><path class="cls-4" d="M78,46.24a.77.77,0,0,0-.51,0c-.28.08-.61.3-.66.51-.13.52.78.15,1,.08S78.44,46.4,78,46.24Z"/><path class="cls-4" d="M79.54,46.65c-.14.05-.3.17-.3.29s.53.17.67.11C80.47,46.78,79.74,46.53,79.54,46.65Z"/><path class="cls-4" d="M83.13,43.76a.26.26,0,0,0-.25.11.68.68,0,0,0,1,0A.59.59,0,0,0,83.13,43.76Z"/><path class="cls-4" d="M81.65,45.11c.31.11,1.16.16,1.23-.28a.75.75,0,0,0-.68-.08C81.94,44.74,81.65,44.83,81.65,45.11Z"/><path class="cls-4" d="M82.26,42.81a.44.44,0,0,0-.62-.07.34.34,0,0,0-.15.18A.59.59,0,0,0,82.26,42.81Z"/><path class="cls-4" d="M84.58,44.64c-.63,0,.18.8.52.55S84.82,44.47,84.58,44.64Z"/><path class="cls-4" d="M75.64,47.23c-.19-.16-.35,0-.46.18-.42.27-.93.9-.53,1.06S75.63,47.57,75.64,47.23Z"/><path class="cls-4" d="M74.49,46.4c-.54.11-.28,1,.23.39C75,46.41,74.71,46.29,74.49,46.4Z"/><path class="cls-4" d="M77.56,48.05a.27.27,0,0,0-.19.25c.2.15.73.16.87-.11S77.74,47.74,77.56,48.05Z"/><path class="cls-4" d="M82.36,46.57l0,0a.26.26,0,0,0,0,.11s0,.1,0,.12c.11.29.73.3.61-.07S82.5,46.43,82.36,46.57Z"/><path class="cls-4" d="M87.91,45.79c-.36-.5-1.12,0-.64.16C87.55,46.15,88.27,46.28,87.91,45.79Z"/><path class="cls-4" d="M75,50.58l.07-.13a.9.9,0,0,0-.4.63c.22.06.85-.37.83-.65S75.15,50.31,75,50.58Z"/><path class="cls-4" d="M80.64,49.16a.16.16,0,0,0,.21.05c.26,0,.75,0,.54-.32S80.71,48.94,80.64,49.16Z"/><path class="cls-4" d="M72.8,48.88a.53.53,0,0,0,0,.22c.32.11,1.14,0,.87-.51S72.9,48.51,72.8,48.88Z"/><path class="cls-4" d="M73.92,47.52h0a.27.27,0,0,0-.33.27.4.4,0,0,0,.55-.22A.39.39,0,0,0,73.92,47.52Z"/><path class="cls-5" d="M75,58.84c-1.17.86,4.81,5.19,8.69,5a11.44,11.44,0,0,0,9.4-6c1-2.15.67-8.24-.61-7.81-.46.15.1,2.22-1.78,5.34-1.66,2.75-4.48,5.46-8.22,5.27C77.34,60.44,75.75,58.27,75,58.84Z"/><path class="cls-6" d="M87.79,43.78a.55.55,0,0,0-.48.84c.32.79,2.27,2.09,2.83,1.88s.58-.87-.23-1.5A4.73,4.73,0,0,0,87.79,43.78Z"/><path class="cls-6" d="M88.81,44.85s2.26-2.34,2.9-3.22a39.83,39.83,0,0,0,2.14-4.23.55.55,0,0,1,.48-.24c.28.05.2.47.2.47S93,40.86,92.31,41.74c-1.3,1.81-3,3.78-3,3.78Z"/><path class="cls-6" d="M92.75,40.44,89,40l-.14.21,1.86.31,1.85.3Z"/><path class="cls-6" d="M85,44.65c-3.86,1-9.55-1.77-9.55-1.77s3.8-4.43,7.07-4.77,8.92,2.27,8.92,2.27A13.5,13.5,0,0,1,85,44.65Z"/><path class="cls-7" d="M87.83,44a.81.81,0,0,0-.09.79,4.09,4.09,0,0,0,1.4,1.11l.09-.7s-.3-.21-.33-.38a.39.39,0,0,1,0-.27Z"/><path class="cls-7" d="M90.17,40.48a29.77,29.77,0,0,0-6.46.06c-3,.43-7.52,1.86-7.47,2.06s5-1.63,7.37-1.79,6.73,0,6.73,0Z"/><path class="cls-7" d="M88.65,40.59A3.28,3.28,0,0,1,88,41.76a8.7,8.7,0,0,0-1.08,1.69,10.44,10.44,0,0,0,1.25-1.57c.36-.53.81-1.27.81-1.27Z"/><path class="cls-7" d="M85.65,40.61A5.29,5.29,0,0,1,85,42.52c-.66,1.36-.93,1.76-.76,1.79s.65-1,1-1.74.84-2,.84-2Z"/><path class="cls-7" d="M82.73,40.88a3.76,3.76,0,0,1-.22,1.43c-.3,1-.66,1.57-.53,1.64s.48-.87.69-1.59.5-1.63.5-1.63Z"/><path class="cls-7" d="M79.6,41.63a2.39,2.39,0,0,1-.16.84c-.18.51-.47,1-.39,1a1.84,1.84,0,0,0,.54-.92c.13-.46.27-1,.27-1Z"/><path class="cls-7" d="M89,40.51a4.19,4.19,0,0,0-1.13-1.09,3.51,3.51,0,0,0-1.45-.6c-.08.08.82.33,1.15.54a12.23,12.23,0,0,1,1.18,1.14Z"/><path class="cls-7" d="M85.92,40.42A2.91,2.91,0,0,0,85,39.19a4.57,4.57,0,0,0-2-.8c-.2.06,1.5.49,1.88.87a4.1,4.1,0,0,1,.69,1.2Z"/><path class="cls-7" d="M83.17,40.73a6.75,6.75,0,0,0-1.39-1.09,5.58,5.58,0,0,0-1.66-.42c-.2,0,1.28.33,1.69.62a9.06,9.06,0,0,1,1,1Z"/><path class="cls-7" d="M79.59,41.54s0-.24-.73-.5-1.06-.43-.91-.43a4.31,4.31,0,0,1,.91.24,6,6,0,0,1,1.07.6Z"/><path class="cls-3" d="M70.77,45.63c3,2.2,6.91,9.14,2.29,14.85s-11.37,6.06-16.47,2.7a11.47,11.47,0,0,1-1.42-18.13C60.31,40.15,66.26,42.32,70.77,45.63Z"/><path class="cls-4" d="M58.28,44.82h0Z"/><path class="cls-4" d="M59,45.54c.35-.17.74-.53.42-.85s-.78.05-1.1.12C57.86,45.21,58,46,59,45.54Z"/><path class="cls-4" d="M58.3,44.81l.53-.21A.83.83,0,0,0,58.3,44.81Z"/><path class="cls-4" d="M57.34,46.34c.13-.09.31-.3.14-.44a.23.23,0,0,0-.34.08.39.39,0,0,0-.21.28C56.9,46.56,57.2,46.44,57.34,46.34Z"/><path class="cls-4" d="M59.63,46.16a.35.35,0,0,0-.33,0c-.16,0-.35.09-.39.21a.11.11,0,0,0,0,.08s0,0,0,0l0,0c0,.14.38,0,.51,0S59.89,46.31,59.63,46.16Z"/><path class="cls-4" d="M58.86,46.49l0,0Z"/><path class="cls-4" d="M60.36,45.38c-.15,0-.32.21-.23.36s.44.09.56,0C61.19,45.48,60.55,45.27,60.36,45.38Z"/><path class="cls-4" d="M61,44.45c-.11,0-.3-.06-.38,0a.17.17,0,0,0,0,.18c0,.1.18.2.25.23s.92.33,1,.07S61.17,44.48,61,44.45Z"/><path class="cls-4" d="M60.16,43.93c.15.09.71.07.77-.16s-.31-.27-.45-.26a.6.6,0,0,0-.24.14C60.09,43.72,60,43.84,60.16,43.93Z"/><path class="cls-4" d="M57.44,45.26c.29-.22,0-.34-.22-.29h0c-.13,0-.46.15-.37.33S57.33,45.34,57.44,45.26Z"/><path class="cls-4" d="M56.22,46.64c.11-.12.44-.67.06-.69a.3.3,0,0,0-.2.1,1.06,1.06,0,0,0-.38.53C55.55,47.09,56,46.86,56.22,46.64Z"/><path class="cls-4" d="M58.27,46.79a.75.75,0,0,0-.5.05,1,1,0,0,0-.67.51c-.12.52.79.15,1,.08S58.69,47,58.27,46.79Z"/><path class="cls-4" d="M59.79,47.2c-.14,0-.3.17-.29.29s.52.18.66.11C60.72,47.34,60,47.09,59.79,47.2Z"/><path class="cls-4" d="M63.38,44.32a.25.25,0,0,0-.25.1.68.68,0,0,0,1,0A.57.57,0,0,0,63.38,44.32Z"/><path class="cls-4" d="M61.9,45.66c.32.11,1.17.17,1.23-.27a.7.7,0,0,0-.68-.08C62.19,45.29,61.91,45.38,61.9,45.66Z"/><path class="cls-4" d="M62.52,43.36a.46.46,0,0,0-.63-.06.28.28,0,0,0-.15.18A.6.6,0,0,0,62.52,43.36Z"/><path class="cls-4" d="M64.83,45.19c-.63,0,.18.81.53.55S65.08,45,64.83,45.19Z"/><path class="cls-4" d="M55.9,47.78c-.2-.15-.36,0-.47.18-.42.27-.93.91-.53,1.06S55.89,48.13,55.9,47.78Z"/><path class="cls-4" d="M54.74,47c-.54.1-.28,1,.23.39C55.29,47,55,46.84,54.74,47Z"/><path class="cls-4" d="M57.82,48.61a.28.28,0,0,0-.2.25c.2.14.74.15.87-.11S58,48.3,57.82,48.61Z"/><path class="cls-4" d="M62.61,47.13l0,0a.45.45,0,0,0,0,.11s0,.1,0,.11c.11.3.73.31.61-.06S62.75,47,62.61,47.13Z"/><path class="cls-4" d="M68.17,46.35c-.37-.51-1.12,0-.65.16C67.8,46.71,68.52,46.84,68.17,46.35Z"/><path class="cls-4" d="M55.22,51.14l.07-.14a.93.93,0,0,0-.4.64c.22,0,.85-.37.84-.65S55.4,50.86,55.22,51.14Z"/><path class="cls-4" d="M60.89,49.72a.16.16,0,0,0,.21.05c.27,0,.75,0,.54-.32S61,49.5,60.89,49.72Z"/><path class="cls-4" d="M53.06,49.44a.51.51,0,0,0,0,.22c.33.11,1.14,0,.87-.51S53.15,49.06,53.06,49.44Z"/><path class="cls-4" d="M54.17,48.08h0a.27.27,0,0,0-.33.26.39.39,0,0,0,.55-.21A.33.33,0,0,0,54.17,48.08Z"/><path class="cls-5" d="M55.23,59.4c-1.18.86,4.8,5.19,8.68,5a11.45,11.45,0,0,0,9.41-6c1-2.14.66-8.23-.62-7.8-.46.15.1,2.21-1.78,5.34-1.66,2.75-4.48,5.45-8.21,5.27C57.59,61,56,58.83,55.23,59.4Z"/><path class="cls-6" d="M68.05,44.34a.54.54,0,0,0-.49.83c.32.8,2.27,2.1,2.83,1.88s.59-.87-.23-1.49A4.66,4.66,0,0,0,68.05,44.34Z"/><path class="cls-6" d="M69.06,45.41s2.26-2.34,2.91-3.22A41.89,41.89,0,0,0,74.11,38s.2-.3.47-.24.2.46.2.46-1.58,3.23-2.22,4.12c-1.29,1.81-3,3.77-3,3.77Z"/><path class="cls-6" d="M73,41c-.14,0-3.73-.47-3.73-.47l-.13.21,1.85.31,1.85.3Z"/><path class="cls-6" d="M65.23,45.2c-3.85,1-9.55-1.76-9.55-1.76s3.81-4.44,7.07-4.77,8.93,2.27,8.93,2.27A13.44,13.44,0,0,1,65.23,45.2Z"/><path class="cls-7" d="M68.08,44.57a.82.82,0,0,0-.09.79,4,4,0,0,0,1.4,1.12l.09-.7s-.3-.21-.33-.39a.41.41,0,0,1,0-.27Z"/><path class="cls-7" d="M70.42,41a30.51,30.51,0,0,0-6.46.06c-3,.44-7.52,1.87-7.46,2.07s4.94-1.64,7.36-1.8,6.74,0,6.74,0Z"/><path class="cls-7" d="M68.9,41.14a3.36,3.36,0,0,1-.63,1.18A8.47,8.47,0,0,0,67.19,44a10.21,10.21,0,0,0,1.25-1.56c.36-.53.82-1.27.82-1.27Z"/><path class="cls-7" d="M65.9,41.17a5.29,5.29,0,0,1-.66,1.91c-.66,1.36-.93,1.75-.76,1.79s.66-1,1-1.75.85-2,.85-2Z"/><path class="cls-7" d="M63,41.44a3.63,3.63,0,0,1-.23,1.42c-.3,1-.66,1.57-.53,1.64s.49-.86.69-1.59.5-1.62.5-1.62Z"/><path class="cls-7" d="M59.85,42.18a2.13,2.13,0,0,1-.16.84c-.18.52-.47,1-.38,1a1.82,1.82,0,0,0,.53-.92l.28-1Z"/><path class="cls-7" d="M69.26,41.06A4.25,4.25,0,0,0,68.13,40a3.59,3.59,0,0,0-1.46-.6c-.08.07.83.33,1.15.54A12.23,12.23,0,0,1,69,41.06Z"/><path class="cls-7" d="M66.18,41a2.82,2.82,0,0,0-.93-1.22,4.45,4.45,0,0,0-2-.8c-.2.06,1.5.49,1.88.86A4.23,4.23,0,0,1,65.77,41Z"/><path class="cls-7" d="M63.42,41.29A6.75,6.75,0,0,0,62,40.2a5.58,5.58,0,0,0-1.66-.42c-.19,0,1.28.32,1.69.61a8.84,8.84,0,0,1,1,1Z"/><path class="cls-7" d="M59.85,42.1s-.05-.25-.74-.5-1.06-.43-.91-.43a4.75,4.75,0,0,1,.91.23,6.06,6.06,0,0,1,1.07.61Z"/><path class="cls-3" d="M51.86,27.83c3,2.2,6.91,9.14,2.29,14.85s-11.38,6.06-16.47,2.7a11.47,11.47,0,0,1-1.42-18.13C41.4,22.35,47.35,24.52,51.86,27.83Z"/><path class="cls-4" d="M39.37,27h0Z"/><path class="cls-4" d="M40.06,27.74c.35-.17.74-.53.41-.85s-.78.05-1.09.12C39,27.41,39.13,28.19,40.06,27.74Z"/><path class="cls-4" d="M39.38,27l.54-.21A.88.88,0,0,0,39.38,27Z"/><path class="cls-4" d="M38.43,28.54c.13-.1.31-.3.13-.44a.22.22,0,0,0-.33.07.44.44,0,0,0-.22.29C38,28.76,38.29,28.64,38.43,28.54Z"/><path class="cls-4" d="M40.71,28.36a.35.35,0,0,0-.33,0c-.15,0-.35.09-.38.21a.28.28,0,0,0,0,.08.05.05,0,0,1,0,0l0,0c0,.14.38,0,.5,0S41,28.51,40.71,28.36Z"/><path class="cls-4" d="M40,28.69l0,0Z"/><path class="cls-4" d="M41.45,27.58c-.15,0-.32.21-.24.36s.44.09.57,0C42.28,27.68,41.63,27.47,41.45,27.58Z"/><path class="cls-4" d="M42.07,26.65c-.1,0-.29-.06-.37,0a.15.15,0,0,0,0,.18c0,.1.18.2.25.23s.91.33,1,.07S42.26,26.68,42.07,26.65Z"/><path class="cls-4" d="M41.24,26.13c.16.09.72.07.77-.16s-.3-.28-.45-.26a.77.77,0,0,0-.24.14C41.17,25.92,41.06,26,41.24,26.13Z"/><path class="cls-4" d="M38.53,27.46c.29-.22,0-.34-.23-.29h0c-.13,0-.46.15-.37.33S38.41,27.54,38.53,27.46Z"/><path class="cls-4" d="M37.31,28.84c.11-.12.44-.67.06-.69a.3.3,0,0,0-.2.1,1.15,1.15,0,0,0-.39.53C36.64,29.29,37.12,29.06,37.31,28.84Z"/><path class="cls-4" d="M39.36,29a.78.78,0,0,0-.51.05,1,1,0,0,0-.66.51c-.13.52.78.15,1,.08S39.78,29.15,39.36,29Z"/><path class="cls-4" d="M40.88,29.4c-.14.05-.3.17-.3.29s.53.18.67.11C41.81,29.54,41.08,29.29,40.88,29.4Z"/><path class="cls-4" d="M44.47,26.52a.25.25,0,0,0-.25.1.68.68,0,0,0,1,0A.57.57,0,0,0,44.47,26.52Z"/><path class="cls-4" d="M43,27.86c.31.11,1.16.17,1.23-.27a.7.7,0,0,0-.68-.08C43.27,27.49,43,27.58,43,27.86Z"/><path class="cls-4" d="M43.6,25.56A.44.44,0,0,0,43,25.5a.28.28,0,0,0-.15.18A.59.59,0,0,0,43.6,25.56Z"/><path class="cls-4" d="M45.92,27.39c-.63,0,.18.81.52.55S46.16,27.23,45.92,27.39Z"/><path class="cls-4" d="M37,30c-.19-.15-.35,0-.47.18-.42.27-.92.91-.52,1.06S37,30.33,37,30Z"/><path class="cls-4" d="M35.83,29.16c-.54.1-.28,1,.23.39C36.38,29.16,36.05,29,35.83,29.16Z"/><path class="cls-4" d="M38.9,30.81a.27.27,0,0,0-.19.25c.2.14.73.15.87-.11S39.08,30.5,38.9,30.81Z"/><path class="cls-4" d="M43.7,29.33l0,0a.23.23,0,0,0,0,.11c0,.05,0,.1,0,.11.11.3.73.31.61-.06S43.84,29.19,43.7,29.33Z"/><path class="cls-4" d="M49.25,28.55c-.36-.51-1.12,0-.64.16C48.89,28.91,49.61,29,49.25,28.55Z"/><path class="cls-4" d="M36.31,33.34l.07-.14a.9.9,0,0,0-.4.64c.22,0,.85-.37.83-.65S36.49,33.06,36.31,33.34Z"/><path class="cls-4" d="M42,31.92a.16.16,0,0,0,.21,0c.26,0,.75,0,.54-.32S42.05,31.7,42,31.92Z"/><path class="cls-4" d="M34.14,31.64a.51.51,0,0,0,0,.22c.32.11,1.14,0,.87-.51S34.24,31.26,34.14,31.64Z"/><path class="cls-4" d="M35.26,30.28h0a.26.26,0,0,0-.33.26.39.39,0,0,0,.55-.21A.33.33,0,0,0,35.26,30.28Z"/><path class="cls-5" d="M36.31,41.6c-1.17.85,4.8,5.19,8.69,5a11.45,11.45,0,0,0,9.4-6c1-2.14.67-8.23-.61-7.8-.46.15.1,2.21-1.78,5.34-1.66,2.74-4.48,5.45-8.22,5.27C38.68,43.19,37.09,41,36.31,41.6Z"/><path class="cls-6" d="M49.13,26.54a.54.54,0,0,0-.48.83c.32.8,2.27,2.1,2.83,1.88s.58-.87-.23-1.49A4.64,4.64,0,0,0,49.13,26.54Z"/><path class="cls-6" d="M50.15,27.61s2.26-2.34,2.9-3.22a39.83,39.83,0,0,0,2.14-4.23s.2-.3.48-.24.2.46.2.46-1.58,3.23-2.22,4.12c-1.3,1.81-3,3.77-3,3.77Z"/><path class="cls-6" d="M54.09,23.2c-.14,0-3.73-.47-3.73-.47l-.14.21,1.86.31,1.85.3Z"/><path class="cls-6" d="M46.32,27.4c-3.86,1-9.55-1.76-9.55-1.76s3.8-4.44,7.07-4.77,8.92,2.27,8.92,2.27A13.44,13.44,0,0,1,46.32,27.4Z"/><path class="cls-7" d="M49.17,26.77a.82.82,0,0,0-.09.79,4,4,0,0,0,1.4,1.12l.09-.71s-.3-.2-.33-.38a.41.41,0,0,1,0-.27Z"/><path class="cls-7" d="M51.5,23.23a30.4,30.4,0,0,0-6.45.06c-3,.44-7.52,1.87-7.47,2.07s5-1.64,7.37-1.8,6.73,0,6.73,0Z"/><path class="cls-7" d="M50,23.34a3.36,3.36,0,0,1-.63,1.18,8.47,8.47,0,0,0-1.08,1.68,10.21,10.21,0,0,0,1.25-1.56c.35-.53.81-1.27.81-1.27Z"/><path class="cls-7" d="M47,23.37a5.29,5.29,0,0,1-.66,1.91c-.66,1.36-.93,1.75-.76,1.79s.65-1,1-1.75.84-2,.84-2Z"/><path class="cls-7" d="M44.07,23.64a3.7,3.7,0,0,1-.22,1.42c-.3,1-.66,1.57-.53,1.64s.48-.86.69-1.59.5-1.62.5-1.62Z"/><path class="cls-7" d="M40.94,24.38a2.39,2.39,0,0,1-.16.84c-.18.52-.47,1-.39,1a1.74,1.74,0,0,0,.54-.92c.13-.46.27-1,.27-1Z"/><path class="cls-7" d="M50.34,23.26a4.07,4.07,0,0,0-1.13-1.08,3.48,3.48,0,0,0-1.46-.6c-.07.07.83.33,1.15.54a11.47,11.47,0,0,1,1.19,1.14Z"/><path class="cls-7" d="M47.26,23.17A2.85,2.85,0,0,0,46.34,22a4.62,4.62,0,0,0-2.05-.81c-.2.07,1.5.5,1.88.87a4.23,4.23,0,0,1,.69,1.2Z"/><path class="cls-7" d="M44.51,23.49a6.75,6.75,0,0,0-1.39-1.09A5.58,5.58,0,0,0,41.46,22c-.2,0,1.28.32,1.69.61a8.84,8.84,0,0,1,1,1Z"/><path class="cls-7" d="M40.93,24.3s0-.25-.73-.5-1.06-.43-.91-.43a4.75,4.75,0,0,1,.91.23,6.49,6.49,0,0,1,1.07.61Z"/><path class="cls-3" d="M25.37,43.53c-3,2.19-6.91,9.14-2.29,14.85s11.38,6.05,16.47,2.69A11.47,11.47,0,0,0,41,42.94C35.83,38,29.88,40.21,25.37,43.53Z"/><path class="cls-4" d="M37.86,42.71h0Z"/><path class="cls-4" d="M37.17,43.43c-.35-.17-.74-.53-.41-.84s.77,0,1.09.12C38.28,43.11,38.1,43.89,37.17,43.43Z"/><path class="cls-4" d="M37.85,42.71l-.54-.21A.83.83,0,0,1,37.85,42.71Z"/><path class="cls-4" d="M38.8,44.24c-.13-.1-.31-.3-.13-.44a.22.22,0,0,1,.33.07.44.44,0,0,1,.22.29C39.25,44.45,38.94,44.34,38.8,44.24Z"/><path class="cls-4" d="M36.52,44.06a.3.3,0,0,1,.33,0c.15,0,.35.08.38.21a.25.25,0,0,1,0,.08l0,0-.05,0c0,.15-.38,0-.5,0S36.25,44.2,36.52,44.06Z"/><path class="cls-4" d="M37.28,44.39h0Z"/><path class="cls-4" d="M35.78,43.27c.15,0,.32.21.24.36s-.44.09-.57,0C35,43.37,35.6,43.16,35.78,43.27Z"/><path class="cls-4" d="M35.16,42.35c.1,0,.29-.07.37,0a.14.14,0,0,1,0,.17c0,.11-.18.2-.25.24s-.91.32-1,.06S35,42.37,35.16,42.35Z"/><path class="cls-4" d="M36,41.83c-.16.08-.72.06-.78-.16s.31-.28.46-.26a.61.61,0,0,1,.24.14C36.06,41.62,36.17,41.73,36,41.83Z"/><path class="cls-4" d="M38.7,43.15c-.29-.21,0-.33.22-.29h0c.13,0,.46.14.37.32S38.81,43.24,38.7,43.15Z"/><path class="cls-4" d="M39.92,44.54c-.11-.13-.44-.67-.06-.7a.27.27,0,0,1,.2.11,1,1,0,0,1,.38.53C40.59,45,40.11,44.75,39.92,44.54Z"/><path class="cls-4" d="M37.87,44.69a.77.77,0,0,1,.51,0c.28.08.61.3.66.52.13.51-.78.14-1,.07S37.45,44.85,37.87,44.69Z"/><path class="cls-4" d="M36.35,45.1c.14,0,.3.17.3.29s-.53.17-.67.11C35.42,45.23,36.15,45,36.35,45.1Z"/><path class="cls-4" d="M32.76,42.21a.26.26,0,0,1,.25.11.68.68,0,0,1-1,0A.59.59,0,0,1,32.76,42.21Z"/><path class="cls-4" d="M34.24,43.56c-.32.11-1.16.16-1.23-.28a.75.75,0,0,1,.68-.08C34,43.19,34.24,43.28,34.24,43.56Z"/><path class="cls-4" d="M33.63,41.26a.44.44,0,0,1,.62-.07.32.32,0,0,1,.15.19A.61.61,0,0,1,33.63,41.26Z"/><path class="cls-4" d="M31.31,43.09c.63,0-.18.8-.52.55S31.06,42.92,31.31,43.09Z"/><path class="cls-4" d="M40.25,45.68c.19-.16.35,0,.46.18.42.27.93.9.53,1.06S40.26,46,40.25,45.68Z"/><path class="cls-4" d="M41.4,44.85c.54.11.28,1-.23.39C40.85,44.86,41.18,44.74,41.4,44.85Z"/><path class="cls-4" d="M38.33,46.5a.28.28,0,0,1,.19.25c-.2.15-.73.16-.87-.11S38.15,46.19,38.33,46.5Z"/><path class="cls-4" d="M33.53,45l0-.05a.26.26,0,0,1,0,.11s0,.1,0,.12c-.11.29-.73.3-.61-.07S33.39,44.88,33.53,45Z"/><path class="cls-4" d="M28,44.24c.36-.5,1.12,0,.64.16C28.34,44.6,27.62,44.73,28,44.24Z"/><path class="cls-4" d="M40.92,49l-.07-.13a.9.9,0,0,1,.4.63c-.22.06-.85-.37-.83-.65S40.74,48.76,40.92,49Z"/><path class="cls-4" d="M35.25,47.61a.16.16,0,0,1-.21,0c-.26,0-.75,0-.54-.32S35.18,47.39,35.25,47.61Z"/><path class="cls-4" d="M43.09,47.33a.53.53,0,0,1,0,.22c-.32.11-1.14,0-.87-.51S43,47,43.09,47.33Z"/><path class="cls-4" d="M42,46h0a.27.27,0,0,1,.33.27.39.39,0,0,1-.55-.22A.39.39,0,0,1,42,46Z"/><path class="cls-5" d="M40.92,57.29c1.17.86-4.81,5.19-8.69,5a11.44,11.44,0,0,1-9.4-6c-1-2.15-.67-8.23.61-7.81.46.15-.1,2.22,1.78,5.34,1.66,2.75,4.48,5.46,8.22,5.27C38.55,58.89,40.14,56.72,40.92,57.29Z"/><path class="cls-6" d="M28.1,42.23a.55.55,0,0,1,.48.84c-.32.8-2.27,2.09-2.83,1.88s-.58-.87.23-1.5A4.73,4.73,0,0,1,28.1,42.23Z"/><path class="cls-6" d="M27.08,43.3s-2.26-2.34-2.9-3.22A39.9,39.9,0,0,1,22,35.86s-.2-.3-.48-.25-.2.47-.2.47,1.58,3.23,2.22,4.11c1.3,1.81,3,3.78,3,3.78Z"/><path class="cls-6" d="M23.14,38.89l3.73-.47.14.22-1.86.3-1.85.3Z"/><path class="cls-6" d="M30.91,43.1c3.86,1,9.55-1.77,9.55-1.77s-3.8-4.43-7.07-4.77-8.92,2.27-8.92,2.27A13.5,13.5,0,0,0,30.91,43.1Z"/><path class="cls-7" d="M28.06,42.47a.81.81,0,0,1,.09.79,4.09,4.09,0,0,1-1.4,1.11l-.09-.7s.3-.21.33-.38A.39.39,0,0,0,27,43Z"/><path class="cls-7" d="M25.72,38.93a29.77,29.77,0,0,1,6.46.06c3,.43,7.52,1.86,7.46,2.07s-4.94-1.64-7.36-1.8-6.73,0-6.73,0Z"/><path class="cls-7" d="M27.24,39a3.28,3.28,0,0,0,.63,1.17A8.7,8.7,0,0,1,29,41.9a10.44,10.44,0,0,1-1.25-1.57c-.36-.53-.81-1.27-.81-1.27Z"/><path class="cls-7" d="M30.24,39.06A5.29,5.29,0,0,0,30.9,41c.66,1.36.93,1.76.76,1.79s-.65-1-1-1.74-.84-2-.84-2Z"/><path class="cls-7" d="M33.16,39.33a3.76,3.76,0,0,0,.22,1.43c.3,1,.66,1.57.53,1.64s-.48-.87-.69-1.59-.5-1.63-.5-1.63Z"/><path class="cls-7" d="M36.29,40.08a2.39,2.39,0,0,0,.16.84c.18.51.47,1,.39,1A1.84,1.84,0,0,1,36.3,41L36,40Z"/><path class="cls-7" d="M26.89,39A4.19,4.19,0,0,1,28,37.87a3.44,3.44,0,0,1,1.45-.59c.08.07-.82.32-1.15.53A12.23,12.23,0,0,0,27.14,39Z"/><path class="cls-7" d="M30,38.87a2.91,2.91,0,0,1,.92-1.23,4.57,4.57,0,0,1,2-.8c.2.06-1.5.49-1.88.87a4.1,4.1,0,0,0-.69,1.2Z"/><path class="cls-7" d="M32.72,39.18a6.75,6.75,0,0,1,1.39-1.09,5.58,5.58,0,0,1,1.66-.42c.2,0-1.28.33-1.69.62a9.06,9.06,0,0,0-1,1Z"/><path class="cls-7" d="M36.3,40s0-.24.73-.5,1.06-.43.91-.43a4.31,4.31,0,0,0-.91.24,5.81,5.81,0,0,0-1.07.61Z"/><path class="cls-3" d="M54.36,45.63c3,2.2,6.91,9.14,2.29,14.85s-11.37,6.06-16.47,2.7a11.47,11.47,0,0,1-1.42-18.13C43.9,40.15,49.85,42.32,54.36,45.63Z"/><path class="cls-4" d="M41.87,44.82h0Z"/><path class="cls-4" d="M42.56,45.54c.35-.17.74-.53.42-.85s-.78.05-1.1.12C41.45,45.21,41.63,46,42.56,45.54Z"/><path class="cls-4" d="M41.89,44.81l.53-.21A.83.83,0,0,0,41.89,44.81Z"/><path class="cls-4" d="M40.93,46.34c.13-.09.31-.3.14-.44a.23.23,0,0,0-.34.08.39.39,0,0,0-.21.28C40.49,46.56,40.79,46.44,40.93,46.34Z"/><path class="cls-4" d="M43.22,46.16a.35.35,0,0,0-.33,0c-.16,0-.35.09-.39.21a.11.11,0,0,0,0,.08s0,0,0,0l0,0c0,.14.38,0,.51,0S43.48,46.31,43.22,46.16Z"/><path class="cls-4" d="M42.45,46.49l0,0Z"/><path class="cls-4" d="M44,45.38c-.15,0-.32.21-.23.36s.44.09.56,0C44.78,45.48,44.14,45.27,44,45.38Z"/><path class="cls-4" d="M44.58,44.45c-.11,0-.29-.06-.37,0a.15.15,0,0,0,0,.18c0,.1.18.2.25.23s.92.33,1,.07S44.76,44.48,44.58,44.45Z"/><path class="cls-4" d="M43.75,43.93c.15.09.71.07.77-.16s-.31-.27-.45-.26a.6.6,0,0,0-.24.14C43.68,43.72,43.56,43.84,43.75,43.93Z"/><path class="cls-4" d="M41,45.26c.29-.22,0-.34-.22-.29h0c-.13,0-.46.15-.37.33S40.92,45.34,41,45.26Z"/><path class="cls-4" d="M39.81,46.64c.11-.12.44-.67.06-.69a.3.3,0,0,0-.2.1,1.06,1.06,0,0,0-.38.53C39.14,47.09,39.62,46.86,39.81,46.64Z"/><path class="cls-4" d="M41.86,46.79a.75.75,0,0,0-.5.05,1,1,0,0,0-.67.51c-.12.52.79.15,1,.08S42.28,47,41.86,46.79Z"/><path class="cls-4" d="M43.38,47.2c-.14,0-.3.17-.29.29s.52.18.66.11C44.31,47.34,43.58,47.09,43.38,47.2Z"/><path class="cls-4" d="M47,44.32a.25.25,0,0,0-.25.1.69.69,0,0,0,1.05,0A.59.59,0,0,0,47,44.32Z"/><path class="cls-4" d="M45.49,45.66c.32.11,1.17.17,1.23-.27a.7.7,0,0,0-.68-.08C45.78,45.29,45.5,45.38,45.49,45.66Z"/><path class="cls-4" d="M46.11,43.36a.46.46,0,0,0-.63-.06.24.24,0,0,0-.14.18A.59.59,0,0,0,46.11,43.36Z"/><path class="cls-4" d="M48.42,45.19c-.63,0,.18.81.53.55S48.67,45,48.42,45.19Z"/><path class="cls-4" d="M39.49,47.78c-.2-.15-.36,0-.47.18-.42.27-.93.91-.53,1.06S39.48,48.13,39.49,47.78Z"/><path class="cls-4" d="M38.33,47c-.54.1-.28,1,.23.39C38.88,47,38.56,46.84,38.33,47Z"/><path class="cls-4" d="M41.41,48.61a.28.28,0,0,0-.2.25c.2.14.74.15.87-.11S41.59,48.3,41.41,48.61Z"/><path class="cls-4" d="M46.2,47.13l0,0a.45.45,0,0,0,0,.11s0,.1,0,.11c.11.3.73.31.61-.06S46.34,47,46.2,47.13Z"/><path class="cls-4" d="M51.76,46.35c-.37-.51-1.12,0-.65.16C51.39,46.71,52.11,46.84,51.76,46.35Z"/><path class="cls-4" d="M38.81,51.14l.07-.14a.93.93,0,0,0-.4.64c.22,0,.85-.37.84-.65S39,50.86,38.81,51.14Z"/><path class="cls-4" d="M44.48,49.72a.17.17,0,0,0,.22.05c.26,0,.74,0,.53-.32S44.56,49.5,44.48,49.72Z"/><path class="cls-4" d="M36.65,49.44a.51.51,0,0,0,0,.22c.33.11,1.14,0,.87-.51S36.74,49.06,36.65,49.44Z"/><path class="cls-4" d="M37.76,48.08h0a.27.27,0,0,0-.33.26.39.39,0,0,0,.55-.21A.33.33,0,0,0,37.76,48.08Z"/><path class="cls-5" d="M38.82,59.4c-1.18.86,4.8,5.19,8.68,5a11.45,11.45,0,0,0,9.41-6c1-2.14.66-8.23-.62-7.8-.46.15.1,2.21-1.78,5.34-1.66,2.75-4.48,5.45-8.21,5.27C41.18,61,39.59,58.83,38.82,59.4Z"/><path class="cls-6" d="M51.64,44.34a.54.54,0,0,0-.49.83c.32.8,2.27,2.1,2.83,1.88s.59-.87-.23-1.49A4.66,4.66,0,0,0,51.64,44.34Z"/><path class="cls-6" d="M52.65,45.41s2.26-2.34,2.91-3.22A41.89,41.89,0,0,0,57.7,38s.2-.3.47-.24.2.46.2.46-1.58,3.23-2.22,4.12c-1.29,1.81-3,3.77-3,3.77Z"/><path class="cls-6" d="M56.59,41c-.14,0-3.73-.47-3.73-.47l-.13.21,1.85.31,1.85.3Z"/><path class="cls-6" d="M48.82,45.2c-3.85,1-9.55-1.76-9.55-1.76s3.81-4.44,7.07-4.77,8.93,2.27,8.93,2.27A13.44,13.44,0,0,1,48.82,45.2Z"/><path class="cls-7" d="M51.67,44.57a.82.82,0,0,0-.09.79A4,4,0,0,0,53,46.48l.1-.7s-.31-.21-.34-.39a.41.41,0,0,1,0-.27Z"/><path class="cls-7" d="M54,41a30.51,30.51,0,0,0-6.46.06c-3,.44-7.52,1.87-7.46,2.07s4.94-1.64,7.36-1.8,6.74,0,6.74,0Z"/><path class="cls-7" d="M52.49,41.14a3.36,3.36,0,0,1-.63,1.18A8.47,8.47,0,0,0,50.78,44,10.21,10.21,0,0,0,52,42.44c.36-.53.82-1.27.82-1.27Z"/><path class="cls-7" d="M49.49,41.17a5.29,5.29,0,0,1-.66,1.91c-.66,1.36-.93,1.75-.76,1.79s.66-1,1-1.75.85-2,.85-2Z"/><path class="cls-7" d="M46.58,41.44a3.63,3.63,0,0,1-.23,1.42c-.3,1-.66,1.57-.53,1.64s.49-.86.69-1.59.5-1.62.5-1.62Z"/><path class="cls-7" d="M43.44,42.18a2.13,2.13,0,0,1-.16.84c-.18.52-.47,1-.38,1a1.82,1.82,0,0,0,.53-.92l.28-1Z"/><path class="cls-7" d="M52.85,41.06A4.25,4.25,0,0,0,51.72,40a3.59,3.59,0,0,0-1.46-.6c-.08.07.83.33,1.15.54a12.23,12.23,0,0,1,1.18,1.14Z"/><path class="cls-7" d="M49.77,41a2.82,2.82,0,0,0-.93-1.22,4.45,4.45,0,0,0-2.05-.8c-.2.06,1.5.49,1.88.86A4.23,4.23,0,0,1,49.36,41Z"/><path class="cls-7" d="M47,41.29a6.75,6.75,0,0,0-1.39-1.09A5.58,5.58,0,0,0,44,39.78c-.19,0,1.28.32,1.69.61a8.84,8.84,0,0,1,1,1Z"/><path class="cls-7" d="M43.44,42.1s0-.25-.74-.5-1.06-.43-.91-.43a4.75,4.75,0,0,1,.91.23,6.06,6.06,0,0,1,1.07.61Z"/><path class="cls-3" d="M8.14,45.28c-3,2.19-6.91,9.14-2.29,14.85s11.37,6.05,16.46,2.69a11.48,11.48,0,0,0,1.43-18.13C18.59,39.79,12.64,42,8.14,45.28Z"/><path class="cls-4" d="M20.63,44.46h0Z"/><path class="cls-4" d="M19.93,45.18c-.34-.17-.74-.53-.41-.84s.78,0,1.09.12C21.05,44.86,20.87,45.64,19.93,45.18Z"/><path class="cls-4" d="M20.61,44.46l-.53-.21A.82.82,0,0,1,20.61,44.46Z"/><path class="cls-4" d="M21.57,46c-.14-.1-.31-.3-.14-.44a.22.22,0,0,1,.33.07.44.44,0,0,1,.22.29C22,46.2,21.7,46.09,21.57,46Z"/><path class="cls-4" d="M19.28,45.8a.33.33,0,0,1,.33,0c.16,0,.35.08.38.21a.25.25,0,0,1,0,.08l0,0,0,0c0,.15-.39,0-.51,0S19,46,19.28,45.8Z"/><path class="cls-4" d="M20,46.14h0Z"/><path class="cls-4" d="M18.55,45c.15,0,.32.21.23.36s-.44.09-.56,0C17.71,45.12,18.36,44.91,18.55,45Z"/><path class="cls-4" d="M17.92,44.1c.1,0,.29-.07.37,0a.14.14,0,0,1,0,.17c0,.11-.18.2-.25.24s-.92.32-1,.06S17.73,44.12,17.92,44.1Z"/><path class="cls-4" d="M18.75,43.58c-.16.08-.71.06-.77-.16s.3-.28.45-.26a.55.55,0,0,1,.24.14C18.82,43.37,18.93,43.48,18.75,43.58Z"/><path class="cls-4" d="M21.47,44.9c-.29-.21,0-.33.22-.29h0c.13,0,.46.14.37.32S21.58,45,21.47,44.9Z"/><path class="cls-4" d="M22.69,46.29c-.11-.13-.44-.67-.06-.7a.24.24,0,0,1,.19.11,1,1,0,0,1,.39.53C23.36,46.73,22.88,46.5,22.69,46.29Z"/><path class="cls-4" d="M20.64,46.44a.74.74,0,0,1,.5,0,1,1,0,0,1,.67.51c.12.52-.79.15-1,.08S20.21,46.6,20.64,46.44Z"/><path class="cls-4" d="M19.11,46.85c.15,0,.3.17.3.29s-.52.17-.67.11C18.18,47,18.91,46.73,19.11,46.85Z"/><path class="cls-4" d="M15.53,44a.28.28,0,0,1,.25.11.69.69,0,0,1-1,0A.6.6,0,0,1,15.53,44Z"/><path class="cls-4" d="M17,45.31c-.31.11-1.16.16-1.23-.28a.75.75,0,0,1,.68-.08C16.72,44.94,17,45,17,45.31Z"/><path class="cls-4" d="M16.39,43a.45.45,0,0,1,.62-.07.32.32,0,0,1,.15.19A.61.61,0,0,1,16.39,43Z"/><path class="cls-4" d="M14.08,44.84c.63,0-.18.8-.53.55S13.83,44.67,14.08,44.84Z"/><path class="cls-4" d="M23,47.43c.19-.16.36,0,.47.18.42.27.92.9.52,1.06S23,47.77,23,47.43Z"/><path class="cls-4" d="M24.16,46.6c.54.11.29,1-.23.39C23.61,46.61,23.94,46.49,24.16,46.6Z"/><path class="cls-4" d="M21.09,48.25a.29.29,0,0,1,.2.25c-.2.15-.74.16-.88-.11S20.91,47.94,21.09,48.25Z"/><path class="cls-4" d="M16.3,46.78l0-.05a.52.52,0,0,1,0,.11s0,.1,0,.12c-.11.29-.73.3-.61-.07S16.15,46.63,16.3,46.78Z"/><path class="cls-4" d="M10.74,46c.36-.5,1.12,0,.65.16C11.11,46.35,10.38,46.48,10.74,46Z"/><path class="cls-4" d="M23.69,50.78l-.08-.13a.87.87,0,0,1,.4.63c-.21.06-.85-.37-.83-.65S23.5,50.51,23.69,50.78Z"/><path class="cls-4" d="M18,49.36a.16.16,0,0,1-.21,0c-.26,0-.74,0-.54-.32S17.94,49.14,18,49.36Z"/><path class="cls-4" d="M25.85,49.08a.41.41,0,0,1,0,.22c-.32.11-1.13,0-.86-.51S25.76,48.71,25.85,49.08Z"/><path class="cls-4" d="M24.73,47.72h0a.27.27,0,0,1,.33.27.4.4,0,0,1-.56-.22A.41.41,0,0,1,24.73,47.72Z"/><path class="cls-5" d="M23.68,59c1.18.86-4.8,5.19-8.69,5a11.44,11.44,0,0,1-9.4-6c-1-2.15-.67-8.23.62-7.81.46.15-.11,2.22,1.78,5.34,1.65,2.75,4.47,5.46,8.21,5.27C21.32,60.64,22.9,58.47,23.68,59Z"/><path class="cls-6" d="M10.86,44a.55.55,0,0,1,.49.84c-.33.8-2.28,2.09-2.84,1.88s-.58-.87.24-1.5A4.71,4.71,0,0,1,10.86,44Z"/><path class="cls-6" d="M9.85,45.05s-2.26-2.34-2.91-3.22A42,42,0,0,1,4.8,37.61s-.2-.3-.48-.25-.19.47-.19.47,1.57,3.23,2.21,4.11c1.3,1.81,3,3.78,3,3.78Z"/><path class="cls-6" d="M5.9,40.64l3.73-.47.14.22-1.85.3L6.07,41Z"/><path class="cls-6" d="M13.68,44.85c3.85,1,9.55-1.77,9.55-1.77s-3.81-4.43-7.07-4.77-8.93,2.27-8.93,2.27A13.5,13.5,0,0,0,13.68,44.85Z"/><path class="cls-7" d="M10.83,44.22a.8.8,0,0,1,.08.79,4.09,4.09,0,0,1-1.4,1.11l-.09-.7s.3-.21.33-.38a.39.39,0,0,0,0-.27Z"/><path class="cls-7" d="M8.49,40.68a29.75,29.75,0,0,1,6.46.06c3,.43,7.52,1.86,7.46,2.07s-4.95-1.64-7.36-1.8-6.74,0-6.74,0Z"/><path class="cls-7" d="M10,40.79A3.34,3.34,0,0,0,10.63,42a8.47,8.47,0,0,1,1.09,1.69,11,11,0,0,1-1.26-1.57c-.35-.53-.81-1.27-.81-1.27Z"/><path class="cls-7" d="M13,40.81a5.29,5.29,0,0,0,.66,1.91c.67,1.36.93,1.76.77,1.79s-.66-1-1-1.74-.85-2-.85-2Z"/><path class="cls-7" d="M15.92,41.08a3.69,3.69,0,0,0,.23,1.43c.3,1,.66,1.57.52,1.64s-.48-.87-.68-1.59-.5-1.63-.5-1.63Z"/><path class="cls-7" d="M19.05,41.83a2.39,2.39,0,0,0,.16.84c.19.51.48,1,.39,1a1.85,1.85,0,0,1-.53-.92c-.14-.46-.28-1-.28-1Z"/><path class="cls-7" d="M9.65,40.71a4.38,4.38,0,0,1,1.13-1.09A3.46,3.46,0,0,1,12.24,39c.08.07-.83.32-1.15.53A12.62,12.62,0,0,0,9.9,40.7Z"/><path class="cls-7" d="M12.73,40.62a2.91,2.91,0,0,1,.92-1.23,4.56,4.56,0,0,1,2.06-.8c.19.06-1.5.49-1.88.87a4.22,4.22,0,0,0-.7,1.2Z"/><path class="cls-7" d="M15.49,40.93a6.6,6.6,0,0,1,1.38-1.09,5.66,5.66,0,0,1,1.66-.42c.2,0-1.27.33-1.68.62a8.6,8.6,0,0,0-1.05,1Z"/><path class="cls-7" d="M19.06,41.74s.05-.24.73-.5,1.07-.43.92-.43a4.16,4.16,0,0,0-.91.24,5.66,5.66,0,0,0-1.08.61Z"/><path class="cls-8" d="M8.58,64.8c1.21,4.8,4.31,16.83,6.17,21.38,2.36,5.73,1.26,8.24,9,9,6.68.67,20.45.36,26.27.21,5.82.15,19.6.46,26.28-.21,7.78-.79,6.68-3.3,9-9,1.87-4.55,5.22-18.45,6.42-23.25Z"/><path class="cls-9" d="M94.06,60.58c-.63-2.28-4.19-1.78-5.9-1.7-.58,0-1.17,0-1.75,0-2.93.06-5.85.09-8.77.13-3.31,0-42.61.84-45.88,1L22,60.33c-2.87.1-5.73.2-8.6.28-.57,0-1.15,0-1.72,0-1.68,0-5.2-.33-5.71,1.93A2.32,2.32,0,0,0,7.72,65.4a14.82,14.82,0,0,0,3.39-.1C14.38,65.1,17.67,65,21,65l9.94-.24L41,64.5c1.23,0,7.54-.08,9.09-.11l8.48-.21,10.28-.26L79,63.7c3.34-.08,6.69-.18,10-.12a15.22,15.22,0,0,0,3.44-.06A2.37,2.37,0,0,0,94.06,60.58Z"/><path class="cls-10" d="M13.09,65.15c-.84-.13-1.05-1.36-1.12-2A4.39,4.39,0,0,1,12.43,61a0,0,0,0,0-.07,0,3.25,3.25,0,0,0-.53,2.72,4,4,0,0,0,.17.63A2.62,2.62,0,0,1,12,61a.06.06,0,0,0-.09-.07,2.88,2.88,0,0,0,.52,4.14h.06a.79.79,0,0,0,.6.25C13.19,65.33,13.18,65.16,13.09,65.15Z"/><path class="cls-10" d="M13.22,65a3.39,3.39,0,0,1-.1-4,.06.06,0,0,0-.09-.08,3.08,3.08,0,0,0-.79,2.07,2.88,2.88,0,0,0,.87,2.15C13.18,65.11,13.27,65,13.22,65Z"/><path class="cls-10" d="M23.13,65a5.29,5.29,0,0,1-.8-4.76.06.06,0,1,0-.11-.05c-.69,1.46-.73,4,.77,5A.1.1,0,0,0,23.13,65Z"/><path class="cls-10" d="M24,65a5.25,5.25,0,0,1-.77-4.67s-.06-.08-.08,0a4,4,0,0,0-.39,2.44c0,.15.06.32.09.49-.07-.15-.15-.31-.21-.47a3.71,3.71,0,0,1,.11-2.46.07.07,0,0,0-.12,0c-.63,1.38-.63,3.39.7,4.4l.05,0a1.93,1.93,0,0,0,.45.49C23.9,65.23,24.05,65.1,24,65Z"/><path class="cls-10" d="M36.33,64.51a6.78,6.78,0,0,1-.93-2.28,4.29,4.29,0,0,1,.21-1.95c0-.13.2-.35.17-.51a.07.07,0,0,0-.07-.06c-.52.1-.71,1.65-.7,2.06a3.32,3.32,0,0,0,1.22,2.83C36.28,64.63,36.37,64.58,36.33,64.51Z"/><path class="cls-10" d="M37.38,64.48c-.85-1.33-1.58-3-1-4.6,0-.08-.07-.11-.11-.05-.72,1.3-.48,4,.95,4.8C37.36,64.69,37.43,64.55,37.38,64.48Z"/><path class="cls-10" d="M51,61.4c-.09-.65,0-1.25,0-1.88,0-.09-.11-.09-.14,0a4.27,4.27,0,0,0,.55,4,.07.07,0,0,0,.11-.07A11.35,11.35,0,0,1,51,61.4Z"/><path class="cls-10" d="M50.94,64.28a8.93,8.93,0,0,1-.86-4.71c0-.1-.12-.11-.14,0a6,6,0,0,0,0,2.6,4.9,4.9,0,0,0,.79,2.25A.12.12,0,0,0,50.94,64.28Z"/><path class="cls-10" d="M50.51,64.47a9.68,9.68,0,0,1-.81-2.28,12,12,0,0,1,0-2.54.08.08,0,1,0-.15,0c-.29,1.51-.52,3.85.77,5C50.4,64.73,50.57,64.59,50.51,64.47Z"/><path class="cls-10" d="M59.51,60.57c0-.34.07-1.15-.16-1.41,0,0-.09,0-.09,0a6.74,6.74,0,0,0,.43,3.67c0,.06.13,0,.12,0C59.72,62.07,59.57,61.33,59.51,60.57Z"/><path class="cls-10" d="M60.51,61.52c0-.78.05-1.56,0-2.33a.08.08,0,0,0-.16,0A9.28,9.28,0,0,0,60.65,64c0,.06.11,0,.1,0C60.7,63.18,60.56,62.35,60.51,61.52Z"/><path class="cls-10" d="M59.92,61.32c-.06-.65,0-1.31,0-2,0-.08-.13-.07-.15,0a6.23,6.23,0,0,0,.44,4.15s.1,0,.09,0A13,13,0,0,1,59.92,61.32Z"/><path class="cls-10" d="M68.36,61.46a15.62,15.62,0,0,0,0-2.37c0-.09-.16-.1-.17,0-.13,1.51-.5,3.72.56,5a.12.12,0,0,0,.2-.12A10.29,10.29,0,0,1,68.36,61.46Z"/><path class="cls-10" d="M69.13,61.69c-.07-.84.09-1.65.08-2.48,0-.11-.15-.09-.17,0-.33,1.37-.73,3.79.43,4.91.07.07.22,0,.2-.12A12.93,12.93,0,0,1,69.13,61.69Z"/><path class="cls-10" d="M81.2,61.71c0-.87-.21-2.4-1-2.94a.06.06,0,0,0-.09.07,9.11,9.11,0,0,1,.62,2.62c.08.74-.28,1.53-.17,2.22,0,.07.1.14.17.1C81.33,63.45,81.21,62.28,81.2,61.71Z"/><path class="cls-10" d="M81.25,58.85a.1.1,0,0,0-.18.1,7,7,0,0,1,.38,4.49c0,.07.06.14.11.07A4.14,4.14,0,0,0,81.25,58.85Z"/><path class="cls-10" d="M91.55,60.55a2.78,2.78,0,0,0-.77-2c-.09-.07-.2,0-.14.14.87,1.32.61,3.21.42,4.67a.15.15,0,0,0,.29.08A7.09,7.09,0,0,0,91.55,60.55Z"/><path class="cls-10" d="M90.44,58.58a.09.09,0,0,0-.16.09A12.12,12.12,0,0,1,90.74,60a10.43,10.43,0,0,1,.12,1.48.15.15,0,0,0,.3,0A3.81,3.81,0,0,0,90.44,58.58Z"/><path class="cls-11" d="M94.06,60.58a2,2,0,0,0-.71-1.07A2.09,2.09,0,0,1,92,60.62a15.46,15.46,0,0,1-3.4.05c-3.3-.05-6.61,0-9.91.12l-10,.22-10.15.25-8.37.2c-1.53,0-7.75.09-9,.11l-10,.22-9.8.23c-3.24.08-6.49.14-9.72.34a14.94,14.94,0,0,1-3.34.1,2.05,2.05,0,0,1-1.47-1.13A2,2,0,0,0,6,62.59,2.32,2.32,0,0,0,7.72,65.4a14.82,14.82,0,0,0,3.39-.1C14.38,65.1,17.67,65,21,65l9.94-.24L41,64.5c1.23,0,7.54-.08,9.09-.11l8.48-.21,10.28-.26L79,63.7c3.34-.08,6.69-.18,10-.12a15.22,15.22,0,0,0,3.44-.06A2.37,2.37,0,0,0,94.06,60.58Z"/><path class="cls-11" d="M81.11,62.75,70.24,63l-11,.27-9.11.22c-1.67,0-8.44.1-9.77.12l-10.84.24-10.68.26c-3.52.09-7,.15-10.57.37-.57,0-1.16.11-1.75.15a2,2,0,0,0,1.25.77,14.82,14.82,0,0,0,3.39-.1C14.38,65.1,17.67,65,21,65l9.94-.24L41,64.5c1.23,0,7.54-.08,9.09-.11l8.48-.21,10.28-.26L79,63.7c3.34-.08,6.69-.18,10-.12a15.22,15.22,0,0,0,3.44-.06,2,2,0,0,0,1.22-.82c-.6,0-1.2-.07-1.78-.07C88.3,62.57,84.71,62.67,81.11,62.75Z"/><g class="cls-12"><path class="cls-13" d="M8.77,61.12a3.06,3.06,0,0,0-1.27.14.16.16,0,0,0,0,.32,4.19,4.19,0,0,0,.5,0,6.48,6.48,0,0,0,.77-.09A.17.17,0,0,0,8.77,61.12Z"/><path class="cls-13" d="M10.11,60.94a1.1,1.1,0,0,0-.54,0,.16.16,0,0,0,0,.31,1.1,1.1,0,0,0,.54,0A.16.16,0,0,0,10.11,60.94Z"/><path class="cls-13" d="M21.45,60.73a26.2,26.2,0,0,0-4.06,0,20.78,20.78,0,0,0-3.7.21.06.06,0,0,0,0,.11,18.28,18.28,0,0,0,3.47.07A35.87,35.87,0,0,0,21.44,61,.14.14,0,0,0,21.45,60.73Z"/><path class="cls-13" d="M33.56,60.54a21.18,21.18,0,0,0-4.21.05c-1.69,0-3.36,0-5,.15-.07,0-.07.12,0,.13,1.56.09,3.14.17,4.71.19a21.5,21.5,0,0,0,4.54-.18A.17.17,0,0,0,33.56,60.54Z"/><path class="cls-13" d="M48.84,60a37.69,37.69,0,0,0-5.52.06,32.49,32.49,0,0,0-5.41.3c-.08,0-.09.15,0,.15,1.72,0,3.4.1,5.12,0a46.88,46.88,0,0,0,5.81-.21A.18.18,0,0,0,48.84,60Z"/><path class="cls-13" d="M57.73,59.91a24.87,24.87,0,0,0-2.59,0c-.89,0-1.81.16-2.69.14a.07.07,0,0,0,0,.14,12.16,12.16,0,0,0,2.34.07,22.48,22.48,0,0,0,3,0A.15.15,0,0,0,57.73,59.91Z"/><path class="cls-13" d="M67.39,59.84c-1.85-.34-3.75.06-5.6,0-.07,0-.08.08,0,.1a14.53,14.53,0,0,0,2.8.14,13.89,13.89,0,0,0,2.81,0A.12.12,0,0,0,67.39,59.84Z"/><path class="cls-13" d="M78.09,59.67c-2.74-.3-5.49,0-8.24-.08-.18,0-.22.27,0,.29a23.73,23.73,0,0,0,3.77.13c1.5-.1,3,0,4.51-.15A.1.1,0,0,0,78.09,59.67Z"/><path class="cls-13" d="M80.08,59.62a1.63,1.63,0,0,0-1.15-.13c-.16,0-.18.29,0,.3a4.93,4.93,0,0,0,1.08.09C80.12,59.86,80.2,59.69,80.08,59.62Z"/><path class="cls-13" d="M89,59.18a30.18,30.18,0,0,0-6.23.16s-.05.08,0,.08a32.42,32.42,0,0,0,6.23,0A.11.11,0,0,0,89,59.18Z"/><path class="cls-13" d="M92.8,59.32a1.51,1.51,0,0,0-.93-.19c-.14,0-.13.22,0,.24.29,0,.55.14.84.16C92.82,59.53,92.91,59.39,92.8,59.32Z"/></g><path class="cls-10" d="M14,74.72a21.05,21.05,0,0,1-.83-3.09,23.13,23.13,0,0,1-.09-3c0-.12-.16-.1-.19,0a10.19,10.19,0,0,0,.8,6.22C13.73,75,14,74.91,14,74.72Z"/><path class="cls-10" d="M16.44,75.47a11.68,11.68,0,0,1-1.17-3,21.74,21.74,0,0,1-.18-3.13c0-.16-.27-.16-.29,0-.17,2.21-.18,4.53,1.35,6.32C16.27,75.77,16.53,75.64,16.44,75.47Z"/><path class="cls-10" d="M18.52,74.45a17.92,17.92,0,0,1-.84-2.6,16.78,16.78,0,0,1-.15-3,.14.14,0,0,0-.28,0,8.51,8.51,0,0,0,1,5.77C18.36,74.76,18.58,74.61,18.52,74.45Z"/><path class="cls-10" d="M18.7,89.34a17.89,17.89,0,0,1-1.26-5,.08.08,0,1,0-.15,0,10.77,10.77,0,0,0,1.21,5.07C18.57,89.57,18.76,89.46,18.7,89.34Z"/><path class="cls-10" d="M20.9,88.88a18,18,0,0,1-1-3.11,9.16,9.16,0,0,0-.46-2.34.12.12,0,0,0-.22.06c.16.87.22,1.77.37,2.65A9.71,9.71,0,0,0,20.62,89,.15.15,0,0,0,20.9,88.88Z"/><path class="cls-10" d="M23.3,89.41A17.36,17.36,0,0,1,22,83.9c0-.17-.31-.18-.32,0a11.2,11.2,0,0,0,1.24,5.66C23.06,89.77,23.4,89.64,23.3,89.41Z"/><path class="cls-10" d="M24.79,82.47a10.34,10.34,0,0,1-1.15-2.89,32.81,32.81,0,0,1-.44-3.43c0-.12-.21-.13-.22,0a10.09,10.09,0,0,0,1.53,6.48C24.62,82.78,24.88,82.63,24.79,82.47Z"/><path class="cls-10" d="M26.6,82.81a25.48,25.48,0,0,1-1-3.29c-.2-1-.26-2.1-.44-3.15a.12.12,0,0,0-.24,0c.26,2.3.37,4.41,1.46,6.5A.12.12,0,0,0,26.6,82.81Z"/><path class="cls-10" d="M28.79,81.63a29.18,29.18,0,0,1-1-4.09.11.11,0,0,0-.21,0,9.51,9.51,0,0,0,1,4.21A.15.15,0,0,0,28.79,81.63Z"/><path class="cls-10" d="M29,76.43a22.06,22.06,0,0,1-.67-2.54c-.15-1-.25-2.1-.38-3.14a.13.13,0,0,0-.26,0,15.07,15.07,0,0,0,1,5.73C28.75,76.65,29,76.6,29,76.43Z"/><path class="cls-10" d="M31.59,76.48a15.67,15.67,0,0,1-1.08-3.06A18.84,18.84,0,0,0,30,70.85a.09.09,0,0,0-.18.05c.37,2,.3,4,1.47,5.76A.18.18,0,0,0,31.59,76.48Z"/><path class="cls-10" d="M32.73,70.83a.07.07,0,0,0-.14,0,43.12,43.12,0,0,0,1,5.15c0,.14.28.08.25-.07C33.58,74.24,33.21,72.5,32.73,70.83Z"/><path class="cls-10" d="M43.1,80.25a.1.1,0,0,0-.19,0,11,11,0,0,0,.2,5.13c0,.18.36.1.32-.09A16.54,16.54,0,0,1,43.1,80.25Z"/><path class="cls-10" d="M44.85,80.47c0-.18-.32-.18-.33,0a15.61,15.61,0,0,0,.61,5.81.15.15,0,0,0,.29-.08A44,44,0,0,1,44.85,80.47Z"/><path class="cls-10" d="M48.85,85.54a22,22,0,0,1-1.15-5.68c0-.18-.27-.13-.27,0a12.79,12.79,0,0,0,1.11,5.77A.17.17,0,0,0,48.85,85.54Z"/><path class="cls-10" d="M50.24,74c0-.09-.17-.09-.17,0a26.94,26.94,0,0,0,.33,6.53.14.14,0,0,0,.28,0A64.3,64.3,0,0,1,50.24,74Z"/><path class="cls-10" d="M52.73,73.43c0-.15-.2-.17-.23,0a13.72,13.72,0,0,0-.09,6.34.14.14,0,0,0,.27,0A29.21,29.21,0,0,1,52.73,73.43Z"/><path class="cls-10" d="M55.11,76.33c-.08-1.16,0-2.33,0-3.48,0-.15-.23-.14-.25,0a13.55,13.55,0,0,0,.66,7.25A.15.15,0,0,0,55.8,80,35.76,35.76,0,0,1,55.11,76.33Z"/><path class="cls-10" d="M66.1,81c.1-1.17.39-2.34.56-3.51a.11.11,0,0,0-.22,0c-.58,2.45-1.19,4.82-.57,7.32a.2.2,0,0,0,.39-.05A17.25,17.25,0,0,1,66.1,81Z"/><path class="cls-10" d="M68.5,78.61a.14.14,0,0,0-.28,0A18.06,18.06,0,0,0,68,85.2a.15.15,0,0,0,.3,0A41,41,0,0,1,68.5,78.61Z"/><path class="cls-10" d="M71.46,80.7a26.8,26.8,0,0,0,.14-3.1c0-.13-.21-.1-.21,0,0,1.12-.29,2.26-.36,3.38a13.39,13.39,0,0,0,.15,3.35.16.16,0,0,0,.31,0C71.45,83.11,71.42,81.91,71.46,80.7Z"/><path class="cls-10" d="M81.44,77.91a16.32,16.32,0,0,0-.88,6.61.12.12,0,0,0,.24,0c.08-1.1.07-2.2.21-3.3s.54-2.18.6-3.27C81.61,77.86,81.47,77.81,81.44,77.91Z"/><path class="cls-10" d="M83.59,78.25c-.37,2.37-1,4.69-.74,7.12,0,.21.37.22.38,0a36.28,36.28,0,0,1,.2-3.76c.12-1.11.39-2.21.42-3.33A.13.13,0,0,0,83.59,78.25Z"/><path class="cls-10" d="M72.56,88.54c0-.78.16-1.56.18-2.34a.08.08,0,0,0-.15,0,6.36,6.36,0,0,0-.34,2.34,9.43,9.43,0,0,0,.23,2.75c0,.18.32.15.29,0A14,14,0,0,1,72.56,88.54Z"/><path class="cls-10" d="M74.89,86.39c0-.11-.14-.14-.19,0a8,8,0,0,0-.07,5.07.14.14,0,0,0,.27-.07A12.5,12.5,0,0,1,74.89,86.39Z"/><path class="cls-10" d="M77.39,86.46a.11.11,0,0,0-.22,0,17.2,17.2,0,0,0,.1,4.7.18.18,0,0,0,.35,0C77.44,89.57,77.59,88,77.39,86.46Z"/><path class="cls-10" d="M74.31,73.31c.07-1,.31-1.9.47-2.86a.08.08,0,0,0-.16,0c-.49,2.09-1,4.08-.29,6.2,0,.12.24.06.22-.06A13.75,13.75,0,0,1,74.31,73.31Z"/><path class="cls-10" d="M77.19,73.35c0-.88.18-1.75.18-2.64,0-.13-.23-.13-.23,0-.15,2.12-.67,4.16,0,6.26.05.19.34.1.32-.09A19.76,19.76,0,0,1,77.19,73.35Z"/><path class="cls-10" d="M80.3,70.81c0-.17-.26-.21-.27,0-.11,2.08-.76,4.14-.37,6.24A.15.15,0,0,0,80,77,60.43,60.43,0,0,1,80.3,70.81Z"/><path class="cls-10" d="M31.92,65.75a19.22,19.22,0,0,1-5.35.46c-.09,0-.1.12,0,.14A9.84,9.84,0,0,0,32,66.07C32.18,66,32.11,65.71,31.92,65.75Z"/><path class="cls-10" d="M32.72,67.6c-1.91.38-4.16,1-6.12.51-.07,0-.1.1,0,.13a6.28,6.28,0,0,0,2.66.33,9.64,9.64,0,0,0,3.57-.68C33,67.82,32.89,67.56,32.72,67.6Z"/><path class="cls-10" d="M26.3,70.58a13.61,13.61,0,0,1-5.05.1c-.07,0-.11.1,0,.13a7.29,7.29,0,0,0,5.16.09C26.55,70.82,26.49,70.54,26.3,70.58Z"/><path class="cls-10" d="M26.63,73.09a21.23,21.23,0,0,1-5.1.14c-.09,0-.13.13,0,.15a9.81,9.81,0,0,0,5.24.08C27,73.4,26.84,73.06,26.63,73.09Z"/><path class="cls-10" d="M26.45,75.31a17.74,17.74,0,0,1-4.77-.12c-.09,0-.12.12,0,.15a7.28,7.28,0,0,0,4.89.24C26.69,75.53,26.61,75.3,26.45,75.31Z"/><path class="cls-10" d="M35.28,77a23,23,0,0,1-6.13.73c-.2,0-.25.3,0,.32a14,14,0,0,0,6.27-.7A.18.18,0,0,0,35.28,77Z"/><path class="cls-10" d="M34.73,79.88a18.73,18.73,0,0,1-5.49.24.14.14,0,0,0-.07.26,9.83,9.83,0,0,0,5.66-.13A.19.19,0,0,0,34.73,79.88Z"/><path class="cls-10" d="M34.55,82.58c-1.5.31-3.34,1-4.88.68a.12.12,0,0,0-.06.22c1.48.51,3.62,0,5-.49A.22.22,0,0,0,34.55,82.58Z"/><path class="cls-10" d="M29.4,84.4c-1.88,0-3.76.34-5.64-.08-.07,0-.1.09,0,.12a9.79,9.79,0,0,0,5.67.29C29.56,84.69,29.61,84.4,29.4,84.4Z"/><path class="cls-10" d="M29.9,86.07a21.23,21.23,0,0,1-5.34.2c-.13,0-.15.17,0,.2a12.7,12.7,0,0,0,5.42,0A.21.21,0,0,0,29.9,86.07Z"/><path class="cls-10" d="M29.85,87.87a16,16,0,0,1-5.38.45c-.11,0-.16.16,0,.19a9.09,9.09,0,0,0,5.5-.36C30.08,88.1,30,87.85,29.85,87.87Z"/><path class="cls-10" d="M20.25,76.93c-2,0-4,.48-6,.23-.12,0-.14.16,0,.19a12.8,12.8,0,0,0,6.12-.15C20.49,77.16,20.39,76.93,20.25,76.93Z"/><path class="cls-10" d="M20,79.71c-1.55-.21-3.1-.18-4.65-.32a.1.1,0,0,0,0,.2A31.37,31.37,0,0,0,20,80C20.16,80,20.2,79.73,20,79.71Z"/><path class="cls-10" d="M20.37,82.08a26.63,26.63,0,0,1-4.64.12.13.13,0,0,0,0,.26,9.11,9.11,0,0,0,4.75-.13A.13.13,0,0,0,20.37,82.08Z"/><path class="cls-10" d="M47.74,75.26c-2.16.07-4.27.15-6.43,0a.08.08,0,0,0,0,.16,17.43,17.43,0,0,0,6.48,0A.13.13,0,0,0,47.74,75.26Z"/><path class="cls-10" d="M49,77.45c-1.38,0-2.76.18-4.15.23a33.56,33.56,0,0,1-3.87-.2.09.09,0,0,0,0,.18,22.39,22.39,0,0,0,8.08.08A.15.15,0,0,0,49,77.45Z"/><path class="cls-10" d="M48.2,79.36a39,39,0,0,1-7.4.14.08.08,0,0,0,0,.16,13.44,13.44,0,0,0,3.23.21,23.84,23.84,0,0,0,4.22-.31A.1.1,0,0,0,48.2,79.36Z"/><path class="cls-10" d="M55,68.18c-1,0-1.89.1-2.85.08s-1.81-.16-2.69-.26a.06.06,0,0,0,0,.12,13.08,13.08,0,0,0,5.56.36C55.11,68.44,55.13,68.18,55,68.18Z"/><path class="cls-10" d="M54.82,69.79a21.65,21.65,0,0,1-5.63-.21c-.08,0-.12.12,0,.16a11.13,11.13,0,0,0,5.7.28A.12.12,0,0,0,54.82,69.79Z"/><path class="cls-10" d="M55.3,71.26a19.61,19.61,0,0,1-7.44.26c-.09,0-.1.1,0,.12a14.09,14.09,0,0,0,7.54-.09C55.54,71.5,55.46,71.23,55.3,71.26Z"/><path class="cls-10" d="M72.87,71.5a21.92,21.92,0,0,1-4,.16,25.57,25.57,0,0,1-3.48-.6.1.1,0,0,0-.06.19,12.78,12.78,0,0,0,7.56.57A.16.16,0,0,0,72.87,71.5Z"/><path class="cls-10" d="M72.09,73.83A20.54,20.54,0,0,1,66,73.57c-.1,0-.14.15,0,.18a11.27,11.27,0,0,0,6.14.42A.17.17,0,0,0,72.09,73.83Z"/><path class="cls-10" d="M73.16,75.89a15.33,15.33,0,0,1-7.67.36c-.18,0-.2.23,0,.27a12.2,12.2,0,0,0,7.85-.31C73.5,76.12,73.37,75.83,73.16,75.89Z"/><path class="cls-10" d="M87.5,70.63a38.5,38.5,0,0,1-5.26-.21c-.12,0-.14.16,0,.19A19.06,19.06,0,0,0,87.5,71C87.7,71,87.7,70.63,87.5,70.63Z"/><path class="cls-10" d="M86.34,72.72a14.52,14.52,0,0,1-4,.07.11.11,0,0,0,0,.22,9.9,9.9,0,0,0,4,0A.16.16,0,0,0,86.34,72.72Z"/><path class="cls-10" d="M85.86,75.46a10.55,10.55,0,0,1-4.43.33c-.11,0-.16.15-.05.19a6.3,6.3,0,0,0,4.56-.21C86.1,75.7,86,75.43,85.86,75.46Z"/><path class="cls-10" d="M79.05,77.92a23.7,23.7,0,0,1-5.19,0c-.1,0-.15.15,0,.18a9.16,9.16,0,0,0,2.45.26,15.73,15.73,0,0,0,2.83-.1A.18.18,0,0,0,79.05,77.92Z"/><path class="cls-10" d="M78.58,81a31.44,31.44,0,0,1-5.57-.5c-.15,0-.21.21-.07.25a17,17,0,0,0,5.64.6C78.78,81.38,78.78,81,78.58,81Z"/><path class="cls-10" d="M78.43,84.13A16.85,16.85,0,0,1,73,83.75a.13.13,0,0,0-.07.25,11.67,11.67,0,0,0,5.56.49A.18.18,0,0,0,78.43,84.13Z"/><g class="cls-14"><path class="cls-8" d="M54.67,68.63c.25,0,.5.37.24.58a3.7,3.7,0,0,1-2.15.49,7.84,7.84,0,0,1-2.84-.46.3.3,0,0,1-.14-.1c-.34-.13-.16-.69.24-.63a16.43,16.43,0,0,0,2.8.22A14.34,14.34,0,0,1,54.67,68.63Z"/><path class="cls-8" d="M52.08,80.09a.31.31,0,0,1-.13.36.33.33,0,0,1-.6.06,8,8,0,0,1-.8-4.15c0-.69,0-2.18.77-2.49a.37.37,0,0,1,.33.09c.38.33.26,1.1.2,1.54A10.77,10.77,0,0,0,52.08,80.09Z"/><path class="cls-8" d="M50.14,71.42c-.53,0-1.42-.34-1.58-.93-.21-.23.1-.67.44-.5,1.61.78,3.64.57,5.36.42.39,0,.45.56.09.66A12.77,12.77,0,0,1,50.14,71.42Z"/><path class="cls-8" d="M53.72,73.52a.34.34,0,0,1,.56.15,3,3,0,0,1-.18,1.86,7.78,7.78,0,0,0,0,2.68c.14.65.41,1.22.57,1.85a.34.34,0,0,1-.5.38c-1.06-.47-1.37-2.09-1.4-3.12S52.8,74.33,53.72,73.52Z"/><path class="cls-8" d="M32.4,72.68c.06.7.13,1.39.24,2.09a1.89,1.89,0,0,1-.06,1,.34.34,0,0,1-.49.2c-1-.64-1.11-2.35-1.15-3.49s0-2,.68-1.88S32.35,72.15,32.4,72.68Z"/><path class="cls-8" d="M33.67,79.57a9.37,9.37,0,0,1-4-.17.34.34,0,0,1-.18-.1.62.62,0,0,1-.14-.14.43.43,0,0,1,.12-.54.1.1,0,0,1,.05,0,.27.27,0,0,1,.28-.16,16.08,16.08,0,0,0,2.86-.14c.84-.09,1.58-.38,2.39-.5a.35.35,0,0,1,.43.32C35.56,79,34.4,79.41,33.67,79.57Z"/><path class="cls-8" d="M35,81.09c-.72,2-4.05,1.7-5.34.57a.33.33,0,0,1,.05-.51.31.31,0,0,1,.4-.27,6.55,6.55,0,0,0,2.82.14c.45-.06,1.48-.59,1.91-.31A.34.34,0,0,1,35,81.09Z"/><path class="cls-8" d="M28.49,73.08c0-.66-.2-1.63.33-2.13a.33.33,0,0,1,.41,0c.57.38.4,1.47.46,2,.1.92.64,1.92.48,2.83a.29.29,0,0,1-.28.24.26.26,0,0,1-.36-.07A5.05,5.05,0,0,1,28.49,73.08Z"/><path class="cls-8" d="M27,66.64a9.4,9.4,0,0,0,2.85.21,9.42,9.42,0,0,1,1.83-.11.34.34,0,0,1,.15.56,4.48,4.48,0,0,1-3.22.71,3,3,0,0,1-1.93-.74.32.32,0,0,1-.06-.15A.33.33,0,0,1,27,66.64Z"/><path class="cls-8" d="M27.51,82.27c-1.54.42-1.77-4.42-1.68-5.12a.35.35,0,0,1,.33-.31.32.32,0,0,1,.51-.06,1.31,1.31,0,0,1,.39.91,13.79,13.79,0,0,0,.46,2.47C27.66,80.58,28.32,82.05,27.51,82.27Z"/><path class="cls-8" d="M26.74,74.39a1.51,1.51,0,0,1-1,.7,4.25,4.25,0,0,1-4.12-.7.32.32,0,0,1,.16-.55.27.27,0,0,1,.28-.06,11.39,11.39,0,0,0,4.43.11C26.71,73.85,26.85,74.19,26.74,74.39Z"/><path class="cls-8" d="M26.2,72.23a4.92,4.92,0,0,1-4.56.46c-.29-.15-.77-.6-.3-.88h0a.37.37,0,0,1,.42-.33,27.67,27.67,0,0,0,4.27.14A.33.33,0,0,1,26.2,72.23Z"/><path class="cls-8" d="M20.38,77.77a.34.34,0,0,1,.34.33c.1,1.3-2.17,1.18-2.94,1.14-.6,0-2.51,0-2.83-.77a.34.34,0,0,1,.28-.6C17,78.28,18.66,77.76,20.38,77.77Z"/><path class="cls-8" d="M15.48,69.84a.18.18,0,0,1,.06-.09,1.17,1.17,0,0,1,.15-.27.68.68,0,0,1,.43-.31.25.25,0,0,1,.39.11,3.27,3.27,0,0,1,.14,1.21A18.43,18.43,0,0,0,17,72.57c.09.36.5,1.38.12,1.7s-.62.13-.88-.18A4.53,4.53,0,0,1,15.48,69.84Z"/><path class="cls-8" d="M13.92,74.09c-.36-.34-.42-1.18-.5-1.64a7.28,7.28,0,0,1,0-2.55.14.14,0,0,1,0-.06.91.91,0,0,1,.44-.71c.73-.38.71,2.88.72,3.12S14.82,75,13.92,74.09Z"/><path class="cls-8" d="M19.87,89a.34.34,0,0,1-.57.24c-.92-.93-1.12-2.43-1.31-3.74,0-.17-.06-.35-.08-.53,0,0,0,0,0-.08v-.06c0-.51.1-.92.57-.92.74,0,.69,1.25.76,1.7A15.46,15.46,0,0,1,19.87,89Z"/><path class="cls-8" d="M19.91,81.48c-1.24.79-5,.7-5.6-.94a.31.31,0,0,1,.14-.36c0-.22.13-.47.4-.36,1.55.61,3.16.26,4.76.49C20.28,80.4,20.58,81.06,19.91,81.48Z"/><path class="cls-8" d="M21.35,88.82a6.64,6.64,0,0,1-1.2-4.17,2.93,2.93,0,0,1,.11-.9c.11-.39.45-.89.93-.61s.3,1,.3,1.51a10,10,0,0,0,.18,2.62,5.41,5.41,0,0,1,.25,1.31A.34.34,0,0,1,21.35,88.82Z"/><path class="cls-8" d="M23.83,77.06a.49.49,0,0,1,.69-.13,2.63,2.63,0,0,1,.31,1.47c.07,1,.39,2,.51,2.95.05.34-.47.44-.62.17A7.11,7.11,0,0,1,23.83,77.06Z"/><path class="cls-8" d="M24.52,84.83c1.23.62,2.7.16,4,.31.23,0,.45.27.29.51-.49.7-1.44.54-2.2.54s-1.95,0-2.48-.76a.26.26,0,0,1,0-.08C23.86,85.12,24.17,84.66,24.52,84.83Z"/><path class="cls-8" d="M24.07,87.14a.34.34,0,0,1,.42-.41l.19.07a.33.33,0,0,1,.22,0,21,21,0,0,0,3.8.3.34.34,0,0,1,.24.57c-.69.7-2.07.54-3,.48S24.38,88,24.07,87.14Z"/><path class="cls-8" d="M70.38,84c0,.34.06.91-.44.91s-.85-.79-1-1.14a5.67,5.67,0,0,1-.29-3.16,7.19,7.19,0,0,1,.43-1.76c.17-.44.51-1.36,1.14-1.29a.49.49,0,0,1,.38.34,2.24,2.24,0,0,1,.13.92l-.09.54c-.08.54-.15,1.09-.21,1.63a13.57,13.57,0,0,0-.09,1.91C70.32,83.3,70.35,83.67,70.38,84Z"/><path class="cls-8" d="M69.15,76.25c-1.08,0-3.5,0-3.7-1.49a.36.36,0,0,1,.12-.34.31.31,0,0,1,.41-.28,10.34,10.34,0,0,0,3.66.65,11.11,11.11,0,0,1,2.21-.18.32.32,0,0,1,.24.32C72,76.29,70.1,76.25,69.15,76.25Z"/><path class="cls-8" d="M67.48,83.62l.06,1a.34.34,0,0,1-.58.24,4.6,4.6,0,0,1-.58-3.61c.15-.86.16-2.5.89-3.11a.34.34,0,0,1,.57.24,11.7,11.7,0,0,1-.28,1.84,2.83,2.83,0,0,0,0,.29c0,.47-.1.94-.11,1.4A16.66,16.66,0,0,0,67.48,83.62Z"/><path class="cls-8" d="M69.36,73.65c-1.13-.05-2.57-.14-3.35-1.1a.27.27,0,0,1-.07-.14c-.18-.23,0-.65.33-.53a10.18,10.18,0,0,0,3.37.6,23.73,23.73,0,0,0,2.67-.32c.27,0,.39.3.29.5C72,73.77,70.42,73.71,69.36,73.65Z"/><path class="cls-8" d="M73.7,91.55a3.63,3.63,0,0,1-1-3.15c.07-.77.11-2.15.87-2.6a.35.35,0,0,1,.5.2,3.11,3.11,0,0,1,0,.61.32.32,0,0,1,.08.29A6.72,6.72,0,0,0,74,89.54a6.6,6.6,0,0,1,.23,1.72C74.2,91.49,73.92,91.72,73.7,91.55Z"/><path class="cls-8" d="M76.7,89.84a4.75,4.75,0,0,1,0,1.19c-.09.31-.33.67-.71.48C75,91,74.81,88.64,74.92,87.68a3.23,3.23,0,0,1,.88-2.2.51.51,0,0,1,.79.11A3.13,3.13,0,0,1,76.82,87a.31.31,0,0,1,0,.19A14.46,14.46,0,0,0,76.7,89.84Z"/><path class="cls-8" d="M77.19,83.52a6.42,6.42,0,0,1-3.31-.47c-1-.26-1.79-.72-1.18-1.43a.33.33,0,0,1,.33-.08l.43.15a10.63,10.63,0,0,0,2.65.23,15.68,15.68,0,0,1,2.65,0,.33.33,0,0,1,.24.23C79.17,83,77.83,83.38,77.19,83.52Z"/><path class="cls-8" d="M77.23,80.57a6.73,6.73,0,0,1-4-1.16.27.27,0,0,1-.09-.3.33.33,0,0,1,.38-.48,13.47,13.47,0,0,0,3.3.27c.86,0,1.77-.11,2.61,0a.34.34,0,0,1,.24.33C79.68,80.27,78,80.59,77.23,80.57Z"/><path class="cls-8" d="M76.5,75.31c.09.42.12,1.13-.41,1.28-1.23.34-1.48-2.73-1.48-3.33s.32-3.8,1.61-3.05a.73.73,0,0,1,.36.62.28.28,0,0,1,.13.36A7.79,7.79,0,0,0,76.5,75.31Z"/><path class="cls-8" d="M79.08,75.49c0,.37.15.79-.12,1.1a.32.32,0,0,1-.4,0c-.78-.4-.92-1.57-1-2.34a7.25,7.25,0,0,1,.45-3.67.49.49,0,0,1,.56-.27.35.35,0,0,1,.37,0c.63.25.41,1.53.19,2.45A12.3,12.3,0,0,0,79.08,75.49Z"/><path class="cls-8" d="M82.89,78.35a27.24,27.24,0,0,0-.31,4.78c0,.53,0,1.61-.64,1.79a.33.33,0,0,1-.33-.08,4.77,4.77,0,0,1-.48-3A14.53,14.53,0,0,1,82,78.32a.5.5,0,0,1,.88,0Z"/><path class="cls-8" d="M87.72,73.63c-.94,1.87-5.32,2.48-6.37.41l0-.1s0,0,0,0a.34.34,0,0,1,0-.1v0a.51.51,0,0,1,.44-.55h.09a.67.67,0,0,1,.39.08,9.16,9.16,0,0,0,5.16-.17C87.64,73,87.84,73.38,87.72,73.63Z"/><path class="cls-8" d="M82,71.27a.33.33,0,0,1,.41-.31,18.44,18.44,0,0,0,4.92.23.34.34,0,0,1,.24.57,4.89,4.89,0,0,1-5.57,0A.31.31,0,0,1,82,71.27Z"/><path class="cls-8" d="M47.88,85.7c.12.4-.16,1-.66.85-1.84-.5-2.2-3.38-2.06-4.93.06-.59.17-1.39.8-1.65.43-.18,1-.17,1.15.38a3.61,3.61,0,0,1,0,1.6A9.58,9.58,0,0,0,47.88,85.7Z"/><path class="cls-8" d="M43.72,79.23A4.43,4.43,0,0,1,41,78.55a.29.29,0,0,1-.09-.28c-.09-.23.08-.55.38-.44,2.23.8,4.41.28,6.7.3a.34.34,0,0,1,.09.66A12.73,12.73,0,0,1,43.72,79.23Z"/><path class="cls-8" d="M44.29,81.59a14.34,14.34,0,0,0,.34,4c0,.29-.32.63-.56.33a4.7,4.7,0,0,1-.81-2.64,6,6,0,0,1,.13-2.6.46.46,0,0,1,.87,0,1.36,1.36,0,0,1,0,.8A.33.33,0,0,1,44.29,81.59Z"/><path class="cls-8" d="M41.35,76h0a.35.35,0,0,1,.18,0,33.46,33.46,0,0,0,6.25,0,.34.34,0,0,1,.33.34c0,1.09-1.8,1-2.53,1-1.56.06-3.23.38-4.51-.74A.34.34,0,0,1,41.35,76Z"/></g><g class="cls-15"><path class="cls-8" d="M8.68,64.8c1.2,4.8,4.3,16.83,6.17,21.38,2.36,5.73,1.26,8.24,9,9,6.69.67,20.46.36,26.28.21,5.82.15,19.59.46,26.28-.21,7.77-.79,6.68-3.3,9-9,1.87-4.55,5.21-18.45,6.42-23.25ZM82.82,85.86a8.4,8.4,0,0,1-1.4,1.32c-2.73,2-6.42,2.64-9.81,2.91-1.94.15-3.88.17-5.83.19-6.83.09-13.64.66-20.47.76q-4.81.08-9.65,0c-5-.1-10.53.42-15.18-1.76a13,13,0,0,1-6.08-6.78c-1.82-4.08-5.55-14.44,3-14,2.4.13,4.76.16,7.16.18,7.4.06,14.79.26,22.19.11q3.21-.06,6.42-.22c7.56-.39,18.54-1.08,26.11-1.29,2.26-.06,5.1-.49,7.22.41C90.8,69.54,84.41,84,82.82,85.86Z"/></g><path class="cls-16" d="M36.3,70.28c-3.27,0-6.54,0-9.8,0-2.39,0-5.48-.48-7.74.31-2.89,1-1.16,4.5-.34,6.15a9.62,9.62,0,0,0,3.95,3.92C27,83.33,33.26,84,38.84,84.26c4.59.21,9.19.12,13.78-.11,6.07-.29,12.34-.2,18.27-1.44a19.33,19.33,0,0,0,13-9.37c.59-1.12,2-3.35.17-4.18-2-.91-24.41.86-33.06,1Q43.63,70.21,36.3,70.28Z"/><g class="cls-17"><path class="cls-8" d="M83.28,90c-5.26,3.84-23,3.14-26.1,3.21-6.29.14-12.58.17-18.87.14-3.17,0-15-.67-17.66-1.21a9.05,9.05,0,0,1-4.57-2.19c1,3.14,1.9,4.69,7.71,5.28,6.68.67,20.45.36,26.27.21,5.82.15,19.6.46,26.28-.21,6.34-.64,6.78-2.43,8-6.17A8.59,8.59,0,0,1,83.28,90Z"/><path class="cls-8" d="M15.44,65.64c4.4-.39,8.86-.11,13.27-.13,6.34,0,12.68-.29,19-.32s12.75.11,19.12,0,12.58-.74,18.83-.41c1.29.06,3.83,0,4.68,1.26a2.34,2.34,0,0,1,.36,1.19l1.06-4.27L8.58,64.8l.65,2.55a5,5,0,0,1,1.47-.71A14.29,14.29,0,0,1,15.44,65.64Z"/></g><path class="cls-13" d="M36.61,89.66a2.15,2.15,0,0,1-2.5-2.43,3.12,3.12,0,0,1,.36-1.51,6.31,6.31,0,0,1,1-1.32l5.24-5.48a11.25,11.25,0,0,0,1.7-2.16A3.71,3.71,0,0,0,42.89,75a2.06,2.06,0,0,0-.75-1.73A3.51,3.51,0,0,0,40,72.64a6,6,0,0,0-1.51.21,9.15,9.15,0,0,0-1.77.69,2.15,2.15,0,0,1-1.42.21,2.07,2.07,0,0,1-1.1-.65,2.28,2.28,0,0,1-.34-2.49,2.31,2.31,0,0,1,1.11-1.07,10.93,10.93,0,0,1,2.86-1.1,13.25,13.25,0,0,1,3-.35,10.33,10.33,0,0,1,4.14.73,5.39,5.39,0,0,1,2.54,2.12,6.21,6.21,0,0,1,.87,3.35,8.19,8.19,0,0,1-.38,2.48,9.18,9.18,0,0,1-1.2,2.41,18.37,18.37,0,0,1-2.21,2.6L39.68,86.6V85.18h7.4a2.32,2.32,0,0,1,1.71.57,2.26,2.26,0,0,1,.57,1.66,2,2,0,0,1-2.28,2.25Z"/><path class="cls-13" d="M54.66,89.66a2.15,2.15,0,0,1-2.5-2.43,3.12,3.12,0,0,1,.36-1.51,6.31,6.31,0,0,1,1-1.32l5.24-5.48a11.25,11.25,0,0,0,1.7-2.16A3.71,3.71,0,0,0,60.94,75a2.06,2.06,0,0,0-.75-1.73A3.51,3.51,0,0,0,58,72.64a6,6,0,0,0-1.51.21,9.15,9.15,0,0,0-1.77.69,2.15,2.15,0,0,1-1.42.21,2,2,0,0,1-1.09-.65,2.2,2.2,0,0,1-.55-1.17,2.25,2.25,0,0,1,.2-1.32A2.31,2.31,0,0,1,53,69.54a10.93,10.93,0,0,1,2.86-1.1,13.31,13.31,0,0,1,3-.35,10.33,10.33,0,0,1,4.14.73,5.39,5.39,0,0,1,2.54,2.12,6.21,6.21,0,0,1,.87,3.35A8.19,8.19,0,0,1,66,76.77a9.18,9.18,0,0,1-1.2,2.41,18.37,18.37,0,0,1-2.21,2.6L57.73,86.6V85.18h7.4a2.32,2.32,0,0,1,1.71.57,2.26,2.26,0,0,1,.57,1.66,2,2,0,0,1-2.28,2.25Z"/></g></g></svg>