<svg xmlns="http://www.w3.org/2000/svg" viewBox="0 0 105.29 104.84"><defs><style>.cls-1{isolation:isolate;}.cls-2{fill:#ed7d03;}.cls-3{fill:#ff8c03;}.cls-4{fill:#fcbc08;}.cls-5{fill:#f28106;opacity:0.7;}.cls-6{fill:#7c6a13;}.cls-7{fill:#937b18;}.cls-8{fill:#b86313;}.cls-11,.cls-9{fill:#cc7917;}.cls-10{fill:#9e4727;}.cls-11,.cls-12,.cls-17{opacity:0.5;}.cls-11,.cls-15,.cls-17{mix-blend-mode:multiply;}.cls-13,.cls-16{fill:#fff;}.cls-14,.cls-15{opacity:0.3;}.cls-14{mix-blend-mode:screen;}.cls-16{opacity:0.1;}</style></defs><title>orange25</title><g class="cls-1"><g id="Layer_1" data-name="Layer 1"><path class="cls-2" d="M79.45,46.13c-4.72-1.6-9.7-5.65-10.85-10.74H24.38V65.6H81.69V46.74A19,19,0,0,1,79.45,46.13Z"/><path class="cls-3" d="M66.91,12.22c3,2.2,6.91,9.14,2.29,14.85s-11.38,6.06-16.47,2.7a11.47,11.47,0,0,1-1.42-18.13C56.45,6.74,62.4,8.91,66.91,12.22Z"/><path class="cls-4" d="M54.42,11.41h0Z"/><path class="cls-4" d="M55.11,12.13c.35-.17.74-.53.41-.85s-.77.05-1.09.12C54,11.8,54.18,12.58,55.11,12.13Z"/><path class="cls-4" d="M54.43,11.4l.54-.21A.88.88,0,0,0,54.43,11.4Z"/><path class="cls-4" d="M53.48,12.93c.13-.09.31-.3.13-.44s-.25,0-.33.08a.41.41,0,0,0-.22.28C53,13.15,53.34,13,53.48,12.93Z"/><path class="cls-4" d="M55.76,12.75a.35.35,0,0,0-.33,0c-.15,0-.35.09-.38.21a.11.11,0,0,0,0,.08l0,0,0,0c0,.14.38,0,.5,0S56,12.9,55.76,12.75Z"/><path class="cls-4" d="M55,13.08l0,0Z"/><path class="cls-4" d="M56.5,12c-.15,0-.32.21-.24.36s.44.09.57,0C57.33,12.07,56.68,11.86,56.5,12Z"/><path class="cls-4" d="M57.12,11c-.1,0-.29-.06-.37,0a.15.15,0,0,0,0,.18c0,.1.18.2.25.23s.92.33,1,.07S57.31,11.07,57.12,11Z"/><path class="cls-4" d="M56.29,10.52c.16.09.72.07.78-.16s-.31-.28-.45-.26a.71.71,0,0,0-.25.14C56.22,10.31,56.11,10.43,56.29,10.52Z"/><path class="cls-4" d="M53.58,11.85c.29-.22,0-.34-.22-.29h0c-.13,0-.46.15-.37.33S53.47,11.93,53.58,11.85Z"/><path class="cls-4" d="M52.36,13.23c.11-.12.44-.67.06-.69a.3.3,0,0,0-.2.1,1.06,1.06,0,0,0-.38.53C51.69,13.68,52.17,13.45,52.36,13.23Z"/><path class="cls-4" d="M54.41,13.38a.74.74,0,0,0-.5,0,1,1,0,0,0-.67.51c-.13.52.78.15,1,.08S54.83,13.54,54.41,13.38Z"/><path class="cls-4" d="M55.93,13.79c-.14.05-.3.17-.3.29s.53.18.67.11C56.86,13.93,56.13,13.68,55.93,13.79Z"/><path class="cls-4" d="M59.52,10.91a.25.25,0,0,0-.25.1.68.68,0,0,0,1,0A.57.57,0,0,0,59.52,10.91Z"/><path class="cls-4" d="M58,12.25c.32.11,1.17.17,1.23-.27a.7.7,0,0,0-.68-.08C58.33,11.88,58.05,12,58,12.25Z"/><path class="cls-4" d="M58.66,10A.46.46,0,0,0,58,9.89a.28.28,0,0,0-.15.18A.6.6,0,0,0,58.66,10Z"/><path class="cls-4" d="M61,11.78c-.63,0,.18.81.53.55S61.22,11.62,61,11.78Z"/><path class="cls-4" d="M52,14.37c-.2-.15-.36,0-.47.18-.42.27-.93.91-.53,1.06S52,14.72,52,14.37Z"/><path class="cls-4" d="M50.88,13.55c-.54.1-.28,1,.23.39C51.43,13.55,51.1,13.43,50.88,13.55Z"/><path class="cls-4" d="M54,15.2a.29.29,0,0,0-.19.25c.2.14.74.15.87-.11S54.13,14.89,54,15.2Z"/><path class="cls-4" d="M58.75,13.72l0,0a.45.45,0,0,0,0,.11c0,.05,0,.1,0,.11.11.3.73.31.61-.06S58.89,13.58,58.75,13.72Z"/><path class="cls-4" d="M64.3,12.94c-.36-.51-1.11,0-.64.16C63.94,13.3,64.66,13.43,64.3,12.94Z"/><path class="cls-4" d="M51.36,17.73l.07-.14a.9.9,0,0,0-.4.64c.22.05.85-.37.83-.65S51.54,17.45,51.36,17.73Z"/><path class="cls-4" d="M57,16.31a.16.16,0,0,0,.21.05c.27,0,.75,0,.54-.32S57.1,16.09,57,16.31Z"/><path class="cls-4" d="M49.2,16a.51.51,0,0,0,0,.22c.32.11,1.14,0,.87-.51S49.29,15.65,49.2,16Z"/><path class="cls-4" d="M50.31,14.67h0a.26.26,0,0,0-.33.26.39.39,0,0,0,.55-.21A.33.33,0,0,0,50.31,14.67Z"/><path class="cls-5" d="M51.36,26c-1.17.85,4.81,5.19,8.69,5a11.42,11.42,0,0,0,9.4-6c1-2.14.67-8.23-.61-7.8-.46.15.1,2.21-1.78,5.34-1.66,2.75-4.48,5.45-8.22,5.27C53.73,27.58,52.14,25.42,51.36,26Z"/><path class="cls-6" d="M64.18,10.93a.54.54,0,0,0-.48.83c.32.8,2.27,2.1,2.83,1.88s.59-.87-.23-1.49A4.64,4.64,0,0,0,64.18,10.93Z"/><path class="cls-6" d="M65.2,12s2.26-2.34,2.9-3.22a39.83,39.83,0,0,0,2.14-4.23s.2-.3.48-.24.2.46.2.46S69.34,8,68.7,8.89c-1.3,1.81-3,3.77-3,3.77Z"/><path class="cls-6" d="M69.14,7.59c-.14,0-3.73-.47-3.73-.47l-.14.21,1.86.31,1.85.3Z"/><path class="cls-6" d="M61.37,11.79c-3.85,1-9.55-1.76-9.55-1.76s3.8-4.44,7.07-4.77,8.93,2.27,8.93,2.27A13.5,13.5,0,0,1,61.37,11.79Z"/><path class="cls-7" d="M64.22,11.16a.82.82,0,0,0-.09.79,4,4,0,0,0,1.4,1.12l.09-.7s-.3-.21-.33-.39a.41.41,0,0,1,0-.27Z"/><path class="cls-7" d="M66.56,7.62a30.51,30.51,0,0,0-6.46.06c-3,.44-7.52,1.87-7.46,2.07S57.58,8.11,60,8s6.73,0,6.73,0Z"/><path class="cls-7" d="M65,7.73a3.36,3.36,0,0,1-.63,1.18,8.47,8.47,0,0,0-1.08,1.68A10.21,10.21,0,0,0,64.58,9c.36-.53.82-1.27.82-1.27Z"/><path class="cls-7" d="M62,7.76a5.29,5.29,0,0,1-.66,1.91c-.66,1.36-.93,1.75-.76,1.79s.65-1,1-1.75.84-2,.84-2Z"/><path class="cls-7" d="M59.12,8a3.7,3.7,0,0,1-.22,1.42c-.3,1-.66,1.57-.53,1.64s.48-.86.69-1.59.5-1.62.5-1.62Z"/><path class="cls-7" d="M56,8.77a2.39,2.39,0,0,1-.16.84c-.18.52-.47,1-.39,1A1.74,1.74,0,0,0,56,9.72l.28-1Z"/><path class="cls-7" d="M65.39,7.65a4.07,4.07,0,0,0-1.13-1.08A3.51,3.51,0,0,0,62.81,6c-.08.07.83.33,1.15.54a12.23,12.23,0,0,1,1.18,1.14Z"/><path class="cls-7" d="M62.31,7.56a2.85,2.85,0,0,0-.92-1.22,4.45,4.45,0,0,0-2-.8c-.2.06,1.5.49,1.88.86a4.23,4.23,0,0,1,.69,1.21Z"/><path class="cls-7" d="M59.56,7.88a6.75,6.75,0,0,0-1.39-1.09,5.58,5.58,0,0,0-1.66-.42c-.19,0,1.28.32,1.69.61a8.84,8.84,0,0,1,1,1Z"/><path class="cls-7" d="M56,8.69s-.05-.25-.74-.5-1.06-.43-.91-.43a4.75,4.75,0,0,1,.91.23,6.06,6.06,0,0,1,1.07.61Z"/><path class="cls-3" d="M47.16,13.34c3,2.19,6.91,9.13,2.29,14.85S38.08,34.24,33,30.88a11.47,11.47,0,0,1-1.42-18.13C36.7,7.85,42.65,10,47.16,13.34Z"/><path class="cls-4" d="M34.67,12.52h0Z"/><path class="cls-4" d="M35.36,13.24c.35-.17.75-.53.42-.85s-.78,0-1.1.13C34.25,12.91,34.43,13.69,35.36,13.24Z"/><path class="cls-4" d="M34.69,12.51l.53-.2A.83.83,0,0,0,34.69,12.51Z"/><path class="cls-4" d="M33.73,14c.13-.09.31-.29.14-.43a.23.23,0,0,0-.34.07.43.43,0,0,0-.21.29C33.29,14.26,33.59,14.14,33.73,14Z"/><path class="cls-4" d="M36,13.86a.32.32,0,0,0-.33,0c-.16,0-.35.08-.39.21a.11.11,0,0,0,0,.08l0,0,0,0c0,.14.38,0,.51,0S36.28,14,36,13.86Z"/><path class="cls-4" d="M35.25,14.2h0Z"/><path class="cls-4" d="M36.75,13.08c-.15,0-.32.21-.23.36s.44.09.56,0C37.58,13.18,36.94,13,36.75,13.08Z"/><path class="cls-4" d="M37.38,12.16c-.11,0-.29-.07-.37,0a.15.15,0,0,0,0,.18c0,.11.18.2.25.24s.92.32,1,.06S37.56,12.18,37.38,12.16Z"/><path class="cls-4" d="M36.55,11.64c.15.08.71.06.77-.17s-.31-.27-.45-.25a.43.43,0,0,0-.24.14C36.48,11.43,36.37,11.54,36.55,11.64Z"/><path class="cls-4" d="M33.83,13c.29-.21,0-.34-.22-.29h0c-.14,0-.47.15-.38.33S33.72,13,33.83,13Z"/><path class="cls-4" d="M32.61,14.34c.11-.12.44-.67.06-.69a.3.3,0,0,0-.2.1,1.08,1.08,0,0,0-.38.54C31.94,14.79,32.42,14.56,32.61,14.34Z"/><path class="cls-4" d="M34.66,14.5a.74.74,0,0,0-.5,0c-.29.08-.62.3-.67.51-.12.52.79.15,1,.08S35.08,14.66,34.66,14.5Z"/><path class="cls-4" d="M36.19,14.9c-.15,0-.31.17-.3.29s.52.18.66.11C37.12,15,36.38,14.79,36.19,14.9Z"/><path class="cls-4" d="M39.77,12a.27.27,0,0,0-.25.1.69.69,0,0,0,1,0A.6.6,0,0,0,39.77,12Z"/><path class="cls-4" d="M38.29,13.36c.32.11,1.17.17,1.23-.27a.75.75,0,0,0-.68-.08C38.58,13,38.3,13.09,38.29,13.36Z"/><path class="cls-4" d="M38.91,11.07a.44.44,0,0,0-.62-.07.3.3,0,0,0-.15.18A.6.6,0,0,0,38.91,11.07Z"/><path class="cls-4" d="M41.22,12.89c-.63,0,.18.81.53.56S41.47,12.73,41.22,12.89Z"/><path class="cls-4" d="M32.29,15.49c-.2-.16-.36,0-.47.18-.42.26-.93.9-.53,1.06S32.28,15.83,32.29,15.49Z"/><path class="cls-4" d="M31.13,14.66c-.54.11-.28,1,.23.39C31.68,14.67,31.36,14.55,31.13,14.66Z"/><path class="cls-4" d="M34.21,16.31a.28.28,0,0,0-.2.25c.2.15.74.16.87-.11S34.39,16,34.21,16.31Z"/><path class="cls-4" d="M39,14.83l0,0a.52.52,0,0,0,0,.11s0,.1,0,.12c.11.29.73.3.62-.07S39.15,14.69,39,14.83Z"/><path class="cls-4" d="M44.56,14.05c-.37-.5-1.12,0-.65.16C44.19,14.41,44.92,14.54,44.56,14.05Z"/><path class="cls-4" d="M31.61,18.84l.07-.13a.91.91,0,0,0-.4.63c.22.06.85-.37.84-.65S31.8,18.57,31.61,18.84Z"/><path class="cls-4" d="M37.28,17.42a.17.17,0,0,0,.22,0c.26,0,.74,0,.53-.32S37.36,17.2,37.28,17.42Z"/><path class="cls-4" d="M29.45,17.14a.4.4,0,0,0,0,.22c.32.11,1.13,0,.86-.51S29.54,16.76,29.45,17.14Z"/><path class="cls-4" d="M30.56,15.78h0a.27.27,0,0,0-.33.27.4.4,0,0,0,.55-.22A.39.39,0,0,0,30.56,15.78Z"/><path class="cls-5" d="M31.62,27.1c-1.18.86,4.8,5.19,8.68,5a11.43,11.43,0,0,0,9.41-6c1-2.14.66-8.23-.62-7.8-.46.15.1,2.21-1.78,5.34-1.65,2.75-4.48,5.46-8.21,5.27C34,28.7,32.39,26.53,31.62,27.1Z"/><path class="cls-6" d="M44.44,12a.55.55,0,0,0-.49.83c.32.8,2.27,2.1,2.83,1.89s.59-.88-.23-1.5A4.76,4.76,0,0,0,44.44,12Z"/><path class="cls-6" d="M45.45,13.11s2.26-2.34,2.91-3.22A41.89,41.89,0,0,0,50.5,5.66s.2-.29.47-.24.2.47.2.47S49.59,9.11,49,10c-1.3,1.81-3,3.78-3,3.78Z"/><path class="cls-6" d="M49.39,8.7c-.13,0-3.73-.47-3.73-.47l-.13.21,1.85.31,1.85.3Z"/><path class="cls-6" d="M41.62,12.91c-3.85,1-9.55-1.77-9.55-1.77s3.81-4.44,7.07-4.77,8.93,2.27,8.93,2.27A13.5,13.5,0,0,1,41.62,12.91Z"/><path class="cls-7" d="M44.47,12.28a.81.81,0,0,0-.09.79,4.09,4.09,0,0,0,1.4,1.11l.1-.7s-.3-.21-.33-.38a.33.33,0,0,1,0-.27Z"/><path class="cls-7" d="M46.81,8.73a30.09,30.09,0,0,0-6.46.07c-3,.43-7.52,1.86-7.46,2.06s4.94-1.64,7.36-1.8,6.74,0,6.74,0Z"/><path class="cls-7" d="M45.29,8.85A3.34,3.34,0,0,1,44.67,10a8.89,8.89,0,0,0-1.09,1.68,10.21,10.21,0,0,0,1.25-1.56c.36-.53.82-1.27.82-1.27Z"/><path class="cls-7" d="M42.29,8.87a5,5,0,0,1-.66,1.91c-.66,1.36-.92,1.76-.76,1.79s.66-1,1-1.75.85-2,.85-2Z"/><path class="cls-7" d="M39.38,9.14a3.63,3.63,0,0,1-.23,1.42c-.3,1-.66,1.58-.53,1.65s.49-.87.69-1.59.5-1.63.5-1.63Z"/><path class="cls-7" d="M36.24,9.88a2.11,2.11,0,0,1-.16.84c-.18.52-.47,1-.38,1a1.83,1.83,0,0,0,.53-.91l.28-1Z"/><path class="cls-7" d="M45.65,8.76a4.43,4.43,0,0,0-1.13-1.08,3.53,3.53,0,0,0-1.46-.6c-.08.07.83.33,1.15.54a12.23,12.23,0,0,1,1.18,1.14Z"/><path class="cls-7" d="M42.57,8.68a2.91,2.91,0,0,0-.92-1.23,4.48,4.48,0,0,0-2.06-.8c-.2.06,1.5.49,1.88.86a4.23,4.23,0,0,1,.69,1.21Z"/><path class="cls-7" d="M39.81,9A6.75,6.75,0,0,0,38.42,7.9a5.58,5.58,0,0,0-1.66-.42c-.19,0,1.28.33,1.69.62a9.48,9.48,0,0,1,1,1Z"/><path class="cls-7" d="M36.24,9.8s-.05-.25-.73-.5-1.07-.43-.92-.43a4.16,4.16,0,0,1,.91.24,5.61,5.61,0,0,1,1.07.6Z"/><path class="cls-3" d="M80.81,23.9c3,2.2,6.91,9.14,2.29,14.86s-11.37,6.05-16.46,2.69a11.48,11.48,0,0,1-1.43-18.13C70.36,18.42,76.31,20.59,80.81,23.9Z"/><path class="cls-4" d="M68.32,23.09h0Z"/><path class="cls-4" d="M69,23.81c.35-.17.74-.53.41-.85s-.78.05-1.09.13C67.9,23.48,68.08,24.26,69,23.81Z"/><path class="cls-4" d="M68.34,23.08l.53-.21A.88.88,0,0,0,68.34,23.08Z"/><path class="cls-4" d="M67.39,24.61c.13-.09.31-.29.13-.44s-.25,0-.33.08a.43.43,0,0,0-.22.28C66.94,24.83,67.25,24.71,67.39,24.61Z"/><path class="cls-4" d="M69.67,24.43a.35.35,0,0,0-.33,0c-.15,0-.35.09-.38.21a.31.31,0,0,0,0,.09l0,0,0,0c0,.14.39,0,.51,0S69.94,24.58,69.67,24.43Z"/><path class="cls-4" d="M68.91,24.77h0Z"/><path class="cls-4" d="M70.4,23.65c-.15,0-.32.21-.23.36s.44.09.57,0C71.24,23.75,70.59,23.54,70.4,23.65Z"/><path class="cls-4" d="M71,22.73c-.1,0-.29-.07-.37,0a.14.14,0,0,0,0,.18c0,.11.18.2.25.24s.91.32,1,.06S71.22,22.75,71,22.73Z"/><path class="cls-4" d="M70.2,22.21c.16.08.72.06.77-.17s-.3-.27-.45-.25a.57.57,0,0,0-.24.13C70.13,22,70,22.11,70.2,22.21Z"/><path class="cls-4" d="M67.48,23.53c.3-.22,0-.34-.22-.29h0c-.13,0-.46.15-.37.33S67.37,23.61,67.48,23.53Z"/><path class="cls-4" d="M66.27,24.91c.1-.12.44-.67,0-.69a.3.3,0,0,0-.19.1,1.12,1.12,0,0,0-.39.54C65.59,25.36,66.08,25.13,66.27,24.91Z"/><path class="cls-4" d="M68.31,25.07a.68.68,0,0,0-.5,0,1,1,0,0,0-.66.51c-.13.52.78.15,1,.08S68.74,25.22,68.31,25.07Z"/><path class="cls-4" d="M69.84,25.47c-.15.05-.3.17-.3.29s.52.18.67.11C70.77,25.61,70,25.36,69.84,25.47Z"/><path class="cls-4" d="M73.43,22.59a.25.25,0,0,0-.25.1.68.68,0,0,0,1,0A.57.57,0,0,0,73.43,22.59Z"/><path class="cls-4" d="M72,23.93c.31.11,1.16.17,1.23-.27a.72.72,0,0,0-.68-.08C72.23,23.56,72,23.65,72,23.93Z"/><path class="cls-4" d="M72.56,21.63a.44.44,0,0,0-.62-.06.3.3,0,0,0-.15.18A.59.59,0,0,0,72.56,21.63Z"/><path class="cls-4" d="M74.87,23.46c-.62,0,.18.81.53.55S75.12,23.3,74.87,23.46Z"/><path class="cls-4" d="M65.94,26.05c-.19-.15-.36,0-.47.18-.42.27-.92.91-.52,1.06S65.93,26.4,65.94,26.05Z"/><path class="cls-4" d="M64.79,25.23c-.54.11-.29,1,.23.39C65.34,25.24,65,25.11,64.79,25.23Z"/><path class="cls-4" d="M67.86,26.88a.3.3,0,0,0-.2.25c.21.14.74.16.88-.11S68,26.57,67.86,26.88Z"/><path class="cls-4" d="M72.65,25.4l0,0a.26.26,0,0,0,0,.11c0,.05,0,.1,0,.12.11.29.73.3.61-.07S72.8,25.26,72.65,25.4Z"/><path class="cls-4" d="M78.21,24.62c-.36-.5-1.12,0-.64.16C77.85,25,78.57,25.11,78.21,24.62Z"/><path class="cls-4" d="M65.26,29.41l.08-.14a.92.92,0,0,0-.4.64c.21.06.85-.37.83-.65S65.45,29.14,65.26,29.41Z"/><path class="cls-4" d="M70.94,28a.16.16,0,0,0,.21.05c.26,0,.74,0,.54-.32S71,27.77,70.94,28Z"/><path class="cls-4" d="M63.1,27.71a.4.4,0,0,0,0,.22c.32.11,1.13,0,.87-.51S63.2,27.33,63.1,27.71Z"/><path class="cls-4" d="M64.22,26.35h0a.27.27,0,0,0-.33.26.4.4,0,0,0,.56-.21A.34.34,0,0,0,64.22,26.35Z"/><path class="cls-5" d="M65.27,37.67c-1.17.86,4.8,5.19,8.69,5a11.43,11.43,0,0,0,9.4-6c1-2.14.67-8.23-.62-7.8-.45.15.11,2.21-1.78,5.34-1.65,2.75-4.47,5.45-8.21,5.27C67.63,39.27,66.05,37.1,65.27,37.67Z"/><path class="cls-6" d="M78.09,22.61a.55.55,0,0,0-.49.83c.33.8,2.28,2.1,2.84,1.88s.58-.87-.24-1.49A4.57,4.57,0,0,0,78.09,22.61Z"/><path class="cls-6" d="M79.11,23.68s2.26-2.34,2.9-3.22a39.83,39.83,0,0,0,2.14-4.23.55.55,0,0,1,.48-.24c.27,0,.19.47.19.47s-1.57,3.22-2.21,4.11c-1.3,1.81-3,3.78-3,3.78Z"/><path class="cls-6" d="M83.05,19.27c-.14,0-3.73-.47-3.73-.47l-.14.21,1.85.31,1.86.3Z"/><path class="cls-6" d="M75.28,23.48c-3.86,1-9.55-1.77-9.55-1.77s3.8-4.44,7.06-4.77,8.93,2.27,8.93,2.27A13.5,13.5,0,0,1,75.28,23.48Z"/><path class="cls-7" d="M78.12,22.85a.8.8,0,0,0-.08.79,4.09,4.09,0,0,0,1.4,1.11l.09-.7s-.3-.21-.33-.38a.39.39,0,0,1,0-.27Z"/><path class="cls-7" d="M80.46,19.3a30.09,30.09,0,0,0-6.46.07c-3,.43-7.51,1.86-7.46,2.06s4.95-1.64,7.37-1.8,6.73,0,6.73,0Z"/><path class="cls-7" d="M79,19.41a3.61,3.61,0,0,1-.63,1.18,7.77,7.77,0,0,0-1.08,1.68,10.88,10.88,0,0,0,1.25-1.56c.35-.53.81-1.27.81-1.27Z"/><path class="cls-7" d="M76,19.44a5.29,5.29,0,0,1-.66,1.91c-.66,1.36-.93,1.76-.77,1.79s.66-1,1-1.75.85-2,.85-2Z"/><path class="cls-7" d="M73,19.71a3.63,3.63,0,0,1-.23,1.42c-.29,1-.66,1.58-.52,1.64s.48-.86.68-1.59.5-1.62.5-1.62Z"/><path class="cls-7" d="M69.9,20.45a2.36,2.36,0,0,1-.16.84c-.19.52-.48,1-.39,1a1.75,1.75,0,0,0,.54-.91c.13-.47.27-1,.27-1Z"/><path class="cls-7" d="M79.3,19.33a4.43,4.43,0,0,0-1.13-1.08,3.48,3.48,0,0,0-1.46-.6c-.07.07.83.33,1.15.54a12.62,12.62,0,0,1,1.19,1.14Z"/><path class="cls-7" d="M76.22,19.24A2.85,2.85,0,0,0,75.3,18a4.44,4.44,0,0,0-2.06-.8c-.19.06,1.5.49,1.88.86a4.1,4.1,0,0,1,.7,1.21Z"/><path class="cls-7" d="M73.46,19.56a6.6,6.6,0,0,0-1.38-1.09,5.66,5.66,0,0,0-1.66-.42c-.2,0,1.27.32,1.69.62a9.06,9.06,0,0,1,1,1Z"/><path class="cls-7" d="M69.89,20.37s0-.25-.73-.5-1.06-.43-.92-.43a4,4,0,0,1,.91.24,5.82,5.82,0,0,1,1.08.6Z"/><path class="cls-3" d="M60.25,20.66c3,2.2,6.91,9.14,2.29,14.86s-11.38,6-16.47,2.69a11.47,11.47,0,0,1-1.42-18.13C49.79,15.18,55.74,17.35,60.25,20.66Z"/><path class="cls-4" d="M47.76,19.85h0Z"/><path class="cls-4" d="M48.45,20.57c.35-.17.74-.53.41-.85s-.77.05-1.09.13C47.34,20.24,47.52,21,48.45,20.57Z"/><path class="cls-4" d="M47.77,19.84l.54-.21A.88.88,0,0,0,47.77,19.84Z"/><path class="cls-4" d="M46.82,21.37c.13-.09.31-.29.13-.44s-.25,0-.33.08a.43.43,0,0,0-.22.28C46.37,21.59,46.68,21.47,46.82,21.37Z"/><path class="cls-4" d="M49.1,21.19a.35.35,0,0,0-.33,0c-.15,0-.35.09-.38.21a.14.14,0,0,0,0,.09l0,0,0,0c0,.14.38,0,.5,0S49.37,21.34,49.1,21.19Z"/><path class="cls-4" d="M48.34,21.53h0Z"/><path class="cls-4" d="M49.84,20.41c-.15,0-.32.21-.24.36s.44.09.57,0C50.67,20.51,50,20.3,49.84,20.41Z"/><path class="cls-4" d="M50.46,19.49c-.1,0-.29-.07-.37,0a.15.15,0,0,0,0,.18c0,.11.18.2.25.24s.92.32,1,.06S50.65,19.51,50.46,19.49Z"/><path class="cls-4" d="M49.63,19c.16.08.72.06.78-.17s-.31-.27-.45-.25a.55.55,0,0,0-.25.13C49.56,18.76,49.45,18.87,49.63,19Z"/><path class="cls-4" d="M46.92,20.29c.29-.22,0-.34-.22-.29h0c-.13,0-.46.15-.37.33S46.81,20.37,46.92,20.29Z"/><path class="cls-4" d="M45.7,21.67c.11-.12.44-.67.06-.69a.3.3,0,0,0-.2.1,1,1,0,0,0-.38.54C45,22.12,45.51,21.89,45.7,21.67Z"/><path class="cls-4" d="M47.75,21.83a.68.68,0,0,0-.5,0,1,1,0,0,0-.67.51c-.13.52.78.15,1,.08S48.17,22,47.75,21.83Z"/><path class="cls-4" d="M49.27,22.23c-.14.05-.3.17-.3.29s.53.18.67.11C50.2,22.37,49.47,22.12,49.27,22.23Z"/><path class="cls-4" d="M52.86,19.35a.25.25,0,0,0-.25.1.68.68,0,0,0,1,0A.57.57,0,0,0,52.86,19.35Z"/><path class="cls-4" d="M51.38,20.69c.32.11,1.17.17,1.23-.27a.72.72,0,0,0-.68-.08C51.67,20.32,51.39,20.41,51.38,20.69Z"/><path class="cls-4" d="M52,18.39a.46.46,0,0,0-.63-.06.3.3,0,0,0-.15.18A.6.6,0,0,0,52,18.39Z"/><path class="cls-4" d="M54.31,20.22c-.63,0,.18.81.53.55S54.56,20.06,54.31,20.22Z"/><path class="cls-4" d="M45.38,22.81c-.2-.15-.36,0-.47.18-.42.27-.93.91-.53,1.06S45.36,23.16,45.38,22.81Z"/><path class="cls-4" d="M44.22,22c-.54.11-.28,1,.23.39C44.77,22,44.44,21.87,44.22,22Z"/><path class="cls-4" d="M47.29,23.64a.29.29,0,0,0-.19.25c.2.14.74.16.87-.11S47.47,23.33,47.29,23.64Z"/><path class="cls-4" d="M52.09,22.16l0,0a.61.61,0,0,0,0,.11c0,.05,0,.1,0,.12.11.29.73.3.61-.07S52.23,22,52.09,22.16Z"/><path class="cls-4" d="M57.64,21.38c-.36-.5-1.11,0-.64.16C57.28,21.74,58,21.87,57.64,21.38Z"/><path class="cls-4" d="M44.7,26.17l.07-.14a.92.92,0,0,0-.4.64c.22.06.85-.37.83-.65S44.88,25.9,44.7,26.17Z"/><path class="cls-4" d="M50.37,24.75a.16.16,0,0,0,.21.05c.27,0,.75,0,.54-.32S50.44,24.53,50.37,24.75Z"/><path class="cls-4" d="M42.54,24.47a.51.51,0,0,0,0,.22c.32.11,1.14,0,.87-.51S42.63,24.09,42.54,24.47Z"/><path class="cls-4" d="M43.65,23.11h0a.26.26,0,0,0-.33.26.39.39,0,0,0,.55-.21A.33.33,0,0,0,43.65,23.11Z"/><path class="cls-5" d="M44.7,34.43c-1.17.86,4.81,5.19,8.69,5a11.39,11.39,0,0,0,9.4-6c1-2.14.67-8.23-.61-7.8-.46.15.1,2.21-1.78,5.34-1.66,2.75-4.48,5.45-8.22,5.27C47.07,36,45.48,33.86,44.7,34.43Z"/><path class="cls-6" d="M57.52,19.37a.54.54,0,0,0-.48.83c.32.8,2.27,2.1,2.83,1.88s.59-.87-.23-1.49A4.64,4.64,0,0,0,57.52,19.37Z"/><path class="cls-6" d="M58.54,20.44s2.26-2.34,2.9-3.22A39.83,39.83,0,0,0,63.58,13a.55.55,0,0,1,.48-.24c.28.05.2.47.2.47S62.68,16.44,62,17.33c-1.3,1.81-3,3.78-3,3.78Z"/><path class="cls-6" d="M62.48,16c-.14,0-3.73-.47-3.73-.47l-.14.21,1.86.31,1.85.3Z"/><path class="cls-6" d="M54.71,20.24c-3.85,1-9.55-1.77-9.55-1.77S49,14,52.23,13.7,61.16,16,61.16,16A13.56,13.56,0,0,1,54.71,20.24Z"/><path class="cls-7" d="M57.56,19.61a.81.81,0,0,0-.09.79,4.09,4.09,0,0,0,1.4,1.11l.09-.7s-.3-.21-.33-.38a.39.39,0,0,1,0-.27Z"/><path class="cls-7" d="M59.9,16.06a30.11,30.11,0,0,0-6.46.07c-3,.43-7.52,1.86-7.46,2.06s4.94-1.64,7.36-1.8,6.73,0,6.73,0Z"/><path class="cls-7" d="M58.38,16.17a3.36,3.36,0,0,1-.63,1.18A8.79,8.79,0,0,0,56.67,19a10.21,10.21,0,0,0,1.25-1.56c.36-.53.82-1.27.82-1.27Z"/><path class="cls-7" d="M55.38,16.2a5.29,5.29,0,0,1-.66,1.91c-.66,1.36-.93,1.76-.76,1.79s.65-1,1-1.75.84-2,.84-2Z"/><path class="cls-7" d="M52.46,16.47a3.7,3.7,0,0,1-.22,1.42c-.3,1-.66,1.58-.53,1.64s.48-.86.69-1.59.5-1.62.5-1.62Z"/><path class="cls-7" d="M49.33,17.21a2.36,2.36,0,0,1-.16.84c-.18.52-.47,1-.39,1a1.75,1.75,0,0,0,.54-.91l.28-1Z"/><path class="cls-7" d="M58.73,16.09A4.24,4.24,0,0,0,57.6,15a3.51,3.51,0,0,0-1.45-.6c-.08.07.83.33,1.15.54a12.23,12.23,0,0,1,1.18,1.14Z"/><path class="cls-7" d="M55.65,16a2.85,2.85,0,0,0-.92-1.22,4.45,4.45,0,0,0-2-.8c-.2.06,1.5.49,1.88.86a4.23,4.23,0,0,1,.69,1.21Z"/><path class="cls-7" d="M52.9,16.32a6.75,6.75,0,0,0-1.39-1.09,5.58,5.58,0,0,0-1.66-.42,17.77,17.77,0,0,1,1.69.62,9.06,9.06,0,0,1,1,1Z"/><path class="cls-7" d="M49.33,17.13s0-.25-.74-.5-1.06-.43-.91-.43a4.31,4.31,0,0,1,.91.24,5.61,5.61,0,0,1,1.07.6Z"/><path class="cls-3" d="M70,30.86c3,2.19,6.91,9.14,2.29,14.85s-11.38,6-16.47,2.69a11.47,11.47,0,0,1-1.42-18.13C59.51,25.37,65.46,27.54,70,30.86Z"/><path class="cls-4" d="M57.48,30h0Z"/><path class="cls-4" d="M58.17,30.76c.35-.17.74-.53.41-.84s-.77,0-1.09.12C57.06,30.44,57.24,31.22,58.17,30.76Z"/><path class="cls-4" d="M57.49,30l.54-.21A.83.83,0,0,0,57.49,30Z"/><path class="cls-4" d="M56.54,31.57c.13-.1.31-.3.13-.44a.22.22,0,0,0-.33.07.44.44,0,0,0-.22.29C56.09,31.78,56.4,31.67,56.54,31.57Z"/><path class="cls-4" d="M58.82,31.39a.3.3,0,0,0-.33,0c-.15,0-.35.08-.38.21a.25.25,0,0,0,0,.08l0,0,0,0c0,.15.38,0,.5,0S59.09,31.53,58.82,31.39Z"/><path class="cls-4" d="M58.06,31.72h0Z"/><path class="cls-4" d="M59.56,30.6c-.15,0-.32.21-.24.36s.44.09.57,0C60.39,30.7,59.74,30.49,59.56,30.6Z"/><path class="cls-4" d="M60.18,29.68c-.1,0-.29-.07-.37,0a.14.14,0,0,0,0,.17c0,.11.18.2.25.24s.91.32,1,.06S60.37,29.7,60.18,29.68Z"/><path class="cls-4" d="M59.35,29.16c.16.08.72.06.78-.16s-.31-.28-.46-.26a.61.61,0,0,0-.24.14C59.28,29,59.17,29.06,59.35,29.16Z"/><path class="cls-4" d="M56.64,30.48c.29-.21,0-.33-.22-.29h0c-.13,0-.46.14-.37.32S56.53,30.57,56.64,30.48Z"/><path class="cls-4" d="M55.42,31.87c.11-.13.44-.67.06-.69a.23.23,0,0,0-.2.1,1.06,1.06,0,0,0-.38.53C54.75,32.31,55.23,32.08,55.42,31.87Z"/><path class="cls-4" d="M57.47,32a.77.77,0,0,0-.51,0,1,1,0,0,0-.66.52c-.13.51.78.14,1,.07S57.89,32.18,57.47,32Z"/><path class="cls-4" d="M59,32.43c-.14,0-.3.17-.3.29s.53.17.67.11C59.92,32.56,59.19,32.31,59,32.43Z"/><path class="cls-4" d="M62.58,29.54a.26.26,0,0,0-.25.11.68.68,0,0,0,1,0A.59.59,0,0,0,62.58,29.54Z"/><path class="cls-4" d="M61.1,30.89c.32.11,1.17.16,1.23-.28a.75.75,0,0,0-.68-.08C61.39,30.52,61.1,30.61,61.1,30.89Z"/><path class="cls-4" d="M61.71,28.59a.44.44,0,0,0-.62-.07.32.32,0,0,0-.15.19A.61.61,0,0,0,61.71,28.59Z"/><path class="cls-4" d="M64,30.42c-.63,0,.18.8.53.55S64.28,30.25,64,30.42Z"/><path class="cls-4" d="M55.09,33c-.19-.16-.35,0-.46.18-.42.27-.93.9-.53,1.06S55.08,33.35,55.09,33Z"/><path class="cls-4" d="M53.94,32.18c-.54.11-.28,1,.23.39C54.49,32.19,54.16,32.07,53.94,32.18Z"/><path class="cls-4" d="M57,33.83a.28.28,0,0,0-.19.25c.2.15.73.16.87-.11S57.19,33.52,57,33.83Z"/><path class="cls-4" d="M61.81,32.36l0,0a.61.61,0,0,0,0,.11s0,.1,0,.12c.11.29.73.3.61-.07S62,32.21,61.81,32.36Z"/><path class="cls-4" d="M67.36,31.57c-.36-.5-1.12,0-.64.16C67,31.93,67.72,32.06,67.36,31.57Z"/><path class="cls-4" d="M54.42,36.36l.07-.13a.9.9,0,0,0-.4.63c.22.06.85-.37.83-.65S54.6,36.09,54.42,36.36Z"/><path class="cls-4" d="M60.09,34.94c.08.09.14.09.21.05.26,0,.75,0,.54-.31S60.16,34.72,60.09,34.94Z"/><path class="cls-4" d="M52.26,34.66a.54.54,0,0,0,0,.22c.32.11,1.14,0,.87-.51S52.35,34.29,52.26,34.66Z"/><path class="cls-4" d="M53.37,33.3h0c-.19,0-.32.07-.33.27a.39.39,0,0,0,.55-.22A.39.39,0,0,0,53.37,33.3Z"/><path class="cls-5" d="M54.42,44.62c-1.17.86,4.81,5.19,8.69,5a11.44,11.44,0,0,0,9.4-6c1-2.15.67-8.23-.61-7.81-.46.15.1,2.22-1.78,5.34-1.66,2.75-4.48,5.46-8.22,5.27C56.79,46.22,55.2,44.05,54.42,44.62Z"/><path class="cls-6" d="M67.24,29.56a.55.55,0,0,0-.48.84c.32.8,2.27,2.1,2.83,1.88s.59-.87-.23-1.5A4.73,4.73,0,0,0,67.24,29.56Z"/><path class="cls-6" d="M68.26,30.63s2.26-2.34,2.9-3.22a39.9,39.9,0,0,0,2.14-4.22s.2-.3.48-.25.2.47.2.47-1.58,3.23-2.22,4.11c-1.3,1.81-3,3.78-3,3.78Z"/><path class="cls-6" d="M72.2,26.22l-3.73-.47-.14.22,1.86.3,1.85.3Z"/><path class="cls-6" d="M64.43,30.43c-3.85,1-9.55-1.77-9.55-1.77s3.8-4.43,7.07-4.77,8.93,2.27,8.93,2.27A13.56,13.56,0,0,1,64.43,30.43Z"/><path class="cls-7" d="M67.28,29.8a.81.81,0,0,0-.09.79,4.09,4.09,0,0,0,1.4,1.11l.09-.7s-.3-.21-.33-.38a.39.39,0,0,1,0-.27Z"/><path class="cls-7" d="M69.62,26.26a30.51,30.51,0,0,0-6.46.06c-3,.43-7.52,1.86-7.46,2.07s4.94-1.64,7.36-1.8,6.73,0,6.73,0Z"/><path class="cls-7" d="M68.1,26.37a3.28,3.28,0,0,1-.63,1.17,8.7,8.7,0,0,0-1.08,1.69,10.44,10.44,0,0,0,1.25-1.57c.36-.53.82-1.27.82-1.27Z"/><path class="cls-7" d="M65.1,26.39a5.29,5.29,0,0,1-.66,1.91c-.66,1.36-.93,1.76-.76,1.79s.65-1,1-1.74.84-2,.84-2Z"/><path class="cls-7" d="M62.18,26.67A3.72,3.72,0,0,1,62,28.09c-.3,1-.66,1.57-.53,1.64s.48-.87.69-1.59.5-1.63.5-1.63Z"/><path class="cls-7" d="M59.05,27.41a2.39,2.39,0,0,1-.16.84c-.18.51-.47,1-.39,1a1.84,1.84,0,0,0,.54-.92l.28-1Z"/><path class="cls-7" d="M68.45,26.29a4.19,4.19,0,0,0-1.13-1.09,3.44,3.44,0,0,0-1.45-.59c-.08.07.82.32,1.15.53a12.23,12.23,0,0,1,1.18,1.14Z"/><path class="cls-7" d="M65.37,26.2A2.91,2.91,0,0,0,64.45,25a4.57,4.57,0,0,0-2.05-.8c-.2.06,1.5.49,1.88.87a4.1,4.1,0,0,1,.69,1.2Z"/><path class="cls-7" d="M62.62,26.51a6.75,6.75,0,0,0-1.39-1.09A5.58,5.58,0,0,0,59.57,25c-.19,0,1.28.33,1.69.62a9.06,9.06,0,0,1,1,1Z"/><path class="cls-7" d="M59.05,27.32s0-.24-.74-.5-1.06-.43-.91-.43a5.09,5.09,0,0,1,.91.24,5.81,5.81,0,0,1,1.07.61Z"/><path class="cls-3" d="M19.12,20.71c-3,2.19-6.91,9.14-2.29,14.85s11.37,6,16.47,2.7a11.5,11.5,0,0,0,1.42-18.14C29.58,15.23,23.62,17.4,19.12,20.71Z"/><path class="cls-4" d="M31.61,19.89h0Z"/><path class="cls-4" d="M30.92,20.62c-.35-.17-.75-.53-.42-.85s.78,0,1.1.12C32,20.29,31.85,21.07,30.92,20.62Z"/><path class="cls-4" d="M31.59,19.89l-.53-.21A.78.78,0,0,1,31.59,19.89Z"/><path class="cls-4" d="M32.55,21.42c-.13-.1-.31-.3-.14-.44a.23.23,0,0,1,.34.07.43.43,0,0,1,.21.29C33,21.63,32.68,21.52,32.55,21.42Z"/><path class="cls-4" d="M30.26,21.24a.35.35,0,0,1,.33,0c.16,0,.35.08.39.21a.11.11,0,0,1,0,.08l.05,0-.05,0c0,.14-.38,0-.51,0S30,21.38,30.26,21.24Z"/><path class="cls-4" d="M31,21.57h0Z"/><path class="cls-4" d="M29.53,20.45c.15.05.32.22.23.36s-.44.09-.56,0C28.69,20.56,29.34,20.34,29.53,20.45Z"/><path class="cls-4" d="M28.9,19.53c.1,0,.29-.06.37,0a.15.15,0,0,1,0,.18c0,.1-.18.2-.25.23s-.92.32-1,.06S28.71,19.56,28.9,19.53Z"/><path class="cls-4" d="M29.73,19c-.15.09-.71.06-.77-.16s.31-.28.45-.26a.5.5,0,0,1,.24.14C29.8,18.8,29.91,18.92,29.73,19Z"/><path class="cls-4" d="M32.45,20.34c-.29-.22,0-.34.22-.3h0c.14,0,.46.14.38.32S32.56,20.42,32.45,20.34Z"/><path class="cls-4" d="M33.67,21.72c-.11-.13-.44-.67-.06-.69a.26.26,0,0,1,.2.1,1.12,1.12,0,0,1,.38.53C34.34,22.16,33.86,21.94,33.67,21.72Z"/><path class="cls-4" d="M31.62,21.87a.8.8,0,0,1,.5,0c.28.08.62.31.67.52.12.52-.79.14-1,.08S31.19,22,31.62,21.87Z"/><path class="cls-4" d="M30.09,22.28c.15,0,.31.17.3.29s-.52.18-.67.11C29.16,22.42,29.9,22.17,30.09,22.28Z"/><path class="cls-4" d="M26.51,19.4a.24.24,0,0,1,.25.1.7.7,0,0,1-1.05,0A.59.59,0,0,1,26.51,19.4Z"/><path class="cls-4" d="M28,20.74c-.31.11-1.16.17-1.23-.28a.76.76,0,0,1,.68-.08C27.7,20.37,28,20.46,28,20.74Z"/><path class="cls-4" d="M27.37,18.44a.44.44,0,0,1,.62-.06.25.25,0,0,1,.15.18A.59.59,0,0,1,27.37,18.44Z"/><path class="cls-4" d="M25.06,20.27c.63,0-.18.81-.53.55S24.81,20.11,25.06,20.27Z"/><path class="cls-4" d="M34,22.86c.2-.15.36,0,.47.18.42.27.92.91.52,1.06S34,23.21,34,22.86Z"/><path class="cls-4" d="M35.14,22c.55.1.29,1-.23.38C34.6,22,34.92,21.92,35.14,22Z"/><path class="cls-4" d="M32.07,23.69a.27.27,0,0,1,.2.25c-.2.14-.74.15-.87-.11S31.89,23.38,32.07,23.69Z"/><path class="cls-4" d="M27.28,22.21l0-.05a.5.5,0,0,1,0,.12s0,.09,0,.11c-.12.3-.73.31-.62-.06S27.13,22.07,27.28,22.21Z"/><path class="cls-4" d="M21.72,21.42c.37-.5,1.12,0,.65.16C22.09,21.78,21.36,21.92,21.72,21.42Z"/><path class="cls-4" d="M34.67,26.21l-.07-.13a.89.89,0,0,1,.39.63c-.21.06-.85-.36-.83-.64S34.48,25.94,34.67,26.21Z"/><path class="cls-4" d="M29,24.8a.14.14,0,0,1-.21,0c-.26,0-.74,0-.54-.31S28.92,24.58,29,24.8Z"/><path class="cls-4" d="M36.83,24.52a.36.36,0,0,1,0,.21c-.32.11-1.13,0-.86-.51S36.74,24.14,36.83,24.52Z"/><path class="cls-4" d="M35.72,23.15h0a.27.27,0,0,1,.33.26.4.4,0,0,1-.56-.21A.37.37,0,0,1,35.72,23.15Z"/><path class="cls-5" d="M34.66,34.47c1.18.86-4.8,5.2-8.69,5.05a11.47,11.47,0,0,1-9.4-6c-1-2.15-.67-8.23.62-7.81.46.15-.1,2.22,1.78,5.35,1.65,2.74,4.48,5.45,8.21,5.26C32.3,36.07,33.89,33.9,34.66,34.47Z"/><path class="cls-6" d="M21.84,19.41a.55.55,0,0,1,.49.84c-.32.8-2.27,2.1-2.83,1.88s-.59-.87.23-1.5A4.86,4.86,0,0,1,21.84,19.41Z"/><path class="cls-6" d="M20.83,20.48s-2.26-2.34-2.91-3.22A42,42,0,0,1,15.78,13s-.2-.3-.47-.25-.2.47-.2.47,1.57,3.23,2.21,4.12c1.3,1.8,3,3.77,3,3.77Z"/><path class="cls-6" d="M16.88,16.08c.14,0,3.74-.47,3.74-.47l.13.21-1.85.3-1.85.31Z"/><path class="cls-6" d="M24.66,20.28c3.85,1,9.55-1.77,9.55-1.77s-3.81-4.43-7.07-4.77S18.21,16,18.21,16A13.42,13.42,0,0,0,24.66,20.28Z"/><path class="cls-7" d="M21.81,19.65a.82.82,0,0,1,.09.79,4.17,4.17,0,0,1-1.41,1.12l-.09-.71s.3-.2.33-.38a.41.41,0,0,0,0-.27Z"/><path class="cls-7" d="M19.47,16.11a30.48,30.48,0,0,1,6.46.06c3,.43,7.52,1.87,7.46,2.07S28.45,16.6,26,16.44s-6.74,0-6.74,0Z"/><path class="cls-7" d="M21,16.22a3.41,3.41,0,0,0,.62,1.18,8.25,8.25,0,0,1,1.09,1.68,10.43,10.43,0,0,1-1.26-1.57c-.35-.52-.81-1.26-.81-1.26Z"/><path class="cls-7" d="M24,16.24a5.23,5.23,0,0,0,.67,1.92c.66,1.36.92,1.75.76,1.78s-.66-1-1-1.74-.85-2-.85-2Z"/><path class="cls-7" d="M26.9,16.52a3.65,3.65,0,0,0,.23,1.42c.3,1,.66,1.57.52,1.64S27.17,18.72,27,18s-.5-1.62-.5-1.62Z"/><path class="cls-7" d="M30,17.26a2.13,2.13,0,0,0,.16.84c.18.52.47,1,.38,1a1.88,1.88,0,0,1-.53-.92l-.28-1Z"/><path class="cls-7" d="M20.63,16.14a4.38,4.38,0,0,1,1.13-1.09,3.61,3.61,0,0,1,1.46-.59c.08.07-.83.33-1.15.54a12.41,12.41,0,0,0-1.18,1.13Z"/><path class="cls-7" d="M23.71,16.05a2.91,2.91,0,0,1,.92-1.23,4.6,4.6,0,0,1,2.06-.8c.19.07-1.5.49-1.88.87a4.1,4.1,0,0,0-.69,1.2Z"/><path class="cls-7" d="M26.47,16.37a6.28,6.28,0,0,1,1.38-1.09,6.1,6.1,0,0,1,1.66-.43c.2,0-1.27.33-1.68.62a9.24,9.24,0,0,0-1,1Z"/><path class="cls-7" d="M30,17.17s.05-.24.73-.5,1.07-.42.92-.43a4.88,4.88,0,0,0-.91.24,5.46,5.46,0,0,0-1.07.61Z"/><path class="cls-3" d="M13.36,33.54c-3,2.2-6.91,9.14-2.29,14.85s11.37,6.06,16.47,2.7A11.48,11.48,0,0,0,29,33C23.82,28.06,17.86,30.23,13.36,33.54Z"/><path class="cls-4" d="M25.85,32.73h0Z"/><path class="cls-4" d="M25.16,33.45c-.35-.17-.75-.53-.42-.85s.78,0,1.1.12C26.27,33.12,26.09,33.9,25.16,33.45Z"/><path class="cls-4" d="M25.83,32.72l-.53-.21A.78.78,0,0,1,25.83,32.72Z"/><path class="cls-4" d="M26.79,34.25c-.13-.1-.31-.3-.14-.44a.23.23,0,0,1,.34.07.43.43,0,0,1,.21.29C27.23,34.46,26.93,34.35,26.79,34.25Z"/><path class="cls-4" d="M24.5,34.07a.35.35,0,0,1,.33,0c.16,0,.35.08.39.21a.11.11,0,0,1,0,.08l.05,0-.05,0c0,.14-.38,0-.51,0S24.24,34.22,24.5,34.07Z"/><path class="cls-4" d="M25.27,34.4l0,0Z"/><path class="cls-4" d="M23.77,33.29c.15,0,.32.21.23.35s-.44.09-.56,0C22.94,33.39,23.58,33.17,23.77,33.29Z"/><path class="cls-4" d="M23.14,32.36c.11,0,.29-.06.37,0a.15.15,0,0,1,0,.18c0,.1-.18.2-.25.23s-.92.32-1,.07S23,32.39,23.14,32.36Z"/><path class="cls-4" d="M24,31.84c-.15.09-.71.07-.77-.16s.31-.28.45-.26a.5.5,0,0,1,.24.14C24,31.63,24.15,31.75,24,31.84Z"/><path class="cls-4" d="M26.69,33.17c-.29-.22,0-.34.22-.3h0c.14,0,.47.14.38.32S26.8,33.25,26.69,33.17Z"/><path class="cls-4" d="M27.91,34.55c-.11-.13-.44-.67-.06-.69a.26.26,0,0,1,.2.1,1.06,1.06,0,0,1,.38.53C28.58,35,28.1,34.77,27.91,34.55Z"/><path class="cls-4" d="M25.86,34.7a.8.8,0,0,1,.5,0,1,1,0,0,1,.67.52c.12.52-.79.15-1,.08S25.44,34.86,25.86,34.7Z"/><path class="cls-4" d="M24.33,35.11c.15,0,.31.17.3.29s-.52.18-.67.11C23.4,35.25,24.14,35,24.33,35.11Z"/><path class="cls-4" d="M20.75,32.23a.23.23,0,0,1,.25.1.7.7,0,0,1-1.05,0A.59.59,0,0,1,20.75,32.23Z"/><path class="cls-4" d="M22.23,33.57c-.32.11-1.17.17-1.24-.28a.77.77,0,0,1,.69-.08C21.94,33.2,22.22,33.29,22.23,33.57Z"/><path class="cls-4" d="M21.61,31.27a.44.44,0,0,1,.62-.06.25.25,0,0,1,.15.18A.59.59,0,0,1,21.61,31.27Z"/><path class="cls-4" d="M19.3,33.1c.63,0-.18.81-.53.55S19.05,32.94,19.3,33.1Z"/><path class="cls-4" d="M28.23,35.69c.2-.15.36,0,.47.18.42.27.93.91.52,1.06S28.24,36,28.23,35.69Z"/><path class="cls-4" d="M29.38,34.87c.55.1.29,1-.22.39C28.84,34.87,29.16,34.75,29.38,34.87Z"/><path class="cls-4" d="M26.31,36.52a.27.27,0,0,1,.2.25c-.2.14-.74.15-.87-.11S26.13,36.21,26.31,36.52Z"/><path class="cls-4" d="M21.52,35l0,0a.43.43,0,0,1,0,.11s0,.09,0,.11c-.12.3-.73.31-.62-.06S21.37,34.9,21.52,35Z"/><path class="cls-4" d="M16,34.26c.37-.51,1.12,0,.65.15C16.33,34.61,15.6,34.75,16,34.26Z"/><path class="cls-4" d="M28.91,39l-.07-.13a.93.93,0,0,1,.4.63c-.22.06-.85-.36-.84-.64S28.72,38.77,28.91,39Z"/><path class="cls-4" d="M23.24,37.63a.15.15,0,0,1-.22,0c-.26,0-.74,0-.54-.31S23.16,37.41,23.24,37.63Z"/><path class="cls-4" d="M31.07,37.35a.38.38,0,0,1,0,.22c-.32.1-1.13,0-.86-.51S31,37,31.07,37.35Z"/><path class="cls-4" d="M30,36h0a.27.27,0,0,1,.33.26.4.4,0,0,1-.56-.21A.45.45,0,0,1,30,36Z"/><path class="cls-5" d="M28.9,47.3c1.18.86-4.8,5.2-8.68,5.05a11.47,11.47,0,0,1-9.41-6c-1-2.14-.67-8.23.62-7.81.46.16-.1,2.22,1.78,5.35,1.65,2.74,4.48,5.45,8.21,5.27C26.54,48.9,28.13,46.73,28.9,47.3Z"/><path class="cls-6" d="M16.08,32.24a.55.55,0,0,1,.49.84c-.32.8-2.27,2.1-2.83,1.88s-.59-.87.23-1.5A4.86,4.86,0,0,1,16.08,32.24Z"/><path class="cls-6" d="M15.07,33.31S12.81,31,12.16,30.09A42,42,0,0,1,10,25.87s-.2-.3-.47-.24-.2.46-.2.46,1.58,3.23,2.21,4.12c1.3,1.8,3,3.77,3,3.77Z"/><path class="cls-6" d="M11.13,28.91c.13,0,3.73-.47,3.73-.47l.13.21-1.85.3-1.85.31Z"/><path class="cls-6" d="M18.9,33.11c3.85,1,9.55-1.77,9.55-1.77s-3.81-4.43-7.07-4.77-8.93,2.28-8.93,2.28A13.44,13.44,0,0,0,18.9,33.11Z"/><path class="cls-7" d="M16.05,32.48a.82.82,0,0,1,.09.79,4.16,4.16,0,0,1-1.4,1.12l-.1-.71s.3-.2.33-.38a.41.41,0,0,0,0-.27Z"/><path class="cls-7" d="M13.71,28.94a30.48,30.48,0,0,1,6.46.06c3,.43,7.52,1.87,7.46,2.07s-4.94-1.64-7.36-1.8-6.74,0-6.74,0Z"/><path class="cls-7" d="M15.23,29.05a3.41,3.41,0,0,0,.62,1.18,8.25,8.25,0,0,1,1.09,1.68,9.93,9.93,0,0,1-1.25-1.57c-.36-.52-.82-1.26-.82-1.26Z"/><path class="cls-7" d="M18.22,29.08A5.23,5.23,0,0,0,18.89,31c.66,1.36.92,1.75.76,1.78s-.66-1-1-1.74-.85-2-.85-2Z"/><path class="cls-7" d="M21.14,29.35a3.65,3.65,0,0,0,.23,1.42c.3,1,.66,1.57.52,1.64s-.48-.86-.68-1.59-.5-1.62-.5-1.62Z"/><path class="cls-7" d="M24.28,30.09a2.13,2.13,0,0,0,.16.84c.18.52.47,1,.38,1a1.82,1.82,0,0,1-.53-.92L24,30Z"/><path class="cls-7" d="M14.87,29A4.38,4.38,0,0,1,16,27.88a3.61,3.61,0,0,1,1.46-.59c.08.07-.83.33-1.15.54A12.41,12.41,0,0,0,15.13,29Z"/><path class="cls-7" d="M18,28.88a2.91,2.91,0,0,1,.92-1.23,4.73,4.73,0,0,1,2.06-.8c.19.07-1.5.49-1.88.87a4.1,4.1,0,0,0-.69,1.2Z"/><path class="cls-7" d="M20.71,29.2a6.55,6.55,0,0,1,1.38-1.09,6.06,6.06,0,0,1,1.67-.43c.19,0-1.28.33-1.69.62a9.24,9.24,0,0,0-1.05,1Z"/><path class="cls-7" d="M24.28,30s0-.24.73-.5,1.07-.42.92-.43a4.88,4.88,0,0,0-.91.24,5.46,5.46,0,0,0-1.07.61Z"/><path class="cls-3" d="M86.08,36.3c3,2.19,6.91,9.14,2.29,14.85S77,57.2,71.9,53.85a11.49,11.49,0,0,1-1.42-18.14C75.62,30.82,81.58,33,86.08,36.3Z"/><path class="cls-4" d="M73.59,35.48h0Z"/><path class="cls-4" d="M74.28,36.2c.35-.16.75-.52.42-.84s-.78,0-1.1.12C73.17,35.88,73.35,36.66,74.28,36.2Z"/><path class="cls-4" d="M73.61,35.48l.53-.21A.78.78,0,0,0,73.61,35.48Z"/><path class="cls-4" d="M72.65,37c.13-.1.31-.3.14-.44a.23.23,0,0,0-.34.07.43.43,0,0,0-.21.29C72.21,37.22,72.51,37.11,72.65,37Z"/><path class="cls-4" d="M74.94,36.83a.35.35,0,0,0-.33,0c-.16,0-.35.08-.39.21a.11.11,0,0,0,0,.08l0,0,0,0c0,.15.38,0,.51,0S75.2,37,74.94,36.83Z"/><path class="cls-4" d="M74.17,37.16h0Z"/><path class="cls-4" d="M75.67,36c-.15.05-.32.22-.23.36s.44.09.56,0C76.5,36.14,75.86,35.93,75.67,36Z"/><path class="cls-4" d="M76.3,35.12c-.11,0-.29-.06-.37,0a.15.15,0,0,0,0,.18c0,.1.18.19.25.23s.92.32,1,.06S76.49,35.15,76.3,35.12Z"/><path class="cls-4" d="M75.47,34.6c.15.09.71.06.77-.16s-.31-.28-.45-.26a.5.5,0,0,0-.24.14C75.4,34.39,75.29,34.51,75.47,34.6Z"/><path class="cls-4" d="M72.75,35.93c.29-.22,0-.34-.22-.3h0c-.14,0-.47.14-.38.32S72.64,36,72.75,35.93Z"/><path class="cls-4" d="M71.53,37.31c.11-.13.44-.67.06-.69a.26.26,0,0,0-.2.1,1.06,1.06,0,0,0-.38.53C70.86,37.75,71.34,37.53,71.53,37.31Z"/><path class="cls-4" d="M73.58,37.46a.74.74,0,0,0-.5,0,1,1,0,0,0-.67.52c-.12.52.79.14,1,.08S74,37.62,73.58,37.46Z"/><path class="cls-4" d="M75.11,37.87c-.15.05-.31.17-.3.29s.52.18.67.11C76,38,75.3,37.76,75.11,37.87Z"/><path class="cls-4" d="M78.69,35a.23.23,0,0,0-.25.1.7.7,0,0,0,1,0A.59.59,0,0,0,78.69,35Z"/><path class="cls-4" d="M77.21,36.33c.32.11,1.17.16,1.24-.28a.77.77,0,0,0-.69-.08C77.5,36,77.22,36.05,77.21,36.33Z"/><path class="cls-4" d="M77.83,34a.44.44,0,0,0-.62-.06.25.25,0,0,0-.15.18A.59.59,0,0,0,77.83,34Z"/><path class="cls-4" d="M80.14,35.86c-.63,0,.18.81.53.55S80.39,35.7,80.14,35.86Z"/><path class="cls-4" d="M71.21,38.45c-.2-.15-.36,0-.47.18-.42.27-.93.91-.52,1.06S71.2,38.8,71.21,38.45Z"/><path class="cls-4" d="M70.06,37.63c-.55.1-.29,1,.22.38C70.6,37.63,70.28,37.51,70.06,37.63Z"/><path class="cls-4" d="M73.13,39.28a.27.27,0,0,0-.2.24c.2.15.74.16.87-.11S73.31,39,73.13,39.28Z"/><path class="cls-4" d="M77.92,37.8l0,0a.5.5,0,0,0,0,.12c0,.05,0,.09,0,.11.12.3.73.31.62-.07S78.07,37.66,77.92,37.8Z"/><path class="cls-4" d="M83.48,37c-.37-.5-1.12,0-.65.16C83.11,37.37,83.84,37.51,83.48,37Z"/><path class="cls-4" d="M70.53,41.8l.07-.13a.93.93,0,0,0-.4.63c.22.06.85-.36.84-.64S70.72,41.53,70.53,41.8Z"/><path class="cls-4" d="M76.2,40.39a.15.15,0,0,0,.22,0c.26,0,.74,0,.54-.31S76.28,40.16,76.2,40.39Z"/><path class="cls-4" d="M68.37,40.1a.41.41,0,0,0,0,.22c.32.11,1.13,0,.86-.51S68.46,39.73,68.37,40.1Z"/><path class="cls-4" d="M69.48,38.74h0a.27.27,0,0,0-.33.26.4.4,0,0,0,.56-.21A.37.37,0,0,0,69.48,38.74Z"/><path class="cls-5" d="M70.54,50.06c-1.18.86,4.8,5.2,8.68,5a11.47,11.47,0,0,0,9.41-6c1-2.15.67-8.23-.62-7.81-.46.15.1,2.22-1.78,5.35-1.65,2.74-4.48,5.45-8.21,5.26C72.9,51.66,71.31,49.49,70.54,50.06Z"/><path class="cls-6" d="M83.36,35a.55.55,0,0,0-.49.84c.32.8,2.27,2.1,2.83,1.88s.59-.87-.23-1.5A4.86,4.86,0,0,0,83.36,35Z"/><path class="cls-6" d="M84.37,36.07s2.26-2.34,2.91-3.22a42,42,0,0,0,2.14-4.22s.2-.3.47-.25.2.47.2.47S88.51,32.08,87.88,33c-1.3,1.8-3,3.77-3,3.77Z"/><path class="cls-6" d="M88.31,31.67c-.13,0-3.73-.48-3.73-.48l-.13.22,1.85.3,1.85.31Z"/><path class="cls-6" d="M80.54,35.87C76.69,36.85,71,34.1,71,34.1s3.81-4.43,7.07-4.77S87,31.6,87,31.6A13.42,13.42,0,0,1,80.54,35.87Z"/><path class="cls-7" d="M83.39,35.24a.82.82,0,0,0-.09.79,4.16,4.16,0,0,0,1.4,1.12l.1-.71s-.3-.2-.33-.38a.41.41,0,0,1,0-.27Z"/><path class="cls-7" d="M85.73,31.7a30.48,30.48,0,0,0-6.46.06c-3,.43-7.52,1.87-7.46,2.07s4.94-1.64,7.36-1.8,6.74,0,6.74,0Z"/><path class="cls-7" d="M84.21,31.81A3.41,3.41,0,0,1,83.59,33a8.25,8.25,0,0,0-1.09,1.68,9.93,9.93,0,0,0,1.25-1.57c.36-.52.82-1.26.82-1.26Z"/><path class="cls-7" d="M81.22,31.83a5.23,5.23,0,0,1-.67,1.92c-.66,1.36-.92,1.75-.76,1.78s.66-1,1-1.74.85-2,.85-2Z"/><path class="cls-7" d="M78.3,32.11a3.65,3.65,0,0,1-.23,1.42c-.3,1-.66,1.57-.52,1.64s.48-.86.68-1.59.5-1.62.5-1.62Z"/><path class="cls-7" d="M75.16,32.85a2.13,2.13,0,0,1-.16.84c-.18.52-.47,1-.38,1a1.88,1.88,0,0,0,.53-.92l.28-1Z"/><path class="cls-7" d="M84.57,31.73a4.38,4.38,0,0,0-1.13-1.09A3.61,3.61,0,0,0,82,30.05c-.08.07.83.33,1.15.54a11.26,11.26,0,0,1,1.18,1.13Z"/><path class="cls-7" d="M81.49,31.64a2.91,2.91,0,0,0-.92-1.23,4.6,4.6,0,0,0-2.06-.8c-.19.07,1.5.49,1.88.87a4.1,4.1,0,0,1,.69,1.2Z"/><path class="cls-7" d="M78.73,32a6.83,6.83,0,0,0-1.38-1.1,6.35,6.35,0,0,0-1.67-.42c-.19,0,1.28.33,1.69.62a9.48,9.48,0,0,1,1,1Z"/><path class="cls-7" d="M75.16,32.76s0-.24-.73-.5-1.07-.42-.92-.43a4.88,4.88,0,0,1,.91.24,5.46,5.46,0,0,1,1.07.61Z"/><path class="cls-3" d="M90.83,46.43c3,2.2,6.91,9.14,2.29,14.85S81.74,67.34,76.65,64a11.47,11.47,0,0,1-1.42-18.13C80.37,41,86.32,43.12,90.83,46.43Z"/><path class="cls-4" d="M78.34,45.62h0Z"/><path class="cls-4" d="M79,46.34c.35-.17.74-.53.41-.85s-.77,0-1.09.12C77.92,46,78.1,46.79,79,46.34Z"/><path class="cls-4" d="M78.35,45.61l.54-.21A.88.88,0,0,0,78.35,45.61Z"/><path class="cls-4" d="M77.4,47.14c.13-.09.31-.3.13-.44s-.25,0-.33.08a.41.41,0,0,0-.22.28C77,47.36,77.26,47.24,77.4,47.14Z"/><path class="cls-4" d="M79.68,47a.35.35,0,0,0-.33,0c-.15,0-.35.09-.38.21a.28.28,0,0,0,0,.08.05.05,0,0,1,0,0l0,0c0,.14.38,0,.5,0S80,47.11,79.68,47Z"/><path class="cls-4" d="M78.92,47.29l0,0Z"/><path class="cls-4" d="M80.42,46.18c-.15,0-.32.21-.24.36s.44.09.57,0C81.25,46.28,80.6,46.07,80.42,46.18Z"/><path class="cls-4" d="M81,45.25c-.1,0-.29-.06-.37,0a.15.15,0,0,0,0,.18c0,.1.18.2.25.23s.91.33,1,.07S81.23,45.28,81,45.25Z"/><path class="cls-4" d="M80.21,44.73c.16.09.72.07.78-.16s-.31-.27-.46-.26a.77.77,0,0,0-.24.14C80.14,44.52,80,44.64,80.21,44.73Z"/><path class="cls-4" d="M77.5,46.06c.29-.22,0-.34-.22-.29h0c-.13,0-.46.15-.37.33S77.39,46.14,77.5,46.06Z"/><path class="cls-4" d="M76.28,47.44c.11-.12.44-.67.06-.69a.3.3,0,0,0-.2.1,1.06,1.06,0,0,0-.38.53C75.61,47.89,76.09,47.66,76.28,47.44Z"/><path class="cls-4" d="M78.33,47.59a.78.78,0,0,0-.51,0,1,1,0,0,0-.66.51c-.13.52.78.15,1,.08S78.75,47.75,78.33,47.59Z"/><path class="cls-4" d="M79.85,48c-.14,0-.3.17-.3.29s.53.18.67.11C80.78,48.14,80.05,47.89,79.85,48Z"/><path class="cls-4" d="M83.44,45.12a.25.25,0,0,0-.25.1.68.68,0,0,0,1,0A.57.57,0,0,0,83.44,45.12Z"/><path class="cls-4" d="M82,46.46c.32.11,1.17.17,1.23-.27a.7.7,0,0,0-.68-.08C82.25,46.09,82,46.18,82,46.46Z"/><path class="cls-4" d="M82.57,44.16A.44.44,0,0,0,82,44.1a.3.3,0,0,0-.15.18A.59.59,0,0,0,82.57,44.16Z"/><path class="cls-4" d="M84.89,46c-.63,0,.18.81.52.55S85.14,45.83,84.89,46Z"/><path class="cls-4" d="M76,48.58c-.19-.15-.35,0-.46.18-.42.27-.93.91-.53,1.06S75.94,48.93,76,48.58Z"/><path class="cls-4" d="M74.8,47.76c-.54.1-.28,1,.23.39C75.35,47.77,75,47.64,74.8,47.76Z"/><path class="cls-4" d="M77.87,49.41a.27.27,0,0,0-.19.25c.2.14.73.15.87-.11S78.05,49.1,77.87,49.41Z"/><path class="cls-4" d="M82.67,47.93l0,0a.23.23,0,0,0,0,.11s0,.1,0,.11c.11.3.73.31.61-.06S82.81,47.79,82.67,47.93Z"/><path class="cls-4" d="M88.22,47.15c-.36-.5-1.12,0-.64.16C87.86,47.51,88.58,47.64,88.22,47.15Z"/><path class="cls-4" d="M75.28,51.94l.07-.14a.92.92,0,0,0-.4.64c.22.05.85-.37.83-.65S75.46,51.66,75.28,51.94Z"/><path class="cls-4" d="M81,50.52a.16.16,0,0,0,.21,0c.26,0,.75,0,.54-.32S81,50.3,81,50.52Z"/><path class="cls-4" d="M73.12,50.24a.51.51,0,0,0,0,.22c.32.11,1.14,0,.87-.51S73.21,49.86,73.12,50.24Z"/><path class="cls-4" d="M74.23,48.88h0a.26.26,0,0,0-.33.26.39.39,0,0,0,.55-.21A.33.33,0,0,0,74.23,48.88Z"/><path class="cls-5" d="M75.28,60.2c-1.17.86,4.81,5.19,8.69,5a11.45,11.45,0,0,0,9.4-6c1-2.14.67-8.23-.61-7.8-.46.15.1,2.21-1.78,5.34-1.66,2.75-4.48,5.45-8.22,5.27C77.65,61.79,76.06,59.63,75.28,60.2Z"/><path class="cls-6" d="M88.1,45.14a.54.54,0,0,0-.48.83c.32.8,2.27,2.1,2.83,1.88s.59-.87-.23-1.49A4.64,4.64,0,0,0,88.1,45.14Z"/><path class="cls-6" d="M89.12,46.21S91.38,43.87,92,43a39.83,39.83,0,0,0,2.14-4.23s.2-.3.48-.24.2.46.2.46-1.58,3.23-2.22,4.12c-1.3,1.81-3,3.77-3,3.77Z"/><path class="cls-6" d="M93.06,41.8c-.14,0-3.73-.47-3.73-.47l-.14.21,1.86.31,1.85.3Z"/><path class="cls-6" d="M85.29,46c-3.86,1-9.55-1.76-9.55-1.76s3.8-4.44,7.07-4.77,8.93,2.27,8.93,2.27A13.5,13.5,0,0,1,85.29,46Z"/><path class="cls-7" d="M88.14,45.37a.82.82,0,0,0-.09.79,4,4,0,0,0,1.4,1.12l.09-.7s-.3-.21-.33-.39a.41.41,0,0,1,0-.27Z"/><path class="cls-7" d="M90.48,41.83a30.51,30.51,0,0,0-6.46.06c-3,.44-7.52,1.87-7.46,2.07s4.94-1.64,7.36-1.8,6.73,0,6.73,0Z"/><path class="cls-7" d="M89,41.94a3.36,3.36,0,0,1-.63,1.18,8.47,8.47,0,0,0-1.08,1.68,10.21,10.21,0,0,0,1.25-1.56c.36-.53.82-1.27.82-1.27Z"/><path class="cls-7" d="M86,42a5.29,5.29,0,0,1-.66,1.91c-.66,1.36-.93,1.75-.76,1.79s.65-1,1-1.75.84-2,.84-2Z"/><path class="cls-7" d="M83,42.24a3.7,3.7,0,0,1-.22,1.42c-.3,1-.66,1.57-.53,1.64s.48-.86.69-1.59.5-1.62.5-1.62Z"/><path class="cls-7" d="M79.91,43a2.39,2.39,0,0,1-.16.84c-.18.52-.47,1-.39,1a1.74,1.74,0,0,0,.54-.92l.28-1Z"/><path class="cls-7" d="M89.31,41.86a4.07,4.07,0,0,0-1.13-1.08,3.51,3.51,0,0,0-1.45-.6c-.08.07.82.33,1.15.54a12.23,12.23,0,0,1,1.18,1.14Z"/><path class="cls-7" d="M86.23,41.77a2.85,2.85,0,0,0-.92-1.22,4.45,4.45,0,0,0-2-.8c-.2.06,1.5.49,1.88.86a4.23,4.23,0,0,1,.69,1.21Z"/><path class="cls-7" d="M83.48,42.09A6.75,6.75,0,0,0,82.09,41a5.58,5.58,0,0,0-1.66-.42c-.2,0,1.28.32,1.69.61a8.84,8.84,0,0,1,1,1Z"/><path class="cls-7" d="M79.91,42.9s0-.25-.74-.5S78.11,42,78.26,42a4.75,4.75,0,0,1,.91.23,6.49,6.49,0,0,1,1.07.61Z"/><path class="cls-3" d="M71.08,47c3,2.19,6.91,9.14,2.29,14.85s-11.37,6-16.47,2.7A11.48,11.48,0,0,1,55.48,46.4C60.62,41.51,66.57,43.68,71.08,47Z"/><path class="cls-4" d="M58.59,46.17h0Z"/><path class="cls-4" d="M59.28,46.89c.35-.17.74-.52.42-.84s-.78,0-1.1.12C58.17,46.57,58.35,47.35,59.28,46.89Z"/><path class="cls-4" d="M58.61,46.17l.53-.21A.78.78,0,0,0,58.61,46.17Z"/><path class="cls-4" d="M57.65,47.7c.13-.1.31-.3.14-.44a.23.23,0,0,0-.34.07.43.43,0,0,0-.21.29C57.21,47.91,57.51,47.8,57.65,47.7Z"/><path class="cls-4" d="M59.94,47.52a.35.35,0,0,0-.33,0c-.16,0-.35.08-.39.21a.11.11,0,0,0,0,.08l0,0,0,0c0,.15.38,0,.51,0S60.2,47.66,59.94,47.52Z"/><path class="cls-4" d="M59.17,47.85h0Z"/><path class="cls-4" d="M60.67,46.73c-.15.05-.32.22-.23.36s.44.09.56,0C61.5,46.83,60.86,46.62,60.67,46.73Z"/><path class="cls-4" d="M61.3,45.81c-.11,0-.29-.06-.37,0a.15.15,0,0,0,0,.18c0,.1.18.19.25.23s.92.32,1,.06S61.48,45.84,61.3,45.81Z"/><path class="cls-4" d="M60.47,45.29c.15.08.71.06.77-.16s-.31-.28-.45-.26a.5.5,0,0,0-.24.14C60.4,45.08,60.29,45.19,60.47,45.29Z"/><path class="cls-4" d="M57.75,46.62c.29-.22,0-.34-.22-.3h0c-.13,0-.46.14-.37.32S57.64,46.7,57.75,46.62Z"/><path class="cls-4" d="M56.53,48c.11-.13.44-.67.06-.69a.26.26,0,0,0-.2.1,1.06,1.06,0,0,0-.38.53C55.86,48.44,56.34,48.21,56.53,48Z"/><path class="cls-4" d="M58.58,48.15a.74.74,0,0,0-.5,0,1,1,0,0,0-.67.52c-.12.52.79.14,1,.08S59,48.31,58.58,48.15Z"/><path class="cls-4" d="M60.1,48.56c-.14,0-.3.17-.29.29s.52.18.66.11C61,48.7,60.3,48.45,60.1,48.56Z"/><path class="cls-4" d="M63.69,45.68a.23.23,0,0,0-.25.1.7.7,0,0,0,1,0A.59.59,0,0,0,63.69,45.68Z"/><path class="cls-4" d="M62.21,47c.32.11,1.17.16,1.23-.28a.75.75,0,0,0-.68-.08C62.5,46.65,62.22,46.74,62.21,47Z"/><path class="cls-4" d="M62.83,44.72a.46.46,0,0,0-.63-.06.26.26,0,0,0-.14.18A.59.59,0,0,0,62.83,44.72Z"/><path class="cls-4" d="M65.14,46.55c-.63,0,.18.81.53.55S65.39,46.38,65.14,46.55Z"/><path class="cls-4" d="M56.21,49.14c-.2-.15-.36,0-.47.18-.42.27-.93.9-.53,1.06S56.2,49.49,56.21,49.14Z"/><path class="cls-4" d="M55.05,48.32c-.54.1-.28,1,.23.38C55.6,48.32,55.28,48.2,55.05,48.32Z"/><path class="cls-4" d="M58.13,50a.27.27,0,0,0-.2.24c.2.15.74.16.87-.11S58.31,49.66,58.13,50Z"/><path class="cls-4" d="M62.92,48.49l0-.05a.52.52,0,0,0,0,.11c0,.06,0,.1,0,.12.11.29.73.31.61-.07S63.07,48.35,62.92,48.49Z"/><path class="cls-4" d="M68.48,47.7c-.37-.5-1.12,0-.65.16C68.11,48.06,68.83,48.2,68.48,47.7Z"/><path class="cls-4" d="M55.53,52.49l.07-.13a.93.93,0,0,0-.4.63c.22.06.85-.36.84-.64S55.71,52.22,55.53,52.49Z"/><path class="cls-4" d="M61.2,51.07a.15.15,0,0,0,.22,0c.26,0,.74,0,.53-.31S61.28,50.85,61.2,51.07Z"/><path class="cls-4" d="M53.37,50.79a.41.41,0,0,0,0,.22c.32.11,1.13,0,.86-.51S53.46,50.42,53.37,50.79Z"/><path class="cls-4" d="M54.48,49.43h0a.27.27,0,0,0-.33.26.39.39,0,0,0,.55-.21A.34.34,0,0,0,54.48,49.43Z"/><path class="cls-5" d="M55.54,60.75c-1.18.86,4.8,5.2,8.68,5a11.44,11.44,0,0,0,9.41-6c1-2.15.66-8.23-.62-7.81-.46.15.1,2.22-1.78,5.35-1.66,2.74-4.48,5.45-8.21,5.26C57.9,62.35,56.31,60.18,55.54,60.75Z"/><path class="cls-6" d="M68.36,45.69a.55.55,0,0,0-.49.84c.32.8,2.27,2.1,2.83,1.88s.59-.87-.23-1.5A4.86,4.86,0,0,0,68.36,45.69Z"/><path class="cls-6" d="M69.37,46.76s2.26-2.34,2.91-3.22a42,42,0,0,0,2.14-4.22s.2-.3.47-.25.2.47.2.47-1.58,3.23-2.22,4.12c-1.29,1.8-3,3.77-3,3.77Z"/><path class="cls-6" d="M73.31,42.36c-.13,0-3.73-.48-3.73-.48l-.13.22,1.85.3,1.85.31Z"/><path class="cls-6" d="M65.54,46.56c-3.85,1-9.55-1.77-9.55-1.77S59.8,40.36,63.06,40,72,42.29,72,42.29A13.42,13.42,0,0,1,65.54,46.56Z"/><path class="cls-7" d="M68.39,45.93a.82.82,0,0,0-.09.79,4.16,4.16,0,0,0,1.4,1.12l.1-.71s-.31-.2-.34-.38a.39.39,0,0,1,0-.27Z"/><path class="cls-7" d="M70.73,42.39a30.51,30.51,0,0,0-6.46.06c-3,.43-7.52,1.87-7.46,2.07s4.94-1.64,7.36-1.8,6.74,0,6.74,0Z"/><path class="cls-7" d="M69.21,42.5a3.36,3.36,0,0,1-.63,1.18,8.47,8.47,0,0,0-1.08,1.68,9.93,9.93,0,0,0,1.25-1.57c.36-.52.82-1.27.82-1.27Z"/><path class="cls-7" d="M66.21,42.52a5,5,0,0,1-.66,1.92c-.66,1.36-.92,1.75-.76,1.78s.66-1,1-1.74.85-2,.85-2Z"/><path class="cls-7" d="M63.3,42.8a3.65,3.65,0,0,1-.23,1.42c-.3,1-.66,1.57-.53,1.64s.49-.86.69-1.59.5-1.62.5-1.62Z"/><path class="cls-7" d="M60.16,43.54a2.13,2.13,0,0,1-.16.84c-.18.52-.47,1-.38,1a1.93,1.93,0,0,0,.53-.92l.28-1Z"/><path class="cls-7" d="M69.57,42.42a4.38,4.38,0,0,0-1.13-1.09A3.46,3.46,0,0,0,67,40.74c-.08.07.83.33,1.15.53a12.23,12.23,0,0,1,1.18,1.14Z"/><path class="cls-7" d="M66.49,42.33a2.88,2.88,0,0,0-.93-1.23,4.57,4.57,0,0,0-2.05-.8c-.2.07,1.5.49,1.88.87a4.1,4.1,0,0,1,.69,1.2Z"/><path class="cls-7" d="M63.73,42.65a6.69,6.69,0,0,0-1.39-1.1,6.29,6.29,0,0,0-1.66-.42c-.19,0,1.28.33,1.69.62a9.06,9.06,0,0,1,1,1Z"/><path class="cls-7" d="M60.16,43.45s0-.24-.74-.5-1.06-.43-.91-.43a4.88,4.88,0,0,1,.91.24,5.46,5.46,0,0,1,1.07.61Z"/><path class="cls-3" d="M52.17,29.19c3,2.19,6.91,9.14,2.29,14.85S43.08,50.09,38,46.74A11.48,11.48,0,0,1,36.57,28.6C41.71,23.71,47.66,25.87,52.17,29.19Z"/><path class="cls-4" d="M39.68,28.37h0Z"/><path class="cls-4" d="M40.37,29.09c.35-.17.74-.53.41-.84s-.77,0-1.09.12C39.26,28.77,39.44,29.55,40.37,29.09Z"/><path class="cls-4" d="M39.69,28.37l.54-.21A.83.83,0,0,0,39.69,28.37Z"/><path class="cls-4" d="M38.74,29.9c.13-.1.31-.3.13-.44a.22.22,0,0,0-.33.07.44.44,0,0,0-.22.29C38.29,30.11,38.6,30,38.74,29.9Z"/><path class="cls-4" d="M41,29.72a.3.3,0,0,0-.33,0c-.15,0-.35.08-.38.21a.25.25,0,0,0,0,.08l0,0,.05,0c0,.15.38,0,.5,0S41.29,29.86,41,29.72Z"/><path class="cls-4" d="M40.26,30.05h0Z"/><path class="cls-4" d="M41.76,28.93c-.15.05-.32.22-.24.36s.44.09.57,0C42.59,29,41.94,28.82,41.76,28.93Z"/><path class="cls-4" d="M42.38,28c-.1,0-.29-.06-.37,0a.15.15,0,0,0,0,.18c0,.1.18.19.25.23s.91.32,1,.06S42.57,28,42.38,28Z"/><path class="cls-4" d="M41.55,27.49c.16.08.72.06.77-.16s-.3-.28-.45-.26a.61.61,0,0,0-.24.14C41.48,27.28,41.37,27.39,41.55,27.49Z"/><path class="cls-4" d="M38.84,28.81c.29-.21,0-.33-.22-.29h0c-.13,0-.46.14-.37.32S38.73,28.9,38.84,28.81Z"/><path class="cls-4" d="M37.62,30.2c.11-.13.44-.67.06-.69a.23.23,0,0,0-.2.1,1.06,1.06,0,0,0-.38.53C37,30.64,37.43,30.41,37.62,30.2Z"/><path class="cls-4" d="M39.67,30.35a.77.77,0,0,0-.51,0,1,1,0,0,0-.66.52c-.13.51.78.14,1,.08S40.09,30.51,39.67,30.35Z"/><path class="cls-4" d="M41.19,30.76c-.14,0-.3.17-.3.29s.53.18.67.11C42.12,30.9,41.39,30.64,41.19,30.76Z"/><path class="cls-4" d="M44.78,27.88a.23.23,0,0,0-.25.1.69.69,0,0,0,1,0A.57.57,0,0,0,44.78,27.88Z"/><path class="cls-4" d="M43.3,29.22c.31.11,1.16.16,1.23-.28a.75.75,0,0,0-.68-.08C43.59,28.85,43.3,28.94,43.3,29.22Z"/><path class="cls-4" d="M43.91,26.92a.44.44,0,0,0-.62-.07.32.32,0,0,0-.15.19A.61.61,0,0,0,43.91,26.92Z"/><path class="cls-4" d="M46.23,28.75c-.63,0,.18.8.52.55S46.47,28.58,46.23,28.75Z"/><path class="cls-4" d="M37.29,31.34c-.19-.15-.35,0-.46.18-.42.27-.93.9-.53,1.06S37.28,31.69,37.29,31.34Z"/><path class="cls-4" d="M36.14,30.51c-.54.11-.28,1,.23.39C36.69,30.52,36.36,30.4,36.14,30.51Z"/><path class="cls-4" d="M39.21,32.17a.26.26,0,0,0-.19.24c.2.15.73.16.87-.11S39.39,31.85,39.21,32.17Z"/><path class="cls-4" d="M44,30.69l0-.05a.26.26,0,0,0,0,.11c0,.06,0,.1,0,.12.11.29.73.3.61-.07S44.15,30.54,44,30.69Z"/><path class="cls-4" d="M49.56,29.9c-.36-.5-1.12,0-.64.16C49.2,30.26,49.92,30.4,49.56,29.9Z"/><path class="cls-4" d="M36.62,34.69l.07-.13a.9.9,0,0,0-.4.63c.22.06.85-.36.83-.65S36.8,34.42,36.62,34.69Z"/><path class="cls-4" d="M42.29,33.27c.08.1.14.09.21,0,.26,0,.75,0,.54-.31S42.36,33.05,42.29,33.27Z"/><path class="cls-4" d="M34.45,33a.53.53,0,0,0,0,.22c.32.11,1.14,0,.87-.51S34.55,32.62,34.45,33Z"/><path class="cls-4" d="M35.57,31.63h0c-.19,0-.32.06-.33.26a.39.39,0,0,0,.55-.22A.39.39,0,0,0,35.57,31.63Z"/><path class="cls-5" d="M36.62,43c-1.17.86,4.81,5.2,8.69,5a11.44,11.44,0,0,0,9.4-6c1-2.15.67-8.23-.61-7.81-.46.15.1,2.22-1.78,5.35C50.66,42.28,47.84,45,44.1,44.8,39,44.55,37.4,42.38,36.62,43Z"/><path class="cls-6" d="M49.44,27.89a.55.55,0,0,0-.48.84c.32.8,2.27,2.1,2.83,1.88s.58-.87-.23-1.5A4.83,4.83,0,0,0,49.44,27.89Z"/><path class="cls-6" d="M50.46,29s2.26-2.34,2.9-3.22a39.9,39.9,0,0,0,2.14-4.22s.2-.3.48-.25.2.47.2.47S54.6,25,54,25.86c-1.3,1.8-3,3.77-3,3.77Z"/><path class="cls-6" d="M54.4,24.55l-3.73-.47-.14.22,1.86.3,1.85.31Z"/><path class="cls-6" d="M46.63,28.76c-3.86,1-9.55-1.77-9.55-1.77s3.8-4.43,7.07-4.77,8.92,2.27,8.92,2.27A13.43,13.43,0,0,1,46.63,28.76Z"/><path class="cls-7" d="M49.48,28.13a.82.82,0,0,0-.09.79A4.16,4.16,0,0,0,50.79,30l.09-.71s-.3-.2-.33-.38a.39.39,0,0,1,0-.27Z"/><path class="cls-7" d="M51.82,24.59a30.51,30.51,0,0,0-6.46.06c-3,.43-7.52,1.87-7.47,2.07s5-1.64,7.37-1.8,6.73,0,6.73,0Z"/><path class="cls-7" d="M50.3,24.7a3.28,3.28,0,0,1-.63,1.17,8.7,8.7,0,0,0-1.08,1.69A9.93,9.93,0,0,0,49.84,26c.36-.53.81-1.27.81-1.27Z"/><path class="cls-7" d="M47.3,24.72a5.29,5.29,0,0,1-.66,1.92c-.66,1.36-.93,1.75-.76,1.78s.65-1,1-1.74.84-2,.84-2Z"/><path class="cls-7" d="M44.38,25a3.72,3.72,0,0,1-.22,1.42c-.3,1-.66,1.57-.53,1.64s.48-.86.69-1.59.5-1.62.5-1.62Z"/><path class="cls-7" d="M41.25,25.74a2.39,2.39,0,0,1-.16.84c-.18.51-.47,1-.39,1a1.84,1.84,0,0,0,.54-.92c.13-.46.27-1,.27-1Z"/><path class="cls-7" d="M50.65,24.62a4.19,4.19,0,0,0-1.13-1.09,3.44,3.44,0,0,0-1.45-.59c-.08.07.82.32,1.15.53a12.23,12.23,0,0,1,1.18,1.14Z"/><path class="cls-7" d="M47.57,24.53a2.91,2.91,0,0,0-.92-1.23,4.57,4.57,0,0,0-2-.8c-.2.06,1.5.49,1.88.87a4.1,4.1,0,0,1,.69,1.2Z"/><path class="cls-7" d="M44.82,24.85a6.69,6.69,0,0,0-1.39-1.1,6.29,6.29,0,0,0-1.66-.42c-.2,0,1.28.33,1.69.62a9.06,9.06,0,0,1,1,1Z"/><path class="cls-7" d="M41.24,25.65s0-.24-.73-.5-1.06-.43-.91-.43a5.09,5.09,0,0,1,.91.24,5.81,5.81,0,0,1,1.07.61Z"/><path class="cls-3" d="M25.68,44.88c-3,2.2-6.91,9.14-2.29,14.86s11.38,6.05,16.47,2.69A11.47,11.47,0,0,0,41.28,44.3C36.14,39.4,30.19,41.57,25.68,44.88Z"/><path class="cls-4" d="M38.17,44.07h0Z"/><path class="cls-4" d="M37.48,44.79c-.35-.17-.74-.53-.41-.85s.77.05,1.09.12C38.59,44.46,38.41,45.24,37.48,44.79Z"/><path class="cls-4" d="M38.16,44.06l-.54-.21A.88.88,0,0,1,38.16,44.06Z"/><path class="cls-4" d="M39.11,45.59c-.13-.09-.31-.29-.13-.44s.25,0,.33.08a.41.41,0,0,1,.22.28C39.56,45.81,39.25,45.69,39.11,45.59Z"/><path class="cls-4" d="M36.83,45.41a.35.35,0,0,1,.33,0c.15,0,.35.09.38.21a.31.31,0,0,1,0,.09l0,0-.05,0c0,.14-.38,0-.5,0S36.56,45.56,36.83,45.41Z"/><path class="cls-4" d="M37.59,45.75h0Z"/><path class="cls-4" d="M36.09,44.63c.15,0,.32.21.24.36s-.44.09-.57,0C35.26,44.73,35.91,44.52,36.09,44.63Z"/><path class="cls-4" d="M35.47,43.7c.1,0,.29-.06.37,0a.15.15,0,0,1,0,.18c0,.1-.18.2-.25.23s-.91.33-1,.07S35.28,43.73,35.47,43.7Z"/><path class="cls-4" d="M36.3,43.19c-.16.08-.72.06-.77-.17s.3-.27.45-.25a.57.57,0,0,1,.24.13C36.37,43,36.48,43.09,36.3,43.19Z"/><path class="cls-4" d="M39,44.51c-.29-.22,0-.34.22-.29h0c.13,0,.46.15.37.33S39.13,44.59,39,44.51Z"/><path class="cls-4" d="M40.23,45.89c-.11-.12-.44-.67-.06-.69a.3.3,0,0,1,.2.1,1.12,1.12,0,0,1,.39.54C40.9,46.34,40.42,46.11,40.23,45.89Z"/><path class="cls-4" d="M38.18,46.05a.71.71,0,0,1,.51,0,1,1,0,0,1,.66.51c.13.52-.78.15-1,.08S37.76,46.2,38.18,46.05Z"/><path class="cls-4" d="M36.66,46.45c.14,0,.3.17.3.29s-.53.18-.67.11C35.73,46.59,36.46,46.34,36.66,46.45Z"/><path class="cls-4" d="M33.07,43.57a.25.25,0,0,1,.25.1.68.68,0,0,1-1,0A.57.57,0,0,1,33.07,43.57Z"/><path class="cls-4" d="M34.55,44.91c-.31.11-1.16.17-1.23-.27a.72.72,0,0,1,.68-.08C34.27,44.54,34.55,44.63,34.55,44.91Z"/><path class="cls-4" d="M33.94,42.61a.44.44,0,0,1,.62-.06.3.3,0,0,1,.15.18A.59.59,0,0,1,33.94,42.61Z"/><path class="cls-4" d="M31.62,44.44c.63,0-.18.81-.52.55S31.38,44.28,31.62,44.44Z"/><path class="cls-4" d="M40.56,47c.19-.15.35,0,.46.18.43.27.93.91.53,1.06S40.57,47.38,40.56,47Z"/><path class="cls-4" d="M41.71,46.21c.54.1.28,1-.23.39C41.16,46.22,41.49,46.09,41.71,46.21Z"/><path class="cls-4" d="M38.64,47.86a.27.27,0,0,1,.19.25c-.2.14-.73.16-.87-.11S38.46,47.55,38.64,47.86Z"/><path class="cls-4" d="M33.84,46.38l0,0a.23.23,0,0,1,0,.11s0,.1,0,.11c-.11.3-.73.31-.61-.06S33.7,46.24,33.84,46.38Z"/><path class="cls-4" d="M28.29,45.6c.36-.5,1.12,0,.64.16C28.65,46,27.93,46.09,28.29,45.6Z"/><path class="cls-4" d="M41.23,50.39l-.07-.14a.92.92,0,0,1,.4.64c-.22,0-.85-.37-.83-.65S41.05,50.12,41.23,50.39Z"/><path class="cls-4" d="M35.56,49a.16.16,0,0,1-.21.05c-.26,0-.75,0-.54-.32S35.49,48.75,35.56,49Z"/><path class="cls-4" d="M43.4,48.69a.51.51,0,0,1,0,.22c-.32.11-1.14,0-.87-.51S43.3,48.31,43.4,48.69Z"/><path class="cls-4" d="M42.28,47.33h0a.26.26,0,0,1,.33.26.39.39,0,0,1-.55-.21A.33.33,0,0,1,42.28,47.33Z"/><path class="cls-5" d="M41.23,58.65c1.17.86-4.81,5.19-8.69,5a11.45,11.45,0,0,1-9.4-6c-1-2.14-.67-8.23.61-7.8.46.15-.1,2.21,1.78,5.34C27.19,58,30,60.68,33.75,60.5,38.86,60.24,40.45,58.08,41.23,58.65Z"/><path class="cls-6" d="M28.41,43.59a.54.54,0,0,1,.48.83c-.32.8-2.27,2.1-2.83,1.88s-.58-.87.23-1.49A4.64,4.64,0,0,1,28.41,43.59Z"/><path class="cls-6" d="M27.39,44.66s-2.26-2.34-2.9-3.22a39.83,39.83,0,0,1-2.14-4.23.55.55,0,0,0-.48-.24c-.28.05-.2.47-.2.47s1.58,3.22,2.22,4.11c1.3,1.81,3,3.77,3,3.77Z"/><path class="cls-6" d="M23.45,40.25c.14,0,3.73-.47,3.73-.47l.14.21-1.86.31-1.85.3Z"/><path class="cls-6" d="M31.22,44.45c3.86,1,9.55-1.76,9.55-1.76S37,38.25,33.7,37.92s-8.92,2.27-8.92,2.27A13.44,13.44,0,0,0,31.22,44.45Z"/><path class="cls-7" d="M28.37,43.82a.82.82,0,0,1,.09.79,4,4,0,0,1-1.4,1.12L27,45s.3-.21.33-.39a.41.41,0,0,0,0-.27Z"/><path class="cls-7" d="M26,40.28a30.4,30.4,0,0,1,6.45.06c3,.44,7.52,1.87,7.47,2.07s-5-1.64-7.37-1.8-6.73,0-6.73,0Z"/><path class="cls-7" d="M27.55,40.39a3.36,3.36,0,0,0,.63,1.18,8.47,8.47,0,0,1,1.08,1.68A10.21,10.21,0,0,1,28,41.69c-.36-.53-.81-1.27-.81-1.27Z"/><path class="cls-7" d="M30.55,40.42a5.29,5.29,0,0,0,.66,1.91c.66,1.36.93,1.76.76,1.79s-.65-1-1-1.75-.84-2-.84-2Z"/><path class="cls-7" d="M33.47,40.69a3.7,3.7,0,0,0,.22,1.42c.3,1,.66,1.58.53,1.64s-.48-.86-.69-1.59-.5-1.62-.5-1.62Z"/><path class="cls-7" d="M36.6,41.43a2.36,2.36,0,0,0,.16.84c.18.52.47,1,.39,1a1.75,1.75,0,0,1-.54-.91c-.13-.47-.27-1-.27-1Z"/><path class="cls-7" d="M27.2,40.31a4.07,4.07,0,0,1,1.13-1.08,3.48,3.48,0,0,1,1.46-.6c.07.07-.83.33-1.16.54a12.23,12.23,0,0,0-1.18,1.14Z"/><path class="cls-7" d="M30.28,40.22A2.85,2.85,0,0,1,31.2,39a4.45,4.45,0,0,1,2.05-.8c.2.06-1.5.49-1.88.86a4.23,4.23,0,0,0-.69,1.21Z"/><path class="cls-7" d="M33,40.54a6.75,6.75,0,0,1,1.39-1.09A5.58,5.58,0,0,1,36.08,39c.2,0-1.28.32-1.69.61a9.8,9.8,0,0,0-1,1Z"/><path class="cls-7" d="M36.61,41.35s0-.25.73-.5,1.06-.43.91-.43a4.75,4.75,0,0,0-.91.23,6.49,6.49,0,0,0-1.07.61Z"/><path class="cls-3" d="M54.67,47c3,2.19,6.91,9.14,2.29,14.85s-11.37,6-16.47,2.7A11.48,11.48,0,0,1,39.07,46.4C44.21,41.51,50.16,43.68,54.67,47Z"/><path class="cls-4" d="M42.18,46.17h0Z"/><path class="cls-4" d="M42.87,46.89c.35-.17.74-.52.42-.84s-.78,0-1.1.12C41.76,46.57,41.94,47.35,42.87,46.89Z"/><path class="cls-4" d="M42.2,46.17l.53-.21A.78.78,0,0,0,42.2,46.17Z"/><path class="cls-4" d="M41.24,47.7c.13-.1.31-.3.14-.44a.23.23,0,0,0-.34.07.43.43,0,0,0-.21.29C40.8,47.91,41.1,47.8,41.24,47.7Z"/><path class="cls-4" d="M43.53,47.52a.35.35,0,0,0-.33,0c-.16,0-.35.08-.39.21a.11.11,0,0,0,0,.08l-.05,0,.05,0c0,.15.38,0,.51,0S43.79,47.66,43.53,47.52Z"/><path class="cls-4" d="M42.76,47.85h0Z"/><path class="cls-4" d="M44.26,46.73c-.15.05-.32.22-.23.36s.44.09.56,0C45.09,46.83,44.45,46.62,44.26,46.73Z"/><path class="cls-4" d="M44.89,45.81c-.11,0-.29-.06-.37,0a.15.15,0,0,0,0,.18c0,.1.18.19.25.23s.92.32,1,.06S45.07,45.84,44.89,45.81Z"/><path class="cls-4" d="M44.06,45.29c.15.08.71.06.77-.16s-.31-.28-.45-.26a.5.5,0,0,0-.24.14C44,45.08,43.88,45.19,44.06,45.29Z"/><path class="cls-4" d="M41.34,46.62c.29-.22,0-.34-.22-.3h0c-.14,0-.47.14-.38.32S41.23,46.7,41.34,46.62Z"/><path class="cls-4" d="M40.12,48c.11-.13.44-.67.06-.69a.26.26,0,0,0-.2.1,1.06,1.06,0,0,0-.38.53C39.45,48.44,39.93,48.21,40.12,48Z"/><path class="cls-4" d="M42.17,48.15a.74.74,0,0,0-.5,0,1,1,0,0,0-.67.52c-.12.52.79.14,1,.08S42.59,48.31,42.17,48.15Z"/><path class="cls-4" d="M43.69,48.56c-.14,0-.3.17-.29.29s.52.18.66.11C44.62,48.7,43.89,48.45,43.69,48.56Z"/><path class="cls-4" d="M47.28,45.68a.23.23,0,0,0-.25.1.7.7,0,0,0,1,0A.59.59,0,0,0,47.28,45.68Z"/><path class="cls-4" d="M45.8,47c.32.11,1.17.16,1.23-.28a.75.75,0,0,0-.68-.08C46.09,46.65,45.81,46.74,45.8,47Z"/><path class="cls-4" d="M46.42,44.72a.46.46,0,0,0-.63-.06.26.26,0,0,0-.14.18A.59.59,0,0,0,46.42,44.72Z"/><path class="cls-4" d="M48.73,46.55c-.63,0,.18.81.53.55S49,46.38,48.73,46.55Z"/><path class="cls-4" d="M39.8,49.14c-.2-.15-.36,0-.47.18-.42.27-.93.9-.53,1.06S39.79,49.49,39.8,49.14Z"/><path class="cls-4" d="M38.64,48.32c-.54.1-.28,1,.23.38C39.19,48.32,38.87,48.2,38.64,48.32Z"/><path class="cls-4" d="M41.72,50a.27.27,0,0,0-.2.24c.2.15.74.16.87-.11S41.9,49.66,41.72,50Z"/><path class="cls-4" d="M46.51,48.49l0-.05a.52.52,0,0,0,0,.11c0,.06,0,.1,0,.12.11.29.73.31.62-.07S46.66,48.35,46.51,48.49Z"/><path class="cls-4" d="M52.07,47.7c-.37-.5-1.12,0-.65.16C51.7,48.06,52.42,48.2,52.07,47.7Z"/><path class="cls-4" d="M39.12,52.49l.07-.13a.93.93,0,0,0-.4.63c.22.06.85-.36.84-.64S39.3,52.22,39.12,52.49Z"/><path class="cls-4" d="M44.79,51.07a.15.15,0,0,0,.22,0c.26,0,.74,0,.53-.31S44.87,50.85,44.79,51.07Z"/><path class="cls-4" d="M37,50.79a.41.41,0,0,0,0,.22c.32.11,1.13,0,.86-.51S37.05,50.42,37,50.79Z"/><path class="cls-4" d="M38.07,49.43h0a.27.27,0,0,0-.33.26.39.39,0,0,0,.55-.21A.34.34,0,0,0,38.07,49.43Z"/><path class="cls-5" d="M39.13,60.75c-1.18.86,4.8,5.2,8.68,5a11.44,11.44,0,0,0,9.41-6c1-2.15.66-8.23-.62-7.81-.46.15.1,2.22-1.78,5.35-1.65,2.74-4.48,5.45-8.21,5.26C41.49,62.35,39.9,60.18,39.13,60.75Z"/><path class="cls-6" d="M52,45.69a.55.55,0,0,0-.49.84c.32.8,2.27,2.1,2.83,1.88s.59-.87-.23-1.5A4.86,4.86,0,0,0,52,45.69Z"/><path class="cls-6" d="M53,46.76s2.26-2.34,2.91-3.22A42,42,0,0,0,58,39.32s.2-.3.47-.25.2.47.2.47-1.58,3.23-2.22,4.12c-1.29,1.8-3,3.77-3,3.77Z"/><path class="cls-6" d="M56.9,42.36c-.13,0-3.73-.48-3.73-.48L53,42.1l1.85.3,1.85.31Z"/><path class="cls-6" d="M49.13,46.56c-3.85,1-9.55-1.77-9.55-1.77s3.81-4.43,7.07-4.77,8.93,2.27,8.93,2.27A13.42,13.42,0,0,1,49.13,46.56Z"/><path class="cls-7" d="M52,45.93a.82.82,0,0,0-.09.79,4.16,4.16,0,0,0,1.4,1.12l.1-.71s-.31-.2-.34-.38a.39.39,0,0,1,0-.27Z"/><path class="cls-7" d="M54.32,42.39a30.51,30.51,0,0,0-6.46.06c-3,.43-7.52,1.87-7.46,2.07s4.94-1.64,7.36-1.8,6.74,0,6.74,0Z"/><path class="cls-7" d="M52.8,42.5a3.36,3.36,0,0,1-.63,1.18,8.47,8.47,0,0,0-1.08,1.68,9.93,9.93,0,0,0,1.25-1.57c.36-.52.82-1.27.82-1.27Z"/><path class="cls-7" d="M49.8,42.52a5,5,0,0,1-.66,1.92c-.66,1.36-.92,1.75-.76,1.78s.66-1,1-1.74.85-2,.85-2Z"/><path class="cls-7" d="M46.89,42.8a3.65,3.65,0,0,1-.23,1.42c-.3,1-.66,1.57-.53,1.64s.49-.86.69-1.59.5-1.62.5-1.62Z"/><path class="cls-7" d="M43.75,43.54a2.13,2.13,0,0,1-.16.84c-.18.52-.47,1-.38,1a1.93,1.93,0,0,0,.53-.92l.28-1Z"/><path class="cls-7" d="M53.16,42.42A4.38,4.38,0,0,0,52,41.33a3.46,3.46,0,0,0-1.46-.59c-.08.07.83.33,1.15.53a12.23,12.23,0,0,1,1.18,1.14Z"/><path class="cls-7" d="M50.08,42.33a2.88,2.88,0,0,0-.93-1.23,4.57,4.57,0,0,0-2-.8c-.2.07,1.5.49,1.88.87a4.1,4.1,0,0,1,.69,1.2Z"/><path class="cls-7" d="M47.32,42.65a6.69,6.69,0,0,0-1.39-1.1,6.29,6.29,0,0,0-1.66-.42c-.19,0,1.28.33,1.69.62a9.06,9.06,0,0,1,1,1Z"/><path class="cls-7" d="M43.75,43.45s0-.24-.73-.5-1.07-.43-.92-.43a4.88,4.88,0,0,1,.91.24,5.46,5.46,0,0,1,1.07.61Z"/><path class="cls-3" d="M8.45,46.63c-3,2.2-6.91,9.14-2.29,14.86s11.37,6.05,16.46,2.69a11.48,11.48,0,0,0,1.43-18.13C18.9,41.15,13,43.32,8.45,46.63Z"/><path class="cls-4" d="M20.94,45.82h0Z"/><path class="cls-4" d="M20.24,46.54c-.34-.17-.74-.53-.41-.85s.78.05,1.09.12C21.36,46.21,21.18,47,20.24,46.54Z"/><path class="cls-4" d="M20.92,45.81l-.53-.21A.85.85,0,0,1,20.92,45.81Z"/><path class="cls-4" d="M21.88,47.34c-.14-.09-.31-.29-.14-.44a.22.22,0,0,1,.33.08.41.41,0,0,1,.22.28C22.32,47.56,22,47.44,21.88,47.34Z"/><path class="cls-4" d="M19.59,47.16a.35.35,0,0,1,.33,0c.16,0,.35.09.39.21s0,.06,0,.08l0,0,0,0c0,.14-.38,0-.51,0S19.32,47.31,19.59,47.16Z"/><path class="cls-4" d="M20.35,47.5h0Z"/><path class="cls-4" d="M18.86,46.38c.15,0,.32.21.23.36s-.44.09-.56,0C18,46.48,18.67,46.27,18.86,46.38Z"/><path class="cls-4" d="M18.23,45.45c.1,0,.29-.06.37,0a.15.15,0,0,1,0,.18c0,.1-.18.2-.25.23s-.92.33-1,.07S18,45.48,18.23,45.45Z"/><path class="cls-4" d="M19.06,44.94c-.15.08-.71.06-.77-.17s.3-.27.45-.25a.52.52,0,0,1,.24.13C19.13,44.73,19.24,44.84,19.06,44.94Z"/><path class="cls-4" d="M21.78,46.26c-.29-.22,0-.34.22-.29h0c.13,0,.46.15.38.33S21.89,46.34,21.78,46.26Z"/><path class="cls-4" d="M23,47.64c-.11-.12-.44-.67-.06-.69a.26.26,0,0,1,.19.1,1.06,1.06,0,0,1,.39.54C23.67,48.09,23.19,47.86,23,47.64Z"/><path class="cls-4" d="M21,47.8a.68.68,0,0,1,.5,0,1,1,0,0,1,.67.51c.12.52-.79.15-1,.08S20.52,48,21,47.8Z"/><path class="cls-4" d="M19.42,48.2c.15,0,.3.17.3.29s-.52.18-.67.11C18.49,48.34,19.22,48.09,19.42,48.2Z"/><path class="cls-4" d="M15.84,45.32a.27.27,0,0,1,.25.1.69.69,0,0,1-1.05,0A.58.58,0,0,1,15.84,45.32Z"/><path class="cls-4" d="M17.31,46.66c-.31.11-1.16.17-1.23-.27a.72.72,0,0,1,.68-.08C17,46.29,17.31,46.38,17.31,46.66Z"/><path class="cls-4" d="M16.7,44.36a.44.44,0,0,1,.62-.06.3.3,0,0,1,.15.18A.59.59,0,0,1,16.7,44.36Z"/><path class="cls-4" d="M14.39,46.19c.63,0-.18.81-.53.55S14.14,46,14.39,46.19Z"/><path class="cls-4" d="M23.32,48.78c.19-.15.36,0,.47.18.42.27.92.91.52,1.06S23.33,49.13,23.32,48.78Z"/><path class="cls-4" d="M24.47,48c.54.1.29,1-.23.39C23.92,48,24.25,47.84,24.47,48Z"/><path class="cls-4" d="M21.4,49.61a.28.28,0,0,1,.2.25c-.2.14-.74.16-.87-.11S21.22,49.3,21.4,49.61Z"/><path class="cls-4" d="M16.61,48.13l0,0a.43.43,0,0,1,0,.11s0,.1,0,.11c-.12.3-.74.31-.62-.06S16.46,48,16.61,48.13Z"/><path class="cls-4" d="M11.05,47.35c.37-.5,1.12,0,.65.16C11.42,47.71,10.69,47.84,11.05,47.35Z"/><path class="cls-4" d="M24,52.14,23.92,52a.89.89,0,0,1,.4.64c-.21,0-.85-.37-.83-.65S23.81,51.87,24,52.14Z"/><path class="cls-4" d="M18.32,50.72a.16.16,0,0,1-.21.05c-.26,0-.74,0-.54-.32S18.25,50.5,18.32,50.72Z"/><path class="cls-4" d="M26.16,50.44a.4.4,0,0,1,0,.22c-.32.11-1.13,0-.86-.51S26.07,50.06,26.16,50.44Z"/><path class="cls-4" d="M25,49.08h0a.27.27,0,0,1,.33.26.4.4,0,0,1-.56-.21A.34.34,0,0,1,25,49.08Z"/><path class="cls-5" d="M24,60.4c1.18.86-4.8,5.19-8.69,5a11.45,11.45,0,0,1-9.4-6c-1-2.14-.67-8.23.62-7.8C7,51.79,6.41,53.85,8.3,57c1.65,2.75,4.47,5.45,8.21,5.27C21.63,62,23.21,59.83,24,60.4Z"/><path class="cls-6" d="M11.17,45.34a.54.54,0,0,1,.49.83c-.33.8-2.27,2.1-2.83,1.88s-.59-.87.23-1.49A4.61,4.61,0,0,1,11.17,45.34Z"/><path class="cls-6" d="M10.16,46.41S7.9,44.07,7.25,43.19A41.89,41.89,0,0,1,5.11,39a.55.55,0,0,0-.48-.24c-.27.05-.19.47-.19.47S6,42.41,6.65,43.3c1.3,1.81,3,3.77,3,3.77Z"/><path class="cls-6" d="M6.21,42c.14,0,3.73-.47,3.73-.47l.14.21-1.85.31-1.85.3Z"/><path class="cls-6" d="M14,46.2c3.85,1,9.55-1.76,9.55-1.76S19.73,40,16.47,39.67s-8.93,2.27-8.93,2.27A13.44,13.44,0,0,0,14,46.2Z"/><path class="cls-7" d="M11.14,45.57a.8.8,0,0,1,.08.79c-.27.55-1.4,1.12-1.4,1.12l-.09-.7s.3-.21.33-.39a.41.41,0,0,0,0-.27Z"/><path class="cls-7" d="M8.8,42a30.48,30.48,0,0,1,6.46.06c3,.44,7.52,1.87,7.46,2.07s-4.94-1.64-7.36-1.8-6.74,0-6.74,0Z"/><path class="cls-7" d="M10.32,42.14a3.41,3.41,0,0,0,.62,1.18A8.25,8.25,0,0,1,12,45a10.76,10.76,0,0,1-1.26-1.56c-.35-.53-.81-1.27-.81-1.27Z"/><path class="cls-7" d="M13.31,42.17A5.29,5.29,0,0,0,14,44.08c.67,1.36.93,1.76.77,1.79s-.66-1-1-1.75-.85-2-.85-2Z"/><path class="cls-7" d="M16.23,42.44a3.63,3.63,0,0,0,.23,1.42c.3,1,.66,1.58.52,1.64s-.48-.86-.68-1.59-.5-1.62-.5-1.62Z"/><path class="cls-7" d="M19.36,43.18a2.36,2.36,0,0,0,.16.84c.19.52.48,1,.39,1a1.83,1.83,0,0,1-.53-.91l-.28-1Z"/><path class="cls-7" d="M10,42.06A4.25,4.25,0,0,1,11.09,41a3.53,3.53,0,0,1,1.46-.6c.08.07-.83.33-1.15.54a12.62,12.62,0,0,0-1.19,1.14Z"/><path class="cls-7" d="M13,42A2.85,2.85,0,0,1,14,40.75,4.44,4.44,0,0,1,16,40c.19.06-1.5.49-1.88.86a4.36,4.36,0,0,0-.7,1.21Z"/><path class="cls-7" d="M15.8,42.29a6.6,6.6,0,0,1,1.38-1.09,5.66,5.66,0,0,1,1.66-.42c.2,0-1.27.32-1.68.61a9.25,9.25,0,0,0-1.05,1Z"/><path class="cls-7" d="M19.37,43.1s.05-.25.73-.5,1.07-.43.92-.43a4.57,4.57,0,0,0-.91.23A6.29,6.29,0,0,0,19,43Z"/><path class="cls-8" d="M8.58,64.8c1.21,4.8,4.31,16.83,6.17,21.38,2.36,5.73,1.26,8.24,9,9,6.68.67,20.45.36,26.27.21,5.82.15,19.6.46,26.28-.21,7.78-.79,6.68-3.3,9-9,1.87-4.55,5.22-18.45,6.42-23.25Z"/><path class="cls-9" d="M94.06,60.58c-.63-2.28-4.19-1.78-5.9-1.7-.58,0-1.17,0-1.75,0-2.93.06-5.85.09-8.77.13-3.31,0-42.61.84-45.88,1L22,60.33c-2.87.1-5.73.2-8.6.28-.57,0-1.15,0-1.72,0-1.68,0-5.2-.33-5.71,1.93A2.32,2.32,0,0,0,7.72,65.4a14.82,14.82,0,0,0,3.39-.1C14.38,65.1,17.67,65,21,65l9.94-.24L41,64.5c1.23,0,7.54-.08,9.09-.11l8.48-.21,10.28-.26L79,63.7c3.34-.08,6.69-.18,10-.12a15.22,15.22,0,0,0,3.44-.06A2.37,2.37,0,0,0,94.06,60.58Z"/><path class="cls-10" d="M13.09,65.15c-.84-.13-1.05-1.36-1.12-2A4.39,4.39,0,0,1,12.43,61a0,0,0,0,0-.07,0,3.25,3.25,0,0,0-.53,2.72,4,4,0,0,0,.17.63A2.62,2.62,0,0,1,12,61a.06.06,0,0,0-.09-.07,2.88,2.88,0,0,0,.52,4.14h.06a.79.79,0,0,0,.6.25C13.19,65.33,13.18,65.16,13.09,65.15Z"/><path class="cls-10" d="M13.22,65a3.39,3.39,0,0,1-.1-4,.06.06,0,0,0-.09-.08,3.08,3.08,0,0,0-.79,2.07,2.88,2.88,0,0,0,.87,2.15C13.18,65.11,13.27,65,13.22,65Z"/><path class="cls-10" d="M23.13,65a5.29,5.29,0,0,1-.8-4.76.06.06,0,1,0-.11-.05c-.69,1.46-.73,4,.77,5A.1.1,0,0,0,23.13,65Z"/><path class="cls-10" d="M24,65a5.25,5.25,0,0,1-.77-4.67s-.06-.08-.08,0a4,4,0,0,0-.39,2.44c0,.15.06.32.09.49-.07-.15-.15-.31-.21-.47a3.71,3.71,0,0,1,.11-2.46.07.07,0,0,0-.12,0c-.63,1.38-.63,3.39.7,4.4l.05,0a1.93,1.93,0,0,0,.45.49C23.9,65.23,24.05,65.1,24,65Z"/><path class="cls-10" d="M36.33,64.51a6.78,6.78,0,0,1-.93-2.28,4.29,4.29,0,0,1,.21-1.95c0-.13.2-.35.17-.51a.07.07,0,0,0-.07-.06c-.52.1-.71,1.65-.7,2.06a3.32,3.32,0,0,0,1.22,2.83C36.28,64.63,36.37,64.58,36.33,64.51Z"/><path class="cls-10" d="M37.38,64.48c-.85-1.33-1.58-3-1-4.6,0-.08-.07-.11-.11-.05-.72,1.3-.48,4,.95,4.8C37.36,64.69,37.43,64.55,37.38,64.48Z"/><path class="cls-10" d="M51,61.4c-.09-.65,0-1.25,0-1.88,0-.09-.11-.09-.14,0a4.27,4.27,0,0,0,.55,4,.07.07,0,0,0,.11-.07A11.35,11.35,0,0,1,51,61.4Z"/><path class="cls-10" d="M50.94,64.28a8.93,8.93,0,0,1-.86-4.71c0-.1-.12-.11-.14,0a6,6,0,0,0,0,2.6,4.9,4.9,0,0,0,.79,2.25A.12.12,0,0,0,50.94,64.28Z"/><path class="cls-10" d="M50.51,64.47a9.68,9.68,0,0,1-.81-2.28,12,12,0,0,1,0-2.54.08.08,0,1,0-.15,0c-.29,1.51-.52,3.85.77,5C50.4,64.73,50.57,64.59,50.51,64.47Z"/><path class="cls-10" d="M59.51,60.57c0-.34.07-1.15-.16-1.41,0,0-.09,0-.09,0a6.74,6.74,0,0,0,.43,3.67c0,.06.13,0,.12,0C59.72,62.07,59.57,61.33,59.51,60.57Z"/><path class="cls-10" d="M60.51,61.52c0-.78.05-1.56,0-2.33a.08.08,0,0,0-.16,0A9.28,9.28,0,0,0,60.65,64c0,.06.11,0,.1,0C60.7,63.18,60.56,62.35,60.51,61.52Z"/><path class="cls-10" d="M59.92,61.32c-.06-.65,0-1.31,0-2,0-.08-.13-.07-.15,0a6.23,6.23,0,0,0,.44,4.15s.1,0,.09,0A13,13,0,0,1,59.92,61.32Z"/><path class="cls-10" d="M68.36,61.46a15.62,15.62,0,0,0,0-2.37c0-.09-.16-.1-.17,0-.13,1.51-.5,3.72.56,5a.12.12,0,0,0,.2-.12A10.29,10.29,0,0,1,68.36,61.46Z"/><path class="cls-10" d="M69.13,61.69c-.07-.84.09-1.65.08-2.48,0-.11-.15-.09-.17,0-.33,1.37-.73,3.79.43,4.91.07.07.22,0,.2-.12A12.93,12.93,0,0,1,69.13,61.69Z"/><path class="cls-10" d="M81.2,61.71c0-.87-.21-2.4-1-2.94a.06.06,0,0,0-.09.07,9.11,9.11,0,0,1,.62,2.62c.08.74-.28,1.53-.17,2.22,0,.07.1.14.17.1C81.33,63.45,81.21,62.28,81.2,61.71Z"/><path class="cls-10" d="M81.25,58.85a.1.1,0,0,0-.18.1,7,7,0,0,1,.38,4.49c0,.07.06.14.11.07A4.14,4.14,0,0,0,81.25,58.85Z"/><path class="cls-10" d="M91.55,60.55a2.78,2.78,0,0,0-.77-2c-.09-.07-.2,0-.14.14.87,1.32.61,3.21.42,4.67a.15.15,0,0,0,.29.08A7.09,7.09,0,0,0,91.55,60.55Z"/><path class="cls-10" d="M90.44,58.58a.09.09,0,0,0-.16.09A12.12,12.12,0,0,1,90.74,60a10.43,10.43,0,0,1,.12,1.48.15.15,0,0,0,.3,0A3.81,3.81,0,0,0,90.44,58.58Z"/><path class="cls-11" d="M94.06,60.58a2,2,0,0,0-.71-1.07A2.09,2.09,0,0,1,92,60.62a15.46,15.46,0,0,1-3.4.05c-3.3-.05-6.61,0-9.91.12l-10,.22-10.15.25-8.37.2c-1.53,0-7.75.09-9,.11l-10,.22-9.8.23c-3.24.08-6.49.14-9.72.34a14.94,14.94,0,0,1-3.34.1,2.05,2.05,0,0,1-1.47-1.13A2,2,0,0,0,6,62.59,2.32,2.32,0,0,0,7.72,65.4a14.82,14.82,0,0,0,3.39-.1C14.38,65.1,17.67,65,21,65l9.94-.24L41,64.5c1.23,0,7.54-.08,9.09-.11l8.48-.21,10.28-.26L79,63.7c3.34-.08,6.69-.18,10-.12a15.22,15.22,0,0,0,3.44-.06A2.37,2.37,0,0,0,94.06,60.58Z"/><path class="cls-11" d="M81.11,62.75,70.24,63l-11,.27-9.11.22c-1.67,0-8.44.1-9.77.12l-10.84.24-10.68.26c-3.52.09-7,.15-10.57.37-.57,0-1.16.11-1.75.15a2,2,0,0,0,1.25.77,14.82,14.82,0,0,0,3.39-.1C14.38,65.1,17.67,65,21,65l9.94-.24L41,64.5c1.23,0,7.54-.08,9.09-.11l8.48-.21,10.28-.26L79,63.7c3.34-.08,6.69-.18,10-.12a15.22,15.22,0,0,0,3.44-.06,2,2,0,0,0,1.22-.82c-.6,0-1.2-.07-1.78-.07C88.3,62.57,84.71,62.67,81.11,62.75Z"/><g class="cls-12"><path class="cls-13" d="M8.77,61.12a3.06,3.06,0,0,0-1.27.14.16.16,0,0,0,0,.32,4.19,4.19,0,0,0,.5,0,6.48,6.48,0,0,0,.77-.09A.17.17,0,0,0,8.77,61.12Z"/><path class="cls-13" d="M10.11,60.94a1.1,1.1,0,0,0-.54,0,.16.16,0,0,0,0,.31,1.1,1.1,0,0,0,.54,0A.16.16,0,0,0,10.11,60.94Z"/><path class="cls-13" d="M21.45,60.73a26.2,26.2,0,0,0-4.06,0,20.78,20.78,0,0,0-3.7.21.06.06,0,0,0,0,.11,18.28,18.28,0,0,0,3.47.07A35.87,35.87,0,0,0,21.44,61,.14.14,0,0,0,21.45,60.73Z"/><path class="cls-13" d="M33.56,60.54a21.18,21.18,0,0,0-4.21.05c-1.69,0-3.36,0-5,.15-.07,0-.07.12,0,.13,1.56.09,3.14.17,4.71.19a21.5,21.5,0,0,0,4.54-.18A.17.17,0,0,0,33.56,60.54Z"/><path class="cls-13" d="M48.84,60a37.69,37.69,0,0,0-5.52.06,32.49,32.49,0,0,0-5.41.3c-.08,0-.09.15,0,.15,1.72,0,3.4.1,5.12,0a46.88,46.88,0,0,0,5.81-.21A.18.18,0,0,0,48.84,60Z"/><path class="cls-13" d="M57.73,59.91a24.87,24.87,0,0,0-2.59,0c-.89,0-1.81.16-2.69.14a.07.07,0,0,0,0,.14,12.16,12.16,0,0,0,2.34.07,22.48,22.48,0,0,0,3,0A.15.15,0,0,0,57.73,59.91Z"/><path class="cls-13" d="M67.39,59.84c-1.85-.34-3.75.06-5.6,0-.07,0-.08.08,0,.1a14.53,14.53,0,0,0,2.8.14,13.89,13.89,0,0,0,2.81,0A.12.12,0,0,0,67.39,59.84Z"/><path class="cls-13" d="M78.09,59.67c-2.74-.3-5.49,0-8.24-.08-.18,0-.22.27,0,.29a23.73,23.73,0,0,0,3.77.13c1.5-.1,3,0,4.51-.15A.1.1,0,0,0,78.09,59.67Z"/><path class="cls-13" d="M80.08,59.62a1.63,1.63,0,0,0-1.15-.13c-.16,0-.18.29,0,.3a4.93,4.93,0,0,0,1.08.09C80.12,59.86,80.2,59.69,80.08,59.62Z"/><path class="cls-13" d="M89,59.18a30.18,30.18,0,0,0-6.23.16s-.05.08,0,.08a32.42,32.42,0,0,0,6.23,0A.11.11,0,0,0,89,59.18Z"/><path class="cls-13" d="M92.8,59.32a1.51,1.51,0,0,0-.93-.19c-.14,0-.13.22,0,.24.29,0,.55.14.84.16C92.82,59.53,92.91,59.39,92.8,59.32Z"/></g><path class="cls-10" d="M14,74.72a21.05,21.05,0,0,1-.83-3.09,23.13,23.13,0,0,1-.09-3c0-.12-.16-.1-.19,0a10.19,10.19,0,0,0,.8,6.22C13.73,75,14,74.91,14,74.72Z"/><path class="cls-10" d="M16.44,75.47a11.68,11.68,0,0,1-1.17-3,21.74,21.74,0,0,1-.18-3.13c0-.16-.27-.16-.29,0-.17,2.21-.18,4.53,1.35,6.32C16.27,75.77,16.53,75.64,16.44,75.47Z"/><path class="cls-10" d="M18.52,74.45a17.92,17.92,0,0,1-.84-2.6,16.78,16.78,0,0,1-.15-3,.14.14,0,0,0-.28,0,8.51,8.51,0,0,0,1,5.77C18.36,74.76,18.58,74.61,18.52,74.45Z"/><path class="cls-10" d="M18.7,89.34a17.89,17.89,0,0,1-1.26-5,.08.08,0,1,0-.15,0,10.77,10.77,0,0,0,1.21,5.07C18.57,89.57,18.76,89.46,18.7,89.34Z"/><path class="cls-10" d="M20.9,88.88a18,18,0,0,1-1-3.11,9.16,9.16,0,0,0-.46-2.34.12.12,0,0,0-.22.06c.16.87.22,1.77.37,2.65A9.71,9.71,0,0,0,20.62,89,.15.15,0,0,0,20.9,88.88Z"/><path class="cls-10" d="M23.3,89.41A17.36,17.36,0,0,1,22,83.9c0-.17-.31-.18-.32,0a11.2,11.2,0,0,0,1.24,5.66C23.06,89.77,23.4,89.64,23.3,89.41Z"/><path class="cls-10" d="M24.79,82.47a10.34,10.34,0,0,1-1.15-2.89,32.81,32.81,0,0,1-.44-3.43c0-.12-.21-.13-.22,0a10.09,10.09,0,0,0,1.53,6.48C24.62,82.78,24.88,82.63,24.79,82.47Z"/><path class="cls-10" d="M26.6,82.81a25.48,25.48,0,0,1-1-3.29c-.2-1-.26-2.1-.44-3.15a.12.12,0,0,0-.24,0c.26,2.3.37,4.41,1.46,6.5A.12.12,0,0,0,26.6,82.81Z"/><path class="cls-10" d="M28.79,81.63a29.18,29.18,0,0,1-1-4.09.11.11,0,0,0-.21,0,9.51,9.51,0,0,0,1,4.21A.15.15,0,0,0,28.79,81.63Z"/><path class="cls-10" d="M29,76.43a22.06,22.06,0,0,1-.67-2.54c-.15-1-.25-2.1-.38-3.14a.13.13,0,0,0-.26,0,15.07,15.07,0,0,0,1,5.73C28.75,76.65,29,76.6,29,76.43Z"/><path class="cls-10" d="M31.59,76.48a15.67,15.67,0,0,1-1.08-3.06A18.84,18.84,0,0,0,30,70.85a.09.09,0,0,0-.18.05c.37,2,.3,4,1.47,5.76A.18.18,0,0,0,31.59,76.48Z"/><path class="cls-10" d="M32.73,70.83a.07.07,0,0,0-.14,0,43.12,43.12,0,0,0,1,5.15c0,.14.28.08.25-.07C33.58,74.24,33.21,72.5,32.73,70.83Z"/><path class="cls-10" d="M43.1,80.25a.1.1,0,0,0-.19,0,11,11,0,0,0,.2,5.13c0,.18.36.1.32-.09A16.54,16.54,0,0,1,43.1,80.25Z"/><path class="cls-10" d="M44.85,80.47c0-.18-.32-.18-.33,0a15.61,15.61,0,0,0,.61,5.81.15.15,0,0,0,.29-.08A44,44,0,0,1,44.85,80.47Z"/><path class="cls-10" d="M48.85,85.54a22,22,0,0,1-1.15-5.68c0-.18-.27-.13-.27,0a12.79,12.79,0,0,0,1.11,5.77A.17.17,0,0,0,48.85,85.54Z"/><path class="cls-10" d="M50.24,74c0-.09-.17-.09-.17,0a26.94,26.94,0,0,0,.33,6.53.14.14,0,0,0,.28,0A64.3,64.3,0,0,1,50.24,74Z"/><path class="cls-10" d="M52.73,73.43c0-.15-.2-.17-.23,0a13.72,13.72,0,0,0-.09,6.34.14.14,0,0,0,.27,0A29.21,29.21,0,0,1,52.73,73.43Z"/><path class="cls-10" d="M55.11,76.33c-.08-1.16,0-2.33,0-3.48,0-.15-.23-.14-.25,0a13.55,13.55,0,0,0,.66,7.25A.15.15,0,0,0,55.8,80,35.76,35.76,0,0,1,55.11,76.33Z"/><path class="cls-10" d="M66.1,81c.1-1.17.39-2.34.56-3.51a.11.11,0,0,0-.22,0c-.58,2.45-1.19,4.82-.57,7.32a.2.2,0,0,0,.39-.05A17.25,17.25,0,0,1,66.1,81Z"/><path class="cls-10" d="M68.5,78.61a.14.14,0,0,0-.28,0A18.06,18.06,0,0,0,68,85.2a.15.15,0,0,0,.3,0A41,41,0,0,1,68.5,78.61Z"/><path class="cls-10" d="M71.46,80.7a26.8,26.8,0,0,0,.14-3.1c0-.13-.21-.1-.21,0,0,1.12-.29,2.26-.36,3.38a13.39,13.39,0,0,0,.15,3.35.16.16,0,0,0,.31,0C71.45,83.11,71.42,81.91,71.46,80.7Z"/><path class="cls-10" d="M81.44,77.91a16.32,16.32,0,0,0-.88,6.61.12.12,0,0,0,.24,0c.08-1.1.07-2.2.21-3.3s.54-2.18.6-3.27C81.61,77.86,81.47,77.81,81.44,77.91Z"/><path class="cls-10" d="M83.59,78.25c-.37,2.37-1,4.69-.74,7.12,0,.21.37.22.38,0a36.28,36.28,0,0,1,.2-3.76c.12-1.11.39-2.21.42-3.33A.13.13,0,0,0,83.59,78.25Z"/><path class="cls-10" d="M72.56,88.54c0-.78.16-1.56.18-2.34a.08.08,0,0,0-.15,0,6.36,6.36,0,0,0-.34,2.34,9.43,9.43,0,0,0,.23,2.75c0,.18.32.15.29,0A14,14,0,0,1,72.56,88.54Z"/><path class="cls-10" d="M74.89,86.39c0-.11-.14-.14-.19,0a8,8,0,0,0-.07,5.07.14.14,0,0,0,.27-.07A12.5,12.5,0,0,1,74.89,86.39Z"/><path class="cls-10" d="M77.39,86.46a.11.11,0,0,0-.22,0,17.2,17.2,0,0,0,.1,4.7.18.18,0,0,0,.35,0C77.44,89.57,77.59,88,77.39,86.46Z"/><path class="cls-10" d="M74.31,73.31c.07-1,.31-1.9.47-2.86a.08.08,0,0,0-.16,0c-.49,2.09-1,4.08-.29,6.2,0,.12.24.06.22-.06A13.75,13.75,0,0,1,74.31,73.31Z"/><path class="cls-10" d="M77.19,73.35c0-.88.18-1.75.18-2.64,0-.13-.23-.13-.23,0-.15,2.12-.67,4.16,0,6.26.05.19.34.1.32-.09A19.76,19.76,0,0,1,77.19,73.35Z"/><path class="cls-10" d="M80.3,70.81c0-.17-.26-.21-.27,0-.11,2.08-.76,4.14-.37,6.24A.15.15,0,0,0,80,77,60.43,60.43,0,0,1,80.3,70.81Z"/><path class="cls-10" d="M31.92,65.75a19.22,19.22,0,0,1-5.35.46c-.09,0-.1.12,0,.14A9.84,9.84,0,0,0,32,66.07C32.18,66,32.11,65.71,31.92,65.75Z"/><path class="cls-10" d="M32.72,67.6c-1.91.38-4.16,1-6.12.51-.07,0-.1.1,0,.13a6.28,6.28,0,0,0,2.66.33,9.64,9.64,0,0,0,3.57-.68C33,67.82,32.89,67.56,32.72,67.6Z"/><path class="cls-10" d="M26.3,70.58a13.61,13.61,0,0,1-5.05.1c-.07,0-.11.1,0,.13a7.29,7.29,0,0,0,5.16.09C26.55,70.82,26.49,70.54,26.3,70.58Z"/><path class="cls-10" d="M26.63,73.09a21.23,21.23,0,0,1-5.1.14c-.09,0-.13.13,0,.15a9.81,9.81,0,0,0,5.24.08C27,73.4,26.84,73.06,26.63,73.09Z"/><path class="cls-10" d="M26.45,75.31a17.74,17.74,0,0,1-4.77-.12c-.09,0-.12.12,0,.15a7.28,7.28,0,0,0,4.89.24C26.69,75.53,26.61,75.3,26.45,75.31Z"/><path class="cls-10" d="M35.28,77a23,23,0,0,1-6.13.73c-.2,0-.25.3,0,.32a14,14,0,0,0,6.27-.7A.18.18,0,0,0,35.28,77Z"/><path class="cls-10" d="M34.73,79.88a18.73,18.73,0,0,1-5.49.24.14.14,0,0,0-.07.26,9.83,9.83,0,0,0,5.66-.13A.19.19,0,0,0,34.73,79.88Z"/><path class="cls-10" d="M34.55,82.58c-1.5.31-3.34,1-4.88.68a.12.12,0,0,0-.06.22c1.48.51,3.62,0,5-.49A.22.22,0,0,0,34.55,82.58Z"/><path class="cls-10" d="M29.4,84.4c-1.88,0-3.76.34-5.64-.08-.07,0-.1.09,0,.12a9.79,9.79,0,0,0,5.67.29C29.56,84.69,29.61,84.4,29.4,84.4Z"/><path class="cls-10" d="M29.9,86.07a21.23,21.23,0,0,1-5.34.2c-.13,0-.15.17,0,.2a12.7,12.7,0,0,0,5.42,0A.21.21,0,0,0,29.9,86.07Z"/><path class="cls-10" d="M29.85,87.87a16,16,0,0,1-5.38.45c-.11,0-.16.16,0,.19a9.09,9.09,0,0,0,5.5-.36C30.08,88.1,30,87.85,29.85,87.87Z"/><path class="cls-10" d="M20.25,76.93c-2,0-4,.48-6,.23-.12,0-.14.16,0,.19a12.8,12.8,0,0,0,6.12-.15C20.49,77.16,20.39,76.93,20.25,76.93Z"/><path class="cls-10" d="M20,79.71c-1.55-.21-3.1-.18-4.65-.32a.1.1,0,0,0,0,.2A31.37,31.37,0,0,0,20,80C20.16,80,20.2,79.73,20,79.71Z"/><path class="cls-10" d="M20.37,82.08a26.63,26.63,0,0,1-4.64.12.13.13,0,0,0,0,.26,9.11,9.11,0,0,0,4.75-.13A.13.13,0,0,0,20.37,82.08Z"/><path class="cls-10" d="M47.74,75.26c-2.16.07-4.27.15-6.43,0a.08.08,0,0,0,0,.16,17.43,17.43,0,0,0,6.48,0A.13.13,0,0,0,47.74,75.26Z"/><path class="cls-10" d="M49,77.45c-1.38,0-2.76.18-4.15.23a33.56,33.56,0,0,1-3.87-.2.09.09,0,0,0,0,.18,22.39,22.39,0,0,0,8.08.08A.15.15,0,0,0,49,77.45Z"/><path class="cls-10" d="M48.2,79.36a39,39,0,0,1-7.4.14.08.08,0,0,0,0,.16,13.44,13.44,0,0,0,3.23.21,23.84,23.84,0,0,0,4.22-.31A.1.1,0,0,0,48.2,79.36Z"/><path class="cls-10" d="M55,68.18c-1,0-1.89.1-2.85.08s-1.81-.16-2.69-.26a.06.06,0,0,0,0,.12,13.08,13.08,0,0,0,5.56.36C55.11,68.44,55.13,68.18,55,68.18Z"/><path class="cls-10" d="M54.82,69.79a21.65,21.65,0,0,1-5.63-.21c-.08,0-.12.12,0,.16a11.13,11.13,0,0,0,5.7.28A.12.12,0,0,0,54.82,69.79Z"/><path class="cls-10" d="M55.3,71.26a19.61,19.61,0,0,1-7.44.26c-.09,0-.1.1,0,.12a14.09,14.09,0,0,0,7.54-.09C55.54,71.5,55.46,71.23,55.3,71.26Z"/><path class="cls-10" d="M72.87,71.5a21.92,21.92,0,0,1-4,.16,25.57,25.57,0,0,1-3.48-.6.1.1,0,0,0-.06.19,12.78,12.78,0,0,0,7.56.57A.16.16,0,0,0,72.87,71.5Z"/><path class="cls-10" d="M72.09,73.83A20.54,20.54,0,0,1,66,73.57c-.1,0-.14.15,0,.18a11.27,11.27,0,0,0,6.14.42A.17.17,0,0,0,72.09,73.83Z"/><path class="cls-10" d="M73.16,75.89a15.33,15.33,0,0,1-7.67.36c-.18,0-.2.23,0,.27a12.2,12.2,0,0,0,7.85-.31C73.5,76.12,73.37,75.83,73.16,75.89Z"/><path class="cls-10" d="M87.5,70.63a38.5,38.5,0,0,1-5.26-.21c-.12,0-.14.16,0,.19A19.06,19.06,0,0,0,87.5,71C87.7,71,87.7,70.63,87.5,70.63Z"/><path class="cls-10" d="M86.34,72.72a14.52,14.52,0,0,1-4,.07.11.11,0,0,0,0,.22,9.9,9.9,0,0,0,4,0A.16.16,0,0,0,86.34,72.72Z"/><path class="cls-10" d="M85.86,75.46a10.55,10.55,0,0,1-4.43.33c-.11,0-.16.15-.05.19a6.3,6.3,0,0,0,4.56-.21C86.1,75.7,86,75.43,85.86,75.46Z"/><path class="cls-10" d="M79.05,77.92a23.7,23.7,0,0,1-5.19,0c-.1,0-.15.15,0,.18a9.16,9.16,0,0,0,2.45.26,15.73,15.73,0,0,0,2.83-.1A.18.18,0,0,0,79.05,77.92Z"/><path class="cls-10" d="M78.58,81a31.44,31.44,0,0,1-5.57-.5c-.15,0-.21.21-.07.25a17,17,0,0,0,5.64.6C78.78,81.38,78.78,81,78.58,81Z"/><path class="cls-10" d="M78.43,84.13A16.85,16.85,0,0,1,73,83.75a.13.13,0,0,0-.07.25,11.67,11.67,0,0,0,5.56.49A.18.18,0,0,0,78.43,84.13Z"/><g class="cls-14"><path class="cls-8" d="M54.67,68.63c.25,0,.5.37.24.58a3.7,3.7,0,0,1-2.15.49,7.84,7.84,0,0,1-2.84-.46.3.3,0,0,1-.14-.1c-.34-.13-.16-.69.24-.63a16.43,16.43,0,0,0,2.8.22A14.34,14.34,0,0,1,54.67,68.63Z"/><path class="cls-8" d="M52.08,80.09a.31.31,0,0,1-.13.36.33.33,0,0,1-.6.06,8,8,0,0,1-.8-4.15c0-.69,0-2.18.77-2.49a.37.37,0,0,1,.33.09c.38.33.26,1.1.2,1.54A10.77,10.77,0,0,0,52.08,80.09Z"/><path class="cls-8" d="M50.14,71.42c-.53,0-1.42-.34-1.58-.93-.21-.23.1-.67.44-.5,1.61.78,3.64.57,5.36.42.39,0,.45.56.09.66A12.77,12.77,0,0,1,50.14,71.42Z"/><path class="cls-8" d="M53.72,73.52a.34.34,0,0,1,.56.15,3,3,0,0,1-.18,1.86,7.78,7.78,0,0,0,0,2.68c.14.65.41,1.22.57,1.85a.34.34,0,0,1-.5.38c-1.06-.47-1.37-2.09-1.4-3.12S52.8,74.33,53.72,73.52Z"/><path class="cls-8" d="M32.4,72.68c.06.7.13,1.39.24,2.09a1.89,1.89,0,0,1-.06,1,.34.34,0,0,1-.49.2c-1-.64-1.11-2.35-1.15-3.49s0-2,.68-1.88S32.35,72.15,32.4,72.68Z"/><path class="cls-8" d="M33.67,79.57a9.37,9.37,0,0,1-4-.17.34.34,0,0,1-.18-.1.62.62,0,0,1-.14-.14.43.43,0,0,1,.12-.54.1.1,0,0,1,.05,0,.27.27,0,0,1,.28-.16,16.08,16.08,0,0,0,2.86-.14c.84-.09,1.58-.38,2.39-.5a.35.35,0,0,1,.43.32C35.56,79,34.4,79.41,33.67,79.57Z"/><path class="cls-8" d="M35,81.09c-.72,2-4.05,1.7-5.34.57a.33.33,0,0,1,.05-.51.31.31,0,0,1,.4-.27,6.55,6.55,0,0,0,2.82.14c.45-.06,1.48-.59,1.91-.31A.34.34,0,0,1,35,81.09Z"/><path class="cls-8" d="M28.49,73.08c0-.66-.2-1.63.33-2.13a.33.33,0,0,1,.41,0c.57.38.4,1.47.46,2,.1.92.64,1.92.48,2.83a.29.29,0,0,1-.28.24.26.26,0,0,1-.36-.07A5.05,5.05,0,0,1,28.49,73.08Z"/><path class="cls-8" d="M27,66.64a9.4,9.4,0,0,0,2.85.21,9.42,9.42,0,0,1,1.83-.11.34.34,0,0,1,.15.56,4.48,4.48,0,0,1-3.22.71,3,3,0,0,1-1.93-.74.32.32,0,0,1-.06-.15A.33.33,0,0,1,27,66.64Z"/><path class="cls-8" d="M27.51,82.27c-1.54.42-1.77-4.42-1.68-5.12a.35.35,0,0,1,.33-.31.32.32,0,0,1,.51-.06,1.31,1.31,0,0,1,.39.91,13.79,13.79,0,0,0,.46,2.47C27.66,80.58,28.32,82.05,27.51,82.27Z"/><path class="cls-8" d="M26.74,74.39a1.51,1.51,0,0,1-1,.7,4.25,4.25,0,0,1-4.12-.7.32.32,0,0,1,.16-.55.27.27,0,0,1,.28-.06,11.39,11.39,0,0,0,4.43.11C26.71,73.85,26.85,74.19,26.74,74.39Z"/><path class="cls-8" d="M26.2,72.23a4.92,4.92,0,0,1-4.56.46c-.29-.15-.77-.6-.3-.88h0a.37.37,0,0,1,.42-.33,27.67,27.67,0,0,0,4.27.14A.33.33,0,0,1,26.2,72.23Z"/><path class="cls-8" d="M20.38,77.77a.34.34,0,0,1,.34.33c.1,1.3-2.17,1.18-2.94,1.14-.6,0-2.51,0-2.83-.77a.34.34,0,0,1,.28-.6C17,78.28,18.66,77.76,20.38,77.77Z"/><path class="cls-8" d="M15.48,69.84a.18.18,0,0,1,.06-.09,1.17,1.17,0,0,1,.15-.27.68.68,0,0,1,.43-.31.25.25,0,0,1,.39.11,3.27,3.27,0,0,1,.14,1.21A18.43,18.43,0,0,0,17,72.57c.09.36.5,1.38.12,1.7s-.62.13-.88-.18A4.53,4.53,0,0,1,15.48,69.84Z"/><path class="cls-8" d="M13.92,74.09c-.36-.34-.42-1.18-.5-1.64a7.28,7.28,0,0,1,0-2.55.14.14,0,0,1,0-.06.91.91,0,0,1,.44-.71c.73-.38.71,2.88.72,3.12S14.82,75,13.92,74.09Z"/><path class="cls-8" d="M19.87,89a.34.34,0,0,1-.57.24c-.92-.93-1.12-2.43-1.31-3.74,0-.17-.06-.35-.08-.53,0,0,0,0,0-.08v-.06c0-.51.1-.92.57-.92.74,0,.69,1.25.76,1.7A15.46,15.46,0,0,1,19.87,89Z"/><path class="cls-8" d="M19.91,81.48c-1.24.79-5,.7-5.6-.94a.31.31,0,0,1,.14-.36c0-.22.13-.47.4-.36,1.55.61,3.16.26,4.76.49C20.28,80.4,20.58,81.06,19.91,81.48Z"/><path class="cls-8" d="M21.35,88.82a6.64,6.64,0,0,1-1.2-4.17,2.93,2.93,0,0,1,.11-.9c.11-.39.45-.89.93-.61s.3,1,.3,1.51a10,10,0,0,0,.18,2.62,5.41,5.41,0,0,1,.25,1.31A.34.34,0,0,1,21.35,88.82Z"/><path class="cls-8" d="M23.83,77.06a.49.49,0,0,1,.69-.13,2.63,2.63,0,0,1,.31,1.47c.07,1,.39,2,.51,2.95.05.34-.47.44-.62.17A7.11,7.11,0,0,1,23.83,77.06Z"/><path class="cls-8" d="M24.52,84.83c1.23.62,2.7.16,4,.31.23,0,.45.27.29.51-.49.7-1.44.54-2.2.54s-1.95,0-2.48-.76a.26.26,0,0,1,0-.08C23.86,85.12,24.17,84.66,24.52,84.83Z"/><path class="cls-8" d="M24.07,87.14a.34.34,0,0,1,.42-.41l.19.07a.33.33,0,0,1,.22,0,21,21,0,0,0,3.8.3.34.34,0,0,1,.24.57c-.69.7-2.07.54-3,.48S24.38,88,24.07,87.14Z"/><path class="cls-8" d="M70.38,84c0,.34.06.91-.44.91s-.85-.79-1-1.14a5.67,5.67,0,0,1-.29-3.16,7.19,7.19,0,0,1,.43-1.76c.17-.44.51-1.36,1.14-1.29a.49.49,0,0,1,.38.34,2.24,2.24,0,0,1,.13.92l-.09.54c-.08.54-.15,1.09-.21,1.63a13.57,13.57,0,0,0-.09,1.91C70.32,83.3,70.35,83.67,70.38,84Z"/><path class="cls-8" d="M69.15,76.25c-1.08,0-3.5,0-3.7-1.49a.36.36,0,0,1,.12-.34.31.31,0,0,1,.41-.28,10.34,10.34,0,0,0,3.66.65,11.11,11.11,0,0,1,2.21-.18.32.32,0,0,1,.24.32C72,76.29,70.1,76.25,69.15,76.25Z"/><path class="cls-8" d="M67.48,83.62l.06,1a.34.34,0,0,1-.58.24,4.6,4.6,0,0,1-.58-3.61c.15-.86.16-2.5.89-3.11a.34.34,0,0,1,.57.24,11.7,11.7,0,0,1-.28,1.84,2.83,2.83,0,0,0,0,.29c0,.47-.1.94-.11,1.4A16.66,16.66,0,0,0,67.48,83.62Z"/><path class="cls-8" d="M69.36,73.65c-1.13-.05-2.57-.14-3.35-1.1a.27.27,0,0,1-.07-.14c-.18-.23,0-.65.33-.53a10.18,10.18,0,0,0,3.37.6,23.73,23.73,0,0,0,2.67-.32c.27,0,.39.3.29.5C72,73.77,70.42,73.71,69.36,73.65Z"/><path class="cls-8" d="M73.7,91.55a3.63,3.63,0,0,1-1-3.15c.07-.77.11-2.15.87-2.6a.35.35,0,0,1,.5.2,3.11,3.11,0,0,1,0,.61.32.32,0,0,1,.08.29A6.72,6.72,0,0,0,74,89.54a6.6,6.6,0,0,1,.23,1.72C74.2,91.49,73.92,91.72,73.7,91.55Z"/><path class="cls-8" d="M76.7,89.84a4.75,4.75,0,0,1,0,1.19c-.09.31-.33.67-.71.48C75,91,74.81,88.64,74.92,87.68a3.23,3.23,0,0,1,.88-2.2.51.51,0,0,1,.79.11A3.13,3.13,0,0,1,76.82,87a.31.31,0,0,1,0,.19A14.46,14.46,0,0,0,76.7,89.84Z"/><path class="cls-8" d="M77.19,83.52a6.42,6.42,0,0,1-3.31-.47c-1-.26-1.79-.72-1.18-1.43a.33.33,0,0,1,.33-.08l.43.15a10.63,10.63,0,0,0,2.65.23,15.68,15.68,0,0,1,2.65,0,.33.33,0,0,1,.24.23C79.17,83,77.83,83.38,77.19,83.52Z"/><path class="cls-8" d="M77.23,80.57a6.73,6.73,0,0,1-4-1.16.27.27,0,0,1-.09-.3.33.33,0,0,1,.38-.48,13.47,13.47,0,0,0,3.3.27c.86,0,1.77-.11,2.61,0a.34.34,0,0,1,.24.33C79.68,80.27,78,80.59,77.23,80.57Z"/><path class="cls-8" d="M76.5,75.31c.09.42.12,1.13-.41,1.28-1.23.34-1.48-2.73-1.48-3.33s.32-3.8,1.61-3.05a.73.73,0,0,1,.36.62.28.28,0,0,1,.13.36A7.79,7.79,0,0,0,76.5,75.31Z"/><path class="cls-8" d="M79.08,75.49c0,.37.15.79-.12,1.1a.32.32,0,0,1-.4,0c-.78-.4-.92-1.57-1-2.34a7.25,7.25,0,0,1,.45-3.67.49.49,0,0,1,.56-.27.35.35,0,0,1,.37,0c.63.25.41,1.53.19,2.45A12.3,12.3,0,0,0,79.08,75.49Z"/><path class="cls-8" d="M82.89,78.35a27.24,27.24,0,0,0-.31,4.78c0,.53,0,1.61-.64,1.79a.33.33,0,0,1-.33-.08,4.77,4.77,0,0,1-.48-3A14.53,14.53,0,0,1,82,78.32a.5.5,0,0,1,.88,0Z"/><path class="cls-8" d="M87.72,73.63c-.94,1.87-5.32,2.48-6.37.41l0-.1s0,0,0,0a.34.34,0,0,1,0-.1v0a.51.51,0,0,1,.44-.55h.09a.67.67,0,0,1,.39.08,9.16,9.16,0,0,0,5.16-.17C87.64,73,87.84,73.38,87.72,73.63Z"/><path class="cls-8" d="M82,71.27a.33.33,0,0,1,.41-.31,18.44,18.44,0,0,0,4.92.23.34.34,0,0,1,.24.57,4.89,4.89,0,0,1-5.57,0A.31.31,0,0,1,82,71.27Z"/><path class="cls-8" d="M47.88,85.7c.12.4-.16,1-.66.85-1.84-.5-2.2-3.38-2.06-4.93.06-.59.17-1.39.8-1.65.43-.18,1-.17,1.15.38a3.61,3.61,0,0,1,0,1.6A9.58,9.58,0,0,0,47.88,85.7Z"/><path class="cls-8" d="M43.72,79.23A4.43,4.43,0,0,1,41,78.55a.29.29,0,0,1-.09-.28c-.09-.23.08-.55.38-.44,2.23.8,4.41.28,6.7.3a.34.34,0,0,1,.09.66A12.73,12.73,0,0,1,43.72,79.23Z"/><path class="cls-8" d="M44.29,81.59a14.34,14.34,0,0,0,.34,4c0,.29-.32.63-.56.33a4.7,4.7,0,0,1-.81-2.64,6,6,0,0,1,.13-2.6.46.46,0,0,1,.87,0,1.36,1.36,0,0,1,0,.8A.33.33,0,0,1,44.29,81.59Z"/><path class="cls-8" d="M41.35,76h0a.35.35,0,0,1,.18,0,33.46,33.46,0,0,0,6.25,0,.34.34,0,0,1,.33.34c0,1.09-1.8,1-2.53,1-1.56.06-3.23.38-4.51-.74A.34.34,0,0,1,41.35,76Z"/></g><g class="cls-15"><path class="cls-8" d="M8.68,64.8c1.2,4.8,4.3,16.83,6.17,21.38,2.36,5.73,1.26,8.24,9,9,6.69.67,20.46.36,26.28.21,5.82.15,19.59.46,26.28-.21,7.77-.79,6.68-3.3,9-9,1.87-4.55,5.21-18.45,6.42-23.25ZM82.82,85.86a8.4,8.4,0,0,1-1.4,1.32c-2.73,2-6.42,2.64-9.81,2.91-1.94.15-3.88.17-5.83.19-6.83.09-13.64.66-20.47.76q-4.81.08-9.65,0c-5-.1-10.53.42-15.18-1.76a13,13,0,0,1-6.08-6.78c-1.82-4.08-5.55-14.44,3-14,2.4.13,4.76.16,7.16.18,7.4.06,14.79.26,22.19.11q3.21-.06,6.42-.22c7.56-.39,18.54-1.08,26.11-1.29,2.26-.06,5.1-.49,7.22.41C90.8,69.54,84.41,84,82.82,85.86Z"/></g><path class="cls-16" d="M36.3,70.28c-3.27,0-6.54,0-9.8,0-2.39,0-5.48-.48-7.74.31-2.89,1-1.16,4.5-.34,6.15a9.62,9.62,0,0,0,3.95,3.92C27,83.33,33.26,84,38.84,84.26c4.59.21,9.19.12,13.78-.11,6.07-.29,12.34-.2,18.27-1.44a19.33,19.33,0,0,0,13-9.37c.59-1.12,2-3.35.17-4.18-2-.91-24.41.86-33.06,1Q43.63,70.21,36.3,70.28Z"/><g class="cls-17"><path class="cls-8" d="M83.28,90c-5.26,3.84-23,3.14-26.1,3.21-6.29.14-12.58.17-18.87.14-3.17,0-15-.67-17.66-1.21a9.05,9.05,0,0,1-4.57-2.19c1,3.14,1.9,4.69,7.71,5.28,6.68.67,20.45.36,26.27.21,5.82.15,19.6.46,26.28-.21,6.34-.64,6.78-2.43,8-6.17A8.59,8.59,0,0,1,83.28,90Z"/><path class="cls-8" d="M15.44,65.64c4.4-.39,8.86-.11,13.27-.13,6.34,0,12.68-.29,19-.32s12.75.11,19.12,0,12.58-.74,18.83-.41c1.29.06,3.83,0,4.68,1.26a2.34,2.34,0,0,1,.36,1.19l1.06-4.27L8.58,64.8l.65,2.55a5,5,0,0,1,1.47-.71A14.29,14.29,0,0,1,15.44,65.64Z"/></g><path class="cls-13" d="M36.61,89.66a2.15,2.15,0,0,1-2.5-2.43,3.12,3.12,0,0,1,.36-1.51,6.31,6.31,0,0,1,1-1.32l5.24-5.48a11.25,11.25,0,0,0,1.7-2.16A3.74,3.74,0,0,0,42.89,75a2.06,2.06,0,0,0-.75-1.73A3.51,3.51,0,0,0,40,72.64a6,6,0,0,0-1.51.21,9.15,9.15,0,0,0-1.77.69,2.15,2.15,0,0,1-1.42.21,2.07,2.07,0,0,1-1.1-.65,2.28,2.28,0,0,1-.34-2.49,2.31,2.31,0,0,1,1.11-1.07,10.93,10.93,0,0,1,2.86-1.1,13.25,13.25,0,0,1,3-.35,10.33,10.33,0,0,1,4.14.73,5.39,5.39,0,0,1,2.54,2.12,6.21,6.21,0,0,1,.87,3.35,8.19,8.19,0,0,1-.38,2.48,9.18,9.18,0,0,1-1.2,2.41,18.37,18.37,0,0,1-2.21,2.6L39.68,86.6V85.18h7.4a2.32,2.32,0,0,1,1.71.57,2.26,2.26,0,0,1,.57,1.66,2,2,0,0,1-2.28,2.25Z"/><path class="cls-13" d="M59.2,90a14.41,14.41,0,0,1-3-.35,11.52,11.52,0,0,1-2.95-1.07,2.23,2.23,0,0,1-1.34-2.42A2.53,2.53,0,0,1,52.4,85a2,2,0,0,1,1.11-.71,2.18,2.18,0,0,1,1.54.24,9.47,9.47,0,0,0,2,.74,8.61,8.61,0,0,0,2,.25,4.57,4.57,0,0,0,1.73-.3,2.31,2.31,0,0,0,1.11-.89,2.47,2.47,0,0,0,.38-1.37A2.38,2.38,0,0,0,61.5,81a3.22,3.22,0,0,0-2.18-.69,5.34,5.34,0,0,0-1.31.18,4.69,4.69,0,0,0-1.46.69,4.81,4.81,0,0,1-.9.42,3.36,3.36,0,0,1-1.17.21,2.22,2.22,0,0,1-1.58-.49,1.93,1.93,0,0,1-.53-1.46V70.77A2.28,2.28,0,0,1,53,69.06a2.38,2.38,0,0,1,1.73-.61h9.44a2.38,2.38,0,0,1,1.73.58,2.2,2.2,0,0,1,.59,1.65,2.28,2.28,0,0,1-.59,1.69,2.37,2.37,0,0,1-1.73.57H57.58v4.72H56.31a4.77,4.77,0,0,1,1.91-1.28,7.74,7.74,0,0,1,6.11.44,6.35,6.35,0,0,1,2.38,2.39,7.13,7.13,0,0,1,.85,3.56,7,7,0,0,1-1,3.81,6.77,6.77,0,0,1-2.89,2.54A10.15,10.15,0,0,1,59.2,90Z"/></g></g></svg>