<svg xmlns="http://www.w3.org/2000/svg" viewBox="0 0 105.29 104.84"><defs><style>.cls-1{isolation:isolate;}.cls-2{fill:#ed7d03;}.cls-3{fill:#ff8c03;}.cls-4{fill:#fcbc08;}.cls-5{fill:#f28106;opacity:0.7;}.cls-6{fill:#7c6a13;}.cls-7{fill:#937b18;}.cls-8{fill:#b86313;}.cls-11,.cls-9{fill:#cc7917;}.cls-10{fill:#9e4727;}.cls-11,.cls-12,.cls-17{opacity:0.5;}.cls-11,.cls-15,.cls-17{mix-blend-mode:multiply;}.cls-13,.cls-16{fill:#fff;}.cls-14,.cls-15{opacity:0.3;}.cls-14{mix-blend-mode:screen;}.cls-16{opacity:0.1;}</style></defs><title>orange15</title><g class="cls-1"><g id="Layer_1" data-name="Layer 1"><path class="cls-2" d="M80,46.6C75.24,45,70.25,41,69.11,35.86H24.88V66.07H82.19V47.21C81.44,47,80.69,46.84,80,46.6Z"/><path class="cls-3" d="M67.41,12.69c3,2.19,6.91,9.14,2.29,14.85s-11.37,6.05-16.46,2.69A11.48,11.48,0,0,1,51.81,12.1C57,7.21,62.91,9.37,67.41,12.69Z"/><path class="cls-4" d="M54.92,11.87h0Z"/><path class="cls-4" d="M55.62,12.59c.35-.17.74-.53.41-.84s-.78,0-1.09.12C54.5,12.27,54.68,13.05,55.62,12.59Z"/><path class="cls-4" d="M54.94,11.87l.53-.21A.82.82,0,0,0,54.94,11.87Z"/><path class="cls-4" d="M54,13.4c.13-.1.31-.3.13-.44a.22.22,0,0,0-.33.07.44.44,0,0,0-.22.29C53.54,13.61,53.85,13.5,54,13.4Z"/><path class="cls-4" d="M56.27,13.22a.3.3,0,0,0-.33,0c-.15,0-.35.08-.38.21a.25.25,0,0,0,0,.08l0,0,0,0c.05.15.39,0,.51,0S56.54,13.36,56.27,13.22Z"/><path class="cls-4" d="M55.51,13.55h0Z"/><path class="cls-4" d="M57,12.43c-.15.05-.32.21-.23.36s.44.09.57,0C57.84,12.53,57.19,12.32,57,12.43Z"/><path class="cls-4" d="M57.63,11.51c-.1,0-.29-.07-.37,0a.12.12,0,0,0,0,.17c0,.11.18.2.25.24s.91.32,1,.06S57.82,11.53,57.63,11.51Z"/><path class="cls-4" d="M56.8,11c.16.08.72.06.77-.16s-.3-.28-.45-.26a.61.61,0,0,0-.24.14C56.73,10.78,56.62,10.89,56.8,11Z"/><path class="cls-4" d="M54.08,12.31c.3-.21,0-.33-.22-.29h0c-.13,0-.46.14-.37.32S54,12.4,54.08,12.31Z"/><path class="cls-4" d="M52.87,13.7c.1-.13.44-.67.05-.69a.23.23,0,0,0-.19.1,1.15,1.15,0,0,0-.39.53C52.19,14.14,52.68,13.91,52.87,13.7Z"/><path class="cls-4" d="M54.91,13.85a.74.74,0,0,0-.5,0,1,1,0,0,0-.66.52c-.13.51.78.14,1,.07S55.34,14,54.91,13.85Z"/><path class="cls-4" d="M56.44,14.26c-.15.05-.3.17-.3.29s.52.17.67.11C57.37,14.39,56.64,14.14,56.44,14.26Z"/><path class="cls-4" d="M60,11.37a.26.26,0,0,0-.25.11.68.68,0,0,0,1,0A.59.59,0,0,0,60,11.37Z"/><path class="cls-4" d="M58.55,12.72c.31.11,1.16.16,1.23-.28a.75.75,0,0,0-.68-.08C58.83,12.35,58.55,12.44,58.55,12.72Z"/><path class="cls-4" d="M59.16,10.42a.44.44,0,0,0-.62-.07.32.32,0,0,0-.15.19A.61.61,0,0,0,59.16,10.42Z"/><path class="cls-4" d="M61.47,12.25c-.62,0,.18.8.53.55S61.72,12.08,61.47,12.25Z"/><path class="cls-4" d="M52.54,14.84c-.19-.16-.36,0-.47.18-.42.27-.92.9-.52,1.06S52.53,15.18,52.54,14.84Z"/><path class="cls-4" d="M51.39,14c-.54.11-.29,1,.23.39C51.94,14,51.61,13.9,51.39,14Z"/><path class="cls-4" d="M54.46,15.66a.31.31,0,0,0-.2.25c.21.15.74.16.88-.11S54.64,15.35,54.46,15.66Z"/><path class="cls-4" d="M59.25,14.19l0,0a.26.26,0,0,0,0,.11c0,.05,0,.1,0,.12.11.29.73.3.61-.07S59.4,14,59.25,14.19Z"/><path class="cls-4" d="M64.81,13.4c-.36-.5-1.12,0-.64.16C64.45,13.76,65.17,13.89,64.81,13.4Z"/><path class="cls-4" d="M51.86,18.19l.08-.13a.9.9,0,0,0-.4.63c.21.06.85-.37.83-.65S52.05,17.92,51.86,18.19Z"/><path class="cls-4" d="M57.54,16.77c.08.09.14.09.21.05.26,0,.74,0,.54-.31S57.61,16.55,57.54,16.77Z"/><path class="cls-4" d="M49.7,16.49a.41.41,0,0,0,0,.22c.32.11,1.13,0,.87-.51S49.8,16.12,49.7,16.49Z"/><path class="cls-4" d="M50.82,15.13h0a.27.27,0,0,0-.33.27.4.4,0,0,0,.56-.22A.41.41,0,0,0,50.82,15.13Z"/><path class="cls-5" d="M51.87,26.45c-1.17.86,4.8,5.19,8.69,5a11.44,11.44,0,0,0,9.4-6c1-2.15.67-8.23-.62-7.81-.45.15.11,2.22-1.78,5.34-1.65,2.75-4.47,5.46-8.21,5.27C54.23,28.05,52.65,25.88,51.87,26.45Z"/><path class="cls-6" d="M64.69,11.39a.55.55,0,0,0-.49.84c.33.8,2.28,2.1,2.84,1.88s.58-.87-.24-1.5A4.66,4.66,0,0,0,64.69,11.39Z"/><path class="cls-6" d="M65.71,12.46s2.26-2.34,2.9-3.22A39.9,39.9,0,0,0,70.75,5s.2-.3.48-.25.19.47.19.47-1.57,3.23-2.21,4.12c-1.3,1.8-3,3.77-3,3.77Z"/><path class="cls-6" d="M69.65,8.05l-3.73-.47-.14.22,1.85.3,1.86.3Z"/><path class="cls-6" d="M61.88,12.26c-3.86,1-9.55-1.77-9.55-1.77s3.8-4.43,7.06-4.77S68.32,8,68.32,8A13.5,13.5,0,0,1,61.88,12.26Z"/><path class="cls-7" d="M64.72,11.63a.8.8,0,0,0-.08.79A4.09,4.09,0,0,0,66,13.53l.09-.7s-.3-.21-.33-.38a.39.39,0,0,1,0-.27Z"/><path class="cls-7" d="M67.06,8.09a30.48,30.48,0,0,0-6.46.06c-3,.43-7.51,1.86-7.46,2.07s5-1.64,7.37-1.8,6.73,0,6.73,0Z"/><path class="cls-7" d="M65.55,8.2a3.52,3.52,0,0,1-.63,1.17,7.71,7.71,0,0,0-1.08,1.69,10.55,10.55,0,0,0,1.25-1.57c.35-.53.81-1.27.81-1.27Z"/><path class="cls-7" d="M62.55,8.22a5.29,5.29,0,0,1-.66,1.91c-.66,1.36-.93,1.76-.77,1.79s.66-1,1-1.74.85-2,.85-2Z"/><path class="cls-7" d="M59.63,8.5a3.65,3.65,0,0,1-.23,1.42c-.29,1-.66,1.57-.52,1.64s.48-.87.68-1.59.5-1.63.5-1.63Z"/><path class="cls-7" d="M56.5,9.24a2.39,2.39,0,0,1-.16.84c-.19.51-.48,1-.39,1a1.84,1.84,0,0,0,.54-.92c.13-.46.27-1,.27-1Z"/><path class="cls-7" d="M65.9,8.12A4.38,4.38,0,0,0,64.77,7a3.41,3.41,0,0,0-1.46-.59c-.07.07.83.32,1.15.53a12.62,12.62,0,0,1,1.19,1.14Z"/><path class="cls-7" d="M62.82,8A2.91,2.91,0,0,0,61.9,6.8,4.56,4.56,0,0,0,59.84,6c-.19.06,1.5.49,1.88.87a4,4,0,0,1,.7,1.2Z"/><path class="cls-7" d="M60.06,8.34a6.6,6.6,0,0,0-1.38-1.09A5.66,5.66,0,0,0,57,6.83c-.2,0,1.27.33,1.69.62a9.06,9.06,0,0,1,1,1Z"/><path class="cls-7" d="M56.49,9.15s-.05-.24-.73-.5-1.06-.43-.92-.43a4.69,4.69,0,0,1,.91.24,5.66,5.66,0,0,1,1.08.61Z"/><path class="cls-3" d="M47.67,13.8c3,2.19,6.91,9.14,2.29,14.85s-11.38,6.05-16.47,2.7a11.48,11.48,0,0,1-1.42-18.14C37.21,8.32,43.16,10.49,47.67,13.8Z"/><path class="cls-4" d="M35.18,13h0Z"/><path class="cls-4" d="M35.87,13.71c.35-.17.74-.53.41-.85s-.77,0-1.09.12C34.76,13.38,34.94,14.16,35.87,13.71Z"/><path class="cls-4" d="M35.19,13l.54-.21A.83.83,0,0,0,35.19,13Z"/><path class="cls-4" d="M34.24,14.51c.13-.1.31-.3.13-.44a.22.22,0,0,0-.33.07.44.44,0,0,0-.22.29C33.79,14.72,34.1,14.61,34.24,14.51Z"/><path class="cls-4" d="M36.52,14.33a.35.35,0,0,0-.33,0c-.15,0-.35.08-.38.21a.25.25,0,0,0,0,.08l0,0,.05,0c0,.14.38,0,.5,0S36.79,14.47,36.52,14.33Z"/><path class="cls-4" d="M35.76,14.66h0Z"/><path class="cls-4" d="M37.26,13.54c-.15.05-.32.22-.24.36s.44.09.57,0C38.09,13.65,37.44,13.43,37.26,13.54Z"/><path class="cls-4" d="M37.88,12.62c-.1,0-.29-.06-.37,0a.15.15,0,0,0,0,.18c0,.1.18.2.25.23s.91.32,1,.06S38.07,12.65,37.88,12.62Z"/><path class="cls-4" d="M37.05,12.1c.16.09.72.06.78-.16s-.31-.28-.46-.26a.61.61,0,0,0-.24.14C37,11.89,36.87,12,37.05,12.1Z"/><path class="cls-4" d="M34.34,13.43c.29-.22,0-.34-.22-.3h0c-.13,0-.46.14-.37.32S34.23,13.51,34.34,13.43Z"/><path class="cls-4" d="M33.12,14.81c.11-.13.44-.67.06-.69a.26.26,0,0,0-.2.1,1.06,1.06,0,0,0-.38.53C32.45,15.25,32.93,15,33.12,14.81Z"/><path class="cls-4" d="M35.17,15a.83.83,0,0,0-.51,0,1,1,0,0,0-.66.52c-.13.52.78.14,1,.08S35.59,15.12,35.17,15Z"/><path class="cls-4" d="M36.69,15.37c-.14.05-.3.17-.3.29s.53.18.67.11C37.62,15.51,36.89,15.26,36.69,15.37Z"/><path class="cls-4" d="M40.28,12.49a.23.23,0,0,0-.25.1.69.69,0,0,0,1,0A.57.57,0,0,0,40.28,12.49Z"/><path class="cls-4" d="M38.8,13.83c.32.11,1.16.17,1.23-.28a.75.75,0,0,0-.68-.08C39.09,13.46,38.8,13.55,38.8,13.83Z"/><path class="cls-4" d="M39.41,11.53a.44.44,0,0,0-.62-.06.28.28,0,0,0-.15.18A.59.59,0,0,0,39.41,11.53Z"/><path class="cls-4" d="M41.73,13.36c-.63,0,.18.81.52.55S42,13.2,41.73,13.36Z"/><path class="cls-4" d="M32.79,16c-.19-.15-.35,0-.46.18-.42.27-.93.91-.53,1.06S32.78,16.3,32.79,16Z"/><path class="cls-4" d="M31.64,15.13c-.54.1-.28,1,.23.38C32.19,15.13,31.86,15,31.64,15.13Z"/><path class="cls-4" d="M34.71,16.78a.26.26,0,0,0-.19.25c.2.14.73.15.87-.11S34.89,16.47,34.71,16.78Z"/><path class="cls-4" d="M39.51,15.3l0,0a.2.2,0,0,0,0,.11c0,.05,0,.09,0,.11.11.3.73.31.61-.06S39.65,15.16,39.51,15.3Z"/><path class="cls-4" d="M45.06,14.51c-.36-.5-1.12,0-.64.16C44.7,14.87,45.42,15,45.06,14.51Z"/><path class="cls-4" d="M32.12,19.3l.07-.13a.9.9,0,0,0-.4.63c.22.06.85-.36.83-.64S32.3,19,32.12,19.3Z"/><path class="cls-4" d="M37.79,17.89a.14.14,0,0,0,.21,0c.26,0,.75,0,.54-.31S37.86,17.67,37.79,17.89Z"/><path class="cls-4" d="M30,17.61a.46.46,0,0,0,0,.21c.32.11,1.14,0,.87-.51S30.05,17.23,30,17.61Z"/><path class="cls-4" d="M31.07,16.24h0a.26.26,0,0,0-.33.26.39.39,0,0,0,.55-.21A.34.34,0,0,0,31.07,16.24Z"/><path class="cls-5" d="M32.12,27.56c-1.17.86,4.81,5.2,8.69,5.05a11.47,11.47,0,0,0,9.4-6c1-2.15.67-8.23-.61-7.81-.46.15.1,2.22-1.78,5.35-1.66,2.74-4.48,5.45-8.22,5.27C34.49,29.16,32.9,27,32.12,27.56Z"/><path class="cls-6" d="M44.94,12.5a.55.55,0,0,0-.48.84c.32.8,2.27,2.1,2.83,1.88s.58-.87-.23-1.5A4.83,4.83,0,0,0,44.94,12.5Z"/><path class="cls-6" d="M46,13.57s2.26-2.34,2.9-3.22A39.9,39.9,0,0,0,51,6.13s.2-.3.48-.25.2.47.2.47-1.58,3.23-2.22,4.12c-1.3,1.8-3,3.77-3,3.77Z"/><path class="cls-6" d="M49.9,9.17c-.14,0-3.73-.47-3.73-.47L46,8.91l1.86.3,1.85.31Z"/><path class="cls-6" d="M42.13,13.37c-3.86,1-9.55-1.77-9.55-1.77s3.8-4.43,7.07-4.77S48.58,9.1,48.58,9.1A13.49,13.49,0,0,1,42.13,13.37Z"/><path class="cls-7" d="M45,12.74a.82.82,0,0,0-.09.79,4.16,4.16,0,0,0,1.4,1.12l.09-.71s-.3-.2-.33-.38a.41.41,0,0,1,0-.27Z"/><path class="cls-7" d="M47.32,9.2a30.51,30.51,0,0,0-6.46.06c-3,.43-7.52,1.87-7.46,2.07s4.94-1.64,7.36-1.8,6.73,0,6.73,0Z"/><path class="cls-7" d="M45.8,9.31a3.36,3.36,0,0,1-.63,1.18,8.47,8.47,0,0,0-1.08,1.68,9.93,9.93,0,0,0,1.25-1.57c.36-.52.81-1.26.81-1.26Z"/><path class="cls-7" d="M42.8,9.33a5.29,5.29,0,0,1-.66,1.92c-.66,1.36-.93,1.75-.76,1.78s.65-1,1-1.74.84-2,.84-2Z"/><path class="cls-7" d="M39.88,9.61A3.72,3.72,0,0,1,39.66,11c-.3,1-.66,1.57-.53,1.64s.48-.86.69-1.59.5-1.62.5-1.62Z"/><path class="cls-7" d="M36.75,10.35a2.39,2.39,0,0,1-.16.84c-.18.52-.47,1-.39,1a1.79,1.79,0,0,0,.54-.92l.28-1Z"/><path class="cls-7" d="M46.15,9.23A4.19,4.19,0,0,0,45,8.14a3.59,3.59,0,0,0-1.45-.59c-.08.07.82.33,1.15.54A12.41,12.41,0,0,1,45.9,9.22Z"/><path class="cls-7" d="M43.07,9.14a2.91,2.91,0,0,0-.92-1.23,4.57,4.57,0,0,0-2-.8c-.2.07,1.5.49,1.88.87a4.1,4.1,0,0,1,.69,1.2Z"/><path class="cls-7" d="M40.32,9.46a6.42,6.42,0,0,0-1.39-1.09,6,6,0,0,0-1.66-.43c-.2,0,1.28.33,1.69.62a8.84,8.84,0,0,1,1,1Z"/><path class="cls-7" d="M36.74,10.26s0-.24-.73-.5S35,9.34,35.1,9.33a5.09,5.09,0,0,1,.91.24,5.81,5.81,0,0,1,1.07.61Z"/><path class="cls-3" d="M81.32,24.37c3,2.19,6.91,9.14,2.29,14.85s-11.37,6.05-16.47,2.7a11.5,11.5,0,0,1-1.42-18.14C70.86,18.89,76.82,21.06,81.32,24.37Z"/><path class="cls-4" d="M68.83,23.55h0Z"/><path class="cls-4" d="M69.52,24.27c.35-.17.75-.52.42-.84s-.78,0-1.1.12C68.41,24,68.59,24.73,69.52,24.27Z"/><path class="cls-4" d="M68.85,23.55l.53-.21A.78.78,0,0,0,68.85,23.55Z"/><path class="cls-4" d="M67.89,25.08c.13-.1.31-.3.14-.44a.23.23,0,0,0-.34.07.43.43,0,0,0-.21.29C67.45,25.29,67.75,25.18,67.89,25.08Z"/><path class="cls-4" d="M70.18,24.9a.35.35,0,0,0-.33,0c-.16,0-.35.08-.39.21a.11.11,0,0,0,0,.08l0,0,0,0c0,.15.38,0,.51,0S70.45,25,70.18,24.9Z"/><path class="cls-4" d="M69.41,25.23h0Z"/><path class="cls-4" d="M70.91,24.11c-.15.05-.32.22-.23.36s.44.09.56,0C71.75,24.21,71.1,24,70.91,24.11Z"/><path class="cls-4" d="M71.54,23.19c-.11,0-.29-.06-.37,0a.15.15,0,0,0,0,.18c0,.1.18.19.25.23s.92.32,1,.06S71.73,23.22,71.54,23.19Z"/><path class="cls-4" d="M70.71,22.67c.15.08.71.06.77-.16s-.31-.28-.45-.26a.5.5,0,0,0-.24.14C70.64,22.46,70.53,22.57,70.71,22.67Z"/><path class="cls-4" d="M68,24c.29-.22,0-.34-.22-.3h0c-.14,0-.47.14-.38.32S67.88,24.08,68,24Z"/><path class="cls-4" d="M66.77,25.38c.11-.13.44-.67.06-.69a.23.23,0,0,0-.2.1,1.06,1.06,0,0,0-.38.53C66.1,25.82,66.58,25.59,66.77,25.38Z"/><path class="cls-4" d="M68.82,25.53a.74.74,0,0,0-.5,0,1,1,0,0,0-.67.52c-.12.52.79.14,1,.08S69.24,25.69,68.82,25.53Z"/><path class="cls-4" d="M70.35,25.94c-.15,0-.31.17-.3.29s.52.18.67.11C71.28,26.08,70.54,25.83,70.35,25.94Z"/><path class="cls-4" d="M73.93,23.06a.23.23,0,0,0-.25.1.7.7,0,0,0,1,0A.59.59,0,0,0,73.93,23.06Z"/><path class="cls-4" d="M72.45,24.4c.32.11,1.17.16,1.24-.28A.77.77,0,0,0,73,24C72.74,24,72.46,24.12,72.45,24.4Z"/><path class="cls-4" d="M73.07,22.1a.44.44,0,0,0-.62-.06.25.25,0,0,0-.15.18A.59.59,0,0,0,73.07,22.1Z"/><path class="cls-4" d="M75.38,23.93c-.63,0,.18.81.53.55S75.63,23.76,75.38,23.93Z"/><path class="cls-4" d="M66.45,26.52c-.2-.15-.36,0-.47.18-.42.27-.93.9-.52,1.06S66.44,26.87,66.45,26.52Z"/><path class="cls-4" d="M65.3,25.7c-.55.1-.29,1,.22.38C65.84,25.7,65.52,25.58,65.3,25.7Z"/><path class="cls-4" d="M68.37,27.35a.27.27,0,0,0-.2.24c.2.15.74.16.87-.11S68.55,27,68.37,27.35Z"/><path class="cls-4" d="M73.16,25.87l0-.05a.52.52,0,0,0,0,.11c0,.06,0,.1,0,.12.12.29.73.31.62-.07S73.31,25.73,73.16,25.87Z"/><path class="cls-4" d="M78.72,25.08c-.37-.5-1.12,0-.65.16C78.35,25.44,79.08,25.58,78.72,25.08Z"/><path class="cls-4" d="M65.77,29.87l.07-.13a.93.93,0,0,0-.4.63c.22.06.85-.36.84-.64S66,29.6,65.77,29.87Z"/><path class="cls-4" d="M71.44,28.45c.09.1.14.09.22.05.26,0,.74,0,.54-.31S71.52,28.23,71.44,28.45Z"/><path class="cls-4" d="M63.61,28.17a.41.41,0,0,0,0,.22c.32.11,1.13,0,.86-.51S63.7,27.8,63.61,28.17Z"/><path class="cls-4" d="M64.72,26.81h0a.27.27,0,0,0-.33.26.4.4,0,0,0,.56-.21A.37.37,0,0,0,64.72,26.81Z"/><path class="cls-5" d="M65.78,38.13c-1.18.86,4.8,5.2,8.68,5a11.44,11.44,0,0,0,9.41-6c1-2.15.67-8.23-.62-7.81-.46.15.1,2.22-1.78,5.35C79.82,37.46,77,40.17,73.26,40,68.14,39.73,66.55,37.56,65.78,38.13Z"/><path class="cls-6" d="M78.6,23.07a.55.55,0,0,0-.49.84c.32.8,2.27,2.1,2.83,1.88s.59-.87-.23-1.5A4.86,4.86,0,0,0,78.6,23.07Z"/><path class="cls-6" d="M79.61,24.14s2.26-2.34,2.91-3.22a42,42,0,0,0,2.14-4.22s.2-.3.47-.25.2.47.2.47S83.75,20.15,83.12,21c-1.3,1.8-3,3.77-3,3.77Z"/><path class="cls-6" d="M83.55,19.74c-.13,0-3.73-.48-3.73-.48l-.13.22,1.85.3,1.85.31Z"/><path class="cls-6" d="M75.78,23.94c-3.85,1-9.55-1.77-9.55-1.77S70,17.74,73.3,17.4s8.93,2.27,8.93,2.27A13.42,13.42,0,0,1,75.78,23.94Z"/><path class="cls-7" d="M78.63,23.31a.82.82,0,0,0-.09.79A4.17,4.17,0,0,0,80,25.22l.09-.71s-.3-.2-.33-.38a.39.39,0,0,1,0-.27Z"/><path class="cls-7" d="M81,19.77a30.48,30.48,0,0,0-6.46.06c-3,.43-7.52,1.87-7.46,2.07s4.94-1.64,7.36-1.8,6.74,0,6.74,0Z"/><path class="cls-7" d="M79.45,19.88a3.41,3.41,0,0,1-.62,1.18,8.25,8.25,0,0,0-1.09,1.68A9.93,9.93,0,0,0,79,21.17c.36-.52.82-1.27.82-1.27Z"/><path class="cls-7" d="M76.46,19.9a5.23,5.23,0,0,1-.67,1.92c-.66,1.36-.92,1.75-.76,1.78s.66-1,1-1.74.85-2,.85-2Z"/><path class="cls-7" d="M73.54,20.18a3.65,3.65,0,0,1-.23,1.42c-.3,1-.66,1.57-.52,1.64s.48-.86.68-1.59S74,20,74,20Z"/><path class="cls-7" d="M70.4,20.92a2.13,2.13,0,0,1-.16.84c-.18.52-.47,1-.38,1a1.93,1.93,0,0,0,.53-.92l.28-1Z"/><path class="cls-7" d="M79.81,19.8a4.38,4.38,0,0,0-1.13-1.09,3.46,3.46,0,0,0-1.46-.59c-.08.07.83.33,1.15.53a12.23,12.23,0,0,1,1.18,1.14Z"/><path class="cls-7" d="M76.73,19.71a2.91,2.91,0,0,0-.92-1.23,4.6,4.6,0,0,0-2.06-.8c-.19.07,1.5.49,1.88.87a4.1,4.1,0,0,1,.69,1.2Z"/><path class="cls-7" d="M74,20a6.54,6.54,0,0,0-1.38-1.1,6.35,6.35,0,0,0-1.67-.42c-.19,0,1.28.33,1.69.62a9.48,9.48,0,0,1,1,1Z"/><path class="cls-7" d="M70.4,20.83s-.05-.24-.73-.5-1.07-.43-.92-.43a4.88,4.88,0,0,1,.91.24,5.46,5.46,0,0,1,1.07.61Z"/><path class="cls-3" d="M60.75,21.13c3,2.19,6.91,9.14,2.29,14.85S51.67,42,46.58,38.68a11.49,11.49,0,0,1-1.43-18.14C50.3,15.65,56.25,17.82,60.75,21.13Z"/><path class="cls-4" d="M48.26,20.31h0Z"/><path class="cls-4" d="M49,21c.35-.17.74-.52.41-.84s-.78,0-1.09.12C47.84,20.71,48,21.49,49,21Z"/><path class="cls-4" d="M48.28,20.31l.53-.21A.82.82,0,0,0,48.28,20.31Z"/><path class="cls-4" d="M47.33,21.84c.13-.1.31-.3.13-.44a.22.22,0,0,0-.33.07.44.44,0,0,0-.22.29C46.88,22.05,47.19,21.94,47.33,21.84Z"/><path class="cls-4" d="M49.61,21.66a.35.35,0,0,0-.33,0c-.15,0-.35.08-.38.21a.25.25,0,0,0,0,.08l0,0,0,0c0,.15.39,0,.51,0S49.88,21.8,49.61,21.66Z"/><path class="cls-4" d="M48.85,22h0Z"/><path class="cls-4" d="M50.34,20.87c-.15.05-.32.22-.23.36s.44.09.57,0C51.18,21,50.53,20.76,50.34,20.87Z"/><path class="cls-4" d="M51,20c-.1,0-.29-.06-.37,0a.14.14,0,0,0,0,.18c0,.1.18.19.25.23s.91.32,1,.06S51.16,20,51,20Z"/><path class="cls-4" d="M50.14,19.43c.16.08.72.06.77-.16s-.3-.28-.45-.26a.61.61,0,0,0-.24.14C50.07,19.22,50,19.33,50.14,19.43Z"/><path class="cls-4" d="M47.42,20.76c.3-.22,0-.34-.22-.3h0c-.13,0-.46.14-.37.32S47.31,20.84,47.42,20.76Z"/><path class="cls-4" d="M46.21,22.14c.1-.13.44-.67,0-.69a.23.23,0,0,0-.19.1,1.15,1.15,0,0,0-.39.53C45.53,22.58,46,22.35,46.21,22.14Z"/><path class="cls-4" d="M48.25,22.29a.74.74,0,0,0-.5,0,1,1,0,0,0-.66.52c-.13.52.78.14,1,.08S48.68,22.45,48.25,22.29Z"/><path class="cls-4" d="M49.78,22.7c-.15.05-.3.17-.3.29s.52.18.67.11C50.71,22.84,50,22.59,49.78,22.7Z"/><path class="cls-4" d="M53.37,19.82a.23.23,0,0,0-.25.1.69.69,0,0,0,1,0A.57.57,0,0,0,53.37,19.82Z"/><path class="cls-4" d="M51.89,21.16c.31.11,1.16.16,1.23-.28a.75.75,0,0,0-.68-.08C52.17,20.79,51.89,20.88,51.89,21.16Z"/><path class="cls-4" d="M52.5,18.86a.44.44,0,0,0-.62-.06.28.28,0,0,0-.15.18A.59.59,0,0,0,52.5,18.86Z"/><path class="cls-4" d="M54.81,20.69c-.62,0,.18.81.53.55S55.06,20.52,54.81,20.69Z"/><path class="cls-4" d="M45.88,23.28c-.19-.15-.36,0-.47.18-.42.27-.92.9-.52,1.06S45.87,23.63,45.88,23.28Z"/><path class="cls-4" d="M44.73,22.46c-.54.1-.29,1,.23.38C45.28,22.46,45,22.34,44.73,22.46Z"/><path class="cls-4" d="M47.8,24.11a.28.28,0,0,0-.2.24c.21.15.74.16.88-.11S48,23.8,47.8,24.11Z"/><path class="cls-4" d="M52.59,22.63l0-.05a.26.26,0,0,0,0,.11c0,.06,0,.1,0,.12.11.29.73.31.61-.07S52.74,22.49,52.59,22.63Z"/><path class="cls-4" d="M58.15,21.84c-.36-.5-1.12,0-.64.16C57.79,22.2,58.51,22.34,58.15,21.84Z"/><path class="cls-4" d="M45.2,26.63l.08-.13a.9.9,0,0,0-.4.63c.21.06.85-.36.83-.64S45.39,26.36,45.2,26.63Z"/><path class="cls-4" d="M50.88,25.21c.08.1.14.09.21.05.26,0,.74,0,.54-.31S51,25,50.88,25.21Z"/><path class="cls-4" d="M43,24.93a.41.41,0,0,0,0,.22c.32.11,1.13,0,.87-.51S43.14,24.56,43,24.93Z"/><path class="cls-4" d="M44.16,23.57h0a.27.27,0,0,0-.33.26.4.4,0,0,0,.56-.21A.36.36,0,0,0,44.16,23.57Z"/><path class="cls-5" d="M45.21,34.89c-1.17.86,4.8,5.2,8.69,5a11.44,11.44,0,0,0,9.4-6c1-2.15.67-8.23-.62-7.81-.46.15.11,2.22-1.78,5.35-1.65,2.74-4.47,5.45-8.21,5.26C47.57,36.49,46,34.32,45.21,34.89Z"/><path class="cls-6" d="M58,19.83a.55.55,0,0,0-.49.84c.33.8,2.28,2.1,2.84,1.88s.58-.87-.24-1.5A4.75,4.75,0,0,0,58,19.83Z"/><path class="cls-6" d="M59.05,20.9s2.26-2.34,2.9-3.22a39.9,39.9,0,0,0,2.14-4.22s.2-.3.48-.25.19.47.19.47-1.57,3.23-2.21,4.12c-1.3,1.8-3,3.77-3,3.77Z"/><path class="cls-6" d="M63,16.5c-.14,0-3.73-.48-3.73-.48l-.14.22,1.85.3,1.86.31Z"/><path class="cls-6" d="M55.22,20.7c-3.86,1-9.55-1.77-9.55-1.77s3.8-4.43,7.06-4.77,8.93,2.27,8.93,2.27A13.43,13.43,0,0,1,55.22,20.7Z"/><path class="cls-7" d="M58.06,20.07a.8.8,0,0,0-.08.79A4.16,4.16,0,0,0,59.38,22l.09-.71s-.3-.2-.33-.38a.39.39,0,0,1,0-.27Z"/><path class="cls-7" d="M60.4,16.53a30.48,30.48,0,0,0-6.46.06c-3,.43-7.51,1.87-7.46,2.07s5-1.64,7.36-1.8,6.74,0,6.74,0Z"/><path class="cls-7" d="M58.89,16.64a3.61,3.61,0,0,1-.63,1.18,7.52,7.52,0,0,0-1.08,1.68,10.55,10.55,0,0,0,1.25-1.57c.35-.52.81-1.27.81-1.27Z"/><path class="cls-7" d="M55.89,16.66a5.29,5.29,0,0,1-.66,1.92c-.66,1.36-.93,1.75-.77,1.78s.66-1,1-1.74.85-2,.85-2Z"/><path class="cls-7" d="M53,16.94a3.65,3.65,0,0,1-.23,1.42c-.29,1-.66,1.57-.52,1.64s.48-.86.68-1.59.5-1.62.5-1.62Z"/><path class="cls-7" d="M49.84,17.68a2.39,2.39,0,0,1-.16.84c-.19.52-.48,1-.39,1a1.84,1.84,0,0,0,.54-.92c.13-.46.27-1,.27-1Z"/><path class="cls-7" d="M59.24,16.56a4.38,4.38,0,0,0-1.13-1.09,3.46,3.46,0,0,0-1.46-.59c-.07.07.83.33,1.15.53A12.62,12.62,0,0,1,59,16.55Z"/><path class="cls-7" d="M56.16,16.47a2.91,2.91,0,0,0-.92-1.23,4.56,4.56,0,0,0-2.06-.8c-.19.07,1.5.49,1.88.87a4,4,0,0,1,.7,1.2Z"/><path class="cls-7" d="M53.4,16.79A6.54,6.54,0,0,0,52,15.69a6.39,6.39,0,0,0-1.66-.42c-.2,0,1.27.33,1.68.62a8.6,8.6,0,0,1,1.05,1Z"/><path class="cls-7" d="M49.83,17.59s0-.24-.73-.5-1.06-.43-.92-.43a4.88,4.88,0,0,1,.91.24,5.66,5.66,0,0,1,1.08.61Z"/><path class="cls-3" d="M70.47,31.32c3,2.2,6.91,9.14,2.29,14.85s-11.37,6.06-16.46,2.7a11.48,11.48,0,0,1-1.43-18.13C60,25.84,66,28,70.47,31.32Z"/><path class="cls-4" d="M58,30.51h0Z"/><path class="cls-4" d="M58.68,31.23c.35-.17.74-.53.41-.85s-.78.05-1.09.12C57.56,30.9,57.74,31.68,58.68,31.23Z"/><path class="cls-4" d="M58,30.5l.53-.21A.88.88,0,0,0,58,30.5Z"/><path class="cls-4" d="M57,32c.14-.09.32-.3.14-.44a.22.22,0,0,0-.33.07.44.44,0,0,0-.22.29C56.6,32.25,56.91,32.13,57,32Z"/><path class="cls-4" d="M59.33,31.85a.35.35,0,0,0-.33,0c-.15,0-.35.09-.38.21a.28.28,0,0,0,0,.08.05.05,0,0,1,0,0l0,0c0,.14.39,0,.51,0S59.6,32,59.33,31.85Z"/><path class="cls-4" d="M58.57,32.18l0,0Z"/><path class="cls-4" d="M60.06,31.07c-.15,0-.32.21-.23.36s.44.09.57,0C60.9,31.17,60.25,31,60.06,31.07Z"/><path class="cls-4" d="M60.69,30.14c-.1,0-.29-.06-.37,0a.14.14,0,0,0,0,.18c0,.1.18.2.25.23s.91.33,1,.07S60.88,30.17,60.69,30.14Z"/><path class="cls-4" d="M59.86,29.62c.16.09.72.07.77-.16s-.3-.28-.45-.26a.77.77,0,0,0-.24.14C59.79,29.41,59.68,29.53,59.86,29.62Z"/><path class="cls-4" d="M57.14,31c.29-.22,0-.34-.22-.29h0c-.13,0-.46.15-.37.33S57,31,57.14,31Z"/><path class="cls-4" d="M55.92,32.33c.11-.12.45-.67.06-.69a.28.28,0,0,0-.19.1,1.08,1.08,0,0,0-.39.53C55.25,32.78,55.74,32.55,55.92,32.33Z"/><path class="cls-4" d="M58,32.48a.75.75,0,0,0-.5.05,1,1,0,0,0-.66.51c-.13.52.78.15,1,.08S58.4,32.64,58,32.48Z"/><path class="cls-4" d="M59.5,32.89c-.15,0-.3.17-.3.29s.52.18.67.11C60.43,33,59.7,32.78,59.5,32.89Z"/><path class="cls-4" d="M63.08,30a.27.27,0,0,0-.25.1.69.69,0,0,0,1.05,0A.58.58,0,0,0,63.08,30Z"/><path class="cls-4" d="M61.61,31.35c.31.11,1.16.17,1.23-.27a.7.7,0,0,0-.68-.08C61.89,31,61.61,31.07,61.61,31.35Z"/><path class="cls-4" d="M62.22,29.05A.44.44,0,0,0,61.6,29a.28.28,0,0,0-.15.18A.59.59,0,0,0,62.22,29.05Z"/><path class="cls-4" d="M64.53,30.88c-.62,0,.18.81.53.55S64.78,30.72,64.53,30.88Z"/><path class="cls-4" d="M55.6,33.47c-.19-.15-.36,0-.47.18-.42.27-.92.91-.52,1.06S55.59,33.82,55.6,33.47Z"/><path class="cls-4" d="M54.45,32.65c-.54.1-.29,1,.23.39C55,32.65,54.67,32.53,54.45,32.65Z"/><path class="cls-4" d="M57.52,34.3a.3.3,0,0,0-.2.25c.2.14.74.15.88-.11S57.7,34,57.52,34.3Z"/><path class="cls-4" d="M62.31,32.82l0,0a.43.43,0,0,0,0,.11s0,.1,0,.11c.11.3.73.31.61-.06S62.46,32.68,62.31,32.82Z"/><path class="cls-4" d="M67.87,32c-.36-.51-1.12,0-.64.16C67.5,32.4,68.23,32.53,67.87,32Z"/><path class="cls-4" d="M54.92,36.83l.08-.14a.9.9,0,0,0-.4.64c.21.05.85-.37.83-.65S55.11,36.55,54.92,36.83Z"/><path class="cls-4" d="M60.6,35.41a.16.16,0,0,0,.21.05c.26,0,.74,0,.54-.32S60.67,35.19,60.6,35.41Z"/><path class="cls-4" d="M52.76,35.13a.4.4,0,0,0,0,.22c.32.11,1.13,0,.86-.51S52.85,34.75,52.76,35.13Z"/><path class="cls-4" d="M53.88,33.77h0a.27.27,0,0,0-.33.26.4.4,0,0,0,.56-.21A.34.34,0,0,0,53.88,33.77Z"/><path class="cls-5" d="M54.93,45.09c-1.17.85,4.8,5.19,8.69,5a11.45,11.45,0,0,0,9.4-6c1-2.14.67-8.23-.62-7.8-.46.15.11,2.21-1.78,5.34-1.65,2.75-4.47,5.45-8.21,5.27C57.29,46.68,55.71,44.52,54.93,45.09Z"/><path class="cls-6" d="M67.75,30a.54.54,0,0,0-.49.83c.33.8,2.28,2.1,2.84,1.88s.58-.87-.24-1.49A4.57,4.57,0,0,0,67.75,30Z"/><path class="cls-6" d="M68.76,31.1s2.26-2.34,2.91-3.22a41.89,41.89,0,0,0,2.14-4.23s.2-.3.48-.24.19.46.19.46S72.91,27.1,72.27,28c-1.3,1.81-3,3.77-3,3.77Z"/><path class="cls-6" d="M72.71,26.69c-.14,0-3.73-.47-3.73-.47l-.14.21,1.85.31,1.86.3Z"/><path class="cls-6" d="M64.94,30.89c-3.86,1-9.55-1.76-9.55-1.76s3.8-4.44,7.06-4.77,8.93,2.27,8.93,2.27A13.44,13.44,0,0,1,64.94,30.89Z"/><path class="cls-7" d="M67.78,30.26a.8.8,0,0,0-.08.79,4,4,0,0,0,1.4,1.12l.09-.7s-.3-.21-.33-.39a.41.41,0,0,1,0-.27Z"/><path class="cls-7" d="M70.12,26.72a30.48,30.48,0,0,0-6.46.06c-3,.44-7.52,1.87-7.46,2.07s4.95-1.64,7.36-1.8,6.74,0,6.74,0Z"/><path class="cls-7" d="M68.61,26.83A3.61,3.61,0,0,1,68,28a8.25,8.25,0,0,0-1.09,1.68,10.76,10.76,0,0,0,1.26-1.56c.35-.53.81-1.27.81-1.27Z"/><path class="cls-7" d="M65.61,26.86A5.29,5.29,0,0,1,65,28.77c-.66,1.36-.93,1.75-.77,1.79s.66-1,1-1.75.85-2,.85-2Z"/><path class="cls-7" d="M62.69,27.13a3.63,3.63,0,0,1-.23,1.42c-.29,1-.66,1.57-.52,1.64s.48-.86.68-1.59.5-1.62.5-1.62Z"/><path class="cls-7" d="M59.56,27.87a2.39,2.39,0,0,1-.16.84c-.19.52-.48,1-.39,1a1.81,1.81,0,0,0,.54-.92c.13-.46.27-1,.27-1Z"/><path class="cls-7" d="M69,26.75a4.25,4.25,0,0,0-1.13-1.08,3.53,3.53,0,0,0-1.46-.6c-.07.07.83.33,1.15.54a12.62,12.62,0,0,1,1.19,1.14Z"/><path class="cls-7" d="M65.88,26.66A2.85,2.85,0,0,0,65,25.44a4.61,4.61,0,0,0-2.06-.81c-.19.07,1.5.5,1.88.87a4.36,4.36,0,0,1,.7,1.2Z"/><path class="cls-7" d="M63.12,27a6.6,6.6,0,0,0-1.38-1.09,5.66,5.66,0,0,0-1.66-.42c-.2,0,1.27.32,1.68.61a8.4,8.4,0,0,1,1.05,1Z"/><path class="cls-7" d="M59.55,27.79s0-.25-.73-.5-1.06-.43-.92-.43a4.57,4.57,0,0,1,.91.23,6.29,6.29,0,0,1,1.08.61Z"/><path class="cls-3" d="M19.63,21.17c-3,2.2-6.91,9.14-2.29,14.86s11.37,6,16.46,2.69a11.48,11.48,0,0,0,1.43-18.13C30.08,15.69,24.13,17.86,19.63,21.17Z"/><path class="cls-4" d="M32.12,20.36h0Z"/><path class="cls-4" d="M31.42,21.08c-.35-.17-.74-.53-.41-.85s.78.05,1.09.13C32.54,20.75,32.35,21.53,31.42,21.08Z"/><path class="cls-4" d="M32.1,20.35l-.53-.2A.87.87,0,0,1,32.1,20.35Z"/><path class="cls-4" d="M33.05,21.88c-.13-.09-.31-.29-.13-.43a.22.22,0,0,1,.33.07.44.44,0,0,1,.22.29C33.5,22.1,33.19,22,33.05,21.88Z"/><path class="cls-4" d="M30.77,21.7a.35.35,0,0,1,.33,0c.15,0,.35.09.38.22a.25.25,0,0,1,0,.08l0,0,0,0c0,.14-.39,0-.51,0S30.5,21.85,30.77,21.7Z"/><path class="cls-4" d="M31.53,22h0Z"/><path class="cls-4" d="M30,20.92c.15,0,.32.21.24.36s-.44.09-.57,0C29.2,21,29.85,20.81,30,20.92Z"/><path class="cls-4" d="M29.41,20c.1,0,.29-.07.37,0a.14.14,0,0,1,0,.18c0,.11-.18.2-.25.24s-.91.32-1,.06S29.22,20,29.41,20Z"/><path class="cls-4" d="M30.24,19.48c-.16.08-.72.06-.77-.17s.3-.27.45-.25a.51.51,0,0,1,.24.14C30.31,19.27,30.42,19.38,30.24,19.48Z"/><path class="cls-4" d="M33,20.8c-.29-.21,0-.34.23-.29h0c.13,0,.46.15.37.33S33.07,20.88,33,20.8Z"/><path class="cls-4" d="M34.17,22.18c-.1-.12-.44-.67-.05-.69a.3.3,0,0,1,.19.1,1.17,1.17,0,0,1,.39.54C34.85,22.63,34.36,22.4,34.17,22.18Z"/><path class="cls-4" d="M32.12,22.34a.76.76,0,0,1,.51,0c.28.08.61.3.66.51.13.52-.78.15-1,.08S31.7,22.5,32.12,22.34Z"/><path class="cls-4" d="M30.6,22.74c.14.05.3.17.3.29s-.52.18-.67.11C29.67,22.88,30.4,22.63,30.6,22.74Z"/><path class="cls-4" d="M27,19.86a.27.27,0,0,1,.25.1.68.68,0,0,1-1,0A.58.58,0,0,1,27,19.86Z"/><path class="cls-4" d="M28.49,21.2c-.31.11-1.16.17-1.23-.27a.75.75,0,0,1,.68-.08C28.21,20.84,28.49,20.93,28.49,21.2Z"/><path class="cls-4" d="M27.88,18.9a.44.44,0,0,1,.62-.06.34.34,0,0,1,.15.18A.59.59,0,0,1,27.88,18.9Z"/><path class="cls-4" d="M25.57,20.73c.62,0-.18.81-.53.56S25.32,20.57,25.57,20.73Z"/><path class="cls-4" d="M34.5,23.33c.19-.16.36,0,.47.18.42.26.92.9.52,1.06S34.51,23.67,34.5,23.33Z"/><path class="cls-4" d="M35.65,22.5c.54.11.29,1-.23.39C35.1,22.51,35.43,22.39,35.65,22.5Z"/><path class="cls-4" d="M32.58,24.15a.3.3,0,0,1,.2.25c-.21.15-.74.16-.88-.11S32.4,23.84,32.58,24.15Z"/><path class="cls-4" d="M27.79,22.67l0,0a.26.26,0,0,1,0,.11c0,.05,0,.1,0,.12-.11.29-.73.3-.61-.07S27.64,22.53,27.79,22.67Z"/><path class="cls-4" d="M22.23,21.89c.36-.5,1.12,0,.64.16C22.59,22.25,21.87,22.38,22.23,21.89Z"/><path class="cls-4" d="M35.18,26.68l-.08-.13a.88.88,0,0,1,.4.63c-.21.06-.85-.37-.83-.65S35,26.41,35.18,26.68Z"/><path class="cls-4" d="M29.5,25.26a.16.16,0,0,1-.21,0c-.26,0-.74,0-.54-.32S29.43,25,29.5,25.26Z"/><path class="cls-4" d="M37.34,25a.4.4,0,0,1,0,.22c-.32.11-1.13,0-.87-.51S37.24,24.6,37.34,25Z"/><path class="cls-4" d="M36.22,23.62h0a.26.26,0,0,1,.32.27.4.4,0,0,1-.55-.22A.34.34,0,0,1,36.22,23.62Z"/><path class="cls-5" d="M35.17,34.94c1.17.86-4.8,5.19-8.69,5a11.43,11.43,0,0,1-9.4-6c-1-2.14-.67-8.23.62-7.8.45.15-.11,2.21,1.78,5.34C21.13,34.27,24,37,27.69,36.79,32.8,36.54,34.39,34.37,35.17,34.94Z"/><path class="cls-6" d="M22.35,19.88a.54.54,0,0,1,.48.83c-.32.8-2.27,2.1-2.83,1.88s-.58-.87.24-1.49A4.66,4.66,0,0,1,22.35,19.88Z"/><path class="cls-6" d="M21.33,21s-2.26-2.34-2.9-3.22a39.83,39.83,0,0,1-2.14-4.23.55.55,0,0,0-.48-.24c-.27.05-.2.47-.2.47s1.58,3.22,2.22,4.11c1.3,1.81,3,3.78,3,3.78Z"/><path class="cls-6" d="M17.39,16.54c.14,0,3.73-.47,3.73-.47l.14.21-1.85.31-1.86.3Z"/><path class="cls-6" d="M25.16,20.75C29,21.73,34.71,19,34.71,19s-3.8-4.44-7.06-4.77-8.93,2.27-8.93,2.27A13.5,13.5,0,0,0,25.16,20.75Z"/><path class="cls-7" d="M22.32,20.12a.8.8,0,0,1,.08.79A4.09,4.09,0,0,1,21,22l-.09-.7s.3-.21.33-.38a.39.39,0,0,0,0-.27Z"/><path class="cls-7" d="M20,16.57a30.09,30.09,0,0,1,6.46.07c3,.43,7.51,1.86,7.46,2.06S29,17.06,26.53,16.9s-6.73,0-6.73,0Z"/><path class="cls-7" d="M21.49,16.69a3.52,3.52,0,0,0,.63,1.17,8.56,8.56,0,0,1,1.08,1.68A10.88,10.88,0,0,1,22,18c-.35-.53-.81-1.27-.81-1.27Z"/><path class="cls-7" d="M24.49,16.71a5.29,5.29,0,0,0,.66,1.91c.66,1.36.93,1.76.77,1.79s-.66-1-1-1.75-.85-2-.85-2Z"/><path class="cls-7" d="M27.41,17a3.63,3.63,0,0,0,.23,1.42c.29,1,.66,1.58.52,1.64s-.48-.86-.68-1.58-.5-1.63-.5-1.63Z"/><path class="cls-7" d="M30.54,17.72a2.36,2.36,0,0,0,.16.84c.19.52.47,1,.39,1a1.75,1.75,0,0,1-.54-.91c-.13-.47-.27-1-.27-1Z"/><path class="cls-7" d="M21.14,16.6a4.43,4.43,0,0,1,1.13-1.08,3.48,3.48,0,0,1,1.46-.6c.07.07-.83.33-1.15.54a12.62,12.62,0,0,0-1.19,1.14Z"/><path class="cls-7" d="M24.22,16.52a2.91,2.91,0,0,1,.92-1.23,4.44,4.44,0,0,1,2.06-.8c.19.06-1.5.49-1.89.86a4.23,4.23,0,0,0-.69,1.21Z"/><path class="cls-7" d="M27,16.83a6.6,6.6,0,0,1,1.38-1.09A5.66,5.66,0,0,1,30,15.32c.2,0-1.27.33-1.69.62a9.06,9.06,0,0,0-1,1Z"/><path class="cls-7" d="M30.55,17.64s.05-.25.73-.5,1.06-.43.92-.43a4,4,0,0,0-.91.24,5.82,5.82,0,0,0-1.08.6Z"/><path class="cls-3" d="M13.87,34c-3,2.19-6.91,9.13-2.29,14.85S23,54.91,28,51.55a11.48,11.48,0,0,0,1.43-18.13C24.32,28.52,18.37,30.69,13.87,34Z"/><path class="cls-4" d="M26.36,33.19h0Z"/><path class="cls-4" d="M25.66,33.91c-.35-.17-.74-.53-.41-.85s.78,0,1.09.13C26.78,33.58,26.6,34.37,25.66,33.91Z"/><path class="cls-4" d="M26.34,33.18l-.53-.2A.87.87,0,0,1,26.34,33.18Z"/><path class="cls-4" d="M27.3,34.71c-.14-.09-.32-.29-.14-.43a.22.22,0,0,1,.33.07.44.44,0,0,1,.22.29C27.74,34.93,27.43,34.81,27.3,34.71Z"/><path class="cls-4" d="M25,34.53a.33.33,0,0,1,.33,0c.15,0,.35.08.38.21a.25.25,0,0,1,0,.08l0,0,0,0c0,.15-.39,0-.51,0S24.74,34.68,25,34.53Z"/><path class="cls-4" d="M25.77,34.87h0Z"/><path class="cls-4" d="M24.28,33.75c.15,0,.32.21.23.36s-.44.09-.57,0C23.44,33.85,24.09,33.64,24.28,33.75Z"/><path class="cls-4" d="M23.65,32.83c.1,0,.29-.07.37,0A.12.12,0,0,1,24,33c0,.11-.18.2-.25.24s-.91.32-1,.06S23.46,32.85,23.65,32.83Z"/><path class="cls-4" d="M24.48,32.31c-.16.08-.72.06-.77-.17s.3-.27.45-.25a.61.61,0,0,1,.24.14C24.55,32.1,24.66,32.21,24.48,32.31Z"/><path class="cls-4" d="M27.2,33.63c-.29-.21,0-.34.22-.29h0c.13,0,.46.15.37.33S27.31,33.71,27.2,33.63Z"/><path class="cls-4" d="M28.41,35c-.1-.12-.44-.67-.05-.69a.3.3,0,0,1,.19.1,1.1,1.1,0,0,1,.39.54C29.09,35.46,28.6,35.23,28.41,35Z"/><path class="cls-4" d="M26.37,35.17a.74.74,0,0,1,.5,0c.28.08.61.3.66.51.13.52-.78.15-1,.08S25.94,35.33,26.37,35.17Z"/><path class="cls-4" d="M24.84,35.58c.15.05.3.17.3.29s-.52.17-.67.1C23.91,35.71,24.64,35.46,24.84,35.58Z"/><path class="cls-4" d="M21.26,32.69a.28.28,0,0,1,.25.11.69.69,0,0,1-1.05,0A.6.6,0,0,1,21.26,32.69Z"/><path class="cls-4" d="M22.73,34c-.31.1-1.16.16-1.23-.28a.75.75,0,0,1,.68-.08C22.45,33.67,22.73,33.76,22.73,34Z"/><path class="cls-4" d="M22.12,31.74a.44.44,0,0,1,.62-.07.34.34,0,0,1,.15.18A.59.59,0,0,1,22.12,31.74Z"/><path class="cls-4" d="M19.81,33.56c.62,0-.18.81-.53.56S19.56,33.4,19.81,33.56Z"/><path class="cls-4" d="M28.74,36.16c.19-.16.36,0,.47.18.42.26.92.9.52,1.06S28.75,36.5,28.74,36.16Z"/><path class="cls-4" d="M29.89,35.33c.54.11.29,1-.23.39C29.34,35.34,29.67,35.22,29.89,35.33Z"/><path class="cls-4" d="M26.82,37a.3.3,0,0,1,.2.25c-.21.15-.74.16-.88-.11S26.64,36.67,26.82,37Z"/><path class="cls-4" d="M22,35.5l0,0a.52.52,0,0,1,0,.11s0,.1,0,.12c-.11.29-.73.3-.61-.07S21.88,35.36,22,35.5Z"/><path class="cls-4" d="M16.47,34.72c.36-.5,1.12,0,.64.16C16.84,35.08,16.11,35.21,16.47,34.72Z"/><path class="cls-4" d="M29.42,39.51l-.08-.13a.88.88,0,0,1,.4.63c-.21.06-.85-.37-.83-.65S29.23,39.24,29.42,39.51Z"/><path class="cls-4" d="M23.74,38.09a.16.16,0,0,1-.21,0c-.26,0-.74,0-.54-.32S23.67,37.87,23.74,38.09Z"/><path class="cls-4" d="M31.58,37.81a.4.4,0,0,1,0,.22c-.32.11-1.13,0-.87-.51S31.49,37.44,31.58,37.81Z"/><path class="cls-4" d="M30.46,36.45h0a.27.27,0,0,1,.33.27.41.41,0,0,1-.56-.22A.41.41,0,0,1,30.46,36.45Z"/><path class="cls-5" d="M29.41,47.77c1.17.86-4.8,5.19-8.69,5a11.43,11.43,0,0,1-9.4-6c-1-2.14-.67-8.23.62-7.8.46.15-.11,2.22,1.78,5.34,1.65,2.75,4.47,5.46,8.21,5.27C27.05,49.37,28.63,47.2,29.41,47.77Z"/><path class="cls-6" d="M16.59,32.71a.55.55,0,0,1,.49.84c-.33.79-2.28,2.09-2.84,1.88s-.58-.87.24-1.5A4.66,4.66,0,0,1,16.59,32.71Z"/><path class="cls-6" d="M15.57,33.78s-2.26-2.34-2.9-3.22a39.83,39.83,0,0,1-2.14-4.23.55.55,0,0,0-.48-.24c-.27.05-.19.47-.19.47s1.57,3.22,2.21,4.11c1.3,1.81,3,3.78,3,3.78Z"/><path class="cls-6" d="M11.63,29.37l3.73-.47.14.21-1.85.31-1.86.3Z"/><path class="cls-6" d="M19.4,33.58c3.86,1,9.55-1.77,9.55-1.77s-3.8-4.44-7.06-4.77S13,29.31,13,29.31A13.5,13.5,0,0,0,19.4,33.58Z"/><path class="cls-7" d="M16.56,33a.8.8,0,0,1,.08.79,4.09,4.09,0,0,1-1.4,1.11l-.09-.7s.3-.21.33-.38a.39.39,0,0,0,0-.27Z"/><path class="cls-7" d="M14.22,29.41a29.75,29.75,0,0,1,6.46.06c3,.43,7.51,1.86,7.46,2.06s-4.95-1.63-7.36-1.8-6.74,0-6.74,0Z"/><path class="cls-7" d="M15.73,29.52a3.52,3.52,0,0,0,.63,1.17,8.89,8.89,0,0,1,1.09,1.68,9.63,9.63,0,0,1-1.26-1.56c-.35-.53-.81-1.27-.81-1.27Z"/><path class="cls-7" d="M18.73,29.54a5.29,5.29,0,0,0,.66,1.91c.66,1.36.93,1.76.77,1.79s-.66-1-1-1.74-.85-2-.85-2Z"/><path class="cls-7" d="M21.65,29.81a3.63,3.63,0,0,0,.23,1.42c.29,1,.66,1.58.52,1.65s-.48-.87-.68-1.59-.5-1.63-.5-1.63Z"/><path class="cls-7" d="M24.78,30.55a2.36,2.36,0,0,0,.16.84c.19.52.48,1,.39,1a1.82,1.82,0,0,1-.54-.91c-.13-.47-.27-1-.27-1Z"/><path class="cls-7" d="M15.38,29.44a4.38,4.38,0,0,1,1.13-1.09,3.53,3.53,0,0,1,1.46-.6c.07.07-.83.33-1.15.54a12.62,12.62,0,0,0-1.19,1.14Z"/><path class="cls-7" d="M18.46,29.35a2.91,2.91,0,0,1,.92-1.23,4.44,4.44,0,0,1,2.06-.8c.19.06-1.5.49-1.88.86a4.36,4.36,0,0,0-.7,1.21Z"/><path class="cls-7" d="M21.22,29.66a6.6,6.6,0,0,1,1.38-1.09,5.66,5.66,0,0,1,1.66-.42c.2,0-1.27.33-1.68.62a8.6,8.6,0,0,0-1,1Z"/><path class="cls-7" d="M24.79,30.47s.05-.25.73-.5,1.06-.43.92-.43a4.16,4.16,0,0,0-.91.24,5.82,5.82,0,0,0-1.08.6Z"/><path class="cls-3" d="M86.59,36.76c3,2.2,6.91,9.14,2.29,14.86S77.5,57.67,72.41,54.31A11.47,11.47,0,0,1,71,36.18C76.13,31.28,82.08,33.45,86.59,36.76Z"/><path class="cls-4" d="M74.1,36h0Z"/><path class="cls-4" d="M74.79,36.67c.35-.17.74-.53.41-.85s-.77,0-1.09.13C73.68,36.34,73.86,37.12,74.79,36.67Z"/><path class="cls-4" d="M74.11,35.94l.54-.2A.82.82,0,0,0,74.11,35.94Z"/><path class="cls-4" d="M73.16,37.47c.13-.09.31-.29.13-.43a.22.22,0,0,0-.33.07.44.44,0,0,0-.22.29C72.71,37.69,73,37.57,73.16,37.47Z"/><path class="cls-4" d="M75.44,37.29a.35.35,0,0,0-.33,0c-.15,0-.35.09-.38.21a.14.14,0,0,0,0,.09l0,0,0,0c0,.14.38,0,.5,0S75.71,37.44,75.44,37.29Z"/><path class="cls-4" d="M74.68,37.63h0Z"/><path class="cls-4" d="M76.18,36.51c-.15,0-.32.21-.24.36s.44.09.57,0C77,36.61,76.36,36.4,76.18,36.51Z"/><path class="cls-4" d="M76.8,35.59c-.1,0-.29-.07-.37,0a.15.15,0,0,0,0,.18c0,.11.18.2.25.24s.92.32,1,.06S77,35.61,76.8,35.59Z"/><path class="cls-4" d="M76,35.07c.16.08.72.06.78-.17s-.31-.27-.45-.25a.49.49,0,0,0-.25.14C75.9,34.86,75.79,35,76,35.07Z"/><path class="cls-4" d="M73.26,36.39c.29-.21,0-.34-.22-.29h0c-.13,0-.46.15-.37.33S73.15,36.47,73.26,36.39Z"/><path class="cls-4" d="M72,37.77c.11-.12.44-.67.06-.69a.3.3,0,0,0-.2.1,1.08,1.08,0,0,0-.38.54C71.37,38.22,71.85,38,72,37.77Z"/><path class="cls-4" d="M74.09,37.93a.74.74,0,0,0-.5,0,1,1,0,0,0-.67.51c-.13.52.78.15,1,.08S74.51,38.08,74.09,37.93Z"/><path class="cls-4" d="M75.61,38.33c-.14.05-.3.17-.3.29s.53.18.67.11C76.54,38.47,75.81,38.22,75.61,38.33Z"/><path class="cls-4" d="M79.2,35.45a.25.25,0,0,0-.25.1.68.68,0,0,0,1,0A.57.57,0,0,0,79.2,35.45Z"/><path class="cls-4" d="M77.72,36.79c.32.11,1.17.17,1.23-.27a.72.72,0,0,0-.68-.08C78,36.43,77.73,36.52,77.72,36.79Z"/><path class="cls-4" d="M78.34,34.49a.46.46,0,0,0-.63-.06.34.34,0,0,0-.15.18A.6.6,0,0,0,78.34,34.49Z"/><path class="cls-4" d="M80.65,36.32c-.63,0,.18.81.53.56S80.9,36.16,80.65,36.32Z"/><path class="cls-4" d="M71.71,38.92c-.19-.16-.35,0-.46.17-.42.27-.93.91-.53,1.07S71.7,39.26,71.71,38.92Z"/><path class="cls-4" d="M70.56,38.09c-.54.11-.28,1,.23.39C71.11,38.1,70.78,38,70.56,38.09Z"/><path class="cls-4" d="M73.63,39.74a.29.29,0,0,0-.19.25c.2.15.74.16.87-.11S73.81,39.43,73.63,39.74Z"/><path class="cls-4" d="M78.43,38.26l0,0a.61.61,0,0,0,0,.11c0,.05,0,.1,0,.12.11.29.73.3.61-.07S78.57,38.12,78.43,38.26Z"/><path class="cls-4" d="M84,37.48c-.36-.5-1.11,0-.64.16C83.62,37.84,84.34,38,84,37.48Z"/><path class="cls-4" d="M71,42.27l.07-.14a.92.92,0,0,0-.4.64c.22.06.85-.37.83-.65S71.22,42,71,42.27Z"/><path class="cls-4" d="M76.71,40.85a.16.16,0,0,0,.21,0c.27,0,.75,0,.54-.32S76.78,40.63,76.71,40.85Z"/><path class="cls-4" d="M68.88,40.57a.51.51,0,0,0,0,.22c.32.11,1.14,0,.87-.51S69,40.19,68.88,40.57Z"/><path class="cls-4" d="M70,39.21h0a.27.27,0,0,0-.33.27.4.4,0,0,0,.55-.22A.33.33,0,0,0,70,39.21Z"/><path class="cls-5" d="M71,50.53c-1.17.86,4.81,5.19,8.69,5a11.39,11.39,0,0,0,9.4-6c1-2.14.67-8.23-.61-7.8-.46.15.1,2.21-1.78,5.34-1.66,2.75-4.48,5.45-8.22,5.27C73.41,52.13,71.82,50,71,50.53Z"/><path class="cls-6" d="M83.86,35.47a.54.54,0,0,0-.48.83c.32.8,2.27,2.1,2.83,1.88s.59-.87-.23-1.49A4.64,4.64,0,0,0,83.86,35.47Z"/><path class="cls-6" d="M84.88,36.54s2.26-2.34,2.9-3.22a39.83,39.83,0,0,0,2.14-4.23.55.55,0,0,1,.48-.24c.28,0,.2.47.2.47S89,32.54,88.38,33.43c-1.3,1.81-3,3.78-3,3.78Z"/><path class="cls-6" d="M88.82,32.13c-.14,0-3.73-.47-3.73-.47l-.14.21,1.86.31,1.85.3Z"/><path class="cls-6" d="M81.05,36.34c-3.85,1-9.55-1.77-9.55-1.77s3.8-4.44,7.07-4.77,8.93,2.27,8.93,2.27A13.56,13.56,0,0,1,81.05,36.34Z"/><path class="cls-7" d="M83.9,35.71a.81.81,0,0,0-.09.79,4.09,4.09,0,0,0,1.4,1.11l.09-.7s-.3-.21-.33-.38a.39.39,0,0,1,0-.27Z"/><path class="cls-7" d="M86.24,32.16a30.11,30.11,0,0,0-6.46.07c-3,.43-7.52,1.86-7.46,2.06s4.94-1.64,7.36-1.8,6.73,0,6.73,0Z"/><path class="cls-7" d="M84.72,32.27a3.27,3.27,0,0,1-.63,1.18A9.15,9.15,0,0,0,83,35.13a10.21,10.21,0,0,0,1.25-1.56c.36-.53.82-1.27.82-1.27Z"/><path class="cls-7" d="M81.72,32.3a5.29,5.29,0,0,1-.66,1.91C80.4,35.57,80.13,36,80.3,36s.65-1,1-1.75.84-2,.84-2Z"/><path class="cls-7" d="M78.8,32.57A3.7,3.7,0,0,1,78.58,34c-.3,1-.66,1.58-.53,1.64s.48-.86.69-1.58.5-1.63.5-1.63Z"/><path class="cls-7" d="M75.67,33.31a2.36,2.36,0,0,1-.16.84c-.18.52-.47,1-.39,1a1.75,1.75,0,0,0,.54-.91l.28-1Z"/><path class="cls-7" d="M85.07,32.19a4.24,4.24,0,0,0-1.13-1.08,3.51,3.51,0,0,0-1.45-.6c-.08.07.83.33,1.15.54a12.23,12.23,0,0,1,1.18,1.14Z"/><path class="cls-7" d="M82,32.1a2.91,2.91,0,0,0-.92-1.22,4.45,4.45,0,0,0-2-.8c-.2.06,1.5.49,1.88.86a4.23,4.23,0,0,1,.69,1.21Z"/><path class="cls-7" d="M79.24,32.42a6.75,6.75,0,0,0-1.39-1.09,5.58,5.58,0,0,0-1.66-.42c-.19,0,1.28.33,1.69.62a9.06,9.06,0,0,1,1,1Z"/><path class="cls-7" d="M75.67,33.23s0-.25-.74-.5-1.06-.43-.91-.43a4.31,4.31,0,0,1,.91.24,5.61,5.61,0,0,1,1.07.6Z"/><path class="cls-3" d="M91.33,46.9c3,2.19,6.91,9.14,2.29,14.85s-11.37,6-16.46,2.69a11.48,11.48,0,0,1-1.43-18.13C80.88,41.42,86.83,43.58,91.33,46.9Z"/><path class="cls-4" d="M78.84,46.08h0Z"/><path class="cls-4" d="M79.54,46.8c.35-.17.74-.53.41-.84s-.78,0-1.09.12C78.42,46.48,78.6,47.26,79.54,46.8Z"/><path class="cls-4" d="M78.86,46.08l.53-.21A.82.82,0,0,0,78.86,46.08Z"/><path class="cls-4" d="M77.9,47.61c.14-.1.32-.3.14-.44a.22.22,0,0,0-.33.07.44.44,0,0,0-.22.29C77.46,47.82,77.77,47.71,77.9,47.61Z"/><path class="cls-4" d="M80.19,47.43a.3.3,0,0,0-.33,0c-.15,0-.35.08-.38.21a.25.25,0,0,0,0,.08l0,0,0,0c0,.15.39,0,.51,0S80.46,47.57,80.19,47.43Z"/><path class="cls-4" d="M79.43,47.76h0Z"/><path class="cls-4" d="M80.92,46.64c-.15,0-.32.21-.23.36s.44.09.57,0C81.76,46.74,81.11,46.53,80.92,46.64Z"/><path class="cls-4" d="M81.55,45.72c-.1,0-.29-.06-.37,0a.12.12,0,0,0,0,.17c0,.11.18.2.25.24s.91.32,1,.06S81.74,45.74,81.55,45.72Z"/><path class="cls-4" d="M80.72,45.2c.16.08.72.06.77-.16s-.3-.28-.45-.26a.61.61,0,0,0-.24.14C80.65,45,80.54,45.1,80.72,45.2Z"/><path class="cls-4" d="M78,46.52c.29-.21,0-.33-.22-.29h0c-.13,0-.46.14-.37.32S77.89,46.61,78,46.52Z"/><path class="cls-4" d="M76.78,47.91c.11-.13.45-.67.06-.69a.22.22,0,0,0-.19.1,1.08,1.08,0,0,0-.39.53C76.11,48.35,76.6,48.12,76.78,47.91Z"/><path class="cls-4" d="M78.83,48.06a.74.74,0,0,0-.5,0,1,1,0,0,0-.66.52c-.13.51.78.14,1,.07S79.26,48.22,78.83,48.06Z"/><path class="cls-4" d="M80.36,48.47c-.15.05-.3.17-.3.29s.52.18.67.11C81.29,48.61,80.56,48.35,80.36,48.47Z"/><path class="cls-4" d="M83.94,45.59a.25.25,0,0,0-.25.1.69.69,0,0,0,1,0A.59.59,0,0,0,83.94,45.59Z"/><path class="cls-4" d="M82.47,46.93c.31.11,1.16.16,1.23-.28a.75.75,0,0,0-.68-.08C82.75,46.56,82.47,46.65,82.47,46.93Z"/><path class="cls-4" d="M83.08,44.63a.45.45,0,0,0-.62-.07.32.32,0,0,0-.15.19A.61.61,0,0,0,83.08,44.63Z"/><path class="cls-4" d="M85.39,46.46c-.62,0,.18.8.53.55S85.64,46.29,85.39,46.46Z"/><path class="cls-4" d="M76.46,49.05c-.19-.16-.36,0-.47.18-.42.27-.92.9-.52,1.06S76.45,49.39,76.46,49.05Z"/><path class="cls-4" d="M75.31,48.22c-.54.11-.29,1,.23.39C75.86,48.23,75.53,48.11,75.31,48.22Z"/><path class="cls-4" d="M78.38,49.87a.31.31,0,0,0-.2.25c.2.15.74.16.88-.11S78.56,49.56,78.38,49.87Z"/><path class="cls-4" d="M83.17,48.4l0,0a.52.52,0,0,0,0,.11c0,.06,0,.1,0,.12.11.29.73.3.61-.07S83.32,48.25,83.17,48.4Z"/><path class="cls-4" d="M88.73,47.61c-.36-.5-1.12,0-.64.16C88.36,48,89.09,48.1,88.73,47.61Z"/><path class="cls-4" d="M75.78,52.4l.08-.13a.9.9,0,0,0-.4.63c.21.06.85-.37.83-.65S76,52.13,75.78,52.4Z"/><path class="cls-4" d="M81.46,51c.08.09.14.09.21.05.26,0,.74,0,.54-.31S81.53,50.76,81.46,51Z"/><path class="cls-4" d="M73.62,50.7a.41.41,0,0,0,0,.22c.32.11,1.13,0,.86-.51S73.71,50.33,73.62,50.7Z"/><path class="cls-4" d="M74.74,49.34h0a.27.27,0,0,0-.33.27.4.4,0,0,0,.56-.22A.41.41,0,0,0,74.74,49.34Z"/><path class="cls-5" d="M75.79,60.66c-1.17.86,4.8,5.19,8.69,5a11.44,11.44,0,0,0,9.4-6c1-2.15.67-8.23-.62-7.81-.46.15.11,2.22-1.78,5.35C89.83,60,87,62.7,83.27,62.51,78.15,62.26,76.57,60.09,75.79,60.66Z"/><path class="cls-6" d="M88.61,45.6a.55.55,0,0,0-.49.84c.33.8,2.28,2.1,2.84,1.88s.58-.87-.24-1.5A4.75,4.75,0,0,0,88.61,45.6Z"/><path class="cls-6" d="M89.62,46.67s2.26-2.34,2.91-3.22a42,42,0,0,0,2.14-4.22s.2-.3.48-.25.19.47.19.47-1.57,3.23-2.21,4.12c-1.3,1.8-3,3.77-3,3.77Z"/><path class="cls-6" d="M93.57,42.26l-3.73-.47L89.7,42l1.85.3,1.86.31Z"/><path class="cls-6" d="M85.8,46.47c-3.86,1-9.55-1.77-9.55-1.77s3.8-4.43,7.06-4.77,8.93,2.27,8.93,2.27A13.5,13.5,0,0,1,85.8,46.47Z"/><path class="cls-7" d="M88.64,45.84a.8.8,0,0,0-.08.79A4.09,4.09,0,0,0,90,47.74l.09-.7s-.3-.21-.33-.38a.39.39,0,0,1,0-.27Z"/><path class="cls-7" d="M91,42.3a30.48,30.48,0,0,0-6.46.06c-3,.43-7.52,1.86-7.46,2.07s5-1.64,7.36-1.8,6.74,0,6.74,0Z"/><path class="cls-7" d="M89.47,42.41a3.52,3.52,0,0,1-.63,1.17,8.47,8.47,0,0,0-1.09,1.69A10.43,10.43,0,0,0,89,43.7c.35-.53.81-1.27.81-1.27Z"/><path class="cls-7" d="M86.47,42.43a5.29,5.29,0,0,1-.66,1.91c-.66,1.36-.93,1.76-.77,1.79s.66-1,1-1.74.85-2,.85-2Z"/><path class="cls-7" d="M83.55,42.71a3.65,3.65,0,0,1-.23,1.42c-.29,1-.66,1.57-.52,1.64s.48-.87.68-1.59.5-1.63.5-1.63Z"/><path class="cls-7" d="M80.42,43.45a2.39,2.39,0,0,1-.16.84c-.19.51-.48,1-.39,1a1.92,1.92,0,0,0,.54-.92c.13-.46.27-1,.27-1Z"/><path class="cls-7" d="M89.82,42.33a4.38,4.38,0,0,0-1.13-1.09,3.46,3.46,0,0,0-1.46-.59c-.07.07.83.32,1.15.53a12.62,12.62,0,0,1,1.19,1.14Z"/><path class="cls-7" d="M86.74,42.24A2.91,2.91,0,0,0,85.82,41a4.56,4.56,0,0,0-2.06-.8c-.19.06,1.5.49,1.88.87a4.22,4.22,0,0,1,.7,1.2Z"/><path class="cls-7" d="M84,42.55a6.6,6.6,0,0,0-1.38-1.09A6,6,0,0,0,80.94,41c-.2,0,1.27.33,1.68.62a8.6,8.6,0,0,1,1,1Z"/><path class="cls-7" d="M80.41,43.36s0-.24-.73-.5-1.06-.43-.92-.43a4.88,4.88,0,0,1,.91.24,5.66,5.66,0,0,1,1.08.61Z"/><path class="cls-3" d="M71.59,47.45c3,2.2,6.91,9.14,2.29,14.86S62.5,68.36,57.41,65A11.47,11.47,0,0,1,56,46.87C61.13,42,67.08,44.14,71.59,47.45Z"/><path class="cls-4" d="M59.1,46.64h0Z"/><path class="cls-4" d="M59.79,47.36c.35-.17.74-.53.41-.85s-.78.05-1.09.13C58.68,47,58.86,47.81,59.79,47.36Z"/><path class="cls-4" d="M59.11,46.63l.54-.21A.88.88,0,0,0,59.11,46.63Z"/><path class="cls-4" d="M58.16,48.16c.13-.09.31-.29.13-.44s-.25,0-.33.08a.43.43,0,0,0-.22.28C57.71,48.38,58,48.26,58.16,48.16Z"/><path class="cls-4" d="M60.44,48a.35.35,0,0,0-.33,0c-.15,0-.35.09-.38.21a.31.31,0,0,0,0,.09l0,0,0,0c0,.14.38,0,.5,0S60.71,48.13,60.44,48Z"/><path class="cls-4" d="M59.68,48.32h0Z"/><path class="cls-4" d="M61.18,47.2c-.15,0-.32.21-.24.36s.44.09.57,0C62,47.3,61.36,47.09,61.18,47.2Z"/><path class="cls-4" d="M61.8,46.28c-.1,0-.29-.07-.37,0a.15.15,0,0,0,0,.18c0,.11.18.2.25.24s.91.32,1,.06S62,46.3,61.8,46.28Z"/><path class="cls-4" d="M61,45.76c.16.08.72.06.77-.17s-.3-.27-.45-.25a.57.57,0,0,0-.24.13C60.9,45.55,60.79,45.66,61,45.76Z"/><path class="cls-4" d="M58.26,47.08c.29-.22,0-.34-.22-.29h0c-.13,0-.46.15-.37.33S58.14,47.16,58.26,47.08Z"/><path class="cls-4" d="M57,48.46c.11-.12.44-.67.06-.69a.3.3,0,0,0-.2.1,1.12,1.12,0,0,0-.39.54C56.37,48.91,56.85,48.68,57,48.46Z"/><path class="cls-4" d="M59.09,48.62a.71.71,0,0,0-.51,0,1,1,0,0,0-.66.51c-.13.52.78.15,1,.08S59.51,48.77,59.09,48.62Z"/><path class="cls-4" d="M60.61,49c-.14,0-.3.17-.3.29s.53.18.67.11C61.54,49.16,60.81,48.91,60.61,49Z"/><path class="cls-4" d="M64.2,46.14a.25.25,0,0,0-.25.1.68.68,0,0,0,1,0A.57.57,0,0,0,64.2,46.14Z"/><path class="cls-4" d="M62.72,47.48c.31.11,1.16.17,1.23-.27a.72.72,0,0,0-.68-.08C63,47.11,62.72,47.2,62.72,47.48Z"/><path class="cls-4" d="M63.33,45.18a.44.44,0,0,0-.62-.06.3.3,0,0,0-.15.18A.59.59,0,0,0,63.33,45.18Z"/><path class="cls-4" d="M65.65,47c-.63,0,.18.81.52.55S65.89,46.85,65.65,47Z"/><path class="cls-4" d="M56.71,49.6c-.19-.15-.35,0-.46.18-.43.27-.93.91-.53,1.06S56.7,50,56.71,49.6Z"/><path class="cls-4" d="M55.56,48.78c-.54.11-.28,1,.23.39C56.11,48.79,55.78,48.66,55.56,48.78Z"/><path class="cls-4" d="M58.63,50.43a.27.27,0,0,0-.19.25c.2.14.73.16.87-.11S58.81,50.12,58.63,50.43Z"/><path class="cls-4" d="M63.43,49l0,0a.26.26,0,0,0,0,.11s0,.1,0,.12c.11.29.73.3.61-.07S63.57,48.81,63.43,49Z"/><path class="cls-4" d="M69,48.17c-.36-.5-1.12,0-.64.16C68.62,48.53,69.34,48.66,69,48.17Z"/><path class="cls-4" d="M56,53l.07-.14a.92.92,0,0,0-.4.64c.22.06.85-.37.83-.65S56.22,52.69,56,53Z"/><path class="cls-4" d="M61.71,51.54a.16.16,0,0,0,.21.05c.26,0,.75,0,.54-.32S61.78,51.32,61.71,51.54Z"/><path class="cls-4" d="M53.87,51.26a.51.51,0,0,0,0,.22c.32.11,1.14,0,.87-.51S54,50.88,53.87,51.26Z"/><path class="cls-4" d="M55,49.9h0a.26.26,0,0,0-.33.26.39.39,0,0,0,.55-.21A.33.33,0,0,0,55,49.9Z"/><path class="cls-5" d="M56,61.22c-1.17.86,4.8,5.19,8.69,5a11.43,11.43,0,0,0,9.4-6c1-2.14.67-8.23-.61-7.8-.46.15.1,2.21-1.78,5.34-1.66,2.75-4.48,5.45-8.22,5.27C58.41,62.82,56.82,60.65,56,61.22Z"/><path class="cls-6" d="M68.86,46.16a.54.54,0,0,0-.48.83c.32.8,2.27,2.1,2.83,1.88s.58-.87-.23-1.49A4.64,4.64,0,0,0,68.86,46.16Z"/><path class="cls-6" d="M69.88,47.23s2.26-2.34,2.9-3.22a39.83,39.83,0,0,0,2.14-4.23.55.55,0,0,1,.48-.24c.28.05.2.47.2.47S74,43.23,73.38,44.12c-1.3,1.81-3,3.78-3,3.78Z"/><path class="cls-6" d="M73.82,42.82c-.14,0-3.73-.47-3.73-.47l-.14.21,1.86.31,1.85.3Z"/><path class="cls-6" d="M66.05,47c-3.86,1-9.55-1.77-9.55-1.77s3.8-4.44,7.07-4.77,8.92,2.27,8.92,2.27A13.5,13.5,0,0,1,66.05,47Z"/><path class="cls-7" d="M68.9,46.4a.81.81,0,0,0-.09.79,4.09,4.09,0,0,0,1.4,1.11l.09-.7s-.3-.21-.33-.38A.39.39,0,0,1,70,47Z"/><path class="cls-7" d="M71.23,42.85a30,30,0,0,0-6.45.07c-3,.43-7.52,1.86-7.47,2.06s4.95-1.64,7.37-1.8,6.73,0,6.73,0Z"/><path class="cls-7" d="M69.72,43a3.36,3.36,0,0,1-.63,1.18A8.79,8.79,0,0,0,68,45.82a10.21,10.21,0,0,0,1.25-1.56c.36-.53.81-1.27.81-1.27Z"/><path class="cls-7" d="M66.72,43a5.29,5.29,0,0,1-.66,1.91c-.66,1.36-.93,1.76-.76,1.79s.65-1,1-1.75.84-2,.84-2Z"/><path class="cls-7" d="M63.8,43.26a3.7,3.7,0,0,1-.22,1.42c-.3,1-.66,1.58-.53,1.64s.48-.86.69-1.59.5-1.62.5-1.62Z"/><path class="cls-7" d="M60.67,44a2.36,2.36,0,0,1-.16.84c-.18.52-.47,1-.39,1a1.75,1.75,0,0,0,.54-.91c.13-.47.27-1,.27-1Z"/><path class="cls-7" d="M70.07,42.88a4.24,4.24,0,0,0-1.13-1.08,3.48,3.48,0,0,0-1.46-.6c-.07.07.83.33,1.16.54a12.23,12.23,0,0,1,1.18,1.14Z"/><path class="cls-7" d="M67,42.79a2.85,2.85,0,0,0-.92-1.22,4.45,4.45,0,0,0-2-.8c-.2.06,1.5.49,1.88.86a4.23,4.23,0,0,1,.69,1.21Z"/><path class="cls-7" d="M64.24,43.11A6.75,6.75,0,0,0,62.85,42a5.58,5.58,0,0,0-1.66-.42c-.2,0,1.28.32,1.69.62a9.06,9.06,0,0,1,1,1Z"/><path class="cls-7" d="M60.66,43.92s0-.25-.73-.5S58.87,43,59,43a4.31,4.31,0,0,1,.91.24,6,6,0,0,1,1.07.6Z"/><path class="cls-3" d="M52.67,29.65c3,2.2,6.91,9.14,2.29,14.86S43.59,50.56,38.5,47.2a11.48,11.48,0,0,1-1.43-18.13C42.22,24.17,48.17,26.34,52.67,29.65Z"/><path class="cls-4" d="M40.18,28.84h0Z"/><path class="cls-4" d="M40.88,29.56c.35-.17.74-.53.41-.85s-.78.05-1.09.12C39.76,29.23,39.94,30,40.88,29.56Z"/><path class="cls-4" d="M40.2,28.83l.53-.21A.88.88,0,0,0,40.2,28.83Z"/><path class="cls-4" d="M39.24,30.36c.14-.09.31-.29.14-.44s-.25,0-.33.08a.41.41,0,0,0-.22.28C38.8,30.58,39.11,30.46,39.24,30.36Z"/><path class="cls-4" d="M41.53,30.18a.35.35,0,0,0-.33,0c-.16,0-.35.09-.38.21a.31.31,0,0,0,0,.09l0,0,0,0c0,.14.39,0,.51,0S41.8,30.33,41.53,30.18Z"/><path class="cls-4" d="M40.77,30.52h0Z"/><path class="cls-4" d="M42.26,29.4c-.15,0-.32.21-.23.36s.44.09.56,0C43.1,29.5,42.45,29.29,42.26,29.4Z"/><path class="cls-4" d="M42.89,28.48c-.1,0-.29-.07-.37,0a.14.14,0,0,0,0,.18c0,.11.17.2.25.23s.91.33,1,.07S43.08,28.5,42.89,28.48Z"/><path class="cls-4" d="M42.06,28c.16.08.71.06.77-.17s-.3-.27-.45-.25a.52.52,0,0,0-.24.13C42,27.75,41.88,27.86,42.06,28Z"/><path class="cls-4" d="M39.34,29.28c.29-.22,0-.34-.22-.29h0c-.13,0-.46.15-.37.33S39.23,29.36,39.34,29.28Z"/><path class="cls-4" d="M38.12,30.66c.11-.12.44-.67.06-.69a.28.28,0,0,0-.19.1,1.06,1.06,0,0,0-.39.54C37.45,31.11,37.93,30.88,38.12,30.66Z"/><path class="cls-4" d="M40.17,30.82a.68.68,0,0,0-.5,0,1,1,0,0,0-.67.51c-.12.52.79.15,1,.08S40.6,31,40.17,30.82Z"/><path class="cls-4" d="M41.7,31.22c-.15.05-.3.17-.3.29s.52.18.67.11C42.63,31.36,41.9,31.11,41.7,31.22Z"/><path class="cls-4" d="M45.28,28.34a.27.27,0,0,0-.25.1.69.69,0,0,0,1,0A.58.58,0,0,0,45.28,28.34Z"/><path class="cls-4" d="M43.81,29.68c.31.11,1.16.17,1.23-.27a.72.72,0,0,0-.68-.08C44.09,29.31,43.81,29.4,43.81,29.68Z"/><path class="cls-4" d="M44.42,27.38a.44.44,0,0,0-.62-.06.3.3,0,0,0-.15.18A.59.59,0,0,0,44.42,27.38Z"/><path class="cls-4" d="M46.73,29.21c-.62,0,.18.81.53.55S47,29.05,46.73,29.21Z"/><path class="cls-4" d="M37.8,31.8c-.19-.15-.36,0-.47.18-.42.27-.92.91-.52,1.06S37.79,32.15,37.8,31.8Z"/><path class="cls-4" d="M36.65,31c-.54.1-.29,1,.23.39C37.2,31,36.87,30.86,36.65,31Z"/><path class="cls-4" d="M39.72,32.63a.3.3,0,0,0-.2.25c.2.14.74.16.88-.11S39.9,32.32,39.72,32.63Z"/><path class="cls-4" d="M44.51,31.15l0,0a.43.43,0,0,0,0,.11c0,.05,0,.1,0,.11.11.3.73.31.61-.06S44.66,31,44.51,31.15Z"/><path class="cls-4" d="M50.07,30.37c-.36-.5-1.12,0-.65.16C49.7,30.73,50.43,30.86,50.07,30.37Z"/><path class="cls-4" d="M37.12,35.16,37.2,35a.92.92,0,0,0-.4.64c.21.05.85-.37.83-.65S37.31,34.89,37.12,35.16Z"/><path class="cls-4" d="M42.8,33.74a.16.16,0,0,0,.21,0c.26,0,.74,0,.54-.32S42.87,33.52,42.8,33.74Z"/><path class="cls-4" d="M35,33.46a.4.4,0,0,0,0,.22c.32.11,1.13,0,.86-.51S35.05,33.08,35,33.46Z"/><path class="cls-4" d="M36.08,32.1h0a.27.27,0,0,0-.33.26.4.4,0,0,0,.56-.21A.34.34,0,0,0,36.08,32.1Z"/><path class="cls-5" d="M37.13,43.42c-1.18.86,4.8,5.19,8.69,5a11.45,11.45,0,0,0,9.4-6c1-2.14.67-8.23-.62-7.8-.46.15.11,2.21-1.78,5.34-1.65,2.75-4.47,5.45-8.21,5.27C39.49,45,37.91,42.85,37.13,43.42Z"/><path class="cls-6" d="M50,28.36a.54.54,0,0,0-.49.83c.33.8,2.28,2.1,2.84,1.88s.58-.87-.24-1.49A4.57,4.57,0,0,0,50,28.36Z"/><path class="cls-6" d="M51,29.43s2.26-2.34,2.91-3.22A41.89,41.89,0,0,0,56,22a.55.55,0,0,1,.48-.24c.27.05.19.47.19.47s-1.57,3.22-2.21,4.11c-1.3,1.81-3,3.77-3,3.77Z"/><path class="cls-6" d="M54.91,25c-.14,0-3.73-.47-3.73-.47l-.14.21,1.85.31,1.85.3Z"/><path class="cls-6" d="M47.13,29.22c-3.85,1-9.54-1.76-9.54-1.76s3.8-4.44,7.06-4.77S53.58,25,53.58,25A13.44,13.44,0,0,1,47.13,29.22Z"/><path class="cls-7" d="M50,28.59a.82.82,0,0,0-.08.8,4.09,4.09,0,0,0,1.4,1.11l.09-.7s-.3-.21-.33-.39a.41.41,0,0,1,0-.27Z"/><path class="cls-7" d="M52.32,25.05a30.48,30.48,0,0,0-6.46.06c-3,.44-7.52,1.87-7.46,2.07s5-1.64,7.36-1.8,6.74,0,6.74,0Z"/><path class="cls-7" d="M50.81,25.16a3.61,3.61,0,0,1-.63,1.18A8.56,8.56,0,0,0,49.09,28a10.76,10.76,0,0,0,1.26-1.56c.35-.53.81-1.27.81-1.27Z"/><path class="cls-7" d="M47.81,25.19a5.29,5.29,0,0,1-.66,1.91c-.67,1.36-.93,1.76-.77,1.79s.66-1,1-1.75.85-2,.85-2Z"/><path class="cls-7" d="M44.89,25.46a3.63,3.63,0,0,1-.23,1.42c-.29,1-.66,1.58-.52,1.64s.48-.86.68-1.59.5-1.62.5-1.62Z"/><path class="cls-7" d="M41.76,26.2a2.36,2.36,0,0,1-.16.84c-.19.52-.48,1-.39,1a1.75,1.75,0,0,0,.53-.91c.14-.47.28-1,.28-1Z"/><path class="cls-7" d="M51.16,25.08A4.25,4.25,0,0,0,50,24a3.53,3.53,0,0,0-1.46-.6c-.08.07.83.33,1.15.54a12.62,12.62,0,0,1,1.19,1.14Z"/><path class="cls-7" d="M48.08,25a2.85,2.85,0,0,0-.92-1.22A4.44,4.44,0,0,0,45.1,23c-.19.06,1.5.49,1.88.86a4.36,4.36,0,0,1,.7,1.21Z"/><path class="cls-7" d="M45.32,25.31a6.6,6.6,0,0,0-1.38-1.09,5.66,5.66,0,0,0-1.66-.42c-.2,0,1.27.32,1.68.62a8.6,8.6,0,0,1,1,1Z"/><path class="cls-7" d="M41.75,26.12s0-.25-.73-.5-1.06-.43-.92-.43a4.57,4.57,0,0,1,.91.23,6.29,6.29,0,0,1,1.08.61Z"/><path class="cls-3" d="M26.19,45.35c-3,2.19-6.91,9.14-2.29,14.85s11.37,6,16.47,2.7a11.48,11.48,0,0,0,1.42-18.14C36.65,39.87,30.7,42,26.19,45.35Z"/><path class="cls-4" d="M38.68,44.53h0Z"/><path class="cls-4" d="M38,45.25c-.35-.17-.74-.53-.42-.84s.78,0,1.1.12C39.1,44.93,38.92,45.71,38,45.25Z"/><path class="cls-4" d="M38.66,44.53l-.53-.21A.78.78,0,0,1,38.66,44.53Z"/><path class="cls-4" d="M39.62,46.06c-.13-.1-.31-.3-.14-.44a.23.23,0,0,1,.34.07A.43.43,0,0,1,40,46C40.06,46.27,39.76,46.16,39.62,46.06Z"/><path class="cls-4" d="M37.33,45.88a.3.3,0,0,1,.33,0c.16,0,.35.08.39.21a.11.11,0,0,1,0,.08l.05,0-.05,0c0,.15-.38,0-.51,0S37.07,46,37.33,45.88Z"/><path class="cls-4" d="M38.1,46.21h0Z"/><path class="cls-4" d="M36.6,45.09c.15,0,.32.22.23.36s-.44.09-.56,0C35.77,45.19,36.41,45,36.6,45.09Z"/><path class="cls-4" d="M36,44.17c.11,0,.29-.06.37,0a.14.14,0,0,1,0,.17c0,.11-.18.2-.25.24s-.92.32-1,.06S35.79,44.2,36,44.17Z"/><path class="cls-4" d="M36.8,43.65c-.15.08-.71.06-.77-.16s.31-.28.45-.26a.5.5,0,0,1,.24.14C36.87,43.44,37,43.55,36.8,43.65Z"/><path class="cls-4" d="M39.52,45c-.29-.21,0-.33.22-.29h0c.14,0,.47.14.38.32S39.63,45.06,39.52,45Z"/><path class="cls-4" d="M40.74,46.36c-.11-.13-.44-.67-.06-.69a.23.23,0,0,1,.2.1,1.06,1.06,0,0,1,.38.53C41.41,46.8,40.93,46.57,40.74,46.36Z"/><path class="cls-4" d="M38.69,46.51a.74.74,0,0,1,.5,0,1,1,0,0,1,.67.52c.12.51-.79.14-1,.08S38.27,46.67,38.69,46.51Z"/><path class="cls-4" d="M37.17,46.92c.14,0,.3.17.29.29s-.52.18-.66.11C36.24,47.06,37,46.8,37.17,46.92Z"/><path class="cls-4" d="M33.58,44a.23.23,0,0,1,.25.1.7.7,0,0,1-1,0A.59.59,0,0,1,33.58,44Z"/><path class="cls-4" d="M35.06,45.38c-.32.11-1.17.16-1.23-.28a.75.75,0,0,1,.68-.08C34.77,45,35.05,45.1,35.06,45.38Z"/><path class="cls-4" d="M34.44,43.08a.46.46,0,0,1,.63-.07.31.31,0,0,1,.14.19A.61.61,0,0,1,34.44,43.08Z"/><path class="cls-4" d="M32.13,44.91c.63,0-.18.8-.53.55S31.88,44.74,32.13,44.91Z"/><path class="cls-4" d="M41.06,47.5c.2-.16.36,0,.47.18.42.27.93.9.53,1.06S41.07,47.85,41.06,47.5Z"/><path class="cls-4" d="M42.22,46.67c.54.11.28,1-.23.39C41.67,46.68,42,46.56,42.22,46.67Z"/><path class="cls-4" d="M39.14,48.33a.27.27,0,0,1,.2.24c-.2.15-.74.16-.87-.11S39,48,39.14,48.33Z"/><path class="cls-4" d="M34.35,46.85l0-.05a.52.52,0,0,1,0,.11c0,.06,0,.1,0,.12-.11.29-.73.3-.62-.07S34.2,46.7,34.35,46.85Z"/><path class="cls-4" d="M28.79,46.06c.37-.5,1.12,0,.65.16C29.16,46.42,28.44,46.56,28.79,46.06Z"/><path class="cls-4" d="M41.74,50.85l-.07-.13a.93.93,0,0,1,.4.63c-.22.06-.85-.36-.84-.65S41.56,50.58,41.74,50.85Z"/><path class="cls-4" d="M36.07,49.43a.16.16,0,0,1-.22,0c-.26,0-.74,0-.53-.31S36,49.21,36.07,49.43Z"/><path class="cls-4" d="M43.9,49.15a.41.41,0,0,1,0,.22c-.32.11-1.13,0-.86-.51S43.81,48.78,43.9,49.15Z"/><path class="cls-4" d="M42.79,47.79h0a.27.27,0,0,1,.33.27.39.39,0,1,1-.32-.26Z"/><path class="cls-5" d="M41.73,59.11c1.18.86-4.8,5.2-8.68,5a11.44,11.44,0,0,1-9.41-6c-1-2.15-.66-8.23.62-7.81.46.15-.1,2.22,1.78,5.35,1.65,2.74,4.48,5.45,8.21,5.26C39.37,60.71,41,58.54,41.73,59.11Z"/><path class="cls-6" d="M28.91,44.05a.55.55,0,0,1,.49.84c-.32.8-2.27,2.1-2.83,1.88s-.59-.87.23-1.5A4.86,4.86,0,0,1,28.91,44.05Z"/><path class="cls-6" d="M27.9,45.12S25.64,42.78,25,41.9a42,42,0,0,1-2.14-4.22s-.2-.3-.47-.25-.2.47-.2.47S23.76,41.13,24.4,42c1.29,1.8,3,3.77,3,3.77Z"/><path class="cls-6" d="M24,40.71l3.73-.47.13.22-1.85.3-1.85.31Z"/><path class="cls-6" d="M31.73,44.92c3.85,1,9.55-1.77,9.55-1.77s-3.81-4.43-7.07-4.77-8.93,2.27-8.93,2.27A13.42,13.42,0,0,0,31.73,44.92Z"/><path class="cls-7" d="M28.88,44.29a.82.82,0,0,1,.09.79,4.16,4.16,0,0,1-1.4,1.12l-.1-.71s.31-.2.34-.38a.39.39,0,0,0,0-.27Z"/><path class="cls-7" d="M26.54,40.75a30.51,30.51,0,0,1,6.46.06c3,.43,7.52,1.86,7.46,2.07s-4.94-1.64-7.36-1.8-6.74,0-6.74,0Z"/><path class="cls-7" d="M28.06,40.86A3.28,3.28,0,0,0,28.69,42a8.7,8.7,0,0,1,1.08,1.69,9.93,9.93,0,0,1-1.25-1.57c-.36-.53-.82-1.27-.82-1.27Z"/><path class="cls-7" d="M31.06,40.88a5,5,0,0,0,.66,1.92c.66,1.36.92,1.75.76,1.78s-.66-1-1-1.74-.85-2-.85-2Z"/><path class="cls-7" d="M34,41.16a3.65,3.65,0,0,0,.23,1.42c.3,1,.66,1.57.53,1.64s-.49-.87-.69-1.59-.5-1.63-.5-1.63Z"/><path class="cls-7" d="M37.11,41.9a2.13,2.13,0,0,0,.16.84c.18.51.47,1,.38,1a1.93,1.93,0,0,1-.53-.92l-.28-1Z"/><path class="cls-7" d="M27.7,40.78a4.38,4.38,0,0,1,1.13-1.09,3.46,3.46,0,0,1,1.46-.59c.08.07-.83.32-1.15.53A12.23,12.23,0,0,0,28,40.77Z"/><path class="cls-7" d="M30.78,40.69a2.88,2.88,0,0,1,.93-1.23,4.57,4.57,0,0,1,2-.8c.2.06-1.5.49-1.88.87a4.1,4.1,0,0,0-.69,1.2Z"/><path class="cls-7" d="M33.54,41a6.75,6.75,0,0,1,1.39-1.09,6.29,6.29,0,0,1,1.66-.42c.19,0-1.28.33-1.69.62a9.06,9.06,0,0,0-1,1Z"/><path class="cls-7" d="M37.11,41.81s0-.24.73-.5,1.07-.43.92-.43a4.88,4.88,0,0,0-.91.24,5.46,5.46,0,0,0-1.07.61Z"/><path class="cls-3" d="M55.18,47.45c3,2.2,6.91,9.14,2.29,14.86S46.09,68.36,41,65a11.47,11.47,0,0,1-1.42-18.13C44.72,42,50.67,44.14,55.18,47.45Z"/><path class="cls-4" d="M42.69,46.64h0Z"/><path class="cls-4" d="M43.38,47.36c.35-.17.74-.53.41-.85s-.77.05-1.09.13C42.27,47,42.45,47.81,43.38,47.36Z"/><path class="cls-4" d="M42.7,46.63l.54-.21A.88.88,0,0,0,42.7,46.63Z"/><path class="cls-4" d="M41.75,48.16c.13-.09.31-.29.13-.44s-.25,0-.33.08a.43.43,0,0,0-.22.28C41.3,48.38,41.61,48.26,41.75,48.16Z"/><path class="cls-4" d="M44,48a.35.35,0,0,0-.33,0c-.15,0-.35.09-.38.21a.31.31,0,0,0,0,.09l0,0,0,0c0,.14.38,0,.5,0S44.3,48.13,44,48Z"/><path class="cls-4" d="M43.27,48.32h0Z"/><path class="cls-4" d="M44.77,47.2c-.15,0-.32.21-.24.36s.44.09.57,0C45.6,47.3,45,47.09,44.77,47.2Z"/><path class="cls-4" d="M45.39,46.28c-.1,0-.29-.07-.37,0a.15.15,0,0,0,0,.18c0,.11.18.2.25.24s.91.32,1,.06S45.58,46.3,45.39,46.28Z"/><path class="cls-4" d="M44.56,45.76c.16.08.72.06.77-.17s-.3-.27-.45-.25a.57.57,0,0,0-.24.13C44.49,45.55,44.38,45.66,44.56,45.76Z"/><path class="cls-4" d="M41.85,47.08c.29-.22,0-.34-.22-.29h0c-.13,0-.46.15-.37.33S41.74,47.16,41.85,47.08Z"/><path class="cls-4" d="M40.63,48.46c.11-.12.44-.67.06-.69a.3.3,0,0,0-.2.1,1.12,1.12,0,0,0-.39.54C40,48.91,40.44,48.68,40.63,48.46Z"/><path class="cls-4" d="M42.68,48.62a.71.71,0,0,0-.51,0,1,1,0,0,0-.66.51c-.13.52.78.15,1,.08S43.1,48.77,42.68,48.62Z"/><path class="cls-4" d="M44.2,49c-.14,0-.3.17-.3.29s.53.18.67.11C45.13,49.16,44.4,48.91,44.2,49Z"/><path class="cls-4" d="M47.79,46.14a.25.25,0,0,0-.25.1.68.68,0,0,0,1,0A.57.57,0,0,0,47.79,46.14Z"/><path class="cls-4" d="M46.31,47.48c.31.11,1.16.17,1.23-.27a.72.72,0,0,0-.68-.08C46.6,47.11,46.31,47.2,46.31,47.48Z"/><path class="cls-4" d="M46.92,45.18a.44.44,0,0,0-.62-.06.3.3,0,0,0-.15.18A.59.59,0,0,0,46.92,45.18Z"/><path class="cls-4" d="M49.24,47c-.63,0,.18.81.52.55S49.48,46.85,49.24,47Z"/><path class="cls-4" d="M40.3,49.6c-.19-.15-.35,0-.46.18-.42.27-.93.91-.53,1.06S40.29,50,40.3,49.6Z"/><path class="cls-4" d="M39.15,48.78c-.54.11-.28,1,.23.39C39.7,48.79,39.37,48.66,39.15,48.78Z"/><path class="cls-4" d="M42.22,50.43a.27.27,0,0,0-.19.25c.2.14.73.16.87-.11S42.4,50.12,42.22,50.43Z"/><path class="cls-4" d="M47,49l0,0A.26.26,0,0,0,47,49s0,.1,0,.12c.11.29.73.3.61-.07S47.16,48.81,47,49Z"/><path class="cls-4" d="M52.57,48.17c-.36-.5-1.12,0-.64.16C52.21,48.53,52.93,48.66,52.57,48.17Z"/><path class="cls-4" d="M39.63,53l.07-.14a.92.92,0,0,0-.4.64c.22.06.85-.37.83-.65S39.81,52.69,39.63,53Z"/><path class="cls-4" d="M45.3,51.54a.16.16,0,0,0,.21.05c.26,0,.75,0,.54-.32S45.37,51.32,45.3,51.54Z"/><path class="cls-4" d="M37.46,51.26a.51.51,0,0,0,0,.22c.32.11,1.14,0,.87-.51S37.56,50.88,37.46,51.26Z"/><path class="cls-4" d="M38.58,49.9h0a.26.26,0,0,0-.33.26.39.39,0,0,0,.55-.21A.33.33,0,0,0,38.58,49.9Z"/><path class="cls-5" d="M39.63,61.22c-1.17.86,4.81,5.19,8.69,5a11.43,11.43,0,0,0,9.4-6c1-2.14.67-8.23-.61-7.8-.46.15.1,2.21-1.78,5.34-1.66,2.75-4.48,5.45-8.22,5.27C42,62.82,40.41,60.65,39.63,61.22Z"/><path class="cls-6" d="M52.45,46.16A.54.54,0,0,0,52,47c.32.8,2.27,2.1,2.83,1.88s.58-.87-.23-1.49A4.64,4.64,0,0,0,52.45,46.16Z"/><path class="cls-6" d="M53.47,47.23s2.26-2.34,2.9-3.22a39.83,39.83,0,0,0,2.14-4.23.55.55,0,0,1,.48-.24c.28.05.2.47.2.47S57.61,43.23,57,44.12c-1.3,1.81-3,3.78-3,3.78Z"/><path class="cls-6" d="M57.41,42.82c-.14,0-3.73-.47-3.73-.47l-.14.21,1.86.31,1.85.3Z"/><path class="cls-6" d="M49.64,47c-3.86,1-9.55-1.77-9.55-1.77s3.8-4.44,7.07-4.77,8.92,2.27,8.92,2.27A13.5,13.5,0,0,1,49.64,47Z"/><path class="cls-7" d="M52.49,46.4a.81.81,0,0,0-.09.79,4.09,4.09,0,0,0,1.4,1.11l.09-.7s-.3-.21-.33-.38a.39.39,0,0,1,0-.27Z"/><path class="cls-7" d="M54.82,42.85a30,30,0,0,0-6.45.07c-3,.43-7.52,1.86-7.47,2.06s5-1.64,7.37-1.8,6.73,0,6.73,0Z"/><path class="cls-7" d="M53.31,43a3.36,3.36,0,0,1-.63,1.18,8.79,8.79,0,0,0-1.08,1.68,10.21,10.21,0,0,0,1.25-1.56c.36-.53.81-1.27.81-1.27Z"/><path class="cls-7" d="M50.31,43a5.29,5.29,0,0,1-.66,1.91c-.66,1.36-.93,1.76-.76,1.79s.65-1,1-1.75.84-2,.84-2Z"/><path class="cls-7" d="M47.39,43.26a3.7,3.7,0,0,1-.22,1.42c-.3,1-.66,1.58-.53,1.64s.48-.86.69-1.59.5-1.62.5-1.62Z"/><path class="cls-7" d="M44.26,44a2.36,2.36,0,0,1-.16.84c-.18.52-.47,1-.39,1a1.75,1.75,0,0,0,.54-.91c.13-.47.27-1,.27-1Z"/><path class="cls-7" d="M53.66,42.88a4.24,4.24,0,0,0-1.13-1.08,3.48,3.48,0,0,0-1.46-.6c-.07.07.83.33,1.16.54a12.23,12.23,0,0,1,1.18,1.14Z"/><path class="cls-7" d="M50.58,42.79a2.85,2.85,0,0,0-.92-1.22,4.45,4.45,0,0,0-2-.8c-.2.06,1.5.49,1.88.86a4.23,4.23,0,0,1,.69,1.21Z"/><path class="cls-7" d="M47.83,43.11A6.75,6.75,0,0,0,46.44,42a5.58,5.58,0,0,0-1.66-.42c-.2,0,1.28.32,1.69.62a9.06,9.06,0,0,1,1,1Z"/><path class="cls-7" d="M44.25,43.92s0-.25-.73-.5S42.46,43,42.61,43a4.31,4.31,0,0,1,.91.24,6,6,0,0,1,1.07.6Z"/><path class="cls-3" d="M9,47.1C6,49.29,2,56.24,6.66,62S18,68,23.13,64.65a11.48,11.48,0,0,0,1.42-18.14C19.41,41.62,13.46,43.78,9,47.1Z"/><path class="cls-4" d="M21.44,46.28h0Z"/><path class="cls-4" d="M20.75,47c-.35-.17-.74-.53-.41-.84s.78,0,1.09.12C21.86,46.68,21.68,47.46,20.75,47Z"/><path class="cls-4" d="M21.43,46.28l-.54-.21A.83.83,0,0,1,21.43,46.28Z"/><path class="cls-4" d="M22.38,47.81c-.13-.1-.31-.3-.13-.44a.22.22,0,0,1,.33.07.44.44,0,0,1,.22.29C22.83,48,22.52,47.91,22.38,47.81Z"/><path class="cls-4" d="M20.1,47.63a.3.3,0,0,1,.33,0c.15,0,.35.08.38.21a.25.25,0,0,1,0,.08l0,0,0,0c-.05.15-.39,0-.51,0S19.83,47.77,20.1,47.63Z"/><path class="cls-4" d="M20.86,48h0Z"/><path class="cls-4" d="M19.36,46.84c.15,0,.32.22.24.36s-.44.09-.57,0C18.53,46.94,19.18,46.73,19.36,46.84Z"/><path class="cls-4" d="M18.74,45.92c.1,0,.29-.06.37,0a.14.14,0,0,1,0,.17c0,.11-.18.2-.25.24s-.91.32-1,.06S18.55,46,18.74,45.92Z"/><path class="cls-4" d="M19.57,45.4c-.16.08-.72.06-.77-.16s.3-.28.45-.26a.61.61,0,0,1,.24.14C19.64,45.19,19.75,45.3,19.57,45.4Z"/><path class="cls-4" d="M22.28,46.72c-.29-.21,0-.33.23-.29h0c.13,0,.46.14.37.32S22.4,46.81,22.28,46.72Z"/><path class="cls-4" d="M23.5,48.11c-.11-.13-.44-.67-.06-.69a.23.23,0,0,1,.2.1,1.15,1.15,0,0,1,.39.53C24.17,48.55,23.69,48.32,23.5,48.11Z"/><path class="cls-4" d="M21.45,48.26a.77.77,0,0,1,.51,0,1,1,0,0,1,.66.52c.13.51-.78.14-1,.07S21,48.42,21.45,48.26Z"/><path class="cls-4" d="M19.93,48.67c.14,0,.3.17.3.29s-.53.18-.67.11C19,48.81,19.73,48.55,19.93,48.67Z"/><path class="cls-4" d="M16.34,45.79a.23.23,0,0,1,.25.1.69.69,0,0,1-1,0A.57.57,0,0,1,16.34,45.79Z"/><path class="cls-4" d="M17.82,47.13c-.31.11-1.16.16-1.23-.28a.75.75,0,0,1,.68-.08C17.54,46.76,17.82,46.85,17.82,47.13Z"/><path class="cls-4" d="M17.21,44.83a.44.44,0,0,1,.62-.07A.32.32,0,0,1,18,45,.61.61,0,0,1,17.21,44.83Z"/><path class="cls-4" d="M14.89,46.66c.63,0-.18.8-.52.55S14.65,46.49,14.89,46.66Z"/><path class="cls-4" d="M23.83,49.25c.19-.16.35,0,.47.18.42.27.92.9.52,1.06S23.84,49.6,23.83,49.25Z"/><path class="cls-4" d="M25,48.42c.54.11.28,1-.23.39C24.43,48.43,24.76,48.31,25,48.42Z"/><path class="cls-4" d="M21.91,50.08a.26.26,0,0,1,.19.24c-.2.15-.73.16-.87-.11S21.73,49.76,21.91,50.08Z"/><path class="cls-4" d="M17.11,48.6l0-.05a.26.26,0,0,1,0,.11c0,.06,0,.1,0,.12-.11.29-.73.3-.61-.07S17,48.45,17.11,48.6Z"/><path class="cls-4" d="M11.56,47.81c.36-.5,1.12,0,.64.16C11.92,48.17,11.2,48.31,11.56,47.81Z"/><path class="cls-4" d="M24.5,52.6l-.07-.13a.9.9,0,0,1,.4.63c-.22.06-.85-.36-.83-.65S24.32,52.33,24.5,52.6Z"/><path class="cls-4" d="M18.83,51.18c-.08.09-.14.09-.21,0-.26,0-.74,0-.54-.31S18.76,51,18.83,51.18Z"/><path class="cls-4" d="M26.67,50.9a.53.53,0,0,1,0,.22c-.32.11-1.14,0-.87-.51S26.57,50.53,26.67,50.9Z"/><path class="cls-4" d="M25.55,49.54h0c.19,0,.32.07.33.27a.39.39,0,1,1-.32-.26Z"/><path class="cls-5" d="M24.5,60.86c1.17.86-4.8,5.2-8.69,5a11.44,11.44,0,0,1-9.4-6c-1-2.15-.67-8.23.61-7.81.46.15-.1,2.22,1.79,5.35,1.65,2.74,4.47,5.45,8.21,5.26C22.13,62.46,23.72,60.29,24.5,60.86Z"/><path class="cls-6" d="M11.68,45.8a.55.55,0,0,1,.48.84c-.32.8-2.27,2.1-2.83,1.88s-.58-.87.23-1.5A4.83,4.83,0,0,1,11.68,45.8Z"/><path class="cls-6" d="M10.66,46.87s-2.26-2.34-2.9-3.22a39.9,39.9,0,0,1-2.14-4.22s-.2-.3-.48-.25-.2.47-.2.47,1.58,3.23,2.22,4.12c1.3,1.8,3,3.77,3,3.77Z"/><path class="cls-6" d="M6.72,42.46,10.45,42l.14.22-1.86.3-1.85.31Z"/><path class="cls-6" d="M14.49,46.67c3.86,1,9.55-1.77,9.55-1.77s-3.8-4.43-7.07-4.77S8.05,42.4,8.05,42.4A13.43,13.43,0,0,0,14.49,46.67Z"/><path class="cls-7" d="M11.64,46a.82.82,0,0,1,.09.79A4.16,4.16,0,0,1,10.33,48l-.09-.71s.3-.2.33-.38a.39.39,0,0,0,0-.27Z"/><path class="cls-7" d="M9.31,42.5a30.4,30.4,0,0,1,6.45.06c3,.43,7.52,1.86,7.47,2.07s-4.95-1.64-7.37-1.8-6.73,0-6.73,0Z"/><path class="cls-7" d="M10.82,42.61a3.28,3.28,0,0,0,.63,1.17,8.7,8.7,0,0,1,1.08,1.69,10.55,10.55,0,0,1-1.25-1.57c-.35-.53-.81-1.27-.81-1.27Z"/><path class="cls-7" d="M13.82,42.63a5.29,5.29,0,0,0,.66,1.92c.66,1.36.93,1.75.76,1.78s-.65-1-1-1.74-.85-2-.85-2Z"/><path class="cls-7" d="M16.74,42.91A3.65,3.65,0,0,0,17,44.33c.29,1,.66,1.57.52,1.64s-.48-.87-.68-1.59-.5-1.63-.5-1.63Z"/><path class="cls-7" d="M19.87,43.65a2.39,2.39,0,0,0,.16.84c.18.51.47,1,.39,1a1.84,1.84,0,0,1-.54-.92c-.13-.46-.27-1-.27-1Z"/><path class="cls-7" d="M10.47,42.53a4.38,4.38,0,0,1,1.13-1.09,3.41,3.41,0,0,1,1.46-.59c.07.07-.83.32-1.15.53a11.47,11.47,0,0,0-1.19,1.14Z"/><path class="cls-7" d="M13.55,42.44a2.91,2.91,0,0,1,.92-1.23,4.57,4.57,0,0,1,2-.8c.2.06-1.5.49-1.88.87a4.1,4.1,0,0,0-.69,1.2Z"/><path class="cls-7" d="M16.31,42.75a6.6,6.6,0,0,1,1.38-1.09,6.29,6.29,0,0,1,1.66-.42c.2,0-1.27.33-1.69.62a9.06,9.06,0,0,0-1,1Z"/><path class="cls-7" d="M19.88,43.56s0-.24.73-.5,1.06-.43.91-.43a5.09,5.09,0,0,0-.91.24,5.81,5.81,0,0,0-1.07.61Z"/><path class="cls-8" d="M8.58,64.8c1.21,4.8,4.31,16.83,6.17,21.38,2.36,5.73,1.26,8.24,9,9,6.68.67,20.45.36,26.27.21,5.82.15,19.6.46,26.28-.21,7.78-.79,6.68-3.3,9-9,1.87-4.55,5.22-18.45,6.42-23.25Z"/><path class="cls-9" d="M94.06,60.58c-.63-2.28-4.19-1.78-5.9-1.7-.58,0-1.17,0-1.75,0-2.93.06-5.85.09-8.77.13-3.31,0-42.61.84-45.88,1L22,60.33c-2.87.1-5.73.2-8.6.28-.57,0-1.15,0-1.72,0-1.68,0-5.2-.33-5.71,1.93A2.32,2.32,0,0,0,7.72,65.4a14.82,14.82,0,0,0,3.39-.1C14.38,65.1,17.67,65,21,65l9.94-.24L41,64.5c1.23,0,7.54-.08,9.09-.11l8.48-.21,10.28-.26L79,63.7c3.34-.08,6.69-.18,10-.12a15.22,15.22,0,0,0,3.44-.06A2.37,2.37,0,0,0,94.06,60.58Z"/><path class="cls-10" d="M13.09,65.15c-.84-.13-1.05-1.36-1.12-2A4.39,4.39,0,0,1,12.43,61a0,0,0,0,0-.07,0,3.25,3.25,0,0,0-.53,2.72,4,4,0,0,0,.17.63A2.62,2.62,0,0,1,12,61a.06.06,0,0,0-.09-.07,2.88,2.88,0,0,0,.52,4.14h.06a.79.79,0,0,0,.6.25C13.19,65.33,13.18,65.16,13.09,65.15Z"/><path class="cls-10" d="M13.22,65a3.39,3.39,0,0,1-.1-4,.06.06,0,0,0-.09-.08,3.08,3.08,0,0,0-.79,2.07,2.88,2.88,0,0,0,.87,2.15C13.18,65.11,13.27,65,13.22,65Z"/><path class="cls-10" d="M23.13,65a5.29,5.29,0,0,1-.8-4.76.06.06,0,1,0-.11-.05c-.69,1.46-.73,4,.77,5A.1.1,0,0,0,23.13,65Z"/><path class="cls-10" d="M24,65a5.25,5.25,0,0,1-.77-4.67s-.06-.08-.08,0a4,4,0,0,0-.39,2.44c0,.15.06.32.09.49-.07-.15-.15-.31-.21-.47a3.71,3.71,0,0,1,.11-2.46.07.07,0,0,0-.12,0c-.63,1.38-.63,3.39.7,4.4l.05,0a1.93,1.93,0,0,0,.45.49C23.9,65.23,24.05,65.1,24,65Z"/><path class="cls-10" d="M36.33,64.51a6.78,6.78,0,0,1-.93-2.28,4.29,4.29,0,0,1,.21-1.95c0-.13.2-.35.17-.51a.07.07,0,0,0-.07-.06c-.52.1-.71,1.65-.7,2.06a3.32,3.32,0,0,0,1.22,2.83C36.28,64.63,36.37,64.58,36.33,64.51Z"/><path class="cls-10" d="M37.38,64.48c-.85-1.33-1.58-3-1-4.6,0-.08-.07-.11-.11-.05-.72,1.3-.48,4,.95,4.8C37.36,64.69,37.43,64.55,37.38,64.48Z"/><path class="cls-10" d="M51,61.4c-.09-.65,0-1.25,0-1.88,0-.09-.11-.09-.14,0a4.27,4.27,0,0,0,.55,4,.07.07,0,0,0,.11-.07A11.35,11.35,0,0,1,51,61.4Z"/><path class="cls-10" d="M50.94,64.28a8.93,8.93,0,0,1-.86-4.71c0-.1-.12-.11-.14,0a6,6,0,0,0,0,2.6,4.9,4.9,0,0,0,.79,2.25A.12.12,0,0,0,50.94,64.28Z"/><path class="cls-10" d="M50.51,64.47a9.68,9.68,0,0,1-.81-2.28,12,12,0,0,1,0-2.54.08.08,0,1,0-.15,0c-.29,1.51-.52,3.85.77,5C50.4,64.73,50.57,64.59,50.51,64.47Z"/><path class="cls-10" d="M59.51,60.57c0-.34.07-1.15-.16-1.41,0,0-.09,0-.09,0a6.74,6.74,0,0,0,.43,3.67c0,.06.13,0,.12,0C59.72,62.07,59.57,61.33,59.51,60.57Z"/><path class="cls-10" d="M60.51,61.52c0-.78.05-1.56,0-2.33a.08.08,0,0,0-.16,0A9.28,9.28,0,0,0,60.65,64c0,.06.11,0,.1,0C60.7,63.18,60.56,62.35,60.51,61.52Z"/><path class="cls-10" d="M59.92,61.32c-.06-.65,0-1.31,0-2,0-.08-.13-.07-.15,0a6.23,6.23,0,0,0,.44,4.15s.1,0,.09,0A13,13,0,0,1,59.92,61.32Z"/><path class="cls-10" d="M68.36,61.46a15.62,15.62,0,0,0,0-2.37c0-.09-.16-.1-.17,0-.13,1.51-.5,3.72.56,5a.12.12,0,0,0,.2-.12A10.29,10.29,0,0,1,68.36,61.46Z"/><path class="cls-10" d="M69.13,61.69c-.07-.84.09-1.65.08-2.48,0-.11-.15-.09-.17,0-.33,1.37-.73,3.79.43,4.91.07.07.22,0,.2-.12A12.93,12.93,0,0,1,69.13,61.69Z"/><path class="cls-10" d="M81.2,61.71c0-.87-.21-2.4-1-2.94a.06.06,0,0,0-.09.07,9.11,9.11,0,0,1,.62,2.62c.08.74-.28,1.53-.17,2.22,0,.07.1.14.17.1C81.33,63.45,81.21,62.28,81.2,61.71Z"/><path class="cls-10" d="M81.25,58.85a.1.1,0,0,0-.18.1,7,7,0,0,1,.38,4.49c0,.07.06.14.11.07A4.14,4.14,0,0,0,81.25,58.85Z"/><path class="cls-10" d="M91.55,60.55a2.78,2.78,0,0,0-.77-2c-.09-.07-.2,0-.14.14.87,1.32.61,3.21.42,4.67a.15.15,0,0,0,.29.08A7.09,7.09,0,0,0,91.55,60.55Z"/><path class="cls-10" d="M90.44,58.58a.09.09,0,0,0-.16.09A12.12,12.12,0,0,1,90.74,60a10.43,10.43,0,0,1,.12,1.48.15.15,0,0,0,.3,0A3.81,3.81,0,0,0,90.44,58.58Z"/><path class="cls-11" d="M94.06,60.58a2,2,0,0,0-.71-1.07A2.09,2.09,0,0,1,92,60.62a15.46,15.46,0,0,1-3.4.05c-3.3-.05-6.61,0-9.91.12l-10,.22-10.15.25-8.37.2c-1.53,0-7.75.09-9,.11l-10,.22-9.8.23c-3.24.08-6.49.14-9.72.34a14.94,14.94,0,0,1-3.34.1,2.05,2.05,0,0,1-1.47-1.13A2,2,0,0,0,6,62.59,2.32,2.32,0,0,0,7.72,65.4a14.82,14.82,0,0,0,3.39-.1C14.38,65.1,17.67,65,21,65l9.94-.24L41,64.5c1.23,0,7.54-.08,9.09-.11l8.48-.21,10.28-.26L79,63.7c3.34-.08,6.69-.18,10-.12a15.22,15.22,0,0,0,3.44-.06A2.37,2.37,0,0,0,94.06,60.58Z"/><path class="cls-11" d="M81.11,62.75,70.24,63l-11,.27-9.11.22c-1.67,0-8.44.1-9.77.12l-10.84.24-10.68.26c-3.52.09-7,.15-10.57.37-.57,0-1.16.11-1.75.15a2,2,0,0,0,1.25.77,14.82,14.82,0,0,0,3.39-.1C14.38,65.1,17.67,65,21,65l9.94-.24L41,64.5c1.23,0,7.54-.08,9.09-.11l8.48-.21,10.28-.26L79,63.7c3.34-.08,6.69-.18,10-.12a15.22,15.22,0,0,0,3.44-.06,2,2,0,0,0,1.22-.82c-.6,0-1.2-.07-1.78-.07C88.3,62.57,84.71,62.67,81.11,62.75Z"/><g class="cls-12"><path class="cls-13" d="M8.77,61.12a3.06,3.06,0,0,0-1.27.14.16.16,0,0,0,0,.32,4.19,4.19,0,0,0,.5,0,6.48,6.48,0,0,0,.77-.09A.17.17,0,0,0,8.77,61.12Z"/><path class="cls-13" d="M10.11,60.94a1.1,1.1,0,0,0-.54,0,.16.16,0,0,0,0,.31,1.1,1.1,0,0,0,.54,0A.16.16,0,0,0,10.11,60.94Z"/><path class="cls-13" d="M21.45,60.73a26.2,26.2,0,0,0-4.06,0,20.78,20.78,0,0,0-3.7.21.06.06,0,0,0,0,.11,18.28,18.28,0,0,0,3.47.07A35.87,35.87,0,0,0,21.44,61,.14.14,0,0,0,21.45,60.73Z"/><path class="cls-13" d="M33.56,60.54a21.18,21.18,0,0,0-4.21.05c-1.69,0-3.36,0-5,.15-.07,0-.07.12,0,.13,1.56.09,3.14.17,4.71.19a21.5,21.5,0,0,0,4.54-.18A.17.17,0,0,0,33.56,60.54Z"/><path class="cls-13" d="M48.84,60a37.69,37.69,0,0,0-5.52.06,32.49,32.49,0,0,0-5.41.3c-.08,0-.09.15,0,.15,1.72,0,3.4.1,5.12,0a46.88,46.88,0,0,0,5.81-.21A.18.18,0,0,0,48.84,60Z"/><path class="cls-13" d="M57.73,59.91a24.87,24.87,0,0,0-2.59,0c-.89,0-1.81.16-2.69.14a.07.07,0,0,0,0,.14,12.16,12.16,0,0,0,2.34.07,22.48,22.48,0,0,0,3,0A.15.15,0,0,0,57.73,59.91Z"/><path class="cls-13" d="M67.39,59.84c-1.85-.34-3.75.06-5.6,0-.07,0-.08.08,0,.1a14.53,14.53,0,0,0,2.8.14,13.89,13.89,0,0,0,2.81,0A.12.12,0,0,0,67.39,59.84Z"/><path class="cls-13" d="M78.09,59.67c-2.74-.3-5.49,0-8.24-.08-.18,0-.22.27,0,.29a23.73,23.73,0,0,0,3.77.13c1.5-.1,3,0,4.51-.15A.1.1,0,0,0,78.09,59.67Z"/><path class="cls-13" d="M80.08,59.62a1.63,1.63,0,0,0-1.15-.13c-.16,0-.18.29,0,.3a4.93,4.93,0,0,0,1.08.09C80.12,59.86,80.2,59.69,80.08,59.62Z"/><path class="cls-13" d="M89,59.18a30.18,30.18,0,0,0-6.23.16s-.05.08,0,.08a32.42,32.42,0,0,0,6.23,0A.11.11,0,0,0,89,59.18Z"/><path class="cls-13" d="M92.8,59.32a1.51,1.51,0,0,0-.93-.19c-.14,0-.13.22,0,.24.29,0,.55.14.84.16C92.82,59.53,92.91,59.39,92.8,59.32Z"/></g><path class="cls-10" d="M14,74.72a21.05,21.05,0,0,1-.83-3.09,23.13,23.13,0,0,1-.09-3c0-.12-.16-.1-.19,0a10.19,10.19,0,0,0,.8,6.22C13.73,75,14,74.91,14,74.72Z"/><path class="cls-10" d="M16.44,75.47a11.68,11.68,0,0,1-1.17-3,21.74,21.74,0,0,1-.18-3.13c0-.16-.27-.16-.29,0-.17,2.21-.18,4.53,1.35,6.32C16.27,75.77,16.53,75.64,16.44,75.47Z"/><path class="cls-10" d="M18.52,74.45a17.92,17.92,0,0,1-.84-2.6,16.78,16.78,0,0,1-.15-3,.14.14,0,0,0-.28,0,8.51,8.51,0,0,0,1,5.77C18.36,74.76,18.58,74.61,18.52,74.45Z"/><path class="cls-10" d="M18.7,89.34a17.89,17.89,0,0,1-1.26-5,.08.08,0,1,0-.15,0,10.77,10.77,0,0,0,1.21,5.07C18.57,89.57,18.76,89.46,18.7,89.34Z"/><path class="cls-10" d="M20.9,88.88a18,18,0,0,1-1-3.11,9.16,9.16,0,0,0-.46-2.34.12.12,0,0,0-.22.06c.16.87.22,1.77.37,2.65A9.71,9.71,0,0,0,20.62,89,.15.15,0,0,0,20.9,88.88Z"/><path class="cls-10" d="M23.3,89.41A17.36,17.36,0,0,1,22,83.9c0-.17-.31-.18-.32,0a11.2,11.2,0,0,0,1.24,5.66C23.06,89.77,23.4,89.64,23.3,89.41Z"/><path class="cls-10" d="M24.79,82.47a10.34,10.34,0,0,1-1.15-2.89,32.81,32.81,0,0,1-.44-3.43c0-.12-.21-.13-.22,0a10.09,10.09,0,0,0,1.53,6.48C24.62,82.78,24.88,82.63,24.79,82.47Z"/><path class="cls-10" d="M26.6,82.81a25.48,25.48,0,0,1-1-3.29c-.2-1-.26-2.1-.44-3.15a.12.12,0,0,0-.24,0c.26,2.3.37,4.41,1.46,6.5A.12.12,0,0,0,26.6,82.81Z"/><path class="cls-10" d="M28.79,81.63a29.18,29.18,0,0,1-1-4.09.11.11,0,0,0-.21,0,9.51,9.51,0,0,0,1,4.21A.15.15,0,0,0,28.79,81.63Z"/><path class="cls-10" d="M29,76.43a22.06,22.06,0,0,1-.67-2.54c-.15-1-.25-2.1-.38-3.14a.13.13,0,0,0-.26,0,15.07,15.07,0,0,0,1,5.73C28.75,76.65,29,76.6,29,76.43Z"/><path class="cls-10" d="M31.59,76.48a15.67,15.67,0,0,1-1.08-3.06A18.84,18.84,0,0,0,30,70.85a.09.09,0,0,0-.18.05c.37,2,.3,4,1.47,5.76A.18.18,0,0,0,31.59,76.48Z"/><path class="cls-10" d="M32.73,70.83a.07.07,0,0,0-.14,0,43.12,43.12,0,0,0,1,5.15c0,.14.28.08.25-.07C33.58,74.24,33.21,72.5,32.73,70.83Z"/><path class="cls-10" d="M43.1,80.25a.1.1,0,0,0-.19,0,11,11,0,0,0,.2,5.13c0,.18.36.1.32-.09A16.54,16.54,0,0,1,43.1,80.25Z"/><path class="cls-10" d="M44.85,80.47c0-.18-.32-.18-.33,0a15.61,15.61,0,0,0,.61,5.81.15.15,0,0,0,.29-.08A44,44,0,0,1,44.85,80.47Z"/><path class="cls-10" d="M48.85,85.54a22,22,0,0,1-1.15-5.68c0-.18-.27-.13-.27,0a12.79,12.79,0,0,0,1.11,5.77A.17.17,0,0,0,48.85,85.54Z"/><path class="cls-10" d="M50.24,74c0-.09-.17-.09-.17,0a26.94,26.94,0,0,0,.33,6.53.14.14,0,0,0,.28,0A64.3,64.3,0,0,1,50.24,74Z"/><path class="cls-10" d="M52.73,73.43c0-.15-.2-.17-.23,0a13.72,13.72,0,0,0-.09,6.34.14.14,0,0,0,.27,0A29.21,29.21,0,0,1,52.73,73.43Z"/><path class="cls-10" d="M55.11,76.33c-.08-1.16,0-2.33,0-3.48,0-.15-.23-.14-.25,0a13.55,13.55,0,0,0,.66,7.25A.15.15,0,0,0,55.8,80,35.76,35.76,0,0,1,55.11,76.33Z"/><path class="cls-10" d="M66.1,81c.1-1.17.39-2.34.56-3.51a.11.11,0,0,0-.22,0c-.58,2.45-1.19,4.82-.57,7.32a.2.2,0,0,0,.39-.05A17.25,17.25,0,0,1,66.1,81Z"/><path class="cls-10" d="M68.5,78.61a.14.14,0,0,0-.28,0A18.06,18.06,0,0,0,68,85.2a.15.15,0,0,0,.3,0A41,41,0,0,1,68.5,78.61Z"/><path class="cls-10" d="M71.46,80.7a26.8,26.8,0,0,0,.14-3.1c0-.13-.21-.1-.21,0,0,1.12-.29,2.26-.36,3.38a13.39,13.39,0,0,0,.15,3.35.16.16,0,0,0,.31,0C71.45,83.11,71.42,81.91,71.46,80.7Z"/><path class="cls-10" d="M81.44,77.91a16.32,16.32,0,0,0-.88,6.61.12.12,0,0,0,.24,0c.08-1.1.07-2.2.21-3.3s.54-2.18.6-3.27C81.61,77.86,81.47,77.81,81.44,77.91Z"/><path class="cls-10" d="M83.59,78.25c-.37,2.37-1,4.69-.74,7.12,0,.21.37.22.38,0a36.28,36.28,0,0,1,.2-3.76c.12-1.11.39-2.21.42-3.33A.13.13,0,0,0,83.59,78.25Z"/><path class="cls-10" d="M72.56,88.54c0-.78.16-1.56.18-2.34a.08.08,0,0,0-.15,0,6.36,6.36,0,0,0-.34,2.34,9.43,9.43,0,0,0,.23,2.75c0,.18.32.15.29,0A14,14,0,0,1,72.56,88.54Z"/><path class="cls-10" d="M74.89,86.39c0-.11-.14-.14-.19,0a8,8,0,0,0-.07,5.07.14.14,0,0,0,.27-.07A12.5,12.5,0,0,1,74.89,86.39Z"/><path class="cls-10" d="M77.39,86.46a.11.11,0,0,0-.22,0,17.2,17.2,0,0,0,.1,4.7.18.18,0,0,0,.35,0C77.44,89.57,77.59,88,77.39,86.46Z"/><path class="cls-10" d="M74.31,73.31c.07-1,.31-1.9.47-2.86a.08.08,0,0,0-.16,0c-.49,2.09-1,4.08-.29,6.2,0,.12.24.06.22-.06A13.75,13.75,0,0,1,74.31,73.31Z"/><path class="cls-10" d="M77.19,73.35c0-.88.18-1.75.18-2.64,0-.13-.23-.13-.23,0-.15,2.12-.67,4.16,0,6.26.05.19.34.1.32-.09A19.76,19.76,0,0,1,77.19,73.35Z"/><path class="cls-10" d="M80.3,70.81c0-.17-.26-.21-.27,0-.11,2.08-.76,4.14-.37,6.24A.15.15,0,0,0,80,77,60.43,60.43,0,0,1,80.3,70.81Z"/><path class="cls-10" d="M31.92,65.75a19.22,19.22,0,0,1-5.35.46c-.09,0-.1.12,0,.14A9.84,9.84,0,0,0,32,66.07C32.18,66,32.11,65.71,31.92,65.75Z"/><path class="cls-10" d="M32.72,67.6c-1.91.38-4.16,1-6.12.51-.07,0-.1.1,0,.13a6.28,6.28,0,0,0,2.66.33,9.64,9.64,0,0,0,3.57-.68C33,67.82,32.89,67.56,32.72,67.6Z"/><path class="cls-10" d="M26.3,70.58a13.61,13.61,0,0,1-5.05.1c-.07,0-.11.1,0,.13a7.29,7.29,0,0,0,5.16.09C26.55,70.82,26.49,70.54,26.3,70.58Z"/><path class="cls-10" d="M26.63,73.09a21.23,21.23,0,0,1-5.1.14c-.09,0-.13.13,0,.15a9.81,9.81,0,0,0,5.24.08C27,73.4,26.84,73.06,26.63,73.09Z"/><path class="cls-10" d="M26.45,75.31a17.74,17.74,0,0,1-4.77-.12c-.09,0-.12.12,0,.15a7.28,7.28,0,0,0,4.89.24C26.69,75.53,26.61,75.3,26.45,75.31Z"/><path class="cls-10" d="M35.28,77a23,23,0,0,1-6.13.73c-.2,0-.25.3,0,.32a14,14,0,0,0,6.27-.7A.18.18,0,0,0,35.28,77Z"/><path class="cls-10" d="M34.73,79.88a18.73,18.73,0,0,1-5.49.24.14.14,0,0,0-.07.26,9.83,9.83,0,0,0,5.66-.13A.19.19,0,0,0,34.73,79.88Z"/><path class="cls-10" d="M34.55,82.58c-1.5.31-3.34,1-4.88.68a.12.12,0,0,0-.06.22c1.48.51,3.62,0,5-.49A.22.22,0,0,0,34.55,82.58Z"/><path class="cls-10" d="M29.4,84.4c-1.88,0-3.76.34-5.64-.08-.07,0-.1.09,0,.12a9.79,9.79,0,0,0,5.67.29C29.56,84.69,29.61,84.4,29.4,84.4Z"/><path class="cls-10" d="M29.9,86.07a21.23,21.23,0,0,1-5.34.2c-.13,0-.15.17,0,.2a12.7,12.7,0,0,0,5.42,0A.21.21,0,0,0,29.9,86.07Z"/><path class="cls-10" d="M29.85,87.87a16,16,0,0,1-5.38.45c-.11,0-.16.16,0,.19a9.09,9.09,0,0,0,5.5-.36C30.08,88.1,30,87.85,29.85,87.87Z"/><path class="cls-10" d="M20.25,76.93c-2,0-4,.48-6,.23-.12,0-.14.16,0,.19a12.8,12.8,0,0,0,6.12-.15C20.49,77.16,20.39,76.93,20.25,76.93Z"/><path class="cls-10" d="M20,79.71c-1.55-.21-3.1-.18-4.65-.32a.1.1,0,0,0,0,.2A31.37,31.37,0,0,0,20,80C20.16,80,20.2,79.73,20,79.71Z"/><path class="cls-10" d="M20.37,82.08a26.63,26.63,0,0,1-4.64.12.13.13,0,0,0,0,.26,9.11,9.11,0,0,0,4.75-.13A.13.13,0,0,0,20.37,82.08Z"/><path class="cls-10" d="M47.74,75.26c-2.16.07-4.27.15-6.43,0a.08.08,0,0,0,0,.16,17.43,17.43,0,0,0,6.48,0A.13.13,0,0,0,47.74,75.26Z"/><path class="cls-10" d="M49,77.45c-1.38,0-2.76.18-4.15.23a33.56,33.56,0,0,1-3.87-.2.09.09,0,0,0,0,.18,22.39,22.39,0,0,0,8.08.08A.15.15,0,0,0,49,77.45Z"/><path class="cls-10" d="M48.2,79.36a39,39,0,0,1-7.4.14.08.08,0,0,0,0,.16,13.44,13.44,0,0,0,3.23.21,23.84,23.84,0,0,0,4.22-.31A.1.1,0,0,0,48.2,79.36Z"/><path class="cls-10" d="M55,68.18c-1,0-1.89.1-2.85.08s-1.81-.16-2.69-.26a.06.06,0,0,0,0,.12,13.08,13.08,0,0,0,5.56.36C55.11,68.44,55.13,68.18,55,68.18Z"/><path class="cls-10" d="M54.82,69.79a21.65,21.65,0,0,1-5.63-.21c-.08,0-.12.12,0,.16a11.13,11.13,0,0,0,5.7.28A.12.12,0,0,0,54.82,69.79Z"/><path class="cls-10" d="M55.3,71.26a19.61,19.61,0,0,1-7.44.26c-.09,0-.1.1,0,.12a14.09,14.09,0,0,0,7.54-.09C55.54,71.5,55.46,71.23,55.3,71.26Z"/><path class="cls-10" d="M72.87,71.5a21.92,21.92,0,0,1-4,.16,25.57,25.57,0,0,1-3.48-.6.1.1,0,0,0-.06.19,12.78,12.78,0,0,0,7.56.57A.16.16,0,0,0,72.87,71.5Z"/><path class="cls-10" d="M72.09,73.83A20.54,20.54,0,0,1,66,73.57c-.1,0-.14.15,0,.18a11.27,11.27,0,0,0,6.14.42A.17.17,0,0,0,72.09,73.83Z"/><path class="cls-10" d="M73.16,75.89a15.33,15.33,0,0,1-7.67.36c-.18,0-.2.23,0,.27a12.2,12.2,0,0,0,7.85-.31C73.5,76.12,73.37,75.83,73.16,75.89Z"/><path class="cls-10" d="M87.5,70.63a38.5,38.5,0,0,1-5.26-.21c-.12,0-.14.16,0,.19A19.06,19.06,0,0,0,87.5,71C87.7,71,87.7,70.63,87.5,70.63Z"/><path class="cls-10" d="M86.34,72.72a14.52,14.52,0,0,1-4,.07.11.11,0,0,0,0,.22,9.9,9.9,0,0,0,4,0A.16.16,0,0,0,86.34,72.72Z"/><path class="cls-10" d="M85.86,75.46a10.55,10.55,0,0,1-4.43.33c-.11,0-.16.15-.05.19a6.3,6.3,0,0,0,4.56-.21C86.1,75.7,86,75.43,85.86,75.46Z"/><path class="cls-10" d="M79.05,77.92a23.7,23.7,0,0,1-5.19,0c-.1,0-.15.15,0,.18a9.16,9.16,0,0,0,2.45.26,15.73,15.73,0,0,0,2.83-.1A.18.18,0,0,0,79.05,77.92Z"/><path class="cls-10" d="M78.58,81a31.44,31.44,0,0,1-5.57-.5c-.15,0-.21.21-.07.25a17,17,0,0,0,5.64.6C78.78,81.38,78.78,81,78.58,81Z"/><path class="cls-10" d="M78.43,84.13A16.85,16.85,0,0,1,73,83.75a.13.13,0,0,0-.07.25,11.67,11.67,0,0,0,5.56.49A.18.18,0,0,0,78.43,84.13Z"/><g class="cls-14"><path class="cls-8" d="M54.67,68.63c.25,0,.5.37.24.58a3.7,3.7,0,0,1-2.15.49,7.84,7.84,0,0,1-2.84-.46.3.3,0,0,1-.14-.1c-.34-.13-.16-.69.24-.63a16.43,16.43,0,0,0,2.8.22A14.34,14.34,0,0,1,54.67,68.63Z"/><path class="cls-8" d="M52.08,80.09a.31.31,0,0,1-.13.36.33.33,0,0,1-.6.06,8,8,0,0,1-.8-4.15c0-.69,0-2.18.77-2.49a.37.37,0,0,1,.33.09c.38.33.26,1.1.2,1.54A10.77,10.77,0,0,0,52.08,80.09Z"/><path class="cls-8" d="M50.14,71.42c-.53,0-1.42-.34-1.58-.93-.21-.23.1-.67.44-.5,1.61.78,3.64.57,5.36.42.39,0,.45.56.09.66A12.77,12.77,0,0,1,50.14,71.42Z"/><path class="cls-8" d="M53.72,73.52a.34.34,0,0,1,.56.15,3,3,0,0,1-.18,1.86,7.78,7.78,0,0,0,0,2.68c.14.65.41,1.22.57,1.85a.34.34,0,0,1-.5.38c-1.06-.47-1.37-2.09-1.4-3.12S52.8,74.33,53.72,73.52Z"/><path class="cls-8" d="M32.4,72.68c.06.7.13,1.39.24,2.09a1.89,1.89,0,0,1-.06,1,.34.34,0,0,1-.49.2c-1-.64-1.11-2.35-1.15-3.49s0-2,.68-1.88S32.35,72.15,32.4,72.68Z"/><path class="cls-8" d="M33.67,79.57a9.37,9.37,0,0,1-4-.17.34.34,0,0,1-.18-.1.62.62,0,0,1-.14-.14.43.43,0,0,1,.12-.54.1.1,0,0,1,.05,0,.27.27,0,0,1,.28-.16,16.08,16.08,0,0,0,2.86-.14c.84-.09,1.58-.38,2.39-.5a.35.35,0,0,1,.43.32C35.56,79,34.4,79.41,33.67,79.57Z"/><path class="cls-8" d="M35,81.09c-.72,2-4.05,1.7-5.34.57a.33.33,0,0,1,.05-.51.31.31,0,0,1,.4-.27,6.55,6.55,0,0,0,2.82.14c.45-.06,1.48-.59,1.91-.31A.34.34,0,0,1,35,81.09Z"/><path class="cls-8" d="M28.49,73.08c0-.66-.2-1.63.33-2.13a.33.33,0,0,1,.41,0c.57.38.4,1.47.46,2,.1.92.64,1.92.48,2.83a.29.29,0,0,1-.28.24.26.26,0,0,1-.36-.07A5.05,5.05,0,0,1,28.49,73.08Z"/><path class="cls-8" d="M27,66.64a9.4,9.4,0,0,0,2.85.21,9.42,9.42,0,0,1,1.83-.11.34.34,0,0,1,.15.56,4.48,4.48,0,0,1-3.22.71,3,3,0,0,1-1.93-.74.32.32,0,0,1-.06-.15A.33.33,0,0,1,27,66.64Z"/><path class="cls-8" d="M27.51,82.27c-1.54.42-1.77-4.42-1.68-5.12a.35.35,0,0,1,.33-.31.32.32,0,0,1,.51-.06,1.31,1.31,0,0,1,.39.91,13.79,13.79,0,0,0,.46,2.47C27.66,80.58,28.32,82.05,27.51,82.27Z"/><path class="cls-8" d="M26.74,74.39a1.51,1.51,0,0,1-1,.7,4.25,4.25,0,0,1-4.12-.7.32.32,0,0,1,.16-.55.27.27,0,0,1,.28-.06,11.39,11.39,0,0,0,4.43.11C26.71,73.85,26.85,74.19,26.74,74.39Z"/><path class="cls-8" d="M26.2,72.23a4.92,4.92,0,0,1-4.56.46c-.29-.15-.77-.6-.3-.88h0a.37.37,0,0,1,.42-.33,27.67,27.67,0,0,0,4.27.14A.33.33,0,0,1,26.2,72.23Z"/><path class="cls-8" d="M20.38,77.77a.34.34,0,0,1,.34.33c.1,1.3-2.17,1.18-2.94,1.14-.6,0-2.51,0-2.83-.77a.34.34,0,0,1,.28-.6C17,78.28,18.66,77.76,20.38,77.77Z"/><path class="cls-8" d="M15.48,69.84a.18.18,0,0,1,.06-.09,1.17,1.17,0,0,1,.15-.27.68.68,0,0,1,.43-.31.25.25,0,0,1,.39.11,3.27,3.27,0,0,1,.14,1.21A18.43,18.43,0,0,0,17,72.57c.09.36.5,1.38.12,1.7s-.62.13-.88-.18A4.53,4.53,0,0,1,15.48,69.84Z"/><path class="cls-8" d="M13.92,74.09c-.36-.34-.42-1.18-.5-1.64a7.28,7.28,0,0,1,0-2.55.14.14,0,0,1,0-.06.91.91,0,0,1,.44-.71c.73-.38.71,2.88.72,3.12S14.82,75,13.92,74.09Z"/><path class="cls-8" d="M19.87,89a.34.34,0,0,1-.57.24c-.92-.93-1.12-2.43-1.31-3.74,0-.17-.06-.35-.08-.53,0,0,0,0,0-.08v-.06c0-.51.1-.92.57-.92.74,0,.69,1.25.76,1.7A15.46,15.46,0,0,1,19.87,89Z"/><path class="cls-8" d="M19.91,81.48c-1.24.79-5,.7-5.6-.94a.31.31,0,0,1,.14-.36c0-.22.13-.47.4-.36,1.55.61,3.16.26,4.76.49C20.28,80.4,20.58,81.06,19.91,81.48Z"/><path class="cls-8" d="M21.35,88.82a6.64,6.64,0,0,1-1.2-4.17,2.93,2.93,0,0,1,.11-.9c.11-.39.45-.89.93-.61s.3,1,.3,1.51a10,10,0,0,0,.18,2.62,5.41,5.41,0,0,1,.25,1.31A.34.34,0,0,1,21.35,88.82Z"/><path class="cls-8" d="M23.83,77.06a.49.49,0,0,1,.69-.13,2.63,2.63,0,0,1,.31,1.47c.07,1,.39,2,.51,2.95.05.34-.47.44-.62.17A7.11,7.11,0,0,1,23.83,77.06Z"/><path class="cls-8" d="M24.52,84.83c1.23.62,2.7.16,4,.31.23,0,.45.27.29.51-.49.7-1.44.54-2.2.54s-1.95,0-2.48-.76a.26.26,0,0,1,0-.08C23.86,85.12,24.17,84.66,24.52,84.83Z"/><path class="cls-8" d="M24.07,87.14a.34.34,0,0,1,.42-.41l.19.07a.33.33,0,0,1,.22,0,21,21,0,0,0,3.8.3.34.34,0,0,1,.24.57c-.69.7-2.07.54-3,.48S24.38,88,24.07,87.14Z"/><path class="cls-8" d="M70.38,84c0,.34.06.91-.44.91s-.85-.79-1-1.14a5.67,5.67,0,0,1-.29-3.16,7.19,7.19,0,0,1,.43-1.76c.17-.44.51-1.36,1.14-1.29a.49.49,0,0,1,.38.34,2.24,2.24,0,0,1,.13.92l-.09.54c-.08.54-.15,1.09-.21,1.63a13.57,13.57,0,0,0-.09,1.91C70.32,83.3,70.35,83.67,70.38,84Z"/><path class="cls-8" d="M69.15,76.25c-1.08,0-3.5,0-3.7-1.49a.36.36,0,0,1,.12-.34.31.31,0,0,1,.41-.28,10.34,10.34,0,0,0,3.66.65,11.11,11.11,0,0,1,2.21-.18.32.32,0,0,1,.24.32C72,76.29,70.1,76.25,69.15,76.25Z"/><path class="cls-8" d="M67.48,83.62l.06,1a.34.34,0,0,1-.58.24,4.6,4.6,0,0,1-.58-3.61c.15-.86.16-2.5.89-3.11a.34.34,0,0,1,.57.24,11.7,11.7,0,0,1-.28,1.84,2.83,2.83,0,0,0,0,.29c0,.47-.1.94-.11,1.4A16.66,16.66,0,0,0,67.48,83.62Z"/><path class="cls-8" d="M69.36,73.65c-1.13-.05-2.57-.14-3.35-1.1a.27.27,0,0,1-.07-.14c-.18-.23,0-.65.33-.53a10.18,10.18,0,0,0,3.37.6,23.73,23.73,0,0,0,2.67-.32c.27,0,.39.3.29.5C72,73.77,70.42,73.71,69.36,73.65Z"/><path class="cls-8" d="M73.7,91.55a3.63,3.63,0,0,1-1-3.15c.07-.77.11-2.15.87-2.6a.35.35,0,0,1,.5.2,3.11,3.11,0,0,1,0,.61.32.32,0,0,1,.08.29A6.72,6.72,0,0,0,74,89.54a6.6,6.6,0,0,1,.23,1.72C74.2,91.49,73.92,91.72,73.7,91.55Z"/><path class="cls-8" d="M76.7,89.84a4.75,4.75,0,0,1,0,1.19c-.09.31-.33.67-.71.48C75,91,74.81,88.64,74.92,87.68a3.23,3.23,0,0,1,.88-2.2.51.51,0,0,1,.79.11A3.13,3.13,0,0,1,76.82,87a.31.31,0,0,1,0,.19A14.46,14.46,0,0,0,76.7,89.84Z"/><path class="cls-8" d="M77.19,83.52a6.42,6.42,0,0,1-3.31-.47c-1-.26-1.79-.72-1.18-1.43a.33.33,0,0,1,.33-.08l.43.15a10.63,10.63,0,0,0,2.65.23,15.68,15.68,0,0,1,2.65,0,.33.33,0,0,1,.24.23C79.17,83,77.83,83.38,77.19,83.52Z"/><path class="cls-8" d="M77.23,80.57a6.73,6.73,0,0,1-4-1.16.27.27,0,0,1-.09-.3.33.33,0,0,1,.38-.48,13.47,13.47,0,0,0,3.3.27c.86,0,1.77-.11,2.61,0a.34.34,0,0,1,.24.33C79.68,80.27,78,80.59,77.23,80.57Z"/><path class="cls-8" d="M76.5,75.31c.09.42.12,1.13-.41,1.28-1.23.34-1.48-2.73-1.48-3.33s.32-3.8,1.61-3.05a.73.73,0,0,1,.36.62.28.28,0,0,1,.13.36A7.79,7.79,0,0,0,76.5,75.31Z"/><path class="cls-8" d="M79.08,75.49c0,.37.15.79-.12,1.1a.32.32,0,0,1-.4,0c-.78-.4-.92-1.57-1-2.34a7.25,7.25,0,0,1,.45-3.67.49.49,0,0,1,.56-.27.35.35,0,0,1,.37,0c.63.25.41,1.53.19,2.45A12.3,12.3,0,0,0,79.08,75.49Z"/><path class="cls-8" d="M82.89,78.35a27.24,27.24,0,0,0-.31,4.78c0,.53,0,1.61-.64,1.79a.33.33,0,0,1-.33-.08,4.77,4.77,0,0,1-.48-3A14.53,14.53,0,0,1,82,78.32a.5.5,0,0,1,.88,0Z"/><path class="cls-8" d="M87.72,73.63c-.94,1.87-5.32,2.48-6.37.41l0-.1s0,0,0,0a.34.34,0,0,1,0-.1v0a.51.51,0,0,1,.44-.55h.09a.67.67,0,0,1,.39.08,9.16,9.16,0,0,0,5.16-.17C87.64,73,87.84,73.38,87.72,73.63Z"/><path class="cls-8" d="M82,71.27a.33.33,0,0,1,.41-.31,18.44,18.44,0,0,0,4.92.23.34.34,0,0,1,.24.57,4.89,4.89,0,0,1-5.57,0A.31.31,0,0,1,82,71.27Z"/><path class="cls-8" d="M47.88,85.7c.12.4-.16,1-.66.85-1.84-.5-2.2-3.38-2.06-4.93.06-.59.17-1.39.8-1.65.43-.18,1-.17,1.15.38a3.61,3.61,0,0,1,0,1.6A9.58,9.58,0,0,0,47.88,85.7Z"/><path class="cls-8" d="M43.72,79.23A4.43,4.43,0,0,1,41,78.55a.29.29,0,0,1-.09-.28c-.09-.23.08-.55.38-.44,2.23.8,4.41.28,6.7.3a.34.34,0,0,1,.09.66A12.73,12.73,0,0,1,43.72,79.23Z"/><path class="cls-8" d="M44.29,81.59a14.34,14.34,0,0,0,.34,4c0,.29-.32.63-.56.33a4.7,4.7,0,0,1-.81-2.64,6,6,0,0,1,.13-2.6.46.46,0,0,1,.87,0,1.36,1.36,0,0,1,0,.8A.33.33,0,0,1,44.29,81.59Z"/><path class="cls-8" d="M41.35,76h0a.35.35,0,0,1,.18,0,33.46,33.46,0,0,0,6.25,0,.34.34,0,0,1,.33.34c0,1.09-1.8,1-2.53,1-1.56.06-3.23.38-4.51-.74A.34.34,0,0,1,41.35,76Z"/></g><g class="cls-15"><path class="cls-8" d="M8.68,64.8c1.2,4.8,4.3,16.83,6.17,21.38,2.36,5.73,1.26,8.24,9,9,6.69.67,20.46.36,26.28.21,5.82.15,19.59.46,26.28-.21,7.77-.79,6.68-3.3,9-9,1.87-4.55,5.21-18.45,6.42-23.25ZM82.82,85.86a8.4,8.4,0,0,1-1.4,1.32c-2.73,2-6.42,2.64-9.81,2.91-1.94.15-3.88.17-5.83.19-6.83.09-13.64.66-20.47.76q-4.81.08-9.65,0c-5-.1-10.53.42-15.18-1.76a13,13,0,0,1-6.08-6.78c-1.82-4.08-5.55-14.44,3-14,2.4.13,4.76.16,7.16.18,7.4.06,14.79.26,22.19.11q3.21-.06,6.42-.22c7.56-.39,18.54-1.08,26.11-1.29,2.26-.06,5.1-.49,7.22.41C90.8,69.54,84.41,84,82.82,85.86Z"/></g><path class="cls-16" d="M36.3,70.28c-3.27,0-6.54,0-9.8,0-2.39,0-5.48-.48-7.74.31-2.89,1-1.16,4.5-.34,6.15a9.62,9.62,0,0,0,3.95,3.92C27,83.33,33.26,84,38.84,84.26c4.59.21,9.19.12,13.78-.11,6.07-.29,12.34-.2,18.27-1.44a19.33,19.33,0,0,0,13-9.37c.59-1.12,2-3.35.17-4.18-2-.91-24.41.86-33.06,1Q43.63,70.21,36.3,70.28Z"/><g class="cls-17"><path class="cls-8" d="M83.28,90c-5.26,3.84-23,3.14-26.1,3.21-6.29.14-12.58.17-18.87.14-3.17,0-15-.67-17.66-1.21a9.05,9.05,0,0,1-4.57-2.19c1,3.14,1.9,4.69,7.71,5.28,6.68.67,20.45.36,26.27.21,5.82.15,19.6.46,26.28-.21,6.34-.64,6.78-2.43,8-6.17A8.59,8.59,0,0,1,83.28,90Z"/><path class="cls-8" d="M15.44,65.64c4.4-.39,8.86-.11,13.27-.13,6.34,0,12.68-.29,19-.32s12.75.11,19.12,0,12.58-.74,18.83-.41c1.29.06,3.83,0,4.68,1.26a2.34,2.34,0,0,1,.36,1.19l1.06-4.27L8.58,64.8l.65,2.55a5,5,0,0,1,1.47-.71A14.29,14.29,0,0,1,15.44,65.64Z"/></g><path class="cls-13" d="M36,89.66a2.32,2.32,0,0,1-1.73-.6,2.27,2.27,0,0,1-.59-1.65,2.23,2.23,0,0,1,.59-1.66A2.39,2.39,0,0,1,36,85.18h2.65V72.85h2.55l-4.36,2.7a2.12,2.12,0,0,1-1.47.38,1.91,1.91,0,0,1-1.16-.59,2.47,2.47,0,0,1-.63-1.17,2.33,2.33,0,0,1,.1-1.4,2.27,2.27,0,0,1,1.08-1.16L39,69a5.19,5.19,0,0,1,1.34-.65,4.82,4.82,0,0,1,1.48-.23,2.48,2.48,0,0,1,1.79.61,2.19,2.19,0,0,1,.65,1.71V85.18h2.38a2.34,2.34,0,0,1,1.7.57,2.22,2.22,0,0,1,.58,1.66,2.26,2.26,0,0,1-.58,1.67,2.31,2.31,0,0,1-1.7.58Z"/><path class="cls-13" d="M58.2,90a14.41,14.41,0,0,1-3-.35,11.52,11.52,0,0,1-2.95-1.07,2.26,2.26,0,0,1-1.34-2.42A2.63,2.63,0,0,1,51.4,85a2,2,0,0,1,1.11-.71,2.18,2.18,0,0,1,1.54.24,9.47,9.47,0,0,0,2,.74,8.61,8.61,0,0,0,2,.25,4.57,4.57,0,0,0,1.73-.3,2.31,2.31,0,0,0,1.11-.89,2.47,2.47,0,0,0,.38-1.37A2.38,2.38,0,0,0,60.5,81a3.22,3.22,0,0,0-2.18-.69,5.34,5.34,0,0,0-1.31.18,4.69,4.69,0,0,0-1.46.69,4.81,4.81,0,0,1-.9.42,3.36,3.36,0,0,1-1.17.21,2.22,2.22,0,0,1-1.58-.49,1.93,1.93,0,0,1-.53-1.46V70.77A2.28,2.28,0,0,1,52,69.06a2.38,2.38,0,0,1,1.73-.61h9.44a2.38,2.38,0,0,1,1.73.58,2.16,2.16,0,0,1,.59,1.65,2.25,2.25,0,0,1-.59,1.69,2.37,2.37,0,0,1-1.73.57H56.58v4.72H55.31a4.77,4.77,0,0,1,1.91-1.28,7.74,7.74,0,0,1,6.11.44,6.35,6.35,0,0,1,2.38,2.39,7.13,7.13,0,0,1,.85,3.56,7,7,0,0,1-1,3.81,6.77,6.77,0,0,1-2.89,2.54A10.12,10.12,0,0,1,58.2,90Z"/></g></g></svg>