<svg xmlns="http://www.w3.org/2000/svg" viewBox="0 0 105.29 104.84"><defs><style>.cls-1{isolation:isolate;}.cls-2{fill:#ed7d03;}.cls-3{fill:#ff8c03;}.cls-4{fill:#fcbc08;}.cls-5{fill:#f28106;opacity:0.7;}.cls-6{fill:#7c6a13;}.cls-7{fill:#937b18;}.cls-8{fill:#b86313;}.cls-11,.cls-9{fill:#cc7917;}.cls-10{fill:#9e4727;}.cls-11,.cls-12,.cls-17{opacity:0.5;}.cls-11,.cls-15,.cls-17{mix-blend-mode:multiply;}.cls-13,.cls-16{fill:#fff;}.cls-14,.cls-15{opacity:0.3;}.cls-14{mix-blend-mode:screen;}.cls-16{opacity:0.1;}</style></defs><title>orange26</title><g class="cls-1"><g id="Layer_1" data-name="Layer 1"><path class="cls-2" d="M79,45.8c-4.73-1.6-9.71-5.65-10.85-10.74H23.92V65.27H81.23V46.41A19.36,19.36,0,0,1,79,45.8Z"/><path class="cls-3" d="M66.45,11.89c3,2.2,6.91,9.14,2.29,14.85s-11.37,6.06-16.46,2.7A11.49,11.49,0,0,1,50.85,11.3C56,6.41,62,8.58,66.45,11.89Z"/><path class="cls-4" d="M54,11.08h0Z"/><path class="cls-4" d="M54.66,11.8c.35-.17.74-.53.41-.85s-.78,0-1.09.12C53.54,11.47,53.72,12.25,54.66,11.8Z"/><path class="cls-4" d="M54,11.07l.53-.21A.82.82,0,0,0,54,11.07Z"/><path class="cls-4" d="M53,12.6c.14-.1.32-.3.14-.44a.22.22,0,0,0-.33.07.44.44,0,0,0-.22.29C52.58,12.81,52.89,12.7,53,12.6Z"/><path class="cls-4" d="M55.31,12.42a.35.35,0,0,0-.33,0c-.15,0-.35.08-.38.21a.25.25,0,0,0,0,.08l0,0,0,0c0,.14.39,0,.51,0S55.58,12.57,55.31,12.42Z"/><path class="cls-4" d="M54.55,12.75l0,0Z"/><path class="cls-4" d="M56,11.64c-.15,0-.32.21-.23.35s.44.1.57,0C56.88,11.74,56.23,11.52,56,11.64Z"/><path class="cls-4" d="M56.67,10.71c-.1,0-.29-.06-.37,0a.14.14,0,0,0,0,.18c0,.1.18.2.25.23s.91.33,1,.07S56.86,10.74,56.67,10.71Z"/><path class="cls-4" d="M55.84,10.19c.16.09.72.07.77-.16s-.3-.28-.45-.26a.77.77,0,0,0-.24.14C55.77,10,55.66,10.1,55.84,10.19Z"/><path class="cls-4" d="M53.12,11.52c.29-.22,0-.34-.22-.3h0c-.13,0-.46.14-.37.32S53,11.6,53.12,11.52Z"/><path class="cls-4" d="M51.91,12.9c.1-.13.44-.67.05-.69a.3.3,0,0,0-.19.1,1.08,1.08,0,0,0-.39.53C51.23,13.35,51.72,13.12,51.91,12.9Z"/><path class="cls-4" d="M54,13.05a.8.8,0,0,0-.5,0,1,1,0,0,0-.66.52c-.13.52.78.15,1,.08S54.38,13.21,54,13.05Z"/><path class="cls-4" d="M55.48,13.46c-.15,0-.3.17-.3.29s.52.18.67.11C56.41,13.6,55.68,13.35,55.48,13.46Z"/><path class="cls-4" d="M59.06,10.58a.27.27,0,0,0-.25.1.7.7,0,0,0,1,0A.58.58,0,0,0,59.06,10.58Z"/><path class="cls-4" d="M57.59,11.92c.31.11,1.16.17,1.23-.27a.73.73,0,0,0-.68-.09C57.87,11.55,57.59,11.64,57.59,11.92Z"/><path class="cls-4" d="M58.2,9.62a.44.44,0,0,0-.62-.06.28.28,0,0,0-.15.18A.59.59,0,0,0,58.2,9.62Z"/><path class="cls-4" d="M60.51,11.45c-.62,0,.18.81.53.55S60.76,11.29,60.51,11.45Z"/><path class="cls-4" d="M51.58,14c-.19-.15-.36,0-.47.18-.42.27-.92.91-.52,1.06S51.57,14.39,51.58,14Z"/><path class="cls-4" d="M50.43,13.22c-.54.1-.29,1,.23.39C51,13.22,50.65,13.1,50.43,13.22Z"/><path class="cls-4" d="M53.5,14.87a.28.28,0,0,0-.2.25c.2.14.74.15.88-.11S53.68,14.56,53.5,14.87Z"/><path class="cls-4" d="M58.29,13.39l0,0a.43.43,0,0,0,0,.11s0,.09,0,.11c.11.3.73.31.61-.06S58.44,13.25,58.29,13.39Z"/><path class="cls-4" d="M63.85,12.61c-.36-.51-1.12,0-.64.15C63.48,13,64.21,13.1,63.85,12.61Z"/><path class="cls-4" d="M50.9,17.39l.08-.13a.9.9,0,0,0-.4.63c.21.06.85-.36.83-.64S51.09,17.12,50.9,17.39Z"/><path class="cls-4" d="M56.58,16a.14.14,0,0,0,.21,0c.26,0,.74,0,.54-.31S56.65,15.76,56.58,16Z"/><path class="cls-4" d="M48.74,15.7a.38.38,0,0,0,0,.22c.32.1,1.13,0,.87-.51S48.83,15.32,48.74,15.7Z"/><path class="cls-4" d="M49.86,14.34h0a.27.27,0,0,0-.33.26.4.4,0,0,0,.56-.21A.34.34,0,0,0,49.86,14.34Z"/><path class="cls-5" d="M50.91,25.65c-1.17.86,4.8,5.2,8.69,5.05a11.47,11.47,0,0,0,9.4-6c1-2.14.67-8.23-.62-7.81-.46.16.11,2.22-1.78,5.35C65,25,62.13,27.69,58.39,27.51,53.27,27.25,51.69,25.09,50.91,25.65Z"/><path class="cls-6" d="M63.73,10.6a.54.54,0,0,0-.49.83c.33.8,2.28,2.1,2.84,1.88s.58-.87-.24-1.5A4.63,4.63,0,0,0,63.73,10.6Z"/><path class="cls-6" d="M64.75,11.67S67,9.33,67.65,8.44a42,42,0,0,0,2.14-4.22s.2-.3.48-.24.19.46.19.46-1.57,3.23-2.21,4.12c-1.3,1.81-3,3.77-3,3.77Z"/><path class="cls-6" d="M68.69,7.26c-.14,0-3.73-.47-3.73-.47L64.82,7l1.85.3,1.86.31Z"/><path class="cls-6" d="M60.92,11.46c-3.86,1-9.55-1.77-9.55-1.77s3.8-4.43,7.06-4.76S67.36,7.2,67.36,7.2A13.44,13.44,0,0,1,60.92,11.46Z"/><path class="cls-7" d="M63.76,10.83a.8.8,0,0,0-.08.79,4.16,4.16,0,0,0,1.4,1.12l.09-.71s-.3-.2-.33-.38a.41.41,0,0,1,0-.27Z"/><path class="cls-7" d="M66.1,7.29a30.48,30.48,0,0,0-6.46.06c-3,.44-7.51,1.87-7.46,2.07s5-1.64,7.36-1.8,6.74,0,6.74,0Z"/><path class="cls-7" d="M64.59,7.4A3.61,3.61,0,0,1,64,8.58a8.25,8.25,0,0,0-1.09,1.68,9.83,9.83,0,0,0,1.26-1.57c.35-.52.81-1.26.81-1.26Z"/><path class="cls-7" d="M61.59,7.43a5.29,5.29,0,0,1-.66,1.91c-.66,1.36-.93,1.75-.77,1.78s.66-1,1-1.74.85-2,.85-2Z"/><path class="cls-7" d="M58.67,7.7a3.63,3.63,0,0,1-.23,1.42c-.29,1-.66,1.57-.52,1.64s.48-.86.68-1.59.5-1.62.5-1.62Z"/><path class="cls-7" d="M55.54,8.44a2.39,2.39,0,0,1-.16.84c-.19.52-.48,1-.39,1a1.81,1.81,0,0,0,.54-.92c.13-.46.27-1,.27-1Z"/><path class="cls-7" d="M64.94,7.32a4.25,4.25,0,0,0-1.13-1.08,3.53,3.53,0,0,0-1.46-.6c-.07.07.83.33,1.15.54a12.81,12.81,0,0,1,1.19,1.13Z"/><path class="cls-7" d="M61.86,7.23A2.91,2.91,0,0,0,60.94,6a4.68,4.68,0,0,0-2.06-.8c-.19.07,1.5.49,1.88.87a4.22,4.22,0,0,1,.7,1.2Z"/><path class="cls-7" d="M59.1,7.55a6.28,6.28,0,0,0-1.38-1.09A6.1,6.1,0,0,0,56.06,6c-.2,0,1.27.33,1.68.62a8.4,8.4,0,0,1,1,1Z"/><path class="cls-7" d="M55.53,8.35s-.05-.24-.73-.5-1.06-.42-.92-.42a3.94,3.94,0,0,1,.91.23,6.29,6.29,0,0,1,1.08.61Z"/><path class="cls-3" d="M46.71,13c3,2.2,6.91,9.14,2.29,14.86s-11.38,6-16.47,2.69a11.47,11.47,0,0,1-1.42-18.13C36.25,7.52,42.2,9.69,46.71,13Z"/><path class="cls-4" d="M34.22,12.19h0Z"/><path class="cls-4" d="M34.91,12.91c.35-.17.74-.53.41-.85s-.77,0-1.09.13C33.8,12.58,34,13.36,34.91,12.91Z"/><path class="cls-4" d="M34.23,12.18l.54-.21A.88.88,0,0,0,34.23,12.18Z"/><path class="cls-4" d="M33.28,13.71c.13-.09.31-.29.13-.44s-.25,0-.33.08a.41.41,0,0,0-.22.28C32.83,13.93,33.14,13.81,33.28,13.71Z"/><path class="cls-4" d="M35.56,13.53a.35.35,0,0,0-.33,0c-.15,0-.35.09-.38.21a.31.31,0,0,0,0,.09l0,0,.05,0c0,.14.38,0,.5,0S35.83,13.68,35.56,13.53Z"/><path class="cls-4" d="M34.8,13.87h0Z"/><path class="cls-4" d="M36.3,12.75c-.15,0-.32.21-.24.36s.44.09.57,0C37.13,12.85,36.48,12.64,36.3,12.75Z"/><path class="cls-4" d="M36.92,11.83c-.1,0-.29-.07-.37,0a.15.15,0,0,0,0,.18c0,.11.18.2.25.23s.91.33,1,.07S37.11,11.85,36.92,11.83Z"/><path class="cls-4" d="M36.09,11.31c.16.08.72.06.77-.17s-.3-.27-.45-.25a.57.57,0,0,0-.24.13C36,11.1,35.91,11.21,36.09,11.31Z"/><path class="cls-4" d="M33.38,12.63c.29-.22,0-.34-.22-.29h0c-.13,0-.46.15-.37.33S33.27,12.71,33.38,12.63Z"/><path class="cls-4" d="M32.16,14c.11-.12.44-.67.06-.69a.3.3,0,0,0-.2.1,1,1,0,0,0-.38.54C31.49,14.46,32,14.23,32.16,14Z"/><path class="cls-4" d="M34.21,14.17a.71.71,0,0,0-.51,0,1,1,0,0,0-.66.51c-.13.52.78.15,1,.08S34.63,14.32,34.21,14.17Z"/><path class="cls-4" d="M35.73,14.57c-.14,0-.3.17-.3.29s.53.18.67.11C36.66,14.71,35.93,14.46,35.73,14.57Z"/><path class="cls-4" d="M39.32,11.69a.25.25,0,0,0-.25.1.68.68,0,0,0,1,0A.57.57,0,0,0,39.32,11.69Z"/><path class="cls-4" d="M37.84,13c.31.11,1.16.17,1.23-.27a.72.72,0,0,0-.68-.08C38.13,12.66,37.84,12.75,37.84,13Z"/><path class="cls-4" d="M38.45,10.73a.44.44,0,0,0-.62-.06.3.3,0,0,0-.15.18A.59.59,0,0,0,38.45,10.73Z"/><path class="cls-4" d="M40.77,12.56c-.63,0,.18.81.52.55S41,12.4,40.77,12.56Z"/><path class="cls-4" d="M31.83,15.15c-.19-.15-.35,0-.46.18-.42.27-.93.91-.53,1.06S31.82,15.5,31.83,15.15Z"/><path class="cls-4" d="M30.68,14.33c-.54.1-.28,1,.23.39C31.23,14.34,30.9,14.21,30.68,14.33Z"/><path class="cls-4" d="M33.75,16a.27.27,0,0,0-.19.25c.2.14.73.16.87-.11S33.93,15.67,33.75,16Z"/><path class="cls-4" d="M38.55,14.5l0,0a.23.23,0,0,0,0,.11s0,.1,0,.12c.11.29.73.3.61-.07S38.69,14.36,38.55,14.5Z"/><path class="cls-4" d="M44.1,13.72c-.36-.5-1.12,0-.64.16C43.74,14.08,44.46,14.21,44.1,13.72Z"/><path class="cls-4" d="M31.16,18.51l.07-.14a.92.92,0,0,0-.4.64c.22,0,.85-.37.83-.65S31.34,18.24,31.16,18.51Z"/><path class="cls-4" d="M36.83,17.09a.16.16,0,0,0,.21.05c.26,0,.75,0,.54-.32S36.9,16.87,36.83,17.09Z"/><path class="cls-4" d="M29,16.81A.51.51,0,0,0,29,17c.32.11,1.14,0,.87-.51S29.09,16.43,29,16.81Z"/><path class="cls-4" d="M30.11,15.45h0a.26.26,0,0,0-.33.26.39.39,0,0,0,.55-.21A.33.33,0,0,0,30.11,15.45Z"/><path class="cls-5" d="M31.16,26.77c-1.17.86,4.81,5.19,8.69,5a11.45,11.45,0,0,0,9.4-6c1-2.14.67-8.23-.61-7.8-.46.15.1,2.21-1.78,5.34-1.66,2.75-4.48,5.45-8.22,5.27C33.53,28.36,31.94,26.2,31.16,26.77Z"/><path class="cls-6" d="M44,11.71a.54.54,0,0,0-.48.83c.32.8,2.27,2.1,2.83,1.88s.58-.87-.23-1.49A4.64,4.64,0,0,0,44,11.71Z"/><path class="cls-6" d="M45,12.78s2.26-2.34,2.9-3.22A39.83,39.83,0,0,0,50,5.33a.55.55,0,0,1,.48-.24c.28,0,.2.47.2.47S49.14,8.78,48.5,9.67c-1.3,1.81-3,3.77-3,3.77Z"/><path class="cls-6" d="M48.94,8.37c-.14,0-3.73-.47-3.73-.47l-.14.21,1.86.31,1.85.3Z"/><path class="cls-6" d="M41.17,12.57c-3.86,1-9.55-1.76-9.55-1.76S35.42,6.37,38.69,6s8.92,2.27,8.92,2.27A13.44,13.44,0,0,1,41.17,12.57Z"/><path class="cls-7" d="M44,12a.81.81,0,0,0-.09.79,4.09,4.09,0,0,0,1.4,1.11l.09-.7s-.3-.21-.33-.38a.44.44,0,0,1,0-.28Z"/><path class="cls-7" d="M46.35,8.4a30.4,30.4,0,0,0-6.45.06c-3,.44-7.52,1.87-7.47,2.07s5-1.64,7.37-1.8,6.73,0,6.73,0Z"/><path class="cls-7" d="M44.84,8.51a3.36,3.36,0,0,1-.63,1.18,8.79,8.79,0,0,0-1.08,1.68,10.21,10.21,0,0,0,1.25-1.56c.36-.53.81-1.27.81-1.27Z"/><path class="cls-7" d="M41.84,8.54a5.29,5.29,0,0,1-.66,1.91c-.66,1.36-.93,1.76-.76,1.79s.65-1,1-1.75.84-2,.84-2Z"/><path class="cls-7" d="M38.92,8.81a3.7,3.7,0,0,1-.22,1.42c-.3,1-.66,1.58-.53,1.64s.48-.86.69-1.59.5-1.62.5-1.62Z"/><path class="cls-7" d="M35.79,9.55a2.36,2.36,0,0,1-.16.84c-.18.52-.47,1-.39,1a1.75,1.75,0,0,0,.54-.91c.13-.47.27-1,.27-1Z"/><path class="cls-7" d="M45.19,8.43a4.07,4.07,0,0,0-1.13-1.08,3.51,3.51,0,0,0-1.45-.6c-.08.07.82.33,1.15.54a12.23,12.23,0,0,1,1.18,1.14Z"/><path class="cls-7" d="M42.11,8.34a2.85,2.85,0,0,0-.92-1.22,4.45,4.45,0,0,0-2-.8c-.2.06,1.5.49,1.88.86a4.23,4.23,0,0,1,.69,1.21Z"/><path class="cls-7" d="M39.36,8.66A6.75,6.75,0,0,0,38,7.57a5.58,5.58,0,0,0-1.66-.42c-.2,0,1.28.32,1.69.62a9.06,9.06,0,0,1,1,1Z"/><path class="cls-7" d="M35.78,9.47s0-.25-.73-.5-1.06-.43-.91-.43a4.75,4.75,0,0,1,.91.23,6.49,6.49,0,0,1,1.07.61Z"/><path class="cls-3" d="M80.36,23.57c3,2.2,6.91,9.14,2.29,14.85s-11.37,6.06-16.47,2.7A11.47,11.47,0,0,1,64.76,23C69.9,18.09,75.85,20.26,80.36,23.57Z"/><path class="cls-4" d="M67.87,22.76h0Z"/><path class="cls-4" d="M68.56,23.48c.35-.17.75-.53.42-.85s-.78.05-1.1.12C67.45,23.15,67.63,23.93,68.56,23.48Z"/><path class="cls-4" d="M67.89,22.75l.53-.21A.83.83,0,0,0,67.89,22.75Z"/><path class="cls-4" d="M66.93,24.28c.13-.09.31-.3.14-.44a.23.23,0,0,0-.34.08.39.39,0,0,0-.21.28C66.49,24.5,66.79,24.38,66.93,24.28Z"/><path class="cls-4" d="M69.22,24.1a.35.35,0,0,0-.33,0c-.16,0-.35.09-.39.21a.11.11,0,0,0,0,.08s0,0,0,0l0,0c0,.14.38,0,.51,0S69.48,24.25,69.22,24.1Z"/><path class="cls-4" d="M68.45,24.43l0,0Z"/><path class="cls-4" d="M70,23.32c-.15,0-.32.21-.23.36s.44.09.56,0C70.78,23.42,70.14,23.21,70,23.32Z"/><path class="cls-4" d="M70.58,22.39c-.11,0-.29-.06-.37,0a.15.15,0,0,0,0,.18c0,.1.18.2.25.23s.92.33,1,.07S70.76,22.42,70.58,22.39Z"/><path class="cls-4" d="M69.75,21.87c.15.09.71.07.77-.16s-.31-.27-.45-.26a.6.6,0,0,0-.24.14C69.68,21.66,69.57,21.78,69.75,21.87Z"/><path class="cls-4" d="M67,23.2c.29-.22,0-.34-.22-.29h0c-.14,0-.47.15-.38.33S66.92,23.28,67,23.2Z"/><path class="cls-4" d="M65.81,24.58c.11-.12.44-.67.06-.69a.3.3,0,0,0-.2.1,1.06,1.06,0,0,0-.38.53C65.14,25,65.62,24.8,65.81,24.58Z"/><path class="cls-4" d="M67.86,24.73a.75.75,0,0,0-.5.05,1,1,0,0,0-.67.51c-.12.52.79.15,1,.08S68.28,24.89,67.86,24.73Z"/><path class="cls-4" d="M69.39,25.14c-.15.05-.31.17-.3.29s.52.18.67.11C70.32,25.28,69.58,25,69.39,25.14Z"/><path class="cls-4" d="M73,22.26a.25.25,0,0,0-.25.1.69.69,0,0,0,1,0A.59.59,0,0,0,73,22.26Z"/><path class="cls-4" d="M71.49,23.6c.32.11,1.17.17,1.24-.27a.72.72,0,0,0-.69-.08C71.78,23.23,71.5,23.32,71.49,23.6Z"/><path class="cls-4" d="M72.11,21.3a.44.44,0,0,0-.62-.06.25.25,0,0,0-.15.18A.59.59,0,0,0,72.11,21.3Z"/><path class="cls-4" d="M74.42,23.13c-.63,0,.18.81.53.55S74.67,23,74.42,23.13Z"/><path class="cls-4" d="M65.49,25.72c-.2-.15-.36,0-.47.18-.42.27-.93.91-.52,1.06S65.48,26.07,65.49,25.72Z"/><path class="cls-4" d="M64.33,24.9c-.54.1-.28,1,.23.39C64.88,24.91,64.56,24.78,64.33,24.9Z"/><path class="cls-4" d="M67.41,26.55a.28.28,0,0,0-.2.25c.2.14.74.15.87-.11S67.59,26.24,67.41,26.55Z"/><path class="cls-4" d="M72.2,25.07l0,0a.43.43,0,0,0,0,.11c0,.05,0,.1,0,.11.12.3.73.31.62-.06S72.35,24.93,72.2,25.07Z"/><path class="cls-4" d="M77.76,24.29c-.37-.51-1.12,0-.65.16C77.39,24.65,78.12,24.78,77.76,24.29Z"/><path class="cls-4" d="M64.81,29.08l.07-.14a1,1,0,0,0-.4.64c.22.05.85-.37.84-.65S65,28.8,64.81,29.08Z"/><path class="cls-4" d="M70.48,27.66a.17.17,0,0,0,.22.05c.26,0,.74,0,.53-.32S70.56,27.44,70.48,27.66Z"/><path class="cls-4" d="M62.65,27.38a.4.4,0,0,0,0,.22c.32.11,1.13,0,.86-.51S62.74,27,62.65,27.38Z"/><path class="cls-4" d="M63.76,26h0a.27.27,0,0,0-.33.26.4.4,0,0,0,.56-.21A.36.36,0,0,0,63.76,26Z"/><path class="cls-5" d="M64.82,37.34c-1.18.86,4.8,5.19,8.68,5a11.45,11.45,0,0,0,9.41-6c1-2.14.66-8.23-.62-7.8-.46.15.1,2.21-1.78,5.34-1.65,2.75-4.48,5.45-8.21,5.27C67.18,38.93,65.59,36.77,64.82,37.34Z"/><path class="cls-6" d="M77.64,22.28a.54.54,0,0,0-.49.83c.32.8,2.27,2.1,2.83,1.88s.59-.87-.23-1.49A4.66,4.66,0,0,0,77.64,22.28Z"/><path class="cls-6" d="M78.65,23.35s2.26-2.34,2.91-3.22A41.89,41.89,0,0,0,83.7,15.9s.2-.3.47-.24.2.46.2.46-1.58,3.23-2.21,4.12c-1.3,1.81-3,3.77-3,3.77Z"/><path class="cls-6" d="M82.59,18.94c-.13,0-3.73-.47-3.73-.47l-.13.21,1.85.31,1.85.3Z"/><path class="cls-6" d="M74.82,23.14c-3.85,1-9.55-1.76-9.55-1.76s3.81-4.44,7.07-4.77,8.93,2.27,8.93,2.27A13.44,13.44,0,0,1,74.82,23.14Z"/><path class="cls-7" d="M77.67,22.51a.82.82,0,0,0-.09.79A4,4,0,0,0,79,24.42l.1-.7s-.3-.21-.33-.39a.41.41,0,0,1,0-.27Z"/><path class="cls-7" d="M80,19a30.48,30.48,0,0,0-6.46.06c-3,.44-7.52,1.87-7.46,2.07s4.94-1.64,7.36-1.8,6.74,0,6.74,0Z"/><path class="cls-7" d="M78.49,19.08a3.41,3.41,0,0,1-.62,1.18,8.25,8.25,0,0,0-1.09,1.68A10.21,10.21,0,0,0,78,20.38c.36-.53.82-1.27.82-1.27Z"/><path class="cls-7" d="M75.49,19.11A5,5,0,0,1,74.83,21c-.66,1.36-.92,1.75-.76,1.79s.66-1,1-1.75.85-2,.85-2Z"/><path class="cls-7" d="M72.58,19.38a3.63,3.63,0,0,1-.23,1.42c-.3,1-.66,1.57-.52,1.64s.48-.86.68-1.59.5-1.62.5-1.62Z"/><path class="cls-7" d="M69.44,20.12a2.13,2.13,0,0,1-.16.84c-.18.52-.47,1-.38,1a1.82,1.82,0,0,0,.53-.92l.28-1Z"/><path class="cls-7" d="M78.85,19a4.25,4.25,0,0,0-1.13-1.08,3.53,3.53,0,0,0-1.46-.6c-.08.07.83.33,1.15.54A12.23,12.23,0,0,1,78.59,19Z"/><path class="cls-7" d="M75.77,18.91a2.85,2.85,0,0,0-.92-1.22,4.48,4.48,0,0,0-2.06-.8c-.2.06,1.5.49,1.88.86A4.23,4.23,0,0,1,75.36,19Z"/><path class="cls-7" d="M73,19.23a6.75,6.75,0,0,0-1.39-1.09A5.51,5.51,0,0,0,70,17.72c-.19,0,1.28.32,1.69.61a9.24,9.24,0,0,1,1,1Z"/><path class="cls-7" d="M69.44,20s0-.25-.73-.5-1.07-.43-.92-.43a4.57,4.57,0,0,1,.91.23,6.06,6.06,0,0,1,1.07.61Z"/><path class="cls-3" d="M59.79,20.33c3,2.2,6.91,9.14,2.29,14.85s-11.37,6.06-16.46,2.7a11.48,11.48,0,0,1-1.43-18.13C49.34,14.85,55.29,17,59.79,20.33Z"/><path class="cls-4" d="M47.3,19.52h0Z"/><path class="cls-4" d="M48,20.24c.35-.17.74-.53.41-.85s-.78.05-1.09.12C46.88,19.91,47.06,20.69,48,20.24Z"/><path class="cls-4" d="M47.32,19.51l.53-.21A.88.88,0,0,0,47.32,19.51Z"/><path class="cls-4" d="M46.36,21c.14-.09.32-.3.14-.44s-.25,0-.33.08A.41.41,0,0,0,46,21C45.92,21.26,46.23,21.14,46.36,21Z"/><path class="cls-4" d="M48.65,20.86a.35.35,0,0,0-.33,0c-.15,0-.35.09-.38.21a.28.28,0,0,0,0,.08.05.05,0,0,1,0,0l0,0c0,.14.39,0,.51,0S48.92,21,48.65,20.86Z"/><path class="cls-4" d="M47.89,21.19l0,0Z"/><path class="cls-4" d="M49.38,20.08c-.15,0-.32.21-.23.36s.44.09.57,0C50.22,20.18,49.57,20,49.38,20.08Z"/><path class="cls-4" d="M50,19.15c-.1,0-.29-.06-.37,0a.14.14,0,0,0,0,.18c0,.1.18.2.25.23s.91.33,1,.07S50.2,19.18,50,19.15Z"/><path class="cls-4" d="M49.18,18.63c.16.09.72.07.77-.16s-.3-.27-.45-.26a.77.77,0,0,0-.24.14C49.11,18.42,49,18.54,49.18,18.63Z"/><path class="cls-4" d="M46.46,20c.29-.22,0-.34-.22-.29h0c-.13,0-.46.15-.37.33S46.35,20,46.46,20Z"/><path class="cls-4" d="M45.24,21.34c.11-.12.45-.67.06-.69a.28.28,0,0,0-.19.1,1.08,1.08,0,0,0-.39.53C44.57,21.79,45.06,21.56,45.24,21.34Z"/><path class="cls-4" d="M47.29,21.49a.75.75,0,0,0-.5.05,1,1,0,0,0-.66.51c-.13.52.78.15,1,.08S47.72,21.65,47.29,21.49Z"/><path class="cls-4" d="M48.82,21.9c-.15.05-.3.17-.3.29s.52.18.67.11C49.75,22,49,21.79,48.82,21.9Z"/><path class="cls-4" d="M52.4,19a.27.27,0,0,0-.25.1.69.69,0,0,0,1.05,0A.58.58,0,0,0,52.4,19Z"/><path class="cls-4" d="M50.93,20.36c.31.11,1.16.17,1.23-.27a.7.7,0,0,0-.68-.08C51.21,20,50.93,20.08,50.93,20.36Z"/><path class="cls-4" d="M51.54,18.06a.44.44,0,0,0-.62-.06.28.28,0,0,0-.15.18A.59.59,0,0,0,51.54,18.06Z"/><path class="cls-4" d="M53.85,19.89c-.62,0,.18.81.53.55S54.1,19.73,53.85,19.89Z"/><path class="cls-4" d="M44.92,22.48c-.19-.15-.36,0-.47.18-.42.27-.92.91-.52,1.06S44.91,22.83,44.92,22.48Z"/><path class="cls-4" d="M43.77,21.66c-.54.1-.29,1,.23.39C44.32,21.67,44,21.54,43.77,21.66Z"/><path class="cls-4" d="M46.84,23.31a.3.3,0,0,0-.2.25c.2.14.74.15.88-.11S47,23,46.84,23.31Z"/><path class="cls-4" d="M51.63,21.83l0,0a.43.43,0,0,0,0,.11c0,.05,0,.1,0,.11.11.3.73.31.61-.06S51.78,21.69,51.63,21.83Z"/><path class="cls-4" d="M57.19,21.05c-.36-.51-1.12,0-.64.16C56.82,21.41,57.55,21.54,57.19,21.05Z"/><path class="cls-4" d="M44.24,25.84l.08-.14a.92.92,0,0,0-.4.64c.21.05.85-.37.83-.65C44.73,25.26,44.43,25.56,44.24,25.84Z"/><path class="cls-4" d="M49.92,24.42a.16.16,0,0,0,.21,0c.26,0,.74,0,.54-.32S50,24.2,49.92,24.42Z"/><path class="cls-4" d="M42.08,24.14a.4.4,0,0,0,0,.22c.32.11,1.13,0,.86-.51S42.17,23.76,42.08,24.14Z"/><path class="cls-4" d="M43.2,22.78h0a.27.27,0,0,0-.33.26.4.4,0,0,0,.56-.21A.34.34,0,0,0,43.2,22.78Z"/><path class="cls-5" d="M44.25,34.1c-1.17.86,4.8,5.19,8.69,5a11.45,11.45,0,0,0,9.4-6c1-2.14.67-8.23-.62-7.8-.46.15.11,2.21-1.78,5.34-1.65,2.75-4.47,5.45-8.21,5.27C46.61,35.69,45,33.53,44.25,34.1Z"/><path class="cls-6" d="M57.07,19a.54.54,0,0,0-.49.83c.33.8,2.28,2.1,2.84,1.88s.58-.87-.24-1.49A4.57,4.57,0,0,0,57.07,19Z"/><path class="cls-6" d="M58.09,20.11s2.25-2.34,2.9-3.22a41.89,41.89,0,0,0,2.14-4.23s.2-.3.48-.24.19.46.19.46S62.23,16.11,61.59,17c-1.3,1.81-3,3.77-3,3.77Z"/><path class="cls-6" d="M62,15.7c-.14,0-3.73-.47-3.73-.47l-.14.21,1.85.31,1.86.3Z"/><path class="cls-6" d="M54.26,19.9c-3.86,1-9.55-1.76-9.55-1.76s3.8-4.44,7.06-4.77,8.93,2.27,8.93,2.27A13.44,13.44,0,0,1,54.26,19.9Z"/><path class="cls-7" d="M57.1,19.27a.8.8,0,0,0-.08.79,4,4,0,0,0,1.4,1.12l.09-.7s-.3-.21-.33-.39a.41.41,0,0,1,0-.27Z"/><path class="cls-7" d="M59.44,15.73a30.48,30.48,0,0,0-6.46.06c-3,.44-7.52,1.87-7.46,2.07s4.95-1.64,7.36-1.8,6.74,0,6.74,0Z"/><path class="cls-7" d="M57.93,15.84A3.61,3.61,0,0,1,57.3,17a8.25,8.25,0,0,0-1.09,1.68,10.76,10.76,0,0,0,1.26-1.56c.35-.53.81-1.27.81-1.27Z"/><path class="cls-7" d="M54.93,15.87a5.29,5.29,0,0,1-.66,1.91c-.66,1.36-.93,1.75-.77,1.79s.66-1,1-1.75.85-2,.85-2Z"/><path class="cls-7" d="M52,16.14a3.63,3.63,0,0,1-.23,1.42c-.29,1-.66,1.57-.52,1.64s.48-.86.68-1.59.5-1.62.5-1.62Z"/><path class="cls-7" d="M48.88,16.88a2.39,2.39,0,0,1-.16.84c-.19.52-.48,1-.39,1a1.81,1.81,0,0,0,.54-.92c.13-.46.27-1,.27-1Z"/><path class="cls-7" d="M58.28,15.76a4.25,4.25,0,0,0-1.13-1.08,3.53,3.53,0,0,0-1.46-.6c-.07.07.83.33,1.15.54A12.62,12.62,0,0,1,58,15.76Z"/><path class="cls-7" d="M55.2,15.67a2.85,2.85,0,0,0-.92-1.22,4.44,4.44,0,0,0-2.06-.8c-.19.06,1.5.49,1.88.86a4.36,4.36,0,0,1,.7,1.21Z"/><path class="cls-7" d="M52.44,16a6.6,6.6,0,0,0-1.38-1.09,5.66,5.66,0,0,0-1.66-.42c-.2,0,1.27.32,1.68.61a8.4,8.4,0,0,1,1.05,1Z"/><path class="cls-7" d="M48.87,16.8s0-.25-.73-.5-1.06-.43-.92-.43a4.57,4.57,0,0,1,.91.23,6.29,6.29,0,0,1,1.08.61Z"/><path class="cls-3" d="M69.51,30.53c3,2.19,6.91,9.14,2.29,14.85s-11.37,6-16.46,2.69a11.48,11.48,0,0,1-1.43-18.13C59.06,25,65,27.21,69.51,30.53Z"/><path class="cls-4" d="M57,29.71h0Z"/><path class="cls-4" d="M57.72,30.43c.35-.17.74-.53.41-.84s-.78,0-1.09.12C56.6,30.11,56.78,30.89,57.72,30.43Z"/><path class="cls-4" d="M57,29.7l.53-.2A.87.87,0,0,0,57,29.7Z"/><path class="cls-4" d="M56.08,31.23c.14-.09.31-.29.14-.43a.22.22,0,0,0-.33.07.44.44,0,0,0-.22.29C55.64,31.45,56,31.33,56.08,31.23Z"/><path class="cls-4" d="M58.37,31.05a.33.33,0,0,0-.33,0c-.15,0-.35.08-.38.21a.25.25,0,0,0,0,.08l0,0,0,0c0,.15.39,0,.51,0S58.64,31.2,58.37,31.05Z"/><path class="cls-4" d="M57.61,31.39h0Z"/><path class="cls-4" d="M59.1,30.27c-.15,0-.32.21-.23.36s.44.09.56,0C59.94,30.37,59.29,30.16,59.1,30.27Z"/><path class="cls-4" d="M59.73,29.35c-.1,0-.29-.07-.37,0a.12.12,0,0,0,0,.17c0,.11.17.2.25.24s.91.32,1,.06S59.92,29.37,59.73,29.35Z"/><path class="cls-4" d="M58.9,28.83c.16.08.71.06.77-.16s-.3-.28-.45-.26a.61.61,0,0,0-.24.14C58.83,28.62,58.72,28.73,58.9,28.83Z"/><path class="cls-4" d="M56.18,30.15c.29-.21,0-.33-.22-.29h0c-.13,0-.46.15-.37.33S56.07,30.24,56.18,30.15Z"/><path class="cls-4" d="M55,31.53c.11-.12.44-.67.06-.69a.28.28,0,0,0-.19.1,1.1,1.1,0,0,0-.39.54C54.29,32,54.78,31.75,55,31.53Z"/><path class="cls-4" d="M57,31.69a.74.74,0,0,0-.5,0c-.28.08-.61.3-.66.51-.13.52.78.15,1,.08S57.44,31.85,57,31.69Z"/><path class="cls-4" d="M58.54,32.1c-.15,0-.3.17-.3.29s.52.17.67.11C59.47,32.23,58.74,32,58.54,32.1Z"/><path class="cls-4" d="M62.12,29.21a.28.28,0,0,0-.25.11.69.69,0,0,0,1.05,0A.6.6,0,0,0,62.12,29.21Z"/><path class="cls-4" d="M60.65,30.56c.31.11,1.16.16,1.23-.28a.75.75,0,0,0-.68-.08C60.93,30.19,60.65,30.28,60.65,30.56Z"/><path class="cls-4" d="M61.26,28.26a.45.45,0,0,0-.62-.07.34.34,0,0,0-.15.18A.59.59,0,0,0,61.26,28.26Z"/><path class="cls-4" d="M63.57,30.08c-.62,0,.18.81.53.56S63.82,29.92,63.57,30.08Z"/><path class="cls-4" d="M54.64,32.68c-.19-.16-.36,0-.47.18-.42.27-.92.9-.52,1.06S54.63,33,54.64,32.68Z"/><path class="cls-4" d="M53.49,31.85c-.54.11-.29,1,.23.39C54,31.86,53.71,31.74,53.49,31.85Z"/><path class="cls-4" d="M56.56,33.5a.3.3,0,0,0-.2.25c.2.15.74.16.88-.11S56.74,33.19,56.56,33.5Z"/><path class="cls-4" d="M61.35,32l0,0a.52.52,0,0,0,0,.11s0,.1,0,.12c.11.29.73.3.61-.07S61.5,31.88,61.35,32Z"/><path class="cls-4" d="M66.91,31.24c-.36-.5-1.12,0-.64.16C66.54,31.6,67.27,31.73,66.91,31.24Z"/><path class="cls-4" d="M54,36,54,35.9a.88.88,0,0,0-.4.63c.21.06.85-.37.83-.65S54.15,35.76,54,36Z"/><path class="cls-4" d="M59.64,34.61a.16.16,0,0,0,.21,0c.26,0,.74,0,.54-.32S59.71,34.39,59.64,34.61Z"/><path class="cls-4" d="M51.8,34.33a.41.41,0,0,0,0,.22c.32.11,1.13,0,.86-.51S51.89,34,51.8,34.33Z"/><path class="cls-4" d="M52.92,33h0a.27.27,0,0,0-.33.27.4.4,0,0,0,.56-.22A.41.41,0,0,0,52.92,33Z"/><path class="cls-5" d="M54,44.29c-1.17.86,4.8,5.19,8.69,5a11.44,11.44,0,0,0,9.4-6c1-2.15.67-8.24-.62-7.81-.46.15.11,2.22-1.78,5.34-1.65,2.75-4.47,5.46-8.21,5.27C56.33,45.89,54.75,43.72,54,44.29Z"/><path class="cls-6" d="M66.79,29.23a.55.55,0,0,0-.49.84c.33.79,2.28,2.09,2.84,1.88s.58-.87-.24-1.5A4.66,4.66,0,0,0,66.79,29.23Z"/><path class="cls-6" d="M67.8,30.3s2.26-2.34,2.91-3.22a41.89,41.89,0,0,0,2.14-4.23.55.55,0,0,1,.48-.24c.27.05.19.47.19.47S72,26.31,71.31,27.19C70,29,68.3,31,68.3,31Z"/><path class="cls-6" d="M71.75,25.89,68,25.42l-.14.21,1.85.31,1.85.3Z"/><path class="cls-6" d="M64,30.1c-3.85,1-9.54-1.77-9.54-1.77s3.8-4.44,7.06-4.77,8.93,2.27,8.93,2.27A13.5,13.5,0,0,1,64,30.1Z"/><path class="cls-7" d="M66.82,29.47a.8.8,0,0,0-.08.79,4.09,4.09,0,0,0,1.4,1.11l.09-.7s-.3-.21-.33-.38a.39.39,0,0,1,0-.27Z"/><path class="cls-7" d="M69.16,25.93A29.75,29.75,0,0,0,62.7,26c-3,.43-7.52,1.86-7.46,2.06s4.95-1.63,7.36-1.8,6.74,0,6.74,0Z"/><path class="cls-7" d="M67.65,26A3.52,3.52,0,0,1,67,27.21a8.47,8.47,0,0,0-1.09,1.69,11,11,0,0,0,1.26-1.57c.35-.53.81-1.27.81-1.27Z"/><path class="cls-7" d="M64.65,26.06A5.29,5.29,0,0,1,64,28c-.66,1.36-.93,1.76-.77,1.79s.66-1,1-1.74.85-2,.85-2Z"/><path class="cls-7" d="M61.73,26.33a3.69,3.69,0,0,1-.23,1.43c-.29,1-.66,1.57-.52,1.64s.48-.87.68-1.59.5-1.63.5-1.63Z"/><path class="cls-7" d="M58.6,27.08a2.39,2.39,0,0,1-.16.84c-.19.51-.48,1-.39,1a1.85,1.85,0,0,0,.53-.92c.14-.47.28-1,.28-1Z"/><path class="cls-7" d="M68,26a4.38,4.38,0,0,0-1.13-1.09,3.53,3.53,0,0,0-1.46-.6c-.08.07.83.33,1.15.54A12.62,12.62,0,0,1,67.75,26Z"/><path class="cls-7" d="M64.92,25.87A2.91,2.91,0,0,0,64,24.64a4.56,4.56,0,0,0-2.06-.8c-.19.06,1.5.49,1.88.86a4.36,4.36,0,0,1,.7,1.21Z"/><path class="cls-7" d="M62.16,26.18a6.6,6.6,0,0,0-1.38-1.09,5.66,5.66,0,0,0-1.66-.42c-.2,0,1.27.33,1.68.62a8.6,8.6,0,0,1,1.05,1Z"/><path class="cls-7" d="M58.59,27s-.05-.24-.73-.5-1.06-.43-.92-.43a4.16,4.16,0,0,1,.91.24,5.82,5.82,0,0,1,1.08.6Z"/><path class="cls-3" d="M18.67,20.38c-3,2.19-6.92,9.14-2.29,14.85s11.37,6.05,16.46,2.7a11.49,11.49,0,0,0,1.43-18.14C29.12,14.9,23.17,17.06,18.67,20.38Z"/><path class="cls-4" d="M31.16,19.56h0Z"/><path class="cls-4" d="M30.46,20.28c-.35-.17-.74-.53-.41-.84s.78,0,1.09.12C31.58,20,31.39,20.74,30.46,20.28Z"/><path class="cls-4" d="M31.14,19.56l-.53-.21A.82.82,0,0,1,31.14,19.56Z"/><path class="cls-4" d="M32.09,21.09c-.13-.1-.31-.3-.13-.44a.22.22,0,0,1,.33.07.44.44,0,0,1,.22.29C32.54,21.3,32.23,21.19,32.09,21.09Z"/><path class="cls-4" d="M29.81,20.91a.3.3,0,0,1,.33,0c.15,0,.35.08.38.21a.25.25,0,0,1,0,.08l0,0,0,0c-.05.15-.39,0-.51,0S29.54,21.05,29.81,20.91Z"/><path class="cls-4" d="M30.57,21.24h0Z"/><path class="cls-4" d="M29.07,20.12c.15.05.32.22.24.36s-.44.09-.57,0C28.24,20.22,28.89,20,29.07,20.12Z"/><path class="cls-4" d="M28.45,19.2c.1,0,.29-.06.37,0a.14.14,0,0,1,0,.18c0,.1-.18.19-.25.23s-.91.32-1,.06S28.26,19.23,28.45,19.2Z"/><path class="cls-4" d="M29.28,18.68c-.16.08-.72.06-.77-.16s.3-.28.45-.26a.61.61,0,0,1,.24.14C29.35,18.47,29.46,18.58,29.28,18.68Z"/><path class="cls-4" d="M32,20c-.29-.21,0-.33.23-.29h0c.13,0,.46.14.37.32S32.11,20.09,32,20Z"/><path class="cls-4" d="M33.21,21.39c-.1-.13-.44-.67-.05-.69a.23.23,0,0,1,.19.1,1.15,1.15,0,0,1,.39.53C33.88,21.83,33.4,21.6,33.21,21.39Z"/><path class="cls-4" d="M31.16,21.54a.76.76,0,0,1,.51,0,1,1,0,0,1,.66.52c.13.51-.78.14-1,.08S30.74,21.7,31.16,21.54Z"/><path class="cls-4" d="M29.64,22c.14.05.3.17.3.29s-.52.18-.67.11C28.71,22.09,29.44,21.83,29.64,22Z"/><path class="cls-4" d="M26.05,19.07a.23.23,0,0,1,.25.1.69.69,0,0,1-1,0A.57.57,0,0,1,26.05,19.07Z"/><path class="cls-4" d="M27.53,20.41c-.31.11-1.16.16-1.23-.28a.75.75,0,0,1,.68-.08C27.25,20,27.53,20.13,27.53,20.41Z"/><path class="cls-4" d="M26.92,18.11a.44.44,0,0,1,.62-.07.32.32,0,0,1,.15.19A.61.61,0,0,1,26.92,18.11Z"/><path class="cls-4" d="M24.61,19.94c.62,0-.19.8-.53.55S24.36,19.77,24.61,19.94Z"/><path class="cls-4" d="M33.54,22.53c.19-.16.36,0,.47.18.42.27.92.9.52,1.06S33.55,22.88,33.54,22.53Z"/><path class="cls-4" d="M34.69,21.7c.54.11.28,1-.23.39C34.14,21.71,34.47,21.59,34.69,21.7Z"/><path class="cls-4" d="M31.62,23.36a.28.28,0,0,1,.2.24c-.21.15-.74.16-.88-.11S31.44,23,31.62,23.36Z"/><path class="cls-4" d="M26.82,21.88l0-.05a.26.26,0,0,1,0,.11c0,.06,0,.1,0,.12-.11.29-.73.3-.61-.07S26.68,21.73,26.82,21.88Z"/><path class="cls-4" d="M21.27,21.09c.36-.5,1.12,0,.64.16C21.63,21.45,20.91,21.59,21.27,21.09Z"/><path class="cls-4" d="M34.22,25.88l-.08-.13a.9.9,0,0,1,.4.63c-.21.06-.85-.36-.83-.65S34,25.61,34.22,25.88Z"/><path class="cls-4" d="M28.54,24.46c-.08.1-.14.09-.21.05-.26,0-.74,0-.54-.31S28.47,24.24,28.54,24.46Z"/><path class="cls-4" d="M36.38,24.18a.53.53,0,0,1,0,.22c-.32.11-1.14,0-.87-.51S36.28,23.81,36.38,24.18Z"/><path class="cls-4" d="M35.26,22.82h0c.2,0,.32.07.33.27a.39.39,0,0,1-.55-.22A.41.41,0,0,1,35.26,22.82Z"/><path class="cls-5" d="M34.21,34.14c1.17.86-4.8,5.2-8.69,5a11.44,11.44,0,0,1-9.4-6c-1-2.15-.67-8.23.62-7.81.45.15-.11,2.22,1.78,5.35C20.17,33.47,23,36.18,26.73,36,31.84,35.74,33.43,33.57,34.21,34.14Z"/><path class="cls-6" d="M21.39,19.08a.55.55,0,0,1,.48.84c-.32.8-2.27,2.1-2.83,1.88s-.58-.87.23-1.5A4.83,4.83,0,0,1,21.39,19.08Z"/><path class="cls-6" d="M20.37,20.15s-2.26-2.34-2.9-3.22a39.9,39.9,0,0,1-2.14-4.22s-.2-.3-.48-.25-.2.47-.2.47,1.58,3.23,2.22,4.12c1.3,1.8,3,3.77,3,3.77Z"/><path class="cls-6" d="M16.43,15.74l3.73-.47.14.22-1.86.3-1.85.31Z"/><path class="cls-6" d="M24.2,20c3.86,1,9.55-1.77,9.55-1.77s-3.8-4.43-7.06-4.77-8.93,2.27-8.93,2.27A13.43,13.43,0,0,0,24.2,20Z"/><path class="cls-7" d="M21.36,19.32a.8.8,0,0,1,.08.79A4.16,4.16,0,0,1,20,21.23L20,20.52s.3-.2.33-.38a.39.39,0,0,0,0-.27Z"/><path class="cls-7" d="M19,15.78a30.48,30.48,0,0,1,6.46.06c3,.43,7.51,1.87,7.46,2.07s-4.95-1.64-7.37-1.8-6.73,0-6.73,0Z"/><path class="cls-7" d="M20.53,15.89a3.28,3.28,0,0,0,.63,1.17,8.7,8.7,0,0,1,1.08,1.69A10.55,10.55,0,0,1,21,17.18c-.35-.53-.81-1.27-.81-1.27Z"/><path class="cls-7" d="M23.53,15.91a5.29,5.29,0,0,0,.66,1.92c.66,1.36.93,1.75.77,1.78s-.66-1-1-1.74-.85-2-.85-2Z"/><path class="cls-7" d="M26.45,16.19a3.65,3.65,0,0,0,.23,1.42c.29,1,.66,1.57.52,1.64s-.48-.86-.68-1.59S26,16,26,16Z"/><path class="cls-7" d="M29.58,16.93a2.39,2.39,0,0,0,.16.84c.19.51.47,1,.39,1a1.84,1.84,0,0,1-.54-.92c-.13-.46-.27-1-.27-1Z"/><path class="cls-7" d="M20.18,15.81a4.38,4.38,0,0,1,1.13-1.09,3.41,3.41,0,0,1,1.46-.59c.07.07-.83.32-1.15.53a12.62,12.62,0,0,0-1.19,1.14Z"/><path class="cls-7" d="M23.26,15.72a2.91,2.91,0,0,1,.92-1.23,4.56,4.56,0,0,1,2.06-.8c.19.06-1.51.49-1.89.87a4.1,4.1,0,0,0-.69,1.2Z"/><path class="cls-7" d="M26,16a6.54,6.54,0,0,1,1.38-1.1,6.29,6.29,0,0,1,1.66-.42c.2,0-1.27.33-1.69.62a9.06,9.06,0,0,0-1,1Z"/><path class="cls-7" d="M29.59,16.84s0-.24.73-.5,1.06-.43.92-.43a4.69,4.69,0,0,0-.91.24,5.66,5.66,0,0,0-1.08.61Z"/><path class="cls-3" d="M12.91,33.21c-3,2.19-6.91,9.14-2.29,14.85s11.37,6,16.46,2.7a11.49,11.49,0,0,0,1.43-18.14C23.36,27.73,17.41,29.9,12.91,33.21Z"/><path class="cls-4" d="M25.4,32.39h0Z"/><path class="cls-4" d="M24.7,33.11c-.35-.16-.74-.52-.41-.84s.78,0,1.09.12C25.82,32.79,25.64,33.57,24.7,33.11Z"/><path class="cls-4" d="M25.38,32.39l-.53-.21A.82.82,0,0,1,25.38,32.39Z"/><path class="cls-4" d="M26.33,33.92c-.13-.1-.31-.3-.13-.44a.22.22,0,0,1,.33.07.44.44,0,0,1,.22.29C26.78,34.13,26.47,34,26.33,33.92Z"/><path class="cls-4" d="M24.05,33.74a.35.35,0,0,1,.33,0c.15,0,.35.08.38.21a.25.25,0,0,1,0,.08l0,0,0,0c-.05.15-.39,0-.51,0S23.78,33.88,24.05,33.74Z"/><path class="cls-4" d="M24.81,34.07h0Z"/><path class="cls-4" d="M23.32,33c.15,0,.31.22.23.36s-.44.09-.57,0C22.48,33.05,23.13,32.84,23.32,33Z"/><path class="cls-4" d="M22.69,32c.1,0,.29-.06.37,0a.14.14,0,0,1,0,.18c0,.1-.18.19-.25.23s-.91.32-1,.06S22.5,32.06,22.69,32Z"/><path class="cls-4" d="M23.52,31.51c-.16.08-.72.06-.77-.16s.3-.28.45-.26a.61.61,0,0,1,.24.14C23.59,31.3,23.7,31.41,23.52,31.51Z"/><path class="cls-4" d="M26.24,32.84c-.3-.22,0-.34.22-.3h0c.13,0,.46.14.37.32S26.35,32.92,26.24,32.84Z"/><path class="cls-4" d="M27.45,34.22c-.1-.13-.44-.67-.05-.69.06,0,.13,0,.19.1a1.15,1.15,0,0,1,.39.53C28.13,34.66,27.64,34.44,27.45,34.22Z"/><path class="cls-4" d="M25.41,34.37a.74.74,0,0,1,.5,0,1,1,0,0,1,.66.52c.13.52-.78.14-1,.08S25,34.53,25.41,34.37Z"/><path class="cls-4" d="M23.88,34.78c.14,0,.3.17.3.29s-.52.18-.67.11C23,34.92,23.68,34.67,23.88,34.78Z"/><path class="cls-4" d="M20.29,31.9a.23.23,0,0,1,.25.1.69.69,0,0,1-1,0A.57.57,0,0,1,20.29,31.9Z"/><path class="cls-4" d="M21.77,33.24c-.31.11-1.16.16-1.23-.28a.75.75,0,0,1,.68-.08C21.49,32.87,21.77,33,21.77,33.24Z"/><path class="cls-4" d="M21.16,30.94a.44.44,0,0,1,.62-.06.28.28,0,0,1,.15.18A.59.59,0,0,1,21.16,30.94Z"/><path class="cls-4" d="M18.85,32.77c.62,0-.18.81-.53.55S18.6,32.6,18.85,32.77Z"/><path class="cls-4" d="M27.78,35.36c.19-.15.36,0,.47.18.42.27.92.91.52,1.06S27.79,35.71,27.78,35.36Z"/><path class="cls-4" d="M28.93,34.54c.54.1.29,1-.23.38C28.38,34.54,28.71,34.42,28.93,34.54Z"/><path class="cls-4" d="M25.86,36.19a.28.28,0,0,1,.2.24c-.21.15-.74.16-.88-.11S25.68,35.88,25.86,36.19Z"/><path class="cls-4" d="M21.07,34.71l0-.05a.26.26,0,0,1,0,.11c0,.06,0,.1,0,.12-.11.3-.73.31-.61-.07S20.92,34.57,21.07,34.71Z"/><path class="cls-4" d="M15.51,33.92c.36-.5,1.12,0,.64.16C15.87,34.28,15.15,34.42,15.51,33.92Z"/><path class="cls-4" d="M28.46,38.71l-.08-.13a.9.9,0,0,1,.4.63c-.21.06-.85-.36-.83-.64S28.27,38.44,28.46,38.71Z"/><path class="cls-4" d="M22.78,37.29c-.08.1-.14.09-.21.05-.26,0-.74,0-.54-.31S22.71,37.07,22.78,37.29Z"/><path class="cls-4" d="M30.62,37a.41.41,0,0,1,0,.22c-.32.11-1.13,0-.87-.51S30.52,36.64,30.62,37Z"/><path class="cls-4" d="M29.5,35.65h0a.27.27,0,0,1,.33.26.4.4,0,0,1-.56-.21A.36.36,0,0,1,29.5,35.65Z"/><path class="cls-5" d="M28.45,47c1.17.86-4.8,5.2-8.69,5.05a11.47,11.47,0,0,1-9.4-6c-1-2.15-.67-8.23.62-7.81.45.15-.11,2.22,1.78,5.35C14.41,46.3,17.23,49,21,48.82,26.09,48.57,27.67,46.4,28.45,47Z"/><path class="cls-6" d="M15.63,31.91a.55.55,0,0,1,.48.84c-.32.8-2.27,2.1-2.83,1.88s-.58-.87.24-1.5A4.75,4.75,0,0,1,15.63,31.91Z"/><path class="cls-6" d="M14.61,33s-2.26-2.34-2.9-3.22a39.9,39.9,0,0,1-2.14-4.22s-.2-.3-.48-.25-.19.47-.19.47,1.57,3.23,2.21,4.12c1.3,1.8,3,3.77,3,3.77Z"/><path class="cls-6" d="M10.67,28.58c.14,0,3.73-.48,3.73-.48l.14.22-1.85.3-1.86.31Z"/><path class="cls-6" d="M18.44,32.78C22.3,33.76,28,31,28,31s-3.8-4.43-7.06-4.77S12,28.51,12,28.51A13.43,13.43,0,0,0,18.44,32.78Z"/><path class="cls-7" d="M15.6,32.15a.8.8,0,0,1,.08.79,4.16,4.16,0,0,1-1.4,1.12l-.09-.71s.3-.2.33-.38a.41.41,0,0,0,0-.27Z"/><path class="cls-7" d="M13.26,28.61a30.48,30.48,0,0,1,6.46.06c3,.43,7.51,1.87,7.46,2.07s-4.95-1.64-7.37-1.8-6.73,0-6.73,0Z"/><path class="cls-7" d="M14.77,28.72a3.61,3.61,0,0,0,.63,1.18,8,8,0,0,1,1.08,1.68A10.55,10.55,0,0,1,15.23,30c-.35-.52-.81-1.26-.81-1.26Z"/><path class="cls-7" d="M17.77,28.74a5.29,5.29,0,0,0,.66,1.92c.66,1.36.93,1.75.77,1.78s-.66-1-1-1.74-.85-2-.85-2Z"/><path class="cls-7" d="M20.69,29a3.65,3.65,0,0,0,.23,1.42c.29,1,.66,1.57.52,1.64s-.48-.86-.68-1.59-.5-1.62-.5-1.62Z"/><path class="cls-7" d="M23.82,29.76a2.39,2.39,0,0,0,.16.84c.19.52.48,1,.39,1a1.84,1.84,0,0,1-.54-.92c-.13-.46-.27-1-.27-1Z"/><path class="cls-7" d="M14.42,28.64a4.38,4.38,0,0,1,1.13-1.09A3.41,3.41,0,0,1,17,27c.07.07-.83.33-1.15.53a12.62,12.62,0,0,0-1.19,1.14Z"/><path class="cls-7" d="M17.5,28.55a2.91,2.91,0,0,1,.92-1.23,4.56,4.56,0,0,1,2.06-.8c.19.07-1.5.49-1.88.87a4,4,0,0,0-.7,1.2Z"/><path class="cls-7" d="M20.26,28.87a6.54,6.54,0,0,1,1.38-1.1,6.39,6.39,0,0,1,1.66-.42c.2,0-1.27.33-1.69.62a9.06,9.06,0,0,0-1,1Z"/><path class="cls-7" d="M23.83,29.67s.05-.24.73-.5,1.06-.43.92-.43a4.69,4.69,0,0,0-.91.24,5.66,5.66,0,0,0-1.08.61Z"/><path class="cls-3" d="M85.63,36c3,2.19,6.91,9.14,2.29,14.85s-11.38,6-16.47,2.7A11.48,11.48,0,0,1,70,35.38C75.17,30.49,81.12,32.65,85.63,36Z"/><path class="cls-4" d="M73.14,35.15h0Z"/><path class="cls-4" d="M73.83,35.87c.35-.17.74-.53.41-.84s-.77,0-1.09.12C72.72,35.55,72.9,36.33,73.83,35.87Z"/><path class="cls-4" d="M73.15,35.15l.54-.21A.83.83,0,0,0,73.15,35.15Z"/><path class="cls-4" d="M72.2,36.68c.13-.1.31-.3.13-.44a.22.22,0,0,0-.33.07.44.44,0,0,0-.22.29C71.75,36.89,72.06,36.78,72.2,36.68Z"/><path class="cls-4" d="M74.48,36.5a.3.3,0,0,0-.33,0c-.15,0-.35.08-.38.21a.25.25,0,0,0,0,.08l0,0,0,0c0,.15.38,0,.5,0S74.75,36.64,74.48,36.5Z"/><path class="cls-4" d="M73.72,36.83h0Z"/><path class="cls-4" d="M75.22,35.71c-.15,0-.32.22-.24.36s.44.09.57,0C76.05,35.81,75.4,35.6,75.22,35.71Z"/><path class="cls-4" d="M75.84,34.79c-.1,0-.29-.06-.37,0a.14.14,0,0,0,0,.17c0,.11.18.2.25.24s.91.32,1,.06S76,34.81,75.84,34.79Z"/><path class="cls-4" d="M75,34.27c.16.08.72.06.78-.16s-.31-.28-.46-.26a.61.61,0,0,0-.24.14C74.94,34.06,74.83,34.17,75,34.27Z"/><path class="cls-4" d="M72.3,35.59c.29-.21,0-.33-.22-.29h0c-.13,0-.46.14-.37.32S72.19,35.68,72.3,35.59Z"/><path class="cls-4" d="M71.08,37c.11-.13.44-.67.06-.69a.23.23,0,0,0-.2.1,1.06,1.06,0,0,0-.38.53C70.41,37.42,70.89,37.19,71.08,37Z"/><path class="cls-4" d="M73.13,37.13a.77.77,0,0,0-.51,0,1,1,0,0,0-.66.52c-.13.51.78.14,1,.07S73.55,37.29,73.13,37.13Z"/><path class="cls-4" d="M74.65,37.54c-.14.05-.3.17-.3.29s.53.18.67.11C75.58,37.68,74.85,37.42,74.65,37.54Z"/><path class="cls-4" d="M78.24,34.66a.23.23,0,0,0-.25.1.69.69,0,0,0,1,0A.57.57,0,0,0,78.24,34.66Z"/><path class="cls-4" d="M76.76,36c.32.11,1.17.16,1.23-.28a.75.75,0,0,0-.68-.08C77.05,35.63,76.76,35.72,76.76,36Z"/><path class="cls-4" d="M77.37,33.7a.44.44,0,0,0-.62-.07.32.32,0,0,0-.15.19A.61.61,0,0,0,77.37,33.7Z"/><path class="cls-4" d="M79.69,35.53c-.63,0,.18.8.53.55S79.94,35.36,79.69,35.53Z"/><path class="cls-4" d="M70.75,38.12c-.19-.16-.35,0-.46.18-.42.27-.93.9-.53,1.06S70.74,38.47,70.75,38.12Z"/><path class="cls-4" d="M69.6,37.29c-.54.11-.28,1,.23.39C70.15,37.3,69.82,37.18,69.6,37.29Z"/><path class="cls-4" d="M72.67,39a.26.26,0,0,0-.19.24c.2.15.73.16.87-.11S72.85,38.63,72.67,39Z"/><path class="cls-4" d="M77.47,37.47l0,0a.61.61,0,0,0,0,.11c0,.06,0,.1,0,.12.11.29.73.3.61-.07S77.61,37.32,77.47,37.47Z"/><path class="cls-4" d="M83,36.68c-.36-.5-1.12,0-.64.16C82.66,37,83.38,37.18,83,36.68Z"/><path class="cls-4" d="M70.08,41.47l.07-.13a.9.9,0,0,0-.4.63c.22.06.85-.36.83-.65S70.26,41.2,70.08,41.47Z"/><path class="cls-4" d="M75.75,40.05c.08.09.14.09.21.05.26,0,.75,0,.54-.31S75.82,39.83,75.75,40.05Z"/><path class="cls-4" d="M67.92,39.77a.54.54,0,0,0,0,.22c.32.11,1.14,0,.87-.51S68,39.4,67.92,39.77Z"/><path class="cls-4" d="M69,38.41h0c-.19,0-.32.07-.33.27a.39.39,0,0,0,.55-.22A.39.39,0,0,0,69,38.41Z"/><path class="cls-5" d="M70.08,49.73c-1.17.86,4.81,5.2,8.69,5a11.44,11.44,0,0,0,9.4-6c1-2.15.67-8.23-.61-7.81-.46.15.1,2.22-1.78,5.35-1.66,2.74-4.48,5.45-8.22,5.26C72.45,51.33,70.86,49.16,70.08,49.73Z"/><path class="cls-6" d="M82.9,34.67a.55.55,0,0,0-.48.84c.32.8,2.27,2.1,2.83,1.88s.59-.87-.23-1.5A4.83,4.83,0,0,0,82.9,34.67Z"/><path class="cls-6" d="M83.92,35.74s2.26-2.34,2.9-3.22A39.9,39.9,0,0,0,89,28.3s.2-.3.48-.25.2.47.2.47-1.58,3.23-2.22,4.12c-1.3,1.8-3,3.77-3,3.77Z"/><path class="cls-6" d="M87.86,31.33l-3.73-.47-.14.22,1.86.3,1.85.31Z"/><path class="cls-6" d="M80.09,35.54c-3.85,1-9.55-1.77-9.55-1.77s3.8-4.43,7.07-4.77,8.93,2.27,8.93,2.27A13.49,13.49,0,0,1,80.09,35.54Z"/><path class="cls-7" d="M82.94,34.91a.82.82,0,0,0-.09.79,4.16,4.16,0,0,0,1.4,1.12l.09-.71s-.3-.2-.33-.38a.39.39,0,0,1,0-.27Z"/><path class="cls-7" d="M85.28,31.37a30.51,30.51,0,0,0-6.46.06c-3,.43-7.52,1.86-7.46,2.07s4.94-1.64,7.36-1.8,6.73,0,6.73,0Z"/><path class="cls-7" d="M83.76,31.48a3.28,3.28,0,0,1-.63,1.17,8.7,8.7,0,0,0-1.08,1.69,9.93,9.93,0,0,0,1.25-1.57c.36-.53.82-1.27.82-1.27Z"/><path class="cls-7" d="M80.76,31.5a5.29,5.29,0,0,1-.66,1.92c-.66,1.36-.93,1.75-.76,1.78s.65-1,1-1.74.84-2,.84-2Z"/><path class="cls-7" d="M77.84,31.78a3.72,3.72,0,0,1-.22,1.42c-.3,1-.66,1.57-.53,1.64s.48-.87.69-1.59.5-1.63.5-1.63Z"/><path class="cls-7" d="M74.71,32.52a2.39,2.39,0,0,1-.16.84c-.18.51-.47,1-.39,1a1.84,1.84,0,0,0,.54-.92l.28-1Z"/><path class="cls-7" d="M84.11,31.4A4.19,4.19,0,0,0,83,30.31a3.44,3.44,0,0,0-1.45-.59c-.08.07.82.32,1.15.53a12.23,12.23,0,0,1,1.18,1.14Z"/><path class="cls-7" d="M81,31.31a2.91,2.91,0,0,0-.92-1.23,4.57,4.57,0,0,0-2-.8c-.2.06,1.5.49,1.88.87a4.1,4.1,0,0,1,.69,1.2Z"/><path class="cls-7" d="M78.28,31.62a6.75,6.75,0,0,0-1.39-1.09,6.29,6.29,0,0,0-1.66-.42c-.19,0,1.28.33,1.69.62a9.06,9.06,0,0,1,1,1Z"/><path class="cls-7" d="M74.71,32.43s0-.24-.74-.5-1.06-.43-.91-.43a5.09,5.09,0,0,1,.91.24,5.81,5.81,0,0,1,1.07.61Z"/><path class="cls-3" d="M90.37,46.1c3,2.2,6.91,9.14,2.29,14.85S81.29,67,76.2,63.65a11.49,11.49,0,0,1-1.43-18.14C79.92,40.62,85.87,42.79,90.37,46.1Z"/><path class="cls-4" d="M77.88,45.29h0Z"/><path class="cls-4" d="M78.58,46c.35-.17.74-.53.41-.85s-.78,0-1.09.12C77.46,45.68,77.64,46.46,78.58,46Z"/><path class="cls-4" d="M77.9,45.28l.53-.21A.82.82,0,0,0,77.9,45.28Z"/><path class="cls-4" d="M76.94,46.81c.14-.1.31-.3.14-.44a.22.22,0,0,0-.33.07.44.44,0,0,0-.22.29C76.5,47,76.81,46.91,76.94,46.81Z"/><path class="cls-4" d="M79.23,46.63a.35.35,0,0,0-.33,0c-.16,0-.35.08-.38.21a.25.25,0,0,0,0,.08l0,0,0,0c0,.14.39,0,.51,0S79.5,46.78,79.23,46.63Z"/><path class="cls-4" d="M78.47,47l0,0Z"/><path class="cls-4" d="M80,45.85c-.15,0-.32.21-.23.36s.44.09.56,0C80.8,46,80.15,45.73,80,45.85Z"/><path class="cls-4" d="M80.59,44.92c-.1,0-.29-.06-.37,0a.14.14,0,0,0,0,.18c0,.1.17.2.25.23s.91.33,1,.07S80.78,45,80.59,44.92Z"/><path class="cls-4" d="M79.76,44.4c.16.09.71.07.77-.16s-.3-.28-.45-.26a.77.77,0,0,0-.24.14C79.69,44.19,79.58,44.31,79.76,44.4Z"/><path class="cls-4" d="M77,45.73c.29-.22,0-.34-.22-.3h0c-.13,0-.46.14-.37.33S76.93,45.81,77,45.73Z"/><path class="cls-4" d="M75.82,47.11c.11-.13.44-.67.06-.69a.28.28,0,0,0-.19.1,1.08,1.08,0,0,0-.39.53C75.15,47.56,75.64,47.33,75.82,47.11Z"/><path class="cls-4" d="M77.87,47.26a.8.8,0,0,0-.5,0,1,1,0,0,0-.66.52c-.13.52.78.15,1,.08S78.3,47.42,77.87,47.26Z"/><path class="cls-4" d="M79.4,47.67c-.15,0-.3.17-.3.29s.52.18.67.11C80.33,47.81,79.6,47.56,79.4,47.67Z"/><path class="cls-4" d="M83,44.79a.27.27,0,0,0-.25.1.7.7,0,0,0,1,0A.58.58,0,0,0,83,44.79Z"/><path class="cls-4" d="M81.51,46.13c.31.11,1.16.17,1.23-.27a.73.73,0,0,0-.68-.09C81.79,45.76,81.51,45.85,81.51,46.13Z"/><path class="cls-4" d="M82.12,43.83a.44.44,0,0,0-.62-.06.28.28,0,0,0-.15.18A.59.59,0,0,0,82.12,43.83Z"/><path class="cls-4" d="M84.43,45.66c-.62,0,.18.81.53.55S84.68,45.5,84.43,45.66Z"/><path class="cls-4" d="M75.5,48.25c-.19-.15-.36,0-.47.18-.42.27-.92.91-.52,1.06S75.49,48.6,75.5,48.25Z"/><path class="cls-4" d="M74.35,47.43c-.54.1-.29,1,.23.39C74.9,47.43,74.57,47.31,74.35,47.43Z"/><path class="cls-4" d="M77.42,49.08a.28.28,0,0,0-.2.25c.2.14.74.15.88-.11S77.6,48.77,77.42,49.08Z"/><path class="cls-4" d="M82.21,47.6l0,0a.43.43,0,0,0,0,.11s0,.09,0,.11c.11.3.73.31.61-.06S82.36,47.46,82.21,47.6Z"/><path class="cls-4" d="M87.77,46.82c-.36-.51-1.12,0-.65.15C87.4,47.18,88.13,47.31,87.77,46.82Z"/><path class="cls-4" d="M74.82,51.6l.08-.13a.9.9,0,0,0-.4.63c.21.06.85-.36.83-.64S75,51.33,74.82,51.6Z"/><path class="cls-4" d="M80.5,50.19a.14.14,0,0,0,.21,0c.26,0,.74,0,.54-.31S80.57,50,80.5,50.19Z"/><path class="cls-4" d="M72.66,49.91a.4.4,0,0,0,0,.22c.32.11,1.13,0,.86-.51S72.75,49.53,72.66,49.91Z"/><path class="cls-4" d="M73.78,48.55h0a.27.27,0,0,0-.33.26.4.4,0,0,0,.56-.21A.34.34,0,0,0,73.78,48.55Z"/><path class="cls-5" d="M74.83,59.86c-1.17.86,4.8,5.2,8.69,5a11.45,11.45,0,0,0,9.4-6c1-2.14.67-8.23-.62-7.81-.46.16.11,2.22-1.78,5.35-1.65,2.74-4.47,5.45-8.21,5.27C77.19,61.46,75.61,59.3,74.83,59.86Z"/><path class="cls-6" d="M87.65,44.81a.54.54,0,0,0-.49.83c.33.8,2.28,2.1,2.84,1.88s.58-.87-.24-1.5A4.63,4.63,0,0,0,87.65,44.81Z"/><path class="cls-6" d="M88.66,45.88s2.26-2.34,2.91-3.22a43,43,0,0,0,2.14-4.23s.2-.3.48-.24.19.46.19.46-1.57,3.23-2.21,4.12c-1.3,1.81-3,3.77-3,3.77Z"/><path class="cls-6" d="M92.61,41.47c-.14,0-3.73-.47-3.73-.47l-.14.21,1.85.3,1.85.31Z"/><path class="cls-6" d="M84.83,45.67c-3.85,1-9.54-1.77-9.54-1.77s3.8-4.43,7.06-4.76,8.93,2.27,8.93,2.27A13.44,13.44,0,0,1,84.83,45.67Z"/><path class="cls-7" d="M87.68,45a.8.8,0,0,0-.08.79A4.16,4.16,0,0,0,89,47l.09-.71s-.3-.2-.33-.38a.41.41,0,0,1,0-.27Z"/><path class="cls-7" d="M90,41.5a30.48,30.48,0,0,0-6.46.06c-3,.44-7.52,1.87-7.46,2.07s5-1.64,7.36-1.8,6.74,0,6.74,0Z"/><path class="cls-7" d="M88.51,41.61a3.61,3.61,0,0,1-.63,1.18,8.25,8.25,0,0,0-1.09,1.68,10.43,10.43,0,0,0,1.26-1.57c.35-.52.81-1.26.81-1.26Z"/><path class="cls-7" d="M85.51,41.64a5.29,5.29,0,0,1-.66,1.91c-.67,1.36-.93,1.75-.77,1.78s.66-1,1-1.74.85-2,.85-2Z"/><path class="cls-7" d="M82.59,41.91a3.63,3.63,0,0,1-.23,1.42c-.29,1-.66,1.57-.52,1.64s.48-.86.68-1.59.5-1.62.5-1.62Z"/><path class="cls-7" d="M79.46,42.65a2.39,2.39,0,0,1-.16.84c-.19.52-.48,1-.39,1a1.75,1.75,0,0,0,.53-.92c.14-.46.28-1,.28-1Z"/><path class="cls-7" d="M88.86,41.53a4.25,4.25,0,0,0-1.13-1.08,3.53,3.53,0,0,0-1.46-.6c-.08.07.83.33,1.15.54a12.62,12.62,0,0,1,1.19,1.14Z"/><path class="cls-7" d="M85.78,41.44a2.91,2.91,0,0,0-.92-1.23,4.68,4.68,0,0,0-2.06-.8c-.19.07,1.5.5,1.88.87a4.22,4.22,0,0,1,.7,1.2Z"/><path class="cls-7" d="M83,41.76a6.28,6.28,0,0,0-1.38-1.09A6.1,6.1,0,0,0,80,40.24c-.2,0,1.27.33,1.68.62a8.4,8.4,0,0,1,1,1Z"/><path class="cls-7" d="M79.45,42.56s0-.24-.73-.5-1.06-.42-.92-.42a3.94,3.94,0,0,1,.91.23,6.29,6.29,0,0,1,1.08.61Z"/><path class="cls-3" d="M70.62,46.66c3,2.19,6.92,9.14,2.3,14.85S61.54,67.56,56.45,64.2A11.47,11.47,0,0,1,55,46.07C60.17,41.18,66.12,43.34,70.62,46.66Z"/><path class="cls-4" d="M58.14,45.84h0Z"/><path class="cls-4" d="M58.83,46.56c.35-.17.74-.53.41-.84s-.78,0-1.09.12C57.72,46.24,57.9,47,58.83,46.56Z"/><path class="cls-4" d="M58.15,45.84l.54-.21A.83.83,0,0,0,58.15,45.84Z"/><path class="cls-4" d="M57.2,47.37c.13-.1.31-.3.13-.44A.22.22,0,0,0,57,47a.44.44,0,0,0-.22.29C56.75,47.58,57.06,47.47,57.2,47.37Z"/><path class="cls-4" d="M59.48,47.19a.3.3,0,0,0-.33,0c-.15,0-.35.08-.38.21a.25.25,0,0,0,0,.08l0,0,0,0c.05.15.39,0,.51,0S59.75,47.33,59.48,47.19Z"/><path class="cls-4" d="M58.72,47.52h0Z"/><path class="cls-4" d="M60.22,46.4c-.15.05-.32.21-.24.36s.44.09.57,0C61.05,46.5,60.4,46.29,60.22,46.4Z"/><path class="cls-4" d="M60.84,45.48c-.1,0-.29-.07-.37,0a.14.14,0,0,0,0,.17c0,.11.18.2.25.24s.91.32,1,.06S61,45.5,60.84,45.48Z"/><path class="cls-4" d="M60,45c.16.08.72.06.77-.16s-.3-.28-.45-.26a.61.61,0,0,0-.24.14C59.94,44.75,59.83,44.86,60,45Z"/><path class="cls-4" d="M57.3,46.28c.29-.21,0-.33-.23-.29h0c-.13,0-.46.14-.37.32S57.18,46.37,57.3,46.28Z"/><path class="cls-4" d="M56.08,47.67c.11-.13.44-.67.06-.69a.23.23,0,0,0-.2.1,1.15,1.15,0,0,0-.39.53C55.41,48.11,55.89,47.88,56.08,47.67Z"/><path class="cls-4" d="M58.13,47.82a.77.77,0,0,0-.51,0,1,1,0,0,0-.66.52c-.13.51.78.14,1,.07S58.55,48,58.13,47.82Z"/><path class="cls-4" d="M59.65,48.23c-.14.05-.3.17-.3.29s.53.18.67.11C60.58,48.37,59.85,48.11,59.65,48.23Z"/><path class="cls-4" d="M63.24,45.35a.23.23,0,0,0-.25.1.68.68,0,0,0,1,0A.58.58,0,0,0,63.24,45.35Z"/><path class="cls-4" d="M61.76,46.69c.31.11,1.16.16,1.23-.28a.75.75,0,0,0-.68-.08C62,46.32,61.76,46.41,61.76,46.69Z"/><path class="cls-4" d="M62.37,44.39a.44.44,0,0,0-.62-.07.32.32,0,0,0-.15.19A.61.61,0,0,0,62.37,44.39Z"/><path class="cls-4" d="M64.69,46.22c-.63,0,.18.8.52.55S64.93,46.05,64.69,46.22Z"/><path class="cls-4" d="M55.75,48.81c-.19-.16-.35,0-.47.18-.42.27-.92.9-.52,1.06S55.74,49.15,55.75,48.81Z"/><path class="cls-4" d="M54.6,48c-.54.11-.28,1,.23.39C55.15,48,54.82,47.87,54.6,48Z"/><path class="cls-4" d="M57.67,49.63a.28.28,0,0,0-.19.25c.2.15.73.16.87-.11S57.85,49.32,57.67,49.63Z"/><path class="cls-4" d="M62.47,48.16l0,0a.26.26,0,0,0,0,.11c0,.06,0,.1,0,.12.11.29.73.3.61-.07S62.61,48,62.47,48.16Z"/><path class="cls-4" d="M68,47.37c-.36-.5-1.12,0-.64.16C67.66,47.73,68.38,47.86,68,47.37Z"/><path class="cls-4" d="M55.08,52.16l.07-.13a.9.9,0,0,0-.4.63c.22.06.85-.37.83-.65S55.26,51.89,55.08,52.16Z"/><path class="cls-4" d="M60.75,50.74c.08.09.14.09.21,0,.26,0,.74,0,.54-.31S60.82,50.52,60.75,50.74Z"/><path class="cls-4" d="M52.91,50.46a.53.53,0,0,0,0,.22c.32.11,1.14,0,.87-.51S53,50.09,52.91,50.46Z"/><path class="cls-4" d="M54,49.1h0c-.19,0-.32.07-.33.27A.39.39,0,1,0,54,49.1Z"/><path class="cls-5" d="M55.08,60.42c-1.17.86,4.8,5.19,8.69,5a11.44,11.44,0,0,0,9.4-6c1-2.15.67-8.23-.61-7.81-.46.15.1,2.22-1.79,5.35-1.65,2.74-4.47,5.45-8.21,5.26C57.45,62,55.86,59.85,55.08,60.42Z"/><path class="cls-6" d="M67.9,45.36a.55.55,0,0,0-.48.84c.32.8,2.27,2.1,2.83,1.88s.58-.87-.23-1.5A4.73,4.73,0,0,0,67.9,45.36Z"/><path class="cls-6" d="M68.92,46.43s2.26-2.34,2.9-3.22A39.9,39.9,0,0,0,74,39s.2-.3.48-.25.2.47.2.47-1.58,3.23-2.22,4.12c-1.3,1.8-3,3.77-3,3.77Z"/><path class="cls-6" d="M72.86,42l-3.73-.47-.14.22,1.86.3,1.85.3Z"/><path class="cls-6" d="M65.09,46.23c-3.86,1-9.55-1.77-9.55-1.77s3.8-4.43,7.07-4.77S71.53,42,71.53,42A13.5,13.5,0,0,1,65.09,46.23Z"/><path class="cls-7" d="M67.94,45.6a.82.82,0,0,0-.09.79,4.09,4.09,0,0,0,1.4,1.11l.09-.7s-.3-.21-.33-.38a.39.39,0,0,1,0-.27Z"/><path class="cls-7" d="M70.27,42.06a30.4,30.4,0,0,0-6.45.06c-3,.43-7.52,1.86-7.47,2.07s4.95-1.64,7.37-1.8,6.73,0,6.73,0Z"/><path class="cls-7" d="M68.76,42.17a3.28,3.28,0,0,1-.63,1.17A8.7,8.7,0,0,0,67.05,45a10.55,10.55,0,0,0,1.25-1.57c.35-.53.81-1.27.81-1.27Z"/><path class="cls-7" d="M65.76,42.19a5.29,5.29,0,0,1-.66,1.91c-.66,1.36-.93,1.76-.76,1.79s.65-1,1-1.74.85-2,.85-2Z"/><path class="cls-7" d="M62.84,42.47a3.65,3.65,0,0,1-.23,1.42c-.29,1-.65,1.57-.52,1.64s.48-.87.68-1.59.5-1.63.5-1.63Z"/><path class="cls-7" d="M59.71,43.21a2.39,2.39,0,0,1-.16.84c-.18.51-.47,1-.39,1a1.84,1.84,0,0,0,.54-.92c.13-.46.27-1,.27-1Z"/><path class="cls-7" d="M69.11,42.09A4.38,4.38,0,0,0,68,41a3.41,3.41,0,0,0-1.46-.59c-.07.07.83.32,1.15.53a11.47,11.47,0,0,1,1.19,1.14Z"/><path class="cls-7" d="M66,42a2.91,2.91,0,0,0-.92-1.23,4.57,4.57,0,0,0-2-.8c-.2.06,1.5.49,1.88.87a4.1,4.1,0,0,1,.69,1.2Z"/><path class="cls-7" d="M63.27,42.31a6.6,6.6,0,0,0-1.38-1.09,5.92,5.92,0,0,0-1.66-.42c-.2,0,1.28.33,1.69.62a9.06,9.06,0,0,1,1,1Z"/><path class="cls-7" d="M59.7,43.12s0-.24-.73-.5-1.06-.43-.91-.43a5.09,5.09,0,0,1,.91.24A5.81,5.81,0,0,1,60,43Z"/><path class="cls-3" d="M51.71,28.86c3,2.19,6.91,9.14,2.29,14.85s-11.37,6-16.46,2.69a11.48,11.48,0,0,1-1.43-18.13C41.26,23.37,47.21,25.54,51.71,28.86Z"/><path class="cls-4" d="M39.22,28h0Z"/><path class="cls-4" d="M39.92,28.76c.34-.17.74-.53.41-.84s-.78,0-1.09.12C38.8,28.44,39,29.22,39.92,28.76Z"/><path class="cls-4" d="M39.24,28l.53-.21A.82.82,0,0,0,39.24,28Z"/><path class="cls-4" d="M38.28,29.57c.14-.1.31-.3.14-.44a.22.22,0,0,0-.33.07.44.44,0,0,0-.22.29C37.84,29.78,38.15,29.67,38.28,29.57Z"/><path class="cls-4" d="M40.57,29.39a.3.3,0,0,0-.33,0c-.16,0-.35.08-.38.21a.25.25,0,0,0,0,.08l0,0,0,0c0,.15.39,0,.51,0S40.84,29.53,40.57,29.39Z"/><path class="cls-4" d="M39.81,29.72h0Z"/><path class="cls-4" d="M41.3,28.6c-.15,0-.32.21-.23.36s.44.09.56,0C42.14,28.7,41.49,28.49,41.3,28.6Z"/><path class="cls-4" d="M41.93,27.68c-.1,0-.29-.07-.37,0a.14.14,0,0,0,0,.17c0,.11.18.2.25.24s.92.32,1,.06S42.12,27.7,41.93,27.68Z"/><path class="cls-4" d="M41.1,27.16c.16.08.71.06.77-.16s-.3-.28-.45-.26a.55.55,0,0,0-.24.14C41,27,40.92,27.06,41.1,27.16Z"/><path class="cls-4" d="M38.38,28.48c.29-.21,0-.33-.22-.29h0c-.13,0-.46.14-.37.32S38.27,28.57,38.38,28.48Z"/><path class="cls-4" d="M37.16,29.87c.11-.13.44-.67.06-.7a.24.24,0,0,0-.19.11,1.08,1.08,0,0,0-.39.53C36.49,30.31,37,30.08,37.16,29.87Z"/><path class="cls-4" d="M39.21,30a.74.74,0,0,0-.5,0,1,1,0,0,0-.67.52c-.12.51.79.14,1,.07S39.64,30.18,39.21,30Z"/><path class="cls-4" d="M40.74,30.43c-.15.05-.3.17-.3.29s.52.17.67.11C41.67,30.56,40.94,30.31,40.74,30.43Z"/><path class="cls-4" d="M44.32,27.54a.28.28,0,0,0-.25.11.69.69,0,0,0,1,0A.6.6,0,0,0,44.32,27.54Z"/><path class="cls-4" d="M42.85,28.89c.31.11,1.16.16,1.23-.28a.75.75,0,0,0-.68-.08C43.13,28.52,42.85,28.61,42.85,28.89Z"/><path class="cls-4" d="M43.46,26.59a.45.45,0,0,0-.62-.07.32.32,0,0,0-.15.19A.61.61,0,0,0,43.46,26.59Z"/><path class="cls-4" d="M45.77,28.42c-.63,0,.18.8.53.55S46,28.25,45.77,28.42Z"/><path class="cls-4" d="M36.84,31c-.19-.16-.36,0-.47.18-.42.27-.92.9-.52,1.06S36.83,31.35,36.84,31Z"/><path class="cls-4" d="M35.69,30.18c-.54.11-.29,1,.23.39C36.24,30.19,35.91,30.07,35.69,30.18Z"/><path class="cls-4" d="M38.76,31.83a.29.29,0,0,0-.2.25c.2.15.74.16.88-.11S38.94,31.52,38.76,31.83Z"/><path class="cls-4" d="M43.55,30.36l0-.05a.52.52,0,0,0,0,.11s0,.1,0,.12c.12.29.74.3.62-.07S43.7,30.21,43.55,30.36Z"/><path class="cls-4" d="M49.11,29.57c-.37-.5-1.12,0-.65.16C48.74,29.93,49.47,30.06,49.11,29.57Z"/><path class="cls-4" d="M36.16,34.36l.08-.13a.87.87,0,0,0-.4.63c.21.06.85-.37.83-.65S36.35,34.09,36.16,34.36Z"/><path class="cls-4" d="M41.84,32.94a.16.16,0,0,0,.21.05c.26,0,.74,0,.54-.31S41.91,32.72,41.84,32.94Z"/><path class="cls-4" d="M34,32.66a.41.41,0,0,0,0,.22c.32.11,1.13,0,.86-.51S34.09,32.29,34,32.66Z"/><path class="cls-4" d="M35.12,31.3h0a.27.27,0,0,0-.33.27.4.4,0,0,0,.56-.22A.41.41,0,0,0,35.12,31.3Z"/><path class="cls-5" d="M36.17,42.62c-1.18.86,4.8,5.19,8.69,5a11.44,11.44,0,0,0,9.4-6c1-2.15.67-8.23-.62-7.81-.46.15.11,2.22-1.78,5.34-1.65,2.75-4.47,5.46-8.21,5.27C38.53,44.22,37,42.05,36.17,42.62Z"/><path class="cls-6" d="M49,27.56a.55.55,0,0,0-.49.84c.33.8,2.28,2.09,2.84,1.88s.58-.87-.24-1.5A4.71,4.71,0,0,0,49,27.56Z"/><path class="cls-6" d="M50,28.63s2.26-2.34,2.91-3.22a42,42,0,0,0,2.14-4.22s.2-.3.48-.25.19.47.19.47-1.57,3.23-2.21,4.11c-1.3,1.81-3,3.78-3,3.78Z"/><path class="cls-6" d="M54,24.22l-3.73-.47-.14.22,1.85.3,1.85.3Z"/><path class="cls-6" d="M46.17,28.43c-3.85,1-9.55-1.77-9.55-1.77s3.81-4.43,7.07-4.77,8.93,2.27,8.93,2.27A13.5,13.5,0,0,1,46.17,28.43Z"/><path class="cls-7" d="M49,27.8a.8.8,0,0,0-.08.79,4.09,4.09,0,0,0,1.4,1.11l.09-.7s-.3-.21-.33-.38a.39.39,0,0,1,0-.27Z"/><path class="cls-7" d="M51.36,24.26a29.75,29.75,0,0,0-6.46.06c-3,.43-7.52,1.86-7.46,2.07s5-1.64,7.36-1.8,6.74,0,6.74,0Z"/><path class="cls-7" d="M49.84,24.37a3.34,3.34,0,0,1-.62,1.17,8.47,8.47,0,0,0-1.09,1.69,11,11,0,0,0,1.26-1.57c.35-.53.81-1.27.81-1.27Z"/><path class="cls-7" d="M46.85,24.39a5.29,5.29,0,0,1-.66,1.91c-.67,1.36-.93,1.76-.77,1.79s.66-1,1-1.74.85-2,.85-2Z"/><path class="cls-7" d="M43.93,24.67a3.65,3.65,0,0,1-.23,1.42c-.3,1-.66,1.57-.52,1.64s.48-.87.68-1.59.5-1.63.5-1.63Z"/><path class="cls-7" d="M40.8,25.41a2.39,2.39,0,0,1-.16.84c-.19.51-.48,1-.39,1a1.93,1.93,0,0,0,.53-.92l.28-1Z"/><path class="cls-7" d="M50.2,24.29a4.38,4.38,0,0,0-1.13-1.09,3.46,3.46,0,0,0-1.46-.59c-.08.07.83.32,1.15.53A12.62,12.62,0,0,1,50,24.28Z"/><path class="cls-7" d="M47.12,24.2A2.91,2.91,0,0,0,46.2,23a4.56,4.56,0,0,0-2.06-.8c-.19.06,1.5.49,1.88.87a4.22,4.22,0,0,1,.7,1.2Z"/><path class="cls-7" d="M44.36,24.51A6.6,6.6,0,0,0,43,23.42,5.66,5.66,0,0,0,41.32,23c-.2,0,1.27.33,1.68.62a8.6,8.6,0,0,1,1,1Z"/><path class="cls-7" d="M40.79,25.32s0-.24-.73-.5-1.07-.43-.92-.43a4.16,4.16,0,0,1,.91.24,5.66,5.66,0,0,1,1.08.61Z"/><path class="cls-3" d="M25.23,44.55c-3,2.2-6.91,9.14-2.29,14.85s11.37,6.06,16.47,2.7A11.47,11.47,0,0,0,40.83,44C35.69,39.07,29.74,41.24,25.23,44.55Z"/><path class="cls-4" d="M37.72,43.74h0Z"/><path class="cls-4" d="M37,44.46c-.35-.17-.75-.53-.42-.85s.78,0,1.1.12C38.14,44.13,38,44.91,37,44.46Z"/><path class="cls-4" d="M37.7,43.73l-.53-.21A.83.83,0,0,1,37.7,43.73Z"/><path class="cls-4" d="M38.66,45.26c-.13-.1-.31-.3-.14-.44a.23.23,0,0,1,.34.07.43.43,0,0,1,.21.29C39.1,45.47,38.8,45.36,38.66,45.26Z"/><path class="cls-4" d="M36.37,45.08a.35.35,0,0,1,.33,0c.16,0,.35.08.39.21a.11.11,0,0,1,0,.08s0,0,0,0l0,0c0,.14-.38,0-.51,0S36.11,45.23,36.37,45.08Z"/><path class="cls-4" d="M37.14,45.41l0,0Z"/><path class="cls-4" d="M35.64,44.3c.15,0,.32.21.23.36s-.44.09-.56,0C34.81,44.4,35.45,44.19,35.64,44.3Z"/><path class="cls-4" d="M35,43.37c.11,0,.29-.06.37,0a.15.15,0,0,1,0,.18c0,.1-.18.2-.25.23s-.92.33-1,.07S34.83,43.4,35,43.37Z"/><path class="cls-4" d="M35.84,42.85c-.15.09-.71.07-.77-.16s.31-.28.45-.26a.6.6,0,0,1,.24.14C35.91,42.64,36,42.76,35.84,42.85Z"/><path class="cls-4" d="M38.56,44.18c-.29-.22,0-.34.22-.3h0c.14,0,.47.15.38.33S38.67,44.26,38.56,44.18Z"/><path class="cls-4" d="M39.78,45.56c-.11-.12-.44-.67-.06-.69a.3.3,0,0,1,.2.1,1.06,1.06,0,0,1,.38.53C40.45,46,40,45.78,39.78,45.56Z"/><path class="cls-4" d="M37.73,45.71a.8.8,0,0,1,.5,0,1,1,0,0,1,.67.52c.12.52-.79.15-1,.08S37.31,45.87,37.73,45.71Z"/><path class="cls-4" d="M36.2,46.12c.15.05.31.17.3.29s-.52.18-.66.11C35.28,46.26,36,46,36.2,46.12Z"/><path class="cls-4" d="M32.62,43.24a.25.25,0,0,1,.25.1.7.7,0,0,1-1,0A.59.59,0,0,1,32.62,43.24Z"/><path class="cls-4" d="M34.1,44.58c-.32.11-1.17.17-1.23-.27a.69.69,0,0,1,.68-.08C33.81,44.21,34.09,44.3,34.1,44.58Z"/><path class="cls-4" d="M33.48,42.28a.46.46,0,0,1,.63-.06.26.26,0,0,1,.14.18A.59.59,0,0,1,33.48,42.28Z"/><path class="cls-4" d="M31.17,44.11c.63,0-.18.81-.53.55S30.92,44,31.17,44.11Z"/><path class="cls-4" d="M40.1,46.7c.2-.15.36,0,.47.18.42.27.93.91.53,1.06S40.11,47.05,40.1,46.7Z"/><path class="cls-4" d="M41.26,45.88c.54.1.28,1-.23.39C40.71,45.88,41,45.76,41.26,45.88Z"/><path class="cls-4" d="M38.18,47.53a.28.28,0,0,1,.2.25c-.2.14-.74.15-.87-.11S38,47.22,38.18,47.53Z"/><path class="cls-4" d="M33.39,46.05l0,0a.43.43,0,0,1,0,.11c0,.05,0,.1,0,.11-.11.3-.73.31-.62-.06S33.24,45.91,33.39,46.05Z"/><path class="cls-4" d="M27.83,45.27c.37-.51,1.12,0,.65.15C28.2,45.63,27.47,45.76,27.83,45.27Z"/><path class="cls-4" d="M40.78,50.06l-.07-.14a.93.93,0,0,1,.4.64c-.22,0-.85-.37-.84-.65S40.6,49.78,40.78,50.06Z"/><path class="cls-4" d="M35.11,48.64a.17.17,0,0,1-.22,0c-.26,0-.74,0-.53-.32S35,48.42,35.11,48.64Z"/><path class="cls-4" d="M42.94,48.36a.4.4,0,0,1,0,.22c-.32.11-1.13,0-.86-.51S42.85,48,42.94,48.36Z"/><path class="cls-4" d="M41.83,47h0a.27.27,0,0,1,.33.26A.39.39,0,0,1,41.6,47,.33.33,0,0,1,41.83,47Z"/><path class="cls-5" d="M40.77,58.31c1.18.86-4.8,5.2-8.68,5a11.45,11.45,0,0,1-9.41-6c-1-2.14-.66-8.23.62-7.81.46.16-.1,2.22,1.78,5.35,1.65,2.74,4.48,5.45,8.21,5.27C38.41,59.91,40,57.75,40.77,58.31Z"/><path class="cls-6" d="M28,43.26a.54.54,0,0,1,.49.83c-.32.8-2.27,2.1-2.83,1.88s-.59-.87.23-1.49A4.66,4.66,0,0,1,28,43.26Z"/><path class="cls-6" d="M26.94,44.33S24.68,42,24,41.11a41.89,41.89,0,0,1-2.14-4.23s-.2-.3-.47-.24-.2.46-.2.46,1.58,3.23,2.21,4.12c1.3,1.81,3,3.77,3,3.77Z"/><path class="cls-6" d="M23,39.92c.13,0,3.73-.47,3.73-.47l.13.21L25,40l-1.85.31Z"/><path class="cls-6" d="M30.77,44.12c3.85,1,9.55-1.76,9.55-1.76s-3.81-4.44-7.07-4.77-8.93,2.27-8.93,2.27A13.44,13.44,0,0,0,30.77,44.12Z"/><path class="cls-7" d="M27.92,43.49a.82.82,0,0,1,.09.79,4.16,4.16,0,0,1-1.4,1.12l-.1-.71s.3-.2.34-.38a.38.38,0,0,0,0-.27Z"/><path class="cls-7" d="M25.58,40A30.48,30.48,0,0,1,32,40c3,.44,7.52,1.87,7.46,2.07s-4.94-1.64-7.36-1.8-6.74,0-6.74,0Z"/><path class="cls-7" d="M27.1,40.06a3.41,3.41,0,0,0,.62,1.18,8.25,8.25,0,0,1,1.09,1.68,10.21,10.21,0,0,1-1.25-1.56c-.36-.53-.82-1.27-.82-1.27Z"/><path class="cls-7" d="M30.1,40.09A5,5,0,0,0,30.76,42c.66,1.36.92,1.75.76,1.79s-.66-1-1-1.75-.85-2-.85-2Z"/><path class="cls-7" d="M33,40.36a3.63,3.63,0,0,0,.23,1.42c.3,1,.66,1.57.53,1.64s-.49-.86-.69-1.59-.5-1.62-.5-1.62Z"/><path class="cls-7" d="M36.15,41.1a2.13,2.13,0,0,0,.16.84c.18.52.47,1,.38,1a1.82,1.82,0,0,1-.53-.92l-.28-1Z"/><path class="cls-7" d="M26.74,40a4.25,4.25,0,0,1,1.13-1.08,3.53,3.53,0,0,1,1.46-.6c.08.07-.83.33-1.15.54A12.23,12.23,0,0,0,27,40Z"/><path class="cls-7" d="M29.82,39.89a2.91,2.91,0,0,1,.92-1.23,4.73,4.73,0,0,1,2.06-.8c.2.07-1.5.5-1.88.87a4.23,4.23,0,0,0-.69,1.2Z"/><path class="cls-7" d="M32.58,40.21A6.75,6.75,0,0,1,34,39.12a5.58,5.58,0,0,1,1.66-.42c.19,0-1.28.32-1.69.61a8.84,8.84,0,0,0-1,1Z"/><path class="cls-7" d="M36.15,41s.05-.25.73-.5,1.07-.43.92-.43a4.57,4.57,0,0,0-.91.23,6.06,6.06,0,0,0-1.07.61Z"/><path class="cls-3" d="M54.22,46.66c3,2.19,6.91,9.14,2.29,14.85S45.13,67.56,40,64.2a11.47,11.47,0,0,1-1.42-18.13C43.76,41.18,49.71,43.34,54.22,46.66Z"/><path class="cls-4" d="M41.73,45.84h0Z"/><path class="cls-4" d="M42.42,46.56c.35-.17.74-.53.41-.84s-.78,0-1.09.12C41.31,46.24,41.49,47,42.42,46.56Z"/><path class="cls-4" d="M41.74,45.84l.54-.21A.83.83,0,0,0,41.74,45.84Z"/><path class="cls-4" d="M40.79,47.37c.13-.1.31-.3.13-.44a.22.22,0,0,0-.33.07.44.44,0,0,0-.22.29C40.34,47.58,40.65,47.47,40.79,47.37Z"/><path class="cls-4" d="M43.07,47.19a.3.3,0,0,0-.33,0c-.15,0-.35.08-.38.21a.25.25,0,0,0,0,.08l0,0,0,0c0,.15.39,0,.51,0S43.34,47.33,43.07,47.19Z"/><path class="cls-4" d="M42.31,47.52h0Z"/><path class="cls-4" d="M43.81,46.4c-.15.05-.32.21-.24.36s.44.09.57,0C44.64,46.5,44,46.29,43.81,46.4Z"/><path class="cls-4" d="M44.43,45.48c-.1,0-.29-.07-.37,0a.14.14,0,0,0,0,.17c0,.11.18.2.25.24s.91.32,1,.06S44.62,45.5,44.43,45.48Z"/><path class="cls-4" d="M43.6,45c.16.08.72.06.77-.16s-.3-.28-.45-.26a.61.61,0,0,0-.24.14C43.53,44.75,43.42,44.86,43.6,45Z"/><path class="cls-4" d="M40.89,46.28c.29-.21,0-.33-.23-.29h0c-.13,0-.46.14-.37.32S40.77,46.37,40.89,46.28Z"/><path class="cls-4" d="M39.67,47.67c.11-.13.44-.67.06-.69a.23.23,0,0,0-.2.1,1.15,1.15,0,0,0-.39.53C39,48.11,39.48,47.88,39.67,47.67Z"/><path class="cls-4" d="M41.72,47.82a.77.77,0,0,0-.51,0,1,1,0,0,0-.66.52c-.13.51.78.14,1,.07S42.14,48,41.72,47.82Z"/><path class="cls-4" d="M43.24,48.23c-.14.05-.3.17-.3.29s.53.18.67.11C44.17,48.37,43.44,48.11,43.24,48.23Z"/><path class="cls-4" d="M46.83,45.35a.23.23,0,0,0-.25.1.68.68,0,0,0,1,0A.58.58,0,0,0,46.83,45.35Z"/><path class="cls-4" d="M45.35,46.69c.31.11,1.16.16,1.23-.28a.75.75,0,0,0-.68-.08C45.63,46.32,45.35,46.41,45.35,46.69Z"/><path class="cls-4" d="M46,44.39a.44.44,0,0,0-.62-.07.32.32,0,0,0-.15.19A.61.61,0,0,0,46,44.39Z"/><path class="cls-4" d="M48.28,46.22c-.63,0,.18.8.52.55S48.52,46.05,48.28,46.22Z"/><path class="cls-4" d="M39.34,48.81c-.19-.16-.35,0-.47.18-.42.27-.92.9-.52,1.06S39.33,49.15,39.34,48.81Z"/><path class="cls-4" d="M38.19,48c-.54.11-.28,1,.23.39C38.74,48,38.41,47.87,38.19,48Z"/><path class="cls-4" d="M41.26,49.63a.28.28,0,0,0-.19.25c.2.15.73.16.87-.11S41.44,49.32,41.26,49.63Z"/><path class="cls-4" d="M46.06,48.16l0,0a.26.26,0,0,0,0,.11c0,.06,0,.1,0,.12.11.29.73.3.61-.07S46.2,48,46.06,48.16Z"/><path class="cls-4" d="M51.61,47.37c-.36-.5-1.12,0-.64.16C51.25,47.73,52,47.86,51.61,47.37Z"/><path class="cls-4" d="M38.67,52.16l.07-.13a.9.9,0,0,0-.4.63c.22.06.85-.37.83-.65S38.85,51.89,38.67,52.16Z"/><path class="cls-4" d="M44.34,50.74c.08.09.14.09.21,0,.26,0,.74,0,.54-.31S44.41,50.52,44.34,50.74Z"/><path class="cls-4" d="M36.5,50.46a.53.53,0,0,0,0,.22c.32.11,1.14,0,.87-.51S36.6,50.09,36.5,50.46Z"/><path class="cls-4" d="M37.62,49.1h0c-.19,0-.32.07-.33.27a.39.39,0,1,0,.32-.26Z"/><path class="cls-5" d="M38.67,60.42c-1.17.86,4.8,5.19,8.69,5a11.44,11.44,0,0,0,9.4-6c1-2.15.67-8.23-.61-7.81-.46.15.1,2.22-1.78,5.35-1.66,2.74-4.48,5.45-8.22,5.26C41,62,39.45,59.85,38.67,60.42Z"/><path class="cls-6" d="M51.49,45.36a.55.55,0,0,0-.48.84c.32.8,2.27,2.1,2.83,1.88s.58-.87-.23-1.5A4.73,4.73,0,0,0,51.49,45.36Z"/><path class="cls-6" d="M52.51,46.43s2.26-2.34,2.9-3.22A39.9,39.9,0,0,0,57.55,39s.2-.3.48-.25.2.47.2.47S56.65,42.44,56,43.33c-1.3,1.8-3,3.77-3,3.77Z"/><path class="cls-6" d="M56.45,42l-3.73-.47-.14.22,1.86.3,1.85.3Z"/><path class="cls-6" d="M48.68,46.23c-3.86,1-9.55-1.77-9.55-1.77s3.8-4.43,7.07-4.77S55.12,42,55.12,42A13.5,13.5,0,0,1,48.68,46.23Z"/><path class="cls-7" d="M51.53,45.6a.82.82,0,0,0-.09.79,4.09,4.09,0,0,0,1.4,1.11l.09-.7s-.3-.21-.33-.38a.39.39,0,0,1,0-.27Z"/><path class="cls-7" d="M53.86,42.06a30.4,30.4,0,0,0-6.45.06c-3,.43-7.52,1.86-7.47,2.07s5-1.64,7.37-1.8,6.73,0,6.73,0Z"/><path class="cls-7" d="M52.35,42.17a3.28,3.28,0,0,1-.63,1.17A8.7,8.7,0,0,0,50.64,45a9.93,9.93,0,0,0,1.25-1.57c.35-.53.81-1.27.81-1.27Z"/><path class="cls-7" d="M49.35,42.19a5.29,5.29,0,0,1-.66,1.91c-.66,1.36-.93,1.76-.76,1.79s.65-1,1-1.74.85-2,.85-2Z"/><path class="cls-7" d="M46.43,42.47a3.72,3.72,0,0,1-.22,1.42c-.3,1-.66,1.57-.53,1.64s.48-.87.69-1.59.5-1.63.5-1.63Z"/><path class="cls-7" d="M43.3,43.21a2.39,2.39,0,0,1-.16.84c-.18.51-.47,1-.39,1a1.84,1.84,0,0,0,.54-.92c.13-.46.27-1,.27-1Z"/><path class="cls-7" d="M52.7,42.09A4.19,4.19,0,0,0,51.57,41a3.41,3.41,0,0,0-1.46-.59c-.07.07.83.32,1.15.53a11.47,11.47,0,0,1,1.19,1.14Z"/><path class="cls-7" d="M49.62,42a2.91,2.91,0,0,0-.92-1.23,4.57,4.57,0,0,0-2.05-.8c-.2.06,1.5.49,1.88.87a4.1,4.1,0,0,1,.69,1.2Z"/><path class="cls-7" d="M46.87,42.31a6.75,6.75,0,0,0-1.39-1.09,5.92,5.92,0,0,0-1.66-.42c-.2,0,1.28.33,1.69.62a9.06,9.06,0,0,1,1,1Z"/><path class="cls-7" d="M43.29,43.12s0-.24-.73-.5-1.06-.43-.91-.43a5.09,5.09,0,0,1,.91.24,5.81,5.81,0,0,1,1.07.61Z"/><path class="cls-3" d="M8,46.3C5,48.5,1.08,55.44,5.7,61.15s11.38,6.06,16.47,2.7a11.47,11.47,0,0,0,1.42-18.13C18.45,40.82,12.5,43,8,46.3Z"/><path class="cls-4" d="M20.48,45.49h0Z"/><path class="cls-4" d="M19.79,46.21c-.35-.17-.74-.53-.41-.85s.78,0,1.09.12C20.9,45.88,20.72,46.66,19.79,46.21Z"/><path class="cls-4" d="M20.47,45.48l-.54-.21A.83.83,0,0,1,20.47,45.48Z"/><path class="cls-4" d="M21.42,47c-.13-.1-.31-.3-.13-.44a.22.22,0,0,1,.33.07.44.44,0,0,1,.22.29C21.87,47.22,21.56,47.11,21.42,47Z"/><path class="cls-4" d="M19.14,46.83a.35.35,0,0,1,.33,0c.15,0,.35.08.38.21a.28.28,0,0,1,0,.08l0,0,0,0c0,.14-.38,0-.5,0S18.87,47,19.14,46.83Z"/><path class="cls-4" d="M19.9,47.16l0,0Z"/><path class="cls-4" d="M18.4,46.05c.15,0,.32.21.24.36s-.44.09-.57,0C17.57,46.15,18.22,45.94,18.4,46.05Z"/><path class="cls-4" d="M17.78,45.12c.1,0,.29-.06.37,0a.15.15,0,0,1,0,.18c0,.1-.18.2-.25.23s-.91.33-1,.07S17.59,45.15,17.78,45.12Z"/><path class="cls-4" d="M18.61,44.6c-.16.09-.72.07-.77-.16s.3-.28.45-.26a.77.77,0,0,1,.24.14C18.68,44.39,18.79,44.51,18.61,44.6Z"/><path class="cls-4" d="M21.32,45.93c-.29-.22,0-.34.22-.3h0c.13,0,.46.15.37.33S21.44,46,21.32,45.93Z"/><path class="cls-4" d="M22.54,47.31c-.11-.12-.44-.67-.06-.69a.3.3,0,0,1,.2.1,1.15,1.15,0,0,1,.39.53C23.21,47.76,22.73,47.53,22.54,47.31Z"/><path class="cls-4" d="M20.49,47.46a.83.83,0,0,1,.51,0,1,1,0,0,1,.66.52c.13.52-.78.15-1,.08S20.07,47.62,20.49,47.46Z"/><path class="cls-4" d="M19,47.87c.14.05.3.17.3.29s-.53.18-.67.11C18,48,18.77,47.76,19,47.87Z"/><path class="cls-4" d="M15.38,45a.25.25,0,0,1,.25.1.69.69,0,0,1-1,0A.57.57,0,0,1,15.38,45Z"/><path class="cls-4" d="M16.86,46.33c-.31.11-1.16.17-1.23-.27a.7.7,0,0,1,.68-.08C16.58,46,16.86,46.05,16.86,46.33Z"/><path class="cls-4" d="M16.25,44a.44.44,0,0,1,.62-.06.28.28,0,0,1,.15.18A.59.59,0,0,1,16.25,44Z"/><path class="cls-4" d="M13.93,45.86c.63,0-.18.81-.52.55S13.69,45.7,13.93,45.86Z"/><path class="cls-4" d="M22.87,48.45c.19-.15.35,0,.46.18.43.27.93.91.53,1.06S22.88,48.8,22.87,48.45Z"/><path class="cls-4" d="M24,47.63c.54.1.28,1-.23.39C23.47,47.63,23.8,47.51,24,47.63Z"/><path class="cls-4" d="M21,49.28a.27.27,0,0,1,.19.25c-.2.14-.73.15-.87-.11S20.77,49,21,49.28Z"/><path class="cls-4" d="M16.15,47.8l0,0a.23.23,0,0,1,0,.11c0,.05,0,.1,0,.11-.11.3-.73.31-.61-.06S16,47.66,16.15,47.8Z"/><path class="cls-4" d="M10.6,47c.36-.51,1.12,0,.64.15C11,47.38,10.24,47.51,10.6,47Z"/><path class="cls-4" d="M23.54,51.81l-.07-.14a.9.9,0,0,1,.4.64c-.22,0-.85-.37-.83-.65S23.36,51.53,23.54,51.81Z"/><path class="cls-4" d="M17.87,50.39a.16.16,0,0,1-.21,0c-.26,0-.75,0-.54-.32S17.8,50.17,17.87,50.39Z"/><path class="cls-4" d="M25.71,50.11a.51.51,0,0,1,0,.22c-.32.11-1.14,0-.87-.51S25.61,49.73,25.71,50.11Z"/><path class="cls-4" d="M24.59,48.75h0a.26.26,0,0,1,.33.26.39.39,0,0,1-.55-.21A.33.33,0,0,1,24.59,48.75Z"/><path class="cls-5" d="M23.54,60.06c1.17.86-4.8,5.2-8.69,5a11.45,11.45,0,0,1-9.4-6c-1-2.14-.67-8.23.61-7.81.46.16-.1,2.22,1.78,5.35,1.66,2.74,4.48,5.45,8.22,5.27C21.17,61.66,22.76,59.5,23.54,60.06Z"/><path class="cls-6" d="M10.72,45a.54.54,0,0,1,.48.83c-.32.8-2.27,2.1-2.83,1.88s-.58-.87.23-1.49A4.64,4.64,0,0,1,10.72,45Z"/><path class="cls-6" d="M9.7,46.08s-2.26-2.34-2.9-3.22a39.83,39.83,0,0,1-2.14-4.23s-.2-.3-.48-.24-.2.46-.2.46S5.56,42.08,6.2,43c1.3,1.81,3,3.77,3,3.77Z"/><path class="cls-6" d="M5.76,41.67c.14,0,3.73-.47,3.73-.47l.14.21-1.86.3L5.92,42Z"/><path class="cls-6" d="M13.53,45.87c3.86,1,9.55-1.77,9.55-1.77s-3.8-4.43-7.07-4.76-8.92,2.27-8.92,2.27A13.44,13.44,0,0,0,13.53,45.87Z"/><path class="cls-7" d="M10.68,45.24a.82.82,0,0,1,.09.79,4.16,4.16,0,0,1-1.4,1.12l-.09-.71s.3-.2.33-.38a.41.41,0,0,0,0-.27Z"/><path class="cls-7" d="M8.35,41.7a30.4,30.4,0,0,1,6.45.06c3,.44,7.52,1.87,7.47,2.07S17.32,42.19,14.9,42s-6.73,0-6.73,0Z"/><path class="cls-7" d="M9.86,41.81A3.36,3.36,0,0,0,10.49,43a8.47,8.47,0,0,1,1.08,1.68,10.21,10.21,0,0,1-1.25-1.56c-.36-.53-.81-1.27-.81-1.27Z"/><path class="cls-7" d="M12.86,41.84a5.29,5.29,0,0,0,.66,1.91c.66,1.36.93,1.75.76,1.79s-.65-1-1-1.75-.84-2-.84-2Z"/><path class="cls-7" d="M15.78,42.11A3.7,3.7,0,0,0,16,43.53c.3,1,.66,1.57.53,1.64s-.48-.86-.69-1.59-.5-1.62-.5-1.62Z"/><path class="cls-7" d="M18.91,42.85a2.39,2.39,0,0,0,.16.84c.18.52.47,1,.39,1a1.74,1.74,0,0,1-.54-.92c-.13-.46-.27-1-.27-1Z"/><path class="cls-7" d="M9.51,41.73a4.07,4.07,0,0,1,1.13-1.08,3.48,3.48,0,0,1,1.46-.6c.07.07-.83.33-1.16.54a12.23,12.23,0,0,0-1.18,1.14Z"/><path class="cls-7" d="M12.59,41.64a2.91,2.91,0,0,1,.92-1.23,4.7,4.7,0,0,1,2.05-.8c.2.07-1.5.5-1.88.87a4.23,4.23,0,0,0-.69,1.2Z"/><path class="cls-7" d="M15.34,42a6.75,6.75,0,0,1,1.39-1.09,5.58,5.58,0,0,1,1.66-.42c.2,0-1.28.32-1.69.61a8.84,8.84,0,0,0-1,1Z"/><path class="cls-7" d="M18.92,42.77s0-.25.73-.5,1.06-.43.91-.43a4.75,4.75,0,0,0-.91.23,6.49,6.49,0,0,0-1.07.61Z"/><path class="cls-8" d="M8.58,64.8c1.21,4.8,4.31,16.83,6.17,21.38,2.36,5.73,1.26,8.24,9,9,6.68.67,20.45.36,26.27.21,5.82.15,19.6.46,26.28-.21,7.78-.79,6.68-3.3,9-9,1.87-4.55,5.22-18.45,6.42-23.25Z"/><path class="cls-9" d="M94.06,60.58c-.63-2.28-4.19-1.78-5.9-1.7-.58,0-1.17,0-1.75,0-2.93.06-5.85.09-8.77.13-3.31,0-42.61.84-45.88,1L22,60.33c-2.87.1-5.73.2-8.6.28-.57,0-1.15,0-1.72,0-1.68,0-5.2-.33-5.71,1.93A2.32,2.32,0,0,0,7.72,65.4a14.82,14.82,0,0,0,3.39-.1C14.38,65.1,17.67,65,21,65l9.94-.24L41,64.5c1.23,0,7.54-.08,9.09-.11l8.48-.21,10.28-.26L79,63.7c3.34-.08,6.69-.18,10-.12a15.22,15.22,0,0,0,3.44-.06A2.37,2.37,0,0,0,94.06,60.58Z"/><path class="cls-10" d="M13.09,65.15c-.84-.13-1.05-1.36-1.12-2A4.39,4.39,0,0,1,12.43,61a0,0,0,0,0-.07,0,3.25,3.25,0,0,0-.53,2.72,4,4,0,0,0,.17.63A2.62,2.62,0,0,1,12,61a.06.06,0,0,0-.09-.07,2.88,2.88,0,0,0,.52,4.14h.06a.79.79,0,0,0,.6.25C13.19,65.33,13.18,65.16,13.09,65.15Z"/><path class="cls-10" d="M13.22,65a3.39,3.39,0,0,1-.1-4,.06.06,0,0,0-.09-.08,3.08,3.08,0,0,0-.79,2.07,2.88,2.88,0,0,0,.87,2.15C13.18,65.11,13.27,65,13.22,65Z"/><path class="cls-10" d="M23.13,65a5.29,5.29,0,0,1-.8-4.76.06.06,0,1,0-.11-.05c-.69,1.46-.73,4,.77,5A.1.1,0,0,0,23.13,65Z"/><path class="cls-10" d="M24,65a5.25,5.25,0,0,1-.77-4.67s-.06-.08-.08,0a4,4,0,0,0-.39,2.44c0,.15.06.32.09.49-.07-.15-.15-.31-.21-.47a3.71,3.71,0,0,1,.11-2.46.07.07,0,0,0-.12,0c-.63,1.38-.63,3.39.7,4.4l.05,0a1.93,1.93,0,0,0,.45.49C23.9,65.23,24.05,65.1,24,65Z"/><path class="cls-10" d="M36.33,64.51a6.78,6.78,0,0,1-.93-2.28,4.29,4.29,0,0,1,.21-1.95c0-.13.2-.35.17-.51a.07.07,0,0,0-.07-.06c-.52.1-.71,1.65-.7,2.06a3.32,3.32,0,0,0,1.22,2.83C36.28,64.63,36.37,64.58,36.33,64.51Z"/><path class="cls-10" d="M37.38,64.48c-.85-1.33-1.58-3-1-4.6,0-.08-.07-.11-.11-.05-.72,1.3-.48,4,.95,4.8C37.36,64.69,37.43,64.55,37.38,64.48Z"/><path class="cls-10" d="M51,61.4c-.09-.65,0-1.25,0-1.88,0-.09-.11-.09-.14,0a4.27,4.27,0,0,0,.55,4,.07.07,0,0,0,.11-.07A11.35,11.35,0,0,1,51,61.4Z"/><path class="cls-10" d="M50.94,64.28a8.93,8.93,0,0,1-.86-4.71c0-.1-.12-.11-.14,0a6,6,0,0,0,0,2.6,4.9,4.9,0,0,0,.79,2.25A.12.12,0,0,0,50.94,64.28Z"/><path class="cls-10" d="M50.51,64.47a9.68,9.68,0,0,1-.81-2.28,12,12,0,0,1,0-2.54.08.08,0,1,0-.15,0c-.29,1.51-.52,3.85.77,5C50.4,64.73,50.57,64.59,50.51,64.47Z"/><path class="cls-10" d="M59.51,60.57c0-.34.07-1.15-.16-1.41,0,0-.09,0-.09,0a6.74,6.74,0,0,0,.43,3.67c0,.06.13,0,.12,0C59.72,62.07,59.57,61.33,59.51,60.57Z"/><path class="cls-10" d="M60.51,61.52c0-.78.05-1.56,0-2.33a.08.08,0,0,0-.16,0A9.28,9.28,0,0,0,60.65,64c0,.06.11,0,.1,0C60.7,63.18,60.56,62.35,60.51,61.52Z"/><path class="cls-10" d="M59.92,61.32c-.06-.65,0-1.31,0-2,0-.08-.13-.07-.15,0a6.23,6.23,0,0,0,.44,4.15s.1,0,.09,0A13,13,0,0,1,59.92,61.32Z"/><path class="cls-10" d="M68.36,61.46a15.62,15.62,0,0,0,0-2.37c0-.09-.16-.1-.17,0-.13,1.51-.5,3.72.56,5a.12.12,0,0,0,.2-.12A10.29,10.29,0,0,1,68.36,61.46Z"/><path class="cls-10" d="M69.13,61.69c-.07-.84.09-1.65.08-2.48,0-.11-.15-.09-.17,0-.33,1.37-.73,3.79.43,4.91.07.07.22,0,.2-.12A12.93,12.93,0,0,1,69.13,61.69Z"/><path class="cls-10" d="M81.2,61.71c0-.87-.21-2.4-1-2.94a.06.06,0,0,0-.09.07,9.11,9.11,0,0,1,.62,2.62c.08.74-.28,1.53-.17,2.22,0,.07.1.14.17.1C81.33,63.45,81.21,62.28,81.2,61.71Z"/><path class="cls-10" d="M81.25,58.85a.1.1,0,0,0-.18.1,7,7,0,0,1,.38,4.49c0,.07.06.14.11.07A4.14,4.14,0,0,0,81.25,58.85Z"/><path class="cls-10" d="M91.55,60.55a2.78,2.78,0,0,0-.77-2c-.09-.07-.2,0-.14.14.87,1.32.61,3.21.42,4.67a.15.15,0,0,0,.29.08A7.09,7.09,0,0,0,91.55,60.55Z"/><path class="cls-10" d="M90.44,58.58a.09.09,0,0,0-.16.09A12.12,12.12,0,0,1,90.74,60a10.43,10.43,0,0,1,.12,1.48.15.15,0,0,0,.3,0A3.81,3.81,0,0,0,90.44,58.58Z"/><path class="cls-11" d="M94.06,60.58a2,2,0,0,0-.71-1.07A2.09,2.09,0,0,1,92,60.62a15.46,15.46,0,0,1-3.4.05c-3.3-.05-6.61,0-9.91.12l-10,.22-10.15.25-8.37.2c-1.53,0-7.75.09-9,.11l-10,.22-9.8.23c-3.24.08-6.49.14-9.72.34a14.94,14.94,0,0,1-3.34.1,2.05,2.05,0,0,1-1.47-1.13A2,2,0,0,0,6,62.59,2.32,2.32,0,0,0,7.72,65.4a14.82,14.82,0,0,0,3.39-.1C14.38,65.1,17.67,65,21,65l9.94-.24L41,64.5c1.23,0,7.54-.08,9.09-.11l8.48-.21,10.28-.26L79,63.7c3.34-.08,6.69-.18,10-.12a15.22,15.22,0,0,0,3.44-.06A2.37,2.37,0,0,0,94.06,60.58Z"/><path class="cls-11" d="M81.11,62.75,70.24,63l-11,.27-9.11.22c-1.67,0-8.44.1-9.77.12l-10.84.24-10.68.26c-3.52.09-7,.15-10.57.37-.57,0-1.16.11-1.75.15a2,2,0,0,0,1.25.77,14.82,14.82,0,0,0,3.39-.1C14.38,65.1,17.67,65,21,65l9.94-.24L41,64.5c1.23,0,7.54-.08,9.09-.11l8.48-.21,10.28-.26L79,63.7c3.34-.08,6.69-.18,10-.12a15.22,15.22,0,0,0,3.44-.06,2,2,0,0,0,1.22-.82c-.6,0-1.2-.07-1.78-.07C88.3,62.57,84.71,62.67,81.11,62.75Z"/><g class="cls-12"><path class="cls-13" d="M8.77,61.12a3.06,3.06,0,0,0-1.27.14.16.16,0,0,0,0,.32,4.19,4.19,0,0,0,.5,0,6.48,6.48,0,0,0,.77-.09A.17.17,0,0,0,8.77,61.12Z"/><path class="cls-13" d="M10.11,60.94a1.1,1.1,0,0,0-.54,0,.16.16,0,0,0,0,.31,1.1,1.1,0,0,0,.54,0A.16.16,0,0,0,10.11,60.94Z"/><path class="cls-13" d="M21.45,60.73a26.2,26.2,0,0,0-4.06,0,20.78,20.78,0,0,0-3.7.21.06.06,0,0,0,0,.11,18.28,18.28,0,0,0,3.47.07A35.87,35.87,0,0,0,21.44,61,.14.14,0,0,0,21.45,60.73Z"/><path class="cls-13" d="M33.56,60.54a21.18,21.18,0,0,0-4.21.05c-1.69,0-3.36,0-5,.15-.07,0-.07.12,0,.13,1.56.09,3.14.17,4.71.19a21.5,21.5,0,0,0,4.54-.18A.17.17,0,0,0,33.56,60.54Z"/><path class="cls-13" d="M48.84,60a37.69,37.69,0,0,0-5.52.06,32.49,32.49,0,0,0-5.41.3c-.08,0-.09.15,0,.15,1.72,0,3.4.1,5.12,0a46.88,46.88,0,0,0,5.81-.21A.18.18,0,0,0,48.84,60Z"/><path class="cls-13" d="M57.73,59.91a24.87,24.87,0,0,0-2.59,0c-.89,0-1.81.16-2.69.14a.07.07,0,0,0,0,.14,12.16,12.16,0,0,0,2.34.07,22.48,22.48,0,0,0,3,0A.15.15,0,0,0,57.73,59.91Z"/><path class="cls-13" d="M67.39,59.84c-1.85-.34-3.75.06-5.6,0-.07,0-.08.08,0,.1a14.53,14.53,0,0,0,2.8.14,13.89,13.89,0,0,0,2.81,0A.12.12,0,0,0,67.39,59.84Z"/><path class="cls-13" d="M78.09,59.67c-2.74-.3-5.49,0-8.24-.08-.18,0-.22.27,0,.29a23.73,23.73,0,0,0,3.77.13c1.5-.1,3,0,4.51-.15A.1.1,0,0,0,78.09,59.67Z"/><path class="cls-13" d="M80.08,59.62a1.63,1.63,0,0,0-1.15-.13c-.16,0-.18.29,0,.3a4.93,4.93,0,0,0,1.08.09C80.12,59.86,80.2,59.69,80.08,59.62Z"/><path class="cls-13" d="M89,59.18a30.18,30.18,0,0,0-6.23.16s-.05.08,0,.08a32.42,32.42,0,0,0,6.23,0A.11.11,0,0,0,89,59.18Z"/><path class="cls-13" d="M92.8,59.32a1.51,1.51,0,0,0-.93-.19c-.14,0-.13.22,0,.24.29,0,.55.14.84.16C92.82,59.53,92.91,59.39,92.8,59.32Z"/></g><path class="cls-10" d="M14,74.72a21.05,21.05,0,0,1-.83-3.09,23.13,23.13,0,0,1-.09-3c0-.12-.16-.1-.19,0a10.19,10.19,0,0,0,.8,6.22C13.73,75,14,74.91,14,74.72Z"/><path class="cls-10" d="M16.44,75.47a11.68,11.68,0,0,1-1.17-3,21.74,21.74,0,0,1-.18-3.13c0-.16-.27-.16-.29,0-.17,2.21-.18,4.53,1.35,6.32C16.27,75.77,16.53,75.64,16.44,75.47Z"/><path class="cls-10" d="M18.52,74.45a17.92,17.92,0,0,1-.84-2.6,16.78,16.78,0,0,1-.15-3,.14.14,0,0,0-.28,0,8.51,8.51,0,0,0,1,5.77C18.36,74.76,18.58,74.61,18.52,74.45Z"/><path class="cls-10" d="M18.7,89.34a17.89,17.89,0,0,1-1.26-5,.08.08,0,1,0-.15,0,10.77,10.77,0,0,0,1.21,5.07C18.57,89.57,18.76,89.46,18.7,89.34Z"/><path class="cls-10" d="M20.9,88.88a18,18,0,0,1-1-3.11,9.16,9.16,0,0,0-.46-2.34.12.12,0,0,0-.22.06c.16.87.22,1.77.37,2.65A9.71,9.71,0,0,0,20.62,89,.15.15,0,0,0,20.9,88.88Z"/><path class="cls-10" d="M23.3,89.41A17.36,17.36,0,0,1,22,83.9c0-.17-.31-.18-.32,0a11.2,11.2,0,0,0,1.24,5.66C23.06,89.77,23.4,89.64,23.3,89.41Z"/><path class="cls-10" d="M24.79,82.47a10.34,10.34,0,0,1-1.15-2.89,32.81,32.81,0,0,1-.44-3.43c0-.12-.21-.13-.22,0a10.09,10.09,0,0,0,1.53,6.48C24.62,82.78,24.88,82.63,24.79,82.47Z"/><path class="cls-10" d="M26.6,82.81a25.48,25.48,0,0,1-1-3.29c-.2-1-.26-2.1-.44-3.15a.12.12,0,0,0-.24,0c.26,2.3.37,4.41,1.46,6.5A.12.12,0,0,0,26.6,82.81Z"/><path class="cls-10" d="M28.79,81.63a29.18,29.18,0,0,1-1-4.09.11.11,0,0,0-.21,0,9.51,9.51,0,0,0,1,4.21A.15.15,0,0,0,28.79,81.63Z"/><path class="cls-10" d="M29,76.43a22.06,22.06,0,0,1-.67-2.54c-.15-1-.25-2.1-.38-3.14a.13.13,0,0,0-.26,0,15.07,15.07,0,0,0,1,5.73C28.75,76.65,29,76.6,29,76.43Z"/><path class="cls-10" d="M31.59,76.48a15.67,15.67,0,0,1-1.08-3.06A18.84,18.84,0,0,0,30,70.85a.09.09,0,0,0-.18.05c.37,2,.3,4,1.47,5.76A.18.18,0,0,0,31.59,76.48Z"/><path class="cls-10" d="M32.73,70.83a.07.07,0,0,0-.14,0,43.12,43.12,0,0,0,1,5.15c0,.14.28.08.25-.07C33.58,74.24,33.21,72.5,32.73,70.83Z"/><path class="cls-10" d="M43.1,80.25a.1.1,0,0,0-.19,0,11,11,0,0,0,.2,5.13c0,.18.36.1.32-.09A16.54,16.54,0,0,1,43.1,80.25Z"/><path class="cls-10" d="M44.85,80.47c0-.18-.32-.18-.33,0a15.61,15.61,0,0,0,.61,5.81.15.15,0,0,0,.29-.08A44,44,0,0,1,44.85,80.47Z"/><path class="cls-10" d="M48.85,85.54a22,22,0,0,1-1.15-5.68c0-.18-.27-.13-.27,0a12.79,12.79,0,0,0,1.11,5.77A.17.17,0,0,0,48.85,85.54Z"/><path class="cls-10" d="M50.24,74c0-.09-.17-.09-.17,0a26.94,26.94,0,0,0,.33,6.53.14.14,0,0,0,.28,0A64.3,64.3,0,0,1,50.24,74Z"/><path class="cls-10" d="M52.73,73.43c0-.15-.2-.17-.23,0a13.72,13.72,0,0,0-.09,6.34.14.14,0,0,0,.27,0A29.21,29.21,0,0,1,52.73,73.43Z"/><path class="cls-10" d="M55.11,76.33c-.08-1.16,0-2.33,0-3.48,0-.15-.23-.14-.25,0a13.55,13.55,0,0,0,.66,7.25A.15.15,0,0,0,55.8,80,35.76,35.76,0,0,1,55.11,76.33Z"/><path class="cls-10" d="M66.1,81c.1-1.17.39-2.34.56-3.51a.11.11,0,0,0-.22,0c-.58,2.45-1.19,4.82-.57,7.32a.2.2,0,0,0,.39-.05A17.25,17.25,0,0,1,66.1,81Z"/><path class="cls-10" d="M68.5,78.61a.14.14,0,0,0-.28,0A18.06,18.06,0,0,0,68,85.2a.15.15,0,0,0,.3,0A41,41,0,0,1,68.5,78.61Z"/><path class="cls-10" d="M71.46,80.7a26.8,26.8,0,0,0,.14-3.1c0-.13-.21-.1-.21,0,0,1.12-.29,2.26-.36,3.38a13.39,13.39,0,0,0,.15,3.35.16.16,0,0,0,.31,0C71.45,83.11,71.42,81.91,71.46,80.7Z"/><path class="cls-10" d="M81.44,77.91a16.32,16.32,0,0,0-.88,6.61.12.12,0,0,0,.24,0c.08-1.1.07-2.2.21-3.3s.54-2.18.6-3.27C81.61,77.86,81.47,77.81,81.44,77.91Z"/><path class="cls-10" d="M83.59,78.25c-.37,2.37-1,4.69-.74,7.12,0,.21.37.22.38,0a36.28,36.28,0,0,1,.2-3.76c.12-1.11.39-2.21.42-3.33A.13.13,0,0,0,83.59,78.25Z"/><path class="cls-10" d="M72.56,88.54c0-.78.16-1.56.18-2.34a.08.08,0,0,0-.15,0,6.36,6.36,0,0,0-.34,2.34,9.43,9.43,0,0,0,.23,2.75c0,.18.32.15.29,0A14,14,0,0,1,72.56,88.54Z"/><path class="cls-10" d="M74.89,86.39c0-.11-.14-.14-.19,0a8,8,0,0,0-.07,5.07.14.14,0,0,0,.27-.07A12.5,12.5,0,0,1,74.89,86.39Z"/><path class="cls-10" d="M77.39,86.46a.11.11,0,0,0-.22,0,17.2,17.2,0,0,0,.1,4.7.18.18,0,0,0,.35,0C77.44,89.57,77.59,88,77.39,86.46Z"/><path class="cls-10" d="M74.31,73.31c.07-1,.31-1.9.47-2.86a.08.08,0,0,0-.16,0c-.49,2.09-1,4.08-.29,6.2,0,.12.24.06.22-.06A13.75,13.75,0,0,1,74.31,73.31Z"/><path class="cls-10" d="M77.19,73.35c0-.88.18-1.75.18-2.64,0-.13-.23-.13-.23,0-.15,2.12-.67,4.16,0,6.26.05.19.34.1.32-.09A19.76,19.76,0,0,1,77.19,73.35Z"/><path class="cls-10" d="M80.3,70.81c0-.17-.26-.21-.27,0-.11,2.08-.76,4.14-.37,6.24A.15.15,0,0,0,80,77,60.43,60.43,0,0,1,80.3,70.81Z"/><path class="cls-10" d="M31.92,65.75a19.22,19.22,0,0,1-5.35.46c-.09,0-.1.12,0,.14A9.84,9.84,0,0,0,32,66.07C32.18,66,32.11,65.71,31.92,65.75Z"/><path class="cls-10" d="M32.72,67.6c-1.91.38-4.16,1-6.12.51-.07,0-.1.1,0,.13a6.28,6.28,0,0,0,2.66.33,9.64,9.64,0,0,0,3.57-.68C33,67.82,32.89,67.56,32.72,67.6Z"/><path class="cls-10" d="M26.3,70.58a13.61,13.61,0,0,1-5.05.1c-.07,0-.11.1,0,.13a7.29,7.29,0,0,0,5.16.09C26.55,70.82,26.49,70.54,26.3,70.58Z"/><path class="cls-10" d="M26.63,73.09a21.23,21.23,0,0,1-5.1.14c-.09,0-.13.13,0,.15a9.81,9.81,0,0,0,5.24.08C27,73.4,26.84,73.06,26.63,73.09Z"/><path class="cls-10" d="M26.45,75.31a17.74,17.74,0,0,1-4.77-.12c-.09,0-.12.12,0,.15a7.28,7.28,0,0,0,4.89.24C26.69,75.53,26.61,75.3,26.45,75.31Z"/><path class="cls-10" d="M35.28,77a23,23,0,0,1-6.13.73c-.2,0-.25.3,0,.32a14,14,0,0,0,6.27-.7A.18.18,0,0,0,35.28,77Z"/><path class="cls-10" d="M34.73,79.88a18.73,18.73,0,0,1-5.49.24.14.14,0,0,0-.07.26,9.83,9.83,0,0,0,5.66-.13A.19.19,0,0,0,34.73,79.88Z"/><path class="cls-10" d="M34.55,82.58c-1.5.31-3.34,1-4.88.68a.12.12,0,0,0-.06.22c1.48.51,3.62,0,5-.49A.22.22,0,0,0,34.55,82.58Z"/><path class="cls-10" d="M29.4,84.4c-1.88,0-3.76.34-5.64-.08-.07,0-.1.09,0,.12a9.79,9.79,0,0,0,5.67.29C29.56,84.69,29.61,84.4,29.4,84.4Z"/><path class="cls-10" d="M29.9,86.07a21.23,21.23,0,0,1-5.34.2c-.13,0-.15.17,0,.2a12.7,12.7,0,0,0,5.42,0A.21.21,0,0,0,29.9,86.07Z"/><path class="cls-10" d="M29.85,87.87a16,16,0,0,1-5.38.45c-.11,0-.16.16,0,.19a9.09,9.09,0,0,0,5.5-.36C30.08,88.1,30,87.85,29.85,87.87Z"/><path class="cls-10" d="M20.25,76.93c-2,0-4,.48-6,.23-.12,0-.14.16,0,.19a12.8,12.8,0,0,0,6.12-.15C20.49,77.16,20.39,76.93,20.25,76.93Z"/><path class="cls-10" d="M20,79.71c-1.55-.21-3.1-.18-4.65-.32a.1.1,0,0,0,0,.2A31.37,31.37,0,0,0,20,80C20.16,80,20.2,79.73,20,79.71Z"/><path class="cls-10" d="M20.37,82.08a26.63,26.63,0,0,1-4.64.12.13.13,0,0,0,0,.26,9.11,9.11,0,0,0,4.75-.13A.13.13,0,0,0,20.37,82.08Z"/><path class="cls-10" d="M47.74,75.26c-2.16.07-4.27.15-6.43,0a.08.08,0,0,0,0,.16,17.43,17.43,0,0,0,6.48,0A.13.13,0,0,0,47.74,75.26Z"/><path class="cls-10" d="M49,77.45c-1.38,0-2.76.18-4.15.23a33.56,33.56,0,0,1-3.87-.2.09.09,0,0,0,0,.18,22.39,22.39,0,0,0,8.08.08A.15.15,0,0,0,49,77.45Z"/><path class="cls-10" d="M48.2,79.36a39,39,0,0,1-7.4.14.08.08,0,0,0,0,.16,13.44,13.44,0,0,0,3.23.21,23.84,23.84,0,0,0,4.22-.31A.1.1,0,0,0,48.2,79.36Z"/><path class="cls-10" d="M55,68.18c-1,0-1.89.1-2.85.08s-1.81-.16-2.69-.26a.06.06,0,0,0,0,.12,13.08,13.08,0,0,0,5.56.36C55.11,68.44,55.13,68.18,55,68.18Z"/><path class="cls-10" d="M54.82,69.79a21.65,21.65,0,0,1-5.63-.21c-.08,0-.12.12,0,.16a11.13,11.13,0,0,0,5.7.28A.12.12,0,0,0,54.82,69.79Z"/><path class="cls-10" d="M55.3,71.26a19.61,19.61,0,0,1-7.44.26c-.09,0-.1.1,0,.12a14.09,14.09,0,0,0,7.54-.09C55.54,71.5,55.46,71.23,55.3,71.26Z"/><path class="cls-10" d="M72.87,71.5a21.92,21.92,0,0,1-4,.16,25.57,25.57,0,0,1-3.48-.6.1.1,0,0,0-.06.19,12.78,12.78,0,0,0,7.56.57A.16.16,0,0,0,72.87,71.5Z"/><path class="cls-10" d="M72.09,73.83A20.54,20.54,0,0,1,66,73.57c-.1,0-.14.15,0,.18a11.27,11.27,0,0,0,6.14.42A.17.17,0,0,0,72.09,73.83Z"/><path class="cls-10" d="M73.16,75.89a15.33,15.33,0,0,1-7.67.36c-.18,0-.2.23,0,.27a12.2,12.2,0,0,0,7.85-.31C73.5,76.12,73.37,75.83,73.16,75.89Z"/><path class="cls-10" d="M87.5,70.63a38.5,38.5,0,0,1-5.26-.21c-.12,0-.14.16,0,.19A19.06,19.06,0,0,0,87.5,71C87.7,71,87.7,70.63,87.5,70.63Z"/><path class="cls-10" d="M86.34,72.72a14.52,14.52,0,0,1-4,.07.11.11,0,0,0,0,.22,9.9,9.9,0,0,0,4,0A.16.16,0,0,0,86.34,72.72Z"/><path class="cls-10" d="M85.86,75.46a10.55,10.55,0,0,1-4.43.33c-.11,0-.16.15-.05.19a6.3,6.3,0,0,0,4.56-.21C86.1,75.7,86,75.43,85.86,75.46Z"/><path class="cls-10" d="M79.05,77.92a23.7,23.7,0,0,1-5.19,0c-.1,0-.15.15,0,.18a9.16,9.16,0,0,0,2.45.26,15.73,15.73,0,0,0,2.83-.1A.18.18,0,0,0,79.05,77.92Z"/><path class="cls-10" d="M78.58,81a31.44,31.44,0,0,1-5.57-.5c-.15,0-.21.21-.07.25a17,17,0,0,0,5.64.6C78.78,81.38,78.78,81,78.58,81Z"/><path class="cls-10" d="M78.43,84.13A16.85,16.85,0,0,1,73,83.75a.13.13,0,0,0-.07.25,11.67,11.67,0,0,0,5.56.49A.18.18,0,0,0,78.43,84.13Z"/><g class="cls-14"><path class="cls-8" d="M54.67,68.63c.25,0,.5.37.24.58a3.7,3.7,0,0,1-2.15.49,7.84,7.84,0,0,1-2.84-.46.3.3,0,0,1-.14-.1c-.34-.13-.16-.69.24-.63a16.43,16.43,0,0,0,2.8.22A14.34,14.34,0,0,1,54.67,68.63Z"/><path class="cls-8" d="M52.08,80.09a.31.31,0,0,1-.13.36.33.33,0,0,1-.6.06,8,8,0,0,1-.8-4.15c0-.69,0-2.18.77-2.49a.37.37,0,0,1,.33.09c.38.33.26,1.1.2,1.54A10.77,10.77,0,0,0,52.08,80.09Z"/><path class="cls-8" d="M50.14,71.42c-.53,0-1.42-.34-1.58-.93-.21-.23.1-.67.44-.5,1.61.78,3.64.57,5.36.42.39,0,.45.56.09.66A12.77,12.77,0,0,1,50.14,71.42Z"/><path class="cls-8" d="M53.72,73.52a.34.34,0,0,1,.56.15,3,3,0,0,1-.18,1.86,7.78,7.78,0,0,0,0,2.68c.14.65.41,1.22.57,1.85a.34.34,0,0,1-.5.38c-1.06-.47-1.37-2.09-1.4-3.12S52.8,74.33,53.72,73.52Z"/><path class="cls-8" d="M32.4,72.68c.06.7.13,1.39.24,2.09a1.89,1.89,0,0,1-.06,1,.34.34,0,0,1-.49.2c-1-.64-1.11-2.35-1.15-3.49s0-2,.68-1.88S32.35,72.15,32.4,72.68Z"/><path class="cls-8" d="M33.67,79.57a9.37,9.37,0,0,1-4-.17.34.34,0,0,1-.18-.1.62.62,0,0,1-.14-.14.43.43,0,0,1,.12-.54.1.1,0,0,1,.05,0,.27.27,0,0,1,.28-.16,16.08,16.08,0,0,0,2.86-.14c.84-.09,1.58-.38,2.39-.5a.35.35,0,0,1,.43.32C35.56,79,34.4,79.41,33.67,79.57Z"/><path class="cls-8" d="M35,81.09c-.72,2-4.05,1.7-5.34.57a.33.33,0,0,1,.05-.51.31.31,0,0,1,.4-.27,6.55,6.55,0,0,0,2.82.14c.45-.06,1.48-.59,1.91-.31A.34.34,0,0,1,35,81.09Z"/><path class="cls-8" d="M28.49,73.08c0-.66-.2-1.63.33-2.13a.33.33,0,0,1,.41,0c.57.38.4,1.47.46,2,.1.92.64,1.92.48,2.83a.29.29,0,0,1-.28.24.26.26,0,0,1-.36-.07A5.05,5.05,0,0,1,28.49,73.08Z"/><path class="cls-8" d="M27,66.64a9.4,9.4,0,0,0,2.85.21,9.42,9.42,0,0,1,1.83-.11.34.34,0,0,1,.15.56,4.48,4.48,0,0,1-3.22.71,3,3,0,0,1-1.93-.74.32.32,0,0,1-.06-.15A.33.33,0,0,1,27,66.64Z"/><path class="cls-8" d="M27.51,82.27c-1.54.42-1.77-4.42-1.68-5.12a.35.35,0,0,1,.33-.31.32.32,0,0,1,.51-.06,1.31,1.31,0,0,1,.39.91,13.79,13.79,0,0,0,.46,2.47C27.66,80.58,28.32,82.05,27.51,82.27Z"/><path class="cls-8" d="M26.74,74.39a1.51,1.51,0,0,1-1,.7,4.25,4.25,0,0,1-4.12-.7.32.32,0,0,1,.16-.55.27.27,0,0,1,.28-.06,11.39,11.39,0,0,0,4.43.11C26.71,73.85,26.85,74.19,26.74,74.39Z"/><path class="cls-8" d="M26.2,72.23a4.92,4.92,0,0,1-4.56.46c-.29-.15-.77-.6-.3-.88h0a.37.37,0,0,1,.42-.33,27.67,27.67,0,0,0,4.27.14A.33.33,0,0,1,26.2,72.23Z"/><path class="cls-8" d="M20.38,77.77a.34.34,0,0,1,.34.33c.1,1.3-2.17,1.18-2.94,1.14-.6,0-2.51,0-2.83-.77a.34.34,0,0,1,.28-.6C17,78.28,18.66,77.76,20.38,77.77Z"/><path class="cls-8" d="M15.48,69.84a.18.18,0,0,1,.06-.09,1.17,1.17,0,0,1,.15-.27.68.68,0,0,1,.43-.31.25.25,0,0,1,.39.11,3.27,3.27,0,0,1,.14,1.21A18.43,18.43,0,0,0,17,72.57c.09.36.5,1.38.12,1.7s-.62.13-.88-.18A4.53,4.53,0,0,1,15.48,69.84Z"/><path class="cls-8" d="M13.92,74.09c-.36-.34-.42-1.18-.5-1.64a7.28,7.28,0,0,1,0-2.55.14.14,0,0,1,0-.06.91.91,0,0,1,.44-.71c.73-.38.71,2.88.72,3.12S14.82,75,13.92,74.09Z"/><path class="cls-8" d="M19.87,89a.34.34,0,0,1-.57.24c-.92-.93-1.12-2.43-1.31-3.74,0-.17-.06-.35-.08-.53,0,0,0,0,0-.08v-.06c0-.51.1-.92.57-.92.74,0,.69,1.25.76,1.7A15.46,15.46,0,0,1,19.87,89Z"/><path class="cls-8" d="M19.91,81.48c-1.24.79-5,.7-5.6-.94a.31.31,0,0,1,.14-.36c0-.22.13-.47.4-.36,1.55.61,3.16.26,4.76.49C20.28,80.4,20.58,81.06,19.91,81.48Z"/><path class="cls-8" d="M21.35,88.82a6.64,6.64,0,0,1-1.2-4.17,2.93,2.93,0,0,1,.11-.9c.11-.39.45-.89.93-.61s.3,1,.3,1.51a10,10,0,0,0,.18,2.62,5.41,5.41,0,0,1,.25,1.31A.34.34,0,0,1,21.35,88.82Z"/><path class="cls-8" d="M23.83,77.06a.49.49,0,0,1,.69-.13,2.63,2.63,0,0,1,.31,1.47c.07,1,.39,2,.51,2.95.05.34-.47.44-.62.17A7.11,7.11,0,0,1,23.83,77.06Z"/><path class="cls-8" d="M24.52,84.83c1.23.62,2.7.16,4,.31.23,0,.45.27.29.51-.49.7-1.44.54-2.2.54s-1.95,0-2.48-.76a.26.26,0,0,1,0-.08C23.86,85.12,24.17,84.66,24.52,84.83Z"/><path class="cls-8" d="M24.07,87.14a.34.34,0,0,1,.42-.41l.19.07a.33.33,0,0,1,.22,0,21,21,0,0,0,3.8.3.34.34,0,0,1,.24.57c-.69.7-2.07.54-3,.48S24.38,88,24.07,87.14Z"/><path class="cls-8" d="M70.38,84c0,.34.06.91-.44.91s-.85-.79-1-1.14a5.67,5.67,0,0,1-.29-3.16,7.19,7.19,0,0,1,.43-1.76c.17-.44.51-1.36,1.14-1.29a.49.49,0,0,1,.38.34,2.24,2.24,0,0,1,.13.92l-.09.54c-.08.54-.15,1.09-.21,1.63a13.57,13.57,0,0,0-.09,1.91C70.32,83.3,70.35,83.67,70.38,84Z"/><path class="cls-8" d="M69.15,76.25c-1.08,0-3.5,0-3.7-1.49a.36.36,0,0,1,.12-.34.31.31,0,0,1,.41-.28,10.34,10.34,0,0,0,3.66.65,11.11,11.11,0,0,1,2.21-.18.32.32,0,0,1,.24.32C72,76.29,70.1,76.25,69.15,76.25Z"/><path class="cls-8" d="M67.48,83.62l.06,1a.34.34,0,0,1-.58.24,4.6,4.6,0,0,1-.58-3.61c.15-.86.16-2.5.89-3.11a.34.34,0,0,1,.57.24,11.7,11.7,0,0,1-.28,1.84,2.83,2.83,0,0,0,0,.29c0,.47-.1.94-.11,1.4A16.66,16.66,0,0,0,67.48,83.62Z"/><path class="cls-8" d="M69.36,73.65c-1.13-.05-2.57-.14-3.35-1.1a.27.27,0,0,1-.07-.14c-.18-.23,0-.65.33-.53a10.18,10.18,0,0,0,3.37.6,23.73,23.73,0,0,0,2.67-.32c.27,0,.39.3.29.5C72,73.77,70.42,73.71,69.36,73.65Z"/><path class="cls-8" d="M73.7,91.55a3.63,3.63,0,0,1-1-3.15c.07-.77.11-2.15.87-2.6a.35.35,0,0,1,.5.2,3.11,3.11,0,0,1,0,.61.32.32,0,0,1,.08.29A6.72,6.72,0,0,0,74,89.54a6.6,6.6,0,0,1,.23,1.72C74.2,91.49,73.92,91.72,73.7,91.55Z"/><path class="cls-8" d="M76.7,89.84a4.75,4.75,0,0,1,0,1.19c-.09.31-.33.67-.71.48C75,91,74.81,88.64,74.92,87.68a3.23,3.23,0,0,1,.88-2.2.51.51,0,0,1,.79.11A3.13,3.13,0,0,1,76.82,87a.31.31,0,0,1,0,.19A14.46,14.46,0,0,0,76.7,89.84Z"/><path class="cls-8" d="M77.19,83.52a6.42,6.42,0,0,1-3.31-.47c-1-.26-1.79-.72-1.18-1.43a.33.33,0,0,1,.33-.08l.43.15a10.63,10.63,0,0,0,2.65.23,15.68,15.68,0,0,1,2.65,0,.33.33,0,0,1,.24.23C79.17,83,77.83,83.38,77.19,83.52Z"/><path class="cls-8" d="M77.23,80.57a6.73,6.73,0,0,1-4-1.16.27.27,0,0,1-.09-.3.33.33,0,0,1,.38-.48,13.47,13.47,0,0,0,3.3.27c.86,0,1.77-.11,2.61,0a.34.34,0,0,1,.24.33C79.68,80.27,78,80.59,77.23,80.57Z"/><path class="cls-8" d="M76.5,75.31c.09.42.12,1.13-.41,1.28-1.23.34-1.48-2.73-1.48-3.33s.32-3.8,1.61-3.05a.73.73,0,0,1,.36.62.28.28,0,0,1,.13.36A7.79,7.79,0,0,0,76.5,75.31Z"/><path class="cls-8" d="M79.08,75.49c0,.37.15.79-.12,1.1a.32.32,0,0,1-.4,0c-.78-.4-.92-1.57-1-2.34a7.25,7.25,0,0,1,.45-3.67.49.49,0,0,1,.56-.27.35.35,0,0,1,.37,0c.63.25.41,1.53.19,2.45A12.3,12.3,0,0,0,79.08,75.49Z"/><path class="cls-8" d="M82.89,78.35a27.24,27.24,0,0,0-.31,4.78c0,.53,0,1.61-.64,1.79a.33.33,0,0,1-.33-.08,4.77,4.77,0,0,1-.48-3A14.53,14.53,0,0,1,82,78.32a.5.5,0,0,1,.88,0Z"/><path class="cls-8" d="M87.72,73.63c-.94,1.87-5.32,2.48-6.37.41l0-.1s0,0,0,0a.34.34,0,0,1,0-.1v0a.51.51,0,0,1,.44-.55h.09a.67.67,0,0,1,.39.08,9.16,9.16,0,0,0,5.16-.17C87.64,73,87.84,73.38,87.72,73.63Z"/><path class="cls-8" d="M82,71.27a.33.33,0,0,1,.41-.31,18.44,18.44,0,0,0,4.92.23.34.34,0,0,1,.24.57,4.89,4.89,0,0,1-5.57,0A.31.31,0,0,1,82,71.27Z"/><path class="cls-8" d="M47.88,85.7c.12.4-.16,1-.66.85-1.84-.5-2.2-3.38-2.06-4.93.06-.59.17-1.39.8-1.65.43-.18,1-.17,1.15.38a3.61,3.61,0,0,1,0,1.6A9.58,9.58,0,0,0,47.88,85.7Z"/><path class="cls-8" d="M43.72,79.23A4.43,4.43,0,0,1,41,78.55a.29.29,0,0,1-.09-.28c-.09-.23.08-.55.38-.44,2.23.8,4.41.28,6.7.3a.34.34,0,0,1,.09.66A12.73,12.73,0,0,1,43.72,79.23Z"/><path class="cls-8" d="M44.29,81.59a14.34,14.34,0,0,0,.34,4c0,.29-.32.63-.56.33a4.7,4.7,0,0,1-.81-2.64,6,6,0,0,1,.13-2.6.46.46,0,0,1,.87,0,1.36,1.36,0,0,1,0,.8A.33.33,0,0,1,44.29,81.59Z"/><path class="cls-8" d="M41.35,76h0a.35.35,0,0,1,.18,0,33.46,33.46,0,0,0,6.25,0,.34.34,0,0,1,.33.34c0,1.09-1.8,1-2.53,1-1.56.06-3.23.38-4.51-.74A.34.34,0,0,1,41.35,76Z"/></g><g class="cls-15"><path class="cls-8" d="M8.68,64.8c1.2,4.8,4.3,16.83,6.17,21.38,2.36,5.73,1.26,8.24,9,9,6.69.67,20.46.36,26.28.21,5.82.15,19.59.46,26.28-.21,7.77-.79,6.68-3.3,9-9,1.87-4.55,5.21-18.45,6.42-23.25ZM82.82,85.86a8.4,8.4,0,0,1-1.4,1.32c-2.73,2-6.42,2.64-9.81,2.91-1.94.15-3.88.17-5.83.19-6.83.09-13.64.66-20.47.76q-4.81.08-9.65,0c-5-.1-10.53.42-15.18-1.76a13,13,0,0,1-6.08-6.78c-1.82-4.08-5.55-14.44,3-14,2.4.13,4.76.16,7.16.18,7.4.06,14.79.26,22.19.11q3.21-.06,6.42-.22c7.56-.39,18.54-1.08,26.11-1.29,2.26-.06,5.1-.49,7.22.41C90.8,69.54,84.41,84,82.82,85.86Z"/></g><path class="cls-16" d="M36.3,70.28c-3.27,0-6.54,0-9.8,0-2.39,0-5.48-.48-7.74.31-2.89,1-1.16,4.5-.34,6.15a9.62,9.62,0,0,0,3.95,3.92C27,83.33,33.26,84,38.84,84.26c4.59.21,9.19.12,13.78-.11,6.07-.29,12.34-.2,18.27-1.44a19.33,19.33,0,0,0,13-9.37c.59-1.12,2-3.35.17-4.18-2-.91-24.41.86-33.06,1Q43.63,70.21,36.3,70.28Z"/><g class="cls-17"><path class="cls-8" d="M83.28,90c-5.26,3.84-23,3.14-26.1,3.21-6.29.14-12.58.17-18.87.14-3.17,0-15-.67-17.66-1.21a9.05,9.05,0,0,1-4.57-2.19c1,3.14,1.9,4.69,7.71,5.28,6.68.67,20.45.36,26.27.21,5.82.15,19.6.46,26.28-.21,6.34-.64,6.78-2.43,8-6.17A8.59,8.59,0,0,1,83.28,90Z"/><path class="cls-8" d="M15.44,65.64c4.4-.39,8.86-.11,13.27-.13,6.34,0,12.68-.29,19-.32s12.75.11,19.12,0,12.58-.74,18.83-.41c1.29.06,3.83,0,4.68,1.26a2.34,2.34,0,0,1,.36,1.19l1.06-4.27L8.58,64.8l.65,2.55a5,5,0,0,1,1.47-.71A14.29,14.29,0,0,1,15.44,65.64Z"/></g><path class="cls-13" d="M38.61,89.66a2.15,2.15,0,0,1-2.5-2.43,3.12,3.12,0,0,1,.36-1.51,6.31,6.31,0,0,1,1-1.32l5.24-5.48a11.25,11.25,0,0,0,1.7-2.16A3.74,3.74,0,0,0,44.89,75a2.06,2.06,0,0,0-.75-1.73A3.51,3.51,0,0,0,42,72.64a6,6,0,0,0-1.51.21,9.15,9.15,0,0,0-1.77.69,2.15,2.15,0,0,1-1.42.21,2.07,2.07,0,0,1-1.1-.65,2.28,2.28,0,0,1-.34-2.49,2.31,2.31,0,0,1,1.11-1.07,10.93,10.93,0,0,1,2.86-1.1,13.31,13.31,0,0,1,3-.35,10.33,10.33,0,0,1,4.14.73,5.39,5.39,0,0,1,2.54,2.12,6.21,6.21,0,0,1,.87,3.35,8.19,8.19,0,0,1-.38,2.48,9.18,9.18,0,0,1-1.2,2.41,18.37,18.37,0,0,1-2.21,2.6L41.68,86.6V85.18h7.4a2.32,2.32,0,0,1,1.71.57,2.26,2.26,0,0,1,.57,1.66,2,2,0,0,1-2.28,2.25Z"/><path class="cls-13" d="M62.19,90a8.45,8.45,0,0,1-4.72-1.27,8.08,8.08,0,0,1-3-3.67,14.79,14.79,0,0,1-1-5.8,15.56,15.56,0,0,1,.66-4.72A9.66,9.66,0,0,1,56.06,71a8.24,8.24,0,0,1,3-2.19,10.92,10.92,0,0,1,6.63-.44,9.33,9.33,0,0,1,2.38,1,1.83,1.83,0,0,1,1,.93,2.6,2.6,0,0,1,.22,1.32,2.29,2.29,0,0,1-.45,1.21,2,2,0,0,1-1,.7,2.36,2.36,0,0,1-1.52-.13,7.33,7.33,0,0,0-1.65-.59,7.23,7.23,0,0,0-1.5-.16,4.75,4.75,0,0,0-2.5.61,3.69,3.69,0,0,0-1.52,1.88,8.57,8.57,0,0,0-.5,3.1v1.63h-.48a5.52,5.52,0,0,1,1-2.23A4.84,4.84,0,0,1,61,76.22a5.51,5.51,0,0,1,2.4-.52,5.7,5.7,0,0,1,3.16.91,6.42,6.42,0,0,1,2.19,2.45,8.25,8.25,0,0,1-.12,7.37A6.82,6.82,0,0,1,66,89.06,7.45,7.45,0,0,1,62.19,90Zm-.3-4.24a2.69,2.69,0,0,0,1.39-.36,2.24,2.24,0,0,0,.9-1,3.68,3.68,0,0,0,.3-1.54,3.62,3.62,0,0,0-.3-1.54,2.31,2.31,0,0,0-.9-1,2.6,2.6,0,0,0-1.39-.37,2.4,2.4,0,0,0-2.24,1.4,3.47,3.47,0,0,0-.31,1.54,3.53,3.53,0,0,0,.31,1.54,2.36,2.36,0,0,0,.9,1A2.51,2.51,0,0,0,61.89,85.78Z"/></g></g></svg>