<svg xmlns="http://www.w3.org/2000/svg" viewBox="0 0 105.29 104.84"><defs><style>.cls-1{isolation:isolate;}.cls-2{fill:#ed7d03;}.cls-3{fill:#ff8c03;}.cls-4{fill:#fcbc08;}.cls-5{fill:#f28106;opacity:0.7;}.cls-6{fill:#7c6a13;}.cls-7{fill:#937b18;}.cls-8{fill:#b86313;}.cls-11,.cls-9{fill:#cc7917;}.cls-10{fill:#9e4727;}.cls-11,.cls-12,.cls-17{opacity:0.5;}.cls-11,.cls-15,.cls-17{mix-blend-mode:multiply;}.cls-13,.cls-16{fill:#fff;}.cls-14,.cls-15{opacity:0.3;}.cls-14{mix-blend-mode:screen;}.cls-16{opacity:0.1;}</style></defs><title>orange27</title><g class="cls-1"><g id="Layer_1" data-name="Layer 1"><path class="cls-2" d="M79,46.63C74.31,45,69.32,41,68.18,35.89H24V66.1H81.27V47.24A19,19,0,0,1,79,46.63Z"/><path class="cls-3" d="M66.49,12.72c3,2.2,6.91,9.14,2.29,14.86S57.4,33.63,52.31,30.27a11.47,11.47,0,0,1-1.42-18.13C56,7.24,62,9.41,66.49,12.72Z"/><path class="cls-4" d="M54,11.91h0Z"/><path class="cls-4" d="M54.69,12.63c.35-.17.74-.53.41-.85s-.77.05-1.09.12C53.58,12.3,53.76,13.08,54.69,12.63Z"/><path class="cls-4" d="M54,11.9l.54-.21A.88.88,0,0,0,54,11.9Z"/><path class="cls-4" d="M53.06,13.43c.13-.09.31-.29.13-.44s-.25,0-.33.08a.41.41,0,0,0-.22.28C52.61,13.65,52.92,13.53,53.06,13.43Z"/><path class="cls-4" d="M55.34,13.25a.35.35,0,0,0-.33,0c-.15,0-.35.09-.38.21a.14.14,0,0,0,0,.09l-.05,0,.05,0c0,.14.38,0,.5,0S55.61,13.4,55.34,13.25Z"/><path class="cls-4" d="M54.58,13.59h0Z"/><path class="cls-4" d="M56.08,12.47c-.15,0-.32.21-.24.36s.44.09.57,0C56.91,12.57,56.26,12.36,56.08,12.47Z"/><path class="cls-4" d="M56.7,11.54c-.1,0-.29-.06-.37,0a.15.15,0,0,0,0,.18c0,.1.18.2.25.23s.92.33,1,.07S56.89,11.57,56.7,11.54Z"/><path class="cls-4" d="M55.87,11c.16.08.72.06.78-.17s-.31-.27-.45-.25a.55.55,0,0,0-.25.13C55.8,10.82,55.69,10.93,55.87,11Z"/><path class="cls-4" d="M53.16,12.35c.29-.22,0-.34-.22-.29h0c-.13,0-.46.15-.37.33S53.05,12.43,53.16,12.35Z"/><path class="cls-4" d="M51.94,13.73c.11-.12.44-.67.06-.69a.3.3,0,0,0-.2.1,1,1,0,0,0-.38.54C51.27,14.18,51.75,14,51.94,13.73Z"/><path class="cls-4" d="M54,13.89a.68.68,0,0,0-.5,0,1,1,0,0,0-.67.51c-.13.52.78.15,1,.08S54.41,14,54,13.89Z"/><path class="cls-4" d="M55.51,14.29c-.14.05-.3.17-.3.29s.53.18.67.11C56.44,14.43,55.71,14.18,55.51,14.29Z"/><path class="cls-4" d="M59.1,11.41a.25.25,0,0,0-.25.1.68.68,0,0,0,1,0A.57.57,0,0,0,59.1,11.41Z"/><path class="cls-4" d="M57.62,12.75c.32.11,1.17.17,1.23-.27a.72.72,0,0,0-.68-.08C57.91,12.38,57.63,12.47,57.62,12.75Z"/><path class="cls-4" d="M58.24,10.45a.46.46,0,0,0-.63-.06.3.3,0,0,0-.15.18A.6.6,0,0,0,58.24,10.45Z"/><path class="cls-4" d="M60.55,12.28c-.63,0,.18.81.53.55S60.8,12.12,60.55,12.28Z"/><path class="cls-4" d="M51.62,14.87c-.2-.15-.36,0-.47.18-.42.27-.93.91-.53,1.06S51.6,15.22,51.62,14.87Z"/><path class="cls-4" d="M50.46,14.05c-.54.1-.28,1,.23.39C51,14.06,50.68,13.93,50.46,14.05Z"/><path class="cls-4" d="M53.53,15.7a.29.29,0,0,0-.19.25c.2.14.74.16.87-.11S53.71,15.39,53.53,15.7Z"/><path class="cls-4" d="M58.33,14.22l0,0a.45.45,0,0,0,0,.11c0,.05,0,.1,0,.11.11.3.73.31.61-.06S58.47,14.08,58.33,14.22Z"/><path class="cls-4" d="M63.88,13.44c-.36-.5-1.11,0-.64.16C63.52,13.8,64.24,13.93,63.88,13.44Z"/><path class="cls-4" d="M50.94,18.23l.07-.14a.92.92,0,0,0-.4.64c.22.05.85-.37.83-.65S51.12,18,50.94,18.23Z"/><path class="cls-4" d="M56.61,16.81a.16.16,0,0,0,.21.05c.27,0,.75,0,.54-.32S56.68,16.59,56.61,16.81Z"/><path class="cls-4" d="M48.78,16.53a.51.51,0,0,0,0,.22c.32.11,1.14,0,.87-.51S48.87,16.15,48.78,16.53Z"/><path class="cls-4" d="M49.89,15.17h0a.26.26,0,0,0-.33.26.39.39,0,0,0,.55-.21A.33.33,0,0,0,49.89,15.17Z"/><path class="cls-5" d="M50.94,26.49c-1.17.86,4.81,5.19,8.69,5a11.42,11.42,0,0,0,9.4-6c1-2.14.67-8.23-.61-7.8-.46.15.1,2.21-1.78,5.34-1.66,2.75-4.48,5.45-8.22,5.27C53.31,28.08,51.72,25.92,50.94,26.49Z"/><path class="cls-6" d="M63.76,11.43a.54.54,0,0,0-.48.83c.32.8,2.27,2.1,2.83,1.88s.59-.87-.23-1.49A4.64,4.64,0,0,0,63.76,11.43Z"/><path class="cls-6" d="M64.78,12.5s2.26-2.34,2.9-3.22a39.83,39.83,0,0,0,2.14-4.23.55.55,0,0,1,.48-.24c.28.05.2.47.2.47S68.92,8.5,68.28,9.39c-1.3,1.81-3,3.77-3,3.77Z"/><path class="cls-6" d="M68.72,8.09c-.14,0-3.73-.47-3.73-.47l-.14.21,1.86.31,1.85.3Z"/><path class="cls-6" d="M61,12.29c-3.85,1-9.55-1.76-9.55-1.76s3.8-4.44,7.07-4.77S67.4,8,67.4,8A13.5,13.5,0,0,1,61,12.29Z"/><path class="cls-7" d="M63.8,11.66a.82.82,0,0,0-.09.79,4,4,0,0,0,1.4,1.12l.09-.7s-.3-.21-.33-.39a.41.41,0,0,1,0-.27Z"/><path class="cls-7" d="M66.14,8.12a30.51,30.51,0,0,0-6.46.06c-3,.44-7.52,1.87-7.46,2.07s4.94-1.64,7.36-1.8,6.73,0,6.73,0Z"/><path class="cls-7" d="M64.62,8.23A3.36,3.36,0,0,1,64,9.41a8.47,8.47,0,0,0-1.08,1.68,10.21,10.21,0,0,0,1.25-1.56C64.52,9,65,8.26,65,8.26Z"/><path class="cls-7" d="M61.62,8.26A5.29,5.29,0,0,1,61,10.17C60.3,11.53,60,11.93,60.2,12s.65-1,1-1.75.84-2,.84-2Z"/><path class="cls-7" d="M58.7,8.53A3.7,3.7,0,0,1,58.48,10c-.3,1-.66,1.58-.53,1.64s.48-.86.69-1.59.5-1.62.5-1.62Z"/><path class="cls-7" d="M55.57,9.27a2.36,2.36,0,0,1-.16.84c-.18.52-.47,1-.39,1a1.75,1.75,0,0,0,.54-.91l.28-1Z"/><path class="cls-7" d="M65,8.15a4.07,4.07,0,0,0-1.13-1.08,3.51,3.51,0,0,0-1.45-.6c-.08.07.83.33,1.15.54a12.23,12.23,0,0,1,1.18,1.14Z"/><path class="cls-7" d="M61.89,8.06A2.85,2.85,0,0,0,61,6.84a4.45,4.45,0,0,0-2-.8c-.2.06,1.5.49,1.88.86a4.23,4.23,0,0,1,.69,1.21Z"/><path class="cls-7" d="M59.14,8.38a6.75,6.75,0,0,0-1.39-1.09,5.58,5.58,0,0,0-1.66-.42c-.19,0,1.28.32,1.69.61a9.8,9.8,0,0,1,1,1Z"/><path class="cls-7" d="M55.57,9.19s0-.25-.74-.5-1.06-.43-.91-.43a4.75,4.75,0,0,1,.91.23,6.06,6.06,0,0,1,1.07.61Z"/><path class="cls-3" d="M46.74,13.84C49.72,16,53.65,23,49,28.69s-11.37,6.05-16.47,2.69a11.47,11.47,0,0,1-1.42-18.13C36.28,8.35,42.23,10.52,46.74,13.84Z"/><path class="cls-4" d="M34.25,13h0Z"/><path class="cls-4" d="M34.94,13.74c.35-.17.74-.53.42-.84s-.78,0-1.1.12C33.83,13.42,34,14.2,34.94,13.74Z"/><path class="cls-4" d="M34.27,13l.53-.2A.83.83,0,0,0,34.27,13Z"/><path class="cls-4" d="M33.31,14.54c.13-.09.31-.29.14-.43a.23.23,0,0,0-.34.07.43.43,0,0,0-.21.29C32.87,14.76,33.17,14.64,33.31,14.54Z"/><path class="cls-4" d="M35.6,14.36a.32.32,0,0,0-.33,0c-.16,0-.35.08-.39.21a.11.11,0,0,0,0,.08l-.05,0,.05,0c0,.15.38,0,.51,0S35.86,14.51,35.6,14.36Z"/><path class="cls-4" d="M34.83,14.7h0Z"/><path class="cls-4" d="M36.33,13.58c-.15,0-.32.21-.23.36s.44.09.56,0C37.16,13.68,36.52,13.47,36.33,13.58Z"/><path class="cls-4" d="M37,12.66c-.11,0-.29-.07-.37,0a.14.14,0,0,0,0,.17c0,.11.18.2.25.24s.92.32,1,.06S37.14,12.68,37,12.66Z"/><path class="cls-4" d="M36.13,12.14c.15.08.71.06.77-.16s-.31-.28-.45-.26a.5.5,0,0,0-.24.14C36.06,11.93,36,12,36.13,12.14Z"/><path class="cls-4" d="M33.41,13.46c.29-.21,0-.33-.22-.29h0c-.14,0-.47.15-.38.33S33.3,13.55,33.41,13.46Z"/><path class="cls-4" d="M32.19,14.84c.11-.12.44-.67.06-.69a.3.3,0,0,0-.2.1,1.08,1.08,0,0,0-.38.54C31.52,15.29,32,15.06,32.19,14.84Z"/><path class="cls-4" d="M34.24,15a.74.74,0,0,0-.5,0c-.29.08-.62.3-.67.51-.12.52.79.15,1,.08S34.66,15.16,34.24,15Z"/><path class="cls-4" d="M35.77,15.41c-.15.05-.31.17-.3.29s.52.17.66.11C36.69,15.54,36,15.29,35.77,15.41Z"/><path class="cls-4" d="M39.35,12.52a.26.26,0,0,0-.25.11.69.69,0,0,0,1,0A.61.61,0,0,0,39.35,12.52Z"/><path class="cls-4" d="M37.87,13.87c.32.11,1.17.16,1.23-.28a.75.75,0,0,0-.68-.08C38.16,13.5,37.88,13.59,37.87,13.87Z"/><path class="cls-4" d="M38.49,11.57a.46.46,0,0,0-.63-.07.32.32,0,0,0-.14.18A.6.6,0,0,0,38.49,11.57Z"/><path class="cls-4" d="M40.8,13.39c-.63,0,.18.81.53.56S41.05,13.23,40.8,13.39Z"/><path class="cls-4" d="M31.87,16c-.2-.16-.36,0-.47.18-.42.27-.93.9-.53,1.06S31.86,16.33,31.87,16Z"/><path class="cls-4" d="M30.71,15.16c-.54.11-.28,1,.23.39C31.26,15.17,30.94,15.05,30.71,15.16Z"/><path class="cls-4" d="M33.79,16.81a.28.28,0,0,0-.2.25c.2.15.74.16.87-.11S34,16.5,33.79,16.81Z"/><path class="cls-4" d="M38.58,15.33l0,0a.52.52,0,0,0,0,.11s0,.1,0,.12c.11.29.73.3.62-.07S38.73,15.19,38.58,15.33Z"/><path class="cls-4" d="M44.14,14.55c-.37-.5-1.12,0-.65.16C43.77,14.91,44.5,15,44.14,14.55Z"/><path class="cls-4" d="M31.19,19.34l.07-.13a.91.91,0,0,0-.4.63c.22.06.85-.37.84-.65S31.37,19.07,31.19,19.34Z"/><path class="cls-4" d="M36.86,17.92a.17.17,0,0,0,.22,0c.26,0,.74,0,.53-.32S36.94,17.7,36.86,17.92Z"/><path class="cls-4" d="M29,17.64a.41.41,0,0,0,0,.22c.32.11,1.13,0,.86-.51S29.12,17.27,29,17.64Z"/><path class="cls-4" d="M30.14,16.28h0a.27.27,0,0,0-.33.27.39.39,0,0,0,.55-.22A.39.39,0,0,0,30.14,16.28Z"/><path class="cls-5" d="M31.2,27.6c-1.18.86,4.8,5.19,8.68,5a11.44,11.44,0,0,0,9.41-6c1-2.15.66-8.24-.62-7.81-.46.15.1,2.22-1.78,5.34-1.65,2.75-4.48,5.46-8.21,5.27C33.56,29.2,32,27,31.2,27.6Z"/><path class="cls-6" d="M44,12.54a.55.55,0,0,0-.49.84c.32.79,2.27,2.09,2.83,1.88s.59-.87-.23-1.5A4.76,4.76,0,0,0,44,12.54Z"/><path class="cls-6" d="M45,13.61s2.26-2.34,2.91-3.22a41.89,41.89,0,0,0,2.14-4.23s.2-.29.47-.24.2.47.2.47-1.58,3.23-2.21,4.11c-1.3,1.81-3,3.78-3,3.78Z"/><path class="cls-6" d="M49,9.2l-3.73-.47-.13.21L47,9.25l1.85.3Z"/><path class="cls-6" d="M41.2,13.41c-3.85,1-9.55-1.77-9.55-1.77s3.81-4.44,7.07-4.77,8.93,2.27,8.93,2.27A13.5,13.5,0,0,1,41.2,13.41Z"/><path class="cls-7" d="M44.05,12.78a.81.81,0,0,0-.09.79,4.09,4.09,0,0,0,1.4,1.11l.1-.7s-.3-.21-.34-.38a.36.36,0,0,1,0-.27Z"/><path class="cls-7" d="M46.39,9.24a29.75,29.75,0,0,0-6.46.06c-3,.43-7.52,1.86-7.46,2.06s4.94-1.63,7.36-1.8,6.74,0,6.74,0Z"/><path class="cls-7" d="M44.87,9.35a3.34,3.34,0,0,1-.62,1.17,8.47,8.47,0,0,0-1.09,1.69,10.44,10.44,0,0,0,1.25-1.57c.36-.53.82-1.27.82-1.27Z"/><path class="cls-7" d="M41.87,9.37a5,5,0,0,1-.66,1.91c-.66,1.36-.92,1.76-.76,1.79s.66-1,1-1.74.85-2,.85-2Z"/><path class="cls-7" d="M39,9.64a3.69,3.69,0,0,1-.23,1.43c-.3,1-.66,1.57-.53,1.64s.49-.87.69-1.59.5-1.63.5-1.63Z"/><path class="cls-7" d="M35.82,10.39a2.13,2.13,0,0,1-.16.84c-.18.51-.47,1-.38,1a1.93,1.93,0,0,0,.53-.92l.28-1Z"/><path class="cls-7" d="M45.23,9.27A4.38,4.38,0,0,0,44.1,8.18a3.53,3.53,0,0,0-1.46-.6c-.08.07.83.33,1.15.54A12.23,12.23,0,0,1,45,9.26Z"/><path class="cls-7" d="M42.15,9.18A2.91,2.91,0,0,0,41.23,8a4.52,4.52,0,0,0-2.06-.8c-.2.06,1.5.49,1.88.86a4.23,4.23,0,0,1,.69,1.21Z"/><path class="cls-7" d="M39.39,9.49A6.75,6.75,0,0,0,38,8.4,5.58,5.58,0,0,0,36.34,8c-.19,0,1.28.33,1.69.62a9.06,9.06,0,0,1,1,1Z"/><path class="cls-7" d="M35.82,10.3s0-.24-.73-.5-1.07-.43-.92-.43a4.16,4.16,0,0,1,.91.24,5.61,5.61,0,0,1,1.07.6Z"/><path class="cls-3" d="M80.39,24.41c3,2.19,6.91,9.13,2.29,14.85S71.31,45.31,66.22,42a11.48,11.48,0,0,1-1.43-18.13C69.94,18.92,75.89,21.09,80.39,24.41Z"/><path class="cls-4" d="M67.9,23.59h0Z"/><path class="cls-4" d="M68.6,24.31c.35-.17.74-.53.41-.85s-.78.05-1.09.13C67.48,24,67.66,24.76,68.6,24.31Z"/><path class="cls-4" d="M67.92,23.58l.53-.2A.87.87,0,0,0,67.92,23.58Z"/><path class="cls-4" d="M67,25.11c.14-.09.32-.29.14-.43a.22.22,0,0,0-.33.07.44.44,0,0,0-.22.29C66.52,25.33,66.83,25.21,67,25.11Z"/><path class="cls-4" d="M69.25,24.93a.33.33,0,0,0-.33,0c-.15,0-.35.08-.38.21a.25.25,0,0,0,0,.08l0,0,0,0c0,.14.39,0,.51,0S69.52,25.08,69.25,24.93Z"/><path class="cls-4" d="M68.49,25.27h0Z"/><path class="cls-4" d="M70,24.15c-.15,0-.32.21-.23.36s.44.09.57,0C70.82,24.25,70.17,24,70,24.15Z"/><path class="cls-4" d="M70.61,23.23c-.1,0-.29-.07-.37,0a.14.14,0,0,0,0,.18c0,.11.18.2.25.24s.91.32,1,.06S70.8,23.25,70.61,23.23Z"/><path class="cls-4" d="M69.78,22.71c.16.08.72.06.77-.17s-.3-.27-.45-.25a.51.51,0,0,0-.24.14C69.71,22.5,69.6,22.61,69.78,22.71Z"/><path class="cls-4" d="M67.06,24c.3-.21,0-.34-.22-.29h0c-.13,0-.46.15-.37.33S67,24.11,67.06,24Z"/><path class="cls-4" d="M65.85,25.41c.1-.12.44-.67.05-.69a.3.3,0,0,0-.19.1,1.17,1.17,0,0,0-.39.54C65.17,25.86,65.66,25.63,65.85,25.41Z"/><path class="cls-4" d="M67.89,25.57a.74.74,0,0,0-.5,0c-.28.08-.61.3-.66.51-.13.52.78.15,1,.08S68.32,25.73,67.89,25.57Z"/><path class="cls-4" d="M69.42,26c-.15.05-.3.17-.3.29s.52.18.67.11C70.35,26.11,69.62,25.86,69.42,26Z"/><path class="cls-4" d="M73,23.09a.27.27,0,0,0-.25.1.68.68,0,0,0,1,0A.58.58,0,0,0,73,23.09Z"/><path class="cls-4" d="M71.53,24.43c.31.11,1.16.17,1.23-.27a.75.75,0,0,0-.68-.08C71.81,24.07,71.53,24.16,71.53,24.43Z"/><path class="cls-4" d="M72.14,22.14a.44.44,0,0,0-.62-.07.34.34,0,0,0-.15.18A.59.59,0,0,0,72.14,22.14Z"/><path class="cls-4" d="M74.45,24c-.62,0,.18.81.53.56S74.7,23.8,74.45,24Z"/><path class="cls-4" d="M65.52,26.56c-.19-.16-.36,0-.47.18-.42.26-.92.9-.52,1.06S65.51,26.9,65.52,26.56Z"/><path class="cls-4" d="M64.37,25.73c-.54.11-.29,1,.23.39C64.92,25.74,64.59,25.62,64.37,25.73Z"/><path class="cls-4" d="M67.44,27.38a.3.3,0,0,0-.2.25c.21.15.74.16.88-.11S67.62,27.07,67.44,27.38Z"/><path class="cls-4" d="M72.23,25.9l0,0a.26.26,0,0,0,0,.11c0,.05,0,.1,0,.12.11.29.73.3.61-.07S72.38,25.76,72.23,25.9Z"/><path class="cls-4" d="M77.79,25.12c-.36-.5-1.12,0-.64.16C77.42,25.48,78.15,25.61,77.79,25.12Z"/><path class="cls-4" d="M64.84,29.91l.08-.13a.88.88,0,0,0-.4.63c.21.06.85-.37.83-.65S65,29.64,64.84,29.91Z"/><path class="cls-4" d="M70.52,28.49a.16.16,0,0,0,.21.05c.26,0,.74,0,.54-.32S70.59,28.27,70.52,28.49Z"/><path class="cls-4" d="M62.68,28.21a.4.4,0,0,0,0,.22c.32.11,1.13,0,.87-.51S62.77,27.83,62.68,28.21Z"/><path class="cls-4" d="M63.8,26.85h0a.27.27,0,0,0-.33.27.41.41,0,0,0,.56-.22A.34.34,0,0,0,63.8,26.85Z"/><path class="cls-5" d="M64.85,38.17c-1.17.86,4.8,5.19,8.69,5a11.43,11.43,0,0,0,9.4-6c1-2.14.67-8.23-.62-7.8-.46.15.11,2.21-1.78,5.34-1.65,2.75-4.47,5.46-8.21,5.27C67.21,39.77,65.63,37.6,64.85,38.17Z"/><path class="cls-6" d="M77.67,23.11a.55.55,0,0,0-.49.83c.33.8,2.28,2.1,2.84,1.89s.58-.88-.24-1.5A4.66,4.66,0,0,0,77.67,23.11Z"/><path class="cls-6" d="M78.69,24.18S81,21.84,81.59,21a39.83,39.83,0,0,0,2.14-4.23.55.55,0,0,1,.48-.24c.27.05.19.47.19.47s-1.57,3.22-2.21,4.11c-1.3,1.81-3,3.78-3,3.78Z"/><path class="cls-6" d="M82.63,19.77c-.14,0-3.73-.47-3.73-.47l-.14.21,1.85.31,1.86.3Z"/><path class="cls-6" d="M74.86,24c-3.86,1-9.55-1.77-9.55-1.77s3.8-4.44,7.06-4.77,8.93,2.27,8.93,2.27A13.5,13.5,0,0,1,74.86,24Z"/><path class="cls-7" d="M77.7,23.35a.8.8,0,0,0-.08.79A4.09,4.09,0,0,0,79,25.25l.09-.7s-.3-.21-.33-.38a.39.39,0,0,1,0-.27Z"/><path class="cls-7" d="M80,19.8a30.09,30.09,0,0,0-6.46.07c-3,.43-7.51,1.86-7.46,2.06s4.95-1.64,7.36-1.8,6.74,0,6.74,0Z"/><path class="cls-7" d="M78.53,19.92a3.52,3.52,0,0,1-.63,1.17,8.89,8.89,0,0,0-1.09,1.68,10.11,10.11,0,0,0,1.26-1.56c.35-.53.81-1.27.81-1.27Z"/><path class="cls-7" d="M75.53,19.94a5.29,5.29,0,0,1-.66,1.91c-.66,1.36-.93,1.76-.77,1.79s.66-1,1-1.75.85-2,.85-2Z"/><path class="cls-7" d="M72.61,20.21a3.63,3.63,0,0,1-.23,1.42c-.29,1-.66,1.58-.52,1.65s.48-.87.68-1.59.5-1.63.5-1.63Z"/><path class="cls-7" d="M69.48,21a2.36,2.36,0,0,1-.16.84c-.19.52-.48,1-.39,1a1.75,1.75,0,0,0,.54-.91c.13-.47.27-1,.27-1Z"/><path class="cls-7" d="M78.88,19.83a4.43,4.43,0,0,0-1.13-1.08,3.53,3.53,0,0,0-1.46-.6c-.07.07.83.33,1.15.54a12.62,12.62,0,0,1,1.19,1.14Z"/><path class="cls-7" d="M75.8,19.75a2.91,2.91,0,0,0-.92-1.23,4.44,4.44,0,0,0-2.06-.8c-.19.06,1.5.49,1.88.86a4.36,4.36,0,0,1,.7,1.21Z"/><path class="cls-7" d="M73,20.06A6.6,6.6,0,0,0,71.66,19,5.66,5.66,0,0,0,70,18.55c-.2,0,1.27.33,1.68.62a8.6,8.6,0,0,1,1,1Z"/><path class="cls-7" d="M69.47,20.87s0-.25-.73-.5-1.06-.43-.92-.43a4.16,4.16,0,0,1,.91.24,5.82,5.82,0,0,1,1.08.6Z"/><path class="cls-3" d="M59.83,21.17c3,2.19,6.91,9.13,2.29,14.85s-11.38,6-16.47,2.69a11.47,11.47,0,0,1-1.42-18.13C49.37,15.68,55.32,17.85,59.83,21.17Z"/><path class="cls-4" d="M47.34,20.35h0Z"/><path class="cls-4" d="M48,21.07c.35-.17.74-.53.41-.85s-.77.05-1.09.13C46.92,20.74,47.1,21.52,48,21.07Z"/><path class="cls-4" d="M47.35,20.34l.54-.2A.88.88,0,0,0,47.35,20.34Z"/><path class="cls-4" d="M46.4,21.87c.13-.09.31-.29.13-.43a.22.22,0,0,0-.33.07.44.44,0,0,0-.22.29C46,22.09,46.26,22,46.4,21.87Z"/><path class="cls-4" d="M48.68,21.69a.33.33,0,0,0-.33,0c-.15,0-.35.08-.38.21A.11.11,0,0,0,48,22l0,0,0,0c0,.14.38,0,.5,0S49,21.84,48.68,21.69Z"/><path class="cls-4" d="M47.92,22h0Z"/><path class="cls-4" d="M49.42,20.91c-.15,0-.32.21-.24.36s.44.09.57,0C50.25,21,49.6,20.8,49.42,20.91Z"/><path class="cls-4" d="M50,20c-.1,0-.29-.07-.37,0a.15.15,0,0,0,0,.18c0,.11.18.2.25.24s.91.32,1,.06S50.23,20,50,20Z"/><path class="cls-4" d="M49.21,19.47c.16.08.72.06.78-.17s-.31-.27-.45-.25a.49.49,0,0,0-.25.14C49.14,19.26,49,19.37,49.21,19.47Z"/><path class="cls-4" d="M46.5,20.79c.29-.21,0-.34-.22-.29h0c-.13,0-.46.15-.37.33S46.39,20.87,46.5,20.79Z"/><path class="cls-4" d="M45.28,22.17c.11-.12.44-.67.06-.69a.3.3,0,0,0-.2.1,1.08,1.08,0,0,0-.38.54C44.61,22.62,45.09,22.39,45.28,22.17Z"/><path class="cls-4" d="M47.33,22.33a.74.74,0,0,0-.5,0c-.29.08-.62.3-.67.51-.13.52.78.15,1,.08S47.75,22.49,47.33,22.33Z"/><path class="cls-4" d="M48.85,22.73c-.14.05-.3.17-.3.29s.53.18.67.11C49.78,22.87,49.05,22.62,48.85,22.73Z"/><path class="cls-4" d="M52.44,19.85a.27.27,0,0,0-.25.1.68.68,0,0,0,1,0A.58.58,0,0,0,52.44,19.85Z"/><path class="cls-4" d="M51,21.19c.32.11,1.17.17,1.23-.27a.75.75,0,0,0-.68-.08C51.25,20.83,51,20.92,51,21.19Z"/><path class="cls-4" d="M51.58,18.9a.45.45,0,0,0-.63-.07.34.34,0,0,0-.15.18A.61.61,0,0,0,51.58,18.9Z"/><path class="cls-4" d="M53.89,20.72c-.63,0,.18.81.53.56S54.14,20.56,53.89,20.72Z"/><path class="cls-4" d="M45,23.32c-.19-.16-.35,0-.46.18-.42.26-.93.9-.53,1.06S44.94,23.66,45,23.32Z"/><path class="cls-4" d="M43.8,22.49c-.54.11-.28,1,.23.39C44.35,22.5,44,22.38,43.8,22.49Z"/><path class="cls-4" d="M46.87,24.14a.29.29,0,0,0-.19.25c.2.15.73.16.87-.11S47.05,23.83,46.87,24.14Z"/><path class="cls-4" d="M51.67,22.66l0,0a.61.61,0,0,0,0,.11c0,.05,0,.1,0,.12.11.29.73.3.61-.07S51.81,22.52,51.67,22.66Z"/><path class="cls-4" d="M57.22,21.88c-.36-.5-1.11,0-.64.16C56.86,22.24,57.58,22.37,57.22,21.88Z"/><path class="cls-4" d="M44.28,26.67l.07-.13a.88.88,0,0,0-.4.63c.22.06.85-.37.83-.65S44.46,26.4,44.28,26.67Z"/><path class="cls-4" d="M50,25.25a.16.16,0,0,0,.21.05c.27,0,.75,0,.54-.32S50,25,50,25.25Z"/><path class="cls-4" d="M42.12,25a.51.51,0,0,0,0,.22c.32.11,1.14,0,.87-.51S42.21,24.59,42.12,25Z"/><path class="cls-4" d="M43.23,23.61h0a.27.27,0,0,0-.33.27.4.4,0,0,0,.55-.22A.33.33,0,0,0,43.23,23.61Z"/><path class="cls-5" d="M44.28,34.93c-1.17.86,4.81,5.19,8.69,5a11.39,11.39,0,0,0,9.4-6c1-2.14.67-8.23-.61-7.8-.46.15.1,2.21-1.78,5.34-1.66,2.75-4.48,5.46-8.22,5.27C46.65,36.53,45.06,34.36,44.28,34.93Z"/><path class="cls-6" d="M57.1,19.87a.54.54,0,0,0-.48.83c.32.8,2.27,2.1,2.83,1.89s.59-.88-.23-1.5A4.73,4.73,0,0,0,57.1,19.87Z"/><path class="cls-6" d="M58.12,20.94s2.26-2.34,2.9-3.22a39.83,39.83,0,0,0,2.14-4.23.55.55,0,0,1,.48-.24c.28.05.2.47.2.47s-1.58,3.22-2.22,4.11c-1.3,1.81-3,3.78-3,3.78Z"/><path class="cls-6" d="M62.06,16.53c-.14,0-3.73-.47-3.73-.47l-.14.21,1.86.31,1.85.3Z"/><path class="cls-6" d="M54.29,20.74c-3.85,1-9.55-1.77-9.55-1.77s3.8-4.44,7.07-4.77,8.93,2.27,8.93,2.27A13.56,13.56,0,0,1,54.29,20.74Z"/><path class="cls-7" d="M57.14,20.11a.81.81,0,0,0-.09.79A4.09,4.09,0,0,0,58.45,22l.09-.7s-.3-.21-.33-.38a.39.39,0,0,1,0-.27Z"/><path class="cls-7" d="M59.48,16.56a30.11,30.11,0,0,0-6.46.07c-3,.43-7.52,1.86-7.46,2.06s4.94-1.64,7.36-1.8,6.73,0,6.73,0Z"/><path class="cls-7" d="M58,16.68a3.28,3.28,0,0,1-.63,1.17,9.15,9.15,0,0,0-1.08,1.68A10.21,10.21,0,0,0,57.5,18c.36-.53.82-1.27.82-1.27Z"/><path class="cls-7" d="M55,16.7a5.29,5.29,0,0,1-.66,1.91c-.66,1.36-.93,1.76-.76,1.79s.65-1,1-1.75.84-2,.84-2Z"/><path class="cls-7" d="M52,17a3.7,3.7,0,0,1-.22,1.42c-.3,1-.66,1.58-.53,1.64s.48-.86.69-1.58.5-1.63.5-1.63Z"/><path class="cls-7" d="M48.91,17.71a2.36,2.36,0,0,1-.16.84c-.18.52-.47,1-.39,1a1.75,1.75,0,0,0,.54-.91l.28-1Z"/><path class="cls-7" d="M58.31,16.59a4.24,4.24,0,0,0-1.13-1.08,3.51,3.51,0,0,0-1.45-.6c-.08.07.83.33,1.15.54a12.23,12.23,0,0,1,1.18,1.14Z"/><path class="cls-7" d="M55.23,16.51a2.91,2.91,0,0,0-.92-1.23,4.45,4.45,0,0,0-2.05-.8c-.2.06,1.5.49,1.88.86a4.23,4.23,0,0,1,.69,1.21Z"/><path class="cls-7" d="M52.48,16.82a6.75,6.75,0,0,0-1.39-1.09,5.58,5.58,0,0,0-1.66-.42c-.19,0,1.28.33,1.69.62a9.06,9.06,0,0,1,1,1Z"/><path class="cls-7" d="M48.91,17.63s0-.25-.74-.5-1.06-.43-.91-.43a4.31,4.31,0,0,1,.91.24,5.61,5.61,0,0,1,1.07.6Z"/><path class="cls-3" d="M69.55,31.36c3,2.19,6.91,9.14,2.29,14.85s-11.38,6-16.47,2.7A11.48,11.48,0,0,1,54,30.77C59.09,25.88,65,28,69.55,31.36Z"/><path class="cls-4" d="M57.06,30.54h0Z"/><path class="cls-4" d="M57.75,31.26c.35-.17.74-.53.41-.84s-.77,0-1.09.12C56.64,30.94,56.82,31.72,57.75,31.26Z"/><path class="cls-4" d="M57.07,30.54l.54-.21A.83.83,0,0,0,57.07,30.54Z"/><path class="cls-4" d="M56.12,32.07c.13-.1.31-.3.13-.44a.22.22,0,0,0-.33.07.44.44,0,0,0-.22.29C55.67,32.28,56,32.17,56.12,32.07Z"/><path class="cls-4" d="M58.4,31.89a.3.3,0,0,0-.33,0c-.15,0-.35.08-.38.21a.25.25,0,0,0,0,.08l0,0,0,0c0,.15.38,0,.5,0S58.67,32,58.4,31.89Z"/><path class="cls-4" d="M57.64,32.22h0Z"/><path class="cls-4" d="M59.14,31.1c-.15,0-.32.22-.24.36s.44.09.57,0C60,31.2,59.32,31,59.14,31.1Z"/><path class="cls-4" d="M59.76,30.18c-.1,0-.29-.06-.37,0a.14.14,0,0,0,0,.17c0,.11.18.2.25.24s.91.32,1,.06S60,30.21,59.76,30.18Z"/><path class="cls-4" d="M58.93,29.66c.16.08.72.06.78-.16s-.31-.28-.46-.26a.61.61,0,0,0-.24.14C58.86,29.45,58.75,29.56,58.93,29.66Z"/><path class="cls-4" d="M56.22,31c.29-.21,0-.33-.22-.29h0c-.13,0-.46.14-.37.32S56.11,31.07,56.22,31Z"/><path class="cls-4" d="M55,32.37c.11-.13.44-.67.06-.69a.23.23,0,0,0-.2.1,1.06,1.06,0,0,0-.38.53C54.33,32.81,54.81,32.58,55,32.37Z"/><path class="cls-4" d="M57.05,32.52a.77.77,0,0,0-.51,0,1,1,0,0,0-.66.52c-.13.51.78.14,1,.07S57.47,32.68,57.05,32.52Z"/><path class="cls-4" d="M58.57,32.93c-.14,0-.3.17-.3.29s.53.18.67.11C59.5,33.07,58.77,32.81,58.57,32.93Z"/><path class="cls-4" d="M62.16,30.05a.23.23,0,0,0-.25.1.69.69,0,0,0,1,0A.57.57,0,0,0,62.16,30.05Z"/><path class="cls-4" d="M60.68,31.39c.32.11,1.17.16,1.23-.28a.75.75,0,0,0-.68-.08C61,31,60.68,31.11,60.68,31.39Z"/><path class="cls-4" d="M61.29,29.09a.44.44,0,0,0-.62-.07.32.32,0,0,0-.15.19A.61.61,0,0,0,61.29,29.09Z"/><path class="cls-4" d="M63.61,30.92c-.63,0,.18.8.52.55S63.86,30.75,63.61,30.92Z"/><path class="cls-4" d="M54.67,33.51c-.19-.16-.35,0-.46.18-.42.27-.93.9-.53,1.06S54.66,33.86,54.67,33.51Z"/><path class="cls-4" d="M53.52,32.68c-.54.11-.28,1,.23.39C54.07,32.69,53.74,32.57,53.52,32.68Z"/><path class="cls-4" d="M56.59,34.34a.26.26,0,0,0-.19.24c.2.15.73.16.87-.11S56.77,34,56.59,34.34Z"/><path class="cls-4" d="M61.39,32.86l0,0a.26.26,0,0,0,0,.11c0,.06,0,.1,0,.12.11.29.73.3.61-.07S61.53,32.71,61.39,32.86Z"/><path class="cls-4" d="M66.94,32.07c-.36-.5-1.12,0-.64.16C66.58,32.43,67.3,32.57,66.94,32.07Z"/><path class="cls-4" d="M54,36.86l.07-.13a.9.9,0,0,0-.4.63c.22.06.85-.36.83-.65S54.18,36.59,54,36.86Z"/><path class="cls-4" d="M59.67,35.44c.08.09.14.09.21.05.26,0,.75,0,.54-.31S59.74,35.22,59.67,35.44Z"/><path class="cls-4" d="M51.84,35.16a.54.54,0,0,0,0,.22c.32.11,1.14,0,.87-.51S51.93,34.79,51.84,35.16Z"/><path class="cls-4" d="M53,33.8h0c-.19,0-.32.07-.33.27a.39.39,0,0,0,.55-.22A.39.39,0,0,0,53,33.8Z"/><path class="cls-5" d="M54,45.12c-1.17.86,4.81,5.2,8.69,5a11.44,11.44,0,0,0,9.4-6c1-2.15.67-8.23-.61-7.81-.46.15.1,2.22-1.78,5.35C68,44.45,65.22,47.16,61.48,47,56.37,46.72,54.78,44.55,54,45.12Z"/><path class="cls-6" d="M66.82,30.06a.55.55,0,0,0-.48.84c.32.8,2.27,2.1,2.83,1.88s.58-.87-.23-1.5A4.83,4.83,0,0,0,66.82,30.06Z"/><path class="cls-6" d="M67.84,31.13s2.26-2.34,2.9-3.22a39.9,39.9,0,0,0,2.14-4.22s.2-.3.48-.25.2.47.2.47S72,27.14,71.34,28c-1.3,1.8-3,3.77-3,3.77Z"/><path class="cls-6" d="M71.78,26.72l-3.73-.47-.14.22,1.86.3,1.85.31Z"/><path class="cls-6" d="M64,30.93c-3.86,1-9.55-1.77-9.55-1.77s3.8-4.43,7.07-4.77,8.93,2.27,8.93,2.27A13.49,13.49,0,0,1,64,30.93Z"/><path class="cls-7" d="M66.86,30.3a.82.82,0,0,0-.09.79,4.16,4.16,0,0,0,1.4,1.12l.09-.71s-.3-.2-.33-.38a.39.39,0,0,1,0-.27Z"/><path class="cls-7" d="M69.2,26.76a30.51,30.51,0,0,0-6.46.06c-3,.43-7.52,1.86-7.46,2.07s4.94-1.64,7.36-1.8,6.73,0,6.73,0Z"/><path class="cls-7" d="M67.68,26.87A3.28,3.28,0,0,1,67.05,28,8.7,8.7,0,0,0,66,29.73a9.93,9.93,0,0,0,1.25-1.57c.36-.53.81-1.27.81-1.27Z"/><path class="cls-7" d="M64.68,26.89A5.29,5.29,0,0,1,64,28.81c-.66,1.36-.93,1.75-.76,1.78s.65-1,1-1.74.84-2,.84-2Z"/><path class="cls-7" d="M61.76,27.17a3.72,3.72,0,0,1-.22,1.42c-.3,1-.66,1.57-.53,1.64s.48-.87.69-1.59.5-1.63.5-1.63Z"/><path class="cls-7" d="M58.63,27.91a2.39,2.39,0,0,1-.16.84c-.18.51-.47,1-.39,1a1.84,1.84,0,0,0,.54-.92l.28-1Z"/><path class="cls-7" d="M68,26.79A4.19,4.19,0,0,0,66.9,25.7a3.44,3.44,0,0,0-1.45-.59c-.08.07.82.32,1.15.53a12.23,12.23,0,0,1,1.18,1.14Z"/><path class="cls-7" d="M65,26.7A2.91,2.91,0,0,0,64,25.47a4.57,4.57,0,0,0-2.05-.8c-.2.06,1.5.49,1.88.87a4.1,4.1,0,0,1,.69,1.2Z"/><path class="cls-7" d="M62.2,27a6.75,6.75,0,0,0-1.39-1.09,6.29,6.29,0,0,0-1.66-.42c-.2,0,1.28.33,1.69.62a9.06,9.06,0,0,1,1,1Z"/><path class="cls-7" d="M58.62,27.82s0-.24-.73-.5-1.06-.43-.91-.43a5.09,5.09,0,0,1,.91.24,5.81,5.81,0,0,1,1.07.61Z"/><path class="cls-3" d="M18.7,21.21c-3,2.2-6.91,9.14-2.29,14.85s11.37,6.06,16.47,2.7A11.5,11.5,0,0,0,34.3,20.62C29.16,15.73,23.2,17.9,18.7,21.21Z"/><path class="cls-4" d="M31.19,20.4h0Z"/><path class="cls-4" d="M30.49,21.12c-.34-.17-.74-.53-.41-.85s.78,0,1.1.12C31.61,20.79,31.43,21.57,30.49,21.12Z"/><path class="cls-4" d="M31.17,20.39l-.53-.21A.78.78,0,0,1,31.17,20.39Z"/><path class="cls-4" d="M32.13,21.92c-.13-.1-.31-.3-.14-.44a.23.23,0,0,1,.34.07.43.43,0,0,1,.21.29C32.57,22.13,32.26,22,32.13,21.92Z"/><path class="cls-4" d="M29.84,21.74a.35.35,0,0,1,.33,0c.16,0,.35.08.39.21a.11.11,0,0,1,0,.08l.05,0-.05,0c0,.14-.38,0-.51,0S29.57,21.89,29.84,21.74Z"/><path class="cls-4" d="M30.61,22.07l0,0Z"/><path class="cls-4" d="M29.11,21c.15,0,.32.21.23.35s-.44.09-.56,0C28.27,21.06,28.92,20.84,29.11,21Z"/><path class="cls-4" d="M28.48,20c.1,0,.29-.06.37,0a.15.15,0,0,1,0,.18c0,.1-.18.2-.25.23s-.92.33-1,.07S28.29,20.06,28.48,20Z"/><path class="cls-4" d="M29.31,19.51c-.15.09-.71.07-.77-.16s.31-.28.45-.26a.5.5,0,0,1,.24.14C29.38,19.3,29.49,19.42,29.31,19.51Z"/><path class="cls-4" d="M32,20.84c-.29-.22,0-.34.22-.3h0c.14,0,.46.14.38.32S32.14,20.92,32,20.84Z"/><path class="cls-4" d="M33.25,22.22c-.11-.13-.44-.67-.06-.69a.26.26,0,0,1,.2.1,1.12,1.12,0,0,1,.38.53C33.92,22.66,33.44,22.44,33.25,22.22Z"/><path class="cls-4" d="M31.2,22.37a.8.8,0,0,1,.5,0c.28.08.62.31.67.52.12.52-.79.15-1,.08S30.77,22.53,31.2,22.37Z"/><path class="cls-4" d="M29.67,22.78c.15,0,.31.17.3.29s-.52.18-.67.11C28.74,22.92,29.47,22.67,29.67,22.78Z"/><path class="cls-4" d="M26.09,19.9a.24.24,0,0,1,.25.1.7.7,0,0,1-1.05,0A.59.59,0,0,1,26.09,19.9Z"/><path class="cls-4" d="M27.56,21.24c-.31.11-1.16.17-1.23-.28a.76.76,0,0,1,.68-.08C27.28,20.87,27.56,21,27.56,21.24Z"/><path class="cls-4" d="M27,18.94a.44.44,0,0,1,.62-.06.25.25,0,0,1,.15.18A.59.59,0,0,1,27,18.94Z"/><path class="cls-4" d="M24.64,20.77c.63,0-.18.81-.53.55S24.39,20.61,24.64,20.77Z"/><path class="cls-4" d="M33.57,23.36c.2-.15.36,0,.47.18.42.27.92.91.52,1.06S33.58,23.71,33.57,23.36Z"/><path class="cls-4" d="M34.72,22.54c.55.1.29,1-.23.39C34.18,22.54,34.5,22.42,34.72,22.54Z"/><path class="cls-4" d="M31.65,24.19a.27.27,0,0,1,.2.25c-.2.14-.74.15-.87-.11S31.47,23.88,31.65,24.19Z"/><path class="cls-4" d="M26.86,22.71l0,0a.43.43,0,0,1,0,.11s0,.09,0,.11c-.12.3-.74.31-.62-.06S26.71,22.57,26.86,22.71Z"/><path class="cls-4" d="M21.3,21.93c.37-.51,1.12,0,.65.15C21.67,22.29,20.94,22.42,21.3,21.93Z"/><path class="cls-4" d="M34.25,26.71l-.08-.13a.87.87,0,0,1,.4.63c-.21.06-.85-.36-.83-.64S34.06,26.44,34.25,26.71Z"/><path class="cls-4" d="M28.57,25.3a.14.14,0,0,1-.21,0c-.26,0-.74,0-.54-.31S28.5,25.08,28.57,25.3Z"/><path class="cls-4" d="M36.41,25a.38.38,0,0,1,0,.22c-.32.1-1.13,0-.86-.51S36.32,24.64,36.41,25Z"/><path class="cls-4" d="M35.3,23.66h0a.27.27,0,0,1,.33.26.4.4,0,0,1-.56-.21A.36.36,0,0,1,35.3,23.66Z"/><path class="cls-5" d="M34.24,35c1.18.86-4.8,5.2-8.69,5.05a11.47,11.47,0,0,1-9.4-6c-1-2.14-.67-8.23.62-7.81.46.16-.1,2.22,1.78,5.35C20.2,34.3,23,37,26.76,36.83,31.88,36.57,33.47,34.4,34.24,35Z"/><path class="cls-6" d="M21.42,19.91a.55.55,0,0,1,.49.84c-.32.8-2.27,2.1-2.83,1.88s-.59-.87.23-1.5A4.86,4.86,0,0,1,21.42,19.91Z"/><path class="cls-6" d="M20.41,21s-2.26-2.34-2.91-3.22a42,42,0,0,1-2.14-4.22s-.2-.3-.47-.24-.2.46-.2.46S16.26,17,16.9,17.88c1.3,1.81,3,3.77,3,3.77Z"/><path class="cls-6" d="M16.46,16.58c.14,0,3.74-.47,3.74-.47l.13.21-1.85.3-1.85.31Z"/><path class="cls-6" d="M24.24,20.78c3.85,1,9.55-1.77,9.55-1.77S30,14.58,26.72,14.24s-8.93,2.28-8.93,2.28A13.44,13.44,0,0,0,24.24,20.78Z"/><path class="cls-7" d="M21.39,20.15a.82.82,0,0,1,.09.79,4.17,4.17,0,0,1-1.41,1.12L20,21.35s.3-.2.33-.38a.41.41,0,0,0,0-.27Z"/><path class="cls-7" d="M19.05,16.61a30.48,30.48,0,0,1,6.46.06c3,.44,7.52,1.87,7.46,2.07S28,17.1,25.61,16.94s-6.74,0-6.74,0Z"/><path class="cls-7" d="M20.57,16.72a3.41,3.41,0,0,0,.62,1.18,8.25,8.25,0,0,1,1.09,1.68A10.43,10.43,0,0,1,21,18c-.35-.52-.81-1.26-.81-1.26Z"/><path class="cls-7" d="M23.56,16.75a5.29,5.29,0,0,0,.66,1.91c.67,1.36.93,1.75.77,1.78s-.66-1-1-1.74-.85-2-.85-2Z"/><path class="cls-7" d="M26.48,17a3.63,3.63,0,0,0,.23,1.42c.3,1,.66,1.57.52,1.64s-.48-.86-.68-1.59-.5-1.62-.5-1.62Z"/><path class="cls-7" d="M29.62,17.76a2.13,2.13,0,0,0,.16.84c.18.52.47,1,.38,1a1.82,1.82,0,0,1-.53-.92l-.28-1Z"/><path class="cls-7" d="M20.21,16.64a4.38,4.38,0,0,1,1.13-1.09A3.61,3.61,0,0,1,22.8,15c.08.07-.83.33-1.15.54a12.41,12.41,0,0,0-1.18,1.13Z"/><path class="cls-7" d="M23.29,16.55a2.91,2.91,0,0,1,.92-1.23,4.73,4.73,0,0,1,2.06-.8c.19.07-1.5.49-1.88.87a4.1,4.1,0,0,0-.69,1.2Z"/><path class="cls-7" d="M26.05,16.87a6.28,6.28,0,0,1,1.38-1.09,6.1,6.1,0,0,1,1.66-.43c.2,0-1.27.33-1.68.62a9.24,9.24,0,0,0-1.05,1Z"/><path class="cls-7" d="M29.62,17.67s.05-.24.73-.5,1.07-.42.92-.42a3.94,3.94,0,0,0-.91.23,6.06,6.06,0,0,0-1.07.61Z"/><path class="cls-3" d="M12.94,34c-3,2.2-6.91,9.14-2.29,14.85S22,55,27.12,51.59a11.49,11.49,0,0,0,1.42-18.14C23.4,28.56,17.44,30.73,12.94,34Z"/><path class="cls-4" d="M25.43,33.23h0Z"/><path class="cls-4" d="M24.74,34c-.35-.17-.75-.53-.42-.85s.78,0,1.1.12C25.85,33.62,25.67,34.4,24.74,34Z"/><path class="cls-4" d="M25.41,33.22,24.88,33A.78.78,0,0,1,25.41,33.22Z"/><path class="cls-4" d="M26.37,34.75c-.13-.1-.31-.3-.14-.44a.23.23,0,0,1,.34.07.43.43,0,0,1,.21.29C26.81,35,26.51,34.85,26.37,34.75Z"/><path class="cls-4" d="M24.08,34.57a.35.35,0,0,1,.33,0c.16,0,.35.08.39.21a.11.11,0,0,1,0,.08l.05,0-.05,0c0,.14-.38,0-.51,0S23.81,34.72,24.08,34.57Z"/><path class="cls-4" d="M24.85,34.9l0,0Z"/><path class="cls-4" d="M23.35,33.79c.15,0,.32.21.23.36s-.44.09-.56,0C22.51,33.89,23.16,33.67,23.35,33.79Z"/><path class="cls-4" d="M22.72,32.86c.11,0,.29-.06.37,0a.15.15,0,0,1,0,.18c0,.1-.18.2-.25.23s-.92.33-1,.07S22.53,32.89,22.72,32.86Z"/><path class="cls-4" d="M23.55,32.34c-.15.09-.71.07-.77-.16s.31-.28.45-.26a.6.6,0,0,1,.24.14C23.62,32.13,23.73,32.25,23.55,32.34Z"/><path class="cls-4" d="M26.27,33.67c-.29-.22,0-.34.22-.3h0c.14,0,.47.14.38.33S26.38,33.75,26.27,33.67Z"/><path class="cls-4" d="M27.49,35.05c-.11-.12-.44-.67-.06-.69a.3.3,0,0,1,.2.1A1.06,1.06,0,0,1,28,35C28.16,35.5,27.68,35.27,27.49,35.05Z"/><path class="cls-4" d="M25.44,35.2a.8.8,0,0,1,.5,0,1,1,0,0,1,.67.52c.12.52-.79.15-1,.08S25,35.36,25.44,35.2Z"/><path class="cls-4" d="M23.91,35.61c.15,0,.31.17.3.29s-.52.18-.67.11C23,35.75,23.72,35.5,23.91,35.61Z"/><path class="cls-4" d="M20.33,32.73a.25.25,0,0,1,.25.1.7.7,0,0,1-1,0A.59.59,0,0,1,20.33,32.73Z"/><path class="cls-4" d="M21.81,34.07c-.32.11-1.17.17-1.24-.27a.75.75,0,0,1,.69-.09C21.52,33.7,21.8,33.79,21.81,34.07Z"/><path class="cls-4" d="M21.19,31.77a.44.44,0,0,1,.62-.06.25.25,0,0,1,.15.18A.59.59,0,0,1,21.19,31.77Z"/><path class="cls-4" d="M18.88,33.6c.63,0-.18.81-.53.55S18.63,33.44,18.88,33.6Z"/><path class="cls-4" d="M27.81,36.19c.2-.15.36,0,.47.18.42.27.93.91.52,1.06S27.82,36.54,27.81,36.19Z"/><path class="cls-4" d="M29,35.37c.55.1.29,1-.22.39C28.42,35.37,28.74,35.25,29,35.37Z"/><path class="cls-4" d="M25.89,37a.28.28,0,0,1,.2.25c-.2.14-.74.15-.87-.11S25.71,36.71,25.89,37Z"/><path class="cls-4" d="M21.1,35.54l0,0a.43.43,0,0,1,0,.11s0,.1,0,.11c-.12.3-.73.31-.62-.06S21,35.4,21.1,35.54Z"/><path class="cls-4" d="M15.54,34.76c.37-.51,1.12,0,.65.15C15.91,35.12,15.18,35.25,15.54,34.76Z"/><path class="cls-4" d="M28.49,39.54l-.07-.13a.93.93,0,0,1,.4.64c-.22.05-.85-.37-.84-.65S28.3,39.27,28.49,39.54Z"/><path class="cls-4" d="M22.82,38.13a.15.15,0,0,1-.22,0c-.26,0-.74,0-.54-.31S22.74,37.91,22.82,38.13Z"/><path class="cls-4" d="M30.65,37.85a.4.4,0,0,1,0,.22c-.32.11-1.13,0-.86-.51S30.56,37.47,30.65,37.85Z"/><path class="cls-4" d="M29.54,36.49h0a.27.27,0,0,1,.33.26.4.4,0,0,1-.56-.21A.36.36,0,0,1,29.54,36.49Z"/><path class="cls-5" d="M28.48,47.8c1.18.86-4.8,5.2-8.68,5.05a11.45,11.45,0,0,1-9.41-6c-1-2.14-.67-8.23.62-7.81.46.16-.1,2.22,1.78,5.35,1.65,2.74,4.48,5.45,8.21,5.27C26.12,49.4,27.71,47.24,28.48,47.8Z"/><path class="cls-6" d="M15.66,32.75a.54.54,0,0,1,.49.83c-.32.8-2.27,2.1-2.83,1.88s-.59-.87.23-1.49A4.66,4.66,0,0,1,15.66,32.75Z"/><path class="cls-6" d="M14.65,33.82s-2.26-2.34-2.91-3.22A43,43,0,0,1,9.6,26.37s-.2-.3-.47-.24-.2.46-.2.46,1.58,3.23,2.21,4.12c1.3,1.81,3,3.77,3,3.77Z"/><path class="cls-6" d="M10.71,29.41c.13,0,3.73-.47,3.73-.47l.13.21-1.85.3-1.85.31Z"/><path class="cls-6" d="M18.48,33.61c3.85,1,9.55-1.77,9.55-1.77S24.22,27.41,21,27.08,12,29.35,12,29.35A13.44,13.44,0,0,0,18.48,33.61Z"/><path class="cls-7" d="M15.63,33a.82.82,0,0,1,.09.79,4.17,4.17,0,0,1-1.41,1.12l-.09-.71s.3-.2.33-.38a.41.41,0,0,0,0-.27Z"/><path class="cls-7" d="M13.29,29.44a30.48,30.48,0,0,1,6.46.06c3,.44,7.52,1.87,7.46,2.07s-4.94-1.64-7.36-1.8-6.74,0-6.74,0Z"/><path class="cls-7" d="M14.81,29.55a3.41,3.41,0,0,0,.62,1.18,8.25,8.25,0,0,1,1.09,1.68,9.93,9.93,0,0,1-1.25-1.57c-.36-.52-.82-1.26-.82-1.26Z"/><path class="cls-7" d="M17.8,29.58a5.23,5.23,0,0,0,.67,1.91c.66,1.36.92,1.75.76,1.78s-.66-1-1-1.74-.85-2-.85-2Z"/><path class="cls-7" d="M20.72,29.85A3.63,3.63,0,0,0,21,31.27c.3,1,.66,1.57.52,1.64s-.48-.86-.68-1.59-.5-1.62-.5-1.62Z"/><path class="cls-7" d="M23.86,30.59a2.13,2.13,0,0,0,.16.84c.18.52.47,1,.38,1a1.82,1.82,0,0,1-.53-.92l-.28-1Z"/><path class="cls-7" d="M14.45,29.47a4.25,4.25,0,0,1,1.13-1.08,3.53,3.53,0,0,1,1.46-.6c.08.07-.83.33-1.15.54a12.23,12.23,0,0,0-1.18,1.14Z"/><path class="cls-7" d="M17.53,29.38a2.91,2.91,0,0,1,.92-1.23,4.73,4.73,0,0,1,2.06-.8c.19.07-1.5.5-1.88.87a4.23,4.23,0,0,0-.69,1.2Z"/><path class="cls-7" d="M20.29,29.7a6.6,6.6,0,0,1,1.38-1.09,5.63,5.63,0,0,1,1.67-.42c.19,0-1.28.32-1.69.61a9.24,9.24,0,0,0-1,1Z"/><path class="cls-7" d="M23.86,30.5s.05-.24.73-.5,1.07-.42.92-.42a3.94,3.94,0,0,0-.91.23,6.06,6.06,0,0,0-1.07.61Z"/><path class="cls-3" d="M85.66,36.8c3,2.2,6.91,9.14,2.29,14.85s-11.37,6.06-16.47,2.7a11.48,11.48,0,0,1-1.42-18.14C75.2,31.32,81.15,33.49,85.66,36.8Z"/><path class="cls-4" d="M73.17,36h0Z"/><path class="cls-4" d="M73.86,36.71c.35-.17.75-.53.42-.85s-.78,0-1.1.12C72.75,36.38,72.93,37.16,73.86,36.71Z"/><path class="cls-4" d="M73.19,36l.53-.21A.78.78,0,0,0,73.19,36Z"/><path class="cls-4" d="M72.23,37.51c.13-.1.31-.3.14-.44a.23.23,0,0,0-.34.07.43.43,0,0,0-.21.29C71.79,37.72,72.09,37.61,72.23,37.51Z"/><path class="cls-4" d="M74.52,37.33a.35.35,0,0,0-.33,0c-.16,0-.35.08-.39.21a.11.11,0,0,0,0,.08l0,0,0,0c0,.14.38,0,.51,0S74.78,37.48,74.52,37.33Z"/><path class="cls-4" d="M73.75,37.66h0Z"/><path class="cls-4" d="M75.25,36.54c-.15.05-.32.22-.23.36s.44.09.56,0C76.08,36.65,75.44,36.43,75.25,36.54Z"/><path class="cls-4" d="M75.88,35.62c-.11,0-.29-.06-.37,0a.15.15,0,0,0,0,.18c0,.1.18.2.25.23s.92.32,1,.06S76.07,35.65,75.88,35.62Z"/><path class="cls-4" d="M75.05,35.1c.15.09.71.07.77-.16s-.31-.28-.45-.26a.5.5,0,0,0-.24.14C75,34.89,74.87,35,75.05,35.1Z"/><path class="cls-4" d="M72.33,36.43c.29-.22,0-.34-.22-.3h0c-.14,0-.47.14-.38.32S72.22,36.51,72.33,36.43Z"/><path class="cls-4" d="M71.11,37.81c.11-.13.44-.67.06-.69a.26.26,0,0,0-.2.1,1.06,1.06,0,0,0-.38.53C70.44,38.25,70.92,38,71.11,37.81Z"/><path class="cls-4" d="M73.16,38a.8.8,0,0,0-.5,0,1,1,0,0,0-.67.52c-.12.52.79.14,1,.08S73.58,38.12,73.16,38Z"/><path class="cls-4" d="M74.69,38.37c-.15.05-.31.17-.3.29s.52.18.67.11C75.62,38.51,74.88,38.26,74.69,38.37Z"/><path class="cls-4" d="M78.27,35.49a.23.23,0,0,0-.25.1.7.7,0,0,0,1,0A.59.59,0,0,0,78.27,35.49Z"/><path class="cls-4" d="M76.79,36.83c.32.11,1.17.17,1.24-.28a.77.77,0,0,0-.69-.08C77.08,36.46,76.8,36.55,76.79,36.83Z"/><path class="cls-4" d="M77.41,34.53a.44.44,0,0,0-.62-.06.25.25,0,0,0-.15.18A.59.59,0,0,0,77.41,34.53Z"/><path class="cls-4" d="M79.72,36.36c-.63,0,.18.81.53.55S80,36.2,79.72,36.36Z"/><path class="cls-4" d="M70.79,39c-.2-.15-.36,0-.47.18-.42.27-.93.91-.52,1.06S70.78,39.3,70.79,39Z"/><path class="cls-4" d="M69.63,38.13c-.54.1-.28,1,.23.39C70.18,38.13,69.86,38,69.63,38.13Z"/><path class="cls-4" d="M72.71,39.78a.27.27,0,0,0-.2.25c.2.14.74.15.87-.11S72.89,39.47,72.71,39.78Z"/><path class="cls-4" d="M77.5,38.3l0,0a.36.36,0,0,0,0,.11c0,.05,0,.09,0,.11.12.3.73.31.62-.06S77.65,38.16,77.5,38.3Z"/><path class="cls-4" d="M83.06,37.52c-.37-.51-1.12,0-.65.15C82.69,37.87,83.42,38,83.06,37.52Z"/><path class="cls-4" d="M70.11,42.3l.07-.13a.93.93,0,0,0-.4.63c.22.06.85-.36.84-.64S70.3,42,70.11,42.3Z"/><path class="cls-4" d="M75.78,40.89a.15.15,0,0,0,.22,0c.26,0,.74,0,.53-.31S75.86,40.67,75.78,40.89Z"/><path class="cls-4" d="M68,40.61a.36.36,0,0,0,0,.21c.32.11,1.13,0,.86-.5S68,40.23,68,40.61Z"/><path class="cls-4" d="M69.06,39.24h0a.27.27,0,0,0-.33.26.4.4,0,0,0,.56-.21A.45.45,0,0,0,69.06,39.24Z"/><path class="cls-5" d="M70.12,50.56c-1.18.86,4.8,5.2,8.68,5a11.47,11.47,0,0,0,9.41-6c1-2.14.67-8.23-.62-7.81-.46.15.1,2.22-1.78,5.35-1.65,2.74-4.48,5.45-8.21,5.27C72.48,52.16,70.89,50,70.12,50.56Z"/><path class="cls-6" d="M82.94,35.5a.55.55,0,0,0-.49.84c.32.8,2.27,2.1,2.83,1.88s.59-.87-.23-1.5A4.86,4.86,0,0,0,82.94,35.5Z"/><path class="cls-6" d="M84,36.57s2.26-2.34,2.91-3.22A42,42,0,0,0,89,29.13s.2-.3.47-.25.2.47.2.47-1.58,3.23-2.21,4.12c-1.3,1.8-3,3.77-3,3.77Z"/><path class="cls-6" d="M87.89,32.17c-.13,0-3.73-.47-3.73-.47l-.13.21,1.85.3,1.85.31Z"/><path class="cls-6" d="M80.12,36.37c-3.85,1-9.55-1.77-9.55-1.77s3.81-4.43,7.07-4.77,8.93,2.28,8.93,2.28A13.44,13.44,0,0,1,80.12,36.37Z"/><path class="cls-7" d="M83,35.74a.82.82,0,0,0-.09.79,4.16,4.16,0,0,0,1.4,1.12l.1-.71s-.3-.2-.33-.38a.41.41,0,0,1,0-.27Z"/><path class="cls-7" d="M85.31,32.2a30.48,30.48,0,0,0-6.46.06c-3,.43-7.52,1.87-7.46,2.07s4.94-1.64,7.36-1.8,6.74,0,6.74,0Z"/><path class="cls-7" d="M83.79,32.31a3.41,3.41,0,0,1-.62,1.18,8.25,8.25,0,0,0-1.09,1.68,9.93,9.93,0,0,0,1.25-1.57c.36-.52.82-1.26.82-1.26Z"/><path class="cls-7" d="M80.79,32.34a5,5,0,0,1-.66,1.91c-.66,1.36-.92,1.75-.76,1.78s.66-1,1-1.74.85-2,.85-2Z"/><path class="cls-7" d="M77.88,32.61A3.65,3.65,0,0,1,77.65,34c-.3,1-.66,1.57-.52,1.64s.48-.86.68-1.59.5-1.62.5-1.62Z"/><path class="cls-7" d="M74.74,33.35a2.13,2.13,0,0,1-.16.84c-.18.52-.47,1-.38,1a1.88,1.88,0,0,0,.53-.92l.28-1Z"/><path class="cls-7" d="M84.15,32.23A4.38,4.38,0,0,0,83,31.14a3.61,3.61,0,0,0-1.46-.59c-.08.07.83.33,1.15.54a12.41,12.41,0,0,1,1.18,1.13Z"/><path class="cls-7" d="M81.07,32.14a2.91,2.91,0,0,0-.92-1.23,4.73,4.73,0,0,0-2.06-.8c-.2.07,1.5.49,1.88.87a4.1,4.1,0,0,1,.69,1.2Z"/><path class="cls-7" d="M78.31,32.46a6.55,6.55,0,0,0-1.38-1.09,6.06,6.06,0,0,0-1.67-.43c-.19,0,1.28.33,1.69.62a9.24,9.24,0,0,1,1,1Z"/><path class="cls-7" d="M74.74,33.26s0-.24-.73-.5-1.07-.42-.92-.43a4.88,4.88,0,0,1,.91.24,5.46,5.46,0,0,1,1.07.61Z"/><path class="cls-3" d="M90.41,46.93c3,2.2,6.91,9.14,2.29,14.86s-11.38,6.05-16.47,2.69a11.47,11.47,0,0,1-1.42-18.13C80,41.45,85.9,43.62,90.41,46.93Z"/><path class="cls-4" d="M77.92,46.12h0Z"/><path class="cls-4" d="M78.61,46.84c.35-.17.74-.53.41-.85s-.77,0-1.09.13C77.5,46.51,77.68,47.29,78.61,46.84Z"/><path class="cls-4" d="M77.93,46.11l.54-.21A.88.88,0,0,0,77.93,46.11Z"/><path class="cls-4" d="M77,47.64c.13-.09.31-.29.13-.44s-.25,0-.33.08a.41.41,0,0,0-.22.28C76.53,47.86,76.84,47.74,77,47.64Z"/><path class="cls-4" d="M79.26,47.46a.35.35,0,0,0-.33,0c-.15,0-.35.09-.38.21a.31.31,0,0,0,0,.09l0,0,0,0c0,.14.38,0,.5,0S79.53,47.61,79.26,47.46Z"/><path class="cls-4" d="M78.5,47.8h0Z"/><path class="cls-4" d="M80,46.68c-.15,0-.32.21-.24.36s.44.09.57,0C80.83,46.78,80.18,46.57,80,46.68Z"/><path class="cls-4" d="M80.62,45.76c-.1,0-.29-.07-.37,0a.15.15,0,0,0,0,.18c0,.11.18.2.25.23s.91.33,1,.07S80.81,45.78,80.62,45.76Z"/><path class="cls-4" d="M79.79,45.24c.16.08.72.06.78-.17s-.31-.27-.46-.25a.57.57,0,0,0-.24.13C79.72,45,79.61,45.14,79.79,45.24Z"/><path class="cls-4" d="M77.08,46.56c.29-.22,0-.34-.22-.29h0c-.13,0-.46.15-.37.33S77,46.64,77.08,46.56Z"/><path class="cls-4" d="M75.86,47.94c.11-.12.44-.67.06-.69a.3.3,0,0,0-.2.1,1,1,0,0,0-.38.54C75.19,48.39,75.67,48.16,75.86,47.94Z"/><path class="cls-4" d="M77.91,48.1a.71.71,0,0,0-.51,0,1,1,0,0,0-.66.51c-.13.52.78.15,1,.08S78.33,48.25,77.91,48.1Z"/><path class="cls-4" d="M79.43,48.5c-.14,0-.3.17-.3.29s.53.18.67.11C80.36,48.64,79.63,48.39,79.43,48.5Z"/><path class="cls-4" d="M83,45.62a.25.25,0,0,0-.25.1.68.68,0,0,0,1,0A.57.57,0,0,0,83,45.62Z"/><path class="cls-4" d="M81.54,47c.32.11,1.16.17,1.23-.27a.72.72,0,0,0-.68-.08C81.83,46.59,81.54,46.68,81.54,47Z"/><path class="cls-4" d="M82.15,44.66a.44.44,0,0,0-.62-.06.3.3,0,0,0-.15.18A.59.59,0,0,0,82.15,44.66Z"/><path class="cls-4" d="M84.47,46.49c-.63,0,.18.81.52.55S84.72,46.33,84.47,46.49Z"/><path class="cls-4" d="M75.53,49.08c-.19-.15-.35,0-.46.18-.42.27-.93.91-.53,1.06S75.52,49.43,75.53,49.08Z"/><path class="cls-4" d="M74.38,48.26c-.54.1-.28,1,.23.39C74.93,48.27,74.6,48.14,74.38,48.26Z"/><path class="cls-4" d="M77.45,49.91a.27.27,0,0,0-.19.25c.2.14.73.16.87-.11S77.63,49.6,77.45,49.91Z"/><path class="cls-4" d="M82.25,48.43l0,0a.23.23,0,0,0,0,.11s0,.1,0,.12c.11.29.73.3.61-.07S82.39,48.29,82.25,48.43Z"/><path class="cls-4" d="M87.8,47.65c-.36-.5-1.12,0-.64.16C87.44,48,88.16,48.14,87.8,47.65Z"/><path class="cls-4" d="M74.86,52.44l.07-.14a.92.92,0,0,0-.4.64c.22.05.85-.37.83-.65S75,52.17,74.86,52.44Z"/><path class="cls-4" d="M80.53,51a.16.16,0,0,0,.21,0c.26,0,.75,0,.54-.32S80.6,50.8,80.53,51Z"/><path class="cls-4" d="M72.7,50.74a.51.51,0,0,0,0,.22c.32.11,1.14,0,.87-.51S72.79,50.36,72.7,50.74Z"/><path class="cls-4" d="M73.81,49.38h0a.26.26,0,0,0-.33.26.39.39,0,0,0,.55-.21A.33.33,0,0,0,73.81,49.38Z"/><path class="cls-5" d="M74.86,60.7c-1.17.86,4.81,5.19,8.69,5a11.45,11.45,0,0,0,9.4-6c1-2.14.67-8.23-.61-7.8-.46.15.1,2.21-1.78,5.34-1.66,2.75-4.48,5.45-8.22,5.27C77.23,62.3,75.64,60.13,74.86,60.7Z"/><path class="cls-6" d="M87.68,45.64a.54.54,0,0,0-.48.83c.32.8,2.27,2.1,2.83,1.88s.58-.87-.23-1.49A4.64,4.64,0,0,0,87.68,45.64Z"/><path class="cls-6" d="M88.7,46.71s2.26-2.34,2.9-3.22a39.83,39.83,0,0,0,2.14-4.23.55.55,0,0,1,.48-.24c.28,0,.2.47.2.47s-1.58,3.22-2.22,4.11c-1.3,1.81-3,3.77-3,3.77Z"/><path class="cls-6" d="M92.64,42.3c-.14,0-3.73-.47-3.73-.47l-.14.21,1.86.31,1.85.3Z"/><path class="cls-6" d="M84.87,46.5c-3.86,1-9.55-1.76-9.55-1.76s3.8-4.44,7.07-4.77,8.93,2.27,8.93,2.27A13.5,13.5,0,0,1,84.87,46.5Z"/><path class="cls-7" d="M87.72,45.88a.81.81,0,0,0-.09.79A4.09,4.09,0,0,0,89,47.78l.09-.7s-.3-.21-.33-.38a.44.44,0,0,1,0-.28Z"/><path class="cls-7" d="M90.06,42.33a30.51,30.51,0,0,0-6.46.06c-3,.44-7.52,1.87-7.46,2.07s4.94-1.64,7.36-1.8,6.73,0,6.73,0Z"/><path class="cls-7" d="M88.54,42.44a3.36,3.36,0,0,1-.63,1.18,8.79,8.79,0,0,0-1.08,1.68,10.21,10.21,0,0,0,1.25-1.56c.36-.53.81-1.27.81-1.27Z"/><path class="cls-7" d="M85.54,42.47a5.29,5.29,0,0,1-.66,1.91c-.66,1.36-.93,1.76-.76,1.79s.65-1,1-1.75.84-2,.84-2Z"/><path class="cls-7" d="M82.62,42.74a3.7,3.7,0,0,1-.22,1.42c-.3,1-.66,1.58-.53,1.64s.48-.86.69-1.59.5-1.62.5-1.62Z"/><path class="cls-7" d="M79.49,43.48a2.36,2.36,0,0,1-.16.84c-.18.52-.47,1-.39,1a1.75,1.75,0,0,0,.54-.91l.28-1Z"/><path class="cls-7" d="M88.89,42.36a4.07,4.07,0,0,0-1.13-1.08,3.51,3.51,0,0,0-1.45-.6c-.08.07.82.33,1.15.54a12.23,12.23,0,0,1,1.18,1.14Z"/><path class="cls-7" d="M85.81,42.27a2.85,2.85,0,0,0-.92-1.22,4.45,4.45,0,0,0-2-.8c-.2.06,1.5.49,1.88.86a4.23,4.23,0,0,1,.69,1.21Z"/><path class="cls-7" d="M83.06,42.59a6.75,6.75,0,0,0-1.39-1.09A5.58,5.58,0,0,0,80,41.08c-.2,0,1.28.32,1.69.62a9.06,9.06,0,0,1,1,1Z"/><path class="cls-7" d="M79.48,43.4s0-.25-.73-.5-1.06-.43-.91-.43a4.75,4.75,0,0,1,.91.23,6.49,6.49,0,0,1,1.07.61Z"/><path class="cls-3" d="M70.66,47.49c3,2.19,6.91,9.14,2.29,14.85s-11.37,6-16.47,2.7A11.48,11.48,0,0,1,55.06,46.9C60.2,42,66.15,44.18,70.66,47.49Z"/><path class="cls-4" d="M58.17,46.67h0Z"/><path class="cls-4" d="M58.86,47.4c.35-.17.74-.53.42-.85s-.78,0-1.1.12C57.75,47.07,57.93,47.85,58.86,47.4Z"/><path class="cls-4" d="M58.19,46.67l.53-.21A.78.78,0,0,0,58.19,46.67Z"/><path class="cls-4" d="M57.23,48.2c.13-.1.31-.3.14-.44a.23.23,0,0,0-.34.07.43.43,0,0,0-.21.29C56.79,48.41,57.09,48.3,57.23,48.2Z"/><path class="cls-4" d="M59.52,48a.35.35,0,0,0-.33,0c-.16,0-.35.08-.39.21a.11.11,0,0,0,0,.08l0,0,0,0c0,.14.38,0,.51,0S59.78,48.16,59.52,48Z"/><path class="cls-4" d="M58.75,48.35h0Z"/><path class="cls-4" d="M60.25,47.23c-.15.05-.32.22-.23.36s.44.09.56,0C61.08,47.34,60.44,47.12,60.25,47.23Z"/><path class="cls-4" d="M60.88,46.31c-.11,0-.29-.06-.37,0a.15.15,0,0,0,0,.18c0,.1.18.2.25.23s.92.32,1,.06S61.06,46.34,60.88,46.31Z"/><path class="cls-4" d="M60.05,45.79c.15.09.71.06.77-.16s-.31-.28-.45-.26a.5.5,0,0,0-.24.14C60,45.58,59.86,45.7,60.05,45.79Z"/><path class="cls-4" d="M57.33,47.12c.29-.22,0-.34-.22-.3h0c-.13,0-.46.14-.37.32S57.22,47.2,57.33,47.12Z"/><path class="cls-4" d="M56.11,48.5c.11-.13.44-.67.06-.69a.26.26,0,0,0-.2.1,1.06,1.06,0,0,0-.38.53C55.44,48.94,55.92,48.72,56.11,48.5Z"/><path class="cls-4" d="M58.16,48.65a.8.8,0,0,0-.5,0,1,1,0,0,0-.67.52c-.12.52.79.14,1,.08S58.58,48.81,58.16,48.65Z"/><path class="cls-4" d="M59.68,49.06c-.14,0-.3.17-.29.29s.52.18.66.11C60.61,49.2,59.88,49,59.68,49.06Z"/><path class="cls-4" d="M63.27,46.18a.23.23,0,0,0-.25.1.7.7,0,0,0,1,0A.59.59,0,0,0,63.27,46.18Z"/><path class="cls-4" d="M61.79,47.52c.32.11,1.17.17,1.23-.28a.75.75,0,0,0-.68-.08C62.08,47.15,61.8,47.24,61.79,47.52Z"/><path class="cls-4" d="M62.41,45.22a.46.46,0,0,0-.63-.06.24.24,0,0,0-.14.18A.59.59,0,0,0,62.41,45.22Z"/><path class="cls-4" d="M64.72,47.05c-.63,0,.18.81.53.55S65,46.89,64.72,47.05Z"/><path class="cls-4" d="M55.79,49.64c-.2-.15-.36,0-.47.18-.42.27-.93.91-.53,1.06S55.78,50,55.79,49.64Z"/><path class="cls-4" d="M54.63,48.82c-.54.1-.28,1,.23.38C55.18,48.82,54.86,48.7,54.63,48.82Z"/><path class="cls-4" d="M57.71,50.47a.27.27,0,0,0-.2.25c.2.14.74.15.87-.11S57.89,50.16,57.71,50.47Z"/><path class="cls-4" d="M62.5,49l0,0a.2.2,0,0,0,0,.11s0,.09,0,.11c.11.3.73.31.61-.06S62.64,48.85,62.5,49Z"/><path class="cls-4" d="M68.06,48.2c-.37-.5-1.12,0-.65.16C67.69,48.56,68.41,48.7,68.06,48.2Z"/><path class="cls-4" d="M55.11,53l.07-.13a.93.93,0,0,0-.4.63c.22.06.85-.36.84-.64S55.29,52.72,55.11,53Z"/><path class="cls-4" d="M60.78,51.58a.15.15,0,0,0,.22,0c.26,0,.74,0,.53-.31S60.86,51.36,60.78,51.58Z"/><path class="cls-4" d="M53,51.3a.36.36,0,0,0,0,.21c.32.11,1.13,0,.86-.51S53,50.92,53,51.3Z"/><path class="cls-4" d="M54.06,49.93h0a.27.27,0,0,0-.33.26.39.39,0,0,0,.55-.21A.34.34,0,0,0,54.06,49.93Z"/><path class="cls-5" d="M55.12,61.25c-1.18.86,4.8,5.2,8.68,5a11.47,11.47,0,0,0,9.41-6c1-2.15.66-8.23-.62-7.81-.46.15.1,2.22-1.78,5.35-1.66,2.74-4.48,5.45-8.21,5.27C57.48,62.85,55.89,60.68,55.12,61.25Z"/><path class="cls-6" d="M67.94,46.19a.55.55,0,0,0-.49.84c.32.8,2.27,2.1,2.83,1.88s.59-.87-.23-1.5A4.86,4.86,0,0,0,67.94,46.19Z"/><path class="cls-6" d="M69,47.26s2.26-2.34,2.91-3.22A42,42,0,0,0,74,39.82s.2-.3.47-.25.2.47.2.47-1.58,3.23-2.22,4.12c-1.29,1.8-3,3.77-3,3.77Z"/><path class="cls-6" d="M72.89,42.86c-.14,0-3.73-.47-3.73-.47L69,42.6l1.85.3,1.85.31Z"/><path class="cls-6" d="M65.12,47.06c-3.85,1-9.55-1.77-9.55-1.77s3.81-4.43,7.07-4.77,8.93,2.27,8.93,2.27A13.42,13.42,0,0,1,65.12,47.06Z"/><path class="cls-7" d="M68,46.43a.82.82,0,0,0-.09.79,4.16,4.16,0,0,0,1.4,1.12l.1-.71s-.31-.2-.34-.38a.41.41,0,0,1,0-.27Z"/><path class="cls-7" d="M70.31,42.89a30.51,30.51,0,0,0-6.46.06c-3,.43-7.52,1.87-7.46,2.07s4.94-1.64,7.36-1.8,6.74,0,6.74,0Z"/><path class="cls-7" d="M68.79,43a3.36,3.36,0,0,1-.63,1.18,8.47,8.47,0,0,0-1.08,1.68,9.93,9.93,0,0,0,1.25-1.57c.36-.52.82-1.26.82-1.26Z"/><path class="cls-7" d="M65.79,43a5.29,5.29,0,0,1-.66,1.92c-.66,1.36-.93,1.75-.76,1.78s.66-1,1-1.74.85-2,.85-2Z"/><path class="cls-7" d="M62.88,43.3a3.65,3.65,0,0,1-.23,1.42c-.3,1-.66,1.57-.53,1.64s.49-.86.69-1.59.5-1.62.5-1.62Z"/><path class="cls-7" d="M59.74,44a2.13,2.13,0,0,1-.16.84c-.18.52-.47,1-.38,1a1.88,1.88,0,0,0,.53-.92L60,44Z"/><path class="cls-7" d="M69.15,42.92A4.38,4.38,0,0,0,68,41.83a3.61,3.61,0,0,0-1.46-.59c-.08.07.83.33,1.15.54a12.41,12.41,0,0,1,1.18,1.13Z"/><path class="cls-7" d="M66.07,42.83a2.88,2.88,0,0,0-.93-1.23,4.57,4.57,0,0,0-2-.8c-.2.07,1.5.49,1.88.87a4.1,4.1,0,0,1,.69,1.2Z"/><path class="cls-7" d="M63.31,43.15a6.42,6.42,0,0,0-1.39-1.09,6,6,0,0,0-1.66-.43c-.19,0,1.28.33,1.69.62a8.84,8.84,0,0,1,1,1Z"/><path class="cls-7" d="M59.74,44s-.05-.24-.74-.5S57.94,43,58.09,43a5.09,5.09,0,0,1,.91.24,5.46,5.46,0,0,1,1.07.61Z"/><path class="cls-3" d="M51.75,29.69c3,2.19,6.91,9.14,2.29,14.85s-11.38,6.05-16.47,2.7A11.48,11.48,0,0,1,36.15,29.1C41.29,24.21,47.24,26.38,51.75,29.69Z"/><path class="cls-4" d="M39.26,28.87h0Z"/><path class="cls-4" d="M40,29.59c.35-.16.74-.52.41-.84s-.77,0-1.09.12C38.84,29.27,39,30.05,40,29.59Z"/><path class="cls-4" d="M39.27,28.87l.54-.21A.83.83,0,0,0,39.27,28.87Z"/><path class="cls-4" d="M38.32,30.4c.13-.1.31-.3.13-.44a.22.22,0,0,0-.33.07.44.44,0,0,0-.22.29C37.87,30.61,38.18,30.5,38.32,30.4Z"/><path class="cls-4" d="M40.6,30.22a.35.35,0,0,0-.33,0c-.15,0-.35.08-.38.21a.25.25,0,0,0,0,.08l0,0,0,0c0,.15.38,0,.5,0S40.87,30.36,40.6,30.22Z"/><path class="cls-4" d="M39.84,30.55h0Z"/><path class="cls-4" d="M41.34,29.43c-.15.05-.32.22-.24.36s.44.09.57,0C42.17,29.53,41.52,29.32,41.34,29.43Z"/><path class="cls-4" d="M42,28.51c-.1,0-.29-.06-.37,0a.15.15,0,0,0,0,.18c0,.1.18.19.25.23s.91.32,1,.06S42.15,28.54,42,28.51Z"/><path class="cls-4" d="M41.13,28c.16.09.72.06.77-.16s-.3-.28-.45-.26a.61.61,0,0,0-.24.14C41.06,27.78,41,27.9,41.13,28Z"/><path class="cls-4" d="M38.42,29.32c.29-.22,0-.34-.22-.3h0c-.13,0-.46.14-.37.32S38.31,29.4,38.42,29.32Z"/><path class="cls-4" d="M37.2,30.7c.11-.13.44-.67.06-.69a.26.26,0,0,0-.2.1,1.15,1.15,0,0,0-.39.53C36.53,31.14,37,30.92,37.2,30.7Z"/><path class="cls-4" d="M39.25,30.85a.77.77,0,0,0-.51,0,1,1,0,0,0-.66.52c-.13.52.78.14,1,.08S39.67,31,39.25,30.85Z"/><path class="cls-4" d="M40.77,31.26c-.14,0-.3.17-.3.29s.53.18.67.11C41.7,31.4,41,31.15,40.77,31.26Z"/><path class="cls-4" d="M44.36,28.38a.23.23,0,0,0-.25.1.69.69,0,0,0,1,0A.57.57,0,0,0,44.36,28.38Z"/><path class="cls-4" d="M42.88,29.72c.31.11,1.16.16,1.23-.28a.75.75,0,0,0-.68-.08C43.17,29.35,42.88,29.44,42.88,29.72Z"/><path class="cls-4" d="M43.49,27.42a.44.44,0,0,0-.62-.06.28.28,0,0,0-.15.18A.59.59,0,0,0,43.49,27.42Z"/><path class="cls-4" d="M45.81,29.25c-.63,0,.18.81.52.55S46.05,29.09,45.81,29.25Z"/><path class="cls-4" d="M36.87,31.84c-.19-.15-.35,0-.46.18-.42.27-.93.91-.53,1.06S36.86,32.19,36.87,31.84Z"/><path class="cls-4" d="M35.72,31c-.54.1-.28,1,.23.38C36.27,31,35.94,30.9,35.72,31Z"/><path class="cls-4" d="M38.79,32.67a.26.26,0,0,0-.19.24c.2.15.73.16.87-.11S39,32.36,38.79,32.67Z"/><path class="cls-4" d="M43.59,31.19l0-.05a.26.26,0,0,0,0,.11c0,.06,0,.1,0,.12.11.3.73.31.61-.07S43.73,31.05,43.59,31.19Z"/><path class="cls-4" d="M49.14,30.4c-.36-.5-1.12,0-.64.16C48.78,30.76,49.5,30.9,49.14,30.4Z"/><path class="cls-4" d="M36.2,35.19l.07-.13a.9.9,0,0,0-.4.63c.22.06.85-.36.83-.64S36.38,34.92,36.2,35.19Z"/><path class="cls-4" d="M41.87,33.78a.14.14,0,0,0,.21,0c.26,0,.75,0,.54-.31S41.94,33.55,41.87,33.78Z"/><path class="cls-4" d="M34,33.49a.53.53,0,0,0,0,.22c.32.11,1.14,0,.87-.51S34.13,33.12,34,33.49Z"/><path class="cls-4" d="M35.15,32.13h0a.26.26,0,0,0-.33.26.39.39,0,0,0,.55-.21A.34.34,0,0,0,35.15,32.13Z"/><path class="cls-5" d="M36.2,43.45c-1.17.86,4.81,5.2,8.69,5a11.47,11.47,0,0,0,9.4-6c1-2.15.67-8.23-.61-7.81-.46.15.1,2.22-1.78,5.35-1.66,2.74-4.48,5.45-8.22,5.26C38.57,45.05,37,42.88,36.2,43.45Z"/><path class="cls-6" d="M49,28.39a.55.55,0,0,0-.48.84c.32.8,2.27,2.1,2.83,1.88s.58-.87-.23-1.5A4.83,4.83,0,0,0,49,28.39Z"/><path class="cls-6" d="M50,29.46s2.26-2.34,2.9-3.22A39.9,39.9,0,0,0,55.08,22s.2-.3.48-.25.2.47.2.47-1.58,3.23-2.22,4.12c-1.3,1.8-3,3.77-3,3.77Z"/><path class="cls-6" d="M54,25.06c-.14,0-3.73-.48-3.73-.48l-.14.22,1.86.3,1.85.31Z"/><path class="cls-6" d="M46.21,29.26c-3.86,1-9.55-1.77-9.55-1.77s3.8-4.43,7.07-4.77S52.65,25,52.65,25A13.43,13.43,0,0,1,46.21,29.26Z"/><path class="cls-7" d="M49.06,28.63a.82.82,0,0,0-.09.79,4.16,4.16,0,0,0,1.4,1.12l.09-.71s-.3-.2-.33-.38a.41.41,0,0,1,0-.27Z"/><path class="cls-7" d="M51.39,25.09a30.4,30.4,0,0,0-6.45.06c-3,.43-7.52,1.87-7.47,2.07s5-1.64,7.37-1.8,6.73,0,6.73,0Z"/><path class="cls-7" d="M49.88,25.2a3.36,3.36,0,0,1-.63,1.18,8.47,8.47,0,0,0-1.08,1.68,9.93,9.93,0,0,0,1.25-1.57c.36-.52.81-1.26.81-1.26Z"/><path class="cls-7" d="M46.88,25.22a5.29,5.29,0,0,1-.66,1.92c-.66,1.36-.93,1.75-.76,1.78s.65-1,1-1.74.84-2,.84-2Z"/><path class="cls-7" d="M44,25.5a3.72,3.72,0,0,1-.22,1.42c-.3,1-.66,1.57-.53,1.64s.48-.86.69-1.59.5-1.62.5-1.62Z"/><path class="cls-7" d="M40.83,26.24a2.39,2.39,0,0,1-.16.84c-.18.52-.47,1-.39,1a1.79,1.79,0,0,0,.54-.92c.13-.46.27-1,.27-1Z"/><path class="cls-7" d="M50.23,25.12A4.19,4.19,0,0,0,49.1,24a3.59,3.59,0,0,0-1.45-.59c-.08.07.82.33,1.15.54A11.26,11.26,0,0,1,50,25.11Z"/><path class="cls-7" d="M47.15,25a2.91,2.91,0,0,0-.92-1.23,4.57,4.57,0,0,0-2-.8c-.2.07,1.5.49,1.88.87a4.1,4.1,0,0,1,.69,1.2Z"/><path class="cls-7" d="M44.4,25.35A6.69,6.69,0,0,0,43,24.25a6.29,6.29,0,0,0-1.66-.42c-.2,0,1.28.33,1.69.62a9.06,9.06,0,0,1,1,1Z"/><path class="cls-7" d="M40.82,26.15s0-.24-.73-.5-1.06-.42-.91-.43a5.09,5.09,0,0,1,.91.24,5.81,5.81,0,0,1,1.07.61Z"/><path class="cls-3" d="M25.26,45.38c-3,2.2-6.91,9.14-2.29,14.86s11.38,6.05,16.47,2.69A11.47,11.47,0,0,0,40.86,44.8C35.72,39.9,29.77,42.07,25.26,45.38Z"/><path class="cls-4" d="M37.75,44.57h0Z"/><path class="cls-4" d="M37.06,45.29c-.35-.17-.74-.53-.41-.85s.77.05,1.09.13C38.17,45,38,45.74,37.06,45.29Z"/><path class="cls-4" d="M37.74,44.56l-.54-.2A.82.82,0,0,1,37.74,44.56Z"/><path class="cls-4" d="M38.69,46.09c-.13-.09-.31-.29-.13-.43s.25,0,.33.07a.45.45,0,0,1,.22.28C39.14,46.31,38.83,46.19,38.69,46.09Z"/><path class="cls-4" d="M36.41,45.91a.35.35,0,0,1,.33,0c.15,0,.35.09.38.21a.31.31,0,0,1,0,.09l0,0-.05,0c0,.14-.38,0-.5,0S36.14,46.06,36.41,45.91Z"/><path class="cls-4" d="M37.17,46.25h0Z"/><path class="cls-4" d="M35.67,45.13c.15,0,.32.21.24.36s-.44.09-.57,0C34.84,45.23,35.49,45,35.67,45.13Z"/><path class="cls-4" d="M35.05,44.21c.1,0,.29-.07.37,0a.15.15,0,0,1,0,.18c0,.11-.18.2-.25.24s-.91.32-1,.06S34.86,44.23,35.05,44.21Z"/><path class="cls-4" d="M35.88,43.69c-.16.08-.72.06-.77-.17s.3-.27.45-.25a.57.57,0,0,1,.24.13C36,43.48,36.06,43.59,35.88,43.69Z"/><path class="cls-4" d="M38.59,45c-.29-.21,0-.34.22-.29h0c.13,0,.46.15.37.33S38.7,45.09,38.59,45Z"/><path class="cls-4" d="M39.81,46.39c-.11-.12-.44-.67-.06-.69a.3.3,0,0,1,.2.1,1,1,0,0,1,.38.54C40.48,46.84,40,46.61,39.81,46.39Z"/><path class="cls-4" d="M37.76,46.55a.71.71,0,0,1,.51,0,1,1,0,0,1,.66.51c.13.52-.78.15-1,.08S37.34,46.7,37.76,46.55Z"/><path class="cls-4" d="M36.24,47c.14,0,.3.17.3.29s-.53.18-.67.11C35.31,47.09,36,46.84,36.24,47Z"/><path class="cls-4" d="M32.65,44.07a.25.25,0,0,1,.25.1.68.68,0,0,1-1,0A.57.57,0,0,1,32.65,44.07Z"/><path class="cls-4" d="M34.13,45.41c-.31.11-1.16.17-1.23-.27a.72.72,0,0,1,.68-.08C33.84,45.05,34.13,45.14,34.13,45.41Z"/><path class="cls-4" d="M33.52,43.11a.44.44,0,0,1,.62-.06.34.34,0,0,1,.15.18A.59.59,0,0,1,33.52,43.11Z"/><path class="cls-4" d="M31.2,44.94c.63,0-.18.81-.52.56S31,44.78,31.2,44.94Z"/><path class="cls-4" d="M40.14,47.53c.19-.15.35,0,.46.18.42.27.93.91.53,1.07S40.15,47.88,40.14,47.53Z"/><path class="cls-4" d="M41.29,46.71c.54.11.28,1-.23.39C40.74,46.72,41.07,46.6,41.29,46.71Z"/><path class="cls-4" d="M38.22,48.36a.27.27,0,0,1,.19.25c-.2.14-.73.16-.87-.11S38,48.05,38.22,48.36Z"/><path class="cls-4" d="M33.42,46.88l0,0a.26.26,0,0,1,0,.11s0,.1,0,.12c-.11.29-.73.3-.61-.07S33.28,46.74,33.42,46.88Z"/><path class="cls-4" d="M27.87,46.1c.36-.5,1.12,0,.64.16C28.23,46.46,27.51,46.59,27.87,46.1Z"/><path class="cls-4" d="M40.81,50.89l-.07-.14a.92.92,0,0,1,.4.64c-.22.06-.85-.37-.83-.65S40.63,50.62,40.81,50.89Z"/><path class="cls-4" d="M35.14,49.47a.16.16,0,0,1-.21.05c-.26,0-.75,0-.54-.32S35.07,49.25,35.14,49.47Z"/><path class="cls-4" d="M43,49.19a.51.51,0,0,1,0,.22c-.32.11-1.14,0-.87-.51S42.88,48.81,43,49.19Z"/><path class="cls-4" d="M41.86,47.83h0a.27.27,0,0,1,.33.27.4.4,0,0,1-.55-.22A.33.33,0,0,1,41.86,47.83Z"/><path class="cls-5" d="M40.81,59.15c1.17.86-4.81,5.19-8.69,5a11.43,11.43,0,0,1-9.4-6c-1-2.14-.67-8.23.61-7.8.46.15-.1,2.21,1.78,5.34,1.66,2.75,4.48,5.45,8.22,5.27C38.44,60.75,40,58.58,40.81,59.15Z"/><path class="cls-6" d="M28,44.09a.54.54,0,0,1,.48.83c-.32.8-2.27,2.1-2.83,1.88s-.58-.87.23-1.49A4.64,4.64,0,0,1,28,44.09Z"/><path class="cls-6" d="M27,45.16s-2.26-2.34-2.9-3.22a39.83,39.83,0,0,1-2.14-4.23.55.55,0,0,0-.48-.24c-.28.05-.2.47-.2.47s1.58,3.22,2.22,4.11c1.3,1.81,3,3.78,3,3.78Z"/><path class="cls-6" d="M23,40.75c.14,0,3.73-.47,3.73-.47l.14.21L25,40.8l-1.85.3Z"/><path class="cls-6" d="M30.8,45c3.86,1,9.55-1.77,9.55-1.77s-3.8-4.44-7.07-4.77-8.92,2.27-8.92,2.27A13.5,13.5,0,0,0,30.8,45Z"/><path class="cls-7" d="M28,44.33a.81.81,0,0,1,.09.79,4.09,4.09,0,0,1-1.4,1.11l-.09-.7s.3-.21.33-.38a.39.39,0,0,0,0-.27Z"/><path class="cls-7" d="M25.62,40.78a30,30,0,0,1,6.45.07c3,.43,7.52,1.86,7.47,2.06s-4.95-1.64-7.37-1.8-6.73,0-6.73,0Z"/><path class="cls-7" d="M27.13,40.89a3.36,3.36,0,0,0,.63,1.18,8.79,8.79,0,0,1,1.08,1.68,10.21,10.21,0,0,1-1.25-1.56c-.36-.53-.81-1.27-.81-1.27Z"/><path class="cls-7" d="M30.13,40.92a5.29,5.29,0,0,0,.66,1.91c.66,1.36.93,1.76.76,1.79s-.65-1-1-1.75-.84-2-.84-2Z"/><path class="cls-7" d="M33.05,41.19a3.7,3.7,0,0,0,.22,1.42c.3,1,.66,1.58.53,1.64s-.48-.86-.69-1.58-.5-1.63-.5-1.63Z"/><path class="cls-7" d="M36.18,41.93a2.36,2.36,0,0,0,.16.84c.18.52.47,1,.39,1a1.75,1.75,0,0,1-.54-.91c-.13-.47-.27-1-.27-1Z"/><path class="cls-7" d="M26.78,40.81a4.24,4.24,0,0,1,1.13-1.08,3.51,3.51,0,0,1,1.45-.6c.08.07-.82.33-1.15.54A12.23,12.23,0,0,0,27,40.81Z"/><path class="cls-7" d="M29.86,40.72a2.91,2.91,0,0,1,.92-1.22,4.45,4.45,0,0,1,2-.8c.2.06-1.5.49-1.88.86a4.23,4.23,0,0,0-.69,1.21Z"/><path class="cls-7" d="M32.61,41A6.75,6.75,0,0,1,34,40a5.58,5.58,0,0,1,1.66-.42c.2,0-1.28.33-1.69.62a9.06,9.06,0,0,0-1,1Z"/><path class="cls-7" d="M36.19,41.85s0-.25.73-.5,1.06-.43.91-.43a4.31,4.31,0,0,0-.91.24,6,6,0,0,0-1.07.6Z"/><path class="cls-3" d="M54.25,47.49c3,2.19,6.91,9.14,2.29,14.85s-11.37,6-16.47,2.7A11.48,11.48,0,0,1,38.65,46.9C43.79,42,49.74,44.18,54.25,47.49Z"/><path class="cls-4" d="M41.76,46.67h0Z"/><path class="cls-4" d="M42.45,47.4c.35-.17.74-.53.42-.85s-.78,0-1.1.12C41.34,47.07,41.52,47.85,42.45,47.4Z"/><path class="cls-4" d="M41.78,46.67l.53-.21A.78.78,0,0,0,41.78,46.67Z"/><path class="cls-4" d="M40.82,48.2c.13-.1.31-.3.14-.44a.23.23,0,0,0-.34.07.43.43,0,0,0-.21.29C40.38,48.41,40.68,48.3,40.82,48.2Z"/><path class="cls-4" d="M43.11,48a.35.35,0,0,0-.33,0c-.16,0-.35.08-.39.21a.11.11,0,0,0,0,.08l0,0,0,0c0,.14.38,0,.51,0S43.37,48.16,43.11,48Z"/><path class="cls-4" d="M42.34,48.35h0Z"/><path class="cls-4" d="M43.84,47.23c-.15.05-.32.22-.23.36s.44.09.56,0C44.67,47.34,44,47.12,43.84,47.23Z"/><path class="cls-4" d="M44.47,46.31c-.11,0-.29-.06-.37,0a.15.15,0,0,0,0,.18c0,.1.18.2.25.23s.92.32,1,.06S44.65,46.34,44.47,46.31Z"/><path class="cls-4" d="M43.64,45.79c.15.09.71.06.77-.16s-.31-.28-.45-.26a.5.5,0,0,0-.24.14C43.57,45.58,43.46,45.7,43.64,45.79Z"/><path class="cls-4" d="M40.92,47.12c.29-.22,0-.34-.22-.3h0c-.13,0-.46.14-.37.32S40.81,47.2,40.92,47.12Z"/><path class="cls-4" d="M39.7,48.5c.11-.13.44-.67.06-.69a.26.26,0,0,0-.2.1,1.06,1.06,0,0,0-.38.53C39,48.94,39.51,48.72,39.7,48.5Z"/><path class="cls-4" d="M41.75,48.65a.8.8,0,0,0-.5,0,1,1,0,0,0-.67.52c-.12.52.79.14,1,.08S42.17,48.81,41.75,48.65Z"/><path class="cls-4" d="M43.27,49.06c-.14,0-.3.17-.29.29s.52.18.66.11C44.2,49.2,43.47,49,43.27,49.06Z"/><path class="cls-4" d="M46.86,46.18a.23.23,0,0,0-.25.1.7.7,0,0,0,1,0A.59.59,0,0,0,46.86,46.18Z"/><path class="cls-4" d="M45.38,47.52c.32.11,1.17.17,1.23-.28a.75.75,0,0,0-.68-.08C45.67,47.15,45.39,47.24,45.38,47.52Z"/><path class="cls-4" d="M46,45.22a.46.46,0,0,0-.63-.06.26.26,0,0,0-.14.18A.59.59,0,0,0,46,45.22Z"/><path class="cls-4" d="M48.31,47.05c-.63,0,.18.81.53.55S48.56,46.89,48.31,47.05Z"/><path class="cls-4" d="M39.38,49.64c-.2-.15-.36,0-.47.18-.42.27-.93.91-.53,1.06S39.37,50,39.38,49.64Z"/><path class="cls-4" d="M38.22,48.82c-.54.1-.28,1,.23.38C38.77,48.82,38.45,48.7,38.22,48.82Z"/><path class="cls-4" d="M41.3,50.47a.27.27,0,0,0-.2.25c.2.14.74.15.87-.11S41.48,50.16,41.3,50.47Z"/><path class="cls-4" d="M46.09,49l0,0a.36.36,0,0,0,0,.11s0,.09,0,.11c.11.3.73.31.61-.06S46.24,48.85,46.09,49Z"/><path class="cls-4" d="M51.65,48.2c-.37-.5-1.12,0-.65.16C51.28,48.56,52,48.7,51.65,48.2Z"/><path class="cls-4" d="M38.7,53l.07-.13a.93.93,0,0,0-.4.63c.22.06.85-.36.84-.64S38.88,52.72,38.7,53Z"/><path class="cls-4" d="M44.37,51.58a.15.15,0,0,0,.22,0c.26,0,.74,0,.53-.31S44.45,51.36,44.37,51.58Z"/><path class="cls-4" d="M36.54,51.3a.36.36,0,0,0,0,.21c.32.11,1.13,0,.86-.51S36.63,50.92,36.54,51.3Z"/><path class="cls-4" d="M37.65,49.93h0a.27.27,0,0,0-.33.26.39.39,0,0,0,.55-.21A.34.34,0,0,0,37.65,49.93Z"/><path class="cls-5" d="M38.71,61.25c-1.18.86,4.8,5.2,8.68,5a11.47,11.47,0,0,0,9.41-6c1-2.15.66-8.23-.62-7.81-.46.15.1,2.22-1.78,5.35-1.66,2.74-4.48,5.45-8.21,5.27C41.07,62.85,39.48,60.68,38.71,61.25Z"/><path class="cls-6" d="M51.53,46.19A.55.55,0,0,0,51,47c.32.8,2.27,2.1,2.83,1.88s.59-.87-.23-1.5A4.86,4.86,0,0,0,51.53,46.19Z"/><path class="cls-6" d="M52.54,47.26S54.8,44.92,55.45,44a42,42,0,0,0,2.14-4.22s.2-.3.47-.25.2.47.2.47S56.68,43.27,56,44.16c-1.29,1.8-3,3.77-3,3.77Z"/><path class="cls-6" d="M56.48,42.86c-.13,0-3.73-.47-3.73-.47l-.13.21,1.85.3,1.85.31Z"/><path class="cls-6" d="M48.71,47.06c-3.85,1-9.55-1.77-9.55-1.77s3.81-4.43,7.07-4.77,8.93,2.27,8.93,2.27A13.42,13.42,0,0,1,48.71,47.06Z"/><path class="cls-7" d="M51.56,46.43a.82.82,0,0,0-.09.79,4.16,4.16,0,0,0,1.4,1.12l.1-.71s-.31-.2-.34-.38a.41.41,0,0,1,0-.27Z"/><path class="cls-7" d="M53.9,42.89a30.51,30.51,0,0,0-6.46.06c-3,.43-7.52,1.87-7.46,2.07s4.94-1.64,7.36-1.8,6.74,0,6.74,0Z"/><path class="cls-7" d="M52.38,43a3.36,3.36,0,0,1-.63,1.18,8.47,8.47,0,0,0-1.08,1.68,9.93,9.93,0,0,0,1.25-1.57c.36-.52.82-1.26.82-1.26Z"/><path class="cls-7" d="M49.38,43a5,5,0,0,1-.66,1.92c-.66,1.36-.92,1.75-.76,1.78s.66-1,1-1.74.85-2,.85-2Z"/><path class="cls-7" d="M46.47,43.3a3.65,3.65,0,0,1-.23,1.42c-.3,1-.66,1.57-.53,1.64s.49-.86.69-1.59.5-1.62.5-1.62Z"/><path class="cls-7" d="M43.33,44a2.13,2.13,0,0,1-.16.84c-.18.52-.47,1-.38,1a1.88,1.88,0,0,0,.53-.92l.28-1Z"/><path class="cls-7" d="M52.74,42.92a4.38,4.38,0,0,0-1.13-1.09,3.61,3.61,0,0,0-1.46-.59c-.08.07.83.33,1.15.54a12.41,12.41,0,0,1,1.18,1.13Z"/><path class="cls-7" d="M49.66,42.83a2.88,2.88,0,0,0-.93-1.23,4.57,4.57,0,0,0-2-.8c-.2.07,1.5.49,1.88.87a4.1,4.1,0,0,1,.69,1.2Z"/><path class="cls-7" d="M46.9,43.15a6.42,6.42,0,0,0-1.39-1.09,6,6,0,0,0-1.66-.43c-.19,0,1.28.33,1.69.62a8.84,8.84,0,0,1,1,1Z"/><path class="cls-7" d="M43.33,44s0-.24-.74-.5S41.53,43,41.68,43a4.88,4.88,0,0,1,.91.24,5.46,5.46,0,0,1,1.07.61Z"/><path class="cls-3" d="M8,47.13C5,49.33,1.12,56.27,5.74,62S17.11,68,22.2,64.68a11.48,11.48,0,0,0,1.43-18.13C18.48,41.65,12.53,43.82,8,47.13Z"/><path class="cls-4" d="M20.52,46.32h0Z"/><path class="cls-4" d="M19.82,47c-.34-.17-.74-.53-.41-.85s.78.05,1.09.13C20.94,46.71,20.76,47.49,19.82,47Z"/><path class="cls-4" d="M20.5,46.31l-.53-.2A.8.8,0,0,1,20.5,46.31Z"/><path class="cls-4" d="M21.46,47.84c-.14-.09-.31-.29-.14-.43a.21.21,0,0,1,.33.07.45.45,0,0,1,.22.28C21.9,48.06,21.59,47.94,21.46,47.84Z"/><path class="cls-4" d="M19.17,47.66a.35.35,0,0,1,.33,0c.16,0,.35.09.38.21a.31.31,0,0,1,0,.09l0,0,0,0c0,.14-.38,0-.51,0S18.9,47.81,19.17,47.66Z"/><path class="cls-4" d="M19.93,48h0Z"/><path class="cls-4" d="M18.44,46.88c.15,0,.32.21.23.36s-.44.09-.56,0C17.6,47,18.25,46.77,18.44,46.88Z"/><path class="cls-4" d="M17.81,46c.1,0,.29-.07.37,0a.15.15,0,0,1,0,.18c0,.11-.18.2-.25.24s-.92.32-1,.06S17.62,46,17.81,46Z"/><path class="cls-4" d="M18.64,45.44c-.15.08-.71.06-.77-.17s.3-.27.45-.25a.52.52,0,0,1,.24.13C18.71,45.23,18.82,45.34,18.64,45.44Z"/><path class="cls-4" d="M21.36,46.76c-.29-.21,0-.34.22-.29h0c.13,0,.46.15.37.33S21.47,46.84,21.36,46.76Z"/><path class="cls-4" d="M22.58,48.14c-.11-.12-.44-.67-.06-.69a.26.26,0,0,1,.19.1,1.06,1.06,0,0,1,.39.54C23.25,48.59,22.77,48.36,22.58,48.14Z"/><path class="cls-4" d="M20.53,48.3a.68.68,0,0,1,.5,0,1,1,0,0,1,.67.51c.12.52-.79.15-1,.08S20.1,48.45,20.53,48.3Z"/><path class="cls-4" d="M19,48.7c.15,0,.3.17.3.29s-.52.18-.67.11C18.07,48.84,18.8,48.59,19,48.7Z"/><path class="cls-4" d="M15.42,45.82a.27.27,0,0,1,.25.1.69.69,0,0,1-1.05,0A.58.58,0,0,1,15.42,45.82Z"/><path class="cls-4" d="M16.89,47.16c-.31.11-1.16.17-1.23-.27a.72.72,0,0,1,.68-.08C16.61,46.79,16.89,46.89,16.89,47.16Z"/><path class="cls-4" d="M16.28,44.86a.44.44,0,0,1,.62-.06.3.3,0,0,1,.15.18A.59.59,0,0,1,16.28,44.86Z"/><path class="cls-4" d="M14,46.69c.63,0-.18.81-.53.56S13.72,46.53,14,46.69Z"/><path class="cls-4" d="M22.9,49.28c.19-.15.36,0,.47.18.42.27.92.91.52,1.07S22.91,49.63,22.9,49.28Z"/><path class="cls-4" d="M24.05,48.46c.54.11.29,1-.23.39C23.5,48.47,23.83,48.35,24.05,48.46Z"/><path class="cls-4" d="M21,50.11a.28.28,0,0,1,.2.25c-.2.14-.74.16-.87-.11S20.8,49.8,21,50.11Z"/><path class="cls-4" d="M16.19,48.63l0,0a.52.52,0,0,1,0,.11s0,.1,0,.12c-.12.29-.74.3-.62-.07S16,48.49,16.19,48.63Z"/><path class="cls-4" d="M10.63,47.85c.37-.5,1.12,0,.65.16C11,48.21,10.27,48.34,10.63,47.85Z"/><path class="cls-4" d="M23.58,52.64l-.08-.14a.89.89,0,0,1,.4.64c-.21.06-.85-.37-.83-.65S23.39,52.37,23.58,52.64Z"/><path class="cls-4" d="M17.9,51.22a.16.16,0,0,1-.21.05c-.26,0-.74,0-.54-.32S17.83,51,17.9,51.22Z"/><path class="cls-4" d="M25.74,50.94a.4.4,0,0,1,0,.22c-.32.11-1.13,0-.86-.51S25.65,50.56,25.74,50.94Z"/><path class="cls-4" d="M24.62,49.58h0a.27.27,0,0,1,.33.27.41.41,0,0,1-.56-.22A.34.34,0,0,1,24.62,49.58Z"/><path class="cls-5" d="M23.57,60.9c1.18.86-4.8,5.19-8.69,5a11.43,11.43,0,0,1-9.4-6c-1-2.14-.67-8.23.62-7.8.46.15-.11,2.21,1.78,5.34,1.65,2.75,4.47,5.45,8.21,5.27C21.21,62.5,22.79,60.33,23.57,60.9Z"/><path class="cls-6" d="M10.75,45.84a.55.55,0,0,1,.49.83c-.33.8-2.27,2.1-2.83,1.88s-.59-.87.23-1.49A4.61,4.61,0,0,1,10.75,45.84Z"/><path class="cls-6" d="M9.74,46.91s-2.26-2.34-2.91-3.22a41.89,41.89,0,0,1-2.14-4.23.55.55,0,0,0-.48-.24c-.27.05-.19.47-.19.47s1.57,3.22,2.21,4.11c1.3,1.81,3,3.78,3,3.78Z"/><path class="cls-6" d="M5.79,42.5c.14,0,3.73-.47,3.73-.47l.14.21-1.85.31L6,42.85Z"/><path class="cls-6" d="M13.57,46.71c3.85,1,9.55-1.77,9.55-1.77s-3.81-4.44-7.07-4.77-8.93,2.27-8.93,2.27A13.5,13.5,0,0,0,13.57,46.71Z"/><path class="cls-7" d="M10.72,46.08a.8.8,0,0,1,.08.79A4,4,0,0,1,9.4,48l-.09-.7s.3-.21.33-.38a.39.39,0,0,0,0-.27Z"/><path class="cls-7" d="M8.38,42.53a30.09,30.09,0,0,1,6.46.07c3,.43,7.52,1.86,7.46,2.06s-4.95-1.64-7.36-1.8-6.74,0-6.74,0Z"/><path class="cls-7" d="M9.9,42.64a3.41,3.41,0,0,0,.62,1.18,8.56,8.56,0,0,1,1.09,1.68,10.76,10.76,0,0,1-1.26-1.56c-.35-.53-.81-1.27-.81-1.27Z"/><path class="cls-7" d="M12.89,42.67a5.29,5.29,0,0,0,.66,1.91c.67,1.36.93,1.76.77,1.79s-.66-1-1-1.75-.85-2-.85-2Z"/><path class="cls-7" d="M15.81,42.94A3.63,3.63,0,0,0,16,44.36c.3,1,.66,1.58.52,1.64s-.48-.86-.68-1.58-.5-1.63-.5-1.63Z"/><path class="cls-7" d="M18.94,43.68a2.36,2.36,0,0,0,.16.84c.19.52.48,1,.39,1a1.83,1.83,0,0,1-.53-.91l-.28-1Z"/><path class="cls-7" d="M9.54,42.56a4.43,4.43,0,0,1,1.13-1.08,3.53,3.53,0,0,1,1.46-.6c.08.07-.83.33-1.15.54a12.62,12.62,0,0,0-1.19,1.14Z"/><path class="cls-7" d="M12.62,42.47a2.91,2.91,0,0,1,.92-1.22,4.44,4.44,0,0,1,2.06-.8c.19.06-1.5.49-1.88.86a4.36,4.36,0,0,0-.7,1.21Z"/><path class="cls-7" d="M15.38,42.79a6.6,6.6,0,0,1,1.38-1.09,5.66,5.66,0,0,1,1.66-.42c.2,0-1.27.33-1.68.62a8.6,8.6,0,0,0-1,1Z"/><path class="cls-7" d="M19,43.6s.05-.25.73-.5,1.07-.43.92-.43a4.16,4.16,0,0,0-.91.24,5.82,5.82,0,0,0-1.08.6Z"/><path class="cls-8" d="M8.58,64.8c1.21,4.8,4.31,16.83,6.17,21.38,2.36,5.73,1.26,8.24,9,9,6.68.67,20.45.36,26.27.21,5.82.15,19.6.46,26.28-.21,7.78-.79,6.68-3.3,9-9,1.87-4.55,5.22-18.45,6.42-23.25Z"/><path class="cls-9" d="M94.06,60.58c-.63-2.28-4.19-1.78-5.9-1.7-.58,0-1.17,0-1.75,0-2.93.06-5.85.09-8.77.13-3.31,0-42.61.84-45.88,1L22,60.33c-2.87.1-5.73.2-8.6.28-.57,0-1.15,0-1.72,0-1.68,0-5.2-.33-5.71,1.93A2.32,2.32,0,0,0,7.72,65.4a14.82,14.82,0,0,0,3.39-.1C14.38,65.1,17.67,65,21,65l9.94-.24L41,64.5c1.23,0,7.54-.08,9.09-.11l8.48-.21,10.28-.26L79,63.7c3.34-.08,6.69-.18,10-.12a15.22,15.22,0,0,0,3.44-.06A2.37,2.37,0,0,0,94.06,60.58Z"/><path class="cls-10" d="M13.09,65.15c-.84-.13-1.05-1.36-1.12-2A4.39,4.39,0,0,1,12.43,61a0,0,0,0,0-.07,0,3.25,3.25,0,0,0-.53,2.72,4,4,0,0,0,.17.63A2.62,2.62,0,0,1,12,61a.06.06,0,0,0-.09-.07,2.88,2.88,0,0,0,.52,4.14h.06a.79.79,0,0,0,.6.25C13.19,65.33,13.18,65.16,13.09,65.15Z"/><path class="cls-10" d="M13.22,65a3.39,3.39,0,0,1-.1-4,.06.06,0,0,0-.09-.08,3.08,3.08,0,0,0-.79,2.07,2.88,2.88,0,0,0,.87,2.15C13.18,65.11,13.27,65,13.22,65Z"/><path class="cls-10" d="M23.13,65a5.29,5.29,0,0,1-.8-4.76.06.06,0,1,0-.11-.05c-.69,1.46-.73,4,.77,5A.1.1,0,0,0,23.13,65Z"/><path class="cls-10" d="M24,65a5.25,5.25,0,0,1-.77-4.67s-.06-.08-.08,0a4,4,0,0,0-.39,2.44c0,.15.06.32.09.49-.07-.15-.15-.31-.21-.47a3.71,3.71,0,0,1,.11-2.46.07.07,0,0,0-.12,0c-.63,1.38-.63,3.39.7,4.4l.05,0a1.93,1.93,0,0,0,.45.49C23.9,65.23,24.05,65.1,24,65Z"/><path class="cls-10" d="M36.33,64.51a6.78,6.78,0,0,1-.93-2.28,4.29,4.29,0,0,1,.21-1.95c0-.13.2-.35.17-.51a.07.07,0,0,0-.07-.06c-.52.1-.71,1.65-.7,2.06a3.32,3.32,0,0,0,1.22,2.83C36.28,64.63,36.37,64.58,36.33,64.51Z"/><path class="cls-10" d="M37.38,64.48c-.85-1.33-1.58-3-1-4.6,0-.08-.07-.11-.11-.05-.72,1.3-.48,4,.95,4.8C37.36,64.69,37.43,64.55,37.38,64.48Z"/><path class="cls-10" d="M51,61.4c-.09-.65,0-1.25,0-1.88,0-.09-.11-.09-.14,0a4.27,4.27,0,0,0,.55,4,.07.07,0,0,0,.11-.07A11.35,11.35,0,0,1,51,61.4Z"/><path class="cls-10" d="M50.94,64.28a8.93,8.93,0,0,1-.86-4.71c0-.1-.12-.11-.14,0a6,6,0,0,0,0,2.6,4.9,4.9,0,0,0,.79,2.25A.12.12,0,0,0,50.94,64.28Z"/><path class="cls-10" d="M50.51,64.47a9.68,9.68,0,0,1-.81-2.28,12,12,0,0,1,0-2.54.08.08,0,1,0-.15,0c-.29,1.51-.52,3.85.77,5C50.4,64.73,50.57,64.59,50.51,64.47Z"/><path class="cls-10" d="M59.51,60.57c0-.34.07-1.15-.16-1.41,0,0-.09,0-.09,0a6.74,6.74,0,0,0,.43,3.67c0,.06.13,0,.12,0C59.72,62.07,59.57,61.33,59.51,60.57Z"/><path class="cls-10" d="M60.51,61.52c0-.78.05-1.56,0-2.33a.08.08,0,0,0-.16,0A9.28,9.28,0,0,0,60.65,64c0,.06.11,0,.1,0C60.7,63.18,60.56,62.35,60.51,61.52Z"/><path class="cls-10" d="M59.92,61.32c-.06-.65,0-1.31,0-2,0-.08-.13-.07-.15,0a6.23,6.23,0,0,0,.44,4.15s.1,0,.09,0A13,13,0,0,1,59.92,61.32Z"/><path class="cls-10" d="M68.36,61.46a15.62,15.62,0,0,0,0-2.37c0-.09-.16-.1-.17,0-.13,1.51-.5,3.72.56,5a.12.12,0,0,0,.2-.12A10.29,10.29,0,0,1,68.36,61.46Z"/><path class="cls-10" d="M69.13,61.69c-.07-.84.09-1.65.08-2.48,0-.11-.15-.09-.17,0-.33,1.37-.73,3.79.43,4.91.07.07.22,0,.2-.12A12.93,12.93,0,0,1,69.13,61.69Z"/><path class="cls-10" d="M81.2,61.71c0-.87-.21-2.4-1-2.94a.06.06,0,0,0-.09.07,9.11,9.11,0,0,1,.62,2.62c.08.74-.28,1.53-.17,2.22,0,.07.1.14.17.1C81.33,63.45,81.21,62.28,81.2,61.71Z"/><path class="cls-10" d="M81.25,58.85a.1.1,0,0,0-.18.1,7,7,0,0,1,.38,4.49c0,.07.06.14.11.07A4.14,4.14,0,0,0,81.25,58.85Z"/><path class="cls-10" d="M91.55,60.55a2.78,2.78,0,0,0-.77-2c-.09-.07-.2,0-.14.14.87,1.32.61,3.21.42,4.67a.15.15,0,0,0,.29.08A7.09,7.09,0,0,0,91.55,60.55Z"/><path class="cls-10" d="M90.44,58.58a.09.09,0,0,0-.16.09A12.12,12.12,0,0,1,90.74,60a10.43,10.43,0,0,1,.12,1.48.15.15,0,0,0,.3,0A3.81,3.81,0,0,0,90.44,58.58Z"/><path class="cls-11" d="M94.06,60.58a2,2,0,0,0-.71-1.07A2.09,2.09,0,0,1,92,60.62a15.46,15.46,0,0,1-3.4.05c-3.3-.05-6.61,0-9.91.12l-10,.22-10.15.25-8.37.2c-1.53,0-7.75.09-9,.11l-10,.22-9.8.23c-3.24.08-6.49.14-9.72.34a14.94,14.94,0,0,1-3.34.1,2.05,2.05,0,0,1-1.47-1.13A2,2,0,0,0,6,62.59,2.32,2.32,0,0,0,7.72,65.4a14.82,14.82,0,0,0,3.39-.1C14.38,65.1,17.67,65,21,65l9.94-.24L41,64.5c1.23,0,7.54-.08,9.09-.11l8.48-.21,10.28-.26L79,63.7c3.34-.08,6.69-.18,10-.12a15.22,15.22,0,0,0,3.44-.06A2.37,2.37,0,0,0,94.06,60.58Z"/><path class="cls-11" d="M81.11,62.75,70.24,63l-11,.27-9.11.22c-1.67,0-8.44.1-9.77.12l-10.84.24-10.68.26c-3.52.09-7,.15-10.57.37-.57,0-1.16.11-1.75.15a2,2,0,0,0,1.25.77,14.82,14.82,0,0,0,3.39-.1C14.38,65.1,17.67,65,21,65l9.94-.24L41,64.5c1.23,0,7.54-.08,9.09-.11l8.48-.21,10.28-.26L79,63.7c3.34-.08,6.69-.18,10-.12a15.22,15.22,0,0,0,3.44-.06,2,2,0,0,0,1.22-.82c-.6,0-1.2-.07-1.78-.07C88.3,62.57,84.71,62.67,81.11,62.75Z"/><g class="cls-12"><path class="cls-13" d="M8.77,61.12a3.06,3.06,0,0,0-1.27.14.16.16,0,0,0,0,.32,4.19,4.19,0,0,0,.5,0,6.48,6.48,0,0,0,.77-.09A.17.17,0,0,0,8.77,61.12Z"/><path class="cls-13" d="M10.11,60.94a1.1,1.1,0,0,0-.54,0,.16.16,0,0,0,0,.31,1.1,1.1,0,0,0,.54,0A.16.16,0,0,0,10.11,60.94Z"/><path class="cls-13" d="M21.45,60.73a26.2,26.2,0,0,0-4.06,0,20.78,20.78,0,0,0-3.7.21.06.06,0,0,0,0,.11,18.28,18.28,0,0,0,3.47.07A35.87,35.87,0,0,0,21.44,61,.14.14,0,0,0,21.45,60.73Z"/><path class="cls-13" d="M33.56,60.54a21.18,21.18,0,0,0-4.21.05c-1.69,0-3.36,0-5,.15-.07,0-.07.12,0,.13,1.56.09,3.14.17,4.71.19a21.5,21.5,0,0,0,4.54-.18A.17.17,0,0,0,33.56,60.54Z"/><path class="cls-13" d="M48.84,60a37.69,37.69,0,0,0-5.52.06,32.49,32.49,0,0,0-5.41.3c-.08,0-.09.15,0,.15,1.72,0,3.4.1,5.12,0a46.88,46.88,0,0,0,5.81-.21A.18.18,0,0,0,48.84,60Z"/><path class="cls-13" d="M57.73,59.91a24.87,24.87,0,0,0-2.59,0c-.89,0-1.81.16-2.69.14a.07.07,0,0,0,0,.14,12.16,12.16,0,0,0,2.34.07,22.48,22.48,0,0,0,3,0A.15.15,0,0,0,57.73,59.91Z"/><path class="cls-13" d="M67.39,59.84c-1.85-.34-3.75.06-5.6,0-.07,0-.08.08,0,.1a14.53,14.53,0,0,0,2.8.14,13.89,13.89,0,0,0,2.81,0A.12.12,0,0,0,67.39,59.84Z"/><path class="cls-13" d="M78.09,59.67c-2.74-.3-5.49,0-8.24-.08-.18,0-.22.27,0,.29a23.73,23.73,0,0,0,3.77.13c1.5-.1,3,0,4.51-.15A.1.1,0,0,0,78.09,59.67Z"/><path class="cls-13" d="M80.08,59.62a1.63,1.63,0,0,0-1.15-.13c-.16,0-.18.29,0,.3a4.93,4.93,0,0,0,1.08.09C80.12,59.86,80.2,59.69,80.08,59.62Z"/><path class="cls-13" d="M89,59.18a30.18,30.18,0,0,0-6.23.16s-.05.08,0,.08a32.42,32.42,0,0,0,6.23,0A.11.11,0,0,0,89,59.18Z"/><path class="cls-13" d="M92.8,59.32a1.51,1.51,0,0,0-.93-.19c-.14,0-.13.22,0,.24.29,0,.55.14.84.16C92.82,59.53,92.91,59.39,92.8,59.32Z"/></g><path class="cls-10" d="M14,74.72a21.05,21.05,0,0,1-.83-3.09,23.13,23.13,0,0,1-.09-3c0-.12-.16-.1-.19,0a10.19,10.19,0,0,0,.8,6.22C13.73,75,14,74.91,14,74.72Z"/><path class="cls-10" d="M16.44,75.47a11.68,11.68,0,0,1-1.17-3,21.74,21.74,0,0,1-.18-3.13c0-.16-.27-.16-.29,0-.17,2.21-.18,4.53,1.35,6.32C16.27,75.77,16.53,75.64,16.44,75.47Z"/><path class="cls-10" d="M18.52,74.45a17.92,17.92,0,0,1-.84-2.6,16.78,16.78,0,0,1-.15-3,.14.14,0,0,0-.28,0,8.51,8.51,0,0,0,1,5.77C18.36,74.76,18.58,74.61,18.52,74.45Z"/><path class="cls-10" d="M18.7,89.34a17.89,17.89,0,0,1-1.26-5,.08.08,0,1,0-.15,0,10.77,10.77,0,0,0,1.21,5.07C18.57,89.57,18.76,89.46,18.7,89.34Z"/><path class="cls-10" d="M20.9,88.88a18,18,0,0,1-1-3.11,9.16,9.16,0,0,0-.46-2.34.12.12,0,0,0-.22.06c.16.87.22,1.77.37,2.65A9.71,9.71,0,0,0,20.62,89,.15.15,0,0,0,20.9,88.88Z"/><path class="cls-10" d="M23.3,89.41A17.36,17.36,0,0,1,22,83.9c0-.17-.31-.18-.32,0a11.2,11.2,0,0,0,1.24,5.66C23.06,89.77,23.4,89.64,23.3,89.41Z"/><path class="cls-10" d="M24.79,82.47a10.34,10.34,0,0,1-1.15-2.89,32.81,32.81,0,0,1-.44-3.43c0-.12-.21-.13-.22,0a10.09,10.09,0,0,0,1.53,6.48C24.62,82.78,24.88,82.63,24.79,82.47Z"/><path class="cls-10" d="M26.6,82.81a25.48,25.48,0,0,1-1-3.29c-.2-1-.26-2.1-.44-3.15a.12.12,0,0,0-.24,0c.26,2.3.37,4.41,1.46,6.5A.12.12,0,0,0,26.6,82.81Z"/><path class="cls-10" d="M28.79,81.63a29.18,29.18,0,0,1-1-4.09.11.11,0,0,0-.21,0,9.51,9.51,0,0,0,1,4.21A.15.15,0,0,0,28.79,81.63Z"/><path class="cls-10" d="M29,76.43a22.06,22.06,0,0,1-.67-2.54c-.15-1-.25-2.1-.38-3.14a.13.13,0,0,0-.26,0,15.07,15.07,0,0,0,1,5.73C28.75,76.65,29,76.6,29,76.43Z"/><path class="cls-10" d="M31.59,76.48a15.67,15.67,0,0,1-1.08-3.06A18.84,18.84,0,0,0,30,70.85a.09.09,0,0,0-.18.05c.37,2,.3,4,1.47,5.76A.18.18,0,0,0,31.59,76.48Z"/><path class="cls-10" d="M32.73,70.83a.07.07,0,0,0-.14,0,43.12,43.12,0,0,0,1,5.15c0,.14.28.08.25-.07C33.58,74.24,33.21,72.5,32.73,70.83Z"/><path class="cls-10" d="M43.1,80.25a.1.1,0,0,0-.19,0,11,11,0,0,0,.2,5.13c0,.18.36.1.32-.09A16.54,16.54,0,0,1,43.1,80.25Z"/><path class="cls-10" d="M44.85,80.47c0-.18-.32-.18-.33,0a15.61,15.61,0,0,0,.61,5.81.15.15,0,0,0,.29-.08A44,44,0,0,1,44.85,80.47Z"/><path class="cls-10" d="M48.85,85.54a22,22,0,0,1-1.15-5.68c0-.18-.27-.13-.27,0a12.79,12.79,0,0,0,1.11,5.77A.17.17,0,0,0,48.85,85.54Z"/><path class="cls-10" d="M50.24,74c0-.09-.17-.09-.17,0a26.94,26.94,0,0,0,.33,6.53.14.14,0,0,0,.28,0A64.3,64.3,0,0,1,50.24,74Z"/><path class="cls-10" d="M52.73,73.43c0-.15-.2-.17-.23,0a13.72,13.72,0,0,0-.09,6.34.14.14,0,0,0,.27,0A29.21,29.21,0,0,1,52.73,73.43Z"/><path class="cls-10" d="M55.11,76.33c-.08-1.16,0-2.33,0-3.48,0-.15-.23-.14-.25,0a13.55,13.55,0,0,0,.66,7.25A.15.15,0,0,0,55.8,80,35.76,35.76,0,0,1,55.11,76.33Z"/><path class="cls-10" d="M66.1,81c.1-1.17.39-2.34.56-3.51a.11.11,0,0,0-.22,0c-.58,2.45-1.19,4.82-.57,7.32a.2.2,0,0,0,.39-.05A17.25,17.25,0,0,1,66.1,81Z"/><path class="cls-10" d="M68.5,78.61a.14.14,0,0,0-.28,0A18.06,18.06,0,0,0,68,85.2a.15.15,0,0,0,.3,0A41,41,0,0,1,68.5,78.61Z"/><path class="cls-10" d="M71.46,80.7a26.8,26.8,0,0,0,.14-3.1c0-.13-.21-.1-.21,0,0,1.12-.29,2.26-.36,3.38a13.39,13.39,0,0,0,.15,3.35.16.16,0,0,0,.31,0C71.45,83.11,71.42,81.91,71.46,80.7Z"/><path class="cls-10" d="M81.44,77.91a16.32,16.32,0,0,0-.88,6.61.12.12,0,0,0,.24,0c.08-1.1.07-2.2.21-3.3s.54-2.18.6-3.27C81.61,77.86,81.47,77.81,81.44,77.91Z"/><path class="cls-10" d="M83.59,78.25c-.37,2.37-1,4.69-.74,7.12,0,.21.37.22.38,0a36.28,36.28,0,0,1,.2-3.76c.12-1.11.39-2.21.42-3.33A.13.13,0,0,0,83.59,78.25Z"/><path class="cls-10" d="M72.56,88.54c0-.78.16-1.56.18-2.34a.08.08,0,0,0-.15,0,6.36,6.36,0,0,0-.34,2.34,9.43,9.43,0,0,0,.23,2.75c0,.18.32.15.29,0A14,14,0,0,1,72.56,88.54Z"/><path class="cls-10" d="M74.89,86.39c0-.11-.14-.14-.19,0a8,8,0,0,0-.07,5.07.14.14,0,0,0,.27-.07A12.5,12.5,0,0,1,74.89,86.39Z"/><path class="cls-10" d="M77.39,86.46a.11.11,0,0,0-.22,0,17.2,17.2,0,0,0,.1,4.7.18.18,0,0,0,.35,0C77.44,89.57,77.59,88,77.39,86.46Z"/><path class="cls-10" d="M74.31,73.31c.07-1,.31-1.9.47-2.86a.08.08,0,0,0-.16,0c-.49,2.09-1,4.08-.29,6.2,0,.12.24.06.22-.06A13.75,13.75,0,0,1,74.31,73.31Z"/><path class="cls-10" d="M77.19,73.35c0-.88.18-1.75.18-2.64,0-.13-.23-.13-.23,0-.15,2.12-.67,4.16,0,6.26.05.19.34.1.32-.09A19.76,19.76,0,0,1,77.19,73.35Z"/><path class="cls-10" d="M80.3,70.81c0-.17-.26-.21-.27,0-.11,2.08-.76,4.14-.37,6.24A.15.15,0,0,0,80,77,60.43,60.43,0,0,1,80.3,70.81Z"/><path class="cls-10" d="M31.92,65.75a19.22,19.22,0,0,1-5.35.46c-.09,0-.1.12,0,.14A9.84,9.84,0,0,0,32,66.07C32.18,66,32.11,65.71,31.92,65.75Z"/><path class="cls-10" d="M32.72,67.6c-1.91.38-4.16,1-6.12.51-.07,0-.1.1,0,.13a6.28,6.28,0,0,0,2.66.33,9.64,9.64,0,0,0,3.57-.68C33,67.82,32.89,67.56,32.72,67.6Z"/><path class="cls-10" d="M26.3,70.58a13.61,13.61,0,0,1-5.05.1c-.07,0-.11.1,0,.13a7.29,7.29,0,0,0,5.16.09C26.55,70.82,26.49,70.54,26.3,70.58Z"/><path class="cls-10" d="M26.63,73.09a21.23,21.23,0,0,1-5.1.14c-.09,0-.13.13,0,.15a9.81,9.81,0,0,0,5.24.08C27,73.4,26.84,73.06,26.63,73.09Z"/><path class="cls-10" d="M26.45,75.31a17.74,17.74,0,0,1-4.77-.12c-.09,0-.12.12,0,.15a7.28,7.28,0,0,0,4.89.24C26.69,75.53,26.61,75.3,26.45,75.31Z"/><path class="cls-10" d="M35.28,77a23,23,0,0,1-6.13.73c-.2,0-.25.3,0,.32a14,14,0,0,0,6.27-.7A.18.18,0,0,0,35.28,77Z"/><path class="cls-10" d="M34.73,79.88a18.73,18.73,0,0,1-5.49.24.14.14,0,0,0-.07.26,9.83,9.83,0,0,0,5.66-.13A.19.19,0,0,0,34.73,79.88Z"/><path class="cls-10" d="M34.55,82.58c-1.5.31-3.34,1-4.88.68a.12.12,0,0,0-.06.22c1.48.51,3.62,0,5-.49A.22.22,0,0,0,34.55,82.58Z"/><path class="cls-10" d="M29.4,84.4c-1.88,0-3.76.34-5.64-.08-.07,0-.1.09,0,.12a9.79,9.79,0,0,0,5.67.29C29.56,84.69,29.61,84.4,29.4,84.4Z"/><path class="cls-10" d="M29.9,86.07a21.23,21.23,0,0,1-5.34.2c-.13,0-.15.17,0,.2a12.7,12.7,0,0,0,5.42,0A.21.21,0,0,0,29.9,86.07Z"/><path class="cls-10" d="M29.85,87.87a16,16,0,0,1-5.38.45c-.11,0-.16.16,0,.19a9.09,9.09,0,0,0,5.5-.36C30.08,88.1,30,87.85,29.85,87.87Z"/><path class="cls-10" d="M20.25,76.93c-2,0-4,.48-6,.23-.12,0-.14.16,0,.19a12.8,12.8,0,0,0,6.12-.15C20.49,77.16,20.39,76.93,20.25,76.93Z"/><path class="cls-10" d="M20,79.71c-1.55-.21-3.1-.18-4.65-.32a.1.1,0,0,0,0,.2A31.37,31.37,0,0,0,20,80C20.16,80,20.2,79.73,20,79.71Z"/><path class="cls-10" d="M20.37,82.08a26.63,26.63,0,0,1-4.64.12.13.13,0,0,0,0,.26,9.11,9.11,0,0,0,4.75-.13A.13.13,0,0,0,20.37,82.08Z"/><path class="cls-10" d="M47.74,75.26c-2.16.07-4.27.15-6.43,0a.08.08,0,0,0,0,.16,17.43,17.43,0,0,0,6.48,0A.13.13,0,0,0,47.74,75.26Z"/><path class="cls-10" d="M49,77.45c-1.38,0-2.76.18-4.15.23a33.56,33.56,0,0,1-3.87-.2.09.09,0,0,0,0,.18,22.39,22.39,0,0,0,8.08.08A.15.15,0,0,0,49,77.45Z"/><path class="cls-10" d="M48.2,79.36a39,39,0,0,1-7.4.14.08.08,0,0,0,0,.16,13.44,13.44,0,0,0,3.23.21,23.84,23.84,0,0,0,4.22-.31A.1.1,0,0,0,48.2,79.36Z"/><path class="cls-10" d="M55,68.18c-1,0-1.89.1-2.85.08s-1.81-.16-2.69-.26a.06.06,0,0,0,0,.12,13.08,13.08,0,0,0,5.56.36C55.11,68.44,55.13,68.18,55,68.18Z"/><path class="cls-10" d="M54.82,69.79a21.65,21.65,0,0,1-5.63-.21c-.08,0-.12.12,0,.16a11.13,11.13,0,0,0,5.7.28A.12.12,0,0,0,54.82,69.79Z"/><path class="cls-10" d="M55.3,71.26a19.61,19.61,0,0,1-7.44.26c-.09,0-.1.1,0,.12a14.09,14.09,0,0,0,7.54-.09C55.54,71.5,55.46,71.23,55.3,71.26Z"/><path class="cls-10" d="M72.87,71.5a21.92,21.92,0,0,1-4,.16,25.57,25.57,0,0,1-3.48-.6.1.1,0,0,0-.06.19,12.78,12.78,0,0,0,7.56.57A.16.16,0,0,0,72.87,71.5Z"/><path class="cls-10" d="M72.09,73.83A20.54,20.54,0,0,1,66,73.57c-.1,0-.14.15,0,.18a11.27,11.27,0,0,0,6.14.42A.17.17,0,0,0,72.09,73.83Z"/><path class="cls-10" d="M73.16,75.89a15.33,15.33,0,0,1-7.67.36c-.18,0-.2.23,0,.27a12.2,12.2,0,0,0,7.85-.31C73.5,76.12,73.37,75.83,73.16,75.89Z"/><path class="cls-10" d="M87.5,70.63a38.5,38.5,0,0,1-5.26-.21c-.12,0-.14.16,0,.19A19.06,19.06,0,0,0,87.5,71C87.7,71,87.7,70.63,87.5,70.63Z"/><path class="cls-10" d="M86.34,72.72a14.52,14.52,0,0,1-4,.07.11.11,0,0,0,0,.22,9.9,9.9,0,0,0,4,0A.16.16,0,0,0,86.34,72.72Z"/><path class="cls-10" d="M85.86,75.46a10.55,10.55,0,0,1-4.43.33c-.11,0-.16.15-.05.19a6.3,6.3,0,0,0,4.56-.21C86.1,75.7,86,75.43,85.86,75.46Z"/><path class="cls-10" d="M79.05,77.92a23.7,23.7,0,0,1-5.19,0c-.1,0-.15.15,0,.18a9.16,9.16,0,0,0,2.45.26,15.73,15.73,0,0,0,2.83-.1A.18.18,0,0,0,79.05,77.92Z"/><path class="cls-10" d="M78.58,81a31.44,31.44,0,0,1-5.57-.5c-.15,0-.21.21-.07.25a17,17,0,0,0,5.64.6C78.78,81.38,78.78,81,78.58,81Z"/><path class="cls-10" d="M78.43,84.13A16.85,16.85,0,0,1,73,83.75a.13.13,0,0,0-.07.25,11.67,11.67,0,0,0,5.56.49A.18.18,0,0,0,78.43,84.13Z"/><g class="cls-14"><path class="cls-8" d="M54.67,68.63c.25,0,.5.37.24.58a3.7,3.7,0,0,1-2.15.49,7.84,7.84,0,0,1-2.84-.46.3.3,0,0,1-.14-.1c-.34-.13-.16-.69.24-.63a16.43,16.43,0,0,0,2.8.22A14.34,14.34,0,0,1,54.67,68.63Z"/><path class="cls-8" d="M52.08,80.09a.31.31,0,0,1-.13.36.33.33,0,0,1-.6.06,8,8,0,0,1-.8-4.15c0-.69,0-2.18.77-2.49a.37.37,0,0,1,.33.09c.38.33.26,1.1.2,1.54A10.77,10.77,0,0,0,52.08,80.09Z"/><path class="cls-8" d="M50.14,71.42c-.53,0-1.42-.34-1.58-.93-.21-.23.1-.67.44-.5,1.61.78,3.64.57,5.36.42.39,0,.45.56.09.66A12.77,12.77,0,0,1,50.14,71.42Z"/><path class="cls-8" d="M53.72,73.52a.34.34,0,0,1,.56.15,3,3,0,0,1-.18,1.86,7.78,7.78,0,0,0,0,2.68c.14.65.41,1.22.57,1.85a.34.34,0,0,1-.5.38c-1.06-.47-1.37-2.09-1.4-3.12S52.8,74.33,53.72,73.52Z"/><path class="cls-8" d="M32.4,72.68c.06.7.13,1.39.24,2.09a1.89,1.89,0,0,1-.06,1,.34.34,0,0,1-.49.2c-1-.64-1.11-2.35-1.15-3.49s0-2,.68-1.88S32.35,72.15,32.4,72.68Z"/><path class="cls-8" d="M33.67,79.57a9.37,9.37,0,0,1-4-.17.34.34,0,0,1-.18-.1.62.62,0,0,1-.14-.14.43.43,0,0,1,.12-.54.1.1,0,0,1,.05,0,.27.27,0,0,1,.28-.16,16.08,16.08,0,0,0,2.86-.14c.84-.09,1.58-.38,2.39-.5a.35.35,0,0,1,.43.32C35.56,79,34.4,79.41,33.67,79.57Z"/><path class="cls-8" d="M35,81.09c-.72,2-4.05,1.7-5.34.57a.33.33,0,0,1,.05-.51.31.31,0,0,1,.4-.27,6.55,6.55,0,0,0,2.82.14c.45-.06,1.48-.59,1.91-.31A.34.34,0,0,1,35,81.09Z"/><path class="cls-8" d="M28.49,73.08c0-.66-.2-1.63.33-2.13a.33.33,0,0,1,.41,0c.57.38.4,1.47.46,2,.1.92.64,1.92.48,2.83a.29.29,0,0,1-.28.24.26.26,0,0,1-.36-.07A5.05,5.05,0,0,1,28.49,73.08Z"/><path class="cls-8" d="M27,66.64a9.4,9.4,0,0,0,2.85.21,9.42,9.42,0,0,1,1.83-.11.34.34,0,0,1,.15.56,4.48,4.48,0,0,1-3.22.71,3,3,0,0,1-1.93-.74.32.32,0,0,1-.06-.15A.33.33,0,0,1,27,66.64Z"/><path class="cls-8" d="M27.51,82.27c-1.54.42-1.77-4.42-1.68-5.12a.35.35,0,0,1,.33-.31.32.32,0,0,1,.51-.06,1.31,1.31,0,0,1,.39.91,13.79,13.79,0,0,0,.46,2.47C27.66,80.58,28.32,82.05,27.51,82.27Z"/><path class="cls-8" d="M26.74,74.39a1.51,1.51,0,0,1-1,.7,4.25,4.25,0,0,1-4.12-.7.32.32,0,0,1,.16-.55.27.27,0,0,1,.28-.06,11.39,11.39,0,0,0,4.43.11C26.71,73.85,26.85,74.19,26.74,74.39Z"/><path class="cls-8" d="M26.2,72.23a4.92,4.92,0,0,1-4.56.46c-.29-.15-.77-.6-.3-.88h0a.37.37,0,0,1,.42-.33,27.67,27.67,0,0,0,4.27.14A.33.33,0,0,1,26.2,72.23Z"/><path class="cls-8" d="M20.38,77.77a.34.34,0,0,1,.34.33c.1,1.3-2.17,1.18-2.94,1.14-.6,0-2.51,0-2.83-.77a.34.34,0,0,1,.28-.6C17,78.28,18.66,77.76,20.38,77.77Z"/><path class="cls-8" d="M15.48,69.84a.18.18,0,0,1,.06-.09,1.17,1.17,0,0,1,.15-.27.68.68,0,0,1,.43-.31.25.25,0,0,1,.39.11,3.27,3.27,0,0,1,.14,1.21A18.43,18.43,0,0,0,17,72.57c.09.36.5,1.38.12,1.7s-.62.13-.88-.18A4.53,4.53,0,0,1,15.48,69.84Z"/><path class="cls-8" d="M13.92,74.09c-.36-.34-.42-1.18-.5-1.64a7.28,7.28,0,0,1,0-2.55.14.14,0,0,1,0-.06.91.91,0,0,1,.44-.71c.73-.38.71,2.88.72,3.12S14.82,75,13.92,74.09Z"/><path class="cls-8" d="M19.87,89a.34.34,0,0,1-.57.24c-.92-.93-1.12-2.43-1.31-3.74,0-.17-.06-.35-.08-.53,0,0,0,0,0-.08v-.06c0-.51.1-.92.57-.92.74,0,.69,1.25.76,1.7A15.46,15.46,0,0,1,19.87,89Z"/><path class="cls-8" d="M19.91,81.48c-1.24.79-5,.7-5.6-.94a.31.31,0,0,1,.14-.36c0-.22.13-.47.4-.36,1.55.61,3.16.26,4.76.49C20.28,80.4,20.58,81.06,19.91,81.48Z"/><path class="cls-8" d="M21.35,88.82a6.64,6.64,0,0,1-1.2-4.17,2.93,2.93,0,0,1,.11-.9c.11-.39.45-.89.93-.61s.3,1,.3,1.51a10,10,0,0,0,.18,2.62,5.41,5.41,0,0,1,.25,1.31A.34.34,0,0,1,21.35,88.82Z"/><path class="cls-8" d="M23.83,77.06a.49.49,0,0,1,.69-.13,2.63,2.63,0,0,1,.31,1.47c.07,1,.39,2,.51,2.95.05.34-.47.44-.62.17A7.11,7.11,0,0,1,23.83,77.06Z"/><path class="cls-8" d="M24.52,84.83c1.23.62,2.7.16,4,.31.23,0,.45.27.29.51-.49.7-1.44.54-2.2.54s-1.95,0-2.48-.76a.26.26,0,0,1,0-.08C23.86,85.12,24.17,84.66,24.52,84.83Z"/><path class="cls-8" d="M24.07,87.14a.34.34,0,0,1,.42-.41l.19.07a.33.33,0,0,1,.22,0,21,21,0,0,0,3.8.3.34.34,0,0,1,.24.57c-.69.7-2.07.54-3,.48S24.38,88,24.07,87.14Z"/><path class="cls-8" d="M70.38,84c0,.34.06.91-.44.91s-.85-.79-1-1.14a5.67,5.67,0,0,1-.29-3.16,7.19,7.19,0,0,1,.43-1.76c.17-.44.51-1.36,1.14-1.29a.49.49,0,0,1,.38.34,2.24,2.24,0,0,1,.13.92l-.09.54c-.08.54-.15,1.09-.21,1.63a13.57,13.57,0,0,0-.09,1.91C70.32,83.3,70.35,83.67,70.38,84Z"/><path class="cls-8" d="M69.15,76.25c-1.08,0-3.5,0-3.7-1.49a.36.36,0,0,1,.12-.34.31.31,0,0,1,.41-.28,10.34,10.34,0,0,0,3.66.65,11.11,11.11,0,0,1,2.21-.18.32.32,0,0,1,.24.32C72,76.29,70.1,76.25,69.15,76.25Z"/><path class="cls-8" d="M67.48,83.62l.06,1a.34.34,0,0,1-.58.24,4.6,4.6,0,0,1-.58-3.61c.15-.86.16-2.5.89-3.11a.34.34,0,0,1,.57.24,11.7,11.7,0,0,1-.28,1.84,2.83,2.83,0,0,0,0,.29c0,.47-.1.94-.11,1.4A16.66,16.66,0,0,0,67.48,83.62Z"/><path class="cls-8" d="M69.36,73.65c-1.13-.05-2.57-.14-3.35-1.1a.27.27,0,0,1-.07-.14c-.18-.23,0-.65.33-.53a10.18,10.18,0,0,0,3.37.6,23.73,23.73,0,0,0,2.67-.32c.27,0,.39.3.29.5C72,73.77,70.42,73.71,69.36,73.65Z"/><path class="cls-8" d="M73.7,91.55a3.63,3.63,0,0,1-1-3.15c.07-.77.11-2.15.87-2.6a.35.35,0,0,1,.5.2,3.11,3.11,0,0,1,0,.61.32.32,0,0,1,.08.29A6.72,6.72,0,0,0,74,89.54a6.6,6.6,0,0,1,.23,1.72C74.2,91.49,73.92,91.72,73.7,91.55Z"/><path class="cls-8" d="M76.7,89.84a4.75,4.75,0,0,1,0,1.19c-.09.31-.33.67-.71.48C75,91,74.81,88.64,74.92,87.68a3.23,3.23,0,0,1,.88-2.2.51.51,0,0,1,.79.11A3.13,3.13,0,0,1,76.82,87a.31.31,0,0,1,0,.19A14.46,14.46,0,0,0,76.7,89.84Z"/><path class="cls-8" d="M77.19,83.52a6.42,6.42,0,0,1-3.31-.47c-1-.26-1.79-.72-1.18-1.43a.33.33,0,0,1,.33-.08l.43.15a10.63,10.63,0,0,0,2.65.23,15.68,15.68,0,0,1,2.65,0,.33.33,0,0,1,.24.23C79.17,83,77.83,83.38,77.19,83.52Z"/><path class="cls-8" d="M77.23,80.57a6.73,6.73,0,0,1-4-1.16.27.27,0,0,1-.09-.3.33.33,0,0,1,.38-.48,13.47,13.47,0,0,0,3.3.27c.86,0,1.77-.11,2.61,0a.34.34,0,0,1,.24.33C79.68,80.27,78,80.59,77.23,80.57Z"/><path class="cls-8" d="M76.5,75.31c.09.42.12,1.13-.41,1.28-1.23.34-1.48-2.73-1.48-3.33s.32-3.8,1.61-3.05a.73.73,0,0,1,.36.62.28.28,0,0,1,.13.36A7.79,7.79,0,0,0,76.5,75.31Z"/><path class="cls-8" d="M79.08,75.49c0,.37.15.79-.12,1.1a.32.32,0,0,1-.4,0c-.78-.4-.92-1.57-1-2.34a7.25,7.25,0,0,1,.45-3.67.49.49,0,0,1,.56-.27.35.35,0,0,1,.37,0c.63.25.41,1.53.19,2.45A12.3,12.3,0,0,0,79.08,75.49Z"/><path class="cls-8" d="M82.89,78.35a27.24,27.24,0,0,0-.31,4.78c0,.53,0,1.61-.64,1.79a.33.33,0,0,1-.33-.08,4.77,4.77,0,0,1-.48-3A14.53,14.53,0,0,1,82,78.32a.5.5,0,0,1,.88,0Z"/><path class="cls-8" d="M87.72,73.63c-.94,1.87-5.32,2.48-6.37.41l0-.1s0,0,0,0a.34.34,0,0,1,0-.1v0a.51.51,0,0,1,.44-.55h.09a.67.67,0,0,1,.39.08,9.16,9.16,0,0,0,5.16-.17C87.64,73,87.84,73.38,87.72,73.63Z"/><path class="cls-8" d="M82,71.27a.33.33,0,0,1,.41-.31,18.44,18.44,0,0,0,4.92.23.34.34,0,0,1,.24.57,4.89,4.89,0,0,1-5.57,0A.31.31,0,0,1,82,71.27Z"/><path class="cls-8" d="M47.88,85.7c.12.4-.16,1-.66.85-1.84-.5-2.2-3.38-2.06-4.93.06-.59.17-1.39.8-1.65.43-.18,1-.17,1.15.38a3.61,3.61,0,0,1,0,1.6A9.58,9.58,0,0,0,47.88,85.7Z"/><path class="cls-8" d="M43.72,79.23A4.43,4.43,0,0,1,41,78.55a.29.29,0,0,1-.09-.28c-.09-.23.08-.55.38-.44,2.23.8,4.41.28,6.7.3a.34.34,0,0,1,.09.66A12.73,12.73,0,0,1,43.72,79.23Z"/><path class="cls-8" d="M44.29,81.59a14.34,14.34,0,0,0,.34,4c0,.29-.32.63-.56.33a4.7,4.7,0,0,1-.81-2.64,6,6,0,0,1,.13-2.6.46.46,0,0,1,.87,0,1.36,1.36,0,0,1,0,.8A.33.33,0,0,1,44.29,81.59Z"/><path class="cls-8" d="M41.35,76h0a.35.35,0,0,1,.18,0,33.46,33.46,0,0,0,6.25,0,.34.34,0,0,1,.33.34c0,1.09-1.8,1-2.53,1-1.56.06-3.23.38-4.51-.74A.34.34,0,0,1,41.35,76Z"/></g><g class="cls-15"><path class="cls-8" d="M8.68,64.8c1.2,4.8,4.3,16.83,6.17,21.38,2.36,5.73,1.26,8.24,9,9,6.69.67,20.46.36,26.28.21,5.82.15,19.59.46,26.28-.21,7.77-.79,6.68-3.3,9-9,1.87-4.55,5.21-18.45,6.42-23.25ZM82.82,85.86a8.4,8.4,0,0,1-1.4,1.32c-2.73,2-6.42,2.64-9.81,2.91-1.94.15-3.88.17-5.83.19-6.83.09-13.64.66-20.47.76q-4.81.08-9.65,0c-5-.1-10.53.42-15.18-1.76a13,13,0,0,1-6.08-6.78c-1.82-4.08-5.55-14.44,3-14,2.4.13,4.76.16,7.16.18,7.4.06,14.79.26,22.19.11q3.21-.06,6.42-.22c7.56-.39,18.54-1.08,26.11-1.29,2.26-.06,5.1-.49,7.22.41C90.8,69.54,84.41,84,82.82,85.86Z"/></g><path class="cls-16" d="M36.3,70.28c-3.27,0-6.54,0-9.8,0-2.39,0-5.48-.48-7.74.31-2.89,1-1.16,4.5-.34,6.15a9.62,9.62,0,0,0,3.95,3.92C27,83.33,33.26,84,38.84,84.26c4.59.21,9.19.12,13.78-.11,6.07-.29,12.34-.2,18.27-1.44a19.33,19.33,0,0,0,13-9.37c.59-1.12,2-3.35.17-4.18-2-.91-24.41.86-33.06,1Q43.63,70.21,36.3,70.28Z"/><g class="cls-17"><path class="cls-8" d="M83.28,90c-5.26,3.84-23,3.14-26.1,3.21-6.29.14-12.58.17-18.87.14-3.17,0-15-.67-17.66-1.21a9.05,9.05,0,0,1-4.57-2.19c1,3.14,1.9,4.69,7.71,5.28,6.68.67,20.45.36,26.27.21,5.82.15,19.6.46,26.28-.21,6.34-.64,6.78-2.43,8-6.17A8.59,8.59,0,0,1,83.28,90Z"/><path class="cls-8" d="M15.44,65.64c4.4-.39,8.86-.11,13.27-.13,6.34,0,12.68-.29,19-.32s12.75.11,19.12,0,12.58-.74,18.83-.41c1.29.06,3.83,0,4.68,1.26a2.34,2.34,0,0,1,.36,1.19l1.06-4.27L8.58,64.8l.65,2.55a5,5,0,0,1,1.47-.71A14.29,14.29,0,0,1,15.44,65.64Z"/></g><path class="cls-13" d="M38.61,89.66a2.15,2.15,0,0,1-2.5-2.43,3.12,3.12,0,0,1,.36-1.51,6.31,6.31,0,0,1,1-1.32l5.24-5.48a11.25,11.25,0,0,0,1.7-2.16A3.74,3.74,0,0,0,44.89,75a2.06,2.06,0,0,0-.75-1.73A3.51,3.51,0,0,0,42,72.64a6,6,0,0,0-1.51.21,9.15,9.15,0,0,0-1.77.69,2.15,2.15,0,0,1-1.42.21,2.07,2.07,0,0,1-1.1-.65,2.28,2.28,0,0,1-.34-2.49,2.31,2.31,0,0,1,1.11-1.07,10.93,10.93,0,0,1,2.86-1.1,13.31,13.31,0,0,1,3-.35,10.33,10.33,0,0,1,4.14.73,5.39,5.39,0,0,1,2.54,2.12,6.21,6.21,0,0,1,.87,3.35,8.19,8.19,0,0,1-.38,2.48,9.18,9.18,0,0,1-1.2,2.41,18.37,18.37,0,0,1-2.21,2.6L41.68,86.6V85.18h7.4a2.32,2.32,0,0,1,1.71.57,2.26,2.26,0,0,1,.57,1.66,2,2,0,0,1-2.28,2.25Z"/><path class="cls-13" d="M57.65,90A2.65,2.65,0,0,1,56,89.48a1.76,1.76,0,0,1-.73-1.26,2.87,2.87,0,0,1,.43-1.72L64,71.37V73H55.57a2.43,2.43,0,0,1-1.73-.59,2.59,2.59,0,0,1,0-3.34,2.43,2.43,0,0,1,1.73-.59H66.89a2.77,2.77,0,0,1,1.86.62,2.12,2.12,0,0,1,.72,1.7,4.37,4.37,0,0,1-.28,1.64c-.19.47-.43,1-.71,1.52l-7.7,14.26a3.28,3.28,0,0,1-1.23,1.34A3.79,3.79,0,0,1,57.65,90Z"/></g></g></svg>