<svg xmlns="http://www.w3.org/2000/svg" viewBox="0 0 105.29 104.84"><defs><style>.cls-1{isolation:isolate;}.cls-2{fill:#ed7d03;}.cls-3{fill:#ff8c03;}.cls-4{fill:#fcbc08;}.cls-5{fill:#f28106;opacity:0.7;}.cls-6{fill:#7c6a13;}.cls-7{fill:#937b18;}.cls-8{fill:#b86313;}.cls-11,.cls-9{fill:#cc7917;}.cls-10{fill:#9e4727;}.cls-11,.cls-12,.cls-17{opacity:0.5;}.cls-11,.cls-15,.cls-17{mix-blend-mode:multiply;}.cls-13,.cls-16{fill:#fff;}.cls-14,.cls-15{opacity:0.3;}.cls-14{mix-blend-mode:screen;}.cls-16{opacity:0.1;}</style></defs><title>orange23</title><g class="cls-1"><g id="Layer_1" data-name="Layer 1"><path class="cls-2" d="M79.93,45.89c-4.72-1.59-9.71-5.64-10.85-10.73H24.85v30.2H82.17V46.51A21.17,21.17,0,0,1,79.93,45.89Z"/><path class="cls-3" d="M67.38,12c3,2.19,6.92,9.14,2.29,14.85S58.3,32.89,53.21,29.53A11.48,11.48,0,0,1,51.78,11.4C56.93,6.5,62.88,8.67,67.38,12Z"/><path class="cls-4" d="M54.89,11.17h0Z"/><path class="cls-4" d="M55.59,11.89c.35-.17.74-.53.41-.84s-.78,0-1.09.12C54.47,11.57,54.66,12.35,55.59,11.89Z"/><path class="cls-4" d="M54.91,11.16l.54-.2A.88.88,0,0,0,54.91,11.16Z"/><path class="cls-4" d="M54,12.7c.13-.1.31-.3.13-.44a.22.22,0,0,0-.33.07.44.44,0,0,0-.22.29C53.51,12.91,53.82,12.79,54,12.7Z"/><path class="cls-4" d="M56.24,12.51a.33.33,0,0,0-.33,0c-.15,0-.35.08-.38.21a.25.25,0,0,0,0,.08l0,0,0,0c0,.15.39,0,.51,0S56.51,12.66,56.24,12.51Z"/><path class="cls-4" d="M55.48,12.85h0Z"/><path class="cls-4" d="M57,11.73c-.15,0-.32.21-.24.36s.44.09.57,0C57.81,11.83,57.16,11.62,57,11.73Z"/><path class="cls-4" d="M57.6,10.81c-.1,0-.29-.07-.37,0a.14.14,0,0,0,0,.17c0,.11.18.2.25.24s.91.32,1,.06S57.79,10.83,57.6,10.81Z"/><path class="cls-4" d="M56.77,10.29c.16.08.72.06.77-.16s-.3-.28-.45-.26a.61.61,0,0,0-.24.14C56.7,10.08,56.59,10.19,56.77,10.29Z"/><path class="cls-4" d="M54.06,11.61c.29-.21,0-.33-.23-.29h0c-.13,0-.46.15-.37.33S53.94,11.7,54.06,11.61Z"/><path class="cls-4" d="M52.84,13c.1-.12.44-.66.06-.69a.27.27,0,0,0-.2.11,1.1,1.1,0,0,0-.39.53C52.17,13.44,52.65,13.21,52.84,13Z"/><path class="cls-4" d="M54.89,13.15a.76.76,0,0,0-.51,0c-.28.08-.61.3-.66.51-.13.52.78.15,1,.08S55.31,13.31,54.89,13.15Z"/><path class="cls-4" d="M56.41,13.56c-.14,0-.3.17-.3.29s.52.17.67.11C57.34,13.69,56.61,13.44,56.41,13.56Z"/><path class="cls-4" d="M60,10.67a.26.26,0,0,0-.25.11.68.68,0,0,0,1,0A.59.59,0,0,0,60,10.67Z"/><path class="cls-4" d="M58.52,12c.31.11,1.16.16,1.23-.28a.75.75,0,0,0-.68-.08C58.8,11.65,58.52,11.74,58.52,12Z"/><path class="cls-4" d="M59.13,9.72a.44.44,0,0,0-.62-.07.32.32,0,0,0-.15.19A.61.61,0,0,0,59.13,9.72Z"/><path class="cls-4" d="M61.44,11.55c-.62,0,.19.8.53.55S61.69,11.38,61.44,11.55Z"/><path class="cls-4" d="M52.51,14.14c-.19-.16-.36,0-.47.18-.42.27-.92.9-.52,1.06S52.5,14.48,52.51,14.14Z"/><path class="cls-4" d="M51.36,13.31c-.54.11-.28,1,.23.39C51.91,13.32,51.58,13.2,51.36,13.31Z"/><path class="cls-4" d="M54.43,15a.31.31,0,0,0-.2.25c.21.15.74.16.88-.11S54.61,14.65,54.43,15Z"/><path class="cls-4" d="M59.23,13.49l0-.05a.26.26,0,0,0,0,.11s0,.1,0,.12c.11.29.73.3.61-.07S59.37,13.34,59.23,13.49Z"/><path class="cls-4" d="M64.78,12.7c-.36-.5-1.12,0-.64.16C64.42,13.06,65.14,13.19,64.78,12.7Z"/><path class="cls-4" d="M51.83,17.49l.08-.13a.9.9,0,0,0-.4.63c.21.06.85-.37.83-.65S52,17.22,51.83,17.49Z"/><path class="cls-4" d="M57.51,16.07a.16.16,0,0,0,.21.05c.26,0,.74,0,.54-.32S57.58,15.85,57.51,16.07Z"/><path class="cls-4" d="M49.67,15.79a.53.53,0,0,0,0,.22c.32.11,1.14,0,.87-.51S49.77,15.42,49.67,15.79Z"/><path class="cls-4" d="M50.79,14.43h0a.26.26,0,0,0-.33.27.39.39,0,0,0,.55-.22A.41.41,0,0,0,50.79,14.43Z"/><path class="cls-5" d="M51.84,25.75c-1.17.86,4.8,5.19,8.69,5a11.44,11.44,0,0,0,9.4-6c1-2.15.67-8.23-.62-7.81-.45.15.11,2.22-1.78,5.34-1.65,2.75-4.47,5.46-8.21,5.27C54.21,27.35,52.62,25.18,51.84,25.75Z"/><path class="cls-6" d="M64.66,10.69a.55.55,0,0,0-.48.84c.32.8,2.27,2.09,2.83,1.88s.58-.87-.23-1.5A4.73,4.73,0,0,0,64.66,10.69Z"/><path class="cls-6" d="M65.68,11.76s2.26-2.34,2.9-3.22a39.9,39.9,0,0,0,2.14-4.22s.2-.3.48-.25.2.47.2.47-1.58,3.23-2.22,4.11c-1.3,1.81-3,3.78-3,3.78Z"/><path class="cls-6" d="M69.62,7.35l-3.73-.47-.14.22,1.86.3,1.85.3Z"/><path class="cls-6" d="M61.85,11.56c-3.86,1-9.55-1.77-9.55-1.77S56.1,5.36,59.36,5s8.93,2.27,8.93,2.27A13.5,13.5,0,0,1,61.85,11.56Z"/><path class="cls-7" d="M64.69,10.93a.82.82,0,0,0-.08.79A4.09,4.09,0,0,0,66,12.83l.09-.7s-.3-.21-.33-.38a.39.39,0,0,1,0-.27Z"/><path class="cls-7" d="M67,7.39a29.75,29.75,0,0,0-6.46.06c-3,.43-7.51,1.86-7.46,2.07s5-1.64,7.37-1.8,6.73,0,6.73,0Z"/><path class="cls-7" d="M65.52,7.5a3.28,3.28,0,0,1-.63,1.17,8.7,8.7,0,0,0-1.08,1.69,11.13,11.13,0,0,0,1.25-1.57c.35-.53.81-1.27.81-1.27Z"/><path class="cls-7" d="M62.52,7.52a5.29,5.29,0,0,1-.66,1.91c-.66,1.36-.93,1.76-.77,1.79s.66-1,1-1.74.85-2,.85-2Z"/><path class="cls-7" d="M59.6,7.79a3.69,3.69,0,0,1-.23,1.43c-.29,1-.66,1.57-.52,1.64s.48-.87.68-1.59.5-1.63.5-1.63Z"/><path class="cls-7" d="M56.47,8.54a2.39,2.39,0,0,1-.16.84c-.18.51-.47,1-.39,1a1.84,1.84,0,0,0,.54-.92c.13-.46.27-1,.27-1Z"/><path class="cls-7" d="M65.87,7.42a4.38,4.38,0,0,0-1.13-1.09,3.41,3.41,0,0,0-1.46-.59c-.07.07.83.32,1.15.53a12.62,12.62,0,0,1,1.19,1.14Z"/><path class="cls-7" d="M62.79,7.33a2.91,2.91,0,0,0-.92-1.23,4.56,4.56,0,0,0-2.06-.8c-.19.06,1.51.49,1.89.87a4.1,4.1,0,0,1,.69,1.2Z"/><path class="cls-7" d="M60,7.64a6.6,6.6,0,0,0-1.38-1.09A5.58,5.58,0,0,0,57,6.13c-.2,0,1.27.33,1.69.62a9.06,9.06,0,0,1,1,1Z"/><path class="cls-7" d="M56.46,8.45s0-.24-.73-.5-1.06-.43-.92-.43a4,4,0,0,1,.91.24,5.66,5.66,0,0,1,1.08.61Z"/><path class="cls-3" d="M47.64,13.1c3,2.19,6.91,9.14,2.29,14.85S38.55,34,33.46,30.65A11.48,11.48,0,0,1,32,12.51C37.18,7.62,43.13,9.79,47.64,13.1Z"/><path class="cls-4" d="M35.15,12.28h0Z"/><path class="cls-4" d="M35.84,13c.35-.16.74-.52.41-.84s-.77,0-1.09.12C34.73,12.68,34.91,13.46,35.84,13Z"/><path class="cls-4" d="M35.16,12.28l.54-.21A.83.83,0,0,0,35.16,12.28Z"/><path class="cls-4" d="M34.21,13.81c.13-.1.31-.3.13-.44a.22.22,0,0,0-.33.07.44.44,0,0,0-.22.29C33.77,14,34.07,13.91,34.21,13.81Z"/><path class="cls-4" d="M36.49,13.63a.33.33,0,0,0-.32,0c-.16,0-.36.08-.39.21a.11.11,0,0,0,0,.08l-.05,0,.05,0c0,.15.38,0,.5,0S36.76,13.77,36.49,13.63Z"/><path class="cls-4" d="M35.73,14h0Z"/><path class="cls-4" d="M37.23,12.84c-.15.05-.32.22-.23.36s.43.09.56,0C38.06,12.94,37.41,12.73,37.23,12.84Z"/><path class="cls-4" d="M37.85,11.92c-.1,0-.29-.06-.37,0a.15.15,0,0,0,0,.18c0,.1.18.19.25.23s.92.32,1,.06S38,12,37.85,11.92Z"/><path class="cls-4" d="M37,11.4c.16.08.72.06.78-.16s-.31-.28-.45-.26a.58.58,0,0,0-.25.14C37,11.19,36.84,11.3,37,11.4Z"/><path class="cls-4" d="M34.31,12.73c.29-.22,0-.34-.22-.3h0c-.13,0-.46.14-.37.32S34.2,12.81,34.31,12.73Z"/><path class="cls-4" d="M33.09,14.11c.11-.13.44-.67.06-.69a.26.26,0,0,0-.2.1,1.06,1.06,0,0,0-.38.53C32.42,14.55,32.9,14.33,33.09,14.11Z"/><path class="cls-4" d="M35.14,14.26a.74.74,0,0,0-.5,0,1,1,0,0,0-.67.52c-.13.52.78.14,1,.08S35.56,14.42,35.14,14.26Z"/><path class="cls-4" d="M36.66,14.67c-.14.05-.3.17-.3.29s.53.18.67.11C37.59,14.81,36.86,14.56,36.66,14.67Z"/><path class="cls-4" d="M40.25,11.79a.23.23,0,0,0-.25.1.69.69,0,0,0,1,0A.57.57,0,0,0,40.25,11.79Z"/><path class="cls-4" d="M38.77,13.13c.32.11,1.17.16,1.23-.28a.75.75,0,0,0-.68-.08C39.06,12.76,38.78,12.85,38.77,13.13Z"/><path class="cls-4" d="M39.39,10.83a.46.46,0,0,0-.63-.06.28.28,0,0,0-.15.18A.6.6,0,0,0,39.39,10.83Z"/><path class="cls-4" d="M41.7,12.66c-.63,0,.18.81.53.55S42,12.49,41.7,12.66Z"/><path class="cls-4" d="M32.77,15.25c-.2-.15-.36,0-.47.18-.42.27-.93.91-.53,1.06S32.75,15.6,32.77,15.25Z"/><path class="cls-4" d="M31.61,14.43c-.54.1-.28,1,.23.38C32.16,14.43,31.83,14.31,31.61,14.43Z"/><path class="cls-4" d="M34.68,16.08a.27.27,0,0,0-.19.24c.2.15.74.16.87-.11S34.86,15.77,34.68,16.08Z"/><path class="cls-4" d="M39.48,14.6l0,0a.61.61,0,0,0,0,.11c0,.06,0,.1,0,.12.11.3.73.31.61-.07S39.62,14.46,39.48,14.6Z"/><path class="cls-4" d="M45,13.81c-.36-.5-1.11,0-.64.16C44.67,14.17,45.39,14.31,45,13.81Z"/><path class="cls-4" d="M32.09,18.6l.07-.13a.9.9,0,0,0-.4.63c.22.06.85-.36.83-.64C32.57,18,32.27,18.33,32.09,18.6Z"/><path class="cls-4" d="M37.76,17.18c.08.1.14.09.21.05.27,0,.75,0,.54-.31S37.83,17,37.76,17.18Z"/><path class="cls-4" d="M29.93,16.9a.54.54,0,0,0,0,.22c.32.11,1.14,0,.87-.51S30,16.53,29.93,16.9Z"/><path class="cls-4" d="M31,15.54h0a.26.26,0,0,0-.33.26.39.39,0,0,0,.55-.21A.34.34,0,0,0,31,15.54Z"/><path class="cls-5" d="M32.09,26.86c-1.17.86,4.81,5.2,8.69,5.05a11.44,11.44,0,0,0,9.4-6c1-2.15.67-8.23-.61-7.81-.46.15.1,2.22-1.78,5.35-1.66,2.74-4.48,5.45-8.22,5.26C34.46,28.46,32.87,26.29,32.09,26.86Z"/><path class="cls-6" d="M44.92,11.8a.55.55,0,0,0-.49.84c.32.8,2.27,2.1,2.83,1.88s.59-.87-.23-1.5A4.86,4.86,0,0,0,44.92,11.8Z"/><path class="cls-6" d="M45.93,12.87s2.26-2.34,2.9-3.22A39.9,39.9,0,0,0,51,5.43s.2-.3.48-.25.2.47.2.47-1.58,3.23-2.22,4.12c-1.3,1.8-3,3.77-3,3.77Z"/><path class="cls-6" d="M49.87,8.47c-.14,0-3.73-.48-3.73-.48L46,8.21l1.86.3,1.85.31Z"/><path class="cls-6" d="M42.1,12.67c-3.85,1-9.55-1.77-9.55-1.77s3.8-4.43,7.07-4.77S48.55,8.4,48.55,8.4A13.49,13.49,0,0,1,42.1,12.67Z"/><path class="cls-7" d="M45,12a.82.82,0,0,0-.09.79A4.16,4.16,0,0,0,46.26,14l.09-.71s-.3-.2-.33-.38a.41.41,0,0,1,0-.27Z"/><path class="cls-7" d="M47.29,8.5a30.51,30.51,0,0,0-6.46.06c-3,.43-7.52,1.87-7.46,2.07S38.31,9,40.73,8.83s6.73,0,6.73,0Z"/><path class="cls-7" d="M45.77,8.61a3.36,3.36,0,0,1-.63,1.18,8.47,8.47,0,0,0-1.08,1.68A9.93,9.93,0,0,0,45.31,9.9c.36-.52.82-1.26.82-1.26Z"/><path class="cls-7" d="M42.77,8.63a5.29,5.29,0,0,1-.66,1.92c-.66,1.36-.93,1.75-.76,1.78s.65-1,1-1.74.84-2,.84-2Z"/><path class="cls-7" d="M39.85,8.91a3.72,3.72,0,0,1-.22,1.42c-.3,1-.66,1.57-.53,1.64s.49-.86.69-1.59.5-1.62.5-1.62Z"/><path class="cls-7" d="M36.72,9.65a2.39,2.39,0,0,1-.16.84c-.18.52-.47,1-.39,1a1.84,1.84,0,0,0,.54-.92l.28-1Z"/><path class="cls-7" d="M46.12,8.53A4.19,4.19,0,0,0,45,7.44a3.44,3.44,0,0,0-1.45-.59c-.08.07.83.33,1.15.53a12.23,12.23,0,0,1,1.18,1.14Z"/><path class="cls-7" d="M43,8.44a2.91,2.91,0,0,0-.92-1.23,4.57,4.57,0,0,0-2-.8c-.2.07,1.5.49,1.88.87a4.1,4.1,0,0,1,.69,1.2Z"/><path class="cls-7" d="M40.29,8.76a6.69,6.69,0,0,0-1.39-1.1,6.29,6.29,0,0,0-1.66-.42c-.19,0,1.28.33,1.69.62a9.06,9.06,0,0,1,1,1Z"/><path class="cls-7" d="M36.72,9.56s0-.24-.74-.5-1.06-.43-.91-.43a5.09,5.09,0,0,1,.91.24,5.46,5.46,0,0,1,1.07.61Z"/><path class="cls-3" d="M81.29,23.67c3,2.19,6.91,9.14,2.29,14.85s-11.37,6-16.46,2.7a11.49,11.49,0,0,1-1.43-18.14C70.83,18.19,76.79,20.35,81.29,23.67Z"/><path class="cls-4" d="M68.8,22.85h0Z"/><path class="cls-4" d="M69.5,23.57c.34-.17.74-.53.41-.84s-.78,0-1.1.12C68.38,23.25,68.56,24,69.5,23.57Z"/><path class="cls-4" d="M68.82,22.85l.53-.21A.8.8,0,0,0,68.82,22.85Z"/><path class="cls-4" d="M67.86,24.38c.13-.1.31-.3.14-.44a.23.23,0,0,0-.34.07.43.43,0,0,0-.21.29C67.42,24.59,67.73,24.48,67.86,24.38Z"/><path class="cls-4" d="M70.15,24.2a.3.3,0,0,0-.33,0c-.16,0-.35.08-.39.21s0,.06,0,.08l-.05,0,.05,0c0,.15.38,0,.51,0S70.42,24.34,70.15,24.2Z"/><path class="cls-4" d="M69.38,24.53h0Z"/><path class="cls-4" d="M70.88,23.41c-.15.05-.32.22-.23.36s.44.09.56,0C71.72,23.51,71.07,23.3,70.88,23.41Z"/><path class="cls-4" d="M71.51,22.49c-.1,0-.29-.06-.37,0a.15.15,0,0,0,0,.18c0,.1.18.19.25.23s.92.32,1,.06S71.7,22.52,71.51,22.49Z"/><path class="cls-4" d="M70.68,22c.15.08.71.06.77-.16s-.3-.28-.45-.26a.55.55,0,0,0-.24.14C70.61,21.76,70.5,21.87,70.68,22Z"/><path class="cls-4" d="M68,23.29c.29-.21,0-.33-.22-.29h0c-.14,0-.46.14-.38.32S67.85,23.38,68,23.29Z"/><path class="cls-4" d="M66.74,24.68c.11-.13.44-.67.06-.69a.23.23,0,0,0-.2.1,1.12,1.12,0,0,0-.38.53C66.07,25.12,66.55,24.89,66.74,24.68Z"/><path class="cls-4" d="M68.79,24.83a.74.74,0,0,0-.5,0c-.28.08-.62.31-.67.52-.12.51.79.14,1,.08S69.22,25,68.79,24.83Z"/><path class="cls-4" d="M70.32,25.24c-.15.05-.3.17-.3.29s.52.18.67.11C71.25,25.38,70.52,25.12,70.32,25.24Z"/><path class="cls-4" d="M73.9,22.36a.24.24,0,0,0-.25.1.7.7,0,0,0,1,0A.59.59,0,0,0,73.9,22.36Z"/><path class="cls-4" d="M72.43,23.7c.31.11,1.16.16,1.23-.28a.75.75,0,0,0-.68-.08C72.71,23.33,72.43,23.42,72.43,23.7Z"/><path class="cls-4" d="M73,21.4a.45.45,0,0,0-.62-.07.32.32,0,0,0-.15.19A.61.61,0,0,0,73,21.4Z"/><path class="cls-4" d="M75.35,23.23c-.63,0,.18.8.53.55S75.6,23.06,75.35,23.23Z"/><path class="cls-4" d="M66.42,25.82c-.2-.16-.36,0-.47.18-.42.27-.92.9-.52,1.06S66.41,26.17,66.42,25.82Z"/><path class="cls-4" d="M65.27,25c-.54.11-.29,1,.23.39C65.82,25,65.49,24.88,65.27,25Z"/><path class="cls-4" d="M68.34,26.65a.27.27,0,0,0-.2.24c.2.15.74.16.87-.11S68.52,26.33,68.34,26.65Z"/><path class="cls-4" d="M73.13,25.17l0-.05a.52.52,0,0,0,0,.11c0,.06,0,.1,0,.12.12.29.74.3.62-.07S73.28,25,73.13,25.17Z"/><path class="cls-4" d="M78.69,24.38c-.37-.5-1.12,0-.65.16C78.32,24.74,79.05,24.88,78.69,24.38Z"/><path class="cls-4" d="M65.74,29.17l.08-.13a.87.87,0,0,0-.4.63c.21.06.85-.36.83-.65S65.93,28.9,65.74,29.17Z"/><path class="cls-4" d="M71.42,27.75c.08.09.14.09.21.05.26,0,.74,0,.54-.31S71.49,27.53,71.42,27.75Z"/><path class="cls-4" d="M63.58,27.47a.41.41,0,0,0,0,.22c.32.11,1.13,0,.86-.51S63.67,27.1,63.58,27.47Z"/><path class="cls-4" d="M64.69,26.11h0a.27.27,0,0,0-.33.27.4.4,0,0,0,.56-.22A.43.43,0,0,0,64.69,26.11Z"/><path class="cls-5" d="M65.75,37.43c-1.18.86,4.8,5.2,8.69,5a11.44,11.44,0,0,0,9.4-6c1-2.15.67-8.23-.62-7.81-.46.15.11,2.22-1.78,5.35-1.65,2.74-4.47,5.45-8.21,5.26C68.11,39,66.52,36.86,65.75,37.43Z"/><path class="cls-6" d="M78.57,22.37a.55.55,0,0,0-.49.84c.32.8,2.27,2.1,2.83,1.88s.59-.87-.23-1.5A4.86,4.86,0,0,0,78.57,22.37Z"/><path class="cls-6" d="M79.58,23.44s2.26-2.34,2.91-3.22A42,42,0,0,0,84.63,16s.2-.3.47-.25.2.47.2.47-1.57,3.23-2.21,4.12c-1.3,1.8-3,3.77-3,3.77Z"/><path class="cls-6" d="M83.53,19l-3.74-.47-.13.22,1.85.3,1.85.31Z"/><path class="cls-6" d="M75.75,23.24c-3.85,1-9.55-1.77-9.55-1.77S70,17,73.27,16.7,82.2,19,82.2,19A13.42,13.42,0,0,1,75.75,23.24Z"/><path class="cls-7" d="M78.6,22.61a.82.82,0,0,0-.09.79,4.17,4.17,0,0,0,1.41,1.12l.09-.71s-.3-.2-.33-.38a.39.39,0,0,1,0-.27Z"/><path class="cls-7" d="M80.94,19.07a30.48,30.48,0,0,0-6.46.06C71.49,19.56,67,21,67,21.2s4.94-1.64,7.36-1.8,6.74,0,6.74,0Z"/><path class="cls-7" d="M79.42,19.18a3.34,3.34,0,0,1-.62,1.17A8.47,8.47,0,0,0,77.71,22,10.43,10.43,0,0,0,79,20.47c.35-.53.81-1.27.81-1.27Z"/><path class="cls-7" d="M76.43,19.2a5.29,5.29,0,0,1-.66,1.92c-.67,1.36-.93,1.75-.77,1.78s.66-1,1-1.74.85-2,.85-2Z"/><path class="cls-7" d="M73.51,19.48a3.65,3.65,0,0,1-.23,1.42c-.3,1-.66,1.57-.52,1.64s.48-.87.68-1.59.5-1.63.5-1.63Z"/><path class="cls-7" d="M70.37,20.22a2.13,2.13,0,0,1-.16.84c-.18.51-.47,1-.38,1a1.93,1.93,0,0,0,.53-.92l.28-1Z"/><path class="cls-7" d="M79.78,19.1A4.38,4.38,0,0,0,78.65,18a3.46,3.46,0,0,0-1.46-.59c-.08.07.83.32,1.15.53a12.62,12.62,0,0,1,1.19,1.14Z"/><path class="cls-7" d="M76.7,19a2.91,2.91,0,0,0-.92-1.23,4.6,4.6,0,0,0-2.06-.8c-.19.06,1.5.49,1.88.87a4.1,4.1,0,0,1,.69,1.2Z"/><path class="cls-7" d="M73.94,19.32a6.6,6.6,0,0,0-1.38-1.09,6.39,6.39,0,0,0-1.66-.42c-.2,0,1.27.33,1.68.62a9.48,9.48,0,0,1,1,1Z"/><path class="cls-7" d="M70.37,20.13s-.05-.24-.73-.5-1.07-.43-.92-.43a4.88,4.88,0,0,1,.91.24,5.46,5.46,0,0,1,1.07.61Z"/><path class="cls-3" d="M60.72,20.43c3,2.19,6.92,9.14,2.29,14.85s-11.37,6-16.46,2.7a11.49,11.49,0,0,1-1.43-18.14C50.27,15,56.22,17.11,60.72,20.43Z"/><path class="cls-4" d="M48.23,19.61h0Z"/><path class="cls-4" d="M48.93,20.33c.35-.17.74-.53.41-.84s-.78,0-1.09.12C47.81,20,48,20.79,48.93,20.33Z"/><path class="cls-4" d="M48.25,19.61l.53-.21A.82.82,0,0,0,48.25,19.61Z"/><path class="cls-4" d="M47.3,21.14c.13-.1.31-.3.13-.44a.22.22,0,0,0-.33.07.44.44,0,0,0-.22.29C46.85,21.35,47.16,21.24,47.3,21.14Z"/><path class="cls-4" d="M49.58,21a.3.3,0,0,0-.33,0c-.15,0-.35.08-.38.21a.25.25,0,0,0,0,.08l0,0,0,0c0,.15.39,0,.51,0S49.85,21.1,49.58,21Z"/><path class="cls-4" d="M48.82,21.29h0Z"/><path class="cls-4" d="M50.32,20.17c-.15,0-.32.22-.24.36s.44.09.57,0C51.15,20.27,50.5,20.06,50.32,20.17Z"/><path class="cls-4" d="M50.94,19.25c-.1,0-.29-.06-.37,0a.12.12,0,0,0,0,.17c0,.11.18.2.25.24s.91.32,1,.06S51.13,19.28,50.94,19.25Z"/><path class="cls-4" d="M50.11,18.73c.16.08.72.06.77-.16s-.3-.28-.45-.26a.61.61,0,0,0-.24.14C50,18.52,49.93,18.63,50.11,18.73Z"/><path class="cls-4" d="M47.4,20.05c.29-.21,0-.33-.23-.29h0c-.13,0-.46.14-.37.32S47.28,20.14,47.4,20.05Z"/><path class="cls-4" d="M46.18,21.44c.1-.13.44-.67,0-.69a.23.23,0,0,0-.19.1,1.15,1.15,0,0,0-.39.53C45.51,21.88,46,21.65,46.18,21.44Z"/><path class="cls-4" d="M48.23,21.59a.76.76,0,0,0-.51,0,1,1,0,0,0-.66.52c-.13.51.78.14,1,.08S48.65,21.75,48.23,21.59Z"/><path class="cls-4" d="M49.75,22c-.14.05-.3.17-.3.29s.52.18.67.11C50.68,22.14,50,21.88,49.75,22Z"/><path class="cls-4" d="M53.34,19.12a.23.23,0,0,0-.25.1.69.69,0,0,0,1,0A.57.57,0,0,0,53.34,19.12Z"/><path class="cls-4" d="M51.86,20.46c.31.11,1.16.16,1.23-.28a.75.75,0,0,0-.68-.08C52.14,20.09,51.86,20.18,51.86,20.46Z"/><path class="cls-4" d="M52.47,18.16a.44.44,0,0,0-.62-.07.32.32,0,0,0-.15.19A.61.61,0,0,0,52.47,18.16Z"/><path class="cls-4" d="M54.78,20c-.62,0,.19.8.53.55S55,19.82,54.78,20Z"/><path class="cls-4" d="M45.85,22.58c-.19-.16-.36,0-.47.18-.42.27-.92.9-.52,1.06S45.84,22.93,45.85,22.58Z"/><path class="cls-4" d="M44.7,21.75c-.54.11-.28,1,.23.39C45.25,21.76,44.92,21.64,44.7,21.75Z"/><path class="cls-4" d="M47.77,23.41a.28.28,0,0,0-.2.24c.21.15.74.16.88-.11S48,23.09,47.77,23.41Z"/><path class="cls-4" d="M52.57,21.93l0-.05a.26.26,0,0,0,0,.11c0,.06,0,.1,0,.12.11.29.73.3.61-.07S52.71,21.78,52.57,21.93Z"/><path class="cls-4" d="M58.12,21.14c-.36-.5-1.12,0-.64.16C57.76,21.5,58.48,21.64,58.12,21.14Z"/><path class="cls-4" d="M45.17,25.93l.08-.13a.9.9,0,0,0-.4.63c.21.06.85-.36.83-.65S45.36,25.66,45.17,25.93Z"/><path class="cls-4" d="M50.85,24.51c.08.09.14.09.21,0,.26,0,.74,0,.54-.31S50.92,24.29,50.85,24.51Z"/><path class="cls-4" d="M43,24.23a.53.53,0,0,0,0,.22c.32.11,1.14,0,.87-.51S43.11,23.86,43,24.23Z"/><path class="cls-4" d="M44.13,22.87h0c-.19,0-.31.07-.32.27a.39.39,0,0,0,.55-.22A.41.41,0,0,0,44.13,22.87Z"/><path class="cls-5" d="M45.18,34.19c-1.17.86,4.8,5.2,8.69,5a11.44,11.44,0,0,0,9.4-6c1-2.15.67-8.23-.62-7.81-.45.15.11,2.22-1.78,5.35-1.65,2.74-4.47,5.45-8.21,5.26C47.55,35.79,46,33.62,45.18,34.19Z"/><path class="cls-6" d="M58,19.13a.55.55,0,0,0-.48.84c.32.8,2.27,2.1,2.83,1.88s.58-.87-.23-1.5A4.83,4.83,0,0,0,58,19.13Z"/><path class="cls-6" d="M59,20.2s2.26-2.34,2.9-3.22a39.9,39.9,0,0,0,2.14-4.22s.2-.3.48-.25.2.47.2.47-1.58,3.23-2.22,4.12c-1.3,1.8-3,3.77-3,3.77Z"/><path class="cls-6" d="M63,15.79l-3.73-.47-.14.22,1.86.3,1.85.31Z"/><path class="cls-6" d="M55.19,20c-3.86,1-9.55-1.77-9.55-1.77s3.8-4.43,7.06-4.77,8.93,2.27,8.93,2.27A13.43,13.43,0,0,1,55.19,20Z"/><path class="cls-7" d="M58,19.37a.8.8,0,0,0-.08.79,4.16,4.16,0,0,0,1.4,1.12l.09-.71s-.3-.2-.33-.38a.39.39,0,0,1,0-.27Z"/><path class="cls-7" d="M60.37,15.83a30.48,30.48,0,0,0-6.46.06c-3,.43-7.51,1.86-7.46,2.07s4.95-1.64,7.37-1.8,6.73,0,6.73,0Z"/><path class="cls-7" d="M58.86,15.94a3.28,3.28,0,0,1-.63,1.17,8.7,8.7,0,0,0-1.08,1.69,10.55,10.55,0,0,0,1.25-1.57c.35-.53.81-1.27.81-1.27Z"/><path class="cls-7" d="M55.86,16a5.29,5.29,0,0,1-.66,1.92c-.66,1.36-.93,1.75-.77,1.78s.66-1,1-1.74.85-2,.85-2Z"/><path class="cls-7" d="M52.94,16.24a3.65,3.65,0,0,1-.23,1.42c-.29,1-.66,1.57-.52,1.64s.48-.87.68-1.59.5-1.63.5-1.63Z"/><path class="cls-7" d="M49.81,17a2.39,2.39,0,0,1-.16.84c-.19.51-.47,1-.39,1a1.84,1.84,0,0,0,.54-.92c.13-.46.27-1,.27-1Z"/><path class="cls-7" d="M59.21,15.86a4.38,4.38,0,0,0-1.13-1.09,3.41,3.41,0,0,0-1.46-.59c-.07.07.83.32,1.15.53A12.62,12.62,0,0,1,59,15.85Z"/><path class="cls-7" d="M56.13,15.77a2.91,2.91,0,0,0-.92-1.23,4.56,4.56,0,0,0-2.06-.8c-.19.06,1.51.49,1.89.87a4.1,4.1,0,0,1,.69,1.2Z"/><path class="cls-7" d="M53.37,16.08A6.6,6.6,0,0,0,52,15a6.29,6.29,0,0,0-1.66-.42c-.2,0,1.27.33,1.69.62a9.06,9.06,0,0,1,1,1Z"/><path class="cls-7" d="M49.8,16.89s0-.24-.73-.5S48,16,48.15,16a4.69,4.69,0,0,1,.91.24,5.66,5.66,0,0,1,1.08.61Z"/><path class="cls-3" d="M70.44,30.62c3,2.2,6.91,9.14,2.29,14.85s-11.37,6.06-16.46,2.7A11.48,11.48,0,0,1,54.84,30C60,25.14,65.94,27.31,70.44,30.62Z"/><path class="cls-4" d="M58,29.81h0Z"/><path class="cls-4" d="M58.65,30.53c.35-.17.74-.53.41-.85s-.78,0-1.09.12C57.53,30.2,57.71,31,58.65,30.53Z"/><path class="cls-4" d="M58,29.8l.53-.21A.82.82,0,0,0,58,29.8Z"/><path class="cls-4" d="M57,31.33c.13-.1.31-.3.13-.44a.22.22,0,0,0-.33.07.44.44,0,0,0-.22.29C56.57,31.54,56.88,31.43,57,31.33Z"/><path class="cls-4" d="M59.3,31.15a.35.35,0,0,0-.33,0c-.15,0-.35.08-.38.21a.28.28,0,0,0,0,.08l0,0,0,0c.05.14.39,0,.51,0S59.57,31.3,59.3,31.15Z"/><path class="cls-4" d="M58.54,31.48l0,0Z"/><path class="cls-4" d="M60,30.37c-.16,0-.32.21-.24.36s.44.09.57,0C60.87,30.47,60.22,30.25,60,30.37Z"/><path class="cls-4" d="M60.66,29.44c-.1,0-.29-.06-.37,0a.14.14,0,0,0,0,.18c0,.1.18.2.25.23s.91.33,1,.07S60.85,29.47,60.66,29.44Z"/><path class="cls-4" d="M59.83,28.92c.16.09.72.07.77-.16s-.3-.28-.45-.26a.77.77,0,0,0-.24.14C59.76,28.71,59.65,28.83,59.83,28.92Z"/><path class="cls-4" d="M57.12,30.25c.29-.22,0-.34-.23-.3h0c-.13,0-.46.14-.37.33S57,30.33,57.12,30.25Z"/><path class="cls-4" d="M55.9,31.63c.1-.12.44-.67.05-.69a.3.3,0,0,0-.19.1,1.15,1.15,0,0,0-.39.53C55.22,32.08,55.71,31.85,55.9,31.63Z"/><path class="cls-4" d="M58,31.78a.83.83,0,0,0-.51,0,1,1,0,0,0-.66.52c-.13.52.78.15,1,.08S58.37,31.94,58,31.78Z"/><path class="cls-4" d="M59.47,32.19c-.14.05-.3.17-.3.29s.52.18.67.11C60.4,32.33,59.67,32.08,59.47,32.19Z"/><path class="cls-4" d="M63.06,29.31a.25.25,0,0,0-.25.1.69.69,0,0,0,1,0A.57.57,0,0,0,63.06,29.31Z"/><path class="cls-4" d="M61.58,30.65c.31.11,1.16.17,1.23-.27a.73.73,0,0,0-.68-.09C61.86,30.28,61.58,30.37,61.58,30.65Z"/><path class="cls-4" d="M62.19,28.35a.44.44,0,0,0-.62-.06.28.28,0,0,0-.15.18A.59.59,0,0,0,62.19,28.35Z"/><path class="cls-4" d="M64.5,30.18c-.62,0,.18.81.53.55S64.75,30,64.5,30.18Z"/><path class="cls-4" d="M55.57,32.77c-.19-.15-.36,0-.47.18-.42.27-.92.91-.52,1.06S55.56,33.12,55.57,32.77Z"/><path class="cls-4" d="M54.42,32c-.54.1-.29,1,.23.39C55,32,54.64,31.83,54.42,32Z"/><path class="cls-4" d="M57.49,33.6a.3.3,0,0,0-.2.25c.21.14.74.15.88-.11S57.67,33.29,57.49,33.6Z"/><path class="cls-4" d="M62.28,32.12l0,0a.23.23,0,0,0,0,.11c0,.05,0,.1,0,.11.11.3.73.31.61-.06S62.43,32,62.28,32.12Z"/><path class="cls-4" d="M67.84,31.34c-.36-.51-1.12,0-.64.15C67.48,31.7,68.2,31.83,67.84,31.34Z"/><path class="cls-4" d="M54.89,36.12,55,36a.9.9,0,0,0-.4.64c.21,0,.85-.37.83-.65S55.08,35.85,54.89,36.12Z"/><path class="cls-4" d="M60.57,34.71a.16.16,0,0,0,.21,0c.26,0,.74,0,.54-.32S60.64,34.49,60.57,34.71Z"/><path class="cls-4" d="M52.73,34.43a.4.4,0,0,0,0,.22c.32.11,1.13,0,.87-.51S52.83,34.05,52.73,34.43Z"/><path class="cls-4" d="M53.85,33.07h0a.27.27,0,0,0-.33.26.4.4,0,0,0,.56-.21A.34.34,0,0,0,53.85,33.07Z"/><path class="cls-5" d="M54.9,44.38c-1.17.86,4.8,5.2,8.69,5a11.45,11.45,0,0,0,9.4-6c1-2.14.67-8.23-.62-7.81-.45.16.11,2.22-1.78,5.35-1.65,2.74-4.47,5.45-8.21,5.27C57.27,46,55.68,43.82,54.9,44.38Z"/><path class="cls-6" d="M67.72,29.33a.54.54,0,0,0-.48.83c.32.8,2.27,2.1,2.83,1.88s.58-.87-.24-1.49A4.57,4.57,0,0,0,67.72,29.33Z"/><path class="cls-6" d="M68.74,30.4s2.26-2.34,2.9-3.22A39.83,39.83,0,0,0,73.78,23s.2-.3.48-.24.2.46.2.46-1.58,3.23-2.22,4.12c-1.3,1.81-3,3.77-3,3.77Z"/><path class="cls-6" d="M72.68,26c-.14,0-3.73-.47-3.73-.47l-.14.21,1.85.3,1.86.31Z"/><path class="cls-6" d="M64.91,30.19c-3.86,1-9.55-1.77-9.55-1.77s3.8-4.43,7.06-4.76,8.93,2.27,8.93,2.27A13.44,13.44,0,0,1,64.91,30.19Z"/><path class="cls-7" d="M67.75,29.56a.8.8,0,0,0-.08.79,4.16,4.16,0,0,0,1.4,1.12l.09-.71s-.3-.2-.33-.38a.41.41,0,0,1,0-.27Z"/><path class="cls-7" d="M70.09,26a30.48,30.48,0,0,0-6.46.06c-3,.44-7.51,1.87-7.46,2.07s4.95-1.64,7.37-1.8,6.73,0,6.73,0Z"/><path class="cls-7" d="M68.58,26.13A3.61,3.61,0,0,1,68,27.31,8,8,0,0,0,66.87,29a10.55,10.55,0,0,0,1.25-1.57c.35-.52.81-1.26.81-1.26Z"/><path class="cls-7" d="M65.58,26.16a5.29,5.29,0,0,1-.66,1.91c-.66,1.36-.93,1.75-.77,1.78s.66-1,1-1.74.85-2,.85-2Z"/><path class="cls-7" d="M62.66,26.43a3.63,3.63,0,0,1-.23,1.42c-.29,1-.66,1.57-.52,1.64s.48-.86.68-1.59.5-1.62.5-1.62Z"/><path class="cls-7" d="M59.53,27.17a2.39,2.39,0,0,1-.16.84c-.19.52-.48,1-.39,1a1.74,1.74,0,0,0,.54-.92c.13-.46.27-1,.27-1Z"/><path class="cls-7" d="M68.93,26.05A4.25,4.25,0,0,0,67.8,25a3.48,3.48,0,0,0-1.46-.6c-.07.07.83.33,1.15.54a12.62,12.62,0,0,1,1.19,1.14Z"/><path class="cls-7" d="M65.85,26a2.91,2.91,0,0,0-.92-1.23,4.68,4.68,0,0,0-2.06-.8c-.19.07,1.5.5,1.89.87a4.23,4.23,0,0,1,.69,1.2Z"/><path class="cls-7" d="M63.09,26.28a6.6,6.6,0,0,0-1.38-1.09,5.66,5.66,0,0,0-1.66-.42c-.2,0,1.27.32,1.69.61a8.84,8.84,0,0,1,1,1Z"/><path class="cls-7" d="M59.52,27.08s-.05-.24-.73-.5-1.06-.42-.92-.42a3.82,3.82,0,0,1,.91.23,6.29,6.29,0,0,1,1.08.61Z"/><path class="cls-3" d="M19.6,20.47c-3,2.2-6.91,9.14-2.29,14.86S28.68,41.38,33.77,38A11.48,11.48,0,0,0,35.2,19.89C30.05,15,24.1,17.16,19.6,20.47Z"/><path class="cls-4" d="M32.09,19.66h0Z"/><path class="cls-4" d="M31.39,20.38c-.35-.17-.74-.53-.41-.85s.78,0,1.09.13C32.51,20.05,32.33,20.83,31.39,20.38Z"/><path class="cls-4" d="M32.07,19.65l-.53-.21A.88.88,0,0,1,32.07,19.65Z"/><path class="cls-4" d="M33,21.18c-.14-.09-.32-.29-.14-.43s.25,0,.33.07a.43.43,0,0,1,.22.28C33.47,21.4,33.16,21.28,33,21.18Z"/><path class="cls-4" d="M30.74,21a.35.35,0,0,1,.33,0c.15,0,.35.09.38.21a.31.31,0,0,1,0,.09l0,0,0,0c0,.14-.39,0-.51,0S30.47,21.15,30.74,21Z"/><path class="cls-4" d="M31.5,21.34h0Z"/><path class="cls-4" d="M30,20.22c.15,0,.32.21.23.36s-.44.09-.57,0C29.17,20.32,29.82,20.11,30,20.22Z"/><path class="cls-4" d="M29.38,19.3c.1,0,.29-.07.37,0a.14.14,0,0,1,0,.18c0,.11-.18.2-.25.24s-.91.32-1,.06S29.19,19.32,29.38,19.3Z"/><path class="cls-4" d="M30.21,18.78c-.16.08-.72.06-.77-.17s.3-.27.45-.25a.57.57,0,0,1,.24.13C30.28,18.57,30.39,18.68,30.21,18.78Z"/><path class="cls-4" d="M32.93,20.1c-.29-.21,0-.34.22-.29h0c.13,0,.46.15.37.33S33,20.18,32.93,20.1Z"/><path class="cls-4" d="M34.14,21.48c-.1-.12-.44-.67,0-.69a.28.28,0,0,1,.19.1,1.06,1.06,0,0,1,.39.54C34.82,21.93,34.33,21.7,34.14,21.48Z"/><path class="cls-4" d="M32.1,21.64a.68.68,0,0,1,.5,0,1,1,0,0,1,.66.51c.13.52-.78.15-1,.08S31.67,21.79,32.1,21.64Z"/><path class="cls-4" d="M30.57,22c.15.05.3.17.3.29s-.52.18-.67.11C29.64,22.18,30.37,21.93,30.57,22Z"/><path class="cls-4" d="M27,19.16a.27.27,0,0,1,.25.1.69.69,0,0,1-1,0A.58.58,0,0,1,27,19.16Z"/><path class="cls-4" d="M28.46,20.5c-.31.11-1.16.17-1.23-.27a.72.72,0,0,1,.68-.08C28.18,20.13,28.46,20.22,28.46,20.5Z"/><path class="cls-4" d="M27.85,18.2a.44.44,0,0,1,.62-.06.3.3,0,0,1,.15.18A.59.59,0,0,1,27.85,18.2Z"/><path class="cls-4" d="M25.54,20c.62,0-.18.81-.53.56S25.29,19.87,25.54,20Z"/><path class="cls-4" d="M34.47,22.62c.19-.15.36,0,.47.18.42.27.92.91.52,1.06S34.48,23,34.47,22.62Z"/><path class="cls-4" d="M35.62,21.8c.54.11.29,1-.23.39C35.07,21.81,35.4,21.69,35.62,21.8Z"/><path class="cls-4" d="M32.55,23.45a.3.3,0,0,1,.2.25c-.2.14-.74.16-.88-.11S32.37,23.14,32.55,23.45Z"/><path class="cls-4" d="M27.76,22l0,0a.52.52,0,0,1,0,.11c0,.05,0,.1,0,.12-.11.29-.73.3-.61-.07S27.61,21.83,27.76,22Z"/><path class="cls-4" d="M22.2,21.19c.36-.5,1.12,0,.64.16C22.57,21.55,21.84,21.68,22.2,21.19Z"/><path class="cls-4" d="M35.15,26l-.08-.14a.92.92,0,0,1,.4.64c-.21.06-.85-.37-.83-.65S35,25.71,35.15,26Z"/><path class="cls-4" d="M29.47,24.56a.16.16,0,0,1-.21.05c-.26,0-.74,0-.54-.32S29.4,24.34,29.47,24.56Z"/><path class="cls-4" d="M37.31,24.28a.4.4,0,0,1,0,.22c-.32.11-1.13,0-.87-.51S37.22,23.9,37.31,24.28Z"/><path class="cls-4" d="M36.19,22.92h0a.27.27,0,0,1,.33.27A.41.41,0,0,1,36,23,.34.34,0,0,1,36.19,22.92Z"/><path class="cls-5" d="M35.14,34.24c1.17.86-4.8,5.19-8.69,5a11.43,11.43,0,0,1-9.4-6c-1-2.14-.67-8.23.62-7.8.46.15-.11,2.21,1.78,5.34,1.65,2.75,4.47,5.45,8.21,5.27C32.78,35.84,34.36,33.67,35.14,34.24Z"/><path class="cls-6" d="M22.32,19.18a.55.55,0,0,1,.49.83c-.33.8-2.28,2.1-2.84,1.88s-.58-.87.24-1.49A4.57,4.57,0,0,1,22.32,19.18Z"/><path class="cls-6" d="M21.3,20.25S19.05,17.91,18.4,17a41.89,41.89,0,0,1-2.14-4.23.55.55,0,0,0-.48-.24c-.27,0-.19.47-.19.47s1.57,3.22,2.21,4.11c1.3,1.81,3,3.78,3,3.78Z"/><path class="cls-6" d="M17.36,15.84c.14,0,3.73-.47,3.73-.47l.14.21-1.85.31-1.86.3Z"/><path class="cls-6" d="M25.13,20.05c3.86,1,9.55-1.77,9.55-1.77s-3.8-4.44-7.06-4.77-8.93,2.27-8.93,2.27A13.5,13.5,0,0,0,25.13,20.05Z"/><path class="cls-7" d="M22.29,19.42a.8.8,0,0,1,.08.79A4.09,4.09,0,0,1,21,21.32l-.09-.7s.3-.21.33-.38a.39.39,0,0,0,0-.27Z"/><path class="cls-7" d="M20,15.87a30.09,30.09,0,0,1,6.46.07c3,.43,7.52,1.86,7.46,2.06s-4.95-1.64-7.36-1.8-6.74,0-6.74,0Z"/><path class="cls-7" d="M21.46,16a3.61,3.61,0,0,0,.63,1.18,8.56,8.56,0,0,1,1.09,1.68,10.76,10.76,0,0,1-1.26-1.56c-.35-.53-.81-1.27-.81-1.27Z"/><path class="cls-7" d="M24.46,16a5.29,5.29,0,0,0,.66,1.91c.66,1.36.93,1.76.77,1.79s-.66-1-1-1.75-.85-2-.85-2Z"/><path class="cls-7" d="M27.38,16.28a3.63,3.63,0,0,0,.23,1.42c.29,1,.66,1.58.52,1.64s-.48-.86-.68-1.59-.5-1.62-.5-1.62Z"/><path class="cls-7" d="M30.51,17a2.36,2.36,0,0,0,.16.84c.19.52.48,1,.39,1a1.82,1.82,0,0,1-.54-.91c-.13-.47-.27-1-.27-1Z"/><path class="cls-7" d="M21.11,15.9a4.43,4.43,0,0,1,1.13-1.08,3.53,3.53,0,0,1,1.46-.6c.07.07-.83.33-1.15.54a12.62,12.62,0,0,0-1.19,1.14Z"/><path class="cls-7" d="M24.19,15.81a2.91,2.91,0,0,1,.92-1.22,4.44,4.44,0,0,1,2.06-.8c.19.06-1.5.49-1.88.86a4.36,4.36,0,0,0-.7,1.21Z"/><path class="cls-7" d="M27,16.13A6.6,6.6,0,0,1,28.33,15,5.66,5.66,0,0,1,30,14.62c.2,0-1.27.33-1.68.62a8.6,8.6,0,0,0-1,1Z"/><path class="cls-7" d="M30.52,16.94s.05-.25.73-.5,1.06-.43.92-.43a4.16,4.16,0,0,0-.91.24,5.82,5.82,0,0,0-1.08.6Z"/><path class="cls-3" d="M13.84,33.3c-3,2.2-6.91,9.14-2.29,14.86S22.92,54.21,28,50.85a11.48,11.48,0,0,0,1.43-18.13C24.29,27.82,18.34,30,13.84,33.3Z"/><path class="cls-4" d="M26.33,32.49h0Z"/><path class="cls-4" d="M25.63,33.21c-.35-.17-.74-.53-.41-.85s.78,0,1.09.13C26.75,32.88,26.57,33.66,25.63,33.21Z"/><path class="cls-4" d="M26.31,32.48l-.53-.2A.87.87,0,0,1,26.31,32.48Z"/><path class="cls-4" d="M27.27,34c-.14-.09-.31-.29-.14-.43a.22.22,0,0,1,.33.07.44.44,0,0,1,.22.29C27.71,34.23,27.4,34.11,27.27,34Z"/><path class="cls-4" d="M25,33.83a.33.33,0,0,1,.33,0c.16,0,.35.08.38.21a.25.25,0,0,1,0,.08l0,0,0,0c0,.14-.39,0-.51,0S24.71,34,25,33.83Z"/><path class="cls-4" d="M25.74,34.17h0Z"/><path class="cls-4" d="M24.25,33.05c.15,0,.32.21.23.36s-.44.09-.56,0C23.41,33.15,24.06,32.94,24.25,33.05Z"/><path class="cls-4" d="M23.62,32.13c.1,0,.29-.07.37,0a.15.15,0,0,1,0,.18c0,.11-.18.2-.26.24s-.91.32-1,.06S23.43,32.15,23.62,32.13Z"/><path class="cls-4" d="M24.45,31.61c-.16.08-.71.06-.77-.17s.3-.27.45-.25a.47.47,0,0,1,.24.14C24.52,31.4,24.63,31.51,24.45,31.61Z"/><path class="cls-4" d="M27.17,32.93c-.29-.21,0-.34.22-.29h0c.13,0,.46.15.37.33S27.28,33,27.17,32.93Z"/><path class="cls-4" d="M28.39,34.31c-.11-.12-.44-.67-.06-.69a.28.28,0,0,1,.19.1,1.1,1.1,0,0,1,.39.54C29.06,34.76,28.58,34.53,28.39,34.31Z"/><path class="cls-4" d="M26.34,34.47a.74.74,0,0,1,.5,0,1,1,0,0,1,.67.51c.12.52-.79.15-1,.08S25.91,34.63,26.34,34.47Z"/><path class="cls-4" d="M24.81,34.87c.15.05.3.17.3.29s-.52.18-.67.11C23.88,35,24.61,34.76,24.81,34.87Z"/><path class="cls-4" d="M21.23,32a.29.29,0,0,1,.25.1.69.69,0,0,1-1.05,0A.59.59,0,0,1,21.23,32Z"/><path class="cls-4" d="M22.7,33.33c-.31.11-1.16.17-1.23-.27a.75.75,0,0,1,.68-.08C22.42,33,22.7,33.06,22.7,33.33Z"/><path class="cls-4" d="M22.09,31a.44.44,0,0,1,.62-.07.34.34,0,0,1,.15.18A.59.59,0,0,1,22.09,31Z"/><path class="cls-4" d="M19.78,32.86c.62,0-.18.81-.53.56S19.53,32.7,19.78,32.86Z"/><path class="cls-4" d="M28.71,35.46c.19-.16.36,0,.47.18.42.26.92.9.52,1.06S28.72,35.8,28.71,35.46Z"/><path class="cls-4" d="M29.86,34.63c.54.11.29,1-.23.39C29.31,34.64,29.64,34.52,29.86,34.63Z"/><path class="cls-4" d="M26.79,36.28a.3.3,0,0,1,.2.25c-.2.15-.74.16-.88-.11S26.61,36,26.79,36.28Z"/><path class="cls-4" d="M22,34.8l0,0a.52.52,0,0,1,0,.11c0,.05,0,.1,0,.12-.11.29-.73.3-.61-.07S21.85,34.66,22,34.8Z"/><path class="cls-4" d="M16.44,34c.36-.5,1.12,0,.65.16C16.81,34.38,16.08,34.51,16.44,34Z"/><path class="cls-4" d="M29.39,38.81l-.08-.13a.88.88,0,0,1,.4.63c-.21.06-.85-.37-.83-.65S29.2,38.54,29.39,38.81Z"/><path class="cls-4" d="M23.71,37.39a.16.16,0,0,1-.21,0c-.26,0-.74,0-.54-.32S23.64,37.17,23.71,37.39Z"/><path class="cls-4" d="M31.55,37.11a.4.4,0,0,1,0,.22c-.32.11-1.13,0-.86-.51S31.46,36.73,31.55,37.11Z"/><path class="cls-4" d="M30.43,35.75h0a.27.27,0,0,1,.33.27.41.41,0,0,1-.56-.22A.34.34,0,0,1,30.43,35.75Z"/><path class="cls-5" d="M29.38,47.07c1.18.86-4.8,5.19-8.69,5a11.43,11.43,0,0,1-9.4-6c-1-2.14-.67-8.23.62-7.8.46.15-.11,2.21,1.78,5.34,1.65,2.75,4.47,5.46,8.21,5.27C27,48.67,28.6,46.5,29.38,47.07Z"/><path class="cls-6" d="M16.56,32a.55.55,0,0,1,.49.83c-.33.8-2.28,2.1-2.84,1.89s-.58-.88.24-1.5A4.66,4.66,0,0,1,16.56,32Z"/><path class="cls-6" d="M15.55,33.08s-2.26-2.34-2.91-3.22a41.89,41.89,0,0,1-2.14-4.23.55.55,0,0,0-.48-.24c-.27.05-.19.47-.19.47S11.4,29.08,12,30c1.3,1.81,3,3.78,3,3.78Z"/><path class="cls-6" d="M11.6,28.67c.14,0,3.73-.47,3.73-.47l.14.21-1.85.31-1.85.3Z"/><path class="cls-6" d="M19.38,32.88c3.85,1,9.54-1.77,9.54-1.77s-3.8-4.44-7.06-4.77-8.93,2.27-8.93,2.27A13.5,13.5,0,0,0,19.38,32.88Z"/><path class="cls-7" d="M16.53,32.25a.8.8,0,0,1,.08.79,4.09,4.09,0,0,1-1.4,1.11l-.09-.7s.3-.21.33-.38a.39.39,0,0,0,0-.27Z"/><path class="cls-7" d="M14.19,28.7a30.09,30.09,0,0,1,6.46.07c3,.43,7.52,1.86,7.46,2.06s-4.95-1.64-7.36-1.8S14,29,14,29Z"/><path class="cls-7" d="M15.7,28.82A3.52,3.52,0,0,0,16.33,30a8.89,8.89,0,0,1,1.09,1.68,10.76,10.76,0,0,1-1.26-1.56c-.35-.53-.81-1.27-.81-1.27Z"/><path class="cls-7" d="M18.7,28.84a5.29,5.29,0,0,0,.66,1.91c.67,1.36.93,1.76.77,1.79s-.66-1-1-1.75-.85-2-.85-2Z"/><path class="cls-7" d="M21.62,29.11a3.63,3.63,0,0,0,.23,1.42c.29,1,.66,1.58.52,1.64s-.48-.86-.68-1.58-.5-1.63-.5-1.63Z"/><path class="cls-7" d="M24.75,29.85a2.36,2.36,0,0,0,.16.84c.19.52.48,1,.39,1a1.75,1.75,0,0,1-.53-.91c-.14-.47-.28-1-.28-1Z"/><path class="cls-7" d="M15.35,28.73a4.43,4.43,0,0,1,1.13-1.08,3.53,3.53,0,0,1,1.46-.6c.08.07-.83.33-1.15.54a12.62,12.62,0,0,0-1.19,1.14Z"/><path class="cls-7" d="M18.43,28.65a2.91,2.91,0,0,1,.92-1.23,4.44,4.44,0,0,1,2.06-.8c.19.06-1.5.49-1.88.86a4.36,4.36,0,0,0-.7,1.21Z"/><path class="cls-7" d="M21.19,29a6.6,6.6,0,0,1,1.38-1.09,5.66,5.66,0,0,1,1.66-.42c.2,0-1.27.33-1.68.62a8.6,8.6,0,0,0-1.05,1Z"/><path class="cls-7" d="M24.76,29.77s0-.25.73-.5,1.07-.43.92-.43a4.16,4.16,0,0,0-.91.24,5.82,5.82,0,0,0-1.08.6Z"/><path class="cls-3" d="M86.56,36.06c3,2.2,6.91,9.14,2.29,14.86s-11.38,6-16.47,2.69A11.47,11.47,0,0,1,71,35.48C76.1,30.58,82.05,32.75,86.56,36.06Z"/><path class="cls-4" d="M74.07,35.25h0Z"/><path class="cls-4" d="M74.76,36c.35-.17.74-.53.41-.85s-.77.05-1.09.13C73.65,35.64,73.83,36.42,74.76,36Z"/><path class="cls-4" d="M74.08,35.24l.54-.21A.88.88,0,0,0,74.08,35.24Z"/><path class="cls-4" d="M73.13,36.77c.13-.09.31-.29.14-.44a.23.23,0,0,0-.34.08.43.43,0,0,0-.22.28C72.69,37,73,36.87,73.13,36.77Z"/><path class="cls-4" d="M75.41,36.59a.33.33,0,0,0-.32,0c-.16,0-.35.09-.39.21a.14.14,0,0,0,0,.09l0,0,0,0c0,.14.38,0,.5,0S75.68,36.74,75.41,36.59Z"/><path class="cls-4" d="M74.65,36.93h0Z"/><path class="cls-4" d="M76.15,35.81c-.15,0-.32.21-.23.36s.44.09.56,0C77,35.91,76.33,35.7,76.15,35.81Z"/><path class="cls-4" d="M76.77,34.89c-.1,0-.29-.07-.37,0a.15.15,0,0,0,0,.18c0,.11.18.2.25.23s.92.33,1,.07S77,34.91,76.77,34.89Z"/><path class="cls-4" d="M75.94,34.37c.16.08.72.06.78-.17s-.31-.27-.45-.25a.55.55,0,0,0-.25.13C75.88,34.16,75.76,34.27,75.94,34.37Z"/><path class="cls-4" d="M73.23,35.69c.29-.22,0-.34-.22-.29h0c-.13,0-.46.15-.37.33S73.12,35.77,73.23,35.69Z"/><path class="cls-4" d="M72,37.07c.11-.12.44-.67.06-.69a.3.3,0,0,0-.2.1,1,1,0,0,0-.38.54C71.34,37.52,71.82,37.29,72,37.07Z"/><path class="cls-4" d="M74.06,37.23a.68.68,0,0,0-.5,0,1,1,0,0,0-.67.51c-.13.52.78.15,1,.08S74.48,37.38,74.06,37.23Z"/><path class="cls-4" d="M75.58,37.63c-.14,0-.3.17-.3.29s.53.18.67.11C76.51,37.77,75.78,37.52,75.58,37.63Z"/><path class="cls-4" d="M79.17,34.75a.25.25,0,0,0-.25.1.68.68,0,0,0,1,0A.57.57,0,0,0,79.17,34.75Z"/><path class="cls-4" d="M77.69,36.09c.32.11,1.17.17,1.23-.27a.72.72,0,0,0-.68-.08C78,35.72,77.7,35.81,77.69,36.09Z"/><path class="cls-4" d="M78.31,33.79a.46.46,0,0,0-.63-.06.3.3,0,0,0-.15.18A.6.6,0,0,0,78.31,33.79Z"/><path class="cls-4" d="M80.62,35.62c-.63,0,.18.81.53.55S80.87,35.46,80.62,35.62Z"/><path class="cls-4" d="M71.69,38.21c-.2-.15-.36,0-.47.18-.42.27-.93.91-.53,1.06S71.67,38.56,71.69,38.21Z"/><path class="cls-4" d="M70.53,37.39c-.54.1-.28,1,.23.39C71.08,37.4,70.75,37.27,70.53,37.39Z"/><path class="cls-4" d="M73.6,39a.29.29,0,0,0-.19.25c.2.14.74.16.87-.11S73.78,38.73,73.6,39Z"/><path class="cls-4" d="M78.4,37.56l0,0a.45.45,0,0,0,0,.11s0,.1,0,.12c.11.29.73.3.61-.07S78.54,37.42,78.4,37.56Z"/><path class="cls-4" d="M84,36.78c-.37-.5-1.12,0-.65.16C83.59,37.14,84.31,37.27,84,36.78Z"/><path class="cls-4" d="M71,41.57l.07-.14a1,1,0,0,0-.4.64c.22,0,.85-.37.84-.65S71.19,41.3,71,41.57Z"/><path class="cls-4" d="M76.68,40.15a.16.16,0,0,0,.21.05c.27,0,.75,0,.54-.32S76.75,39.93,76.68,40.15Z"/><path class="cls-4" d="M68.85,39.87a.51.51,0,0,0,0,.22c.32.11,1.14,0,.87-.51S68.94,39.49,68.85,39.87Z"/><path class="cls-4" d="M70,38.51h0a.26.26,0,0,0-.33.26.39.39,0,0,0,.55-.21A.33.33,0,0,0,70,38.51Z"/><path class="cls-5" d="M71,49.83c-1.17.86,4.81,5.19,8.69,5a11.42,11.42,0,0,0,9.4-6c1-2.14.67-8.23-.61-7.8-.46.15.1,2.21-1.78,5.34-1.66,2.75-4.48,5.45-8.22,5.27C73.38,51.43,71.79,49.26,71,49.83Z"/><path class="cls-6" d="M83.84,34.77a.54.54,0,0,0-.49.83c.32.8,2.27,2.1,2.83,1.88s.59-.87-.23-1.49A4.66,4.66,0,0,0,83.84,34.77Z"/><path class="cls-6" d="M84.85,35.84s2.26-2.34,2.9-3.22a40.36,40.36,0,0,0,2.15-4.23.52.52,0,0,1,.47-.24c.28.05.2.47.2.47S89,31.84,88.35,32.73c-1.3,1.81-3,3.77-3,3.77Z"/><path class="cls-6" d="M88.79,31.43c-.14,0-3.73-.47-3.73-.47l-.14.21,1.86.31,1.85.3Z"/><path class="cls-6" d="M81,35.64c-3.85,1-9.55-1.77-9.55-1.77s3.8-4.44,7.07-4.77,8.93,2.27,8.93,2.27A13.56,13.56,0,0,1,81,35.64Z"/><path class="cls-7" d="M83.87,35a.81.81,0,0,0-.09.79,4.09,4.09,0,0,0,1.4,1.11l.09-.7s-.3-.21-.33-.38a.39.39,0,0,1,0-.27Z"/><path class="cls-7" d="M86.21,31.46a30.51,30.51,0,0,0-6.46.06c-3,.44-7.52,1.87-7.46,2.07s4.94-1.64,7.36-1.8,6.73,0,6.73,0Z"/><path class="cls-7" d="M84.69,31.57a3.36,3.36,0,0,1-.63,1.18A8.79,8.79,0,0,0,83,34.43a10.21,10.21,0,0,0,1.25-1.56c.36-.53.82-1.27.82-1.27Z"/><path class="cls-7" d="M81.69,31.6A5.29,5.29,0,0,1,81,33.51c-.66,1.36-.93,1.76-.76,1.79s.65-1,1-1.75.85-2,.85-2Z"/><path class="cls-7" d="M78.78,31.87a3.92,3.92,0,0,1-.23,1.42c-.3,1-.66,1.58-.53,1.64s.49-.86.69-1.59.5-1.62.5-1.62Z"/><path class="cls-7" d="M75.64,32.61a2.36,2.36,0,0,1-.16.84c-.18.52-.47,1-.39,1a1.75,1.75,0,0,0,.54-.91l.28-1Z"/><path class="cls-7" d="M85.05,31.49a4.2,4.2,0,0,0-1.14-1.08,3.51,3.51,0,0,0-1.45-.6c-.08.07.83.33,1.15.54a12.23,12.23,0,0,1,1.18,1.14Z"/><path class="cls-7" d="M82,31.4A2.75,2.75,0,0,0,81,30.18a4.45,4.45,0,0,0-2.05-.8c-.2.06,1.5.49,1.88.86a4.23,4.23,0,0,1,.69,1.21Z"/><path class="cls-7" d="M79.21,31.72a6.75,6.75,0,0,0-1.39-1.09,5.58,5.58,0,0,0-1.66-.42,17.77,17.77,0,0,1,1.69.62,9.06,9.06,0,0,1,1,1Z"/><path class="cls-7" d="M75.64,32.53s0-.25-.74-.5-1.06-.43-.91-.43a4.75,4.75,0,0,1,.91.23,6.06,6.06,0,0,1,1.07.61Z"/><path class="cls-3" d="M91.3,46.2c3,2.19,6.91,9.14,2.29,14.85s-11.37,6-16.46,2.69A11.48,11.48,0,0,1,75.7,45.61C80.85,40.71,86.8,42.88,91.3,46.2Z"/><path class="cls-4" d="M78.81,45.38h0Z"/><path class="cls-4" d="M79.51,46.1c.35-.17.74-.53.41-.84s-.78,0-1.09.12C78.39,45.78,78.57,46.56,79.51,46.1Z"/><path class="cls-4" d="M78.83,45.38l.53-.21A.82.82,0,0,0,78.83,45.38Z"/><path class="cls-4" d="M77.88,46.91c.13-.1.31-.3.13-.44a.22.22,0,0,0-.33.07.44.44,0,0,0-.22.29C77.43,47.12,77.74,47,77.88,46.91Z"/><path class="cls-4" d="M80.16,46.73a.3.3,0,0,0-.33,0c-.15,0-.35.08-.38.21a.25.25,0,0,0,0,.08l0,0,0,0c0,.15.39,0,.51,0S80.43,46.87,80.16,46.73Z"/><path class="cls-4" d="M79.4,47.06h0Z"/><path class="cls-4" d="M80.9,45.94c-.16.05-.32.21-.24.36s.44.09.57,0C81.73,46,81.08,45.83,80.9,45.94Z"/><path class="cls-4" d="M81.52,45c-.1,0-.29-.07-.37,0a.12.12,0,0,0,0,.17c0,.11.18.2.25.24s.91.32,1,.06S81.71,45,81.52,45Z"/><path class="cls-4" d="M80.69,44.5c.16.08.72.06.77-.16s-.3-.28-.45-.26a.61.61,0,0,0-.24.14C80.62,44.29,80.51,44.4,80.69,44.5Z"/><path class="cls-4" d="M78,45.82c.29-.21,0-.33-.23-.29h0c-.13,0-.46.14-.37.32S77.86,45.91,78,45.82Z"/><path class="cls-4" d="M76.76,47.21c.1-.13.44-.67,0-.7a.27.27,0,0,0-.19.11,1.15,1.15,0,0,0-.39.53C76.08,47.65,76.57,47.42,76.76,47.21Z"/><path class="cls-4" d="M78.81,47.36a.76.76,0,0,0-.51,0c-.28.08-.61.3-.66.52-.13.51.78.14,1,.07S79.23,47.52,78.81,47.36Z"/><path class="cls-4" d="M80.33,47.77c-.14,0-.3.17-.3.29s.52.17.67.11C81.26,47.9,80.53,47.65,80.33,47.77Z"/><path class="cls-4" d="M83.92,44.88a.26.26,0,0,0-.25.11.68.68,0,0,0,1,0A.59.59,0,0,0,83.92,44.88Z"/><path class="cls-4" d="M82.44,46.23c.31.11,1.16.16,1.23-.28a.75.75,0,0,0-.68-.08C82.72,45.86,82.44,46,82.44,46.23Z"/><path class="cls-4" d="M83.05,43.93a.44.44,0,0,0-.62-.07.32.32,0,0,0-.15.19A.61.61,0,0,0,83.05,43.93Z"/><path class="cls-4" d="M85.36,45.76c-.62,0,.18.8.53.55S85.61,45.59,85.36,45.76Z"/><path class="cls-4" d="M76.43,48.35c-.19-.16-.36,0-.47.18-.42.27-.92.9-.52,1.06S76.42,48.69,76.43,48.35Z"/><path class="cls-4" d="M75.28,47.52c-.54.11-.29,1,.23.39C75.83,47.53,75.5,47.41,75.28,47.52Z"/><path class="cls-4" d="M78.35,49.17a.31.31,0,0,0-.2.25c.21.15.74.16.88-.11S78.53,48.86,78.35,49.17Z"/><path class="cls-4" d="M83.14,47.7l0-.05a.26.26,0,0,0,0,.11c0,.05,0,.1,0,.12.11.29.73.3.61-.07S83.29,47.55,83.14,47.7Z"/><path class="cls-4" d="M88.7,46.91c-.36-.5-1.12,0-.64.16C88.34,47.27,89.06,47.4,88.7,46.91Z"/><path class="cls-4" d="M75.75,51.7l.08-.13a.9.9,0,0,0-.4.63c.21.06.85-.37.83-.65S75.94,51.43,75.75,51.7Z"/><path class="cls-4" d="M81.43,50.28a.16.16,0,0,0,.21,0c.26,0,.74,0,.54-.32S81.5,50.06,81.43,50.28Z"/><path class="cls-4" d="M73.59,50a.41.41,0,0,0,0,.22c.32.11,1.13,0,.87-.51S73.69,49.63,73.59,50Z"/><path class="cls-4" d="M74.71,48.64h0a.27.27,0,0,0-.33.27.4.4,0,0,0,.56-.22A.41.41,0,0,0,74.71,48.64Z"/><path class="cls-5" d="M75.76,60c-1.17.86,4.8,5.19,8.69,5a11.44,11.44,0,0,0,9.4-6c1-2.15.67-8.23-.62-7.81-.45.15.11,2.22-1.78,5.34C89.8,59.29,87,62,83.24,61.81,78.13,61.56,76.54,59.39,75.76,60Z"/><path class="cls-6" d="M88.58,44.9a.55.55,0,0,0-.48.84c.32.8,2.27,2.09,2.83,1.88s.58-.87-.24-1.5A4.66,4.66,0,0,0,88.58,44.9Z"/><path class="cls-6" d="M89.6,46s2.26-2.34,2.9-3.22a39.9,39.9,0,0,0,2.14-4.22s.2-.3.48-.25.2.47.2.47S93.74,42,93.1,42.86c-1.3,1.81-3,3.78-3,3.78Z"/><path class="cls-6" d="M93.54,41.56l-3.73-.47-.14.22,1.85.3,1.86.3Z"/><path class="cls-6" d="M85.77,45.77c-3.86,1-9.55-1.77-9.55-1.77s3.8-4.43,7.06-4.77,8.93,2.27,8.93,2.27A13.5,13.5,0,0,1,85.77,45.77Z"/><path class="cls-7" d="M88.61,45.14a.8.8,0,0,0-.08.79A4.09,4.09,0,0,0,89.93,47l.09-.7s-.3-.21-.33-.38a.39.39,0,0,1,0-.27Z"/><path class="cls-7" d="M91,41.6a29.75,29.75,0,0,0-6.46.06c-3,.43-7.51,1.86-7.46,2.07s5-1.64,7.37-1.8,6.73,0,6.73,0Z"/><path class="cls-7" d="M89.44,41.71a3.52,3.52,0,0,1-.63,1.17,8.17,8.17,0,0,0-1.08,1.69A11.13,11.13,0,0,0,89,43c.35-.53.81-1.27.81-1.27Z"/><path class="cls-7" d="M86.44,41.73a5.29,5.29,0,0,1-.66,1.91c-.66,1.36-.93,1.76-.77,1.79s.66-1,1-1.74.85-2,.85-2Z"/><path class="cls-7" d="M83.52,42a3.69,3.69,0,0,1-.23,1.43c-.29,1-.66,1.57-.52,1.64s.48-.87.68-1.59.5-1.63.5-1.63Z"/><path class="cls-7" d="M80.39,42.75a2.39,2.39,0,0,1-.16.84c-.19.51-.48,1-.39,1a1.84,1.84,0,0,0,.54-.92c.13-.46.27-1,.27-1Z"/><path class="cls-7" d="M89.79,41.63a4.38,4.38,0,0,0-1.13-1.09A3.41,3.41,0,0,0,87.2,40c-.07.07.83.32,1.15.53a12.62,12.62,0,0,1,1.19,1.14Z"/><path class="cls-7" d="M86.71,41.54a2.91,2.91,0,0,0-.92-1.23,4.56,4.56,0,0,0-2.06-.8c-.19.06,1.5.49,1.89.87a4.1,4.1,0,0,1,.69,1.2Z"/><path class="cls-7" d="M84,41.85a6.6,6.6,0,0,0-1.38-1.09,5.66,5.66,0,0,0-1.66-.42c-.2,0,1.27.33,1.69.62a9.06,9.06,0,0,1,1,1Z"/><path class="cls-7" d="M80.38,42.66s0-.24-.73-.5-1.06-.43-.92-.43a4,4,0,0,1,.91.24,5.66,5.66,0,0,1,1.08.61Z"/><path class="cls-3" d="M71.56,46.75c3,2.2,6.91,9.14,2.29,14.86s-11.38,6-16.47,2.69A11.47,11.47,0,0,1,56,46.17C61.1,41.27,67.05,43.44,71.56,46.75Z"/><path class="cls-4" d="M59.07,45.94h0Z"/><path class="cls-4" d="M59.76,46.66c.35-.17.74-.53.41-.85s-.77,0-1.09.12C58.65,46.33,58.83,47.11,59.76,46.66Z"/><path class="cls-4" d="M59.08,45.93l.54-.21A.88.88,0,0,0,59.08,45.93Z"/><path class="cls-4" d="M58.13,47.46c.13-.09.31-.29.13-.44s-.25,0-.33.08a.41.41,0,0,0-.22.28C57.68,47.68,58,47.56,58.13,47.46Z"/><path class="cls-4" d="M60.41,47.28a.35.35,0,0,0-.33,0c-.15,0-.35.09-.38.21a.31.31,0,0,0,0,.09l0,0,.05,0c0,.14.38,0,.5,0S60.68,47.43,60.41,47.28Z"/><path class="cls-4" d="M59.65,47.62h0Z"/><path class="cls-4" d="M61.15,46.5c-.15,0-.32.21-.24.36s.44.09.57,0C62,46.6,61.33,46.39,61.15,46.5Z"/><path class="cls-4" d="M61.77,45.57c-.1,0-.29-.06-.37,0a.15.15,0,0,0,0,.18c0,.1.18.2.25.23s.91.33,1,.07S62,45.6,61.77,45.57Z"/><path class="cls-4" d="M60.94,45.06c.16.08.72.06.78-.17s-.31-.27-.45-.25a.55.55,0,0,0-.25.13C60.87,44.85,60.76,45,60.94,45.06Z"/><path class="cls-4" d="M58.23,46.38c.29-.22,0-.34-.22-.29h0c-.13,0-.46.15-.37.33S58.12,46.46,58.23,46.38Z"/><path class="cls-4" d="M57,47.76c.11-.12.44-.67.06-.69a.3.3,0,0,0-.2.1,1,1,0,0,0-.38.54C56.34,48.21,56.82,48,57,47.76Z"/><path class="cls-4" d="M59.06,47.92a.68.68,0,0,0-.5,0,1,1,0,0,0-.67.51c-.13.52.78.15,1,.08S59.48,48.07,59.06,47.92Z"/><path class="cls-4" d="M60.58,48.32c-.14,0-.3.17-.3.29s.53.18.67.11C61.51,48.46,60.78,48.21,60.58,48.32Z"/><path class="cls-4" d="M64.17,45.44a.25.25,0,0,0-.25.1.68.68,0,0,0,1,0A.57.57,0,0,0,64.17,45.44Z"/><path class="cls-4" d="M62.69,46.78c.32.11,1.17.17,1.23-.27a.72.72,0,0,0-.68-.08C63,46.41,62.69,46.5,62.69,46.78Z"/><path class="cls-4" d="M63.3,44.48a.44.44,0,0,0-.62-.06.3.3,0,0,0-.15.18A.59.59,0,0,0,63.3,44.48Z"/><path class="cls-4" d="M65.62,46.31c-.63,0,.18.81.53.55S65.87,46.15,65.62,46.31Z"/><path class="cls-4" d="M56.68,48.9c-.19-.15-.35,0-.46.18-.42.27-.93.91-.53,1.06S56.67,49.25,56.68,48.9Z"/><path class="cls-4" d="M55.53,48.08c-.54.1-.28,1,.23.39C56.08,48.09,55.75,48,55.53,48.08Z"/><path class="cls-4" d="M58.6,49.73a.27.27,0,0,0-.19.25c.2.14.73.16.87-.11S58.78,49.42,58.6,49.73Z"/><path class="cls-4" d="M63.4,48.25l0,0a.45.45,0,0,0,0,.11s0,.1,0,.11c.11.3.73.31.61-.06S63.54,48.11,63.4,48.25Z"/><path class="cls-4" d="M69,47.47c-.36-.5-1.12,0-.64.16C68.59,47.83,69.31,48,69,47.47Z"/><path class="cls-4" d="M56,52.26l.07-.14a.92.92,0,0,0-.4.64c.22.05.85-.37.83-.65S56.19,52,56,52.26Z"/><path class="cls-4" d="M61.68,50.84a.16.16,0,0,0,.21,0c.26,0,.75,0,.54-.32S61.75,50.62,61.68,50.84Z"/><path class="cls-4" d="M53.85,50.56a.51.51,0,0,0,0,.22c.32.11,1.14,0,.87-.51S53.94,50.18,53.85,50.56Z"/><path class="cls-4" d="M55,49.2h0a.26.26,0,0,0-.33.26.39.39,0,0,0,.55-.21A.33.33,0,0,0,55,49.2Z"/><path class="cls-5" d="M56,60.52c-1.17.86,4.81,5.19,8.69,5a11.45,11.45,0,0,0,9.4-6c1-2.14.67-8.23-.61-7.8-.46.15.1,2.21-1.78,5.34-1.66,2.75-4.48,5.45-8.22,5.27C58.38,62.11,56.79,60,56,60.52Z"/><path class="cls-6" d="M68.83,45.46a.54.54,0,0,0-.48.83c.32.8,2.27,2.1,2.83,1.88s.59-.87-.23-1.49A4.64,4.64,0,0,0,68.83,45.46Z"/><path class="cls-6" d="M69.85,46.53s2.26-2.34,2.9-3.22a39.83,39.83,0,0,0,2.14-4.23.55.55,0,0,1,.48-.24c.28,0,.2.47.2.47S74,42.53,73.35,43.42c-1.3,1.81-3,3.77-3,3.77Z"/><path class="cls-6" d="M73.79,42.12c-.14,0-3.73-.47-3.73-.47l-.14.21,1.86.31,1.85.3Z"/><path class="cls-6" d="M66,46.32c-3.85,1-9.55-1.76-9.55-1.76s3.8-4.44,7.07-4.77,8.93,2.27,8.93,2.27A13.5,13.5,0,0,1,66,46.32Z"/><path class="cls-7" d="M68.87,45.69a.82.82,0,0,0-.09.79,4,4,0,0,0,1.4,1.12l.09-.7s-.3-.21-.33-.39a.41.41,0,0,1,0-.27Z"/><path class="cls-7" d="M71.21,42.15a30.51,30.51,0,0,0-6.46.06c-3,.44-7.52,1.87-7.46,2.07s4.94-1.64,7.36-1.8,6.73,0,6.73,0Z"/><path class="cls-7" d="M69.69,42.26a3.36,3.36,0,0,1-.63,1.18A8.47,8.47,0,0,0,68,45.12a10.21,10.21,0,0,0,1.25-1.56c.36-.53.82-1.27.82-1.27Z"/><path class="cls-7" d="M66.69,42.29A5.29,5.29,0,0,1,66,44.2c-.66,1.36-.93,1.76-.76,1.79s.65-1,1-1.75.84-2,.84-2Z"/><path class="cls-7" d="M63.77,42.56A3.7,3.7,0,0,1,63.55,44c-.3,1-.66,1.58-.53,1.64s.48-.86.69-1.59.5-1.62.5-1.62Z"/><path class="cls-7" d="M60.64,43.3a2.36,2.36,0,0,1-.16.84c-.18.52-.47,1-.39,1a1.75,1.75,0,0,0,.54-.91l.28-1Z"/><path class="cls-7" d="M70,42.18a4.07,4.07,0,0,0-1.13-1.08,3.51,3.51,0,0,0-1.45-.6c-.08.07.82.33,1.15.54a12.23,12.23,0,0,1,1.18,1.14Z"/><path class="cls-7" d="M67,42.09A2.85,2.85,0,0,0,66,40.87a4.45,4.45,0,0,0-2.05-.8c-.2.06,1.5.49,1.88.86a4.23,4.23,0,0,1,.69,1.21Z"/><path class="cls-7" d="M64.21,42.41a6.75,6.75,0,0,0-1.39-1.09,5.58,5.58,0,0,0-1.66-.42c-.19,0,1.28.32,1.69.61a9.8,9.8,0,0,1,1,1Z"/><path class="cls-7" d="M60.64,43.22s0-.25-.74-.5-1.06-.43-.91-.43a4.75,4.75,0,0,1,.91.23,6.49,6.49,0,0,1,1.07.61Z"/><path class="cls-3" d="M52.64,29c3,2.2,6.91,9.14,2.29,14.85s-11.37,6.06-16.46,2.7A11.48,11.48,0,0,1,37,28.37C42.19,23.47,48.14,25.64,52.64,29Z"/><path class="cls-4" d="M40.15,28.14h0Z"/><path class="cls-4" d="M40.85,28.86c.35-.17.74-.53.41-.85s-.78,0-1.09.12C39.73,28.53,39.91,29.31,40.85,28.86Z"/><path class="cls-4" d="M40.17,28.13l.53-.21A.88.88,0,0,0,40.17,28.13Z"/><path class="cls-4" d="M39.21,29.66c.14-.09.32-.3.14-.44s-.25,0-.33.08a.41.41,0,0,0-.22.28C38.77,29.88,39.08,29.76,39.21,29.66Z"/><path class="cls-4" d="M41.5,29.48a.35.35,0,0,0-.33,0c-.15,0-.35.09-.38.21a.28.28,0,0,0,0,.08s0,0,0,0l0,0c0,.14.39,0,.51,0S41.77,29.63,41.5,29.48Z"/><path class="cls-4" d="M40.74,29.82h0Z"/><path class="cls-4" d="M42.23,28.7c-.15,0-.32.21-.23.36s.44.09.57,0C43.07,28.8,42.42,28.59,42.23,28.7Z"/><path class="cls-4" d="M42.86,27.77c-.1,0-.29-.06-.37,0a.14.14,0,0,0,0,.18c0,.1.18.2.25.23s.91.33,1,.07S43.05,27.8,42.86,27.77Z"/><path class="cls-4" d="M42,27.26c.16.08.72.06.77-.17s-.3-.27-.45-.26a.77.77,0,0,0-.24.14C42,27,41.85,27.16,42,27.26Z"/><path class="cls-4" d="M39.31,28.58c.3-.22,0-.34-.22-.29h0c-.13,0-.46.15-.37.33S39.2,28.66,39.31,28.58Z"/><path class="cls-4" d="M38.1,30c.1-.12.44-.67,0-.69a.3.3,0,0,0-.19.1,1.08,1.08,0,0,0-.39.53C37.42,30.41,37.91,30.18,38.1,30Z"/><path class="cls-4" d="M40.14,30.11a.75.75,0,0,0-.5.05,1,1,0,0,0-.66.51c-.13.52.78.15,1,.08S40.57,30.27,40.14,30.11Z"/><path class="cls-4" d="M41.67,30.52c-.15.05-.3.17-.3.29s.52.18.67.11C42.6,30.66,41.87,30.41,41.67,30.52Z"/><path class="cls-4" d="M45.26,27.64a.25.25,0,0,0-.25.1.68.68,0,0,0,1,0A.57.57,0,0,0,45.26,27.64Z"/><path class="cls-4" d="M43.78,29c.31.11,1.16.17,1.23-.27a.7.7,0,0,0-.68-.08C44.06,28.61,43.78,28.7,43.78,29Z"/><path class="cls-4" d="M44.39,26.68a.44.44,0,0,0-.62-.06.3.3,0,0,0-.15.18A.59.59,0,0,0,44.39,26.68Z"/><path class="cls-4" d="M46.7,28.51c-.62,0,.18.81.53.55S47,28.35,46.7,28.51Z"/><path class="cls-4" d="M37.77,31.1c-.19-.15-.36,0-.47.18-.42.27-.92.91-.52,1.06S37.76,31.45,37.77,31.1Z"/><path class="cls-4" d="M36.62,30.28c-.54.1-.29,1,.23.39C37.17,30.29,36.84,30.16,36.62,30.28Z"/><path class="cls-4" d="M39.69,31.93a.3.3,0,0,0-.2.25c.21.14.74.15.88-.11S39.87,31.62,39.69,31.93Z"/><path class="cls-4" d="M44.48,30.45l0,0a.43.43,0,0,0,0,.11c0,.05,0,.1,0,.11.11.3.73.31.61-.06S44.63,30.31,44.48,30.45Z"/><path class="cls-4" d="M50,29.67c-.36-.5-1.12,0-.64.16C49.67,30,50.4,30.16,50,29.67Z"/><path class="cls-4" d="M37.09,34.46l.08-.14a.92.92,0,0,0-.4.64c.21,0,.85-.37.83-.65S37.28,34.19,37.09,34.46Z"/><path class="cls-4" d="M42.77,33a.16.16,0,0,0,.21.05c.26,0,.74,0,.54-.32S42.84,32.82,42.77,33Z"/><path class="cls-4" d="M34.93,32.76a.4.4,0,0,0,0,.22c.32.11,1.13,0,.87-.51S35,32.38,34.93,32.76Z"/><path class="cls-4" d="M36.05,31.4h0a.27.27,0,0,0-.33.26.4.4,0,0,0,.56-.21A.34.34,0,0,0,36.05,31.4Z"/><path class="cls-5" d="M37.1,42.72c-1.17.86,4.8,5.19,8.69,5a11.45,11.45,0,0,0,9.4-6c1-2.14.67-8.23-.62-7.8-.46.15.11,2.21-1.78,5.34-1.65,2.75-4.47,5.45-8.21,5.27C39.46,44.31,37.88,42.15,37.1,42.72Z"/><path class="cls-6" d="M49.92,27.66a.54.54,0,0,0-.49.83c.33.8,2.28,2.1,2.84,1.88s.58-.87-.24-1.49A4.57,4.57,0,0,0,49.92,27.66Z"/><path class="cls-6" d="M50.94,28.73s2.26-2.34,2.9-3.22A39.83,39.83,0,0,0,56,21.28s.2-.3.48-.24.19.46.19.46-1.57,3.23-2.21,4.12c-1.3,1.81-3,3.77-3,3.77Z"/><path class="cls-6" d="M54.88,24.32c-.14,0-3.73-.47-3.73-.47l-.14.21,1.85.31,1.86.3Z"/><path class="cls-6" d="M47.11,28.52c-3.86,1-9.55-1.76-9.55-1.76s3.8-4.44,7.06-4.77,8.93,2.27,8.93,2.27A13.44,13.44,0,0,1,47.11,28.52Z"/><path class="cls-7" d="M50,27.89a.8.8,0,0,0-.08.79,4,4,0,0,0,1.4,1.12l.09-.7s-.3-.21-.33-.39a.41.41,0,0,1,0-.27Z"/><path class="cls-7" d="M52.29,24.35a30.48,30.48,0,0,0-6.46.06c-3,.44-7.51,1.87-7.46,2.07s5-1.64,7.36-1.8,6.74,0,6.74,0Z"/><path class="cls-7" d="M50.78,24.46a3.61,3.61,0,0,1-.63,1.18,8.25,8.25,0,0,0-1.09,1.68,10.11,10.11,0,0,0,1.26-1.56c.35-.53.81-1.27.81-1.27Z"/><path class="cls-7" d="M47.78,24.49a5.29,5.29,0,0,1-.66,1.91c-.66,1.36-.93,1.75-.77,1.79s.66-1,1-1.75.85-2,.85-2Z"/><path class="cls-7" d="M44.86,24.76a3.63,3.63,0,0,1-.23,1.42c-.29,1-.66,1.57-.52,1.64s.48-.86.68-1.59.5-1.62.5-1.62Z"/><path class="cls-7" d="M41.73,25.5a2.39,2.39,0,0,1-.16.84c-.19.52-.48,1-.39,1a1.75,1.75,0,0,0,.54-.91c.13-.47.27-1,.27-1Z"/><path class="cls-7" d="M51.13,24.38A4.25,4.25,0,0,0,50,23.3a3.53,3.53,0,0,0-1.46-.6c-.07.07.83.33,1.15.54a12.62,12.62,0,0,1,1.19,1.14Z"/><path class="cls-7" d="M48.05,24.29a2.85,2.85,0,0,0-.92-1.22,4.44,4.44,0,0,0-2.06-.8c-.19.06,1.5.49,1.88.86a4.36,4.36,0,0,1,.7,1.21Z"/><path class="cls-7" d="M45.29,24.61a6.6,6.6,0,0,0-1.38-1.09,5.66,5.66,0,0,0-1.66-.42c-.2,0,1.27.32,1.68.61a8.4,8.4,0,0,1,1,1Z"/><path class="cls-7" d="M41.72,25.42s0-.25-.73-.5-1.06-.43-.92-.43a4.57,4.57,0,0,1,.91.23,6.29,6.29,0,0,1,1.08.61Z"/><path class="cls-3" d="M26.16,44.65c-3,2.19-6.91,9.14-2.29,14.85s11.37,6,16.47,2.69a11.47,11.47,0,0,0,1.42-18.13C36.62,39.17,30.67,41.33,26.16,44.65Z"/><path class="cls-4" d="M38.65,43.83h0Z"/><path class="cls-4" d="M38,44.55c-.35-.17-.74-.53-.41-.84s.77,0,1.09.12C39.07,44.23,38.89,45,38,44.55Z"/><path class="cls-4" d="M38.63,43.83l-.53-.21A.78.78,0,0,1,38.63,43.83Z"/><path class="cls-4" d="M39.59,45.36c-.13-.1-.31-.3-.14-.44a.23.23,0,0,1,.34.07.48.48,0,0,1,.22.29C40,45.57,39.73,45.46,39.59,45.36Z"/><path class="cls-4" d="M37.3,45.18a.3.3,0,0,1,.33,0c.16,0,.35.08.39.21a.11.11,0,0,1,0,.08l0,0,0,0c0,.15-.38,0-.51,0S37,45.32,37.3,45.18Z"/><path class="cls-4" d="M38.07,45.51h0Z"/><path class="cls-4" d="M36.57,44.39c.15,0,.32.21.23.36s-.44.09-.56,0C35.74,44.49,36.38,44.28,36.57,44.39Z"/><path class="cls-4" d="M35.94,43.47c.11,0,.3-.07.38,0a.15.15,0,0,1,0,.17c0,.11-.18.2-.25.24s-.92.32-1,.06S35.76,43.49,35.94,43.47Z"/><path class="cls-4" d="M36.77,43c-.15.08-.71.06-.77-.16s.31-.28.45-.26a.58.58,0,0,1,.25.14C36.84,42.74,37,42.85,36.77,43Z"/><path class="cls-4" d="M39.49,44.27c-.29-.21,0-.33.22-.29h0c.13,0,.46.14.37.32S39.6,44.36,39.49,44.27Z"/><path class="cls-4" d="M40.71,45.66c-.11-.13-.44-.67-.06-.69a.23.23,0,0,1,.2.1,1.06,1.06,0,0,1,.38.53C41.38,46.1,40.9,45.87,40.71,45.66Z"/><path class="cls-4" d="M38.66,45.81a.74.74,0,0,1,.5,0,1,1,0,0,1,.67.52c.12.51-.79.14-1,.07S38.24,46,38.66,45.81Z"/><path class="cls-4" d="M37.14,46.22c.14.05.3.17.3.29s-.53.18-.67.11C36.21,46.36,36.94,46.1,37.14,46.22Z"/><path class="cls-4" d="M33.55,43.34a.23.23,0,0,1,.25.1.68.68,0,0,1-1,0A.58.58,0,0,1,33.55,43.34Z"/><path class="cls-4" d="M35,44.68c-.32.11-1.17.16-1.23-.28a.75.75,0,0,1,.68-.08C34.74,44.31,35,44.4,35,44.68Z"/><path class="cls-4" d="M34.41,42.38a.46.46,0,0,1,.63-.07.32.32,0,0,1,.15.19A.62.62,0,0,1,34.41,42.38Z"/><path class="cls-4" d="M32.1,44.21c.63,0-.18.8-.53.55S31.85,44,32.1,44.21Z"/><path class="cls-4" d="M41,46.8c.2-.16.36,0,.47.18.42.27.93.9.53,1.06S41.05,47.14,41,46.8Z"/><path class="cls-4" d="M42.19,46c.54.11.28,1-.23.39C41.64,46,42,45.86,42.19,46Z"/><path class="cls-4" d="M39.11,47.62a.29.29,0,0,1,.2.25c-.2.15-.74.16-.87-.11S38.94,47.31,39.11,47.62Z"/><path class="cls-4" d="M34.32,46.15l0,0a.61.61,0,0,1,0,.11s0,.1,0,.12c-.11.29-.73.3-.61-.07S34.18,46,34.32,46.15Z"/><path class="cls-4" d="M28.76,45.36c.37-.5,1.12,0,.65.16C29.13,45.72,28.41,45.85,28.76,45.36Z"/><path class="cls-4" d="M41.71,50.15,41.64,50a.93.93,0,0,1,.4.63c-.22.06-.85-.37-.84-.65S41.53,49.88,41.71,50.15Z"/><path class="cls-4" d="M36,48.73c-.08.09-.14.09-.21.05-.27,0-.75,0-.54-.31S36,48.51,36,48.73Z"/><path class="cls-4" d="M43.87,48.45a.54.54,0,0,1,0,.22c-.32.11-1.14,0-.87-.51S43.78,48.08,43.87,48.45Z"/><path class="cls-4" d="M42.76,47.09h0a.27.27,0,0,1,.33.27.39.39,0,1,1-.32-.26Z"/><path class="cls-5" d="M41.71,58.41c1.17.86-4.81,5.19-8.69,5a11.44,11.44,0,0,1-9.41-6c-1-2.15-.66-8.23.62-7.81.46.15-.1,2.22,1.78,5.35,1.66,2.74,4.48,5.45,8.22,5.26C39.34,60,40.93,57.84,41.71,58.41Z"/><path class="cls-6" d="M28.88,43.35a.55.55,0,0,1,.49.84c-.32.8-2.27,2.1-2.83,1.88s-.59-.87.23-1.5A4.76,4.76,0,0,1,28.88,43.35Z"/><path class="cls-6" d="M27.87,44.42S25.61,42.08,25,41.2A40.43,40.43,0,0,1,22.82,37s-.2-.3-.47-.25-.2.47-.2.47,1.58,3.23,2.22,4.12c1.29,1.8,3,3.77,3,3.77Z"/><path class="cls-6" d="M23.93,40l3.73-.47.13.22-1.85.3-1.85.3Z"/><path class="cls-6" d="M31.7,44.22c3.85,1,9.55-1.77,9.55-1.77S37.44,38,34.18,37.68,25.25,40,25.25,40A13.56,13.56,0,0,0,31.7,44.22Z"/><path class="cls-7" d="M28.85,43.59a.82.82,0,0,1,.09.79,4.09,4.09,0,0,1-1.4,1.11l-.09-.7s.3-.21.33-.38a.39.39,0,0,0,0-.27Z"/><path class="cls-7" d="M26.51,40.05a30.51,30.51,0,0,1,6.46.06c3,.43,7.52,1.86,7.46,2.07s-4.94-1.64-7.36-1.8-6.74,0-6.74,0Z"/><path class="cls-7" d="M28,40.16a3.28,3.28,0,0,0,.63,1.17A8.7,8.7,0,0,1,29.74,43a9.93,9.93,0,0,1-1.25-1.57c-.36-.53-.82-1.27-.82-1.27Z"/><path class="cls-7" d="M31,40.18a5.29,5.29,0,0,0,.66,1.91c.66,1.36.93,1.76.76,1.79s-.66-1-1-1.74-.85-2-.85-2Z"/><path class="cls-7" d="M33.94,40.46a3.65,3.65,0,0,0,.23,1.42c.3,1,.66,1.57.53,1.64s-.49-.87-.69-1.59-.5-1.63-.5-1.63Z"/><path class="cls-7" d="M37.08,41.2a2.13,2.13,0,0,0,.16.84c.18.51.47,1,.38,1a1.93,1.93,0,0,1-.53-.92l-.28-1Z"/><path class="cls-7" d="M27.67,40.08A4.32,4.32,0,0,1,28.81,39a3.44,3.44,0,0,1,1.45-.59c.08.07-.83.32-1.15.53a12.23,12.23,0,0,0-1.18,1.14Z"/><path class="cls-7" d="M30.76,40a2.81,2.81,0,0,1,.92-1.23,4.57,4.57,0,0,1,2-.8c.2.06-1.5.49-1.88.87a4.1,4.1,0,0,0-.69,1.2Z"/><path class="cls-7" d="M33.51,40.3a6.75,6.75,0,0,1,1.39-1.09,5.58,5.58,0,0,1,1.66-.42c.19,0-1.28.33-1.69.62a9.06,9.06,0,0,0-1,1Z"/><path class="cls-7" d="M37.08,41.11s.05-.24.74-.5,1.06-.43.91-.43a5.09,5.09,0,0,0-.91.24,5.46,5.46,0,0,0-1.07.61Z"/><path class="cls-3" d="M55.15,46.75c3,2.2,6.91,9.14,2.29,14.86S46.06,67.66,41,64.3a11.47,11.47,0,0,1-1.42-18.13C44.69,41.27,50.64,43.44,55.15,46.75Z"/><path class="cls-4" d="M42.66,45.94h0Z"/><path class="cls-4" d="M43.35,46.66c.35-.17.74-.53.41-.85s-.77,0-1.09.12C42.24,46.33,42.42,47.11,43.35,46.66Z"/><path class="cls-4" d="M42.67,45.93l.54-.21A.88.88,0,0,0,42.67,45.93Z"/><path class="cls-4" d="M41.72,47.46c.13-.09.31-.29.13-.44s-.25,0-.33.08a.41.41,0,0,0-.22.28C41.27,47.68,41.58,47.56,41.72,47.46Z"/><path class="cls-4" d="M44,47.28a.35.35,0,0,0-.33,0c-.15,0-.35.09-.38.21a.31.31,0,0,0,0,.09l0,0,0,0c0,.14.38,0,.5,0S44.27,47.43,44,47.28Z"/><path class="cls-4" d="M43.24,47.62h0Z"/><path class="cls-4" d="M44.74,46.5c-.15,0-.32.21-.24.36s.44.09.57,0C45.57,46.6,44.92,46.39,44.74,46.5Z"/><path class="cls-4" d="M45.36,45.57c-.1,0-.29-.06-.37,0a.15.15,0,0,0,0,.18c0,.1.18.2.25.23s.91.33,1,.07S45.55,45.6,45.36,45.57Z"/><path class="cls-4" d="M44.53,45.06c.16.08.72.06.78-.17s-.31-.27-.45-.25a.55.55,0,0,0-.25.13C44.46,44.85,44.35,45,44.53,45.06Z"/><path class="cls-4" d="M41.82,46.38c.29-.22,0-.34-.22-.29h0c-.13,0-.46.15-.37.33S41.71,46.46,41.82,46.38Z"/><path class="cls-4" d="M40.6,47.76c.11-.12.44-.67.06-.69a.3.3,0,0,0-.2.1,1,1,0,0,0-.38.54C39.93,48.21,40.41,48,40.6,47.76Z"/><path class="cls-4" d="M42.65,47.92a.68.68,0,0,0-.5,0,1,1,0,0,0-.67.51c-.13.52.78.15,1,.08S43.07,48.07,42.65,47.92Z"/><path class="cls-4" d="M44.17,48.32c-.14,0-.3.17-.3.29s.53.18.67.11C45.1,48.46,44.37,48.21,44.17,48.32Z"/><path class="cls-4" d="M47.76,45.44a.25.25,0,0,0-.25.1.68.68,0,0,0,1,0A.57.57,0,0,0,47.76,45.44Z"/><path class="cls-4" d="M46.28,46.78c.32.11,1.17.17,1.23-.27a.72.72,0,0,0-.68-.08C46.57,46.41,46.29,46.5,46.28,46.78Z"/><path class="cls-4" d="M46.9,44.48a.46.46,0,0,0-.63-.06.3.3,0,0,0-.15.18A.6.6,0,0,0,46.9,44.48Z"/><path class="cls-4" d="M49.21,46.31c-.63,0,.18.81.53.55S49.46,46.15,49.21,46.31Z"/><path class="cls-4" d="M40.27,48.9c-.19-.15-.35,0-.46.18-.42.27-.93.91-.53,1.06S40.26,49.25,40.27,48.9Z"/><path class="cls-4" d="M39.12,48.08c-.54.1-.28,1,.23.39C39.67,48.09,39.34,48,39.12,48.08Z"/><path class="cls-4" d="M42.19,49.73A.29.29,0,0,0,42,50c.2.14.73.16.87-.11S42.37,49.42,42.19,49.73Z"/><path class="cls-4" d="M47,48.25l0,0a.45.45,0,0,0,0,.11s0,.1,0,.11c.11.3.73.31.61-.06S47.13,48.11,47,48.25Z"/><path class="cls-4" d="M52.54,47.47c-.36-.5-1.11,0-.64.16C52.18,47.83,52.9,48,52.54,47.47Z"/><path class="cls-4" d="M39.6,52.26l.07-.14a.92.92,0,0,0-.4.64c.22.05.85-.37.83-.65S39.78,52,39.6,52.26Z"/><path class="cls-4" d="M45.27,50.84a.16.16,0,0,0,.21,0c.27,0,.75,0,.54-.32S45.34,50.62,45.27,50.84Z"/><path class="cls-4" d="M37.44,50.56a.51.51,0,0,0,0,.22c.32.11,1.14,0,.87-.51S37.53,50.18,37.44,50.56Z"/><path class="cls-4" d="M38.55,49.2h0a.26.26,0,0,0-.33.26.39.39,0,0,0,.55-.21A.33.33,0,0,0,38.55,49.2Z"/><path class="cls-5" d="M39.6,60.52c-1.17.86,4.81,5.19,8.69,5a11.43,11.43,0,0,0,9.4-6c1-2.14.67-8.23-.61-7.8-.46.15.1,2.21-1.78,5.34-1.66,2.75-4.48,5.45-8.22,5.27C42,62.11,40.38,60,39.6,60.52Z"/><path class="cls-6" d="M52.42,45.46a.54.54,0,0,0-.48.83c.32.8,2.27,2.1,2.83,1.88s.59-.87-.23-1.49A4.64,4.64,0,0,0,52.42,45.46Z"/><path class="cls-6" d="M53.44,46.53s2.26-2.34,2.9-3.22a39.83,39.83,0,0,0,2.14-4.23.55.55,0,0,1,.48-.24c.28,0,.2.47.2.47s-1.58,3.22-2.22,4.11c-1.3,1.81-3,3.77-3,3.77Z"/><path class="cls-6" d="M57.38,42.12c-.14,0-3.73-.47-3.73-.47l-.14.21,1.86.31,1.85.3Z"/><path class="cls-6" d="M49.61,46.32c-3.85,1-9.55-1.76-9.55-1.76s3.8-4.44,7.07-4.77,8.93,2.27,8.93,2.27A13.5,13.5,0,0,1,49.61,46.32Z"/><path class="cls-7" d="M52.46,45.69a.82.82,0,0,0-.09.79,4,4,0,0,0,1.4,1.12l.09-.7s-.3-.21-.33-.39a.41.41,0,0,1,0-.27Z"/><path class="cls-7" d="M54.8,42.15a30.51,30.51,0,0,0-6.46.06c-3,.44-7.52,1.87-7.46,2.07s4.94-1.64,7.36-1.8,6.73,0,6.73,0Z"/><path class="cls-7" d="M53.28,42.26a3.36,3.36,0,0,1-.63,1.18,8.47,8.47,0,0,0-1.08,1.68,10.21,10.21,0,0,0,1.25-1.56c.36-.53.82-1.27.82-1.27Z"/><path class="cls-7" d="M50.28,42.29a5.29,5.29,0,0,1-.66,1.91C49,45.56,48.69,46,48.86,46s.65-1,1-1.75.84-2,.84-2Z"/><path class="cls-7" d="M47.36,42.56A3.7,3.7,0,0,1,47.14,44c-.3,1-.66,1.58-.53,1.64s.48-.86.69-1.59.5-1.62.5-1.62Z"/><path class="cls-7" d="M44.23,43.3a2.36,2.36,0,0,1-.16.84c-.18.52-.47,1-.39,1a1.75,1.75,0,0,0,.54-.91l.28-1Z"/><path class="cls-7" d="M53.63,42.18A4.07,4.07,0,0,0,52.5,41.1a3.51,3.51,0,0,0-1.45-.6c-.08.07.83.33,1.15.54a12.23,12.23,0,0,1,1.18,1.14Z"/><path class="cls-7" d="M50.55,42.09a2.85,2.85,0,0,0-.92-1.22,4.45,4.45,0,0,0-2.05-.8c-.2.06,1.5.49,1.88.86a4.23,4.23,0,0,1,.69,1.21Z"/><path class="cls-7" d="M47.8,42.41a6.75,6.75,0,0,0-1.39-1.09,5.58,5.58,0,0,0-1.66-.42c-.19,0,1.28.32,1.69.61a9.8,9.8,0,0,1,1,1Z"/><path class="cls-7" d="M44.23,43.22s0-.25-.74-.5-1.06-.43-.91-.43a4.75,4.75,0,0,1,.91.23,6.06,6.06,0,0,1,1.07.61Z"/><path class="cls-3" d="M8.93,46.4c-3,2.19-6.92,9.14-2.29,14.85S18,67.3,23.1,63.94a11.48,11.48,0,0,0,1.43-18.13C19.38,40.92,13.43,43.08,8.93,46.4Z"/><path class="cls-4" d="M21.42,45.58h0Z"/><path class="cls-4" d="M20.72,46.3c-.35-.17-.74-.53-.41-.84s.78,0,1.09.12C21.84,46,21.65,46.76,20.72,46.3Z"/><path class="cls-4" d="M21.4,45.58l-.53-.21A.82.82,0,0,1,21.4,45.58Z"/><path class="cls-4" d="M22.35,47.11c-.13-.1-.31-.3-.13-.44a.22.22,0,0,1,.33.07.44.44,0,0,1,.22.29C22.8,47.32,22.49,47.21,22.35,47.11Z"/><path class="cls-4" d="M20.07,46.93a.3.3,0,0,1,.33,0c.15,0,.35.08.38.21a.25.25,0,0,1,0,.08l0,0,0,0c-.05.15-.39,0-.51,0S19.8,47.07,20.07,46.93Z"/><path class="cls-4" d="M20.83,47.26h0Z"/><path class="cls-4" d="M19.33,46.14c.15,0,.32.21.24.36s-.44.09-.57,0C18.5,46.24,19.15,46,19.33,46.14Z"/><path class="cls-4" d="M18.71,45.22c.1,0,.29-.07.37,0a.12.12,0,0,1,0,.17c0,.11-.18.2-.25.24s-.91.32-1,.06S18.52,45.24,18.71,45.22Z"/><path class="cls-4" d="M19.54,44.7c-.16.08-.72.06-.77-.16s.3-.28.45-.26a.61.61,0,0,1,.24.14C19.61,44.49,19.72,44.6,19.54,44.7Z"/><path class="cls-4" d="M22.25,46c-.29-.21,0-.33.23-.29h0c.13,0,.46.14.37.32S22.37,46.11,22.25,46Z"/><path class="cls-4" d="M23.47,47.41c-.1-.13-.44-.67,0-.69a.23.23,0,0,1,.19.1,1.15,1.15,0,0,1,.39.53C24.14,47.85,23.66,47.62,23.47,47.41Z"/><path class="cls-4" d="M21.42,47.56a.76.76,0,0,1,.51,0,1,1,0,0,1,.66.52c.13.51-.78.14-1,.07S21,47.72,21.42,47.56Z"/><path class="cls-4" d="M19.9,48c.14.05.3.17.3.29s-.52.17-.67.11C19,48.11,19.7,47.85,19.9,48Z"/><path class="cls-4" d="M16.31,45.09a.23.23,0,0,1,.25.1.68.68,0,0,1-1,0A.58.58,0,0,1,16.31,45.09Z"/><path class="cls-4" d="M17.79,46.43c-.31.11-1.16.16-1.23-.28a.75.75,0,0,1,.68-.08C17.51,46.06,17.79,46.15,17.79,46.43Z"/><path class="cls-4" d="M17.18,44.13a.44.44,0,0,1,.62-.07.32.32,0,0,1,.15.19A.61.61,0,0,1,17.18,44.13Z"/><path class="cls-4" d="M14.87,46c.62,0-.19.8-.53.55S14.62,45.79,14.87,46Z"/><path class="cls-4" d="M23.8,48.55c.19-.16.36,0,.47.18.42.27.92.9.52,1.06S23.81,48.89,23.8,48.55Z"/><path class="cls-4" d="M25,47.72c.54.11.28,1-.23.39C24.4,47.73,24.73,47.61,25,47.72Z"/><path class="cls-4" d="M21.88,49.37a.31.31,0,0,1,.2.25c-.21.15-.74.16-.88-.11S21.7,49.06,21.88,49.37Z"/><path class="cls-4" d="M17.08,47.9l0,0a.26.26,0,0,1,0,.11s0,.1,0,.12c-.11.29-.73.3-.61-.07S16.94,47.75,17.08,47.9Z"/><path class="cls-4" d="M11.53,47.11c.36-.5,1.12,0,.64.16C11.89,47.47,11.17,47.6,11.53,47.11Z"/><path class="cls-4" d="M24.48,51.9l-.08-.13a.9.9,0,0,1,.4.63c-.21.06-.85-.37-.83-.65S24.29,51.63,24.48,51.9Z"/><path class="cls-4" d="M18.8,50.48c-.08.09-.14.09-.21.05-.26,0-.74,0-.54-.31S18.73,50.26,18.8,50.48Z"/><path class="cls-4" d="M26.64,50.2a.53.53,0,0,1,0,.22c-.32.11-1.14,0-.87-.51S26.54,49.83,26.64,50.2Z"/><path class="cls-4" d="M25.52,48.84h0c.2,0,.32.07.33.27a.39.39,0,0,1-.55-.22A.41.41,0,0,1,25.52,48.84Z"/><path class="cls-5" d="M24.47,60.16c1.17.86-4.8,5.19-8.69,5a11.44,11.44,0,0,1-9.4-6c-1-2.15-.67-8.23.62-7.81.45.15-.11,2.22,1.78,5.35C10.43,59.49,13.25,62.2,17,62,22.1,61.76,23.69,59.59,24.47,60.16Z"/><path class="cls-6" d="M11.65,45.1a.55.55,0,0,1,.48.84c-.32.8-2.27,2.1-2.83,1.88s-.58-.87.23-1.5A4.73,4.73,0,0,1,11.65,45.1Z"/><path class="cls-6" d="M10.63,46.17S8.37,43.83,7.73,43a39.9,39.9,0,0,1-2.14-4.22s-.2-.3-.48-.25-.2.47-.2.47,1.58,3.23,2.22,4.12c1.3,1.8,3,3.77,3,3.77Z"/><path class="cls-6" d="M6.69,41.76l3.73-.47.14.22-1.86.3-1.85.3Z"/><path class="cls-6" d="M14.46,46C18.32,47,24,44.2,24,44.2s-3.8-4.43-7.06-4.77S8,41.7,8,41.7A13.5,13.5,0,0,0,14.46,46Z"/><path class="cls-7" d="M11.62,45.34a.8.8,0,0,1,.08.79,4.09,4.09,0,0,1-1.4,1.11l-.09-.7s.3-.21.33-.38a.39.39,0,0,0,0-.27Z"/><path class="cls-7" d="M9.28,41.8a30.48,30.48,0,0,1,6.46.06c3,.43,7.51,1.86,7.46,2.07s-4.95-1.64-7.37-1.8-6.73,0-6.73,0Z"/><path class="cls-7" d="M10.79,41.91a3.28,3.28,0,0,0,.63,1.17,8.7,8.7,0,0,1,1.08,1.69,10.55,10.55,0,0,1-1.25-1.57c-.35-.53-.81-1.27-.81-1.27Z"/><path class="cls-7" d="M13.79,41.93a5.29,5.29,0,0,0,.66,1.91c.66,1.36.93,1.76.77,1.79s-.66-1-1-1.74-.85-2-.85-2Z"/><path class="cls-7" d="M16.71,42.21a3.65,3.65,0,0,0,.23,1.42c.29,1,.66,1.57.52,1.64s-.48-.87-.68-1.59-.5-1.63-.5-1.63Z"/><path class="cls-7" d="M19.84,43a2.39,2.39,0,0,0,.16.84c.18.51.47,1,.39,1a1.84,1.84,0,0,1-.54-.92c-.13-.46-.27-1-.27-1Z"/><path class="cls-7" d="M10.44,41.83a4.38,4.38,0,0,1,1.13-1.09A3.41,3.41,0,0,1,13,40.15c.07.07-.83.32-1.15.53a12.62,12.62,0,0,0-1.19,1.14Z"/><path class="cls-7" d="M13.52,41.74a2.91,2.91,0,0,1,.92-1.23,4.56,4.56,0,0,1,2.06-.8c.19.06-1.51.49-1.89.87a4.1,4.1,0,0,0-.69,1.2Z"/><path class="cls-7" d="M16.28,42.05A6.6,6.6,0,0,1,17.66,41a5.58,5.58,0,0,1,1.66-.42c.2,0-1.27.33-1.69.62a9.06,9.06,0,0,0-1,1Z"/><path class="cls-7" d="M19.85,42.86s0-.24.73-.5,1.06-.43.92-.43a4.69,4.69,0,0,0-.91.24,5.66,5.66,0,0,0-1.08.61Z"/><path class="cls-8" d="M9.58,64.8c1.21,4.8,4.31,16.83,6.17,21.38,2.36,5.73,1.26,8.24,9,9,6.68.67,20.45.36,26.27.21,5.82.15,19.6.46,26.28-.21,7.78-.79,6.68-3.3,9-9,1.87-4.55,5.22-18.45,6.42-23.25Z"/><path class="cls-9" d="M95.06,60.58c-.63-2.28-4.19-1.78-5.9-1.7-.58,0-1.17,0-1.75,0-2.93.06-5.85.09-8.77.13-3.31,0-42.61.84-45.88,1L23,60.33c-2.87.1-5.73.2-8.6.28-.57,0-1.15,0-1.72,0-1.68,0-5.2-.33-5.71,1.93A2.32,2.32,0,0,0,8.72,65.4a14.82,14.82,0,0,0,3.39-.1C15.38,65.1,18.67,65,22,65l9.94-.24L42,64.5c1.23,0,7.54-.08,9.09-.11l8.48-.21,10.28-.26L80,63.7c3.34-.08,6.69-.18,10-.12a15.22,15.22,0,0,0,3.44-.06A2.37,2.37,0,0,0,95.06,60.58Z"/><path class="cls-10" d="M14.09,65.15c-.84-.13-1.05-1.36-1.12-2A4.39,4.39,0,0,1,13.43,61a0,0,0,0,0-.07,0,3.25,3.25,0,0,0-.53,2.72,4,4,0,0,0,.17.63A2.62,2.62,0,0,1,13,61a.06.06,0,0,0-.09-.07,2.88,2.88,0,0,0,.52,4.14h.06a.79.79,0,0,0,.6.25C14.19,65.33,14.18,65.16,14.09,65.15Z"/><path class="cls-10" d="M14.22,65a3.39,3.39,0,0,1-.1-4,.06.06,0,0,0-.09-.08,3.08,3.08,0,0,0-.79,2.07,2.88,2.88,0,0,0,.87,2.15C14.18,65.11,14.27,65,14.22,65Z"/><path class="cls-10" d="M24.13,65a5.29,5.29,0,0,1-.8-4.76.06.06,0,1,0-.11-.05c-.69,1.46-.73,4,.77,5A.1.1,0,0,0,24.13,65Z"/><path class="cls-10" d="M25,65a5.25,5.25,0,0,1-.77-4.67s-.06-.08-.08,0a4,4,0,0,0-.39,2.44c0,.15.06.32.09.49-.07-.15-.15-.31-.21-.47a3.71,3.71,0,0,1,.11-2.46.07.07,0,0,0-.12,0c-.63,1.38-.63,3.39.7,4.4l.05,0a1.93,1.93,0,0,0,.45.49C24.9,65.23,25.05,65.1,25,65Z"/><path class="cls-10" d="M37.33,64.51a6.78,6.78,0,0,1-.93-2.28,4.29,4.29,0,0,1,.21-1.95c0-.13.2-.35.17-.51a.07.07,0,0,0-.07-.06c-.52.1-.71,1.65-.7,2.06a3.32,3.32,0,0,0,1.22,2.83C37.28,64.63,37.37,64.58,37.33,64.51Z"/><path class="cls-10" d="M38.38,64.48c-.85-1.33-1.58-3-1-4.6,0-.08-.07-.11-.11-.05-.72,1.3-.48,4,.95,4.8C38.36,64.69,38.43,64.55,38.38,64.48Z"/><path class="cls-10" d="M52,61.4c-.09-.65,0-1.25,0-1.88,0-.09-.11-.09-.14,0a4.27,4.27,0,0,0,.55,4,.07.07,0,0,0,.11-.07A11.35,11.35,0,0,1,52,61.4Z"/><path class="cls-10" d="M51.94,64.28a8.93,8.93,0,0,1-.86-4.71c0-.1-.12-.11-.14,0a6,6,0,0,0,0,2.6,4.9,4.9,0,0,0,.79,2.25A.12.12,0,0,0,51.94,64.28Z"/><path class="cls-10" d="M51.51,64.47a9.68,9.68,0,0,1-.81-2.28,12,12,0,0,1,0-2.54.08.08,0,1,0-.15,0c-.29,1.51-.52,3.85.77,5C51.4,64.73,51.57,64.59,51.51,64.47Z"/><path class="cls-10" d="M60.51,60.57c0-.34.07-1.15-.16-1.41,0,0-.09,0-.09,0a6.74,6.74,0,0,0,.43,3.67c0,.06.13,0,.12,0C60.72,62.07,60.57,61.33,60.51,60.57Z"/><path class="cls-10" d="M61.51,61.52c0-.78.05-1.56,0-2.33a.08.08,0,0,0-.16,0A9.28,9.28,0,0,0,61.65,64c0,.06.11,0,.1,0C61.7,63.18,61.56,62.35,61.51,61.52Z"/><path class="cls-10" d="M60.92,61.32c-.06-.65,0-1.31,0-2,0-.08-.13-.07-.15,0a6.23,6.23,0,0,0,.44,4.15s.1,0,.09,0A13,13,0,0,1,60.92,61.32Z"/><path class="cls-10" d="M69.36,61.46a15.62,15.62,0,0,0,0-2.37c0-.09-.16-.1-.17,0-.13,1.51-.5,3.72.56,5a.12.12,0,0,0,.2-.12A10.29,10.29,0,0,1,69.36,61.46Z"/><path class="cls-10" d="M70.13,61.69c-.07-.84.09-1.65.08-2.48,0-.11-.15-.09-.17,0-.33,1.37-.73,3.79.43,4.91.07.07.22,0,.2-.12A12.93,12.93,0,0,1,70.13,61.69Z"/><path class="cls-10" d="M82.2,61.71c0-.87-.21-2.4-1-2.94a.06.06,0,0,0-.09.07,9.11,9.11,0,0,1,.62,2.62c.08.74-.28,1.53-.17,2.22,0,.07.1.14.17.1C82.33,63.45,82.21,62.28,82.2,61.71Z"/><path class="cls-10" d="M82.25,58.85a.1.1,0,0,0-.18.1,7,7,0,0,1,.38,4.49c0,.07.06.14.11.07A4.14,4.14,0,0,0,82.25,58.85Z"/><path class="cls-10" d="M92.55,60.55a2.78,2.78,0,0,0-.77-2c-.09-.07-.2,0-.14.14.87,1.32.61,3.21.42,4.67a.15.15,0,0,0,.29.08A7.09,7.09,0,0,0,92.55,60.55Z"/><path class="cls-10" d="M91.44,58.58a.09.09,0,0,0-.16.09A12.12,12.12,0,0,1,91.74,60a10.43,10.43,0,0,1,.12,1.48.15.15,0,0,0,.3,0A3.81,3.81,0,0,0,91.44,58.58Z"/><path class="cls-11" d="M95.06,60.58a2,2,0,0,0-.71-1.07A2.09,2.09,0,0,1,93,60.62a15.46,15.46,0,0,1-3.4.05c-3.3-.05-6.61,0-9.91.12l-10,.22-10.15.25-8.37.2c-1.53,0-7.75.09-9,.11l-10,.22-9.8.23c-3.24.08-6.49.14-9.72.34a14.94,14.94,0,0,1-3.34.1,2.05,2.05,0,0,1-1.47-1.13A2,2,0,0,0,7,62.59,2.32,2.32,0,0,0,8.72,65.4a14.82,14.82,0,0,0,3.39-.1C15.38,65.1,18.67,65,22,65l9.94-.24L42,64.5c1.23,0,7.54-.08,9.09-.11l8.48-.21,10.28-.26L80,63.7c3.34-.08,6.69-.18,10-.12a15.22,15.22,0,0,0,3.44-.06A2.37,2.37,0,0,0,95.06,60.58Z"/><path class="cls-11" d="M82.11,62.75,71.24,63l-11,.27-9.11.22c-1.67,0-8.44.1-9.77.12l-10.84.24-10.68.26c-3.52.09-7,.15-10.57.37-.57,0-1.16.11-1.75.15a2,2,0,0,0,1.25.77,14.82,14.82,0,0,0,3.39-.1C15.38,65.1,18.67,65,22,65l9.94-.24L42,64.5c1.23,0,7.54-.08,9.09-.11l8.48-.21,10.28-.26L80,63.7c3.34-.08,6.69-.18,10-.12a15.22,15.22,0,0,0,3.44-.06,2,2,0,0,0,1.22-.82c-.6,0-1.2-.07-1.78-.07C89.3,62.57,85.71,62.67,82.11,62.75Z"/><g class="cls-12"><path class="cls-13" d="M9.77,61.12a3.06,3.06,0,0,0-1.27.14.16.16,0,0,0,0,.32,4.19,4.19,0,0,0,.5,0,6.48,6.48,0,0,0,.77-.09A.17.17,0,0,0,9.77,61.12Z"/><path class="cls-13" d="M11.11,60.94a1.1,1.1,0,0,0-.54,0,.16.16,0,0,0,0,.31,1.1,1.1,0,0,0,.54,0A.16.16,0,0,0,11.11,60.94Z"/><path class="cls-13" d="M22.45,60.73a26.2,26.2,0,0,0-4.06,0,20.78,20.78,0,0,0-3.7.21.06.06,0,0,0,0,.11,18.28,18.28,0,0,0,3.47.07A35.87,35.87,0,0,0,22.44,61,.14.14,0,0,0,22.45,60.73Z"/><path class="cls-13" d="M34.56,60.54a21.18,21.18,0,0,0-4.21.05c-1.69,0-3.36,0-5,.15-.07,0-.07.12,0,.13,1.56.09,3.14.17,4.71.19a21.5,21.5,0,0,0,4.54-.18A.17.17,0,0,0,34.56,60.54Z"/><path class="cls-13" d="M49.84,60a37.69,37.69,0,0,0-5.52.06,32.49,32.49,0,0,0-5.41.3c-.08,0-.09.15,0,.15,1.72,0,3.4.1,5.12,0a46.88,46.88,0,0,0,5.81-.21A.18.18,0,0,0,49.84,60Z"/><path class="cls-13" d="M58.73,59.91a24.87,24.87,0,0,0-2.59,0c-.89,0-1.81.16-2.69.14a.07.07,0,0,0,0,.14,12.16,12.16,0,0,0,2.34.07,22.48,22.48,0,0,0,3,0A.15.15,0,0,0,58.73,59.91Z"/><path class="cls-13" d="M68.39,59.84c-1.85-.34-3.75.06-5.6,0-.07,0-.08.08,0,.1a14.53,14.53,0,0,0,2.8.14,13.89,13.89,0,0,0,2.81,0A.12.12,0,0,0,68.39,59.84Z"/><path class="cls-13" d="M79.09,59.67c-2.74-.3-5.49,0-8.24-.08-.18,0-.22.27,0,.29a23.73,23.73,0,0,0,3.77.13c1.5-.1,3,0,4.51-.15A.1.1,0,0,0,79.09,59.67Z"/><path class="cls-13" d="M81.08,59.62a1.63,1.63,0,0,0-1.15-.13c-.16,0-.18.29,0,.3a4.93,4.93,0,0,0,1.08.09C81.12,59.86,81.2,59.69,81.08,59.62Z"/><path class="cls-13" d="M90,59.18a30.18,30.18,0,0,0-6.23.16s-.05.08,0,.08a32.42,32.42,0,0,0,6.23,0A.11.11,0,0,0,90,59.18Z"/><path class="cls-13" d="M93.8,59.32a1.51,1.51,0,0,0-.93-.19c-.14,0-.13.22,0,.24.29,0,.55.14.84.16C93.82,59.53,93.91,59.39,93.8,59.32Z"/></g><path class="cls-10" d="M15,74.72a21.05,21.05,0,0,1-.83-3.09,23.13,23.13,0,0,1-.09-3c0-.12-.16-.1-.19,0a10.19,10.19,0,0,0,.8,6.22C14.73,75,15,74.91,15,74.72Z"/><path class="cls-10" d="M17.44,75.47a11.68,11.68,0,0,1-1.17-3,21.74,21.74,0,0,1-.18-3.13c0-.16-.27-.16-.29,0-.17,2.21-.18,4.53,1.35,6.32C17.27,75.77,17.53,75.64,17.44,75.47Z"/><path class="cls-10" d="M19.52,74.45a17.92,17.92,0,0,1-.84-2.6,16.78,16.78,0,0,1-.15-3,.14.14,0,0,0-.28,0,8.51,8.51,0,0,0,1,5.77C19.36,74.76,19.58,74.61,19.52,74.45Z"/><path class="cls-10" d="M19.7,89.34a17.89,17.89,0,0,1-1.26-5,.08.08,0,1,0-.15,0,10.77,10.77,0,0,0,1.21,5.07C19.57,89.57,19.76,89.46,19.7,89.34Z"/><path class="cls-10" d="M21.9,88.88a18,18,0,0,1-1-3.11,9.16,9.16,0,0,0-.46-2.34.12.12,0,0,0-.22.06c.16.87.22,1.77.37,2.65A9.71,9.71,0,0,0,21.62,89,.15.15,0,0,0,21.9,88.88Z"/><path class="cls-10" d="M24.3,89.41A17.36,17.36,0,0,1,23,83.9c0-.17-.31-.18-.32,0a11.2,11.2,0,0,0,1.24,5.66C24.06,89.77,24.4,89.64,24.3,89.41Z"/><path class="cls-10" d="M25.79,82.47a10.34,10.34,0,0,1-1.15-2.89,32.81,32.81,0,0,1-.44-3.43c0-.12-.21-.13-.22,0a10.09,10.09,0,0,0,1.53,6.48C25.62,82.78,25.88,82.63,25.79,82.47Z"/><path class="cls-10" d="M27.6,82.81a25.48,25.48,0,0,1-1-3.29c-.2-1-.26-2.1-.44-3.15a.12.12,0,0,0-.24,0c.26,2.3.37,4.41,1.46,6.5A.12.12,0,0,0,27.6,82.81Z"/><path class="cls-10" d="M29.79,81.63a29.18,29.18,0,0,1-1-4.09.11.11,0,0,0-.21,0,9.51,9.51,0,0,0,1,4.21A.15.15,0,0,0,29.79,81.63Z"/><path class="cls-10" d="M30,76.43a22.06,22.06,0,0,1-.67-2.54c-.15-1-.25-2.1-.38-3.14a.13.13,0,0,0-.26,0,15.07,15.07,0,0,0,1,5.73C29.75,76.65,30,76.6,30,76.43Z"/><path class="cls-10" d="M32.59,76.48a15.67,15.67,0,0,1-1.08-3.06A18.84,18.84,0,0,0,31,70.85a.09.09,0,0,0-.18.05c.37,2,.3,4,1.47,5.76A.18.18,0,0,0,32.59,76.48Z"/><path class="cls-10" d="M33.73,70.83a.07.07,0,0,0-.14,0,43.12,43.12,0,0,0,1,5.15c0,.14.28.08.25-.07C34.58,74.24,34.21,72.5,33.73,70.83Z"/><path class="cls-10" d="M44.1,80.25a.1.1,0,0,0-.19,0,11,11,0,0,0,.2,5.13c0,.18.36.1.32-.09A16.54,16.54,0,0,1,44.1,80.25Z"/><path class="cls-10" d="M45.85,80.47c0-.18-.32-.18-.33,0a15.61,15.61,0,0,0,.61,5.81.15.15,0,0,0,.29-.08A44,44,0,0,1,45.85,80.47Z"/><path class="cls-10" d="M49.85,85.54a22,22,0,0,1-1.15-5.68c0-.18-.27-.13-.27,0a12.79,12.79,0,0,0,1.11,5.77A.17.17,0,0,0,49.85,85.54Z"/><path class="cls-10" d="M51.24,74c0-.09-.17-.09-.17,0a26.94,26.94,0,0,0,.33,6.53.14.14,0,0,0,.28,0A64.3,64.3,0,0,1,51.24,74Z"/><path class="cls-10" d="M53.73,73.43c0-.15-.2-.17-.23,0a13.72,13.72,0,0,0-.09,6.34.14.14,0,0,0,.27,0A29.21,29.21,0,0,1,53.73,73.43Z"/><path class="cls-10" d="M56.11,76.33c-.08-1.16,0-2.33,0-3.48,0-.15-.23-.14-.25,0a13.55,13.55,0,0,0,.66,7.25A.15.15,0,0,0,56.8,80,35.76,35.76,0,0,1,56.11,76.33Z"/><path class="cls-10" d="M67.1,81c.1-1.17.39-2.34.56-3.51a.11.11,0,0,0-.22,0c-.58,2.45-1.19,4.82-.57,7.32a.2.2,0,0,0,.39-.05A17.25,17.25,0,0,1,67.1,81Z"/><path class="cls-10" d="M69.5,78.61a.14.14,0,0,0-.28,0A18.06,18.06,0,0,0,69,85.2a.15.15,0,0,0,.3,0A41,41,0,0,1,69.5,78.61Z"/><path class="cls-10" d="M72.46,80.7a26.8,26.8,0,0,0,.14-3.1c0-.13-.21-.1-.21,0,0,1.12-.29,2.26-.36,3.38a13.39,13.39,0,0,0,.15,3.35.16.16,0,0,0,.31,0C72.45,83.11,72.42,81.91,72.46,80.7Z"/><path class="cls-10" d="M82.44,77.91a16.32,16.32,0,0,0-.88,6.61.12.12,0,0,0,.24,0c.08-1.1.07-2.2.21-3.3s.54-2.18.6-3.27C82.61,77.86,82.47,77.81,82.44,77.91Z"/><path class="cls-10" d="M84.59,78.25c-.37,2.37-1,4.69-.74,7.12,0,.21.37.22.38,0a36.28,36.28,0,0,1,.2-3.76c.12-1.11.39-2.21.42-3.33A.13.13,0,0,0,84.59,78.25Z"/><path class="cls-10" d="M73.56,88.54c0-.78.16-1.56.18-2.34a.08.08,0,0,0-.15,0,6.36,6.36,0,0,0-.34,2.34,9.43,9.43,0,0,0,.23,2.75c0,.18.32.15.29,0A14,14,0,0,1,73.56,88.54Z"/><path class="cls-10" d="M75.89,86.39c0-.11-.14-.14-.19,0a8,8,0,0,0-.07,5.07.14.14,0,0,0,.27-.07A12.5,12.5,0,0,1,75.89,86.39Z"/><path class="cls-10" d="M78.39,86.46a.11.11,0,0,0-.22,0,17.2,17.2,0,0,0,.1,4.7.18.18,0,0,0,.35,0C78.44,89.57,78.59,88,78.39,86.46Z"/><path class="cls-10" d="M75.31,73.31c.07-1,.31-1.9.47-2.86a.08.08,0,0,0-.16,0c-.49,2.09-1,4.08-.29,6.2,0,.12.24.06.22-.06A13.75,13.75,0,0,1,75.31,73.31Z"/><path class="cls-10" d="M78.19,73.35c0-.88.18-1.75.18-2.64,0-.13-.23-.13-.23,0-.15,2.12-.67,4.16,0,6.26.05.19.34.1.32-.09A19.76,19.76,0,0,1,78.19,73.35Z"/><path class="cls-10" d="M81.3,70.81c0-.17-.26-.21-.27,0-.11,2.08-.76,4.14-.37,6.24A.15.15,0,0,0,81,77,60.43,60.43,0,0,1,81.3,70.81Z"/><path class="cls-10" d="M32.92,65.75a19.22,19.22,0,0,1-5.35.46c-.09,0-.1.12,0,.14A9.84,9.84,0,0,0,33,66.07C33.18,66,33.11,65.71,32.92,65.75Z"/><path class="cls-10" d="M33.72,67.6c-1.91.38-4.16,1-6.12.51-.07,0-.1.1,0,.13a6.28,6.28,0,0,0,2.66.33,9.64,9.64,0,0,0,3.57-.68C34,67.82,33.89,67.56,33.72,67.6Z"/><path class="cls-10" d="M27.3,70.58a13.61,13.61,0,0,1-5.05.1c-.07,0-.11.1,0,.13a7.29,7.29,0,0,0,5.16.09C27.55,70.82,27.49,70.54,27.3,70.58Z"/><path class="cls-10" d="M27.63,73.09a21.23,21.23,0,0,1-5.1.14c-.09,0-.13.13,0,.15a9.81,9.81,0,0,0,5.24.08C28,73.4,27.84,73.06,27.63,73.09Z"/><path class="cls-10" d="M27.45,75.31a17.74,17.74,0,0,1-4.77-.12c-.09,0-.12.12,0,.15a7.28,7.28,0,0,0,4.89.24C27.69,75.53,27.61,75.3,27.45,75.31Z"/><path class="cls-10" d="M36.28,77a23,23,0,0,1-6.13.73c-.2,0-.25.3,0,.32a14,14,0,0,0,6.27-.7A.18.18,0,0,0,36.28,77Z"/><path class="cls-10" d="M35.73,79.88a18.73,18.73,0,0,1-5.49.24.14.14,0,0,0-.07.26,9.83,9.83,0,0,0,5.66-.13A.19.19,0,0,0,35.73,79.88Z"/><path class="cls-10" d="M35.55,82.58c-1.5.31-3.34,1-4.88.68a.12.12,0,0,0-.06.22c1.48.51,3.62,0,5-.49A.22.22,0,0,0,35.55,82.58Z"/><path class="cls-10" d="M30.4,84.4c-1.88,0-3.76.34-5.64-.08-.07,0-.1.09,0,.12a9.79,9.79,0,0,0,5.67.29C30.56,84.69,30.61,84.4,30.4,84.4Z"/><path class="cls-10" d="M30.9,86.07a21.23,21.23,0,0,1-5.34.2c-.13,0-.15.17,0,.2a12.7,12.7,0,0,0,5.42,0A.21.21,0,0,0,30.9,86.07Z"/><path class="cls-10" d="M30.85,87.87a16,16,0,0,1-5.38.45c-.11,0-.16.16,0,.19a9.09,9.09,0,0,0,5.5-.36C31.08,88.1,31,87.85,30.85,87.87Z"/><path class="cls-10" d="M21.25,76.93c-2,0-4,.48-6,.23-.12,0-.14.16,0,.19a12.8,12.8,0,0,0,6.12-.15C21.49,77.16,21.39,76.93,21.25,76.93Z"/><path class="cls-10" d="M21,79.71c-1.55-.21-3.1-.18-4.65-.32a.1.1,0,0,0,0,.2A31.37,31.37,0,0,0,21,80C21.16,80,21.2,79.73,21,79.71Z"/><path class="cls-10" d="M21.37,82.08a26.63,26.63,0,0,1-4.64.12.13.13,0,0,0,0,.26,9.11,9.11,0,0,0,4.75-.13A.13.13,0,0,0,21.37,82.08Z"/><path class="cls-10" d="M48.74,75.26c-2.16.07-4.27.15-6.43,0a.08.08,0,0,0,0,.16,17.43,17.43,0,0,0,6.48,0A.13.13,0,0,0,48.74,75.26Z"/><path class="cls-10" d="M50,77.45c-1.38,0-2.76.18-4.15.23a33.56,33.56,0,0,1-3.87-.2.09.09,0,0,0,0,.18,22.39,22.39,0,0,0,8.08.08A.15.15,0,0,0,50,77.45Z"/><path class="cls-10" d="M49.2,79.36a39,39,0,0,1-7.4.14.08.08,0,0,0,0,.16,13.44,13.44,0,0,0,3.23.21,23.84,23.84,0,0,0,4.22-.31A.1.1,0,0,0,49.2,79.36Z"/><path class="cls-10" d="M56,68.18c-1,0-1.89.1-2.85.08s-1.81-.16-2.69-.26a.06.06,0,0,0,0,.12,13.08,13.08,0,0,0,5.56.36C56.11,68.44,56.13,68.18,56,68.18Z"/><path class="cls-10" d="M55.82,69.79a21.65,21.65,0,0,1-5.63-.21c-.08,0-.12.12,0,.16a11.13,11.13,0,0,0,5.7.28A.12.12,0,0,0,55.82,69.79Z"/><path class="cls-10" d="M56.3,71.26a19.61,19.61,0,0,1-7.44.26c-.09,0-.1.1,0,.12a14.09,14.09,0,0,0,7.54-.09C56.54,71.5,56.46,71.23,56.3,71.26Z"/><path class="cls-10" d="M73.87,71.5a21.92,21.92,0,0,1-4,.16,25.57,25.57,0,0,1-3.48-.6.1.1,0,0,0-.06.19,12.78,12.78,0,0,0,7.56.57A.16.16,0,0,0,73.87,71.5Z"/><path class="cls-10" d="M73.09,73.83A20.54,20.54,0,0,1,67,73.57c-.1,0-.14.15,0,.18a11.27,11.27,0,0,0,6.14.42A.17.17,0,0,0,73.09,73.83Z"/><path class="cls-10" d="M74.16,75.89a15.33,15.33,0,0,1-7.67.36c-.18,0-.2.23,0,.27a12.2,12.2,0,0,0,7.85-.31C74.5,76.12,74.37,75.83,74.16,75.89Z"/><path class="cls-10" d="M88.5,70.63a38.5,38.5,0,0,1-5.26-.21c-.12,0-.14.16,0,.19A19.06,19.06,0,0,0,88.5,71C88.7,71,88.7,70.63,88.5,70.63Z"/><path class="cls-10" d="M87.34,72.72a14.52,14.52,0,0,1-4,.07.11.11,0,0,0,0,.22,9.9,9.9,0,0,0,4,0A.16.16,0,0,0,87.34,72.72Z"/><path class="cls-10" d="M86.86,75.46a10.55,10.55,0,0,1-4.43.33c-.11,0-.16.15-.05.19a6.3,6.3,0,0,0,4.56-.21C87.1,75.7,87,75.43,86.86,75.46Z"/><path class="cls-10" d="M80.05,77.92a23.7,23.7,0,0,1-5.19,0c-.1,0-.15.15,0,.18a9.16,9.16,0,0,0,2.45.26,15.73,15.73,0,0,0,2.83-.1A.18.18,0,0,0,80.05,77.92Z"/><path class="cls-10" d="M79.58,81a31.44,31.44,0,0,1-5.57-.5c-.15,0-.21.21-.07.25a17,17,0,0,0,5.64.6C79.78,81.38,79.78,81,79.58,81Z"/><path class="cls-10" d="M79.43,84.13A16.85,16.85,0,0,1,74,83.75a.13.13,0,0,0-.07.25,11.67,11.67,0,0,0,5.56.49A.18.18,0,0,0,79.43,84.13Z"/><g class="cls-14"><path class="cls-8" d="M55.67,68.63c.25,0,.5.37.24.58a3.7,3.7,0,0,1-2.15.49,7.84,7.84,0,0,1-2.84-.46.3.3,0,0,1-.14-.1c-.34-.13-.16-.69.24-.63a16.43,16.43,0,0,0,2.8.22A14.34,14.34,0,0,1,55.67,68.63Z"/><path class="cls-8" d="M53.08,80.09a.31.31,0,0,1-.13.36.33.33,0,0,1-.6.06,8,8,0,0,1-.8-4.15c0-.69,0-2.18.77-2.49a.37.37,0,0,1,.33.09c.38.33.26,1.1.2,1.54A10.77,10.77,0,0,0,53.08,80.09Z"/><path class="cls-8" d="M51.14,71.42c-.53,0-1.42-.34-1.58-.93-.21-.23.1-.67.44-.5,1.61.78,3.64.57,5.36.42.39,0,.45.56.09.66A12.77,12.77,0,0,1,51.14,71.42Z"/><path class="cls-8" d="M54.72,73.52a.34.34,0,0,1,.56.15,3,3,0,0,1-.18,1.86,7.78,7.78,0,0,0,0,2.68c.14.65.41,1.22.57,1.85a.34.34,0,0,1-.5.38c-1.06-.47-1.37-2.09-1.4-3.12S53.8,74.33,54.72,73.52Z"/><path class="cls-8" d="M33.4,72.68c.06.7.13,1.39.24,2.09a1.89,1.89,0,0,1-.06,1,.34.34,0,0,1-.49.2c-1-.64-1.11-2.35-1.15-3.49s0-2,.68-1.88S33.35,72.15,33.4,72.68Z"/><path class="cls-8" d="M34.67,79.57a9.37,9.37,0,0,1-4-.17.34.34,0,0,1-.18-.1.62.62,0,0,1-.14-.14.43.43,0,0,1,.12-.54.1.1,0,0,1,.05,0,.27.27,0,0,1,.28-.16,16.08,16.08,0,0,0,2.86-.14c.84-.09,1.58-.38,2.39-.5a.35.35,0,0,1,.43.32C36.56,79,35.4,79.41,34.67,79.57Z"/><path class="cls-8" d="M36,81.09c-.72,2-4.05,1.7-5.34.57a.33.33,0,0,1,.05-.51.31.31,0,0,1,.4-.27,6.55,6.55,0,0,0,2.82.14c.45-.06,1.48-.59,1.91-.31A.34.34,0,0,1,36,81.09Z"/><path class="cls-8" d="M29.49,73.08c0-.66-.2-1.63.33-2.13a.33.33,0,0,1,.41,0c.57.38.4,1.47.46,2,.1.92.64,1.92.48,2.83a.29.29,0,0,1-.28.24.26.26,0,0,1-.36-.07A5.05,5.05,0,0,1,29.49,73.08Z"/><path class="cls-8" d="M28,66.64a9.4,9.4,0,0,0,2.85.21,9.42,9.42,0,0,1,1.83-.11.34.34,0,0,1,.15.56,4.48,4.48,0,0,1-3.22.71,3,3,0,0,1-1.93-.74.32.32,0,0,1-.06-.15A.33.33,0,0,1,28,66.64Z"/><path class="cls-8" d="M28.51,82.27c-1.54.42-1.77-4.42-1.68-5.12a.35.35,0,0,1,.33-.31.32.32,0,0,1,.51-.06,1.31,1.31,0,0,1,.39.91,13.79,13.79,0,0,0,.46,2.47C28.66,80.58,29.32,82.05,28.51,82.27Z"/><path class="cls-8" d="M27.74,74.39a1.51,1.51,0,0,1-1,.7,4.25,4.25,0,0,1-4.12-.7.32.32,0,0,1,.16-.55.27.27,0,0,1,.28-.06,11.39,11.39,0,0,0,4.43.11C27.71,73.85,27.85,74.19,27.74,74.39Z"/><path class="cls-8" d="M27.2,72.23a4.92,4.92,0,0,1-4.56.46c-.29-.15-.77-.6-.3-.88h0a.37.37,0,0,1,.42-.33,27.67,27.67,0,0,0,4.27.14A.33.33,0,0,1,27.2,72.23Z"/><path class="cls-8" d="M21.38,77.77a.34.34,0,0,1,.34.33c.1,1.3-2.17,1.18-2.94,1.14-.6,0-2.51,0-2.83-.77a.34.34,0,0,1,.28-.6C18,78.28,19.66,77.76,21.38,77.77Z"/><path class="cls-8" d="M16.48,69.84a.18.18,0,0,1,.06-.09,1.17,1.17,0,0,1,.15-.27.68.68,0,0,1,.43-.31.25.25,0,0,1,.39.11,3.27,3.27,0,0,1,.14,1.21A18.43,18.43,0,0,0,18,72.57c.09.36.5,1.38.12,1.7s-.62.13-.88-.18A4.53,4.53,0,0,1,16.48,69.84Z"/><path class="cls-8" d="M14.92,74.09c-.36-.34-.42-1.18-.5-1.64a7.28,7.28,0,0,1,0-2.55.14.14,0,0,1,0-.06.91.91,0,0,1,.44-.71c.73-.38.71,2.88.72,3.12S15.82,75,14.92,74.09Z"/><path class="cls-8" d="M20.87,89a.34.34,0,0,1-.57.24c-.92-.93-1.12-2.43-1.31-3.74,0-.17-.06-.35-.08-.53,0,0,0,0,0-.08v-.06c0-.51.1-.92.57-.92.74,0,.69,1.25.76,1.7A15.46,15.46,0,0,1,20.87,89Z"/><path class="cls-8" d="M20.91,81.48c-1.24.79-5,.7-5.6-.94a.31.31,0,0,1,.14-.36c0-.22.13-.47.4-.36,1.55.61,3.16.26,4.76.49C21.28,80.4,21.58,81.06,20.91,81.48Z"/><path class="cls-8" d="M22.35,88.82a6.64,6.64,0,0,1-1.2-4.17,2.93,2.93,0,0,1,.11-.9c.11-.39.45-.89.93-.61s.3,1,.3,1.51a10,10,0,0,0,.18,2.62,5.41,5.41,0,0,1,.25,1.31A.34.34,0,0,1,22.35,88.82Z"/><path class="cls-8" d="M24.83,77.06a.49.49,0,0,1,.69-.13,2.63,2.63,0,0,1,.31,1.47c.07,1,.39,2,.51,2.95.05.34-.47.44-.62.17A7.11,7.11,0,0,1,24.83,77.06Z"/><path class="cls-8" d="M25.52,84.83c1.23.62,2.7.16,4,.31.23,0,.45.27.29.51-.49.7-1.44.54-2.2.54s-1.95,0-2.48-.76a.26.26,0,0,1,0-.08C24.86,85.12,25.17,84.66,25.52,84.83Z"/><path class="cls-8" d="M25.07,87.14a.34.34,0,0,1,.42-.41l.19.07a.33.33,0,0,1,.22,0,21,21,0,0,0,3.8.3.34.34,0,0,1,.24.57c-.69.7-2.07.54-3,.48S25.38,88,25.07,87.14Z"/><path class="cls-8" d="M71.38,84c0,.34.06.91-.44.91s-.85-.79-1-1.14a5.67,5.67,0,0,1-.29-3.16,7.19,7.19,0,0,1,.43-1.76c.17-.44.51-1.36,1.14-1.29a.49.49,0,0,1,.38.34,2.24,2.24,0,0,1,.13.92l-.09.54c-.08.54-.15,1.09-.21,1.63a13.57,13.57,0,0,0-.09,1.91C71.32,83.3,71.35,83.67,71.38,84Z"/><path class="cls-8" d="M70.15,76.25c-1.08,0-3.5,0-3.7-1.49a.36.36,0,0,1,.12-.34.31.31,0,0,1,.41-.28,10.34,10.34,0,0,0,3.66.65,11.11,11.11,0,0,1,2.21-.18.32.32,0,0,1,.24.32C73,76.29,71.1,76.25,70.15,76.25Z"/><path class="cls-8" d="M68.48,83.62l.06,1a.34.34,0,0,1-.58.24,4.6,4.6,0,0,1-.58-3.61c.15-.86.16-2.5.89-3.11a.34.34,0,0,1,.57.24,11.7,11.7,0,0,1-.28,1.84,2.83,2.83,0,0,0,0,.29c0,.47-.1.94-.11,1.4A16.66,16.66,0,0,0,68.48,83.62Z"/><path class="cls-8" d="M70.36,73.65c-1.13-.05-2.57-.14-3.35-1.1a.27.27,0,0,1-.07-.14c-.18-.23,0-.65.33-.53a10.18,10.18,0,0,0,3.37.6,23.73,23.73,0,0,0,2.67-.32c.27,0,.39.3.29.5C73,73.77,71.42,73.71,70.36,73.65Z"/><path class="cls-8" d="M74.7,91.55a3.63,3.63,0,0,1-1-3.15c.07-.77.11-2.15.87-2.6a.35.35,0,0,1,.5.2,3.11,3.11,0,0,1,0,.61.32.32,0,0,1,.08.29A6.72,6.72,0,0,0,75,89.54a6.6,6.6,0,0,1,.23,1.72C75.2,91.49,74.92,91.72,74.7,91.55Z"/><path class="cls-8" d="M77.7,89.84a4.75,4.75,0,0,1,0,1.19c-.09.31-.33.67-.71.48C76,91,75.81,88.64,75.92,87.68a3.23,3.23,0,0,1,.88-2.2.51.51,0,0,1,.79.11A3.13,3.13,0,0,1,77.82,87a.31.31,0,0,1,0,.19A14.46,14.46,0,0,0,77.7,89.84Z"/><path class="cls-8" d="M78.19,83.52a6.42,6.42,0,0,1-3.31-.47c-1-.26-1.79-.72-1.18-1.43a.33.33,0,0,1,.33-.08l.43.15a10.63,10.63,0,0,0,2.65.23,15.68,15.68,0,0,1,2.65,0,.33.33,0,0,1,.24.23C80.17,83,78.83,83.38,78.19,83.52Z"/><path class="cls-8" d="M78.23,80.57a6.73,6.73,0,0,1-4-1.16.27.27,0,0,1-.09-.3.33.33,0,0,1,.38-.48,13.47,13.47,0,0,0,3.3.27c.86,0,1.77-.11,2.61,0a.34.34,0,0,1,.24.33C80.68,80.27,79,80.59,78.23,80.57Z"/><path class="cls-8" d="M77.5,75.31c.09.42.12,1.13-.41,1.28-1.23.34-1.48-2.73-1.48-3.33s.32-3.8,1.61-3.05a.73.73,0,0,1,.36.62.28.28,0,0,1,.13.36A7.79,7.79,0,0,0,77.5,75.31Z"/><path class="cls-8" d="M80.08,75.49c0,.37.15.79-.12,1.1a.32.32,0,0,1-.4,0c-.78-.4-.92-1.57-1-2.34a7.25,7.25,0,0,1,.45-3.67.49.49,0,0,1,.56-.27.35.35,0,0,1,.37,0c.63.25.41,1.53.19,2.45A12.3,12.3,0,0,0,80.08,75.49Z"/><path class="cls-8" d="M83.89,78.35a27.24,27.24,0,0,0-.31,4.78c0,.53,0,1.61-.64,1.79a.33.33,0,0,1-.33-.08,4.77,4.77,0,0,1-.48-3A14.53,14.53,0,0,1,83,78.32a.5.5,0,0,1,.88,0Z"/><path class="cls-8" d="M88.72,73.63c-.94,1.87-5.32,2.48-6.37.41l0-.1s0,0,0,0a.34.34,0,0,1,0-.1v0a.51.51,0,0,1,.44-.55h.09a.67.67,0,0,1,.39.08,9.16,9.16,0,0,0,5.16-.17C88.64,73,88.84,73.38,88.72,73.63Z"/><path class="cls-8" d="M83,71.27a.33.33,0,0,1,.41-.31,18.44,18.44,0,0,0,4.92.23.34.34,0,0,1,.24.57,4.89,4.89,0,0,1-5.57,0A.31.31,0,0,1,83,71.27Z"/><path class="cls-8" d="M48.88,85.7c.12.4-.16,1-.66.85-1.84-.5-2.2-3.38-2.06-4.93.06-.59.17-1.39.8-1.65.43-.18,1-.17,1.15.38a3.61,3.61,0,0,1,0,1.6A9.58,9.58,0,0,0,48.88,85.7Z"/><path class="cls-8" d="M44.72,79.23A4.43,4.43,0,0,1,42,78.55a.29.29,0,0,1-.09-.28c-.09-.23.08-.55.38-.44,2.23.8,4.41.28,6.7.3a.34.34,0,0,1,.09.66A12.73,12.73,0,0,1,44.72,79.23Z"/><path class="cls-8" d="M45.29,81.59a14.34,14.34,0,0,0,.34,4c0,.29-.32.63-.56.33a4.7,4.7,0,0,1-.81-2.64,6,6,0,0,1,.13-2.6.46.46,0,0,1,.87,0,1.36,1.36,0,0,1,0,.8A.33.33,0,0,1,45.29,81.59Z"/><path class="cls-8" d="M42.35,76h0a.35.35,0,0,1,.18,0,33.46,33.46,0,0,0,6.25,0,.34.34,0,0,1,.33.34c0,1.09-1.8,1-2.53,1-1.56.06-3.23.38-4.51-.74A.34.34,0,0,1,42.35,76Z"/></g><g class="cls-15"><path class="cls-8" d="M9.68,64.8c1.2,4.8,4.3,16.83,6.17,21.38,2.36,5.73,1.26,8.24,9,9,6.69.67,20.46.36,26.28.21,5.82.15,19.59.46,26.28-.21,7.77-.79,6.68-3.3,9-9,1.87-4.55,5.21-18.45,6.42-23.25ZM83.82,85.86a8.4,8.4,0,0,1-1.4,1.32c-2.73,2-6.42,2.64-9.81,2.91-1.94.15-3.88.17-5.83.19-6.83.09-13.64.66-20.47.76q-4.81.08-9.65,0c-5-.1-10.53.42-15.18-1.76a13,13,0,0,1-6.08-6.78c-1.82-4.08-5.55-14.44,3-14,2.4.13,4.76.16,7.16.18,7.4.06,14.79.26,22.19.11q3.21-.06,6.42-.22c7.56-.39,18.54-1.08,26.11-1.29,2.26-.06,5.1-.49,7.22.41C91.8,69.54,85.41,84,83.82,85.86Z"/></g><path class="cls-16" d="M37.3,70.28c-3.27,0-6.54,0-9.8,0-2.39,0-5.48-.48-7.74.31-2.89,1-1.16,4.5-.34,6.15a9.62,9.62,0,0,0,3.95,3.92C28,83.33,34.26,84,39.84,84.26c4.59.21,9.19.12,13.78-.11,6.07-.29,12.34-.2,18.27-1.44a19.33,19.33,0,0,0,13-9.37c.59-1.12,2-3.35.17-4.18-2-.91-24.41.86-33.06,1Q44.63,70.21,37.3,70.28Z"/><g class="cls-17"><path class="cls-8" d="M84.28,90c-5.26,3.84-23,3.14-26.1,3.21-6.29.14-12.58.17-18.87.14-3.17,0-15-.67-17.66-1.21a9.05,9.05,0,0,1-4.57-2.19c1,3.14,1.9,4.69,7.71,5.28,6.68.67,20.45.36,26.27.21,5.82.15,19.6.46,26.28-.21,6.34-.64,6.78-2.43,8-6.17A8.59,8.59,0,0,1,84.28,90Z"/><path class="cls-8" d="M16.44,65.64c4.4-.39,8.86-.11,13.27-.13,6.34,0,12.68-.29,19-.32s12.75.11,19.12,0,12.58-.74,18.83-.41c1.29.06,3.83,0,4.68,1.26a2.34,2.34,0,0,1,.36,1.19l1.06-4.27L9.58,64.8l.65,2.55a5,5,0,0,1,1.47-.71A14.29,14.29,0,0,1,16.44,65.64Z"/></g><path class="cls-13" d="M37.61,89.66a2.15,2.15,0,0,1-2.5-2.43,3.12,3.12,0,0,1,.36-1.51,6.31,6.31,0,0,1,1-1.32l5.24-5.48a11.25,11.25,0,0,0,1.7-2.16A3.74,3.74,0,0,0,43.89,75a2.06,2.06,0,0,0-.75-1.73A3.51,3.51,0,0,0,41,72.64a6,6,0,0,0-1.51.21,9.15,9.15,0,0,0-1.77.69,2.16,2.16,0,0,1-1.42.21,2,2,0,0,1-1.1-.65,2.28,2.28,0,0,1-.34-2.49,2.31,2.31,0,0,1,1.11-1.07,10.93,10.93,0,0,1,2.86-1.1,13.25,13.25,0,0,1,3-.35,10.25,10.25,0,0,1,4.13.73,5.37,5.37,0,0,1,2.55,2.12,6.21,6.21,0,0,1,.87,3.35,8.19,8.19,0,0,1-.38,2.48,9.18,9.18,0,0,1-1.2,2.41,18.37,18.37,0,0,1-2.21,2.6L40.67,86.6V85.18h7.41a2.32,2.32,0,0,1,1.71.57,2.26,2.26,0,0,1,.57,1.66,2,2,0,0,1-2.28,2.25Z"/><path class="cls-13" d="M59.72,90a15.24,15.24,0,0,1-3.07-.32A10.42,10.42,0,0,1,54,88.82a2.72,2.72,0,0,1-1.34-1.08,2.24,2.24,0,0,1-.3-1.37,2.42,2.42,0,0,1,.5-1.25A2,2,0,0,1,54,84.41a2.54,2.54,0,0,1,1.57.2,11.45,11.45,0,0,0,2.09.68,9.3,9.3,0,0,0,1.88.19,5.35,5.35,0,0,0,1.77-.25,2.19,2.19,0,0,0,1.09-.77,2.08,2.08,0,0,0,.36-1.23A1.74,1.74,0,0,0,62,81.68a3.89,3.89,0,0,0-2.17-.5H58.24a2.43,2.43,0,0,1-1.74-.57A2.14,2.14,0,0,1,55.9,79a2.1,2.1,0,0,1,.6-1.61,2.47,2.47,0,0,1,1.74-.55h1.12a4,4,0,0,0,1.46-.24,2.08,2.08,0,0,0,1-.72,2,2,0,0,0,.35-1.15,1.81,1.81,0,0,0-.73-1.53,3.52,3.52,0,0,0-2.13-.54,7.78,7.78,0,0,0-1.67.19,8.61,8.61,0,0,0-1.88.68,2.26,2.26,0,0,1-1.43.12,2.05,2.05,0,0,1-1.07-.71,2.37,2.37,0,0,1-.51-1.17,2.15,2.15,0,0,1,.22-1.28,2.49,2.49,0,0,1,1.19-1,11.74,11.74,0,0,1,2.73-1,13.07,13.07,0,0,1,3-.35,10.59,10.59,0,0,1,4.09.71,5.71,5.71,0,0,1,2.59,2,5.4,5.4,0,0,1,.9,3.14,5.24,5.24,0,0,1-.47,2.23,4.62,4.62,0,0,1-1.33,1.68,5.5,5.5,0,0,1-2.08,1v-.42A5.09,5.09,0,0,1,68,83.77a5.59,5.59,0,0,1-1,3.32,6.39,6.39,0,0,1-2.86,2.17A11.7,11.7,0,0,1,59.72,90Z"/></g></g></svg>