<svg xmlns="http://www.w3.org/2000/svg" viewBox="0 0 105.29 104.84"><defs><style>.cls-1{isolation:isolate;}.cls-2{fill:#ed7d03;}.cls-3{fill:#ff8c03;}.cls-4{fill:#fcbc08;}.cls-5{fill:#f28106;opacity:0.7;}.cls-6{fill:#7c6a13;}.cls-7{fill:#937b18;}.cls-8{fill:#b86313;}.cls-11,.cls-9{fill:#cc7917;}.cls-10{fill:#9e4727;}.cls-11,.cls-12,.cls-17{opacity:0.5;}.cls-11,.cls-15,.cls-17{mix-blend-mode:multiply;}.cls-13,.cls-16{fill:#fff;}.cls-14,.cls-15{opacity:0.3;}.cls-14{mix-blend-mode:screen;}.cls-16{opacity:0.1;}</style></defs><title>orange13</title><g class="cls-1"><g id="Layer_1" data-name="Layer 1"><path class="cls-2" d="M80.32,45.88c-4.72-1.6-9.7-5.64-10.85-10.73H25.25v30.2H82.56V46.5A21.86,21.86,0,0,1,80.32,45.88Z"/><path class="cls-3" d="M67.78,12c3,2.19,6.91,9.14,2.29,14.85S58.7,32.88,53.6,29.52a11.47,11.47,0,0,1-1.42-18.13C57.32,6.49,63.27,8.66,67.78,12Z"/><path class="cls-4" d="M55.29,11.16h0Z"/><path class="cls-4" d="M56,11.88c.35-.17.75-.53.42-.84s-.78,0-1.1.12C54.87,11.55,55.05,12.34,56,11.88Z"/><path class="cls-4" d="M55.31,11.15l.53-.2A.83.83,0,0,0,55.31,11.15Z"/><path class="cls-4" d="M54.35,12.68c.13-.09.31-.29.14-.43a.23.23,0,0,0-.34.07.43.43,0,0,0-.21.29C53.91,12.9,54.21,12.78,54.35,12.68Z"/><path class="cls-4" d="M56.64,12.5a.32.32,0,0,0-.33,0c-.16,0-.35.08-.39.21a.11.11,0,0,0,0,.08l-.05,0,.05,0c0,.15.38,0,.51,0S56.9,12.65,56.64,12.5Z"/><path class="cls-4" d="M55.87,12.84h0Z"/><path class="cls-4" d="M57.37,11.72c-.15,0-.32.21-.23.36s.44.09.56,0C58.2,11.82,57.56,11.61,57.37,11.72Z"/><path class="cls-4" d="M58,10.8c-.11,0-.29-.07-.37,0a.14.14,0,0,0,0,.17c0,.11.18.2.25.24s.92.32,1,.06S58.18,10.82,58,10.8Z"/><path class="cls-4" d="M57.17,10.28c.15.08.71.06.77-.16s-.31-.28-.45-.26a.5.5,0,0,0-.24.14C57.1,10.07,57,10.18,57.17,10.28Z"/><path class="cls-4" d="M54.45,11.6c.29-.21,0-.33-.22-.29h0c-.14,0-.47.15-.38.33S54.34,11.69,54.45,11.6Z"/><path class="cls-4" d="M53.23,13c.11-.12.44-.67.06-.69a.3.3,0,0,0-.2.1,1.08,1.08,0,0,0-.38.54C52.56,13.43,53,13.2,53.23,13Z"/><path class="cls-4" d="M55.28,13.14a.74.74,0,0,0-.5,0c-.29.08-.62.3-.67.51-.12.52.79.15,1,.08S55.7,13.3,55.28,13.14Z"/><path class="cls-4" d="M56.81,13.55c-.15,0-.31.17-.3.29s.52.17.67.11C57.74,13.68,57,13.43,56.81,13.55Z"/><path class="cls-4" d="M60.39,10.66a.26.26,0,0,0-.25.11.69.69,0,0,0,1,0A.61.61,0,0,0,60.39,10.66Z"/><path class="cls-4" d="M58.91,12c.32.11,1.17.16,1.24-.28a.77.77,0,0,0-.69-.08C59.2,11.64,58.92,11.73,58.91,12Z"/><path class="cls-4" d="M59.53,9.71a.45.45,0,0,0-.62-.07.3.3,0,0,0-.15.18A.6.6,0,0,0,59.53,9.71Z"/><path class="cls-4" d="M61.84,11.53c-.63,0,.18.81.53.56S62.09,11.37,61.84,11.53Z"/><path class="cls-4" d="M52.91,14.13c-.2-.16-.36,0-.47.18-.42.27-.93.9-.52,1.06S52.9,14.47,52.91,14.13Z"/><path class="cls-4" d="M51.75,13.3c-.54.11-.28,1,.23.39C52.3,13.31,52,13.19,51.75,13.3Z"/><path class="cls-4" d="M54.83,15a.28.28,0,0,0-.2.25c.2.15.74.16.87-.11S55,14.64,54.83,15Z"/><path class="cls-4" d="M59.62,13.47l0,0a.52.52,0,0,0,0,.11c0,.05,0,.1,0,.12.12.29.73.3.62-.07S59.77,13.33,59.62,13.47Z"/><path class="cls-4" d="M65.18,12.69c-.37-.5-1.12,0-.65.16C64.81,13.05,65.54,13.18,65.18,12.69Z"/><path class="cls-4" d="M52.23,17.48l.07-.13a.91.91,0,0,0-.4.63c.22.06.85-.37.84-.65S52.42,17.21,52.23,17.48Z"/><path class="cls-4" d="M57.9,16.06a.17.17,0,0,0,.22.05c.26,0,.74,0,.53-.32S58,15.84,57.9,16.06Z"/><path class="cls-4" d="M50.07,15.78A.41.41,0,0,0,50,16c.32.11,1.13,0,.86-.51S50.16,15.41,50.07,15.78Z"/><path class="cls-4" d="M51.18,14.42h0a.27.27,0,0,0-.33.27.39.39,0,0,0,.55-.22A.39.39,0,0,0,51.18,14.42Z"/><path class="cls-5" d="M52.24,25.74c-1.18.86,4.8,5.19,8.68,5a11.44,11.44,0,0,0,9.41-6c1-2.15.66-8.24-.62-7.81-.46.15.1,2.22-1.78,5.34-1.65,2.75-4.48,5.46-8.21,5.27C54.6,27.34,53,25.17,52.24,25.74Z"/><path class="cls-6" d="M65.06,10.68a.55.55,0,0,0-.49.84c.32.79,2.27,2.09,2.83,1.88s.59-.87-.23-1.5A4.76,4.76,0,0,0,65.06,10.68Z"/><path class="cls-6" d="M66.07,11.75S68.33,9.41,69,8.53A41.89,41.89,0,0,0,71.12,4.3s.2-.29.47-.24.2.47.2.47-1.58,3.23-2.21,4.11c-1.3,1.81-3,3.78-3,3.78Z"/><path class="cls-6" d="M70,7.34l-3.73-.47-.13.21L68,7.39l1.85.3Z"/><path class="cls-6" d="M62.24,11.55c-3.85,1-9.55-1.77-9.55-1.77S56.5,5.34,59.76,5s8.93,2.27,8.93,2.27A13.5,13.5,0,0,1,62.24,11.55Z"/><path class="cls-7" d="M65.09,10.92a.81.81,0,0,0-.09.79,4.09,4.09,0,0,0,1.4,1.11l.1-.7s-.3-.21-.33-.38a.39.39,0,0,1,0-.27Z"/><path class="cls-7" d="M67.43,7.38A29.75,29.75,0,0,0,61,7.44c-3,.43-7.52,1.86-7.46,2.06s4.94-1.63,7.36-1.8,6.74,0,6.74,0Z"/><path class="cls-7" d="M65.91,7.49a3.34,3.34,0,0,1-.62,1.17,8.47,8.47,0,0,0-1.09,1.69,10.44,10.44,0,0,0,1.25-1.57c.36-.53.82-1.27.82-1.27Z"/><path class="cls-7" d="M62.91,7.51a5,5,0,0,1-.66,1.91c-.66,1.36-.92,1.76-.76,1.79s.66-1,1-1.74.85-2,.85-2Z"/><path class="cls-7" d="M60,7.78a3.69,3.69,0,0,1-.23,1.43c-.3,1-.66,1.57-.52,1.64s.48-.87.68-1.59.5-1.63.5-1.63Z"/><path class="cls-7" d="M56.86,8.53a2.07,2.07,0,0,1-.16.83c-.18.52-.47,1-.38,1a1.93,1.93,0,0,0,.53-.92l.28-1Z"/><path class="cls-7" d="M66.27,7.41a4.38,4.38,0,0,0-1.13-1.09,3.53,3.53,0,0,0-1.46-.6c-.08.07.83.33,1.15.54A12.23,12.23,0,0,1,66,7.4Z"/><path class="cls-7" d="M63.19,7.32a2.91,2.91,0,0,0-.92-1.23,4.48,4.48,0,0,0-2.06-.8c-.2.06,1.5.49,1.88.86a4.23,4.23,0,0,1,.69,1.21Z"/><path class="cls-7" d="M60.43,7.63A6.75,6.75,0,0,0,59,6.54a5.51,5.51,0,0,0-1.66-.42c-.19,0,1.28.33,1.69.62a9.48,9.48,0,0,1,1,1Z"/><path class="cls-7" d="M56.86,8.44s0-.25-.73-.5-1.07-.43-.92-.43a4.16,4.16,0,0,1,.91.24,5.61,5.61,0,0,1,1.07.6Z"/><path class="cls-3" d="M48,13.09c3,2.19,6.91,9.14,2.29,14.85S39,34,33.86,30.64A11.49,11.49,0,0,1,32.43,12.5C37.58,7.61,43.53,9.77,48,13.09Z"/><path class="cls-4" d="M35.54,12.27h0Z"/><path class="cls-4" d="M36.24,13c.35-.17.74-.53.41-.84s-.78,0-1.09.12C35.12,12.67,35.3,13.45,36.24,13Z"/><path class="cls-4" d="M35.56,12.27l.53-.21A.82.82,0,0,0,35.56,12.27Z"/><path class="cls-4" d="M34.6,13.8c.14-.1.31-.3.14-.44a.22.22,0,0,0-.33.07.44.44,0,0,0-.22.29C34.16,14,34.47,13.9,34.6,13.8Z"/><path class="cls-4" d="M36.89,13.62a.3.3,0,0,0-.33,0c-.16,0-.35.08-.38.21a.25.25,0,0,0,0,.08l0,0,0,0c0,.15.39,0,.51,0S37.16,13.76,36.89,13.62Z"/><path class="cls-4" d="M36.13,14h0Z"/><path class="cls-4" d="M37.62,12.83c-.15.05-.32.22-.23.36s.44.09.56,0C38.46,12.93,37.81,12.72,37.62,12.83Z"/><path class="cls-4" d="M38.25,11.91c-.1,0-.29-.06-.37,0a.15.15,0,0,0,0,.18c0,.1.18.19.26.23s.91.32,1,.06S38.44,11.94,38.25,11.91Z"/><path class="cls-4" d="M37.42,11.39c.16.08.71.06.77-.16s-.3-.28-.45-.26a.55.55,0,0,0-.24.14C37.35,11.18,37.24,11.29,37.42,11.39Z"/><path class="cls-4" d="M34.7,12.71c.29-.21,0-.33-.22-.29h0c-.13,0-.46.14-.37.32S34.59,12.8,34.7,12.71Z"/><path class="cls-4" d="M33.48,14.1c.11-.13.44-.67.06-.69a.21.21,0,0,0-.19.1A1.08,1.08,0,0,0,33,14C32.81,14.54,33.29,14.31,33.48,14.1Z"/><path class="cls-4" d="M35.53,14.25a.74.74,0,0,0-.5,0,1,1,0,0,0-.67.52c-.12.51.79.14,1,.08S36,14.41,35.53,14.25Z"/><path class="cls-4" d="M37.06,14.66c-.15.05-.3.17-.3.29s.52.18.67.11C38,14.8,37.26,14.54,37.06,14.66Z"/><path class="cls-4" d="M40.64,11.78a.25.25,0,0,0-.25.1.7.7,0,0,0,1,0A.58.58,0,0,0,40.64,11.78Z"/><path class="cls-4" d="M39.17,13.12c.31.11,1.16.16,1.23-.28a.75.75,0,0,0-.68-.08C39.45,12.75,39.17,12.84,39.17,13.12Z"/><path class="cls-4" d="M39.78,10.82a.45.45,0,0,0-.62-.07.32.32,0,0,0-.15.19A.61.61,0,0,0,39.78,10.82Z"/><path class="cls-4" d="M42.09,12.65c-.63,0,.18.8.53.55S42.34,12.48,42.09,12.65Z"/><path class="cls-4" d="M33.16,15.24c-.19-.16-.36,0-.47.18-.42.27-.92.9-.52,1.06S33.15,15.59,33.16,15.24Z"/><path class="cls-4" d="M32,14.41c-.54.11-.29,1,.23.39C32.56,14.42,32.23,14.3,32,14.41Z"/><path class="cls-4" d="M35.08,16.07a.27.27,0,0,0-.2.24c.2.15.74.16.88-.11S35.26,15.75,35.08,16.07Z"/><path class="cls-4" d="M39.87,14.59l0-.05a.52.52,0,0,0,0,.11c0,.06,0,.1,0,.12.11.29.73.3.61-.07S40,14.44,39.87,14.59Z"/><path class="cls-4" d="M45.43,13.8c-.36-.5-1.12,0-.65.16C45.06,14.16,45.79,14.3,45.43,13.8Z"/><path class="cls-4" d="M32.48,18.59l.08-.13a.87.87,0,0,0-.4.63c.21.06.85-.36.83-.65S32.67,18.32,32.48,18.59Z"/><path class="cls-4" d="M38.16,17.17c.08.09.14.09.21,0,.26,0,.74,0,.54-.31S38.23,17,38.16,17.17Z"/><path class="cls-4" d="M30.32,16.89a.41.41,0,0,0,0,.22c.32.11,1.13,0,.86-.51S30.41,16.52,30.32,16.89Z"/><path class="cls-4" d="M31.44,15.53h0a.27.27,0,0,0-.33.27.4.4,0,0,0,.56-.22A.41.41,0,0,0,31.44,15.53Z"/><path class="cls-5" d="M32.49,26.85c-1.18.86,4.8,5.2,8.69,5a11.44,11.44,0,0,0,9.4-6c1-2.15.67-8.23-.62-7.81-.46.15.11,2.22-1.78,5.35-1.65,2.74-4.47,5.45-8.21,5.26C34.85,28.45,33.27,26.28,32.49,26.85Z"/><path class="cls-6" d="M45.31,11.79a.55.55,0,0,0-.49.84c.33.8,2.28,2.1,2.84,1.88s.58-.87-.24-1.5A4.8,4.8,0,0,0,45.31,11.79Z"/><path class="cls-6" d="M46.32,12.86s2.26-2.34,2.91-3.22a42,42,0,0,0,2.14-4.22s.2-.3.48-.25.19.47.19.47-1.57,3.23-2.21,4.12c-1.3,1.8-3,3.77-3,3.77Z"/><path class="cls-6" d="M50.27,8.45,46.54,8l-.14.22,1.85.3,1.85.31Z"/><path class="cls-6" d="M42.49,12.66c-3.85,1-9.55-1.77-9.55-1.77S36.75,6.46,40,6.12s8.93,2.27,8.93,2.27A13.42,13.42,0,0,1,42.49,12.66Z"/><path class="cls-7" d="M45.34,12a.8.8,0,0,0-.08.79,4.16,4.16,0,0,0,1.4,1.12l.09-.71s-.3-.2-.33-.38a.39.39,0,0,1,0-.27Z"/><path class="cls-7" d="M47.68,8.49a30.48,30.48,0,0,0-6.46.06c-3,.43-7.52,1.86-7.46,2.07s5-1.64,7.36-1.8,6.74,0,6.74,0Z"/><path class="cls-7" d="M46.17,8.6a3.52,3.52,0,0,1-.63,1.17,8.47,8.47,0,0,0-1.09,1.69,10.43,10.43,0,0,0,1.26-1.57c.35-.53.81-1.27.81-1.27Z"/><path class="cls-7" d="M43.17,8.62a5.29,5.29,0,0,1-.66,1.92c-.67,1.36-.93,1.75-.77,1.78s.66-1,1-1.74.85-2,.85-2Z"/><path class="cls-7" d="M40.25,8.9A3.65,3.65,0,0,1,40,10.32c-.3,1-.66,1.57-.52,1.64s.48-.86.68-1.59.5-1.63.5-1.63Z"/><path class="cls-7" d="M37.12,9.64a2.39,2.39,0,0,1-.16.84c-.19.51-.48,1-.39,1a1.85,1.85,0,0,0,.53-.92c.14-.46.28-1,.28-1Z"/><path class="cls-7" d="M46.52,8.52a4.38,4.38,0,0,0-1.13-1.09,3.46,3.46,0,0,0-1.46-.59c-.08.07.83.32,1.15.53a12.62,12.62,0,0,1,1.19,1.14Z"/><path class="cls-7" d="M43.44,8.43a2.91,2.91,0,0,0-.92-1.23,4.56,4.56,0,0,0-2.06-.8c-.19.06,1.5.49,1.88.87a4.22,4.22,0,0,1,.7,1.2Z"/><path class="cls-7" d="M40.68,8.74A6.6,6.6,0,0,0,39.3,7.65a6.39,6.39,0,0,0-1.66-.42c-.2,0,1.27.33,1.68.62a8.6,8.6,0,0,1,1,1Z"/><path class="cls-7" d="M37.11,9.55s0-.24-.73-.5-1.07-.43-.92-.43a4.88,4.88,0,0,1,.91.24,5.66,5.66,0,0,1,1.08.61Z"/><path class="cls-3" d="M81.69,23.66c3,2.19,6.91,9.14,2.29,14.85S72.6,44.56,67.51,41.2a11.47,11.47,0,0,1-1.42-18.13C71.23,18.18,77.18,20.34,81.69,23.66Z"/><path class="cls-4" d="M69.2,22.84h0Z"/><path class="cls-4" d="M69.89,23.56c.35-.17.74-.53.41-.84s-.77,0-1.09.12C68.78,23.24,69,24,69.89,23.56Z"/><path class="cls-4" d="M69.21,22.84l.54-.21A.83.83,0,0,0,69.21,22.84Z"/><path class="cls-4" d="M68.26,24.37c.13-.1.31-.3.13-.44a.22.22,0,0,0-.33.07.44.44,0,0,0-.22.29C67.81,24.58,68.12,24.47,68.26,24.37Z"/><path class="cls-4" d="M70.54,24.19a.3.3,0,0,0-.33,0c-.15,0-.35.08-.38.21a.25.25,0,0,0,0,.08l0,0,0,0c0,.15.38,0,.5,0S70.81,24.33,70.54,24.19Z"/><path class="cls-4" d="M69.78,24.52h0Z"/><path class="cls-4" d="M71.28,23.4c-.15.05-.32.21-.24.36s.44.09.57,0C72.11,23.5,71.46,23.29,71.28,23.4Z"/><path class="cls-4" d="M71.9,22.48c-.1,0-.29-.07-.37,0a.14.14,0,0,0,0,.17c0,.11.18.2.25.24s.91.32,1,.06S72.09,22.5,71.9,22.48Z"/><path class="cls-4" d="M71.07,22c.16.08.72.06.78-.16s-.31-.28-.45-.26a.58.58,0,0,0-.25.14C71,21.75,70.89,21.86,71.07,22Z"/><path class="cls-4" d="M68.36,23.28c.29-.21,0-.33-.22-.29h0c-.13,0-.46.14-.37.32S68.25,23.37,68.36,23.28Z"/><path class="cls-4" d="M67.14,24.67c.11-.13.44-.67.06-.69a.23.23,0,0,0-.2.1,1.06,1.06,0,0,0-.38.53C66.47,25.11,67,24.88,67.14,24.67Z"/><path class="cls-4" d="M69.19,24.82a.74.74,0,0,0-.5,0,1,1,0,0,0-.67.52c-.13.51.78.14,1,.07S69.61,25,69.19,24.82Z"/><path class="cls-4" d="M70.71,25.23c-.14.05-.3.17-.3.29s.53.17.67.11C71.64,25.36,70.91,25.11,70.71,25.23Z"/><path class="cls-4" d="M74.3,22.34a.26.26,0,0,0-.25.11.68.68,0,0,0,1,0A.59.59,0,0,0,74.3,22.34Z"/><path class="cls-4" d="M72.82,23.69c.32.11,1.17.16,1.23-.28a.75.75,0,0,0-.68-.08C73.11,23.32,72.82,23.41,72.82,23.69Z"/><path class="cls-4" d="M73.43,21.39a.44.44,0,0,0-.62-.07.32.32,0,0,0-.15.19A.61.61,0,0,0,73.43,21.39Z"/><path class="cls-4" d="M75.75,23.22c-.63,0,.18.8.53.55S76,23.05,75.75,23.22Z"/><path class="cls-4" d="M66.81,25.81c-.19-.16-.35,0-.46.18-.42.27-.93.9-.53,1.06S66.8,26.15,66.81,25.81Z"/><path class="cls-4" d="M65.66,25c-.54.11-.28,1,.23.39C66.21,25,65.88,24.87,65.66,25Z"/><path class="cls-4" d="M68.73,26.63a.28.28,0,0,0-.19.25c.2.15.73.16.87-.11S68.91,26.32,68.73,26.63Z"/><path class="cls-4" d="M73.53,25.16l0-.05a.61.61,0,0,0,0,.11c0,.05,0,.1,0,.12.11.29.73.3.61-.07S73.67,25,73.53,25.16Z"/><path class="cls-4" d="M79.08,24.37c-.36-.5-1.12,0-.64.16C78.72,24.73,79.44,24.86,79.08,24.37Z"/><path class="cls-4" d="M66.14,29.16l.07-.13a.9.9,0,0,0-.4.63c.22.06.85-.37.83-.65S66.32,28.89,66.14,29.16Z"/><path class="cls-4" d="M71.81,27.74c.08.09.14.09.21.05.26,0,.75,0,.54-.31S71.88,27.52,71.81,27.74Z"/><path class="cls-4" d="M64,27.46a.54.54,0,0,0,0,.22c.32.11,1.14,0,.87-.51S64.07,27.09,64,27.46Z"/><path class="cls-4" d="M65.09,26.1h0c-.19,0-.32.07-.33.27a.39.39,0,0,0,.55-.22A.39.39,0,0,0,65.09,26.1Z"/><path class="cls-5" d="M66.14,37.42c-1.17.86,4.81,5.19,8.69,5a11.44,11.44,0,0,0,9.4-6c1-2.15.67-8.23-.61-7.81-.46.15.1,2.22-1.78,5.34-1.66,2.75-4.48,5.46-8.22,5.27C68.51,39,66.92,36.85,66.14,37.42Z"/><path class="cls-6" d="M79,22.36a.55.55,0,0,0-.48.84c.32.8,2.27,2.1,2.83,1.88s.59-.87-.23-1.5A4.73,4.73,0,0,0,79,22.36Z"/><path class="cls-6" d="M80,23.43s2.26-2.34,2.9-3.22A39.9,39.9,0,0,0,85,16s.2-.3.48-.25.2.47.2.47-1.58,3.23-2.22,4.12c-1.3,1.8-3,3.77-3,3.77Z"/><path class="cls-6" d="M83.92,19l-3.73-.47-.14.22,1.86.3,1.85.3Z"/><path class="cls-6" d="M76.15,23.23c-3.85,1-9.55-1.77-9.55-1.77s3.8-4.43,7.07-4.77S82.6,19,82.6,19A13.56,13.56,0,0,1,76.15,23.23Z"/><path class="cls-7" d="M79,22.6a.82.82,0,0,0-.09.79,4.09,4.09,0,0,0,1.4,1.11l.09-.7s-.3-.21-.33-.38a.39.39,0,0,1,0-.27Z"/><path class="cls-7" d="M81.34,19.06a30.51,30.51,0,0,0-6.46.06c-3,.43-7.52,1.86-7.46,2.07s4.94-1.64,7.36-1.8,6.73,0,6.73,0Z"/><path class="cls-7" d="M79.82,19.17a3.28,3.28,0,0,1-.63,1.17A8.7,8.7,0,0,0,78.11,22a9.93,9.93,0,0,0,1.25-1.57c.36-.53.82-1.27.82-1.27Z"/><path class="cls-7" d="M76.82,19.19a5.29,5.29,0,0,1-.66,1.91c-.66,1.36-.93,1.76-.76,1.79s.65-1,1-1.74.84-2,.84-2Z"/><path class="cls-7" d="M73.9,19.47a3.72,3.72,0,0,1-.22,1.42c-.3,1-.66,1.57-.53,1.64s.48-.87.69-1.59.5-1.63.5-1.63Z"/><path class="cls-7" d="M70.77,20.21a2.39,2.39,0,0,1-.16.84c-.18.51-.47,1-.39,1a1.84,1.84,0,0,0,.54-.92l.28-1Z"/><path class="cls-7" d="M80.17,19.09A4.19,4.19,0,0,0,79,18a3.44,3.44,0,0,0-1.45-.59c-.08.07.82.32,1.15.53a12.23,12.23,0,0,1,1.18,1.14Z"/><path class="cls-7" d="M77.09,19a2.91,2.91,0,0,0-.92-1.23,4.57,4.57,0,0,0-2-.8c-.2.06,1.5.49,1.88.87a4.1,4.1,0,0,1,.69,1.2Z"/><path class="cls-7" d="M74.34,19.31A6.75,6.75,0,0,0,73,18.22a5.58,5.58,0,0,0-1.66-.42c-.19,0,1.28.33,1.69.62a9.06,9.06,0,0,1,1,1Z"/><path class="cls-7" d="M70.77,20.12s0-.24-.74-.5-1.06-.43-.91-.43a5.09,5.09,0,0,1,.91.24A5.46,5.46,0,0,1,71.1,20Z"/><path class="cls-3" d="M61.12,20.42c3,2.19,6.91,9.14,2.29,14.85S52,41.32,46.94,38a11.47,11.47,0,0,1-1.42-18.13C50.66,14.94,56.61,17.1,61.12,20.42Z"/><path class="cls-4" d="M48.63,19.6h0Z"/><path class="cls-4" d="M49.32,20.32c.35-.17.75-.53.42-.84s-.78,0-1.1.12C48.21,20,48.39,20.78,49.32,20.32Z"/><path class="cls-4" d="M48.65,19.6l.53-.21A.78.78,0,0,0,48.65,19.6Z"/><path class="cls-4" d="M47.69,21.13c.13-.1.31-.3.14-.44a.23.23,0,0,0-.34.07.43.43,0,0,0-.21.29C47.25,21.34,47.55,21.23,47.69,21.13Z"/><path class="cls-4" d="M50,21a.3.3,0,0,0-.33,0c-.16,0-.35.08-.39.21a.11.11,0,0,0,0,.08l0,0,0,0c0,.15.38,0,.51,0S50.24,21.09,50,21Z"/><path class="cls-4" d="M49.21,21.28h0Z"/><path class="cls-4" d="M50.71,20.16c-.15.05-.32.21-.23.36s.44.09.56,0C51.54,20.26,50.9,20.05,50.71,20.16Z"/><path class="cls-4" d="M51.34,19.24c-.11,0-.29-.07-.37,0a.14.14,0,0,0,0,.17c0,.11.18.2.25.24s.92.32,1,.06S51.52,19.26,51.34,19.24Z"/><path class="cls-4" d="M50.51,18.72c.15.08.71.06.77-.16s-.31-.28-.45-.26a.5.5,0,0,0-.24.14C50.44,18.51,50.33,18.62,50.51,18.72Z"/><path class="cls-4" d="M47.79,20c.29-.21,0-.33-.22-.29h0c-.14,0-.47.14-.38.32S47.68,20.13,47.79,20Z"/><path class="cls-4" d="M46.57,21.43c.11-.13.44-.67.06-.69a.23.23,0,0,0-.2.1,1.06,1.06,0,0,0-.38.53C45.9,21.87,46.38,21.64,46.57,21.43Z"/><path class="cls-4" d="M48.62,21.58a.74.74,0,0,0-.5,0,1,1,0,0,0-.67.52c-.12.51.79.14,1,.07S49,21.74,48.62,21.58Z"/><path class="cls-4" d="M50.15,22c-.15.05-.31.17-.3.29s.52.17.67.11C51.08,22.12,50.34,21.87,50.15,22Z"/><path class="cls-4" d="M53.73,19.1a.26.26,0,0,0-.25.11.69.69,0,0,0,1.05,0A.61.61,0,0,0,53.73,19.1Z"/><path class="cls-4" d="M52.25,20.45c.32.11,1.17.16,1.24-.28a.77.77,0,0,0-.69-.08C52.54,20.08,52.26,20.17,52.25,20.45Z"/><path class="cls-4" d="M52.87,18.15a.45.45,0,0,0-.62-.07.29.29,0,0,0-.15.19A.61.61,0,0,0,52.87,18.15Z"/><path class="cls-4" d="M55.18,20c-.63,0,.18.8.53.55S55.43,19.81,55.18,20Z"/><path class="cls-4" d="M46.25,22.57c-.2-.16-.36,0-.47.18-.42.27-.93.9-.52,1.06S46.24,22.91,46.25,22.57Z"/><path class="cls-4" d="M45.09,21.74c-.54.11-.28,1,.23.39C45.64,21.75,45.32,21.63,45.09,21.74Z"/><path class="cls-4" d="M48.17,23.39a.29.29,0,0,0-.2.25c.2.15.74.16.87-.11S48.35,23.08,48.17,23.39Z"/><path class="cls-4" d="M53,21.92l0-.05a.52.52,0,0,0,0,.11c0,.05,0,.1,0,.12.11.29.73.3.62-.07S53.11,21.77,53,21.92Z"/><path class="cls-4" d="M58.52,21.13c-.37-.5-1.12,0-.65.16C58.15,21.49,58.88,21.62,58.52,21.13Z"/><path class="cls-4" d="M45.57,25.92l.07-.13a.93.93,0,0,0-.4.63c.22.06.85-.37.84-.65S45.76,25.65,45.57,25.92Z"/><path class="cls-4" d="M51.24,24.5a.16.16,0,0,0,.22.05c.26,0,.74,0,.53-.31S51.32,24.28,51.24,24.5Z"/><path class="cls-4" d="M43.41,24.22a.41.41,0,0,0,0,.22c.32.11,1.13,0,.86-.51S43.5,23.85,43.41,24.22Z"/><path class="cls-4" d="M44.52,22.86h0a.27.27,0,0,0-.33.27.39.39,0,0,0,.55-.22A.39.39,0,0,0,44.52,22.86Z"/><path class="cls-5" d="M45.58,34.18c-1.18.86,4.8,5.19,8.68,5a11.44,11.44,0,0,0,9.41-6c1-2.15.66-8.23-.62-7.81-.46.15.1,2.22-1.78,5.34-1.65,2.75-4.48,5.46-8.21,5.27C47.94,35.78,46.35,33.61,45.58,34.18Z"/><path class="cls-6" d="M58.4,19.12a.55.55,0,0,0-.49.84c.32.8,2.27,2.1,2.83,1.88s.59-.87-.23-1.5A4.76,4.76,0,0,0,58.4,19.12Z"/><path class="cls-6" d="M59.41,20.19s2.26-2.34,2.91-3.22a42,42,0,0,0,2.14-4.22s.2-.3.47-.25.2.47.2.47-1.58,3.23-2.21,4.12c-1.3,1.8-3,3.77-3,3.77Z"/><path class="cls-6" d="M63.35,15.78l-3.73-.47-.13.22,1.85.3,1.85.3Z"/><path class="cls-6" d="M55.58,20C51.73,21,46,18.22,46,18.22s3.81-4.43,7.07-4.77S62,15.72,62,15.72A13.5,13.5,0,0,1,55.58,20Z"/><path class="cls-7" d="M58.43,19.36a.82.82,0,0,0-.09.79,4.09,4.09,0,0,0,1.4,1.11l.1-.7s-.3-.21-.33-.38a.33.33,0,0,1,0-.27Z"/><path class="cls-7" d="M60.77,15.82a30.48,30.48,0,0,0-6.46.06c-3,.43-7.52,1.86-7.46,2.07s4.94-1.64,7.36-1.8,6.74,0,6.74,0Z"/><path class="cls-7" d="M59.25,15.93a3.34,3.34,0,0,1-.62,1.17,8.47,8.47,0,0,0-1.09,1.69,9.93,9.93,0,0,0,1.25-1.57c.36-.53.82-1.27.82-1.27Z"/><path class="cls-7" d="M56.25,16a5,5,0,0,1-.66,1.91c-.66,1.36-.92,1.76-.76,1.79s.66-1,1-1.74.85-2,.85-2Z"/><path class="cls-7" d="M53.34,16.23a3.65,3.65,0,0,1-.23,1.42c-.3,1-.66,1.57-.52,1.64s.48-.87.68-1.59.5-1.63.5-1.63Z"/><path class="cls-7" d="M50.2,17a2.13,2.13,0,0,1-.16.84c-.18.51-.47,1-.38,1a1.93,1.93,0,0,0,.53-.92l.28-1Z"/><path class="cls-7" d="M59.61,15.85a4.38,4.38,0,0,0-1.13-1.09A3.46,3.46,0,0,0,57,14.17c-.08.07.83.32,1.15.53a12.23,12.23,0,0,1,1.18,1.14Z"/><path class="cls-7" d="M56.53,15.76a2.91,2.91,0,0,0-.92-1.23,4.6,4.6,0,0,0-2.06-.8c-.2.06,1.5.49,1.88.87a4.1,4.1,0,0,1,.69,1.2Z"/><path class="cls-7" d="M53.77,16.07A6.75,6.75,0,0,0,52.38,15a5.58,5.58,0,0,0-1.66-.42c-.19,0,1.28.33,1.69.62a9.48,9.48,0,0,1,1.05,1Z"/><path class="cls-7" d="M50.2,16.88s-.05-.24-.73-.5S48.4,16,48.55,16a4.88,4.88,0,0,1,.91.24,5.46,5.46,0,0,1,1.07.61Z"/><path class="cls-3" d="M70.84,30.61c3,2.2,6.91,9.14,2.29,14.85s-11.37,6.06-16.47,2.7A11.48,11.48,0,0,1,55.24,30C60.38,25.13,66.33,27.3,70.84,30.61Z"/><path class="cls-4" d="M58.35,29.8h0Z"/><path class="cls-4" d="M59,30.52c.35-.17.74-.53.42-.85s-.78,0-1.1.12C57.93,30.19,58.11,31,59,30.52Z"/><path class="cls-4" d="M58.37,29.79l.53-.21A.78.78,0,0,0,58.37,29.79Z"/><path class="cls-4" d="M57.41,31.32c.13-.1.31-.3.14-.44a.23.23,0,0,0-.34.07.43.43,0,0,0-.21.29C57,31.53,57.27,31.42,57.41,31.32Z"/><path class="cls-4" d="M59.7,31.14a.35.35,0,0,0-.33,0c-.16,0-.35.08-.39.21a.11.11,0,0,0,0,.08l0,0,0,0c0,.14.38,0,.51,0S60,31.29,59.7,31.14Z"/><path class="cls-4" d="M58.93,31.47l0,0Z"/><path class="cls-4" d="M60.43,30.36c-.15,0-.32.21-.23.35s.44.09.56,0C61.26,30.46,60.62,30.24,60.43,30.36Z"/><path class="cls-4" d="M61.06,29.43c-.11,0-.29-.06-.37,0a.15.15,0,0,0,0,.18c0,.1.18.2.25.23s.92.33,1,.07S61.24,29.46,61.06,29.43Z"/><path class="cls-4" d="M60.23,28.91c.15.09.71.07.77-.16s-.31-.28-.45-.26a.5.5,0,0,0-.24.14C60.16,28.7,60.05,28.82,60.23,28.91Z"/><path class="cls-4" d="M57.51,30.24c.29-.22,0-.34-.22-.3h0c-.14,0-.47.14-.38.32S57.4,30.32,57.51,30.24Z"/><path class="cls-4" d="M56.29,31.62c.11-.13.44-.67.06-.69a.26.26,0,0,0-.2.1,1.06,1.06,0,0,0-.38.53C55.62,32.06,56.1,31.84,56.29,31.62Z"/><path class="cls-4" d="M58.34,31.77a.8.8,0,0,0-.5,0,1,1,0,0,0-.67.52c-.12.52.79.15,1,.08S58.76,31.93,58.34,31.77Z"/><path class="cls-4" d="M59.86,32.18c-.14,0-.3.17-.29.29s.52.18.66.11C60.79,32.32,60.06,32.07,59.86,32.18Z"/><path class="cls-4" d="M63.45,29.3a.23.23,0,0,0-.25.1.7.7,0,0,0,1,0A.59.59,0,0,0,63.45,29.3Z"/><path class="cls-4" d="M62,30.64c.32.11,1.17.17,1.23-.28a.75.75,0,0,0-.68-.08C62.26,30.27,62,30.36,62,30.64Z"/><path class="cls-4" d="M62.59,28.34a.46.46,0,0,0-.63-.06.26.26,0,0,0-.14.18A.59.59,0,0,0,62.59,28.34Z"/><path class="cls-4" d="M64.9,30.17c-.63,0,.18.81.53.55S65.15,30,64.9,30.17Z"/><path class="cls-4" d="M56,32.76c-.2-.15-.36,0-.47.18-.42.27-.93.91-.53,1.06S56,33.11,56,32.76Z"/><path class="cls-4" d="M54.81,31.94c-.54.1-.28,1,.23.39C55.36,31.94,55,31.82,54.81,31.94Z"/><path class="cls-4" d="M57.89,33.59a.27.27,0,0,0-.2.25c.2.14.74.15.87-.11S58.07,33.28,57.89,33.59Z"/><path class="cls-4" d="M62.68,32.11l0,0a.43.43,0,0,0,0,.11s0,.09,0,.11c.11.3.73.31.62-.06S62.83,32,62.68,32.11Z"/><path class="cls-4" d="M68.24,31.33c-.37-.51-1.12,0-.65.15C67.87,31.69,68.6,31.82,68.24,31.33Z"/><path class="cls-4" d="M55.29,36.11l.07-.13a.93.93,0,0,0-.4.63c.22.06.85-.36.84-.64S55.47,35.84,55.29,36.11Z"/><path class="cls-4" d="M61,34.7a.15.15,0,0,0,.22,0c.26,0,.74,0,.53-.31S61,34.48,61,34.7Z"/><path class="cls-4" d="M53.13,34.42a.38.38,0,0,0,0,.22c.32.1,1.13,0,.86-.51S53.22,34,53.13,34.42Z"/><path class="cls-4" d="M54.24,33.06h0a.27.27,0,0,0-.33.26.39.39,0,0,0,.55-.21A.33.33,0,0,0,54.24,33.06Z"/><path class="cls-5" d="M55.3,44.37c-1.18.86,4.8,5.2,8.68,5.05a11.47,11.47,0,0,0,9.41-6c1-2.14.66-8.23-.62-7.81-.46.16.1,2.22-1.78,5.35-1.65,2.74-4.48,5.45-8.21,5.27C57.66,46,56.07,43.8,55.3,44.37Z"/><path class="cls-6" d="M68.12,29.31a.55.55,0,0,0-.49.84c.32.8,2.27,2.1,2.83,1.88s.59-.87-.23-1.5A4.86,4.86,0,0,0,68.12,29.31Z"/><path class="cls-6" d="M69.13,30.38S71.39,28,72,27.16a42,42,0,0,0,2.14-4.22s.2-.3.47-.24.2.46.2.46-1.58,3.23-2.21,4.12c-1.3,1.81-3,3.77-3,3.77Z"/><path class="cls-6" d="M73.07,26c-.13,0-3.73-.47-3.73-.47l-.13.21,1.85.3,1.85.31Z"/><path class="cls-6" d="M65.3,30.18c-3.85,1-9.55-1.77-9.55-1.77s3.81-4.43,7.07-4.77,8.93,2.28,8.93,2.28A13.44,13.44,0,0,1,65.3,30.18Z"/><path class="cls-7" d="M68.15,29.55a.82.82,0,0,0-.09.79,4.16,4.16,0,0,0,1.4,1.12l.1-.71s-.3-.2-.34-.38a.38.38,0,0,1,0-.27Z"/><path class="cls-7" d="M70.49,26a30.48,30.48,0,0,0-6.46.06c-3,.44-7.52,1.87-7.46,2.07s4.94-1.64,7.36-1.8,6.74,0,6.74,0Z"/><path class="cls-7" d="M69,26.12a3.41,3.41,0,0,1-.62,1.18A8.25,8.25,0,0,0,67.26,29a9.93,9.93,0,0,0,1.25-1.57c.36-.52.82-1.26.82-1.26Z"/><path class="cls-7" d="M66,26.15a5,5,0,0,1-.66,1.91c-.66,1.36-.92,1.75-.76,1.78s.66-1,1-1.74.85-2,.85-2Z"/><path class="cls-7" d="M63.06,26.42a3.63,3.63,0,0,1-.23,1.42c-.3,1-.66,1.57-.53,1.64s.49-.86.69-1.59.5-1.62.5-1.62Z"/><path class="cls-7" d="M59.92,27.16a2.13,2.13,0,0,1-.16.84c-.18.52-.47,1-.38,1a1.82,1.82,0,0,0,.53-.92l.28-1Z"/><path class="cls-7" d="M69.33,26A4.38,4.38,0,0,0,68.2,25a3.61,3.61,0,0,0-1.46-.59c-.08.07.83.33,1.15.54A12.41,12.41,0,0,1,69.07,26Z"/><path class="cls-7" d="M66.25,26a2.88,2.88,0,0,0-.93-1.23,4.7,4.7,0,0,0-2-.8c-.2.07,1.5.49,1.88.87a4.1,4.1,0,0,1,.69,1.2Z"/><path class="cls-7" d="M63.49,26.27a6.42,6.42,0,0,0-1.39-1.09,6,6,0,0,0-1.66-.43c-.19,0,1.28.33,1.69.62a8.84,8.84,0,0,1,1,1Z"/><path class="cls-7" d="M59.92,27.07s-.05-.24-.73-.5-1.07-.42-.92-.43a4.88,4.88,0,0,1,.91.24,6.06,6.06,0,0,1,1.07.61Z"/><path class="cls-3" d="M20,20.46c-3,2.2-6.91,9.14-2.29,14.86s11.37,6,16.47,2.69a11.47,11.47,0,0,0,1.42-18.13C30.45,15,24.5,17.15,20,20.46Z"/><path class="cls-4" d="M32.48,19.65h0Z"/><path class="cls-4" d="M31.79,20.37c-.35-.17-.74-.53-.41-.85s.77.05,1.09.12C32.9,20,32.72,20.82,31.79,20.37Z"/><path class="cls-4" d="M32.47,19.64l-.54-.21A.88.88,0,0,1,32.47,19.64Z"/><path class="cls-4" d="M33.42,21.17c-.13-.09-.31-.29-.14-.44a.23.23,0,0,1,.34.08.43.43,0,0,1,.22.28C33.86,21.39,33.56,21.27,33.42,21.17Z"/><path class="cls-4" d="M31.14,21a.33.33,0,0,1,.32,0c.16,0,.35.09.39.21a.14.14,0,0,1,0,.09l0,0,0,0c0,.14-.38,0-.5,0S30.87,21.14,31.14,21Z"/><path class="cls-4" d="M31.9,21.33h0Z"/><path class="cls-4" d="M30.4,20.21c.15,0,.32.21.23.36s-.44.09-.56,0C29.57,20.31,30.22,20.1,30.4,20.21Z"/><path class="cls-4" d="M29.77,19.28c.11,0,.3-.06.38,0a.15.15,0,0,1,0,.18c0,.1-.18.2-.25.23s-.92.33-1,.07S29.59,19.31,29.77,19.28Z"/><path class="cls-4" d="M30.61,18.77c-.16.08-.72.06-.78-.17s.31-.27.45-.25a.55.55,0,0,1,.25.13C30.67,18.56,30.79,18.67,30.61,18.77Z"/><path class="cls-4" d="M33.32,20.09c-.29-.22,0-.34.22-.29h0c.13,0,.46.15.37.33S33.43,20.17,33.32,20.09Z"/><path class="cls-4" d="M34.54,21.47c-.11-.12-.44-.67-.06-.69a.3.3,0,0,1,.2.1,1,1,0,0,1,.38.54C35.21,21.92,34.73,21.69,34.54,21.47Z"/><path class="cls-4" d="M32.49,21.63a.68.68,0,0,1,.5,0,1,1,0,0,1,.67.51c.13.52-.78.15-1,.08S32.07,21.78,32.49,21.63Z"/><path class="cls-4" d="M31,22c.14,0,.3.17.3.29s-.53.18-.67.11C30,22.17,30.77,21.92,31,22Z"/><path class="cls-4" d="M27.38,19.15a.25.25,0,0,1,.25.1.68.68,0,0,1-1,0A.57.57,0,0,1,27.38,19.15Z"/><path class="cls-4" d="M28.86,20.49c-.32.11-1.17.17-1.23-.27a.72.72,0,0,1,.68-.08C28.57,20.12,28.85,20.21,28.86,20.49Z"/><path class="cls-4" d="M28.24,18.19a.46.46,0,0,1,.63-.06.3.3,0,0,1,.15.18A.6.6,0,0,1,28.24,18.19Z"/><path class="cls-4" d="M25.93,20c.63,0-.18.81-.53.55S25.68,19.86,25.93,20Z"/><path class="cls-4" d="M34.86,22.61c.2-.15.36,0,.47.18.42.27.93.91.53,1.06S34.88,23,34.86,22.61Z"/><path class="cls-4" d="M36,21.79c.54.1.28,1-.23.39C35.47,21.8,35.8,21.67,36,21.79Z"/><path class="cls-4" d="M33,23.44a.29.29,0,0,1,.19.25c-.2.14-.74.16-.87-.11S32.77,23.13,33,23.44Z"/><path class="cls-4" d="M28.15,22l0,0a.45.45,0,0,1,0,.11s0,.1,0,.11c-.11.3-.73.31-.61-.06S28,21.82,28.15,22Z"/><path class="cls-4" d="M22.59,21.18c.37-.5,1.12,0,.65.16C23,21.54,22.24,21.67,22.59,21.18Z"/><path class="cls-4" d="M35.54,26l-.07-.14a1,1,0,0,1,.4.64c-.22.05-.85-.37-.84-.65S35.36,25.7,35.54,26Z"/><path class="cls-4" d="M29.87,24.55a.16.16,0,0,1-.21.05c-.27,0-.75,0-.54-.32S29.8,24.33,29.87,24.55Z"/><path class="cls-4" d="M37.7,24.27a.51.51,0,0,1,0,.22c-.32.11-1.14,0-.87-.51S37.61,23.89,37.7,24.27Z"/><path class="cls-4" d="M36.59,22.91h0a.26.26,0,0,1,.33.26.39.39,0,0,1-.55-.21A.33.33,0,0,1,36.59,22.91Z"/><path class="cls-5" d="M35.54,34.23c1.17.86-4.81,5.19-8.69,5a11.42,11.42,0,0,1-9.4-6c-1-2.14-.67-8.23.61-7.8.46.15-.1,2.21,1.78,5.34,1.66,2.75,4.48,5.45,8.22,5.27C33.17,35.82,34.76,33.66,35.54,34.23Z"/><path class="cls-6" d="M22.71,19.17a.54.54,0,0,1,.49.83c-.32.8-2.27,2.1-2.83,1.88s-.59-.87.23-1.49A4.66,4.66,0,0,1,22.71,19.17Z"/><path class="cls-6" d="M21.7,20.24S19.44,17.9,18.8,17a40.36,40.36,0,0,1-2.15-4.23.52.52,0,0,0-.47-.24c-.28,0-.2.47-.2.47s1.58,3.22,2.22,4.11c1.3,1.81,3,3.77,3,3.77Z"/><path class="cls-6" d="M17.76,15.83c.14,0,3.73-.47,3.73-.47l.13.21-1.85.31-1.85.3Z"/><path class="cls-6" d="M25.53,20c3.85,1,9.55-1.76,9.55-1.76S31.28,13.83,28,13.5s-8.93,2.27-8.93,2.27A13.5,13.5,0,0,0,25.53,20Z"/><path class="cls-7" d="M22.68,19.4a.82.82,0,0,1,.09.79,4,4,0,0,1-1.4,1.12l-.09-.7s.3-.21.33-.39a.41.41,0,0,0,0-.27Z"/><path class="cls-7" d="M20.34,15.86a30.51,30.51,0,0,1,6.46.06c3,.44,7.52,1.87,7.46,2.07s-4.94-1.64-7.36-1.8-6.73,0-6.73,0Z"/><path class="cls-7" d="M21.86,16a3.36,3.36,0,0,0,.63,1.18,8.47,8.47,0,0,1,1.08,1.68,10.21,10.21,0,0,1-1.25-1.56C22,16.74,21.5,16,21.5,16Z"/><path class="cls-7" d="M24.86,16a5.29,5.29,0,0,0,.66,1.91c.66,1.36.93,1.76.76,1.79s-.65-1-1-1.75-.85-2-.85-2Z"/><path class="cls-7" d="M27.77,16.27A3.92,3.92,0,0,0,28,17.69c.3,1,.66,1.58.53,1.64s-.49-.86-.69-1.59-.5-1.62-.5-1.62Z"/><path class="cls-7" d="M30.91,17a2.36,2.36,0,0,0,.16.84c.18.52.47,1,.39,1a1.75,1.75,0,0,1-.54-.91l-.28-1Z"/><path class="cls-7" d="M21.5,15.89a4.2,4.2,0,0,1,1.14-1.08,3.51,3.51,0,0,1,1.45-.6c.08.07-.83.33-1.15.54a12.23,12.23,0,0,0-1.18,1.14Z"/><path class="cls-7" d="M24.59,15.8a2.75,2.75,0,0,1,.92-1.22,4.45,4.45,0,0,1,2-.8c.2.06-1.5.49-1.88.86A4.23,4.23,0,0,0,25,15.85Z"/><path class="cls-7" d="M27.34,16.12A6.75,6.75,0,0,1,28.73,15a5.58,5.58,0,0,1,1.66-.42c.19,0-1.28.32-1.69.61a9.8,9.8,0,0,0-1,1Z"/><path class="cls-7" d="M30.91,16.93s.05-.25.74-.5,1.06-.43.91-.43a4.75,4.75,0,0,0-.91.23,6.06,6.06,0,0,0-1.07.61Z"/><path class="cls-3" d="M14.23,33.29c-3,2.2-6.91,9.14-2.29,14.86s11.38,6.05,16.47,2.69a11.47,11.47,0,0,0,1.42-18.13C24.69,27.81,18.74,30,14.23,33.29Z"/><path class="cls-4" d="M26.72,32.48h0Z"/><path class="cls-4" d="M26,33.2c-.35-.17-.74-.53-.41-.85s.77,0,1.09.13C27.14,32.87,27,33.65,26,33.2Z"/><path class="cls-4" d="M26.71,32.47l-.54-.21A.88.88,0,0,1,26.71,32.47Z"/><path class="cls-4" d="M27.66,34c-.13-.09-.31-.29-.13-.44s.25,0,.33.08a.43.43,0,0,1,.22.28C28.1,34.22,27.8,34.1,27.66,34Z"/><path class="cls-4" d="M25.38,33.82a.33.33,0,0,1,.32,0c.16,0,.35.09.39.21a.14.14,0,0,1,0,.09l.05,0-.05,0c0,.14-.38,0-.5,0S25.11,34,25.38,33.82Z"/><path class="cls-4" d="M26.14,34.16h0Z"/><path class="cls-4" d="M24.64,33c.15,0,.32.21.23.36s-.44.09-.56,0C23.81,33.14,24.46,32.93,24.64,33Z"/><path class="cls-4" d="M24,32.12c.1,0,.29-.07.37,0a.15.15,0,0,1,0,.18c0,.11-.18.2-.25.24s-.92.32-1,.06S23.83,32.14,24,32.12Z"/><path class="cls-4" d="M24.85,31.6c-.16.08-.72.06-.78-.17s.31-.27.45-.25a.55.55,0,0,1,.25.13C24.92,31.39,25,31.5,24.85,31.6Z"/><path class="cls-4" d="M27.56,32.92c-.29-.22,0-.34.22-.29h0c.13,0,.46.15.37.33S27.67,33,27.56,32.92Z"/><path class="cls-4" d="M28.78,34.3c-.11-.12-.44-.67-.06-.69a.3.3,0,0,1,.2.1,1,1,0,0,1,.38.54C29.45,34.75,29,34.52,28.78,34.3Z"/><path class="cls-4" d="M26.73,34.46a.68.68,0,0,1,.5,0,1,1,0,0,1,.67.51c.13.52-.78.15-1,.08S26.31,34.61,26.73,34.46Z"/><path class="cls-4" d="M25.21,34.86c.14,0,.3.17.3.29s-.53.18-.67.11C24.28,35,25,34.75,25.21,34.86Z"/><path class="cls-4" d="M21.62,32a.25.25,0,0,1,.25.1.68.68,0,0,1-1,0A.57.57,0,0,1,21.62,32Z"/><path class="cls-4" d="M23.1,33.32c-.32.11-1.17.17-1.23-.27a.72.72,0,0,1,.68-.08C22.81,33,23.09,33,23.1,33.32Z"/><path class="cls-4" d="M22.48,31a.46.46,0,0,1,.63-.06.3.3,0,0,1,.15.18A.6.6,0,0,1,22.48,31Z"/><path class="cls-4" d="M20.17,32.85c.63,0-.18.81-.53.55S19.92,32.69,20.17,32.85Z"/><path class="cls-4" d="M29.1,35.44c.2-.15.36,0,.47.18.42.27.93.91.53,1.06S29.12,35.79,29.1,35.44Z"/><path class="cls-4" d="M30.26,34.62c.54.11.28,1-.23.39C29.71,34.63,30,34.5,30.26,34.62Z"/><path class="cls-4" d="M27.19,36.27a.29.29,0,0,1,.19.25c-.2.14-.74.16-.87-.11S27,36,27.19,36.27Z"/><path class="cls-4" d="M22.39,34.79l0,0a.61.61,0,0,1,0,.11s0,.1,0,.12c-.11.29-.73.3-.61-.07S22.25,34.65,22.39,34.79Z"/><path class="cls-4" d="M16.83,34c.37-.5,1.12,0,.65.16C17.2,34.37,16.48,34.5,16.83,34Z"/><path class="cls-4" d="M29.78,38.8l-.07-.14a.92.92,0,0,1,.4.64c-.22.06-.85-.37-.83-.65S29.6,38.53,29.78,38.8Z"/><path class="cls-4" d="M24.11,37.38a.16.16,0,0,1-.21,0c-.27,0-.75,0-.54-.32S24,37.16,24.11,37.38Z"/><path class="cls-4" d="M31.94,37.1a.51.51,0,0,1,0,.22c-.32.11-1.14,0-.87-.51S31.85,36.72,31.94,37.1Z"/><path class="cls-4" d="M30.83,35.74h0a.26.26,0,0,1,.33.26.39.39,0,0,1-.55-.21A.33.33,0,0,1,30.83,35.74Z"/><path class="cls-5" d="M29.78,47.06c1.17.86-4.81,5.19-8.69,5a11.39,11.39,0,0,1-9.4-6c-1-2.14-.67-8.23.61-7.8.46.15-.1,2.21,1.78,5.34,1.66,2.75,4.48,5.45,8.22,5.27C27.41,48.66,29,46.49,29.78,47.06Z"/><path class="cls-6" d="M17,32a.55.55,0,0,1,.49.83c-.32.8-2.27,2.1-2.83,1.88s-.59-.87.23-1.49A4.66,4.66,0,0,1,17,32Z"/><path class="cls-6" d="M15.94,33.07s-2.26-2.34-2.9-3.22a39.83,39.83,0,0,1-2.14-4.23.55.55,0,0,0-.48-.24c-.28.05-.2.47-.2.47S11.8,29.07,12.44,30c1.3,1.81,3,3.78,3,3.78Z"/><path class="cls-6" d="M12,28.66c.14,0,3.73-.47,3.73-.47l.14.21L14,28.71l-1.85.3Z"/><path class="cls-6" d="M19.77,32.87c3.85,1,9.55-1.77,9.55-1.77s-3.8-4.44-7.07-4.77-8.93,2.27-8.93,2.27A13.56,13.56,0,0,0,19.77,32.87Z"/><path class="cls-7" d="M16.92,32.24A.81.81,0,0,1,17,33a4.09,4.09,0,0,1-1.4,1.11l-.09-.7s.3-.21.33-.38a.39.39,0,0,0,0-.27Z"/><path class="cls-7" d="M14.58,28.69a30.11,30.11,0,0,1,6.46.07c3,.43,7.52,1.86,7.46,2.06s-4.94-1.64-7.36-1.8-6.73,0-6.73,0Z"/><path class="cls-7" d="M16.1,28.8A3.36,3.36,0,0,0,16.73,30a8.79,8.79,0,0,1,1.08,1.68,10.21,10.21,0,0,1-1.25-1.56c-.36-.53-.82-1.27-.82-1.27Z"/><path class="cls-7" d="M19.1,28.83a5.29,5.29,0,0,0,.66,1.91c.66,1.36.93,1.76.76,1.79s-.65-1-1-1.75-.84-2-.84-2Z"/><path class="cls-7" d="M22,29.1a3.7,3.7,0,0,0,.22,1.42c.3,1,.66,1.58.53,1.64s-.49-.86-.69-1.59-.5-1.62-.5-1.62Z"/><path class="cls-7" d="M25.15,29.84a2.36,2.36,0,0,0,.16.84c.18.52.47,1,.39,1a1.75,1.75,0,0,1-.54-.91l-.28-1Z"/><path class="cls-7" d="M15.75,28.72a4.24,4.24,0,0,1,1.13-1.08,3.51,3.51,0,0,1,1.45-.6c.08.07-.83.33-1.15.54A12.23,12.23,0,0,0,16,28.72Z"/><path class="cls-7" d="M18.83,28.63a2.75,2.75,0,0,1,.92-1.22,4.45,4.45,0,0,1,2.05-.8c.2.06-1.5.49-1.88.86a4.23,4.23,0,0,0-.69,1.21Z"/><path class="cls-7" d="M21.58,29A6.75,6.75,0,0,1,23,27.86a5.58,5.58,0,0,1,1.66-.42,17.77,17.77,0,0,0-1.69.62,9.06,9.06,0,0,0-1,1Z"/><path class="cls-7" d="M25.15,29.76s.05-.25.74-.5,1.06-.43.91-.43a4.31,4.31,0,0,0-.91.24,5.61,5.61,0,0,0-1.07.6Z"/><path class="cls-3" d="M87,36.05c3,2.2,6.91,9.14,2.29,14.85S77.87,57,72.78,53.6a11.48,11.48,0,0,1-1.43-18.13C76.5,30.57,82.45,32.74,87,36.05Z"/><path class="cls-4" d="M74.46,35.24h0Z"/><path class="cls-4" d="M75.16,36c.35-.17.74-.53.41-.85s-.78,0-1.09.12C74,35.63,74.22,36.41,75.16,36Z"/><path class="cls-4" d="M74.48,35.23,75,35A.88.88,0,0,0,74.48,35.23Z"/><path class="cls-4" d="M73.52,36.76c.14-.09.32-.3.14-.44s-.25,0-.33.08a.41.41,0,0,0-.22.28C73.08,37,73.39,36.86,73.52,36.76Z"/><path class="cls-4" d="M75.81,36.58a.35.35,0,0,0-.33,0c-.15,0-.35.09-.38.21a.28.28,0,0,0,0,.08l0,0,0,0c0,.14.39,0,.51,0S76.08,36.73,75.81,36.58Z"/><path class="cls-4" d="M75.05,36.92h0Z"/><path class="cls-4" d="M76.54,35.8c-.15,0-.32.21-.23.36s.44.09.57,0C77.38,35.9,76.73,35.69,76.54,35.8Z"/><path class="cls-4" d="M77.17,34.87c-.1,0-.29-.06-.37,0a.14.14,0,0,0,0,.18c0,.1.18.2.25.23s.91.33,1,.07S77.36,34.9,77.17,34.87Z"/><path class="cls-4" d="M76.34,34.36c.16.08.72.06.77-.17s-.3-.27-.45-.26a.77.77,0,0,0-.24.14C76.27,34.14,76.16,34.26,76.34,34.36Z"/><path class="cls-4" d="M73.62,35.68c.29-.22,0-.34-.22-.29h0c-.13,0-.46.15-.37.33S73.51,35.76,73.62,35.68Z"/><path class="cls-4" d="M72.4,37.06c.11-.12.44-.67.06-.69a.28.28,0,0,0-.19.1,1.08,1.08,0,0,0-.39.53C71.73,37.51,72.22,37.28,72.4,37.06Z"/><path class="cls-4" d="M74.45,37.21a.75.75,0,0,0-.5,0,1,1,0,0,0-.66.51c-.13.52.78.15,1,.08S74.88,37.37,74.45,37.21Z"/><path class="cls-4" d="M76,37.62c-.15.05-.3.17-.3.29s.52.18.67.11C76.91,37.76,76.18,37.51,76,37.62Z"/><path class="cls-4" d="M79.56,34.74a.27.27,0,0,0-.25.1.69.69,0,0,0,1,0A.58.58,0,0,0,79.56,34.74Z"/><path class="cls-4" d="M78.09,36.08c.31.11,1.16.17,1.23-.27a.7.7,0,0,0-.68-.08C78.37,35.71,78.09,35.8,78.09,36.08Z"/><path class="cls-4" d="M78.7,33.78a.44.44,0,0,0-.62-.06.3.3,0,0,0-.15.18A.59.59,0,0,0,78.7,33.78Z"/><path class="cls-4" d="M81,35.61c-.62,0,.18.81.53.55S81.26,35.45,81,35.61Z"/><path class="cls-4" d="M72.08,38.2c-.19-.15-.36,0-.47.18-.42.27-.92.91-.52,1.06S72.07,38.55,72.08,38.2Z"/><path class="cls-4" d="M70.93,37.38c-.54.1-.29,1,.23.39C71.48,37.39,71.15,37.26,70.93,37.38Z"/><path class="cls-4" d="M74,39a.3.3,0,0,0-.2.25c.2.14.74.16.88-.11S74.18,38.72,74,39Z"/><path class="cls-4" d="M78.79,37.55l0,0a.43.43,0,0,0,0,.11c0,.05,0,.1,0,.11.11.3.73.31.61-.06S78.94,37.41,78.79,37.55Z"/><path class="cls-4" d="M84.35,36.77c-.36-.5-1.12,0-.64.16C84,37.13,84.71,37.26,84.35,36.77Z"/><path class="cls-4" d="M71.4,41.56l.08-.14a.92.92,0,0,0-.4.64c.21,0,.85-.37.83-.65S71.59,41.29,71.4,41.56Z"/><path class="cls-4" d="M77.08,40.14a.16.16,0,0,0,.21,0c.26,0,.74,0,.54-.32S77.15,39.92,77.08,40.14Z"/><path class="cls-4" d="M69.24,39.86a.4.4,0,0,0,0,.22c.32.11,1.13,0,.86-.51S69.33,39.48,69.24,39.86Z"/><path class="cls-4" d="M70.36,38.5h0a.27.27,0,0,0-.33.26.4.4,0,0,0,.56-.21A.34.34,0,0,0,70.36,38.5Z"/><path class="cls-5" d="M71.41,49.82c-1.17.86,4.8,5.19,8.69,5a11.45,11.45,0,0,0,9.4-6c1-2.14.67-8.23-.62-7.8-.46.15.11,2.21-1.78,5.34-1.65,2.75-4.47,5.45-8.21,5.27C73.77,51.41,72.19,49.25,71.41,49.82Z"/><path class="cls-6" d="M84.23,34.76a.54.54,0,0,0-.49.83c.33.8,2.28,2.1,2.84,1.88s.58-.87-.24-1.49A4.57,4.57,0,0,0,84.23,34.76Z"/><path class="cls-6" d="M85.24,35.83s2.26-2.34,2.91-3.22a41.89,41.89,0,0,0,2.14-4.23s.2-.3.48-.24.19.46.19.46-1.57,3.23-2.21,4.12c-1.3,1.81-3,3.77-3,3.77Z"/><path class="cls-6" d="M89.19,31.42c-.14,0-3.73-.47-3.73-.47l-.14.21,1.85.31,1.86.3Z"/><path class="cls-6" d="M81.42,35.62c-3.86,1-9.55-1.76-9.55-1.76s3.8-4.44,7.06-4.77,8.93,2.27,8.93,2.27A13.44,13.44,0,0,1,81.42,35.62Z"/><path class="cls-7" d="M84.26,35a.8.8,0,0,0-.08.79,4,4,0,0,0,1.4,1.12l.09-.7s-.3-.21-.33-.39a.41.41,0,0,1,0-.27Z"/><path class="cls-7" d="M86.6,31.45a30.48,30.48,0,0,0-6.46.06c-3,.44-7.52,1.87-7.46,2.07s4.95-1.64,7.36-1.8,6.74,0,6.74,0Z"/><path class="cls-7" d="M85.09,31.56a3.61,3.61,0,0,1-.63,1.18,8.25,8.25,0,0,0-1.09,1.68,10.76,10.76,0,0,0,1.26-1.56c.35-.53.81-1.27.81-1.27Z"/><path class="cls-7" d="M82.09,31.59a5.29,5.29,0,0,1-.66,1.91c-.66,1.36-.93,1.75-.77,1.79s.66-1,1-1.75.85-2,.85-2Z"/><path class="cls-7" d="M79.17,31.86a3.63,3.63,0,0,1-.23,1.42c-.29,1-.66,1.57-.52,1.64s.48-.86.68-1.59.5-1.62.5-1.62Z"/><path class="cls-7" d="M76,32.6a2.39,2.39,0,0,1-.16.84c-.19.52-.48,1-.39,1a1.82,1.82,0,0,0,.54-.91c.13-.47.27-1,.27-1Z"/><path class="cls-7" d="M85.44,31.48a4.25,4.25,0,0,0-1.13-1.08,3.53,3.53,0,0,0-1.46-.6c-.07.07.83.33,1.15.54a12.62,12.62,0,0,1,1.19,1.14Z"/><path class="cls-7" d="M82.36,31.39a2.85,2.85,0,0,0-.92-1.22,4.44,4.44,0,0,0-2.06-.8c-.19.06,1.5.49,1.88.86a4.36,4.36,0,0,1,.7,1.21Z"/><path class="cls-7" d="M79.6,31.71a6.6,6.6,0,0,0-1.38-1.09,5.66,5.66,0,0,0-1.66-.42c-.2,0,1.27.32,1.68.61a8.4,8.4,0,0,1,1.05,1Z"/><path class="cls-7" d="M76,32.52s0-.25-.73-.5-1.06-.43-.92-.43a4.57,4.57,0,0,1,.91.23,6.29,6.29,0,0,1,1.08.61Z"/><path class="cls-3" d="M91.7,46.19c3,2.19,6.91,9.14,2.29,14.85s-11.37,6.05-16.47,2.69A11.47,11.47,0,0,1,76.1,45.6C81.24,40.7,87.19,42.87,91.7,46.19Z"/><path class="cls-4" d="M79.21,45.37h0Z"/><path class="cls-4" d="M79.9,46.09c.35-.17.74-.53.42-.84s-.78,0-1.1.12C78.79,45.77,79,46.55,79.9,46.09Z"/><path class="cls-4" d="M79.23,45.36l.53-.2A.83.83,0,0,0,79.23,45.36Z"/><path class="cls-4" d="M78.27,46.89c.13-.09.31-.29.14-.43a.23.23,0,0,0-.34.07.43.43,0,0,0-.21.29C77.83,47.11,78.13,47,78.27,46.89Z"/><path class="cls-4" d="M80.56,46.71a.32.32,0,0,0-.33,0c-.16,0-.35.08-.39.21a.11.11,0,0,0,0,.08l0,0,0,0c0,.15.38,0,.51,0S80.82,46.86,80.56,46.71Z"/><path class="cls-4" d="M79.79,47.05h0Z"/><path class="cls-4" d="M81.29,45.93c-.15,0-.32.21-.23.36s.44.09.56,0C82.12,46,81.48,45.82,81.29,45.93Z"/><path class="cls-4" d="M81.92,45c-.11,0-.29-.07-.37,0a.14.14,0,0,0,0,.17c0,.11.18.2.25.24s.92.32,1,.06S82.1,45,81.92,45Z"/><path class="cls-4" d="M81.09,44.49c.15.08.71.06.77-.16s-.31-.28-.45-.26a.5.5,0,0,0-.24.14C81,44.28,80.91,44.39,81.09,44.49Z"/><path class="cls-4" d="M78.37,45.81c.29-.21,0-.33-.22-.29h0c-.14,0-.47.15-.38.33S78.26,45.9,78.37,45.81Z"/><path class="cls-4" d="M77.15,47.19c.11-.12.44-.66.06-.69a.3.3,0,0,0-.2.1,1.08,1.08,0,0,0-.38.54C76.48,47.64,77,47.41,77.15,47.19Z"/><path class="cls-4" d="M79.2,47.35a.74.74,0,0,0-.5,0c-.29.08-.62.3-.67.51-.12.52.79.15,1,.08S79.62,47.51,79.2,47.35Z"/><path class="cls-4" d="M80.72,47.76c-.14.05-.3.17-.29.29s.52.17.66.11C81.65,47.89,80.92,47.64,80.72,47.76Z"/><path class="cls-4" d="M84.31,44.87a.26.26,0,0,0-.25.11.69.69,0,0,0,1,0A.61.61,0,0,0,84.31,44.87Z"/><path class="cls-4" d="M82.83,46.22c.32.11,1.17.16,1.23-.28a.75.75,0,0,0-.68-.08C83.12,45.85,82.84,45.94,82.83,46.22Z"/><path class="cls-4" d="M83.45,43.92a.46.46,0,0,0-.63-.07.32.32,0,0,0-.14.18A.6.6,0,0,0,83.45,43.92Z"/><path class="cls-4" d="M85.76,45.75c-.63,0,.18.8.53.55S86,45.58,85.76,45.75Z"/><path class="cls-4" d="M76.83,48.34c-.2-.16-.36,0-.47.18-.42.27-.93.9-.53,1.06S76.82,48.68,76.83,48.34Z"/><path class="cls-4" d="M75.67,47.51c-.54.11-.28,1,.23.39C76.22,47.52,75.9,47.4,75.67,47.51Z"/><path class="cls-4" d="M78.75,49.16a.28.28,0,0,0-.2.25c.2.15.74.16.87-.11S78.93,48.85,78.75,49.16Z"/><path class="cls-4" d="M83.54,47.68l0,0a.52.52,0,0,0,0,.11s0,.1,0,.12c.11.29.73.3.62-.07S83.69,47.54,83.54,47.68Z"/><path class="cls-4" d="M89.1,46.9c-.37-.5-1.12,0-.65.16C88.73,47.26,89.45,47.39,89.1,46.9Z"/><path class="cls-4" d="M76.15,51.69l.07-.13a.93.93,0,0,0-.4.63c.22.06.85-.37.84-.65S76.33,51.42,76.15,51.69Z"/><path class="cls-4" d="M81.82,50.27a.17.17,0,0,0,.22,0c.26,0,.74,0,.53-.32S81.9,50.05,81.82,50.27Z"/><path class="cls-4" d="M74,50a.41.41,0,0,0,0,.22c.32.11,1.13,0,.86-.51S74.08,49.62,74,50Z"/><path class="cls-4" d="M75.1,48.63h0a.27.27,0,0,0-.33.27.39.39,0,1,0,.32-.26Z"/><path class="cls-5" d="M76.16,60c-1.18.86,4.8,5.19,8.68,5a11.44,11.44,0,0,0,9.41-6c1-2.15.66-8.24-.62-7.81-.46.15.1,2.22-1.78,5.34C90.2,59.28,87.37,62,83.64,61.8,78.52,61.55,76.93,59.38,76.16,60Z"/><path class="cls-6" d="M89,44.89a.55.55,0,0,0-.49.84c.32.79,2.27,2.09,2.83,1.88s.59-.87-.23-1.5A4.76,4.76,0,0,0,89,44.89Z"/><path class="cls-6" d="M90,46s2.26-2.34,2.91-3.22A41.89,41.89,0,0,0,95,38.51s.2-.29.47-.24.2.47.2.47S94.13,42,93.5,42.85c-1.3,1.81-3,3.78-3,3.78Z"/><path class="cls-6" d="M93.93,41.55l-3.73-.47-.13.21,1.85.31,1.85.3Z"/><path class="cls-6" d="M86.16,45.76c-3.85,1-9.55-1.77-9.55-1.77s3.81-4.44,7.07-4.77,8.93,2.27,8.93,2.27A13.5,13.5,0,0,1,86.16,45.76Z"/><path class="cls-7" d="M89,45.13a.81.81,0,0,0-.09.79A4.09,4.09,0,0,0,90.32,47l.1-.7s-.3-.21-.34-.38a.39.39,0,0,1,0-.27Z"/><path class="cls-7" d="M91.35,41.59a29.75,29.75,0,0,0-6.46.06c-3,.43-7.52,1.86-7.46,2.06s4.94-1.63,7.36-1.8,6.74,0,6.74,0Z"/><path class="cls-7" d="M89.83,41.7a3.28,3.28,0,0,1-.63,1.17,8.7,8.7,0,0,0-1.08,1.69A10.44,10.44,0,0,0,89.37,43c.36-.53.82-1.27.82-1.27Z"/><path class="cls-7" d="M86.83,41.72a5,5,0,0,1-.66,1.91c-.66,1.36-.92,1.76-.76,1.79s.66-1,1-1.74.85-2,.85-2Z"/><path class="cls-7" d="M83.92,42a3.69,3.69,0,0,1-.23,1.43c-.3,1-.66,1.57-.53,1.64s.49-.87.69-1.59.5-1.63.5-1.63Z"/><path class="cls-7" d="M80.78,42.74a2.13,2.13,0,0,1-.16.84c-.18.51-.47,1-.38,1a1.93,1.93,0,0,0,.53-.92l.28-1Z"/><path class="cls-7" d="M90.19,41.62a4.38,4.38,0,0,0-1.13-1.09,3.53,3.53,0,0,0-1.46-.6c-.08.07.83.33,1.15.54a12.23,12.23,0,0,1,1.18,1.14Z"/><path class="cls-7" d="M87.11,41.53a2.88,2.88,0,0,0-.93-1.23,4.57,4.57,0,0,0-2.05-.8c-.2.06,1.5.49,1.88.86a4.23,4.23,0,0,1,.69,1.21Z"/><path class="cls-7" d="M84.35,41.84A6.75,6.75,0,0,0,83,40.75a5.58,5.58,0,0,0-1.66-.42c-.19,0,1.28.33,1.69.62a9.06,9.06,0,0,1,1,1Z"/><path class="cls-7" d="M80.78,42.65s0-.24-.73-.5-1.07-.43-.92-.43A4.16,4.16,0,0,1,80,42a5.61,5.61,0,0,1,1.07.6Z"/><path class="cls-3" d="M72,46.74c3,2.2,6.91,9.14,2.29,14.85s-11.37,6.06-16.46,2.7a11.48,11.48,0,0,1-1.43-18.13C61.5,41.26,67.45,43.43,72,46.74Z"/><path class="cls-4" d="M59.46,45.93h0Z"/><path class="cls-4" d="M60.16,46.65c.34-.17.74-.53.41-.85s-.78.05-1.09.12C59,46.32,59.22,47.1,60.16,46.65Z"/><path class="cls-4" d="M59.48,45.92l.53-.21A.85.85,0,0,0,59.48,45.92Z"/><path class="cls-4" d="M58.52,47.45c.14-.09.31-.3.14-.44a.23.23,0,0,0-.34.08.42.42,0,0,0-.21.28C58.08,47.67,58.39,47.55,58.52,47.45Z"/><path class="cls-4" d="M60.81,47.27a.35.35,0,0,0-.33,0c-.16,0-.35.09-.39.21s0,.06,0,.08l0,0,0,0c0,.14.38,0,.51,0S61.08,47.42,60.81,47.27Z"/><path class="cls-4" d="M60.05,47.6l0,0Z"/><path class="cls-4" d="M61.54,46.49c-.15,0-.32.21-.23.36s.44.09.56,0C62.38,46.59,61.73,46.38,61.54,46.49Z"/><path class="cls-4" d="M62.17,45.56c-.1,0-.29-.06-.37,0a.15.15,0,0,0,0,.18c0,.1.18.2.25.23s.92.33,1,.07S62.36,45.59,62.17,45.56Z"/><path class="cls-4" d="M61.34,45c.15.09.71.07.77-.16s-.3-.28-.45-.26a.68.68,0,0,0-.24.14C61.27,44.83,61.16,45,61.34,45Z"/><path class="cls-4" d="M58.62,46.37c.29-.22,0-.34-.22-.29h0c-.13,0-.46.15-.38.33S58.51,46.45,58.62,46.37Z"/><path class="cls-4" d="M57.4,47.75c.11-.12.44-.67.06-.69a.26.26,0,0,0-.19.1,1.08,1.08,0,0,0-.39.53C56.73,48.2,57.21,48,57.4,47.75Z"/><path class="cls-4" d="M59.45,47.9A.75.75,0,0,0,59,48a1,1,0,0,0-.67.51c-.12.52.79.15,1,.08S59.88,48.06,59.45,47.9Z"/><path class="cls-4" d="M61,48.31c-.15,0-.3.17-.3.29s.52.18.67.11C61.91,48.45,61.18,48.2,61,48.31Z"/><path class="cls-4" d="M64.56,45.43a.27.27,0,0,0-.25.1.69.69,0,0,0,1,0A.58.58,0,0,0,64.56,45.43Z"/><path class="cls-4" d="M63.09,46.77c.31.11,1.16.17,1.23-.27a.7.7,0,0,0-.68-.08C63.37,46.4,63.09,46.49,63.09,46.77Z"/><path class="cls-4" d="M63.7,44.47a.44.44,0,0,0-.62-.06.28.28,0,0,0-.15.18A.59.59,0,0,0,63.7,44.47Z"/><path class="cls-4" d="M66,46.3c-.63,0,.18.81.53.55S66.26,46.14,66,46.3Z"/><path class="cls-4" d="M57.08,48.89c-.19-.15-.36,0-.47.18-.42.27-.92.91-.52,1.06S57.07,49.24,57.08,48.89Z"/><path class="cls-4" d="M55.93,48.07c-.54.1-.29,1,.23.39C56.48,48.07,56.15,48,55.93,48.07Z"/><path class="cls-4" d="M59,49.72a.28.28,0,0,0-.2.25c.2.14.74.15.87-.11S59.18,49.41,59,49.72Z"/><path class="cls-4" d="M63.79,48.24l0,0a.43.43,0,0,0,0,.11s0,.1,0,.11c.12.3.74.31.62-.06S63.94,48.1,63.79,48.24Z"/><path class="cls-4" d="M69.35,47.46c-.37-.51-1.12,0-.65.16C69,47.82,69.71,48,69.35,47.46Z"/><path class="cls-4" d="M56.4,52.25l.08-.14a.87.87,0,0,0-.4.64c.21,0,.85-.37.83-.65S56.59,52,56.4,52.25Z"/><path class="cls-4" d="M62.08,50.83a.16.16,0,0,0,.21.05c.26,0,.74,0,.54-.32S62.15,50.61,62.08,50.83Z"/><path class="cls-4" d="M54.24,50.55a.4.4,0,0,0,0,.22c.32.11,1.13,0,.86-.51S54.33,50.17,54.24,50.55Z"/><path class="cls-4" d="M55.36,49.19h0a.27.27,0,0,0-.33.26.4.4,0,0,0,.56-.21A.34.34,0,0,0,55.36,49.19Z"/><path class="cls-5" d="M56.41,60.51c-1.18.85,4.8,5.19,8.69,5a11.45,11.45,0,0,0,9.4-6c1-2.14.67-8.23-.62-7.8-.46.15.11,2.21-1.78,5.34-1.65,2.75-4.47,5.45-8.21,5.27C58.77,62.1,57.19,59.94,56.41,60.51Z"/><path class="cls-6" d="M69.23,45.45a.54.54,0,0,0-.49.83c.33.8,2.27,2.1,2.83,1.88s.59-.87-.23-1.49A4.66,4.66,0,0,0,69.23,45.45Z"/><path class="cls-6" d="M70.24,46.52s2.26-2.34,2.91-3.22a41.89,41.89,0,0,0,2.14-4.23s.2-.3.48-.24.19.46.19.46-1.57,3.23-2.21,4.12c-1.3,1.81-3,3.77-3,3.77Z"/><path class="cls-6" d="M74.19,42.11c-.14,0-3.73-.47-3.73-.47l-.14.21,1.85.31,1.85.3Z"/><path class="cls-6" d="M66.41,46.31c-3.85,1-9.55-1.76-9.55-1.76s3.81-4.44,7.07-4.77,8.93,2.27,8.93,2.27A13.44,13.44,0,0,1,66.41,46.31Z"/><path class="cls-7" d="M69.26,45.68a.8.8,0,0,0-.08.79c.27.55,1.4,1.12,1.4,1.12l.09-.7s-.3-.21-.33-.39a.41.41,0,0,1,0-.27Z"/><path class="cls-7" d="M71.6,42.14a30.48,30.48,0,0,0-6.46.06c-3,.44-7.52,1.87-7.46,2.07s4.94-1.64,7.36-1.8,6.74,0,6.74,0Z"/><path class="cls-7" d="M70.08,42.25a3.41,3.41,0,0,1-.62,1.18,8.25,8.25,0,0,0-1.09,1.68,10.76,10.76,0,0,0,1.26-1.56c.35-.53.81-1.27.81-1.27Z"/><path class="cls-7" d="M67.09,42.28a5.29,5.29,0,0,1-.66,1.91c-.67,1.36-.93,1.75-.77,1.79s.66-1,1-1.75.85-2,.85-2Z"/><path class="cls-7" d="M64.17,42.55A3.63,3.63,0,0,1,63.94,44c-.3,1-.66,1.57-.52,1.64s.48-.86.68-1.59.5-1.62.5-1.62Z"/><path class="cls-7" d="M61,43.29a2.39,2.39,0,0,1-.16.84c-.19.52-.48,1-.39,1a1.82,1.82,0,0,0,.53-.92l.28-1Z"/><path class="cls-7" d="M70.44,42.17a4.25,4.25,0,0,0-1.13-1.08,3.53,3.53,0,0,0-1.46-.6c-.08.07.83.33,1.15.54a12.62,12.62,0,0,1,1.19,1.14Z"/><path class="cls-7" d="M67.36,42.08a2.85,2.85,0,0,0-.92-1.22,4.44,4.44,0,0,0-2.06-.8c-.19.06,1.5.49,1.88.86a4.36,4.36,0,0,1,.7,1.21Z"/><path class="cls-7" d="M64.6,42.4a6.6,6.6,0,0,0-1.38-1.09,5.66,5.66,0,0,0-1.66-.42c-.2,0,1.27.32,1.68.61a8.4,8.4,0,0,1,1.05,1Z"/><path class="cls-7" d="M61,43.21s-.05-.25-.73-.5-1.07-.43-.92-.43a4.57,4.57,0,0,1,.91.23,6.29,6.29,0,0,1,1.08.61Z"/><path class="cls-3" d="M53,28.94c3,2.2,6.91,9.14,2.29,14.85S44,49.85,38.86,46.49a11.47,11.47,0,0,1-1.42-18.13C42.58,23.46,48.53,25.63,53,28.94Z"/><path class="cls-4" d="M40.55,28.13h0Z"/><path class="cls-4" d="M41.24,28.85c.35-.17.74-.53.42-.85s-.78,0-1.1.12C40.13,28.52,40.31,29.3,41.24,28.85Z"/><path class="cls-4" d="M40.57,28.12l.53-.21A.78.78,0,0,0,40.57,28.12Z"/><path class="cls-4" d="M39.61,29.65c.13-.1.31-.3.14-.44a.23.23,0,0,0-.34.07.43.43,0,0,0-.21.29C39.17,29.86,39.47,29.75,39.61,29.65Z"/><path class="cls-4" d="M41.9,29.47a.35.35,0,0,0-.33,0c-.16,0-.35.08-.39.21a.11.11,0,0,0,0,.08s0,0,0,0l0,0c0,.14.38,0,.51,0S42.16,29.62,41.9,29.47Z"/><path class="cls-4" d="M41.13,29.8l0,0Z"/><path class="cls-4" d="M42.63,28.69c-.15,0-.32.21-.23.36s.44.09.56,0C43.46,28.79,42.82,28.58,42.63,28.69Z"/><path class="cls-4" d="M43.26,27.76c-.11,0-.29-.06-.37,0a.15.15,0,0,0,0,.18c0,.1.18.2.25.23s.92.33,1,.07S43.44,27.79,43.26,27.76Z"/><path class="cls-4" d="M42.43,27.24c.15.09.71.07.77-.16s-.31-.28-.45-.26a.6.6,0,0,0-.24.14C42.36,27,42.24,27.15,42.43,27.24Z"/><path class="cls-4" d="M39.71,28.57c.29-.22,0-.34-.22-.3h0c-.13,0-.46.15-.37.33S39.6,28.65,39.71,28.57Z"/><path class="cls-4" d="M38.49,30c.11-.12.44-.67.06-.69a.3.3,0,0,0-.2.1,1.06,1.06,0,0,0-.38.53C37.82,30.4,38.3,30.17,38.49,30Z"/><path class="cls-4" d="M40.54,30.1a.8.8,0,0,0-.5,0,1,1,0,0,0-.67.52c-.12.52.79.15,1,.08S41,30.26,40.54,30.1Z"/><path class="cls-4" d="M42.06,30.51c-.14,0-.3.17-.29.29s.52.18.66.11C43,30.65,42.26,30.4,42.06,30.51Z"/><path class="cls-4" d="M45.65,27.63a.25.25,0,0,0-.25.1.7.7,0,0,0,1.05,0A.59.59,0,0,0,45.65,27.63Z"/><path class="cls-4" d="M44.17,29c.32.11,1.17.17,1.23-.27a.7.7,0,0,0-.68-.08C44.46,28.6,44.18,28.69,44.17,29Z"/><path class="cls-4" d="M44.79,26.67a.46.46,0,0,0-.63-.06.24.24,0,0,0-.14.18A.59.59,0,0,0,44.79,26.67Z"/><path class="cls-4" d="M47.1,28.5c-.63,0,.18.81.53.55S47.35,28.34,47.1,28.5Z"/><path class="cls-4" d="M38.17,31.09c-.2-.15-.36,0-.47.18-.42.27-.93.91-.53,1.06S38.16,31.44,38.17,31.09Z"/><path class="cls-4" d="M37,30.27c-.54.1-.28,1,.23.39C37.56,30.27,37.24,30.15,37,30.27Z"/><path class="cls-4" d="M40.09,31.92a.28.28,0,0,0-.2.25c.2.14.74.15.87-.11S40.27,31.61,40.09,31.92Z"/><path class="cls-4" d="M44.88,30.44l0,0a.22.22,0,0,0,0,.11s0,.1,0,.11c.11.3.73.31.61-.06S45,30.3,44.88,30.44Z"/><path class="cls-4" d="M50.44,29.66c-.37-.51-1.12,0-.65.15C50.07,30,50.79,30.15,50.44,29.66Z"/><path class="cls-4" d="M37.49,34.45l.07-.14a.93.93,0,0,0-.4.64c.22,0,.85-.37.84-.65S37.67,34.17,37.49,34.45Z"/><path class="cls-4" d="M43.16,33a.17.17,0,0,0,.22,0c.26,0,.74,0,.53-.32S43.24,32.81,43.16,33Z"/><path class="cls-4" d="M35.33,32.75a.4.4,0,0,0,0,.22c.32.11,1.13,0,.86-.51S35.42,32.37,35.33,32.75Z"/><path class="cls-4" d="M36.44,31.39h0a.27.27,0,0,0-.33.26.39.39,0,0,0,.55-.21A.33.33,0,0,0,36.44,31.39Z"/><path class="cls-5" d="M37.5,42.7c-1.18.86,4.8,5.2,8.68,5a11.45,11.45,0,0,0,9.41-6c1-2.14.66-8.23-.62-7.81-.46.16.1,2.22-1.78,5.35C51.53,42,48.71,44.74,45,44.56,39.86,44.3,38.27,42.14,37.5,42.7Z"/><path class="cls-6" d="M50.32,27.65a.54.54,0,0,0-.49.83c.32.8,2.27,2.1,2.83,1.88s.59-.87-.23-1.49A4.66,4.66,0,0,0,50.32,27.65Z"/><path class="cls-6" d="M51.33,28.72s2.26-2.34,2.91-3.22a41.89,41.89,0,0,0,2.14-4.23s.2-.3.47-.24.2.46.2.46-1.58,3.23-2.22,4.12c-1.29,1.81-3,3.77-3,3.77Z"/><path class="cls-6" d="M55.27,24.31c-.14,0-3.73-.47-3.73-.47l-.13.21,1.85.3,1.85.31Z"/><path class="cls-6" d="M47.5,28.51c-3.85,1-9.55-1.77-9.55-1.77S41.76,22.31,45,22,54,24.25,54,24.25A13.44,13.44,0,0,1,47.5,28.51Z"/><path class="cls-7" d="M50.35,27.88a.82.82,0,0,0-.09.79,4.16,4.16,0,0,0,1.4,1.12l.1-.71s-.31-.2-.34-.38a.41.41,0,0,1,0-.27Z"/><path class="cls-7" d="M52.69,24.34a30.51,30.51,0,0,0-6.46.06c-3,.44-7.52,1.87-7.46,2.07s4.94-1.64,7.36-1.8,6.74,0,6.74,0Z"/><path class="cls-7" d="M51.17,24.45a3.36,3.36,0,0,1-.63,1.18,8.47,8.47,0,0,0-1.08,1.68,10.21,10.21,0,0,0,1.25-1.56c.36-.53.82-1.27.82-1.27Z"/><path class="cls-7" d="M48.17,24.48a5.29,5.29,0,0,1-.66,1.91c-.66,1.36-.93,1.75-.76,1.79s.66-1,1-1.75.85-2,.85-2Z"/><path class="cls-7" d="M45.26,24.75A3.63,3.63,0,0,1,45,26.17c-.3,1-.66,1.57-.53,1.64s.49-.86.69-1.59.5-1.62.5-1.62Z"/><path class="cls-7" d="M42.12,25.49a2.13,2.13,0,0,1-.16.84c-.18.52-.47,1-.38,1a1.82,1.82,0,0,0,.53-.92l.28-1Z"/><path class="cls-7" d="M51.53,24.37a4.25,4.25,0,0,0-1.13-1.08,3.53,3.53,0,0,0-1.46-.6c-.08.07.83.33,1.15.54a12.23,12.23,0,0,1,1.18,1.14Z"/><path class="cls-7" d="M48.45,24.28a2.88,2.88,0,0,0-.93-1.23,4.7,4.7,0,0,0-2.05-.8c-.2.07,1.5.5,1.88.87a4.23,4.23,0,0,1,.69,1.2Z"/><path class="cls-7" d="M45.69,24.6a6.75,6.75,0,0,0-1.39-1.09,5.58,5.58,0,0,0-1.66-.42c-.19,0,1.28.32,1.69.61a8.84,8.84,0,0,1,1,1Z"/><path class="cls-7" d="M42.12,25.41s0-.25-.74-.5-1.06-.43-.91-.43a4.75,4.75,0,0,1,.91.23,6.06,6.06,0,0,1,1.07.61Z"/><path class="cls-3" d="M26.56,44.64c-3,2.19-6.91,9.14-2.29,14.85s11.37,6.05,16.46,2.69a11.48,11.48,0,0,0,1.43-18.13C37,39.15,31.06,41.32,26.56,44.64Z"/><path class="cls-4" d="M39.05,43.82h0Z"/><path class="cls-4" d="M38.35,44.54c-.35-.17-.74-.53-.41-.84s.78,0,1.09.12C39.47,44.22,39.29,45,38.35,44.54Z"/><path class="cls-4" d="M39,43.81l-.53-.2A.87.87,0,0,1,39,43.81Z"/><path class="cls-4" d="M40,45.35c-.14-.1-.31-.3-.14-.44a.22.22,0,0,1,.33.07.44.44,0,0,1,.22.29C40.43,45.56,40.12,45.44,40,45.35Z"/><path class="cls-4" d="M37.7,45.16a.33.33,0,0,1,.33,0c.15,0,.35.08.38.21a.25.25,0,0,1,0,.08l0,0,0,0c0,.15-.39,0-.51,0S37.43,45.31,37.7,45.16Z"/><path class="cls-4" d="M38.46,45.5h0Z"/><path class="cls-4" d="M37,44.38c.15,0,.32.21.23.36s-.44.09-.56,0C36.13,44.48,36.78,44.27,37,44.38Z"/><path class="cls-4" d="M36.34,43.46c.1,0,.29-.07.37,0a.12.12,0,0,1,0,.17c0,.11-.18.2-.25.24s-.91.32-1,.06S36.15,43.48,36.34,43.46Z"/><path class="cls-4" d="M37.17,42.94c-.16.08-.71.06-.77-.16s.3-.28.45-.26a.61.61,0,0,1,.24.14C37.24,42.73,37.35,42.84,37.17,42.94Z"/><path class="cls-4" d="M39.89,44.26c-.29-.21,0-.33.22-.29h0c.13,0,.46.15.37.33S40,44.35,39.89,44.26Z"/><path class="cls-4" d="M41.11,45.64c-.11-.12-.44-.66-.06-.69a.26.26,0,0,1,.19.11,1,1,0,0,1,.39.53C41.78,46.09,41.29,45.86,41.11,45.64Z"/><path class="cls-4" d="M39.06,45.8a.74.74,0,0,1,.5,0c.28.08.61.3.66.51.13.52-.78.15-1,.08S38.63,46,39.06,45.8Z"/><path class="cls-4" d="M37.53,46.21c.15,0,.3.17.3.29s-.52.17-.67.11C36.6,46.34,37.33,46.09,37.53,46.21Z"/><path class="cls-4" d="M34,43.32a.28.28,0,0,1,.25.11.69.69,0,0,1-1.05,0A.6.6,0,0,1,34,43.32Z"/><path class="cls-4" d="M35.42,44.67c-.31.11-1.16.16-1.23-.28a.75.75,0,0,1,.68-.08C35.14,44.3,35.42,44.39,35.42,44.67Z"/><path class="cls-4" d="M34.81,42.37a.45.45,0,0,1,.62-.07.32.32,0,0,1,.15.19A.61.61,0,0,1,34.81,42.37Z"/><path class="cls-4" d="M32.5,44.2c.62,0-.18.8-.53.55S32.25,44,32.5,44.2Z"/><path class="cls-4" d="M41.43,46.79c.19-.16.36,0,.47.18.42.27.92.9.52,1.06S41.44,47.13,41.43,46.79Z"/><path class="cls-4" d="M42.58,46c.54.11.29,1-.23.39C42,46,42.36,45.85,42.58,46Z"/><path class="cls-4" d="M39.51,47.61a.31.31,0,0,1,.2.25c-.2.15-.74.16-.88-.11S39.33,47.3,39.51,47.61Z"/><path class="cls-4" d="M34.72,46.14l0,0a.52.52,0,0,1,0,.11s0,.1,0,.12c-.11.29-.73.3-.61-.07S34.57,46,34.72,46.14Z"/><path class="cls-4" d="M29.16,45.35c.36-.5,1.12,0,.64.16C29.53,45.71,28.8,45.84,29.16,45.35Z"/><path class="cls-4" d="M42.11,50.14,42,50a.9.9,0,0,1,.4.63c-.21.06-.85-.37-.83-.65S41.92,49.87,42.11,50.14Z"/><path class="cls-4" d="M36.43,48.72a.16.16,0,0,1-.21.05c-.26,0-.74,0-.54-.32S36.36,48.5,36.43,48.72Z"/><path class="cls-4" d="M44.27,48.44a.41.41,0,0,1,0,.22c-.32.11-1.13,0-.86-.51S44.18,48.07,44.27,48.44Z"/><path class="cls-4" d="M43.15,47.08h0a.27.27,0,0,1,.33.27.4.4,0,0,1-.56-.22A.41.41,0,0,1,43.15,47.08Z"/><path class="cls-5" d="M42.1,58.4c1.17.86-4.8,5.19-8.69,5a11.44,11.44,0,0,1-9.4-6c-1-2.15-.67-8.23.62-7.81.46.15-.11,2.22,1.78,5.34,1.65,2.75,4.47,5.46,8.21,5.27C39.74,60,41.32,57.83,42.1,58.4Z"/><path class="cls-6" d="M29.28,43.34a.55.55,0,0,1,.49.84c-.33.8-2.28,2.09-2.84,1.88s-.58-.87.24-1.5A4.66,4.66,0,0,1,29.28,43.34Z"/><path class="cls-6" d="M28.27,44.41S26,42.07,25.36,41.19A42,42,0,0,1,23.22,37s-.2-.3-.48-.25-.19.47-.19.47,1.57,3.23,2.21,4.11c1.3,1.81,3,3.78,3,3.78Z"/><path class="cls-6" d="M24.32,40l3.73-.47.14.22-1.85.3-1.85.3Z"/><path class="cls-6" d="M32.09,44.21c3.86,1,9.55-1.77,9.55-1.77s-3.8-4.43-7.06-4.77-8.93,2.27-8.93,2.27A13.5,13.5,0,0,0,32.09,44.21Z"/><path class="cls-7" d="M29.25,43.58a.8.8,0,0,1,.08.79,4.09,4.09,0,0,1-1.4,1.11l-.09-.7s.3-.21.33-.38a.39.39,0,0,0,0-.27Z"/><path class="cls-7" d="M26.91,40a29.75,29.75,0,0,1,6.46.06c3,.43,7.52,1.86,7.46,2.07s-4.95-1.64-7.36-1.8-6.74,0-6.74,0Z"/><path class="cls-7" d="M28.42,40.15a3.52,3.52,0,0,0,.63,1.17A8.47,8.47,0,0,1,30.14,43a11,11,0,0,1-1.26-1.57c-.35-.53-.81-1.27-.81-1.27Z"/><path class="cls-7" d="M31.42,40.17a5.29,5.29,0,0,0,.66,1.91c.66,1.36.93,1.76.77,1.79s-.66-1-1-1.74-.85-2-.85-2Z"/><path class="cls-7" d="M34.34,40.44a3.69,3.69,0,0,0,.23,1.43c.29,1,.66,1.57.52,1.64s-.48-.87-.68-1.59-.5-1.63-.5-1.63Z"/><path class="cls-7" d="M37.47,41.19a2.39,2.39,0,0,0,.16.84c.19.51.48,1,.39,1a1.92,1.92,0,0,1-.54-.92c-.13-.46-.27-1-.27-1Z"/><path class="cls-7" d="M28.07,40.07A4.38,4.38,0,0,1,29.2,39a3.46,3.46,0,0,1,1.46-.59c.07.07-.83.32-1.15.53a12.62,12.62,0,0,0-1.19,1.14Z"/><path class="cls-7" d="M31.15,40a2.91,2.91,0,0,1,.92-1.23,4.56,4.56,0,0,1,2.06-.8c.19.06-1.5.49-1.88.87a4.22,4.22,0,0,0-.7,1.2Z"/><path class="cls-7" d="M33.91,40.29a6.6,6.6,0,0,1,1.38-1.09A5.66,5.66,0,0,1,37,38.78c.2,0-1.27.33-1.68.62a8.6,8.6,0,0,0-1.05,1Z"/><path class="cls-7" d="M37.48,41.1s.05-.24.73-.5,1.06-.43.92-.43a4.16,4.16,0,0,0-.91.24,5.66,5.66,0,0,0-1.08.61Z"/><path class="cls-3" d="M55.54,46.74c3,2.2,6.91,9.14,2.29,14.85s-11.37,6.06-16.46,2.7a11.48,11.48,0,0,1-1.43-18.13C45.09,41.26,51,43.43,55.54,46.74Z"/><path class="cls-4" d="M43.05,45.93h0Z"/><path class="cls-4" d="M43.75,46.65c.34-.17.74-.53.41-.85s-.78.05-1.09.12C42.63,46.32,42.81,47.1,43.75,46.65Z"/><path class="cls-4" d="M43.07,45.92l.53-.21A.85.85,0,0,0,43.07,45.92Z"/><path class="cls-4" d="M42.11,47.45c.14-.09.31-.3.14-.44a.22.22,0,0,0-.33.08.41.41,0,0,0-.22.28C41.67,47.67,42,47.55,42.11,47.45Z"/><path class="cls-4" d="M44.4,47.27a.35.35,0,0,0-.33,0c-.16,0-.35.09-.38.21a.28.28,0,0,0,0,.08.05.05,0,0,1,0,0l0,0c0,.14.38,0,.51,0S44.67,47.42,44.4,47.27Z"/><path class="cls-4" d="M43.64,47.6l0,0Z"/><path class="cls-4" d="M45.13,46.49c-.15,0-.32.21-.23.36s.44.09.56,0C46,46.59,45.32,46.38,45.13,46.49Z"/><path class="cls-4" d="M45.76,45.56c-.1,0-.29-.06-.37,0a.15.15,0,0,0,0,.18c0,.1.18.2.25.23s.92.33,1,.07S46,45.59,45.76,45.56Z"/><path class="cls-4" d="M44.93,45c.15.09.71.07.77-.16s-.3-.28-.45-.26a.68.68,0,0,0-.24.14C44.86,44.83,44.75,45,44.93,45Z"/><path class="cls-4" d="M42.21,46.37c.29-.22,0-.34-.22-.29h0c-.13,0-.46.15-.37.33S42.1,46.45,42.21,46.37Z"/><path class="cls-4" d="M41,47.75c.11-.12.44-.67.06-.69a.26.26,0,0,0-.19.1,1.08,1.08,0,0,0-.39.53C40.32,48.2,40.8,48,41,47.75Z"/><path class="cls-4" d="M43,47.9a.75.75,0,0,0-.5.05,1,1,0,0,0-.67.51c-.12.52.79.15,1,.08S43.47,48.06,43,47.9Z"/><path class="cls-4" d="M44.57,48.31c-.15,0-.3.17-.3.29s.52.18.67.11C45.5,48.45,44.77,48.2,44.57,48.31Z"/><path class="cls-4" d="M48.15,45.43a.27.27,0,0,0-.25.1.69.69,0,0,0,1.05,0A.58.58,0,0,0,48.15,45.43Z"/><path class="cls-4" d="M46.68,46.77c.31.11,1.16.17,1.23-.27a.7.7,0,0,0-.68-.08C47,46.4,46.68,46.49,46.68,46.77Z"/><path class="cls-4" d="M47.29,44.47a.44.44,0,0,0-.62-.06.28.28,0,0,0-.15.18A.59.59,0,0,0,47.29,44.47Z"/><path class="cls-4" d="M49.6,46.3c-.63,0,.18.81.53.55S49.85,46.14,49.6,46.3Z"/><path class="cls-4" d="M40.67,48.89c-.19-.15-.36,0-.47.18-.42.27-.92.91-.52,1.06S40.66,49.24,40.67,48.89Z"/><path class="cls-4" d="M39.52,48.07c-.54.1-.29,1,.23.39C40.07,48.07,39.74,48,39.52,48.07Z"/><path class="cls-4" d="M42.59,49.72a.28.28,0,0,0-.2.25c.2.14.74.15.87-.11S42.77,49.41,42.59,49.72Z"/><path class="cls-4" d="M47.38,48.24l0,0a.43.43,0,0,0,0,.11s0,.1,0,.11c.12.3.74.31.62-.06S47.53,48.1,47.38,48.24Z"/><path class="cls-4" d="M52.94,47.46c-.37-.51-1.12,0-.65.16C52.57,47.82,53.3,48,52.94,47.46Z"/><path class="cls-4" d="M40,52.25l.08-.14a.87.87,0,0,0-.4.64c.21,0,.85-.37.83-.65S40.18,52,40,52.25Z"/><path class="cls-4" d="M45.67,50.83a.16.16,0,0,0,.21.05c.26,0,.74,0,.54-.32S45.74,50.61,45.67,50.83Z"/><path class="cls-4" d="M37.83,50.55a.4.4,0,0,0,0,.22c.32.11,1.13,0,.86-.51S37.92,50.17,37.83,50.55Z"/><path class="cls-4" d="M39,49.19h0a.27.27,0,0,0-.33.26.4.4,0,0,0,.56-.21A.34.34,0,0,0,39,49.19Z"/><path class="cls-5" d="M40,60.51c-1.18.85,4.8,5.19,8.69,5a11.45,11.45,0,0,0,9.4-6c1-2.14.67-8.23-.62-7.8-.46.15.11,2.21-1.78,5.34-1.65,2.75-4.47,5.45-8.21,5.27C42.36,62.1,40.78,59.94,40,60.51Z"/><path class="cls-6" d="M52.82,45.45a.54.54,0,0,0-.49.83c.33.8,2.27,2.1,2.83,1.88s.59-.87-.23-1.49A4.61,4.61,0,0,0,52.82,45.45Z"/><path class="cls-6" d="M53.83,46.52s2.26-2.34,2.91-3.22a41.89,41.89,0,0,0,2.14-4.23s.2-.3.48-.24.19.46.19.46S58,42.52,57.34,43.41c-1.3,1.81-3,3.77-3,3.77Z"/><path class="cls-6" d="M57.78,42.11c-.14,0-3.73-.47-3.73-.47l-.14.21,1.85.31,1.85.3Z"/><path class="cls-6" d="M50,46.31c-3.85,1-9.55-1.76-9.55-1.76s3.81-4.44,7.07-4.77,8.93,2.27,8.93,2.27A13.44,13.44,0,0,1,50,46.31Z"/><path class="cls-7" d="M52.85,45.68a.8.8,0,0,0-.08.79c.27.55,1.4,1.12,1.4,1.12l.09-.7s-.3-.21-.33-.39a.41.41,0,0,1,0-.27Z"/><path class="cls-7" d="M55.19,42.14a30.48,30.48,0,0,0-6.46.06c-3,.44-7.52,1.87-7.46,2.07s4.95-1.64,7.36-1.8,6.74,0,6.74,0Z"/><path class="cls-7" d="M53.67,42.25a3.41,3.41,0,0,1-.62,1.18A8.25,8.25,0,0,0,52,45.11a10.76,10.76,0,0,0,1.26-1.56c.35-.53.81-1.27.81-1.27Z"/><path class="cls-7" d="M50.68,42.28A5.29,5.29,0,0,1,50,44.19c-.67,1.36-.93,1.75-.77,1.79s.66-1,1-1.75.85-2,.85-2Z"/><path class="cls-7" d="M47.76,42.55A3.63,3.63,0,0,1,47.53,44c-.3,1-.66,1.57-.52,1.64s.48-.86.68-1.59.5-1.62.5-1.62Z"/><path class="cls-7" d="M44.63,43.29a2.39,2.39,0,0,1-.16.84c-.19.52-.48,1-.39,1a1.82,1.82,0,0,0,.53-.92l.28-1Z"/><path class="cls-7" d="M54,42.17a4.25,4.25,0,0,0-1.13-1.08,3.53,3.53,0,0,0-1.46-.6c-.08.07.83.33,1.15.54a12.62,12.62,0,0,1,1.19,1.14Z"/><path class="cls-7" d="M51,42.08A2.85,2.85,0,0,0,50,40.86a4.44,4.44,0,0,0-2.06-.8c-.19.06,1.5.49,1.88.86a4.36,4.36,0,0,1,.7,1.21Z"/><path class="cls-7" d="M48.19,42.4a6.6,6.6,0,0,0-1.38-1.09,5.66,5.66,0,0,0-1.66-.42c-.2,0,1.27.32,1.68.61a8.4,8.4,0,0,1,1.05,1Z"/><path class="cls-7" d="M44.62,43.21s0-.25-.73-.5-1.07-.43-.92-.43a4.57,4.57,0,0,1,.91.23,6.29,6.29,0,0,1,1.08.61Z"/><path class="cls-3" d="M9.32,46.39c-3,2.19-6.91,9.14-2.29,14.85S18.4,67.29,23.5,63.93A11.47,11.47,0,0,0,24.92,45.8C19.78,40.9,13.83,43.07,9.32,46.39Z"/><path class="cls-4" d="M21.81,45.57h0Z"/><path class="cls-4" d="M21.12,46.29c-.35-.17-.74-.53-.42-.84s.78,0,1.1.12C22.23,46,22.05,46.75,21.12,46.29Z"/><path class="cls-4" d="M21.79,45.56l-.53-.2A.83.83,0,0,1,21.79,45.56Z"/><path class="cls-4" d="M22.75,47.1c-.13-.1-.31-.3-.14-.44a.23.23,0,0,1,.34.07.43.43,0,0,1,.21.29C23.19,47.31,22.89,47.19,22.75,47.1Z"/><path class="cls-4" d="M20.46,46.91a.32.32,0,0,1,.33,0c.16,0,.35.08.39.21a.11.11,0,0,1,0,.08l.05,0-.05,0c0,.15-.38,0-.51,0S20.2,47.06,20.46,46.91Z"/><path class="cls-4" d="M21.23,47.25h0Z"/><path class="cls-4" d="M19.73,46.13c.15,0,.32.21.23.36s-.44.09-.56,0C18.9,46.23,19.54,46,19.73,46.13Z"/><path class="cls-4" d="M19.1,45.21c.11,0,.29-.07.37,0a.14.14,0,0,1,0,.17c0,.11-.18.2-.25.24s-.92.32-1,.06S18.92,45.23,19.1,45.21Z"/><path class="cls-4" d="M19.93,44.69c-.15.08-.71.06-.77-.16s.31-.28.45-.26a.5.5,0,0,1,.24.14C20,44.48,20.11,44.59,19.93,44.69Z"/><path class="cls-4" d="M22.65,46c-.29-.21,0-.33.22-.29h0c.13,0,.46.15.37.33S22.76,46.1,22.65,46Z"/><path class="cls-4" d="M23.87,47.39c-.11-.12-.44-.66-.06-.69a.27.27,0,0,1,.2.11,1,1,0,0,1,.38.53C24.54,47.84,24.06,47.61,23.87,47.39Z"/><path class="cls-4" d="M21.82,47.55a.74.74,0,0,1,.5,0c.29.08.62.3.67.51.12.52-.79.15-1,.08S21.4,47.71,21.82,47.55Z"/><path class="cls-4" d="M20.3,48c.14,0,.3.17.29.29s-.52.17-.66.11C19.37,48.09,20.1,47.84,20.3,48Z"/><path class="cls-4" d="M16.71,45.07a.26.26,0,0,1,.25.11.69.69,0,0,1-1.05,0A.61.61,0,0,1,16.71,45.07Z"/><path class="cls-4" d="M18.19,46.42c-.32.11-1.17.16-1.23-.28a.75.75,0,0,1,.68-.08C17.9,46.05,18.18,46.14,18.19,46.42Z"/><path class="cls-4" d="M17.57,44.12a.46.46,0,0,1,.63-.07.32.32,0,0,1,.14.18A.6.6,0,0,1,17.57,44.12Z"/><path class="cls-4" d="M15.26,46c.63,0-.18.8-.53.55S15,45.78,15.26,46Z"/><path class="cls-4" d="M24.19,48.54c.2-.16.36,0,.47.18.42.27.93.9.53,1.06S24.2,48.88,24.19,48.54Z"/><path class="cls-4" d="M25.35,47.71c.54.11.28,1-.23.39C24.8,47.72,25.12,47.6,25.35,47.71Z"/><path class="cls-4" d="M22.27,49.36a.29.29,0,0,1,.2.25c-.2.15-.74.16-.87-.11S22.09,49.05,22.27,49.36Z"/><path class="cls-4" d="M17.48,47.88l0,0a.52.52,0,0,1,0,.11s0,.1,0,.12c-.11.29-.73.3-.61-.07S17.33,47.74,17.48,47.88Z"/><path class="cls-4" d="M11.92,47.1c.37-.5,1.12,0,.65.16C12.29,47.46,11.57,47.59,11.92,47.1Z"/><path class="cls-4" d="M24.87,51.89l-.07-.13a.93.93,0,0,1,.4.63c-.22.06-.85-.37-.84-.65S24.69,51.62,24.87,51.89Z"/><path class="cls-4" d="M19.2,50.47a.17.17,0,0,1-.22.05c-.26,0-.74,0-.53-.32S19.12,50.25,19.2,50.47Z"/><path class="cls-4" d="M27,50.19a.41.41,0,0,1,0,.22c-.32.11-1.13,0-.86-.51S26.94,49.82,27,50.19Z"/><path class="cls-4" d="M25.92,48.83h0a.27.27,0,0,1,.33.27.39.39,0,1,1-.32-.26Z"/><path class="cls-5" d="M24.86,60.15c1.18.86-4.8,5.19-8.68,5a11.44,11.44,0,0,1-9.41-6c-1-2.15-.66-8.24.62-7.81.46.15-.1,2.22,1.78,5.34,1.65,2.75,4.48,5.46,8.21,5.27C22.5,61.75,24.09,59.58,24.86,60.15Z"/><path class="cls-6" d="M12,45.09a.55.55,0,0,1,.49.84c-.32.8-2.27,2.09-2.83,1.88s-.59-.87.23-1.5A4.76,4.76,0,0,1,12,45.09Z"/><path class="cls-6" d="M11,46.16s-2.26-2.34-2.91-3.22A41.89,41.89,0,0,1,6,38.71s-.2-.29-.47-.24-.2.47-.2.47,1.58,3.23,2.22,4.11c1.29,1.81,3,3.78,3,3.78Z"/><path class="cls-6" d="M7.09,41.75l3.73-.47.13.21L9.1,41.8l-1.85.3Z"/><path class="cls-6" d="M14.86,46c3.85,1,9.55-1.77,9.55-1.77s-3.81-4.43-7.07-4.77-8.93,2.27-8.93,2.27A13.5,13.5,0,0,0,14.86,46Z"/><path class="cls-7" d="M12,45.33a.81.81,0,0,1,.09.79,4.09,4.09,0,0,1-1.4,1.11l-.1-.7s.31-.21.34-.38a.39.39,0,0,0,0-.27Z"/><path class="cls-7" d="M9.67,41.79a29.77,29.77,0,0,1,6.46.06c3,.43,7.52,1.86,7.46,2.07s-4.94-1.64-7.36-1.8-6.74,0-6.74,0Z"/><path class="cls-7" d="M11.19,41.9a3.28,3.28,0,0,0,.63,1.17,8.7,8.7,0,0,1,1.08,1.69,10.44,10.44,0,0,1-1.25-1.57c-.36-.53-.82-1.27-.82-1.27Z"/><path class="cls-7" d="M14.19,41.92a5,5,0,0,0,.66,1.91c.66,1.36.92,1.76.76,1.79s-.66-1-1-1.74-.85-2-.85-2Z"/><path class="cls-7" d="M17.1,42.19a3.69,3.69,0,0,0,.23,1.43c.3,1,.66,1.57.53,1.64s-.49-.87-.69-1.59-.5-1.63-.5-1.63Z"/><path class="cls-7" d="M20.24,42.94a2.13,2.13,0,0,0,.16.84c.18.51.47,1,.38,1a1.93,1.93,0,0,1-.53-.92l-.28-1Z"/><path class="cls-7" d="M10.83,41.82A4.38,4.38,0,0,1,12,40.73a3.32,3.32,0,0,1,1.46-.59c.08.07-.83.32-1.15.53a12.23,12.23,0,0,0-1.18,1.14Z"/><path class="cls-7" d="M13.91,41.73a2.88,2.88,0,0,1,.93-1.23,4.57,4.57,0,0,1,2.05-.8c.2.06-1.5.49-1.88.87a4.1,4.1,0,0,0-.69,1.2Z"/><path class="cls-7" d="M16.67,42A6.75,6.75,0,0,1,18.06,41a5.58,5.58,0,0,1,1.66-.42c.19,0-1.28.33-1.69.62a9.06,9.06,0,0,0-1,1Z"/><path class="cls-7" d="M20.24,42.85s.05-.24.74-.5,1.06-.43.91-.43a4.16,4.16,0,0,0-.91.24,5.46,5.46,0,0,0-1.07.61Z"/><path class="cls-8" d="M8.58,64.8c1.21,4.8,4.31,16.83,6.17,21.38,2.36,5.73,1.26,8.24,9,9,6.68.67,20.45.36,26.27.21,5.82.15,19.6.46,26.28-.21,7.78-.79,6.68-3.3,9-9,1.87-4.55,5.22-18.45,6.42-23.25Z"/><path class="cls-9" d="M94.06,60.58c-.63-2.28-4.19-1.78-5.9-1.7-.58,0-1.17,0-1.75,0-2.93.06-5.85.09-8.77.13-3.31,0-42.61.84-45.88,1L22,60.33c-2.87.1-5.73.2-8.6.28-.57,0-1.15,0-1.72,0-1.68,0-5.2-.33-5.71,1.93A2.32,2.32,0,0,0,7.72,65.4a14.82,14.82,0,0,0,3.39-.1C14.38,65.1,17.67,65,21,65l9.94-.24L41,64.5c1.23,0,7.54-.08,9.09-.11l8.48-.21,10.28-.26L79,63.7c3.34-.08,6.69-.18,10-.12a15.22,15.22,0,0,0,3.44-.06A2.37,2.37,0,0,0,94.06,60.58Z"/><path class="cls-10" d="M13.09,65.15c-.84-.13-1.05-1.36-1.12-2A4.39,4.39,0,0,1,12.43,61a0,0,0,0,0-.07,0,3.25,3.25,0,0,0-.53,2.72,4,4,0,0,0,.17.63A2.62,2.62,0,0,1,12,61a.06.06,0,0,0-.09-.07,2.88,2.88,0,0,0,.52,4.14h.06a.79.79,0,0,0,.6.25C13.19,65.33,13.18,65.16,13.09,65.15Z"/><path class="cls-10" d="M13.22,65a3.39,3.39,0,0,1-.1-4,.06.06,0,0,0-.09-.08,3.08,3.08,0,0,0-.79,2.07,2.88,2.88,0,0,0,.87,2.15C13.18,65.11,13.27,65,13.22,65Z"/><path class="cls-10" d="M23.13,65a5.29,5.29,0,0,1-.8-4.76.06.06,0,1,0-.11-.05c-.69,1.46-.73,4,.77,5A.1.1,0,0,0,23.13,65Z"/><path class="cls-10" d="M24,65a5.25,5.25,0,0,1-.77-4.67s-.06-.08-.08,0a4,4,0,0,0-.39,2.44c0,.15.06.32.09.49-.07-.15-.15-.31-.21-.47a3.71,3.71,0,0,1,.11-2.46.07.07,0,0,0-.12,0c-.63,1.38-.63,3.39.7,4.4l.05,0a1.93,1.93,0,0,0,.45.49C23.9,65.23,24.05,65.1,24,65Z"/><path class="cls-10" d="M36.33,64.51a6.78,6.78,0,0,1-.93-2.28,4.29,4.29,0,0,1,.21-1.95c0-.13.2-.35.17-.51a.07.07,0,0,0-.07-.06c-.52.1-.71,1.65-.7,2.06a3.32,3.32,0,0,0,1.22,2.83C36.28,64.63,36.37,64.58,36.33,64.51Z"/><path class="cls-10" d="M37.38,64.48c-.85-1.33-1.58-3-1-4.6,0-.08-.07-.11-.11-.05-.72,1.3-.48,4,.95,4.8C37.36,64.69,37.43,64.55,37.38,64.48Z"/><path class="cls-10" d="M51,61.4c-.09-.65,0-1.25,0-1.88,0-.09-.11-.09-.14,0a4.27,4.27,0,0,0,.55,4,.07.07,0,0,0,.11-.07A11.35,11.35,0,0,1,51,61.4Z"/><path class="cls-10" d="M50.94,64.28a8.93,8.93,0,0,1-.86-4.71c0-.1-.12-.11-.14,0a6,6,0,0,0,0,2.6,4.9,4.9,0,0,0,.79,2.25A.12.12,0,0,0,50.94,64.28Z"/><path class="cls-10" d="M50.51,64.47a9.68,9.68,0,0,1-.81-2.28,12,12,0,0,1,0-2.54.08.08,0,1,0-.15,0c-.29,1.51-.52,3.85.77,5C50.4,64.73,50.57,64.59,50.51,64.47Z"/><path class="cls-10" d="M59.51,60.57c0-.34.07-1.15-.16-1.41,0,0-.09,0-.09,0a6.74,6.74,0,0,0,.43,3.67c0,.06.13,0,.12,0C59.72,62.07,59.57,61.33,59.51,60.57Z"/><path class="cls-10" d="M60.51,61.52c0-.78.05-1.56,0-2.33a.08.08,0,0,0-.16,0A9.28,9.28,0,0,0,60.65,64c0,.06.11,0,.1,0C60.7,63.18,60.56,62.35,60.51,61.52Z"/><path class="cls-10" d="M59.92,61.32c-.06-.65,0-1.31,0-2,0-.08-.13-.07-.15,0a6.23,6.23,0,0,0,.44,4.15s.1,0,.09,0A13,13,0,0,1,59.92,61.32Z"/><path class="cls-10" d="M68.36,61.46a15.62,15.62,0,0,0,0-2.37c0-.09-.16-.1-.17,0-.13,1.51-.5,3.72.56,5a.12.12,0,0,0,.2-.12A10.29,10.29,0,0,1,68.36,61.46Z"/><path class="cls-10" d="M69.13,61.69c-.07-.84.09-1.65.08-2.48,0-.11-.15-.09-.17,0-.33,1.37-.73,3.79.43,4.91.07.07.22,0,.2-.12A12.93,12.93,0,0,1,69.13,61.69Z"/><path class="cls-10" d="M81.2,61.71c0-.87-.21-2.4-1-2.94a.06.06,0,0,0-.09.07,9.11,9.11,0,0,1,.62,2.62c.08.74-.28,1.53-.17,2.22,0,.07.1.14.17.1C81.33,63.45,81.21,62.28,81.2,61.71Z"/><path class="cls-10" d="M81.25,58.85a.1.1,0,0,0-.18.1,7,7,0,0,1,.38,4.49c0,.07.06.14.11.07A4.14,4.14,0,0,0,81.25,58.85Z"/><path class="cls-10" d="M91.55,60.55a2.78,2.78,0,0,0-.77-2c-.09-.07-.2,0-.14.14.87,1.32.61,3.21.42,4.67a.15.15,0,0,0,.29.08A7.09,7.09,0,0,0,91.55,60.55Z"/><path class="cls-10" d="M90.44,58.58a.09.09,0,0,0-.16.09A12.12,12.12,0,0,1,90.74,60a10.43,10.43,0,0,1,.12,1.48.15.15,0,0,0,.3,0A3.81,3.81,0,0,0,90.44,58.58Z"/><path class="cls-11" d="M94.06,60.58a2,2,0,0,0-.71-1.07A2.09,2.09,0,0,1,92,60.62a15.46,15.46,0,0,1-3.4.05c-3.3-.05-6.61,0-9.91.12l-10,.22-10.15.25-8.37.2c-1.53,0-7.75.09-9,.11l-10,.22-9.8.23c-3.24.08-6.49.14-9.72.34a14.94,14.94,0,0,1-3.34.1,2.05,2.05,0,0,1-1.47-1.13A2,2,0,0,0,6,62.59,2.32,2.32,0,0,0,7.72,65.4a14.82,14.82,0,0,0,3.39-.1C14.38,65.1,17.67,65,21,65l9.94-.24L41,64.5c1.23,0,7.54-.08,9.09-.11l8.48-.21,10.28-.26L79,63.7c3.34-.08,6.69-.18,10-.12a15.22,15.22,0,0,0,3.44-.06A2.37,2.37,0,0,0,94.06,60.58Z"/><path class="cls-11" d="M81.11,62.75,70.24,63l-11,.27-9.11.22c-1.67,0-8.44.1-9.77.12l-10.84.24-10.68.26c-3.52.09-7,.15-10.57.37-.57,0-1.16.11-1.75.15a2,2,0,0,0,1.25.77,14.82,14.82,0,0,0,3.39-.1C14.38,65.1,17.67,65,21,65l9.94-.24L41,64.5c1.23,0,7.54-.08,9.09-.11l8.48-.21,10.28-.26L79,63.7c3.34-.08,6.69-.18,10-.12a15.22,15.22,0,0,0,3.44-.06,2,2,0,0,0,1.22-.82c-.6,0-1.2-.07-1.78-.07C88.3,62.57,84.71,62.67,81.11,62.75Z"/><g class="cls-12"><path class="cls-13" d="M8.77,61.12a3.06,3.06,0,0,0-1.27.14.16.16,0,0,0,0,.32,4.19,4.19,0,0,0,.5,0,6.48,6.48,0,0,0,.77-.09A.17.17,0,0,0,8.77,61.12Z"/><path class="cls-13" d="M10.11,60.94a1.1,1.1,0,0,0-.54,0,.16.16,0,0,0,0,.31,1.1,1.1,0,0,0,.54,0A.16.16,0,0,0,10.11,60.94Z"/><path class="cls-13" d="M21.45,60.73a26.2,26.2,0,0,0-4.06,0,20.78,20.78,0,0,0-3.7.21.06.06,0,0,0,0,.11,18.28,18.28,0,0,0,3.47.07A35.87,35.87,0,0,0,21.44,61,.14.14,0,0,0,21.45,60.73Z"/><path class="cls-13" d="M33.56,60.54a21.18,21.18,0,0,0-4.21.05c-1.69,0-3.36,0-5,.15-.07,0-.07.12,0,.13,1.56.09,3.14.17,4.71.19a21.5,21.5,0,0,0,4.54-.18A.17.17,0,0,0,33.56,60.54Z"/><path class="cls-13" d="M48.84,60a37.69,37.69,0,0,0-5.52.06,32.49,32.49,0,0,0-5.41.3c-.08,0-.09.15,0,.15,1.72,0,3.4.1,5.12,0a46.88,46.88,0,0,0,5.81-.21A.18.18,0,0,0,48.84,60Z"/><path class="cls-13" d="M57.73,59.91a24.87,24.87,0,0,0-2.59,0c-.89,0-1.81.16-2.69.14a.07.07,0,0,0,0,.14,12.16,12.16,0,0,0,2.34.07,22.48,22.48,0,0,0,3,0A.15.15,0,0,0,57.73,59.91Z"/><path class="cls-13" d="M67.39,59.84c-1.85-.34-3.75.06-5.6,0-.07,0-.08.08,0,.1a14.53,14.53,0,0,0,2.8.14,13.89,13.89,0,0,0,2.81,0A.12.12,0,0,0,67.39,59.84Z"/><path class="cls-13" d="M78.09,59.67c-2.74-.3-5.49,0-8.24-.08-.18,0-.22.27,0,.29a23.73,23.73,0,0,0,3.77.13c1.5-.1,3,0,4.51-.15A.1.1,0,0,0,78.09,59.67Z"/><path class="cls-13" d="M80.08,59.62a1.63,1.63,0,0,0-1.15-.13c-.16,0-.18.29,0,.3a4.93,4.93,0,0,0,1.08.09C80.12,59.86,80.2,59.69,80.08,59.62Z"/><path class="cls-13" d="M89,59.18a30.18,30.18,0,0,0-6.23.16s-.05.08,0,.08a32.42,32.42,0,0,0,6.23,0A.11.11,0,0,0,89,59.18Z"/><path class="cls-13" d="M92.8,59.32a1.51,1.51,0,0,0-.93-.19c-.14,0-.13.22,0,.24.29,0,.55.14.84.16C92.82,59.53,92.91,59.39,92.8,59.32Z"/></g><path class="cls-10" d="M14,74.72a21.05,21.05,0,0,1-.83-3.09,23.13,23.13,0,0,1-.09-3c0-.12-.16-.1-.19,0a10.19,10.19,0,0,0,.8,6.22C13.73,75,14,74.91,14,74.72Z"/><path class="cls-10" d="M16.44,75.47a11.68,11.68,0,0,1-1.17-3,21.74,21.74,0,0,1-.18-3.13c0-.16-.27-.16-.29,0-.17,2.21-.18,4.53,1.35,6.32C16.27,75.77,16.53,75.64,16.44,75.47Z"/><path class="cls-10" d="M18.52,74.45a17.92,17.92,0,0,1-.84-2.6,16.78,16.78,0,0,1-.15-3,.14.14,0,0,0-.28,0,8.51,8.51,0,0,0,1,5.77C18.36,74.76,18.58,74.61,18.52,74.45Z"/><path class="cls-10" d="M18.7,89.34a17.89,17.89,0,0,1-1.26-5,.08.08,0,1,0-.15,0,10.77,10.77,0,0,0,1.21,5.07C18.57,89.57,18.76,89.46,18.7,89.34Z"/><path class="cls-10" d="M20.9,88.88a18,18,0,0,1-1-3.11,9.16,9.16,0,0,0-.46-2.34.12.12,0,0,0-.22.06c.16.87.22,1.77.37,2.65A9.71,9.71,0,0,0,20.62,89,.15.15,0,0,0,20.9,88.88Z"/><path class="cls-10" d="M23.3,89.41A17.36,17.36,0,0,1,22,83.9c0-.17-.31-.18-.32,0a11.2,11.2,0,0,0,1.24,5.66C23.06,89.77,23.4,89.64,23.3,89.41Z"/><path class="cls-10" d="M24.79,82.47a10.34,10.34,0,0,1-1.15-2.89,32.81,32.81,0,0,1-.44-3.43c0-.12-.21-.13-.22,0a10.09,10.09,0,0,0,1.53,6.48C24.62,82.78,24.88,82.63,24.79,82.47Z"/><path class="cls-10" d="M26.6,82.81a25.48,25.48,0,0,1-1-3.29c-.2-1-.26-2.1-.44-3.15a.12.12,0,0,0-.24,0c.26,2.3.37,4.41,1.46,6.5A.12.12,0,0,0,26.6,82.81Z"/><path class="cls-10" d="M28.79,81.63a29.18,29.18,0,0,1-1-4.09.11.11,0,0,0-.21,0,9.51,9.51,0,0,0,1,4.21A.15.15,0,0,0,28.79,81.63Z"/><path class="cls-10" d="M29,76.43a22.06,22.06,0,0,1-.67-2.54c-.15-1-.25-2.1-.38-3.14a.13.13,0,0,0-.26,0,15.07,15.07,0,0,0,1,5.73C28.75,76.65,29,76.6,29,76.43Z"/><path class="cls-10" d="M31.59,76.48a15.67,15.67,0,0,1-1.08-3.06A18.84,18.84,0,0,0,30,70.85a.09.09,0,0,0-.18.05c.37,2,.3,4,1.47,5.76A.18.18,0,0,0,31.59,76.48Z"/><path class="cls-10" d="M32.73,70.83a.07.07,0,0,0-.14,0,43.12,43.12,0,0,0,1,5.15c0,.14.28.08.25-.07C33.58,74.24,33.21,72.5,32.73,70.83Z"/><path class="cls-10" d="M43.1,80.25a.1.1,0,0,0-.19,0,11,11,0,0,0,.2,5.13c0,.18.36.1.32-.09A16.54,16.54,0,0,1,43.1,80.25Z"/><path class="cls-10" d="M44.85,80.47c0-.18-.32-.18-.33,0a15.61,15.61,0,0,0,.61,5.81.15.15,0,0,0,.29-.08A44,44,0,0,1,44.85,80.47Z"/><path class="cls-10" d="M48.85,85.54a22,22,0,0,1-1.15-5.68c0-.18-.27-.13-.27,0a12.79,12.79,0,0,0,1.11,5.77A.17.17,0,0,0,48.85,85.54Z"/><path class="cls-10" d="M50.24,74c0-.09-.17-.09-.17,0a26.94,26.94,0,0,0,.33,6.53.14.14,0,0,0,.28,0A64.3,64.3,0,0,1,50.24,74Z"/><path class="cls-10" d="M52.73,73.43c0-.15-.2-.17-.23,0a13.72,13.72,0,0,0-.09,6.34.14.14,0,0,0,.27,0A29.21,29.21,0,0,1,52.73,73.43Z"/><path class="cls-10" d="M55.11,76.33c-.08-1.16,0-2.33,0-3.48,0-.15-.23-.14-.25,0a13.55,13.55,0,0,0,.66,7.25A.15.15,0,0,0,55.8,80,35.76,35.76,0,0,1,55.11,76.33Z"/><path class="cls-10" d="M66.1,81c.1-1.17.39-2.34.56-3.51a.11.11,0,0,0-.22,0c-.58,2.45-1.19,4.82-.57,7.32a.2.2,0,0,0,.39-.05A17.25,17.25,0,0,1,66.1,81Z"/><path class="cls-10" d="M68.5,78.61a.14.14,0,0,0-.28,0A18.06,18.06,0,0,0,68,85.2a.15.15,0,0,0,.3,0A41,41,0,0,1,68.5,78.61Z"/><path class="cls-10" d="M71.46,80.7a26.8,26.8,0,0,0,.14-3.1c0-.13-.21-.1-.21,0,0,1.12-.29,2.26-.36,3.38a13.39,13.39,0,0,0,.15,3.35.16.16,0,0,0,.31,0C71.45,83.11,71.42,81.91,71.46,80.7Z"/><path class="cls-10" d="M81.44,77.91a16.32,16.32,0,0,0-.88,6.61.12.12,0,0,0,.24,0c.08-1.1.07-2.2.21-3.3s.54-2.18.6-3.27C81.61,77.86,81.47,77.81,81.44,77.91Z"/><path class="cls-10" d="M83.59,78.25c-.37,2.37-1,4.69-.74,7.12,0,.21.37.22.38,0a36.28,36.28,0,0,1,.2-3.76c.12-1.11.39-2.21.42-3.33A.13.13,0,0,0,83.59,78.25Z"/><path class="cls-10" d="M72.56,88.54c0-.78.16-1.56.18-2.34a.08.08,0,0,0-.15,0,6.36,6.36,0,0,0-.34,2.34,9.43,9.43,0,0,0,.23,2.75c0,.18.32.15.29,0A14,14,0,0,1,72.56,88.54Z"/><path class="cls-10" d="M74.89,86.39c0-.11-.14-.14-.19,0a8,8,0,0,0-.07,5.07.14.14,0,0,0,.27-.07A12.5,12.5,0,0,1,74.89,86.39Z"/><path class="cls-10" d="M77.39,86.46a.11.11,0,0,0-.22,0,17.2,17.2,0,0,0,.1,4.7.18.18,0,0,0,.35,0C77.44,89.57,77.59,88,77.39,86.46Z"/><path class="cls-10" d="M74.31,73.31c.07-1,.31-1.9.47-2.86a.08.08,0,0,0-.16,0c-.49,2.09-1,4.08-.29,6.2,0,.12.24.06.22-.06A13.75,13.75,0,0,1,74.31,73.31Z"/><path class="cls-10" d="M77.19,73.35c0-.88.18-1.75.18-2.64,0-.13-.23-.13-.23,0-.15,2.12-.67,4.16,0,6.26.05.19.34.1.32-.09A19.76,19.76,0,0,1,77.19,73.35Z"/><path class="cls-10" d="M80.3,70.81c0-.17-.26-.21-.27,0-.11,2.08-.76,4.14-.37,6.24A.15.15,0,0,0,80,77,60.43,60.43,0,0,1,80.3,70.81Z"/><path class="cls-10" d="M31.92,65.75a19.22,19.22,0,0,1-5.35.46c-.09,0-.1.12,0,.14A9.84,9.84,0,0,0,32,66.07C32.18,66,32.11,65.71,31.92,65.75Z"/><path class="cls-10" d="M32.72,67.6c-1.91.38-4.16,1-6.12.51-.07,0-.1.1,0,.13a6.28,6.28,0,0,0,2.66.33,9.64,9.64,0,0,0,3.57-.68C33,67.82,32.89,67.56,32.72,67.6Z"/><path class="cls-10" d="M26.3,70.58a13.61,13.61,0,0,1-5.05.1c-.07,0-.11.1,0,.13a7.29,7.29,0,0,0,5.16.09C26.55,70.82,26.49,70.54,26.3,70.58Z"/><path class="cls-10" d="M26.63,73.09a21.23,21.23,0,0,1-5.1.14c-.09,0-.13.13,0,.15a9.81,9.81,0,0,0,5.24.08C27,73.4,26.84,73.06,26.63,73.09Z"/><path class="cls-10" d="M26.45,75.31a17.74,17.74,0,0,1-4.77-.12c-.09,0-.12.12,0,.15a7.28,7.28,0,0,0,4.89.24C26.69,75.53,26.61,75.3,26.45,75.31Z"/><path class="cls-10" d="M35.28,77a23,23,0,0,1-6.13.73c-.2,0-.25.3,0,.32a14,14,0,0,0,6.27-.7A.18.18,0,0,0,35.28,77Z"/><path class="cls-10" d="M34.73,79.88a18.73,18.73,0,0,1-5.49.24.14.14,0,0,0-.07.26,9.83,9.83,0,0,0,5.66-.13A.19.19,0,0,0,34.73,79.88Z"/><path class="cls-10" d="M34.55,82.58c-1.5.31-3.34,1-4.88.68a.12.12,0,0,0-.06.22c1.48.51,3.62,0,5-.49A.22.22,0,0,0,34.55,82.58Z"/><path class="cls-10" d="M29.4,84.4c-1.88,0-3.76.34-5.64-.08-.07,0-.1.09,0,.12a9.79,9.79,0,0,0,5.67.29C29.56,84.69,29.61,84.4,29.4,84.4Z"/><path class="cls-10" d="M29.9,86.07a21.23,21.23,0,0,1-5.34.2c-.13,0-.15.17,0,.2a12.7,12.7,0,0,0,5.42,0A.21.21,0,0,0,29.9,86.07Z"/><path class="cls-10" d="M29.85,87.87a16,16,0,0,1-5.38.45c-.11,0-.16.16,0,.19a9.09,9.09,0,0,0,5.5-.36C30.08,88.1,30,87.85,29.85,87.87Z"/><path class="cls-10" d="M20.25,76.93c-2,0-4,.48-6,.23-.12,0-.14.16,0,.19a12.8,12.8,0,0,0,6.12-.15C20.49,77.16,20.39,76.93,20.25,76.93Z"/><path class="cls-10" d="M20,79.71c-1.55-.21-3.1-.18-4.65-.32a.1.1,0,0,0,0,.2A31.37,31.37,0,0,0,20,80C20.16,80,20.2,79.73,20,79.71Z"/><path class="cls-10" d="M20.37,82.08a26.63,26.63,0,0,1-4.64.12.13.13,0,0,0,0,.26,9.11,9.11,0,0,0,4.75-.13A.13.13,0,0,0,20.37,82.08Z"/><path class="cls-10" d="M47.74,75.26c-2.16.07-4.27.15-6.43,0a.08.08,0,0,0,0,.16,17.43,17.43,0,0,0,6.48,0A.13.13,0,0,0,47.74,75.26Z"/><path class="cls-10" d="M49,77.45c-1.38,0-2.76.18-4.15.23a33.56,33.56,0,0,1-3.87-.2.09.09,0,0,0,0,.18,22.39,22.39,0,0,0,8.08.08A.15.15,0,0,0,49,77.45Z"/><path class="cls-10" d="M48.2,79.36a39,39,0,0,1-7.4.14.08.08,0,0,0,0,.16,13.44,13.44,0,0,0,3.23.21,23.84,23.84,0,0,0,4.22-.31A.1.1,0,0,0,48.2,79.36Z"/><path class="cls-10" d="M55,68.18c-1,0-1.89.1-2.85.08s-1.81-.16-2.69-.26a.06.06,0,0,0,0,.12,13.08,13.08,0,0,0,5.56.36C55.11,68.44,55.13,68.18,55,68.18Z"/><path class="cls-10" d="M54.82,69.79a21.65,21.65,0,0,1-5.63-.21c-.08,0-.12.12,0,.16a11.13,11.13,0,0,0,5.7.28A.12.12,0,0,0,54.82,69.79Z"/><path class="cls-10" d="M55.3,71.26a19.61,19.61,0,0,1-7.44.26c-.09,0-.1.1,0,.12a14.09,14.09,0,0,0,7.54-.09C55.54,71.5,55.46,71.23,55.3,71.26Z"/><path class="cls-10" d="M72.87,71.5a21.92,21.92,0,0,1-4,.16,25.57,25.57,0,0,1-3.48-.6.1.1,0,0,0-.06.19,12.78,12.78,0,0,0,7.56.57A.16.16,0,0,0,72.87,71.5Z"/><path class="cls-10" d="M72.09,73.83A20.54,20.54,0,0,1,66,73.57c-.1,0-.14.15,0,.18a11.27,11.27,0,0,0,6.14.42A.17.17,0,0,0,72.09,73.83Z"/><path class="cls-10" d="M73.16,75.89a15.33,15.33,0,0,1-7.67.36c-.18,0-.2.23,0,.27a12.2,12.2,0,0,0,7.85-.31C73.5,76.12,73.37,75.83,73.16,75.89Z"/><path class="cls-10" d="M87.5,70.63a38.5,38.5,0,0,1-5.26-.21c-.12,0-.14.16,0,.19A19.06,19.06,0,0,0,87.5,71C87.7,71,87.7,70.63,87.5,70.63Z"/><path class="cls-10" d="M86.34,72.72a14.52,14.52,0,0,1-4,.07.11.11,0,0,0,0,.22,9.9,9.9,0,0,0,4,0A.16.16,0,0,0,86.34,72.72Z"/><path class="cls-10" d="M85.86,75.46a10.55,10.55,0,0,1-4.43.33c-.11,0-.16.15-.05.19a6.3,6.3,0,0,0,4.56-.21C86.1,75.7,86,75.43,85.86,75.46Z"/><path class="cls-10" d="M79.05,77.92a23.7,23.7,0,0,1-5.19,0c-.1,0-.15.15,0,.18a9.16,9.16,0,0,0,2.45.26,15.73,15.73,0,0,0,2.83-.1A.18.18,0,0,0,79.05,77.92Z"/><path class="cls-10" d="M78.58,81a31.44,31.44,0,0,1-5.57-.5c-.15,0-.21.21-.07.25a17,17,0,0,0,5.64.6C78.78,81.38,78.78,81,78.58,81Z"/><path class="cls-10" d="M78.43,84.13A16.85,16.85,0,0,1,73,83.75a.13.13,0,0,0-.07.25,11.67,11.67,0,0,0,5.56.49A.18.18,0,0,0,78.43,84.13Z"/><g class="cls-14"><path class="cls-8" d="M54.67,68.63c.25,0,.5.37.24.58a3.7,3.7,0,0,1-2.15.49,7.84,7.84,0,0,1-2.84-.46.3.3,0,0,1-.14-.1c-.34-.13-.16-.69.24-.63a16.43,16.43,0,0,0,2.8.22A14.34,14.34,0,0,1,54.67,68.63Z"/><path class="cls-8" d="M52.08,80.09a.31.31,0,0,1-.13.36.33.33,0,0,1-.6.06,8,8,0,0,1-.8-4.15c0-.69,0-2.18.77-2.49a.37.37,0,0,1,.33.09c.38.33.26,1.1.2,1.54A10.77,10.77,0,0,0,52.08,80.09Z"/><path class="cls-8" d="M50.14,71.42c-.53,0-1.42-.34-1.58-.93-.21-.23.1-.67.44-.5,1.61.78,3.64.57,5.36.42.39,0,.45.56.09.66A12.77,12.77,0,0,1,50.14,71.42Z"/><path class="cls-8" d="M53.72,73.52a.34.34,0,0,1,.56.15,3,3,0,0,1-.18,1.86,7.78,7.78,0,0,0,0,2.68c.14.65.41,1.22.57,1.85a.34.34,0,0,1-.5.38c-1.06-.47-1.37-2.09-1.4-3.12S52.8,74.33,53.72,73.52Z"/><path class="cls-8" d="M32.4,72.68c.06.7.13,1.39.24,2.09a1.89,1.89,0,0,1-.06,1,.34.34,0,0,1-.49.2c-1-.64-1.11-2.35-1.15-3.49s0-2,.68-1.88S32.35,72.15,32.4,72.68Z"/><path class="cls-8" d="M33.67,79.57a9.37,9.37,0,0,1-4-.17.34.34,0,0,1-.18-.1.62.62,0,0,1-.14-.14.43.43,0,0,1,.12-.54.1.1,0,0,1,.05,0,.27.27,0,0,1,.28-.16,16.08,16.08,0,0,0,2.86-.14c.84-.09,1.58-.38,2.39-.5a.35.35,0,0,1,.43.32C35.56,79,34.4,79.41,33.67,79.57Z"/><path class="cls-8" d="M35,81.09c-.72,2-4.05,1.7-5.34.57a.33.33,0,0,1,.05-.51.31.31,0,0,1,.4-.27,6.55,6.55,0,0,0,2.82.14c.45-.06,1.48-.59,1.91-.31A.34.34,0,0,1,35,81.09Z"/><path class="cls-8" d="M28.49,73.08c0-.66-.2-1.63.33-2.13a.33.33,0,0,1,.41,0c.57.38.4,1.47.46,2,.1.92.64,1.92.48,2.83a.29.29,0,0,1-.28.24.26.26,0,0,1-.36-.07A5.05,5.05,0,0,1,28.49,73.08Z"/><path class="cls-8" d="M27,66.64a9.4,9.4,0,0,0,2.85.21,9.42,9.42,0,0,1,1.83-.11.34.34,0,0,1,.15.56,4.48,4.48,0,0,1-3.22.71,3,3,0,0,1-1.93-.74.32.32,0,0,1-.06-.15A.33.33,0,0,1,27,66.64Z"/><path class="cls-8" d="M27.51,82.27c-1.54.42-1.77-4.42-1.68-5.12a.35.35,0,0,1,.33-.31.32.32,0,0,1,.51-.06,1.31,1.31,0,0,1,.39.91,13.79,13.79,0,0,0,.46,2.47C27.66,80.58,28.32,82.05,27.51,82.27Z"/><path class="cls-8" d="M26.74,74.39a1.51,1.51,0,0,1-1,.7,4.25,4.25,0,0,1-4.12-.7.32.32,0,0,1,.16-.55.27.27,0,0,1,.28-.06,11.39,11.39,0,0,0,4.43.11C26.71,73.85,26.85,74.19,26.74,74.39Z"/><path class="cls-8" d="M26.2,72.23a4.92,4.92,0,0,1-4.56.46c-.29-.15-.77-.6-.3-.88h0a.37.37,0,0,1,.42-.33,27.67,27.67,0,0,0,4.27.14A.33.33,0,0,1,26.2,72.23Z"/><path class="cls-8" d="M20.38,77.77a.34.34,0,0,1,.34.33c.1,1.3-2.17,1.18-2.94,1.14-.6,0-2.51,0-2.83-.77a.34.34,0,0,1,.28-.6C17,78.28,18.66,77.76,20.38,77.77Z"/><path class="cls-8" d="M15.48,69.84a.18.18,0,0,1,.06-.09,1.17,1.17,0,0,1,.15-.27.68.68,0,0,1,.43-.31.25.25,0,0,1,.39.11,3.27,3.27,0,0,1,.14,1.21A18.43,18.43,0,0,0,17,72.57c.09.36.5,1.38.12,1.7s-.62.13-.88-.18A4.53,4.53,0,0,1,15.48,69.84Z"/><path class="cls-8" d="M13.92,74.09c-.36-.34-.42-1.18-.5-1.64a7.28,7.28,0,0,1,0-2.55.14.14,0,0,1,0-.06.91.91,0,0,1,.44-.71c.73-.38.71,2.88.72,3.12S14.82,75,13.92,74.09Z"/><path class="cls-8" d="M19.87,89a.34.34,0,0,1-.57.24c-.92-.93-1.12-2.43-1.31-3.74,0-.17-.06-.35-.08-.53,0,0,0,0,0-.08v-.06c0-.51.1-.92.57-.92.74,0,.69,1.25.76,1.7A15.46,15.46,0,0,1,19.87,89Z"/><path class="cls-8" d="M19.91,81.48c-1.24.79-5,.7-5.6-.94a.31.31,0,0,1,.14-.36c0-.22.13-.47.4-.36,1.55.61,3.16.26,4.76.49C20.28,80.4,20.58,81.06,19.91,81.48Z"/><path class="cls-8" d="M21.35,88.82a6.64,6.64,0,0,1-1.2-4.17,2.93,2.93,0,0,1,.11-.9c.11-.39.45-.89.93-.61s.3,1,.3,1.51a10,10,0,0,0,.18,2.62,5.41,5.41,0,0,1,.25,1.31A.34.34,0,0,1,21.35,88.82Z"/><path class="cls-8" d="M23.83,77.06a.49.49,0,0,1,.69-.13,2.63,2.63,0,0,1,.31,1.47c.07,1,.39,2,.51,2.95.05.34-.47.44-.62.17A7.11,7.11,0,0,1,23.83,77.06Z"/><path class="cls-8" d="M24.52,84.83c1.23.62,2.7.16,4,.31.23,0,.45.27.29.51-.49.7-1.44.54-2.2.54s-1.95,0-2.48-.76a.26.26,0,0,1,0-.08C23.86,85.12,24.17,84.66,24.52,84.83Z"/><path class="cls-8" d="M24.07,87.14a.34.34,0,0,1,.42-.41l.19.07a.33.33,0,0,1,.22,0,21,21,0,0,0,3.8.3.34.34,0,0,1,.24.57c-.69.7-2.07.54-3,.48S24.38,88,24.07,87.14Z"/><path class="cls-8" d="M70.38,84c0,.34.06.91-.44.91s-.85-.79-1-1.14a5.67,5.67,0,0,1-.29-3.16,7.19,7.19,0,0,1,.43-1.76c.17-.44.51-1.36,1.14-1.29a.49.49,0,0,1,.38.34,2.24,2.24,0,0,1,.13.92l-.09.54c-.08.54-.15,1.09-.21,1.63a13.57,13.57,0,0,0-.09,1.91C70.32,83.3,70.35,83.67,70.38,84Z"/><path class="cls-8" d="M69.15,76.25c-1.08,0-3.5,0-3.7-1.49a.36.36,0,0,1,.12-.34.31.31,0,0,1,.41-.28,10.34,10.34,0,0,0,3.66.65,11.11,11.11,0,0,1,2.21-.18.32.32,0,0,1,.24.32C72,76.29,70.1,76.25,69.15,76.25Z"/><path class="cls-8" d="M67.48,83.62l.06,1a.34.34,0,0,1-.58.24,4.6,4.6,0,0,1-.58-3.61c.15-.86.16-2.5.89-3.11a.34.34,0,0,1,.57.24,11.7,11.7,0,0,1-.28,1.84,2.83,2.83,0,0,0,0,.29c0,.47-.1.94-.11,1.4A16.66,16.66,0,0,0,67.48,83.62Z"/><path class="cls-8" d="M69.36,73.65c-1.13-.05-2.57-.14-3.35-1.1a.27.27,0,0,1-.07-.14c-.18-.23,0-.65.33-.53a10.18,10.18,0,0,0,3.37.6,23.73,23.73,0,0,0,2.67-.32c.27,0,.39.3.29.5C72,73.77,70.42,73.71,69.36,73.65Z"/><path class="cls-8" d="M73.7,91.55a3.63,3.63,0,0,1-1-3.15c.07-.77.11-2.15.87-2.6a.35.35,0,0,1,.5.2,3.11,3.11,0,0,1,0,.61.32.32,0,0,1,.08.29A6.72,6.72,0,0,0,74,89.54a6.6,6.6,0,0,1,.23,1.72C74.2,91.49,73.92,91.72,73.7,91.55Z"/><path class="cls-8" d="M76.7,89.84a4.75,4.75,0,0,1,0,1.19c-.09.31-.33.67-.71.48C75,91,74.81,88.64,74.92,87.68a3.23,3.23,0,0,1,.88-2.2.51.51,0,0,1,.79.11A3.13,3.13,0,0,1,76.82,87a.31.31,0,0,1,0,.19A14.46,14.46,0,0,0,76.7,89.84Z"/><path class="cls-8" d="M77.19,83.52a6.42,6.42,0,0,1-3.31-.47c-1-.26-1.79-.72-1.18-1.43a.33.33,0,0,1,.33-.08l.43.15a10.63,10.63,0,0,0,2.65.23,15.68,15.68,0,0,1,2.65,0,.33.33,0,0,1,.24.23C79.17,83,77.83,83.38,77.19,83.52Z"/><path class="cls-8" d="M77.23,80.57a6.73,6.73,0,0,1-4-1.16.27.27,0,0,1-.09-.3.33.33,0,0,1,.38-.48,13.47,13.47,0,0,0,3.3.27c.86,0,1.77-.11,2.61,0a.34.34,0,0,1,.24.33C79.68,80.27,78,80.59,77.23,80.57Z"/><path class="cls-8" d="M76.5,75.31c.09.42.12,1.13-.41,1.28-1.23.34-1.48-2.73-1.48-3.33s.32-3.8,1.61-3.05a.73.73,0,0,1,.36.62.28.28,0,0,1,.13.36A7.79,7.79,0,0,0,76.5,75.31Z"/><path class="cls-8" d="M79.08,75.49c0,.37.15.79-.12,1.1a.32.32,0,0,1-.4,0c-.78-.4-.92-1.57-1-2.34a7.25,7.25,0,0,1,.45-3.67.49.49,0,0,1,.56-.27.35.35,0,0,1,.37,0c.63.25.41,1.53.19,2.45A12.3,12.3,0,0,0,79.08,75.49Z"/><path class="cls-8" d="M82.89,78.35a27.24,27.24,0,0,0-.31,4.78c0,.53,0,1.61-.64,1.79a.33.33,0,0,1-.33-.08,4.77,4.77,0,0,1-.48-3A14.53,14.53,0,0,1,82,78.32a.5.5,0,0,1,.88,0Z"/><path class="cls-8" d="M87.72,73.63c-.94,1.87-5.32,2.48-6.37.41l0-.1s0,0,0,0a.34.34,0,0,1,0-.1v0a.51.51,0,0,1,.44-.55h.09a.67.67,0,0,1,.39.08,9.16,9.16,0,0,0,5.16-.17C87.64,73,87.84,73.38,87.72,73.63Z"/><path class="cls-8" d="M82,71.27a.33.33,0,0,1,.41-.31,18.44,18.44,0,0,0,4.92.23.34.34,0,0,1,.24.57,4.89,4.89,0,0,1-5.57,0A.31.31,0,0,1,82,71.27Z"/><path class="cls-8" d="M47.88,85.7c.12.4-.16,1-.66.85-1.84-.5-2.2-3.38-2.06-4.93.06-.59.17-1.39.8-1.65.43-.18,1-.17,1.15.38a3.61,3.61,0,0,1,0,1.6A9.58,9.58,0,0,0,47.88,85.7Z"/><path class="cls-8" d="M43.72,79.23A4.43,4.43,0,0,1,41,78.55a.29.29,0,0,1-.09-.28c-.09-.23.08-.55.38-.44,2.23.8,4.41.28,6.7.3a.34.34,0,0,1,.09.66A12.73,12.73,0,0,1,43.72,79.23Z"/><path class="cls-8" d="M44.29,81.59a14.34,14.34,0,0,0,.34,4c0,.29-.32.63-.56.33a4.7,4.7,0,0,1-.81-2.64,6,6,0,0,1,.13-2.6.46.46,0,0,1,.87,0,1.36,1.36,0,0,1,0,.8A.33.33,0,0,1,44.29,81.59Z"/><path class="cls-8" d="M41.35,76h0a.35.35,0,0,1,.18,0,33.46,33.46,0,0,0,6.25,0,.34.34,0,0,1,.33.34c0,1.09-1.8,1-2.53,1-1.56.06-3.23.38-4.51-.74A.34.34,0,0,1,41.35,76Z"/></g><g class="cls-15"><path class="cls-8" d="M8.68,64.8c1.2,4.8,4.3,16.83,6.17,21.38,2.36,5.73,1.26,8.24,9,9,6.69.67,20.46.36,26.28.21,5.82.15,19.59.46,26.28-.21,7.77-.79,6.68-3.3,9-9,1.87-4.55,5.21-18.45,6.42-23.25ZM82.82,85.86a8.4,8.4,0,0,1-1.4,1.32c-2.73,2-6.42,2.64-9.81,2.91-1.94.15-3.88.17-5.83.19-6.83.09-13.64.66-20.47.76q-4.81.08-9.65,0c-5-.1-10.53.42-15.18-1.76a13,13,0,0,1-6.08-6.78c-1.82-4.08-5.55-14.44,3-14,2.4.13,4.76.16,7.16.18,7.4.06,14.79.26,22.19.11q3.21-.06,6.42-.22c7.56-.39,18.54-1.08,26.11-1.29,2.26-.06,5.1-.49,7.22.41C90.8,69.54,84.41,84,82.82,85.86Z"/></g><path class="cls-16" d="M36.3,70.28c-3.27,0-6.54,0-9.8,0-2.39,0-5.48-.48-7.74.31-2.89,1-1.16,4.5-.34,6.15a9.62,9.62,0,0,0,3.95,3.92C27,83.33,33.26,84,38.84,84.26c4.59.21,9.19.12,13.78-.11,6.07-.29,12.34-.2,18.27-1.44a19.33,19.33,0,0,0,13-9.37c.59-1.12,2-3.35.17-4.18-2-.91-24.41.86-33.06,1Q43.63,70.21,36.3,70.28Z"/><g class="cls-17"><path class="cls-8" d="M83.28,90c-5.26,3.84-23,3.14-26.1,3.21-6.29.14-12.58.17-18.87.14-3.17,0-15-.67-17.66-1.21a9.05,9.05,0,0,1-4.57-2.19c1,3.14,1.9,4.69,7.71,5.28,6.68.67,20.45.36,26.27.21,5.82.15,19.6.46,26.28-.21,6.34-.64,6.78-2.43,8-6.17A8.59,8.59,0,0,1,83.28,90Z"/><path class="cls-8" d="M15.44,65.64c4.4-.39,8.86-.11,13.27-.13,6.34,0,12.68-.29,19-.32s12.75.11,19.12,0,12.58-.74,18.83-.41c1.29.06,3.83,0,4.68,1.26a2.34,2.34,0,0,1,.36,1.19l1.06-4.27L8.58,64.8l.65,2.55a5,5,0,0,1,1.47-.71A14.29,14.29,0,0,1,15.44,65.64Z"/></g><path class="cls-13" d="M36,89.66a2.32,2.32,0,0,1-1.73-.6,2.27,2.27,0,0,1-.59-1.65,2.23,2.23,0,0,1,.59-1.66A2.39,2.39,0,0,1,36,85.18h2.65V72.85h2.55l-4.36,2.7a2.18,2.18,0,0,1-1.47.38,2,2,0,0,1-1.16-.59,2.47,2.47,0,0,1-.63-1.17,2.33,2.33,0,0,1,.1-1.4,2.27,2.27,0,0,1,1.08-1.16L39,69a4.89,4.89,0,0,1,1.34-.65,4.82,4.82,0,0,1,1.48-.23,2.52,2.52,0,0,1,1.79.6,2.22,2.22,0,0,1,.65,1.72V85.18h2.38a2.34,2.34,0,0,1,1.7.57,2.22,2.22,0,0,1,.58,1.66,2.26,2.26,0,0,1-.58,1.67,2.31,2.31,0,0,1-1.7.58Z"/><path class="cls-13" d="M57.72,90a15.24,15.24,0,0,1-3.07-.32A10.42,10.42,0,0,1,52,88.82a2.72,2.72,0,0,1-1.34-1.08,2.24,2.24,0,0,1-.3-1.37,2.42,2.42,0,0,1,.5-1.25A2,2,0,0,1,52,84.41a2.53,2.53,0,0,1,1.57.2,11.45,11.45,0,0,0,2.09.68,9.3,9.3,0,0,0,1.88.19,5.35,5.35,0,0,0,1.77-.25,2.14,2.14,0,0,0,1.09-.77,2.08,2.08,0,0,0,.36-1.23A1.74,1.74,0,0,0,60,81.68a3.89,3.89,0,0,0-2.17-.5H56.24a2.43,2.43,0,0,1-1.74-.57A2.14,2.14,0,0,1,53.9,79a2.1,2.1,0,0,1,.6-1.61,2.47,2.47,0,0,1,1.74-.55h1.12a4,4,0,0,0,1.46-.24,2.08,2.08,0,0,0,1-.72,2,2,0,0,0,.35-1.15,1.78,1.78,0,0,0-.73-1.53,3.52,3.52,0,0,0-2.13-.54,7.78,7.78,0,0,0-1.67.19,8.61,8.61,0,0,0-1.88.68,2.26,2.26,0,0,1-1.43.12,2.05,2.05,0,0,1-1.07-.71,2.37,2.37,0,0,1-.51-1.17,2.08,2.08,0,0,1,.23-1.28,2.42,2.42,0,0,1,1.18-1,11.91,11.91,0,0,1,2.73-1,13.07,13.07,0,0,1,3-.35,10.59,10.59,0,0,1,4.09.71,5.71,5.71,0,0,1,2.59,2,5.4,5.4,0,0,1,.9,3.14,5.24,5.24,0,0,1-.47,2.23,4.62,4.62,0,0,1-1.33,1.68,5.5,5.5,0,0,1-2.08,1v-.42A5.09,5.09,0,0,1,66,83.77a5.59,5.59,0,0,1-1,3.32,6.33,6.33,0,0,1-2.86,2.17A11.7,11.7,0,0,1,57.72,90Z"/></g></g></svg>