<svg id="Layer_1" data-name="Layer 1" xmlns="http://www.w3.org/2000/svg" viewBox="0 0 105.29 104.84"><defs><style>.cls-1{fill:#ff8c03;}.cls-2{fill:#fcbc08;}.cls-3{fill:#f28106;opacity:0.7;}.cls-4{fill:#7c6a13;}.cls-5{fill:#937b18;}</style></defs><title>orange6</title><path class="cls-1" d="M65,29.47c5.09,3.68,11.8,15.33,3.91,24.92s-19.4,10.16-28.09,4.53c-9-5.87-13.38-20.19-2.43-30.44C47.16,20.27,57.32,23.91,65,29.47Z"/><path class="cls-2" d="M43.69,28.1h0Z"/><path class="cls-2" d="M44.88,29.31c.59-.29,1.26-.89.7-1.42s-1.33.07-1.86.2C43,28.76,43.28,30.07,44.88,29.31Z"/><path class="cls-2" d="M43.72,28.09l.91-.35A1.42,1.42,0,0,0,43.72,28.09Z"/><path class="cls-2" d="M42.09,30.66c.23-.16.53-.5.23-.74a.38.38,0,0,0-.57.12.77.77,0,0,0-.37.49C41.33,31,41.86,30.82,42.09,30.66Z"/><path class="cls-2" d="M46,30.35a.59.59,0,0,0-.56,0c-.27,0-.6.14-.66.36a.66.66,0,0,0,0,.13l-.07.05.08,0c.07.24.65.07.86,0S46.45,30.6,46,30.35Z"/><path class="cls-2" d="M44.69,30.91l0,0Z"/><path class="cls-2" d="M47.24,29c-.25.07-.54.35-.39.6s.75.15,1,0C48.67,29.21,47.56,28.85,47.24,29Z"/><path class="cls-2" d="M48.31,27.49c-.17,0-.49-.11-.63.05a.22.22,0,0,0,0,.29c0,.18.3.34.42.4s1.56.54,1.66.1S48.63,27.53,48.31,27.49Z"/><path class="cls-2" d="M46.89,26.62c.27.14,1.23.1,1.32-.28s-.52-.46-.77-.43a1.06,1.06,0,0,0-.41.24C46.78,26.26,46.59,26.46,46.89,26.62Z"/><path class="cls-2" d="M42.26,28.84c.5-.36,0-.57-.38-.49h0c-.22,0-.78.24-.63.55S42.07,29,42.26,28.84Z"/><path class="cls-2" d="M40.18,31.16c.19-.21.75-1.12.1-1.16a.45.45,0,0,0-.34.17,1.87,1.87,0,0,0-.65.89C39,31.91,39.86,31.52,40.18,31.16Z"/><path class="cls-2" d="M43.68,31.42a1.25,1.25,0,0,0-.86.07,1.72,1.72,0,0,0-1.14.86c-.21.87,1.34.25,1.67.13C43.84,32.32,44.4,31.68,43.68,31.42Z"/><path class="cls-2" d="M46.28,32.1c-.25.08-.52.29-.51.49,0,.43.89.3,1.14.18C47.87,32.33,46.62,31.91,46.28,32.1Z"/><path class="cls-2" d="M52.4,27.26a.44.44,0,0,0-.43.18,1.19,1.19,0,0,0,1.78,0A1,1,0,0,0,52.4,27.26Z"/><path class="cls-2" d="M49.88,29.52c.53.18,2,.27,2.1-.47a1.27,1.27,0,0,0-1.16-.13C50.36,28.9,49.88,29.05,49.88,29.52Z"/><path class="cls-2" d="M50.92,25.66a.76.76,0,0,0-1.06-.11.47.47,0,0,0-.25.31A1,1,0,0,0,50.92,25.66Z"/><path class="cls-2" d="M54.87,28.73c-1.07,0,.31,1.35.9.92S55.29,28.45,54.87,28.73Z"/><path class="cls-2" d="M39.63,33.08c-.33-.26-.61,0-.8.3-.72.45-1.58,1.52-.9,1.78C38.78,35.48,39.61,33.66,39.63,33.08Z"/><path class="cls-2" d="M37.66,31.69c-.92.18-.48,1.69.39.65C38.6,31.7,38,31.5,37.66,31.69Z"/><path class="cls-2" d="M42.9,34.46a.48.48,0,0,0-.33.42c.34.24,1.26.26,1.49-.18C44.4,34,43.21,33.94,42.9,34.46Z"/><path class="cls-2" d="M51.08,32l0-.07a.65.65,0,0,0,0,.18c-.05.09-.05.17,0,.2.19.49,1.25.51,1-.11S51.33,31.74,51.08,32Z"/><path class="cls-2" d="M60.56,30.67c-.62-.85-1.91,0-1.1.26C59.94,31.27,61.17,31.49,60.56,30.67Z"/><path class="cls-2" d="M38.47,38.7l.13-.22a1.48,1.48,0,0,0-.68,1.06c.36.1,1.45-.61,1.42-1.08C39.29,37.74,38.79,38.25,38.47,38.7Z"/><path class="cls-2" d="M48.15,36.32a.25.25,0,0,0,.36.08c.45.06,1.27,0,.92-.53S48.28,36,48.15,36.32Z"/><path class="cls-2" d="M34.78,35.85a.9.9,0,0,0-.05.37c.54.18,1.93,0,1.47-.85S34.94,35.22,34.78,35.85Z"/><path class="cls-2" d="M36.69,33.57h0a.44.44,0,0,0-.56.44.68.68,0,0,0,.94-.36A.64.64,0,0,0,36.69,33.57Z"/><path class="cls-3" d="M38.48,52.56c-2,1.45,8.2,8.72,14.83,8.47A19.55,19.55,0,0,0,69.35,51c1.76-3.59,1.14-13.81-1-13.1-.79.26.17,3.72-3,9-2.82,4.61-7.64,9.15-14,8.84C42.52,55.25,39.81,51.61,38.48,52.56Z"/><path class="cls-4" d="M60.36,27.29a.92.92,0,0,0-.83,1.4c.55,1.34,3.88,3.53,4.83,3.16s1-1.46-.4-2.51S61.63,27.45,60.36,27.29Z"/><path class="cls-4" d="M62.09,29.09s3.86-3.93,5-5.41a67.51,67.51,0,0,0,3.65-7.09s.34-.5.81-.41.34.79.34.79-2.69,5.41-3.78,6.9c-2.22,3-5.14,6.34-5.14,6.34Z"/><path class="cls-4" d="M68.82,21.69c-.24,0-6.37-.79-6.37-.79l-.23.36,3.16.51,3.16.51Z"/><path class="cls-4" d="M55.55,28.75c-6.57,1.64-16.29-3-16.29-3s6.49-7.44,12.06-8,15.23,3.81,15.23,3.81S62.15,27.1,55.55,28.75Z"/><path class="cls-5" d="M60.41,27.69A1.35,1.35,0,0,0,60.27,29a7,7,0,0,0,2.39,1.87l.15-1.18s-.51-.35-.56-.64a.7.7,0,0,1,0-.46Z"/><path class="cls-5" d="M64.41,21.75a52.29,52.29,0,0,0-11,.1c-5.11.73-12.82,3.13-12.73,3.47s8.44-2.75,12.57-3,11.49,0,11.49,0Z"/><path class="cls-5" d="M61.82,21.93a5.72,5.72,0,0,1-1.07,2,14.28,14.28,0,0,0-1.85,2.82A17.47,17.47,0,0,0,61,24.1c.6-.88,1.39-2.13,1.39-2.13Z"/><path class="cls-5" d="M56.7,22a8.79,8.79,0,0,1-1.12,3.21c-1.13,2.28-1.59,2.95-1.31,3S55.39,26.5,56,25.25s1.45-3.36,1.45-3.36Z"/><path class="cls-5" d="M51.72,22.43a6.12,6.12,0,0,1-.38,2.39c-.51,1.68-1.13,2.64-.9,2.75s.82-1.45,1.17-2.67.85-2.72.85-2.72Z"/><path class="cls-5" d="M46.38,23.68a3.72,3.72,0,0,1-.28,1.41c-.31.86-.8,1.73-.66,1.72a3,3,0,0,0,.92-1.54c.22-.77.47-1.69.47-1.69Z"/><path class="cls-5" d="M62.42,21.8A7.22,7.22,0,0,0,60.49,20,6,6,0,0,0,58,19c-.13.11,1.41.54,2,.9a20.25,20.25,0,0,1,2,1.91Z"/><path class="cls-5" d="M57.17,21.65a4.91,4.91,0,0,0-1.58-2.06,7.92,7.92,0,0,0-3.5-1.35c-.34.11,2.56.83,3.21,1.46a7,7,0,0,1,1.18,2Z"/><path class="cls-5" d="M52.46,22.18a11.22,11.22,0,0,0-2.36-1.83,9.62,9.62,0,0,0-2.83-.71c-.34,0,2.17.55,2.87,1a14.38,14.38,0,0,1,1.79,1.65Z"/><path class="cls-5" d="M46.37,23.53s-.08-.41-1.25-.84S43.3,22,43.56,22a8.13,8.13,0,0,1,1.55.4,10,10,0,0,1,1.83,1Z"/><path class="cls-1" d="M36.62,29.47c5.09,3.68,11.8,15.33,3.91,24.92s-19.4,10.16-28.09,4.53C3.39,53.05-.94,38.73,10,28.48,18.78,20.27,28.94,23.91,36.62,29.47Z"/><path class="cls-2" d="M15.31,28.1h0Z"/><path class="cls-2" d="M16.5,29.31c.59-.29,1.26-.89.7-1.42s-1.33.07-1.87.2C14.6,28.76,14.9,30.07,16.5,29.31Z"/><path class="cls-2" d="M15.34,28.09l.91-.35A1.42,1.42,0,0,0,15.34,28.09Z"/><path class="cls-2" d="M13.71,30.66c.23-.16.53-.5.23-.74a.38.38,0,0,0-.57.12.77.77,0,0,0-.37.49C13,31,13.48,30.82,13.71,30.66Z"/><path class="cls-2" d="M17.61,30.35a.59.59,0,0,0-.56,0c-.27,0-.6.14-.66.36a.31.31,0,0,0,0,.13l-.07.05.08,0c.07.24.65.07.86,0S18.07,30.6,17.61,30.35Z"/><path class="cls-2" d="M16.31,30.91l0,0Z"/><path class="cls-2" d="M18.86,29c-.25.07-.54.35-.39.6s.75.15,1,0C20.29,29.21,19.18,28.85,18.86,29Z"/><path class="cls-2" d="M19.93,27.49c-.17,0-.5-.11-.63.05a.23.23,0,0,0,0,.29c0,.18.31.34.43.4s1.56.54,1.66.1S20.25,27.53,19.93,27.49Z"/><path class="cls-2" d="M18.51,26.62c.27.14,1.22.1,1.32-.28s-.52-.46-.77-.43a1.06,1.06,0,0,0-.41.24C18.4,26.26,18.21,26.46,18.51,26.62Z"/><path class="cls-2" d="M13.88,28.84c.5-.36,0-.57-.38-.49h0c-.22,0-.78.24-.63.55S13.69,29,13.88,28.84Z"/><path class="cls-2" d="M11.8,31.16C12,31,12.55,30,11.9,30a.43.43,0,0,0-.34.17,1.87,1.87,0,0,0-.65.89C10.66,31.91,11.48,31.52,11.8,31.16Z"/><path class="cls-2" d="M15.3,31.42a1.24,1.24,0,0,0-.86.07,1.7,1.7,0,0,0-1.14.86c-.21.87,1.34.25,1.67.13C15.46,32.32,16,31.68,15.3,31.42Z"/><path class="cls-2" d="M17.9,32.1c-.25.08-.52.29-.51.49,0,.43.89.3,1.14.18C19.48,32.33,18.24,31.91,17.9,32.1Z"/><path class="cls-2" d="M24,27.26a.44.44,0,0,0-.43.18,1.19,1.19,0,0,0,1.78,0A1,1,0,0,0,24,27.26Z"/><path class="cls-2" d="M21.5,29.52c.53.18,2,.27,2.1-.47a1.29,1.29,0,0,0-1.17-.13C22,28.9,21.5,29.05,21.5,29.52Z"/><path class="cls-2" d="M22.54,25.66a.76.76,0,0,0-1.06-.11.47.47,0,0,0-.25.31A1,1,0,0,0,22.54,25.66Z"/><path class="cls-2" d="M26.49,28.73c-1.07,0,.31,1.35.9.92S26.91,28.45,26.49,28.73Z"/><path class="cls-2" d="M11.25,33.08c-.33-.26-.61,0-.8.3-.72.45-1.58,1.52-.9,1.78C10.4,35.48,11.23,33.66,11.25,33.08Z"/><path class="cls-2" d="M9.28,31.69c-.92.18-.48,1.69.39.65C10.22,31.7,9.66,31.5,9.28,31.69Z"/><path class="cls-2" d="M14.52,34.46a.48.48,0,0,0-.33.42c.34.24,1.26.26,1.48-.18C16,34,14.83,33.94,14.52,34.46Z"/><path class="cls-2" d="M22.7,32l-.05-.07a.65.65,0,0,0,0,.18c-.05.09-.06.17,0,.2.19.49,1.24.51,1-.11S23,31.74,22.7,32Z"/><path class="cls-2" d="M32.18,30.67c-.62-.85-1.91,0-1.1.26C31.56,31.27,32.79,31.49,32.18,30.67Z"/><path class="cls-2" d="M10.09,38.7l.13-.22a1.48,1.48,0,0,0-.68,1.06c.36.1,1.45-.61,1.42-1.08C10.91,37.74,10.41,38.25,10.09,38.7Z"/><path class="cls-2" d="M19.77,36.32a.25.25,0,0,0,.36.08c.45.06,1.27,0,.92-.53S19.9,36,19.77,36.32Z"/><path class="cls-2" d="M6.4,35.85a.76.76,0,0,0-.05.37c.54.18,1.93,0,1.47-.85S6.56,35.22,6.4,35.85Z"/><path class="cls-2" d="M8.31,33.57h0a.45.45,0,0,0-.57.44.69.69,0,0,0,.95-.36A.64.64,0,0,0,8.31,33.57Z"/><path class="cls-3" d="M10.1,52.56C8.1,54,18.3,61.28,24.93,61A19.55,19.55,0,0,0,41,51c1.75-3.59,1.14-13.81-1-13.1-.79.26.17,3.72-3,9-2.82,4.61-7.64,9.15-14,8.84C14.14,55.25,11.43,51.61,10.1,52.56Z"/><path class="cls-4" d="M32,27.29a.92.92,0,0,0-.83,1.4C31.7,30,35,32.22,36,31.85s1-1.46-.4-2.51S33.25,27.45,32,27.29Z"/><path class="cls-4" d="M33.71,29.09s3.85-3.93,5-5.41a67.51,67.51,0,0,0,3.65-7.09s.34-.5.81-.41.34.79.34.79-2.69,5.41-3.78,6.9c-2.22,3-5.14,6.34-5.14,6.34Z"/><path class="cls-4" d="M40.44,21.69c-.24,0-6.37-.79-6.37-.79l-.23.36,3.16.51,3.16.51Z"/><path class="cls-4" d="M27.17,28.75c-6.57,1.64-16.29-3-16.29-3s6.49-7.44,12.06-8,15.23,3.81,15.23,3.81S33.77,27.1,27.17,28.75Z"/><path class="cls-5" d="M32,27.69A1.35,1.35,0,0,0,31.89,29a7,7,0,0,0,2.39,1.87l.15-1.18s-.51-.35-.56-.64a.7.7,0,0,1,.05-.46Z"/><path class="cls-5" d="M36,21.75a52.18,52.18,0,0,0-11,.1c-5.11.73-12.82,3.13-12.73,3.47s8.44-2.75,12.57-3,11.49,0,11.49,0Z"/><path class="cls-5" d="M33.44,21.93a5.72,5.72,0,0,1-1.07,2,14.28,14.28,0,0,0-1.85,2.82,17.47,17.47,0,0,0,2.14-2.63C33.26,23.22,34,22,34,22Z"/><path class="cls-5" d="M28.32,22a8.74,8.74,0,0,1-1.13,3.21c-1.12,2.28-1.58,2.95-1.3,3S27,26.5,27.58,25.25,29,21.89,29,21.89Z"/><path class="cls-5" d="M23.34,22.43A6.12,6.12,0,0,1,23,24.82c-.51,1.68-1.13,2.64-.9,2.75s.82-1.45,1.17-2.67.85-2.72.85-2.72Z"/><path class="cls-5" d="M18,23.68a3.72,3.72,0,0,1-.28,1.41c-.31.86-.8,1.73-.66,1.72A3,3,0,0,0,18,25.27c.22-.77.47-1.69.47-1.69Z"/><path class="cls-5" d="M34,21.8A7.22,7.22,0,0,0,32.11,20a6,6,0,0,0-2.48-1c-.14.11,1.41.54,2,.9a20.25,20.25,0,0,1,2,1.91Z"/><path class="cls-5" d="M28.79,21.65a4.91,4.91,0,0,0-1.58-2.06,8,8,0,0,0-3.5-1.35c-.34.11,2.56.83,3.21,1.46a7,7,0,0,1,1.18,2Z"/><path class="cls-5" d="M24.08,22.18a11.22,11.22,0,0,0-2.36-1.83,9.62,9.62,0,0,0-2.83-.71c-.34,0,2.17.55,2.87,1a14.38,14.38,0,0,1,1.79,1.65Z"/><path class="cls-5" d="M18,23.53s-.08-.41-1.25-.84S14.92,22,15.18,22a8.13,8.13,0,0,1,1.55.4,10,10,0,0,1,1.83,1Z"/><path class="cls-1" d="M94.24,29.47C99.33,33.15,106,44.8,98.15,54.39s-19.41,10.16-28.1,4.53c-9-5.87-13.37-20.19-2.43-30.44C76.4,20.27,86.55,23.91,94.24,29.47Z"/><path class="cls-2" d="M72.93,28.1h0Z"/><path class="cls-2" d="M74.11,29.31c.6-.29,1.27-.89.71-1.42s-1.33.07-1.87.2C72.21,28.76,72.52,30.07,74.11,29.31Z"/><path class="cls-2" d="M73,28.09l.91-.35A1.4,1.4,0,0,0,73,28.09Z"/><path class="cls-2" d="M71.33,30.66c.22-.16.53-.5.23-.74A.38.38,0,0,0,71,30a.74.74,0,0,0-.37.49C70.57,31,71.09,30.82,71.33,30.66Z"/><path class="cls-2" d="M75.23,30.35a.58.58,0,0,0-.56,0c-.27,0-.6.14-.66.36a.2.2,0,0,0,0,.13l-.08.05.08,0c.07.24.66.07.87,0S75.68,30.6,75.23,30.35Z"/><path class="cls-2" d="M73.92,30.91l0,0Z"/><path class="cls-2" d="M76.48,29c-.26.07-.55.35-.4.6s.75.15,1,0C77.9,29.21,76.8,28.85,76.48,29Z"/><path class="cls-2" d="M77.55,27.49c-.18,0-.5-.11-.64.05a.24.24,0,0,0,0,.29c0,.18.31.34.43.4s1.56.54,1.65.1S77.87,27.53,77.55,27.49Z"/><path class="cls-2" d="M76.13,26.62c.27.14,1.22.1,1.32-.28s-.52-.46-.77-.43a.93.93,0,0,0-.41.24C76,26.26,75.82,26.46,76.13,26.62Z"/><path class="cls-2" d="M71.5,28.84c.49-.36,0-.57-.38-.49h0c-.23,0-.79.24-.64.55S71.31,29,71.5,28.84Z"/><path class="cls-2" d="M69.42,31.16c.18-.21.75-1.12.1-1.16a.43.43,0,0,0-.34.17,1.89,1.89,0,0,0-.66.89C68.27,31.91,69.09,31.52,69.42,31.16Z"/><path class="cls-2" d="M72.91,31.42a1.22,1.22,0,0,0-.85.07,1.7,1.7,0,0,0-1.14.86c-.22.87,1.34.25,1.67.13C73.08,32.32,73.64,31.68,72.91,31.42Z"/><path class="cls-2" d="M75.51,32.1c-.24.08-.51.29-.51.49,0,.43.9.3,1.15.18C77.1,32.33,75.85,31.91,75.51,32.1Z"/><path class="cls-2" d="M81.63,27.26a.44.44,0,0,0-.42.18,1.19,1.19,0,0,0,1.78,0A1,1,0,0,0,81.63,27.26Z"/><path class="cls-2" d="M79.11,29.52c.54.18,2,.27,2.1-.47a1.27,1.27,0,0,0-1.16-.13C79.6,28.9,79.12,29.05,79.11,29.52Z"/><path class="cls-2" d="M80.16,25.66a.76.76,0,0,0-1.06-.11.51.51,0,0,0-.26.31A1,1,0,0,0,80.16,25.66Z"/><path class="cls-2" d="M84.1,28.73c-1.07,0,.31,1.35.91.92S84.53,28.45,84.1,28.73Z"/><path class="cls-2" d="M68.86,33.08c-.33-.26-.61,0-.8.3-.71.45-1.57,1.52-.89,1.78C68,35.48,68.84,33.66,68.86,33.08Z"/><path class="cls-2" d="M66.9,31.69c-.93.18-.49,1.69.39.65C67.83,31.7,67.27,31.5,66.9,31.69Z"/><path class="cls-2" d="M72.14,34.46a.49.49,0,0,0-.34.42c.35.24,1.26.26,1.49-.18C73.63,34,72.44,33.94,72.14,34.46Z"/><path class="cls-2" d="M80.32,32l0-.07a.7.7,0,0,0,0,.18c0,.09,0,.17,0,.2.19.49,1.25.51,1-.11S80.57,31.74,80.32,32Z"/><path class="cls-2" d="M89.8,30.67c-.62-.85-1.91,0-1.1.26C89.17,31.27,90.41,31.49,89.8,30.67Z"/><path class="cls-2" d="M67.71,38.7l.12-.22a1.51,1.51,0,0,0-.68,1.06c.37.1,1.45-.61,1.42-1.08C68.53,37.74,68,38.25,67.71,38.7Z"/><path class="cls-2" d="M77.39,36.32a.25.25,0,0,0,.36.08c.45.06,1.27,0,.92-.53S77.51,36,77.39,36.32Z"/><path class="cls-2" d="M64,35.85a.76.76,0,0,0-.06.37c.55.18,1.94,0,1.48-.85S64.18,35.22,64,35.85Z"/><path class="cls-2" d="M65.92,33.57h0a.45.45,0,0,0-.56.44.69.69,0,0,0,.95-.36A.67.67,0,0,0,65.92,33.57Z"/><path class="cls-3" d="M67.72,52.56c-2,1.45,8.19,8.72,14.82,8.47A19.56,19.56,0,0,0,98.59,51c1.75-3.59,1.14-13.81-1.06-13.1-.78.26.18,3.72-3,9-2.83,4.61-7.64,9.15-14,8.84C71.75,55.25,69,51.61,67.72,52.56Z"/><path class="cls-4" d="M89.6,27.29a.92.92,0,0,0-.84,1.4c.55,1.34,3.88,3.53,4.84,3.16s1-1.46-.4-2.51S90.87,27.45,89.6,27.29Z"/><path class="cls-4" d="M91.33,29.09s3.85-3.93,5-5.41a67.51,67.51,0,0,0,3.65-7.09.92.92,0,0,1,.82-.41c.47.09.33.79.33.79s-2.69,5.41-3.78,6.9c-2.21,3-5.13,6.34-5.13,6.34Z"/><path class="cls-4" d="M98.05,21.69c-.23,0-6.36-.79-6.36-.79l-.24.36,3.17.51,3.16.51Z"/><path class="cls-4" d="M84.79,28.75c-6.57,1.64-16.29-3-16.29-3s6.49-7.44,12.06-8,15.23,3.81,15.23,3.81S91.38,27.1,84.79,28.75Z"/><path class="cls-5" d="M89.65,27.69A1.37,1.37,0,0,0,89.5,29a7.12,7.12,0,0,0,2.39,1.87l.16-1.18s-.51-.35-.56-.64a.63.63,0,0,1,.05-.46Z"/><path class="cls-5" d="M93.64,21.75a52.2,52.2,0,0,0-11,.1c-5.11.73-12.83,3.13-12.73,3.47s8.44-2.75,12.56-3,11.49,0,11.49,0Z"/><path class="cls-5" d="M91.05,21.93a5.72,5.72,0,0,1-1.07,2,14.83,14.83,0,0,0-1.85,2.82,16.86,16.86,0,0,0,2.14-2.63c.61-.88,1.39-2.13,1.39-2.13Z"/><path class="cls-5" d="M85.94,22a8.74,8.74,0,0,1-1.13,3.21c-1.13,2.28-1.58,2.95-1.3,3s1.12-1.68,1.69-2.93,1.44-3.36,1.44-3.36Z"/><path class="cls-5" d="M81,22.43a6.05,6.05,0,0,1-.39,2.39c-.51,1.68-1.12,2.64-.89,2.75s.82-1.45,1.16-2.67.86-2.72.86-2.72Z"/><path class="cls-5" d="M75.61,23.68a3.81,3.81,0,0,1-.27,1.41c-.31.86-.81,1.73-.66,1.72a3,3,0,0,0,.91-1.54c.23-.77.48-1.69.48-1.69Z"/><path class="cls-5" d="M91.66,21.8A7.41,7.41,0,0,0,89.73,20a6,6,0,0,0-2.49-1c-.13.11,1.42.54,2,.9a21.46,21.46,0,0,1,2,1.91Z"/><path class="cls-5" d="M86.4,21.65a4.83,4.83,0,0,0-1.57-2.06,7.94,7.94,0,0,0-3.51-1.35c-.33.11,2.56.83,3.21,1.46a7,7,0,0,1,1.18,2Z"/><path class="cls-5" d="M81.7,22.18a11.22,11.22,0,0,0-2.36-1.83,9.67,9.67,0,0,0-2.84-.71c-.33,0,2.18.55,2.88,1a14.81,14.81,0,0,1,1.78,1.65Z"/><path class="cls-5" d="M75.6,23.53s-.08-.41-1.25-.84S72.54,22,72.79,22a8,8,0,0,1,1.55.4,9.88,9.88,0,0,1,1.84,1Z"/><path class="cls-1" d="M65,55.59c5.09,3.68,11.8,15.34,3.91,24.92S49.51,90.67,40.82,85c-9-5.87-13.38-20.19-2.43-30.44C47.16,46.39,57.32,50,65,55.59Z"/><path class="cls-2" d="M43.69,54.22h0Z"/><path class="cls-2" d="M44.88,55.43c.59-.28,1.26-.89.7-1.42s-1.33.07-1.86.2C43,54.88,43.28,56.19,44.88,55.43Z"/><path class="cls-2" d="M43.72,54.21l.91-.35A1.48,1.48,0,0,0,43.72,54.21Z"/><path class="cls-2" d="M42.09,56.78c.23-.16.53-.5.23-.74a.4.4,0,0,0-.57.12.77.77,0,0,0-.37.49C41.33,57.14,41.86,57,42.09,56.78Z"/><path class="cls-2" d="M46,56.48a.54.54,0,0,0-.56,0c-.27,0-.6.13-.66.35a.66.66,0,0,0,0,.13l-.07.06.08,0c.07.24.65.07.86,0S46.45,56.72,46,56.48Z"/><path class="cls-2" d="M44.69,57l0,0Z"/><path class="cls-2" d="M47.24,55.16c-.25.07-.54.36-.39.6s.75.15,1,0C48.67,55.33,47.56,55,47.24,55.16Z"/><path class="cls-2" d="M48.31,53.61c-.17,0-.49-.11-.63,0a.23.23,0,0,0,0,.3c0,.17.3.33.42.39s1.56.54,1.66.11S48.63,53.65,48.31,53.61Z"/><path class="cls-2" d="M46.89,52.74c.27.14,1.23.1,1.32-.27s-.52-.47-.77-.44a1.2,1.2,0,0,0-.41.24C46.78,52.39,46.59,52.58,46.89,52.74Z"/><path class="cls-2" d="M42.26,55c.5-.36,0-.56-.38-.49h0c-.22,0-.78.24-.63.55S42.07,55.1,42.26,55Z"/><path class="cls-2" d="M40.18,57.28c.19-.21.75-1.12.1-1.16a.53.53,0,0,0-.34.17,1.84,1.84,0,0,0-.65.9C39,58,39.86,57.65,40.18,57.28Z"/><path class="cls-2" d="M43.68,57.54a1.31,1.31,0,0,0-.86.07,1.72,1.72,0,0,0-1.14.86c-.21.87,1.34.25,1.67.13C43.84,58.44,44.4,57.8,43.68,57.54Z"/><path class="cls-2" d="M46.28,58.22c-.25.09-.52.29-.51.49,0,.43.89.3,1.14.18C47.87,58.45,46.62,58,46.28,58.22Z"/><path class="cls-2" d="M52.4,53.39a.42.42,0,0,0-.43.17,1.2,1.2,0,0,0,1.78,0A1,1,0,0,0,52.4,53.39Z"/><path class="cls-2" d="M49.88,55.64c.53.18,2,.28,2.1-.46A1.27,1.27,0,0,0,50.82,55C50.36,55,49.88,55.17,49.88,55.64Z"/><path class="cls-2" d="M50.92,51.78a.77.77,0,0,0-1.06-.11.47.47,0,0,0-.25.31A1,1,0,0,0,50.92,51.78Z"/><path class="cls-2" d="M54.87,54.85c-1.07,0,.31,1.35.9.93S55.29,54.57,54.87,54.85Z"/><path class="cls-2" d="M39.63,59.2c-.33-.26-.61,0-.8.3-.72.45-1.58,1.52-.9,1.78C38.78,61.6,39.61,59.78,39.63,59.2Z"/><path class="cls-2" d="M37.66,57.81c-.92.18-.48,1.69.39.66C38.6,57.83,38,57.62,37.66,57.81Z"/><path class="cls-2" d="M42.9,60.58a.48.48,0,0,0-.33.42c.34.25,1.26.27,1.49-.18C44.4,60.15,43.21,60.06,42.9,60.58Z"/><path class="cls-2" d="M51.08,58.1,51,58a.72.72,0,0,0,0,.19c-.05.08-.05.16,0,.19.19.49,1.25.51,1-.11S51.33,57.87,51.08,58.1Z"/><path class="cls-2" d="M60.56,56.79c-.62-.84-1.91,0-1.1.26C59.94,57.39,61.17,57.61,60.56,56.79Z"/><path class="cls-2" d="M38.47,64.82l.13-.22a1.5,1.5,0,0,0-.68,1.06c.36.1,1.45-.61,1.42-1.08C39.29,63.86,38.79,64.37,38.47,64.82Z"/><path class="cls-2" d="M48.15,62.45a.27.27,0,0,0,.36.08c.45,0,1.27-.06.92-.53S48.28,62.08,48.15,62.45Z"/><path class="cls-2" d="M34.78,62a.83.83,0,0,0-.05.36c.54.19,1.93,0,1.47-.85S34.94,61.34,34.78,62Z"/><path class="cls-2" d="M36.69,59.69h0c-.33,0-.54.12-.56.44a.67.67,0,0,0,.94-.36A.64.64,0,0,0,36.69,59.69Z"/><path class="cls-3" d="M38.48,78.69c-2,1.44,8.2,8.71,14.83,8.46a19.55,19.55,0,0,0,16-10.06c1.76-3.6,1.14-13.82-1-13.1-.79.25.17,3.72-3,9-2.82,4.61-7.64,9.16-14,8.85C42.52,81.37,39.81,77.73,38.48,78.69Z"/><path class="cls-4" d="M60.36,53.41a.93.93,0,0,0-.83,1.41c.55,1.34,3.88,3.52,4.83,3.15s1-1.46-.4-2.51S61.63,53.58,60.36,53.41Z"/><path class="cls-4" d="M62.09,55.21s3.86-3.93,5-5.4a68.43,68.43,0,0,0,3.65-7.1.94.94,0,0,1,.81-.41c.47.09.34.79.34.79S69.16,48.51,68.07,50c-2.22,3-5.14,6.33-5.14,6.33Z"/><path class="cls-4" d="M68.82,47.81c-.24,0-6.37-.79-6.37-.79l-.23.36,3.16.51,3.16.51Z"/><path class="cls-4" d="M55.55,54.87c-6.57,1.65-16.29-3-16.29-3s6.49-7.44,12.06-8,15.23,3.81,15.23,3.81S62.15,53.22,55.55,54.87Z"/><path class="cls-5" d="M60.41,53.81a1.35,1.35,0,0,0-.14,1.33A6.9,6.9,0,0,0,62.66,57l.15-1.18s-.51-.35-.56-.64a.66.66,0,0,1,0-.45Z"/><path class="cls-5" d="M64.41,47.87a52.29,52.29,0,0,0-11,.1c-5.11.73-12.82,3.13-12.73,3.47s8.44-2.75,12.57-3,11.49,0,11.49,0Z"/><path class="cls-5" d="M61.82,48.05a5.62,5.62,0,0,1-1.07,2,14.28,14.28,0,0,0-1.85,2.82A17,17,0,0,0,61,50.22c.6-.88,1.39-2.12,1.39-2.12Z"/><path class="cls-5" d="M56.7,48.1a8.79,8.79,0,0,1-1.12,3.2c-1.13,2.29-1.59,3-1.31,3s1.12-1.68,1.69-2.92S57.41,48,57.41,48Z"/><path class="cls-5" d="M51.72,48.55a6.12,6.12,0,0,1-.38,2.39c-.51,1.69-1.13,2.64-.9,2.75s.82-1.45,1.17-2.66.85-2.73.85-2.73Z"/><path class="cls-5" d="M46.38,49.8a3.72,3.72,0,0,1-.28,1.41c-.31.86-.8,1.73-.66,1.73a3.06,3.06,0,0,0,.92-1.54c.22-.78.47-1.7.47-1.7Z"/><path class="cls-5" d="M62.42,47.92a7.1,7.1,0,0,0-1.93-1.82,5.92,5.92,0,0,0-2.48-1c-.13.12,1.41.55,2,.9a20.25,20.25,0,0,1,2,1.91Z"/><path class="cls-5" d="M57.17,47.77a4.91,4.91,0,0,0-1.58-2.06,7.74,7.74,0,0,0-3.5-1.34c-.34.1,2.56.82,3.21,1.45a7,7,0,0,1,1.18,2Z"/><path class="cls-5" d="M52.46,48.3a11.22,11.22,0,0,0-2.36-1.83,10.32,10.32,0,0,0-2.83-.71c-.34,0,2.17.55,2.87,1a14.38,14.38,0,0,1,1.79,1.65Z"/><path class="cls-5" d="M46.37,49.65s-.08-.41-1.25-.84-1.82-.71-1.56-.72a8.13,8.13,0,0,1,1.55.4,10,10,0,0,1,1.83,1Z"/><path class="cls-1" d="M36.62,55.59c5.09,3.68,11.8,15.34,3.91,24.92S21.13,90.67,12.44,85C3.39,79.17-.94,64.85,10,54.6,18.78,46.39,28.94,50,36.62,55.59Z"/><path class="cls-2" d="M15.31,54.22h0Z"/><path class="cls-2" d="M16.5,55.43c.59-.28,1.26-.89.7-1.42s-1.33.07-1.87.2C14.6,54.88,14.9,56.19,16.5,55.43Z"/><path class="cls-2" d="M15.34,54.21l.91-.35A1.48,1.48,0,0,0,15.34,54.21Z"/><path class="cls-2" d="M13.71,56.78c.23-.16.53-.5.23-.74a.4.4,0,0,0-.57.12.77.77,0,0,0-.37.49C13,57.14,13.48,57,13.71,56.78Z"/><path class="cls-2" d="M17.61,56.48a.54.54,0,0,0-.56,0c-.27,0-.6.13-.66.35a.31.31,0,0,0,0,.13l-.07.06.08,0c.07.24.65.07.86,0S18.07,56.72,17.61,56.48Z"/><path class="cls-2" d="M16.31,57l0,0Z"/><path class="cls-2" d="M18.86,55.16c-.25.07-.54.36-.39.6s.75.15,1,0C20.29,55.33,19.18,55,18.86,55.16Z"/><path class="cls-2" d="M19.93,53.61c-.17,0-.5-.11-.63,0a.24.24,0,0,0,0,.3c0,.17.31.33.43.39s1.56.54,1.66.11S20.25,53.65,19.93,53.61Z"/><path class="cls-2" d="M18.51,52.74c.27.14,1.22.1,1.32-.27s-.52-.47-.77-.44a1.2,1.2,0,0,0-.41.24C18.4,52.39,18.21,52.58,18.51,52.74Z"/><path class="cls-2" d="M13.88,55c.5-.36,0-.56-.38-.49h0c-.22,0-.78.24-.63.55S13.69,55.1,13.88,55Z"/><path class="cls-2" d="M11.8,57.28c.19-.21.75-1.12.1-1.16a.51.51,0,0,0-.34.17,1.84,1.84,0,0,0-.65.9C10.66,58,11.48,57.65,11.8,57.28Z"/><path class="cls-2" d="M15.3,57.54a1.3,1.3,0,0,0-.86.07,1.7,1.7,0,0,0-1.14.86c-.21.87,1.34.25,1.67.13C15.46,58.44,16,57.8,15.3,57.54Z"/><path class="cls-2" d="M17.9,58.22c-.25.09-.52.29-.51.49,0,.43.89.3,1.14.18C19.48,58.45,18.24,58,17.9,58.22Z"/><path class="cls-2" d="M24,53.39a.42.42,0,0,0-.43.17,1.2,1.2,0,0,0,1.78,0A1,1,0,0,0,24,53.39Z"/><path class="cls-2" d="M21.5,55.64c.53.18,2,.28,2.1-.46A1.29,1.29,0,0,0,22.43,55C22,55,21.5,55.17,21.5,55.64Z"/><path class="cls-2" d="M22.54,51.78a.77.77,0,0,0-1.06-.11.47.47,0,0,0-.25.31A1,1,0,0,0,22.54,51.78Z"/><path class="cls-2" d="M26.49,54.85c-1.07,0,.31,1.35.9.93S26.91,54.57,26.49,54.85Z"/><path class="cls-2" d="M11.25,59.2c-.33-.26-.61,0-.8.3-.72.45-1.58,1.52-.9,1.78C10.4,61.6,11.23,59.78,11.25,59.2Z"/><path class="cls-2" d="M9.28,57.81c-.92.18-.48,1.69.39.66C10.22,57.83,9.66,57.62,9.28,57.81Z"/><path class="cls-2" d="M14.52,60.58a.48.48,0,0,0-.33.42c.34.25,1.26.27,1.48-.18C16,60.15,14.83,60.06,14.52,60.58Z"/><path class="cls-2" d="M22.7,58.1,22.65,58a.72.72,0,0,0,0,.19c-.05.08-.06.16,0,.19.19.49,1.24.51,1-.11S23,57.87,22.7,58.1Z"/><path class="cls-2" d="M32.18,56.79c-.62-.84-1.91,0-1.1.26C31.56,57.39,32.79,57.61,32.18,56.79Z"/><path class="cls-2" d="M10.09,64.82l.13-.22a1.5,1.5,0,0,0-.68,1.06c.36.1,1.45-.61,1.42-1.08C10.91,63.86,10.41,64.37,10.09,64.82Z"/><path class="cls-2" d="M19.77,62.45a.27.27,0,0,0,.36.08c.45,0,1.27-.06.92-.53S19.9,62.08,19.77,62.45Z"/><path class="cls-2" d="M6.4,62a.7.7,0,0,0-.05.36c.54.19,1.93,0,1.47-.85S6.56,61.34,6.4,62Z"/><path class="cls-2" d="M8.31,59.69h0a.46.46,0,0,0-.57.44.68.68,0,0,0,.95-.36A.64.64,0,0,0,8.31,59.69Z"/><path class="cls-3" d="M10.1,78.69c-2,1.44,8.2,8.71,14.83,8.46A19.55,19.55,0,0,0,41,77.09c1.75-3.6,1.14-13.82-1-13.1-.79.25.17,3.72-3,9-2.82,4.61-7.64,9.16-14,8.85C14.14,81.37,11.43,77.73,10.1,78.69Z"/><path class="cls-4" d="M32,53.41a.93.93,0,0,0-.83,1.41C31.7,56.16,35,58.34,36,58s1-1.46-.4-2.51S33.25,53.58,32,53.41Z"/><path class="cls-4" d="M33.71,55.21s3.85-3.93,5-5.4a68.43,68.43,0,0,0,3.65-7.1.94.94,0,0,1,.81-.41c.47.09.34.79.34.79S40.78,48.51,39.69,50c-2.22,3-5.14,6.33-5.14,6.33Z"/><path class="cls-4" d="M40.44,47.81c-.24,0-6.37-.79-6.37-.79l-.23.36,3.16.51,3.16.51Z"/><path class="cls-4" d="M27.17,54.87c-6.57,1.65-16.29-3-16.29-3s6.49-7.44,12.06-8,15.23,3.81,15.23,3.81S33.77,53.22,27.17,54.87Z"/><path class="cls-5" d="M32,53.81a1.35,1.35,0,0,0-.14,1.33A6.9,6.9,0,0,0,34.28,57l.15-1.18s-.51-.35-.56-.64a.66.66,0,0,1,.05-.45Z"/><path class="cls-5" d="M36,47.87A52.18,52.18,0,0,0,25,48c-5.11.73-12.82,3.13-12.73,3.47s8.44-2.75,12.57-3,11.49,0,11.49,0Z"/><path class="cls-5" d="M33.44,48.05a5.62,5.62,0,0,1-1.07,2,14.28,14.28,0,0,0-1.85,2.82,17,17,0,0,0,2.14-2.63c.6-.88,1.38-2.12,1.38-2.12Z"/><path class="cls-5" d="M28.32,48.1a8.73,8.73,0,0,1-1.13,3.2c-1.12,2.29-1.58,3-1.3,3s1.12-1.68,1.69-2.92S29,48,29,48Z"/><path class="cls-5" d="M23.34,48.55A6.12,6.12,0,0,1,23,50.94c-.51,1.69-1.13,2.64-.9,2.75s.82-1.45,1.17-2.66.85-2.73.85-2.73Z"/><path class="cls-5" d="M18,49.8a3.72,3.72,0,0,1-.28,1.41c-.31.86-.8,1.73-.66,1.73A3.13,3.13,0,0,0,18,51.4c.22-.78.47-1.7.47-1.7Z"/><path class="cls-5" d="M34,47.92a7.1,7.1,0,0,0-1.93-1.82,5.92,5.92,0,0,0-2.48-1c-.14.12,1.41.55,2,.9a20.25,20.25,0,0,1,2,1.91Z"/><path class="cls-5" d="M28.79,47.77a4.91,4.91,0,0,0-1.58-2.06,7.78,7.78,0,0,0-3.5-1.34c-.34.1,2.56.82,3.21,1.45a7,7,0,0,1,1.18,2Z"/><path class="cls-5" d="M24.08,48.3a11.22,11.22,0,0,0-2.36-1.83,10.32,10.32,0,0,0-2.83-.71c-.34,0,2.17.55,2.87,1a14.38,14.38,0,0,1,1.79,1.65Z"/><path class="cls-5" d="M18,49.65s-.08-.41-1.25-.84-1.82-.71-1.56-.72a8.13,8.13,0,0,1,1.55.4,10,10,0,0,1,1.83,1Z"/><path class="cls-1" d="M94.24,55.59c5.09,3.68,11.79,15.34,3.91,24.92S78.74,90.67,70.05,85c-9-5.87-13.37-20.19-2.43-30.44C76.4,46.39,86.55,50,94.24,55.59Z"/><path class="cls-2" d="M72.93,54.22h0Z"/><path class="cls-2" d="M74.11,55.43c.6-.28,1.27-.89.71-1.42s-1.33.07-1.87.2C72.21,54.88,72.52,56.19,74.11,55.43Z"/><path class="cls-2" d="M73,54.21l.91-.35A1.45,1.45,0,0,0,73,54.21Z"/><path class="cls-2" d="M71.33,56.78c.22-.16.53-.5.23-.74a.4.4,0,0,0-.57.12.74.74,0,0,0-.37.49C70.57,57.14,71.09,57,71.33,56.78Z"/><path class="cls-2" d="M75.23,56.48a.54.54,0,0,0-.56,0c-.27,0-.6.13-.66.35A.2.2,0,0,0,74,57l-.08.06L74,57c.07.24.66.07.87,0S75.68,56.72,75.23,56.48Z"/><path class="cls-2" d="M73.92,57l0,0Z"/><path class="cls-2" d="M76.48,55.16c-.26.07-.55.36-.4.6s.75.15,1,0C77.9,55.33,76.8,55,76.48,55.16Z"/><path class="cls-2" d="M77.55,53.61c-.18,0-.5-.11-.64,0a.26.26,0,0,0,0,.3c0,.17.31.33.43.39s1.56.54,1.65.11S77.87,53.65,77.55,53.61Z"/><path class="cls-2" d="M76.13,52.74c.27.14,1.22.1,1.32-.27s-.52-.47-.77-.44a1,1,0,0,0-.41.24C76,52.39,75.82,52.58,76.13,52.74Z"/><path class="cls-2" d="M71.5,55c.49-.36,0-.56-.38-.49h0c-.23,0-.79.24-.64.55S71.31,55.1,71.5,55Z"/><path class="cls-2" d="M69.42,57.28c.18-.21.75-1.12.1-1.16a.51.51,0,0,0-.34.17,1.87,1.87,0,0,0-.66.9C68.27,58,69.09,57.65,69.42,57.28Z"/><path class="cls-2" d="M72.91,57.54a1.28,1.28,0,0,0-.85.07,1.7,1.7,0,0,0-1.14.86c-.22.87,1.34.25,1.67.13C73.08,58.44,73.64,57.8,72.91,57.54Z"/><path class="cls-2" d="M75.51,58.22c-.24.09-.51.29-.51.49,0,.43.9.3,1.15.18C77.1,58.45,75.85,58,75.51,58.22Z"/><path class="cls-2" d="M81.63,53.39a.41.41,0,0,0-.42.17,1.2,1.2,0,0,0,1.78,0A1,1,0,0,0,81.63,53.39Z"/><path class="cls-2" d="M79.11,55.64c.54.18,2,.28,2.1-.46A1.27,1.27,0,0,0,80.05,55C79.6,55,79.12,55.17,79.11,55.64Z"/><path class="cls-2" d="M80.16,51.78a.77.77,0,0,0-1.06-.11.51.51,0,0,0-.26.31A1,1,0,0,0,80.16,51.78Z"/><path class="cls-2" d="M84.1,54.85c-1.07,0,.31,1.35.91.93S84.53,54.57,84.1,54.85Z"/><path class="cls-2" d="M68.86,59.2c-.33-.26-.61,0-.8.3-.71.45-1.57,1.52-.89,1.78C68,61.6,68.84,59.78,68.86,59.2Z"/><path class="cls-2" d="M66.9,57.81c-.93.18-.49,1.69.39.66C67.83,57.83,67.27,57.62,66.9,57.81Z"/><path class="cls-2" d="M72.14,60.58a.49.49,0,0,0-.34.42c.35.25,1.26.27,1.49-.18C73.63,60.15,72.44,60.06,72.14,60.58Z"/><path class="cls-2" d="M80.32,58.1l0-.07a.77.77,0,0,0,0,.19c0,.08,0,.16,0,.19.19.49,1.25.51,1-.11S80.57,57.87,80.32,58.1Z"/><path class="cls-2" d="M89.8,56.79c-.62-.84-1.91,0-1.1.26C89.17,57.39,90.41,57.61,89.8,56.79Z"/><path class="cls-2" d="M67.71,64.82l.12-.22a1.53,1.53,0,0,0-.68,1.06c.37.1,1.45-.61,1.42-1.08C68.53,63.86,68,64.37,67.71,64.82Z"/><path class="cls-2" d="M77.39,62.45a.27.27,0,0,0,.36.08c.45,0,1.27-.06.92-.53S77.51,62.08,77.39,62.45Z"/><path class="cls-2" d="M64,62a.7.7,0,0,0-.06.36c.55.19,1.94,0,1.48-.85S64.18,61.34,64,62Z"/><path class="cls-2" d="M65.92,59.69h0a.46.46,0,0,0-.56.44.68.68,0,0,0,.95-.36A.67.67,0,0,0,65.92,59.69Z"/><path class="cls-3" d="M67.72,78.69c-2,1.44,8.19,8.71,14.82,8.46a19.55,19.55,0,0,0,16-10.06c1.75-3.6,1.14-13.82-1.06-13.1-.78.25.18,3.72-3,9-2.83,4.61-7.64,9.16-14,8.85C71.75,81.37,69,77.73,67.72,78.69Z"/><path class="cls-4" d="M89.6,53.41a.93.93,0,0,0-.84,1.41c.55,1.34,3.88,3.52,4.84,3.15s1-1.46-.4-2.51S90.87,53.58,89.6,53.41Z"/><path class="cls-4" d="M91.33,55.21s3.85-3.93,5-5.4a68.43,68.43,0,0,0,3.65-7.1.94.94,0,0,1,.82-.41c.47.09.33.79.33.79S98.39,48.51,97.3,50c-2.21,3-5.13,6.33-5.13,6.33Z"/><path class="cls-4" d="M98.05,47.81c-.23,0-6.36-.79-6.36-.79l-.24.36,3.17.51,3.16.51Z"/><path class="cls-4" d="M84.79,54.87c-6.57,1.65-16.29-3-16.29-3s6.49-7.44,12.06-8,15.23,3.81,15.23,3.81S91.38,53.22,84.79,54.87Z"/><path class="cls-5" d="M89.65,53.81a1.37,1.37,0,0,0-.15,1.33A7,7,0,0,0,91.89,57l.16-1.18s-.51-.35-.56-.64a.59.59,0,0,1,.05-.45Z"/><path class="cls-5" d="M93.64,47.87a52.2,52.2,0,0,0-11,.1c-5.11.73-12.83,3.13-12.73,3.47s8.44-2.75,12.56-3,11.49,0,11.49,0Z"/><path class="cls-5" d="M91.05,48.05A5.62,5.62,0,0,1,90,50a14.83,14.83,0,0,0-1.85,2.82,16.38,16.38,0,0,0,2.14-2.63c.61-.88,1.39-2.12,1.39-2.12Z"/><path class="cls-5" d="M85.94,48.1a8.73,8.73,0,0,1-1.13,3.2c-1.13,2.29-1.58,3-1.3,3s1.12-1.68,1.69-2.92S86.64,48,86.64,48Z"/><path class="cls-5" d="M81,48.55a6.05,6.05,0,0,1-.39,2.39c-.51,1.69-1.12,2.64-.89,2.75s.82-1.45,1.16-2.66.86-2.73.86-2.73Z"/><path class="cls-5" d="M75.61,49.8a3.81,3.81,0,0,1-.27,1.41c-.31.86-.81,1.73-.66,1.73a3.07,3.07,0,0,0,.91-1.54c.23-.78.48-1.7.48-1.7Z"/><path class="cls-5" d="M91.66,47.92a7.28,7.28,0,0,0-1.93-1.82,5.94,5.94,0,0,0-2.49-1c-.13.12,1.42.55,2,.9a21.46,21.46,0,0,1,2,1.91Z"/><path class="cls-5" d="M86.4,47.77a4.83,4.83,0,0,0-1.57-2.06,7.77,7.77,0,0,0-3.51-1.34c-.33.1,2.56.82,3.21,1.45a7,7,0,0,1,1.18,2Z"/><path class="cls-5" d="M81.7,48.3a11.22,11.22,0,0,0-2.36-1.83,10.37,10.37,0,0,0-2.84-.71c-.33,0,2.18.55,2.88,1a14.81,14.81,0,0,1,1.78,1.65Z"/><path class="cls-5" d="M75.6,49.65s-.08-.41-1.25-.84-1.81-.71-1.56-.72a8,8,0,0,1,1.55.4,9.88,9.88,0,0,1,1.84,1Z"/></svg>