<svg id="Layer_1" data-name="Layer 1" xmlns="http://www.w3.org/2000/svg" viewBox="0 0 105.29 104.84"><defs><style>.cls-1{fill:#ff8c03;}.cls-2{fill:#fcbc08;}.cls-3{fill:#f28106;opacity:0.7;}.cls-4{fill:#7c6a13;}.cls-5{fill:#937b18;}</style></defs><title>orange1</title><path class="cls-1" d="M72.9,36.49c8.07,5.93,18.69,24.7,6.2,40.15S48.35,93,34.58,83.92c-14.32-9.44-21.19-32.51-3.85-49C44.64,21.66,60.73,27.53,72.9,36.49Z"/><path class="cls-2" d="M39.14,34.28h0Z"/><path class="cls-2" d="M41,36.23c.94-.46,2-1.43,1.11-2.29s-2.1.12-3,.33C38,35.35,38.49,37.46,41,36.23Z"/><path class="cls-2" d="M39.18,34.26l1.45-.56A2.3,2.3,0,0,0,39.18,34.26Z"/><path class="cls-2" d="M36.6,38.4c.36-.26.84-.8.37-1.18a.61.61,0,0,0-.9.19,1.18,1.18,0,0,0-.59.78C35.4,39,36.23,38.67,36.6,38.4Z"/><path class="cls-2" d="M42.78,37.91a.91.91,0,0,0-.89,0c-.42,0-1,.22-1,.56a.42.42,0,0,0,0,.22l-.12.09.12-.08c.11.39,1,.11,1.37,0S43.5,38.31,42.78,37.91Z"/><path class="cls-2" d="M40.72,38.82l-.06,0Z"/><path class="cls-2" d="M44.77,35.79c-.41.12-.87.58-.63,1s1.18.24,1.52,0C47,36.07,45.27,35.49,44.77,35.79Z"/><path class="cls-2" d="M46.46,33.3c-.28,0-.79-.17-1,.08a.37.37,0,0,0,0,.47c0,.29.48.54.67.64.41.2,2.48.87,2.63.17S47,33.37,46.46,33.3Z"/><path class="cls-2" d="M44.21,31.9c.43.22,1.94.16,2.09-.44s-.82-.75-1.22-.7a1.51,1.51,0,0,0-.65.37C44,31.33,43.72,31.63,44.21,31.9Z"/><path class="cls-2" d="M36.87,35.47c.79-.58,0-.91-.6-.79h0c-.36,0-1.25.39-1,.88S36.57,35.7,36.87,35.47Z"/><path class="cls-2" d="M33.58,39.21c.29-.34,1.19-1.81.15-1.87a.74.74,0,0,0-.53.28,3,3,0,0,0-1,1.44C31.76,40.42,33.06,39.8,33.58,39.21Z"/><path class="cls-2" d="M39.12,39.63a2,2,0,0,0-1.36.11c-.77.21-1.67.82-1.8,1.39-.34,1.4,2.12.4,2.64.21C39.38,41.07,40.26,40.05,39.12,39.63Z"/><path class="cls-2" d="M43.24,40.73c-.39.13-.82.46-.81.78,0,.7,1.41.48,1.81.3C45.75,41.1,43.77,40.42,43.24,40.73Z"/><path class="cls-2" d="M52.93,32.94a.66.66,0,0,0-.67.27c.43.85,2.37.93,2.82,0A1.57,1.57,0,0,0,52.93,32.94Z"/><path class="cls-2" d="M48.94,36.57c.85.29,3.15.44,3.33-.75a2,2,0,0,0-1.85-.22C49.71,35.57,49,35.81,48.94,36.57Z"/><path class="cls-2" d="M50.6,30.35a1.21,1.21,0,0,0-1.69-.17.83.83,0,0,0-.4.49A1.62,1.62,0,0,0,50.6,30.35Z"/><path class="cls-2" d="M56.85,35.29c-1.7,0,.49,2.19,1.43,1.5S57.52,34.85,56.85,35.29Z"/><path class="cls-2" d="M32.7,42.3c-.53-.42-1,0-1.27.49-1.13.72-2.5,2.44-1.41,2.86C31.36,46.17,32.67,43.24,32.7,42.3Z"/><path class="cls-2" d="M29.58,40.07c-1.46.28-.77,2.71.62,1C31.07,40.09,30.18,39.76,29.58,40.07Z"/><path class="cls-2" d="M37.89,44.53a.79.79,0,0,0-.54.68c.55.39,2,.42,2.36-.3C40.26,43.83,38.37,43.69,37.89,44.53Z"/><path class="cls-2" d="M50.85,40.54l-.08-.12a1.18,1.18,0,0,0-.07.3c-.08.14-.09.26,0,.31.31.8,2,.82,1.66-.18S51.24,40.15,50.85,40.54Z"/><path class="cls-2" d="M65.87,38.42c-1-1.36-3,0-1.74.43C64.88,39.39,66.84,39.75,65.87,38.42Z"/><path class="cls-2" d="M30.87,51.36l.2-.36A2.47,2.47,0,0,0,30,52.72c.58.15,2.3-1,2.25-1.75C32.17,49.82,31.37,50.63,30.87,51.36Z"/><path class="cls-2" d="M46.21,47.53a.41.41,0,0,0,.57.13c.71.09,2-.09,1.46-.85S46.4,46.94,46.21,47.53Z"/><path class="cls-2" d="M25,46.77a1.31,1.31,0,0,0-.08.6c.86.29,3.06,0,2.34-1.38S25.27,45.76,25,46.77Z"/><path class="cls-2" d="M28,43.09l0,0a.72.72,0,0,0-.89.72,1.06,1.06,0,0,0,1.49-.58A.92.92,0,0,0,28,43.09Z"/><path class="cls-3" d="M30.88,73.69c-3.17,2.33,13,14,23.49,13.64C67.9,86.8,77,76.91,79.79,71.11S81.6,48.86,78.12,50c-1.24.41.28,6-4.81,14.45-4.47,7.42-12.1,14.74-22.2,14.24C37.28,78,33,72.16,30.88,73.69Z"/><path class="cls-4" d="M65.55,33a1.48,1.48,0,0,0-1.32,2.26c.87,2.16,6.14,5.67,7.66,5.08s1.58-2.35-.63-4S67.56,33.24,65.55,33Z"/><path class="cls-4" d="M68.29,35.87s6.11-6.32,7.85-8.7,5.79-11.42,5.79-11.42.54-.81,1.29-.66.53,1.26.53,1.26-4.26,8.72-6,11.13c-3.51,4.88-8.14,10.2-8.14,10.2Z"/><path class="cls-4" d="M79,24c-.38-.07-10.09-1.27-10.09-1.27l-.37.57,5,.82,5,.83Z"/><path class="cls-4" d="M57.93,35.33C47.52,38,32.12,30.55,32.12,30.55s10.28-12,19.1-12.9,24.14,6.14,24.14,6.14S68.38,32.66,57.93,35.33Z"/><path class="cls-5" d="M65.63,33.62a2.21,2.21,0,0,0-.23,2.14c.75,1.46,3.79,3,3.79,3l.24-1.91s-.81-.55-.89-1a1.11,1.11,0,0,1,.08-.73Z"/><path class="cls-5" d="M72,24.05a81.77,81.77,0,0,0-17.46.16c-8.1,1.18-20.33,5.05-20.18,5.59s13.37-4.43,19.91-4.86,18.21,0,18.21,0Z"/><path class="cls-5" d="M67.86,24.35a9.13,9.13,0,0,1-1.7,3.18c-1.47,2-3.23,4.6-2.93,4.55a27.75,27.75,0,0,0,3.39-4.24c1-1.42,2.2-3.42,2.2-3.42Z"/><path class="cls-5" d="M59.75,24.41s0,1.5-1.78,5.17-2.51,4.75-2.07,4.83,1.78-2.7,2.68-4.71,2.29-5.42,2.29-5.42Z"/><path class="cls-5" d="M51.87,25.15A10.1,10.1,0,0,1,51.25,29c-.8,2.72-1.78,4.26-1.42,4.44s1.31-2.33,1.85-4.3S53,24.74,53,24.74Z"/><path class="cls-5" d="M43.39,27.16A6,6,0,0,1,43,29.43c-.49,1.39-1.28,2.8-1,2.78a4.88,4.88,0,0,0,1.44-2.48c.36-1.25.75-2.72.75-2.72Z"/><path class="cls-5" d="M68.82,24.13a11.67,11.67,0,0,0-3.06-2.94c-1.64-1-3.73-1.8-3.94-1.61s2.24.89,3.11,1.46a32.14,32.14,0,0,1,3.2,3.07Z"/><path class="cls-5" d="M60.49,23.89A7.8,7.8,0,0,0,58,20.57c-1.79-1.32-5-2.34-5.56-2.16s4.06,1.32,5.09,2.34A11.46,11.46,0,0,1,59.4,24Z"/><path class="cls-5" d="M53,24.74a18,18,0,0,0-3.74-2.95,16,16,0,0,0-4.49-1.14c-.53.07,3.45.89,4.56,1.67A24.1,24.1,0,0,1,52.18,25Z"/><path class="cls-5" d="M43.38,26.92s-.13-.66-2-1.35-2.88-1.15-2.48-1.16a12.83,12.83,0,0,1,2.46.64,15.92,15.92,0,0,1,2.9,1.64Z"/></svg>