<svg xmlns="http://www.w3.org/2000/svg" viewBox="0 0 105.29 104.84"><defs><style>.cls-1{isolation:isolate;}.cls-2{fill:#ed7d03;}.cls-3{fill:#ff8c03;}.cls-4{fill:#fcbc08;}.cls-5{fill:#f28106;opacity:0.7;}.cls-6{fill:#7c6a13;}.cls-7{fill:#937b18;}.cls-8{fill:#b86313;}.cls-11,.cls-9{fill:#cc7917;}.cls-10{fill:#9e4727;}.cls-11,.cls-12,.cls-17{opacity:0.5;}.cls-11,.cls-15,.cls-17{mix-blend-mode:multiply;}.cls-13,.cls-16{fill:#fff;}.cls-14,.cls-15{opacity:0.3;}.cls-14{mix-blend-mode:screen;}.cls-16{opacity:0.1;}</style></defs><title>orange28</title><g class="cls-1"><g id="Layer_1" data-name="Layer 1"><path class="cls-2" d="M79.92,45.41c-4.72-1.6-9.7-5.65-10.85-10.74H24.85V64.88H82.16V46C81.4,45.85,80.65,45.65,79.92,45.41Z"/><path class="cls-3" d="M67.38,11.5c3,2.19,6.91,9.14,2.29,14.85s-11.37,6-16.47,2.7a11.48,11.48,0,0,1-1.42-18.14C56.92,6,62.87,8.18,67.38,11.5Z"/><path class="cls-4" d="M54.89,10.68h0Z"/><path class="cls-4" d="M55.58,11.4c.35-.17.74-.53.41-.84s-.77,0-1.09.12C54.47,11.08,54.65,11.86,55.58,11.4Z"/><path class="cls-4" d="M54.9,10.68l.54-.21A.83.83,0,0,0,54.9,10.68Z"/><path class="cls-4" d="M54,12.21c.13-.1.31-.3.14-.44a.23.23,0,0,0-.34.07.48.48,0,0,0-.22.29C53.51,12.42,53.81,12.31,54,12.21Z"/><path class="cls-4" d="M56.23,12a.29.29,0,0,0-.32,0c-.16,0-.35.08-.39.21a.11.11,0,0,0,0,.08l-.05,0,.05,0c0,.15.38,0,.5,0S56.5,12.17,56.23,12Z"/><path class="cls-4" d="M55.47,12.36h0Z"/><path class="cls-4" d="M57,11.24c-.15,0-.32.22-.23.36s.44.09.56,0C57.8,11.34,57.15,11.13,57,11.24Z"/><path class="cls-4" d="M57.6,10.32c-.11,0-.3-.06-.38,0a.15.15,0,0,0,0,.18c0,.1.18.19.25.23s.92.32,1,.06S57.78,10.35,57.6,10.32Z"/><path class="cls-4" d="M56.76,9.8c.16.08.72.06.78-.16s-.31-.28-.45-.26a.58.58,0,0,0-.25.14C56.7,9.59,56.58,9.7,56.76,9.8Z"/><path class="cls-4" d="M54.05,11.12c.29-.21,0-.33-.22-.29h0c-.13,0-.46.14-.37.32S53.94,11.21,54.05,11.12Z"/><path class="cls-4" d="M52.83,12.51c.11-.13.44-.67.06-.69a.23.23,0,0,0-.2.1,1.06,1.06,0,0,0-.38.53C52.16,13,52.64,12.72,52.83,12.51Z"/><path class="cls-4" d="M54.88,12.66a.74.74,0,0,0-.5,0,1,1,0,0,0-.67.52c-.13.51.78.14,1,.08S55.3,12.82,54.88,12.66Z"/><path class="cls-4" d="M56.4,13.07c-.14,0-.3.17-.3.29s.53.18.67.11C57.33,13.21,56.6,13,56.4,13.07Z"/><path class="cls-4" d="M60,10.19a.23.23,0,0,0-.25.1.69.69,0,0,0,1,0A.57.57,0,0,0,60,10.19Z"/><path class="cls-4" d="M58.51,11.53c.32.11,1.17.16,1.23-.28a.75.75,0,0,0-.68-.08C58.8,11.16,58.52,11.25,58.51,11.53Z"/><path class="cls-4" d="M59.13,9.23a.46.46,0,0,0-.63-.07.32.32,0,0,0-.15.19A.62.62,0,0,0,59.13,9.23Z"/><path class="cls-4" d="M61.44,11.06c-.63,0,.18.8.53.55S61.69,10.89,61.44,11.06Z"/><path class="cls-4" d="M52.51,13.65c-.2-.16-.36,0-.47.18-.42.27-.93.9-.53,1.06S52.49,14,52.51,13.65Z"/><path class="cls-4" d="M51.35,12.82c-.54.11-.28,1,.23.39C51.9,12.83,51.57,12.71,51.35,12.82Z"/><path class="cls-4" d="M54.43,14.48a.27.27,0,0,0-.2.24c.2.15.74.16.87-.11S54.6,14.16,54.43,14.48Z"/><path class="cls-4" d="M59.22,13l0-.05a.61.61,0,0,0,0,.11c0,.06,0,.1,0,.12.11.29.73.3.61-.07S59.36,12.85,59.22,13Z"/><path class="cls-4" d="M64.78,12.21c-.37-.5-1.12,0-.65.16C64.41,12.57,65.13,12.71,64.78,12.21Z"/><path class="cls-4" d="M51.83,17l.07-.13a.93.93,0,0,0-.4.63c.22.06.85-.36.84-.65S52,16.73,51.83,17Z"/><path class="cls-4" d="M57.5,15.58c.08.09.14.09.21.05.27,0,.75,0,.54-.31S57.57,15.36,57.5,15.58Z"/><path class="cls-4" d="M49.67,15.3a.54.54,0,0,0,0,.22c.32.11,1.14,0,.87-.51S49.76,14.93,49.67,15.3Z"/><path class="cls-4" d="M50.78,13.94h0c-.19,0-.32.07-.33.27A.39.39,0,0,0,51,14,.39.39,0,0,0,50.78,13.94Z"/><path class="cls-5" d="M51.83,25.26c-1.17.86,4.81,5.2,8.69,5a11.41,11.41,0,0,0,9.4-6c1-2.15.67-8.23-.61-7.81-.46.15.1,2.22-1.78,5.35-1.66,2.74-4.48,5.45-8.22,5.26C54.2,26.86,52.61,24.69,51.83,25.26Z"/><path class="cls-6" d="M64.66,10.2a.55.55,0,0,0-.49.84c.32.8,2.27,2.1,2.83,1.88s.59-.87-.23-1.5A4.86,4.86,0,0,0,64.66,10.2Z"/><path class="cls-6" d="M65.67,11.27s2.26-2.34,2.9-3.22a40.43,40.43,0,0,0,2.15-4.22s.19-.3.47-.25.2.47.2.47-1.58,3.23-2.22,4.12c-1.3,1.8-3,3.77-3,3.77Z"/><path class="cls-6" d="M69.61,6.86l-3.73-.47-.13.22,1.85.3,1.85.31Z"/><path class="cls-6" d="M61.84,11.07c-3.85,1-9.55-1.77-9.55-1.77s3.8-4.43,7.07-4.77S68.29,6.8,68.29,6.8A13.49,13.49,0,0,1,61.84,11.07Z"/><path class="cls-7" d="M64.69,10.44a.82.82,0,0,0-.09.79A4.16,4.16,0,0,0,66,12.35l.09-.71s-.3-.2-.33-.38a.39.39,0,0,1,0-.27Z"/><path class="cls-7" d="M67,6.9A30.51,30.51,0,0,0,60.57,7c-3,.43-7.52,1.87-7.46,2.07s4.94-1.64,7.36-1.8,6.73,0,6.73,0Z"/><path class="cls-7" d="M65.51,7a3.28,3.28,0,0,1-.63,1.17A8.7,8.7,0,0,0,63.8,9.87,9.93,9.93,0,0,0,65.05,8.3c.36-.53.82-1.27.82-1.27Z"/><path class="cls-7" d="M62.51,7A5.29,5.29,0,0,1,61.85,9c-.66,1.36-.93,1.75-.76,1.78s.66-1,1-1.74.85-2,.85-2Z"/><path class="cls-7" d="M59.6,7.31a3.93,3.93,0,0,1-.23,1.42c-.3,1-.66,1.57-.53,1.64s.49-.86.69-1.59.5-1.62.5-1.62Z"/><path class="cls-7" d="M56.46,8.05a2.39,2.39,0,0,1-.16.84c-.18.51-.47,1-.39,1A1.84,1.84,0,0,0,56.45,9l.28-1Z"/><path class="cls-7" d="M65.87,6.93a4.32,4.32,0,0,0-1.14-1.09,3.44,3.44,0,0,0-1.45-.59c-.08.07.83.32,1.15.53a12.23,12.23,0,0,1,1.18,1.14Z"/><path class="cls-7" d="M62.78,6.84a2.81,2.81,0,0,0-.92-1.23,4.57,4.57,0,0,0-2-.8c-.2.06,1.5.49,1.88.87a4.1,4.1,0,0,1,.69,1.2Z"/><path class="cls-7" d="M60,7.16a6.69,6.69,0,0,0-1.39-1.1A6.29,6.29,0,0,0,57,5.64c-.19,0,1.28.33,1.69.62a9.06,9.06,0,0,1,1,1Z"/><path class="cls-7" d="M56.46,8s-.05-.24-.74-.5S54.66,7,54.81,7a5.09,5.09,0,0,1,.91.24,5.46,5.46,0,0,1,1.07.61Z"/><path class="cls-3" d="M47.63,12.61c3,2.2,6.91,9.14,2.29,14.85s-11.37,6.06-16.47,2.7A11.5,11.5,0,0,1,32,12C37.17,7.13,43.13,9.3,47.63,12.61Z"/><path class="cls-4" d="M35.14,11.8h0Z"/><path class="cls-4" d="M35.83,12.52c.35-.17.75-.53.42-.85s-.78,0-1.1.12C34.72,12.19,34.9,13,35.83,12.52Z"/><path class="cls-4" d="M35.16,11.79l.53-.21A.78.78,0,0,0,35.16,11.79Z"/><path class="cls-4" d="M34.2,13.32c.13-.1.31-.3.14-.44A.23.23,0,0,0,34,13a.43.43,0,0,0-.21.29C33.76,13.53,34.06,13.42,34.2,13.32Z"/><path class="cls-4" d="M36.49,13.14a.35.35,0,0,0-.33,0c-.16,0-.35.08-.39.21a.11.11,0,0,0,0,.08l-.05,0,.05,0c0,.14.38,0,.51,0S36.76,13.29,36.49,13.14Z"/><path class="cls-4" d="M35.72,13.47l0,0Z"/><path class="cls-4" d="M37.22,12.36c-.15,0-.32.21-.23.35s.44.09.56,0C38.06,12.46,37.41,12.24,37.22,12.36Z"/><path class="cls-4" d="M37.85,11.43c-.11,0-.29-.06-.37,0a.15.15,0,0,0,0,.18c0,.1.18.2.25.23s.92.33,1,.07S38,11.46,37.85,11.43Z"/><path class="cls-4" d="M37,10.91c.15.09.71.07.77-.16s-.31-.28-.45-.26a.5.5,0,0,0-.24.14C37,10.7,36.84,10.82,37,10.91Z"/><path class="cls-4" d="M34.3,12.24c.29-.22,0-.34-.22-.3h0c-.14,0-.47.14-.38.32S34.19,12.32,34.3,12.24Z"/><path class="cls-4" d="M33.08,13.62c.11-.13.44-.67.06-.69a.26.26,0,0,0-.2.1,1.12,1.12,0,0,0-.38.53C32.41,14.06,32.89,13.84,33.08,13.62Z"/><path class="cls-4" d="M35.13,13.77a.8.8,0,0,0-.5,0,1,1,0,0,0-.67.52c-.12.52.79.15,1,.08S35.55,13.93,35.13,13.77Z"/><path class="cls-4" d="M36.66,14.18c-.15.05-.31.17-.3.29s.52.18.67.11C37.59,14.32,36.85,14.07,36.66,14.18Z"/><path class="cls-4" d="M40.24,11.3a.26.26,0,0,0-.25.1.7.7,0,0,0,1,0A.59.59,0,0,0,40.24,11.3Z"/><path class="cls-4" d="M38.77,12.64c.31.11,1.16.17,1.23-.28a.77.77,0,0,0-.69-.08C39.05,12.27,38.77,12.36,38.77,12.64Z"/><path class="cls-4" d="M39.38,10.34a.44.44,0,0,0-.62-.06.25.25,0,0,0-.15.18A.59.59,0,0,0,39.38,10.34Z"/><path class="cls-4" d="M41.69,12.17c-.63,0,.18.81.53.55S41.94,12,41.69,12.17Z"/><path class="cls-4" d="M32.76,14.76c-.2-.15-.36,0-.47.18-.42.27-.92.91-.52,1.06S32.75,15.11,32.76,14.76Z"/><path class="cls-4" d="M31.61,13.94c-.55.1-.29,1,.22.39C32.15,13.94,31.83,13.82,31.61,13.94Z"/><path class="cls-4" d="M34.68,15.59a.27.27,0,0,0-.2.25c.2.14.74.15.87-.11S34.86,15.28,34.68,15.59Z"/><path class="cls-4" d="M39.47,14.11l0,0a.43.43,0,0,0,0,.11c0,.05,0,.09,0,.11.12.3.73.31.62-.06S39.62,14,39.47,14.11Z"/><path class="cls-4" d="M45,13.33c-.37-.51-1.12,0-.65.15C44.66,13.69,45.39,13.82,45,13.33Z"/><path class="cls-4" d="M32.08,18.11l.07-.13a.93.93,0,0,0-.4.63c.22.06.86-.36.84-.64S32.27,17.84,32.08,18.11Z"/><path class="cls-4" d="M37.76,16.7a.14.14,0,0,0,.21,0c.26,0,.74,0,.54-.31S37.83,16.48,37.76,16.7Z"/><path class="cls-4" d="M29.92,16.42a.38.38,0,0,0,0,.22c.32.1,1.13,0,.86-.51S30,16,29.92,16.42Z"/><path class="cls-4" d="M31,15.06h0a.27.27,0,0,0-.33.26.4.4,0,0,0,.56-.21A.36.36,0,0,0,31,15.06Z"/><path class="cls-5" d="M32.09,26.37c-1.18.86,4.8,5.2,8.69,5.05a11.47,11.47,0,0,0,9.4-6c1-2.14.67-8.23-.62-7.81-.46.16.1,2.22-1.78,5.35-1.65,2.74-4.48,5.45-8.21,5.27C34.45,28,32.86,25.81,32.09,26.37Z"/><path class="cls-6" d="M44.91,11.31a.55.55,0,0,0-.49.84c.32.8,2.27,2.1,2.83,1.88s.59-.87-.23-1.5A4.86,4.86,0,0,0,44.91,11.31Z"/><path class="cls-6" d="M45.92,12.39S48.18,10,48.83,9.16A42,42,0,0,0,51,4.94s.2-.3.47-.24.2.46.2.46-1.57,3.23-2.21,4.12c-1.3,1.81-3,3.77-3,3.77Z"/><path class="cls-6" d="M49.86,8c-.13,0-3.73-.47-3.73-.47L46,7.72l1.85.3,1.85.31Z"/><path class="cls-6" d="M42.09,12.18c-3.85,1-9.55-1.77-9.55-1.77S36.35,6,39.61,5.65s8.93,2.27,8.93,2.27A13.44,13.44,0,0,1,42.09,12.18Z"/><path class="cls-7" d="M44.94,11.55a.82.82,0,0,0-.09.79,4.17,4.17,0,0,0,1.41,1.12l.09-.71s-.3-.2-.33-.38a.41.41,0,0,1,0-.27Z"/><path class="cls-7" d="M47.28,8a30.48,30.48,0,0,0-6.46.06c-3,.44-7.52,1.87-7.46,2.07s4.94-1.64,7.36-1.8,6.74,0,6.74,0Z"/><path class="cls-7" d="M45.76,8.12a3.41,3.41,0,0,1-.62,1.18A8.25,8.25,0,0,0,44.05,11,9.93,9.93,0,0,0,45.3,9.41c.36-.52.82-1.26.82-1.26Z"/><path class="cls-7" d="M42.77,8.15a5.23,5.23,0,0,1-.67,1.91c-.66,1.36-.92,1.75-.76,1.78s.66-1,1-1.74.85-2,.85-2Z"/><path class="cls-7" d="M39.85,8.42a3.63,3.63,0,0,1-.23,1.42c-.3,1-.66,1.57-.52,1.64s.48-.86.68-1.59.5-1.62.5-1.62Z"/><path class="cls-7" d="M36.71,9.16a2.13,2.13,0,0,1-.16.84c-.18.52-.47,1-.38,1a1.82,1.82,0,0,0,.53-.92l.28-1Z"/><path class="cls-7" d="M46.12,8A4.25,4.25,0,0,0,45,7a3.53,3.53,0,0,0-1.46-.6c-.08.07.83.33,1.15.54A12.41,12.41,0,0,1,45.86,8Z"/><path class="cls-7" d="M43,8a2.91,2.91,0,0,0-.92-1.23,4.73,4.73,0,0,0-2.06-.8c-.19.07,1.5.49,1.88.87A4.1,4.1,0,0,1,42.63,8Z"/><path class="cls-7" d="M40.28,8.27A6.28,6.28,0,0,0,38.9,7.18a6.1,6.1,0,0,0-1.66-.43c-.2,0,1.27.33,1.68.62a9.24,9.24,0,0,1,1,1Z"/><path class="cls-7" d="M36.71,9.07s-.05-.24-.73-.5-1.07-.42-.92-.42a3.94,3.94,0,0,1,.91.23A6.06,6.06,0,0,1,37,9Z"/><path class="cls-3" d="M81.28,23.18c3,2.19,6.92,9.14,2.29,14.85s-11.37,6-16.46,2.7a11.49,11.49,0,0,1-1.43-18.14C70.83,17.7,76.78,19.87,81.28,23.18Z"/><path class="cls-4" d="M68.79,22.36h0Z"/><path class="cls-4" d="M69.49,23.09c.35-.17.74-.53.41-.85s-.78,0-1.09.12C68.37,22.76,68.56,23.54,69.49,23.09Z"/><path class="cls-4" d="M68.81,22.36l.54-.21A.83.83,0,0,0,68.81,22.36Z"/><path class="cls-4" d="M67.86,23.89c.13-.1.31-.3.13-.44a.22.22,0,0,0-.33.07.44.44,0,0,0-.22.29C67.41,24.1,67.72,24,67.86,23.89Z"/><path class="cls-4" d="M70.14,23.71a.35.35,0,0,0-.33,0c-.15,0-.35.08-.38.21a.25.25,0,0,0,0,.08l0,0,0,0c0,.14.39,0,.51,0S70.41,23.85,70.14,23.71Z"/><path class="cls-4" d="M69.38,24h0Z"/><path class="cls-4" d="M70.88,22.92c-.15,0-.32.22-.24.36s.44.09.57,0C71.71,23,71.06,22.81,70.88,22.92Z"/><path class="cls-4" d="M71.5,22c-.1,0-.29-.06-.37,0a.15.15,0,0,0,0,.18c0,.1.18.2.25.23s.91.32,1,.06S71.69,22,71.5,22Z"/><path class="cls-4" d="M70.67,21.48c.16.09.72.06.77-.16s-.3-.28-.45-.26a.61.61,0,0,0-.24.14C70.6,21.27,70.49,21.39,70.67,21.48Z"/><path class="cls-4" d="M68,22.81c.29-.22,0-.34-.23-.3h0c-.13,0-.46.14-.37.32S67.84,22.89,68,22.81Z"/><path class="cls-4" d="M66.74,24.19c.1-.13.44-.67.06-.69a.26.26,0,0,0-.2.1,1.15,1.15,0,0,0-.39.53C66.07,24.63,66.55,24.41,66.74,24.19Z"/><path class="cls-4" d="M68.79,24.34a.83.83,0,0,0-.51,0,1,1,0,0,0-.66.52c-.13.52.78.14,1,.08S69.21,24.5,68.79,24.34Z"/><path class="cls-4" d="M70.31,24.75c-.14.05-.3.17-.3.29s.52.18.67.11C71.24,24.89,70.51,24.64,70.31,24.75Z"/><path class="cls-4" d="M73.9,21.87a.23.23,0,0,0-.25.1.69.69,0,0,0,1,0A.57.57,0,0,0,73.9,21.87Z"/><path class="cls-4" d="M72.42,23.21c.31.11,1.16.17,1.23-.28a.75.75,0,0,0-.68-.08C72.7,22.84,72.42,22.93,72.42,23.21Z"/><path class="cls-4" d="M73,20.91a.44.44,0,0,0-.62-.06.28.28,0,0,0-.15.18A.59.59,0,0,0,73,20.91Z"/><path class="cls-4" d="M75.34,22.74c-.62,0,.19.81.53.55S75.59,22.58,75.34,22.74Z"/><path class="cls-4" d="M66.41,25.33c-.19-.15-.36,0-.47.18-.42.27-.92.91-.52,1.06S66.4,25.68,66.41,25.33Z"/><path class="cls-4" d="M65.26,24.51c-.54.1-.28,1,.23.38C65.81,24.51,65.48,24.39,65.26,24.51Z"/><path class="cls-4" d="M68.33,26.16a.28.28,0,0,0-.2.25c.21.14.74.15.88-.11S68.51,25.85,68.33,26.16Z"/><path class="cls-4" d="M73.13,24.68l0,0a.2.2,0,0,0,0,.11c0,.05,0,.09,0,.11.11.3.73.31.61-.06S73.27,24.54,73.13,24.68Z"/><path class="cls-4" d="M78.68,23.89c-.36-.5-1.12,0-.64.16C78.32,24.25,79,24.39,78.68,23.89Z"/><path class="cls-4" d="M65.73,28.68l.08-.13a.9.9,0,0,0-.4.63c.21.06.85-.36.83-.64S65.92,28.41,65.73,28.68Z"/><path class="cls-4" d="M71.41,27.27a.14.14,0,0,0,.21,0c.26,0,.74,0,.54-.31S71.48,27.05,71.41,27.27Z"/><path class="cls-4" d="M63.57,27a.47.47,0,0,0,0,.21c.32.11,1.14,0,.87-.51S63.67,26.61,63.57,27Z"/><path class="cls-4" d="M64.69,25.62h0c-.2,0-.32.07-.33.26a.39.39,0,0,0,.55-.21A.36.36,0,0,0,64.69,25.62Z"/><path class="cls-5" d="M65.74,36.94c-1.17.86,4.8,5.2,8.69,5.05a11.47,11.47,0,0,0,9.4-6c1-2.15.67-8.23-.62-7.81-.45.15.11,2.22-1.78,5.35C79.78,36.27,77,39,73.22,38.8,68.11,38.54,66.52,36.37,65.74,36.94Z"/><path class="cls-6" d="M78.56,21.88a.55.55,0,0,0-.48.84c.32.8,2.27,2.1,2.83,1.88s.58-.87-.23-1.5A4.83,4.83,0,0,0,78.56,21.88Z"/><path class="cls-6" d="M79.58,23s2.26-2.34,2.9-3.22a39.9,39.9,0,0,0,2.14-4.22s.2-.3.48-.25.2.47.2.47S83.72,19,83.08,19.85c-1.3,1.8-3,3.77-3,3.77Z"/><path class="cls-6" d="M83.52,18.55c-.14,0-3.73-.47-3.73-.47l-.14.21,1.86.3,1.85.31Z"/><path class="cls-6" d="M75.75,22.75C71.89,23.73,66.2,21,66.2,21s3.8-4.43,7.06-4.77,8.93,2.28,8.93,2.28A13.44,13.44,0,0,1,75.75,22.75Z"/><path class="cls-7" d="M78.59,22.12a.83.83,0,0,0-.08.79A4.16,4.16,0,0,0,79.91,24l.09-.71s-.3-.2-.33-.38a.41.41,0,0,1,0-.27Z"/><path class="cls-7" d="M80.93,18.58a30.48,30.48,0,0,0-6.46.06c-3,.43-7.51,1.87-7.46,2.07s4.95-1.64,7.37-1.8,6.73,0,6.73,0Z"/><path class="cls-7" d="M79.42,18.69a3.36,3.36,0,0,1-.63,1.18,8.47,8.47,0,0,0-1.08,1.68A10.55,10.55,0,0,0,79,20c.35-.52.81-1.26.81-1.26Z"/><path class="cls-7" d="M76.42,18.71a5.29,5.29,0,0,1-.66,1.92c-.66,1.36-.93,1.75-.77,1.78s.66-1,1-1.74.85-2,.85-2Z"/><path class="cls-7" d="M73.5,19a3.65,3.65,0,0,1-.23,1.42c-.29,1-.66,1.57-.52,1.64s.48-.86.68-1.59.5-1.62.5-1.62Z"/><path class="cls-7" d="M70.37,19.73a2.39,2.39,0,0,1-.16.84c-.18.52-.47,1-.39,1a1.79,1.79,0,0,0,.54-.92c.13-.46.27-1,.27-1Z"/><path class="cls-7" d="M79.77,18.61a4.38,4.38,0,0,0-1.13-1.09,3.56,3.56,0,0,0-1.46-.59c-.07.07.83.33,1.15.54a12.81,12.81,0,0,1,1.19,1.13Z"/><path class="cls-7" d="M76.69,18.52a2.91,2.91,0,0,0-.92-1.23,4.56,4.56,0,0,0-2.06-.8c-.19.07,1.51.49,1.89.87a4.1,4.1,0,0,1,.69,1.2Z"/><path class="cls-7" d="M73.93,18.84a6.28,6.28,0,0,0-1.38-1.09,6,6,0,0,0-1.66-.43c-.2,0,1.27.33,1.69.62a8.84,8.84,0,0,1,1,1Z"/><path class="cls-7" d="M70.36,19.64s0-.24-.73-.5-1.06-.42-.92-.43a4.69,4.69,0,0,1,.91.24,5.66,5.66,0,0,1,1.08.61Z"/><path class="cls-3" d="M60.72,19.94c3,2.19,6.91,9.14,2.29,14.85s-11.38,6.05-16.47,2.7a11.48,11.48,0,0,1-1.42-18.14C50.26,14.46,56.21,16.63,60.72,19.94Z"/><path class="cls-4" d="M48.23,19.12h0Z"/><path class="cls-4" d="M48.92,19.85c.35-.17.74-.53.41-.85s-.77,0-1.09.12C47.81,19.52,48,20.3,48.92,19.85Z"/><path class="cls-4" d="M48.24,19.12l.54-.21A.83.83,0,0,0,48.24,19.12Z"/><path class="cls-4" d="M47.29,20.65c.13-.1.31-.3.14-.44a.23.23,0,0,0-.34.07.48.48,0,0,0-.22.29C46.85,20.86,47.15,20.75,47.29,20.65Z"/><path class="cls-4" d="M49.57,20.47a.33.33,0,0,0-.32,0c-.16,0-.35.08-.39.21a.11.11,0,0,0,0,.08l0,0,0,0c0,.14.38,0,.5,0S49.84,20.61,49.57,20.47Z"/><path class="cls-4" d="M48.81,20.8h0Z"/><path class="cls-4" d="M50.31,19.68c-.15.05-.32.22-.23.36s.44.09.56,0C51.14,19.79,50.49,19.57,50.31,19.68Z"/><path class="cls-4" d="M50.93,18.76c-.1,0-.29-.06-.37,0a.15.15,0,0,0,0,.18c0,.1.18.2.25.23s.92.32,1,.06S51.12,18.79,50.93,18.76Z"/><path class="cls-4" d="M50.1,18.24c.16.09.72.06.78-.16s-.31-.28-.45-.26a.58.58,0,0,0-.25.14C50,18,49.92,18.15,50.1,18.24Z"/><path class="cls-4" d="M47.39,19.57c.29-.22,0-.34-.22-.3h0c-.13,0-.46.14-.37.32S47.28,19.65,47.39,19.57Z"/><path class="cls-4" d="M46.17,21c.11-.13.44-.67.06-.69a.26.26,0,0,0-.2.1,1.06,1.06,0,0,0-.38.53C45.5,21.39,46,21.17,46.17,21Z"/><path class="cls-4" d="M48.22,21.1a.8.8,0,0,0-.5,0,1,1,0,0,0-.67.52c-.13.52.78.14,1,.08S48.64,21.26,48.22,21.1Z"/><path class="cls-4" d="M49.74,21.51c-.14,0-.3.17-.3.29s.53.18.67.11C50.67,21.65,49.94,21.4,49.74,21.51Z"/><path class="cls-4" d="M53.33,18.63a.23.23,0,0,0-.25.1.69.69,0,0,0,1,0A.57.57,0,0,0,53.33,18.63Z"/><path class="cls-4" d="M51.85,20c.32.11,1.17.17,1.23-.28a.75.75,0,0,0-.68-.08C52.14,19.6,51.86,19.69,51.85,20Z"/><path class="cls-4" d="M52.47,17.67a.46.46,0,0,0-.63-.06.28.28,0,0,0-.15.18A.6.6,0,0,0,52.47,17.67Z"/><path class="cls-4" d="M54.78,19.5c-.63,0,.18.81.53.55S55,19.34,54.78,19.5Z"/><path class="cls-4" d="M45.85,22.09c-.2-.15-.36,0-.47.18-.42.27-.93.91-.53,1.06S45.83,22.44,45.85,22.09Z"/><path class="cls-4" d="M44.69,21.27c-.54.1-.28,1,.23.38C45.24,21.27,44.91,21.15,44.69,21.27Z"/><path class="cls-4" d="M47.76,22.92a.27.27,0,0,0-.19.25c.2.14.74.15.87-.11S47.94,22.61,47.76,22.92Z"/><path class="cls-4" d="M52.56,21.44l0,0a.35.35,0,0,0,0,.11s0,.09,0,.11c.11.3.73.31.61-.06S52.7,21.3,52.56,21.44Z"/><path class="cls-4" d="M58.12,20.65c-.37-.5-1.12,0-.65.16C57.75,21,58.47,21.15,58.12,20.65Z"/><path class="cls-4" d="M45.17,25.44l.07-.13a.93.93,0,0,0-.4.63c.22.06.85-.36.84-.64C45.65,24.87,45.35,25.17,45.17,25.44Z"/><path class="cls-4" d="M50.84,24a.14.14,0,0,0,.21,0c.27,0,.75,0,.54-.31S50.91,23.81,50.84,24Z"/><path class="cls-4" d="M43,23.75A.46.46,0,0,0,43,24c.32.11,1.14,0,.87-.51S43.1,23.37,43,23.75Z"/><path class="cls-4" d="M44.12,22.38h0a.26.26,0,0,0-.33.26.39.39,0,0,0,.55-.21A.34.34,0,0,0,44.12,22.38Z"/><path class="cls-5" d="M45.17,33.7c-1.17.86,4.81,5.2,8.69,5a11.44,11.44,0,0,0,9.4-6c1-2.15.67-8.23-.61-7.81-.46.15.1,2.22-1.78,5.35-1.66,2.74-4.48,5.45-8.22,5.27C47.54,35.3,46,33.13,45.17,33.7Z"/><path class="cls-6" d="M58,18.64a.55.55,0,0,0-.49.84c.32.8,2.27,2.1,2.83,1.88s.59-.87-.23-1.5A4.86,4.86,0,0,0,58,18.64Z"/><path class="cls-6" d="M59,19.71s2.26-2.34,2.9-3.22a40.43,40.43,0,0,0,2.15-4.22s.19-.3.47-.25.2.47.2.47-1.58,3.23-2.22,4.12c-1.3,1.8-3,3.77-3,3.77Z"/><path class="cls-6" d="M63,15.31c-.14,0-3.73-.47-3.73-.47l-.14.21,1.86.3,1.85.31Z"/><path class="cls-6" d="M55.18,19.51c-3.85,1-9.55-1.77-9.55-1.77s3.8-4.43,7.07-4.77,8.93,2.28,8.93,2.28A13.5,13.5,0,0,1,55.18,19.51Z"/><path class="cls-7" d="M58,18.88a.82.82,0,0,0-.09.79,4.16,4.16,0,0,0,1.4,1.12l.09-.71s-.3-.2-.33-.38a.41.41,0,0,1,0-.27Z"/><path class="cls-7" d="M60.37,15.34a30.51,30.51,0,0,0-6.46.06c-3,.43-7.52,1.87-7.46,2.07s4.94-1.64,7.36-1.8,6.73,0,6.73,0Z"/><path class="cls-7" d="M58.85,15.45a3.36,3.36,0,0,1-.63,1.18,8.47,8.47,0,0,0-1.08,1.68,9.93,9.93,0,0,0,1.25-1.57c.36-.52.82-1.26.82-1.26Z"/><path class="cls-7" d="M55.85,15.47a5.29,5.29,0,0,1-.66,1.92c-.66,1.36-.93,1.75-.76,1.78s.65-1,1-1.74.85-2,.85-2Z"/><path class="cls-7" d="M52.94,15.75a3.93,3.93,0,0,1-.23,1.42c-.3,1-.66,1.57-.53,1.64s.49-.86.69-1.59.5-1.62.5-1.62Z"/><path class="cls-7" d="M49.8,16.49a2.39,2.39,0,0,1-.16.84c-.18.52-.47,1-.39,1a1.79,1.79,0,0,0,.54-.92l.28-1Z"/><path class="cls-7" d="M59.21,15.37a4.32,4.32,0,0,0-1.14-1.09,3.59,3.59,0,0,0-1.45-.59c-.08.07.83.33,1.15.54A12.41,12.41,0,0,1,59,15.36Z"/><path class="cls-7" d="M56.12,15.28a2.81,2.81,0,0,0-.92-1.23,4.57,4.57,0,0,0-2.05-.8c-.2.07,1.5.49,1.88.87a4.1,4.1,0,0,1,.69,1.2Z"/><path class="cls-7" d="M53.37,15.6A6.42,6.42,0,0,0,52,14.51a6,6,0,0,0-1.66-.43c-.19,0,1.28.33,1.69.62a8.84,8.84,0,0,1,1,1Z"/><path class="cls-7" d="M49.8,16.4s0-.24-.74-.5-1.06-.42-.91-.43a5.09,5.09,0,0,1,.91.24,5.46,5.46,0,0,1,1.07.61Z"/><path class="cls-3" d="M70.44,30.13c3,2.2,6.91,9.14,2.29,14.86s-11.38,6-16.47,2.69a11.47,11.47,0,0,1-1.42-18.13C60,24.65,65.93,26.82,70.44,30.13Z"/><path class="cls-4" d="M58,29.32h0Z"/><path class="cls-4" d="M58.64,30c.35-.17.74-.53.41-.85s-.77,0-1.09.12C57.53,29.71,57.71,30.49,58.64,30Z"/><path class="cls-4" d="M58,29.31l.54-.21A.88.88,0,0,0,58,29.31Z"/><path class="cls-4" d="M57,30.84c.13-.09.31-.29.14-.44a.23.23,0,0,0-.34.08.41.41,0,0,0-.22.28C56.57,31.06,56.87,30.94,57,30.84Z"/><path class="cls-4" d="M59.29,30.66a.33.33,0,0,0-.32,0c-.16,0-.35.09-.39.21a.14.14,0,0,0,0,.09l0,0,0,0c0,.14.38,0,.5,0S59.56,30.81,59.29,30.66Z"/><path class="cls-4" d="M58.53,31h0Z"/><path class="cls-4" d="M60,29.88c-.15,0-.32.21-.23.36s.44.09.56,0C60.86,30,60.21,29.77,60,29.88Z"/><path class="cls-4" d="M60.65,29c-.1,0-.29-.06-.37,0a.15.15,0,0,0,0,.18c0,.1.18.2.25.23s.92.33,1,.07S60.84,29,60.65,29Z"/><path class="cls-4" d="M59.82,28.44c.16.08.72.06.78-.17s-.31-.27-.45-.25a.55.55,0,0,0-.25.13C59.75,28.23,59.64,28.34,59.82,28.44Z"/><path class="cls-4" d="M57.11,29.76c.29-.22,0-.34-.22-.29h0c-.13,0-.46.15-.37.33S57,29.84,57.11,29.76Z"/><path class="cls-4" d="M55.89,31.14c.11-.12.44-.67.06-.69a.3.3,0,0,0-.2.1,1,1,0,0,0-.38.54C55.22,31.59,55.7,31.36,55.89,31.14Z"/><path class="cls-4" d="M57.94,31.3a.68.68,0,0,0-.5,0,1,1,0,0,0-.67.51c-.13.52.78.15,1,.08S58.36,31.45,57.94,31.3Z"/><path class="cls-4" d="M59.46,31.7c-.14.05-.3.17-.3.29s.53.18.67.11C60.39,31.84,59.66,31.59,59.46,31.7Z"/><path class="cls-4" d="M63.05,28.82a.25.25,0,0,0-.25.1.68.68,0,0,0,1,0A.57.57,0,0,0,63.05,28.82Z"/><path class="cls-4" d="M61.57,30.16c.32.11,1.17.17,1.23-.27a.72.72,0,0,0-.68-.08C61.86,29.79,61.58,29.88,61.57,30.16Z"/><path class="cls-4" d="M62.19,27.86a.46.46,0,0,0-.63-.06.3.3,0,0,0-.15.18A.6.6,0,0,0,62.19,27.86Z"/><path class="cls-4" d="M64.5,29.69c-.63,0,.18.81.53.55S64.75,29.53,64.5,29.69Z"/><path class="cls-4" d="M55.57,32.28c-.2-.15-.36,0-.47.18-.42.27-.93.91-.53,1.06S55.55,32.63,55.57,32.28Z"/><path class="cls-4" d="M54.41,31.46c-.54.1-.28,1,.23.39C55,31.47,54.63,31.34,54.41,31.46Z"/><path class="cls-4" d="M57.48,33.11a.29.29,0,0,0-.19.25c.2.14.74.16.87-.11S57.66,32.8,57.48,33.11Z"/><path class="cls-4" d="M62.28,31.63l0,0a.45.45,0,0,0,0,.11c0,.05,0,.1,0,.11.11.3.73.31.61-.06S62.42,31.49,62.28,31.63Z"/><path class="cls-4" d="M67.84,30.85c-.37-.5-1.12,0-.65.16C67.47,31.21,68.19,31.34,67.84,30.85Z"/><path class="cls-4" d="M54.89,35.64,55,35.5a1,1,0,0,0-.4.64c.22,0,.85-.37.83-.65S55.07,35.37,54.89,35.64Z"/><path class="cls-4" d="M60.56,34.22a.16.16,0,0,0,.21.05c.27,0,.75,0,.54-.32S60.63,34,60.56,34.22Z"/><path class="cls-4" d="M52.73,33.94a.51.51,0,0,0,0,.22c.32.11,1.14,0,.87-.51S52.82,33.56,52.73,33.94Z"/><path class="cls-4" d="M53.84,32.58h0a.26.26,0,0,0-.33.26.39.39,0,0,0,.55-.21A.33.33,0,0,0,53.84,32.58Z"/><path class="cls-5" d="M54.89,43.9c-1.17.86,4.81,5.19,8.69,5a11.42,11.42,0,0,0,9.4-6c1-2.14.67-8.23-.61-7.8-.46.15.1,2.21-1.78,5.34-1.66,2.75-4.48,5.45-8.22,5.27C57.26,45.49,55.67,43.33,54.89,43.9Z"/><path class="cls-6" d="M67.72,28.84a.54.54,0,0,0-.49.83c.32.8,2.27,2.1,2.83,1.88s.59-.87-.23-1.49A4.66,4.66,0,0,0,67.72,28.84Z"/><path class="cls-6" d="M68.73,29.91s2.26-2.34,2.9-3.22a39.83,39.83,0,0,0,2.14-4.23.55.55,0,0,1,.48-.24c.28.05.2.47.2.47s-1.58,3.22-2.22,4.11c-1.3,1.81-3,3.77-3,3.77Z"/><path class="cls-6" d="M72.67,25.5c-.14,0-3.73-.47-3.73-.47l-.14.21,1.86.31,1.85.3Z"/><path class="cls-6" d="M64.9,29.7c-3.85,1-9.55-1.76-9.55-1.76s3.8-4.44,7.07-4.77,8.93,2.27,8.93,2.27A13.5,13.5,0,0,1,64.9,29.7Z"/><path class="cls-7" d="M67.75,29.07a.82.82,0,0,0-.09.79A4,4,0,0,0,69.06,31l.09-.7s-.3-.21-.33-.39a.41.41,0,0,1,0-.27Z"/><path class="cls-7" d="M70.09,25.53a30.51,30.51,0,0,0-6.46.06c-3,.44-7.52,1.87-7.46,2.07s4.94-1.64,7.36-1.8,6.73,0,6.73,0Z"/><path class="cls-7" d="M68.57,25.64a3.36,3.36,0,0,1-.63,1.18,8.47,8.47,0,0,0-1.08,1.68,10.21,10.21,0,0,0,1.25-1.56c.36-.53.82-1.27.82-1.27Z"/><path class="cls-7" d="M65.57,25.67a5.29,5.29,0,0,1-.66,1.91c-.66,1.36-.93,1.76-.76,1.79s.65-1,1-1.75.84-2,.84-2Z"/><path class="cls-7" d="M62.65,25.94a3.7,3.7,0,0,1-.22,1.42c-.3,1-.66,1.58-.53,1.64s.49-.86.69-1.59.5-1.62.5-1.62Z"/><path class="cls-7" d="M59.52,26.68a2.36,2.36,0,0,1-.16.84c-.18.52-.47,1-.39,1a1.75,1.75,0,0,0,.54-.91l.28-1Z"/><path class="cls-7" d="M68.92,25.56a4.07,4.07,0,0,0-1.13-1.08,3.51,3.51,0,0,0-1.45-.6c-.08.07.83.33,1.15.54a12.23,12.23,0,0,1,1.18,1.14Z"/><path class="cls-7" d="M65.84,25.47a2.75,2.75,0,0,0-.92-1.22,4.45,4.45,0,0,0-2.05-.8c-.2.06,1.5.49,1.88.86a4.23,4.23,0,0,1,.69,1.21Z"/><path class="cls-7" d="M63.09,25.79A6.75,6.75,0,0,0,61.7,24.7,5.58,5.58,0,0,0,60,24.28c-.19,0,1.28.32,1.69.61a9.8,9.8,0,0,1,1,1Z"/><path class="cls-7" d="M59.52,26.6s-.05-.25-.74-.5-1.06-.43-.91-.43a4.75,4.75,0,0,1,.91.23,6.06,6.06,0,0,1,1.07.61Z"/><path class="cls-3" d="M19.59,20c-3,2.19-6.91,9.14-2.29,14.85s11.37,6,16.47,2.69A11.47,11.47,0,0,0,35.19,19.4C30.05,14.5,24.1,16.67,19.59,20Z"/><path class="cls-4" d="M32.08,19.17h0Z"/><path class="cls-4" d="M31.39,19.89c-.35-.17-.75-.53-.42-.84s.78,0,1.1.12C32.5,19.57,32.32,20.35,31.39,19.89Z"/><path class="cls-4" d="M32.06,19.16l-.53-.2A.83.83,0,0,1,32.06,19.16Z"/><path class="cls-4" d="M33,20.69c-.13-.09-.31-.29-.14-.43a.23.23,0,0,1,.34.07.43.43,0,0,1,.21.29C33.46,20.91,33.16,20.79,33,20.69Z"/><path class="cls-4" d="M30.73,20.51a.32.32,0,0,1,.33,0c.16,0,.35.08.39.21a.11.11,0,0,1,0,.08l.05,0-.05,0c0,.15-.38,0-.51,0S30.47,20.66,30.73,20.51Z"/><path class="cls-4" d="M31.5,20.85h0Z"/><path class="cls-4" d="M30,19.73c.15,0,.32.21.23.36s-.44.09-.56,0C29.17,19.83,29.81,19.62,30,19.73Z"/><path class="cls-4" d="M29.37,18.81c.11,0,.29-.07.37,0a.14.14,0,0,1,0,.17c0,.11-.18.2-.25.24s-.92.32-1,.06S29.19,18.83,29.37,18.81Z"/><path class="cls-4" d="M30.2,18.29c-.15.08-.71.06-.77-.16s.31-.28.45-.26a.5.5,0,0,1,.24.14C30.27,18.08,30.38,18.19,30.2,18.29Z"/><path class="cls-4" d="M32.92,19.61c-.29-.21,0-.33.22-.29h0c.14,0,.47.15.38.33S33,19.7,32.92,19.61Z"/><path class="cls-4" d="M34.14,21c-.11-.12-.44-.67-.06-.69a.3.3,0,0,1,.2.1,1.08,1.08,0,0,1,.38.54C34.81,21.44,34.33,21.21,34.14,21Z"/><path class="cls-4" d="M32.09,21.15a.74.74,0,0,1,.5,0c.29.08.62.3.67.51.12.52-.79.15-1,.08S31.67,21.31,32.09,21.15Z"/><path class="cls-4" d="M30.56,21.56c.15.05.31.17.3.29s-.52.17-.67.11C29.63,21.69,30.37,21.44,30.56,21.56Z"/><path class="cls-4" d="M27,18.67a.26.26,0,0,1,.25.11.69.69,0,0,1-1.05,0A.61.61,0,0,1,27,18.67Z"/><path class="cls-4" d="M28.46,20c-.32.11-1.17.16-1.24-.28a.77.77,0,0,1,.69-.08C28.17,19.65,28.45,19.74,28.46,20Z"/><path class="cls-4" d="M27.84,17.72a.45.45,0,0,1,.62-.07.3.3,0,0,1,.15.18A.6.6,0,0,1,27.84,17.72Z"/><path class="cls-4" d="M25.53,19.54c.63,0-.18.81-.53.56S25.28,19.38,25.53,19.54Z"/><path class="cls-4" d="M34.46,22.14c.2-.16.36,0,.47.18.42.27.93.9.52,1.06S34.47,22.48,34.46,22.14Z"/><path class="cls-4" d="M35.62,21.31c.54.11.28,1-.23.39C35.07,21.32,35.39,21.2,35.62,21.31Z"/><path class="cls-4" d="M32.54,23a.28.28,0,0,1,.2.25c-.2.15-.74.16-.87-.11S32.36,22.65,32.54,23Z"/><path class="cls-4" d="M27.75,21.48l0,0a.52.52,0,0,1,0,.11c0,.05,0,.1,0,.12-.12.29-.73.3-.62-.07S27.6,21.34,27.75,21.48Z"/><path class="cls-4" d="M22.19,20.7c.37-.5,1.12,0,.65.16C22.56,21.06,21.83,21.19,22.19,20.7Z"/><path class="cls-4" d="M35.14,25.49l-.07-.13a.91.91,0,0,1,.4.63c-.22.06-.85-.37-.84-.65S35,25.22,35.14,25.49Z"/><path class="cls-4" d="M29.47,24.07a.17.17,0,0,1-.22.05c-.26,0-.74,0-.53-.32S29.39,23.85,29.47,24.07Z"/><path class="cls-4" d="M37.3,23.79a.41.41,0,0,1,0,.22c-.32.11-1.13,0-.86-.51S37.21,23.42,37.3,23.79Z"/><path class="cls-4" d="M36.19,22.43h0a.27.27,0,0,1,.33.27.39.39,0,0,1-.55-.22A.39.39,0,0,1,36.19,22.43Z"/><path class="cls-5" d="M35.13,33.75c1.18.86-4.8,5.19-8.68,5a11.44,11.44,0,0,1-9.41-6c-1-2.15-.66-8.24.62-7.81.46.15-.1,2.22,1.78,5.34,1.65,2.75,4.48,5.46,8.21,5.27C32.77,35.35,34.36,33.18,35.13,33.75Z"/><path class="cls-6" d="M22.31,18.69a.55.55,0,0,1,.49.84c-.32.79-2.27,2.09-2.83,1.88s-.59-.87.23-1.5A4.76,4.76,0,0,1,22.31,18.69Z"/><path class="cls-6" d="M21.3,19.76S19,17.42,18.39,16.54a41.89,41.89,0,0,1-2.14-4.23s-.2-.29-.47-.24-.2.47-.2.47,1.58,3.23,2.21,4.11c1.3,1.81,3,3.78,3,3.78Z"/><path class="cls-6" d="M17.36,15.35l3.73-.47.13.21-1.85.31-1.85.3Z"/><path class="cls-6" d="M25.13,19.56c3.85,1,9.55-1.77,9.55-1.77S30.87,13.35,27.61,13s-8.93,2.27-8.93,2.27A13.5,13.5,0,0,0,25.13,19.56Z"/><path class="cls-7" d="M22.28,18.93a.81.81,0,0,1,.09.79A4.09,4.09,0,0,1,21,20.83l-.1-.7s.3-.21.33-.38a.39.39,0,0,0,0-.27Z"/><path class="cls-7" d="M19.94,15.39a29.75,29.75,0,0,1,6.46.06c3,.43,7.52,1.86,7.46,2.06s-4.94-1.63-7.36-1.8-6.74,0-6.74,0Z"/><path class="cls-7" d="M21.46,15.5a3.34,3.34,0,0,0,.62,1.17,8.47,8.47,0,0,1,1.09,1.69,10.44,10.44,0,0,1-1.25-1.57c-.36-.53-.82-1.27-.82-1.27Z"/><path class="cls-7" d="M24.46,15.52a5,5,0,0,0,.66,1.91c.66,1.36.92,1.76.76,1.79s-.66-1-1-1.74-.85-2-.85-2Z"/><path class="cls-7" d="M27.37,15.79a3.69,3.69,0,0,0,.23,1.43c.3,1,.66,1.57.52,1.64s-.48-.87-.68-1.59-.5-1.63-.5-1.63Z"/><path class="cls-7" d="M30.51,16.54a2.13,2.13,0,0,0,.16.84c.18.51.47,1,.38,1a1.93,1.93,0,0,1-.53-.92l-.28-1Z"/><path class="cls-7" d="M21.1,15.42a4.38,4.38,0,0,1,1.13-1.09,3.53,3.53,0,0,1,1.46-.6c.08.07-.83.33-1.15.54a12.23,12.23,0,0,0-1.18,1.14Z"/><path class="cls-7" d="M24.18,15.33a2.91,2.91,0,0,1,.92-1.23,4.48,4.48,0,0,1,2.06-.8c.2.06-1.5.49-1.88.86a4.23,4.23,0,0,0-.69,1.21Z"/><path class="cls-7" d="M26.94,15.64a6.75,6.75,0,0,1,1.39-1.09A5.51,5.51,0,0,1,30,14.13c.19,0-1.28.33-1.69.62a9.48,9.48,0,0,0-1.05,1Z"/><path class="cls-7" d="M30.51,16.45s0-.24.73-.5,1.07-.43.92-.43a4.16,4.16,0,0,0-.91.24,5.61,5.61,0,0,0-1.07.6Z"/><path class="cls-3" d="M13.83,32.82C10.85,35,6.92,42,11.54,47.67s11.37,6,16.47,2.69a11.47,11.47,0,0,0,1.42-18.13C24.29,27.33,18.34,29.5,13.83,32.82Z"/><path class="cls-4" d="M26.32,32h0Z"/><path class="cls-4" d="M25.63,32.72c-.35-.17-.74-.53-.42-.84s.78,0,1.1.12C26.74,32.4,26.56,33.18,25.63,32.72Z"/><path class="cls-4" d="M26.3,32l-.53-.2A.83.83,0,0,1,26.3,32Z"/><path class="cls-4" d="M27.26,33.53c-.13-.1-.31-.3-.14-.44a.23.23,0,0,1,.34.07.43.43,0,0,1,.21.29C27.7,33.74,27.4,33.62,27.26,33.53Z"/><path class="cls-4" d="M25,33.34a.32.32,0,0,1,.33,0c.16,0,.35.08.39.21a.11.11,0,0,1,0,.08l0,0,0,0c0,.15-.38,0-.51,0S24.71,33.49,25,33.34Z"/><path class="cls-4" d="M25.74,33.68h0Z"/><path class="cls-4" d="M24.24,32.56c.15,0,.32.21.23.36s-.44.09-.56,0C23.41,32.66,24.05,32.45,24.24,32.56Z"/><path class="cls-4" d="M23.61,31.64c.11,0,.29-.07.37,0a.14.14,0,0,1,0,.17c0,.11-.18.2-.25.24s-.92.32-1,.06S23.43,31.66,23.61,31.64Z"/><path class="cls-4" d="M24.44,31.12c-.15.08-.71.06-.77-.16s.31-.28.45-.26a.5.5,0,0,1,.24.14C24.51,30.91,24.62,31,24.44,31.12Z"/><path class="cls-4" d="M27.16,32.44c-.29-.21,0-.33.22-.29h0c.14,0,.47.15.38.33S27.27,32.53,27.16,32.44Z"/><path class="cls-4" d="M28.38,33.82c-.11-.12-.44-.66-.06-.69a.27.27,0,0,1,.2.11,1,1,0,0,1,.38.53C29.05,34.27,28.57,34,28.38,33.82Z"/><path class="cls-4" d="M26.33,34a.74.74,0,0,1,.5,0c.29.08.62.3.67.51.12.52-.79.15-1,.08S25.91,34.14,26.33,34Z"/><path class="cls-4" d="M24.81,34.39c.14,0,.3.17.29.29s-.52.17-.66.11C23.88,34.52,24.61,34.27,24.81,34.39Z"/><path class="cls-4" d="M21.22,31.5a.26.26,0,0,1,.25.11.69.69,0,0,1-1,0A.61.61,0,0,1,21.22,31.5Z"/><path class="cls-4" d="M22.7,32.85c-.32.11-1.17.16-1.23-.28a.75.75,0,0,1,.68-.08C22.41,32.48,22.69,32.57,22.7,32.85Z"/><path class="cls-4" d="M22.08,30.55a.46.46,0,0,1,.63-.07.32.32,0,0,1,.14.18A.6.6,0,0,1,22.08,30.55Z"/><path class="cls-4" d="M19.77,32.38c.63,0-.18.8-.53.55S19.52,32.21,19.77,32.38Z"/><path class="cls-4" d="M28.7,35c.2-.16.36,0,.47.18.42.27.93.9.53,1.06S28.71,35.31,28.7,35Z"/><path class="cls-4" d="M29.86,34.14c.54.11.28,1-.23.39C29.31,34.15,29.63,34,29.86,34.14Z"/><path class="cls-4" d="M26.78,35.79A.29.29,0,0,1,27,36c-.2.15-.74.16-.87-.11S26.6,35.48,26.78,35.79Z"/><path class="cls-4" d="M22,34.31l0,0a.52.52,0,0,1,0,.11s0,.1,0,.12c-.11.29-.73.3-.62-.07S21.84,34.17,22,34.31Z"/><path class="cls-4" d="M16.43,33.53c.37-.5,1.12,0,.65.16C16.8,33.89,16.08,34,16.43,33.53Z"/><path class="cls-4" d="M29.38,38.32l-.07-.13a.93.93,0,0,1,.4.63c-.22.06-.85-.37-.84-.65S29.2,38.05,29.38,38.32Z"/><path class="cls-4" d="M23.71,36.9a.17.17,0,0,1-.22.05c-.26,0-.74,0-.53-.32S23.63,36.68,23.71,36.9Z"/><path class="cls-4" d="M31.54,36.62a.41.41,0,0,1,0,.22c-.32.11-1.13,0-.86-.51S31.45,36.25,31.54,36.62Z"/><path class="cls-4" d="M30.43,35.26h0a.27.27,0,0,1,.33.27.39.39,0,0,1-.55-.22A.39.39,0,0,1,30.43,35.26Z"/><path class="cls-5" d="M29.37,46.58c1.18.86-4.8,5.19-8.68,5a11.44,11.44,0,0,1-9.41-6c-1-2.15-.66-8.24.62-7.81.46.15-.1,2.22,1.78,5.34,1.65,2.75,4.48,5.46,8.21,5.27C27,48.18,28.6,46,29.37,46.58Z"/><path class="cls-6" d="M16.55,31.52a.55.55,0,0,1,.49.84c-.32.8-2.27,2.09-2.83,1.88s-.59-.87.23-1.5A4.76,4.76,0,0,1,16.55,31.52Z"/><path class="cls-6" d="M15.54,32.59s-2.26-2.34-2.91-3.22a41.89,41.89,0,0,1-2.14-4.23s-.2-.29-.47-.24-.2.47-.2.47S11.4,28.6,12,29.48c1.3,1.81,3,3.78,3,3.78Z"/><path class="cls-6" d="M11.6,28.18l3.73-.47.13.21-1.85.31-1.85.3Z"/><path class="cls-6" d="M19.37,32.39c3.85,1,9.55-1.77,9.55-1.77s-3.81-4.43-7.07-4.77-8.93,2.27-8.93,2.27A13.5,13.5,0,0,0,19.37,32.39Z"/><path class="cls-7" d="M16.52,31.76a.81.81,0,0,1,.09.79,4.09,4.09,0,0,1-1.4,1.11l-.1-.7s.3-.21.34-.38a.39.39,0,0,0,0-.27Z"/><path class="cls-7" d="M14.18,28.22a29.77,29.77,0,0,1,6.46.06c3,.43,7.52,1.86,7.46,2.07s-4.94-1.64-7.36-1.8-6.74,0-6.74,0Z"/><path class="cls-7" d="M15.7,28.33a3.28,3.28,0,0,0,.63,1.17,8.7,8.7,0,0,1,1.08,1.69,10.44,10.44,0,0,1-1.25-1.57c-.36-.53-.82-1.27-.82-1.27Z"/><path class="cls-7" d="M18.7,28.35a5,5,0,0,0,.66,1.91c.66,1.36.92,1.76.76,1.79s-.66-1-1-1.74-.85-2-.85-2Z"/><path class="cls-7" d="M21.61,28.62a3.69,3.69,0,0,0,.23,1.43c.3,1,.66,1.57.53,1.64s-.49-.87-.69-1.59-.5-1.63-.5-1.63Z"/><path class="cls-7" d="M24.75,29.37a2.13,2.13,0,0,0,.16.84c.18.51.47,1,.38,1a1.93,1.93,0,0,1-.53-.92l-.28-1Z"/><path class="cls-7" d="M15.34,28.25a4.38,4.38,0,0,1,1.13-1.09,3.32,3.32,0,0,1,1.46-.59c.08.07-.83.32-1.15.53a12.23,12.23,0,0,0-1.18,1.14Z"/><path class="cls-7" d="M18.42,28.16a2.88,2.88,0,0,1,.93-1.23,4.57,4.57,0,0,1,2-.8c.2.06-1.5.49-1.88.87a4.1,4.1,0,0,0-.69,1.2Z"/><path class="cls-7" d="M21.18,28.47a6.75,6.75,0,0,1,1.39-1.09A5.58,5.58,0,0,1,24.23,27c.19,0-1.28.33-1.69.62a9.06,9.06,0,0,0-1,1Z"/><path class="cls-7" d="M24.75,29.28s.05-.24.73-.5,1.07-.43.92-.43a4.16,4.16,0,0,0-.91.24,5.46,5.46,0,0,0-1.07.61Z"/><path class="cls-3" d="M86.55,35.58c3,2.19,6.91,9.13,2.29,14.85s-11.37,6-16.46,2.69A11.48,11.48,0,0,1,71,35C76.09,30.09,82.05,32.26,86.55,35.58Z"/><path class="cls-4" d="M74.06,34.76h0Z"/><path class="cls-4" d="M74.76,35.48c.34-.17.74-.53.41-.85s-.78,0-1.1.13C73.64,35.15,73.82,35.94,74.76,35.48Z"/><path class="cls-4" d="M74.08,34.75l.53-.2A.83.83,0,0,0,74.08,34.75Z"/><path class="cls-4" d="M73.12,36.28c.13-.09.31-.29.14-.43a.23.23,0,0,0-.34.07.43.43,0,0,0-.21.29C72.68,36.5,73,36.38,73.12,36.28Z"/><path class="cls-4" d="M75.41,36.1a.33.33,0,0,0-.33,0c-.16,0-.35.08-.39.21s0,.06,0,.08l0,0,0,0c0,.15.38,0,.51,0S75.68,36.25,75.41,36.1Z"/><path class="cls-4" d="M74.64,36.44h0Z"/><path class="cls-4" d="M76.14,35.32c-.15,0-.32.21-.23.36s.44.09.56,0C77,35.42,76.33,35.21,76.14,35.32Z"/><path class="cls-4" d="M76.77,34.4c-.1,0-.29-.07-.37,0a.14.14,0,0,0,0,.17c0,.11.18.2.25.24s.92.32,1,.06S77,34.42,76.77,34.4Z"/><path class="cls-4" d="M75.94,33.88c.15.08.71.06.77-.17s-.31-.27-.45-.25a.55.55,0,0,0-.24.14C75.87,33.67,75.76,33.78,75.94,33.88Z"/><path class="cls-4" d="M73.22,35.2c.29-.21,0-.34-.22-.29h0c-.14,0-.46.15-.38.33S73.11,35.28,73.22,35.2Z"/><path class="cls-4" d="M72,36.58c.11-.12.44-.67.06-.69a.3.3,0,0,0-.2.1,1.15,1.15,0,0,0-.38.54C71.33,37,71.81,36.8,72,36.58Z"/><path class="cls-4" d="M74.05,36.74a.74.74,0,0,0-.5,0c-.28.08-.62.3-.67.51-.12.52.79.15,1,.08S74.48,36.9,74.05,36.74Z"/><path class="cls-4" d="M75.58,37.15c-.15.05-.3.17-.3.28s.52.18.67.11C76.51,37.28,75.78,37,75.58,37.15Z"/><path class="cls-4" d="M79.16,34.26a.27.27,0,0,0-.25.11.69.69,0,0,0,1,0A.6.6,0,0,0,79.16,34.26Z"/><path class="cls-4" d="M77.69,35.61c.31.1,1.16.16,1.23-.28a.76.76,0,0,0-.68-.08C78,35.24,77.69,35.33,77.69,35.61Z"/><path class="cls-4" d="M78.3,33.31a.45.45,0,0,0-.62-.07.34.34,0,0,0-.15.18A.59.59,0,0,0,78.3,33.31Z"/><path class="cls-4" d="M80.61,35.13c-.63,0,.18.81.53.56S80.86,35,80.61,35.13Z"/><path class="cls-4" d="M71.68,37.73c-.2-.16-.36,0-.47.18-.42.26-.92.9-.52,1.06S71.67,38.07,71.68,37.73Z"/><path class="cls-4" d="M70.53,36.9c-.54.11-.29,1,.23.39C71.07,36.91,70.75,36.79,70.53,36.9Z"/><path class="cls-4" d="M73.6,38.55a.28.28,0,0,0-.2.25c.2.15.74.16.87-.11S73.78,38.24,73.6,38.55Z"/><path class="cls-4" d="M78.39,37.07l0,0a.52.52,0,0,0,0,.11s0,.1,0,.12c.12.29.74.3.62-.07S78.54,36.93,78.39,37.07Z"/><path class="cls-4" d="M84,36.29c-.37-.5-1.12,0-.65.16C83.58,36.65,84.31,36.78,84,36.29Z"/><path class="cls-4" d="M71,41.08l.08-.13a.85.85,0,0,0-.4.63c.21.06.85-.37.83-.65S71.19,40.81,71,41.08Z"/><path class="cls-4" d="M76.68,39.66a.16.16,0,0,0,.21.05c.26,0,.74,0,.54-.32S76.75,39.44,76.68,39.66Z"/><path class="cls-4" d="M68.84,39.38a.4.4,0,0,0,0,.22c.32.11,1.13,0,.86-.51S68.93,39,68.84,39.38Z"/><path class="cls-4" d="M70,38h0a.27.27,0,0,0-.33.27.41.41,0,0,0,.56-.22A.43.43,0,0,0,70,38Z"/><path class="cls-5" d="M71,49.34c-1.18.86,4.8,5.19,8.69,5a11.43,11.43,0,0,0,9.4-6c1-2.14.67-8.23-.62-7.8-.46.15.1,2.22-1.78,5.34-1.65,2.75-4.47,5.46-8.21,5.27C73.37,50.94,71.78,48.77,71,49.34Z"/><path class="cls-6" d="M83.83,34.28a.55.55,0,0,0-.49.84c.32.79,2.27,2.09,2.83,1.88s.59-.87-.23-1.5A4.76,4.76,0,0,0,83.83,34.28Z"/><path class="cls-6" d="M84.84,35.35S87.1,33,87.75,32.13a41.89,41.89,0,0,0,2.14-4.23s.2-.29.47-.24.2.47.2.47S89,31.35,88.35,32.24c-1.3,1.81-3,3.78-3,3.78Z"/><path class="cls-6" d="M88.79,30.94l-3.74-.47-.13.21,1.85.31,1.85.3Z"/><path class="cls-6" d="M81,35.15c-3.85,1-9.55-1.77-9.55-1.77s3.81-4.44,7.07-4.77,8.93,2.27,8.93,2.27A13.5,13.5,0,0,1,81,35.15Z"/><path class="cls-7" d="M83.86,34.52a.81.81,0,0,0-.09.79,4.1,4.1,0,0,0,1.41,1.11l.09-.7s-.3-.21-.33-.38a.39.39,0,0,1,0-.27Z"/><path class="cls-7" d="M86.2,31a29.75,29.75,0,0,0-6.46.06c-3,.43-7.52,1.86-7.46,2.06s4.94-1.63,7.36-1.8,6.74,0,6.74,0Z"/><path class="cls-7" d="M84.68,31.09a3.34,3.34,0,0,1-.62,1.17A8.89,8.89,0,0,0,83,33.94a10.21,10.21,0,0,0,1.26-1.56c.35-.53.81-1.27.81-1.27Z"/><path class="cls-7" d="M81.69,31.11A5.29,5.29,0,0,1,81,33c-.67,1.36-.93,1.76-.77,1.79s.66-1,1-1.74.85-2,.85-2Z"/><path class="cls-7" d="M78.77,31.38a3.63,3.63,0,0,1-.23,1.42c-.3,1-.66,1.58-.52,1.65s.48-.87.68-1.59.5-1.63.5-1.63Z"/><path class="cls-7" d="M75.63,32.12a2.11,2.11,0,0,1-.16.84c-.18.52-.47,1-.38,1a1.83,1.83,0,0,0,.53-.91l.28-1Z"/><path class="cls-7" d="M85,31a4.43,4.43,0,0,0-1.13-1.08,3.53,3.53,0,0,0-1.46-.6c-.08.07.83.33,1.15.54A12.23,12.23,0,0,1,84.78,31Z"/><path class="cls-7" d="M82,30.92A2.91,2.91,0,0,0,81,29.69a4.48,4.48,0,0,0-2.06-.8c-.19.06,1.5.49,1.88.86A4.23,4.23,0,0,1,81.55,31Z"/><path class="cls-7" d="M79.2,31.23a6.6,6.6,0,0,0-1.38-1.09,5.66,5.66,0,0,0-1.66-.42c-.2,0,1.27.33,1.68.62a9.48,9.48,0,0,1,1,1Z"/><path class="cls-7" d="M75.63,32s0-.25-.73-.5-1.07-.43-.92-.43a4.16,4.16,0,0,1,.91.24A5.61,5.61,0,0,1,76,32Z"/><path class="cls-3" d="M91.3,45.71c3,2.19,6.91,9.14,2.29,14.85s-11.38,6-16.47,2.7A11.48,11.48,0,0,1,75.7,45.12C80.84,40.23,86.79,42.4,91.3,45.71Z"/><path class="cls-4" d="M78.81,44.89h0Z"/><path class="cls-4" d="M79.5,45.61c.35-.17.74-.52.41-.84s-.77,0-1.09.12C78.39,45.29,78.57,46.07,79.5,45.61Z"/><path class="cls-4" d="M78.82,44.89l.54-.21A.83.83,0,0,0,78.82,44.89Z"/><path class="cls-4" d="M77.87,46.42c.13-.1.31-.3.14-.44a.23.23,0,0,0-.34.07.44.44,0,0,0-.22.29C77.43,46.63,77.73,46.52,77.87,46.42Z"/><path class="cls-4" d="M80.15,46.24a.31.31,0,0,0-.32,0c-.16,0-.35.08-.39.21a.11.11,0,0,0,0,.08l0,0,0,0c0,.15.38,0,.5,0S80.42,46.38,80.15,46.24Z"/><path class="cls-4" d="M79.39,46.57h0Z"/><path class="cls-4" d="M80.89,45.45c-.15,0-.32.22-.23.36s.44.09.56,0C81.72,45.55,81.07,45.34,80.89,45.45Z"/><path class="cls-4" d="M81.51,44.53c-.1,0-.29-.06-.37,0a.15.15,0,0,0,0,.18c0,.1.18.19.25.23s.92.32,1,.06S81.7,44.56,81.51,44.53Z"/><path class="cls-4" d="M80.68,44c.16.08.72.06.78-.16s-.31-.28-.45-.26a.58.58,0,0,0-.25.14C80.61,43.8,80.5,43.91,80.68,44Z"/><path class="cls-4" d="M78,45.34c.29-.22,0-.34-.22-.3h0c-.13,0-.46.14-.37.32S77.86,45.42,78,45.34Z"/><path class="cls-4" d="M76.75,46.72c.11-.13.44-.67.06-.69a.23.23,0,0,0-.2.1,1.06,1.06,0,0,0-.38.53C76.08,47.16,76.56,46.93,76.75,46.72Z"/><path class="cls-4" d="M78.8,46.87a.74.74,0,0,0-.5,0,1,1,0,0,0-.67.52c-.13.52.78.14,1,.08S79.22,47,78.8,46.87Z"/><path class="cls-4" d="M80.32,47.28c-.14,0-.3.17-.3.29s.53.18.67.11C81.25,47.42,80.52,47.17,80.32,47.28Z"/><path class="cls-4" d="M83.91,44.4a.23.23,0,0,0-.25.1.69.69,0,0,0,1,0A.57.57,0,0,0,83.91,44.4Z"/><path class="cls-4" d="M82.43,45.74c.32.11,1.17.16,1.23-.28a.75.75,0,0,0-.68-.08C82.72,45.37,82.44,45.46,82.43,45.74Z"/><path class="cls-4" d="M83.05,43.44a.45.45,0,0,0-.63-.06.28.28,0,0,0-.15.18A.61.61,0,0,0,83.05,43.44Z"/><path class="cls-4" d="M85.36,45.27c-.63,0,.18.81.53.55S85.61,45.1,85.36,45.27Z"/><path class="cls-4" d="M76.43,47.86c-.2-.15-.36,0-.47.18-.42.27-.93.9-.53,1.06S76.41,48.21,76.43,47.86Z"/><path class="cls-4" d="M75.27,47c-.54.1-.28,1,.23.38C75.82,47,75.49,46.92,75.27,47Z"/><path class="cls-4" d="M78.34,48.69a.27.27,0,0,0-.19.24c.2.15.74.16.87-.11S78.52,48.38,78.34,48.69Z"/><path class="cls-4" d="M83.14,47.21l0-.05a.61.61,0,0,0,0,.11c0,.06,0,.1,0,.12.11.29.73.3.61-.07S83.28,47.07,83.14,47.21Z"/><path class="cls-4" d="M88.7,46.42c-.37-.5-1.12,0-.65.16C88.33,46.78,89.05,46.92,88.7,46.42Z"/><path class="cls-4" d="M75.75,51.21l.07-.13a.93.93,0,0,0-.4.63c.22.06.85-.36.83-.65S75.93,50.94,75.75,51.21Z"/><path class="cls-4" d="M81.42,49.79c.08.1.14.09.21.05.27,0,.75,0,.54-.31S81.49,49.57,81.42,49.79Z"/><path class="cls-4" d="M73.59,49.51a.54.54,0,0,0,0,.22c.32.11,1.14,0,.87-.51S73.68,49.14,73.59,49.51Z"/><path class="cls-4" d="M74.7,48.15h0a.26.26,0,0,0-.33.26.39.39,0,0,0,.55-.21A.34.34,0,0,0,74.7,48.15Z"/><path class="cls-5" d="M75.75,59.47c-1.17.86,4.81,5.2,8.69,5a11.41,11.41,0,0,0,9.4-6c1-2.15.67-8.23-.61-7.81-.46.15.1,2.22-1.78,5.35-1.66,2.74-4.48,5.45-8.22,5.26C78.12,61.07,76.53,58.9,75.75,59.47Z"/><path class="cls-6" d="M88.58,44.41a.55.55,0,0,0-.49.84c.32.8,2.27,2.1,2.83,1.88s.59-.87-.23-1.5A4.86,4.86,0,0,0,88.58,44.41Z"/><path class="cls-6" d="M89.59,45.48s2.26-2.34,2.9-3.22A39.9,39.9,0,0,0,94.63,38s.2-.3.48-.25.2.47.2.47-1.58,3.23-2.22,4.12c-1.3,1.8-3,3.77-3,3.77Z"/><path class="cls-6" d="M93.53,41.07,89.8,40.6l-.14.22,1.86.3,1.85.31Z"/><path class="cls-6" d="M85.76,45.28c-3.85,1-9.55-1.77-9.55-1.77s3.8-4.43,7.07-4.77S92.21,41,92.21,41A13.49,13.49,0,0,1,85.76,45.28Z"/><path class="cls-7" d="M88.61,44.65a.82.82,0,0,0-.09.79,4.16,4.16,0,0,0,1.4,1.12l.09-.71s-.3-.2-.33-.38a.39.39,0,0,1,0-.27Z"/><path class="cls-7" d="M91,41.11a30.51,30.51,0,0,0-6.46.06C81.49,41.6,77,43,77,43.24s4.94-1.64,7.36-1.8,6.73,0,6.73,0Z"/><path class="cls-7" d="M89.43,41.22a3.28,3.28,0,0,1-.63,1.17,8.7,8.7,0,0,0-1.08,1.69A9.93,9.93,0,0,0,89,42.51c.36-.52.82-1.27.82-1.27Z"/><path class="cls-7" d="M86.43,41.24a5.29,5.29,0,0,1-.66,1.92c-.66,1.36-.93,1.75-.76,1.78s.65-1,1-1.74.84-2,.84-2Z"/><path class="cls-7" d="M83.51,41.52a3.72,3.72,0,0,1-.22,1.42c-.3,1-.66,1.57-.53,1.64s.49-.86.69-1.59.5-1.62.5-1.62Z"/><path class="cls-7" d="M80.38,42.26a2.39,2.39,0,0,1-.16.84c-.18.51-.47,1-.39,1a1.84,1.84,0,0,0,.54-.92l.28-1Z"/><path class="cls-7" d="M89.78,41.14a4.19,4.19,0,0,0-1.13-1.09,3.44,3.44,0,0,0-1.45-.59c-.08.07.83.32,1.15.53a12.23,12.23,0,0,1,1.18,1.14Z"/><path class="cls-7" d="M86.7,41.05a2.81,2.81,0,0,0-.92-1.23,4.57,4.57,0,0,0-2-.8c-.2.07,1.5.49,1.88.87a4.1,4.1,0,0,1,.69,1.2Z"/><path class="cls-7" d="M84,41.37a6.69,6.69,0,0,0-1.39-1.1,6.29,6.29,0,0,0-1.66-.42c-.19,0,1.28.33,1.69.62a9.06,9.06,0,0,1,1,1Z"/><path class="cls-7" d="M80.38,42.17s0-.24-.74-.5-1.06-.43-.91-.43a5.09,5.09,0,0,1,.91.24,5.46,5.46,0,0,1,1.07.61Z"/><path class="cls-3" d="M71.55,46.27c3,2.19,6.91,9.13,2.29,14.85s-11.37,6.05-16.47,2.69A11.47,11.47,0,0,1,56,45.68C61.09,40.78,67,43,71.55,46.27Z"/><path class="cls-4" d="M59.06,45.45h0Z"/><path class="cls-4" d="M59.75,46.17c.35-.17.75-.53.42-.85s-.78,0-1.1.13C58.64,45.84,58.82,46.62,59.75,46.17Z"/><path class="cls-4" d="M59.08,45.44l.53-.2A.83.83,0,0,0,59.08,45.44Z"/><path class="cls-4" d="M58.12,47c.13-.09.31-.29.14-.43a.23.23,0,0,0-.34.07.43.43,0,0,0-.21.29C57.68,47.19,58,47.07,58.12,47Z"/><path class="cls-4" d="M60.41,46.79a.32.32,0,0,0-.33,0c-.16,0-.35.08-.39.21a.11.11,0,0,0,0,.08l0,0,0,0c0,.14.38,0,.51,0S60.67,46.94,60.41,46.79Z"/><path class="cls-4" d="M59.64,47.13h0Z"/><path class="cls-4" d="M61.14,46c-.15,0-.32.21-.23.36s.44.09.56,0C62,46.11,61.33,45.9,61.14,46Z"/><path class="cls-4" d="M61.77,45.09c-.11,0-.29-.07-.37,0a.15.15,0,0,0,0,.18c0,.11.18.2.25.24s.92.32,1,.06S62,45.11,61.77,45.09Z"/><path class="cls-4" d="M60.94,44.57c.15.08.71.06.77-.17s-.31-.27-.45-.25a.43.43,0,0,0-.24.14C60.87,44.36,60.76,44.47,60.94,44.57Z"/><path class="cls-4" d="M58.22,45.89c.29-.21,0-.34-.22-.29h0c-.14,0-.47.15-.38.33S58.11,46,58.22,45.89Z"/><path class="cls-4" d="M57,47.27c.11-.12.44-.67.06-.69a.3.3,0,0,0-.2.1,1.08,1.08,0,0,0-.38.54C56.33,47.72,56.81,47.49,57,47.27Z"/><path class="cls-4" d="M59.05,47.43a.74.74,0,0,0-.5,0c-.29.08-.62.3-.67.51-.12.52.79.15,1,.08S59.47,47.59,59.05,47.43Z"/><path class="cls-4" d="M60.58,47.84c-.15,0-.31.16-.3.28s.52.18.67.11C61.51,48,60.77,47.72,60.58,47.84Z"/><path class="cls-4" d="M64.16,45a.27.27,0,0,0-.25.1.69.69,0,0,0,1,0A.6.6,0,0,0,64.16,45Z"/><path class="cls-4" d="M62.68,46.29c.32.11,1.17.17,1.24-.27a.77.77,0,0,0-.69-.08C63,45.93,62.69,46,62.68,46.29Z"/><path class="cls-4" d="M63.3,44a.44.44,0,0,0-.62-.07.3.3,0,0,0-.15.18A.6.6,0,0,0,63.3,44Z"/><path class="cls-4" d="M65.61,45.82c-.63,0,.18.81.53.56S65.86,45.66,65.61,45.82Z"/><path class="cls-4" d="M56.68,48.42c-.2-.16-.36,0-.47.18-.42.26-.93.9-.52,1.06S56.67,48.76,56.68,48.42Z"/><path class="cls-4" d="M55.52,47.59c-.54.11-.28,1,.23.39C56.07,47.6,55.75,47.48,55.52,47.59Z"/><path class="cls-4" d="M58.6,49.24a.28.28,0,0,0-.2.25c.2.15.74.16.87-.11S58.78,48.93,58.6,49.24Z"/><path class="cls-4" d="M63.39,47.76l0,0a.52.52,0,0,0,0,.11c0,.05,0,.1,0,.12.12.29.73.3.62-.07S63.54,47.62,63.39,47.76Z"/><path class="cls-4" d="M69,47c-.37-.5-1.12,0-.65.16C68.58,47.34,69.31,47.47,69,47Z"/><path class="cls-4" d="M56,51.77l.07-.13a.91.91,0,0,0-.4.63c.22.06.85-.37.84-.65S56.19,51.5,56,51.77Z"/><path class="cls-4" d="M61.67,50.35a.17.17,0,0,0,.22,0c.26,0,.74,0,.53-.32S61.75,50.13,61.67,50.35Z"/><path class="cls-4" d="M53.84,50.07a.4.4,0,0,0,0,.22c.32.11,1.13,0,.86-.51S53.93,49.69,53.84,50.07Z"/><path class="cls-4" d="M55,48.71h0a.27.27,0,0,0-.33.27.4.4,0,0,0,.55-.22A.39.39,0,0,0,55,48.71Z"/><path class="cls-5" d="M56,60c-1.18.86,4.8,5.19,8.68,5a11.43,11.43,0,0,0,9.41-6c1-2.14.66-8.23-.62-7.8-.46.15.1,2.21-1.78,5.34-1.65,2.75-4.48,5.46-8.21,5.27C58.37,61.63,56.78,59.46,56,60Z"/><path class="cls-6" d="M68.83,45a.55.55,0,0,0-.49.83c.32.8,2.27,2.1,2.83,1.89s.59-.88-.23-1.5A4.76,4.76,0,0,0,68.83,45Z"/><path class="cls-6" d="M69.84,46s2.26-2.34,2.91-3.22a41.89,41.89,0,0,0,2.14-4.23s.2-.29.47-.24.2.47.2.47S74,42,73.35,42.93c-1.3,1.81-3,3.78-3,3.78Z"/><path class="cls-6" d="M73.78,41.63c-.13,0-3.73-.47-3.73-.47l-.13.21,1.85.31,1.85.3Z"/><path class="cls-6" d="M66,45.84c-3.85,1-9.55-1.77-9.55-1.77s3.81-4.44,7.07-4.77,8.93,2.27,8.93,2.27A13.5,13.5,0,0,1,66,45.84Z"/><path class="cls-7" d="M68.86,45.21a.81.81,0,0,0-.09.79,4.09,4.09,0,0,0,1.4,1.11l.1-.7s-.3-.21-.33-.38a.39.39,0,0,1,0-.27Z"/><path class="cls-7" d="M71.2,41.66a30.09,30.09,0,0,0-6.46.07c-3,.43-7.52,1.86-7.46,2.06s4.94-1.64,7.36-1.8,6.74,0,6.74,0Z"/><path class="cls-7" d="M69.68,41.78A3.34,3.34,0,0,1,69.06,43,8.89,8.89,0,0,0,68,44.63a9.72,9.72,0,0,0,1.25-1.56c.36-.53.82-1.27.82-1.27Z"/><path class="cls-7" d="M66.68,41.8A5,5,0,0,1,66,43.71c-.66,1.36-.92,1.76-.76,1.79s.66-1,1-1.75.85-2,.85-2Z"/><path class="cls-7" d="M63.77,42.07a3.63,3.63,0,0,1-.23,1.42c-.3,1-.66,1.58-.52,1.65s.48-.87.68-1.59.5-1.63.5-1.63Z"/><path class="cls-7" d="M60.63,42.81a2.11,2.11,0,0,1-.16.84c-.18.52-.47,1-.38,1a1.83,1.83,0,0,0,.53-.91l.28-1Z"/><path class="cls-7" d="M70,41.69a4.43,4.43,0,0,0-1.13-1.08,3.53,3.53,0,0,0-1.46-.6c-.08.07.83.33,1.15.54a12.23,12.23,0,0,1,1.18,1.14Z"/><path class="cls-7" d="M67,41.61A2.91,2.91,0,0,0,66,40.38a4.48,4.48,0,0,0-2.06-.8c-.2.06,1.5.49,1.88.86a4.23,4.23,0,0,1,.69,1.21Z"/><path class="cls-7" d="M64.2,41.92a6.75,6.75,0,0,0-1.39-1.09,5.51,5.51,0,0,0-1.66-.42c-.19,0,1.28.33,1.69.62a9.48,9.48,0,0,1,1,1Z"/><path class="cls-7" d="M60.63,42.73s-.05-.25-.73-.5-1.07-.43-.92-.43a4.16,4.16,0,0,1,.91.24,5.61,5.61,0,0,1,1.07.6Z"/><path class="cls-3" d="M52.64,28.46c3,2.2,6.91,9.14,2.29,14.86s-11.38,6-16.47,2.69A11.47,11.47,0,0,1,37,27.88C42.18,23,48.13,25.15,52.64,28.46Z"/><path class="cls-4" d="M40.15,27.65h0Z"/><path class="cls-4" d="M40.84,28.37c.35-.17.74-.53.41-.85s-.77.05-1.09.13C39.73,28,39.91,28.82,40.84,28.37Z"/><path class="cls-4" d="M40.16,27.64l.54-.2A.88.88,0,0,0,40.16,27.64Z"/><path class="cls-4" d="M39.21,29.17c.13-.09.31-.29.13-.43a.22.22,0,0,0-.33.07.44.44,0,0,0-.22.29C38.76,29.39,39.07,29.27,39.21,29.17Z"/><path class="cls-4" d="M41.49,29a.35.35,0,0,0-.33,0c-.15,0-.35.09-.38.21a.14.14,0,0,0,0,.09l-.05,0,.05,0c0,.14.38,0,.5,0S41.76,29.14,41.49,29Z"/><path class="cls-4" d="M40.73,29.33h0Z"/><path class="cls-4" d="M42.23,28.21c-.15,0-.32.21-.24.36s.44.09.57,0C43.06,28.31,42.41,28.1,42.23,28.21Z"/><path class="cls-4" d="M42.85,27.29c-.1,0-.29-.07-.37,0a.15.15,0,0,0,0,.18c0,.11.18.2.25.24s.92.32,1,.06S43,27.31,42.85,27.29Z"/><path class="cls-4" d="M42,26.77c.16.08.72.06.78-.17s-.31-.27-.45-.25a.49.49,0,0,0-.25.14C42,26.56,41.84,26.67,42,26.77Z"/><path class="cls-4" d="M39.31,28.09c.29-.21,0-.34-.22-.29h0c-.13,0-.46.15-.37.33S39.2,28.17,39.31,28.09Z"/><path class="cls-4" d="M38.09,29.47c.11-.12.44-.67.06-.69a.3.3,0,0,0-.2.1,1.08,1.08,0,0,0-.38.54C37.42,29.92,37.9,29.69,38.09,29.47Z"/><path class="cls-4" d="M40.14,29.63a.74.74,0,0,0-.5,0,1,1,0,0,0-.67.51c-.13.52.78.15,1,.08S40.56,29.78,40.14,29.63Z"/><path class="cls-4" d="M41.66,30c-.14,0-.3.17-.3.29s.53.18.67.11C42.59,30.17,41.86,29.92,41.66,30Z"/><path class="cls-4" d="M45.25,27.15a.25.25,0,0,0-.25.1.68.68,0,0,0,1,0A.57.57,0,0,0,45.25,27.15Z"/><path class="cls-4" d="M43.77,28.49c.32.11,1.17.17,1.23-.27a.72.72,0,0,0-.68-.08C44.06,28.13,43.78,28.22,43.77,28.49Z"/><path class="cls-4" d="M44.39,26.19a.46.46,0,0,0-.63-.06.34.34,0,0,0-.15.18A.6.6,0,0,0,44.39,26.19Z"/><path class="cls-4" d="M46.7,28c-.63,0,.18.81.53.56S47,27.86,46.7,28Z"/><path class="cls-4" d="M37.76,30.62c-.19-.16-.35,0-.46.17-.42.27-.93.91-.53,1.07S37.75,31,37.76,30.62Z"/><path class="cls-4" d="M36.61,29.79c-.54.11-.28,1,.23.39C37.16,29.8,36.83,29.68,36.61,29.79Z"/><path class="cls-4" d="M39.68,31.44a.29.29,0,0,0-.19.25c.2.15.74.16.87-.11S39.86,31.13,39.68,31.44Z"/><path class="cls-4" d="M44.48,30l0,0a.61.61,0,0,0,0,.11s0,.1,0,.12c.11.29.73.3.61-.07S44.62,29.82,44.48,30Z"/><path class="cls-4" d="M50,29.18c-.36-.5-1.11,0-.64.16C49.67,29.54,50.39,29.67,50,29.18Z"/><path class="cls-4" d="M37.09,34l.07-.14a.92.92,0,0,0-.4.64c.22.06.85-.37.83-.65S37.27,33.7,37.09,34Z"/><path class="cls-4" d="M42.76,32.55a.16.16,0,0,0,.21.05c.27,0,.75,0,.54-.32S42.83,32.33,42.76,32.55Z"/><path class="cls-4" d="M34.93,32.27a.51.51,0,0,0,0,.22c.32.11,1.14,0,.87-.51S35,31.89,34.93,32.27Z"/><path class="cls-4" d="M36,30.91h0a.27.27,0,0,0-.33.27.4.4,0,0,0,.55-.22A.33.33,0,0,0,36,30.91Z"/><path class="cls-5" d="M37.09,42.23c-1.17.86,4.81,5.19,8.69,5a11.39,11.39,0,0,0,9.4-6c1-2.14.67-8.23-.61-7.8-.46.15.1,2.21-1.78,5.34-1.66,2.75-4.48,5.46-8.22,5.27C39.46,43.83,37.87,41.66,37.09,42.23Z"/><path class="cls-6" d="M49.91,27.17a.54.54,0,0,0-.48.83c.32.8,2.27,2.1,2.83,1.88s.59-.87-.23-1.49A4.64,4.64,0,0,0,49.91,27.17Z"/><path class="cls-6" d="M50.93,28.24s2.26-2.34,2.9-3.22A39.83,39.83,0,0,0,56,20.79a.55.55,0,0,1,.48-.24c.28.05.2.47.2.47s-1.58,3.22-2.22,4.11c-1.3,1.81-3,3.78-3,3.78Z"/><path class="cls-6" d="M54.87,23.83c-.14,0-3.73-.47-3.73-.47l-.14.21,1.86.31,1.85.3Z"/><path class="cls-6" d="M47.1,28c-3.85,1-9.55-1.77-9.55-1.77s3.8-4.44,7.07-4.77,8.93,2.27,8.93,2.27A13.56,13.56,0,0,1,47.1,28Z"/><path class="cls-7" d="M50,27.41a.81.81,0,0,0-.09.79,4.09,4.09,0,0,0,1.4,1.11l.09-.7s-.3-.21-.33-.38a.39.39,0,0,1,0-.27Z"/><path class="cls-7" d="M52.29,23.86a30.11,30.11,0,0,0-6.46.07c-3,.43-7.52,1.86-7.46,2.06s4.94-1.64,7.36-1.8,6.73,0,6.73,0Z"/><path class="cls-7" d="M50.77,24a3.28,3.28,0,0,1-.63,1.17,9.15,9.15,0,0,0-1.08,1.68,10.21,10.21,0,0,0,1.25-1.56c.36-.53.82-1.27.82-1.27Z"/><path class="cls-7" d="M47.77,24a5.29,5.29,0,0,1-.66,1.91c-.66,1.36-.93,1.76-.76,1.79s.65-1,1-1.75.84-2,.84-2Z"/><path class="cls-7" d="M44.85,24.27a3.7,3.7,0,0,1-.22,1.42c-.3,1-.66,1.58-.53,1.64s.48-.86.69-1.58.5-1.63.5-1.63Z"/><path class="cls-7" d="M41.72,25a2.36,2.36,0,0,1-.16.84c-.18.52-.47,1-.39,1a1.75,1.75,0,0,0,.54-.91L42,25Z"/><path class="cls-7" d="M51.12,23.89A4.24,4.24,0,0,0,50,22.81a3.51,3.51,0,0,0-1.45-.6c-.08.07.83.33,1.15.54a12.23,12.23,0,0,1,1.18,1.14Z"/><path class="cls-7" d="M48,23.81a2.91,2.91,0,0,0-.92-1.23,4.45,4.45,0,0,0-2-.8c-.2.06,1.5.49,1.88.86a4.23,4.23,0,0,1,.69,1.21Z"/><path class="cls-7" d="M45.29,24.12A6.75,6.75,0,0,0,43.9,23a5.58,5.58,0,0,0-1.66-.42c-.19,0,1.28.33,1.69.62a9.06,9.06,0,0,1,1,1Z"/><path class="cls-7" d="M41.72,24.93s0-.25-.74-.5S39.92,24,40.07,24a4.31,4.31,0,0,1,.91.24,5.61,5.61,0,0,1,1.07.6Z"/><path class="cls-3" d="M26.16,44.16c-3,2.19-6.92,9.14-2.29,14.85s11.37,6.05,16.46,2.7a11.48,11.48,0,0,0,1.42-18.14C36.61,38.68,30.66,40.85,26.16,44.16Z"/><path class="cls-4" d="M38.64,43.34h0Z"/><path class="cls-4" d="M38,44.06c-.35-.16-.74-.52-.41-.84s.78,0,1.09.12C39.06,43.74,38.88,44.52,38,44.06Z"/><path class="cls-4" d="M38.63,43.34l-.54-.21A.83.83,0,0,1,38.63,43.34Z"/><path class="cls-4" d="M39.58,44.87c-.13-.1-.31-.3-.13-.44a.22.22,0,0,1,.33.07.44.44,0,0,1,.22.29C40,45.08,39.72,45,39.58,44.87Z"/><path class="cls-4" d="M37.3,44.69a.35.35,0,0,1,.33,0c.15,0,.35.08.38.21A.25.25,0,0,1,38,45l0,0,0,0c-.05.15-.39,0-.51,0S37,44.83,37.3,44.69Z"/><path class="cls-4" d="M38.06,45h0Z"/><path class="cls-4" d="M36.56,43.9c.15.05.32.22.24.36s-.44.09-.57,0C35.73,44,36.38,43.79,36.56,43.9Z"/><path class="cls-4" d="M35.94,43c.1,0,.29-.06.37,0a.15.15,0,0,1,0,.18c0,.1-.18.19-.25.23s-.91.32-1,.06S35.75,43,35.94,43Z"/><path class="cls-4" d="M36.77,42.46c-.16.09-.72.06-.77-.16s.3-.28.45-.26a.61.61,0,0,1,.24.14C36.84,42.25,37,42.36,36.77,42.46Z"/><path class="cls-4" d="M39.48,43.79c-.29-.22,0-.34.23-.3h0c.13,0,.46.14.37.32S39.6,43.87,39.48,43.79Z"/><path class="cls-4" d="M40.7,45.17c-.11-.13-.44-.67-.06-.69a.26.26,0,0,1,.2.1,1.15,1.15,0,0,1,.39.53C41.37,45.61,40.89,45.39,40.7,45.17Z"/><path class="cls-4" d="M38.65,45.32a.76.76,0,0,1,.51,0,1,1,0,0,1,.66.52c.13.52-.78.14-1,.08S38.23,45.48,38.65,45.32Z"/><path class="cls-4" d="M37.13,45.73c.14.05.3.17.3.29s-.52.18-.67.11C36.2,45.87,36.93,45.62,37.13,45.73Z"/><path class="cls-4" d="M33.54,42.85a.23.23,0,0,1,.25.1.69.69,0,0,1-1,0A.57.57,0,0,1,33.54,42.85Z"/><path class="cls-4" d="M35,44.19c-.31.11-1.16.16-1.23-.28a.75.75,0,0,1,.68-.08C34.74,43.82,35,43.91,35,44.19Z"/><path class="cls-4" d="M34.41,41.89a.44.44,0,0,1,.62-.06.28.28,0,0,1,.15.18A.59.59,0,0,1,34.41,41.89Z"/><path class="cls-4" d="M32.1,43.72c.62,0-.19.81-.53.55S31.85,43.55,32.1,43.72Z"/><path class="cls-4" d="M41,46.31c.19-.15.35,0,.47.18.42.27.92.91.52,1.06S41,46.66,41,46.31Z"/><path class="cls-4" d="M42.18,45.49c.54.1.28,1-.23.38C41.63,45.49,42,45.37,42.18,45.49Z"/><path class="cls-4" d="M39.11,47.14a.28.28,0,0,1,.2.24c-.21.15-.74.16-.88-.11S38.93,46.83,39.11,47.14Z"/><path class="cls-4" d="M34.31,45.66l0,0a.26.26,0,0,1,0,.11c0,.06,0,.1,0,.12-.11.3-.73.31-.61-.07S34.17,45.52,34.31,45.66Z"/><path class="cls-4" d="M28.76,44.87c.36-.5,1.12,0,.64.16C29.12,45.23,28.4,45.37,28.76,44.87Z"/><path class="cls-4" d="M41.71,49.66l-.08-.13a.9.9,0,0,1,.4.63c-.21.06-.85-.36-.83-.64C41.22,49.09,41.52,49.39,41.71,49.66Z"/><path class="cls-4" d="M36,48.24c-.08.1-.14.09-.21,0-.26,0-.74,0-.54-.31S36,48,36,48.24Z"/><path class="cls-4" d="M43.87,48a.53.53,0,0,1,0,.22c-.32.11-1.14,0-.87-.51S43.77,47.59,43.87,48Z"/><path class="cls-4" d="M42.75,46.6h0a.26.26,0,0,1,.33.26.39.39,0,0,1-.55-.21A.35.35,0,0,1,42.75,46.6Z"/><path class="cls-5" d="M41.7,57.92c1.17.86-4.8,5.2-8.69,5a11.47,11.47,0,0,1-9.4-6c-1-2.15-.67-8.23.62-7.81.45.15-.11,2.22,1.78,5.35,1.65,2.74,4.47,5.45,8.21,5.26C39.33,59.52,40.92,57.35,41.7,57.92Z"/><path class="cls-6" d="M28.88,42.86a.55.55,0,0,1,.48.84c-.32.8-2.27,2.1-2.83,1.88s-.58-.87.23-1.5A4.83,4.83,0,0,1,28.88,42.86Z"/><path class="cls-6" d="M27.86,43.93S25.6,41.59,25,40.71a39.9,39.9,0,0,1-2.14-4.22s-.2-.3-.48-.25-.2.47-.2.47,1.58,3.23,2.22,4.12c1.3,1.8,3,3.77,3,3.77Z"/><path class="cls-6" d="M23.92,39.53c.14,0,3.73-.48,3.73-.48l.14.22-1.86.3-1.85.31Z"/><path class="cls-6" d="M31.69,43.73c3.86,1,9.55-1.77,9.55-1.77s-3.8-4.43-7.07-4.77-8.92,2.27-8.92,2.27A13.43,13.43,0,0,0,31.69,43.73Z"/><path class="cls-7" d="M28.84,43.1a.82.82,0,0,1,.09.79A4.16,4.16,0,0,1,27.53,45l-.09-.71s.3-.2.33-.38a.41.41,0,0,0,0-.27Z"/><path class="cls-7" d="M26.51,39.56a30.4,30.4,0,0,1,6.45.06c3,.43,7.52,1.87,7.47,2.07s-5-1.64-7.37-1.8-6.73,0-6.73,0Z"/><path class="cls-7" d="M28,39.67a3.36,3.36,0,0,0,.63,1.18,8.47,8.47,0,0,1,1.08,1.68A10.55,10.55,0,0,1,28.48,41c-.35-.52-.81-1.26-.81-1.26Z"/><path class="cls-7" d="M31,39.69a5.29,5.29,0,0,0,.66,1.92c.66,1.36.93,1.75.77,1.78s-.66-1-1-1.74-.85-2-.85-2Z"/><path class="cls-7" d="M33.94,40a3.65,3.65,0,0,0,.23,1.42c.29,1,.66,1.57.52,1.64s-.48-.86-.68-1.59-.5-1.62-.5-1.62Z"/><path class="cls-7" d="M37.07,40.71a2.39,2.39,0,0,0,.16.84c.18.52.47,1,.39,1a1.84,1.84,0,0,1-.54-.92c-.13-.46-.27-1-.27-1Z"/><path class="cls-7" d="M27.67,39.59A4.38,4.38,0,0,1,28.8,38.5a3.41,3.41,0,0,1,1.46-.59c.07.07-.83.33-1.15.53a11.47,11.47,0,0,0-1.19,1.14Z"/><path class="cls-7" d="M30.75,39.5a2.91,2.91,0,0,1,.92-1.23,4.57,4.57,0,0,1,2-.8c.2.07-1.5.49-1.88.87a4.1,4.1,0,0,0-.69,1.2Z"/><path class="cls-7" d="M33.51,39.82a6.54,6.54,0,0,1,1.38-1.1,6.29,6.29,0,0,1,1.66-.42c.2,0-1.27.33-1.69.62a9.06,9.06,0,0,0-1,1Z"/><path class="cls-7" d="M37.08,40.62s0-.24.73-.5,1.06-.43.92-.43a4.69,4.69,0,0,0-.91.24,5.66,5.66,0,0,0-1.08.61Z"/><path class="cls-3" d="M55.14,46.27c3,2.19,6.91,9.13,2.29,14.85S46.06,67.17,41,63.81a11.47,11.47,0,0,1-1.42-18.13C44.68,40.78,50.63,43,55.14,46.27Z"/><path class="cls-4" d="M42.65,45.45h0Z"/><path class="cls-4" d="M43.34,46.17c.35-.17.75-.53.42-.85s-.78,0-1.1.13C42.23,45.84,42.41,46.62,43.34,46.17Z"/><path class="cls-4" d="M42.67,45.44l.53-.2A.83.83,0,0,0,42.67,45.44Z"/><path class="cls-4" d="M41.71,47c.13-.09.31-.29.14-.43a.23.23,0,0,0-.34.07.43.43,0,0,0-.21.29C41.27,47.19,41.57,47.07,41.71,47Z"/><path class="cls-4" d="M44,46.79a.32.32,0,0,0-.33,0c-.16,0-.35.08-.39.21a.11.11,0,0,0,0,.08l-.05,0,.05,0c0,.14.38,0,.51,0S44.26,46.94,44,46.79Z"/><path class="cls-4" d="M43.23,47.13h0Z"/><path class="cls-4" d="M44.73,46c-.15,0-.32.21-.23.36s.44.09.56,0C45.56,46.11,44.92,45.9,44.73,46Z"/><path class="cls-4" d="M45.36,45.09c-.11,0-.29-.07-.37,0a.15.15,0,0,0,0,.18c0,.11.18.2.25.24s.92.32,1,.06S45.55,45.11,45.36,45.09Z"/><path class="cls-4" d="M44.53,44.57c.15.08.71.06.77-.17s-.31-.27-.45-.25a.43.43,0,0,0-.24.14C44.46,44.36,44.35,44.47,44.53,44.57Z"/><path class="cls-4" d="M41.81,45.89c.29-.21,0-.34-.22-.29h0c-.14,0-.47.15-.38.33S41.7,46,41.81,45.89Z"/><path class="cls-4" d="M40.59,47.27c.11-.12.44-.67.06-.69a.3.3,0,0,0-.2.1,1.08,1.08,0,0,0-.38.54C39.92,47.72,40.4,47.49,40.59,47.27Z"/><path class="cls-4" d="M42.64,47.43a.74.74,0,0,0-.5,0c-.29.08-.62.3-.67.51-.12.52.79.15,1,.08S43.06,47.59,42.64,47.43Z"/><path class="cls-4" d="M44.17,47.84c-.15,0-.31.16-.3.28s.52.18.67.11C45.1,48,44.36,47.72,44.17,47.84Z"/><path class="cls-4" d="M47.75,45a.27.27,0,0,0-.25.1.69.69,0,0,0,1,0A.6.6,0,0,0,47.75,45Z"/><path class="cls-4" d="M46.27,46.29c.32.11,1.17.17,1.24-.27a.77.77,0,0,0-.69-.08C46.56,45.93,46.28,46,46.27,46.29Z"/><path class="cls-4" d="M46.89,44a.44.44,0,0,0-.62-.07.3.3,0,0,0-.15.18A.6.6,0,0,0,46.89,44Z"/><path class="cls-4" d="M49.2,45.82c-.63,0,.18.81.53.56S49.45,45.66,49.2,45.82Z"/><path class="cls-4" d="M40.27,48.42c-.2-.16-.36,0-.47.18-.42.26-.93.9-.52,1.06S40.26,48.76,40.27,48.42Z"/><path class="cls-4" d="M39.11,47.59c-.54.11-.28,1,.23.39C39.66,47.6,39.34,47.48,39.11,47.59Z"/><path class="cls-4" d="M42.19,49.24a.28.28,0,0,0-.2.25c.2.15.74.16.87-.11S42.37,48.93,42.19,49.24Z"/><path class="cls-4" d="M47,47.76l0,0a.52.52,0,0,0,0,.11c0,.05,0,.1,0,.12.12.29.73.3.62-.07S47.13,47.62,47,47.76Z"/><path class="cls-4" d="M52.54,47c-.37-.5-1.12,0-.65.16C52.17,47.34,52.9,47.47,52.54,47Z"/><path class="cls-4" d="M39.59,51.77l.07-.13a.91.91,0,0,0-.4.63c.22.06.85-.37.84-.65S39.78,51.5,39.59,51.77Z"/><path class="cls-4" d="M45.26,50.35a.17.17,0,0,0,.22,0c.26,0,.74,0,.53-.32S45.34,50.13,45.26,50.35Z"/><path class="cls-4" d="M37.43,50.07a.4.4,0,0,0,0,.22c.32.11,1.13,0,.86-.51S37.52,49.69,37.43,50.07Z"/><path class="cls-4" d="M38.54,48.71h0a.27.27,0,0,0-.33.27.41.41,0,0,0,.56-.22A.43.43,0,0,0,38.54,48.71Z"/><path class="cls-5" d="M39.6,60c-1.18.86,4.8,5.19,8.68,5a11.43,11.43,0,0,0,9.41-6c1-2.14.67-8.23-.62-7.8-.46.15.1,2.21-1.78,5.34-1.65,2.75-4.48,5.46-8.21,5.27C42,61.63,40.37,59.46,39.6,60Z"/><path class="cls-6" d="M52.42,45a.55.55,0,0,0-.49.83c.32.8,2.27,2.1,2.83,1.89s.59-.88-.23-1.5A4.76,4.76,0,0,0,52.42,45Z"/><path class="cls-6" d="M53.43,46s2.26-2.34,2.91-3.22a41.89,41.89,0,0,0,2.14-4.23s.2-.29.47-.24.2.47.2.47S57.57,42,56.94,42.93c-1.3,1.81-3,3.78-3,3.78Z"/><path class="cls-6" d="M57.37,41.63c-.13,0-3.73-.47-3.73-.47l-.13.21,1.85.31,1.85.3Z"/><path class="cls-6" d="M49.6,45.84c-3.85,1-9.55-1.77-9.55-1.77s3.81-4.44,7.07-4.77,8.93,2.27,8.93,2.27A13.5,13.5,0,0,1,49.6,45.84Z"/><path class="cls-7" d="M52.45,45.21a.81.81,0,0,0-.09.79,4.09,4.09,0,0,0,1.4,1.11l.1-.7s-.3-.21-.33-.38a.39.39,0,0,1,0-.27Z"/><path class="cls-7" d="M54.79,41.66a30.09,30.09,0,0,0-6.46.07c-3,.43-7.52,1.86-7.46,2.06s4.94-1.64,7.36-1.8S55,42,55,42Z"/><path class="cls-7" d="M53.27,41.78A3.34,3.34,0,0,1,52.65,43a8.89,8.89,0,0,0-1.09,1.68,9.72,9.72,0,0,0,1.25-1.56c.36-.53.82-1.27.82-1.27Z"/><path class="cls-7" d="M50.27,41.8a5,5,0,0,1-.66,1.91c-.66,1.36-.92,1.76-.76,1.79s.66-1,1-1.75.85-2,.85-2Z"/><path class="cls-7" d="M47.36,42.07a3.63,3.63,0,0,1-.23,1.42c-.3,1-.66,1.58-.52,1.65s.48-.87.68-1.59.5-1.63.5-1.63Z"/><path class="cls-7" d="M44.22,42.81a2.11,2.11,0,0,1-.16.84c-.18.52-.47,1-.38,1a1.83,1.83,0,0,0,.53-.91l.28-1Z"/><path class="cls-7" d="M53.63,41.69a4.43,4.43,0,0,0-1.13-1.08A3.53,3.53,0,0,0,51,40c-.08.07.83.33,1.15.54a12.23,12.23,0,0,1,1.18,1.14Z"/><path class="cls-7" d="M50.55,41.61a2.91,2.91,0,0,0-.92-1.23,4.48,4.48,0,0,0-2.06-.8c-.19.06,1.5.49,1.88.86a4.23,4.23,0,0,1,.69,1.21Z"/><path class="cls-7" d="M47.79,41.92a6.9,6.9,0,0,0-1.38-1.09,5.63,5.63,0,0,0-1.67-.42c-.19,0,1.28.33,1.69.62a9.48,9.48,0,0,1,1,1Z"/><path class="cls-7" d="M44.22,42.73s0-.25-.73-.5-1.07-.43-.92-.43a4.16,4.16,0,0,1,.91.24,5.61,5.61,0,0,1,1.07.6Z"/><path class="cls-3" d="M8.92,45.91C5.94,48.1,2,55.05,6.63,60.76S18,66.81,23.09,63.46a11.49,11.49,0,0,0,1.43-18.14C19.38,40.43,13.42,42.6,8.92,45.91Z"/><path class="cls-4" d="M21.41,45.09h0Z"/><path class="cls-4" d="M20.71,45.81c-.34-.16-.74-.52-.41-.84s.78,0,1.1.12C21.83,45.49,21.65,46.27,20.71,45.81Z"/><path class="cls-4" d="M21.39,45.09l-.53-.21A.78.78,0,0,1,21.39,45.09Z"/><path class="cls-4" d="M22.35,46.62c-.13-.1-.31-.3-.14-.44a.24.24,0,0,1,.34.07.43.43,0,0,1,.21.29C22.79,46.83,22.48,46.72,22.35,46.62Z"/><path class="cls-4" d="M20.06,46.44a.35.35,0,0,1,.33,0c.16,0,.35.08.39.21s0,.06,0,.08l0,0,0,0c0,.15-.38,0-.51,0S19.79,46.58,20.06,46.44Z"/><path class="cls-4" d="M20.83,46.77h0Z"/><path class="cls-4" d="M19.33,45.65c.15.05.32.22.23.36s-.44.09-.56,0C18.49,45.75,19.14,45.54,19.33,45.65Z"/><path class="cls-4" d="M18.7,44.73c.1,0,.29-.06.37,0a.15.15,0,0,1,0,.18c0,.1-.18.19-.25.23s-.92.32-1,.06S18.51,44.76,18.7,44.73Z"/><path class="cls-4" d="M19.53,44.21c-.15.08-.71.06-.77-.16s.3-.28.45-.26a.55.55,0,0,1,.24.14C19.6,44,19.71,44.11,19.53,44.21Z"/><path class="cls-4" d="M22.25,45.54c-.29-.22,0-.34.22-.3h0c.14,0,.46.14.38.32S22.36,45.62,22.25,45.54Z"/><path class="cls-4" d="M23.47,46.92c-.11-.13-.44-.67-.06-.69a.26.26,0,0,1,.2.1,1.12,1.12,0,0,1,.38.53C24.14,47.36,23.66,47.14,23.47,46.92Z"/><path class="cls-4" d="M21.42,47.07a.74.74,0,0,1,.5,0c.28.08.62.31.67.52.12.52-.79.14-1,.08S21,47.23,21.42,47.07Z"/><path class="cls-4" d="M19.89,47.48c.15.05.3.17.3.29s-.52.18-.67.11C19,47.62,19.69,47.37,19.89,47.48Z"/><path class="cls-4" d="M16.31,44.6a.24.24,0,0,1,.25.1.7.7,0,0,1-1,0A.59.59,0,0,1,16.31,44.6Z"/><path class="cls-4" d="M17.78,45.94c-.31.11-1.16.16-1.23-.28a.75.75,0,0,1,.68-.08C17.5,45.57,17.78,45.66,17.78,45.94Z"/><path class="cls-4" d="M17.17,43.64a.44.44,0,0,1,.62-.06.28.28,0,0,1,.15.18A.59.59,0,0,1,17.17,43.64Z"/><path class="cls-4" d="M14.86,45.47c.63,0-.18.81-.53.55S14.61,45.3,14.86,45.47Z"/><path class="cls-4" d="M23.79,48.06c.2-.15.36,0,.47.18.42.27.92.91.52,1.06S23.8,48.41,23.79,48.06Z"/><path class="cls-4" d="M24.94,47.24c.54.1.29,1-.23.38C24.4,47.24,24.72,47.12,24.94,47.24Z"/><path class="cls-4" d="M21.87,48.89a.27.27,0,0,1,.2.24c-.2.15-.74.16-.87-.11S21.69,48.58,21.87,48.89Z"/><path class="cls-4" d="M17.08,47.41l0,0a.52.52,0,0,1,0,.11c0,.06,0,.1,0,.12-.12.3-.74.31-.62-.07S16.93,47.27,17.08,47.41Z"/><path class="cls-4" d="M11.52,46.62c.37-.5,1.12,0,.65.16C11.89,47,11.16,47.12,11.52,46.62Z"/><path class="cls-4" d="M24.47,51.41l-.08-.13a.87.87,0,0,1,.4.63c-.21.06-.85-.36-.83-.64C24,50.84,24.28,51.14,24.47,51.41Z"/><path class="cls-4" d="M18.79,50c-.08.1-.14.09-.21,0-.26,0-.74,0-.54-.31S18.72,49.77,18.79,50Z"/><path class="cls-4" d="M26.63,49.71a.41.41,0,0,1,0,.22c-.32.11-1.13,0-.86-.51S26.54,49.34,26.63,49.71Z"/><path class="cls-4" d="M25.52,48.35h0a.27.27,0,0,1,.33.26.4.4,0,0,1-.56-.21A.37.37,0,0,1,25.52,48.35Z"/><path class="cls-5" d="M24.46,59.67c1.18.86-4.8,5.2-8.69,5a11.47,11.47,0,0,1-9.4-6c-1-2.15-.67-8.23.62-7.81.46.15-.1,2.22,1.78,5.35C10.42,59,13.24,61.71,17,61.52,22.1,61.27,23.69,59.1,24.46,59.67Z"/><path class="cls-6" d="M11.64,44.61a.55.55,0,0,1,.49.84c-.32.8-2.27,2.1-2.83,1.88s-.59-.87.23-1.5A4.86,4.86,0,0,1,11.64,44.61Z"/><path class="cls-6" d="M10.63,45.68s-2.26-2.34-2.91-3.22a42,42,0,0,1-2.14-4.22s-.2-.3-.47-.25-.2.47-.2.47,1.57,3.23,2.21,4.12c1.3,1.8,3,3.77,3,3.77Z"/><path class="cls-6" d="M6.68,41.28c.14,0,3.74-.48,3.74-.48l.13.22-1.85.3-1.85.31Z"/><path class="cls-6" d="M14.46,45.48c3.85,1,9.55-1.77,9.55-1.77s-3.81-4.43-7.07-4.77S8,41.21,8,41.21A13.42,13.42,0,0,0,14.46,45.48Z"/><path class="cls-7" d="M11.61,44.85a.82.82,0,0,1,.09.79,4.17,4.17,0,0,1-1.41,1.12l-.09-.71s.3-.2.33-.38a.41.41,0,0,0,0-.27Z"/><path class="cls-7" d="M9.27,41.31a30.48,30.48,0,0,1,6.46.06c3,.43,7.52,1.87,7.46,2.07s-4.94-1.64-7.36-1.8-6.74,0-6.74,0Z"/><path class="cls-7" d="M10.79,41.42a3.41,3.41,0,0,0,.62,1.18,8.25,8.25,0,0,1,1.09,1.68,10.43,10.43,0,0,1-1.26-1.57c-.35-.52-.81-1.26-.81-1.26Z"/><path class="cls-7" d="M13.78,41.44a5.29,5.29,0,0,0,.66,1.92c.67,1.36.93,1.75.77,1.78s-.66-1-1-1.74-.85-2-.85-2Z"/><path class="cls-7" d="M16.7,41.72a3.65,3.65,0,0,0,.23,1.42c.3,1,.66,1.57.52,1.64s-.48-.86-.68-1.59-.5-1.62-.5-1.62Z"/><path class="cls-7" d="M19.84,42.46a2.13,2.13,0,0,0,.16.84c.18.52.47,1,.38,1a1.93,1.93,0,0,1-.53-.92l-.28-1Z"/><path class="cls-7" d="M10.43,41.34a4.38,4.38,0,0,1,1.13-1.09A3.46,3.46,0,0,1,13,39.66c.08.07-.83.33-1.15.53a12.62,12.62,0,0,0-1.19,1.14Z"/><path class="cls-7" d="M13.51,41.25A2.91,2.91,0,0,1,14.43,40a4.6,4.6,0,0,1,2.06-.8c.19.07-1.5.49-1.88.87a4.1,4.1,0,0,0-.69,1.2Z"/><path class="cls-7" d="M16.27,41.57a6.54,6.54,0,0,1,1.38-1.1,6.39,6.39,0,0,1,1.66-.42c.2,0-1.27.33-1.68.62a9.48,9.48,0,0,0-1.05,1Z"/><path class="cls-7" d="M19.84,42.37s.05-.24.73-.5,1.07-.43.92-.43a4.88,4.88,0,0,0-.91.24,5.46,5.46,0,0,0-1.07.61Z"/><path class="cls-8" d="M8.58,64.8c1.21,4.8,4.31,16.83,6.17,21.38,2.36,5.73,1.26,8.24,9,9,6.68.67,20.45.36,26.27.21,5.82.15,19.6.46,26.28-.21,7.78-.79,6.68-3.3,9-9,1.87-4.55,5.22-18.45,6.42-23.25Z"/><path class="cls-9" d="M94.06,60.58c-.63-2.28-4.19-1.78-5.9-1.7-.58,0-1.17,0-1.75,0-2.93.06-5.85.09-8.77.13-3.31,0-42.61.84-45.88,1L22,60.33c-2.87.1-5.73.2-8.6.28-.57,0-1.15,0-1.72,0-1.68,0-5.2-.33-5.71,1.93A2.32,2.32,0,0,0,7.72,65.4a14.82,14.82,0,0,0,3.39-.1C14.38,65.1,17.67,65,21,65l9.94-.24L41,64.5c1.23,0,7.54-.08,9.09-.11l8.48-.21,10.28-.26L79,63.7c3.34-.08,6.69-.18,10-.12a15.22,15.22,0,0,0,3.44-.06A2.37,2.37,0,0,0,94.06,60.58Z"/><path class="cls-10" d="M13.09,65.15c-.84-.13-1.05-1.36-1.12-2A4.39,4.39,0,0,1,12.43,61a0,0,0,0,0-.07,0,3.25,3.25,0,0,0-.53,2.72,4,4,0,0,0,.17.63A2.62,2.62,0,0,1,12,61a.06.06,0,0,0-.09-.07,2.88,2.88,0,0,0,.52,4.14h.06a.79.79,0,0,0,.6.25C13.19,65.33,13.18,65.16,13.09,65.15Z"/><path class="cls-10" d="M13.22,65a3.39,3.39,0,0,1-.1-4,.06.06,0,0,0-.09-.08,3.08,3.08,0,0,0-.79,2.07,2.88,2.88,0,0,0,.87,2.15C13.18,65.11,13.27,65,13.22,65Z"/><path class="cls-10" d="M23.13,65a5.29,5.29,0,0,1-.8-4.76.06.06,0,1,0-.11-.05c-.69,1.46-.73,4,.77,5A.1.1,0,0,0,23.13,65Z"/><path class="cls-10" d="M24,65a5.25,5.25,0,0,1-.77-4.67s-.06-.08-.08,0a4,4,0,0,0-.39,2.44c0,.15.06.32.09.49-.07-.15-.15-.31-.21-.47a3.71,3.71,0,0,1,.11-2.46.07.07,0,0,0-.12,0c-.63,1.38-.63,3.39.7,4.4l.05,0a1.93,1.93,0,0,0,.45.49C23.9,65.23,24.05,65.1,24,65Z"/><path class="cls-10" d="M36.33,64.51a6.78,6.78,0,0,1-.93-2.28,4.29,4.29,0,0,1,.21-1.95c0-.13.2-.35.17-.51a.07.07,0,0,0-.07-.06c-.52.1-.71,1.65-.7,2.06a3.32,3.32,0,0,0,1.22,2.83C36.28,64.63,36.37,64.58,36.33,64.51Z"/><path class="cls-10" d="M37.38,64.48c-.85-1.33-1.58-3-1-4.6,0-.08-.07-.11-.11-.05-.72,1.3-.48,4,.95,4.8C37.36,64.69,37.43,64.55,37.38,64.48Z"/><path class="cls-10" d="M51,61.4c-.09-.65,0-1.25,0-1.88,0-.09-.11-.09-.14,0a4.27,4.27,0,0,0,.55,4,.07.07,0,0,0,.11-.07A11.35,11.35,0,0,1,51,61.4Z"/><path class="cls-10" d="M50.94,64.28a8.93,8.93,0,0,1-.86-4.71c0-.1-.12-.11-.14,0a6,6,0,0,0,0,2.6,4.9,4.9,0,0,0,.79,2.25A.12.12,0,0,0,50.94,64.28Z"/><path class="cls-10" d="M50.51,64.47a9.68,9.68,0,0,1-.81-2.28,12,12,0,0,1,0-2.54.08.08,0,1,0-.15,0c-.29,1.51-.52,3.85.77,5C50.4,64.73,50.57,64.59,50.51,64.47Z"/><path class="cls-10" d="M59.51,60.57c0-.34.07-1.15-.16-1.41,0,0-.09,0-.09,0a6.74,6.74,0,0,0,.43,3.67c0,.06.13,0,.12,0C59.72,62.07,59.57,61.33,59.51,60.57Z"/><path class="cls-10" d="M60.51,61.52c0-.78.05-1.56,0-2.33a.08.08,0,0,0-.16,0A9.28,9.28,0,0,0,60.65,64c0,.06.11,0,.1,0C60.7,63.18,60.56,62.35,60.51,61.52Z"/><path class="cls-10" d="M59.92,61.32c-.06-.65,0-1.31,0-2,0-.08-.13-.07-.15,0a6.23,6.23,0,0,0,.44,4.15s.1,0,.09,0A13,13,0,0,1,59.92,61.32Z"/><path class="cls-10" d="M68.36,61.46a15.62,15.62,0,0,0,0-2.37c0-.09-.16-.1-.17,0-.13,1.51-.5,3.72.56,5a.12.12,0,0,0,.2-.12A10.29,10.29,0,0,1,68.36,61.46Z"/><path class="cls-10" d="M69.13,61.69c-.07-.84.09-1.65.08-2.48,0-.11-.15-.09-.17,0-.33,1.37-.73,3.79.43,4.91.07.07.22,0,.2-.12A12.93,12.93,0,0,1,69.13,61.69Z"/><path class="cls-10" d="M81.2,61.71c0-.87-.21-2.4-1-2.94a.06.06,0,0,0-.09.07,9.11,9.11,0,0,1,.62,2.62c.08.74-.28,1.53-.17,2.22,0,.07.1.14.17.1C81.33,63.45,81.21,62.28,81.2,61.71Z"/><path class="cls-10" d="M81.25,58.85a.1.1,0,0,0-.18.1,7,7,0,0,1,.38,4.49c0,.07.06.14.11.07A4.14,4.14,0,0,0,81.25,58.85Z"/><path class="cls-10" d="M91.55,60.55a2.78,2.78,0,0,0-.77-2c-.09-.07-.2,0-.14.14.87,1.32.61,3.21.42,4.67a.15.15,0,0,0,.29.08A7.09,7.09,0,0,0,91.55,60.55Z"/><path class="cls-10" d="M90.44,58.58a.09.09,0,0,0-.16.09A12.12,12.12,0,0,1,90.74,60a10.43,10.43,0,0,1,.12,1.48.15.15,0,0,0,.3,0A3.81,3.81,0,0,0,90.44,58.58Z"/><path class="cls-11" d="M94.06,60.58a2,2,0,0,0-.71-1.07A2.09,2.09,0,0,1,92,60.62a15.46,15.46,0,0,1-3.4.05c-3.3-.05-6.61,0-9.91.12l-10,.22-10.15.25-8.37.2c-1.53,0-7.75.09-9,.11l-10,.22-9.8.23c-3.24.08-6.49.14-9.72.34a14.94,14.94,0,0,1-3.34.1,2.05,2.05,0,0,1-1.47-1.13A2,2,0,0,0,6,62.59,2.32,2.32,0,0,0,7.72,65.4a14.82,14.82,0,0,0,3.39-.1C14.38,65.1,17.67,65,21,65l9.94-.24L41,64.5c1.23,0,7.54-.08,9.09-.11l8.48-.21,10.28-.26L79,63.7c3.34-.08,6.69-.18,10-.12a15.22,15.22,0,0,0,3.44-.06A2.37,2.37,0,0,0,94.06,60.58Z"/><path class="cls-11" d="M81.11,62.75,70.24,63l-11,.27-9.11.22c-1.67,0-8.44.1-9.77.12l-10.84.24-10.68.26c-3.52.09-7,.15-10.57.37-.57,0-1.16.11-1.75.15a2,2,0,0,0,1.25.77,14.82,14.82,0,0,0,3.39-.1C14.38,65.1,17.67,65,21,65l9.94-.24L41,64.5c1.23,0,7.54-.08,9.09-.11l8.48-.21,10.28-.26L79,63.7c3.34-.08,6.69-.18,10-.12a15.22,15.22,0,0,0,3.44-.06,2,2,0,0,0,1.22-.82c-.6,0-1.2-.07-1.78-.07C88.3,62.57,84.71,62.67,81.11,62.75Z"/><g class="cls-12"><path class="cls-13" d="M8.77,61.12a3.06,3.06,0,0,0-1.27.14.16.16,0,0,0,0,.32,4.19,4.19,0,0,0,.5,0,6.48,6.48,0,0,0,.77-.09A.17.17,0,0,0,8.77,61.12Z"/><path class="cls-13" d="M10.11,60.94a1.1,1.1,0,0,0-.54,0,.16.16,0,0,0,0,.31,1.1,1.1,0,0,0,.54,0A.16.16,0,0,0,10.11,60.94Z"/><path class="cls-13" d="M21.45,60.73a26.2,26.2,0,0,0-4.06,0,20.78,20.78,0,0,0-3.7.21.06.06,0,0,0,0,.11,18.28,18.28,0,0,0,3.47.07A35.87,35.87,0,0,0,21.44,61,.14.14,0,0,0,21.45,60.73Z"/><path class="cls-13" d="M33.56,60.54a21.18,21.18,0,0,0-4.21.05c-1.69,0-3.36,0-5,.15-.07,0-.07.12,0,.13,1.56.09,3.14.17,4.71.19a21.5,21.5,0,0,0,4.54-.18A.17.17,0,0,0,33.56,60.54Z"/><path class="cls-13" d="M48.84,60a37.69,37.69,0,0,0-5.52.06,32.49,32.49,0,0,0-5.41.3c-.08,0-.09.15,0,.15,1.72,0,3.4.1,5.12,0a46.88,46.88,0,0,0,5.81-.21A.18.18,0,0,0,48.84,60Z"/><path class="cls-13" d="M57.73,59.91a24.87,24.87,0,0,0-2.59,0c-.89,0-1.81.16-2.69.14a.07.07,0,0,0,0,.14,12.16,12.16,0,0,0,2.34.07,22.48,22.48,0,0,0,3,0A.15.15,0,0,0,57.73,59.91Z"/><path class="cls-13" d="M67.39,59.84c-1.85-.34-3.75.06-5.6,0-.07,0-.08.08,0,.1a14.53,14.53,0,0,0,2.8.14,13.89,13.89,0,0,0,2.81,0A.12.12,0,0,0,67.39,59.84Z"/><path class="cls-13" d="M78.09,59.67c-2.74-.3-5.49,0-8.24-.08-.18,0-.22.27,0,.29a23.73,23.73,0,0,0,3.77.13c1.5-.1,3,0,4.51-.15A.1.1,0,0,0,78.09,59.67Z"/><path class="cls-13" d="M80.08,59.62a1.63,1.63,0,0,0-1.15-.13c-.16,0-.18.29,0,.3a4.93,4.93,0,0,0,1.08.09C80.12,59.86,80.2,59.69,80.08,59.62Z"/><path class="cls-13" d="M89,59.18a30.18,30.18,0,0,0-6.23.16s-.05.08,0,.08a32.42,32.42,0,0,0,6.23,0A.11.11,0,0,0,89,59.18Z"/><path class="cls-13" d="M92.8,59.32a1.51,1.51,0,0,0-.93-.19c-.14,0-.13.22,0,.24.29,0,.55.14.84.16C92.82,59.53,92.91,59.39,92.8,59.32Z"/></g><path class="cls-10" d="M14,74.72a21.05,21.05,0,0,1-.83-3.09,23.13,23.13,0,0,1-.09-3c0-.12-.16-.1-.19,0a10.19,10.19,0,0,0,.8,6.22C13.73,75,14,74.91,14,74.72Z"/><path class="cls-10" d="M16.44,75.47a11.68,11.68,0,0,1-1.17-3,21.74,21.74,0,0,1-.18-3.13c0-.16-.27-.16-.29,0-.17,2.21-.18,4.53,1.35,6.32C16.27,75.77,16.53,75.64,16.44,75.47Z"/><path class="cls-10" d="M18.52,74.45a17.92,17.92,0,0,1-.84-2.6,16.78,16.78,0,0,1-.15-3,.14.14,0,0,0-.28,0,8.51,8.51,0,0,0,1,5.77C18.36,74.76,18.58,74.61,18.52,74.45Z"/><path class="cls-10" d="M18.7,89.34a17.89,17.89,0,0,1-1.26-5,.08.08,0,1,0-.15,0,10.77,10.77,0,0,0,1.21,5.07C18.57,89.57,18.76,89.46,18.7,89.34Z"/><path class="cls-10" d="M20.9,88.88a18,18,0,0,1-1-3.11,9.16,9.16,0,0,0-.46-2.34.12.12,0,0,0-.22.06c.16.87.22,1.77.37,2.65A9.71,9.71,0,0,0,20.62,89,.15.15,0,0,0,20.9,88.88Z"/><path class="cls-10" d="M23.3,89.41A17.36,17.36,0,0,1,22,83.9c0-.17-.31-.18-.32,0a11.2,11.2,0,0,0,1.24,5.66C23.06,89.77,23.4,89.64,23.3,89.41Z"/><path class="cls-10" d="M24.79,82.47a10.34,10.34,0,0,1-1.15-2.89,32.81,32.81,0,0,1-.44-3.43c0-.12-.21-.13-.22,0a10.09,10.09,0,0,0,1.53,6.48C24.62,82.78,24.88,82.63,24.79,82.47Z"/><path class="cls-10" d="M26.6,82.81a25.48,25.48,0,0,1-1-3.29c-.2-1-.26-2.1-.44-3.15a.12.12,0,0,0-.24,0c.26,2.3.37,4.41,1.46,6.5A.12.12,0,0,0,26.6,82.81Z"/><path class="cls-10" d="M28.79,81.63a29.18,29.18,0,0,1-1-4.09.11.11,0,0,0-.21,0,9.51,9.51,0,0,0,1,4.21A.15.15,0,0,0,28.79,81.63Z"/><path class="cls-10" d="M29,76.43a22.06,22.06,0,0,1-.67-2.54c-.15-1-.25-2.1-.38-3.14a.13.13,0,0,0-.26,0,15.07,15.07,0,0,0,1,5.73C28.75,76.65,29,76.6,29,76.43Z"/><path class="cls-10" d="M31.59,76.48a15.67,15.67,0,0,1-1.08-3.06A18.84,18.84,0,0,0,30,70.85a.09.09,0,0,0-.18.05c.37,2,.3,4,1.47,5.76A.18.18,0,0,0,31.59,76.48Z"/><path class="cls-10" d="M32.73,70.83a.07.07,0,0,0-.14,0,43.12,43.12,0,0,0,1,5.15c0,.14.28.08.25-.07C33.58,74.24,33.21,72.5,32.73,70.83Z"/><path class="cls-10" d="M43.1,80.25a.1.1,0,0,0-.19,0,11,11,0,0,0,.2,5.13c0,.18.36.1.32-.09A16.54,16.54,0,0,1,43.1,80.25Z"/><path class="cls-10" d="M44.85,80.47c0-.18-.32-.18-.33,0a15.61,15.61,0,0,0,.61,5.81.15.15,0,0,0,.29-.08A44,44,0,0,1,44.85,80.47Z"/><path class="cls-10" d="M48.85,85.54a22,22,0,0,1-1.15-5.68c0-.18-.27-.13-.27,0a12.79,12.79,0,0,0,1.11,5.77A.17.17,0,0,0,48.85,85.54Z"/><path class="cls-10" d="M50.24,74c0-.09-.17-.09-.17,0a26.94,26.94,0,0,0,.33,6.53.14.14,0,0,0,.28,0A64.3,64.3,0,0,1,50.24,74Z"/><path class="cls-10" d="M52.73,73.43c0-.15-.2-.17-.23,0a13.72,13.72,0,0,0-.09,6.34.14.14,0,0,0,.27,0A29.21,29.21,0,0,1,52.73,73.43Z"/><path class="cls-10" d="M55.11,76.33c-.08-1.16,0-2.33,0-3.48,0-.15-.23-.14-.25,0a13.55,13.55,0,0,0,.66,7.25A.15.15,0,0,0,55.8,80,35.76,35.76,0,0,1,55.11,76.33Z"/><path class="cls-10" d="M66.1,81c.1-1.17.39-2.34.56-3.51a.11.11,0,0,0-.22,0c-.58,2.45-1.19,4.82-.57,7.32a.2.2,0,0,0,.39-.05A17.25,17.25,0,0,1,66.1,81Z"/><path class="cls-10" d="M68.5,78.61a.14.14,0,0,0-.28,0A18.06,18.06,0,0,0,68,85.2a.15.15,0,0,0,.3,0A41,41,0,0,1,68.5,78.61Z"/><path class="cls-10" d="M71.46,80.7a26.8,26.8,0,0,0,.14-3.1c0-.13-.21-.1-.21,0,0,1.12-.29,2.26-.36,3.38a13.39,13.39,0,0,0,.15,3.35.16.16,0,0,0,.31,0C71.45,83.11,71.42,81.91,71.46,80.7Z"/><path class="cls-10" d="M81.44,77.91a16.32,16.32,0,0,0-.88,6.61.12.12,0,0,0,.24,0c.08-1.1.07-2.2.21-3.3s.54-2.18.6-3.27C81.61,77.86,81.47,77.81,81.44,77.91Z"/><path class="cls-10" d="M83.59,78.25c-.37,2.37-1,4.69-.74,7.12,0,.21.37.22.38,0a36.28,36.28,0,0,1,.2-3.76c.12-1.11.39-2.21.42-3.33A.13.13,0,0,0,83.59,78.25Z"/><path class="cls-10" d="M72.56,88.54c0-.78.16-1.56.18-2.34a.08.08,0,0,0-.15,0,6.36,6.36,0,0,0-.34,2.34,9.43,9.43,0,0,0,.23,2.75c0,.18.32.15.29,0A14,14,0,0,1,72.56,88.54Z"/><path class="cls-10" d="M74.89,86.39c0-.11-.14-.14-.19,0a8,8,0,0,0-.07,5.07.14.14,0,0,0,.27-.07A12.5,12.5,0,0,1,74.89,86.39Z"/><path class="cls-10" d="M77.39,86.46a.11.11,0,0,0-.22,0,17.2,17.2,0,0,0,.1,4.7.18.18,0,0,0,.35,0C77.44,89.57,77.59,88,77.39,86.46Z"/><path class="cls-10" d="M74.31,73.31c.07-1,.31-1.9.47-2.86a.08.08,0,0,0-.16,0c-.49,2.09-1,4.08-.29,6.2,0,.12.24.06.22-.06A13.75,13.75,0,0,1,74.31,73.31Z"/><path class="cls-10" d="M77.19,73.35c0-.88.18-1.75.18-2.64,0-.13-.23-.13-.23,0-.15,2.12-.67,4.16,0,6.26.05.19.34.1.32-.09A19.76,19.76,0,0,1,77.19,73.35Z"/><path class="cls-10" d="M80.3,70.81c0-.17-.26-.21-.27,0-.11,2.08-.76,4.14-.37,6.24A.15.15,0,0,0,80,77,60.43,60.43,0,0,1,80.3,70.81Z"/><path class="cls-10" d="M31.92,65.75a19.22,19.22,0,0,1-5.35.46c-.09,0-.1.12,0,.14A9.84,9.84,0,0,0,32,66.07C32.18,66,32.11,65.71,31.92,65.75Z"/><path class="cls-10" d="M32.72,67.6c-1.91.38-4.16,1-6.12.51-.07,0-.1.1,0,.13a6.28,6.28,0,0,0,2.66.33,9.64,9.64,0,0,0,3.57-.68C33,67.82,32.89,67.56,32.72,67.6Z"/><path class="cls-10" d="M26.3,70.58a13.61,13.61,0,0,1-5.05.1c-.07,0-.11.1,0,.13a7.29,7.29,0,0,0,5.16.09C26.55,70.82,26.49,70.54,26.3,70.58Z"/><path class="cls-10" d="M26.63,73.09a21.23,21.23,0,0,1-5.1.14c-.09,0-.13.13,0,.15a9.81,9.81,0,0,0,5.24.08C27,73.4,26.84,73.06,26.63,73.09Z"/><path class="cls-10" d="M26.45,75.31a17.74,17.74,0,0,1-4.77-.12c-.09,0-.12.12,0,.15a7.28,7.28,0,0,0,4.89.24C26.69,75.53,26.61,75.3,26.45,75.31Z"/><path class="cls-10" d="M35.28,77a23,23,0,0,1-6.13.73c-.2,0-.25.3,0,.32a14,14,0,0,0,6.27-.7A.18.18,0,0,0,35.28,77Z"/><path class="cls-10" d="M34.73,79.88a18.73,18.73,0,0,1-5.49.24.14.14,0,0,0-.07.26,9.83,9.83,0,0,0,5.66-.13A.19.19,0,0,0,34.73,79.88Z"/><path class="cls-10" d="M34.55,82.58c-1.5.31-3.34,1-4.88.68a.12.12,0,0,0-.06.22c1.48.51,3.62,0,5-.49A.22.22,0,0,0,34.55,82.58Z"/><path class="cls-10" d="M29.4,84.4c-1.88,0-3.76.34-5.64-.08-.07,0-.1.09,0,.12a9.79,9.79,0,0,0,5.67.29C29.56,84.69,29.61,84.4,29.4,84.4Z"/><path class="cls-10" d="M29.9,86.07a21.23,21.23,0,0,1-5.34.2c-.13,0-.15.17,0,.2a12.7,12.7,0,0,0,5.42,0A.21.21,0,0,0,29.9,86.07Z"/><path class="cls-10" d="M29.85,87.87a16,16,0,0,1-5.38.45c-.11,0-.16.16,0,.19a9.09,9.09,0,0,0,5.5-.36C30.08,88.1,30,87.85,29.85,87.87Z"/><path class="cls-10" d="M20.25,76.93c-2,0-4,.48-6,.23-.12,0-.14.16,0,.19a12.8,12.8,0,0,0,6.12-.15C20.49,77.16,20.39,76.93,20.25,76.93Z"/><path class="cls-10" d="M20,79.71c-1.55-.21-3.1-.18-4.65-.32a.1.1,0,0,0,0,.2A31.37,31.37,0,0,0,20,80C20.16,80,20.2,79.73,20,79.71Z"/><path class="cls-10" d="M20.37,82.08a26.63,26.63,0,0,1-4.64.12.13.13,0,0,0,0,.26,9.11,9.11,0,0,0,4.75-.13A.13.13,0,0,0,20.37,82.08Z"/><path class="cls-10" d="M47.74,75.26c-2.16.07-4.27.15-6.43,0a.08.08,0,0,0,0,.16,17.43,17.43,0,0,0,6.48,0A.13.13,0,0,0,47.74,75.26Z"/><path class="cls-10" d="M49,77.45c-1.38,0-2.76.18-4.15.23a33.56,33.56,0,0,1-3.87-.2.09.09,0,0,0,0,.18,22.39,22.39,0,0,0,8.08.08A.15.15,0,0,0,49,77.45Z"/><path class="cls-10" d="M48.2,79.36a39,39,0,0,1-7.4.14.08.08,0,0,0,0,.16,13.44,13.44,0,0,0,3.23.21,23.84,23.84,0,0,0,4.22-.31A.1.1,0,0,0,48.2,79.36Z"/><path class="cls-10" d="M55,68.18c-1,0-1.89.1-2.85.08s-1.81-.16-2.69-.26a.06.06,0,0,0,0,.12,13.08,13.08,0,0,0,5.56.36C55.11,68.44,55.13,68.18,55,68.18Z"/><path class="cls-10" d="M54.82,69.79a21.65,21.65,0,0,1-5.63-.21c-.08,0-.12.12,0,.16a11.13,11.13,0,0,0,5.7.28A.12.12,0,0,0,54.82,69.79Z"/><path class="cls-10" d="M55.3,71.26a19.61,19.61,0,0,1-7.44.26c-.09,0-.1.1,0,.12a14.09,14.09,0,0,0,7.54-.09C55.54,71.5,55.46,71.23,55.3,71.26Z"/><path class="cls-10" d="M72.87,71.5a21.92,21.92,0,0,1-4,.16,25.57,25.57,0,0,1-3.48-.6.1.1,0,0,0-.06.19,12.78,12.78,0,0,0,7.56.57A.16.16,0,0,0,72.87,71.5Z"/><path class="cls-10" d="M72.09,73.83A20.54,20.54,0,0,1,66,73.57c-.1,0-.14.15,0,.18a11.27,11.27,0,0,0,6.14.42A.17.17,0,0,0,72.09,73.83Z"/><path class="cls-10" d="M73.16,75.89a15.33,15.33,0,0,1-7.67.36c-.18,0-.2.23,0,.27a12.2,12.2,0,0,0,7.85-.31C73.5,76.12,73.37,75.83,73.16,75.89Z"/><path class="cls-10" d="M87.5,70.63a38.5,38.5,0,0,1-5.26-.21c-.12,0-.14.16,0,.19A19.06,19.06,0,0,0,87.5,71C87.7,71,87.7,70.63,87.5,70.63Z"/><path class="cls-10" d="M86.34,72.72a14.52,14.52,0,0,1-4,.07.11.11,0,0,0,0,.22,9.9,9.9,0,0,0,4,0A.16.16,0,0,0,86.34,72.72Z"/><path class="cls-10" d="M85.86,75.46a10.55,10.55,0,0,1-4.43.33c-.11,0-.16.15-.05.19a6.3,6.3,0,0,0,4.56-.21C86.1,75.7,86,75.43,85.86,75.46Z"/><path class="cls-10" d="M79.05,77.92a23.7,23.7,0,0,1-5.19,0c-.1,0-.15.15,0,.18a9.16,9.16,0,0,0,2.45.26,15.73,15.73,0,0,0,2.83-.1A.18.18,0,0,0,79.05,77.92Z"/><path class="cls-10" d="M78.58,81a31.44,31.44,0,0,1-5.57-.5c-.15,0-.21.21-.07.25a17,17,0,0,0,5.64.6C78.78,81.38,78.78,81,78.58,81Z"/><path class="cls-10" d="M78.43,84.13A16.85,16.85,0,0,1,73,83.75a.13.13,0,0,0-.07.25,11.67,11.67,0,0,0,5.56.49A.18.18,0,0,0,78.43,84.13Z"/><g class="cls-14"><path class="cls-8" d="M54.67,68.63c.25,0,.5.37.24.58a3.7,3.7,0,0,1-2.15.49,7.84,7.84,0,0,1-2.84-.46.3.3,0,0,1-.14-.1c-.34-.13-.16-.69.24-.63a16.43,16.43,0,0,0,2.8.22A14.34,14.34,0,0,1,54.67,68.63Z"/><path class="cls-8" d="M52.08,80.09a.31.31,0,0,1-.13.36.33.33,0,0,1-.6.06,8,8,0,0,1-.8-4.15c0-.69,0-2.18.77-2.49a.37.37,0,0,1,.33.09c.38.33.26,1.1.2,1.54A10.77,10.77,0,0,0,52.08,80.09Z"/><path class="cls-8" d="M50.14,71.42c-.53,0-1.42-.34-1.58-.93-.21-.23.1-.67.44-.5,1.61.78,3.64.57,5.36.42.39,0,.45.56.09.66A12.77,12.77,0,0,1,50.14,71.42Z"/><path class="cls-8" d="M53.72,73.52a.34.34,0,0,1,.56.15,3,3,0,0,1-.18,1.86,7.78,7.78,0,0,0,0,2.68c.14.65.41,1.22.57,1.85a.34.34,0,0,1-.5.38c-1.06-.47-1.37-2.09-1.4-3.12S52.8,74.33,53.72,73.52Z"/><path class="cls-8" d="M32.4,72.68c.06.7.13,1.39.24,2.09a1.89,1.89,0,0,1-.06,1,.34.34,0,0,1-.49.2c-1-.64-1.11-2.35-1.15-3.49s0-2,.68-1.88S32.35,72.15,32.4,72.68Z"/><path class="cls-8" d="M33.67,79.57a9.37,9.37,0,0,1-4-.17.34.34,0,0,1-.18-.1.62.62,0,0,1-.14-.14.43.43,0,0,1,.12-.54.1.1,0,0,1,.05,0,.27.27,0,0,1,.28-.16,16.08,16.08,0,0,0,2.86-.14c.84-.09,1.58-.38,2.39-.5a.35.35,0,0,1,.43.32C35.56,79,34.4,79.41,33.67,79.57Z"/><path class="cls-8" d="M35,81.09c-.72,2-4.05,1.7-5.34.57a.33.33,0,0,1,.05-.51.31.31,0,0,1,.4-.27,6.55,6.55,0,0,0,2.82.14c.45-.06,1.48-.59,1.91-.31A.34.34,0,0,1,35,81.09Z"/><path class="cls-8" d="M28.49,73.08c0-.66-.2-1.63.33-2.13a.33.33,0,0,1,.41,0c.57.38.4,1.47.46,2,.1.92.64,1.92.48,2.83a.29.29,0,0,1-.28.24.26.26,0,0,1-.36-.07A5.05,5.05,0,0,1,28.49,73.08Z"/><path class="cls-8" d="M27,66.64a9.4,9.4,0,0,0,2.85.21,9.42,9.42,0,0,1,1.83-.11.34.34,0,0,1,.15.56,4.48,4.48,0,0,1-3.22.71,3,3,0,0,1-1.93-.74.32.32,0,0,1-.06-.15A.33.33,0,0,1,27,66.64Z"/><path class="cls-8" d="M27.51,82.27c-1.54.42-1.77-4.42-1.68-5.12a.35.35,0,0,1,.33-.31.32.32,0,0,1,.51-.06,1.31,1.31,0,0,1,.39.91,13.79,13.79,0,0,0,.46,2.47C27.66,80.58,28.32,82.05,27.51,82.27Z"/><path class="cls-8" d="M26.74,74.39a1.51,1.51,0,0,1-1,.7,4.25,4.25,0,0,1-4.12-.7.32.32,0,0,1,.16-.55.27.27,0,0,1,.28-.06,11.39,11.39,0,0,0,4.43.11C26.71,73.85,26.85,74.19,26.74,74.39Z"/><path class="cls-8" d="M26.2,72.23a4.92,4.92,0,0,1-4.56.46c-.29-.15-.77-.6-.3-.88h0a.37.37,0,0,1,.42-.33,27.67,27.67,0,0,0,4.27.14A.33.33,0,0,1,26.2,72.23Z"/><path class="cls-8" d="M20.38,77.77a.34.34,0,0,1,.34.33c.1,1.3-2.17,1.18-2.94,1.14-.6,0-2.51,0-2.83-.77a.34.34,0,0,1,.28-.6C17,78.28,18.66,77.76,20.38,77.77Z"/><path class="cls-8" d="M15.48,69.84a.18.18,0,0,1,.06-.09,1.17,1.17,0,0,1,.15-.27.68.68,0,0,1,.43-.31.25.25,0,0,1,.39.11,3.27,3.27,0,0,1,.14,1.21A18.43,18.43,0,0,0,17,72.57c.09.36.5,1.38.12,1.7s-.62.13-.88-.18A4.53,4.53,0,0,1,15.48,69.84Z"/><path class="cls-8" d="M13.92,74.09c-.36-.34-.42-1.18-.5-1.64a7.28,7.28,0,0,1,0-2.55.14.14,0,0,1,0-.06.91.91,0,0,1,.44-.71c.73-.38.71,2.88.72,3.12S14.82,75,13.92,74.09Z"/><path class="cls-8" d="M19.87,89a.34.34,0,0,1-.57.24c-.92-.93-1.12-2.43-1.31-3.74,0-.17-.06-.35-.08-.53,0,0,0,0,0-.08v-.06c0-.51.1-.92.57-.92.74,0,.69,1.25.76,1.7A15.46,15.46,0,0,1,19.87,89Z"/><path class="cls-8" d="M19.91,81.48c-1.24.79-5,.7-5.6-.94a.31.31,0,0,1,.14-.36c0-.22.13-.47.4-.36,1.55.61,3.16.26,4.76.49C20.28,80.4,20.58,81.06,19.91,81.48Z"/><path class="cls-8" d="M21.35,88.82a6.64,6.64,0,0,1-1.2-4.17,2.93,2.93,0,0,1,.11-.9c.11-.39.45-.89.93-.61s.3,1,.3,1.51a10,10,0,0,0,.18,2.62,5.41,5.41,0,0,1,.25,1.31A.34.34,0,0,1,21.35,88.82Z"/><path class="cls-8" d="M23.83,77.06a.49.49,0,0,1,.69-.13,2.63,2.63,0,0,1,.31,1.47c.07,1,.39,2,.51,2.95.05.34-.47.44-.62.17A7.11,7.11,0,0,1,23.83,77.06Z"/><path class="cls-8" d="M24.52,84.83c1.23.62,2.7.16,4,.31.23,0,.45.27.29.51-.49.7-1.44.54-2.2.54s-1.95,0-2.48-.76a.26.26,0,0,1,0-.08C23.86,85.12,24.17,84.66,24.52,84.83Z"/><path class="cls-8" d="M24.07,87.14a.34.34,0,0,1,.42-.41l.19.07a.33.33,0,0,1,.22,0,21,21,0,0,0,3.8.3.34.34,0,0,1,.24.57c-.69.7-2.07.54-3,.48S24.38,88,24.07,87.14Z"/><path class="cls-8" d="M70.38,84c0,.34.06.91-.44.91s-.85-.79-1-1.14a5.67,5.67,0,0,1-.29-3.16,7.19,7.19,0,0,1,.43-1.76c.17-.44.51-1.36,1.14-1.29a.49.49,0,0,1,.38.34,2.24,2.24,0,0,1,.13.92l-.09.54c-.08.54-.15,1.09-.21,1.63a13.57,13.57,0,0,0-.09,1.91C70.32,83.3,70.35,83.67,70.38,84Z"/><path class="cls-8" d="M69.15,76.25c-1.08,0-3.5,0-3.7-1.49a.36.36,0,0,1,.12-.34.31.31,0,0,1,.41-.28,10.34,10.34,0,0,0,3.66.65,11.11,11.11,0,0,1,2.21-.18.32.32,0,0,1,.24.32C72,76.29,70.1,76.25,69.15,76.25Z"/><path class="cls-8" d="M67.48,83.62l.06,1a.34.34,0,0,1-.58.24,4.6,4.6,0,0,1-.58-3.61c.15-.86.16-2.5.89-3.11a.34.34,0,0,1,.57.24,11.7,11.7,0,0,1-.28,1.84,2.83,2.83,0,0,0,0,.29c0,.47-.1.94-.11,1.4A16.66,16.66,0,0,0,67.48,83.62Z"/><path class="cls-8" d="M69.36,73.65c-1.13-.05-2.57-.14-3.35-1.1a.27.27,0,0,1-.07-.14c-.18-.23,0-.65.33-.53a10.18,10.18,0,0,0,3.37.6,23.73,23.73,0,0,0,2.67-.32c.27,0,.39.3.29.5C72,73.77,70.42,73.71,69.36,73.65Z"/><path class="cls-8" d="M73.7,91.55a3.63,3.63,0,0,1-1-3.15c.07-.77.11-2.15.87-2.6a.35.35,0,0,1,.5.2,3.11,3.11,0,0,1,0,.61.32.32,0,0,1,.08.29A6.72,6.72,0,0,0,74,89.54a6.6,6.6,0,0,1,.23,1.72C74.2,91.49,73.92,91.72,73.7,91.55Z"/><path class="cls-8" d="M76.7,89.84a4.75,4.75,0,0,1,0,1.19c-.09.31-.33.67-.71.48C75,91,74.81,88.64,74.92,87.68a3.23,3.23,0,0,1,.88-2.2.51.51,0,0,1,.79.11A3.13,3.13,0,0,1,76.82,87a.31.31,0,0,1,0,.19A14.46,14.46,0,0,0,76.7,89.84Z"/><path class="cls-8" d="M77.19,83.52a6.42,6.42,0,0,1-3.31-.47c-1-.26-1.79-.72-1.18-1.43a.33.33,0,0,1,.33-.08l.43.15a10.63,10.63,0,0,0,2.65.23,15.68,15.68,0,0,1,2.65,0,.33.33,0,0,1,.24.23C79.17,83,77.83,83.38,77.19,83.52Z"/><path class="cls-8" d="M77.23,80.57a6.73,6.73,0,0,1-4-1.16.27.27,0,0,1-.09-.3.33.33,0,0,1,.38-.48,13.47,13.47,0,0,0,3.3.27c.86,0,1.77-.11,2.61,0a.34.34,0,0,1,.24.33C79.68,80.27,78,80.59,77.23,80.57Z"/><path class="cls-8" d="M76.5,75.31c.09.42.12,1.13-.41,1.28-1.23.34-1.48-2.73-1.48-3.33s.32-3.8,1.61-3.05a.73.73,0,0,1,.36.62.28.28,0,0,1,.13.36A7.79,7.79,0,0,0,76.5,75.31Z"/><path class="cls-8" d="M79.08,75.49c0,.37.15.79-.12,1.1a.32.32,0,0,1-.4,0c-.78-.4-.92-1.57-1-2.34a7.25,7.25,0,0,1,.45-3.67.49.49,0,0,1,.56-.27.35.35,0,0,1,.37,0c.63.25.41,1.53.19,2.45A12.3,12.3,0,0,0,79.08,75.49Z"/><path class="cls-8" d="M82.89,78.35a27.24,27.24,0,0,0-.31,4.78c0,.53,0,1.61-.64,1.79a.33.33,0,0,1-.33-.08,4.77,4.77,0,0,1-.48-3A14.53,14.53,0,0,1,82,78.32a.5.5,0,0,1,.88,0Z"/><path class="cls-8" d="M87.72,73.63c-.94,1.87-5.32,2.48-6.37.41l0-.1s0,0,0,0a.34.34,0,0,1,0-.1v0a.51.51,0,0,1,.44-.55h.09a.67.67,0,0,1,.39.08,9.16,9.16,0,0,0,5.16-.17C87.64,73,87.84,73.38,87.72,73.63Z"/><path class="cls-8" d="M82,71.27a.33.33,0,0,1,.41-.31,18.44,18.44,0,0,0,4.92.23.34.34,0,0,1,.24.57,4.89,4.89,0,0,1-5.57,0A.31.31,0,0,1,82,71.27Z"/><path class="cls-8" d="M47.88,85.7c.12.4-.16,1-.66.85-1.84-.5-2.2-3.38-2.06-4.93.06-.59.17-1.39.8-1.65.43-.18,1-.17,1.15.38a3.61,3.61,0,0,1,0,1.6A9.58,9.58,0,0,0,47.88,85.7Z"/><path class="cls-8" d="M43.72,79.23A4.43,4.43,0,0,1,41,78.55a.29.29,0,0,1-.09-.28c-.09-.23.08-.55.38-.44,2.23.8,4.41.28,6.7.3a.34.34,0,0,1,.09.66A12.73,12.73,0,0,1,43.72,79.23Z"/><path class="cls-8" d="M44.29,81.59a14.34,14.34,0,0,0,.34,4c0,.29-.32.63-.56.33a4.7,4.7,0,0,1-.81-2.64,6,6,0,0,1,.13-2.6.46.46,0,0,1,.87,0,1.36,1.36,0,0,1,0,.8A.33.33,0,0,1,44.29,81.59Z"/><path class="cls-8" d="M41.35,76h0a.35.35,0,0,1,.18,0,33.46,33.46,0,0,0,6.25,0,.34.34,0,0,1,.33.34c0,1.09-1.8,1-2.53,1-1.56.06-3.23.38-4.51-.74A.34.34,0,0,1,41.35,76Z"/></g><g class="cls-15"><path class="cls-8" d="M8.68,64.8c1.2,4.8,4.3,16.83,6.17,21.38,2.36,5.73,1.26,8.24,9,9,6.69.67,20.46.36,26.28.21,5.82.15,19.59.46,26.28-.21,7.77-.79,6.68-3.3,9-9,1.87-4.55,5.21-18.45,6.42-23.25ZM82.82,85.86a8.4,8.4,0,0,1-1.4,1.32c-2.73,2-6.42,2.64-9.81,2.91-1.94.15-3.88.17-5.83.19-6.83.09-13.64.66-20.47.76q-4.81.08-9.65,0c-5-.1-10.53.42-15.18-1.76a13,13,0,0,1-6.08-6.78c-1.82-4.08-5.55-14.44,3-14,2.4.13,4.76.16,7.16.18,7.4.06,14.79.26,22.19.11q3.21-.06,6.42-.22c7.56-.39,18.54-1.08,26.11-1.29,2.26-.06,5.1-.49,7.22.41C90.8,69.54,84.41,84,82.82,85.86Z"/></g><path class="cls-16" d="M36.3,70.28c-3.27,0-6.54,0-9.8,0-2.39,0-5.48-.48-7.74.31-2.89,1-1.16,4.5-.34,6.15a9.62,9.62,0,0,0,3.95,3.92C27,83.33,33.26,84,38.84,84.26c4.59.21,9.19.12,13.78-.11,6.07-.29,12.34-.2,18.27-1.44a19.33,19.33,0,0,0,13-9.37c.59-1.12,2-3.35.17-4.18-2-.91-24.41.86-33.06,1Q43.63,70.21,36.3,70.28Z"/><g class="cls-17"><path class="cls-8" d="M83.28,90c-5.26,3.84-23,3.14-26.1,3.21-6.29.14-12.58.17-18.87.14-3.17,0-15-.67-17.66-1.21a9.05,9.05,0,0,1-4.57-2.19c1,3.14,1.9,4.69,7.71,5.28,6.68.67,20.45.36,26.27.21,5.82.15,19.6.46,26.28-.21,6.34-.64,6.78-2.43,8-6.17A8.59,8.59,0,0,1,83.28,90Z"/><path class="cls-8" d="M15.44,65.64c4.4-.39,8.86-.11,13.27-.13,6.34,0,12.68-.29,19-.32s12.75.11,19.12,0,12.58-.74,18.83-.41c1.29.06,3.83,0,4.68,1.26a2.34,2.34,0,0,1,.36,1.19l1.06-4.27L8.58,64.8l.65,2.55a5,5,0,0,1,1.47-.71A14.29,14.29,0,0,1,15.44,65.64Z"/></g><path class="cls-13" d="M36.61,89.66a2.15,2.15,0,0,1-2.5-2.43,3.12,3.12,0,0,1,.36-1.51,6.31,6.31,0,0,1,1-1.32l5.24-5.48a11.25,11.25,0,0,0,1.7-2.16A3.75,3.75,0,0,0,42.9,75a2.07,2.07,0,0,0-.76-1.73A3.51,3.51,0,0,0,40,72.64a6,6,0,0,0-1.51.21,9.15,9.15,0,0,0-1.77.69,2.15,2.15,0,0,1-1.42.21,2.07,2.07,0,0,1-1.1-.65,2.28,2.28,0,0,1-.34-2.49,2.31,2.31,0,0,1,1.11-1.07,10.93,10.93,0,0,1,2.86-1.1,13.31,13.31,0,0,1,3-.35,10.33,10.33,0,0,1,4.14.73,5.39,5.39,0,0,1,2.54,2.12,6.21,6.21,0,0,1,.87,3.35,8.19,8.19,0,0,1-.38,2.48,9.18,9.18,0,0,1-1.2,2.41,18.37,18.37,0,0,1-2.21,2.6L39.68,86.6V85.18h7.4a2.32,2.32,0,0,1,1.71.57,2.26,2.26,0,0,1,.57,1.66,2,2,0,0,1-2.28,2.25Z"/><path class="cls-13" d="M59.35,90a11.82,11.82,0,0,1-4.42-.75,6.32,6.32,0,0,1-2.86-2.12,5.46,5.46,0,0,1-1-3.29,5.73,5.73,0,0,1,.61-2.71,5.31,5.31,0,0,1,1.7-1.91,5.37,5.37,0,0,1,2.44-.89v.87a5.27,5.27,0,0,1-4.21-5.29,5.1,5.1,0,0,1,1-3.13,6.06,6.06,0,0,1,2.69-2,12.19,12.19,0,0,1,8.2,0,6.14,6.14,0,0,1,2.68,2,5.16,5.16,0,0,1,.94,3.13,5.8,5.8,0,0,1-.52,2.48,5,5,0,0,1-1.46,1.85,4.57,4.57,0,0,1-2.17.9v-.81a5.3,5.3,0,0,1,4.69,5.51,5.46,5.46,0,0,1-1,3.29,6.37,6.37,0,0,1-2.84,2.12A11.82,11.82,0,0,1,59.35,90Zm0-4.18a4,4,0,0,0,2.42-.61,2.37,2.37,0,0,0,0-3.6,5.18,5.18,0,0,0-4.84,0,2.37,2.37,0,0,0,0,3.6A4,4,0,0,0,59.35,85.84Zm0-9a3.57,3.57,0,0,0,1.47-.27,2,2,0,0,0,.92-.8,2.34,2.34,0,0,0,.32-1.22,2.09,2.09,0,0,0-.72-1.67,3,3,0,0,0-2-.62,2.88,2.88,0,0,0-2,.62,2.34,2.34,0,0,0,0,3.34A2.88,2.88,0,0,0,59.35,76.85Z"/></g></g></svg>