<svg xmlns="http://www.w3.org/2000/svg" viewBox="0 0 105.29 104.84"><defs><style>.cls-1{isolation:isolate;}.cls-2{fill:#ed7d03;}.cls-3{fill:#ff8c03;}.cls-4{fill:#fcbc08;}.cls-5{fill:#f28106;opacity:0.7;}.cls-6{fill:#7c6a13;}.cls-7{fill:#937b18;}.cls-8{fill:#b86313;}.cls-11,.cls-9{fill:#cc7917;}.cls-10{fill:#9e4727;}.cls-11,.cls-12,.cls-17{opacity:0.5;}.cls-11,.cls-15,.cls-17{mix-blend-mode:multiply;}.cls-13,.cls-16{fill:#fff;}.cls-14,.cls-15{opacity:0.3;}.cls-14{mix-blend-mode:screen;}.cls-16{opacity:0.1;}</style></defs><title>orange24</title><g class="cls-1"><g id="Layer_1" data-name="Layer 1"><path class="cls-2" d="M80.12,46.83c-4.72-1.6-9.71-5.65-10.85-10.74H25V66.3H82.36V47.44A21.13,21.13,0,0,1,80.12,46.83Z"/><path class="cls-3" d="M67.57,12.92c3,2.19,6.91,9.14,2.29,14.85s-11.37,6.05-16.46,2.7A11.49,11.49,0,0,1,52,12.33C57.12,7.44,63.07,9.61,67.57,12.92Z"/><path class="cls-4" d="M55.08,12.1h0Z"/><path class="cls-4" d="M55.78,12.82c.35-.16.74-.52.41-.84s-.78,0-1.09.12C54.66,12.5,54.84,13.28,55.78,12.82Z"/><path class="cls-4" d="M55.1,12.1l.53-.21A.82.82,0,0,0,55.1,12.1Z"/><path class="cls-4" d="M54.15,13.63c.13-.1.31-.3.13-.44a.22.22,0,0,0-.33.07.44.44,0,0,0-.22.29C53.7,13.84,54,13.73,54.15,13.63Z"/><path class="cls-4" d="M56.43,13.45a.35.35,0,0,0-.33,0c-.15,0-.35.08-.38.21a.25.25,0,0,0,0,.08l0,0,0,0c0,.15.39,0,.51,0S56.7,13.59,56.43,13.45Z"/><path class="cls-4" d="M55.67,13.78h0Z"/><path class="cls-4" d="M57.17,12.66c-.16.05-.32.22-.24.36s.44.09.57,0C58,12.76,57.35,12.55,57.17,12.66Z"/><path class="cls-4" d="M57.79,11.74c-.1,0-.29-.06-.37,0a.14.14,0,0,0,0,.18c0,.1.18.19.25.23s.91.32,1,.06S58,11.77,57.79,11.74Z"/><path class="cls-4" d="M57,11.22c.16.08.72.06.77-.16s-.3-.28-.45-.26a.61.61,0,0,0-.24.14C56.89,11,56.78,11.12,57,11.22Z"/><path class="cls-4" d="M54.25,12.55c.29-.22,0-.34-.23-.3h0c-.13,0-.46.14-.37.32S54.13,12.63,54.25,12.55Z"/><path class="cls-4" d="M53,13.93c.1-.13.44-.67,0-.69-.06,0-.13,0-.19.1a1.15,1.15,0,0,0-.39.53C52.35,14.37,52.84,14.15,53,13.93Z"/><path class="cls-4" d="M55.08,14.08a.76.76,0,0,0-.51,0,1,1,0,0,0-.66.52c-.13.52.78.14,1,.08S55.5,14.24,55.08,14.08Z"/><path class="cls-4" d="M56.6,14.49c-.14,0-.3.17-.3.29s.52.18.67.11C57.53,14.63,56.8,14.38,56.6,14.49Z"/><path class="cls-4" d="M60.19,11.61a.23.23,0,0,0-.25.1.69.69,0,0,0,1,0A.57.57,0,0,0,60.19,11.61Z"/><path class="cls-4" d="M58.71,13c.31.11,1.16.16,1.23-.28a.75.75,0,0,0-.68-.08C59,12.58,58.71,12.67,58.71,13Z"/><path class="cls-4" d="M59.32,10.65a.44.44,0,0,0-.62-.06.28.28,0,0,0-.15.18A.59.59,0,0,0,59.32,10.65Z"/><path class="cls-4" d="M61.63,12.48c-.62,0,.18.81.53.55S61.88,12.31,61.63,12.48Z"/><path class="cls-4" d="M52.7,15.07c-.19-.15-.36,0-.47.18-.42.27-.92.91-.52,1.06S52.69,15.42,52.7,15.07Z"/><path class="cls-4" d="M51.55,14.25c-.54.1-.29,1,.23.38C52.1,14.25,51.77,14.13,51.55,14.25Z"/><path class="cls-4" d="M54.62,15.9a.28.28,0,0,0-.2.24c.21.15.74.16.88-.11S54.8,15.59,54.62,15.9Z"/><path class="cls-4" d="M59.41,14.42l0-.05a.26.26,0,0,0,0,.11c0,.06,0,.1,0,.12.11.3.73.31.61-.07S59.56,14.28,59.41,14.42Z"/><path class="cls-4" d="M65,13.63c-.36-.5-1.12,0-.64.16C64.61,14,65.33,14.13,65,13.63Z"/><path class="cls-4" d="M52,18.42l.08-.13a.9.9,0,0,0-.4.63c.21.06.85-.36.83-.64C52.51,17.85,52.21,18.15,52,18.42Z"/><path class="cls-4" d="M57.7,17c.08.1.14.09.21.05.26,0,.74,0,.54-.31S57.77,16.78,57.7,17Z"/><path class="cls-4" d="M49.86,16.72a.41.41,0,0,0,0,.22c.32.11,1.13,0,.87-.51S50,16.35,49.86,16.72Z"/><path class="cls-4" d="M51,15.36h0a.27.27,0,0,0-.33.26.4.4,0,0,0,.56-.21A.36.36,0,0,0,51,15.36Z"/><path class="cls-5" d="M52,26.68c-1.17.86,4.8,5.2,8.69,5.05a11.47,11.47,0,0,0,9.4-6c1-2.15.67-8.23-.62-7.81-.45.15.11,2.22-1.78,5.35-1.65,2.74-4.47,5.45-8.21,5.26C54.4,28.28,52.81,26.11,52,26.68Z"/><path class="cls-6" d="M64.85,11.62a.55.55,0,0,0-.48.84c.32.8,2.27,2.1,2.83,1.88s.58-.87-.24-1.5A4.75,4.75,0,0,0,64.85,11.62Z"/><path class="cls-6" d="M65.87,12.69s2.26-2.34,2.9-3.22a39.9,39.9,0,0,0,2.14-4.22s.2-.3.48-.25.2.47.2.47S70,8.7,69.37,9.59c-1.3,1.8-3,3.77-3,3.77Z"/><path class="cls-6" d="M69.81,8.29c-.14,0-3.73-.48-3.73-.48L65.94,8l1.85.3,1.86.31Z"/><path class="cls-6" d="M62,12.49c-3.86,1-9.55-1.77-9.55-1.77S56.29,6.29,59.55,6s8.93,2.27,8.93,2.27A13.43,13.43,0,0,1,62,12.49Z"/><path class="cls-7" d="M64.88,11.86a.8.8,0,0,0-.08.79,4.16,4.16,0,0,0,1.4,1.12l.09-.71s-.3-.2-.33-.38a.41.41,0,0,1,0-.27Z"/><path class="cls-7" d="M67.22,8.32a30.48,30.48,0,0,0-6.46.06c-3,.43-7.51,1.87-7.46,2.07s5-1.64,7.37-1.8,6.73,0,6.73,0Z"/><path class="cls-7" d="M65.71,8.43a3.61,3.61,0,0,1-.63,1.18A8,8,0,0,0,64,11.29a10.55,10.55,0,0,0,1.25-1.57c.35-.52.81-1.26.81-1.26Z"/><path class="cls-7" d="M62.71,8.45a5.29,5.29,0,0,1-.66,1.92c-.66,1.36-.93,1.75-.77,1.78s.66-1,1-1.74.85-2,.85-2Z"/><path class="cls-7" d="M59.79,8.73a3.65,3.65,0,0,1-.23,1.42c-.29,1-.66,1.57-.52,1.64s.48-.86.68-1.59.5-1.62.5-1.62Z"/><path class="cls-7" d="M56.66,9.47a2.39,2.39,0,0,1-.16.84c-.19.52-.48,1-.39,1a1.84,1.84,0,0,0,.54-.92c.13-.46.27-1,.27-1Z"/><path class="cls-7" d="M66.06,8.35a4.38,4.38,0,0,0-1.13-1.09,3.41,3.41,0,0,0-1.46-.59c-.07.07.83.33,1.15.53a12.62,12.62,0,0,1,1.19,1.14Z"/><path class="cls-7" d="M63,8.26A2.91,2.91,0,0,0,62.06,7,4.56,4.56,0,0,0,60,6.23c-.19.07,1.5.49,1.89.87a4.1,4.1,0,0,1,.69,1.2Z"/><path class="cls-7" d="M60.22,8.58a6.54,6.54,0,0,0-1.38-1.1,6.39,6.39,0,0,0-1.66-.42c-.2,0,1.27.33,1.69.62a9.06,9.06,0,0,1,1,1Z"/><path class="cls-7" d="M56.65,9.38s0-.24-.73-.5-1.06-.43-.92-.43a4.69,4.69,0,0,1,.91.24A5.66,5.66,0,0,1,57,9.3Z"/><path class="cls-3" d="M47.83,14c3,2.2,6.91,9.14,2.29,14.85s-11.38,6.06-16.47,2.7a11.47,11.47,0,0,1-1.42-18.13C37.37,8.55,43.32,10.72,47.83,14Z"/><path class="cls-4" d="M35.34,13.22h0Z"/><path class="cls-4" d="M36,13.94c.35-.17.74-.53.41-.85s-.77,0-1.09.12C34.92,13.61,35.1,14.39,36,13.94Z"/><path class="cls-4" d="M35.35,13.21l.54-.21A.83.83,0,0,0,35.35,13.21Z"/><path class="cls-4" d="M34.4,14.74c.13-.1.31-.3.13-.44a.22.22,0,0,0-.33.07.44.44,0,0,0-.22.29C34,15,34.26,14.84,34.4,14.74Z"/><path class="cls-4" d="M36.68,14.56a.35.35,0,0,0-.33,0c-.15,0-.35.08-.38.21a.28.28,0,0,0,0,.08l0,0,0,0c0,.14.38,0,.5,0S37,14.71,36.68,14.56Z"/><path class="cls-4" d="M35.92,14.89l0,0Z"/><path class="cls-4" d="M37.42,13.78c-.15,0-.32.21-.24.36s.44.09.57,0C38.25,13.88,37.6,13.67,37.42,13.78Z"/><path class="cls-4" d="M38,12.85c-.1,0-.29-.06-.37,0a.15.15,0,0,0,0,.18c0,.1.18.2.25.23s.91.33,1,.07S38.23,12.88,38,12.85Z"/><path class="cls-4" d="M37.21,12.33c.16.09.72.07.78-.16s-.31-.28-.45-.26a.71.71,0,0,0-.25.14C37.14,12.12,37,12.24,37.21,12.33Z"/><path class="cls-4" d="M34.5,13.66c.29-.22,0-.34-.22-.3h0c-.13,0-.46.15-.37.33S34.39,13.74,34.5,13.66Z"/><path class="cls-4" d="M33.28,15c.11-.12.44-.67.06-.69a.3.3,0,0,0-.2.1,1.06,1.06,0,0,0-.38.53C32.61,15.49,33.09,15.26,33.28,15Z"/><path class="cls-4" d="M35.33,15.19a.8.8,0,0,0-.5,0,1,1,0,0,0-.67.52c-.13.52.78.15,1,.08S35.75,15.35,35.33,15.19Z"/><path class="cls-4" d="M36.85,15.6c-.14.05-.3.17-.3.29s.53.18.67.11C37.78,15.74,37.05,15.49,36.85,15.6Z"/><path class="cls-4" d="M40.44,12.72a.25.25,0,0,0-.25.1.69.69,0,0,0,1,0A.57.57,0,0,0,40.44,12.72Z"/><path class="cls-4" d="M39,14.06c.32.11,1.17.17,1.23-.27a.73.73,0,0,0-.68-.09C39.25,13.69,39,13.78,39,14.06Z"/><path class="cls-4" d="M39.58,11.76A.46.46,0,0,0,39,11.7a.28.28,0,0,0-.15.18A.6.6,0,0,0,39.58,11.76Z"/><path class="cls-4" d="M41.89,13.59c-.63,0,.18.81.53.55S42.14,13.43,41.89,13.59Z"/><path class="cls-4" d="M33,16.18c-.19-.15-.35,0-.46.18-.42.27-.93.91-.53,1.06S32.94,16.53,33,16.18Z"/><path class="cls-4" d="M31.8,15.36c-.54.1-.28,1,.23.39C32.35,15.36,32,15.24,31.8,15.36Z"/><path class="cls-4" d="M34.87,17a.27.27,0,0,0-.19.25c.2.14.73.15.87-.11S35.05,16.7,34.87,17Z"/><path class="cls-4" d="M39.67,15.53l0,0a.45.45,0,0,0,0,.11c0,.05,0,.1,0,.11.11.3.73.31.61-.06S39.81,15.39,39.67,15.53Z"/><path class="cls-4" d="M45.22,14.75c-.36-.51-1.11,0-.64.15C44.86,15.11,45.58,15.24,45.22,14.75Z"/><path class="cls-4" d="M32.28,19.53l.07-.13A.9.9,0,0,0,32,20c.22.05.85-.37.83-.65S32.46,19.26,32.28,19.53Z"/><path class="cls-4" d="M38,18.12a.16.16,0,0,0,.21.05c.26,0,.75,0,.54-.32S38,17.9,38,18.12Z"/><path class="cls-4" d="M30.12,17.84a.51.51,0,0,0,0,.22c.32.11,1.14,0,.87-.51S30.21,17.46,30.12,17.84Z"/><path class="cls-4" d="M31.23,16.48h0a.26.26,0,0,0-.33.26.39.39,0,0,0,.55-.21A.33.33,0,0,0,31.23,16.48Z"/><path class="cls-5" d="M32.28,27.79c-1.17.86,4.81,5.2,8.69,5.05a11.45,11.45,0,0,0,9.4-6c1-2.14.67-8.23-.61-7.81-.46.16.1,2.22-1.78,5.35-1.66,2.74-4.48,5.45-8.22,5.27C34.65,29.39,33.06,27.23,32.28,27.79Z"/><path class="cls-6" d="M45.1,12.74a.54.54,0,0,0-.48.83c.32.8,2.27,2.1,2.83,1.88s.59-.87-.23-1.49A4.64,4.64,0,0,0,45.1,12.74Z"/><path class="cls-6" d="M46.12,13.81s2.26-2.34,2.9-3.22a39.83,39.83,0,0,0,2.14-4.23s.2-.3.48-.24.2.46.2.46-1.58,3.23-2.22,4.12c-1.3,1.81-3,3.77-3,3.77Z"/><path class="cls-6" d="M50.06,9.4c-.14,0-3.73-.47-3.73-.47l-.14.21,1.86.3,1.85.31Z"/><path class="cls-6" d="M42.29,13.6c-3.85,1-9.55-1.77-9.55-1.77s3.8-4.43,7.07-4.76,8.93,2.27,8.93,2.27A13.5,13.5,0,0,1,42.29,13.6Z"/><path class="cls-7" d="M45.14,13a.82.82,0,0,0-.09.79,4.16,4.16,0,0,0,1.4,1.12l.09-.71s-.3-.2-.33-.38a.41.41,0,0,1,0-.27Z"/><path class="cls-7" d="M47.48,9.43A30.51,30.51,0,0,0,41,9.49c-3,.44-7.52,1.87-7.46,2.07s4.94-1.64,7.36-1.8,6.73,0,6.73,0Z"/><path class="cls-7" d="M46,9.54a3.36,3.36,0,0,1-.63,1.18,8.47,8.47,0,0,0-1.08,1.68,9.93,9.93,0,0,0,1.25-1.57c.36-.52.82-1.26.82-1.26Z"/><path class="cls-7" d="M43,9.57a5.29,5.29,0,0,1-.66,1.91c-.66,1.36-.93,1.75-.76,1.79s.65-1,1-1.75.84-2,.84-2Z"/><path class="cls-7" d="M40,9.84a3.7,3.7,0,0,1-.22,1.42c-.3,1-.66,1.57-.53,1.64s.48-.86.69-1.59.5-1.62.5-1.62Z"/><path class="cls-7" d="M36.91,10.58a2.39,2.39,0,0,1-.16.84c-.18.52-.47,1-.39,1a1.74,1.74,0,0,0,.54-.92l.28-1Z"/><path class="cls-7" d="M46.31,9.46a4.07,4.07,0,0,0-1.13-1.08,3.51,3.51,0,0,0-1.45-.6c-.08.07.82.33,1.15.54a12.23,12.23,0,0,1,1.18,1.14Z"/><path class="cls-7" d="M43.23,9.37a2.91,2.91,0,0,0-.92-1.23,4.7,4.7,0,0,0-2.05-.8c-.2.07,1.5.5,1.88.87a4.23,4.23,0,0,1,.69,1.2Z"/><path class="cls-7" d="M40.48,9.69A6.75,6.75,0,0,0,39.09,8.6a5.58,5.58,0,0,0-1.66-.42c-.19,0,1.28.32,1.69.61a8.84,8.84,0,0,1,1,1Z"/><path class="cls-7" d="M36.91,10.5s0-.25-.74-.51-1.06-.42-.91-.42a4.75,4.75,0,0,1,.91.23,6.06,6.06,0,0,1,1.07.61Z"/><path class="cls-3" d="M81.48,24.6c3,2.2,6.91,9.14,2.29,14.85S72.4,45.51,67.3,42.15A11.5,11.5,0,0,1,65.88,24C71,19.12,77,21.29,81.48,24.6Z"/><path class="cls-4" d="M69,23.79h0Z"/><path class="cls-4" d="M69.68,24.51c.35-.17.75-.53.42-.85s-.78,0-1.1.12C68.57,24.18,68.75,25,69.68,24.51Z"/><path class="cls-4" d="M69,23.78l.53-.21A.78.78,0,0,0,69,23.78Z"/><path class="cls-4" d="M68.05,25.31c.13-.1.31-.3.14-.44a.23.23,0,0,0-.34.07.43.43,0,0,0-.21.29C67.61,25.52,67.92,25.41,68.05,25.31Z"/><path class="cls-4" d="M70.34,25.13a.35.35,0,0,0-.33,0c-.16,0-.35.08-.39.21a.11.11,0,0,0,0,.08l-.05,0,.05,0c0,.14.38,0,.51,0S70.61,25.28,70.34,25.13Z"/><path class="cls-4" d="M69.57,25.46l0,0Z"/><path class="cls-4" d="M71.07,24.35c-.15,0-.32.21-.23.35s.44.09.56,0C71.91,24.45,71.26,24.23,71.07,24.35Z"/><path class="cls-4" d="M71.7,23.42c-.1,0-.29-.06-.37,0a.15.15,0,0,0,0,.18c0,.1.18.2.25.23s.92.33,1,.07S71.89,23.45,71.7,23.42Z"/><path class="cls-4" d="M70.87,22.9c.15.09.71.07.77-.16s-.31-.28-.45-.26a.5.5,0,0,0-.24.14C70.8,22.69,70.69,22.81,70.87,22.9Z"/><path class="cls-4" d="M68.15,24.23c.29-.22,0-.34-.22-.3h0c-.14,0-.47.14-.38.32S68,24.31,68.15,24.23Z"/><path class="cls-4" d="M66.93,25.61c.11-.13.44-.67.06-.69a.26.26,0,0,0-.2.1,1.12,1.12,0,0,0-.38.53C66.26,26.05,66.74,25.83,66.93,25.61Z"/><path class="cls-4" d="M69,25.76a.8.8,0,0,0-.5,0c-.28.08-.62.31-.67.52-.12.52.79.15,1,.08S69.4,25.92,69,25.76Z"/><path class="cls-4" d="M70.51,26.17c-.15,0-.31.17-.3.29s.52.18.67.11C71.44,26.31,70.7,26.06,70.51,26.17Z"/><path class="cls-4" d="M74.09,23.29a.24.24,0,0,0-.25.1.7.7,0,0,0,1,0A.59.59,0,0,0,74.09,23.29Z"/><path class="cls-4" d="M72.62,24.63c.31.11,1.16.17,1.23-.28a.77.77,0,0,0-.69-.08C72.9,24.26,72.62,24.35,72.62,24.63Z"/><path class="cls-4" d="M73.23,22.33a.44.44,0,0,0-.62-.06.25.25,0,0,0-.15.18A.59.59,0,0,0,73.23,22.33Z"/><path class="cls-4" d="M75.54,24.16c-.63,0,.18.81.53.55S75.79,24,75.54,24.16Z"/><path class="cls-4" d="M66.61,26.75c-.2-.15-.36,0-.47.18-.42.27-.92.91-.52,1.06S66.6,27.1,66.61,26.75Z"/><path class="cls-4" d="M65.46,25.93c-.55.1-.29,1,.22.39C66,25.93,65.68,25.81,65.46,25.93Z"/><path class="cls-4" d="M68.53,27.58a.27.27,0,0,0-.2.25c.2.14.74.15.87-.11S68.71,27.27,68.53,27.58Z"/><path class="cls-4" d="M73.32,26.1l0,0a.43.43,0,0,0,0,.11s0,.09,0,.11c.12.3.73.31.62-.06S73.47,26,73.32,26.1Z"/><path class="cls-4" d="M78.88,25.32c-.37-.51-1.12,0-.65.15C78.51,25.68,79.24,25.81,78.88,25.32Z"/><path class="cls-4" d="M65.93,30.1,66,30a.89.89,0,0,0-.39.63c.21.06.85-.36.83-.64C66.41,29.53,66.12,29.83,65.93,30.1Z"/><path class="cls-4" d="M71.61,28.69a.14.14,0,0,0,.21,0c.26,0,.74,0,.54-.31S71.68,28.47,71.61,28.69Z"/><path class="cls-4" d="M63.77,28.41a.38.38,0,0,0,0,.22c.32.1,1.13,0,.86-.51S63.86,28,63.77,28.41Z"/><path class="cls-4" d="M64.88,27.05h0a.27.27,0,0,0-.33.26.4.4,0,0,0,.56-.21A.36.36,0,0,0,64.88,27.05Z"/><path class="cls-5" d="M65.94,38.36c-1.18.86,4.8,5.2,8.69,5a11.47,11.47,0,0,0,9.4-6c1-2.14.67-8.23-.62-7.81-.46.16.1,2.22-1.78,5.35-1.65,2.74-4.48,5.45-8.21,5.27C68.3,40,66.71,37.8,65.94,38.36Z"/><path class="cls-6" d="M78.76,23.3a.55.55,0,0,0-.49.84c.32.8,2.27,2.1,2.83,1.88s.59-.87-.23-1.5A4.86,4.86,0,0,0,78.76,23.3Z"/><path class="cls-6" d="M79.77,24.37S82,22,82.68,21.15a42,42,0,0,0,2.14-4.22s.2-.3.47-.24.2.46.2.46-1.57,3.23-2.21,4.12c-1.3,1.81-3,3.77-3,3.77Z"/><path class="cls-6" d="M83.71,20c-.13,0-3.73-.47-3.73-.47l-.13.21,1.85.3,1.85.31Z"/><path class="cls-6" d="M75.94,24.17c-3.85,1-9.55-1.77-9.55-1.77S70.2,18,73.46,17.63s8.93,2.28,8.93,2.28A13.44,13.44,0,0,1,75.94,24.17Z"/><path class="cls-7" d="M78.79,23.54a.82.82,0,0,0-.09.79,4.17,4.17,0,0,0,1.41,1.12l.09-.71s-.3-.2-.33-.38a.41.41,0,0,1,0-.27Z"/><path class="cls-7" d="M81.13,20a30.48,30.48,0,0,0-6.46.06c-3,.44-7.52,1.87-7.46,2.07s4.94-1.64,7.36-1.8,6.74,0,6.74,0Z"/><path class="cls-7" d="M79.61,20.11A3.41,3.41,0,0,1,79,21.29,8.25,8.25,0,0,0,77.9,23a10.43,10.43,0,0,0,1.26-1.57c.35-.52.81-1.26.81-1.26Z"/><path class="cls-7" d="M76.62,20.14A5.23,5.23,0,0,1,76,22.05c-.66,1.36-.92,1.75-.76,1.78s.66-1,1-1.74.85-2,.85-2Z"/><path class="cls-7" d="M73.7,20.41a3.63,3.63,0,0,1-.23,1.42c-.3,1-.66,1.57-.52,1.64s.48-.86.68-1.59.5-1.62.5-1.62Z"/><path class="cls-7" d="M70.56,21.15a2.13,2.13,0,0,1-.16.84c-.18.52-.47,1-.38,1a1.82,1.82,0,0,0,.53-.92l.28-1Z"/><path class="cls-7" d="M80,20a4.38,4.38,0,0,0-1.13-1.09,3.61,3.61,0,0,0-1.46-.59c-.08.07.83.33,1.15.54A12.41,12.41,0,0,1,79.71,20Z"/><path class="cls-7" d="M76.89,19.94A2.91,2.91,0,0,0,76,18.71a4.73,4.73,0,0,0-2.06-.8c-.19.07,1.5.49,1.88.87a4.1,4.1,0,0,1,.69,1.2Z"/><path class="cls-7" d="M74.13,20.26a6.28,6.28,0,0,0-1.38-1.09,6.1,6.1,0,0,0-1.66-.43c-.2,0,1.27.33,1.68.62a9.24,9.24,0,0,1,1,1Z"/><path class="cls-7" d="M70.56,21.06s0-.24-.73-.5-1.07-.42-.92-.42a3.94,3.94,0,0,1,.91.23,6.06,6.06,0,0,1,1.07.61Z"/><path class="cls-3" d="M60.91,21.36c3,2.2,6.91,9.14,2.29,14.85s-11.37,6.06-16.46,2.7a11.49,11.49,0,0,1-1.43-18.14C50.46,15.88,56.41,18.05,60.91,21.36Z"/><path class="cls-4" d="M48.42,20.55h0Z"/><path class="cls-4" d="M49.12,21.27c.35-.17.74-.53.41-.85s-.78,0-1.09.12C48,20.94,48.18,21.72,49.12,21.27Z"/><path class="cls-4" d="M48.44,20.54l.53-.21A.82.82,0,0,0,48.44,20.54Z"/><path class="cls-4" d="M47.49,22.07c.13-.1.31-.3.13-.44a.22.22,0,0,0-.33.07.44.44,0,0,0-.22.29C47,22.28,47.35,22.17,47.49,22.07Z"/><path class="cls-4" d="M49.77,21.89a.35.35,0,0,0-.33,0c-.15,0-.35.08-.38.21a.25.25,0,0,0,0,.08l0,0,0,0c.05.14.39,0,.51,0S50,22,49.77,21.89Z"/><path class="cls-4" d="M49,22.22l0,0Z"/><path class="cls-4" d="M50.5,21.11c-.15,0-.31.21-.23.35s.44.09.57,0C51.34,21.21,50.69,21,50.5,21.11Z"/><path class="cls-4" d="M51.13,20.18c-.1,0-.29-.06-.37,0a.14.14,0,0,0,0,.18c0,.1.18.2.25.23s.91.33,1,.07S51.32,20.21,51.13,20.18Z"/><path class="cls-4" d="M50.3,19.66c.16.09.72.07.77-.16s-.3-.28-.45-.26a.61.61,0,0,0-.24.14C50.23,19.45,50.12,19.57,50.3,19.66Z"/><path class="cls-4" d="M47.58,21c.3-.22,0-.34-.22-.3h0c-.13,0-.46.14-.37.32S47.47,21.07,47.58,21Z"/><path class="cls-4" d="M46.37,22.37c.1-.13.44-.67.05-.69-.06,0-.13,0-.19.1a1.15,1.15,0,0,0-.39.53C45.69,22.81,46.18,22.59,46.37,22.37Z"/><path class="cls-4" d="M48.41,22.52a.8.8,0,0,0-.5,0,1,1,0,0,0-.66.52c-.13.52.78.15,1,.08S48.84,22.68,48.41,22.52Z"/><path class="cls-4" d="M49.94,22.93c-.14.05-.3.17-.3.29s.52.18.67.11C50.87,23.07,50.14,22.82,49.94,22.93Z"/><path class="cls-4" d="M53.53,20.05a.23.23,0,0,0-.25.1.69.69,0,0,0,1,0A.57.57,0,0,0,53.53,20.05Z"/><path class="cls-4" d="M52.05,21.39c.31.11,1.16.17,1.23-.28A.75.75,0,0,0,52.6,21C52.33,21,52.05,21.11,52.05,21.39Z"/><path class="cls-4" d="M52.66,19.09A.44.44,0,0,0,52,19a.28.28,0,0,0-.15.18A.59.59,0,0,0,52.66,19.09Z"/><path class="cls-4" d="M55,20.92c-.62,0,.18.81.53.55S55.22,20.76,55,20.92Z"/><path class="cls-4" d="M46,23.51c-.19-.15-.36,0-.47.18-.42.27-.92.91-.52,1.06S46,23.86,46,23.51Z"/><path class="cls-4" d="M44.89,22.69c-.54.1-.29,1,.23.39C45.44,22.69,45.11,22.57,44.89,22.69Z"/><path class="cls-4" d="M48,24.34a.28.28,0,0,0-.2.25c.21.14.74.15.88-.11S48.14,24,48,24.34Z"/><path class="cls-4" d="M52.75,22.86l0,0a.23.23,0,0,0,0,.11c0,.05,0,.09,0,.11.11.3.73.31.61-.06S52.9,22.72,52.75,22.86Z"/><path class="cls-4" d="M58.31,22.08c-.36-.51-1.12,0-.64.15C58,22.44,58.67,22.57,58.31,22.08Z"/><path class="cls-4" d="M45.36,26.86l.08-.13a.9.9,0,0,0-.4.63c.21.06.85-.36.83-.64S45.55,26.59,45.36,26.86Z"/><path class="cls-4" d="M51,25.45a.14.14,0,0,0,.21,0c.26,0,.74,0,.54-.31S51.11,25.23,51,25.45Z"/><path class="cls-4" d="M43.2,25.17a.38.38,0,0,0,0,.22c.32.1,1.13,0,.87-.51S43.3,24.79,43.2,25.17Z"/><path class="cls-4" d="M44.32,23.81h0a.27.27,0,0,0-.33.26.4.4,0,0,0,.56-.21A.34.34,0,0,0,44.32,23.81Z"/><path class="cls-5" d="M45.37,35.12c-1.17.86,4.8,5.2,8.69,5.05a11.47,11.47,0,0,0,9.4-6c1-2.14.67-8.23-.62-7.81-.45.16.11,2.22-1.78,5.35-1.65,2.74-4.47,5.45-8.21,5.27C47.73,36.72,46.15,34.56,45.37,35.12Z"/><path class="cls-6" d="M58.19,20.06a.55.55,0,0,0-.48.84c.32.8,2.27,2.1,2.83,1.88s.58-.87-.24-1.5A4.75,4.75,0,0,0,58.19,20.06Z"/><path class="cls-6" d="M59.21,21.13s2.26-2.34,2.9-3.22a39.9,39.9,0,0,0,2.14-4.22s.2-.3.48-.24.2.46.2.46S63.35,17.14,62.71,18c-1.3,1.81-3,3.77-3,3.77Z"/><path class="cls-6" d="M63.15,16.73c-.14,0-3.73-.47-3.73-.47l-.14.21,1.85.3,1.86.31Z"/><path class="cls-6" d="M55.38,20.93c-3.86,1-9.55-1.77-9.55-1.77s3.8-4.43,7.06-4.77,8.93,2.28,8.93,2.28A13.44,13.44,0,0,1,55.38,20.93Z"/><path class="cls-7" d="M58.22,20.3a.8.8,0,0,0-.08.79,4.16,4.16,0,0,0,1.4,1.12l.09-.71s-.3-.2-.33-.38a.41.41,0,0,1,0-.27Z"/><path class="cls-7" d="M60.56,16.76a30.48,30.48,0,0,0-6.46.06c-3,.44-7.51,1.87-7.46,2.07s5-1.64,7.37-1.8,6.73,0,6.73,0Z"/><path class="cls-7" d="M59.05,16.87a3.61,3.61,0,0,1-.63,1.18,8,8,0,0,0-1.08,1.68,10.55,10.55,0,0,0,1.25-1.57c.35-.52.81-1.26.81-1.26Z"/><path class="cls-7" d="M56.05,16.9a5.29,5.29,0,0,1-.66,1.91c-.66,1.36-.93,1.75-.77,1.78s.66-1,1-1.74.85-2,.85-2Z"/><path class="cls-7" d="M53.13,17.17a3.63,3.63,0,0,1-.23,1.42c-.29,1-.66,1.57-.52,1.64s.48-.86.68-1.59.5-1.62.5-1.62Z"/><path class="cls-7" d="M50,17.91a2.39,2.39,0,0,1-.16.84c-.19.52-.48,1-.39,1a1.74,1.74,0,0,0,.54-.92c.13-.46.27-1,.27-1Z"/><path class="cls-7" d="M59.4,16.79a4.38,4.38,0,0,0-1.13-1.09,3.56,3.56,0,0,0-1.46-.59c-.07.07.83.33,1.15.54a12.81,12.81,0,0,1,1.19,1.13Z"/><path class="cls-7" d="M56.32,16.7a2.91,2.91,0,0,0-.92-1.23,4.68,4.68,0,0,0-2.06-.8c-.19.07,1.5.49,1.88.87a4,4,0,0,1,.7,1.2Z"/><path class="cls-7" d="M53.56,17a6.28,6.28,0,0,0-1.38-1.09,6.1,6.1,0,0,0-1.66-.43c-.2,0,1.27.33,1.69.62a8.84,8.84,0,0,1,1,1Z"/><path class="cls-7" d="M50,17.82s-.05-.24-.73-.5-1.06-.42-.92-.42a3.82,3.82,0,0,1,.91.23,6.29,6.29,0,0,1,1.08.61Z"/><path class="cls-3" d="M70.63,31.55c3,2.2,6.91,9.14,2.29,14.86S61.55,52.46,56.46,49.1A11.48,11.48,0,0,1,55,31C60.18,26.07,66.13,28.24,70.63,31.55Z"/><path class="cls-4" d="M58.14,30.74h0Z"/><path class="cls-4" d="M58.84,31.46c.35-.17.74-.53.41-.85s-.78.05-1.09.13C57.72,31.13,57.9,31.91,58.84,31.46Z"/><path class="cls-4" d="M58.16,30.73l.53-.21A.88.88,0,0,0,58.16,30.73Z"/><path class="cls-4" d="M57.2,32.26c.14-.09.32-.29.14-.44s-.25,0-.33.08a.43.43,0,0,0-.22.28C56.76,32.48,57.07,32.36,57.2,32.26Z"/><path class="cls-4" d="M59.49,32.08a.35.35,0,0,0-.33,0c-.15,0-.35.09-.38.21a.31.31,0,0,0,0,.09l0,0,0,0c0,.14.39,0,.51,0S59.76,32.23,59.49,32.08Z"/><path class="cls-4" d="M58.73,32.42h0Z"/><path class="cls-4" d="M60.22,31.3c-.15,0-.32.21-.23.36s.44.09.57,0C61.06,31.4,60.41,31.19,60.22,31.3Z"/><path class="cls-4" d="M60.85,30.38c-.1,0-.29-.07-.37,0a.14.14,0,0,0,0,.18c0,.11.18.2.25.24s.91.32,1,.06S61,30.4,60.85,30.38Z"/><path class="cls-4" d="M60,29.86c.16.08.72.06.77-.17s-.3-.27-.45-.25a.57.57,0,0,0-.24.13C60,29.65,59.84,29.76,60,29.86Z"/><path class="cls-4" d="M57.3,31.18c.29-.22,0-.34-.22-.29h0c-.13,0-.46.15-.37.33S57.19,31.26,57.3,31.18Z"/><path class="cls-4" d="M56.09,32.56c.1-.12.44-.67,0-.69A.3.3,0,0,0,56,32a1.06,1.06,0,0,0-.39.54C55.41,33,55.9,32.78,56.09,32.56Z"/><path class="cls-4" d="M58.13,32.72a.68.68,0,0,0-.5,0,1,1,0,0,0-.66.51c-.13.52.78.15,1,.08S58.56,32.87,58.13,32.72Z"/><path class="cls-4" d="M59.66,33.12c-.15.05-.3.17-.3.29s.52.18.67.11C60.59,33.26,59.86,33,59.66,33.12Z"/><path class="cls-4" d="M63.24,30.24a.27.27,0,0,0-.25.1.69.69,0,0,0,1.05,0A.58.58,0,0,0,63.24,30.24Z"/><path class="cls-4" d="M61.77,31.58c.31.11,1.16.17,1.23-.27a.72.72,0,0,0-.68-.08C62.05,31.21,61.77,31.3,61.77,31.58Z"/><path class="cls-4" d="M62.38,29.28a.44.44,0,0,0-.62-.06.3.3,0,0,0-.15.18A.59.59,0,0,0,62.38,29.28Z"/><path class="cls-4" d="M64.69,31.11c-.62,0,.18.81.53.56S64.94,31,64.69,31.11Z"/><path class="cls-4" d="M55.76,33.7c-.19-.15-.36,0-.47.18-.42.27-.92.91-.52,1.06S55.75,34.05,55.76,33.7Z"/><path class="cls-4" d="M54.61,32.88c-.54.11-.29,1,.23.39C55.16,32.89,54.83,32.77,54.61,32.88Z"/><path class="cls-4" d="M57.68,34.53a.3.3,0,0,0-.2.25c.21.14.74.16.88-.11S57.86,34.22,57.68,34.53Z"/><path class="cls-4" d="M62.47,33.05l0,0a.52.52,0,0,0,0,.11c0,.05,0,.1,0,.12.11.29.73.3.61-.07S62.62,32.91,62.47,33.05Z"/><path class="cls-4" d="M68,32.27c-.36-.5-1.12,0-.64.16C67.66,32.63,68.39,32.76,68,32.27Z"/><path class="cls-4" d="M55.08,37.06l.08-.14a.92.92,0,0,0-.4.64c.21.06.85-.37.83-.65S55.27,36.79,55.08,37.06Z"/><path class="cls-4" d="M60.76,35.64a.16.16,0,0,0,.21,0c.26,0,.74,0,.54-.32S60.83,35.42,60.76,35.64Z"/><path class="cls-4" d="M52.92,35.36a.4.4,0,0,0,0,.22c.32.11,1.13,0,.87-.51S53,35,52.92,35.36Z"/><path class="cls-4" d="M54,34h0a.27.27,0,0,0-.33.26.4.4,0,0,0,.56-.21A.34.34,0,0,0,54,34Z"/><path class="cls-5" d="M55.09,45.32c-1.17.86,4.8,5.19,8.69,5a11.43,11.43,0,0,0,9.4-6c1-2.14.67-8.23-.62-7.8-.46.15.11,2.21-1.78,5.34-1.65,2.75-4.47,5.45-8.21,5.27C57.45,46.92,55.87,44.75,55.09,45.32Z"/><path class="cls-6" d="M67.91,30.26a.55.55,0,0,0-.49.83c.33.8,2.28,2.1,2.84,1.88s.58-.87-.24-1.49A4.57,4.57,0,0,0,67.91,30.26Z"/><path class="cls-6" d="M68.93,31.33s2.26-2.34,2.9-3.22A39.83,39.83,0,0,0,74,23.88a.55.55,0,0,1,.48-.24c.27.05.19.47.19.47s-1.57,3.22-2.21,4.11c-1.3,1.81-3,3.78-3,3.78Z"/><path class="cls-6" d="M72.87,26.92c-.14,0-3.73-.47-3.73-.47l-.14.21,1.85.31,1.86.3Z"/><path class="cls-6" d="M65.1,31.13c-3.86,1-9.55-1.77-9.55-1.77s3.8-4.44,7.06-4.77,8.93,2.27,8.93,2.27A13.5,13.5,0,0,1,65.1,31.13Z"/><path class="cls-7" d="M67.94,30.5a.8.8,0,0,0-.08.79,4.09,4.09,0,0,0,1.4,1.11l.09-.7s-.3-.21-.33-.38a.39.39,0,0,1,0-.27Z"/><path class="cls-7" d="M70.28,27a30.09,30.09,0,0,0-6.46.07c-3,.43-7.51,1.86-7.46,2.06s5-1.64,7.36-1.8,6.74,0,6.74,0Z"/><path class="cls-7" d="M68.77,27.06a3.61,3.61,0,0,1-.63,1.18,8.56,8.56,0,0,0-1.09,1.68,10.11,10.11,0,0,0,1.26-1.56c.35-.53.81-1.27.81-1.27Z"/><path class="cls-7" d="M65.77,27.09A5.29,5.29,0,0,1,65.11,29c-.66,1.36-.93,1.76-.77,1.79s.66-1,1-1.75.85-2,.85-2Z"/><path class="cls-7" d="M62.85,27.36a3.63,3.63,0,0,1-.23,1.42c-.29,1-.66,1.58-.52,1.64s.48-.86.68-1.59.5-1.62.5-1.62Z"/><path class="cls-7" d="M59.72,28.1a2.36,2.36,0,0,1-.16.84c-.19.52-.48,1-.39,1a1.82,1.82,0,0,0,.54-.91c.13-.47.27-1,.27-1Z"/><path class="cls-7" d="M69.12,27A4.43,4.43,0,0,0,68,25.9a3.53,3.53,0,0,0-1.46-.6c-.07.07.83.33,1.15.54A12.62,12.62,0,0,1,68.87,27Z"/><path class="cls-7" d="M66,26.89a2.91,2.91,0,0,0-.92-1.22,4.44,4.44,0,0,0-2.06-.8c-.19.06,1.5.49,1.88.86a4.36,4.36,0,0,1,.7,1.21Z"/><path class="cls-7" d="M63.28,27.21a6.6,6.6,0,0,0-1.38-1.09,5.66,5.66,0,0,0-1.66-.42c-.2,0,1.27.33,1.68.62a8.6,8.6,0,0,1,1,1Z"/><path class="cls-7" d="M59.71,28s-.05-.25-.73-.5-1.06-.43-.92-.43a4.16,4.16,0,0,1,.91.24,5.82,5.82,0,0,1,1.08.6Z"/><path class="cls-3" d="M19.79,21.41c-3,2.19-6.91,9.14-2.29,14.85S28.87,42.31,34,39a11.48,11.48,0,0,0,1.43-18.13C30.24,15.92,24.29,18.09,19.79,21.41Z"/><path class="cls-4" d="M32.28,20.59h0Z"/><path class="cls-4" d="M31.58,21.31c-.35-.17-.74-.53-.41-.84s.78,0,1.09.12C32.7,21,32.52,21.77,31.58,21.31Z"/><path class="cls-4" d="M32.26,20.58l-.53-.2A.87.87,0,0,1,32.26,20.58Z"/><path class="cls-4" d="M33.21,22.12c-.13-.1-.31-.3-.13-.44a.22.22,0,0,1,.33.07.44.44,0,0,1,.22.29C33.66,22.33,33.35,22.21,33.21,22.12Z"/><path class="cls-4" d="M30.93,21.93a.33.33,0,0,1,.33,0c.15,0,.35.08.38.21a.25.25,0,0,1,0,.08l0,0,0,0c0,.15-.39,0-.51,0S30.66,22.08,30.93,21.93Z"/><path class="cls-4" d="M31.69,22.27h0Z"/><path class="cls-4" d="M30.2,21.15c.15,0,.32.21.23.36s-.44.09-.57,0C29.36,21.25,30,21,30.2,21.15Z"/><path class="cls-4" d="M29.57,20.23c.1,0,.29-.07.37,0a.12.12,0,0,1,0,.17c0,.11-.18.2-.25.24s-.91.32-1,.06S29.38,20.25,29.57,20.23Z"/><path class="cls-4" d="M30.4,19.71c-.16.08-.72.06-.77-.16s.3-.28.45-.26a.61.61,0,0,1,.24.14C30.47,19.5,30.58,19.61,30.4,19.71Z"/><path class="cls-4" d="M33.12,21c-.3-.21,0-.33.22-.29h0c.13,0,.46.15.37.33S33.23,21.12,33.12,21Z"/><path class="cls-4" d="M34.33,22.41c-.1-.12-.44-.66,0-.69a.27.27,0,0,1,.19.11,1.1,1.1,0,0,1,.39.53C35,22.86,34.52,22.63,34.33,22.41Z"/><path class="cls-4" d="M32.29,22.57a.74.74,0,0,1,.5,0c.28.08.61.3.66.51.13.52-.78.15-1,.08S31.86,22.73,32.29,22.57Z"/><path class="cls-4" d="M30.76,23c.14.05.3.17.3.29s-.52.17-.67.11C29.83,23.11,30.56,22.86,30.76,23Z"/><path class="cls-4" d="M27.17,20.09a.26.26,0,0,1,.25.11.68.68,0,0,1-1,0A.59.59,0,0,1,27.17,20.09Z"/><path class="cls-4" d="M28.65,21.44c-.31.11-1.16.16-1.23-.28a.75.75,0,0,1,.68-.08C28.37,21.07,28.65,21.16,28.65,21.44Z"/><path class="cls-4" d="M28,19.14a.44.44,0,0,1,.62-.07.34.34,0,0,1,.15.18A.59.59,0,0,1,28,19.14Z"/><path class="cls-4" d="M25.73,21c.62,0-.18.8-.53.55S25.48,20.8,25.73,21Z"/><path class="cls-4" d="M34.66,23.56c.19-.16.36,0,.47.18.42.27.92.9.52,1.06S34.67,23.9,34.66,23.56Z"/><path class="cls-4" d="M35.81,22.73c.54.11.29,1-.23.39C35.26,22.74,35.59,22.62,35.81,22.73Z"/><path class="cls-4" d="M32.74,24.38a.31.31,0,0,1,.2.25c-.21.15-.74.16-.88-.11S32.56,24.07,32.74,24.38Z"/><path class="cls-4" d="M28,22.9l0,0A.26.26,0,0,1,28,23c0,.05,0,.1,0,.12-.11.29-.73.3-.61-.07S27.8,22.76,28,22.9Z"/><path class="cls-4" d="M22.39,22.12c.36-.5,1.12,0,.64.16C22.75,22.48,22,22.61,22.39,22.12Z"/><path class="cls-4" d="M35.34,26.91l-.08-.13a.9.9,0,0,1,.4.63c-.21.06-.85-.37-.83-.65S35.15,26.64,35.34,26.91Z"/><path class="cls-4" d="M29.66,25.49a.16.16,0,0,1-.21.05c-.26,0-.74,0-.54-.32S29.59,25.27,29.66,25.49Z"/><path class="cls-4" d="M37.5,25.21a.41.41,0,0,1,0,.22c-.32.11-1.13,0-.87-.51S37.4,24.84,37.5,25.21Z"/><path class="cls-4" d="M36.38,23.85h0a.27.27,0,0,1,.33.27.4.4,0,0,1-.56-.22A.41.41,0,0,1,36.38,23.85Z"/><path class="cls-5" d="M35.33,35.17c1.17.86-4.8,5.19-8.69,5a11.44,11.44,0,0,1-9.4-6c-1-2.15-.67-8.24.62-7.81.45.15-.11,2.22,1.78,5.34,1.65,2.75,4.47,5.46,8.21,5.27C33,36.77,34.55,34.6,35.33,35.17Z"/><path class="cls-6" d="M22.51,20.11A.55.55,0,0,1,23,21c-.32.8-2.27,2.09-2.83,1.88s-.58-.87.24-1.5A4.66,4.66,0,0,1,22.51,20.11Z"/><path class="cls-6" d="M21.49,21.18s-2.26-2.34-2.9-3.22a39.83,39.83,0,0,1-2.14-4.23.55.55,0,0,0-.48-.24c-.27,0-.19.47-.19.47s1.57,3.23,2.21,4.11c1.3,1.81,3,3.78,3,3.78Z"/><path class="cls-6" d="M17.55,16.77l3.73-.47.14.21-1.85.31-1.86.3Z"/><path class="cls-6" d="M25.32,21c3.86,1,9.55-1.77,9.55-1.77s-3.8-4.43-7.06-4.77-8.93,2.27-8.93,2.27A13.5,13.5,0,0,0,25.32,21Z"/><path class="cls-7" d="M22.48,20.35a.8.8,0,0,1,.08.79,4.09,4.09,0,0,1-1.4,1.11l-.09-.7s.3-.21.33-.38a.39.39,0,0,0,0-.27Z"/><path class="cls-7" d="M20.14,16.81a29.75,29.75,0,0,1,6.46.06c3,.43,7.51,1.86,7.46,2.07s-5-1.64-7.37-1.8-6.73,0-6.73,0Z"/><path class="cls-7" d="M21.65,16.92a3.52,3.52,0,0,0,.63,1.17,8.17,8.17,0,0,1,1.08,1.69,11.13,11.13,0,0,1-1.25-1.57c-.35-.53-.81-1.27-.81-1.27Z"/><path class="cls-7" d="M24.65,16.94a5.29,5.29,0,0,0,.66,1.91c.66,1.36.93,1.76.77,1.79s-.66-1-1-1.74-.85-2-.85-2Z"/><path class="cls-7" d="M27.57,17.21a3.69,3.69,0,0,0,.23,1.43c.29,1,.66,1.57.52,1.64s-.48-.87-.68-1.59-.5-1.63-.5-1.63Z"/><path class="cls-7" d="M30.7,18a2.39,2.39,0,0,0,.16.84c.19.51.48,1,.39,1a1.84,1.84,0,0,1-.54-.92c-.13-.46-.27-1-.27-1Z"/><path class="cls-7" d="M21.3,16.84a4.38,4.38,0,0,1,1.13-1.09,3.27,3.27,0,0,1,1.46-.59c.07.07-.83.32-1.15.53a12.62,12.62,0,0,0-1.19,1.14Z"/><path class="cls-7" d="M24.38,16.75a2.91,2.91,0,0,1,.92-1.23,4.56,4.56,0,0,1,2.06-.8c.19.06-1.5.49-1.88.87a4,4,0,0,0-.7,1.2Z"/><path class="cls-7" d="M27.14,17.06A6.6,6.6,0,0,1,28.52,16a5.66,5.66,0,0,1,1.66-.42c.2,0-1.27.33-1.69.62a9.06,9.06,0,0,0-1,1Z"/><path class="cls-7" d="M30.71,17.87s.05-.24.73-.5,1.06-.43.92-.43a4,4,0,0,0-.91.24,5.66,5.66,0,0,0-1.08.61Z"/><path class="cls-3" d="M14,34.24c-3,2.19-6.91,9.14-2.29,14.85s11.37,6,16.46,2.69a11.48,11.48,0,0,0,1.43-18.13C24.48,28.75,18.53,30.92,14,34.24Z"/><path class="cls-4" d="M26.52,33.42h0Z"/><path class="cls-4" d="M25.82,34.14c-.35-.17-.74-.53-.41-.84s.78,0,1.09.12C26.94,33.82,26.76,34.6,25.82,34.14Z"/><path class="cls-4" d="M26.5,33.42,26,33.21A.82.82,0,0,1,26.5,33.42Z"/><path class="cls-4" d="M27.46,35c-.14-.1-.32-.3-.14-.44a.22.22,0,0,1,.33.07.44.44,0,0,1,.22.29C27.9,35.16,27.59,35.05,27.46,35Z"/><path class="cls-4" d="M25.17,34.77a.3.3,0,0,1,.33,0c.15,0,.35.08.38.21a.25.25,0,0,1,0,.08l0,0,0,0c0,.15-.39,0-.51,0S24.9,34.91,25.17,34.77Z"/><path class="cls-4" d="M25.93,35.1h0Z"/><path class="cls-4" d="M24.44,34c.15.05.32.21.23.36s-.44.09-.57,0C23.6,34.08,24.25,33.87,24.44,34Z"/><path class="cls-4" d="M23.81,33.06c.1,0,.29-.07.37,0a.12.12,0,0,1,0,.17c0,.11-.18.2-.25.24s-.91.32-1,.06S23.62,33.08,23.81,33.06Z"/><path class="cls-4" d="M24.64,32.54c-.16.08-.72.06-.77-.16s.3-.28.45-.26a.61.61,0,0,1,.24.14C24.71,32.33,24.82,32.44,24.64,32.54Z"/><path class="cls-4" d="M27.36,33.86c-.29-.21,0-.33.22-.29h0c.13,0,.46.14.37.32S27.47,34,27.36,33.86Z"/><path class="cls-4" d="M28.58,35.25c-.11-.13-.45-.67-.06-.69a.22.22,0,0,1,.19.1,1.08,1.08,0,0,1,.39.53C29.25,35.69,28.76,35.46,28.58,35.25Z"/><path class="cls-4" d="M26.53,35.4a.74.74,0,0,1,.5,0,1,1,0,0,1,.66.52c.13.51-.78.14-1,.07S26.1,35.56,26.53,35.4Z"/><path class="cls-4" d="M25,35.81c.15,0,.3.17.3.29s-.52.17-.67.11C24.07,35.94,24.8,35.69,25,35.81Z"/><path class="cls-4" d="M21.42,32.92a.28.28,0,0,1,.25.11.69.69,0,0,1-1.05,0A.6.6,0,0,1,21.42,32.92Z"/><path class="cls-4" d="M22.89,34.27c-.31.11-1.16.16-1.23-.28a.75.75,0,0,1,.68-.08C22.61,33.9,22.89,34,22.89,34.27Z"/><path class="cls-4" d="M22.28,32a.45.45,0,0,1,.62-.07.32.32,0,0,1,.15.19A.61.61,0,0,1,22.28,32Z"/><path class="cls-4" d="M20,33.8c.62,0-.18.8-.53.55S19.72,33.63,20,33.8Z"/><path class="cls-4" d="M28.9,36.39c.19-.16.36,0,.47.18.42.27.92.9.52,1.06S28.91,36.73,28.9,36.39Z"/><path class="cls-4" d="M30.05,35.56c.54.11.29,1-.23.39C29.5,35.57,29.83,35.45,30.05,35.56Z"/><path class="cls-4" d="M27,37.21a.31.31,0,0,1,.2.25c-.2.15-.74.16-.88-.11S26.8,36.9,27,37.21Z"/><path class="cls-4" d="M22.19,35.74l0-.05a.52.52,0,0,1,0,.11c0,.05,0,.1,0,.12-.11.29-.73.3-.61-.07S22,35.59,22.19,35.74Z"/><path class="cls-4" d="M16.63,35c.36-.5,1.12,0,.64.16C17,35.31,16.27,35.44,16.63,35Z"/><path class="cls-4" d="M29.58,39.74l-.08-.13a.9.9,0,0,1,.4.63c-.21.06-.85-.37-.83-.65S29.39,39.47,29.58,39.74Z"/><path class="cls-4" d="M23.9,38.32c-.08.09-.14.09-.21,0-.26,0-.74,0-.54-.31S23.83,38.1,23.9,38.32Z"/><path class="cls-4" d="M31.74,38a.41.41,0,0,1,0,.22c-.32.11-1.13,0-.86-.51S31.65,37.67,31.74,38Z"/><path class="cls-4" d="M30.62,36.68h0a.27.27,0,0,1,.33.27.4.4,0,0,1-.56-.22A.41.41,0,0,1,30.62,36.68Z"/><path class="cls-5" d="M29.57,48c1.17.86-4.8,5.19-8.69,5a11.44,11.44,0,0,1-9.4-6c-1-2.15-.67-8.23.62-7.81.46.15-.11,2.22,1.78,5.34,1.65,2.75,4.47,5.46,8.21,5.27C27.21,49.6,28.79,47.43,29.57,48Z"/><path class="cls-6" d="M16.75,32.94a.55.55,0,0,1,.49.84c-.33.8-2.28,2.1-2.84,1.88s-.58-.87.24-1.5A4.66,4.66,0,0,1,16.75,32.94Z"/><path class="cls-6" d="M15.73,34s-2.25-2.34-2.9-3.22a42,42,0,0,1-2.14-4.22s-.2-.3-.48-.25-.19.47-.19.47,1.57,3.23,2.21,4.12c1.3,1.8,3,3.77,3,3.77Z"/><path class="cls-6" d="M11.79,29.6l3.73-.47.14.22-1.85.3L12,30Z"/><path class="cls-6" d="M19.56,33.81c3.86,1,9.55-1.77,9.55-1.77s-3.8-4.43-7.06-4.77-8.93,2.27-8.93,2.27A13.5,13.5,0,0,0,19.56,33.81Z"/><path class="cls-7" d="M16.72,33.18a.8.8,0,0,1,.08.79,4.09,4.09,0,0,1-1.4,1.11l-.09-.7s.3-.21.33-.38a.39.39,0,0,0,0-.27Z"/><path class="cls-7" d="M14.38,29.64a30.48,30.48,0,0,1,6.46.06c3,.43,7.52,1.86,7.46,2.07s-4.95-1.64-7.36-1.8-6.74,0-6.74,0Z"/><path class="cls-7" d="M15.89,29.75a3.52,3.52,0,0,0,.63,1.17,8.47,8.47,0,0,1,1.09,1.69A10.43,10.43,0,0,1,16.35,31c-.35-.53-.81-1.27-.81-1.27Z"/><path class="cls-7" d="M18.89,29.77a5.29,5.29,0,0,0,.66,1.91c.66,1.36.93,1.76.77,1.79s-.66-1-1-1.74-.85-2-.85-2Z"/><path class="cls-7" d="M21.81,30.05A3.65,3.65,0,0,0,22,31.47c.29,1,.66,1.57.52,1.64s-.48-.87-.68-1.59-.5-1.63-.5-1.63Z"/><path class="cls-7" d="M24.94,30.79a2.39,2.39,0,0,0,.16.84c.19.51.48,1,.39,1a1.92,1.92,0,0,1-.54-.92c-.13-.46-.27-1-.27-1Z"/><path class="cls-7" d="M15.54,29.67a4.38,4.38,0,0,1,1.13-1.09A3.46,3.46,0,0,1,18.13,28c.07.07-.83.32-1.15.53a12.62,12.62,0,0,0-1.19,1.14Z"/><path class="cls-7" d="M18.62,29.58a2.91,2.91,0,0,1,.92-1.23,4.56,4.56,0,0,1,2.06-.8c.19.06-1.5.49-1.88.87a4.22,4.22,0,0,0-.7,1.2Z"/><path class="cls-7" d="M21.38,29.89a6.6,6.6,0,0,1,1.38-1.09,5.66,5.66,0,0,1,1.66-.42c.2,0-1.27.33-1.68.62a8.6,8.6,0,0,0-1,1Z"/><path class="cls-7" d="M25,30.7s.05-.24.73-.5,1.06-.43.92-.43a4.88,4.88,0,0,0-.91.24,5.66,5.66,0,0,0-1.08.61Z"/><path class="cls-3" d="M86.75,37c3,2.19,6.91,9.14,2.29,14.85s-11.38,6-16.47,2.69a11.47,11.47,0,0,1-1.42-18.13C76.29,31.51,82.24,33.68,86.75,37Z"/><path class="cls-4" d="M74.26,36.18h0Z"/><path class="cls-4" d="M75,36.9c.35-.17.74-.53.41-.84s-.77,0-1.09.12C73.84,36.58,74,37.36,75,36.9Z"/><path class="cls-4" d="M74.27,36.17l.54-.2A.88.88,0,0,0,74.27,36.17Z"/><path class="cls-4" d="M73.32,37.7c.13-.09.31-.29.13-.43a.22.22,0,0,0-.33.07.44.44,0,0,0-.22.29C72.88,37.92,73.18,37.8,73.32,37.7Z"/><path class="cls-4" d="M75.6,37.52a.31.31,0,0,0-.32,0c-.16,0-.36.08-.39.21a.11.11,0,0,0,0,.08l0,0,0,0c0,.15.38,0,.5,0S75.87,37.67,75.6,37.52Z"/><path class="cls-4" d="M74.84,37.86h0Z"/><path class="cls-4" d="M76.34,36.74c-.15,0-.32.21-.23.36s.43.09.56,0C77.17,36.84,76.52,36.63,76.34,36.74Z"/><path class="cls-4" d="M77,35.82c-.1,0-.29-.07-.37,0a.14.14,0,0,0,0,.17c0,.11.18.2.25.24s.92.32,1,.06S77.15,35.84,77,35.82Z"/><path class="cls-4" d="M76.13,35.3c.16.08.72.06.78-.16s-.31-.28-.45-.26a.58.58,0,0,0-.25.14C76.06,35.09,76,35.2,76.13,35.3Z"/><path class="cls-4" d="M73.42,36.62c.29-.21,0-.33-.22-.29h0c-.13,0-.46.15-.37.33S73.31,36.71,73.42,36.62Z"/><path class="cls-4" d="M72.2,38c.11-.12.44-.66.06-.69a.3.3,0,0,0-.2.1,1.08,1.08,0,0,0-.38.54C71.53,38.45,72,38.22,72.2,38Z"/><path class="cls-4" d="M74.25,38.16a.74.74,0,0,0-.5,0c-.29.08-.62.3-.67.51-.13.52.78.15,1,.08S74.67,38.32,74.25,38.16Z"/><path class="cls-4" d="M75.77,38.57c-.14,0-.3.17-.3.29s.53.17.67.11C76.7,38.7,76,38.45,75.77,38.57Z"/><path class="cls-4" d="M79.36,35.68a.26.26,0,0,0-.25.11.68.68,0,0,0,1,0A.59.59,0,0,0,79.36,35.68Z"/><path class="cls-4" d="M77.88,37c.32.11,1.17.16,1.23-.28a.75.75,0,0,0-.68-.08C78.17,36.66,77.89,36.75,77.88,37Z"/><path class="cls-4" d="M78.5,34.73a.46.46,0,0,0-.63-.07.34.34,0,0,0-.15.18A.61.61,0,0,0,78.5,34.73Z"/><path class="cls-4" d="M80.81,36.56c-.63,0,.18.8.53.55S81.06,36.39,80.81,36.56Z"/><path class="cls-4" d="M71.88,39.15c-.2-.16-.36,0-.47.18-.42.27-.93.9-.53,1.06S71.86,39.49,71.88,39.15Z"/><path class="cls-4" d="M70.72,38.32c-.54.11-.28,1,.23.39C71.27,38.33,70.94,38.21,70.72,38.32Z"/><path class="cls-4" d="M73.79,40a.29.29,0,0,0-.19.25c.2.15.74.16.87-.11S74,39.66,73.79,40Z"/><path class="cls-4" d="M78.59,38.49l0,0a.61.61,0,0,0,0,.11s0,.1,0,.12c.11.29.73.3.61-.07S78.73,38.35,78.59,38.49Z"/><path class="cls-4" d="M84.14,37.71c-.36-.5-1.11,0-.64.16C83.78,38.07,84.5,38.2,84.14,37.71Z"/><path class="cls-4" d="M71.2,42.5l.07-.13a.9.9,0,0,0-.4.63c.22.06.85-.37.83-.65S71.38,42.23,71.2,42.5Z"/><path class="cls-4" d="M76.87,41.08a.16.16,0,0,0,.21.05c.27,0,.75,0,.54-.32S76.94,40.86,76.87,41.08Z"/><path class="cls-4" d="M69,40.8A.54.54,0,0,0,69,41c.32.11,1.14,0,.87-.51S69.13,40.43,69,40.8Z"/><path class="cls-4" d="M70.15,39.44h0a.27.27,0,0,0-.33.27.39.39,0,0,0,.55-.22A.39.39,0,0,0,70.15,39.44Z"/><path class="cls-5" d="M71.2,50.76C70,51.62,76,56,79.89,55.8a11.41,11.41,0,0,0,9.4-6c1-2.15.67-8.24-.61-7.81-.46.15.1,2.22-1.78,5.34-1.66,2.75-4.48,5.46-8.22,5.27C73.57,52.36,72,50.19,71.2,50.76Z"/><path class="cls-6" d="M84,35.7a.55.55,0,0,0-.49.84c.32.79,2.27,2.09,2.83,1.88s.59-.87-.23-1.5A4.76,4.76,0,0,0,84,35.7Z"/><path class="cls-6" d="M85,36.77s2.26-2.34,2.9-3.22a39.83,39.83,0,0,0,2.14-4.23.55.55,0,0,1,.48-.24c.28.05.2.47.2.47s-1.58,3.23-2.22,4.11c-1.3,1.81-3,3.78-3,3.78Z"/><path class="cls-6" d="M89,32.36l-3.73-.47-.14.21,1.86.31,1.85.3Z"/><path class="cls-6" d="M81.21,36.57c-3.85,1-9.55-1.77-9.55-1.77s3.8-4.44,7.07-4.77,8.93,2.27,8.93,2.27A13.56,13.56,0,0,1,81.21,36.57Z"/><path class="cls-7" d="M84.06,35.94a.81.81,0,0,0-.09.79,4.09,4.09,0,0,0,1.4,1.11l.09-.7s-.3-.21-.33-.38a.39.39,0,0,1,0-.27Z"/><path class="cls-7" d="M86.4,32.4a29.77,29.77,0,0,0-6.46.06c-3,.43-7.52,1.86-7.46,2.06s4.94-1.63,7.36-1.79,6.73,0,6.73,0Z"/><path class="cls-7" d="M84.88,32.51a3.28,3.28,0,0,1-.63,1.17,8.7,8.7,0,0,0-1.08,1.69,10.44,10.44,0,0,0,1.25-1.57c.36-.53.82-1.27.82-1.27Z"/><path class="cls-7" d="M81.88,32.53a5.29,5.29,0,0,1-.66,1.91c-.66,1.36-.93,1.76-.76,1.79s.65-1,1-1.74.84-2,.84-2Z"/><path class="cls-7" d="M79,32.8a3.76,3.76,0,0,1-.22,1.43c-.3,1-.66,1.57-.53,1.64s.49-.87.69-1.59.5-1.63.5-1.63Z"/><path class="cls-7" d="M75.83,33.55a2.39,2.39,0,0,1-.16.84c-.18.51-.47,1-.39,1a1.84,1.84,0,0,0,.54-.92l.28-1Z"/><path class="cls-7" d="M85.23,32.43a4.19,4.19,0,0,0-1.13-1.09,3.51,3.51,0,0,0-1.45-.6c-.08.08.83.33,1.15.54A12.23,12.23,0,0,1,85,32.42Z"/><path class="cls-7" d="M82.15,32.34a2.91,2.91,0,0,0-.92-1.23,4.57,4.57,0,0,0-2-.8c-.2.06,1.5.49,1.88.86a4.23,4.23,0,0,1,.69,1.21Z"/><path class="cls-7" d="M79.4,32.65A6.75,6.75,0,0,0,78,31.56a5.58,5.58,0,0,0-1.66-.42c-.19,0,1.28.33,1.69.62a9.06,9.06,0,0,1,1,1Z"/><path class="cls-7" d="M75.83,33.46s0-.24-.74-.5-1.06-.43-.91-.43a4.31,4.31,0,0,1,.91.24,5.61,5.61,0,0,1,1.07.6Z"/><path class="cls-3" d="M91.49,47.13c3,2.19,6.91,9.14,2.29,14.85S82.41,68,77.32,64.68a11.49,11.49,0,0,1-1.43-18.14C81,41.65,87,43.82,91.49,47.13Z"/><path class="cls-4" d="M79,46.31h0Z"/><path class="cls-4" d="M79.7,47c.35-.17.74-.53.41-.85s-.78,0-1.09.12C78.58,46.71,78.76,47.49,79.7,47Z"/><path class="cls-4" d="M79,46.31l.53-.21A.82.82,0,0,0,79,46.31Z"/><path class="cls-4" d="M78.06,47.84c.14-.1.32-.3.14-.44a.22.22,0,0,0-.33.07.44.44,0,0,0-.22.29C77.62,48.05,77.93,47.94,78.06,47.84Z"/><path class="cls-4" d="M80.35,47.66a.35.35,0,0,0-.33,0c-.15,0-.35.08-.38.21a.25.25,0,0,0,0,.08l0,0,0,0c0,.15.39,0,.51,0S80.62,47.8,80.35,47.66Z"/><path class="cls-4" d="M79.59,48h0Z"/><path class="cls-4" d="M81.08,46.87c-.15.05-.32.22-.23.36s.44.09.57,0C81.92,47,81.27,46.76,81.08,46.87Z"/><path class="cls-4" d="M81.71,46c-.1,0-.29-.06-.37,0a.14.14,0,0,0,0,.18c0,.1.18.2.25.23s.91.32,1,.06S81.9,46,81.71,46Z"/><path class="cls-4" d="M80.88,45.43c.16.09.72.06.77-.16s-.3-.28-.45-.26a.61.61,0,0,0-.24.14C80.81,45.22,80.7,45.34,80.88,45.43Z"/><path class="cls-4" d="M78.16,46.76c.29-.22,0-.34-.22-.3h0c-.13,0-.46.14-.37.32S78.05,46.84,78.16,46.76Z"/><path class="cls-4" d="M77,48.14c.1-.13.44-.67,0-.69-.06,0-.13,0-.19.1a1.08,1.08,0,0,0-.39.53C76.27,48.58,76.76,48.36,77,48.14Z"/><path class="cls-4" d="M79,48.29a.74.74,0,0,0-.5,0,1,1,0,0,0-.66.52c-.13.52.78.14,1,.08S79.42,48.45,79,48.29Z"/><path class="cls-4" d="M80.52,48.7c-.15,0-.3.17-.3.29s.52.18.67.11C81.45,48.84,80.72,48.59,80.52,48.7Z"/><path class="cls-4" d="M84.1,45.82a.25.25,0,0,0-.25.1.7.7,0,0,0,1.05,0A.58.58,0,0,0,84.1,45.82Z"/><path class="cls-4" d="M82.63,47.16c.31.11,1.16.16,1.23-.28a.75.75,0,0,0-.68-.08C82.91,46.79,82.63,46.88,82.63,47.16Z"/><path class="cls-4" d="M83.24,44.86a.44.44,0,0,0-.62-.06.28.28,0,0,0-.15.18A.59.59,0,0,0,83.24,44.86Z"/><path class="cls-4" d="M85.55,46.69c-.62,0,.18.81.53.55S85.8,46.53,85.55,46.69Z"/><path class="cls-4" d="M76.62,49.28c-.19-.15-.36,0-.47.18-.42.27-.92.91-.52,1.06S76.61,49.63,76.62,49.28Z"/><path class="cls-4" d="M75.47,48.46c-.54.1-.29,1,.23.38C76,48.46,75.69,48.34,75.47,48.46Z"/><path class="cls-4" d="M78.54,50.11a.28.28,0,0,0-.2.24c.2.15.74.16.88-.1S78.72,49.8,78.54,50.11Z"/><path class="cls-4" d="M83.33,48.63l0-.05a.5.5,0,0,0,0,.12s0,.09,0,.11c.11.3.73.31.61-.06S83.48,48.49,83.33,48.63Z"/><path class="cls-4" d="M88.89,47.84c-.36-.5-1.12,0-.64.16C88.52,48.2,89.25,48.34,88.89,47.84Z"/><path class="cls-4" d="M75.94,52.63,76,52.5a.9.9,0,0,0-.4.63c.21.06.85-.36.83-.64S76.13,52.36,75.94,52.63Z"/><path class="cls-4" d="M81.62,51.22a.14.14,0,0,0,.21,0c.26,0,.74,0,.54-.31S81.69,51,81.62,51.22Z"/><path class="cls-4" d="M73.78,50.93a.41.41,0,0,0,0,.22c.32.11,1.13,0,.87-.51S73.87,50.56,73.78,50.93Z"/><path class="cls-4" d="M74.9,49.57h0a.27.27,0,0,0-.33.26.4.4,0,0,0,.56-.21A.36.36,0,0,0,74.9,49.57Z"/><path class="cls-5" d="M76,60.89c-1.17.86,4.8,5.2,8.69,5a11.47,11.47,0,0,0,9.4-6c1-2.15.67-8.23-.62-7.81-.46.15.11,2.22-1.78,5.35-1.65,2.74-4.47,5.45-8.21,5.26C78.31,62.49,76.73,60.32,76,60.89Z"/><path class="cls-6" d="M88.77,45.83a.55.55,0,0,0-.49.84c.33.8,2.28,2.1,2.84,1.88s.58-.87-.24-1.5A4.75,4.75,0,0,0,88.77,45.83Z"/><path class="cls-6" d="M89.79,46.9s2.26-2.34,2.9-3.22a39.9,39.9,0,0,0,2.14-4.22s.2-.3.48-.25.19.47.19.47-1.57,3.23-2.21,4.12c-1.3,1.8-3,3.77-3,3.77Z"/><path class="cls-6" d="M93.73,42.5C93.59,42.47,90,42,90,42l-.14.22,1.85.3,1.86.31Z"/><path class="cls-6" d="M86,46.7c-3.86,1-9.55-1.77-9.55-1.77s3.8-4.43,7.06-4.77,8.93,2.27,8.93,2.27A13.43,13.43,0,0,1,86,46.7Z"/><path class="cls-7" d="M88.8,46.07a.8.8,0,0,0-.08.79A4.16,4.16,0,0,0,90.12,48l.09-.71s-.3-.2-.33-.38a.41.41,0,0,1,0-.27Z"/><path class="cls-7" d="M91.14,42.53a30.48,30.48,0,0,0-6.46.06c-3,.43-7.51,1.87-7.46,2.07s5-1.64,7.36-1.8,6.74,0,6.74,0Z"/><path class="cls-7" d="M89.63,42.64A3.61,3.61,0,0,1,89,43.82a8.25,8.25,0,0,0-1.09,1.68,9.83,9.83,0,0,0,1.26-1.57c.35-.52.81-1.26.81-1.26Z"/><path class="cls-7" d="M86.63,42.66A5.29,5.29,0,0,1,86,44.58c-.66,1.36-.93,1.75-.77,1.78s.66-1,1-1.74.85-2,.85-2Z"/><path class="cls-7" d="M83.71,42.94a3.65,3.65,0,0,1-.23,1.42c-.29,1-.66,1.57-.52,1.64s.48-.86.68-1.59.5-1.62.5-1.62Z"/><path class="cls-7" d="M80.58,43.68a2.39,2.39,0,0,1-.16.84c-.19.52-.48,1-.39,1a1.87,1.87,0,0,0,.54-.92c.13-.46.27-1,.27-1Z"/><path class="cls-7" d="M90,42.56a4.38,4.38,0,0,0-1.13-1.09,3.61,3.61,0,0,0-1.46-.59c-.07.07.83.33,1.15.54a11.59,11.59,0,0,1,1.19,1.13Z"/><path class="cls-7" d="M86.9,42.47A2.91,2.91,0,0,0,86,41.24a4.56,4.56,0,0,0-2.06-.8c-.19.07,1.5.49,1.88.87a4.22,4.22,0,0,1,.7,1.2Z"/><path class="cls-7" d="M84.14,42.79a6.54,6.54,0,0,0-1.38-1.1,6.39,6.39,0,0,0-1.66-.42c-.2,0,1.27.33,1.68.62a8.6,8.6,0,0,1,1,1Z"/><path class="cls-7" d="M80.57,43.59s0-.24-.73-.5-1.06-.42-.92-.43a4.88,4.88,0,0,1,.91.24,5.66,5.66,0,0,1,1.08.61Z"/><path class="cls-3" d="M71.75,47.69c3,2.19,6.91,9.14,2.29,14.85s-11.38,6.05-16.47,2.69A11.47,11.47,0,0,1,56.15,47.1C61.29,42.2,67.24,44.37,71.75,47.69Z"/><path class="cls-4" d="M59.26,46.87h0Z"/><path class="cls-4" d="M60,47.59c.35-.17.74-.53.41-.84s-.77,0-1.09.12C58.84,47.26,59,48.05,60,47.59Z"/><path class="cls-4" d="M59.27,46.86l.54-.2A.88.88,0,0,0,59.27,46.86Z"/><path class="cls-4" d="M58.32,48.39c.13-.09.31-.29.13-.43a.22.22,0,0,0-.33.07.44.44,0,0,0-.22.29C57.87,48.61,58.18,48.49,58.32,48.39Z"/><path class="cls-4" d="M60.6,48.21a.33.33,0,0,0-.33,0c-.15,0-.35.08-.38.21a.25.25,0,0,0,0,.08l0,0,0,0c0,.15.38,0,.5,0S60.87,48.36,60.6,48.21Z"/><path class="cls-4" d="M59.84,48.55h0Z"/><path class="cls-4" d="M61.34,47.43c-.15,0-.32.21-.24.36s.44.09.57,0C62.17,47.53,61.52,47.32,61.34,47.43Z"/><path class="cls-4" d="M62,46.51c-.1,0-.29-.07-.37,0a.14.14,0,0,0,0,.17c0,.11.18.2.25.24s.91.32,1,.06S62.15,46.53,62,46.51Z"/><path class="cls-4" d="M61.13,46c.16.08.72.06.77-.16s-.3-.28-.45-.26a.61.61,0,0,0-.24.14C61.06,45.78,61,45.89,61.13,46Z"/><path class="cls-4" d="M58.42,47.31c.29-.21,0-.34-.22-.29h0c-.13,0-.46.15-.37.33S58.31,47.4,58.42,47.31Z"/><path class="cls-4" d="M57.2,48.69c.11-.12.44-.67.06-.69a.3.3,0,0,0-.2.1,1.08,1.08,0,0,0-.38.54C56.53,49.14,57,48.91,57.2,48.69Z"/><path class="cls-4" d="M59.25,48.85a.77.77,0,0,0-.51,0c-.28.08-.61.3-.66.51-.13.52.78.15,1,.08S59.67,49,59.25,48.85Z"/><path class="cls-4" d="M60.77,49.26c-.14.05-.3.17-.3.29s.53.17.67.11C61.7,49.39,61,49.14,60.77,49.26Z"/><path class="cls-4" d="M64.36,46.37a.26.26,0,0,0-.25.11.68.68,0,0,0,1,0A.59.59,0,0,0,64.36,46.37Z"/><path class="cls-4" d="M62.88,47.72c.31.1,1.16.16,1.23-.28a.75.75,0,0,0-.68-.08C63.17,47.35,62.88,47.44,62.88,47.72Z"/><path class="cls-4" d="M63.49,45.42a.44.44,0,0,0-.62-.07.34.34,0,0,0-.15.18A.59.59,0,0,0,63.49,45.42Z"/><path class="cls-4" d="M65.81,47.24c-.63,0,.18.81.52.56S66.05,47.08,65.81,47.24Z"/><path class="cls-4" d="M56.87,49.84c-.19-.16-.35,0-.46.18-.42.27-.93.9-.53,1.06S56.86,50.18,56.87,49.84Z"/><path class="cls-4" d="M55.72,49c-.54.11-.28,1,.23.39C56.27,49,55.94,48.9,55.72,49Z"/><path class="cls-4" d="M58.79,50.66a.27.27,0,0,0-.19.25c.2.15.73.16.87-.11S59,50.35,58.79,50.66Z"/><path class="cls-4" d="M63.59,49.18l0,0a.26.26,0,0,0,0,.11s0,.1,0,.12c.11.29.73.3.61-.07S63.73,49,63.59,49.18Z"/><path class="cls-4" d="M69.14,48.4c-.36-.5-1.12,0-.64.16C68.78,48.76,69.5,48.89,69.14,48.4Z"/><path class="cls-4" d="M56.2,53.19l.07-.13a.88.88,0,0,0-.4.63c.22.06.85-.37.83-.65S56.38,52.92,56.2,53.19Z"/><path class="cls-4" d="M61.87,51.77a.16.16,0,0,0,.21,0c.26,0,.75,0,.54-.32S61.94,51.55,61.87,51.77Z"/><path class="cls-4" d="M54,51.49a.53.53,0,0,0,0,.22c.32.11,1.14,0,.87-.51S54.13,51.12,54,51.49Z"/><path class="cls-4" d="M55.15,50.13h0a.27.27,0,0,0-.33.27.4.4,0,0,0,.55-.22A.39.39,0,0,0,55.15,50.13Z"/><path class="cls-5" d="M56.2,61.45c-1.17.86,4.81,5.19,8.69,5a11.44,11.44,0,0,0,9.4-6c1-2.15.67-8.24-.61-7.81-.46.15.1,2.22-1.78,5.34-1.66,2.75-4.48,5.46-8.22,5.27C58.57,63.05,57,60.88,56.2,61.45Z"/><path class="cls-6" d="M69,46.39a.55.55,0,0,0-.48.84c.32.79,2.27,2.09,2.83,1.88s.58-.87-.23-1.5A4.73,4.73,0,0,0,69,46.39Z"/><path class="cls-6" d="M70,47.46s2.26-2.34,2.9-3.22A39.83,39.83,0,0,0,75.08,40a.55.55,0,0,1,.48-.24c.28,0,.2.47.2.47s-1.58,3.22-2.22,4.11c-1.3,1.81-3,3.78-3,3.78Z"/><path class="cls-6" d="M74,43.05l-3.73-.47-.14.21L72,43.1l1.85.3Z"/><path class="cls-6" d="M66.21,47.26c-3.86,1-9.55-1.77-9.55-1.77s3.8-4.44,7.07-4.77S72.65,43,72.65,43A13.5,13.5,0,0,1,66.21,47.26Z"/><path class="cls-7" d="M69.06,46.63a.81.81,0,0,0-.09.79,4.09,4.09,0,0,0,1.4,1.11l.09-.7s-.3-.21-.33-.38a.39.39,0,0,1,0-.27Z"/><path class="cls-7" d="M71.4,43.09a29.77,29.77,0,0,0-6.46.06c-3,.43-7.52,1.86-7.47,2.06s5-1.63,7.37-1.8,6.73,0,6.73,0Z"/><path class="cls-7" d="M69.88,43.2a3.28,3.28,0,0,1-.63,1.17,9.15,9.15,0,0,0-1.08,1.68,9.72,9.72,0,0,0,1.25-1.56c.36-.53.81-1.27.81-1.27Z"/><path class="cls-7" d="M66.88,43.22a5.29,5.29,0,0,1-.66,1.91c-.66,1.36-.93,1.76-.76,1.79s.65-1,1-1.74.84-2,.84-2Z"/><path class="cls-7" d="M64,43.49a3.76,3.76,0,0,1-.22,1.43c-.3,1-.66,1.57-.53,1.64s.48-.87.69-1.59.5-1.63.5-1.63Z"/><path class="cls-7" d="M60.83,44.23a2.36,2.36,0,0,1-.16.84c-.18.52-.47,1-.39,1a1.84,1.84,0,0,0,.54-.92c.13-.47.27-1,.27-1Z"/><path class="cls-7" d="M70.23,43.12A4.19,4.19,0,0,0,69.1,42a3.51,3.51,0,0,0-1.45-.6c-.08.07.82.33,1.15.54A12.23,12.23,0,0,1,70,43.11Z"/><path class="cls-7" d="M67.15,43a2.91,2.91,0,0,0-.92-1.23,4.45,4.45,0,0,0-2-.8c-.2.06,1.5.49,1.88.86a4.23,4.23,0,0,1,.69,1.21Z"/><path class="cls-7" d="M64.4,43.34A6.75,6.75,0,0,0,63,42.25a5.58,5.58,0,0,0-1.66-.42c-.2,0,1.28.33,1.69.62a9.06,9.06,0,0,1,1,1Z"/><path class="cls-7" d="M60.82,44.15s0-.25-.73-.5-1.06-.43-.91-.43a4.31,4.31,0,0,1,.91.24,6,6,0,0,1,1.07.6Z"/><path class="cls-3" d="M52.83,29.89c3,2.19,6.91,9.13,2.29,14.85s-11.37,6-16.46,2.69A11.48,11.48,0,0,1,37.23,29.3C42.38,24.4,48.33,26.57,52.83,29.89Z"/><path class="cls-4" d="M40.34,29.07h0Z"/><path class="cls-4" d="M41,29.79c.35-.17.74-.53.41-.85s-.78,0-1.09.13C39.92,29.46,40.1,30.24,41,29.79Z"/><path class="cls-4" d="M40.36,29.06l.53-.2A.87.87,0,0,0,40.36,29.06Z"/><path class="cls-4" d="M39.4,30.59c.14-.09.31-.29.14-.43a.22.22,0,0,0-.33.07.44.44,0,0,0-.22.29C39,30.81,39.27,30.69,39.4,30.59Z"/><path class="cls-4" d="M41.69,30.41a.33.33,0,0,0-.33,0c-.15,0-.35.08-.38.21a.25.25,0,0,0,0,.08l0,0,0,0c0,.14.39,0,.51,0S42,30.56,41.69,30.41Z"/><path class="cls-4" d="M40.93,30.75h0Z"/><path class="cls-4" d="M42.42,29.63c-.15,0-.32.21-.23.36s.44.09.57,0C43.26,29.73,42.61,29.52,42.42,29.63Z"/><path class="cls-4" d="M43.05,28.71c-.1,0-.29-.07-.37,0a.14.14,0,0,0,0,.18c0,.11.18.2.25.24s.91.32,1,.06S43.24,28.73,43.05,28.71Z"/><path class="cls-4" d="M42.22,28.19c.16.08.72.06.77-.17s-.3-.27-.45-.25a.51.51,0,0,0-.24.14C42.15,28,42,28.09,42.22,28.19Z"/><path class="cls-4" d="M39.5,29.51c.29-.21,0-.34-.22-.29h0c-.13,0-.46.15-.37.33S39.39,29.59,39.5,29.51Z"/><path class="cls-4" d="M38.28,30.89c.11-.12.44-.67.06-.69a.28.28,0,0,0-.19.1,1.1,1.1,0,0,0-.39.54C37.61,31.34,38.1,31.11,38.28,30.89Z"/><path class="cls-4" d="M40.33,31.05a.74.74,0,0,0-.5,0c-.28.08-.61.3-.66.51-.13.52.78.15,1,.08S40.76,31.21,40.33,31.05Z"/><path class="cls-4" d="M41.86,31.46c-.15,0-.3.17-.3.28,0,.26.52.18.67.11C42.79,31.59,42.06,31.34,41.86,31.46Z"/><path class="cls-4" d="M45.44,28.57a.28.28,0,0,0-.25.11.69.69,0,0,0,1.05,0A.59.59,0,0,0,45.44,28.57Z"/><path class="cls-4" d="M44,29.92c.31.1,1.16.16,1.23-.28a.75.75,0,0,0-.68-.08C44.25,29.55,44,29.64,44,29.92Z"/><path class="cls-4" d="M44.58,27.62a.45.45,0,0,0-.62-.07.34.34,0,0,0-.15.18A.59.59,0,0,0,44.58,27.62Z"/><path class="cls-4" d="M46.89,29.44c-.62,0,.18.81.53.56S47.14,29.28,46.89,29.44Z"/><path class="cls-4" d="M38,32c-.19-.16-.36,0-.47.18-.42.26-.92.9-.52,1.06S38,32.38,38,32Z"/><path class="cls-4" d="M36.81,31.21c-.54.11-.29,1,.23.39C37.36,31.22,37,31.1,36.81,31.21Z"/><path class="cls-4" d="M39.88,32.86a.3.3,0,0,0-.2.25c.2.15.74.16.88-.11S40.06,32.55,39.88,32.86Z"/><path class="cls-4" d="M44.67,31.38l0,0a.52.52,0,0,0,0,.11c0,.05,0,.1,0,.12.11.29.73.3.61-.07S44.82,31.24,44.67,31.38Z"/><path class="cls-4" d="M50.23,30.6c-.36-.5-1.12,0-.64.16C49.86,31,50.59,31.09,50.23,30.6Z"/><path class="cls-4" d="M37.28,35.39l.08-.13a.88.88,0,0,0-.4.63c.21.06.85-.37.83-.65S37.47,35.12,37.28,35.39Z"/><path class="cls-4" d="M43,34a.16.16,0,0,0,.21.05c.26,0,.74,0,.54-.32S43,33.75,43,34Z"/><path class="cls-4" d="M35.12,33.69a.4.4,0,0,0,0,.22c.32.11,1.13,0,.86-.51S35.21,33.31,35.12,33.69Z"/><path class="cls-4" d="M36.24,32.33h0a.27.27,0,0,0-.33.27.41.41,0,0,0,.56-.22A.41.41,0,0,0,36.24,32.33Z"/><path class="cls-5" d="M37.29,43.65c-1.17.86,4.8,5.19,8.69,5a11.43,11.43,0,0,0,9.4-6c1-2.14.67-8.23-.62-7.8-.46.15.11,2.21-1.78,5.34-1.65,2.75-4.47,5.46-8.21,5.27C39.65,45.25,38.07,43.08,37.29,43.65Z"/><path class="cls-6" d="M50.11,28.59a.55.55,0,0,0-.49.84c.33.79,2.28,2.09,2.84,1.88s.58-.87-.24-1.5A4.66,4.66,0,0,0,50.11,28.59Z"/><path class="cls-6" d="M51.12,29.66s2.26-2.34,2.91-3.22a41.89,41.89,0,0,0,2.14-4.23.55.55,0,0,1,.48-.24c.27.05.19.47.19.47s-1.57,3.22-2.21,4.11c-1.3,1.81-3,3.78-3,3.78Z"/><path class="cls-6" d="M55.07,25.25l-3.73-.47L51.2,25l1.85.31,1.85.3Z"/><path class="cls-6" d="M47.3,29.46c-3.86,1-9.55-1.77-9.55-1.77s3.8-4.44,7.06-4.77,8.93,2.27,8.93,2.27A13.5,13.5,0,0,1,47.3,29.46Z"/><path class="cls-7" d="M50.14,28.83a.8.8,0,0,0-.08.79,4.09,4.09,0,0,0,1.4,1.11l.09-.7s-.3-.21-.33-.38a.39.39,0,0,1,0-.27Z"/><path class="cls-7" d="M52.48,25.29a29.75,29.75,0,0,0-6.46.06c-3,.43-7.52,1.86-7.46,2.06s4.95-1.63,7.36-1.8,6.74,0,6.74,0Z"/><path class="cls-7" d="M51,25.4a3.52,3.52,0,0,1-.63,1.17,8.89,8.89,0,0,0-1.09,1.68,10.21,10.21,0,0,0,1.26-1.56c.35-.53.81-1.27.81-1.27Z"/><path class="cls-7" d="M48,25.42a5.29,5.29,0,0,1-.66,1.91c-.66,1.36-.93,1.76-.77,1.79s.66-1,1-1.74.85-2,.85-2Z"/><path class="cls-7" d="M45.05,25.69a3.63,3.63,0,0,1-.23,1.42c-.29,1-.66,1.58-.52,1.65s.48-.87.68-1.59.5-1.63.5-1.63Z"/><path class="cls-7" d="M41.92,26.43a2.36,2.36,0,0,1-.16.84c-.19.52-.48,1-.39,1a1.82,1.82,0,0,0,.54-.91c.13-.47.27-1,.27-1Z"/><path class="cls-7" d="M51.32,25.31a4.43,4.43,0,0,0-1.13-1.08,3.53,3.53,0,0,0-1.46-.6c-.07.07.83.33,1.15.54a12.62,12.62,0,0,1,1.19,1.14Z"/><path class="cls-7" d="M48.24,25.23A2.91,2.91,0,0,0,47.32,24a4.44,4.44,0,0,0-2.06-.8c-.19.06,1.5.49,1.88.86a4.36,4.36,0,0,1,.7,1.21Z"/><path class="cls-7" d="M45.48,25.54a6.6,6.6,0,0,0-1.38-1.09A5.66,5.66,0,0,0,42.44,24c-.2,0,1.27.33,1.68.62a8.6,8.6,0,0,1,1.05,1Z"/><path class="cls-7" d="M41.91,26.35s0-.25-.73-.5-1.06-.43-.92-.43a4.16,4.16,0,0,1,.91.24,5.82,5.82,0,0,1,1.08.6Z"/><path class="cls-3" d="M26.35,45.58c-3,2.19-6.91,9.14-2.29,14.85s11.37,6.06,16.47,2.7A11.48,11.48,0,0,0,42,45C36.81,40.1,30.86,42.27,26.35,45.58Z"/><path class="cls-4" d="M38.84,44.76h0Z"/><path class="cls-4" d="M38.15,45.49c-.35-.17-.74-.53-.42-.85s.78,0,1.1.12C39.26,45.16,39.08,45.94,38.15,45.49Z"/><path class="cls-4" d="M38.82,44.76l-.53-.21A.78.78,0,0,1,38.82,44.76Z"/><path class="cls-4" d="M39.78,46.29c-.13-.1-.31-.3-.14-.44a.23.23,0,0,1,.34.07.43.43,0,0,1,.21.29C40.22,46.5,39.92,46.39,39.78,46.29Z"/><path class="cls-4" d="M37.49,46.11a.35.35,0,0,1,.33,0c.16,0,.35.08.39.21a.11.11,0,0,1,0,.08l0,0,0,0c0,.14-.38,0-.51,0S37.23,46.25,37.49,46.11Z"/><path class="cls-4" d="M38.26,46.44h0Z"/><path class="cls-4" d="M36.76,45.32c.15,0,.32.22.23.36s-.44.09-.56,0C35.93,45.43,36.57,45.21,36.76,45.32Z"/><path class="cls-4" d="M36.13,44.4c.11,0,.29-.06.37,0a.15.15,0,0,1,0,.18c0,.1-.18.2-.25.23s-.92.32-1,.06S36,44.43,36.13,44.4Z"/><path class="cls-4" d="M37,43.88c-.15.09-.71.06-.77-.16s.31-.28.45-.26a.5.5,0,0,1,.24.14C37,43.67,37.15,43.79,37,43.88Z"/><path class="cls-4" d="M39.68,45.21c-.29-.22,0-.34.22-.3h0c.13,0,.46.14.37.32S39.79,45.29,39.68,45.21Z"/><path class="cls-4" d="M40.9,46.59c-.11-.13-.44-.67-.06-.69a.26.26,0,0,1,.2.1,1.06,1.06,0,0,1,.38.53C41.57,47,41.09,46.81,40.9,46.59Z"/><path class="cls-4" d="M38.85,46.74a.8.8,0,0,1,.5,0,1,1,0,0,1,.67.52c.12.52-.79.14-1,.08S38.43,46.9,38.85,46.74Z"/><path class="cls-4" d="M37.33,47.15c.14.05.3.17.29.29s-.52.18-.66.11C36.4,47.29,37.13,47,37.33,47.15Z"/><path class="cls-4" d="M33.74,44.27a.23.23,0,0,1,.25.1.7.7,0,0,1-1.05,0A.59.59,0,0,1,33.74,44.27Z"/><path class="cls-4" d="M35.22,45.61c-.32.11-1.17.17-1.23-.28a.75.75,0,0,1,.68-.08C34.93,45.24,35.21,45.33,35.22,45.61Z"/><path class="cls-4" d="M34.6,43.31a.46.46,0,0,1,.63-.06.24.24,0,0,1,.14.18A.59.59,0,0,1,34.6,43.31Z"/><path class="cls-4" d="M32.29,45.14c.63,0-.18.81-.53.55S32,45,32.29,45.14Z"/><path class="cls-4" d="M41.22,47.73c.2-.15.36,0,.47.18.42.27.93.91.53,1.06S41.23,48.08,41.22,47.73Z"/><path class="cls-4" d="M42.38,46.91c.54.1.28,1-.23.38C41.83,46.91,42.15,46.79,42.38,46.91Z"/><path class="cls-4" d="M39.3,48.56a.27.27,0,0,1,.2.25c-.2.14-.74.15-.87-.11S39.12,48.25,39.3,48.56Z"/><path class="cls-4" d="M34.51,47.08l0,0a.2.2,0,0,1,0,.11c0,.05,0,.09,0,.11-.11.3-.73.31-.61-.06S34.37,46.94,34.51,47.08Z"/><path class="cls-4" d="M29,46.29c.37-.5,1.12,0,.65.16C29.32,46.65,28.6,46.79,29,46.29Z"/><path class="cls-4" d="M41.9,51.08,41.83,51a.93.93,0,0,1,.4.63c-.22.06-.85-.36-.84-.64S41.72,50.81,41.9,51.08Z"/><path class="cls-4" d="M36.23,49.67a.15.15,0,0,1-.22,0c-.26,0-.74,0-.53-.31S36.15,49.45,36.23,49.67Z"/><path class="cls-4" d="M44.06,49.39a.36.36,0,0,1,0,.21c-.32.11-1.13,0-.86-.51S44,49,44.06,49.39Z"/><path class="cls-4" d="M43,48h0a.27.27,0,0,1,.33.26.39.39,0,0,1-.55-.21A.34.34,0,0,1,43,48Z"/><path class="cls-5" d="M41.89,59.34c1.18.86-4.8,5.2-8.68,5a11.47,11.47,0,0,1-9.41-6c-1-2.15-.66-8.23.62-7.81.46.15-.1,2.22,1.78,5.35,1.66,2.74,4.48,5.45,8.21,5.27C39.53,60.94,41.12,58.77,41.89,59.34Z"/><path class="cls-6" d="M29.07,44.28a.55.55,0,0,1,.49.84c-.32.8-2.27,2.1-2.83,1.88s-.59-.87.23-1.5A4.86,4.86,0,0,1,29.07,44.28Z"/><path class="cls-6" d="M28.06,45.35S25.8,43,25.15,42.13A42,42,0,0,1,23,37.91s-.2-.3-.47-.25-.2.47-.2.47,1.58,3.23,2.22,4.12c1.29,1.8,3,3.77,3,3.77Z"/><path class="cls-6" d="M24.12,41c.14,0,3.73-.47,3.73-.47l.13.21-1.85.3-1.85.31Z"/><path class="cls-6" d="M31.89,45.15c3.85,1,9.55-1.77,9.55-1.77S37.63,39,34.37,38.61s-8.93,2.28-8.93,2.28A13.44,13.44,0,0,0,31.89,45.15Z"/><path class="cls-7" d="M29,44.52a.82.82,0,0,1,.09.79,4.16,4.16,0,0,1-1.4,1.12l-.1-.71s.31-.2.34-.38a.41.41,0,0,0,0-.27Z"/><path class="cls-7" d="M26.7,41a30.51,30.51,0,0,1,6.46.06c3,.43,7.52,1.87,7.46,2.07s-4.94-1.64-7.36-1.8-6.74,0-6.74,0Z"/><path class="cls-7" d="M28.22,41.09a3.36,3.36,0,0,0,.63,1.18A8.47,8.47,0,0,1,29.93,44a9.93,9.93,0,0,1-1.25-1.57c-.36-.52-.82-1.26-.82-1.26Z"/><path class="cls-7" d="M31.22,41.11A5.29,5.29,0,0,0,31.88,43c.66,1.36.93,1.75.76,1.78s-.66-1-1-1.74-.85-2-.85-2Z"/><path class="cls-7" d="M34.13,41.39a3.65,3.65,0,0,0,.23,1.42c.3,1,.66,1.57.53,1.64s-.49-.86-.69-1.59-.5-1.62-.5-1.62Z"/><path class="cls-7" d="M37.27,42.13a2.13,2.13,0,0,0,.16.84c.18.52.47,1,.38,1a1.88,1.88,0,0,1-.53-.92l-.28-1Z"/><path class="cls-7" d="M27.86,41A4.38,4.38,0,0,1,29,39.92a3.61,3.61,0,0,1,1.46-.59c.08.07-.83.33-1.15.54A12.41,12.41,0,0,0,28.12,41Z"/><path class="cls-7" d="M30.94,40.92a2.88,2.88,0,0,1,.93-1.23,4.57,4.57,0,0,1,2.05-.8c.2.07-1.5.49-1.88.87a4.1,4.1,0,0,0-.69,1.2Z"/><path class="cls-7" d="M33.7,41.24a6.42,6.42,0,0,1,1.39-1.09,6,6,0,0,1,1.66-.43c.19,0-1.28.33-1.69.62a8.84,8.84,0,0,0-1,1Z"/><path class="cls-7" d="M37.27,42s0-.24.74-.5,1.06-.42.91-.43a5.09,5.09,0,0,0-.91.24,5.46,5.46,0,0,0-1.07.61Z"/><path class="cls-3" d="M55.34,47.69c3,2.19,6.91,9.14,2.29,14.85s-11.38,6.05-16.47,2.69A11.47,11.47,0,0,1,39.74,47.1C44.88,42.2,50.83,44.37,55.34,47.69Z"/><path class="cls-4" d="M42.85,46.87h0Z"/><path class="cls-4" d="M43.54,47.59c.35-.17.74-.53.41-.84s-.77,0-1.09.12C42.43,47.26,42.61,48.05,43.54,47.59Z"/><path class="cls-4" d="M42.86,46.86l.54-.2A.88.88,0,0,0,42.86,46.86Z"/><path class="cls-4" d="M41.91,48.39c.13-.09.31-.29.13-.43a.22.22,0,0,0-.33.07.44.44,0,0,0-.22.29C41.46,48.61,41.77,48.49,41.91,48.39Z"/><path class="cls-4" d="M44.19,48.21a.33.33,0,0,0-.33,0c-.15,0-.35.08-.38.21a.25.25,0,0,0,0,.08l0,0,0,0c0,.15.38,0,.5,0S44.46,48.36,44.19,48.21Z"/><path class="cls-4" d="M43.43,48.55h0Z"/><path class="cls-4" d="M44.93,47.43c-.15,0-.32.21-.24.36s.44.09.57,0C45.76,47.53,45.11,47.32,44.93,47.43Z"/><path class="cls-4" d="M45.55,46.51c-.1,0-.29-.07-.37,0a.14.14,0,0,0,0,.17c0,.11.18.2.25.24s.91.32,1,.06S45.74,46.53,45.55,46.51Z"/><path class="cls-4" d="M44.72,46c.16.08.72.06.78-.16s-.31-.28-.46-.26a.61.61,0,0,0-.24.14C44.65,45.78,44.54,45.89,44.72,46Z"/><path class="cls-4" d="M42,47.31c.29-.21,0-.34-.22-.29h0c-.13,0-.46.15-.37.33S41.9,47.4,42,47.31Z"/><path class="cls-4" d="M40.79,48.69c.11-.12.44-.67.06-.69a.3.3,0,0,0-.2.1,1.08,1.08,0,0,0-.38.54C40.12,49.14,40.6,48.91,40.79,48.69Z"/><path class="cls-4" d="M42.84,48.85a.77.77,0,0,0-.51,0c-.28.08-.61.3-.66.51-.13.52.78.15,1,.08S43.26,49,42.84,48.85Z"/><path class="cls-4" d="M44.36,49.26c-.14.05-.3.17-.3.29s.53.17.67.11C45.29,49.39,44.56,49.14,44.36,49.26Z"/><path class="cls-4" d="M48,46.37a.26.26,0,0,0-.25.11.68.68,0,0,0,1,0A.59.59,0,0,0,48,46.37Z"/><path class="cls-4" d="M46.47,47.72c.32.1,1.16.16,1.23-.28a.75.75,0,0,0-.68-.08C46.76,47.35,46.47,47.44,46.47,47.72Z"/><path class="cls-4" d="M47.08,45.42a.44.44,0,0,0-.62-.07.34.34,0,0,0-.15.18A.59.59,0,0,0,47.08,45.42Z"/><path class="cls-4" d="M49.4,47.24c-.63,0,.18.81.52.56S49.65,47.08,49.4,47.24Z"/><path class="cls-4" d="M40.46,49.84c-.19-.16-.35,0-.46.18-.42.27-.93.9-.53,1.06S40.45,50.18,40.46,49.84Z"/><path class="cls-4" d="M39.31,49c-.54.11-.28,1,.23.39C39.86,49,39.53,48.9,39.31,49Z"/><path class="cls-4" d="M42.38,50.66a.27.27,0,0,0-.19.25c.2.15.73.16.87-.11S42.56,50.35,42.38,50.66Z"/><path class="cls-4" d="M47.18,49.18l0,0a.26.26,0,0,0,0,.11s0,.1,0,.12c.11.29.73.3.61-.07S47.32,49,47.18,49.18Z"/><path class="cls-4" d="M52.73,48.4c-.36-.5-1.12,0-.64.16C52.37,48.76,53.09,48.89,52.73,48.4Z"/><path class="cls-4" d="M39.79,53.19l.07-.13a.88.88,0,0,0-.4.63c.22.06.85-.37.83-.65S40,52.92,39.79,53.19Z"/><path class="cls-4" d="M45.46,51.77a.16.16,0,0,0,.21,0c.26,0,.75,0,.54-.32S45.53,51.55,45.46,51.77Z"/><path class="cls-4" d="M37.62,51.49a.53.53,0,0,0,0,.22c.32.11,1.14,0,.87-.51S37.72,51.12,37.62,51.49Z"/><path class="cls-4" d="M38.74,50.13h0a.27.27,0,0,0-.33.27.4.4,0,0,0,.55-.22A.39.39,0,0,0,38.74,50.13Z"/><path class="cls-5" d="M39.79,61.45c-1.17.86,4.81,5.19,8.69,5a11.44,11.44,0,0,0,9.4-6c1-2.15.67-8.24-.61-7.81-.46.15.1,2.22-1.78,5.34-1.66,2.75-4.48,5.46-8.22,5.27C42.16,63.05,40.57,60.88,39.79,61.45Z"/><path class="cls-6" d="M52.61,46.39a.55.55,0,0,0-.48.84c.32.79,2.27,2.09,2.83,1.88s.58-.87-.23-1.5A4.73,4.73,0,0,0,52.61,46.39Z"/><path class="cls-6" d="M53.63,47.46s2.26-2.34,2.9-3.22A39.83,39.83,0,0,0,58.67,40a.55.55,0,0,1,.48-.24c.28,0,.2.47.2.47s-1.58,3.22-2.22,4.11c-1.3,1.81-3,3.78-3,3.78Z"/><path class="cls-6" d="M57.57,43.05l-3.73-.47-.14.21,1.86.31,1.85.3Z"/><path class="cls-6" d="M49.8,47.26c-3.86,1-9.55-1.77-9.55-1.77s3.8-4.44,7.07-4.77S56.24,43,56.24,43A13.5,13.5,0,0,1,49.8,47.26Z"/><path class="cls-7" d="M52.65,46.63a.81.81,0,0,0-.09.79A4.09,4.09,0,0,0,54,48.53l.09-.7s-.3-.21-.33-.38a.39.39,0,0,1,0-.27Z"/><path class="cls-7" d="M55,43.09a29.77,29.77,0,0,0-6.46.06c-3,.43-7.52,1.86-7.46,2.06s4.94-1.63,7.36-1.8,6.73,0,6.73,0Z"/><path class="cls-7" d="M53.47,43.2a3.28,3.28,0,0,1-.63,1.17,9.15,9.15,0,0,0-1.08,1.68A9.72,9.72,0,0,0,53,44.49c.36-.53.81-1.27.81-1.27Z"/><path class="cls-7" d="M50.47,43.22a5.29,5.29,0,0,1-.66,1.91c-.66,1.36-.93,1.76-.76,1.79s.65-1,1-1.74.84-2,.84-2Z"/><path class="cls-7" d="M47.55,43.49a3.76,3.76,0,0,1-.22,1.43c-.3,1-.66,1.57-.53,1.64s.48-.87.69-1.59.5-1.63.5-1.63Z"/><path class="cls-7" d="M44.42,44.23a2.36,2.36,0,0,1-.16.84c-.18.52-.47,1-.39,1a1.84,1.84,0,0,0,.54-.92c.13-.47.27-1,.27-1Z"/><path class="cls-7" d="M53.82,43.12A4.19,4.19,0,0,0,52.69,42a3.51,3.51,0,0,0-1.45-.6c-.08.07.82.33,1.15.54a12.23,12.23,0,0,1,1.18,1.14Z"/><path class="cls-7" d="M50.74,43a2.91,2.91,0,0,0-.92-1.23,4.45,4.45,0,0,0-2-.8c-.2.06,1.5.49,1.88.86a4.23,4.23,0,0,1,.69,1.21Z"/><path class="cls-7" d="M48,43.34a6.75,6.75,0,0,0-1.39-1.09,5.58,5.58,0,0,0-1.66-.42c-.2,0,1.28.33,1.69.62a9.06,9.06,0,0,1,1,1Z"/><path class="cls-7" d="M44.41,44.15s0-.25-.73-.5-1.06-.43-.91-.43a4.31,4.31,0,0,1,.91.24,6,6,0,0,1,1.07.6Z"/><path class="cls-3" d="M9.12,47.33c-3,2.19-6.92,9.14-2.29,14.85s11.37,6.05,16.46,2.7a11.48,11.48,0,0,0,1.42-18.14C19.57,41.85,13.62,44,9.12,47.33Z"/><path class="cls-4" d="M21.6,46.51h0Z"/><path class="cls-4" d="M20.91,47.24c-.35-.17-.74-.53-.41-.85s.78,0,1.09.12C22,46.91,21.84,47.69,20.91,47.24Z"/><path class="cls-4" d="M21.59,46.51l-.54-.21A.83.83,0,0,1,21.59,46.51Z"/><path class="cls-4" d="M22.54,48c-.13-.1-.31-.3-.13-.44a.22.22,0,0,1,.33.07A.44.44,0,0,1,23,48C23,48.25,22.68,48.14,22.54,48Z"/><path class="cls-4" d="M20.26,47.86a.35.35,0,0,1,.33,0c.15,0,.35.08.38.21a.25.25,0,0,1,0,.08l0,0,0,0c-.05.14-.39,0-.51,0S20,48,20.26,47.86Z"/><path class="cls-4" d="M21,48.19h0Z"/><path class="cls-4" d="M19.52,47.07c.15,0,.32.22.24.36s-.44.09-.57,0C18.69,47.18,19.34,47,19.52,47.07Z"/><path class="cls-4" d="M18.9,46.15c.1,0,.29-.06.37,0a.15.15,0,0,1,0,.18c0,.1-.18.2-.25.23s-.91.32-1,.06S18.71,46.18,18.9,46.15Z"/><path class="cls-4" d="M19.73,45.63c-.16.09-.72.06-.77-.16s.3-.28.45-.26a.61.61,0,0,1,.24.14C19.8,45.42,19.91,45.54,19.73,45.63Z"/><path class="cls-4" d="M22.44,47c-.29-.22,0-.34.23-.3h0c.13,0,.46.14.37.32S22.56,47,22.44,47Z"/><path class="cls-4" d="M23.66,48.34c-.11-.13-.44-.67-.06-.69a.26.26,0,0,1,.2.1,1.15,1.15,0,0,1,.39.53C24.33,48.78,23.85,48.56,23.66,48.34Z"/><path class="cls-4" d="M21.61,48.49a.83.83,0,0,1,.51,0,1,1,0,0,1,.66.52c.13.52-.78.14-1,.08S21.19,48.65,21.61,48.49Z"/><path class="cls-4" d="M20.09,48.9c.14.05.3.17.3.29s-.52.18-.67.11C19.16,49,19.89,48.79,20.09,48.9Z"/><path class="cls-4" d="M16.5,46a.23.23,0,0,1,.25.1.69.69,0,0,1-1,0A.57.57,0,0,1,16.5,46Z"/><path class="cls-4" d="M18,47.36c-.31.11-1.16.17-1.23-.28a.75.75,0,0,1,.68-.08C17.7,47,18,47.08,18,47.36Z"/><path class="cls-4" d="M17.37,45.06A.44.44,0,0,1,18,45a.28.28,0,0,1,.15.18A.59.59,0,0,1,17.37,45.06Z"/><path class="cls-4" d="M15.06,46.89c.62,0-.19.81-.53.55S14.81,46.73,15.06,46.89Z"/><path class="cls-4" d="M24,49.48c.19-.15.35,0,.47.18.42.27.92.91.52,1.06S24,49.83,24,49.48Z"/><path class="cls-4" d="M25.14,48.66c.54.1.28,1-.23.38C24.59,48.66,24.92,48.54,25.14,48.66Z"/><path class="cls-4" d="M22.07,50.31a.28.28,0,0,1,.2.25c-.21.14-.74.15-.88-.11S21.89,50,22.07,50.31Z"/><path class="cls-4" d="M17.27,48.83l0,0a.2.2,0,0,1,0,.11c0,.05,0,.09,0,.11-.11.3-.73.31-.61-.06S17.13,48.69,17.27,48.83Z"/><path class="cls-4" d="M11.72,48c.36-.5,1.12,0,.64.16C12.08,48.4,11.36,48.54,11.72,48Z"/><path class="cls-4" d="M24.67,52.83l-.08-.13a.9.9,0,0,1,.4.63c-.21.06-.85-.36-.83-.64S24.48,52.56,24.67,52.83Z"/><path class="cls-4" d="M19,51.42a.14.14,0,0,1-.21,0c-.26,0-.74,0-.54-.31S18.92,51.2,19,51.42Z"/><path class="cls-4" d="M26.83,51.14a.47.47,0,0,1,0,.21c-.32.11-1.14,0-.87-.51S26.73,50.76,26.83,51.14Z"/><path class="cls-4" d="M25.71,49.77h0A.26.26,0,0,1,26,50a.39.39,0,0,1-.55-.21A.34.34,0,0,1,25.71,49.77Z"/><path class="cls-5" d="M24.66,61.09c1.17.86-4.8,5.2-8.69,5a11.47,11.47,0,0,1-9.4-6c-1-2.15-.67-8.23.62-7.81.45.15-.11,2.22,1.78,5.35,1.65,2.74,4.47,5.45,8.21,5.27C22.29,62.69,23.88,60.52,24.66,61.09Z"/><path class="cls-6" d="M11.84,46a.55.55,0,0,1,.48.84c-.32.8-2.27,2.1-2.83,1.88s-.58-.87.23-1.5A4.83,4.83,0,0,1,11.84,46Z"/><path class="cls-6" d="M10.82,47.1s-2.26-2.34-2.9-3.22a39.9,39.9,0,0,1-2.14-4.22s-.2-.3-.48-.25-.2.47-.2.47S6.68,43.11,7.32,44c1.3,1.8,3,3.77,3,3.77Z"/><path class="cls-6" d="M6.88,42.7c.14,0,3.73-.47,3.73-.47l.14.21-1.86.3L7,43.05Z"/><path class="cls-6" d="M14.65,46.9c3.86,1,9.55-1.77,9.55-1.77s-3.8-4.43-7.07-4.77-8.92,2.28-8.92,2.28A13.44,13.44,0,0,0,14.65,46.9Z"/><path class="cls-7" d="M11.8,46.27a.82.82,0,0,1,.09.79,4.16,4.16,0,0,1-1.4,1.12l-.09-.71s.3-.2.33-.38a.41.41,0,0,0,0-.27Z"/><path class="cls-7" d="M9.47,42.73a30.4,30.4,0,0,1,6.45.06c3,.43,7.52,1.87,7.47,2.07s-4.95-1.64-7.37-1.8-6.73,0-6.73,0Z"/><path class="cls-7" d="M11,42.84A3.36,3.36,0,0,0,11.61,44a8.47,8.47,0,0,1,1.08,1.68,10.55,10.55,0,0,1-1.25-1.57c-.35-.52-.81-1.26-.81-1.26Z"/><path class="cls-7" d="M14,42.86a5.29,5.29,0,0,0,.66,1.92c.66,1.36.93,1.75.77,1.78s-.66-1-1-1.74-.85-2-.85-2Z"/><path class="cls-7" d="M16.9,43.14a3.65,3.65,0,0,0,.23,1.42c.29,1,.66,1.57.52,1.64s-.48-.86-.68-1.59-.5-1.62-.5-1.62Z"/><path class="cls-7" d="M20,43.88a2.39,2.39,0,0,0,.16.84c.18.52.47,1,.39,1a1.79,1.79,0,0,1-.54-.92c-.13-.46-.27-1-.27-1Z"/><path class="cls-7" d="M10.63,42.76a4.38,4.38,0,0,1,1.13-1.09,3.56,3.56,0,0,1,1.46-.59c.07.07-.83.33-1.15.54a11.62,11.62,0,0,0-1.19,1.13Z"/><path class="cls-7" d="M13.71,42.67a2.91,2.91,0,0,1,.92-1.23,4.57,4.57,0,0,1,2-.8c.2.07-1.5.49-1.88.87a4.1,4.1,0,0,0-.69,1.2Z"/><path class="cls-7" d="M16.47,43a6.28,6.28,0,0,1,1.38-1.09,6,6,0,0,1,1.66-.43c.2,0-1.27.33-1.69.62a8.84,8.84,0,0,0-1,1Z"/><path class="cls-7" d="M20,43.79s0-.24.73-.5,1.06-.42.92-.43a4.69,4.69,0,0,0-.91.24,5.66,5.66,0,0,0-1.08.61Z"/><path class="cls-8" d="M9.58,64.8c1.21,4.8,4.31,16.83,6.17,21.38,2.36,5.73,1.26,8.24,9,9,6.68.67,20.45.36,26.27.21,5.82.15,19.6.46,26.28-.21,7.78-.79,6.68-3.3,9-9,1.87-4.55,5.22-18.45,6.42-23.25Z"/><path class="cls-9" d="M95.06,60.58c-.63-2.28-4.19-1.78-5.9-1.7-.58,0-1.17,0-1.75,0-2.93.06-5.85.09-8.77.13-3.31,0-42.61.84-45.88,1L23,60.33c-2.87.1-5.73.2-8.6.28-.57,0-1.15,0-1.72,0-1.68,0-5.2-.33-5.71,1.93A2.32,2.32,0,0,0,8.72,65.4a14.82,14.82,0,0,0,3.39-.1C15.38,65.1,18.67,65,22,65l9.94-.24L42,64.5c1.23,0,7.54-.08,9.09-.11l8.48-.21,10.28-.26L80,63.7c3.34-.08,6.69-.18,10-.12a15.22,15.22,0,0,0,3.44-.06A2.37,2.37,0,0,0,95.06,60.58Z"/><path class="cls-10" d="M14.09,65.15c-.84-.13-1.05-1.36-1.12-2A4.39,4.39,0,0,1,13.43,61a0,0,0,0,0-.07,0,3.25,3.25,0,0,0-.53,2.72,4,4,0,0,0,.17.63A2.62,2.62,0,0,1,13,61a.06.06,0,0,0-.09-.07,2.88,2.88,0,0,0,.52,4.14h.06a.79.79,0,0,0,.6.25C14.19,65.33,14.18,65.16,14.09,65.15Z"/><path class="cls-10" d="M14.22,65a3.39,3.39,0,0,1-.1-4,.06.06,0,0,0-.09-.08,3.08,3.08,0,0,0-.79,2.07,2.88,2.88,0,0,0,.87,2.15C14.18,65.11,14.27,65,14.22,65Z"/><path class="cls-10" d="M24.13,65a5.29,5.29,0,0,1-.8-4.76.06.06,0,1,0-.11-.05c-.69,1.46-.73,4,.77,5A.1.1,0,0,0,24.13,65Z"/><path class="cls-10" d="M25,65a5.25,5.25,0,0,1-.77-4.67s-.06-.08-.08,0a4,4,0,0,0-.39,2.44c0,.15.06.32.09.49-.07-.15-.15-.31-.21-.47a3.71,3.71,0,0,1,.11-2.46.07.07,0,0,0-.12,0c-.63,1.38-.63,3.39.7,4.4l.05,0a1.93,1.93,0,0,0,.45.49C24.9,65.23,25.05,65.1,25,65Z"/><path class="cls-10" d="M37.33,64.51a6.78,6.78,0,0,1-.93-2.28,4.29,4.29,0,0,1,.21-1.95c0-.13.2-.35.17-.51a.07.07,0,0,0-.07-.06c-.52.1-.71,1.65-.7,2.06a3.32,3.32,0,0,0,1.22,2.83C37.28,64.63,37.37,64.58,37.33,64.51Z"/><path class="cls-10" d="M38.38,64.48c-.85-1.33-1.58-3-1-4.6,0-.08-.07-.11-.11-.05-.72,1.3-.48,4,.95,4.8C38.36,64.69,38.43,64.55,38.38,64.48Z"/><path class="cls-10" d="M52,61.4c-.09-.65,0-1.25,0-1.88,0-.09-.11-.09-.14,0a4.27,4.27,0,0,0,.55,4,.07.07,0,0,0,.11-.07A11.35,11.35,0,0,1,52,61.4Z"/><path class="cls-10" d="M51.94,64.28a8.93,8.93,0,0,1-.86-4.71c0-.1-.12-.11-.14,0a6,6,0,0,0,0,2.6,4.9,4.9,0,0,0,.79,2.25A.12.12,0,0,0,51.94,64.28Z"/><path class="cls-10" d="M51.51,64.47a9.68,9.68,0,0,1-.81-2.28,12,12,0,0,1,0-2.54.08.08,0,1,0-.15,0c-.29,1.51-.52,3.85.77,5C51.4,64.73,51.57,64.59,51.51,64.47Z"/><path class="cls-10" d="M60.51,60.57c0-.34.07-1.15-.16-1.41,0,0-.09,0-.09,0a6.74,6.74,0,0,0,.43,3.67c0,.06.13,0,.12,0C60.72,62.07,60.57,61.33,60.51,60.57Z"/><path class="cls-10" d="M61.51,61.52c0-.78.05-1.56,0-2.33a.08.08,0,0,0-.16,0A9.28,9.28,0,0,0,61.65,64c0,.06.11,0,.1,0C61.7,63.18,61.56,62.35,61.51,61.52Z"/><path class="cls-10" d="M60.92,61.32c-.06-.65,0-1.31,0-2,0-.08-.13-.07-.15,0a6.23,6.23,0,0,0,.44,4.15s.1,0,.09,0A13,13,0,0,1,60.92,61.32Z"/><path class="cls-10" d="M69.36,61.46a15.62,15.62,0,0,0,0-2.37c0-.09-.16-.1-.17,0-.13,1.51-.5,3.72.56,5a.12.12,0,0,0,.2-.12A10.29,10.29,0,0,1,69.36,61.46Z"/><path class="cls-10" d="M70.13,61.69c-.07-.84.09-1.65.08-2.48,0-.11-.15-.09-.17,0-.33,1.37-.73,3.79.43,4.91.07.07.22,0,.2-.12A12.93,12.93,0,0,1,70.13,61.69Z"/><path class="cls-10" d="M82.2,61.71c0-.87-.21-2.4-1-2.94a.06.06,0,0,0-.09.07,9.11,9.11,0,0,1,.62,2.62c.08.74-.28,1.53-.17,2.22,0,.07.1.14.17.1C82.33,63.45,82.21,62.28,82.2,61.71Z"/><path class="cls-10" d="M82.25,58.85a.1.1,0,0,0-.18.1,7,7,0,0,1,.38,4.49c0,.07.06.14.11.07A4.14,4.14,0,0,0,82.25,58.85Z"/><path class="cls-10" d="M92.55,60.55a2.78,2.78,0,0,0-.77-2c-.09-.07-.2,0-.14.14.87,1.32.61,3.21.42,4.67a.15.15,0,0,0,.29.08A7.09,7.09,0,0,0,92.55,60.55Z"/><path class="cls-10" d="M91.44,58.58a.09.09,0,0,0-.16.09A12.12,12.12,0,0,1,91.74,60a10.43,10.43,0,0,1,.12,1.48.15.15,0,0,0,.3,0A3.81,3.81,0,0,0,91.44,58.58Z"/><path class="cls-11" d="M95.06,60.58a2,2,0,0,0-.71-1.07A2.09,2.09,0,0,1,93,60.62a15.46,15.46,0,0,1-3.4.05c-3.3-.05-6.61,0-9.91.12l-10,.22-10.15.25-8.37.2c-1.53,0-7.75.09-9,.11l-10,.22-9.8.23c-3.24.08-6.49.14-9.72.34a14.94,14.94,0,0,1-3.34.1,2.05,2.05,0,0,1-1.47-1.13A2,2,0,0,0,7,62.59,2.32,2.32,0,0,0,8.72,65.4a14.82,14.82,0,0,0,3.39-.1C15.38,65.1,18.67,65,22,65l9.94-.24L42,64.5c1.23,0,7.54-.08,9.09-.11l8.48-.21,10.28-.26L80,63.7c3.34-.08,6.69-.18,10-.12a15.22,15.22,0,0,0,3.44-.06A2.37,2.37,0,0,0,95.06,60.58Z"/><path class="cls-11" d="M82.11,62.75,71.24,63l-11,.27-9.11.22c-1.67,0-8.44.1-9.77.12l-10.84.24-10.68.26c-3.52.09-7,.15-10.57.37-.57,0-1.16.11-1.75.15a2,2,0,0,0,1.25.77,14.82,14.82,0,0,0,3.39-.1C15.38,65.1,18.67,65,22,65l9.94-.24L42,64.5c1.23,0,7.54-.08,9.09-.11l8.48-.21,10.28-.26L80,63.7c3.34-.08,6.69-.18,10-.12a15.22,15.22,0,0,0,3.44-.06,2,2,0,0,0,1.22-.82c-.6,0-1.2-.07-1.78-.07C89.3,62.57,85.71,62.67,82.11,62.75Z"/><g class="cls-12"><path class="cls-13" d="M9.77,61.12a3.06,3.06,0,0,0-1.27.14.16.16,0,0,0,0,.32,4.19,4.19,0,0,0,.5,0,6.48,6.48,0,0,0,.77-.09A.17.17,0,0,0,9.77,61.12Z"/><path class="cls-13" d="M11.11,60.94a1.1,1.1,0,0,0-.54,0,.16.16,0,0,0,0,.31,1.1,1.1,0,0,0,.54,0A.16.16,0,0,0,11.11,60.94Z"/><path class="cls-13" d="M22.45,60.73a26.2,26.2,0,0,0-4.06,0,20.78,20.78,0,0,0-3.7.21.06.06,0,0,0,0,.11,18.28,18.28,0,0,0,3.47.07A35.87,35.87,0,0,0,22.44,61,.14.14,0,0,0,22.45,60.73Z"/><path class="cls-13" d="M34.56,60.54a21.18,21.18,0,0,0-4.21.05c-1.69,0-3.36,0-5,.15-.07,0-.07.12,0,.13,1.56.09,3.14.17,4.71.19a21.5,21.5,0,0,0,4.54-.18A.17.17,0,0,0,34.56,60.54Z"/><path class="cls-13" d="M49.84,60a37.69,37.69,0,0,0-5.52.06,32.49,32.49,0,0,0-5.41.3c-.08,0-.09.15,0,.15,1.72,0,3.4.1,5.12,0a46.88,46.88,0,0,0,5.81-.21A.18.18,0,0,0,49.84,60Z"/><path class="cls-13" d="M58.73,59.91a24.87,24.87,0,0,0-2.59,0c-.89,0-1.81.16-2.69.14a.07.07,0,0,0,0,.14,12.16,12.16,0,0,0,2.34.07,22.48,22.48,0,0,0,3,0A.15.15,0,0,0,58.73,59.91Z"/><path class="cls-13" d="M68.39,59.84c-1.85-.34-3.75.06-5.6,0-.07,0-.08.08,0,.1a14.53,14.53,0,0,0,2.8.14,13.89,13.89,0,0,0,2.81,0A.12.12,0,0,0,68.39,59.84Z"/><path class="cls-13" d="M79.09,59.67c-2.74-.3-5.49,0-8.24-.08-.18,0-.22.27,0,.29a23.73,23.73,0,0,0,3.77.13c1.5-.1,3,0,4.51-.15A.1.1,0,0,0,79.09,59.67Z"/><path class="cls-13" d="M81.08,59.62a1.63,1.63,0,0,0-1.15-.13c-.16,0-.18.29,0,.3a4.93,4.93,0,0,0,1.08.09C81.12,59.86,81.2,59.69,81.08,59.62Z"/><path class="cls-13" d="M90,59.18a30.18,30.18,0,0,0-6.23.16s-.05.08,0,.08a32.42,32.42,0,0,0,6.23,0A.11.11,0,0,0,90,59.18Z"/><path class="cls-13" d="M93.8,59.32a1.51,1.51,0,0,0-.93-.19c-.14,0-.13.22,0,.24.29,0,.55.14.84.16C93.82,59.53,93.91,59.39,93.8,59.32Z"/></g><path class="cls-10" d="M15,74.72a21.05,21.05,0,0,1-.83-3.09,23.13,23.13,0,0,1-.09-3c0-.12-.16-.1-.19,0a10.19,10.19,0,0,0,.8,6.22C14.73,75,15,74.91,15,74.72Z"/><path class="cls-10" d="M17.44,75.47a11.68,11.68,0,0,1-1.17-3,21.74,21.74,0,0,1-.18-3.13c0-.16-.27-.16-.29,0-.17,2.21-.18,4.53,1.35,6.32C17.27,75.77,17.53,75.64,17.44,75.47Z"/><path class="cls-10" d="M19.52,74.45a17.92,17.92,0,0,1-.84-2.6,16.78,16.78,0,0,1-.15-3,.14.14,0,0,0-.28,0,8.51,8.51,0,0,0,1,5.77C19.36,74.76,19.58,74.61,19.52,74.45Z"/><path class="cls-10" d="M19.7,89.34a17.89,17.89,0,0,1-1.26-5,.08.08,0,1,0-.15,0,10.77,10.77,0,0,0,1.21,5.07C19.57,89.57,19.76,89.46,19.7,89.34Z"/><path class="cls-10" d="M21.9,88.88a18,18,0,0,1-1-3.11,9.16,9.16,0,0,0-.46-2.34.12.12,0,0,0-.22.06c.16.87.22,1.77.37,2.65A9.71,9.71,0,0,0,21.62,89,.15.15,0,0,0,21.9,88.88Z"/><path class="cls-10" d="M24.3,89.41A17.36,17.36,0,0,1,23,83.9c0-.17-.31-.18-.32,0a11.2,11.2,0,0,0,1.24,5.66C24.06,89.77,24.4,89.64,24.3,89.41Z"/><path class="cls-10" d="M25.79,82.47a10.34,10.34,0,0,1-1.15-2.89,32.81,32.81,0,0,1-.44-3.43c0-.12-.21-.13-.22,0a10.09,10.09,0,0,0,1.53,6.48C25.62,82.78,25.88,82.63,25.79,82.47Z"/><path class="cls-10" d="M27.6,82.81a25.48,25.48,0,0,1-1-3.29c-.2-1-.26-2.1-.44-3.15a.12.12,0,0,0-.24,0c.26,2.3.37,4.41,1.46,6.5A.12.12,0,0,0,27.6,82.81Z"/><path class="cls-10" d="M29.79,81.63a29.18,29.18,0,0,1-1-4.09.11.11,0,0,0-.21,0,9.51,9.51,0,0,0,1,4.21A.15.15,0,0,0,29.79,81.63Z"/><path class="cls-10" d="M30,76.43a22.06,22.06,0,0,1-.67-2.54c-.15-1-.25-2.1-.38-3.14a.13.13,0,0,0-.26,0,15.07,15.07,0,0,0,1,5.73C29.75,76.65,30,76.6,30,76.43Z"/><path class="cls-10" d="M32.59,76.48a15.67,15.67,0,0,1-1.08-3.06A18.84,18.84,0,0,0,31,70.85a.09.09,0,0,0-.18.05c.37,2,.3,4,1.47,5.76A.18.18,0,0,0,32.59,76.48Z"/><path class="cls-10" d="M33.73,70.83a.07.07,0,0,0-.14,0,43.12,43.12,0,0,0,1,5.15c0,.14.28.08.25-.07C34.58,74.24,34.21,72.5,33.73,70.83Z"/><path class="cls-10" d="M44.1,80.25a.1.1,0,0,0-.19,0,11,11,0,0,0,.2,5.13c0,.18.36.1.32-.09A16.54,16.54,0,0,1,44.1,80.25Z"/><path class="cls-10" d="M45.85,80.47c0-.18-.32-.18-.33,0a15.61,15.61,0,0,0,.61,5.81.15.15,0,0,0,.29-.08A44,44,0,0,1,45.85,80.47Z"/><path class="cls-10" d="M49.85,85.54a22,22,0,0,1-1.15-5.68c0-.18-.27-.13-.27,0a12.79,12.79,0,0,0,1.11,5.77A.17.17,0,0,0,49.85,85.54Z"/><path class="cls-10" d="M51.24,74c0-.09-.17-.09-.17,0a26.94,26.94,0,0,0,.33,6.53.14.14,0,0,0,.28,0A64.3,64.3,0,0,1,51.24,74Z"/><path class="cls-10" d="M53.73,73.43c0-.15-.2-.17-.23,0a13.72,13.72,0,0,0-.09,6.34.14.14,0,0,0,.27,0A29.21,29.21,0,0,1,53.73,73.43Z"/><path class="cls-10" d="M56.11,76.33c-.08-1.16,0-2.33,0-3.48,0-.15-.23-.14-.25,0a13.55,13.55,0,0,0,.66,7.25A.15.15,0,0,0,56.8,80,35.76,35.76,0,0,1,56.11,76.33Z"/><path class="cls-10" d="M67.1,81c.1-1.17.39-2.34.56-3.51a.11.11,0,0,0-.22,0c-.58,2.45-1.19,4.82-.57,7.32a.2.2,0,0,0,.39-.05A17.25,17.25,0,0,1,67.1,81Z"/><path class="cls-10" d="M69.5,78.61a.14.14,0,0,0-.28,0A18.06,18.06,0,0,0,69,85.2a.15.15,0,0,0,.3,0A41,41,0,0,1,69.5,78.61Z"/><path class="cls-10" d="M72.46,80.7a26.8,26.8,0,0,0,.14-3.1c0-.13-.21-.1-.21,0,0,1.12-.29,2.26-.36,3.38a13.39,13.39,0,0,0,.15,3.35.16.16,0,0,0,.31,0C72.45,83.11,72.42,81.91,72.46,80.7Z"/><path class="cls-10" d="M82.44,77.91a16.32,16.32,0,0,0-.88,6.61.12.12,0,0,0,.24,0c.08-1.1.07-2.2.21-3.3s.54-2.18.6-3.27C82.61,77.86,82.47,77.81,82.44,77.91Z"/><path class="cls-10" d="M84.59,78.25c-.37,2.37-1,4.69-.74,7.12,0,.21.37.22.38,0a36.28,36.28,0,0,1,.2-3.76c.12-1.11.39-2.21.42-3.33A.13.13,0,0,0,84.59,78.25Z"/><path class="cls-10" d="M73.56,88.54c0-.78.16-1.56.18-2.34a.08.08,0,0,0-.15,0,6.36,6.36,0,0,0-.34,2.34,9.43,9.43,0,0,0,.23,2.75c0,.18.32.15.29,0A14,14,0,0,1,73.56,88.54Z"/><path class="cls-10" d="M75.89,86.39c0-.11-.14-.14-.19,0a8,8,0,0,0-.07,5.07.14.14,0,0,0,.27-.07A12.5,12.5,0,0,1,75.89,86.39Z"/><path class="cls-10" d="M78.39,86.46a.11.11,0,0,0-.22,0,17.2,17.2,0,0,0,.1,4.7.18.18,0,0,0,.35,0C78.44,89.57,78.59,88,78.39,86.46Z"/><path class="cls-10" d="M75.31,73.31c.07-1,.31-1.9.47-2.86a.08.08,0,0,0-.16,0c-.49,2.09-1,4.08-.29,6.2,0,.12.24.06.22-.06A13.75,13.75,0,0,1,75.31,73.31Z"/><path class="cls-10" d="M78.19,73.35c0-.88.18-1.75.18-2.64,0-.13-.23-.13-.23,0-.15,2.12-.67,4.16,0,6.26.05.19.34.1.32-.09A19.76,19.76,0,0,1,78.19,73.35Z"/><path class="cls-10" d="M81.3,70.81c0-.17-.26-.21-.27,0-.11,2.08-.76,4.14-.37,6.24A.15.15,0,0,0,81,77,60.43,60.43,0,0,1,81.3,70.81Z"/><path class="cls-10" d="M32.92,65.75a19.22,19.22,0,0,1-5.35.46c-.09,0-.1.12,0,.14A9.84,9.84,0,0,0,33,66.07C33.18,66,33.11,65.71,32.92,65.75Z"/><path class="cls-10" d="M33.72,67.6c-1.91.38-4.16,1-6.12.51-.07,0-.1.1,0,.13a6.28,6.28,0,0,0,2.66.33,9.64,9.64,0,0,0,3.57-.68C34,67.82,33.89,67.56,33.72,67.6Z"/><path class="cls-10" d="M27.3,70.58a13.61,13.61,0,0,1-5.05.1c-.07,0-.11.1,0,.13a7.29,7.29,0,0,0,5.16.09C27.55,70.82,27.49,70.54,27.3,70.58Z"/><path class="cls-10" d="M27.63,73.09a21.23,21.23,0,0,1-5.1.14c-.09,0-.13.13,0,.15a9.81,9.81,0,0,0,5.24.08C28,73.4,27.84,73.06,27.63,73.09Z"/><path class="cls-10" d="M27.45,75.31a17.74,17.74,0,0,1-4.77-.12c-.09,0-.12.12,0,.15a7.28,7.28,0,0,0,4.89.24C27.69,75.53,27.61,75.3,27.45,75.31Z"/><path class="cls-10" d="M36.28,77a23,23,0,0,1-6.13.73c-.2,0-.25.3,0,.32a14,14,0,0,0,6.27-.7A.18.18,0,0,0,36.28,77Z"/><path class="cls-10" d="M35.73,79.88a18.73,18.73,0,0,1-5.49.24.14.14,0,0,0-.07.26,9.83,9.83,0,0,0,5.66-.13A.19.19,0,0,0,35.73,79.88Z"/><path class="cls-10" d="M35.55,82.58c-1.5.31-3.34,1-4.88.68a.12.12,0,0,0-.06.22c1.48.51,3.62,0,5-.49A.22.22,0,0,0,35.55,82.58Z"/><path class="cls-10" d="M30.4,84.4c-1.88,0-3.76.34-5.64-.08-.07,0-.1.09,0,.12a9.79,9.79,0,0,0,5.67.29C30.56,84.69,30.61,84.4,30.4,84.4Z"/><path class="cls-10" d="M30.9,86.07a21.23,21.23,0,0,1-5.34.2c-.13,0-.15.17,0,.2a12.7,12.7,0,0,0,5.42,0A.21.21,0,0,0,30.9,86.07Z"/><path class="cls-10" d="M30.85,87.87a16,16,0,0,1-5.38.45c-.11,0-.16.16,0,.19a9.09,9.09,0,0,0,5.5-.36C31.08,88.1,31,87.85,30.85,87.87Z"/><path class="cls-10" d="M21.25,76.93c-2,0-4,.48-6,.23-.12,0-.14.16,0,.19a12.8,12.8,0,0,0,6.12-.15C21.49,77.16,21.39,76.93,21.25,76.93Z"/><path class="cls-10" d="M21,79.71c-1.55-.21-3.1-.18-4.65-.32a.1.1,0,0,0,0,.2A31.37,31.37,0,0,0,21,80C21.16,80,21.2,79.73,21,79.71Z"/><path class="cls-10" d="M21.37,82.08a26.63,26.63,0,0,1-4.64.12.13.13,0,0,0,0,.26,9.11,9.11,0,0,0,4.75-.13A.13.13,0,0,0,21.37,82.08Z"/><path class="cls-10" d="M48.74,75.26c-2.16.07-4.27.15-6.43,0a.08.08,0,0,0,0,.16,17.43,17.43,0,0,0,6.48,0A.13.13,0,0,0,48.74,75.26Z"/><path class="cls-10" d="M50,77.45c-1.38,0-2.76.18-4.15.23a33.56,33.56,0,0,1-3.87-.2.09.09,0,0,0,0,.18,22.39,22.39,0,0,0,8.08.08A.15.15,0,0,0,50,77.45Z"/><path class="cls-10" d="M49.2,79.36a39,39,0,0,1-7.4.14.08.08,0,0,0,0,.16,13.44,13.44,0,0,0,3.23.21,23.84,23.84,0,0,0,4.22-.31A.1.1,0,0,0,49.2,79.36Z"/><path class="cls-10" d="M56,68.18c-1,0-1.89.1-2.85.08s-1.81-.16-2.69-.26a.06.06,0,0,0,0,.12,13.08,13.08,0,0,0,5.56.36C56.11,68.44,56.13,68.18,56,68.18Z"/><path class="cls-10" d="M55.82,69.79a21.65,21.65,0,0,1-5.63-.21c-.08,0-.12.12,0,.16a11.13,11.13,0,0,0,5.7.28A.12.12,0,0,0,55.82,69.79Z"/><path class="cls-10" d="M56.3,71.26a19.61,19.61,0,0,1-7.44.26c-.09,0-.1.1,0,.12a14.09,14.09,0,0,0,7.54-.09C56.54,71.5,56.46,71.23,56.3,71.26Z"/><path class="cls-10" d="M73.87,71.5a21.92,21.92,0,0,1-4,.16,25.57,25.57,0,0,1-3.48-.6.1.1,0,0,0-.06.19,12.78,12.78,0,0,0,7.56.57A.16.16,0,0,0,73.87,71.5Z"/><path class="cls-10" d="M73.09,73.83A20.54,20.54,0,0,1,67,73.57c-.1,0-.14.15,0,.18a11.27,11.27,0,0,0,6.14.42A.17.17,0,0,0,73.09,73.83Z"/><path class="cls-10" d="M74.16,75.89a15.33,15.33,0,0,1-7.67.36c-.18,0-.2.23,0,.27a12.2,12.2,0,0,0,7.85-.31C74.5,76.12,74.37,75.83,74.16,75.89Z"/><path class="cls-10" d="M88.5,70.63a38.5,38.5,0,0,1-5.26-.21c-.12,0-.14.16,0,.19A19.06,19.06,0,0,0,88.5,71C88.7,71,88.7,70.63,88.5,70.63Z"/><path class="cls-10" d="M87.34,72.72a14.52,14.52,0,0,1-4,.07.11.11,0,0,0,0,.22,9.9,9.9,0,0,0,4,0A.16.16,0,0,0,87.34,72.72Z"/><path class="cls-10" d="M86.86,75.46a10.55,10.55,0,0,1-4.43.33c-.11,0-.16.15-.05.19a6.3,6.3,0,0,0,4.56-.21C87.1,75.7,87,75.43,86.86,75.46Z"/><path class="cls-10" d="M80.05,77.92a23.7,23.7,0,0,1-5.19,0c-.1,0-.15.15,0,.18a9.16,9.16,0,0,0,2.45.26,15.73,15.73,0,0,0,2.83-.1A.18.18,0,0,0,80.05,77.92Z"/><path class="cls-10" d="M79.58,81a31.44,31.44,0,0,1-5.57-.5c-.15,0-.21.21-.07.25a17,17,0,0,0,5.64.6C79.78,81.38,79.78,81,79.58,81Z"/><path class="cls-10" d="M79.43,84.13A16.85,16.85,0,0,1,74,83.75a.13.13,0,0,0-.07.25,11.67,11.67,0,0,0,5.56.49A.18.18,0,0,0,79.43,84.13Z"/><g class="cls-14"><path class="cls-8" d="M55.67,68.63c.25,0,.5.37.24.58a3.7,3.7,0,0,1-2.15.49,7.84,7.84,0,0,1-2.84-.46.3.3,0,0,1-.14-.1c-.34-.13-.16-.69.24-.63a16.43,16.43,0,0,0,2.8.22A14.34,14.34,0,0,1,55.67,68.63Z"/><path class="cls-8" d="M53.08,80.09a.31.31,0,0,1-.13.36.33.33,0,0,1-.6.06,8,8,0,0,1-.8-4.15c0-.69,0-2.18.77-2.49a.37.37,0,0,1,.33.09c.38.33.26,1.1.2,1.54A10.77,10.77,0,0,0,53.08,80.09Z"/><path class="cls-8" d="M51.14,71.42c-.53,0-1.42-.34-1.58-.93-.21-.23.1-.67.44-.5,1.61.78,3.64.57,5.36.42.39,0,.45.56.09.66A12.77,12.77,0,0,1,51.14,71.42Z"/><path class="cls-8" d="M54.72,73.52a.34.34,0,0,1,.56.15,3,3,0,0,1-.18,1.86,7.78,7.78,0,0,0,0,2.68c.14.65.41,1.22.57,1.85a.34.34,0,0,1-.5.38c-1.06-.47-1.37-2.09-1.4-3.12S53.8,74.33,54.72,73.52Z"/><path class="cls-8" d="M33.4,72.68c.06.7.13,1.39.24,2.09a1.89,1.89,0,0,1-.06,1,.34.34,0,0,1-.49.2c-1-.64-1.11-2.35-1.15-3.49s0-2,.68-1.88S33.35,72.15,33.4,72.68Z"/><path class="cls-8" d="M34.67,79.57a9.37,9.37,0,0,1-4-.17.34.34,0,0,1-.18-.1.62.62,0,0,1-.14-.14.43.43,0,0,1,.12-.54.1.1,0,0,1,.05,0,.27.27,0,0,1,.28-.16,16.08,16.08,0,0,0,2.86-.14c.84-.09,1.58-.38,2.39-.5a.35.35,0,0,1,.43.32C36.56,79,35.4,79.41,34.67,79.57Z"/><path class="cls-8" d="M36,81.09c-.72,2-4.05,1.7-5.34.57a.33.33,0,0,1,.05-.51.31.31,0,0,1,.4-.27,6.55,6.55,0,0,0,2.82.14c.45-.06,1.48-.59,1.91-.31A.34.34,0,0,1,36,81.09Z"/><path class="cls-8" d="M29.49,73.08c0-.66-.2-1.63.33-2.13a.33.33,0,0,1,.41,0c.57.38.4,1.47.46,2,.1.92.64,1.92.48,2.83a.29.29,0,0,1-.28.24.26.26,0,0,1-.36-.07A5.05,5.05,0,0,1,29.49,73.08Z"/><path class="cls-8" d="M28,66.64a9.4,9.4,0,0,0,2.85.21,9.42,9.42,0,0,1,1.83-.11.34.34,0,0,1,.15.56,4.48,4.48,0,0,1-3.22.71,3,3,0,0,1-1.93-.74.32.32,0,0,1-.06-.15A.33.33,0,0,1,28,66.64Z"/><path class="cls-8" d="M28.51,82.27c-1.54.42-1.77-4.42-1.68-5.12a.35.35,0,0,1,.33-.31.32.32,0,0,1,.51-.06,1.31,1.31,0,0,1,.39.91,13.79,13.79,0,0,0,.46,2.47C28.66,80.58,29.32,82.05,28.51,82.27Z"/><path class="cls-8" d="M27.74,74.39a1.51,1.51,0,0,1-1,.7,4.25,4.25,0,0,1-4.12-.7.32.32,0,0,1,.16-.55.27.27,0,0,1,.28-.06,11.39,11.39,0,0,0,4.43.11C27.71,73.85,27.85,74.19,27.74,74.39Z"/><path class="cls-8" d="M27.2,72.23a4.92,4.92,0,0,1-4.56.46c-.29-.15-.77-.6-.3-.88h0a.37.37,0,0,1,.42-.33,27.67,27.67,0,0,0,4.27.14A.33.33,0,0,1,27.2,72.23Z"/><path class="cls-8" d="M21.38,77.77a.34.34,0,0,1,.34.33c.1,1.3-2.17,1.18-2.94,1.14-.6,0-2.51,0-2.83-.77a.34.34,0,0,1,.28-.6C18,78.28,19.66,77.76,21.38,77.77Z"/><path class="cls-8" d="M16.48,69.84a.18.18,0,0,1,.06-.09,1.17,1.17,0,0,1,.15-.27.68.68,0,0,1,.43-.31.25.25,0,0,1,.39.11,3.27,3.27,0,0,1,.14,1.21A18.43,18.43,0,0,0,18,72.57c.09.36.5,1.38.12,1.7s-.62.13-.88-.18A4.53,4.53,0,0,1,16.48,69.84Z"/><path class="cls-8" d="M14.92,74.09c-.36-.34-.42-1.18-.5-1.64a7.28,7.28,0,0,1,0-2.55.14.14,0,0,1,0-.06.91.91,0,0,1,.44-.71c.73-.38.71,2.88.72,3.12S15.82,75,14.92,74.09Z"/><path class="cls-8" d="M20.87,89a.34.34,0,0,1-.57.24c-.92-.93-1.12-2.43-1.31-3.74,0-.17-.06-.35-.08-.53,0,0,0,0,0-.08v-.06c0-.51.1-.92.57-.92.74,0,.69,1.25.76,1.7A15.46,15.46,0,0,1,20.87,89Z"/><path class="cls-8" d="M20.91,81.48c-1.24.79-5,.7-5.6-.94a.31.31,0,0,1,.14-.36c0-.22.13-.47.4-.36,1.55.61,3.16.26,4.76.49C21.28,80.4,21.58,81.06,20.91,81.48Z"/><path class="cls-8" d="M22.35,88.82a6.64,6.64,0,0,1-1.2-4.17,2.93,2.93,0,0,1,.11-.9c.11-.39.45-.89.93-.61s.3,1,.3,1.51a10,10,0,0,0,.18,2.62,5.41,5.41,0,0,1,.25,1.31A.34.34,0,0,1,22.35,88.82Z"/><path class="cls-8" d="M24.83,77.06a.49.49,0,0,1,.69-.13,2.63,2.63,0,0,1,.31,1.47c.07,1,.39,2,.51,2.95.05.34-.47.44-.62.17A7.11,7.11,0,0,1,24.83,77.06Z"/><path class="cls-8" d="M25.52,84.83c1.23.62,2.7.16,4,.31.23,0,.45.27.29.51-.49.7-1.44.54-2.2.54s-1.95,0-2.48-.76a.26.26,0,0,1,0-.08C24.86,85.12,25.17,84.66,25.52,84.83Z"/><path class="cls-8" d="M25.07,87.14a.34.34,0,0,1,.42-.41l.19.07a.33.33,0,0,1,.22,0,21,21,0,0,0,3.8.3.34.34,0,0,1,.24.57c-.69.7-2.07.54-3,.48S25.38,88,25.07,87.14Z"/><path class="cls-8" d="M71.38,84c0,.34.06.91-.44.91s-.85-.79-1-1.14a5.67,5.67,0,0,1-.29-3.16,7.19,7.19,0,0,1,.43-1.76c.17-.44.51-1.36,1.14-1.29a.49.49,0,0,1,.38.34,2.24,2.24,0,0,1,.13.92l-.09.54c-.08.54-.15,1.09-.21,1.63a13.57,13.57,0,0,0-.09,1.91C71.32,83.3,71.35,83.67,71.38,84Z"/><path class="cls-8" d="M70.15,76.25c-1.08,0-3.5,0-3.7-1.49a.36.36,0,0,1,.12-.34.31.31,0,0,1,.41-.28,10.34,10.34,0,0,0,3.66.65,11.11,11.11,0,0,1,2.21-.18.32.32,0,0,1,.24.32C73,76.29,71.1,76.25,70.15,76.25Z"/><path class="cls-8" d="M68.48,83.62l.06,1a.34.34,0,0,1-.58.24,4.6,4.6,0,0,1-.58-3.61c.15-.86.16-2.5.89-3.11a.34.34,0,0,1,.57.24,11.7,11.7,0,0,1-.28,1.84,2.83,2.83,0,0,0,0,.29c0,.47-.1.94-.11,1.4A16.66,16.66,0,0,0,68.48,83.62Z"/><path class="cls-8" d="M70.36,73.65c-1.13-.05-2.57-.14-3.35-1.1a.27.27,0,0,1-.07-.14c-.18-.23,0-.65.33-.53a10.18,10.18,0,0,0,3.37.6,23.73,23.73,0,0,0,2.67-.32c.27,0,.39.3.29.5C73,73.77,71.42,73.71,70.36,73.65Z"/><path class="cls-8" d="M74.7,91.55a3.63,3.63,0,0,1-1-3.15c.07-.77.11-2.15.87-2.6a.35.35,0,0,1,.5.2,3.11,3.11,0,0,1,0,.61.32.32,0,0,1,.08.29A6.72,6.72,0,0,0,75,89.54a6.6,6.6,0,0,1,.23,1.72C75.2,91.49,74.92,91.72,74.7,91.55Z"/><path class="cls-8" d="M77.7,89.84a4.75,4.75,0,0,1,0,1.19c-.09.31-.33.67-.71.48C76,91,75.81,88.64,75.92,87.68a3.23,3.23,0,0,1,.88-2.2.51.51,0,0,1,.79.11A3.13,3.13,0,0,1,77.82,87a.31.31,0,0,1,0,.19A14.46,14.46,0,0,0,77.7,89.84Z"/><path class="cls-8" d="M78.19,83.52a6.42,6.42,0,0,1-3.31-.47c-1-.26-1.79-.72-1.18-1.43a.33.33,0,0,1,.33-.08l.43.15a10.63,10.63,0,0,0,2.65.23,15.68,15.68,0,0,1,2.65,0,.33.33,0,0,1,.24.23C80.17,83,78.83,83.38,78.19,83.52Z"/><path class="cls-8" d="M78.23,80.57a6.73,6.73,0,0,1-4-1.16.27.27,0,0,1-.09-.3.33.33,0,0,1,.38-.48,13.47,13.47,0,0,0,3.3.27c.86,0,1.77-.11,2.61,0a.34.34,0,0,1,.24.33C80.68,80.27,79,80.59,78.23,80.57Z"/><path class="cls-8" d="M77.5,75.31c.09.42.12,1.13-.41,1.28-1.23.34-1.48-2.73-1.48-3.33s.32-3.8,1.61-3.05a.73.73,0,0,1,.36.62.28.28,0,0,1,.13.36A7.79,7.79,0,0,0,77.5,75.31Z"/><path class="cls-8" d="M80.08,75.49c0,.37.15.79-.12,1.1a.32.32,0,0,1-.4,0c-.78-.4-.92-1.57-1-2.34a7.25,7.25,0,0,1,.45-3.67.49.49,0,0,1,.56-.27.35.35,0,0,1,.37,0c.63.25.41,1.53.19,2.45A12.3,12.3,0,0,0,80.08,75.49Z"/><path class="cls-8" d="M83.89,78.35a27.24,27.24,0,0,0-.31,4.78c0,.53,0,1.61-.64,1.79a.33.33,0,0,1-.33-.08,4.77,4.77,0,0,1-.48-3A14.53,14.53,0,0,1,83,78.32a.5.5,0,0,1,.88,0Z"/><path class="cls-8" d="M88.72,73.63c-.94,1.87-5.32,2.48-6.37.41l0-.1s0,0,0,0a.34.34,0,0,1,0-.1v0a.51.51,0,0,1,.44-.55h.09a.67.67,0,0,1,.39.08,9.16,9.16,0,0,0,5.16-.17C88.64,73,88.84,73.38,88.72,73.63Z"/><path class="cls-8" d="M83,71.27a.33.33,0,0,1,.41-.31,18.44,18.44,0,0,0,4.92.23.34.34,0,0,1,.24.57,4.89,4.89,0,0,1-5.57,0A.31.31,0,0,1,83,71.27Z"/><path class="cls-8" d="M48.88,85.7c.12.4-.16,1-.66.85-1.84-.5-2.2-3.38-2.06-4.93.06-.59.17-1.39.8-1.65.43-.18,1-.17,1.15.38a3.61,3.61,0,0,1,0,1.6A9.58,9.58,0,0,0,48.88,85.7Z"/><path class="cls-8" d="M44.72,79.23A4.43,4.43,0,0,1,42,78.55a.29.29,0,0,1-.09-.28c-.09-.23.08-.55.38-.44,2.23.8,4.41.28,6.7.3a.34.34,0,0,1,.09.66A12.73,12.73,0,0,1,44.72,79.23Z"/><path class="cls-8" d="M45.29,81.59a14.34,14.34,0,0,0,.34,4c0,.29-.32.63-.56.33a4.7,4.7,0,0,1-.81-2.64,6,6,0,0,1,.13-2.6.46.46,0,0,1,.87,0,1.36,1.36,0,0,1,0,.8A.33.33,0,0,1,45.29,81.59Z"/><path class="cls-8" d="M42.35,76h0a.35.35,0,0,1,.18,0,33.46,33.46,0,0,0,6.25,0,.34.34,0,0,1,.33.34c0,1.09-1.8,1-2.53,1-1.56.06-3.23.38-4.51-.74A.34.34,0,0,1,42.35,76Z"/></g><g class="cls-15"><path class="cls-8" d="M9.68,64.8c1.2,4.8,4.3,16.83,6.17,21.38,2.36,5.73,1.26,8.24,9,9,6.69.67,20.46.36,26.28.21,5.82.15,19.59.46,26.28-.21,7.77-.79,6.68-3.3,9-9,1.87-4.55,5.21-18.45,6.42-23.25ZM83.82,85.86a8.4,8.4,0,0,1-1.4,1.32c-2.73,2-6.42,2.64-9.81,2.91-1.94.15-3.88.17-5.83.19-6.83.09-13.64.66-20.47.76q-4.81.08-9.65,0c-5-.1-10.53.42-15.18-1.76a13,13,0,0,1-6.08-6.78c-1.82-4.08-5.55-14.44,3-14,2.4.13,4.76.16,7.16.18,7.4.06,14.79.26,22.19.11q3.21-.06,6.42-.22c7.56-.39,18.54-1.08,26.11-1.29,2.26-.06,5.1-.49,7.22.41C91.8,69.54,85.41,84,83.82,85.86Z"/></g><path class="cls-16" d="M37.3,70.28c-3.27,0-6.54,0-9.8,0-2.39,0-5.48-.48-7.74.31-2.89,1-1.16,4.5-.34,6.15a9.62,9.62,0,0,0,3.95,3.92C28,83.33,34.26,84,39.84,84.26c4.59.21,9.19.12,13.78-.11,6.07-.29,12.34-.2,18.27-1.44a19.33,19.33,0,0,0,13-9.37c.59-1.12,2-3.35.17-4.18-2-.91-24.41.86-33.06,1Q44.63,70.21,37.3,70.28Z"/><g class="cls-17"><path class="cls-8" d="M84.28,90c-5.26,3.84-23,3.14-26.1,3.21-6.29.14-12.58.17-18.87.14-3.17,0-15-.67-17.66-1.21a9.05,9.05,0,0,1-4.57-2.19c1,3.14,1.9,4.69,7.71,5.28,6.68.67,20.45.36,26.27.21,5.82.15,19.6.46,26.28-.21,6.34-.64,6.78-2.43,8-6.17A8.59,8.59,0,0,1,84.28,90Z"/><path class="cls-8" d="M16.44,65.64c4.4-.39,8.86-.11,13.27-.13,6.34,0,12.68-.29,19-.32s12.75.11,19.12,0,12.58-.74,18.83-.41c1.29.06,3.83,0,4.68,1.26a2.34,2.34,0,0,1,.36,1.19l1.06-4.27L9.58,64.8l.65,2.55a5,5,0,0,1,1.47-.71A14.29,14.29,0,0,1,16.44,65.64Z"/></g><path class="cls-13" d="M37.61,89.66a2.15,2.15,0,0,1-2.5-2.43,3.12,3.12,0,0,1,.36-1.51,6.31,6.31,0,0,1,1-1.32l5.24-5.48a11.25,11.25,0,0,0,1.7-2.16A3.74,3.74,0,0,0,43.89,75a2.06,2.06,0,0,0-.75-1.73A3.51,3.51,0,0,0,41,72.64a6,6,0,0,0-1.51.21,9.15,9.15,0,0,0-1.77.69,2.16,2.16,0,0,1-1.42.21,2.07,2.07,0,0,1-1.1-.65,2.28,2.28,0,0,1-.34-2.49,2.31,2.31,0,0,1,1.11-1.07,10.93,10.93,0,0,1,2.86-1.1,13.31,13.31,0,0,1,3-.35,10.25,10.25,0,0,1,4.13.73,5.37,5.37,0,0,1,2.55,2.12,6.21,6.21,0,0,1,.87,3.35,8.19,8.19,0,0,1-.38,2.48,9.18,9.18,0,0,1-1.2,2.41,18.37,18.37,0,0,1-2.21,2.6L40.68,86.6V85.18h7.4a2.32,2.32,0,0,1,1.71.57,2.26,2.26,0,0,1,.57,1.66,2,2,0,0,1-2.28,2.25Z"/><path class="cls-13" d="M63.54,90a2.67,2.67,0,0,1-2-.7,2.76,2.76,0,0,1-.71-2V86.11h-6a3.23,3.23,0,0,1-2.07-.6A2.2,2.2,0,0,1,52,83.68a3.42,3.42,0,0,1,.3-1.4,10.71,10.71,0,0,1,1-1.64l7.34-10.71a4.27,4.27,0,0,1,1.34-1.34,3.4,3.4,0,0,1,1.76-.44,2.43,2.43,0,0,1,1.84.71,2.87,2.87,0,0,1,.66,2v11h.72a2.47,2.47,0,0,1,1.73.54,2.08,2.08,0,0,1,.59,1.6,2,2,0,0,1-.59,1.53,2.47,2.47,0,0,1-1.73.54h-.72v1.12a2.75,2.75,0,0,1-.7,2A2.57,2.57,0,0,1,63.54,90ZM60.86,81.9V74.83h.84L56,83.23V81.9Z"/></g></g></svg>