<svg xmlns="http://www.w3.org/2000/svg" viewBox="0 0 105.29 104.84"><defs><style>.cls-1{isolation:isolate;}.cls-2{fill:#ed7d03;}.cls-3{fill:#ff8c03;}.cls-4{fill:#fcbc08;}.cls-5{fill:#f28106;opacity:0.7;}.cls-6{fill:#7c6a13;}.cls-7{fill:#937b18;}.cls-8{fill:#b86313;}.cls-11,.cls-9{fill:#cc7917;}.cls-10{fill:#9e4727;}.cls-11,.cls-12,.cls-17{opacity:0.5;}.cls-11,.cls-15,.cls-17{mix-blend-mode:multiply;}.cls-13,.cls-16{fill:#fff;}.cls-14,.cls-15{opacity:0.3;}.cls-14{mix-blend-mode:screen;}.cls-16{opacity:0.1;}</style></defs><title>orange14</title><g class="cls-1"><g id="Layer_1" data-name="Layer 1"><path class="cls-2" d="M79.51,46.83c-4.72-1.6-9.7-5.65-10.85-10.74H24.44V66.3H81.75V47.44A19.53,19.53,0,0,1,79.51,46.83Z"/><path class="cls-3" d="M67,12.92c3,2.2,6.91,9.14,2.29,14.85s-11.37,6.06-16.47,2.7a11.48,11.48,0,0,1-1.42-18.14C56.51,7.44,62.46,9.61,67,12.92Z"/><path class="cls-4" d="M54.48,12.11h0Z"/><path class="cls-4" d="M55.17,12.83c.35-.17.74-.53.42-.85s-.78,0-1.1.12C54.06,12.5,54.24,13.28,55.17,12.83Z"/><path class="cls-4" d="M54.5,12.1l.53-.21A.78.78,0,0,0,54.5,12.1Z"/><path class="cls-4" d="M53.54,13.63c.13-.1.31-.3.14-.44a.23.23,0,0,0-.34.07.43.43,0,0,0-.21.29C53.1,13.84,53.4,13.73,53.54,13.63Z"/><path class="cls-4" d="M55.83,13.45a.35.35,0,0,0-.33,0c-.16,0-.35.08-.39.21a.11.11,0,0,0,0,.08l0,0,0,0c0,.14.38,0,.51,0S56.09,13.6,55.83,13.45Z"/><path class="cls-4" d="M55.06,13.78l0,0Z"/><path class="cls-4" d="M56.56,12.67c-.15,0-.32.21-.23.35s.44.09.56,0C57.39,12.77,56.75,12.55,56.56,12.67Z"/><path class="cls-4" d="M57.19,11.74c-.11,0-.29-.06-.37,0a.15.15,0,0,0,0,.18c0,.1.18.2.25.23s.92.33,1,.07S57.37,11.77,57.19,11.74Z"/><path class="cls-4" d="M56.36,11.22c.15.09.71.07.77-.16s-.31-.28-.45-.26a.5.5,0,0,0-.24.14C56.29,11,56.18,11.13,56.36,11.22Z"/><path class="cls-4" d="M53.64,12.55c.29-.22,0-.34-.22-.3h0c-.14,0-.47.14-.38.32S53.53,12.63,53.64,12.55Z"/><path class="cls-4" d="M52.42,13.93c.11-.13.44-.67.06-.69a.26.26,0,0,0-.2.1,1.06,1.06,0,0,0-.38.53C51.75,14.37,52.23,14.15,52.42,13.93Z"/><path class="cls-4" d="M54.47,14.08a.8.8,0,0,0-.5,0,1,1,0,0,0-.67.52c-.12.52.79.15,1,.08S54.89,14.24,54.47,14.08Z"/><path class="cls-4" d="M56,14.49c-.14,0-.3.17-.29.29s.52.18.66.11C56.92,14.63,56.19,14.38,56,14.49Z"/><path class="cls-4" d="M59.58,11.61a.23.23,0,0,0-.25.1.7.7,0,0,0,1.05,0A.59.59,0,0,0,59.58,11.61Z"/><path class="cls-4" d="M58.1,13c.32.11,1.17.17,1.23-.28a.75.75,0,0,0-.68-.08C58.39,12.58,58.11,12.67,58.1,13Z"/><path class="cls-4" d="M58.72,10.65a.46.46,0,0,0-.63-.06.26.26,0,0,0-.14.18A.59.59,0,0,0,58.72,10.65Z"/><path class="cls-4" d="M61,12.48c-.63,0,.18.81.53.55S61.28,12.32,61,12.48Z"/><path class="cls-4" d="M52.1,15.07c-.2-.15-.36,0-.47.18-.42.27-.93.91-.53,1.06S52.09,15.42,52.1,15.07Z"/><path class="cls-4" d="M50.94,14.25c-.54.1-.28,1,.23.39C51.49,14.25,51.17,14.13,50.94,14.25Z"/><path class="cls-4" d="M54,15.9a.27.27,0,0,0-.2.25c.2.14.74.15.87-.11S54.2,15.59,54,15.9Z"/><path class="cls-4" d="M58.81,14.42l0,0a.43.43,0,0,0,0,.11s0,.09,0,.11c.11.3.73.31.62-.06S59,14.28,58.81,14.42Z"/><path class="cls-4" d="M64.37,13.64c-.37-.51-1.12,0-.65.15C64,14,64.72,14.13,64.37,13.64Z"/><path class="cls-4" d="M51.42,18.42l.07-.13a.93.93,0,0,0-.4.63c.22.06.85-.36.84-.64C51.9,17.85,51.6,18.15,51.42,18.42Z"/><path class="cls-4" d="M57.09,17a.15.15,0,0,0,.22,0c.26,0,.74,0,.53-.31S57.17,16.79,57.09,17Z"/><path class="cls-4" d="M49.26,16.73a.38.38,0,0,0,0,.22c.32.1,1.13,0,.86-.51S49.35,16.35,49.26,16.73Z"/><path class="cls-4" d="M50.37,15.37h0a.27.27,0,0,0-.33.26.39.39,0,0,0,.55-.21A.33.33,0,0,0,50.37,15.37Z"/><path class="cls-5" d="M51.43,26.68c-1.18.86,4.8,5.2,8.68,5.05a11.47,11.47,0,0,0,9.41-6c1-2.14.66-8.23-.62-7.81-.46.16.1,2.22-1.78,5.35-1.65,2.74-4.48,5.45-8.21,5.27C53.79,28.28,52.2,26.12,51.43,26.68Z"/><path class="cls-6" d="M64.25,11.62a.55.55,0,0,0-.49.84c.32.8,2.27,2.1,2.83,1.88s.59-.87-.23-1.5A4.86,4.86,0,0,0,64.25,11.62Z"/><path class="cls-6" d="M65.26,12.69s2.26-2.34,2.91-3.22a42,42,0,0,0,2.14-4.22s.2-.3.47-.24.2.46.2.46S69.4,8.7,68.76,9.59c-1.29,1.81-3,3.77-3,3.77Z"/><path class="cls-6" d="M69.2,8.29c-.13,0-3.73-.47-3.73-.47L65.34,8l1.85.3L69,8.64Z"/><path class="cls-6" d="M61.43,12.49c-3.85,1-9.55-1.77-9.55-1.77S55.69,6.29,59,6s8.93,2.28,8.93,2.28A13.44,13.44,0,0,1,61.43,12.49Z"/><path class="cls-7" d="M64.28,11.86a.82.82,0,0,0-.09.79,4.16,4.16,0,0,0,1.4,1.12l.1-.71s-.31-.2-.34-.38a.41.41,0,0,1,0-.27Z"/><path class="cls-7" d="M66.62,8.32a30.51,30.51,0,0,0-6.46.06c-3,.44-7.52,1.87-7.46,2.07s4.94-1.64,7.36-1.8,6.74,0,6.74,0Z"/><path class="cls-7" d="M65.1,8.43a3.36,3.36,0,0,1-.63,1.18,8.47,8.47,0,0,0-1.08,1.68,9.93,9.93,0,0,0,1.25-1.57c.36-.52.82-1.26.82-1.26Z"/><path class="cls-7" d="M62.1,8.46a5,5,0,0,1-.66,1.91c-.66,1.36-.92,1.75-.76,1.78s.66-1,1-1.74.85-2,.85-2Z"/><path class="cls-7" d="M59.19,8.73A3.63,3.63,0,0,1,59,10.15c-.3,1-.66,1.57-.53,1.64s.49-.86.69-1.59.5-1.62.5-1.62Z"/><path class="cls-7" d="M56.05,9.47a2.13,2.13,0,0,1-.16.84c-.18.52-.47,1-.38,1a1.82,1.82,0,0,0,.53-.92l.28-1Z"/><path class="cls-7" d="M65.46,8.35a4.38,4.38,0,0,0-1.13-1.09,3.61,3.61,0,0,0-1.46-.59c-.08.07.83.33,1.15.54A12.41,12.41,0,0,1,65.2,8.34Z"/><path class="cls-7" d="M62.38,8.26A2.88,2.88,0,0,0,61.45,7a4.7,4.7,0,0,0-2.05-.8c-.2.07,1.5.49,1.88.87A4.1,4.1,0,0,1,62,8.3Z"/><path class="cls-7" d="M59.62,8.58a6.42,6.42,0,0,0-1.39-1.09,6,6,0,0,0-1.66-.43c-.19,0,1.28.33,1.69.62a8.84,8.84,0,0,1,1,1Z"/><path class="cls-7" d="M56.05,9.38s0-.24-.73-.5-1.07-.42-.92-.42a3.94,3.94,0,0,1,.91.23,6.06,6.06,0,0,1,1.07.61Z"/><path class="cls-3" d="M47.22,14c3,2.2,6.91,9.14,2.29,14.86s-11.37,6-16.46,2.69a11.48,11.48,0,0,1-1.43-18.13C36.77,8.55,42.72,10.72,47.22,14Z"/><path class="cls-4" d="M34.73,13.22h0Z"/><path class="cls-4" d="M35.43,13.94c.34-.17.74-.53.41-.85s-.78.05-1.09.12C34.31,13.61,34.49,14.39,35.43,13.94Z"/><path class="cls-4" d="M34.75,13.21l.53-.21A.85.85,0,0,0,34.75,13.21Z"/><path class="cls-4" d="M33.79,14.74c.14-.09.31-.29.14-.44a.23.23,0,0,0-.34.08.42.42,0,0,0-.21.28C33.35,15,33.66,14.84,33.79,14.74Z"/><path class="cls-4" d="M36.08,14.56a.35.35,0,0,0-.33,0c-.16,0-.35.09-.39.21s0,.06,0,.09l0,0,0,0c0,.14.38,0,.51,0S36.35,14.71,36.08,14.56Z"/><path class="cls-4" d="M35.31,14.9h0Z"/><path class="cls-4" d="M36.81,13.78c-.15,0-.32.21-.23.36s.44.09.56,0C37.65,13.88,37,13.67,36.81,13.78Z"/><path class="cls-4" d="M37.44,12.85c-.1,0-.29-.06-.37,0a.15.15,0,0,0,0,.18c0,.1.18.2.25.23s.92.33,1,.07S37.63,12.88,37.44,12.85Z"/><path class="cls-4" d="M36.61,12.34c.15.08.71.06.77-.17s-.3-.27-.45-.25a.52.52,0,0,0-.24.13C36.54,12.13,36.43,12.24,36.61,12.34Z"/><path class="cls-4" d="M33.89,13.66c.29-.22,0-.34-.22-.29h0c-.13,0-.46.15-.38.33S33.78,13.74,33.89,13.66Z"/><path class="cls-4" d="M32.67,15c.11-.12.44-.67.06-.69a.26.26,0,0,0-.19.1,1.06,1.06,0,0,0-.39.54C32,15.49,32.48,15.26,32.67,15Z"/><path class="cls-4" d="M34.72,15.2a.68.68,0,0,0-.5,0,1,1,0,0,0-.67.51c-.12.52.79.15,1,.08S35.15,15.35,34.72,15.2Z"/><path class="cls-4" d="M36.25,15.6c-.15.05-.3.17-.3.29s.52.18.67.11C37.18,15.74,36.45,15.49,36.25,15.6Z"/><path class="cls-4" d="M39.83,12.72a.27.27,0,0,0-.25.1.69.69,0,0,0,1.05,0A.58.58,0,0,0,39.83,12.72Z"/><path class="cls-4" d="M38.36,14.06c.31.11,1.16.17,1.23-.27a.72.72,0,0,0-.68-.08C38.64,13.69,38.36,13.78,38.36,14.06Z"/><path class="cls-4" d="M39,11.76a.44.44,0,0,0-.62-.06.3.3,0,0,0-.15.18A.59.59,0,0,0,39,11.76Z"/><path class="cls-4" d="M41.28,13.59c-.63,0,.18.81.53.55S41.53,13.43,41.28,13.59Z"/><path class="cls-4" d="M32.35,16.18c-.19-.15-.36,0-.47.18-.42.27-.92.91-.52,1.06S32.34,16.53,32.35,16.18Z"/><path class="cls-4" d="M31.2,15.36c-.54.1-.29,1,.23.39C31.75,15.37,31.42,15.24,31.2,15.36Z"/><path class="cls-4" d="M34.27,17a.28.28,0,0,0-.2.25c.2.14.74.16.87-.11S34.45,16.7,34.27,17Z"/><path class="cls-4" d="M39.06,15.53l0,0a.43.43,0,0,0,0,.11c0,.05,0,.1,0,.11.12.3.74.31.62-.06S39.21,15.39,39.06,15.53Z"/><path class="cls-4" d="M44.62,14.75c-.37-.5-1.12,0-.65.16C44.25,15.11,45,15.24,44.62,14.75Z"/><path class="cls-4" d="M31.67,19.54l.08-.14a.89.89,0,0,0-.4.64c.21.05.85-.37.83-.65S31.86,19.27,31.67,19.54Z"/><path class="cls-4" d="M37.35,18.12a.16.16,0,0,0,.21.05c.26,0,.74,0,.54-.32S37.42,17.9,37.35,18.12Z"/><path class="cls-4" d="M29.51,17.84a.4.4,0,0,0,0,.22c.32.11,1.13,0,.86-.51S29.6,17.46,29.51,17.84Z"/><path class="cls-4" d="M30.63,16.48h0a.27.27,0,0,0-.33.26.4.4,0,0,0,.56-.21A.34.34,0,0,0,30.63,16.48Z"/><path class="cls-5" d="M31.68,27.8c-1.18.86,4.8,5.19,8.69,5a11.45,11.45,0,0,0,9.4-6c1-2.14.67-8.23-.62-7.8-.46.15.11,2.21-1.78,5.34-1.65,2.75-4.47,5.45-8.21,5.27C34,29.39,32.46,27.23,31.68,27.8Z"/><path class="cls-6" d="M44.5,12.74a.54.54,0,0,0-.49.83c.33.8,2.27,2.1,2.83,1.88s.59-.87-.23-1.49A4.66,4.66,0,0,0,44.5,12.74Z"/><path class="cls-6" d="M45.51,13.81s2.26-2.34,2.91-3.22a41.89,41.89,0,0,0,2.14-4.23A.55.55,0,0,1,51,6.12c.27,0,.19.47.19.47S49.66,9.81,49,10.7c-1.3,1.81-3,3.77-3,3.77Z"/><path class="cls-6" d="M49.46,9.4c-.14,0-3.73-.47-3.73-.47l-.14.21,1.85.31,1.85.3Z"/><path class="cls-6" d="M41.68,13.6c-3.85,1-9.55-1.76-9.55-1.76S35.94,7.4,39.2,7.07s8.93,2.27,8.93,2.27A13.44,13.44,0,0,1,41.68,13.6Z"/><path class="cls-7" d="M44.53,13a.8.8,0,0,0-.08.79c.27.55,1.4,1.12,1.4,1.12l.09-.7s-.3-.21-.33-.39a.41.41,0,0,1,0-.27Z"/><path class="cls-7" d="M46.87,9.43a30.48,30.48,0,0,0-6.46.06c-3,.44-7.52,1.87-7.46,2.07s4.94-1.64,7.36-1.8,6.74,0,6.74,0Z"/><path class="cls-7" d="M45.35,9.54a3.41,3.41,0,0,1-.62,1.18,8.25,8.25,0,0,0-1.09,1.68,10.76,10.76,0,0,0,1.26-1.56c.35-.53.81-1.27.81-1.27Z"/><path class="cls-7" d="M42.36,9.57a5.29,5.29,0,0,1-.66,1.91c-.67,1.36-.93,1.76-.77,1.79s.66-1,1-1.75.85-2,.85-2Z"/><path class="cls-7" d="M39.44,9.84a3.63,3.63,0,0,1-.23,1.42c-.3,1-.66,1.58-.52,1.64s.48-.86.68-1.59.5-1.62.5-1.62Z"/><path class="cls-7" d="M36.31,10.58a2.36,2.36,0,0,1-.16.84c-.19.52-.48,1-.39,1a1.83,1.83,0,0,0,.53-.91l.28-1Z"/><path class="cls-7" d="M45.71,9.46a4.25,4.25,0,0,0-1.13-1.08,3.53,3.53,0,0,0-1.46-.6c-.08.07.83.33,1.15.54a12.62,12.62,0,0,1,1.19,1.14Z"/><path class="cls-7" d="M42.63,9.37a2.85,2.85,0,0,0-.92-1.22,4.44,4.44,0,0,0-2.06-.8c-.19.06,1.5.49,1.88.86a4.36,4.36,0,0,1,.7,1.21Z"/><path class="cls-7" d="M39.87,9.69A6.6,6.6,0,0,0,38.49,8.6a5.66,5.66,0,0,0-1.66-.42c-.2,0,1.27.32,1.68.61a10.28,10.28,0,0,1,1.05,1Z"/><path class="cls-7" d="M36.3,10.5s0-.25-.73-.5-1.07-.43-.92-.43a4.57,4.57,0,0,1,.91.23,6.06,6.06,0,0,1,1.07.61Z"/><path class="cls-3" d="M80.88,24.6c3,2.2,6.91,9.14,2.29,14.85s-11.38,6.06-16.47,2.7A11.47,11.47,0,0,1,65.28,24C70.42,19.12,76.37,21.29,80.88,24.6Z"/><path class="cls-4" d="M68.39,23.79h0Z"/><path class="cls-4" d="M69.08,24.51c.35-.17.74-.53.41-.85s-.77.05-1.09.12C68,24.18,68.15,25,69.08,24.51Z"/><path class="cls-4" d="M68.4,23.78l.54-.21A.88.88,0,0,0,68.4,23.78Z"/><path class="cls-4" d="M67.45,25.31c.13-.09.31-.3.13-.44a.22.22,0,0,0-.33.07.44.44,0,0,0-.22.29C67,25.53,67.31,25.41,67.45,25.31Z"/><path class="cls-4" d="M69.73,25.13a.35.35,0,0,0-.33,0c-.15,0-.35.09-.38.21a.28.28,0,0,0,0,.08.05.05,0,0,1,0,0l0,0c0,.14.38,0,.5,0S70,25.28,69.73,25.13Z"/><path class="cls-4" d="M69,25.46l0,0Z"/><path class="cls-4" d="M70.47,24.35c-.15,0-.32.21-.24.36s.44.09.57,0C71.3,24.45,70.65,24.24,70.47,24.35Z"/><path class="cls-4" d="M71.09,23.42c-.1,0-.29-.06-.37,0a.15.15,0,0,0,0,.18c0,.1.18.2.25.23s.91.33,1,.07S71.28,23.45,71.09,23.42Z"/><path class="cls-4" d="M70.26,22.9c.16.09.72.07.77-.16s-.3-.28-.45-.26a.77.77,0,0,0-.24.14C70.19,22.69,70.08,22.81,70.26,22.9Z"/><path class="cls-4" d="M67.55,24.23c.29-.22,0-.34-.22-.29h0c-.13,0-.46.15-.37.33S67.44,24.31,67.55,24.23Z"/><path class="cls-4" d="M66.33,25.61c.11-.12.44-.67.06-.69a.3.3,0,0,0-.2.1,1.15,1.15,0,0,0-.39.53C65.66,26.06,66.14,25.83,66.33,25.61Z"/><path class="cls-4" d="M68.38,25.76a.78.78,0,0,0-.51,0,1,1,0,0,0-.66.51c-.13.52.78.15,1,.08S68.8,25.92,68.38,25.76Z"/><path class="cls-4" d="M69.9,26.17c-.14,0-.3.17-.3.29s.53.18.67.11C70.83,26.31,70.1,26.06,69.9,26.17Z"/><path class="cls-4" d="M73.49,23.29a.25.25,0,0,0-.25.1.68.68,0,0,0,1,0A.57.57,0,0,0,73.49,23.29Z"/><path class="cls-4" d="M72,24.63c.31.11,1.16.17,1.23-.27a.7.7,0,0,0-.68-.08C72.3,24.26,72,24.35,72,24.63Z"/><path class="cls-4" d="M72.62,22.33a.44.44,0,0,0-.62-.06.28.28,0,0,0-.15.18A.59.59,0,0,0,72.62,22.33Z"/><path class="cls-4" d="M74.94,24.16c-.63,0,.18.81.52.55S75.18,24,74.94,24.16Z"/><path class="cls-4" d="M66,26.75c-.19-.15-.35,0-.46.18-.42.27-.93.91-.53,1.06S66,27.1,66,26.75Z"/><path class="cls-4" d="M64.85,25.93c-.54.1-.28,1,.23.39C65.4,25.93,65.07,25.81,64.85,25.93Z"/><path class="cls-4" d="M67.92,27.58a.27.27,0,0,0-.19.25c.2.14.73.15.87-.11S68.1,27.27,67.92,27.58Z"/><path class="cls-4" d="M72.72,26.1l0,0a.23.23,0,0,0,0,.11s0,.1,0,.11c.11.3.73.31.61-.06S72.86,26,72.72,26.1Z"/><path class="cls-4" d="M78.27,25.32c-.36-.51-1.12,0-.64.16C77.91,25.68,78.63,25.81,78.27,25.32Z"/><path class="cls-4" d="M65.33,30.11,65.4,30a.9.9,0,0,0-.4.64c.22.05.85-.37.83-.65C65.81,29.53,65.51,29.83,65.33,30.11Z"/><path class="cls-4" d="M71,28.69a.16.16,0,0,0,.21,0c.26,0,.75,0,.54-.32S71.07,28.47,71,28.69Z"/><path class="cls-4" d="M63.16,28.41a.51.51,0,0,0,0,.22c.32.11,1.14,0,.87-.51S63.26,28,63.16,28.41Z"/><path class="cls-4" d="M64.28,27.05h0a.26.26,0,0,0-.33.26.39.39,0,0,0,.55-.21A.33.33,0,0,0,64.28,27.05Z"/><path class="cls-5" d="M65.33,38.37c-1.17.85,4.81,5.19,8.69,5a11.45,11.45,0,0,0,9.4-6c1-2.14.67-8.23-.61-7.8-.46.15.1,2.21-1.78,5.34-1.66,2.75-4.48,5.45-8.22,5.27C67.7,40,66.11,37.8,65.33,38.37Z"/><path class="cls-6" d="M78.15,23.31a.54.54,0,0,0-.48.83c.32.8,2.27,2.1,2.83,1.88s.58-.87-.23-1.49A4.64,4.64,0,0,0,78.15,23.31Z"/><path class="cls-6" d="M79.17,24.38s2.26-2.34,2.9-3.22a39.83,39.83,0,0,0,2.14-4.23s.2-.3.48-.24.2.46.2.46-1.58,3.23-2.22,4.12c-1.3,1.81-3,3.77-3,3.77Z"/><path class="cls-6" d="M83.11,20c-.14,0-3.73-.47-3.73-.47l-.14.21L81.1,20l1.85.3Z"/><path class="cls-6" d="M75.34,24.17c-3.86,1-9.55-1.76-9.55-1.76s3.8-4.44,7.07-4.77,8.92,2.27,8.92,2.27A13.44,13.44,0,0,1,75.34,24.17Z"/><path class="cls-7" d="M78.19,23.54a.82.82,0,0,0-.09.79,4,4,0,0,0,1.4,1.12l.09-.7s-.3-.21-.33-.39a.41.41,0,0,1,0-.27Z"/><path class="cls-7" d="M80.52,20a30.4,30.4,0,0,0-6.45.06c-3,.44-7.52,1.87-7.47,2.07s5-1.64,7.37-1.8,6.73,0,6.73,0Z"/><path class="cls-7" d="M79,20.11a3.36,3.36,0,0,1-.63,1.18A8.47,8.47,0,0,0,77.3,23a10.21,10.21,0,0,0,1.25-1.56c.36-.53.81-1.27.81-1.27Z"/><path class="cls-7" d="M76,20.14a5.29,5.29,0,0,1-.66,1.91c-.66,1.36-.93,1.75-.76,1.79s.65-1,1-1.75.84-2,.84-2Z"/><path class="cls-7" d="M73.09,20.41a3.7,3.7,0,0,1-.22,1.42c-.3,1-.66,1.57-.53,1.64s.48-.86.69-1.59.5-1.62.5-1.62Z"/><path class="cls-7" d="M70,21.15a2.39,2.39,0,0,1-.16.84c-.18.52-.47,1-.39,1A1.74,1.74,0,0,0,70,22.1c.13-.46.27-1,.27-1Z"/><path class="cls-7" d="M79.36,20A4.07,4.07,0,0,0,78.23,19a3.48,3.48,0,0,0-1.46-.6c-.07.07.83.33,1.16.54A12.23,12.23,0,0,1,79.11,20Z"/><path class="cls-7" d="M76.28,19.94a2.85,2.85,0,0,0-.92-1.22,4.62,4.62,0,0,0-2-.81c-.2.07,1.5.5,1.88.87a4.23,4.23,0,0,1,.69,1.2Z"/><path class="cls-7" d="M73.53,20.26a6.75,6.75,0,0,0-1.39-1.09,5.58,5.58,0,0,0-1.66-.42c-.2,0,1.28.32,1.69.61a8.84,8.84,0,0,1,1,1Z"/><path class="cls-7" d="M70,21.07s0-.25-.73-.5-1.06-.43-.91-.43a4.75,4.75,0,0,1,.91.23,6.49,6.49,0,0,1,1.07.61Z"/><path class="cls-3" d="M60.31,21.36c3,2.2,6.91,9.14,2.29,14.85s-11.37,6.06-16.47,2.7a11.47,11.47,0,0,1-1.42-18.13C49.85,15.88,55.8,18.05,60.31,21.36Z"/><path class="cls-4" d="M47.82,20.55h0Z"/><path class="cls-4" d="M48.51,21.27c.35-.17.74-.53.42-.85s-.78,0-1.1.12C47.4,20.94,47.58,21.72,48.51,21.27Z"/><path class="cls-4" d="M47.84,20.54l.53-.21A.83.83,0,0,0,47.84,20.54Z"/><path class="cls-4" d="M46.88,22.07c.13-.09.31-.3.14-.44a.23.23,0,0,0-.34.07.43.43,0,0,0-.21.29C46.44,22.29,46.74,22.17,46.88,22.07Z"/><path class="cls-4" d="M49.17,21.89a.35.35,0,0,0-.33,0c-.16,0-.35.09-.39.21a.11.11,0,0,0,0,.08s0,0-.05,0l.05,0c0,.14.38,0,.51,0S49.43,22,49.17,21.89Z"/><path class="cls-4" d="M48.4,22.22l0,0Z"/><path class="cls-4" d="M49.9,21.11c-.15,0-.32.21-.23.36s.44.09.56,0C50.73,21.21,50.09,21,49.9,21.11Z"/><path class="cls-4" d="M50.53,20.18c-.11,0-.29-.06-.37,0a.15.15,0,0,0,0,.18c0,.1.18.2.25.23s.92.33,1,.07S50.71,20.21,50.53,20.18Z"/><path class="cls-4" d="M49.7,19.66c.15.09.71.07.77-.16s-.31-.28-.45-.26a.6.6,0,0,0-.24.14C49.63,19.45,49.52,19.57,49.7,19.66Z"/><path class="cls-4" d="M47,21c.29-.22,0-.34-.22-.29h0c-.13,0-.46.15-.37.33S46.87,21.07,47,21Z"/><path class="cls-4" d="M45.76,22.37c.11-.12.44-.67.06-.69a.3.3,0,0,0-.2.1,1.06,1.06,0,0,0-.38.53C45.09,22.82,45.57,22.59,45.76,22.37Z"/><path class="cls-4" d="M47.81,22.52a.75.75,0,0,0-.5.05,1,1,0,0,0-.67.51c-.12.52.79.15,1,.08S48.23,22.68,47.81,22.52Z"/><path class="cls-4" d="M49.33,22.93c-.14.05-.3.17-.29.29s.52.18.66.11C50.26,23.07,49.53,22.82,49.33,22.93Z"/><path class="cls-4" d="M52.92,20.05a.25.25,0,0,0-.25.1.69.69,0,0,0,1,0A.59.59,0,0,0,52.92,20.05Z"/><path class="cls-4" d="M51.44,21.39c.32.11,1.17.17,1.23-.27A.69.69,0,0,0,52,21C51.73,21,51.45,21.11,51.44,21.39Z"/><path class="cls-4" d="M52.06,19.09a.46.46,0,0,0-.63-.06.26.26,0,0,0-.14.18A.59.59,0,0,0,52.06,19.09Z"/><path class="cls-4" d="M54.37,20.92c-.63,0,.18.81.53.55S54.62,20.76,54.37,20.92Z"/><path class="cls-4" d="M45.44,23.51c-.2-.15-.36,0-.47.18-.42.27-.93.91-.53,1.06S45.43,23.86,45.44,23.51Z"/><path class="cls-4" d="M44.28,22.69c-.54.1-.28,1,.23.39C44.83,22.69,44.51,22.57,44.28,22.69Z"/><path class="cls-4" d="M47.36,24.34a.28.28,0,0,0-.2.25c.2.14.74.15.87-.11S47.54,24,47.36,24.34Z"/><path class="cls-4" d="M52.15,22.86l0,0a.43.43,0,0,0,0,.11c0,.05,0,.1,0,.11.11.3.73.31.61-.06S52.3,22.72,52.15,22.86Z"/><path class="cls-4" d="M57.71,22.08c-.37-.51-1.12,0-.65.16C57.34,22.44,58.06,22.57,57.71,22.08Z"/><path class="cls-4" d="M44.76,26.87l.07-.14a.93.93,0,0,0-.4.64c.22.05.85-.37.84-.65S44.94,26.59,44.76,26.87Z"/><path class="cls-4" d="M50.43,25.45a.17.17,0,0,0,.22.05c.26,0,.74,0,.53-.32S50.51,25.23,50.43,25.45Z"/><path class="cls-4" d="M42.6,25.17a.4.4,0,0,0,0,.22c.32.11,1.13,0,.86-.51S42.69,24.79,42.6,25.17Z"/><path class="cls-4" d="M43.71,23.81h0a.27.27,0,0,0-.33.26.39.39,0,0,0,.55-.21A.33.33,0,0,0,43.71,23.81Z"/><path class="cls-5" d="M44.77,35.13c-1.18.85,4.8,5.19,8.68,5a11.45,11.45,0,0,0,9.41-6c1-2.14.66-8.23-.62-7.8-.46.15.1,2.21-1.78,5.34C58.8,34.46,56,37.16,52.25,37,47.13,36.72,45.54,34.56,44.77,35.13Z"/><path class="cls-6" d="M57.59,20.07a.54.54,0,0,0-.49.83c.32.8,2.27,2.1,2.83,1.88s.59-.87-.23-1.49A4.66,4.66,0,0,0,57.59,20.07Z"/><path class="cls-6" d="M58.6,21.14s2.26-2.34,2.91-3.22a41.89,41.89,0,0,0,2.14-4.23s.2-.3.47-.24.2.46.2.46S62.74,17.14,62.1,18c-1.29,1.81-3,3.77-3,3.77Z"/><path class="cls-6" d="M62.54,16.73c-.13,0-3.73-.47-3.73-.47l-.13.21,1.85.31,1.85.3Z"/><path class="cls-6" d="M54.77,20.93c-3.85,1-9.55-1.76-9.55-1.76S49,14.73,52.29,14.4s8.93,2.27,8.93,2.27A13.44,13.44,0,0,1,54.77,20.93Z"/><path class="cls-7" d="M57.62,20.3a.82.82,0,0,0-.09.79,4,4,0,0,0,1.4,1.12l.1-.7s-.31-.21-.34-.39a.41.41,0,0,1,0-.27Z"/><path class="cls-7" d="M60,16.76a30.51,30.51,0,0,0-6.46.06c-3,.44-7.52,1.87-7.46,2.07s4.94-1.64,7.36-1.8,6.74,0,6.74,0Z"/><path class="cls-7" d="M58.44,16.87a3.36,3.36,0,0,1-.63,1.18,8.47,8.47,0,0,0-1.08,1.68A10.21,10.21,0,0,0,58,18.17c.36-.53.82-1.27.82-1.27Z"/><path class="cls-7" d="M55.44,16.9a5,5,0,0,1-.66,1.91c-.66,1.36-.92,1.75-.76,1.79s.66-1,1-1.75.85-2,.85-2Z"/><path class="cls-7" d="M52.53,17.17a3.63,3.63,0,0,1-.23,1.42c-.3,1-.66,1.57-.53,1.64s.49-.86.69-1.59S53,17,53,17Z"/><path class="cls-7" d="M49.39,17.91a2.13,2.13,0,0,1-.16.84c-.18.52-.47,1-.38,1a1.82,1.82,0,0,0,.53-.92l.28-1Z"/><path class="cls-7" d="M58.8,16.79a4.25,4.25,0,0,0-1.13-1.08,3.53,3.53,0,0,0-1.46-.6c-.08.07.83.33,1.15.54a12.23,12.23,0,0,1,1.18,1.14Z"/><path class="cls-7" d="M55.72,16.7a2.82,2.82,0,0,0-.93-1.22,4.62,4.62,0,0,0-2-.81c-.2.07,1.5.5,1.88.87a4.23,4.23,0,0,1,.69,1.2Z"/><path class="cls-7" d="M53,17a6.75,6.75,0,0,0-1.39-1.09,5.58,5.58,0,0,0-1.66-.42c-.19,0,1.28.32,1.69.61a8.84,8.84,0,0,1,1,1Z"/><path class="cls-7" d="M49.39,17.83s0-.25-.74-.5-1.06-.43-.91-.43a4.57,4.57,0,0,1,.91.23,6.06,6.06,0,0,1,1.07.61Z"/><path class="cls-3" d="M70,31.56c3,2.19,6.91,9.13,2.29,14.85S61,52.46,55.85,49.1A11.47,11.47,0,0,1,54.43,31C59.57,26.07,65.52,28.24,70,31.56Z"/><path class="cls-4" d="M57.54,30.74h0Z"/><path class="cls-4" d="M58.23,31.46c.35-.17.74-.53.42-.84s-.78,0-1.1.12C57.12,31.13,57.3,31.92,58.23,31.46Z"/><path class="cls-4" d="M57.56,30.73l.53-.2A.83.83,0,0,0,57.56,30.73Z"/><path class="cls-4" d="M56.6,32.26c.13-.09.31-.29.14-.43a.23.23,0,0,0-.34.07.43.43,0,0,0-.21.29C56.16,32.48,56.46,32.36,56.6,32.26Z"/><path class="cls-4" d="M58.89,32.08a.32.32,0,0,0-.33,0c-.16,0-.35.08-.39.21a.11.11,0,0,0,0,.08l-.05,0,.05,0c0,.15.38,0,.51,0S59.15,32.23,58.89,32.08Z"/><path class="cls-4" d="M58.12,32.42h0Z"/><path class="cls-4" d="M59.62,31.3c-.15,0-.32.21-.23.36s.44.09.56,0C60.45,31.4,59.81,31.19,59.62,31.3Z"/><path class="cls-4" d="M60.25,30.38c-.11,0-.3-.07-.38,0a.15.15,0,0,0,0,.17c0,.11.18.2.25.24s.92.32,1,.06S60.43,30.4,60.25,30.38Z"/><path class="cls-4" d="M59.42,29.86c.15.08.71.06.77-.16s-.31-.28-.45-.26a.5.5,0,0,0-.24.14C59.35,29.65,59.23,29.76,59.42,29.86Z"/><path class="cls-4" d="M56.7,31.18c.29-.21,0-.34-.22-.29h0c-.13,0-.46.15-.37.33S56.59,31.26,56.7,31.18Z"/><path class="cls-4" d="M55.48,32.56c.11-.12.44-.67.06-.69a.3.3,0,0,0-.2.1,1.08,1.08,0,0,0-.38.54C54.81,33,55.29,32.78,55.48,32.56Z"/><path class="cls-4" d="M57.53,32.72a.74.74,0,0,0-.5,0c-.29.08-.62.3-.67.51-.12.52.79.15,1,.08S58,32.88,57.53,32.72Z"/><path class="cls-4" d="M59.05,33.13c-.14,0-.3.17-.29.29s.52.17.66.11C60,33.26,59.25,33,59.05,33.13Z"/><path class="cls-4" d="M62.64,30.24a.26.26,0,0,0-.25.11.68.68,0,0,0,1,0A.59.59,0,0,0,62.64,30.24Z"/><path class="cls-4" d="M61.16,31.59c.32.1,1.17.16,1.23-.28a.75.75,0,0,0-.68-.08C61.45,31.22,61.17,31.31,61.16,31.59Z"/><path class="cls-4" d="M61.78,29.29a.46.46,0,0,0-.63-.07.28.28,0,0,0-.14.18A.6.6,0,0,0,61.78,29.29Z"/><path class="cls-4" d="M64.09,31.11c-.63,0,.18.81.53.56S64.34,31,64.09,31.11Z"/><path class="cls-4" d="M55.16,33.71c-.2-.16-.36,0-.47.18-.42.26-.93.9-.53,1.06S55.15,34.05,55.16,33.71Z"/><path class="cls-4" d="M54,32.88c-.54.11-.28,1,.23.39C54.55,32.89,54.23,32.77,54,32.88Z"/><path class="cls-4" d="M57.08,34.53a.28.28,0,0,0-.2.25c.2.15.74.16.87-.11S57.26,34.22,57.08,34.53Z"/><path class="cls-4" d="M61.87,33.05l0,0a.61.61,0,0,0,0,.11c0,.05,0,.1,0,.12.11.29.73.3.61-.07S62,32.91,61.87,33.05Z"/><path class="cls-4" d="M67.43,32.27c-.37-.5-1.12,0-.65.16C67.06,32.63,67.78,32.76,67.43,32.27Z"/><path class="cls-4" d="M54.48,37.06l.07-.13a.91.91,0,0,0-.4.63c.22.06.85-.37.84-.65S54.66,36.79,54.48,37.06Z"/><path class="cls-4" d="M60.15,35.64a.16.16,0,0,0,.21,0c.27,0,.75,0,.54-.32S60.23,35.42,60.15,35.64Z"/><path class="cls-4" d="M52.32,35.36a.51.51,0,0,0,0,.22c.33.11,1.14,0,.87-.51S52.41,35,52.32,35.36Z"/><path class="cls-4" d="M53.43,34h0a.27.27,0,0,0-.33.27.4.4,0,0,0,.55-.22A.39.39,0,0,0,53.43,34Z"/><path class="cls-5" d="M54.49,45.32c-1.18.86,4.8,5.19,8.68,5a11.43,11.43,0,0,0,9.41-6c1-2.14.66-8.23-.62-7.8-.46.15.1,2.22-1.78,5.34-1.66,2.75-4.48,5.46-8.21,5.27C56.85,46.92,55.26,44.75,54.49,45.32Z"/><path class="cls-6" d="M67.31,30.26a.55.55,0,0,0-.49.84c.32.79,2.27,2.09,2.83,1.88s.59-.87-.23-1.5A4.76,4.76,0,0,0,67.31,30.26Z"/><path class="cls-6" d="M68.32,31.33s2.26-2.34,2.91-3.22a41.89,41.89,0,0,0,2.14-4.23s.2-.29.47-.24.2.47.2.47-1.58,3.22-2.22,4.11c-1.29,1.81-3,3.78-3,3.78Z"/><path class="cls-6" d="M72.26,26.92l-3.73-.47-.13.21,1.85.31,1.85.3Z"/><path class="cls-6" d="M64.49,31.13c-3.85,1-9.55-1.77-9.55-1.77s3.81-4.44,7.07-4.77,8.93,2.27,8.93,2.27A13.5,13.5,0,0,1,64.49,31.13Z"/><path class="cls-7" d="M67.34,30.5a.81.81,0,0,0-.09.79,4.09,4.09,0,0,0,1.4,1.11l.09-.7s-.3-.21-.33-.38a.39.39,0,0,1,0-.27Z"/><path class="cls-7" d="M69.68,27a29.77,29.77,0,0,0-6.46.06c-3,.43-7.52,1.86-7.46,2.06s4.94-1.63,7.36-1.8,6.74,0,6.74,0Z"/><path class="cls-7" d="M68.16,27.07a3.28,3.28,0,0,1-.63,1.17,9.15,9.15,0,0,0-1.08,1.68,9.72,9.72,0,0,0,1.25-1.56c.36-.53.82-1.27.82-1.27Z"/><path class="cls-7" d="M65.16,27.09A5.29,5.29,0,0,1,64.5,29c-.66,1.36-.93,1.76-.76,1.79s.66-1,1-1.74.85-2,.85-2Z"/><path class="cls-7" d="M62.25,27.36A3.63,3.63,0,0,1,62,28.78c-.3,1-.66,1.58-.53,1.65s.49-.87.69-1.59.5-1.63.5-1.63Z"/><path class="cls-7" d="M59.11,28.1a2.11,2.11,0,0,1-.16.84c-.18.52-.47,1-.38,1a1.93,1.93,0,0,0,.53-.92l.28-1Z"/><path class="cls-7" d="M68.52,27a4.38,4.38,0,0,0-1.13-1.09,3.59,3.59,0,0,0-1.46-.6c-.08.07.83.33,1.15.54A12.23,12.23,0,0,1,68.26,27Z"/><path class="cls-7" d="M65.44,26.9a2.88,2.88,0,0,0-.93-1.23,4.45,4.45,0,0,0-2.05-.8c-.2.06,1.5.49,1.88.86A4.23,4.23,0,0,1,65,26.94Z"/><path class="cls-7" d="M62.68,27.21a6.75,6.75,0,0,0-1.39-1.09,5.58,5.58,0,0,0-1.66-.42c-.19,0,1.28.33,1.69.62a9.06,9.06,0,0,1,1,1Z"/><path class="cls-7" d="M59.11,28s0-.25-.74-.5-1.06-.43-.91-.43a4.31,4.31,0,0,1,.91.24,5.61,5.61,0,0,1,1.07.6Z"/><path class="cls-3" d="M19.18,21.41c-3,2.19-6.91,9.14-2.29,14.85S28.26,42.31,33.36,39a11.48,11.48,0,0,0,1.42-18.14C29.64,15.93,23.69,18.09,19.18,21.41Z"/><path class="cls-4" d="M31.67,20.59h0Z"/><path class="cls-4" d="M31,21.31c-.35-.17-.74-.53-.42-.84s.78,0,1.1.12C32.09,21,31.91,21.77,31,21.31Z"/><path class="cls-4" d="M31.65,20.59l-.53-.21A.78.78,0,0,1,31.65,20.59Z"/><path class="cls-4" d="M32.61,22.12c-.13-.1-.31-.3-.14-.44a.23.23,0,0,1,.34.07A.43.43,0,0,1,33,22C33.05,22.33,32.75,22.22,32.61,22.12Z"/><path class="cls-4" d="M30.32,21.94a.3.3,0,0,1,.33,0c.16,0,.35.08.39.21a.11.11,0,0,1,0,.08l.05,0-.05,0c0,.15-.38,0-.51,0S30.06,22.08,30.32,21.94Z"/><path class="cls-4" d="M31.09,22.27h0Z"/><path class="cls-4" d="M29.59,21.15c.15.05.32.22.23.36s-.44.09-.56,0C28.76,21.25,29.4,21,29.59,21.15Z"/><path class="cls-4" d="M29,20.23c.11,0,.3-.06.38,0a.15.15,0,0,1,0,.17c0,.11-.18.2-.25.24s-.92.32-1,.06S28.78,20.26,29,20.23Z"/><path class="cls-4" d="M29.79,19.71c-.15.08-.71.06-.77-.16s.31-.28.45-.26a.5.5,0,0,1,.24.14C29.86,19.5,30,19.61,29.79,19.71Z"/><path class="cls-4" d="M32.51,21c-.29-.21,0-.33.22-.29h0c.13,0,.46.14.37.32S32.62,21.12,32.51,21Z"/><path class="cls-4" d="M33.73,22.42c-.11-.13-.44-.67-.06-.69a.23.23,0,0,1,.2.1,1.06,1.06,0,0,1,.38.53C34.4,22.86,33.92,22.63,33.73,22.42Z"/><path class="cls-4" d="M31.68,22.57a.74.74,0,0,1,.5,0,1,1,0,0,1,.67.52c.12.51-.79.14-1,.07S31.26,22.73,31.68,22.57Z"/><path class="cls-4" d="M30.16,23c.14.05.3.17.29.29s-.52.18-.66.11C29.23,23.12,30,22.86,30.16,23Z"/><path class="cls-4" d="M26.57,20.1a.23.23,0,0,1,.25.1.69.69,0,0,1-1,0A.57.57,0,0,1,26.57,20.1Z"/><path class="cls-4" d="M28.05,21.44c-.32.11-1.17.16-1.23-.28a.75.75,0,0,1,.68-.08C27.76,21.07,28,21.16,28.05,21.44Z"/><path class="cls-4" d="M27.43,19.14a.46.46,0,0,1,.63-.07.32.32,0,0,1,.15.19A.62.62,0,0,1,27.43,19.14Z"/><path class="cls-4" d="M25.12,21c.63,0-.18.8-.53.55S24.87,20.8,25.12,21Z"/><path class="cls-4" d="M34.05,23.56c.2-.16.36,0,.47.18.42.27.93.9.53,1.06S34.06,23.91,34.05,23.56Z"/><path class="cls-4" d="M35.21,22.73c.54.11.28,1-.23.39C34.66,22.74,35,22.62,35.21,22.73Z"/><path class="cls-4" d="M32.13,24.39a.27.27,0,0,1,.2.24c-.2.15-.74.16-.87-.11S32,24.07,32.13,24.39Z"/><path class="cls-4" d="M27.34,22.91l0-.05a.61.61,0,0,1,0,.11c0,.06,0,.1,0,.12-.11.29-.73.3-.61-.07S27.2,22.76,27.34,22.91Z"/><path class="cls-4" d="M21.78,22.12c.37-.5,1.12,0,.65.16C22.15,22.48,21.43,22.62,21.78,22.12Z"/><path class="cls-4" d="M34.73,26.91l-.07-.13a.93.93,0,0,1,.4.63c-.22.06-.85-.36-.84-.65S34.55,26.64,34.73,26.91Z"/><path class="cls-4" d="M29.06,25.49c-.08.09-.14.09-.21.05-.27,0-.75,0-.54-.31S29,25.27,29.06,25.49Z"/><path class="cls-4" d="M36.89,25.21a.54.54,0,0,1,0,.22c-.33.11-1.14,0-.87-.51S36.8,24.84,36.89,25.21Z"/><path class="cls-4" d="M35.78,23.85h0a.27.27,0,0,1,.33.27.39.39,0,0,1-.55-.22A.39.39,0,0,1,35.78,23.85Z"/><path class="cls-5" d="M34.72,35.17c1.18.86-4.8,5.2-8.68,5a11.44,11.44,0,0,1-9.41-6c-1-2.15-.66-8.23.62-7.81.46.15-.1,2.22,1.78,5.35,1.66,2.74,4.48,5.45,8.21,5.26C32.36,36.77,34,34.6,34.72,35.17Z"/><path class="cls-6" d="M21.9,20.11a.55.55,0,0,1,.49.84c-.32.8-2.27,2.1-2.83,1.88s-.59-.87.23-1.5A4.86,4.86,0,0,1,21.9,20.11Z"/><path class="cls-6" d="M20.89,21.18S18.63,18.84,18,18a42,42,0,0,1-2.14-4.22s-.2-.3-.47-.25-.2.47-.2.47,1.58,3.23,2.22,4.12c1.29,1.8,3,3.77,3,3.77Z"/><path class="cls-6" d="M17,16.77l3.73-.47.13.22-1.85.3-1.85.31Z"/><path class="cls-6" d="M24.72,21c3.85,1,9.55-1.77,9.55-1.77s-3.81-4.43-7.07-4.77-8.93,2.27-8.93,2.27A13.42,13.42,0,0,0,24.72,21Z"/><path class="cls-7" d="M21.87,20.35a.82.82,0,0,1,.09.79,4.16,4.16,0,0,1-1.4,1.12l-.09-.71s.3-.2.33-.38a.39.39,0,0,0,0-.27Z"/><path class="cls-7" d="M19.53,16.81a30.51,30.51,0,0,1,6.46.06c3,.43,7.52,1.86,7.46,2.07s-4.94-1.64-7.36-1.8-6.74,0-6.74,0Z"/><path class="cls-7" d="M21.05,16.92a3.28,3.28,0,0,0,.63,1.17,8.7,8.7,0,0,1,1.08,1.69,9.93,9.93,0,0,1-1.25-1.57c-.36-.53-.82-1.27-.82-1.27Z"/><path class="cls-7" d="M24.05,16.94a5.29,5.29,0,0,0,.66,1.92c.66,1.36.93,1.75.76,1.78s-.66-1-1-1.74-.85-2-.85-2Z"/><path class="cls-7" d="M27,17.22a3.65,3.65,0,0,0,.23,1.42c.3,1,.66,1.57.53,1.64s-.49-.87-.69-1.59-.5-1.63-.5-1.63Z"/><path class="cls-7" d="M30.1,18a2.13,2.13,0,0,0,.16.84c.18.51.47,1,.38,1a1.93,1.93,0,0,1-.53-.92l-.28-1Z"/><path class="cls-7" d="M20.69,16.84a4.38,4.38,0,0,1,1.13-1.09,3.5,3.5,0,0,1,1.46-.59c.08.07-.83.32-1.15.53A12.23,12.23,0,0,0,21,16.83Z"/><path class="cls-7" d="M23.77,16.75a2.88,2.88,0,0,1,.93-1.23,4.57,4.57,0,0,1,2.05-.8c.2.06-1.5.49-1.88.87a4.1,4.1,0,0,0-.69,1.2Z"/><path class="cls-7" d="M26.53,17.06A6.75,6.75,0,0,1,27.92,16a6.29,6.29,0,0,1,1.66-.42c.19,0-1.28.33-1.69.62a9.06,9.06,0,0,0-1,1Z"/><path class="cls-7" d="M30.1,17.87s0-.24.74-.5,1.06-.43.91-.43a5.09,5.09,0,0,0-.91.24,5.46,5.46,0,0,0-1.07.61Z"/><path class="cls-3" d="M13.42,34.24c-3,2.19-6.91,9.14-2.29,14.85s11.37,6,16.47,2.7A11.48,11.48,0,0,0,29,33.65C23.88,28.76,17.93,30.93,13.42,34.24Z"/><path class="cls-4" d="M25.91,33.42h0Z"/><path class="cls-4" d="M25.22,34.14c-.35-.17-.74-.52-.41-.84s.77,0,1.09.12C26.33,33.82,26.15,34.6,25.22,34.14Z"/><path class="cls-4" d="M25.9,33.42l-.54-.21A.83.83,0,0,1,25.9,33.42Z"/><path class="cls-4" d="M26.85,35c-.13-.1-.31-.3-.14-.44a.23.23,0,0,1,.34.07.48.48,0,0,1,.22.29C27.29,35.16,27,35.05,26.85,35Z"/><path class="cls-4" d="M24.57,34.77a.33.33,0,0,1,.32,0c.16,0,.35.08.39.21a.11.11,0,0,1,0,.08l0,0,0,0c0,.15-.38,0-.5,0S24.3,34.91,24.57,34.77Z"/><path class="cls-4" d="M25.33,35.1h0Z"/><path class="cls-4" d="M23.83,34c.15.05.32.22.23.36s-.44.09-.56,0C23,34.08,23.65,33.87,23.83,34Z"/><path class="cls-4" d="M23.2,33.06c.11,0,.3-.06.38,0a.15.15,0,0,1,0,.18c0,.1-.18.19-.25.23s-.92.32-1,.06S23,33.09,23.2,33.06Z"/><path class="cls-4" d="M24,32.54c-.16.08-.72.06-.78-.16s.31-.28.45-.26a.58.58,0,0,1,.25.14C24.1,32.33,24.22,32.44,24,32.54Z"/><path class="cls-4" d="M26.75,33.87c-.29-.22,0-.34.22-.3h0c.13,0,.46.14.37.32S26.86,34,26.75,33.87Z"/><path class="cls-4" d="M28,35.25c-.11-.13-.44-.67-.06-.69a.23.23,0,0,1,.2.1,1.06,1.06,0,0,1,.38.53C28.64,35.69,28.16,35.46,28,35.25Z"/><path class="cls-4" d="M25.92,35.4a.74.74,0,0,1,.5,0,1,1,0,0,1,.67.52c.13.52-.78.14-1,.08S25.5,35.56,25.92,35.4Z"/><path class="cls-4" d="M24.4,35.81c.14,0,.3.17.3.29s-.53.18-.67.11C23.47,36,24.2,35.7,24.4,35.81Z"/><path class="cls-4" d="M20.81,32.93a.23.23,0,0,1,.25.1.69.69,0,0,1-1,0A.57.57,0,0,1,20.81,32.93Z"/><path class="cls-4" d="M22.29,34.27c-.32.11-1.17.16-1.23-.28a.75.75,0,0,1,.68-.08C22,33.9,22.28,34,22.29,34.27Z"/><path class="cls-4" d="M21.67,32a.46.46,0,0,1,.63-.06.28.28,0,0,1,.15.18A.6.6,0,0,1,21.67,32Z"/><path class="cls-4" d="M19.36,33.8c.63,0-.18.81-.53.55S19.11,33.63,19.36,33.8Z"/><path class="cls-4" d="M28.29,36.39c.2-.15.36,0,.47.18.42.27.93.9.53,1.06S28.31,36.74,28.29,36.39Z"/><path class="cls-4" d="M29.45,35.57c.54.1.28,1-.23.38C28.9,35.57,29.23,35.45,29.45,35.57Z"/><path class="cls-4" d="M26.37,37.22a.27.27,0,0,1,.2.24c-.2.15-.74.16-.87-.11S26.2,36.91,26.37,37.22Z"/><path class="cls-4" d="M21.58,35.74l0-.05a.61.61,0,0,1,0,.11c0,.06,0,.1,0,.12-.11.29-.73.31-.61-.07S21.44,35.6,21.58,35.74Z"/><path class="cls-4" d="M16,35c.37-.5,1.12,0,.65.16C16.39,35.31,15.67,35.45,16,35Z"/><path class="cls-4" d="M29,39.74l-.07-.13a.93.93,0,0,1,.4.63c-.22.06-.85-.36-.84-.64S28.79,39.47,29,39.74Z"/><path class="cls-4" d="M23.3,38.32c-.08.1-.14.09-.21,0-.27,0-.75,0-.54-.31S23.22,38.1,23.3,38.32Z"/><path class="cls-4" d="M31.13,38a.54.54,0,0,1,0,.22c-.32.11-1.14,0-.87-.51S31,37.67,31.13,38Z"/><path class="cls-4" d="M30,36.68h0a.27.27,0,0,1,.33.26.39.39,0,0,1-.55-.21A.34.34,0,0,1,30,36.68Z"/><path class="cls-5" d="M29,48c1.17.86-4.81,5.2-8.69,5a11.41,11.41,0,0,1-9.4-6c-1-2.15-.67-8.23.61-7.81.46.15-.1,2.22,1.78,5.35,1.66,2.74,4.48,5.45,8.22,5.26C26.6,49.6,28.19,47.43,29,48Z"/><path class="cls-6" d="M16.14,32.94a.55.55,0,0,1,.49.84c-.32.8-2.27,2.1-2.83,1.88s-.59-.87.23-1.5A4.86,4.86,0,0,1,16.14,32.94Z"/><path class="cls-6" d="M15.13,34s-2.26-2.34-2.9-3.22a40.43,40.43,0,0,1-2.15-4.22s-.19-.3-.47-.25-.2.47-.2.47S11,30,11.63,30.91c1.29,1.8,3,3.77,3,3.77Z"/><path class="cls-6" d="M11.19,29.61c.14,0,3.73-.48,3.73-.48l.13.22-1.85.3L11.35,30Z"/><path class="cls-6" d="M19,33.81c3.85,1,9.55-1.77,9.55-1.77s-3.8-4.43-7.07-4.77-8.93,2.27-8.93,2.27A13.49,13.49,0,0,0,19,33.81Z"/><path class="cls-7" d="M16.11,33.18a.82.82,0,0,1,.09.79,4.16,4.16,0,0,1-1.4,1.12l-.09-.71s.3-.2.33-.38a.39.39,0,0,0,0-.27Z"/><path class="cls-7" d="M13.77,29.64a30.51,30.51,0,0,1,6.46.06c3,.43,7.52,1.87,7.46,2.07s-4.94-1.64-7.36-1.8-6.73,0-6.73,0Z"/><path class="cls-7" d="M15.29,29.75a3.36,3.36,0,0,0,.63,1.18A8.47,8.47,0,0,1,17,32.61,9.93,9.93,0,0,1,15.75,31c-.36-.52-.82-1.27-.82-1.27Z"/><path class="cls-7" d="M18.29,29.77A5.29,5.29,0,0,0,19,31.69c.66,1.36.93,1.75.76,1.78s-.66-1-1-1.74-.85-2-.85-2Z"/><path class="cls-7" d="M21.2,30.05a3.93,3.93,0,0,0,.23,1.42c.3,1,.66,1.57.53,1.64s-.49-.86-.69-1.59-.5-1.62-.5-1.62Z"/><path class="cls-7" d="M24.34,30.79a2.39,2.39,0,0,0,.16.84c.18.52.47,1,.39,1a1.84,1.84,0,0,1-.54-.92l-.28-1Z"/><path class="cls-7" d="M14.93,29.67a4.32,4.32,0,0,1,1.14-1.09A3.44,3.44,0,0,1,17.52,28c.08.07-.83.33-1.15.53a12.23,12.23,0,0,0-1.18,1.14Z"/><path class="cls-7" d="M18,29.58a2.81,2.81,0,0,1,.92-1.23,4.57,4.57,0,0,1,2-.8c.2.07-1.5.49-1.88.87a4.1,4.1,0,0,0-.69,1.2Z"/><path class="cls-7" d="M20.77,29.9a6.69,6.69,0,0,1,1.39-1.1,6.29,6.29,0,0,1,1.66-.42c.19,0-1.28.33-1.69.62a9.06,9.06,0,0,0-1,1Z"/><path class="cls-7" d="M24.34,30.7s.05-.24.74-.5,1.06-.43.91-.43a5.09,5.09,0,0,0-.91.24,5.46,5.46,0,0,0-1.07.61Z"/><path class="cls-3" d="M86.14,37c3,2.19,6.91,9.14,2.29,14.85S77.06,57.9,72,54.54a11.48,11.48,0,0,1-1.43-18.13C75.69,31.52,81.64,33.68,86.14,37Z"/><path class="cls-4" d="M73.65,36.18h0Z"/><path class="cls-4" d="M74.35,36.9c.34-.17.74-.53.41-.84s-.78,0-1.09.12C73.23,36.58,73.41,37.36,74.35,36.9Z"/><path class="cls-4" d="M73.67,36.18,74.2,36A.82.82,0,0,0,73.67,36.18Z"/><path class="cls-4" d="M72.71,37.71c.14-.1.31-.3.14-.44a.22.22,0,0,0-.33.07.44.44,0,0,0-.22.29C72.27,37.92,72.58,37.81,72.71,37.71Z"/><path class="cls-4" d="M75,37.53a.3.3,0,0,0-.33,0c-.16,0-.35.08-.38.21a.25.25,0,0,0,0,.08l0,0,0,0c0,.15.39,0,.51,0S75.27,37.67,75,37.53Z"/><path class="cls-4" d="M74.24,37.86h0Z"/><path class="cls-4" d="M75.73,36.74c-.15,0-.32.21-.23.36s.44.09.56,0C76.57,36.84,75.92,36.63,75.73,36.74Z"/><path class="cls-4" d="M76.36,35.82c-.1,0-.29-.06-.37,0A.14.14,0,0,0,76,36c0,.11.18.2.25.24s.92.32,1,.06S76.55,35.84,76.36,35.82Z"/><path class="cls-4" d="M75.53,35.3c.16.08.71.06.77-.16s-.3-.28-.45-.26a.55.55,0,0,0-.24.14C75.46,35.09,75.35,35.2,75.53,35.3Z"/><path class="cls-4" d="M72.81,36.62c.29-.21,0-.33-.22-.29h0c-.13,0-.46.14-.37.32S72.7,36.71,72.81,36.62Z"/><path class="cls-4" d="M71.59,38c.11-.13.44-.67.06-.69a.21.21,0,0,0-.19.1,1.08,1.08,0,0,0-.39.53C70.92,38.45,71.4,38.22,71.59,38Z"/><path class="cls-4" d="M73.64,38.16a.74.74,0,0,0-.5,0,1,1,0,0,0-.67.52c-.12.51.79.14,1,.07S74.07,38.32,73.64,38.16Z"/><path class="cls-4" d="M75.17,38.57c-.15,0-.3.17-.3.29s.52.18.67.11C76.1,38.71,75.37,38.45,75.17,38.57Z"/><path class="cls-4" d="M78.75,35.69a.25.25,0,0,0-.25.1.69.69,0,0,0,1,0A.59.59,0,0,0,78.75,35.69Z"/><path class="cls-4" d="M77.28,37c.31.11,1.16.16,1.23-.28a.75.75,0,0,0-.68-.08C77.56,36.66,77.28,36.75,77.28,37Z"/><path class="cls-4" d="M77.89,34.73a.45.45,0,0,0-.62-.07.32.32,0,0,0-.15.19A.61.61,0,0,0,77.89,34.73Z"/><path class="cls-4" d="M80.2,36.56c-.63,0,.18.8.53.55S80.45,36.39,80.2,36.56Z"/><path class="cls-4" d="M71.27,39.15c-.19-.16-.36,0-.47.18-.42.27-.92.9-.52,1.06S71.26,39.49,71.27,39.15Z"/><path class="cls-4" d="M70.12,38.32c-.54.11-.29,1,.23.39C70.67,38.33,70.34,38.21,70.12,38.32Z"/><path class="cls-4" d="M73.19,40a.29.29,0,0,0-.2.25c.2.15.74.16.88-.11S73.37,39.66,73.19,40Z"/><path class="cls-4" d="M78,38.5l0,0a.52.52,0,0,0,0,.11c0,.06,0,.1,0,.12.11.29.73.3.61-.07S78.13,38.35,78,38.5Z"/><path class="cls-4" d="M83.54,37.71c-.36-.5-1.12,0-.65.16C83.17,38.07,83.9,38.2,83.54,37.71Z"/><path class="cls-4" d="M70.59,42.5l.08-.13a.87.87,0,0,0-.4.63c.21.06.85-.37.83-.65S70.78,42.23,70.59,42.5Z"/><path class="cls-4" d="M76.27,41.08c.08.09.14.09.21.05.26,0,.74,0,.54-.31S76.34,40.86,76.27,41.08Z"/><path class="cls-4" d="M68.43,40.8a.41.41,0,0,0,0,.22c.32.11,1.13,0,.86-.51S68.52,40.43,68.43,40.8Z"/><path class="cls-4" d="M69.55,39.44h0a.27.27,0,0,0-.33.27.4.4,0,0,0,.56-.22A.41.41,0,0,0,69.55,39.44Z"/><path class="cls-5" d="M70.6,50.76c-1.18.86,4.8,5.19,8.69,5a11.44,11.44,0,0,0,9.4-6c1-2.15.67-8.23-.62-7.81-.46.15.11,2.22-1.78,5.35-1.65,2.74-4.47,5.45-8.21,5.26C73,52.36,71.38,50.19,70.6,50.76Z"/><path class="cls-6" d="M83.42,35.7a.55.55,0,0,0-.49.84c.33.8,2.28,2.1,2.84,1.88s.58-.87-.24-1.5A4.8,4.8,0,0,0,83.42,35.7Z"/><path class="cls-6" d="M84.43,36.77s2.26-2.34,2.91-3.22a42,42,0,0,0,2.14-4.22s.2-.3.48-.25.19.47.19.47-1.57,3.23-2.21,4.12c-1.3,1.8-3,3.77-3,3.77Z"/><path class="cls-6" d="M88.38,32.36l-3.73-.47-.14.22,1.85.3,1.85.31Z"/><path class="cls-6" d="M80.6,36.57c-3.85,1-9.55-1.77-9.55-1.77s3.81-4.43,7.07-4.77,8.93,2.27,8.93,2.27A13.5,13.5,0,0,1,80.6,36.57Z"/><path class="cls-7" d="M83.45,35.94a.8.8,0,0,0-.08.79,4.09,4.09,0,0,0,1.4,1.11l.09-.7s-.3-.21-.33-.38a.39.39,0,0,1,0-.27Z"/><path class="cls-7" d="M85.79,32.4a30.48,30.48,0,0,0-6.46.06c-3,.43-7.52,1.86-7.46,2.07s4.95-1.64,7.36-1.8,6.74,0,6.74,0Z"/><path class="cls-7" d="M84.27,32.51a3.34,3.34,0,0,1-.62,1.17,8.47,8.47,0,0,0-1.09,1.69,10.43,10.43,0,0,0,1.26-1.57c.35-.53.81-1.27.81-1.27Z"/><path class="cls-7" d="M81.28,32.53a5.29,5.29,0,0,1-.66,1.91c-.67,1.36-.93,1.76-.77,1.79s.66-1,1-1.74.85-2,.85-2Z"/><path class="cls-7" d="M78.36,32.81a3.65,3.65,0,0,1-.23,1.42c-.3,1-.66,1.57-.52,1.64s.48-.87.68-1.59.5-1.63.5-1.63Z"/><path class="cls-7" d="M75.23,33.55a2.39,2.39,0,0,1-.16.84c-.19.51-.48,1-.39,1a1.85,1.85,0,0,0,.53-.92c.14-.46.28-1,.28-1Z"/><path class="cls-7" d="M84.63,32.43a4.38,4.38,0,0,0-1.13-1.09A3.46,3.46,0,0,0,82,30.75c-.08.07.83.32,1.15.53a12.62,12.62,0,0,1,1.19,1.14Z"/><path class="cls-7" d="M81.55,32.34a2.91,2.91,0,0,0-.92-1.23,4.56,4.56,0,0,0-2.06-.8c-.19.06,1.5.49,1.88.87a4.22,4.22,0,0,1,.7,1.2Z"/><path class="cls-7" d="M78.79,32.65a6.6,6.6,0,0,0-1.38-1.09,6.39,6.39,0,0,0-1.66-.42c-.2,0,1.27.33,1.68.62a8.6,8.6,0,0,1,1,1Z"/><path class="cls-7" d="M75.22,33.46s0-.24-.73-.5-1.07-.43-.92-.43a4.88,4.88,0,0,1,.91.24,5.66,5.66,0,0,1,1.08.61Z"/><path class="cls-3" d="M90.89,47.13c3,2.2,6.91,9.14,2.29,14.85S81.81,68,76.71,64.68a11.48,11.48,0,0,1-1.42-18.14C80.43,41.65,86.38,43.82,90.89,47.13Z"/><path class="cls-4" d="M78.4,46.32h0Z"/><path class="cls-4" d="M79.09,47c.35-.17.74-.53.42-.85s-.78,0-1.1.12C78,46.71,78.16,47.49,79.09,47Z"/><path class="cls-4" d="M78.42,46.31,79,46.1A.78.78,0,0,0,78.42,46.31Z"/><path class="cls-4" d="M77.46,47.84c.13-.1.31-.3.14-.44a.23.23,0,0,0-.34.07.43.43,0,0,0-.21.29C77,48.05,77.32,47.94,77.46,47.84Z"/><path class="cls-4" d="M79.75,47.66a.35.35,0,0,0-.33,0c-.16,0-.35.08-.39.21A.11.11,0,0,0,79,48l0,0,0,0c0,.14.38,0,.51,0S80,47.81,79.75,47.66Z"/><path class="cls-4" d="M79,48l0,0Z"/><path class="cls-4" d="M80.48,46.88c-.15,0-.32.21-.23.35s.44.1.56,0C81.31,47,80.67,46.76,80.48,46.88Z"/><path class="cls-4" d="M81.11,46c-.11,0-.3-.06-.38,0a.17.17,0,0,0,0,.18c0,.1.18.2.25.23s.92.33,1,.07S81.29,46,81.11,46Z"/><path class="cls-4" d="M80.28,45.43c.15.09.71.07.77-.16S80.74,45,80.6,45a.6.6,0,0,0-.24.14C80.21,45.22,80.09,45.34,80.28,45.43Z"/><path class="cls-4" d="M77.56,46.76c.29-.22,0-.34-.22-.3h0c-.13,0-.46.14-.37.32S77.45,46.84,77.56,46.76Z"/><path class="cls-4" d="M76.34,48.14c.11-.13.44-.67.06-.69a.3.3,0,0,0-.2.1,1.06,1.06,0,0,0-.38.53C75.67,48.59,76.15,48.36,76.34,48.14Z"/><path class="cls-4" d="M78.39,48.29a.8.8,0,0,0-.5,0,1,1,0,0,0-.67.52c-.12.52.79.15,1,.08S78.81,48.45,78.39,48.29Z"/><path class="cls-4" d="M79.91,48.7c-.14,0-.3.17-.29.29s.52.18.66.11C80.84,48.84,80.11,48.59,79.91,48.7Z"/><path class="cls-4" d="M83.5,45.82a.25.25,0,0,0-.25.1.69.69,0,0,0,1,0A.57.57,0,0,0,83.5,45.82Z"/><path class="cls-4" d="M82,47.16c.32.11,1.17.17,1.23-.27a.73.73,0,0,0-.68-.09C82.31,46.79,82,46.88,82,47.16Z"/><path class="cls-4" d="M82.64,44.86A.46.46,0,0,0,82,44.8a.28.28,0,0,0-.15.18A.6.6,0,0,0,82.64,44.86Z"/><path class="cls-4" d="M85,46.69c-.63,0,.18.81.53.55S85.2,46.53,85,46.69Z"/><path class="cls-4" d="M76,49.28c-.2-.15-.36,0-.47.18-.42.27-.93.91-.53,1.06S76,49.63,76,49.28Z"/><path class="cls-4" d="M74.86,48.46c-.54.1-.28,1,.23.39C75.41,48.46,75.09,48.34,74.86,48.46Z"/><path class="cls-4" d="M77.94,50.11a.27.27,0,0,0-.2.25c.2.14.74.15.87-.11S78.12,49.8,77.94,50.11Z"/><path class="cls-4" d="M82.73,48.63l0,0a.45.45,0,0,0,0,.11s0,.09,0,.11c.11.3.73.31.61-.06S82.87,48.49,82.73,48.63Z"/><path class="cls-4" d="M88.29,47.85c-.37-.51-1.12,0-.65.15C87.92,48.21,88.64,48.34,88.29,47.85Z"/><path class="cls-4" d="M75.34,52.63l.07-.13a.93.93,0,0,0-.4.63c.22.06.85-.36.84-.64S75.52,52.36,75.34,52.63Z"/><path class="cls-4" d="M81,51.22a.14.14,0,0,0,.21,0c.27,0,.75,0,.54-.31S81.09,51,81,51.22Z"/><path class="cls-4" d="M73.18,50.94a.48.48,0,0,0,0,.22c.33.1,1.14,0,.87-.51S73.27,50.56,73.18,50.94Z"/><path class="cls-4" d="M74.29,49.58h0a.27.27,0,0,0-.33.26.39.39,0,0,0,.55-.21A.33.33,0,0,0,74.29,49.58Z"/><path class="cls-5" d="M75.35,60.89c-1.18.86,4.8,5.2,8.68,5a11.47,11.47,0,0,0,9.41-6c1-2.14.66-8.23-.62-7.81-.46.16.1,2.22-1.78,5.35-1.66,2.74-4.48,5.45-8.21,5.27C77.71,62.49,76.12,60.33,75.35,60.89Z"/><path class="cls-6" d="M88.17,45.83a.55.55,0,0,0-.49.84c.32.8,2.27,2.1,2.83,1.88s.59-.87-.23-1.5A4.86,4.86,0,0,0,88.17,45.83Z"/><path class="cls-6" d="M89.18,46.91s2.26-2.34,2.91-3.23a42,42,0,0,0,2.14-4.22s.2-.3.47-.24.2.46.2.46-1.58,3.23-2.22,4.12c-1.29,1.81-3,3.77-3,3.77Z"/><path class="cls-6" d="M93.12,42.5c-.14,0-3.73-.47-3.73-.47l-.13.21,1.85.3,1.85.31Z"/><path class="cls-6" d="M85.35,46.7c-3.85,1-9.55-1.77-9.55-1.77s3.81-4.43,7.07-4.76,8.93,2.27,8.93,2.27A13.44,13.44,0,0,1,85.35,46.7Z"/><path class="cls-7" d="M88.2,46.07a.82.82,0,0,0-.09.79A4.16,4.16,0,0,0,89.51,48l.09-.71s-.3-.2-.33-.38a.41.41,0,0,1,0-.27Z"/><path class="cls-7" d="M90.54,42.53a30.51,30.51,0,0,0-6.46.06c-3,.44-7.52,1.87-7.46,2.07S81.56,43,84,42.86s6.74,0,6.74,0Z"/><path class="cls-7" d="M89,42.64a3.36,3.36,0,0,1-.63,1.18,8.47,8.47,0,0,0-1.08,1.68,9.93,9.93,0,0,0,1.25-1.57c.36-.52.82-1.26.82-1.26Z"/><path class="cls-7" d="M86,42.67a5.29,5.29,0,0,1-.66,1.91c-.66,1.36-.93,1.75-.76,1.78s.66-1,1-1.74.85-2,.85-2Z"/><path class="cls-7" d="M83.11,42.94a3.63,3.63,0,0,1-.23,1.42c-.3,1-.66,1.57-.53,1.64s.49-.86.69-1.59.5-1.62.5-1.62Z"/><path class="cls-7" d="M80,43.68a2.13,2.13,0,0,1-.16.84c-.18.52-.47,1-.38,1a1.82,1.82,0,0,0,.53-.92l.28-1Z"/><path class="cls-7" d="M89.38,42.56a4.25,4.25,0,0,0-1.13-1.08,3.59,3.59,0,0,0-1.46-.6c-.08.07.83.33,1.15.54a12.41,12.41,0,0,1,1.18,1.13Z"/><path class="cls-7" d="M86.3,42.47a2.88,2.88,0,0,0-.93-1.23,4.7,4.7,0,0,0-2.05-.8c-.2.07,1.5.49,1.88.87a4.1,4.1,0,0,1,.69,1.2Z"/><path class="cls-7" d="M83.54,42.79a6.42,6.42,0,0,0-1.39-1.09,6,6,0,0,0-1.66-.43c-.19,0,1.28.33,1.69.62a8.84,8.84,0,0,1,1,1Z"/><path class="cls-7" d="M80,43.59s0-.24-.74-.5-1.06-.42-.91-.42a4.06,4.06,0,0,1,.91.23,6.06,6.06,0,0,1,1.07.61Z"/><path class="cls-3" d="M71.14,47.69c3,2.19,6.91,9.14,2.29,14.85S62.06,68.59,57,65.23A11.48,11.48,0,0,1,55.54,47.1C60.68,42.2,66.64,44.37,71.14,47.69Z"/><path class="cls-4" d="M58.65,46.87h0Z"/><path class="cls-4" d="M59.35,47.59c.34-.17.74-.53.41-.84s-.78,0-1.1.12C58.23,47.27,58.41,48.05,59.35,47.59Z"/><path class="cls-4" d="M58.67,46.87l.53-.21A.8.8,0,0,0,58.67,46.87Z"/><path class="cls-4" d="M57.71,48.4c.13-.1.31-.3.14-.44a.23.23,0,0,0-.34.07.43.43,0,0,0-.21.29C57.27,48.61,57.58,48.5,57.71,48.4Z"/><path class="cls-4" d="M60,48.22a.3.3,0,0,0-.33,0c-.16,0-.35.08-.39.21s0,.06,0,.08l-.05,0,.05,0c0,.15.38,0,.51,0S60.27,48.36,60,48.22Z"/><path class="cls-4" d="M59.23,48.55h0Z"/><path class="cls-4" d="M60.73,47.43c-.15,0-.32.21-.23.36s.44.09.56,0C61.57,47.53,60.92,47.32,60.73,47.43Z"/><path class="cls-4" d="M61.36,46.51c-.1,0-.29-.07-.37,0a.14.14,0,0,0,0,.17c0,.11.18.2.25.24s.92.32,1,.06S61.55,46.53,61.36,46.51Z"/><path class="cls-4" d="M60.53,46c.15.08.71.06.77-.16s-.3-.28-.45-.26a.55.55,0,0,0-.24.14C60.46,45.78,60.35,45.89,60.53,46Z"/><path class="cls-4" d="M57.81,47.31c.29-.21,0-.33-.22-.29h0c-.14,0-.46.14-.38.32S57.7,47.4,57.81,47.31Z"/><path class="cls-4" d="M56.59,48.7c.11-.13.44-.67.06-.69a.23.23,0,0,0-.2.1,1.12,1.12,0,0,0-.38.53C55.92,49.14,56.4,48.91,56.59,48.7Z"/><path class="cls-4" d="M58.64,48.85a.74.74,0,0,0-.5,0c-.28.08-.62.31-.67.52-.12.51.79.14,1,.07S59.07,49,58.64,48.85Z"/><path class="cls-4" d="M60.17,49.26c-.15.05-.3.17-.3.29s.52.17.67.11C61.1,49.39,60.37,49.14,60.17,49.26Z"/><path class="cls-4" d="M63.75,46.37a.27.27,0,0,0-.25.11.69.69,0,0,0,1,0A.61.61,0,0,0,63.75,46.37Z"/><path class="cls-4" d="M62.28,47.72c.31.11,1.16.16,1.23-.28a.75.75,0,0,0-.68-.08C62.56,47.35,62.28,47.44,62.28,47.72Z"/><path class="cls-4" d="M62.89,45.42a.45.45,0,0,0-.62-.07.32.32,0,0,0-.15.19A.61.61,0,0,0,62.89,45.42Z"/><path class="cls-4" d="M65.2,47.25c-.63,0,.18.8.53.55S65.45,47.08,65.2,47.25Z"/><path class="cls-4" d="M56.27,49.84c-.2-.16-.36,0-.47.18-.42.27-.92.9-.52,1.06S56.26,50.18,56.27,49.84Z"/><path class="cls-4" d="M55.12,49c-.54.11-.29,1,.23.39C55.67,49,55.34,48.9,55.12,49Z"/><path class="cls-4" d="M58.19,50.66a.29.29,0,0,0-.2.25c.2.15.74.16.87-.11S58.37,50.35,58.19,50.66Z"/><path class="cls-4" d="M63,49.19l0,0a.52.52,0,0,0,0,.11s0,.1,0,.12c.12.29.74.3.62-.07S63.13,49,63,49.19Z"/><path class="cls-4" d="M68.54,48.4c-.37-.5-1.12,0-.65.16C68.17,48.76,68.9,48.89,68.54,48.4Z"/><path class="cls-4" d="M55.59,53.19l.08-.13a.87.87,0,0,0-.4.63c.21.06.85-.37.83-.65S55.78,52.92,55.59,53.19Z"/><path class="cls-4" d="M61.27,51.77c.08.09.14.09.21,0,.26,0,.74,0,.54-.31S61.34,51.55,61.27,51.77Z"/><path class="cls-4" d="M53.43,51.49a.41.41,0,0,0,0,.22c.32.11,1.13,0,.86-.51S53.52,51.12,53.43,51.49Z"/><path class="cls-4" d="M54.54,50.13h0a.27.27,0,0,0-.33.27.4.4,0,0,0,.56-.22A.43.43,0,0,0,54.54,50.13Z"/><path class="cls-5" d="M55.6,61.45c-1.18.86,4.8,5.19,8.69,5a11.44,11.44,0,0,0,9.4-6c1-2.15.67-8.23-.62-7.81-.46.15.11,2.22-1.78,5.34-1.65,2.75-4.47,5.46-8.21,5.27C58,63.05,56.37,60.88,55.6,61.45Z"/><path class="cls-6" d="M68.42,46.39a.55.55,0,0,0-.49.84c.32.8,2.27,2.1,2.83,1.88s.59-.87-.23-1.5A4.76,4.76,0,0,0,68.42,46.39Z"/><path class="cls-6" d="M69.43,47.46s2.26-2.34,2.91-3.22A42,42,0,0,0,74.48,40s.2-.3.47-.25.2.47.2.47-1.57,3.23-2.21,4.12c-1.3,1.8-3,3.77-3,3.77Z"/><path class="cls-6" d="M73.38,43.05l-3.74-.47-.13.22,1.85.3,1.85.3Z"/><path class="cls-6" d="M65.6,47.26c-3.85,1-9.55-1.77-9.55-1.77s3.81-4.43,7.07-4.77S72.05,43,72.05,43A13.5,13.5,0,0,1,65.6,47.26Z"/><path class="cls-7" d="M68.45,46.63a.81.81,0,0,0-.09.79,4.1,4.1,0,0,0,1.41,1.11l.09-.7s-.3-.21-.33-.38a.39.39,0,0,1,0-.27Z"/><path class="cls-7" d="M70.79,43.09a30.48,30.48,0,0,0-6.46.06c-3,.43-7.52,1.86-7.46,2.07s4.94-1.64,7.36-1.8,6.74,0,6.74,0Z"/><path class="cls-7" d="M69.27,43.2a3.34,3.34,0,0,1-.62,1.17,8.47,8.47,0,0,0-1.09,1.69,10.43,10.43,0,0,0,1.26-1.57c.35-.53.81-1.27.81-1.27Z"/><path class="cls-7" d="M66.28,43.22a5.29,5.29,0,0,1-.66,1.91c-.67,1.36-.93,1.76-.77,1.79s.66-1,1-1.74.85-2,.85-2Z"/><path class="cls-7" d="M63.36,43.5a3.65,3.65,0,0,1-.23,1.42c-.3,1-.66,1.57-.52,1.64s.48-.87.68-1.59.5-1.63.5-1.63Z"/><path class="cls-7" d="M60.22,44.24a2.13,2.13,0,0,1-.16.84c-.18.51-.47,1-.38,1a1.93,1.93,0,0,0,.53-.92l.28-1Z"/><path class="cls-7" d="M69.63,43.12A4.38,4.38,0,0,0,68.5,42,3.46,3.46,0,0,0,67,41.44c-.08.07.83.32,1.15.53a12.62,12.62,0,0,1,1.19,1.14Z"/><path class="cls-7" d="M66.55,43a2.91,2.91,0,0,0-.92-1.23,4.6,4.6,0,0,0-2.06-.8c-.19.06,1.5.49,1.88.87a4.22,4.22,0,0,1,.7,1.2Z"/><path class="cls-7" d="M63.79,43.34a6.6,6.6,0,0,0-1.38-1.09,5.66,5.66,0,0,0-1.66-.42c-.2,0,1.27.33,1.68.62a9.48,9.48,0,0,1,1,1Z"/><path class="cls-7" d="M60.22,44.15s0-.24-.73-.5-1.07-.43-.92-.43a4.88,4.88,0,0,1,.91.24,5.46,5.46,0,0,1,1.07.61Z"/><path class="cls-3" d="M52.23,29.89c3,2.19,6.91,9.14,2.29,14.85s-11.37,6-16.47,2.69A11.47,11.47,0,0,1,36.63,29.3C41.77,24.4,47.72,26.57,52.23,29.89Z"/><path class="cls-4" d="M39.74,29.07h0Z"/><path class="cls-4" d="M40.43,29.79c.35-.17.74-.53.41-.84s-.77,0-1.09.12C39.32,29.47,39.5,30.25,40.43,29.79Z"/><path class="cls-4" d="M39.75,29.07l.54-.21A.83.83,0,0,0,39.75,29.07Z"/><path class="cls-4" d="M38.8,30.6c.13-.1.31-.3.14-.44a.23.23,0,0,0-.34.07.48.48,0,0,0-.22.29C38.36,30.81,38.66,30.7,38.8,30.6Z"/><path class="cls-4" d="M41.08,30.41a.31.31,0,0,0-.32,0c-.16,0-.35.08-.39.21a.11.11,0,0,0,0,.08l0,0,0,0c0,.15.38,0,.51,0S41.35,30.56,41.08,30.41Z"/><path class="cls-4" d="M40.32,30.75h0Z"/><path class="cls-4" d="M41.82,29.63c-.15,0-.32.21-.23.36s.44.09.56,0C42.65,29.73,42,29.52,41.82,29.63Z"/><path class="cls-4" d="M42.45,28.71c-.11,0-.3-.07-.38,0a.15.15,0,0,0,0,.17c0,.11.18.2.25.24s.92.32,1,.06S42.63,28.73,42.45,28.71Z"/><path class="cls-4" d="M41.61,28.19c.16.08.72.06.78-.16s-.31-.28-.45-.26a.58.58,0,0,0-.25.14C41.55,28,41.43,28.09,41.61,28.19Z"/><path class="cls-4" d="M38.9,29.51c.29-.21,0-.33-.22-.29h0c-.13,0-.46.14-.37.32S38.79,29.6,38.9,29.51Z"/><path class="cls-4" d="M37.68,30.9c.11-.13.44-.67.06-.7a.27.27,0,0,0-.2.11,1,1,0,0,0-.38.53C37,31.34,37.49,31.11,37.68,30.9Z"/><path class="cls-4" d="M39.73,31.05a.74.74,0,0,0-.5,0c-.29.08-.62.3-.67.51-.12.52.79.15,1,.08S40.15,31.21,39.73,31.05Z"/><path class="cls-4" d="M41.25,31.46c-.14.05-.3.17-.3.29s.53.17.67.11C42.18,31.59,41.45,31.34,41.25,31.46Z"/><path class="cls-4" d="M44.84,28.57a.26.26,0,0,0-.25.11.68.68,0,0,0,1,0A.59.59,0,0,0,44.84,28.57Z"/><path class="cls-4" d="M43.36,29.92c.32.11,1.17.16,1.23-.28a.75.75,0,0,0-.68-.08C43.65,29.55,43.37,29.64,43.36,29.92Z"/><path class="cls-4" d="M44,27.62a.46.46,0,0,0-.63-.07.32.32,0,0,0-.15.19A.62.62,0,0,0,44,27.62Z"/><path class="cls-4" d="M46.29,29.45c-.63,0,.18.8.53.55S46.54,29.28,46.29,29.45Z"/><path class="cls-4" d="M37.36,32c-.2-.16-.36,0-.47.18-.42.27-.93.9-.53,1.06S37.34,32.38,37.36,32Z"/><path class="cls-4" d="M36.2,31.21c-.54.11-.28,1,.23.39C36.75,31.22,36.42,31.1,36.2,31.21Z"/><path class="cls-4" d="M39.28,32.86a.29.29,0,0,0-.2.25c.2.15.74.16.87-.11S39.45,32.55,39.28,32.86Z"/><path class="cls-4" d="M44.07,31.39l0-.05a.61.61,0,0,0,0,.11c0,.05,0,.1,0,.12.11.29.73.3.61-.07S44.21,31.24,44.07,31.39Z"/><path class="cls-4" d="M49.63,30.6c-.37-.5-1.12,0-.65.16C49.26,31,50,31.09,49.63,30.6Z"/><path class="cls-4" d="M36.68,35.39l.07-.13a.93.93,0,0,0-.4.63c.22.06.85-.37.84-.65S36.86,35.12,36.68,35.39Z"/><path class="cls-4" d="M42.35,34a.16.16,0,0,0,.21.05c.27,0,.75,0,.54-.32S42.43,33.75,42.35,34Z"/><path class="cls-4" d="M34.52,33.69a.54.54,0,0,0,0,.22c.32.11,1.14,0,.87-.51S34.61,33.32,34.52,33.69Z"/><path class="cls-4" d="M35.63,32.33h0a.27.27,0,0,0-.33.27.39.39,0,0,0,.55-.22A.39.39,0,0,0,35.63,32.33Z"/><path class="cls-5" d="M36.68,43.65c-1.17.86,4.81,5.19,8.69,5a11.44,11.44,0,0,0,9.41-6c1-2.15.66-8.23-.62-7.81-.46.15.1,2.22-1.78,5.34C50.72,43,47.9,45.69,44.16,45.5,39.05,45.25,37.46,43.08,36.68,43.65Z"/><path class="cls-6" d="M49.51,28.59a.55.55,0,0,0-.49.84c.32.8,2.27,2.09,2.83,1.88s.59-.87-.23-1.5A4.76,4.76,0,0,0,49.51,28.59Z"/><path class="cls-6" d="M50.52,29.66s2.26-2.34,2.9-3.22a40.43,40.43,0,0,0,2.15-4.22s.2-.3.47-.25.2.47.2.47S54.66,25.67,54,26.55c-1.29,1.81-3,3.78-3,3.78Z"/><path class="cls-6" d="M54.46,25.25l-3.73-.47L50.6,25l1.85.3,1.85.3Z"/><path class="cls-6" d="M46.69,29.46c-3.85,1-9.55-1.77-9.55-1.77s3.8-4.43,7.07-4.77,8.93,2.27,8.93,2.27A13.56,13.56,0,0,1,46.69,29.46Z"/><path class="cls-7" d="M49.54,28.83a.81.81,0,0,0-.09.79,4.09,4.09,0,0,0,1.4,1.11l.09-.7s-.3-.21-.33-.38a.39.39,0,0,1,0-.27Z"/><path class="cls-7" d="M51.88,25.29a29.77,29.77,0,0,0-6.46.06c-3,.43-7.52,1.86-7.46,2.07s4.94-1.64,7.36-1.8,6.74,0,6.74,0Z"/><path class="cls-7" d="M50.36,25.4a3.28,3.28,0,0,1-.63,1.17,8.7,8.7,0,0,0-1.08,1.69,10.44,10.44,0,0,0,1.25-1.57c.36-.53.82-1.27.82-1.27Z"/><path class="cls-7" d="M47.36,25.42a5.29,5.29,0,0,1-.66,1.91c-.66,1.36-.93,1.76-.76,1.79s.66-1,1-1.74.85-2,.85-2Z"/><path class="cls-7" d="M44.45,25.69a4,4,0,0,1-.23,1.43c-.3,1-.66,1.57-.53,1.64s.49-.87.69-1.59.5-1.63.5-1.63Z"/><path class="cls-7" d="M41.31,26.44a2.13,2.13,0,0,1-.16.84c-.18.51-.47,1-.38,1a1.93,1.93,0,0,0,.53-.92l.28-1Z"/><path class="cls-7" d="M50.72,25.32a4.32,4.32,0,0,0-1.14-1.09,3.44,3.44,0,0,0-1.45-.59c-.08.07.83.32,1.15.53a12.23,12.23,0,0,1,1.18,1.14Z"/><path class="cls-7" d="M47.63,25.23A2.81,2.81,0,0,0,46.71,24a4.57,4.57,0,0,0-2.05-.8c-.2.06,1.5.49,1.88.87a4.1,4.1,0,0,1,.69,1.2Z"/><path class="cls-7" d="M44.88,25.54a6.75,6.75,0,0,0-1.39-1.09A5.58,5.58,0,0,0,41.83,24c-.19,0,1.28.33,1.69.62a9.06,9.06,0,0,1,1,1Z"/><path class="cls-7" d="M41.31,26.35s-.05-.24-.74-.5-1.06-.43-.91-.43a4.31,4.31,0,0,1,.91.24,5.46,5.46,0,0,1,1.07.61Z"/><path class="cls-3" d="M25.75,45.58c-3,2.2-6.91,9.14-2.29,14.85s11.37,6.06,16.46,2.7A11.48,11.48,0,0,0,41.35,45C36.2,40.1,30.25,42.27,25.75,45.58Z"/><path class="cls-4" d="M38.24,44.77h0Z"/><path class="cls-4" d="M37.54,45.49c-.35-.17-.74-.53-.41-.85s.78,0,1.09.12C38.66,45.16,38.48,45.94,37.54,45.49Z"/><path class="cls-4" d="M38.22,44.76l-.53-.21A.82.82,0,0,1,38.22,44.76Z"/><path class="cls-4" d="M39.17,46.29c-.13-.1-.31-.3-.13-.44a.22.22,0,0,1,.33.07.44.44,0,0,1,.22.29C39.62,46.5,39.31,46.39,39.17,46.29Z"/><path class="cls-4" d="M36.89,46.11a.35.35,0,0,1,.33,0c.15,0,.35.08.38.21a.28.28,0,0,1,0,.08l0,0,0,0c0,.14-.39,0-.51,0S36.62,46.26,36.89,46.11Z"/><path class="cls-4" d="M37.65,46.44l0,0Z"/><path class="cls-4" d="M36.16,45.33c.15,0,.32.21.23.36s-.44.09-.57,0C35.32,45.43,36,45.22,36.16,45.33Z"/><path class="cls-4" d="M35.53,44.4c.1,0,.29-.06.37,0a.14.14,0,0,1,0,.18c0,.1-.18.2-.25.23s-.91.33-1,.07S35.34,44.43,35.53,44.4Z"/><path class="cls-4" d="M36.36,43.88c-.16.09-.72.07-.77-.16s.3-.28.45-.26a.77.77,0,0,1,.24.14C36.43,43.67,36.54,43.79,36.36,43.88Z"/><path class="cls-4" d="M39.08,45.21c-.3-.22,0-.34.22-.3h0c.13,0,.46.14.37.33S39.19,45.29,39.08,45.21Z"/><path class="cls-4" d="M40.29,46.59c-.1-.12-.44-.67,0-.69a.3.3,0,0,1,.19.1,1.15,1.15,0,0,1,.39.53C41,47,40.48,46.81,40.29,46.59Z"/><path class="cls-4" d="M38.25,46.74a.8.8,0,0,1,.5,0,1,1,0,0,1,.66.52c.13.52-.78.15-1,.08S37.82,46.9,38.25,46.74Z"/><path class="cls-4" d="M36.72,47.15c.15.05.3.17.3.29s-.52.18-.67.11C35.79,47.29,36.52,47,36.72,47.15Z"/><path class="cls-4" d="M33.13,44.27a.25.25,0,0,1,.25.1.69.69,0,0,1-1,0A.57.57,0,0,1,33.13,44.27Z"/><path class="cls-4" d="M34.61,45.61c-.31.11-1.16.17-1.23-.27a.73.73,0,0,1,.68-.09C34.33,45.24,34.61,45.33,34.61,45.61Z"/><path class="cls-4" d="M34,43.31a.44.44,0,0,1,.62-.06.28.28,0,0,1,.15.18A.59.59,0,0,1,34,43.31Z"/><path class="cls-4" d="M31.69,45.14c.62,0-.18.81-.53.55S31.44,45,31.69,45.14Z"/><path class="cls-4" d="M40.62,47.73c.19-.15.36,0,.47.18.42.27.92.91.52,1.06S40.63,48.08,40.62,47.73Z"/><path class="cls-4" d="M41.77,46.91c.54.1.29,1-.23.39C41.22,46.91,41.55,46.79,41.77,46.91Z"/><path class="cls-4" d="M38.7,48.56a.3.3,0,0,1,.2.25c-.21.14-.74.15-.88-.11S38.52,48.25,38.7,48.56Z"/><path class="cls-4" d="M33.91,47.08l0,0a.23.23,0,0,1,0,.11c0,.05,0,.1,0,.11-.11.3-.73.31-.61-.06S33.76,46.94,33.91,47.08Z"/><path class="cls-4" d="M28.35,46.3c.36-.51,1.12,0,.64.15C28.71,46.66,28,46.79,28.35,46.3Z"/><path class="cls-4" d="M41.3,51.08,41.22,51a.9.9,0,0,1,.4.64c-.21,0-.85-.37-.83-.65S41.11,50.81,41.3,51.08Z"/><path class="cls-4" d="M35.62,49.67a.16.16,0,0,1-.21,0c-.26,0-.74,0-.54-.32S35.55,49.45,35.62,49.67Z"/><path class="cls-4" d="M43.46,49.39a.4.4,0,0,1,0,.22c-.32.11-1.13,0-.87-.51S43.36,49,43.46,49.39Z"/><path class="cls-4" d="M42.34,48h0a.27.27,0,0,1,.33.26.4.4,0,0,1-.56-.21A.34.34,0,0,1,42.34,48Z"/><path class="cls-5" d="M41.29,59.34c1.17.86-4.8,5.2-8.69,5a11.45,11.45,0,0,1-9.4-6c-1-2.14-.67-8.23.62-7.81.45.16-.11,2.22,1.78,5.35,1.65,2.74,4.47,5.45,8.21,5.27C38.93,60.94,40.51,58.78,41.29,59.34Z"/><path class="cls-6" d="M28.47,44.29a.54.54,0,0,1,.49.83c-.33.8-2.28,2.1-2.84,1.88s-.58-.87.24-1.49A4.57,4.57,0,0,1,28.47,44.29Z"/><path class="cls-6" d="M27.45,45.36s-2.26-2.34-2.9-3.22a39.83,39.83,0,0,1-2.14-4.23s-.2-.3-.48-.24-.19.46-.19.46,1.57,3.23,2.21,4.12c1.3,1.81,3,3.77,3,3.77Z"/><path class="cls-6" d="M23.51,41c.14,0,3.73-.47,3.73-.47l.14.21-1.85.3-1.86.31Z"/><path class="cls-6" d="M31.28,45.15c3.86,1,9.55-1.77,9.55-1.77S37,39,33.77,38.62s-8.93,2.27-8.93,2.27A13.44,13.44,0,0,0,31.28,45.15Z"/><path class="cls-7" d="M28.44,44.52a.8.8,0,0,1,.08.79,4.16,4.16,0,0,1-1.4,1.12L27,45.72s.3-.2.33-.38a.41.41,0,0,0,0-.27Z"/><path class="cls-7" d="M26.1,41a30.48,30.48,0,0,1,6.46.06c3,.44,7.51,1.87,7.46,2.07s-5-1.64-7.37-1.8-6.73,0-6.73,0Z"/><path class="cls-7" d="M27.61,41.09a3.61,3.61,0,0,0,.63,1.18A7.52,7.52,0,0,1,29.32,44a10.55,10.55,0,0,1-1.25-1.57c-.35-.52-.81-1.26-.81-1.26Z"/><path class="cls-7" d="M30.61,41.12A5.29,5.29,0,0,0,31.27,43c.66,1.36.93,1.75.77,1.78s-.66-1-1-1.74-.85-2-.85-2Z"/><path class="cls-7" d="M33.53,41.39a3.63,3.63,0,0,0,.23,1.42c.29,1,.66,1.57.52,1.64s-.48-.86-.68-1.59-.5-1.62-.5-1.62Z"/><path class="cls-7" d="M36.66,42.13a2.39,2.39,0,0,0,.16.84c.19.52.48,1,.39,1a1.74,1.74,0,0,1-.54-.92c-.13-.46-.27-1-.27-1Z"/><path class="cls-7" d="M27.26,41a4.25,4.25,0,0,1,1.13-1.08,3.48,3.48,0,0,1,1.46-.6c.07.07-.83.33-1.15.54A12.62,12.62,0,0,0,27.51,41Z"/><path class="cls-7" d="M30.34,40.92a2.91,2.91,0,0,1,.92-1.23,4.68,4.68,0,0,1,2.06-.8c.19.07-1.5.5-1.88.87a4.1,4.1,0,0,0-.7,1.2Z"/><path class="cls-7" d="M33.1,41.24a6.6,6.6,0,0,1,1.38-1.09,5.66,5.66,0,0,1,1.66-.42c.2,0-1.27.32-1.69.61a8.84,8.84,0,0,0-1,1Z"/><path class="cls-7" d="M36.67,42.05s0-.25.73-.51,1.06-.42.92-.42a3.82,3.82,0,0,0-.91.23,6.29,6.29,0,0,0-1.08.61Z"/><path class="cls-3" d="M54.73,47.69c3,2.19,6.91,9.14,2.29,14.85s-11.37,6.05-16.46,2.69A11.48,11.48,0,0,1,39.13,47.1C44.27,42.2,50.23,44.37,54.73,47.69Z"/><path class="cls-4" d="M42.24,46.87h0Z"/><path class="cls-4" d="M42.94,47.59c.34-.17.74-.53.41-.84s-.78,0-1.1.12C41.82,47.27,42,48.05,42.94,47.59Z"/><path class="cls-4" d="M42.26,46.87l.53-.21A.8.8,0,0,0,42.26,46.87Z"/><path class="cls-4" d="M41.3,48.4c.13-.1.31-.3.14-.44a.23.23,0,0,0-.34.07.46.46,0,0,0-.21.29C40.86,48.61,41.17,48.5,41.3,48.4Z"/><path class="cls-4" d="M43.59,48.22a.3.3,0,0,0-.33,0c-.16,0-.35.08-.39.21s0,.06,0,.08l0,0,0,0c0,.15.38,0,.51,0S43.86,48.36,43.59,48.22Z"/><path class="cls-4" d="M42.82,48.55h0Z"/><path class="cls-4" d="M44.32,47.43c-.15,0-.32.21-.23.36s.44.09.56,0C45.16,47.53,44.51,47.32,44.32,47.43Z"/><path class="cls-4" d="M45,46.51c-.1,0-.29-.07-.37,0a.14.14,0,0,0,0,.17c0,.11.18.2.25.24s.92.32,1,.06S45.14,46.53,45,46.51Z"/><path class="cls-4" d="M44.12,46c.15.08.71.06.77-.16s-.3-.28-.45-.26a.55.55,0,0,0-.24.14C44.05,45.78,43.94,45.89,44.12,46Z"/><path class="cls-4" d="M41.4,47.31c.29-.21,0-.33-.22-.29h0c-.13,0-.46.14-.38.32S41.29,47.4,41.4,47.31Z"/><path class="cls-4" d="M40.18,48.7c.11-.13.44-.67.06-.69a.23.23,0,0,0-.2.1,1.12,1.12,0,0,0-.38.53C39.51,49.14,40,48.91,40.18,48.7Z"/><path class="cls-4" d="M42.23,48.85a.74.74,0,0,0-.5,0c-.28.08-.62.31-.67.52-.12.51.79.14,1,.07S42.66,49,42.23,48.85Z"/><path class="cls-4" d="M43.76,49.26c-.15.05-.3.17-.3.29s.52.17.67.11C44.69,49.39,44,49.14,43.76,49.26Z"/><path class="cls-4" d="M47.34,46.37a.27.27,0,0,0-.25.11.69.69,0,0,0,1,0A.61.61,0,0,0,47.34,46.37Z"/><path class="cls-4" d="M45.87,47.72c.31.11,1.16.16,1.23-.28a.75.75,0,0,0-.68-.08C46.15,47.35,45.87,47.44,45.87,47.72Z"/><path class="cls-4" d="M46.48,45.42a.45.45,0,0,0-.62-.07.32.32,0,0,0-.15.19A.61.61,0,0,0,46.48,45.42Z"/><path class="cls-4" d="M48.79,47.25c-.63,0,.18.8.53.55S49,47.08,48.79,47.25Z"/><path class="cls-4" d="M39.86,49.84c-.2-.16-.36,0-.47.18-.42.27-.92.9-.52,1.06S39.85,50.18,39.86,49.84Z"/><path class="cls-4" d="M38.71,49c-.54.11-.29,1,.23.39C39.26,49,38.93,48.9,38.71,49Z"/><path class="cls-4" d="M41.78,50.66a.29.29,0,0,0-.2.25c.2.15.74.16.87-.11S42,50.35,41.78,50.66Z"/><path class="cls-4" d="M46.57,49.19l0,0a.52.52,0,0,0,0,.11s0,.1,0,.12c.12.29.74.3.62-.07S46.72,49,46.57,49.19Z"/><path class="cls-4" d="M52.13,48.4c-.37-.5-1.12,0-.65.16C51.76,48.76,52.49,48.89,52.13,48.4Z"/><path class="cls-4" d="M39.18,53.19l.08-.13a.87.87,0,0,0-.4.63c.21.06.85-.37.83-.65S39.37,52.92,39.18,53.19Z"/><path class="cls-4" d="M44.86,51.77c.08.09.14.09.21,0,.26,0,.74,0,.54-.31S44.93,51.55,44.86,51.77Z"/><path class="cls-4" d="M37,51.49a.41.41,0,0,0,0,.22c.32.11,1.13,0,.86-.51S37.11,51.12,37,51.49Z"/><path class="cls-4" d="M38.13,50.13h0a.27.27,0,0,0-.33.27.4.4,0,0,0,.56-.22A.43.43,0,0,0,38.13,50.13Z"/><path class="cls-5" d="M39.19,61.45c-1.18.86,4.8,5.19,8.69,5a11.44,11.44,0,0,0,9.4-6c1-2.15.67-8.23-.62-7.81-.46.15.11,2.22-1.78,5.34-1.65,2.75-4.47,5.46-8.21,5.27C41.55,63.05,40,60.88,39.19,61.45Z"/><path class="cls-6" d="M52,46.39a.55.55,0,0,0-.49.84c.33.8,2.27,2.1,2.83,1.88s.59-.87-.23-1.5A4.76,4.76,0,0,0,52,46.39Z"/><path class="cls-6" d="M53,47.46s2.26-2.34,2.91-3.22A42,42,0,0,0,58.07,40s.2-.3.47-.25.2.47.2.47-1.57,3.23-2.21,4.12c-1.3,1.8-3,3.77-3,3.77Z"/><path class="cls-6" d="M57,43.05l-3.74-.47-.13.22,1.85.3,1.85.3Z"/><path class="cls-6" d="M49.19,47.26c-3.85,1-9.55-1.77-9.55-1.77s3.81-4.43,7.07-4.77S55.64,43,55.64,43A13.5,13.5,0,0,1,49.19,47.26Z"/><path class="cls-7" d="M52,46.63a.8.8,0,0,0-.08.79,4,4,0,0,0,1.4,1.11l.09-.7s-.3-.21-.33-.38a.39.39,0,0,1,0-.27Z"/><path class="cls-7" d="M54.38,43.09a30.48,30.48,0,0,0-6.46.06c-3,.43-7.52,1.86-7.46,2.07s4.94-1.64,7.36-1.8,6.74,0,6.74,0Z"/><path class="cls-7" d="M52.86,43.2a3.34,3.34,0,0,1-.62,1.17,8.47,8.47,0,0,0-1.09,1.69,10.43,10.43,0,0,0,1.26-1.57c.35-.53.81-1.27.81-1.27Z"/><path class="cls-7" d="M49.87,43.22a5.29,5.29,0,0,1-.66,1.91c-.67,1.36-.93,1.76-.77,1.79s.66-1,1-1.74.85-2,.85-2Z"/><path class="cls-7" d="M47,43.5a3.65,3.65,0,0,1-.23,1.42c-.3,1-.66,1.57-.52,1.64s.48-.87.68-1.59.5-1.63.5-1.63Z"/><path class="cls-7" d="M43.81,44.24a2.21,2.21,0,0,1-.15.84c-.19.51-.48,1-.39,1a1.93,1.93,0,0,0,.53-.92l.28-1Z"/><path class="cls-7" d="M53.22,43.12A4.38,4.38,0,0,0,52.09,42a3.46,3.46,0,0,0-1.46-.59c-.08.07.83.32,1.15.53A12.62,12.62,0,0,1,53,43.11Z"/><path class="cls-7" d="M50.14,43a2.91,2.91,0,0,0-.92-1.23,4.6,4.6,0,0,0-2.06-.8c-.19.06,1.5.49,1.88.87a4.22,4.22,0,0,1,.7,1.2Z"/><path class="cls-7" d="M47.38,43.34A6.6,6.6,0,0,0,46,42.25a5.66,5.66,0,0,0-1.66-.42c-.2,0,1.27.33,1.68.62a9.48,9.48,0,0,1,1,1Z"/><path class="cls-7" d="M43.81,44.15s-.05-.24-.73-.5-1.07-.43-.92-.43a4.88,4.88,0,0,1,.91.24,5.46,5.46,0,0,1,1.07.61Z"/><path class="cls-3" d="M8.51,47.33c-3,2.2-6.91,9.14-2.29,14.85s11.37,6.06,16.47,2.7a11.47,11.47,0,0,0,1.42-18.13C19,41.85,13,44,8.51,47.33Z"/><path class="cls-4" d="M21,46.52h0Z"/><path class="cls-4" d="M20.31,47.24c-.35-.17-.75-.53-.42-.85s.78,0,1.1.12C21.42,46.91,21.24,47.69,20.31,47.24Z"/><path class="cls-4" d="M21,46.51l-.53-.21A.78.78,0,0,1,21,46.51Z"/><path class="cls-4" d="M21.94,48c-.13-.1-.31-.3-.14-.44a.23.23,0,0,1,.34.07.43.43,0,0,1,.21.29C22.38,48.25,22.08,48.14,21.94,48Z"/><path class="cls-4" d="M19.65,47.86a.35.35,0,0,1,.33,0c.16,0,.35.08.39.21a.11.11,0,0,1,0,.08l.05,0-.05,0c0,.14-.38,0-.51,0S19.39,48,19.65,47.86Z"/><path class="cls-4" d="M20.42,48.19l0,0Z"/><path class="cls-4" d="M18.92,47.08c.15,0,.32.21.23.36s-.44.09-.56,0C18.09,47.18,18.73,47,18.92,47.08Z"/><path class="cls-4" d="M18.29,46.15c.11,0,.29-.06.37,0a.15.15,0,0,1,0,.18c0,.1-.18.2-.25.23s-.92.33-1,.07S18.11,46.18,18.29,46.15Z"/><path class="cls-4" d="M19.12,45.63c-.15.09-.71.07-.77-.16s.31-.28.45-.26a.6.6,0,0,1,.24.14C19.19,45.42,19.3,45.54,19.12,45.63Z"/><path class="cls-4" d="M21.84,47c-.29-.22,0-.34.22-.3h0c.14,0,.47.14.38.33S22,47,21.84,47Z"/><path class="cls-4" d="M23.06,48.34c-.11-.12-.44-.67-.06-.69a.3.3,0,0,1,.2.1,1.06,1.06,0,0,1,.38.53C23.73,48.79,23.25,48.56,23.06,48.34Z"/><path class="cls-4" d="M21,48.49a.8.8,0,0,1,.5,0,1,1,0,0,1,.67.52c.12.52-.79.15-1,.08S20.59,48.65,21,48.49Z"/><path class="cls-4" d="M19.48,48.9c.15.05.31.17.3.29s-.52.18-.67.11C18.55,49,19.29,48.79,19.48,48.9Z"/><path class="cls-4" d="M15.9,46a.25.25,0,0,1,.25.1.7.7,0,0,1-1,0A.59.59,0,0,1,15.9,46Z"/><path class="cls-4" d="M17.38,47.36c-.32.11-1.17.17-1.24-.27a.75.75,0,0,1,.69-.09C17.09,47,17.37,47.08,17.38,47.36Z"/><path class="cls-4" d="M16.76,45.06a.44.44,0,0,1,.62-.06.25.25,0,0,1,.15.18A.59.59,0,0,1,16.76,45.06Z"/><path class="cls-4" d="M14.45,46.89c.63,0-.18.81-.53.55S14.2,46.73,14.45,46.89Z"/><path class="cls-4" d="M23.38,49.48c.2-.15.36,0,.47.18.42.27.93.91.52,1.06S23.39,49.83,23.38,49.48Z"/><path class="cls-4" d="M24.54,48.66c.54.1.28,1-.23.39C24,48.66,24.31,48.54,24.54,48.66Z"/><path class="cls-4" d="M21.46,50.31a.28.28,0,0,1,.2.25c-.2.14-.74.15-.87-.11S21.28,50,21.46,50.31Z"/><path class="cls-4" d="M16.67,48.83l0,0a.43.43,0,0,1,0,.11c0,.05,0,.1,0,.11-.11.3-.73.31-.62-.06S16.52,48.69,16.67,48.83Z"/><path class="cls-4" d="M11.11,48.05c.37-.51,1.12,0,.65.15C11.48,48.41,10.75,48.54,11.11,48.05Z"/><path class="cls-4" d="M24.06,52.83,24,52.7a.93.93,0,0,1,.4.64c-.22,0-.85-.37-.84-.65S23.87,52.56,24.06,52.83Z"/><path class="cls-4" d="M18.39,51.42a.17.17,0,0,1-.22,0c-.26,0-.74,0-.53-.32S18.31,51.2,18.39,51.42Z"/><path class="cls-4" d="M26.22,51.14a.4.4,0,0,1,0,.22c-.32.11-1.13,0-.86-.51S26.13,50.76,26.22,51.14Z"/><path class="cls-4" d="M25.11,49.78h0a.27.27,0,0,1,.33.26.39.39,0,0,1-.55-.21A.33.33,0,0,1,25.11,49.78Z"/><path class="cls-5" d="M24.05,61.09c1.18.86-4.8,5.2-8.68,5a11.45,11.45,0,0,1-9.41-6c-1-2.14-.66-8.23.62-7.81.46.16-.1,2.22,1.78,5.35C10,60.42,12.84,63.13,16.57,63,21.69,62.69,23.28,60.53,24.05,61.09Z"/><path class="cls-6" d="M11.23,46a.54.54,0,0,1,.49.83c-.32.8-2.27,2.1-2.83,1.88s-.59-.87.23-1.49A4.66,4.66,0,0,1,11.23,46Z"/><path class="cls-6" d="M10.22,47.11S8,44.77,7.31,43.89a41.89,41.89,0,0,1-2.14-4.23s-.2-.3-.47-.24-.2.46-.2.46S6.08,43.11,6.71,44c1.3,1.81,3,3.77,3,3.77Z"/><path class="cls-6" d="M6.28,42.7c.13,0,3.73-.47,3.73-.47l.13.21-1.85.3-1.85.31Z"/><path class="cls-6" d="M14.05,46.9c3.85,1,9.55-1.77,9.55-1.77s-3.81-4.43-7.07-4.76S7.6,42.64,7.6,42.64A13.44,13.44,0,0,0,14.05,46.9Z"/><path class="cls-7" d="M11.2,46.27a.82.82,0,0,1,.09.79,4.16,4.16,0,0,1-1.4,1.12l-.1-.71s.3-.2.33-.38a.35.35,0,0,0,0-.27Z"/><path class="cls-7" d="M8.86,42.73a30.48,30.48,0,0,1,6.46.06c3,.44,7.52,1.87,7.46,2.07s-4.94-1.64-7.36-1.8-6.74,0-6.74,0Z"/><path class="cls-7" d="M10.38,42.84A3.41,3.41,0,0,0,11,44a8.25,8.25,0,0,1,1.09,1.68,9.93,9.93,0,0,1-1.25-1.57c-.36-.52-.82-1.26-.82-1.26Z"/><path class="cls-7" d="M13.38,42.87A5,5,0,0,0,14,44.78c.66,1.36.92,1.75.76,1.78s-.66-1-1-1.74-.85-2-.85-2Z"/><path class="cls-7" d="M16.29,43.14a3.63,3.63,0,0,0,.23,1.42c.3,1,.66,1.57.52,1.64s-.48-.86-.68-1.59-.5-1.62-.5-1.62Z"/><path class="cls-7" d="M19.43,43.88a2.13,2.13,0,0,0,.16.84c.18.52.47,1,.38,1a1.82,1.82,0,0,1-.53-.92l-.28-1Z"/><path class="cls-7" d="M10,42.76a4.25,4.25,0,0,1,1.13-1.08,3.53,3.53,0,0,1,1.46-.6c.08.07-.83.33-1.15.54a12.23,12.23,0,0,0-1.18,1.14Z"/><path class="cls-7" d="M13.1,42.67A2.91,2.91,0,0,1,14,41.44a4.73,4.73,0,0,1,2.06-.8c.2.07-1.5.5-1.88.87a4.23,4.23,0,0,0-.69,1.2Z"/><path class="cls-7" d="M15.86,43a6.75,6.75,0,0,1,1.39-1.09,5.51,5.51,0,0,1,1.66-.42c.19,0-1.28.32-1.69.61a9.24,9.24,0,0,0-1,1Z"/><path class="cls-7" d="M19.43,43.79s.05-.24.73-.5,1.07-.42.92-.42a3.94,3.94,0,0,0-.91.23,6.06,6.06,0,0,0-1.07.61Z"/><path class="cls-8" d="M8.58,64.8c1.21,4.8,4.31,16.83,6.17,21.38,2.36,5.73,1.26,8.24,9,9,6.68.67,20.45.36,26.27.21,5.82.15,19.6.46,26.28-.21,7.78-.79,6.68-3.3,9-9,1.87-4.55,5.22-18.45,6.42-23.25Z"/><path class="cls-9" d="M94.06,60.58c-.63-2.28-4.19-1.78-5.9-1.7-.58,0-1.17,0-1.75,0-2.93.06-5.85.09-8.77.13-3.31,0-42.61.84-45.88,1L22,60.33c-2.87.1-5.73.2-8.6.28-.57,0-1.15,0-1.72,0-1.68,0-5.2-.33-5.71,1.93A2.32,2.32,0,0,0,7.72,65.4a14.82,14.82,0,0,0,3.39-.1C14.38,65.1,17.67,65,21,65l9.94-.24L41,64.5c1.23,0,7.54-.08,9.09-.11l8.48-.21,10.28-.26L79,63.7c3.34-.08,6.69-.18,10-.12a15.22,15.22,0,0,0,3.44-.06A2.37,2.37,0,0,0,94.06,60.58Z"/><path class="cls-10" d="M13.09,65.15c-.84-.13-1.05-1.36-1.12-2A4.39,4.39,0,0,1,12.43,61a0,0,0,0,0-.07,0,3.25,3.25,0,0,0-.53,2.72,4,4,0,0,0,.17.63A2.62,2.62,0,0,1,12,61a.06.06,0,0,0-.09-.07,2.88,2.88,0,0,0,.52,4.14h.06a.79.79,0,0,0,.6.25C13.19,65.33,13.18,65.16,13.09,65.15Z"/><path class="cls-10" d="M13.22,65a3.39,3.39,0,0,1-.1-4,.06.06,0,0,0-.09-.08,3.08,3.08,0,0,0-.79,2.07,2.88,2.88,0,0,0,.87,2.15C13.18,65.11,13.27,65,13.22,65Z"/><path class="cls-10" d="M23.13,65a5.29,5.29,0,0,1-.8-4.76.06.06,0,1,0-.11-.05c-.69,1.46-.73,4,.77,5A.1.1,0,0,0,23.13,65Z"/><path class="cls-10" d="M24,65a5.25,5.25,0,0,1-.77-4.67s-.06-.08-.08,0a4,4,0,0,0-.39,2.44c0,.15.06.32.09.49-.07-.15-.15-.31-.21-.47a3.71,3.71,0,0,1,.11-2.46.07.07,0,0,0-.12,0c-.63,1.38-.63,3.39.7,4.4l.05,0a1.93,1.93,0,0,0,.45.49C23.9,65.23,24.05,65.1,24,65Z"/><path class="cls-10" d="M36.33,64.51a6.78,6.78,0,0,1-.93-2.28,4.29,4.29,0,0,1,.21-1.95c0-.13.2-.35.17-.51a.07.07,0,0,0-.07-.06c-.52.1-.71,1.65-.7,2.06a3.32,3.32,0,0,0,1.22,2.83C36.28,64.63,36.37,64.58,36.33,64.51Z"/><path class="cls-10" d="M37.38,64.48c-.85-1.33-1.58-3-1-4.6,0-.08-.07-.11-.11-.05-.72,1.3-.48,4,.95,4.8C37.36,64.69,37.43,64.55,37.38,64.48Z"/><path class="cls-10" d="M51,61.4c-.09-.65,0-1.25,0-1.88,0-.09-.11-.09-.14,0a4.27,4.27,0,0,0,.55,4,.07.07,0,0,0,.11-.07A11.35,11.35,0,0,1,51,61.4Z"/><path class="cls-10" d="M50.94,64.28a8.93,8.93,0,0,1-.86-4.71c0-.1-.12-.11-.14,0a6,6,0,0,0,0,2.6,4.9,4.9,0,0,0,.79,2.25A.12.12,0,0,0,50.94,64.28Z"/><path class="cls-10" d="M50.51,64.47a9.68,9.68,0,0,1-.81-2.28,12,12,0,0,1,0-2.54.08.08,0,1,0-.15,0c-.29,1.51-.52,3.85.77,5C50.4,64.73,50.57,64.59,50.51,64.47Z"/><path class="cls-10" d="M59.51,60.57c0-.34.07-1.15-.16-1.41,0,0-.09,0-.09,0a6.74,6.74,0,0,0,.43,3.67c0,.06.13,0,.12,0C59.72,62.07,59.57,61.33,59.51,60.57Z"/><path class="cls-10" d="M60.51,61.52c0-.78.05-1.56,0-2.33a.08.08,0,0,0-.16,0A9.28,9.28,0,0,0,60.65,64c0,.06.11,0,.1,0C60.7,63.18,60.56,62.35,60.51,61.52Z"/><path class="cls-10" d="M59.92,61.32c-.06-.65,0-1.31,0-2,0-.08-.13-.07-.15,0a6.23,6.23,0,0,0,.44,4.15s.1,0,.09,0A13,13,0,0,1,59.92,61.32Z"/><path class="cls-10" d="M68.36,61.46a15.62,15.62,0,0,0,0-2.37c0-.09-.16-.1-.17,0-.13,1.51-.5,3.72.56,5a.12.12,0,0,0,.2-.12A10.29,10.29,0,0,1,68.36,61.46Z"/><path class="cls-10" d="M69.13,61.69c-.07-.84.09-1.65.08-2.48,0-.11-.15-.09-.17,0-.33,1.37-.73,3.79.43,4.91.07.07.22,0,.2-.12A12.93,12.93,0,0,1,69.13,61.69Z"/><path class="cls-10" d="M81.2,61.71c0-.87-.21-2.4-1-2.94a.06.06,0,0,0-.09.07,9.11,9.11,0,0,1,.62,2.62c.08.74-.28,1.53-.17,2.22,0,.07.1.14.17.1C81.33,63.45,81.21,62.28,81.2,61.71Z"/><path class="cls-10" d="M81.25,58.85a.1.1,0,0,0-.18.1,7,7,0,0,1,.38,4.49c0,.07.06.14.11.07A4.14,4.14,0,0,0,81.25,58.85Z"/><path class="cls-10" d="M91.55,60.55a2.78,2.78,0,0,0-.77-2c-.09-.07-.2,0-.14.14.87,1.32.61,3.21.42,4.67a.15.15,0,0,0,.29.08A7.09,7.09,0,0,0,91.55,60.55Z"/><path class="cls-10" d="M90.44,58.58a.09.09,0,0,0-.16.09A12.12,12.12,0,0,1,90.74,60a10.43,10.43,0,0,1,.12,1.48.15.15,0,0,0,.3,0A3.81,3.81,0,0,0,90.44,58.58Z"/><path class="cls-11" d="M94.06,60.58a2,2,0,0,0-.71-1.07A2.09,2.09,0,0,1,92,60.62a15.46,15.46,0,0,1-3.4.05c-3.3-.05-6.61,0-9.91.12l-10,.22-10.15.25-8.37.2c-1.53,0-7.75.09-9,.11l-10,.22-9.8.23c-3.24.08-6.49.14-9.72.34a14.94,14.94,0,0,1-3.34.1,2.05,2.05,0,0,1-1.47-1.13A2,2,0,0,0,6,62.59,2.32,2.32,0,0,0,7.72,65.4a14.82,14.82,0,0,0,3.39-.1C14.38,65.1,17.67,65,21,65l9.94-.24L41,64.5c1.23,0,7.54-.08,9.09-.11l8.48-.21,10.28-.26L79,63.7c3.34-.08,6.69-.18,10-.12a15.22,15.22,0,0,0,3.44-.06A2.37,2.37,0,0,0,94.06,60.58Z"/><path class="cls-11" d="M81.11,62.75,70.24,63l-11,.27-9.11.22c-1.67,0-8.44.1-9.77.12l-10.84.24-10.68.26c-3.52.09-7,.15-10.57.37-.57,0-1.16.11-1.75.15a2,2,0,0,0,1.25.77,14.82,14.82,0,0,0,3.39-.1C14.38,65.1,17.67,65,21,65l9.94-.24L41,64.5c1.23,0,7.54-.08,9.09-.11l8.48-.21,10.28-.26L79,63.7c3.34-.08,6.69-.18,10-.12a15.22,15.22,0,0,0,3.44-.06,2,2,0,0,0,1.22-.82c-.6,0-1.2-.07-1.78-.07C88.3,62.57,84.71,62.67,81.11,62.75Z"/><g class="cls-12"><path class="cls-13" d="M8.77,61.12a3.06,3.06,0,0,0-1.27.14.16.16,0,0,0,0,.32,4.19,4.19,0,0,0,.5,0,6.48,6.48,0,0,0,.77-.09A.17.17,0,0,0,8.77,61.12Z"/><path class="cls-13" d="M10.11,60.94a1.1,1.1,0,0,0-.54,0,.16.16,0,0,0,0,.31,1.1,1.1,0,0,0,.54,0A.16.16,0,0,0,10.11,60.94Z"/><path class="cls-13" d="M21.45,60.73a26.2,26.2,0,0,0-4.06,0,20.78,20.78,0,0,0-3.7.21.06.06,0,0,0,0,.11,18.28,18.28,0,0,0,3.47.07A35.87,35.87,0,0,0,21.44,61,.14.14,0,0,0,21.45,60.73Z"/><path class="cls-13" d="M33.56,60.54a21.18,21.18,0,0,0-4.21.05c-1.69,0-3.36,0-5,.15-.07,0-.07.12,0,.13,1.56.09,3.14.17,4.71.19a21.5,21.5,0,0,0,4.54-.18A.17.17,0,0,0,33.56,60.54Z"/><path class="cls-13" d="M48.84,60a37.69,37.69,0,0,0-5.52.06,32.49,32.49,0,0,0-5.41.3c-.08,0-.09.15,0,.15,1.72,0,3.4.1,5.12,0a46.88,46.88,0,0,0,5.81-.21A.18.18,0,0,0,48.84,60Z"/><path class="cls-13" d="M57.73,59.91a24.87,24.87,0,0,0-2.59,0c-.89,0-1.81.16-2.69.14a.07.07,0,0,0,0,.14,12.16,12.16,0,0,0,2.34.07,22.48,22.48,0,0,0,3,0A.15.15,0,0,0,57.73,59.91Z"/><path class="cls-13" d="M67.39,59.84c-1.85-.34-3.75.06-5.6,0-.07,0-.08.08,0,.1a14.53,14.53,0,0,0,2.8.14,13.89,13.89,0,0,0,2.81,0A.12.12,0,0,0,67.39,59.84Z"/><path class="cls-13" d="M78.09,59.67c-2.74-.3-5.49,0-8.24-.08-.18,0-.22.27,0,.29a23.73,23.73,0,0,0,3.77.13c1.5-.1,3,0,4.51-.15A.1.1,0,0,0,78.09,59.67Z"/><path class="cls-13" d="M80.08,59.62a1.63,1.63,0,0,0-1.15-.13c-.16,0-.18.29,0,.3a4.93,4.93,0,0,0,1.08.09C80.12,59.86,80.2,59.69,80.08,59.62Z"/><path class="cls-13" d="M89,59.18a30.18,30.18,0,0,0-6.23.16s-.05.08,0,.08a32.42,32.42,0,0,0,6.23,0A.11.11,0,0,0,89,59.18Z"/><path class="cls-13" d="M92.8,59.32a1.51,1.51,0,0,0-.93-.19c-.14,0-.13.22,0,.24.29,0,.55.14.84.16C92.82,59.53,92.91,59.39,92.8,59.32Z"/></g><path class="cls-10" d="M14,74.72a21.05,21.05,0,0,1-.83-3.09,23.13,23.13,0,0,1-.09-3c0-.12-.16-.1-.19,0a10.19,10.19,0,0,0,.8,6.22C13.73,75,14,74.91,14,74.72Z"/><path class="cls-10" d="M16.44,75.47a11.68,11.68,0,0,1-1.17-3,21.74,21.74,0,0,1-.18-3.13c0-.16-.27-.16-.29,0-.17,2.21-.18,4.53,1.35,6.32C16.27,75.77,16.53,75.64,16.44,75.47Z"/><path class="cls-10" d="M18.52,74.45a17.92,17.92,0,0,1-.84-2.6,16.78,16.78,0,0,1-.15-3,.14.14,0,0,0-.28,0,8.51,8.51,0,0,0,1,5.77C18.36,74.76,18.58,74.61,18.52,74.45Z"/><path class="cls-10" d="M18.7,89.34a17.89,17.89,0,0,1-1.26-5,.08.08,0,1,0-.15,0,10.77,10.77,0,0,0,1.21,5.07C18.57,89.57,18.76,89.46,18.7,89.34Z"/><path class="cls-10" d="M20.9,88.88a18,18,0,0,1-1-3.11,9.16,9.16,0,0,0-.46-2.34.12.12,0,0,0-.22.06c.16.87.22,1.77.37,2.65A9.71,9.71,0,0,0,20.62,89,.15.15,0,0,0,20.9,88.88Z"/><path class="cls-10" d="M23.3,89.41A17.36,17.36,0,0,1,22,83.9c0-.17-.31-.18-.32,0a11.2,11.2,0,0,0,1.24,5.66C23.06,89.77,23.4,89.64,23.3,89.41Z"/><path class="cls-10" d="M24.79,82.47a10.34,10.34,0,0,1-1.15-2.89,32.81,32.81,0,0,1-.44-3.43c0-.12-.21-.13-.22,0a10.09,10.09,0,0,0,1.53,6.48C24.62,82.78,24.88,82.63,24.79,82.47Z"/><path class="cls-10" d="M26.6,82.81a25.48,25.48,0,0,1-1-3.29c-.2-1-.26-2.1-.44-3.15a.12.12,0,0,0-.24,0c.26,2.3.37,4.41,1.46,6.5A.12.12,0,0,0,26.6,82.81Z"/><path class="cls-10" d="M28.79,81.63a29.18,29.18,0,0,1-1-4.09.11.11,0,0,0-.21,0,9.51,9.51,0,0,0,1,4.21A.15.15,0,0,0,28.79,81.63Z"/><path class="cls-10" d="M29,76.43a22.06,22.06,0,0,1-.67-2.54c-.15-1-.25-2.1-.38-3.14a.13.13,0,0,0-.26,0,15.07,15.07,0,0,0,1,5.73C28.75,76.65,29,76.6,29,76.43Z"/><path class="cls-10" d="M31.59,76.48a15.67,15.67,0,0,1-1.08-3.06A18.84,18.84,0,0,0,30,70.85a.09.09,0,0,0-.18.05c.37,2,.3,4,1.47,5.76A.18.18,0,0,0,31.59,76.48Z"/><path class="cls-10" d="M32.73,70.83a.07.07,0,0,0-.14,0,43.12,43.12,0,0,0,1,5.15c0,.14.28.08.25-.07C33.58,74.24,33.21,72.5,32.73,70.83Z"/><path class="cls-10" d="M43.1,80.25a.1.1,0,0,0-.19,0,11,11,0,0,0,.2,5.13c0,.18.36.1.32-.09A16.54,16.54,0,0,1,43.1,80.25Z"/><path class="cls-10" d="M44.85,80.47c0-.18-.32-.18-.33,0a15.61,15.61,0,0,0,.61,5.81.15.15,0,0,0,.29-.08A44,44,0,0,1,44.85,80.47Z"/><path class="cls-10" d="M48.85,85.54a22,22,0,0,1-1.15-5.68c0-.18-.27-.13-.27,0a12.79,12.79,0,0,0,1.11,5.77A.17.17,0,0,0,48.85,85.54Z"/><path class="cls-10" d="M50.24,74c0-.09-.17-.09-.17,0a26.94,26.94,0,0,0,.33,6.53.14.14,0,0,0,.28,0A64.3,64.3,0,0,1,50.24,74Z"/><path class="cls-10" d="M52.73,73.43c0-.15-.2-.17-.23,0a13.72,13.72,0,0,0-.09,6.34.14.14,0,0,0,.27,0A29.21,29.21,0,0,1,52.73,73.43Z"/><path class="cls-10" d="M55.11,76.33c-.08-1.16,0-2.33,0-3.48,0-.15-.23-.14-.25,0a13.55,13.55,0,0,0,.66,7.25A.15.15,0,0,0,55.8,80,35.76,35.76,0,0,1,55.11,76.33Z"/><path class="cls-10" d="M66.1,81c.1-1.17.39-2.34.56-3.51a.11.11,0,0,0-.22,0c-.58,2.45-1.19,4.82-.57,7.32a.2.2,0,0,0,.39-.05A17.25,17.25,0,0,1,66.1,81Z"/><path class="cls-10" d="M68.5,78.61a.14.14,0,0,0-.28,0A18.06,18.06,0,0,0,68,85.2a.15.15,0,0,0,.3,0A41,41,0,0,1,68.5,78.61Z"/><path class="cls-10" d="M71.46,80.7a26.8,26.8,0,0,0,.14-3.1c0-.13-.21-.1-.21,0,0,1.12-.29,2.26-.36,3.38a13.39,13.39,0,0,0,.15,3.35.16.16,0,0,0,.31,0C71.45,83.11,71.42,81.91,71.46,80.7Z"/><path class="cls-10" d="M81.44,77.91a16.32,16.32,0,0,0-.88,6.61.12.12,0,0,0,.24,0c.08-1.1.07-2.2.21-3.3s.54-2.18.6-3.27C81.61,77.86,81.47,77.81,81.44,77.91Z"/><path class="cls-10" d="M83.59,78.25c-.37,2.37-1,4.69-.74,7.12,0,.21.37.22.38,0a36.28,36.28,0,0,1,.2-3.76c.12-1.11.39-2.21.42-3.33A.13.13,0,0,0,83.59,78.25Z"/><path class="cls-10" d="M72.56,88.54c0-.78.16-1.56.18-2.34a.08.08,0,0,0-.15,0,6.36,6.36,0,0,0-.34,2.34,9.43,9.43,0,0,0,.23,2.75c0,.18.32.15.29,0A14,14,0,0,1,72.56,88.54Z"/><path class="cls-10" d="M74.89,86.39c0-.11-.14-.14-.19,0a8,8,0,0,0-.07,5.07.14.14,0,0,0,.27-.07A12.5,12.5,0,0,1,74.89,86.39Z"/><path class="cls-10" d="M77.39,86.46a.11.11,0,0,0-.22,0,17.2,17.2,0,0,0,.1,4.7.18.18,0,0,0,.35,0C77.44,89.57,77.59,88,77.39,86.46Z"/><path class="cls-10" d="M74.31,73.31c.07-1,.31-1.9.47-2.86a.08.08,0,0,0-.16,0c-.49,2.09-1,4.08-.29,6.2,0,.12.24.06.22-.06A13.75,13.75,0,0,1,74.31,73.31Z"/><path class="cls-10" d="M77.19,73.35c0-.88.18-1.75.18-2.64,0-.13-.23-.13-.23,0-.15,2.12-.67,4.16,0,6.26.05.19.34.1.32-.09A19.76,19.76,0,0,1,77.19,73.35Z"/><path class="cls-10" d="M80.3,70.81c0-.17-.26-.21-.27,0-.11,2.08-.76,4.14-.37,6.24A.15.15,0,0,0,80,77,60.43,60.43,0,0,1,80.3,70.81Z"/><path class="cls-10" d="M31.92,65.75a19.22,19.22,0,0,1-5.35.46c-.09,0-.1.12,0,.14A9.84,9.84,0,0,0,32,66.07C32.18,66,32.11,65.71,31.92,65.75Z"/><path class="cls-10" d="M32.72,67.6c-1.91.38-4.16,1-6.12.51-.07,0-.1.1,0,.13a6.28,6.28,0,0,0,2.66.33,9.64,9.64,0,0,0,3.57-.68C33,67.82,32.89,67.56,32.72,67.6Z"/><path class="cls-10" d="M26.3,70.58a13.61,13.61,0,0,1-5.05.1c-.07,0-.11.1,0,.13a7.29,7.29,0,0,0,5.16.09C26.55,70.82,26.49,70.54,26.3,70.58Z"/><path class="cls-10" d="M26.63,73.09a21.23,21.23,0,0,1-5.1.14c-.09,0-.13.13,0,.15a9.81,9.81,0,0,0,5.24.08C27,73.4,26.84,73.06,26.63,73.09Z"/><path class="cls-10" d="M26.45,75.31a17.74,17.74,0,0,1-4.77-.12c-.09,0-.12.12,0,.15a7.28,7.28,0,0,0,4.89.24C26.69,75.53,26.61,75.3,26.45,75.31Z"/><path class="cls-10" d="M35.28,77a23,23,0,0,1-6.13.73c-.2,0-.25.3,0,.32a14,14,0,0,0,6.27-.7A.18.18,0,0,0,35.28,77Z"/><path class="cls-10" d="M34.73,79.88a18.73,18.73,0,0,1-5.49.24.14.14,0,0,0-.07.26,9.83,9.83,0,0,0,5.66-.13A.19.19,0,0,0,34.73,79.88Z"/><path class="cls-10" d="M34.55,82.58c-1.5.31-3.34,1-4.88.68a.12.12,0,0,0-.06.22c1.48.51,3.62,0,5-.49A.22.22,0,0,0,34.55,82.58Z"/><path class="cls-10" d="M29.4,84.4c-1.88,0-3.76.34-5.64-.08-.07,0-.1.09,0,.12a9.79,9.79,0,0,0,5.67.29C29.56,84.69,29.61,84.4,29.4,84.4Z"/><path class="cls-10" d="M29.9,86.07a21.23,21.23,0,0,1-5.34.2c-.13,0-.15.17,0,.2a12.7,12.7,0,0,0,5.42,0A.21.21,0,0,0,29.9,86.07Z"/><path class="cls-10" d="M29.85,87.87a16,16,0,0,1-5.38.45c-.11,0-.16.16,0,.19a9.09,9.09,0,0,0,5.5-.36C30.08,88.1,30,87.85,29.85,87.87Z"/><path class="cls-10" d="M20.25,76.93c-2,0-4,.48-6,.23-.12,0-.14.16,0,.19a12.8,12.8,0,0,0,6.12-.15C20.49,77.16,20.39,76.93,20.25,76.93Z"/><path class="cls-10" d="M20,79.71c-1.55-.21-3.1-.18-4.65-.32a.1.1,0,0,0,0,.2A31.37,31.37,0,0,0,20,80C20.16,80,20.2,79.73,20,79.71Z"/><path class="cls-10" d="M20.37,82.08a26.63,26.63,0,0,1-4.64.12.13.13,0,0,0,0,.26,9.11,9.11,0,0,0,4.75-.13A.13.13,0,0,0,20.37,82.08Z"/><path class="cls-10" d="M47.74,75.26c-2.16.07-4.27.15-6.43,0a.08.08,0,0,0,0,.16,17.43,17.43,0,0,0,6.48,0A.13.13,0,0,0,47.74,75.26Z"/><path class="cls-10" d="M49,77.45c-1.38,0-2.76.18-4.15.23a33.56,33.56,0,0,1-3.87-.2.09.09,0,0,0,0,.18,22.39,22.39,0,0,0,8.08.08A.15.15,0,0,0,49,77.45Z"/><path class="cls-10" d="M48.2,79.36a39,39,0,0,1-7.4.14.08.08,0,0,0,0,.16,13.44,13.44,0,0,0,3.23.21,23.84,23.84,0,0,0,4.22-.31A.1.1,0,0,0,48.2,79.36Z"/><path class="cls-10" d="M55,68.18c-1,0-1.89.1-2.85.08s-1.81-.16-2.69-.26a.06.06,0,0,0,0,.12,13.08,13.08,0,0,0,5.56.36C55.11,68.44,55.13,68.18,55,68.18Z"/><path class="cls-10" d="M54.82,69.79a21.65,21.65,0,0,1-5.63-.21c-.08,0-.12.12,0,.16a11.13,11.13,0,0,0,5.7.28A.12.12,0,0,0,54.82,69.79Z"/><path class="cls-10" d="M55.3,71.26a19.61,19.61,0,0,1-7.44.26c-.09,0-.1.1,0,.12a14.09,14.09,0,0,0,7.54-.09C55.54,71.5,55.46,71.23,55.3,71.26Z"/><path class="cls-10" d="M72.87,71.5a21.92,21.92,0,0,1-4,.16,25.57,25.57,0,0,1-3.48-.6.1.1,0,0,0-.06.19,12.78,12.78,0,0,0,7.56.57A.16.16,0,0,0,72.87,71.5Z"/><path class="cls-10" d="M72.09,73.83A20.54,20.54,0,0,1,66,73.57c-.1,0-.14.15,0,.18a11.27,11.27,0,0,0,6.14.42A.17.17,0,0,0,72.09,73.83Z"/><path class="cls-10" d="M73.16,75.89a15.33,15.33,0,0,1-7.67.36c-.18,0-.2.23,0,.27a12.2,12.2,0,0,0,7.85-.31C73.5,76.12,73.37,75.83,73.16,75.89Z"/><path class="cls-10" d="M87.5,70.63a38.5,38.5,0,0,1-5.26-.21c-.12,0-.14.16,0,.19A19.06,19.06,0,0,0,87.5,71C87.7,71,87.7,70.63,87.5,70.63Z"/><path class="cls-10" d="M86.34,72.72a14.52,14.52,0,0,1-4,.07.11.11,0,0,0,0,.22,9.9,9.9,0,0,0,4,0A.16.16,0,0,0,86.34,72.72Z"/><path class="cls-10" d="M85.86,75.46a10.55,10.55,0,0,1-4.43.33c-.11,0-.16.15-.05.19a6.3,6.3,0,0,0,4.56-.21C86.1,75.7,86,75.43,85.86,75.46Z"/><path class="cls-10" d="M79.05,77.92a23.7,23.7,0,0,1-5.19,0c-.1,0-.15.15,0,.18a9.16,9.16,0,0,0,2.45.26,15.73,15.73,0,0,0,2.83-.1A.18.18,0,0,0,79.05,77.92Z"/><path class="cls-10" d="M78.58,81a31.44,31.44,0,0,1-5.57-.5c-.15,0-.21.21-.07.25a17,17,0,0,0,5.64.6C78.78,81.38,78.78,81,78.58,81Z"/><path class="cls-10" d="M78.43,84.13A16.85,16.85,0,0,1,73,83.75a.13.13,0,0,0-.07.25,11.67,11.67,0,0,0,5.56.49A.18.18,0,0,0,78.43,84.13Z"/><g class="cls-14"><path class="cls-8" d="M54.67,68.63c.25,0,.5.37.24.58a3.7,3.7,0,0,1-2.15.49,7.84,7.84,0,0,1-2.84-.46.3.3,0,0,1-.14-.1c-.34-.13-.16-.69.24-.63a16.43,16.43,0,0,0,2.8.22A14.34,14.34,0,0,1,54.67,68.63Z"/><path class="cls-8" d="M52.08,80.09a.31.31,0,0,1-.13.36.33.33,0,0,1-.6.06,8,8,0,0,1-.8-4.15c0-.69,0-2.18.77-2.49a.37.37,0,0,1,.33.09c.38.33.26,1.1.2,1.54A10.77,10.77,0,0,0,52.08,80.09Z"/><path class="cls-8" d="M50.14,71.42c-.53,0-1.42-.34-1.58-.93-.21-.23.1-.67.44-.5,1.61.78,3.64.57,5.36.42.39,0,.45.56.09.66A12.77,12.77,0,0,1,50.14,71.42Z"/><path class="cls-8" d="M53.72,73.52a.34.34,0,0,1,.56.15,3,3,0,0,1-.18,1.86,7.78,7.78,0,0,0,0,2.68c.14.65.41,1.22.57,1.85a.34.34,0,0,1-.5.38c-1.06-.47-1.37-2.09-1.4-3.12S52.8,74.33,53.72,73.52Z"/><path class="cls-8" d="M32.4,72.68c.06.7.13,1.39.24,2.09a1.89,1.89,0,0,1-.06,1,.34.34,0,0,1-.49.2c-1-.64-1.11-2.35-1.15-3.49s0-2,.68-1.88S32.35,72.15,32.4,72.68Z"/><path class="cls-8" d="M33.67,79.57a9.37,9.37,0,0,1-4-.17.34.34,0,0,1-.18-.1.62.62,0,0,1-.14-.14.43.43,0,0,1,.12-.54.1.1,0,0,1,.05,0,.27.27,0,0,1,.28-.16,16.08,16.08,0,0,0,2.86-.14c.84-.09,1.58-.38,2.39-.5a.35.35,0,0,1,.43.32C35.56,79,34.4,79.41,33.67,79.57Z"/><path class="cls-8" d="M35,81.09c-.72,2-4.05,1.7-5.34.57a.33.33,0,0,1,.05-.51.31.31,0,0,1,.4-.27,6.55,6.55,0,0,0,2.82.14c.45-.06,1.48-.59,1.91-.31A.34.34,0,0,1,35,81.09Z"/><path class="cls-8" d="M28.49,73.08c0-.66-.2-1.63.33-2.13a.33.33,0,0,1,.41,0c.57.38.4,1.47.46,2,.1.92.64,1.92.48,2.83a.29.29,0,0,1-.28.24.26.26,0,0,1-.36-.07A5.05,5.05,0,0,1,28.49,73.08Z"/><path class="cls-8" d="M27,66.64a9.4,9.4,0,0,0,2.85.21,9.42,9.42,0,0,1,1.83-.11.34.34,0,0,1,.15.56,4.48,4.48,0,0,1-3.22.71,3,3,0,0,1-1.93-.74.32.32,0,0,1-.06-.15A.33.33,0,0,1,27,66.64Z"/><path class="cls-8" d="M27.51,82.27c-1.54.42-1.77-4.42-1.68-5.12a.35.35,0,0,1,.33-.31.32.32,0,0,1,.51-.06,1.31,1.31,0,0,1,.39.91,13.79,13.79,0,0,0,.46,2.47C27.66,80.58,28.32,82.05,27.51,82.27Z"/><path class="cls-8" d="M26.74,74.39a1.51,1.51,0,0,1-1,.7,4.25,4.25,0,0,1-4.12-.7.32.32,0,0,1,.16-.55.27.27,0,0,1,.28-.06,11.39,11.39,0,0,0,4.43.11C26.71,73.85,26.85,74.19,26.74,74.39Z"/><path class="cls-8" d="M26.2,72.23a4.92,4.92,0,0,1-4.56.46c-.29-.15-.77-.6-.3-.88h0a.37.37,0,0,1,.42-.33,27.67,27.67,0,0,0,4.27.14A.33.33,0,0,1,26.2,72.23Z"/><path class="cls-8" d="M20.38,77.77a.34.34,0,0,1,.34.33c.1,1.3-2.17,1.18-2.94,1.14-.6,0-2.51,0-2.83-.77a.34.34,0,0,1,.28-.6C17,78.28,18.66,77.76,20.38,77.77Z"/><path class="cls-8" d="M15.48,69.84a.18.18,0,0,1,.06-.09,1.17,1.17,0,0,1,.15-.27.68.68,0,0,1,.43-.31.25.25,0,0,1,.39.11,3.27,3.27,0,0,1,.14,1.21A18.43,18.43,0,0,0,17,72.57c.09.36.5,1.38.12,1.7s-.62.13-.88-.18A4.53,4.53,0,0,1,15.48,69.84Z"/><path class="cls-8" d="M13.92,74.09c-.36-.34-.42-1.18-.5-1.64a7.28,7.28,0,0,1,0-2.55.14.14,0,0,1,0-.06.91.91,0,0,1,.44-.71c.73-.38.71,2.88.72,3.12S14.82,75,13.92,74.09Z"/><path class="cls-8" d="M19.87,89a.34.34,0,0,1-.57.24c-.92-.93-1.12-2.43-1.31-3.74,0-.17-.06-.35-.08-.53,0,0,0,0,0-.08v-.06c0-.51.1-.92.57-.92.74,0,.69,1.25.76,1.7A15.46,15.46,0,0,1,19.87,89Z"/><path class="cls-8" d="M19.91,81.48c-1.24.79-5,.7-5.6-.94a.31.31,0,0,1,.14-.36c0-.22.13-.47.4-.36,1.55.61,3.16.26,4.76.49C20.28,80.4,20.58,81.06,19.91,81.48Z"/><path class="cls-8" d="M21.35,88.82a6.64,6.64,0,0,1-1.2-4.17,2.93,2.93,0,0,1,.11-.9c.11-.39.45-.89.93-.61s.3,1,.3,1.51a10,10,0,0,0,.18,2.62,5.41,5.41,0,0,1,.25,1.31A.34.34,0,0,1,21.35,88.82Z"/><path class="cls-8" d="M23.83,77.06a.49.49,0,0,1,.69-.13,2.63,2.63,0,0,1,.31,1.47c.07,1,.39,2,.51,2.95.05.34-.47.44-.62.17A7.11,7.11,0,0,1,23.83,77.06Z"/><path class="cls-8" d="M24.52,84.83c1.23.62,2.7.16,4,.31.23,0,.45.27.29.51-.49.7-1.44.54-2.2.54s-1.95,0-2.48-.76a.26.26,0,0,1,0-.08C23.86,85.12,24.17,84.66,24.52,84.83Z"/><path class="cls-8" d="M24.07,87.14a.34.34,0,0,1,.42-.41l.19.07a.33.33,0,0,1,.22,0,21,21,0,0,0,3.8.3.34.34,0,0,1,.24.57c-.69.7-2.07.54-3,.48S24.38,88,24.07,87.14Z"/><path class="cls-8" d="M70.38,84c0,.34.06.91-.44.91s-.85-.79-1-1.14a5.67,5.67,0,0,1-.29-3.16,7.19,7.19,0,0,1,.43-1.76c.17-.44.51-1.36,1.14-1.29a.49.49,0,0,1,.38.34,2.24,2.24,0,0,1,.13.92l-.09.54c-.08.54-.15,1.09-.21,1.63a13.57,13.57,0,0,0-.09,1.91C70.32,83.3,70.35,83.67,70.38,84Z"/><path class="cls-8" d="M69.15,76.25c-1.08,0-3.5,0-3.7-1.49a.36.36,0,0,1,.12-.34.31.31,0,0,1,.41-.28,10.34,10.34,0,0,0,3.66.65,11.11,11.11,0,0,1,2.21-.18.32.32,0,0,1,.24.32C72,76.29,70.1,76.25,69.15,76.25Z"/><path class="cls-8" d="M67.48,83.62l.06,1a.34.34,0,0,1-.58.24,4.6,4.6,0,0,1-.58-3.61c.15-.86.16-2.5.89-3.11a.34.34,0,0,1,.57.24,11.7,11.7,0,0,1-.28,1.84,2.83,2.83,0,0,0,0,.29c0,.47-.1.94-.11,1.4A16.66,16.66,0,0,0,67.48,83.62Z"/><path class="cls-8" d="M69.36,73.65c-1.13-.05-2.57-.14-3.35-1.1a.27.27,0,0,1-.07-.14c-.18-.23,0-.65.33-.53a10.18,10.18,0,0,0,3.37.6,23.73,23.73,0,0,0,2.67-.32c.27,0,.39.3.29.5C72,73.77,70.42,73.71,69.36,73.65Z"/><path class="cls-8" d="M73.7,91.55a3.63,3.63,0,0,1-1-3.15c.07-.77.11-2.15.87-2.6a.35.35,0,0,1,.5.2,3.11,3.11,0,0,1,0,.61.32.32,0,0,1,.08.29A6.72,6.72,0,0,0,74,89.54a6.6,6.6,0,0,1,.23,1.72C74.2,91.49,73.92,91.72,73.7,91.55Z"/><path class="cls-8" d="M76.7,89.84a4.75,4.75,0,0,1,0,1.19c-.09.31-.33.67-.71.48C75,91,74.81,88.64,74.92,87.68a3.23,3.23,0,0,1,.88-2.2.51.51,0,0,1,.79.11A3.13,3.13,0,0,1,76.82,87a.31.31,0,0,1,0,.19A14.46,14.46,0,0,0,76.7,89.84Z"/><path class="cls-8" d="M77.19,83.52a6.42,6.42,0,0,1-3.31-.47c-1-.26-1.79-.72-1.18-1.43a.33.33,0,0,1,.33-.08l.43.15a10.63,10.63,0,0,0,2.65.23,15.68,15.68,0,0,1,2.65,0,.33.33,0,0,1,.24.23C79.17,83,77.83,83.38,77.19,83.52Z"/><path class="cls-8" d="M77.23,80.57a6.73,6.73,0,0,1-4-1.16.27.27,0,0,1-.09-.3.33.33,0,0,1,.38-.48,13.47,13.47,0,0,0,3.3.27c.86,0,1.77-.11,2.61,0a.34.34,0,0,1,.24.33C79.68,80.27,78,80.59,77.23,80.57Z"/><path class="cls-8" d="M76.5,75.31c.09.42.12,1.13-.41,1.28-1.23.34-1.48-2.73-1.48-3.33s.32-3.8,1.61-3.05a.73.73,0,0,1,.36.62.28.28,0,0,1,.13.36A7.79,7.79,0,0,0,76.5,75.31Z"/><path class="cls-8" d="M79.08,75.49c0,.37.15.79-.12,1.1a.32.32,0,0,1-.4,0c-.78-.4-.92-1.57-1-2.34a7.25,7.25,0,0,1,.45-3.67.49.49,0,0,1,.56-.27.35.35,0,0,1,.37,0c.63.25.41,1.53.19,2.45A12.3,12.3,0,0,0,79.08,75.49Z"/><path class="cls-8" d="M82.89,78.35a27.24,27.24,0,0,0-.31,4.78c0,.53,0,1.61-.64,1.79a.33.33,0,0,1-.33-.08,4.77,4.77,0,0,1-.48-3A14.53,14.53,0,0,1,82,78.32a.5.5,0,0,1,.88,0Z"/><path class="cls-8" d="M87.72,73.63c-.94,1.87-5.32,2.48-6.37.41l0-.1s0,0,0,0a.34.34,0,0,1,0-.1v0a.51.51,0,0,1,.44-.55h.09a.67.67,0,0,1,.39.08,9.16,9.16,0,0,0,5.16-.17C87.64,73,87.84,73.38,87.72,73.63Z"/><path class="cls-8" d="M82,71.27a.33.33,0,0,1,.41-.31,18.44,18.44,0,0,0,4.92.23.34.34,0,0,1,.24.57,4.89,4.89,0,0,1-5.57,0A.31.31,0,0,1,82,71.27Z"/><path class="cls-8" d="M47.88,85.7c.12.4-.16,1-.66.85-1.84-.5-2.2-3.38-2.06-4.93.06-.59.17-1.39.8-1.65.43-.18,1-.17,1.15.38a3.61,3.61,0,0,1,0,1.6A9.58,9.58,0,0,0,47.88,85.7Z"/><path class="cls-8" d="M43.72,79.23A4.43,4.43,0,0,1,41,78.55a.29.29,0,0,1-.09-.28c-.09-.23.08-.55.38-.44,2.23.8,4.41.28,6.7.3a.34.34,0,0,1,.09.66A12.73,12.73,0,0,1,43.72,79.23Z"/><path class="cls-8" d="M44.29,81.59a14.34,14.34,0,0,0,.34,4c0,.29-.32.63-.56.33a4.7,4.7,0,0,1-.81-2.64,6,6,0,0,1,.13-2.6.46.46,0,0,1,.87,0,1.36,1.36,0,0,1,0,.8A.33.33,0,0,1,44.29,81.59Z"/><path class="cls-8" d="M41.35,76h0a.35.35,0,0,1,.18,0,33.46,33.46,0,0,0,6.25,0,.34.34,0,0,1,.33.34c0,1.09-1.8,1-2.53,1-1.56.06-3.23.38-4.51-.74A.34.34,0,0,1,41.35,76Z"/></g><g class="cls-15"><path class="cls-8" d="M8.68,64.8c1.2,4.8,4.3,16.83,6.17,21.38,2.36,5.73,1.26,8.24,9,9,6.69.67,20.46.36,26.28.21,5.82.15,19.59.46,26.28-.21,7.77-.79,6.68-3.3,9-9,1.87-4.55,5.21-18.45,6.42-23.25ZM82.82,85.86a8.4,8.4,0,0,1-1.4,1.32c-2.73,2-6.42,2.64-9.81,2.91-1.94.15-3.88.17-5.83.19-6.83.09-13.64.66-20.47.76q-4.81.08-9.65,0c-5-.1-10.53.42-15.18-1.76a13,13,0,0,1-6.08-6.78c-1.82-4.08-5.55-14.44,3-14,2.4.13,4.76.16,7.16.18,7.4.06,14.79.26,22.19.11q3.21-.06,6.42-.22c7.56-.39,18.54-1.08,26.11-1.29,2.26-.06,5.1-.49,7.22.41C90.8,69.54,84.41,84,82.82,85.86Z"/></g><path class="cls-16" d="M36.3,70.28c-3.27,0-6.54,0-9.8,0-2.39,0-5.48-.48-7.74.31-2.89,1-1.16,4.5-.34,6.15a9.62,9.62,0,0,0,3.95,3.92C27,83.33,33.26,84,38.84,84.26c4.59.21,9.19.12,13.78-.11,6.07-.29,12.34-.2,18.27-1.44a19.33,19.33,0,0,0,13-9.37c.59-1.12,2-3.35.17-4.18-2-.91-24.41.86-33.06,1Q43.63,70.21,36.3,70.28Z"/><g class="cls-17"><path class="cls-8" d="M83.28,90c-5.26,3.84-23,3.14-26.1,3.21-6.29.14-12.58.17-18.87.14-3.17,0-15-.67-17.66-1.21a9.05,9.05,0,0,1-4.57-2.19c1,3.14,1.9,4.69,7.71,5.28,6.68.67,20.45.36,26.27.21,5.82.15,19.6.46,26.28-.21,6.34-.64,6.78-2.43,8-6.17A8.59,8.59,0,0,1,83.28,90Z"/><path class="cls-8" d="M15.44,65.64c4.4-.39,8.86-.11,13.27-.13,6.34,0,12.68-.29,19-.32s12.75.11,19.12,0,12.58-.74,18.83-.41c1.29.06,3.83,0,4.68,1.26a2.34,2.34,0,0,1,.36,1.19l1.06-4.27L8.58,64.8l.65,2.55a5,5,0,0,1,1.47-.71A14.29,14.29,0,0,1,15.44,65.64Z"/></g><path class="cls-13" d="M36,89.66a2.32,2.32,0,0,1-1.73-.6,2.27,2.27,0,0,1-.59-1.65,2.23,2.23,0,0,1,.59-1.66A2.39,2.39,0,0,1,36,85.18h2.65V72.85h2.55l-4.36,2.7a2.12,2.12,0,0,1-1.47.38,1.94,1.94,0,0,1-1.16-.59,2.47,2.47,0,0,1-.63-1.17,2.33,2.33,0,0,1,.1-1.4,2.27,2.27,0,0,1,1.08-1.16L39,69a5.19,5.19,0,0,1,1.34-.65,4.82,4.82,0,0,1,1.48-.23,2.48,2.48,0,0,1,1.79.61,2.19,2.19,0,0,1,.65,1.71V85.18h2.38a2.34,2.34,0,0,1,1.7.57,2.22,2.22,0,0,1,.58,1.66,2.26,2.26,0,0,1-.58,1.67,2.31,2.31,0,0,1-1.7.58Z"/><path class="cls-13" d="M61.54,90a2.67,2.67,0,0,1-2-.7,2.76,2.76,0,0,1-.71-2V86.11h-6a3.24,3.24,0,0,1-2.08-.6A2.2,2.2,0,0,1,50,83.68a3.42,3.42,0,0,1,.3-1.4,10.71,10.71,0,0,1,1-1.64l7.34-10.71a4.27,4.27,0,0,1,1.34-1.34,3.4,3.4,0,0,1,1.76-.44,2.43,2.43,0,0,1,1.84.71,2.87,2.87,0,0,1,.66,2v11h.72a2.47,2.47,0,0,1,1.73.54,2.08,2.08,0,0,1,.59,1.6,2,2,0,0,1-.59,1.53,2.47,2.47,0,0,1-1.73.54h-.72v1.12a2.79,2.79,0,0,1-.69,2A2.61,2.61,0,0,1,61.54,90ZM58.86,81.9V74.83h.85L54,83.23V81.9Z"/></g></g></svg>