<svg id="Layer_1" data-name="Layer 1" xmlns="http://www.w3.org/2000/svg" viewBox="0 0 105.29 104.84"><defs><style>.cls-1{fill:#ff8c03;}.cls-2{fill:#fcbc08;}.cls-3{fill:#f28106;opacity:0.7;}.cls-4{fill:#7c6a13;}.cls-5{fill:#937b18;}</style></defs><title>orange5</title><path class="cls-1" d="M48.12,27.25C53.21,30.93,59.91,42.58,52,52.17S32.62,62.33,23.93,56.7c-9-5.87-13.37-20.19-2.43-30.44C30.28,18.05,40.43,21.69,48.12,27.25Z"/><path class="cls-2" d="M26.81,25.88h0Z"/><path class="cls-2" d="M28,27.09c.6-.29,1.27-.89.71-1.42s-1.33.07-1.87.2C26.09,26.54,26.4,27.85,28,27.09Z"/><path class="cls-2" d="M26.84,25.87l.91-.35A1.42,1.42,0,0,0,26.84,25.87Z"/><path class="cls-2" d="M25.21,28.44c.22-.17.53-.5.23-.74a.38.38,0,0,0-.57.12.74.74,0,0,0-.37.48C24.45,28.8,25,28.6,25.21,28.44Z"/><path class="cls-2" d="M29.11,28.13a.59.59,0,0,0-.56,0c-.27,0-.6.14-.66.36a.2.2,0,0,0,0,.13l-.08.05.08,0c.08.24.66.06.87,0S29.56,28.38,29.11,28.13Z"/><path class="cls-2" d="M27.8,28.69l0,0Z"/><path class="cls-2" d="M30.36,26.82c-.26.07-.55.35-.4.6s.75.15,1,0C31.78,27,30.68,26.63,30.36,26.82Z"/><path class="cls-2" d="M31.43,25.27c-.18,0-.5-.11-.63.05a.23.23,0,0,0,0,.29c0,.18.31.34.43.4s1.56.54,1.65.1S31.75,25.31,31.43,25.27Z"/><path class="cls-2" d="M30,24.4c.27.14,1.22.1,1.32-.28s-.52-.46-.77-.43a1,1,0,0,0-.41.23C29.89,24,29.7,24.23,30,24.4Z"/><path class="cls-2" d="M25.38,26.62c.49-.36,0-.57-.38-.49h0c-.22,0-.79.24-.64.55S25.19,26.76,25.38,26.62Z"/><path class="cls-2" d="M23.3,28.94c.18-.21.75-1.12.1-1.16a.43.43,0,0,0-.34.17,1.8,1.8,0,0,0-.65.89C22.15,29.69,23,29.3,23.3,28.94Z"/><path class="cls-2" d="M26.79,29.2a1.22,1.22,0,0,0-.85.07,1.7,1.7,0,0,0-1.14.86c-.21.87,1.34.25,1.67.13C27,30.09,27.52,29.46,26.79,29.2Z"/><path class="cls-2" d="M29.4,29.88c-.25.08-.52.29-.51.49,0,.43.89.3,1.14.18C31,30.11,29.73,29.69,29.4,29.88Z"/><path class="cls-2" d="M35.51,25a.44.44,0,0,0-.42.18,1.19,1.19,0,0,0,1.78,0A1,1,0,0,0,35.51,25Z"/><path class="cls-2" d="M33,27.3c.54.18,2,.27,2.1-.47a1.26,1.26,0,0,0-1.16-.13C33.48,26.68,33,26.83,33,27.3Z"/><path class="cls-2" d="M34,23.44A.76.76,0,0,0,33,23.33a.51.51,0,0,0-.26.31A1,1,0,0,0,34,23.44Z"/><path class="cls-2" d="M38,26.51c-1.07,0,.3,1.35.9.92S38.41,26.23,38,26.51Z"/><path class="cls-2" d="M22.75,30.86c-.34-.26-.62,0-.8.3-.72.45-1.58,1.52-.9,1.78C21.9,33.26,22.73,31.44,22.75,30.86Z"/><path class="cls-2" d="M20.78,29.47c-.93.18-.49,1.68.39.65C21.71,29.48,21.16,29.28,20.78,29.47Z"/><path class="cls-2" d="M26,32.24a.49.49,0,0,0-.34.42c.35.24,1.26.26,1.49-.19C27.51,31.81,26.33,31.72,26,32.24Z"/><path class="cls-2" d="M34.2,29.76l-.05-.07a.42.42,0,0,0,0,.18c-.06.09-.06.17,0,.2.2.49,1.25.51,1-.11S34.45,29.52,34.2,29.76Z"/><path class="cls-2" d="M43.68,28.45c-.62-.85-1.91,0-1.1.26C43.06,29.05,44.29,29.27,43.68,28.45Z"/><path class="cls-2" d="M21.59,36.48l.12-.22A1.51,1.51,0,0,0,21,37.32c.37.1,1.45-.61,1.42-1.08C22.41,35.52,21.9,36,21.59,36.48Z"/><path class="cls-2" d="M31.27,34.1a.25.25,0,0,0,.36.08c.45.06,1.27,0,.92-.53S31.39,33.73,31.27,34.1Z"/><path class="cls-2" d="M17.9,33.63a.66.66,0,0,0,0,.37c.54.18,1.93,0,1.47-.85S18.06,33,17.9,33.63Z"/><path class="cls-2" d="M19.8,31.35h0a.45.45,0,0,0-.56.44.69.69,0,0,0,.95-.36A.6.6,0,0,0,19.8,31.35Z"/><path class="cls-3" d="M21.6,50.34c-2,1.45,8.19,8.72,14.82,8.47a19.56,19.56,0,0,0,16-10.07c1.75-3.6,1.14-13.81-1.06-13.1-.78.26.18,3.72-3,9-2.83,4.61-7.64,9.15-14,8.84C25.63,53,22.92,49.39,21.6,50.34Z"/><path class="cls-4" d="M43.48,25.07a.92.92,0,0,0-.83,1.4c.55,1.34,3.87,3.52,4.83,3.16s1-1.46-.4-2.51S44.75,25.23,43.48,25.07Z"/><path class="cls-4" d="M45.21,26.87s3.85-3.93,4.95-5.41a68,68,0,0,0,3.66-7.09s.34-.5.81-.41.34.79.34.79-2.69,5.41-3.78,6.9C49,24.69,46.05,28,46.05,28Z"/><path class="cls-4" d="M51.93,19.47c-.23,0-6.36-.79-6.36-.79l-.23.36,3.16.51,3.16.51Z"/><path class="cls-4" d="M38.67,26.53c-6.57,1.64-16.29-3-16.29-3s6.49-7.44,12.06-8,15.23,3.81,15.23,3.81S45.27,24.87,38.67,26.53Z"/><path class="cls-5" d="M43.53,25.47a1.37,1.37,0,0,0-.15,1.33,7.12,7.12,0,0,0,2.39,1.87l.16-1.18s-.51-.35-.56-.64a.63.63,0,0,1,.05-.46Z"/><path class="cls-5" d="M47.52,19.53a52.2,52.2,0,0,0-11,.1c-5.11.73-12.83,3.13-12.73,3.47s8.44-2.75,12.56-3,11.5,0,11.5,0Z"/><path class="cls-5" d="M44.93,19.71a5.47,5.47,0,0,1-1.06,2A14.51,14.51,0,0,0,42,24.51a17.58,17.58,0,0,0,2.13-2.63c.61-.88,1.39-2.13,1.39-2.13Z"/><path class="cls-5" d="M39.82,19.75A8.74,8.74,0,0,1,38.69,23c-1.13,2.28-1.58,2.95-1.3,3s1.12-1.68,1.69-2.93,1.44-3.36,1.44-3.36Z"/><path class="cls-5" d="M34.84,20.21a6.05,6.05,0,0,1-.39,2.39c-.5,1.68-1.12,2.64-.89,2.75s.82-1.45,1.17-2.67.85-2.72.85-2.72Z"/><path class="cls-5" d="M29.49,21.45a3.78,3.78,0,0,1-.27,1.41c-.31.87-.8,1.74-.66,1.73a3,3,0,0,0,.92-1.54c.22-.77.47-1.69.47-1.69Z"/><path class="cls-5" d="M45.54,19.58a7.22,7.22,0,0,0-1.93-1.83,6.2,6.2,0,0,0-2.49-1c-.13.12,1.42.55,2,.91a21.46,21.46,0,0,1,2,1.91Z"/><path class="cls-5" d="M40.28,19.43a4.83,4.83,0,0,0-1.57-2.06A8,8,0,0,0,35.21,16c-.34.11,2.56.83,3.2,1.46a7.08,7.08,0,0,1,1.19,2Z"/><path class="cls-5" d="M35.58,20a11.22,11.22,0,0,0-2.36-1.83,9.67,9.67,0,0,0-2.84-.71c-.33,0,2.18.55,2.88,1A15.48,15.48,0,0,1,35,20.11Z"/><path class="cls-5" d="M29.49,21.31s-.09-.41-1.25-.84-1.82-.72-1.57-.72a8.16,8.16,0,0,1,1.56.4,10,10,0,0,1,1.83,1Z"/><path class="cls-1" d="M84.14,27.18c5.09,3.68,11.79,15.34,3.91,24.92S68.64,62.26,60,56.63c-9-5.87-13.37-20.19-2.43-30.44C66.3,18,76.45,21.62,84.14,27.18Z"/><path class="cls-2" d="M62.83,25.81h0Z"/><path class="cls-2" d="M64,27c.6-.29,1.27-.89.71-1.42s-1.33.07-1.87.2C62.11,26.47,62.42,27.78,64,27Z"/><path class="cls-2" d="M62.86,25.8l.91-.35A1.42,1.42,0,0,0,62.86,25.8Z"/><path class="cls-2" d="M61.23,28.37c.22-.16.53-.5.23-.74a.38.38,0,0,0-.57.12.74.74,0,0,0-.37.49C60.47,28.73,61,28.53,61.23,28.37Z"/><path class="cls-2" d="M65.13,28.06a.59.59,0,0,0-.56,0c-.27,0-.6.14-.66.36a.2.2,0,0,0,0,.13l-.08.05.08,0c.08.24.66.07.87,0S65.58,28.31,65.13,28.06Z"/><path class="cls-2" d="M63.82,28.62l0,0Z"/><path class="cls-2" d="M66.38,26.75c-.26.07-.55.35-.4.6s.75.15,1,0C67.8,26.92,66.7,26.56,66.38,26.75Z"/><path class="cls-2" d="M67.45,25.2c-.18,0-.5-.11-.63.05a.23.23,0,0,0,0,.29c0,.18.31.34.43.4s1.56.54,1.65.1S67.77,25.24,67.45,25.2Z"/><path class="cls-2" d="M66,24.33c.27.14,1.22.1,1.32-.28s-.52-.46-.77-.43a1,1,0,0,0-.41.24C65.91,24,65.72,24.17,66,24.33Z"/><path class="cls-2" d="M61.4,26.55c.49-.36,0-.57-.38-.49h0c-.22,0-.79.24-.64.55S61.21,26.69,61.4,26.55Z"/><path class="cls-2" d="M59.32,28.87c.18-.21.75-1.12.1-1.16a.43.43,0,0,0-.34.17,1.8,1.8,0,0,0-.65.89C58.17,29.62,59,29.23,59.32,28.87Z"/><path class="cls-2" d="M62.81,29.13a1.22,1.22,0,0,0-.85.07,1.7,1.7,0,0,0-1.14.86c-.21.87,1.34.25,1.67.13C63,30,63.54,29.39,62.81,29.13Z"/><path class="cls-2" d="M65.42,29.81c-.25.08-.52.29-.51.49,0,.43.89.3,1.14.18C67,30,65.75,29.62,65.42,29.81Z"/><path class="cls-2" d="M71.53,25a.44.44,0,0,0-.42.18,1.19,1.19,0,0,0,1.78,0A1,1,0,0,0,71.53,25Z"/><path class="cls-2" d="M69,27.23c.54.18,2,.27,2.1-.47A1.26,1.26,0,0,0,70,26.63C69.5,26.61,69,26.76,69,27.23Z"/><path class="cls-2" d="M70.06,23.37A.76.76,0,0,0,69,23.26a.51.51,0,0,0-.26.31A1,1,0,0,0,70.06,23.37Z"/><path class="cls-2" d="M74,26.44c-1.07,0,.3,1.35.9.92S74.43,26.16,74,26.44Z"/><path class="cls-2" d="M58.77,30.79c-.34-.26-.62,0-.8.3-.72.45-1.58,1.52-.9,1.78C57.92,33.19,58.75,31.37,58.77,30.79Z"/><path class="cls-2" d="M56.8,29.4c-.93.18-.49,1.69.39.65C57.73,29.41,57.18,29.21,56.8,29.4Z"/><path class="cls-2" d="M62,32.17a.49.49,0,0,0-.34.42c.35.24,1.26.26,1.49-.18C63.53,31.74,62.35,31.65,62,32.17Z"/><path class="cls-2" d="M70.22,29.69l0-.07a.42.42,0,0,0,0,.18c-.06.09-.06.17,0,.2.2.49,1.25.51,1-.11S70.47,29.45,70.22,29.69Z"/><path class="cls-2" d="M79.7,28.38c-.62-.85-1.91,0-1.1.26C79.08,29,80.31,29.2,79.7,28.38Z"/><path class="cls-2" d="M57.61,36.41l.12-.22a1.51,1.51,0,0,0-.68,1.06c.37.1,1.45-.61,1.42-1.08C58.43,35.45,57.92,36,57.61,36.41Z"/><path class="cls-2" d="M67.29,34a.25.25,0,0,0,.36.08c.45.06,1.27,0,.92-.53S67.41,33.66,67.29,34Z"/><path class="cls-2" d="M53.92,33.56a.66.66,0,0,0-.05.37c.54.18,1.93,0,1.47-.85S54.08,32.93,53.92,33.56Z"/><path class="cls-2" d="M55.82,31.28h0a.45.45,0,0,0-.56.44.69.69,0,0,0,.95-.36A.67.67,0,0,0,55.82,31.28Z"/><path class="cls-3" d="M57.62,50.27c-2,1.45,8.19,8.72,14.82,8.47a19.56,19.56,0,0,0,16-10.07c1.75-3.59,1.14-13.81-1.06-13.1-.78.26.18,3.72-3,9-2.83,4.61-7.64,9.15-14,8.84C61.65,53,58.94,49.32,57.62,50.27Z"/><path class="cls-4" d="M79.5,25a.92.92,0,0,0-.83,1.4c.55,1.34,3.87,3.53,4.83,3.16s1-1.46-.4-2.51S80.77,25.16,79.5,25Z"/><path class="cls-4" d="M81.23,26.8s3.85-3.93,5-5.41a68,68,0,0,0,3.66-7.09s.34-.5.81-.41.34.79.34.79-2.69,5.41-3.78,6.9c-2.22,3-5.14,6.34-5.14,6.34Z"/><path class="cls-4" d="M88,19.4c-.23,0-6.36-.79-6.36-.79l-.23.36,3.16.51,3.16.51Z"/><path class="cls-4" d="M74.69,26.46c-6.57,1.64-16.29-3-16.29-3s6.49-7.44,12.06-8S85.69,19.3,85.69,19.3,81.29,24.81,74.69,26.46Z"/><path class="cls-5" d="M79.55,25.4a1.37,1.37,0,0,0-.15,1.33,7.12,7.12,0,0,0,2.39,1.87L82,27.42s-.51-.35-.56-.64a.63.63,0,0,1,0-.46Z"/><path class="cls-5" d="M83.54,19.46a52.2,52.2,0,0,0-11,.1c-5.11.73-12.83,3.13-12.73,3.47s8.44-2.75,12.56-3,11.5,0,11.5,0Z"/><path class="cls-5" d="M81,19.64a5.54,5.54,0,0,1-1.06,2A14.28,14.28,0,0,0,78,24.44a17.58,17.58,0,0,0,2.13-2.63c.61-.88,1.39-2.13,1.39-2.13Z"/><path class="cls-5" d="M75.84,19.68a8.74,8.74,0,0,1-1.13,3.21c-1.13,2.28-1.58,2.95-1.3,3S74.53,24.21,75.1,23s1.44-3.36,1.44-3.36Z"/><path class="cls-5" d="M70.86,20.14a6.05,6.05,0,0,1-.39,2.39c-.5,1.68-1.12,2.64-.89,2.75s.82-1.45,1.17-2.67.85-2.72.85-2.72Z"/><path class="cls-5" d="M65.51,21.39a3.81,3.81,0,0,1-.27,1.41c-.31.86-.8,1.73-.66,1.72A3,3,0,0,0,65.5,23c.22-.77.47-1.69.47-1.69Z"/><path class="cls-5" d="M81.56,19.51a7.22,7.22,0,0,0-1.93-1.83,6,6,0,0,0-2.49-1c-.13.11,1.42.54,2,.9a21.46,21.46,0,0,1,2,1.91Z"/><path class="cls-5" d="M76.3,19.36a4.83,4.83,0,0,0-1.57-2.06A8,8,0,0,0,71.23,16c-.34.11,2.56.83,3.2,1.46a7.08,7.08,0,0,1,1.19,2Z"/><path class="cls-5" d="M71.6,19.89a11.22,11.22,0,0,0-2.36-1.83,9.67,9.67,0,0,0-2.84-.71c-.33,0,2.18.55,2.88,1A14.81,14.81,0,0,1,71.06,20Z"/><path class="cls-5" d="M65.51,21.24s-.09-.41-1.25-.84-1.82-.72-1.57-.72a8.16,8.16,0,0,1,1.56.4,10,10,0,0,1,1.83,1Z"/><path class="cls-1" d="M65,57.88c5.09,3.68,11.8,15.34,3.91,24.92S49.51,93,40.82,87.33c-9-5.87-13.38-20.19-2.43-30.44C47.16,48.68,57.32,52.32,65,57.88Z"/><path class="cls-2" d="M43.69,56.51h0Z"/><path class="cls-2" d="M44.88,57.72c.59-.28,1.26-.89.7-1.42s-1.33.07-1.86.2C43,57.17,43.28,58.48,44.88,57.72Z"/><path class="cls-2" d="M43.72,56.5l.91-.35A1.48,1.48,0,0,0,43.72,56.5Z"/><path class="cls-2" d="M42.09,59.07c.23-.16.53-.5.23-.74a.4.4,0,0,0-.57.12.77.77,0,0,0-.37.49C41.33,59.43,41.86,59.24,42.09,59.07Z"/><path class="cls-2" d="M46,58.77a.54.54,0,0,0-.56,0c-.27,0-.6.13-.66.35a.66.66,0,0,0,0,.13l-.07.06.08,0c.07.24.65.07.86,0S46.45,59,46,58.77Z"/><path class="cls-2" d="M44.69,59.33l0,0Z"/><path class="cls-2" d="M47.24,57.45c-.25.07-.54.36-.39.6s.75.15,1,0C48.67,57.62,47.56,57.26,47.24,57.45Z"/><path class="cls-2" d="M48.31,55.9c-.17,0-.49-.11-.63.05a.23.23,0,0,0,0,.3c0,.17.3.33.42.39s1.56.54,1.66.11S48.63,55.94,48.31,55.9Z"/><path class="cls-2" d="M46.89,55c.27.14,1.23.1,1.32-.27s-.52-.47-.77-.44a1.2,1.2,0,0,0-.41.24C46.78,54.68,46.59,54.87,46.89,55Z"/><path class="cls-2" d="M42.26,57.25c.5-.36,0-.56-.38-.49h0c-.22,0-.78.24-.63.55S42.07,57.39,42.26,57.25Z"/><path class="cls-2" d="M40.18,59.57c.19-.21.75-1.12.1-1.16a.53.53,0,0,0-.34.17,1.84,1.84,0,0,0-.65.9C39,60.32,39.86,59.94,40.18,59.57Z"/><path class="cls-2" d="M43.68,59.83a1.31,1.31,0,0,0-.86.07,1.72,1.72,0,0,0-1.14.86c-.21.87,1.34.25,1.67.13C43.84,60.73,44.4,60.09,43.68,59.83Z"/><path class="cls-2" d="M46.28,60.51c-.25.09-.52.29-.51.49,0,.43.89.3,1.14.18C47.87,60.74,46.62,60.32,46.28,60.51Z"/><path class="cls-2" d="M52.4,55.68a.42.42,0,0,0-.43.17,1.2,1.2,0,0,0,1.78,0A1,1,0,0,0,52.4,55.68Z"/><path class="cls-2" d="M49.88,57.93c.53.18,2,.28,2.1-.46a1.27,1.27,0,0,0-1.16-.14C50.36,57.31,49.88,57.46,49.88,57.93Z"/><path class="cls-2" d="M50.92,54.07A.77.77,0,0,0,49.86,54a.47.47,0,0,0-.25.31A1,1,0,0,0,50.92,54.07Z"/><path class="cls-2" d="M54.87,57.14c-1.07,0,.31,1.35.9.93S55.29,56.86,54.87,57.14Z"/><path class="cls-2" d="M39.63,61.49c-.33-.26-.61,0-.8.3-.72.45-1.58,1.52-.9,1.78C38.78,63.89,39.61,62.07,39.63,61.49Z"/><path class="cls-2" d="M37.66,60.1c-.92.18-.48,1.69.39.66C38.6,60.12,38,59.91,37.66,60.1Z"/><path class="cls-2" d="M42.9,62.87a.48.48,0,0,0-.33.42c.34.25,1.26.27,1.49-.18C44.4,62.44,43.21,62.35,42.9,62.87Z"/><path class="cls-2" d="M51.08,60.39l0-.07a.72.72,0,0,0,0,.19c-.05.08-.05.16,0,.19.19.49,1.25.51,1-.11S51.33,60.16,51.08,60.39Z"/><path class="cls-2" d="M60.56,59.08c-.62-.84-1.91,0-1.1.26C59.94,59.68,61.17,59.9,60.56,59.08Z"/><path class="cls-2" d="M38.47,67.11l.13-.22A1.5,1.5,0,0,0,37.92,68c.36.1,1.45-.61,1.42-1.08C39.29,66.15,38.79,66.66,38.47,67.11Z"/><path class="cls-2" d="M48.15,64.74a.27.27,0,0,0,.36.08c.45.05,1.27-.06.92-.53S48.28,64.37,48.15,64.74Z"/><path class="cls-2" d="M34.78,64.27a.83.83,0,0,0-.05.36c.54.19,1.93,0,1.47-.85S34.94,63.63,34.78,64.27Z"/><path class="cls-2" d="M36.69,62h0c-.33,0-.54.12-.56.44a.67.67,0,0,0,.94-.36A.64.64,0,0,0,36.69,62Z"/><path class="cls-3" d="M38.48,81c-2,1.44,8.2,8.71,14.83,8.46a19.55,19.55,0,0,0,16-10.06c1.76-3.6,1.14-13.82-1-13.1-.79.25.17,3.72-3,9-2.82,4.61-7.64,9.16-14,8.85C42.52,83.66,39.81,80,38.48,81Z"/><path class="cls-4" d="M60.36,55.7a.93.93,0,0,0-.83,1.41c.55,1.34,3.88,3.52,4.83,3.15s1-1.46-.4-2.51S61.63,55.87,60.36,55.7Z"/><path class="cls-4" d="M62.09,57.5s3.86-3.93,5-5.4A68.43,68.43,0,0,0,70.7,45a.94.94,0,0,1,.81-.41c.47.09.34.79.34.79s-2.69,5.42-3.78,6.91c-2.22,3-5.14,6.33-5.14,6.33Z"/><path class="cls-4" d="M68.82,50.1c-.24,0-6.37-.79-6.37-.79l-.23.36,3.16.51,3.16.51Z"/><path class="cls-4" d="M55.55,57.16c-6.57,1.65-16.29-3-16.29-3s6.49-7.44,12.06-8S66.55,50,66.55,50,62.15,55.51,55.55,57.16Z"/><path class="cls-5" d="M60.41,56.1a1.35,1.35,0,0,0-.14,1.33,6.9,6.9,0,0,0,2.39,1.87l.15-1.18s-.51-.35-.56-.64a.66.66,0,0,1,0-.45Z"/><path class="cls-5" d="M64.41,50.16a52.29,52.29,0,0,0-11,.1c-5.11.73-12.82,3.13-12.73,3.47s8.44-2.75,12.57-3,11.49,0,11.49,0Z"/><path class="cls-5" d="M61.82,50.34a5.62,5.62,0,0,1-1.07,2,14.28,14.28,0,0,0-1.85,2.82A17,17,0,0,0,61,52.51c.6-.88,1.39-2.12,1.39-2.12Z"/><path class="cls-5" d="M56.7,50.39a8.79,8.79,0,0,1-1.12,3.2c-1.13,2.29-1.59,2.95-1.31,3s1.12-1.68,1.69-2.92,1.45-3.37,1.45-3.37Z"/><path class="cls-5" d="M51.72,50.84a6.12,6.12,0,0,1-.38,2.39c-.51,1.69-1.13,2.64-.9,2.75s.82-1.45,1.17-2.66.85-2.73.85-2.73Z"/><path class="cls-5" d="M46.38,52.09a3.72,3.72,0,0,1-.28,1.41c-.31.86-.8,1.73-.66,1.73a3.06,3.06,0,0,0,.92-1.54c.22-.78.47-1.7.47-1.7Z"/><path class="cls-5" d="M62.42,50.21a7.1,7.1,0,0,0-1.93-1.82,5.92,5.92,0,0,0-2.48-1c-.13.12,1.41.55,2,.9a20.25,20.25,0,0,1,2,1.91Z"/><path class="cls-5" d="M57.17,50.06A4.91,4.91,0,0,0,55.59,48a7.74,7.74,0,0,0-3.5-1.34c-.34.1,2.56.82,3.21,1.45a7,7,0,0,1,1.18,2Z"/><path class="cls-5" d="M52.46,50.59a11.22,11.22,0,0,0-2.36-1.83,10.32,10.32,0,0,0-2.83-.71c-.34,0,2.17.55,2.87,1a14.38,14.38,0,0,1,1.79,1.65Z"/><path class="cls-5" d="M46.37,51.94s-.08-.41-1.25-.84-1.82-.71-1.56-.72a8.13,8.13,0,0,1,1.55.4,10,10,0,0,1,1.83,1Z"/><path class="cls-1" d="M36.62,57.88c5.09,3.68,11.8,15.34,3.91,24.92S21.13,93,12.44,87.33C3.39,81.46-.94,67.14,10,56.89,18.78,48.68,28.94,52.32,36.62,57.88Z"/><path class="cls-2" d="M15.31,56.51h0Z"/><path class="cls-2" d="M16.5,57.72c.59-.28,1.26-.89.7-1.42s-1.33.07-1.87.2C14.6,57.17,14.9,58.48,16.5,57.72Z"/><path class="cls-2" d="M15.34,56.5l.91-.35A1.48,1.48,0,0,0,15.34,56.5Z"/><path class="cls-2" d="M13.71,59.07c.23-.16.53-.5.23-.74a.4.4,0,0,0-.57.12.77.77,0,0,0-.37.49C13,59.43,13.48,59.24,13.71,59.07Z"/><path class="cls-2" d="M17.61,58.77a.54.54,0,0,0-.56,0c-.27,0-.6.13-.66.35a.31.31,0,0,0,0,.13l-.07.06.08,0c.07.24.65.07.86,0S18.07,59,17.61,58.77Z"/><path class="cls-2" d="M16.31,59.33l0,0Z"/><path class="cls-2" d="M18.86,57.45c-.25.07-.54.36-.39.6s.75.15,1,0C20.29,57.62,19.18,57.26,18.86,57.45Z"/><path class="cls-2" d="M19.93,55.9c-.17,0-.5-.11-.63.05a.24.24,0,0,0,0,.3c0,.17.31.33.43.39s1.56.54,1.66.11S20.25,55.94,19.93,55.9Z"/><path class="cls-2" d="M18.51,55c.27.14,1.22.1,1.32-.27s-.52-.47-.77-.44a1.2,1.2,0,0,0-.41.24C18.4,54.68,18.21,54.87,18.51,55Z"/><path class="cls-2" d="M13.88,57.25c.5-.36,0-.56-.38-.49h0c-.22,0-.78.24-.63.55S13.69,57.39,13.88,57.25Z"/><path class="cls-2" d="M11.8,59.57c.19-.21.75-1.12.1-1.16a.51.51,0,0,0-.34.17,1.84,1.84,0,0,0-.65.9C10.66,60.32,11.48,59.94,11.8,59.57Z"/><path class="cls-2" d="M15.3,59.83a1.3,1.3,0,0,0-.86.07,1.7,1.7,0,0,0-1.14.86c-.21.87,1.34.25,1.67.13C15.46,60.73,16,60.09,15.3,59.83Z"/><path class="cls-2" d="M17.9,60.51c-.25.09-.52.29-.51.49,0,.43.89.3,1.14.18C19.48,60.74,18.24,60.32,17.9,60.51Z"/><path class="cls-2" d="M24,55.68a.42.42,0,0,0-.43.17,1.2,1.2,0,0,0,1.78,0A1,1,0,0,0,24,55.68Z"/><path class="cls-2" d="M21.5,57.93c.53.18,2,.28,2.1-.46a1.29,1.29,0,0,0-1.17-.14C22,57.31,21.5,57.46,21.5,57.93Z"/><path class="cls-2" d="M22.54,54.07A.77.77,0,0,0,21.48,54a.47.47,0,0,0-.25.31A1,1,0,0,0,22.54,54.07Z"/><path class="cls-2" d="M26.49,57.14c-1.07,0,.31,1.35.9.93S26.91,56.86,26.49,57.14Z"/><path class="cls-2" d="M11.25,61.49c-.33-.26-.61,0-.8.3-.72.45-1.58,1.52-.9,1.78C10.4,63.89,11.23,62.07,11.25,61.49Z"/><path class="cls-2" d="M9.28,60.1c-.92.18-.48,1.69.39.66C10.22,60.12,9.66,59.91,9.28,60.1Z"/><path class="cls-2" d="M14.52,62.87a.48.48,0,0,0-.33.42c.34.25,1.26.27,1.48-.18C16,62.44,14.83,62.35,14.52,62.87Z"/><path class="cls-2" d="M22.7,60.39l-.05-.07a.72.72,0,0,0,0,.19c-.05.08-.06.16,0,.19.19.49,1.24.51,1-.11S23,60.16,22.7,60.39Z"/><path class="cls-2" d="M32.18,59.08c-.62-.84-1.91,0-1.1.26C31.56,59.68,32.79,59.9,32.18,59.08Z"/><path class="cls-2" d="M10.09,67.11l.13-.22A1.5,1.5,0,0,0,9.54,68c.36.1,1.45-.61,1.42-1.08C10.91,66.15,10.41,66.66,10.09,67.11Z"/><path class="cls-2" d="M19.77,64.74a.27.27,0,0,0,.36.08c.45.05,1.27-.06.92-.53S19.9,64.37,19.77,64.74Z"/><path class="cls-2" d="M6.4,64.27a.7.7,0,0,0-.05.36c.54.19,1.93,0,1.47-.85S6.56,63.63,6.4,64.27Z"/><path class="cls-2" d="M8.31,62h0a.46.46,0,0,0-.57.44.68.68,0,0,0,.95-.36A.64.64,0,0,0,8.31,62Z"/><path class="cls-3" d="M10.1,81c-2,1.44,8.2,8.71,14.83,8.46A19.55,19.55,0,0,0,41,79.38c1.75-3.6,1.14-13.82-1-13.1-.79.25.17,3.72-3,9-2.82,4.61-7.64,9.16-14,8.85C14.14,83.66,11.43,80,10.1,81Z"/><path class="cls-4" d="M32,55.7a.93.93,0,0,0-.83,1.41C31.7,58.45,35,60.63,36,60.26s1-1.46-.4-2.51S33.25,55.87,32,55.7Z"/><path class="cls-4" d="M33.71,57.5s3.85-3.93,5-5.4A68.43,68.43,0,0,0,42.32,45a.94.94,0,0,1,.81-.41c.47.09.34.79.34.79s-2.69,5.42-3.78,6.91c-2.22,3-5.14,6.33-5.14,6.33Z"/><path class="cls-4" d="M40.44,50.1c-.24,0-6.37-.79-6.37-.79l-.23.36,3.16.51,3.16.51Z"/><path class="cls-4" d="M27.17,57.16c-6.57,1.65-16.29-3-16.29-3s6.49-7.44,12.06-8S38.17,50,38.17,50,33.77,55.51,27.17,57.16Z"/><path class="cls-5" d="M32,56.1a1.35,1.35,0,0,0-.14,1.33,6.9,6.9,0,0,0,2.39,1.87l.15-1.18s-.51-.35-.56-.64a.66.66,0,0,1,.05-.45Z"/><path class="cls-5" d="M36,50.16a52.18,52.18,0,0,0-11,.1c-5.11.73-12.82,3.13-12.73,3.47s8.44-2.75,12.57-3,11.49,0,11.49,0Z"/><path class="cls-5" d="M33.44,50.34a5.62,5.62,0,0,1-1.07,2,14.28,14.28,0,0,0-1.85,2.82,17,17,0,0,0,2.14-2.63c.6-.88,1.38-2.12,1.38-2.12Z"/><path class="cls-5" d="M28.32,50.39a8.73,8.73,0,0,1-1.13,3.2c-1.12,2.29-1.58,2.95-1.3,3s1.12-1.68,1.69-2.92S29,50.3,29,50.3Z"/><path class="cls-5" d="M23.34,50.84A6.12,6.12,0,0,1,23,53.23c-.51,1.69-1.13,2.64-.9,2.75s.82-1.45,1.17-2.66.85-2.73.85-2.73Z"/><path class="cls-5" d="M18,52.09a3.72,3.72,0,0,1-.28,1.41c-.31.86-.8,1.73-.66,1.73A3.13,3.13,0,0,0,18,53.69c.22-.78.47-1.7.47-1.7Z"/><path class="cls-5" d="M34,50.21a7.1,7.1,0,0,0-1.93-1.82,5.92,5.92,0,0,0-2.48-1c-.14.12,1.41.55,2,.9a20.25,20.25,0,0,1,2,1.91Z"/><path class="cls-5" d="M28.79,50.06A4.91,4.91,0,0,0,27.21,48a7.78,7.78,0,0,0-3.5-1.34c-.34.1,2.56.82,3.21,1.45a7,7,0,0,1,1.18,2Z"/><path class="cls-5" d="M24.08,50.59a11.22,11.22,0,0,0-2.36-1.83,10.32,10.32,0,0,0-2.83-.71c-.34,0,2.17.55,2.87,1a14.38,14.38,0,0,1,1.79,1.65Z"/><path class="cls-5" d="M18,51.94s-.08-.41-1.25-.84-1.82-.71-1.56-.72a8.13,8.13,0,0,1,1.55.4,10,10,0,0,1,1.83,1Z"/><path class="cls-1" d="M94.24,57.88C99.33,61.56,106,73.22,98.15,82.8S78.74,93,70.05,87.33c-9-5.87-13.37-20.19-2.43-30.44C76.4,48.68,86.55,52.32,94.24,57.88Z"/><path class="cls-2" d="M72.93,56.51h0Z"/><path class="cls-2" d="M74.11,57.72c.6-.28,1.27-.89.71-1.42s-1.33.07-1.87.2C72.21,57.17,72.52,58.48,74.11,57.72Z"/><path class="cls-2" d="M73,56.5l.91-.35A1.45,1.45,0,0,0,73,56.5Z"/><path class="cls-2" d="M71.33,59.07c.22-.16.53-.5.23-.74a.4.4,0,0,0-.57.12.74.74,0,0,0-.37.49C70.57,59.43,71.09,59.24,71.33,59.07Z"/><path class="cls-2" d="M75.23,58.77a.54.54,0,0,0-.56,0c-.27,0-.6.13-.66.35a.2.2,0,0,0,0,.13l-.08.06.08,0c.07.24.66.07.87,0S75.68,59,75.23,58.77Z"/><path class="cls-2" d="M73.92,59.33l0,0Z"/><path class="cls-2" d="M76.48,57.45c-.26.07-.55.36-.4.6s.75.15,1,0C77.9,57.62,76.8,57.26,76.48,57.45Z"/><path class="cls-2" d="M77.55,55.9c-.18,0-.5-.11-.64.05a.26.26,0,0,0,0,.3c0,.17.31.33.43.39s1.56.54,1.65.11S77.87,55.94,77.55,55.9Z"/><path class="cls-2" d="M76.13,55c.27.14,1.22.1,1.32-.27s-.52-.47-.77-.44a1,1,0,0,0-.41.24C76,54.68,75.82,54.87,76.13,55Z"/><path class="cls-2" d="M71.5,57.25c.49-.36,0-.56-.38-.49h0c-.23,0-.79.24-.64.55S71.31,57.39,71.5,57.25Z"/><path class="cls-2" d="M69.42,59.57c.18-.21.75-1.12.1-1.16a.51.51,0,0,0-.34.17,1.87,1.87,0,0,0-.66.9C68.27,60.32,69.09,59.94,69.42,59.57Z"/><path class="cls-2" d="M72.91,59.83a1.28,1.28,0,0,0-.85.07,1.7,1.7,0,0,0-1.14.86c-.22.87,1.34.25,1.67.13C73.08,60.73,73.64,60.09,72.91,59.83Z"/><path class="cls-2" d="M75.51,60.51c-.24.09-.51.29-.51.49,0,.43.9.3,1.15.18C77.1,60.74,75.85,60.32,75.51,60.51Z"/><path class="cls-2" d="M81.63,55.68a.41.41,0,0,0-.42.17,1.2,1.2,0,0,0,1.78,0A1,1,0,0,0,81.63,55.68Z"/><path class="cls-2" d="M79.11,57.93c.54.18,2,.28,2.1-.46a1.27,1.27,0,0,0-1.16-.14C79.6,57.31,79.12,57.46,79.11,57.93Z"/><path class="cls-2" d="M80.16,54.07A.77.77,0,0,0,79.1,54a.51.51,0,0,0-.26.31A1,1,0,0,0,80.16,54.07Z"/><path class="cls-2" d="M84.1,57.14c-1.07,0,.31,1.35.91.93S84.53,56.86,84.1,57.14Z"/><path class="cls-2" d="M68.86,61.49c-.33-.26-.61,0-.8.3-.71.45-1.57,1.52-.89,1.78C68,63.89,68.84,62.07,68.86,61.49Z"/><path class="cls-2" d="M66.9,60.1c-.93.18-.49,1.69.39.66C67.83,60.12,67.27,59.91,66.9,60.1Z"/><path class="cls-2" d="M72.14,62.87a.49.49,0,0,0-.34.42c.35.25,1.26.27,1.49-.18C73.63,62.44,72.44,62.35,72.14,62.87Z"/><path class="cls-2" d="M80.32,60.39l0-.07a.77.77,0,0,0,0,.19c0,.08,0,.16,0,.19.19.49,1.25.51,1-.11S80.57,60.16,80.32,60.39Z"/><path class="cls-2" d="M89.8,59.08c-.62-.84-1.91,0-1.1.26C89.17,59.68,90.41,59.9,89.8,59.08Z"/><path class="cls-2" d="M67.71,67.11l.12-.22A1.53,1.53,0,0,0,67.15,68c.37.1,1.45-.61,1.42-1.08C68.53,66.15,68,66.66,67.71,67.11Z"/><path class="cls-2" d="M77.39,64.74a.27.27,0,0,0,.36.08c.45.05,1.27-.06.92-.53S77.51,64.37,77.39,64.74Z"/><path class="cls-2" d="M64,64.27a.7.7,0,0,0-.06.36c.55.19,1.94,0,1.48-.85S64.18,63.63,64,64.27Z"/><path class="cls-2" d="M65.92,62h0a.46.46,0,0,0-.56.44.68.68,0,0,0,.95-.36A.67.67,0,0,0,65.92,62Z"/><path class="cls-3" d="M67.72,81c-2,1.44,8.19,8.71,14.82,8.46a19.55,19.55,0,0,0,16-10.06c1.75-3.6,1.14-13.82-1.06-13.1-.78.25.18,3.72-3,9-2.83,4.61-7.64,9.16-14,8.85C71.75,83.66,69,80,67.72,81Z"/><path class="cls-4" d="M89.6,55.7a.93.93,0,0,0-.84,1.41c.55,1.34,3.88,3.52,4.84,3.15s1-1.46-.4-2.51S90.87,55.87,89.6,55.7Z"/><path class="cls-4" d="M91.33,57.5s3.85-3.93,5-5.4A68.43,68.43,0,0,0,99.93,45a.94.94,0,0,1,.82-.41c.47.09.33.79.33.79s-2.69,5.42-3.78,6.91c-2.21,3-5.13,6.33-5.13,6.33Z"/><path class="cls-4" d="M98.05,50.1c-.23,0-6.36-.79-6.36-.79l-.24.36,3.17.51,3.16.51Z"/><path class="cls-4" d="M84.79,57.16c-6.57,1.65-16.29-3-16.29-3s6.49-7.44,12.06-8S95.79,50,95.79,50,91.38,55.51,84.79,57.16Z"/><path class="cls-5" d="M89.65,56.1a1.37,1.37,0,0,0-.15,1.33,7,7,0,0,0,2.39,1.87l.16-1.18s-.51-.35-.56-.64a.59.59,0,0,1,.05-.45Z"/><path class="cls-5" d="M93.64,50.16a52.2,52.2,0,0,0-11,.1c-5.11.73-12.83,3.13-12.73,3.47s8.44-2.75,12.56-3,11.49,0,11.49,0Z"/><path class="cls-5" d="M91.05,50.34a5.62,5.62,0,0,1-1.07,2,14.83,14.83,0,0,0-1.85,2.82,16.38,16.38,0,0,0,2.14-2.63c.61-.88,1.39-2.12,1.39-2.12Z"/><path class="cls-5" d="M85.94,50.39a8.73,8.73,0,0,1-1.13,3.2c-1.13,2.29-1.58,2.95-1.3,3s1.12-1.68,1.69-2.92,1.44-3.37,1.44-3.37Z"/><path class="cls-5" d="M81,50.84a6.05,6.05,0,0,1-.39,2.39c-.51,1.69-1.12,2.64-.89,2.75s.82-1.45,1.16-2.66.86-2.73.86-2.73Z"/><path class="cls-5" d="M75.61,52.09a3.81,3.81,0,0,1-.27,1.41c-.31.86-.81,1.73-.66,1.73a3.07,3.07,0,0,0,.91-1.54c.23-.78.48-1.7.48-1.7Z"/><path class="cls-5" d="M91.66,50.21a7.28,7.28,0,0,0-1.93-1.82,5.94,5.94,0,0,0-2.49-1c-.13.12,1.42.55,2,.9a21.46,21.46,0,0,1,2,1.91Z"/><path class="cls-5" d="M86.4,50.06A4.83,4.83,0,0,0,84.83,48a7.77,7.77,0,0,0-3.51-1.34c-.33.1,2.56.82,3.21,1.45a7,7,0,0,1,1.18,2Z"/><path class="cls-5" d="M81.7,50.59a11.22,11.22,0,0,0-2.36-1.83,10.37,10.37,0,0,0-2.84-.71c-.33,0,2.18.55,2.88,1a14.81,14.81,0,0,1,1.78,1.65Z"/><path class="cls-5" d="M75.6,51.94s-.08-.41-1.25-.84-1.81-.71-1.56-.72a8,8,0,0,1,1.55.4,9.88,9.88,0,0,1,1.84,1Z"/></svg>