<svg xmlns="http://www.w3.org/2000/svg" viewBox="0 0 105.29 104.84"><defs><style>.cls-1{isolation:isolate;}.cls-2{fill:#ed7d03;}.cls-3{fill:#ff8c03;}.cls-4{fill:#fcbc08;}.cls-5{fill:#f28106;opacity:0.7;}.cls-6{fill:#7c6a13;}.cls-7{fill:#937b18;}.cls-8{fill:#b86313;}.cls-11,.cls-9{fill:#cc7917;}.cls-10{fill:#9e4727;}.cls-11,.cls-12,.cls-17{opacity:0.5;}.cls-11,.cls-15,.cls-17{mix-blend-mode:multiply;}.cls-13,.cls-16{fill:#fff;}.cls-14,.cls-15{opacity:0.3;}.cls-14{mix-blend-mode:screen;}.cls-16{opacity:0.1;}</style></defs><title>orange20</title><g class="cls-1"><g id="Layer_1" data-name="Layer 1"><path class="cls-2" d="M79,46.63C74.26,45,69.28,41,68.14,35.89H23.91V66.1H81.22V47.24A19.36,19.36,0,0,1,79,46.63Z"/><path class="cls-3" d="M66.44,12.72c3,2.2,6.91,9.14,2.29,14.85s-11.37,6.06-16.46,2.7a11.49,11.49,0,0,1-1.43-18.14C56,7.24,61.94,9.41,66.44,12.72Z"/><path class="cls-4" d="M54,11.9h0Z"/><path class="cls-4" d="M54.65,12.63c.35-.17.74-.53.41-.85s-.78,0-1.09.12C53.53,12.3,53.71,13.08,54.65,12.63Z"/><path class="cls-4" d="M54,11.9l.53-.21A.82.82,0,0,0,54,11.9Z"/><path class="cls-4" d="M53,13.43c.14-.1.31-.3.14-.44a.22.22,0,0,0-.33.07.44.44,0,0,0-.22.29C52.57,13.64,52.88,13.53,53,13.43Z"/><path class="cls-4" d="M55.3,13.25a.35.35,0,0,0-.33,0c-.15,0-.35.08-.38.21a.25.25,0,0,0,0,.08l0,0,0,0c0,.14.39,0,.51,0S55.57,13.39,55.3,13.25Z"/><path class="cls-4" d="M54.54,13.58h0Z"/><path class="cls-4" d="M56,12.46c-.15,0-.32.22-.23.36s.44.09.57,0C56.87,12.57,56.22,12.35,56,12.46Z"/><path class="cls-4" d="M56.66,11.54c-.1,0-.29-.06-.37,0a.14.14,0,0,0,0,.18c0,.1.18.2.25.23s.91.32,1,.06S56.85,11.57,56.66,11.54Z"/><path class="cls-4" d="M55.83,11c.16.09.72.06.77-.16s-.3-.28-.45-.26a.61.61,0,0,0-.24.14C55.76,10.81,55.65,10.93,55.83,11Z"/><path class="cls-4" d="M53.11,12.35c.29-.22,0-.34-.22-.3h0c-.13,0-.46.14-.37.32S53,12.43,53.11,12.35Z"/><path class="cls-4" d="M51.89,13.73c.11-.13.44-.67.06-.69-.07,0-.13,0-.19.1a1.08,1.08,0,0,0-.39.53C51.22,14.17,51.71,14,51.89,13.73Z"/><path class="cls-4" d="M53.94,13.88a.8.8,0,0,0-.5,0,1,1,0,0,0-.66.52c-.13.52.78.14,1,.08S54.37,14,53.94,13.88Z"/><path class="cls-4" d="M55.47,14.29c-.15.05-.3.17-.3.29s.52.18.67.11C56.4,14.43,55.67,14.18,55.47,14.29Z"/><path class="cls-4" d="M59.05,11.41a.25.25,0,0,0-.25.1.7.7,0,0,0,1.05,0A.58.58,0,0,0,59.05,11.41Z"/><path class="cls-4" d="M57.58,12.75c.31.11,1.16.17,1.23-.28a.75.75,0,0,0-.68-.08C57.86,12.38,57.58,12.47,57.58,12.75Z"/><path class="cls-4" d="M58.19,10.45a.44.44,0,0,0-.62-.06.28.28,0,0,0-.15.18A.59.59,0,0,0,58.19,10.45Z"/><path class="cls-4" d="M60.5,12.28c-.62,0,.18.81.53.55S60.75,12.12,60.5,12.28Z"/><path class="cls-4" d="M51.57,14.87c-.19-.15-.36,0-.47.18-.42.27-.92.91-.52,1.06S51.56,15.22,51.57,14.87Z"/><path class="cls-4" d="M50.42,14.05c-.54.1-.29,1,.23.38C51,14.05,50.64,13.93,50.42,14.05Z"/><path class="cls-4" d="M53.49,15.7a.28.28,0,0,0-.2.25c.2.14.74.15.88-.11S53.67,15.39,53.49,15.7Z"/><path class="cls-4" d="M58.28,14.22l0,0a.36.36,0,0,0,0,.11c0,.05,0,.09,0,.11.11.3.73.31.61-.06S58.43,14.08,58.28,14.22Z"/><path class="cls-4" d="M63.84,13.43c-.36-.5-1.12,0-.64.16C63.47,13.79,64.2,13.93,63.84,13.43Z"/><path class="cls-4" d="M50.89,18.22l.08-.13a.9.9,0,0,0-.4.63c.21.06.85-.36.83-.64S51.08,18,50.89,18.22Z"/><path class="cls-4" d="M56.57,16.81a.14.14,0,0,0,.21,0c.26,0,.74,0,.54-.31S56.64,16.59,56.57,16.81Z"/><path class="cls-4" d="M48.73,16.53a.36.36,0,0,0,0,.21c.32.11,1.13,0,.86-.5S48.82,16.15,48.73,16.53Z"/><path class="cls-4" d="M49.85,15.16h0a.27.27,0,0,0-.33.26.4.4,0,0,0,.56-.21A.36.36,0,0,0,49.85,15.16Z"/><path class="cls-5" d="M50.9,26.48c-1.17.86,4.8,5.2,8.69,5.05a11.47,11.47,0,0,0,9.4-6c1-2.14.67-8.23-.62-7.81-.46.15.11,2.22-1.78,5.35-1.65,2.74-4.47,5.45-8.21,5.27C53.26,28.08,51.68,25.91,50.9,26.48Z"/><path class="cls-6" d="M63.72,11.42a.55.55,0,0,0-.49.84c.33.8,2.28,2.1,2.84,1.88s.58-.87-.24-1.5A4.75,4.75,0,0,0,63.72,11.42Z"/><path class="cls-6" d="M64.73,12.49S67,10.15,67.64,9.27a42,42,0,0,0,2.14-4.22s.2-.3.48-.25.19.47.19.47S68.88,8.5,68.24,9.39c-1.3,1.8-3,3.77-3,3.77Z"/><path class="cls-6" d="M68.68,8.09c-.14,0-3.73-.47-3.73-.47l-.14.21,1.85.3,1.86.31Z"/><path class="cls-6" d="M60.91,12.29c-3.86,1-9.55-1.77-9.55-1.77s3.8-4.43,7.06-4.77S67.35,8,67.35,8A13.44,13.44,0,0,1,60.91,12.29Z"/><path class="cls-7" d="M63.75,11.66a.8.8,0,0,0-.08.79,4.16,4.16,0,0,0,1.4,1.12l.09-.71s-.3-.2-.33-.38a.41.41,0,0,1,0-.27Z"/><path class="cls-7" d="M66.09,8.12a30.48,30.48,0,0,0-6.46.06c-3,.43-7.52,1.87-7.46,2.07s4.95-1.64,7.36-1.8,6.74,0,6.74,0Z"/><path class="cls-7" d="M64.58,8.23A3.61,3.61,0,0,1,64,9.41a8.25,8.25,0,0,0-1.09,1.68,10.43,10.43,0,0,0,1.26-1.57c.35-.52.81-1.26.81-1.26Z"/><path class="cls-7" d="M61.58,8.26a5.29,5.29,0,0,1-.66,1.91c-.66,1.36-.93,1.75-.77,1.78s.66-1,1-1.74.85-2,.85-2Z"/><path class="cls-7" d="M58.66,8.53A3.65,3.65,0,0,1,58.43,10c-.29,1-.66,1.57-.52,1.64s.48-.86.68-1.59.5-1.62.5-1.62Z"/><path class="cls-7" d="M55.53,9.27a2.39,2.39,0,0,1-.16.84c-.19.52-.48,1-.39,1a1.87,1.87,0,0,0,.54-.92c.13-.46.27-1,.27-1Z"/><path class="cls-7" d="M64.93,8.15A4.38,4.38,0,0,0,63.8,7.06a3.61,3.61,0,0,0-1.46-.59c-.07.07.83.33,1.15.54a12.81,12.81,0,0,1,1.19,1.13Z"/><path class="cls-7" d="M61.85,8.06a2.91,2.91,0,0,0-.92-1.23A4.68,4.68,0,0,0,58.87,6c-.19.07,1.5.49,1.88.87a4.22,4.22,0,0,1,.7,1.2Z"/><path class="cls-7" d="M59.09,8.38a6.28,6.28,0,0,0-1.38-1.09,6.1,6.1,0,0,0-1.66-.43c-.2,0,1.27.33,1.68.62a8.4,8.4,0,0,1,1.05,1Z"/><path class="cls-7" d="M55.52,9.18s-.05-.24-.73-.5-1.06-.42-.92-.43a4.88,4.88,0,0,1,.91.24,5.66,5.66,0,0,1,1.08.61Z"/><path class="cls-3" d="M46.7,13.83C49.68,16,53.61,23,49,28.68s-11.38,6.06-16.47,2.7A11.47,11.47,0,0,1,31.1,13.25C36.24,8.35,42.19,10.52,46.7,13.83Z"/><path class="cls-4" d="M34.21,13h0Z"/><path class="cls-4" d="M34.9,13.74c.35-.17.74-.53.41-.85s-.78,0-1.09.12C33.79,13.41,34,14.19,34.9,13.74Z"/><path class="cls-4" d="M34.22,13l.54-.21A.88.88,0,0,0,34.22,13Z"/><path class="cls-4" d="M33.27,14.54c.13-.09.31-.3.13-.44s-.25,0-.33.08a.41.41,0,0,0-.22.28C32.82,14.76,33.13,14.64,33.27,14.54Z"/><path class="cls-4" d="M35.55,14.36a.35.35,0,0,0-.33,0c-.15,0-.35.09-.38.21a.28.28,0,0,0,0,.08s0,0,0,0l.05,0c0,.14.38,0,.5,0S35.82,14.51,35.55,14.36Z"/><path class="cls-4" d="M34.79,14.7h0Z"/><path class="cls-4" d="M36.29,13.58c-.15,0-.32.21-.24.36s.44.09.57,0C37.12,13.68,36.47,13.47,36.29,13.58Z"/><path class="cls-4" d="M36.91,12.65c-.1,0-.29-.06-.37,0a.15.15,0,0,0,0,.18c0,.1.18.2.25.23s.91.33,1,.07S37.1,12.68,36.91,12.65Z"/><path class="cls-4" d="M36.08,12.14c.16.08.72.06.77-.17s-.3-.27-.45-.26a.77.77,0,0,0-.24.14C36,11.92,35.9,12,36.08,12.14Z"/><path class="cls-4" d="M33.37,13.46c.29-.22,0-.34-.23-.29h0c-.13,0-.46.15-.37.33S33.25,13.54,33.37,13.46Z"/><path class="cls-4" d="M32.15,14.84c.11-.12.44-.67.06-.69a.3.3,0,0,0-.2.1,1.15,1.15,0,0,0-.39.53C31.48,15.29,32,15.06,32.15,14.84Z"/><path class="cls-4" d="M34.2,15a.78.78,0,0,0-.51,0,1,1,0,0,0-.66.51c-.13.52.78.15,1,.08S34.62,15.15,34.2,15Z"/><path class="cls-4" d="M35.72,15.4c-.14,0-.3.17-.3.29s.53.18.67.11C36.65,15.54,35.92,15.29,35.72,15.4Z"/><path class="cls-4" d="M39.31,12.52a.25.25,0,0,0-.25.1.68.68,0,0,0,1,0A.57.57,0,0,0,39.31,12.52Z"/><path class="cls-4" d="M37.83,13.86c.31.11,1.16.17,1.23-.27a.7.7,0,0,0-.68-.08C38.11,13.49,37.83,13.58,37.83,13.86Z"/><path class="cls-4" d="M38.44,11.56a.44.44,0,0,0-.62-.06.3.3,0,0,0-.15.18A.59.59,0,0,0,38.44,11.56Z"/><path class="cls-4" d="M40.76,13.39c-.63,0,.18.81.52.55S41,13.23,40.76,13.39Z"/><path class="cls-4" d="M31.82,16c-.19-.15-.35,0-.46.18-.43.27-.93.91-.53,1.06S31.81,16.33,31.82,16Z"/><path class="cls-4" d="M30.67,15.16c-.54.1-.28,1,.23.39C31.22,15.17,30.89,15,30.67,15.16Z"/><path class="cls-4" d="M33.74,16.81a.27.27,0,0,0-.19.25c.2.14.73.15.87-.11S33.92,16.5,33.74,16.81Z"/><path class="cls-4" d="M38.54,15.33l0,0a.23.23,0,0,0,0,.11s0,.1,0,.11c.11.3.73.31.61-.06S38.68,15.19,38.54,15.33Z"/><path class="cls-4" d="M44.09,14.55c-.36-.5-1.12,0-.64.16C43.73,14.91,44.45,15,44.09,14.55Z"/><path class="cls-4" d="M31.15,19.34l.07-.14a.92.92,0,0,0-.4.64c.22.05.85-.37.83-.65C31.63,18.76,31.33,19.07,31.15,19.34Z"/><path class="cls-4" d="M36.82,17.92A.16.16,0,0,0,37,18c.26,0,.75,0,.54-.32S36.89,17.7,36.82,17.92Z"/><path class="cls-4" d="M29,17.64a.51.51,0,0,0,0,.22c.32.11,1.14,0,.87-.51S29.08,17.26,29,17.64Z"/><path class="cls-4" d="M30.1,16.28h0a.26.26,0,0,0-.33.26.39.39,0,0,0,.55-.21A.33.33,0,0,0,30.1,16.28Z"/><path class="cls-5" d="M31.15,27.6c-1.17.86,4.8,5.19,8.69,5a11.45,11.45,0,0,0,9.4-6c1-2.14.67-8.23-.61-7.8-.46.15.1,2.21-1.78,5.34-1.66,2.75-4.48,5.45-8.22,5.27C33.52,29.19,31.93,27,31.15,27.6Z"/><path class="cls-6" d="M44,12.54a.54.54,0,0,0-.48.83c.32.8,2.27,2.1,2.83,1.88s.58-.87-.23-1.49A4.64,4.64,0,0,0,44,12.54Z"/><path class="cls-6" d="M45,13.61s2.26-2.34,2.9-3.22A39.83,39.83,0,0,0,50,6.16s.2-.3.48-.24.2.46.2.46-1.58,3.23-2.22,4.12c-1.3,1.81-3,3.77-3,3.77Z"/><path class="cls-6" d="M48.93,9.2c-.14,0-3.73-.47-3.73-.47l-.14.21,1.86.31,1.85.3Z"/><path class="cls-6" d="M41.16,13.4c-3.86,1-9.55-1.76-9.55-1.76s3.8-4.44,7.07-4.77S47.6,9.14,47.6,9.14A13.44,13.44,0,0,1,41.16,13.4Z"/><path class="cls-7" d="M44,12.77a.82.82,0,0,0-.09.79,4,4,0,0,0,1.4,1.12l.09-.7s-.3-.21-.33-.39a.41.41,0,0,1,0-.27Z"/><path class="cls-7" d="M46.34,9.23a30.4,30.4,0,0,0-6.45.06c-3,.44-7.52,1.87-7.47,2.07s4.95-1.64,7.37-1.8,6.73,0,6.73,0Z"/><path class="cls-7" d="M44.83,9.34a3.36,3.36,0,0,1-.63,1.18,8.47,8.47,0,0,0-1.08,1.68,10.21,10.21,0,0,0,1.25-1.56c.35-.53.81-1.27.81-1.27Z"/><path class="cls-7" d="M41.83,9.37a5.29,5.29,0,0,1-.66,1.91c-.66,1.36-.93,1.75-.76,1.79s.65-1,1-1.75.84-2,.84-2Z"/><path class="cls-7" d="M38.91,9.64a3.7,3.7,0,0,1-.22,1.42c-.3,1-.66,1.57-.53,1.64s.48-.86.69-1.59.5-1.62.5-1.62Z"/><path class="cls-7" d="M35.78,10.38a2.39,2.39,0,0,1-.16.84c-.18.52-.47,1-.39,1a1.75,1.75,0,0,0,.54-.91c.13-.47.27-1,.27-1Z"/><path class="cls-7" d="M45.18,9.26a4.07,4.07,0,0,0-1.13-1.08,3.48,3.48,0,0,0-1.46-.6c-.07.07.83.33,1.16.54a12.23,12.23,0,0,1,1.18,1.14Z"/><path class="cls-7" d="M42.1,9.17A2.85,2.85,0,0,0,41.18,8a4.45,4.45,0,0,0-2-.8c-.2.06,1.5.49,1.88.86a4.23,4.23,0,0,1,.69,1.21Z"/><path class="cls-7" d="M39.35,9.49A6.75,6.75,0,0,0,38,8.4,5.58,5.58,0,0,0,36.3,8c-.2,0,1.28.32,1.69.61a8.84,8.84,0,0,1,1,1Z"/><path class="cls-7" d="M35.77,10.3s0-.25-.73-.5-1.06-.43-.91-.43A4.75,4.75,0,0,1,35,9.6a6.49,6.49,0,0,1,1.07.61Z"/><path class="cls-3" d="M80.35,24.4c3,2.2,6.91,9.14,2.29,14.85S71.27,45.31,66.17,42a11.47,11.47,0,0,1-1.42-18.13C69.89,18.92,75.84,21.09,80.35,24.4Z"/><path class="cls-4" d="M67.86,23.59h0Z"/><path class="cls-4" d="M68.55,24.31c.35-.17.75-.53.42-.85s-.78,0-1.1.12C67.44,24,67.62,24.76,68.55,24.31Z"/><path class="cls-4" d="M67.88,23.58l.53-.21A.78.78,0,0,0,67.88,23.58Z"/><path class="cls-4" d="M66.92,25.11c.13-.1.31-.3.14-.44a.23.23,0,0,0-.34.07.43.43,0,0,0-.21.29C66.48,25.32,66.78,25.21,66.92,25.11Z"/><path class="cls-4" d="M69.21,24.93a.35.35,0,0,0-.33,0c-.16,0-.35.08-.39.21a.11.11,0,0,0,0,.08s0,0,0,0l0,0c0,.14.38,0,.51,0S69.47,25.08,69.21,24.93Z"/><path class="cls-4" d="M68.44,25.26l0,0Z"/><path class="cls-4" d="M69.94,24.15c-.15,0-.32.21-.23.36s.44.09.56,0C70.77,24.25,70.13,24,69.94,24.15Z"/><path class="cls-4" d="M70.57,23.22c-.11,0-.29-.06-.37,0a.15.15,0,0,0,0,.18c0,.1.18.2.25.23s.92.33,1,.07S70.75,23.25,70.57,23.22Z"/><path class="cls-4" d="M69.74,22.7c.15.09.71.07.77-.16s-.31-.28-.45-.26a.6.6,0,0,0-.24.14C69.67,22.49,69.56,22.61,69.74,22.7Z"/><path class="cls-4" d="M67,24c.29-.22,0-.34-.22-.3h0c-.14,0-.47.15-.38.33S66.91,24.11,67,24Z"/><path class="cls-4" d="M65.8,25.41c.11-.12.44-.67.06-.69a.3.3,0,0,0-.2.1,1.06,1.06,0,0,0-.38.53C65.13,25.86,65.61,25.63,65.8,25.41Z"/><path class="cls-4" d="M67.85,25.56a.8.8,0,0,0-.5,0,1,1,0,0,0-.67.52c-.12.52.79.15,1,.08S68.27,25.72,67.85,25.56Z"/><path class="cls-4" d="M69.38,26c-.15.05-.31.17-.3.29s.52.18.67.11C70.31,26.11,69.57,25.86,69.38,26Z"/><path class="cls-4" d="M73,23.09a.25.25,0,0,0-.25.1.7.7,0,0,0,1.05,0A.59.59,0,0,0,73,23.09Z"/><path class="cls-4" d="M71.48,24.43c.32.11,1.17.17,1.23-.27a.69.69,0,0,0-.68-.08C71.77,24.06,71.49,24.15,71.48,24.43Z"/><path class="cls-4" d="M72.1,22.13a.44.44,0,0,0-.62-.06.25.25,0,0,0-.15.18A.59.59,0,0,0,72.1,22.13Z"/><path class="cls-4" d="M74.41,24c-.63,0,.18.81.53.55S74.66,23.8,74.41,24Z"/><path class="cls-4" d="M65.48,26.55c-.2-.15-.36,0-.47.18-.42.27-.93.91-.52,1.06S65.47,26.9,65.48,26.55Z"/><path class="cls-4" d="M64.32,25.73c-.54.1-.28,1,.23.39C64.87,25.73,64.55,25.61,64.32,25.73Z"/><path class="cls-4" d="M67.4,27.38a.28.28,0,0,0-.2.25c.2.14.74.15.87-.11S67.58,27.07,67.4,27.38Z"/><path class="cls-4" d="M72.19,25.9l0,0a.43.43,0,0,0,0,.11c0,.05,0,.1,0,.11.11.3.73.31.62-.06S72.34,25.76,72.19,25.9Z"/><path class="cls-4" d="M77.75,25.12c-.37-.51-1.12,0-.65.15C77.38,25.48,78.11,25.61,77.75,25.12Z"/><path class="cls-4" d="M64.8,29.91l.07-.14a.93.93,0,0,0-.4.64c.22.05.85-.37.84-.65C65.28,29.33,65,29.63,64.8,29.91Z"/><path class="cls-4" d="M70.47,28.49a.17.17,0,0,0,.22.05c.26,0,.74,0,.53-.32S70.55,28.27,70.47,28.49Z"/><path class="cls-4" d="M62.64,28.21a.4.4,0,0,0,0,.22c.32.11,1.13,0,.86-.51S62.73,27.83,62.64,28.21Z"/><path class="cls-4" d="M63.75,26.85h0a.27.27,0,0,0-.33.26.39.39,0,0,0,.55-.21A.33.33,0,0,0,63.75,26.85Z"/><path class="cls-5" d="M64.81,38.16c-1.18.86,4.8,5.2,8.68,5.05a11.45,11.45,0,0,0,9.41-6c1-2.14.66-8.23-.62-7.81-.46.16.1,2.22-1.78,5.35C78.85,37.49,76,40.2,72.29,40,67.17,39.76,65.58,37.6,64.81,38.16Z"/><path class="cls-6" d="M77.63,23.11a.54.54,0,0,0-.49.83c.32.8,2.27,2.1,2.83,1.88s.59-.87-.23-1.49A4.66,4.66,0,0,0,77.63,23.11Z"/><path class="cls-6" d="M78.64,24.18S80.9,21.84,81.55,21a41.89,41.89,0,0,0,2.14-4.23s.2-.3.47-.24.2.46.2.46-1.58,3.23-2.21,4.12c-1.3,1.81-3,3.77-3,3.77Z"/><path class="cls-6" d="M82.58,19.77c-.13,0-3.73-.47-3.73-.47l-.13.21,1.85.3,1.85.31Z"/><path class="cls-6" d="M74.81,24C71,25,65.26,22.2,65.26,22.2s3.81-4.43,7.07-4.76,8.93,2.27,8.93,2.27A13.44,13.44,0,0,1,74.81,24Z"/><path class="cls-7" d="M77.66,23.34a.82.82,0,0,0-.09.79A4.16,4.16,0,0,0,79,25.25l.1-.71s-.3-.2-.33-.38a.35.35,0,0,1,0-.27Z"/><path class="cls-7" d="M80,19.8a30.48,30.48,0,0,0-6.46.06c-3,.44-7.52,1.87-7.46,2.07s4.94-1.64,7.36-1.8,6.74,0,6.74,0Z"/><path class="cls-7" d="M78.48,19.91a3.41,3.41,0,0,1-.62,1.18,8.25,8.25,0,0,0-1.09,1.68A10.21,10.21,0,0,0,78,21.21c.36-.53.82-1.27.82-1.27Z"/><path class="cls-7" d="M75.48,19.94a5,5,0,0,1-.66,1.91c-.66,1.36-.92,1.75-.76,1.79s.66-1,1-1.75.85-2,.85-2Z"/><path class="cls-7" d="M72.57,20.21a3.63,3.63,0,0,1-.23,1.42c-.3,1-.66,1.57-.53,1.64s.49-.86.69-1.59.5-1.62.5-1.62Z"/><path class="cls-7" d="M69.43,21a2.13,2.13,0,0,1-.16.84c-.18.52-.47,1-.38,1a1.82,1.82,0,0,0,.53-.92l.28-1Z"/><path class="cls-7" d="M78.84,19.83a4.25,4.25,0,0,0-1.13-1.08,3.53,3.53,0,0,0-1.46-.6c-.08.07.83.33,1.15.54a12.23,12.23,0,0,1,1.18,1.14Z"/><path class="cls-7" d="M75.76,19.74a2.91,2.91,0,0,0-.92-1.23,4.73,4.73,0,0,0-2.06-.8c-.2.07,1.5.5,1.88.87a4.23,4.23,0,0,1,.69,1.2Z"/><path class="cls-7" d="M73,20.06A6.75,6.75,0,0,0,71.61,19,5.58,5.58,0,0,0,70,18.55c-.19,0,1.28.32,1.69.61a9.24,9.24,0,0,1,1,1Z"/><path class="cls-7" d="M69.43,20.87s-.05-.25-.73-.5-1.07-.43-.92-.43a4.57,4.57,0,0,1,.91.23,6.06,6.06,0,0,1,1.07.61Z"/><path class="cls-3" d="M59.78,21.16c3,2.2,6.91,9.14,2.29,14.85s-11.37,6.06-16.46,2.7a11.48,11.48,0,0,1-1.43-18.13C49.33,15.68,55.28,17.85,59.78,21.16Z"/><path class="cls-4" d="M47.29,20.35h0Z"/><path class="cls-4" d="M48,21.07c.35-.17.74-.53.41-.85s-.78,0-1.09.12C46.87,20.74,47.05,21.52,48,21.07Z"/><path class="cls-4" d="M47.31,20.34l.53-.21A.82.82,0,0,0,47.31,20.34Z"/><path class="cls-4" d="M46.35,21.87c.14-.1.31-.3.14-.44a.22.22,0,0,0-.33.07.44.44,0,0,0-.22.29C45.91,22.08,46.22,22,46.35,21.87Z"/><path class="cls-4" d="M48.64,21.69a.35.35,0,0,0-.33,0c-.15,0-.35.08-.38.21a.28.28,0,0,0,0,.08l0,0,0,0c0,.14.39,0,.51,0S48.91,21.84,48.64,21.69Z"/><path class="cls-4" d="M47.88,22l0,0Z"/><path class="cls-4" d="M49.37,20.91c-.15,0-.32.21-.23.36s.44.09.56,0C50.21,21,49.56,20.8,49.37,20.91Z"/><path class="cls-4" d="M50,20c-.1,0-.29-.06-.37,0a.14.14,0,0,0,0,.18c0,.1.18.2.25.23s.91.33,1,.07S50.19,20,50,20Z"/><path class="cls-4" d="M49.17,19.46c.16.09.71.07.77-.16s-.3-.28-.45-.26a.77.77,0,0,0-.24.14C49.1,19.25,49,19.37,49.17,19.46Z"/><path class="cls-4" d="M46.45,20.79c.29-.22,0-.34-.22-.3h0c-.13,0-.46.15-.37.33S46.34,20.87,46.45,20.79Z"/><path class="cls-4" d="M45.23,22.17c.11-.12.44-.67.06-.69a.28.28,0,0,0-.19.1,1.08,1.08,0,0,0-.39.53C44.56,22.62,45.05,22.39,45.23,22.17Z"/><path class="cls-4" d="M47.28,22.32a.8.8,0,0,0-.5,0,1,1,0,0,0-.66.52c-.13.52.78.15,1,.08S47.71,22.48,47.28,22.32Z"/><path class="cls-4" d="M48.81,22.73c-.15.05-.3.17-.3.29s.52.18.67.11C49.74,22.87,49,22.62,48.81,22.73Z"/><path class="cls-4" d="M52.39,19.85a.27.27,0,0,0-.25.1.7.7,0,0,0,1,0A.58.58,0,0,0,52.39,19.85Z"/><path class="cls-4" d="M50.92,21.19c.31.11,1.16.17,1.23-.27a.7.7,0,0,0-.68-.08C51.2,20.82,50.92,20.91,50.92,21.19Z"/><path class="cls-4" d="M51.53,18.89a.44.44,0,0,0-.62-.06.28.28,0,0,0-.15.18A.59.59,0,0,0,51.53,18.89Z"/><path class="cls-4" d="M53.84,20.72c-.62,0,.18.81.53.55S54.09,20.56,53.84,20.72Z"/><path class="cls-4" d="M44.91,23.31c-.19-.15-.36,0-.47.18-.42.27-.92.91-.52,1.06S44.9,23.66,44.91,23.31Z"/><path class="cls-4" d="M43.76,22.49c-.54.1-.29,1,.23.39C44.31,22.49,44,22.37,43.76,22.49Z"/><path class="cls-4" d="M46.83,24.14a.3.3,0,0,0-.2.25c.2.14.74.15.88-.11S47,23.83,46.83,24.14Z"/><path class="cls-4" d="M51.62,22.66l0,0a.43.43,0,0,0,0,.11c0,.05,0,.1,0,.11.11.3.73.31.61-.06S51.77,22.52,51.62,22.66Z"/><path class="cls-4" d="M57.18,21.88c-.36-.51-1.12,0-.64.15C56.81,22.24,57.54,22.37,57.18,21.88Z"/><path class="cls-4" d="M44.23,26.67l.08-.14a.9.9,0,0,0-.4.64c.21,0,.85-.37.83-.65S44.42,26.39,44.23,26.67Z"/><path class="cls-4" d="M49.91,25.25a.16.16,0,0,0,.21.05c.26,0,.74,0,.54-.32S50,25,49.91,25.25Z"/><path class="cls-4" d="M42.07,25a.4.4,0,0,0,0,.22c.32.11,1.13,0,.86-.51S42.16,24.59,42.07,25Z"/><path class="cls-4" d="M43.19,23.61h0a.27.27,0,0,0-.33.26.4.4,0,0,0,.56-.21A.34.34,0,0,0,43.19,23.61Z"/><path class="cls-5" d="M44.24,34.92c-1.17.86,4.8,5.2,8.69,5a11.45,11.45,0,0,0,9.4-6c1-2.14.67-8.23-.62-7.81-.46.16.11,2.22-1.78,5.35-1.65,2.74-4.47,5.45-8.21,5.27C46.6,36.52,45,34.36,44.24,34.92Z"/><path class="cls-6" d="M57.06,19.87a.54.54,0,0,0-.49.83c.33.8,2.28,2.1,2.84,1.88s.58-.87-.24-1.49A4.57,4.57,0,0,0,57.06,19.87Z"/><path class="cls-6" d="M58.07,20.94S60.33,18.6,61,17.72a41.89,41.89,0,0,0,2.14-4.23s.2-.3.48-.24.19.46.19.46-1.57,3.23-2.21,4.12c-1.3,1.81-3,3.77-3,3.77Z"/><path class="cls-6" d="M62,16.53c-.14,0-3.73-.47-3.73-.47l-.14.21,1.85.3,1.85.31Z"/><path class="cls-6" d="M54.24,20.73C50.39,21.71,44.7,19,44.7,19s3.8-4.43,7.06-4.76,8.93,2.27,8.93,2.27A13.44,13.44,0,0,1,54.24,20.73Z"/><path class="cls-7" d="M57.09,20.1a.8.8,0,0,0-.08.79A4.16,4.16,0,0,0,58.41,22l.09-.71s-.3-.2-.33-.38a.41.41,0,0,1,0-.27Z"/><path class="cls-7" d="M59.43,16.56a30.48,30.48,0,0,0-6.46.06c-3,.44-7.52,1.87-7.46,2.07s5-1.64,7.36-1.8,6.74,0,6.74,0Z"/><path class="cls-7" d="M57.92,16.67a3.61,3.61,0,0,1-.63,1.18,8.25,8.25,0,0,0-1.09,1.68A10.43,10.43,0,0,0,57.46,18c.35-.52.81-1.26.81-1.26Z"/><path class="cls-7" d="M54.92,16.7a5.29,5.29,0,0,1-.66,1.91c-.66,1.36-.93,1.75-.77,1.79s.66-1,1-1.75.85-2,.85-2Z"/><path class="cls-7" d="M52,17a3.63,3.63,0,0,1-.23,1.42c-.29,1-.66,1.57-.52,1.64s.48-.86.68-1.59.5-1.62.5-1.62Z"/><path class="cls-7" d="M48.87,17.71a2.39,2.39,0,0,1-.16.84c-.19.52-.48,1-.39,1a1.75,1.75,0,0,0,.53-.92c.14-.46.28-1,.28-1Z"/><path class="cls-7" d="M58.27,16.59a4.25,4.25,0,0,0-1.13-1.08,3.53,3.53,0,0,0-1.46-.6c-.08.07.83.33,1.15.54A12.62,12.62,0,0,1,58,16.59Z"/><path class="cls-7" d="M55.19,16.5a2.91,2.91,0,0,0-.92-1.23,4.68,4.68,0,0,0-2.06-.8c-.19.07,1.5.5,1.88.87a4.36,4.36,0,0,1,.7,1.2Z"/><path class="cls-7" d="M52.43,16.82a6.6,6.6,0,0,0-1.38-1.09,5.66,5.66,0,0,0-1.66-.42c-.2,0,1.27.32,1.68.61a8.4,8.4,0,0,1,1,1Z"/><path class="cls-7" d="M48.86,17.63s0-.25-.73-.5-1.06-.43-.92-.43a4.57,4.57,0,0,1,.91.23,6.29,6.29,0,0,1,1.08.61Z"/><path class="cls-3" d="M69.5,31.36c3,2.19,6.91,9.13,2.29,14.85s-11.37,6-16.46,2.69A11.48,11.48,0,0,1,53.9,30.77C59.05,25.87,65,28,69.5,31.36Z"/><path class="cls-4" d="M57,30.54h0Z"/><path class="cls-4" d="M57.71,31.26c.35-.17.74-.53.41-.85s-.78.05-1.09.13C56.59,30.93,56.77,31.71,57.71,31.26Z"/><path class="cls-4" d="M57,30.53l.53-.2A.87.87,0,0,0,57,30.53Z"/><path class="cls-4" d="M56.07,32.06c.14-.09.31-.29.14-.43a.22.22,0,0,0-.33.07.44.44,0,0,0-.22.29C55.63,32.28,55.94,32.16,56.07,32.06Z"/><path class="cls-4" d="M58.36,31.88a.33.33,0,0,0-.33,0c-.16,0-.35.08-.38.21a.25.25,0,0,0,0,.08l0,0,0,0c0,.14.39,0,.51,0S58.63,32,58.36,31.88Z"/><path class="cls-4" d="M57.6,32.22h0Z"/><path class="cls-4" d="M59.09,31.1c-.15,0-.32.21-.23.36s.44.09.56,0C59.93,31.2,59.28,31,59.09,31.1Z"/><path class="cls-4" d="M59.72,30.18c-.1,0-.29-.07-.37,0a.15.15,0,0,0,0,.18c0,.11.18.2.26.24s.91.32,1,.06S59.91,30.2,59.72,30.18Z"/><path class="cls-4" d="M58.89,29.66c.16.08.71.06.77-.17s-.3-.27-.45-.25a.47.47,0,0,0-.24.14C58.82,29.45,58.71,29.56,58.89,29.66Z"/><path class="cls-4" d="M56.17,31c.29-.21,0-.34-.22-.29h0c-.13,0-.46.15-.37.33S56.06,31.06,56.17,31Z"/><path class="cls-4" d="M55,32.36c.11-.12.44-.67.06-.69a.26.26,0,0,0-.19.1,1.1,1.1,0,0,0-.39.54C54.28,32.81,54.76,32.58,55,32.36Z"/><path class="cls-4" d="M57,32.52a.74.74,0,0,0-.5,0,1,1,0,0,0-.67.51c-.12.52.79.15,1,.08S57.43,32.68,57,32.52Z"/><path class="cls-4" d="M58.53,32.93c-.15,0-.3.16-.3.28s.52.18.67.11C59.46,33.06,58.73,32.81,58.53,32.93Z"/><path class="cls-4" d="M62.11,30a.29.29,0,0,0-.25.1.69.69,0,0,0,1,0A.59.59,0,0,0,62.11,30Z"/><path class="cls-4" d="M60.64,31.38c.31.11,1.16.17,1.23-.27a.75.75,0,0,0-.68-.08C60.92,31,60.64,31.11,60.64,31.38Z"/><path class="cls-4" d="M61.25,29.09a.45.45,0,0,0-.62-.07.34.34,0,0,0-.15.18A.59.59,0,0,0,61.25,29.09Z"/><path class="cls-4" d="M63.56,30.91c-.62,0,.18.81.53.56S63.81,30.75,63.56,30.91Z"/><path class="cls-4" d="M54.63,33.51c-.19-.16-.36,0-.47.18-.42.26-.92.9-.52,1.06S54.62,33.85,54.63,33.51Z"/><path class="cls-4" d="M53.48,32.68c-.54.11-.29,1,.23.39C54,32.69,53.7,32.57,53.48,32.68Z"/><path class="cls-4" d="M56.55,34.33a.28.28,0,0,0-.2.25c.2.15.74.16.88-.11S56.73,34,56.55,34.33Z"/><path class="cls-4" d="M61.34,32.85l0,0a.52.52,0,0,0,0,.11s0,.1,0,.12c.11.29.73.3.61-.07S61.49,32.71,61.34,32.85Z"/><path class="cls-4" d="M66.9,32.07c-.36-.5-1.12,0-.65.16C66.53,32.43,67.26,32.56,66.9,32.07Z"/><path class="cls-4" d="M54,36.86l.08-.13a.85.85,0,0,0-.4.63c.21.06.85-.37.83-.65S54.14,36.59,54,36.86Z"/><path class="cls-4" d="M59.63,35.44a.16.16,0,0,0,.21.05c.26,0,.74,0,.54-.32S59.7,35.22,59.63,35.44Z"/><path class="cls-4" d="M51.79,35.16a.4.4,0,0,0,0,.22c.32.11,1.13,0,.86-.51S51.88,34.78,51.79,35.16Z"/><path class="cls-4" d="M52.91,33.8h0a.27.27,0,0,0-.33.27.41.41,0,0,0,.56-.22A.41.41,0,0,0,52.91,33.8Z"/><path class="cls-5" d="M54,45.12c-1.18.86,4.8,5.19,8.69,5a11.43,11.43,0,0,0,9.4-6c1-2.14.67-8.23-.62-7.8-.46.15.11,2.21-1.78,5.34C68,44.45,65.18,47.16,61.44,47,56.32,46.72,54.74,44.55,54,45.12Z"/><path class="cls-6" d="M66.78,30.06a.55.55,0,0,0-.49.83c.33.8,2.28,2.1,2.84,1.89s.58-.87-.24-1.5A4.71,4.71,0,0,0,66.78,30.06Z"/><path class="cls-6" d="M67.79,31.13s2.26-2.34,2.91-3.22a41.89,41.89,0,0,0,2.14-4.23.55.55,0,0,1,.48-.24c.27,0,.19.47.19.47S71.94,27.13,71.3,28c-1.3,1.81-3,3.78-3,3.78Z"/><path class="cls-6" d="M71.74,26.72c-.14,0-3.73-.47-3.73-.47l-.14.21,1.85.31,1.85.3Z"/><path class="cls-6" d="M64,30.93c-3.85,1-9.55-1.77-9.55-1.77s3.81-4.44,7.07-4.77,8.93,2.27,8.93,2.27A13.5,13.5,0,0,1,64,30.93Z"/><path class="cls-7" d="M66.81,30.3a.8.8,0,0,0-.08.79,4.09,4.09,0,0,0,1.4,1.11l.09-.7s-.3-.21-.33-.38a.39.39,0,0,1,0-.27Z"/><path class="cls-7" d="M69.15,26.75a30.09,30.09,0,0,0-6.46.07c-3,.43-7.52,1.86-7.46,2.06s5-1.64,7.36-1.8,6.74,0,6.74,0Z"/><path class="cls-7" d="M67.64,26.87A3.52,3.52,0,0,1,67,28a8.89,8.89,0,0,0-1.09,1.68,10.21,10.21,0,0,0,1.26-1.56c.35-.53.81-1.27.81-1.27Z"/><path class="cls-7" d="M64.64,26.89A5.29,5.29,0,0,1,64,28.8c-.67,1.36-.93,1.76-.77,1.79s.66-1,1-1.75.85-2,.85-2Z"/><path class="cls-7" d="M61.72,27.16a3.63,3.63,0,0,1-.23,1.42c-.3,1-.66,1.58-.52,1.65s.48-.87.68-1.59.5-1.63.5-1.63Z"/><path class="cls-7" d="M58.59,27.9a2.36,2.36,0,0,1-.16.84c-.19.52-.48,1-.39,1a1.75,1.75,0,0,0,.53-.91c.14-.47.28-1,.28-1Z"/><path class="cls-7" d="M68,26.78a4.43,4.43,0,0,0-1.13-1.08,3.53,3.53,0,0,0-1.46-.6c-.08.07.83.33,1.15.54a12.62,12.62,0,0,1,1.19,1.14Z"/><path class="cls-7" d="M64.91,26.7A2.91,2.91,0,0,0,64,25.47a4.44,4.44,0,0,0-2.06-.8c-.19.06,1.5.49,1.88.86a4.36,4.36,0,0,1,.7,1.21Z"/><path class="cls-7" d="M62.15,27a6.6,6.6,0,0,0-1.38-1.09,5.66,5.66,0,0,0-1.66-.42c-.2,0,1.27.33,1.68.62a8.6,8.6,0,0,1,1.05,1Z"/><path class="cls-7" d="M58.58,27.82s0-.25-.73-.5-1.07-.43-.92-.43a4.16,4.16,0,0,1,.91.24,5.82,5.82,0,0,1,1.08.6Z"/><path class="cls-3" d="M18.66,21.21c-3,2.19-6.92,9.14-2.29,14.85s11.37,6,16.46,2.69a11.48,11.48,0,0,0,1.43-18.13C29.11,15.73,23.16,17.89,18.66,21.21Z"/><path class="cls-4" d="M31.14,20.39h0Z"/><path class="cls-4" d="M30.45,21.11c-.35-.17-.74-.53-.41-.84s.78,0,1.09.12C31.57,20.79,31.38,21.57,30.45,21.11Z"/><path class="cls-4" d="M31.13,20.39l-.54-.21A.83.83,0,0,1,31.13,20.39Z"/><path class="cls-4" d="M32.08,21.92c-.13-.1-.31-.3-.13-.44a.22.22,0,0,1,.33.07.44.44,0,0,1,.22.29C32.53,22.13,32.22,22,32.08,21.92Z"/><path class="cls-4" d="M29.8,21.74a.3.3,0,0,1,.33,0c.15,0,.35.08.38.21a.25.25,0,0,1,0,.08l0,0,0,0c-.05.15-.39,0-.51,0S29.53,21.88,29.8,21.74Z"/><path class="cls-4" d="M30.56,22.07h0Z"/><path class="cls-4" d="M29.06,21c.15.05.32.21.24.36s-.44.09-.57,0C28.23,21.05,28.88,20.84,29.06,21Z"/><path class="cls-4" d="M28.44,20c.1,0,.29-.07.37,0a.14.14,0,0,1,0,.17c0,.11-.18.2-.25.24s-.91.32-1,.06S28.25,20.05,28.44,20Z"/><path class="cls-4" d="M29.27,19.51c-.16.08-.72.06-.77-.16s.3-.28.45-.26a.61.61,0,0,1,.24.14C29.34,19.3,29.45,19.41,29.27,19.51Z"/><path class="cls-4" d="M32,20.83c-.29-.21,0-.33.23-.29h0c.13,0,.46.14.37.32S32.1,20.92,32,20.83Z"/><path class="cls-4" d="M33.2,22.22c-.1-.13-.44-.67-.06-.69a.23.23,0,0,1,.2.1,1.15,1.15,0,0,1,.39.53C33.87,22.66,33.39,22.43,33.2,22.22Z"/><path class="cls-4" d="M31.15,22.37a.76.76,0,0,1,.51,0,1,1,0,0,1,.66.52c.13.51-.78.14-1,.07S30.73,22.53,31.15,22.37Z"/><path class="cls-4" d="M29.63,22.78c.14,0,.3.17.3.29s-.52.18-.67.11C28.7,22.92,29.43,22.66,29.63,22.78Z"/><path class="cls-4" d="M26,19.9a.23.23,0,0,1,.25.1.68.68,0,0,1-1,0A.58.58,0,0,1,26,19.9Z"/><path class="cls-4" d="M27.52,21.24c-.31.11-1.16.16-1.23-.28a.75.75,0,0,1,.68-.08C27.24,20.87,27.52,21,27.52,21.24Z"/><path class="cls-4" d="M26.91,18.94a.44.44,0,0,1,.62-.07.32.32,0,0,1,.15.19A.61.61,0,0,1,26.91,18.94Z"/><path class="cls-4" d="M24.6,20.77c.62,0-.19.8-.53.55S24.35,20.6,24.6,20.77Z"/><path class="cls-4" d="M33.53,23.36c.19-.16.36,0,.47.18.42.27.92.9.52,1.06S33.54,23.7,33.53,23.36Z"/><path class="cls-4" d="M34.68,22.53c.54.11.28,1-.23.39C34.13,22.54,34.46,22.42,34.68,22.53Z"/><path class="cls-4" d="M31.61,24.18a.31.31,0,0,1,.2.25c-.21.15-.74.16-.88-.11S31.43,23.87,31.61,24.18Z"/><path class="cls-4" d="M26.81,22.71l0-.05a.26.26,0,0,1,0,.11c0,.06,0,.1,0,.12-.11.29-.73.3-.61-.07S26.67,22.56,26.81,22.71Z"/><path class="cls-4" d="M21.26,21.92c.36-.5,1.12,0,.64.16C21.62,22.28,20.9,22.41,21.26,21.92Z"/><path class="cls-4" d="M34.21,26.71l-.08-.13a.9.9,0,0,1,.4.63c-.21.06-.85-.37-.83-.65S34,26.44,34.21,26.71Z"/><path class="cls-4" d="M28.53,25.29c-.08.09-.14.09-.21.05-.26,0-.74,0-.54-.31S28.46,25.07,28.53,25.29Z"/><path class="cls-4" d="M36.37,25a.53.53,0,0,1,0,.22c-.32.11-1.14,0-.87-.51S36.27,24.64,36.37,25Z"/><path class="cls-4" d="M35.25,23.65h0c.19,0,.32.07.33.27a.39.39,0,0,1-.55-.22A.4.4,0,0,1,35.25,23.65Z"/><path class="cls-5" d="M34.2,35c1.17.86-4.8,5.19-8.69,5a11.44,11.44,0,0,1-9.4-6c-1-2.15-.67-8.23.62-7.81.45.15-.11,2.22,1.78,5.35C20.16,34.3,23,37,26.72,36.82,31.83,36.57,33.42,34.4,34.2,35Z"/><path class="cls-6" d="M21.38,19.91a.55.55,0,0,1,.48.84c-.32.8-2.27,2.1-2.83,1.88s-.58-.87.23-1.5A4.83,4.83,0,0,1,21.38,19.91Z"/><path class="cls-6" d="M20.36,21s-2.26-2.34-2.9-3.22a39.9,39.9,0,0,1-2.14-4.22s-.2-.3-.48-.25-.2.47-.2.47,1.58,3.23,2.22,4.12c1.3,1.8,3,3.77,3,3.77Z"/><path class="cls-6" d="M16.42,16.57l3.73-.47.14.22-1.86.3-1.85.3Z"/><path class="cls-6" d="M24.19,20.78c3.86,1,9.55-1.77,9.55-1.77s-3.8-4.43-7.06-4.77-8.93,2.27-8.93,2.27A13.5,13.5,0,0,0,24.19,20.78Z"/><path class="cls-7" d="M21.35,20.15a.83.83,0,0,1,.08.79A4.09,4.09,0,0,1,20,22.05l-.09-.7s.3-.21.33-.38a.39.39,0,0,0,0-.27Z"/><path class="cls-7" d="M19,16.61a30.48,30.48,0,0,1,6.46.06c3,.43,7.51,1.86,7.46,2.07S28,17.1,25.56,16.94s-6.73,0-6.73,0Z"/><path class="cls-7" d="M20.52,16.72a3.28,3.28,0,0,0,.63,1.17,8.7,8.7,0,0,1,1.08,1.69A10.55,10.55,0,0,1,21,18c-.35-.53-.81-1.27-.81-1.27Z"/><path class="cls-7" d="M23.52,16.74a5.29,5.29,0,0,0,.66,1.91c.66,1.36.93,1.76.77,1.79s-.66-1-1-1.74-.85-2-.85-2Z"/><path class="cls-7" d="M26.44,17a3.65,3.65,0,0,0,.23,1.42c.29,1,.66,1.57.52,1.64s-.48-.87-.68-1.59-.5-1.63-.5-1.63Z"/><path class="cls-7" d="M29.57,17.76a2.39,2.39,0,0,0,.16.84c.18.51.47,1,.39,1a1.84,1.84,0,0,1-.54-.92c-.13-.46-.27-1-.27-1Z"/><path class="cls-7" d="M20.17,16.64a4.38,4.38,0,0,1,1.13-1.09A3.41,3.41,0,0,1,22.76,15c.07.07-.83.32-1.15.53a11.47,11.47,0,0,0-1.19,1.14Z"/><path class="cls-7" d="M23.25,16.55a2.91,2.91,0,0,1,.92-1.23,4.56,4.56,0,0,1,2.06-.8c.19.06-1.51.49-1.89.87a4.1,4.1,0,0,0-.69,1.2Z"/><path class="cls-7" d="M26,16.86a6.6,6.6,0,0,1,1.38-1.09,5.92,5.92,0,0,1,1.66-.42c.2,0-1.27.33-1.69.62a9.06,9.06,0,0,0-1,1Z"/><path class="cls-7" d="M29.58,17.67s0-.24.73-.5,1.06-.43.92-.43a4.69,4.69,0,0,0-.91.24,5.66,5.66,0,0,0-1.08.61Z"/><path class="cls-3" d="M12.9,34c-3,2.19-6.91,9.14-2.29,14.85s11.37,6,16.46,2.7A11.49,11.49,0,0,0,28.5,33.45C23.35,28.56,17.4,30.72,12.9,34Z"/><path class="cls-4" d="M25.39,33.22h0Z"/><path class="cls-4" d="M24.69,33.94c-.35-.17-.74-.53-.41-.84s.78,0,1.09.12C25.81,33.62,25.62,34.4,24.69,33.94Z"/><path class="cls-4" d="M25.37,33.22,24.84,33A.82.82,0,0,1,25.37,33.22Z"/><path class="cls-4" d="M26.32,34.75c-.13-.1-.31-.3-.13-.44a.22.22,0,0,1,.33.07.44.44,0,0,1,.22.29C26.77,35,26.46,34.85,26.32,34.75Z"/><path class="cls-4" d="M24,34.57a.3.3,0,0,1,.33,0c.15,0,.35.08.38.21a.25.25,0,0,1,0,.08l0,0,0,0c-.05.15-.39,0-.51,0S23.77,34.71,24,34.57Z"/><path class="cls-4" d="M24.8,34.9h0Z"/><path class="cls-4" d="M23.3,33.78c.15,0,.32.22.24.36s-.44.09-.57,0C22.47,33.88,23.12,33.67,23.3,33.78Z"/><path class="cls-4" d="M22.68,32.86c.1,0,.29-.06.37,0a.14.14,0,0,1,0,.18c0,.1-.18.19-.25.23s-.91.32-1,.06S22.49,32.89,22.68,32.86Z"/><path class="cls-4" d="M23.51,32.34c-.16.08-.72.06-.77-.16s.3-.28.45-.26a.61.61,0,0,1,.24.14C23.58,32.13,23.69,32.24,23.51,32.34Z"/><path class="cls-4" d="M26.22,33.66c-.29-.21,0-.33.23-.29h0c.13,0,.46.14.37.32S26.34,33.75,26.22,33.66Z"/><path class="cls-4" d="M27.44,35.05c-.1-.13-.44-.67-.05-.69a.23.23,0,0,1,.19.1A1.15,1.15,0,0,1,28,35C28.12,35.49,27.63,35.26,27.44,35.05Z"/><path class="cls-4" d="M25.39,35.2a.76.76,0,0,1,.51,0,1,1,0,0,1,.66.52c.13.51-.78.14-1,.08S25,35.36,25.39,35.2Z"/><path class="cls-4" d="M23.87,35.61c.14,0,.3.17.3.29s-.52.18-.67.11C22.94,35.75,23.67,35.49,23.87,35.61Z"/><path class="cls-4" d="M20.28,32.73a.23.23,0,0,1,.25.1.69.69,0,0,1-1,0A.57.57,0,0,1,20.28,32.73Z"/><path class="cls-4" d="M21.76,34.07c-.31.11-1.16.16-1.23-.28a.75.75,0,0,1,.68-.08C21.48,33.7,21.76,33.79,21.76,34.07Z"/><path class="cls-4" d="M21.15,31.77a.44.44,0,0,1,.62-.07.32.32,0,0,1,.15.19A.61.61,0,0,1,21.15,31.77Z"/><path class="cls-4" d="M18.84,33.6c.62,0-.18.8-.53.55S18.59,33.43,18.84,33.6Z"/><path class="cls-4" d="M27.77,36.19c.19-.16.36,0,.47.18.42.27.92.9.52,1.06S27.78,36.54,27.77,36.19Z"/><path class="cls-4" d="M28.92,35.36c.54.11.29,1-.23.39C28.37,35.37,28.7,35.25,28.92,35.36Z"/><path class="cls-4" d="M25.85,37a.28.28,0,0,1,.2.24c-.21.15-.74.16-.88-.11S25.67,36.7,25.85,37Z"/><path class="cls-4" d="M21.06,35.54l0,0a.26.26,0,0,1,0,.11c0,.06,0,.1,0,.12-.11.29-.73.3-.61-.07S20.91,35.39,21.06,35.54Z"/><path class="cls-4" d="M15.5,34.75c.36-.5,1.12,0,.64.16C15.86,35.11,15.14,35.25,15.5,34.75Z"/><path class="cls-4" d="M28.45,39.54l-.08-.13a.9.9,0,0,1,.4.63c-.21.06-.85-.36-.83-.65S28.26,39.27,28.45,39.54Z"/><path class="cls-4" d="M22.77,38.12c-.08.09-.14.09-.21.05-.26,0-.74,0-.54-.31S22.7,37.9,22.77,38.12Z"/><path class="cls-4" d="M30.61,37.84a.41.41,0,0,1,0,.22c-.32.11-1.13,0-.87-.51S30.51,37.47,30.61,37.84Z"/><path class="cls-4" d="M29.49,36.48h0c.19,0,.31.07.32.27a.39.39,0,0,1-.55-.22A.41.41,0,0,1,29.49,36.48Z"/><path class="cls-5" d="M28.44,47.8c1.17.86-4.8,5.2-8.69,5a11.44,11.44,0,0,1-9.4-6c-1-2.15-.67-8.23.62-7.81.45.15-.11,2.22,1.78,5.35,1.65,2.74,4.47,5.45,8.21,5.26C26.07,49.4,27.66,47.23,28.44,47.8Z"/><path class="cls-6" d="M15.62,32.74a.55.55,0,0,1,.48.84c-.32.8-2.27,2.1-2.83,1.88s-.58-.87.24-1.5A4.75,4.75,0,0,1,15.62,32.74Z"/><path class="cls-6" d="M14.6,33.81s-2.26-2.34-2.9-3.22a39.9,39.9,0,0,1-2.14-4.22s-.2-.3-.48-.25-.2.47-.2.47,1.58,3.23,2.22,4.12c1.3,1.8,3,3.77,3,3.77Z"/><path class="cls-6" d="M10.66,29.4l3.73-.47.14.22-1.85.3-1.86.31Z"/><path class="cls-6" d="M18.43,33.61c3.86,1,9.55-1.77,9.55-1.77s-3.8-4.43-7.06-4.77S12,29.34,12,29.34A13.43,13.43,0,0,0,18.43,33.61Z"/><path class="cls-7" d="M15.59,33a.8.8,0,0,1,.08.79,4.16,4.16,0,0,1-1.4,1.12l-.09-.71s.3-.2.33-.38a.39.39,0,0,0,0-.27Z"/><path class="cls-7" d="M13.25,29.44a30.48,30.48,0,0,1,6.46.06c3,.43,7.51,1.87,7.46,2.07s-5-1.64-7.37-1.8-6.73,0-6.73,0Z"/><path class="cls-7" d="M14.76,29.55a3.52,3.52,0,0,0,.63,1.17,8.17,8.17,0,0,1,1.08,1.69,10.55,10.55,0,0,1-1.25-1.57c-.35-.53-.81-1.27-.81-1.27Z"/><path class="cls-7" d="M17.76,29.57a5.29,5.29,0,0,0,.66,1.92c.66,1.36.93,1.75.77,1.78s-.66-1-1-1.74-.85-2-.85-2Z"/><path class="cls-7" d="M20.68,29.85a3.65,3.65,0,0,0,.23,1.42c.29,1,.66,1.57.52,1.64s-.48-.86-.68-1.59-.5-1.62-.5-1.62Z"/><path class="cls-7" d="M23.81,30.59a2.39,2.39,0,0,0,.16.84c.19.51.47,1,.39,1a1.84,1.84,0,0,1-.54-.92c-.13-.46-.27-1-.27-1Z"/><path class="cls-7" d="M14.41,29.47a4.38,4.38,0,0,1,1.13-1.09A3.41,3.41,0,0,1,17,27.79c.07.07-.83.32-1.15.53a12.62,12.62,0,0,0-1.19,1.14Z"/><path class="cls-7" d="M17.49,29.38a2.91,2.91,0,0,1,.92-1.23,4.56,4.56,0,0,1,2.06-.8c.19.06-1.5.49-1.89.87a4.1,4.1,0,0,0-.69,1.2Z"/><path class="cls-7" d="M20.25,29.7a6.54,6.54,0,0,1,1.38-1.1,6.39,6.39,0,0,1,1.66-.42c.2,0-1.27.33-1.69.62a9.06,9.06,0,0,0-1,1Z"/><path class="cls-7" d="M23.82,30.5s.05-.24.73-.5,1.06-.43.92-.43a4.69,4.69,0,0,0-.91.24,5.66,5.66,0,0,0-1.08.61Z"/><path class="cls-3" d="M85.62,36.8c3,2.19,6.91,9.14,2.29,14.85S76.53,57.7,71.44,54.34A11.47,11.47,0,0,1,70,36.21C75.16,31.31,81.11,33.48,85.62,36.8Z"/><path class="cls-4" d="M73.13,36h0Z"/><path class="cls-4" d="M73.82,36.7c.35-.17.74-.53.41-.84s-.77,0-1.09.12C72.71,36.38,72.89,37.16,73.82,36.7Z"/><path class="cls-4" d="M73.14,36l.54-.21A.83.83,0,0,0,73.14,36Z"/><path class="cls-4" d="M72.19,37.51c.13-.1.31-.3.13-.44a.22.22,0,0,0-.33.07.44.44,0,0,0-.22.29C71.74,37.72,72.05,37.61,72.19,37.51Z"/><path class="cls-4" d="M74.47,37.33a.3.3,0,0,0-.33,0c-.15,0-.35.08-.38.21a.25.25,0,0,0,0,.08l0,0,.05,0c0,.15.38,0,.5,0S74.74,37.47,74.47,37.33Z"/><path class="cls-4" d="M73.71,37.66h0Z"/><path class="cls-4" d="M75.21,36.54c-.15.05-.32.21-.24.36s.44.09.57,0C76,36.64,75.39,36.43,75.21,36.54Z"/><path class="cls-4" d="M75.83,35.62c-.1,0-.29-.07-.37,0a.14.14,0,0,0,0,.17c0,.11.18.2.25.24s.91.32,1,.06S76,35.64,75.83,35.62Z"/><path class="cls-4" d="M75,35.1c.16.08.72.06.78-.16s-.31-.28-.46-.26a.61.61,0,0,0-.24.14C74.93,34.89,74.82,35,75,35.1Z"/><path class="cls-4" d="M72.29,36.42c.29-.21,0-.33-.22-.29h0c-.13,0-.46.14-.37.32S72.18,36.51,72.29,36.42Z"/><path class="cls-4" d="M71.07,37.81c.11-.13.44-.67.06-.69a.23.23,0,0,0-.2.1,1.06,1.06,0,0,0-.38.53C70.4,38.25,70.88,38,71.07,37.81Z"/><path class="cls-4" d="M73.12,38a.77.77,0,0,0-.51,0,1,1,0,0,0-.66.52c-.13.51.78.14,1,.07S73.54,38.12,73.12,38Z"/><path class="cls-4" d="M74.64,38.37c-.14.05-.3.17-.3.29s.53.17.67.11C75.57,38.5,74.84,38.25,74.64,38.37Z"/><path class="cls-4" d="M78.23,35.48a.26.26,0,0,0-.25.11.68.68,0,0,0,1,0A.59.59,0,0,0,78.23,35.48Z"/><path class="cls-4" d="M76.75,36.83c.32.11,1.16.16,1.23-.28a.75.75,0,0,0-.68-.08C77,36.46,76.75,36.55,76.75,36.83Z"/><path class="cls-4" d="M77.36,34.53a.44.44,0,0,0-.62-.07.32.32,0,0,0-.15.19A.61.61,0,0,0,77.36,34.53Z"/><path class="cls-4" d="M79.68,36.36c-.63,0,.18.8.52.55S79.93,36.19,79.68,36.36Z"/><path class="cls-4" d="M70.74,39c-.19-.16-.35,0-.46.18-.42.27-.93.9-.53,1.06S70.73,39.29,70.74,39Z"/><path class="cls-4" d="M69.59,38.12c-.54.11-.28,1,.23.39C70.14,38.13,69.81,38,69.59,38.12Z"/><path class="cls-4" d="M72.66,39.77a.28.28,0,0,0-.19.25c.2.15.73.16.87-.11S72.84,39.46,72.66,39.77Z"/><path class="cls-4" d="M77.46,38.3l0,0a.26.26,0,0,0,0,.11s0,.1,0,.12c.11.29.73.3.61-.07S77.6,38.15,77.46,38.3Z"/><path class="cls-4" d="M83,37.51c-.36-.5-1.12,0-.64.16C82.65,37.87,83.37,38,83,37.51Z"/><path class="cls-4" d="M70.07,42.3l.07-.13a.9.9,0,0,0-.4.63c.22.06.85-.37.83-.65S70.25,42,70.07,42.3Z"/><path class="cls-4" d="M75.74,40.88c.08.09.14.09.21,0,.26,0,.75,0,.54-.31S75.81,40.66,75.74,40.88Z"/><path class="cls-4" d="M67.9,40.6a.53.53,0,0,0,0,.22c.32.11,1.14,0,.87-.51S68,40.23,67.9,40.6Z"/><path class="cls-4" d="M69,39.24h0c-.19,0-.32.07-.33.27a.39.39,0,0,0,.55-.22A.39.39,0,0,0,69,39.24Z"/><path class="cls-5" d="M70.07,50.56c-1.17.86,4.81,5.19,8.69,5a11.44,11.44,0,0,0,9.4-6c1-2.15.67-8.23-.61-7.81-.46.15.1,2.22-1.78,5.34-1.66,2.75-4.48,5.46-8.22,5.27C72.44,52.16,70.85,50,70.07,50.56Z"/><path class="cls-6" d="M82.89,35.5a.55.55,0,0,0-.48.84c.32.8,2.27,2.1,2.83,1.88s.58-.87-.23-1.5A4.73,4.73,0,0,0,82.89,35.5Z"/><path class="cls-6" d="M83.91,36.57s2.26-2.34,2.9-3.22A39.9,39.9,0,0,0,89,29.13s.2-.3.48-.25.2.47.2.47-1.58,3.23-2.22,4.12c-1.3,1.8-3,3.77-3,3.77Z"/><path class="cls-6" d="M87.85,32.16l-3.73-.47-.14.22,1.86.3,1.85.3Z"/><path class="cls-6" d="M80.08,36.37c-3.86,1-9.55-1.77-9.55-1.77s3.8-4.43,7.07-4.77,8.92,2.27,8.92,2.27A13.5,13.5,0,0,1,80.08,36.37Z"/><path class="cls-7" d="M82.93,35.74a.81.81,0,0,0-.09.79,4.09,4.09,0,0,0,1.4,1.11l.09-.7s-.3-.21-.33-.38a.39.39,0,0,1,0-.27Z"/><path class="cls-7" d="M85.27,32.2a30.51,30.51,0,0,0-6.46.06c-3,.43-7.52,1.86-7.46,2.07s4.94-1.64,7.36-1.8,6.73,0,6.73,0Z"/><path class="cls-7" d="M83.75,32.31a3.28,3.28,0,0,1-.63,1.17A8.7,8.7,0,0,0,82,35.17a10.44,10.44,0,0,0,1.25-1.57c.36-.53.81-1.27.81-1.27Z"/><path class="cls-7" d="M80.75,32.33a5.29,5.29,0,0,1-.66,1.91c-.66,1.36-.93,1.76-.76,1.79s.65-1,1-1.74.84-2,.84-2Z"/><path class="cls-7" d="M77.83,32.61A3.72,3.72,0,0,1,77.61,34c-.3,1-.66,1.57-.53,1.64s.48-.87.69-1.59.5-1.63.5-1.63Z"/><path class="cls-7" d="M74.7,33.35a2.39,2.39,0,0,1-.16.84c-.18.51-.47,1-.39,1a1.84,1.84,0,0,0,.54-.92l.28-1Z"/><path class="cls-7" d="M84.1,32.23A4.19,4.19,0,0,0,83,31.14a3.44,3.44,0,0,0-1.45-.59c-.08.07.82.32,1.15.53a12.23,12.23,0,0,1,1.18,1.14Z"/><path class="cls-7" d="M81,32.14a2.91,2.91,0,0,0-.92-1.23,4.57,4.57,0,0,0-2-.8c-.2.06,1.5.49,1.88.87a4.1,4.1,0,0,1,.69,1.2Z"/><path class="cls-7" d="M78.27,32.45a6.75,6.75,0,0,0-1.39-1.09,5.58,5.58,0,0,0-1.66-.42c-.2,0,1.28.33,1.69.62a9.06,9.06,0,0,1,1,1Z"/><path class="cls-7" d="M74.69,33.26s0-.24-.73-.5-1.06-.43-.91-.43a5.09,5.09,0,0,1,.91.24,5.81,5.81,0,0,1,1.07.61Z"/><path class="cls-3" d="M90.36,46.93c3,2.2,6.91,9.14,2.29,14.85s-11.37,6.06-16.46,2.7a11.49,11.49,0,0,1-1.43-18.14C79.91,41.45,85.86,43.62,90.36,46.93Z"/><path class="cls-4" d="M77.87,46.12h0Z"/><path class="cls-4" d="M78.57,46.84c.35-.17.74-.53.41-.85s-.78,0-1.09.12C77.45,46.51,77.63,47.29,78.57,46.84Z"/><path class="cls-4" d="M77.89,46.11l.53-.21A.82.82,0,0,0,77.89,46.11Z"/><path class="cls-4" d="M76.93,47.64c.14-.1.31-.3.14-.44a.22.22,0,0,0-.33.07.44.44,0,0,0-.22.29C76.49,47.85,76.8,47.74,76.93,47.64Z"/><path class="cls-4" d="M79.22,47.46a.35.35,0,0,0-.33,0c-.16,0-.35.08-.38.21a.25.25,0,0,0,0,.08l0,0,0,0c0,.14.39,0,.51,0S79.49,47.61,79.22,47.46Z"/><path class="cls-4" d="M78.46,47.79l0,0Z"/><path class="cls-4" d="M80,46.68c-.15,0-.32.21-.23.35s.44.09.56,0C80.79,46.78,80.14,46.56,80,46.68Z"/><path class="cls-4" d="M80.58,45.75c-.1,0-.29-.06-.37,0a.15.15,0,0,0,0,.18c0,.1.18.2.25.23s.92.32,1,.07S80.77,45.78,80.58,45.75Z"/><path class="cls-4" d="M79.75,45.23c.16.09.71.07.77-.16s-.3-.28-.45-.26a.55.55,0,0,0-.24.14C79.68,45,79.57,45.14,79.75,45.23Z"/><path class="cls-4" d="M77,46.56c.29-.22,0-.34-.22-.3h0c-.13,0-.46.14-.37.32S76.92,46.64,77,46.56Z"/><path class="cls-4" d="M75.81,47.94c.11-.13.44-.67.06-.69a.23.23,0,0,0-.19.1,1.08,1.08,0,0,0-.39.53C75.14,48.38,75.62,48.16,75.81,47.94Z"/><path class="cls-4" d="M77.86,48.09a.8.8,0,0,0-.5,0,1,1,0,0,0-.67.52c-.12.52.79.15,1,.08S78.29,48.25,77.86,48.09Z"/><path class="cls-4" d="M79.39,48.5c-.15,0-.3.17-.3.29s.52.18.67.11C80.32,48.64,79.59,48.39,79.39,48.5Z"/><path class="cls-4" d="M83,45.62a.25.25,0,0,0-.25.1.7.7,0,0,0,1,0A.58.58,0,0,0,83,45.62Z"/><path class="cls-4" d="M81.5,47c.31.11,1.16.17,1.23-.28a.75.75,0,0,0-.68-.08C81.78,46.59,81.5,46.68,81.5,47Z"/><path class="cls-4" d="M82.11,44.66a.44.44,0,0,0-.62-.06.28.28,0,0,0-.15.18A.59.59,0,0,0,82.11,44.66Z"/><path class="cls-4" d="M84.42,46.49c-.63,0,.18.81.53.55S84.67,46.33,84.42,46.49Z"/><path class="cls-4" d="M75.49,49.08c-.19-.15-.36,0-.47.18-.42.27-.92.91-.52,1.06S75.48,49.43,75.49,49.08Z"/><path class="cls-4" d="M74.34,48.26c-.54.1-.29,1,.23.39C74.89,48.26,74.56,48.14,74.34,48.26Z"/><path class="cls-4" d="M77.41,49.91a.27.27,0,0,0-.2.25c.2.14.74.15.88-.11S77.59,49.6,77.41,49.91Z"/><path class="cls-4" d="M82.2,48.43l0,0a.43.43,0,0,0,0,.11s0,.09,0,.11c.11.3.73.31.61-.06S82.35,48.29,82.2,48.43Z"/><path class="cls-4" d="M87.76,47.65c-.36-.51-1.12,0-.65.15C87.39,48,88.12,48.14,87.76,47.65Z"/><path class="cls-4" d="M74.81,52.43l.08-.13a.87.87,0,0,0-.4.63c.21.06.85-.36.83-.64S75,52.16,74.81,52.43Z"/><path class="cls-4" d="M80.49,51a.14.14,0,0,0,.21,0c.26,0,.74,0,.54-.31S80.56,50.8,80.49,51Z"/><path class="cls-4" d="M72.65,50.74a.38.38,0,0,0,0,.22c.32.1,1.13,0,.86-.51S72.74,50.36,72.65,50.74Z"/><path class="cls-4" d="M73.77,49.37h0a.27.27,0,0,0-.33.26.4.4,0,0,0,.56-.21A.44.44,0,0,0,73.77,49.37Z"/><path class="cls-5" d="M74.82,60.69c-1.18.86,4.8,5.2,8.69,5a11.47,11.47,0,0,0,9.4-6c1-2.14.67-8.23-.62-7.81-.46.16.11,2.22-1.78,5.35C88.86,60,86,62.73,82.3,62.55,77.18,62.29,75.6,60.12,74.82,60.69Z"/><path class="cls-6" d="M87.64,45.63a.55.55,0,0,0-.49.84c.33.8,2.28,2.1,2.84,1.88s.58-.87-.24-1.5A4.8,4.8,0,0,0,87.64,45.63Z"/><path class="cls-6" d="M88.65,46.7s2.26-2.34,2.91-3.22a42,42,0,0,0,2.14-4.22s.2-.3.48-.24.19.46.19.46-1.57,3.23-2.21,4.12c-1.3,1.8-3,3.77-3,3.77Z"/><path class="cls-6" d="M92.6,42.3c-.14,0-3.73-.47-3.73-.47l-.14.21,1.85.3,1.85.31Z"/><path class="cls-6" d="M84.82,46.5c-3.85,1-9.55-1.77-9.55-1.77S79.08,40.3,82.34,40s8.93,2.28,8.93,2.28A13.44,13.44,0,0,1,84.82,46.5Z"/><path class="cls-7" d="M87.67,45.87a.8.8,0,0,0-.08.79A4.16,4.16,0,0,0,89,47.78l.09-.71s-.3-.2-.33-.38a.41.41,0,0,1,0-.27Z"/><path class="cls-7" d="M90,42.33a30.48,30.48,0,0,0-6.46.06c-3,.43-7.52,1.87-7.46,2.07s5-1.64,7.36-1.8,6.74,0,6.74,0Z"/><path class="cls-7" d="M88.49,42.44a3.41,3.41,0,0,1-.62,1.18,8.25,8.25,0,0,0-1.09,1.68A10.43,10.43,0,0,0,88,43.73c.35-.52.81-1.26.81-1.26Z"/><path class="cls-7" d="M85.5,42.47a5.29,5.29,0,0,1-.66,1.91c-.67,1.36-.93,1.75-.77,1.78s.66-1,1-1.74.85-2,.85-2Z"/><path class="cls-7" d="M82.58,42.74a3.65,3.65,0,0,1-.23,1.42c-.3,1-.66,1.57-.52,1.64s.48-.86.68-1.59.5-1.62.5-1.62Z"/><path class="cls-7" d="M79.45,43.48a2.39,2.39,0,0,1-.16.84c-.19.52-.48,1-.39,1a1.75,1.75,0,0,0,.53-.92c.14-.46.28-1,.28-1Z"/><path class="cls-7" d="M88.85,42.36a4.38,4.38,0,0,0-1.13-1.09,3.61,3.61,0,0,0-1.46-.59c-.08.07.83.33,1.15.54a12.81,12.81,0,0,1,1.19,1.13Z"/><path class="cls-7" d="M85.77,42.27A2.91,2.91,0,0,0,84.85,41a4.68,4.68,0,0,0-2.06-.8c-.19.07,1.5.49,1.88.87a4.22,4.22,0,0,1,.7,1.2Z"/><path class="cls-7" d="M83,42.59a6.28,6.28,0,0,0-1.38-1.09A6.1,6.1,0,0,0,80,41.07c-.2,0,1.27.33,1.68.62a8.4,8.4,0,0,1,1,1Z"/><path class="cls-7" d="M79.44,43.39s0-.24-.73-.5-1.07-.42-.92-.43a4.88,4.88,0,0,1,.91.24,5.66,5.66,0,0,1,1.08.61Z"/><path class="cls-3" d="M70.61,47.49c3,2.19,6.92,9.14,2.29,14.85s-11.37,6-16.46,2.69A11.47,11.47,0,0,1,55,46.9C60.16,42,66.11,44.17,70.61,47.49Z"/><path class="cls-4" d="M58.13,46.67h0Z"/><path class="cls-4" d="M58.82,47.39c.35-.17.74-.53.41-.84s-.78,0-1.09.12C57.71,47.07,57.89,47.85,58.82,47.39Z"/><path class="cls-4" d="M58.14,46.67l.54-.21A.83.83,0,0,0,58.14,46.67Z"/><path class="cls-4" d="M57.19,48.2c.13-.1.31-.3.13-.44a.22.22,0,0,0-.33.07.44.44,0,0,0-.22.29C56.74,48.41,57.05,48.3,57.19,48.2Z"/><path class="cls-4" d="M59.47,48a.33.33,0,0,0-.33,0c-.15,0-.35.08-.38.21a.25.25,0,0,0,0,.08l0,0,0,0c0,.15.39,0,.51,0S59.74,48.16,59.47,48Z"/><path class="cls-4" d="M58.71,48.35h0Z"/><path class="cls-4" d="M60.21,47.23c-.15,0-.32.21-.24.36s.44.09.57,0C61,47.33,60.39,47.12,60.21,47.23Z"/><path class="cls-4" d="M60.83,46.31c-.1,0-.29-.07-.37,0a.14.14,0,0,0,0,.17c0,.11.18.2.25.24s.91.32,1,.06S61,46.33,60.83,46.31Z"/><path class="cls-4" d="M60,45.79c.16.08.72.06.77-.16s-.3-.28-.45-.26a.61.61,0,0,0-.24.14C59.93,45.58,59.82,45.69,60,45.79Z"/><path class="cls-4" d="M57.29,47.11c.29-.21,0-.33-.23-.29h0c-.13,0-.46.14-.37.32S57.17,47.2,57.29,47.11Z"/><path class="cls-4" d="M56.07,48.5c.11-.13.44-.67.06-.7a.27.27,0,0,0-.2.11,1.1,1.1,0,0,0-.39.53C55.4,48.94,55.88,48.71,56.07,48.5Z"/><path class="cls-4" d="M58.12,48.65a.76.76,0,0,0-.51,0c-.28.08-.61.3-.66.51-.13.52.78.15,1,.08S58.54,48.81,58.12,48.65Z"/><path class="cls-4" d="M59.64,49.06c-.14,0-.3.17-.3.29s.52.17.67.11C60.57,49.19,59.84,48.94,59.64,49.06Z"/><path class="cls-4" d="M63.23,46.17a.26.26,0,0,0-.25.11.68.68,0,0,0,1,0A.59.59,0,0,0,63.23,46.17Z"/><path class="cls-4" d="M61.75,47.52c.31.11,1.16.16,1.23-.28a.75.75,0,0,0-.68-.08C62,47.15,61.75,47.24,61.75,47.52Z"/><path class="cls-4" d="M62.36,45.22a.44.44,0,0,0-.62-.07.32.32,0,0,0-.15.19A.61.61,0,0,0,62.36,45.22Z"/><path class="cls-4" d="M64.67,47.05c-.62,0,.19.8.53.55S64.92,46.88,64.67,47.05Z"/><path class="cls-4" d="M55.74,49.64c-.19-.16-.35,0-.47.18-.42.27-.92.9-.52,1.06S55.73,50,55.74,49.64Z"/><path class="cls-4" d="M54.59,48.81c-.54.11-.28,1,.23.39C55.14,48.82,54.81,48.7,54.59,48.81Z"/><path class="cls-4" d="M57.66,50.46a.31.31,0,0,0-.2.25c.21.15.74.16.88-.11S57.84,50.15,57.66,50.46Z"/><path class="cls-4" d="M62.46,49l0-.05a.26.26,0,0,0,0,.11c0,.05,0,.1,0,.12.11.29.73.3.61-.07S62.6,48.84,62.46,49Z"/><path class="cls-4" d="M68,48.2c-.36-.5-1.12,0-.64.16C67.65,48.56,68.37,48.69,68,48.2Z"/><path class="cls-4" d="M55.06,53l.08-.13a.9.9,0,0,0-.4.63c.21.06.85-.37.83-.65S55.25,52.72,55.06,53Z"/><path class="cls-4" d="M60.74,51.57a.16.16,0,0,0,.21,0c.26,0,.74,0,.54-.32S60.81,51.35,60.74,51.57Z"/><path class="cls-4" d="M52.9,51.29a.53.53,0,0,0,0,.22c.32.11,1.14,0,.87-.51S53,50.92,52.9,51.29Z"/><path class="cls-4" d="M54,49.93h0a.27.27,0,0,0-.33.27.39.39,0,1,0,.32-.26Z"/><path class="cls-5" d="M55.07,61.25c-1.17.86,4.8,5.19,8.69,5a11.44,11.44,0,0,0,9.4-6c1-2.15.67-8.23-.61-7.81-.46.15.1,2.22-1.79,5.34-1.65,2.75-4.47,5.46-8.21,5.27C57.44,62.85,55.85,60.68,55.07,61.25Z"/><path class="cls-6" d="M67.89,46.19a.55.55,0,0,0-.48.84c.32.8,2.27,2.09,2.83,1.88s.58-.87-.23-1.5A4.73,4.73,0,0,0,67.89,46.19Z"/><path class="cls-6" d="M68.91,47.26s2.26-2.34,2.9-3.22A39.9,39.9,0,0,0,74,39.82s.2-.3.48-.25.2.47.2.47-1.58,3.23-2.22,4.11c-1.3,1.81-3,3.78-3,3.78Z"/><path class="cls-6" d="M72.85,42.85l-3.73-.47L69,42.6l1.86.3,1.85.3Z"/><path class="cls-6" d="M65.08,47.06c-3.86,1-9.55-1.77-9.55-1.77s3.8-4.43,7.07-4.77,8.92,2.27,8.92,2.27A13.5,13.5,0,0,1,65.08,47.06Z"/><path class="cls-7" d="M67.93,46.43a.81.81,0,0,0-.09.79,4.09,4.09,0,0,0,1.4,1.11l.09-.7s-.3-.21-.33-.38A.39.39,0,0,1,69,47Z"/><path class="cls-7" d="M70.26,42.89a29.67,29.67,0,0,0-6.45.06c-3,.43-7.52,1.86-7.47,2.07s4.95-1.64,7.37-1.8,6.73,0,6.73,0Z"/><path class="cls-7" d="M68.75,43a3.28,3.28,0,0,1-.63,1.17A8.7,8.7,0,0,0,67,45.86a11.13,11.13,0,0,0,1.25-1.57c.35-.53.81-1.27.81-1.27Z"/><path class="cls-7" d="M65.75,43a5.29,5.29,0,0,1-.66,1.91c-.66,1.36-.93,1.76-.77,1.79s.66-1,1-1.74.85-2,.85-2Z"/><path class="cls-7" d="M62.83,43.29a3.69,3.69,0,0,1-.23,1.43c-.29,1-.66,1.57-.52,1.64s.48-.87.68-1.59.5-1.63.5-1.63Z"/><path class="cls-7" d="M59.7,44a2.39,2.39,0,0,1-.16.84c-.18.51-.47,1-.39,1a1.84,1.84,0,0,0,.54-.92c.13-.46.27-1,.27-1Z"/><path class="cls-7" d="M69.1,42.92A4.38,4.38,0,0,0,68,41.83a3.41,3.41,0,0,0-1.46-.59c-.07.07.83.32,1.15.53a11.47,11.47,0,0,1,1.19,1.14Z"/><path class="cls-7" d="M66,42.83a2.91,2.91,0,0,0-.92-1.23,4.57,4.57,0,0,0-2-.8c-.2.06,1.5.49,1.88.87a4.1,4.1,0,0,1,.69,1.2Z"/><path class="cls-7" d="M63.26,43.14a6.6,6.6,0,0,0-1.38-1.09,5.58,5.58,0,0,0-1.66-.42c-.2,0,1.27.33,1.69.62a9.06,9.06,0,0,1,1,1Z"/><path class="cls-7" d="M59.69,44s0-.24-.73-.5S57.9,43,58,43a4,4,0,0,1,.91.24,5.66,5.66,0,0,1,1.08.61Z"/><path class="cls-3" d="M51.7,29.69c3,2.19,6.91,9.14,2.29,14.85s-11.37,6.05-16.46,2.69A11.48,11.48,0,0,1,36.1,29.1C41.25,24.2,47.2,26.37,51.7,29.69Z"/><path class="cls-4" d="M39.21,28.87h0Z"/><path class="cls-4" d="M39.91,29.59c.34-.17.74-.53.41-.84s-.78,0-1.09.12C38.79,29.27,39,30.05,39.91,29.59Z"/><path class="cls-4" d="M39.23,28.86l.53-.2A.85.85,0,0,0,39.23,28.86Z"/><path class="cls-4" d="M38.27,30.4c.14-.1.31-.3.14-.44a.22.22,0,0,0-.33.07.44.44,0,0,0-.22.29C37.83,30.61,38.14,30.49,38.27,30.4Z"/><path class="cls-4" d="M40.56,30.21a.33.33,0,0,0-.33,0c-.16,0-.35.08-.38.21a.12.12,0,0,0,0,.08l0,0,0,0c0,.15.38,0,.51,0S40.83,30.36,40.56,30.21Z"/><path class="cls-4" d="M39.8,30.55h0Z"/><path class="cls-4" d="M41.29,29.43c-.15,0-.32.21-.23.36s.44.09.56,0C42.13,29.53,41.48,29.32,41.29,29.43Z"/><path class="cls-4" d="M41.92,28.51c-.1,0-.29-.07-.37,0a.14.14,0,0,0,0,.17c0,.11.18.2.25.24s.92.32,1,.06S42.11,28.53,41.92,28.51Z"/><path class="cls-4" d="M41.09,28c.15.08.71.06.77-.16s-.3-.28-.45-.26a.55.55,0,0,0-.24.14C41,27.78,40.91,27.89,41.09,28Z"/><path class="cls-4" d="M38.37,29.31c.29-.21,0-.33-.22-.29h0c-.13,0-.46.15-.38.33S38.26,29.4,38.37,29.31Z"/><path class="cls-4" d="M37.15,30.69c.11-.12.44-.66.06-.69a.24.24,0,0,0-.19.11,1,1,0,0,0-.39.53C36.48,31.14,37,30.91,37.15,30.69Z"/><path class="cls-4" d="M39.2,30.85a.74.74,0,0,0-.5,0,1,1,0,0,0-.67.51c-.12.52.79.15,1,.08S39.63,31,39.2,30.85Z"/><path class="cls-4" d="M40.73,31.26c-.15,0-.3.17-.3.29s.52.17.67.11C41.66,31.39,40.93,31.14,40.73,31.26Z"/><path class="cls-4" d="M44.31,28.37a.28.28,0,0,0-.25.11.69.69,0,0,0,1,0A.6.6,0,0,0,44.31,28.37Z"/><path class="cls-4" d="M42.84,29.72c.31.11,1.16.16,1.23-.28a.75.75,0,0,0-.68-.08C43.12,29.35,42.84,29.44,42.84,29.72Z"/><path class="cls-4" d="M43.45,27.42a.45.45,0,0,0-.62-.07.34.34,0,0,0-.15.18A.59.59,0,0,0,43.45,27.42Z"/><path class="cls-4" d="M45.76,29.25c-.63,0,.18.8.53.55S46,29.08,45.76,29.25Z"/><path class="cls-4" d="M36.83,31.84c-.19-.16-.36,0-.47.18-.42.27-.92.9-.52,1.06S36.82,32.18,36.83,31.84Z"/><path class="cls-4" d="M35.68,31c-.54.11-.29,1,.23.39C36.23,31,35.9,30.9,35.68,31Z"/><path class="cls-4" d="M38.75,32.66a.28.28,0,0,0-.2.25c.2.15.74.16.87-.11S38.93,32.35,38.75,32.66Z"/><path class="cls-4" d="M43.54,31.18l0,0a.52.52,0,0,0,0,.11c0,.05,0,.1,0,.12.12.29.74.3.62-.07S43.69,31,43.54,31.18Z"/><path class="cls-4" d="M49.1,30.4c-.37-.5-1.12,0-.65.16C48.73,30.76,49.46,30.89,49.1,30.4Z"/><path class="cls-4" d="M36.15,35.19l.08-.13a.87.87,0,0,0-.4.63c.21.06.85-.37.83-.65S36.34,34.92,36.15,35.19Z"/><path class="cls-4" d="M41.83,33.77a.16.16,0,0,0,.21,0c.26,0,.74,0,.54-.32S41.9,33.55,41.83,33.77Z"/><path class="cls-4" d="M34,33.49a.41.41,0,0,0,0,.22c.32.11,1.13,0,.86-.51S34.08,33.12,34,33.49Z"/><path class="cls-4" d="M35.11,32.13h0a.27.27,0,0,0-.33.27.4.4,0,0,0,.56-.22A.41.41,0,0,0,35.11,32.13Z"/><path class="cls-5" d="M36.16,43.45c-1.18.86,4.8,5.19,8.69,5a11.44,11.44,0,0,0,9.4-6c1-2.15.67-8.24-.62-7.81-.46.15.11,2.22-1.78,5.34-1.65,2.75-4.47,5.46-8.21,5.27C38.52,45.05,36.94,42.88,36.16,43.45Z"/><path class="cls-6" d="M49,28.39a.55.55,0,0,0-.49.84c.33.79,2.27,2.09,2.83,1.88s.59-.87-.23-1.5A4.71,4.71,0,0,0,49,28.39Z"/><path class="cls-6" d="M50,29.46s2.26-2.34,2.91-3.22A41.89,41.89,0,0,0,55,22a.55.55,0,0,1,.48-.24c.27.05.19.47.19.47s-1.57,3.23-2.21,4.11c-1.3,1.81-3,3.78-3,3.78Z"/><path class="cls-6" d="M53.94,25.05l-3.73-.47-.14.21,1.85.31,1.85.3Z"/><path class="cls-6" d="M46.16,29.26c-3.85,1-9.55-1.77-9.55-1.77s3.81-4.43,7.07-4.77S52.61,25,52.61,25A13.5,13.5,0,0,1,46.16,29.26Z"/><path class="cls-7" d="M49,28.63a.8.8,0,0,0-.08.79,4,4,0,0,0,1.4,1.11l.09-.7s-.3-.21-.33-.38a.39.39,0,0,1,0-.27Z"/><path class="cls-7" d="M51.35,25.09a29.75,29.75,0,0,0-6.46.06c-3,.43-7.52,1.86-7.46,2.06s4.94-1.63,7.36-1.79,6.74,0,6.74,0Z"/><path class="cls-7" d="M49.83,25.2a3.34,3.34,0,0,1-.62,1.17,8.47,8.47,0,0,0-1.09,1.69,11,11,0,0,0,1.26-1.57c.35-.53.81-1.27.81-1.27Z"/><path class="cls-7" d="M46.84,25.22a5.29,5.29,0,0,1-.66,1.91c-.67,1.36-.93,1.76-.77,1.79s.66-1,1-1.74.85-2,.85-2Z"/><path class="cls-7" d="M43.92,25.49a3.69,3.69,0,0,1-.23,1.43c-.3,1-.66,1.57-.52,1.64s.48-.87.68-1.59.5-1.63.5-1.63Z"/><path class="cls-7" d="M40.79,26.24a2.39,2.39,0,0,1-.16.84c-.19.51-.48,1-.39,1a1.93,1.93,0,0,0,.53-.92l.28-1Z"/><path class="cls-7" d="M50.19,25.12A4.38,4.38,0,0,0,49.06,24a3.53,3.53,0,0,0-1.46-.6c-.08.08.83.33,1.15.54a12.62,12.62,0,0,1,1.19,1.14Z"/><path class="cls-7" d="M47.11,25a2.91,2.91,0,0,0-.92-1.23,4.56,4.56,0,0,0-2.06-.8c-.19.06,1.5.49,1.88.87a4.22,4.22,0,0,1,.7,1.2Z"/><path class="cls-7" d="M44.35,25.34A6.6,6.6,0,0,0,43,24.25a5.66,5.66,0,0,0-1.66-.42c-.2,0,1.27.33,1.68.62a8.6,8.6,0,0,1,1,1Z"/><path class="cls-7" d="M40.78,26.15s-.05-.24-.73-.5-1.07-.43-.92-.43a4.16,4.16,0,0,1,.91.24,5.82,5.82,0,0,1,1.08.6Z"/><path class="cls-3" d="M25.22,45.38c-3,2.2-6.91,9.14-2.29,14.85s11.37,6.06,16.47,2.7a11.48,11.48,0,0,0,1.42-18.14C35.68,39.9,29.73,42.07,25.22,45.38Z"/><path class="cls-4" d="M37.71,44.57h0Z"/><path class="cls-4" d="M37,45.29c-.35-.17-.75-.53-.42-.85s.78,0,1.1.12C38.13,45,38,45.74,37,45.29Z"/><path class="cls-4" d="M37.69,44.56l-.53-.21A.78.78,0,0,1,37.69,44.56Z"/><path class="cls-4" d="M38.65,46.09c-.13-.1-.31-.3-.14-.44a.23.23,0,0,1,.34.07.43.43,0,0,1,.21.29C39.09,46.3,38.79,46.19,38.65,46.09Z"/><path class="cls-4" d="M36.36,45.91a.35.35,0,0,1,.33,0c.16,0,.35.08.39.21a.11.11,0,0,1,0,.08l.05,0-.05,0c0,.14-.38,0-.51,0S36.1,46.06,36.36,45.91Z"/><path class="cls-4" d="M37.13,46.24l0,0Z"/><path class="cls-4" d="M35.63,45.13c.15,0,.32.21.23.35s-.44.1-.56,0C34.8,45.23,35.44,45,35.63,45.13Z"/><path class="cls-4" d="M35,44.2c.11,0,.29-.06.37,0a.15.15,0,0,1,0,.18c0,.1-.18.2-.25.23s-.92.33-1,.07S34.82,44.23,35,44.2Z"/><path class="cls-4" d="M35.83,43.68c-.15.09-.71.07-.77-.16s.31-.28.45-.26a.6.6,0,0,1,.24.14C35.9,43.47,36,43.59,35.83,43.68Z"/><path class="cls-4" d="M38.55,45c-.29-.22,0-.34.22-.3h0c.14,0,.47.14.38.33S38.66,45.09,38.55,45Z"/><path class="cls-4" d="M39.77,46.39c-.11-.13-.44-.67-.06-.69a.3.3,0,0,1,.2.1,1.06,1.06,0,0,1,.38.53C40.44,46.84,40,46.61,39.77,46.39Z"/><path class="cls-4" d="M37.72,46.54a.8.8,0,0,1,.5,0,1,1,0,0,1,.67.52c.12.52-.79.15-1,.08S37.3,46.7,37.72,46.54Z"/><path class="cls-4" d="M36.19,47c.15,0,.31.17.3.29s-.52.18-.67.11C35.26,47.09,36,46.84,36.19,47Z"/><path class="cls-4" d="M32.61,44.07a.25.25,0,0,1,.25.1.7.7,0,0,1-1.05,0A.59.59,0,0,1,32.61,44.07Z"/><path class="cls-4" d="M34.09,45.41c-.32.11-1.17.17-1.24-.27a.75.75,0,0,1,.69-.09C33.8,45,34.08,45.13,34.09,45.41Z"/><path class="cls-4" d="M33.47,43.11a.44.44,0,0,1,.62-.06.25.25,0,0,1,.15.18A.59.59,0,0,1,33.47,43.11Z"/><path class="cls-4" d="M31.16,44.94c.63,0-.18.81-.53.55S30.91,44.78,31.16,44.94Z"/><path class="cls-4" d="M40.09,47.53c.2-.15.36,0,.47.18.42.27.93.91.52,1.06S40.1,47.88,40.09,47.53Z"/><path class="cls-4" d="M41.25,46.71c.54.1.28,1-.23.39C40.7,46.71,41,46.59,41.25,46.71Z"/><path class="cls-4" d="M38.17,48.36a.27.27,0,0,1,.2.25c-.2.14-.74.15-.87-.11S38,48.05,38.17,48.36Z"/><path class="cls-4" d="M33.38,46.88l0,0a.43.43,0,0,1,0,.11s0,.09,0,.11c-.11.3-.73.31-.62-.06S33.23,46.74,33.38,46.88Z"/><path class="cls-4" d="M27.82,46.1c.37-.51,1.12,0,.65.15C28.19,46.46,27.46,46.59,27.82,46.1Z"/><path class="cls-4" d="M40.77,50.88l-.07-.13a.93.93,0,0,1,.4.63c-.22.06-.85-.36-.84-.64S40.58,50.61,40.77,50.88Z"/><path class="cls-4" d="M35.1,49.47a.15.15,0,0,1-.22,0c-.26,0-.74,0-.53-.31S35,49.25,35.1,49.47Z"/><path class="cls-4" d="M42.93,49.19a.38.38,0,0,1,0,.22c-.32.1-1.13,0-.86-.51S42.84,48.81,42.93,49.19Z"/><path class="cls-4" d="M41.82,47.83h0a.27.27,0,0,1,.33.26.39.39,0,0,1-.55-.21A.33.33,0,0,1,41.82,47.83Z"/><path class="cls-5" d="M40.76,59.14c1.18.86-4.8,5.2-8.68,5a11.47,11.47,0,0,1-9.41-6c-1-2.14-.66-8.23.62-7.81.46.16-.1,2.22,1.78,5.35,1.65,2.74,4.48,5.45,8.21,5.27C38.4,60.74,40,58.58,40.76,59.14Z"/><path class="cls-6" d="M27.94,44.09a.54.54,0,0,1,.49.83c-.32.8-2.27,2.1-2.83,1.88s-.59-.87.23-1.5A4.73,4.73,0,0,1,27.94,44.09Z"/><path class="cls-6" d="M26.93,45.16S24.67,42.82,24,41.93a42,42,0,0,1-2.14-4.22s-.2-.3-.47-.24-.2.46-.2.46,1.58,3.23,2.21,4.12c1.3,1.81,3,3.77,3,3.77Z"/><path class="cls-6" d="M23,40.75c.13,0,3.73-.47,3.73-.47l.13.21-1.85.3-1.85.31Z"/><path class="cls-6" d="M30.76,45c3.85,1,9.55-1.77,9.55-1.77s-3.81-4.43-7.07-4.76-8.93,2.27-8.93,2.27A13.44,13.44,0,0,0,30.76,45Z"/><path class="cls-7" d="M27.91,44.32a.82.82,0,0,1,.09.79,4.16,4.16,0,0,1-1.4,1.12l-.1-.71s.3-.2.33-.38a.35.35,0,0,0,0-.27Z"/><path class="cls-7" d="M25.57,40.78a30.48,30.48,0,0,1,6.46.06c3,.44,7.52,1.87,7.46,2.07s-4.94-1.64-7.36-1.8-6.74,0-6.74,0Z"/><path class="cls-7" d="M27.09,40.89a3.41,3.41,0,0,0,.62,1.18,8.25,8.25,0,0,1,1.09,1.68,9.93,9.93,0,0,1-1.25-1.57c-.36-.52-.82-1.26-.82-1.26Z"/><path class="cls-7" d="M30.09,40.92a5,5,0,0,0,.66,1.91c.66,1.36.92,1.75.76,1.78s-.66-1-1-1.74-.85-2-.85-2Z"/><path class="cls-7" d="M33,41.19a3.63,3.63,0,0,0,.23,1.42c.3,1,.66,1.57.52,1.64s-.48-.86-.68-1.59-.5-1.62-.5-1.62Z"/><path class="cls-7" d="M36.14,41.93a2.13,2.13,0,0,0,.16.84c.18.52.47,1,.38,1a1.82,1.82,0,0,1-.53-.92l-.28-1Z"/><path class="cls-7" d="M26.73,40.81a4.25,4.25,0,0,1,1.13-1.08,3.53,3.53,0,0,1,1.46-.6c.08.07-.83.33-1.15.54A12.41,12.41,0,0,0,27,40.8Z"/><path class="cls-7" d="M29.81,40.72a2.91,2.91,0,0,1,.92-1.23,4.73,4.73,0,0,1,2.06-.8c.2.07-1.5.49-1.88.87a4.1,4.1,0,0,0-.69,1.2Z"/><path class="cls-7" d="M32.57,41A6.42,6.42,0,0,1,34,40a5.93,5.93,0,0,1,1.66-.43c.19,0-1.28.33-1.69.62a9.24,9.24,0,0,0-1,1Z"/><path class="cls-7" d="M36.14,41.84s0-.24.73-.5,1.07-.42.92-.42a3.94,3.94,0,0,0-.91.23,6.06,6.06,0,0,0-1.07.61Z"/><path class="cls-3" d="M54.2,47.49c3,2.19,6.92,9.14,2.3,14.85S45.12,68.39,40,65A11.47,11.47,0,0,1,38.61,46.9C43.75,42,49.7,44.17,54.2,47.49Z"/><path class="cls-4" d="M41.72,46.67h0Z"/><path class="cls-4" d="M42.41,47.39c.35-.17.74-.53.41-.84s-.78,0-1.09.12C41.3,47.07,41.48,47.85,42.41,47.39Z"/><path class="cls-4" d="M41.73,46.67l.54-.21A.83.83,0,0,0,41.73,46.67Z"/><path class="cls-4" d="M40.78,48.2c.13-.1.31-.3.13-.44a.22.22,0,0,0-.33.07.44.44,0,0,0-.22.29C40.33,48.41,40.64,48.3,40.78,48.2Z"/><path class="cls-4" d="M43.06,48a.33.33,0,0,0-.33,0c-.15,0-.35.08-.38.21a.25.25,0,0,0,0,.08l0,0,0,0c0,.15.39,0,.51,0S43.33,48.16,43.06,48Z"/><path class="cls-4" d="M42.3,48.35h0Z"/><path class="cls-4" d="M43.8,47.23c-.15,0-.32.21-.24.36s.44.09.57,0C44.63,47.33,44,47.12,43.8,47.23Z"/><path class="cls-4" d="M44.42,46.31c-.1,0-.29-.07-.37,0a.14.14,0,0,0,0,.17c0,.11.18.2.25.24s.91.32,1,.06S44.61,46.33,44.42,46.31Z"/><path class="cls-4" d="M43.59,45.79c.16.08.72.06.77-.16s-.3-.28-.45-.26a.61.61,0,0,0-.24.14C43.52,45.58,43.41,45.69,43.59,45.79Z"/><path class="cls-4" d="M40.88,47.11c.29-.21,0-.33-.23-.29h0c-.13,0-.46.14-.37.32S40.76,47.2,40.88,47.11Z"/><path class="cls-4" d="M39.66,48.5c.11-.13.44-.67.06-.7a.27.27,0,0,0-.2.11,1.1,1.1,0,0,0-.39.53C39,48.94,39.47,48.71,39.66,48.5Z"/><path class="cls-4" d="M41.71,48.65a.77.77,0,0,0-.51,0c-.28.08-.61.3-.66.51-.13.52.78.15,1,.08S42.13,48.81,41.71,48.65Z"/><path class="cls-4" d="M43.23,49.06c-.14,0-.3.17-.3.29s.53.17.67.11C44.16,49.19,43.43,48.94,43.23,49.06Z"/><path class="cls-4" d="M46.82,46.17a.26.26,0,0,0-.25.11.68.68,0,0,0,1,0A.59.59,0,0,0,46.82,46.17Z"/><path class="cls-4" d="M45.34,47.52c.31.11,1.16.16,1.23-.28a.75.75,0,0,0-.68-.08C45.62,47.15,45.34,47.24,45.34,47.52Z"/><path class="cls-4" d="M46,45.22a.44.44,0,0,0-.62-.07.32.32,0,0,0-.15.19A.61.61,0,0,0,46,45.22Z"/><path class="cls-4" d="M48.26,47.05c-.62,0,.19.8.53.55S48.51,46.88,48.26,47.05Z"/><path class="cls-4" d="M39.33,49.64c-.19-.16-.35,0-.47.18-.42.27-.92.9-.52,1.06S39.32,50,39.33,49.64Z"/><path class="cls-4" d="M38.18,48.81c-.54.11-.28,1,.23.39C38.73,48.82,38.4,48.7,38.18,48.81Z"/><path class="cls-4" d="M41.25,50.46a.31.31,0,0,0-.2.25c.21.15.74.16.88-.11S41.43,50.15,41.25,50.46Z"/><path class="cls-4" d="M46.05,49l0-.05a.26.26,0,0,0,0,.11c0,.05,0,.1,0,.12.11.29.73.3.61-.07S46.19,48.84,46.05,49Z"/><path class="cls-4" d="M51.6,48.2c-.36-.5-1.12,0-.64.16C51.24,48.56,52,48.69,51.6,48.2Z"/><path class="cls-4" d="M38.66,53l.07-.13a.9.9,0,0,0-.4.63c.22.06.85-.37.83-.65S38.84,52.72,38.66,53Z"/><path class="cls-4" d="M44.33,51.57a.16.16,0,0,0,.21,0c.26,0,.74,0,.54-.32S44.4,51.35,44.33,51.57Z"/><path class="cls-4" d="M36.49,51.29a.53.53,0,0,0,0,.22c.32.11,1.14,0,.87-.51S36.59,50.92,36.49,51.29Z"/><path class="cls-4" d="M37.61,49.93h0a.27.27,0,0,0-.33.27.39.39,0,1,0,.32-.26Z"/><path class="cls-5" d="M38.66,61.25c-1.17.86,4.8,5.19,8.69,5a11.44,11.44,0,0,0,9.4-6c1-2.15.67-8.23-.61-7.81-.46.15.1,2.22-1.79,5.34-1.65,2.75-4.47,5.46-8.21,5.27C41,62.85,39.44,60.68,38.66,61.25Z"/><path class="cls-6" d="M51.48,46.19A.55.55,0,0,0,51,47c.32.8,2.27,2.09,2.83,1.88s.58-.87-.23-1.5A4.73,4.73,0,0,0,51.48,46.19Z"/><path class="cls-6" d="M52.5,47.26s2.26-2.34,2.9-3.22a39.9,39.9,0,0,0,2.14-4.22s.2-.3.48-.25.2.47.2.47S56.64,43.27,56,44.15c-1.3,1.81-3,3.78-3,3.78Z"/><path class="cls-6" d="M56.44,42.85l-3.73-.47-.14.22,1.86.3,1.85.3Z"/><path class="cls-6" d="M48.67,47.06c-3.86,1-9.55-1.77-9.55-1.77s3.8-4.43,7.07-4.77,8.92,2.27,8.92,2.27A13.5,13.5,0,0,1,48.67,47.06Z"/><path class="cls-7" d="M51.52,46.43a.81.81,0,0,0-.09.79,4.09,4.09,0,0,0,1.4,1.11l.09-.7s-.3-.21-.33-.38a.39.39,0,0,1,0-.27Z"/><path class="cls-7" d="M53.85,42.89A29.67,29.67,0,0,0,47.4,43c-3,.43-7.52,1.86-7.47,2.07s5-1.64,7.37-1.8,6.73,0,6.73,0Z"/><path class="cls-7" d="M52.34,43a3.28,3.28,0,0,1-.63,1.17,8.7,8.7,0,0,0-1.08,1.69,11.13,11.13,0,0,0,1.25-1.57c.35-.53.81-1.27.81-1.27Z"/><path class="cls-7" d="M49.34,43a5.29,5.29,0,0,1-.66,1.91c-.66,1.36-.93,1.76-.76,1.79s.65-1,1-1.74.85-2,.85-2Z"/><path class="cls-7" d="M46.42,43.29a3.69,3.69,0,0,1-.23,1.43c-.29,1-.66,1.57-.52,1.64s.48-.87.68-1.59.5-1.63.5-1.63Z"/><path class="cls-7" d="M43.29,44a2.39,2.39,0,0,1-.16.84c-.18.51-.47,1-.39,1a1.84,1.84,0,0,0,.54-.92c.13-.46.27-1,.27-1Z"/><path class="cls-7" d="M52.69,42.92a4.38,4.38,0,0,0-1.13-1.09,3.41,3.41,0,0,0-1.46-.59c-.07.07.83.32,1.15.53a11.47,11.47,0,0,1,1.19,1.14Z"/><path class="cls-7" d="M49.61,42.83a2.91,2.91,0,0,0-.92-1.23,4.57,4.57,0,0,0-2-.8c-.2.06,1.5.49,1.88.87a4.1,4.1,0,0,1,.69,1.2Z"/><path class="cls-7" d="M46.85,43.14a6.6,6.6,0,0,0-1.38-1.09,5.58,5.58,0,0,0-1.66-.42c-.2,0,1.27.33,1.69.62a9.06,9.06,0,0,1,1,1Z"/><path class="cls-7" d="M43.28,44s0-.24-.73-.5S41.49,43,41.63,43a4.2,4.2,0,0,1,.92.24,5.81,5.81,0,0,1,1.07.61Z"/><path class="cls-3" d="M8,47.13C5,49.33,1.07,56.27,5.69,62S17.07,68,22.16,64.68a11.48,11.48,0,0,0,1.42-18.14C18.44,41.65,12.49,43.82,8,47.13Z"/><path class="cls-4" d="M20.47,46.32h0Z"/><path class="cls-4" d="M19.78,47c-.35-.17-.74-.53-.41-.85s.77,0,1.09.12C20.89,46.71,20.71,47.49,19.78,47Z"/><path class="cls-4" d="M20.46,46.31l-.54-.21A.83.83,0,0,1,20.46,46.31Z"/><path class="cls-4" d="M21.41,47.84c-.13-.1-.31-.3-.13-.44a.22.22,0,0,1,.33.07.44.44,0,0,1,.22.29C21.86,48.05,21.55,47.94,21.41,47.84Z"/><path class="cls-4" d="M19.13,47.66a.35.35,0,0,1,.33,0c.15,0,.35.08.38.21a.25.25,0,0,1,0,.08l0,0-.05,0c0,.14-.38,0-.5,0S18.86,47.81,19.13,47.66Z"/><path class="cls-4" d="M19.89,48l0,0Z"/><path class="cls-4" d="M18.39,46.88c.15,0,.32.21.24.35s-.44.1-.57,0C17.56,47,18.21,46.76,18.39,46.88Z"/><path class="cls-4" d="M17.77,46c.1,0,.29-.06.37,0a.15.15,0,0,1,0,.18c0,.1-.18.2-.25.23s-.91.33-1,.07S17.58,46,17.77,46Z"/><path class="cls-4" d="M18.6,45.43c-.16.09-.72.07-.77-.16s.3-.28.45-.26a.77.77,0,0,1,.24.14C18.67,45.22,18.78,45.34,18.6,45.43Z"/><path class="cls-4" d="M21.31,46.76c-.29-.22,0-.34.22-.3h0c.13,0,.46.14.37.32S21.42,46.84,21.31,46.76Z"/><path class="cls-4" d="M22.53,48.14c-.11-.13-.44-.67-.06-.69a.26.26,0,0,1,.2.1,1.06,1.06,0,0,1,.38.53C23.2,48.59,22.72,48.36,22.53,48.14Z"/><path class="cls-4" d="M20.48,48.29a.83.83,0,0,1,.51,0,1,1,0,0,1,.66.52c.13.52-.78.15-1,.08S20.06,48.45,20.48,48.29Z"/><path class="cls-4" d="M19,48.7c.14,0,.3.17.3.29s-.53.18-.67.11C18,48.84,18.76,48.59,19,48.7Z"/><path class="cls-4" d="M15.37,45.82a.25.25,0,0,1,.25.1.69.69,0,0,1-1,0A.57.57,0,0,1,15.37,45.82Z"/><path class="cls-4" d="M16.85,47.16c-.31.11-1.16.17-1.23-.27a.73.73,0,0,1,.68-.09C16.56,46.79,16.85,46.88,16.85,47.16Z"/><path class="cls-4" d="M16.24,44.86a.44.44,0,0,1,.62-.06A.28.28,0,0,1,17,45,.59.59,0,0,1,16.24,44.86Z"/><path class="cls-4" d="M13.92,46.69c.63,0-.18.81-.52.55S13.68,46.53,13.92,46.69Z"/><path class="cls-4" d="M22.86,49.28c.19-.15.35,0,.46.18.42.27.93.91.53,1.06S22.87,49.63,22.86,49.28Z"/><path class="cls-4" d="M24,48.46c.54.1.28,1-.23.39C23.46,48.46,23.79,48.34,24,48.46Z"/><path class="cls-4" d="M20.94,50.11a.26.26,0,0,1,.19.25c-.2.14-.73.15-.87-.11S20.76,49.8,20.94,50.11Z"/><path class="cls-4" d="M16.14,48.63l0,0a.23.23,0,0,1,0,.11s0,.09,0,.11c-.11.3-.73.31-.61-.06S16,48.49,16.14,48.63Z"/><path class="cls-4" d="M10.59,47.85c.36-.51,1.12,0,.64.15C11,48.21,10.23,48.34,10.59,47.85Z"/><path class="cls-4" d="M23.53,52.63l-.07-.13a.9.9,0,0,1,.4.63c-.22.06-.85-.36-.83-.64S23.35,52.36,23.53,52.63Z"/><path class="cls-4" d="M17.86,51.22a.14.14,0,0,1-.21,0c-.26,0-.75,0-.54-.31S17.79,51,17.86,51.22Z"/><path class="cls-4" d="M25.7,50.94a.49.49,0,0,1,0,.22c-.32.1-1.14,0-.87-.51S25.6,50.56,25.7,50.94Z"/><path class="cls-4" d="M24.58,49.58h0a.26.26,0,0,1,.33.26.39.39,0,0,1-.55-.21A.33.33,0,0,1,24.58,49.58Z"/><path class="cls-5" d="M23.53,60.89c1.17.86-4.81,5.2-8.69,5a11.47,11.47,0,0,1-9.4-6c-1-2.14-.67-8.23.61-7.81.46.16-.1,2.22,1.78,5.35,1.66,2.74,4.48,5.45,8.22,5.27C21.16,62.49,22.75,60.33,23.53,60.89Z"/><path class="cls-6" d="M10.71,45.83a.55.55,0,0,1,.48.84c-.32.8-2.27,2.1-2.83,1.88s-.58-.87.23-1.5A4.83,4.83,0,0,1,10.71,45.83Z"/><path class="cls-6" d="M9.69,46.91s-2.26-2.34-2.9-3.23a39.9,39.9,0,0,1-2.14-4.22s-.2-.3-.48-.24-.2.46-.2.46,1.58,3.23,2.22,4.12c1.3,1.81,3,3.77,3,3.77Z"/><path class="cls-6" d="M5.75,42.5c.14,0,3.73-.47,3.73-.47l.14.21-1.86.3-1.85.31Z"/><path class="cls-6" d="M13.52,46.7c3.86,1,9.55-1.77,9.55-1.77S19.27,40.5,16,40.17s-8.92,2.27-8.92,2.27A13.44,13.44,0,0,0,13.52,46.7Z"/><path class="cls-7" d="M10.67,46.07a.82.82,0,0,1,.09.79A4.16,4.16,0,0,1,9.36,48l-.09-.71s.3-.2.33-.38a.41.41,0,0,0,0-.27Z"/><path class="cls-7" d="M8.34,42.53a30.4,30.4,0,0,1,6.45.06c3,.44,7.52,1.87,7.47,2.07s-5-1.64-7.37-1.8-6.73,0-6.73,0Z"/><path class="cls-7" d="M9.85,42.64a3.36,3.36,0,0,0,.63,1.18,8.47,8.47,0,0,1,1.08,1.68,9.93,9.93,0,0,1-1.25-1.57c-.36-.52-.81-1.26-.81-1.26Z"/><path class="cls-7" d="M12.85,42.67a5.29,5.29,0,0,0,.66,1.91c.66,1.36.93,1.75.76,1.78s-.65-1-1-1.74-.84-2-.84-2Z"/><path class="cls-7" d="M15.77,42.94A3.7,3.7,0,0,0,16,44.36c.3,1,.66,1.57.53,1.64s-.48-.86-.69-1.59-.5-1.62-.5-1.62Z"/><path class="cls-7" d="M18.9,43.68a2.39,2.39,0,0,0,.16.84c.18.52.47,1,.39,1a1.74,1.74,0,0,1-.54-.92c-.13-.46-.27-1-.27-1Z"/><path class="cls-7" d="M9.5,42.56a4.07,4.07,0,0,1,1.13-1.08,3.51,3.51,0,0,1,1.45-.6c.08.07-.82.33-1.15.54a12.41,12.41,0,0,0-1.18,1.13Z"/><path class="cls-7" d="M12.58,42.47a2.91,2.91,0,0,1,.92-1.23,4.7,4.7,0,0,1,2.05-.8c.2.07-1.5.49-1.88.87a4.1,4.1,0,0,0-.69,1.2Z"/><path class="cls-7" d="M15.33,42.79a6.42,6.42,0,0,1,1.39-1.09,6,6,0,0,1,1.66-.43c.2,0-1.28.33-1.69.62a8.84,8.84,0,0,0-1,1Z"/><path class="cls-7" d="M18.91,43.59s0-.24.73-.5,1.06-.42.91-.42a4.06,4.06,0,0,0-.91.23,6.49,6.49,0,0,0-1.07.61Z"/><path class="cls-8" d="M8.58,64.8c1.21,4.8,4.31,16.83,6.17,21.38,2.36,5.73,1.26,8.24,9,9,6.68.67,20.45.36,26.27.21,5.82.15,19.6.46,26.28-.21,7.78-.79,6.68-3.3,9-9,1.87-4.55,5.22-18.45,6.42-23.25Z"/><path class="cls-9" d="M94.06,60.58c-.63-2.28-4.19-1.78-5.9-1.7-.58,0-1.17,0-1.75,0-2.93.06-5.85.09-8.77.13-3.31,0-42.61.84-45.88,1L22,60.33c-2.87.1-5.73.2-8.6.28-.57,0-1.15,0-1.72,0-1.68,0-5.2-.33-5.71,1.93A2.32,2.32,0,0,0,7.72,65.4a14.82,14.82,0,0,0,3.39-.1C14.38,65.1,17.67,65,21,65l9.94-.24L41,64.5c1.23,0,7.54-.08,9.09-.11l8.48-.21,10.28-.26L79,63.7c3.34-.08,6.69-.18,10-.12a15.22,15.22,0,0,0,3.44-.06A2.37,2.37,0,0,0,94.06,60.58Z"/><path class="cls-10" d="M13.09,65.15c-.84-.13-1.05-1.36-1.12-2A4.39,4.39,0,0,1,12.43,61a0,0,0,0,0-.07,0,3.25,3.25,0,0,0-.53,2.72,4,4,0,0,0,.17.63A2.62,2.62,0,0,1,12,61a.06.06,0,0,0-.09-.07,2.88,2.88,0,0,0,.52,4.14h.06a.79.79,0,0,0,.6.25C13.19,65.33,13.18,65.16,13.09,65.15Z"/><path class="cls-10" d="M13.22,65a3.39,3.39,0,0,1-.1-4,.06.06,0,0,0-.09-.08,3.08,3.08,0,0,0-.79,2.07,2.88,2.88,0,0,0,.87,2.15C13.18,65.11,13.27,65,13.22,65Z"/><path class="cls-10" d="M23.13,65a5.29,5.29,0,0,1-.8-4.76.06.06,0,1,0-.11-.05c-.69,1.46-.73,4,.77,5A.1.1,0,0,0,23.13,65Z"/><path class="cls-10" d="M24,65a5.25,5.25,0,0,1-.77-4.67s-.06-.08-.08,0a4,4,0,0,0-.39,2.44c0,.15.06.32.09.49-.07-.15-.15-.31-.21-.47a3.71,3.71,0,0,1,.11-2.46.07.07,0,0,0-.12,0c-.63,1.38-.63,3.39.7,4.4l.05,0a1.93,1.93,0,0,0,.45.49C23.9,65.23,24.05,65.1,24,65Z"/><path class="cls-10" d="M36.33,64.51a6.78,6.78,0,0,1-.93-2.28,4.29,4.29,0,0,1,.21-1.95c0-.13.2-.35.17-.51a.07.07,0,0,0-.07-.06c-.52.1-.71,1.65-.7,2.06a3.32,3.32,0,0,0,1.22,2.83C36.28,64.63,36.37,64.58,36.33,64.51Z"/><path class="cls-10" d="M37.38,64.48c-.85-1.33-1.58-3-1-4.6,0-.08-.07-.11-.11-.05-.72,1.3-.48,4,.95,4.8C37.36,64.69,37.43,64.55,37.38,64.48Z"/><path class="cls-10" d="M51,61.4c-.09-.65,0-1.25,0-1.88,0-.09-.11-.09-.14,0a4.27,4.27,0,0,0,.55,4,.07.07,0,0,0,.11-.07A11.35,11.35,0,0,1,51,61.4Z"/><path class="cls-10" d="M50.94,64.28a8.93,8.93,0,0,1-.86-4.71c0-.1-.12-.11-.14,0a6,6,0,0,0,0,2.6,4.9,4.9,0,0,0,.79,2.25A.12.12,0,0,0,50.94,64.28Z"/><path class="cls-10" d="M50.51,64.47a9.68,9.68,0,0,1-.81-2.28,12,12,0,0,1,0-2.54.08.08,0,1,0-.15,0c-.29,1.51-.52,3.85.77,5C50.4,64.73,50.57,64.59,50.51,64.47Z"/><path class="cls-10" d="M59.51,60.57c0-.34.07-1.15-.16-1.41,0,0-.09,0-.09,0a6.74,6.74,0,0,0,.43,3.67c0,.06.13,0,.12,0C59.72,62.07,59.57,61.33,59.51,60.57Z"/><path class="cls-10" d="M60.51,61.52c0-.78.05-1.56,0-2.33a.08.08,0,0,0-.16,0A9.28,9.28,0,0,0,60.65,64c0,.06.11,0,.1,0C60.7,63.18,60.56,62.35,60.51,61.52Z"/><path class="cls-10" d="M59.92,61.32c-.06-.65,0-1.31,0-2,0-.08-.13-.07-.15,0a6.23,6.23,0,0,0,.44,4.15s.1,0,.09,0A13,13,0,0,1,59.92,61.32Z"/><path class="cls-10" d="M68.36,61.46a15.62,15.62,0,0,0,0-2.37c0-.09-.16-.1-.17,0-.13,1.51-.5,3.72.56,5a.12.12,0,0,0,.2-.12A10.29,10.29,0,0,1,68.36,61.46Z"/><path class="cls-10" d="M69.13,61.69c-.07-.84.09-1.65.08-2.48,0-.11-.15-.09-.17,0-.33,1.37-.73,3.79.43,4.91.07.07.22,0,.2-.12A12.93,12.93,0,0,1,69.13,61.69Z"/><path class="cls-10" d="M81.2,61.71c0-.87-.21-2.4-1-2.94a.06.06,0,0,0-.09.07,9.11,9.11,0,0,1,.62,2.62c.08.74-.28,1.53-.17,2.22,0,.07.1.14.17.1C81.33,63.45,81.21,62.28,81.2,61.71Z"/><path class="cls-10" d="M81.25,58.85a.1.1,0,0,0-.18.1,7,7,0,0,1,.38,4.49c0,.07.06.14.11.07A4.14,4.14,0,0,0,81.25,58.85Z"/><path class="cls-10" d="M91.55,60.55a2.78,2.78,0,0,0-.77-2c-.09-.07-.2,0-.14.14.87,1.32.61,3.21.42,4.67a.15.15,0,0,0,.29.08A7.09,7.09,0,0,0,91.55,60.55Z"/><path class="cls-10" d="M90.44,58.58a.09.09,0,0,0-.16.09A12.12,12.12,0,0,1,90.74,60a10.43,10.43,0,0,1,.12,1.48.15.15,0,0,0,.3,0A3.81,3.81,0,0,0,90.44,58.58Z"/><path class="cls-11" d="M94.06,60.58a2,2,0,0,0-.71-1.07A2.09,2.09,0,0,1,92,60.62a15.46,15.46,0,0,1-3.4.05c-3.3-.05-6.61,0-9.91.12l-10,.22-10.15.25-8.37.2c-1.53,0-7.75.09-9,.11l-10,.22-9.8.23c-3.24.08-6.49.14-9.72.34a14.94,14.94,0,0,1-3.34.1,2.05,2.05,0,0,1-1.47-1.13A2,2,0,0,0,6,62.59,2.32,2.32,0,0,0,7.72,65.4a14.82,14.82,0,0,0,3.39-.1C14.38,65.1,17.67,65,21,65l9.94-.24L41,64.5c1.23,0,7.54-.08,9.09-.11l8.48-.21,10.28-.26L79,63.7c3.34-.08,6.69-.18,10-.12a15.22,15.22,0,0,0,3.44-.06A2.37,2.37,0,0,0,94.06,60.58Z"/><path class="cls-11" d="M81.11,62.75,70.24,63l-11,.27-9.11.22c-1.67,0-8.44.1-9.77.12l-10.84.24-10.68.26c-3.52.09-7,.15-10.57.37-.57,0-1.16.11-1.75.15a2,2,0,0,0,1.25.77,14.82,14.82,0,0,0,3.39-.1C14.38,65.1,17.67,65,21,65l9.94-.24L41,64.5c1.23,0,7.54-.08,9.09-.11l8.48-.21,10.28-.26L79,63.7c3.34-.08,6.69-.18,10-.12a15.22,15.22,0,0,0,3.44-.06,2,2,0,0,0,1.22-.82c-.6,0-1.2-.07-1.78-.07C88.3,62.57,84.71,62.67,81.11,62.75Z"/><g class="cls-12"><path class="cls-13" d="M8.77,61.12a3.06,3.06,0,0,0-1.27.14.16.16,0,0,0,0,.32,4.19,4.19,0,0,0,.5,0,6.48,6.48,0,0,0,.77-.09A.17.17,0,0,0,8.77,61.12Z"/><path class="cls-13" d="M10.11,60.94a1.1,1.1,0,0,0-.54,0,.16.16,0,0,0,0,.31,1.1,1.1,0,0,0,.54,0A.16.16,0,0,0,10.11,60.94Z"/><path class="cls-13" d="M21.45,60.73a26.2,26.2,0,0,0-4.06,0,20.78,20.78,0,0,0-3.7.21.06.06,0,0,0,0,.11,18.28,18.28,0,0,0,3.47.07A35.87,35.87,0,0,0,21.44,61,.14.14,0,0,0,21.45,60.73Z"/><path class="cls-13" d="M33.56,60.54a21.18,21.18,0,0,0-4.21.05c-1.69,0-3.36,0-5,.15-.07,0-.07.12,0,.13,1.56.09,3.14.17,4.71.19a21.5,21.5,0,0,0,4.54-.18A.17.17,0,0,0,33.56,60.54Z"/><path class="cls-13" d="M48.84,60a37.69,37.69,0,0,0-5.52.06,32.49,32.49,0,0,0-5.41.3c-.08,0-.09.15,0,.15,1.72,0,3.4.1,5.12,0a46.88,46.88,0,0,0,5.81-.21A.18.18,0,0,0,48.84,60Z"/><path class="cls-13" d="M57.73,59.91a24.87,24.87,0,0,0-2.59,0c-.89,0-1.81.16-2.69.14a.07.07,0,0,0,0,.14,12.16,12.16,0,0,0,2.34.07,22.48,22.48,0,0,0,3,0A.15.15,0,0,0,57.73,59.91Z"/><path class="cls-13" d="M67.39,59.84c-1.85-.34-3.75.06-5.6,0-.07,0-.08.08,0,.1a14.53,14.53,0,0,0,2.8.14,13.89,13.89,0,0,0,2.81,0A.12.12,0,0,0,67.39,59.84Z"/><path class="cls-13" d="M78.09,59.67c-2.74-.3-5.49,0-8.24-.08-.18,0-.22.27,0,.29a23.73,23.73,0,0,0,3.77.13c1.5-.1,3,0,4.51-.15A.1.1,0,0,0,78.09,59.67Z"/><path class="cls-13" d="M80.08,59.62a1.63,1.63,0,0,0-1.15-.13c-.16,0-.18.29,0,.3a4.93,4.93,0,0,0,1.08.09C80.12,59.86,80.2,59.69,80.08,59.62Z"/><path class="cls-13" d="M89,59.18a30.18,30.18,0,0,0-6.23.16s-.05.08,0,.08a32.42,32.42,0,0,0,6.23,0A.11.11,0,0,0,89,59.18Z"/><path class="cls-13" d="M92.8,59.32a1.51,1.51,0,0,0-.93-.19c-.14,0-.13.22,0,.24.29,0,.55.14.84.16C92.82,59.53,92.91,59.39,92.8,59.32Z"/></g><path class="cls-10" d="M14,74.72a21.05,21.05,0,0,1-.83-3.09,23.13,23.13,0,0,1-.09-3c0-.12-.16-.1-.19,0a10.19,10.19,0,0,0,.8,6.22C13.73,75,14,74.91,14,74.72Z"/><path class="cls-10" d="M16.44,75.47a11.68,11.68,0,0,1-1.17-3,21.74,21.74,0,0,1-.18-3.13c0-.16-.27-.16-.29,0-.17,2.21-.18,4.53,1.35,6.32C16.27,75.77,16.53,75.64,16.44,75.47Z"/><path class="cls-10" d="M18.52,74.45a17.92,17.92,0,0,1-.84-2.6,16.78,16.78,0,0,1-.15-3,.14.14,0,0,0-.28,0,8.51,8.51,0,0,0,1,5.77C18.36,74.76,18.58,74.61,18.52,74.45Z"/><path class="cls-10" d="M18.7,89.34a17.89,17.89,0,0,1-1.26-5,.08.08,0,1,0-.15,0,10.77,10.77,0,0,0,1.21,5.07C18.57,89.57,18.76,89.46,18.7,89.34Z"/><path class="cls-10" d="M20.9,88.88a18,18,0,0,1-1-3.11,9.16,9.16,0,0,0-.46-2.34.12.12,0,0,0-.22.06c.16.87.22,1.77.37,2.65A9.71,9.71,0,0,0,20.62,89,.15.15,0,0,0,20.9,88.88Z"/><path class="cls-10" d="M23.3,89.41A17.36,17.36,0,0,1,22,83.9c0-.17-.31-.18-.32,0a11.2,11.2,0,0,0,1.24,5.66C23.06,89.77,23.4,89.64,23.3,89.41Z"/><path class="cls-10" d="M24.79,82.47a10.34,10.34,0,0,1-1.15-2.89,32.81,32.81,0,0,1-.44-3.43c0-.12-.21-.13-.22,0a10.09,10.09,0,0,0,1.53,6.48C24.62,82.78,24.88,82.63,24.79,82.47Z"/><path class="cls-10" d="M26.6,82.81a25.48,25.48,0,0,1-1-3.29c-.2-1-.26-2.1-.44-3.15a.12.12,0,0,0-.24,0c.26,2.3.37,4.41,1.46,6.5A.12.12,0,0,0,26.6,82.81Z"/><path class="cls-10" d="M28.79,81.63a29.18,29.18,0,0,1-1-4.09.11.11,0,0,0-.21,0,9.51,9.51,0,0,0,1,4.21A.15.15,0,0,0,28.79,81.63Z"/><path class="cls-10" d="M29,76.43a22.06,22.06,0,0,1-.67-2.54c-.15-1-.25-2.1-.38-3.14a.13.13,0,0,0-.26,0,15.07,15.07,0,0,0,1,5.73C28.75,76.65,29,76.6,29,76.43Z"/><path class="cls-10" d="M31.59,76.48a15.67,15.67,0,0,1-1.08-3.06A18.84,18.84,0,0,0,30,70.85a.09.09,0,0,0-.18.05c.37,2,.3,4,1.47,5.76A.18.18,0,0,0,31.59,76.48Z"/><path class="cls-10" d="M32.73,70.83a.07.07,0,0,0-.14,0,43.12,43.12,0,0,0,1,5.15c0,.14.28.08.25-.07C33.58,74.24,33.21,72.5,32.73,70.83Z"/><path class="cls-10" d="M43.1,80.25a.1.1,0,0,0-.19,0,11,11,0,0,0,.2,5.13c0,.18.36.1.32-.09A16.54,16.54,0,0,1,43.1,80.25Z"/><path class="cls-10" d="M44.85,80.47c0-.18-.32-.18-.33,0a15.61,15.61,0,0,0,.61,5.81.15.15,0,0,0,.29-.08A44,44,0,0,1,44.85,80.47Z"/><path class="cls-10" d="M48.85,85.54a22,22,0,0,1-1.15-5.68c0-.18-.27-.13-.27,0a12.79,12.79,0,0,0,1.11,5.77A.17.17,0,0,0,48.85,85.54Z"/><path class="cls-10" d="M50.24,74c0-.09-.17-.09-.17,0a26.94,26.94,0,0,0,.33,6.53.14.14,0,0,0,.28,0A64.3,64.3,0,0,1,50.24,74Z"/><path class="cls-10" d="M52.73,73.43c0-.15-.2-.17-.23,0a13.72,13.72,0,0,0-.09,6.34.14.14,0,0,0,.27,0A29.21,29.21,0,0,1,52.73,73.43Z"/><path class="cls-10" d="M55.11,76.33c-.08-1.16,0-2.33,0-3.48,0-.15-.23-.14-.25,0a13.55,13.55,0,0,0,.66,7.25A.15.15,0,0,0,55.8,80,35.76,35.76,0,0,1,55.11,76.33Z"/><path class="cls-10" d="M66.1,81c.1-1.17.39-2.34.56-3.51a.11.11,0,0,0-.22,0c-.58,2.45-1.19,4.82-.57,7.32a.2.2,0,0,0,.39-.05A17.25,17.25,0,0,1,66.1,81Z"/><path class="cls-10" d="M68.5,78.61a.14.14,0,0,0-.28,0A18.06,18.06,0,0,0,68,85.2a.15.15,0,0,0,.3,0A41,41,0,0,1,68.5,78.61Z"/><path class="cls-10" d="M71.46,80.7a26.8,26.8,0,0,0,.14-3.1c0-.13-.21-.1-.21,0,0,1.12-.29,2.26-.36,3.38a13.39,13.39,0,0,0,.15,3.35.16.16,0,0,0,.31,0C71.45,83.11,71.42,81.91,71.46,80.7Z"/><path class="cls-10" d="M81.44,77.91a16.32,16.32,0,0,0-.88,6.61.12.12,0,0,0,.24,0c.08-1.1.07-2.2.21-3.3s.54-2.18.6-3.27C81.61,77.86,81.47,77.81,81.44,77.91Z"/><path class="cls-10" d="M83.59,78.25c-.37,2.37-1,4.69-.74,7.12,0,.21.37.22.38,0a36.28,36.28,0,0,1,.2-3.76c.12-1.11.39-2.21.42-3.33A.13.13,0,0,0,83.59,78.25Z"/><path class="cls-10" d="M72.56,88.54c0-.78.16-1.56.18-2.34a.08.08,0,0,0-.15,0,6.36,6.36,0,0,0-.34,2.34,9.43,9.43,0,0,0,.23,2.75c0,.18.32.15.29,0A14,14,0,0,1,72.56,88.54Z"/><path class="cls-10" d="M74.89,86.39c0-.11-.14-.14-.19,0a8,8,0,0,0-.07,5.07.14.14,0,0,0,.27-.07A12.5,12.5,0,0,1,74.89,86.39Z"/><path class="cls-10" d="M77.39,86.46a.11.11,0,0,0-.22,0,17.2,17.2,0,0,0,.1,4.7.18.18,0,0,0,.35,0C77.44,89.57,77.59,88,77.39,86.46Z"/><path class="cls-10" d="M74.31,73.31c.07-1,.31-1.9.47-2.86a.08.08,0,0,0-.16,0c-.49,2.09-1,4.08-.29,6.2,0,.12.24.06.22-.06A13.75,13.75,0,0,1,74.31,73.31Z"/><path class="cls-10" d="M77.19,73.35c0-.88.18-1.75.18-2.64,0-.13-.23-.13-.23,0-.15,2.12-.67,4.16,0,6.26.05.19.34.1.32-.09A19.76,19.76,0,0,1,77.19,73.35Z"/><path class="cls-10" d="M80.3,70.81c0-.17-.26-.21-.27,0-.11,2.08-.76,4.14-.37,6.24A.15.15,0,0,0,80,77,60.43,60.43,0,0,1,80.3,70.81Z"/><path class="cls-10" d="M31.92,65.75a19.22,19.22,0,0,1-5.35.46c-.09,0-.1.12,0,.14A9.84,9.84,0,0,0,32,66.07C32.18,66,32.11,65.71,31.92,65.75Z"/><path class="cls-10" d="M32.72,67.6c-1.91.38-4.16,1-6.12.51-.07,0-.1.1,0,.13a6.28,6.28,0,0,0,2.66.33,9.64,9.64,0,0,0,3.57-.68C33,67.82,32.89,67.56,32.72,67.6Z"/><path class="cls-10" d="M26.3,70.58a13.61,13.61,0,0,1-5.05.1c-.07,0-.11.1,0,.13a7.29,7.29,0,0,0,5.16.09C26.55,70.82,26.49,70.54,26.3,70.58Z"/><path class="cls-10" d="M26.63,73.09a21.23,21.23,0,0,1-5.1.14c-.09,0-.13.13,0,.15a9.81,9.81,0,0,0,5.24.08C27,73.4,26.84,73.06,26.63,73.09Z"/><path class="cls-10" d="M26.45,75.31a17.74,17.74,0,0,1-4.77-.12c-.09,0-.12.12,0,.15a7.28,7.28,0,0,0,4.89.24C26.69,75.53,26.61,75.3,26.45,75.31Z"/><path class="cls-10" d="M35.28,77a23,23,0,0,1-6.13.73c-.2,0-.25.3,0,.32a14,14,0,0,0,6.27-.7A.18.18,0,0,0,35.28,77Z"/><path class="cls-10" d="M34.73,79.88a18.73,18.73,0,0,1-5.49.24.14.14,0,0,0-.07.26,9.83,9.83,0,0,0,5.66-.13A.19.19,0,0,0,34.73,79.88Z"/><path class="cls-10" d="M34.55,82.58c-1.5.31-3.34,1-4.88.68a.12.12,0,0,0-.06.22c1.48.51,3.62,0,5-.49A.22.22,0,0,0,34.55,82.58Z"/><path class="cls-10" d="M29.4,84.4c-1.88,0-3.76.34-5.64-.08-.07,0-.1.09,0,.12a9.79,9.79,0,0,0,5.67.29C29.56,84.69,29.61,84.4,29.4,84.4Z"/><path class="cls-10" d="M29.9,86.07a21.23,21.23,0,0,1-5.34.2c-.13,0-.15.17,0,.2a12.7,12.7,0,0,0,5.42,0A.21.21,0,0,0,29.9,86.07Z"/><path class="cls-10" d="M29.85,87.87a16,16,0,0,1-5.38.45c-.11,0-.16.16,0,.19a9.09,9.09,0,0,0,5.5-.36C30.08,88.1,30,87.85,29.85,87.87Z"/><path class="cls-10" d="M20.25,76.93c-2,0-4,.48-6,.23-.12,0-.14.16,0,.19a12.8,12.8,0,0,0,6.12-.15C20.49,77.16,20.39,76.93,20.25,76.93Z"/><path class="cls-10" d="M20,79.71c-1.55-.21-3.1-.18-4.65-.32a.1.1,0,0,0,0,.2A31.37,31.37,0,0,0,20,80C20.16,80,20.2,79.73,20,79.71Z"/><path class="cls-10" d="M20.37,82.08a26.63,26.63,0,0,1-4.64.12.13.13,0,0,0,0,.26,9.11,9.11,0,0,0,4.75-.13A.13.13,0,0,0,20.37,82.08Z"/><path class="cls-10" d="M47.74,75.26c-2.16.07-4.27.15-6.43,0a.08.08,0,0,0,0,.16,17.43,17.43,0,0,0,6.48,0A.13.13,0,0,0,47.74,75.26Z"/><path class="cls-10" d="M49,77.45c-1.38,0-2.76.18-4.15.23a33.56,33.56,0,0,1-3.87-.2.09.09,0,0,0,0,.18,22.39,22.39,0,0,0,8.08.08A.15.15,0,0,0,49,77.45Z"/><path class="cls-10" d="M48.2,79.36a39,39,0,0,1-7.4.14.08.08,0,0,0,0,.16,13.44,13.44,0,0,0,3.23.21,23.84,23.84,0,0,0,4.22-.31A.1.1,0,0,0,48.2,79.36Z"/><path class="cls-10" d="M55,68.18c-1,0-1.89.1-2.85.08s-1.81-.16-2.69-.26a.06.06,0,0,0,0,.12,13.08,13.08,0,0,0,5.56.36C55.11,68.44,55.13,68.18,55,68.18Z"/><path class="cls-10" d="M54.82,69.79a21.65,21.65,0,0,1-5.63-.21c-.08,0-.12.12,0,.16a11.13,11.13,0,0,0,5.7.28A.12.12,0,0,0,54.82,69.79Z"/><path class="cls-10" d="M55.3,71.26a19.61,19.61,0,0,1-7.44.26c-.09,0-.1.1,0,.12a14.09,14.09,0,0,0,7.54-.09C55.54,71.5,55.46,71.23,55.3,71.26Z"/><path class="cls-10" d="M72.87,71.5a21.92,21.92,0,0,1-4,.16,25.57,25.57,0,0,1-3.48-.6.1.1,0,0,0-.06.19,12.78,12.78,0,0,0,7.56.57A.16.16,0,0,0,72.87,71.5Z"/><path class="cls-10" d="M72.09,73.83A20.54,20.54,0,0,1,66,73.57c-.1,0-.14.15,0,.18a11.27,11.27,0,0,0,6.14.42A.17.17,0,0,0,72.09,73.83Z"/><path class="cls-10" d="M73.16,75.89a15.33,15.33,0,0,1-7.67.36c-.18,0-.2.23,0,.27a12.2,12.2,0,0,0,7.85-.31C73.5,76.12,73.37,75.83,73.16,75.89Z"/><path class="cls-10" d="M87.5,70.63a38.5,38.5,0,0,1-5.26-.21c-.12,0-.14.16,0,.19A19.06,19.06,0,0,0,87.5,71C87.7,71,87.7,70.63,87.5,70.63Z"/><path class="cls-10" d="M86.34,72.72a14.52,14.52,0,0,1-4,.07.11.11,0,0,0,0,.22,9.9,9.9,0,0,0,4,0A.16.16,0,0,0,86.34,72.72Z"/><path class="cls-10" d="M85.86,75.46a10.55,10.55,0,0,1-4.43.33c-.11,0-.16.15-.05.19a6.3,6.3,0,0,0,4.56-.21C86.1,75.7,86,75.43,85.86,75.46Z"/><path class="cls-10" d="M79.05,77.92a23.7,23.7,0,0,1-5.19,0c-.1,0-.15.15,0,.18a9.16,9.16,0,0,0,2.45.26,15.73,15.73,0,0,0,2.83-.1A.18.18,0,0,0,79.05,77.92Z"/><path class="cls-10" d="M78.58,81a31.44,31.44,0,0,1-5.57-.5c-.15,0-.21.21-.07.25a17,17,0,0,0,5.64.6C78.78,81.38,78.78,81,78.58,81Z"/><path class="cls-10" d="M78.43,84.13A16.85,16.85,0,0,1,73,83.75a.13.13,0,0,0-.07.25,11.67,11.67,0,0,0,5.56.49A.18.18,0,0,0,78.43,84.13Z"/><g class="cls-14"><path class="cls-8" d="M54.67,68.63c.25,0,.5.37.24.58a3.7,3.7,0,0,1-2.15.49,7.84,7.84,0,0,1-2.84-.46.3.3,0,0,1-.14-.1c-.34-.13-.16-.69.24-.63a16.43,16.43,0,0,0,2.8.22A14.34,14.34,0,0,1,54.67,68.63Z"/><path class="cls-8" d="M52.08,80.09a.31.31,0,0,1-.13.36.33.33,0,0,1-.6.06,8,8,0,0,1-.8-4.15c0-.69,0-2.18.77-2.49a.37.37,0,0,1,.33.09c.38.33.26,1.1.2,1.54A10.77,10.77,0,0,0,52.08,80.09Z"/><path class="cls-8" d="M50.14,71.42c-.53,0-1.42-.34-1.58-.93-.21-.23.1-.67.44-.5,1.61.78,3.64.57,5.36.42.39,0,.45.56.09.66A12.77,12.77,0,0,1,50.14,71.42Z"/><path class="cls-8" d="M53.72,73.52a.34.34,0,0,1,.56.15,3,3,0,0,1-.18,1.86,7.78,7.78,0,0,0,0,2.68c.14.65.41,1.22.57,1.85a.34.34,0,0,1-.5.38c-1.06-.47-1.37-2.09-1.4-3.12S52.8,74.33,53.72,73.52Z"/><path class="cls-8" d="M32.4,72.68c.06.7.13,1.39.24,2.09a1.89,1.89,0,0,1-.06,1,.34.34,0,0,1-.49.2c-1-.64-1.11-2.35-1.15-3.49s0-2,.68-1.88S32.35,72.15,32.4,72.68Z"/><path class="cls-8" d="M33.67,79.57a9.37,9.37,0,0,1-4-.17.34.34,0,0,1-.18-.1.62.62,0,0,1-.14-.14.43.43,0,0,1,.12-.54.1.1,0,0,1,.05,0,.27.27,0,0,1,.28-.16,16.08,16.08,0,0,0,2.86-.14c.84-.09,1.58-.38,2.39-.5a.35.35,0,0,1,.43.32C35.56,79,34.4,79.41,33.67,79.57Z"/><path class="cls-8" d="M35,81.09c-.72,2-4.05,1.7-5.34.57a.33.33,0,0,1,.05-.51.31.31,0,0,1,.4-.27,6.55,6.55,0,0,0,2.82.14c.45-.06,1.48-.59,1.91-.31A.34.34,0,0,1,35,81.09Z"/><path class="cls-8" d="M28.49,73.08c0-.66-.2-1.63.33-2.13a.33.33,0,0,1,.41,0c.57.38.4,1.47.46,2,.1.92.64,1.92.48,2.83a.29.29,0,0,1-.28.24.26.26,0,0,1-.36-.07A5.05,5.05,0,0,1,28.49,73.08Z"/><path class="cls-8" d="M27,66.64a9.4,9.4,0,0,0,2.85.21,9.42,9.42,0,0,1,1.83-.11.34.34,0,0,1,.15.56,4.48,4.48,0,0,1-3.22.71,3,3,0,0,1-1.93-.74.32.32,0,0,1-.06-.15A.33.33,0,0,1,27,66.64Z"/><path class="cls-8" d="M27.51,82.27c-1.54.42-1.77-4.42-1.68-5.12a.35.35,0,0,1,.33-.31.32.32,0,0,1,.51-.06,1.31,1.31,0,0,1,.39.91,13.79,13.79,0,0,0,.46,2.47C27.66,80.58,28.32,82.05,27.51,82.27Z"/><path class="cls-8" d="M26.74,74.39a1.51,1.51,0,0,1-1,.7,4.25,4.25,0,0,1-4.12-.7.32.32,0,0,1,.16-.55.27.27,0,0,1,.28-.06,11.39,11.39,0,0,0,4.43.11C26.71,73.85,26.85,74.19,26.74,74.39Z"/><path class="cls-8" d="M26.2,72.23a4.92,4.92,0,0,1-4.56.46c-.29-.15-.77-.6-.3-.88h0a.37.37,0,0,1,.42-.33,27.67,27.67,0,0,0,4.27.14A.33.33,0,0,1,26.2,72.23Z"/><path class="cls-8" d="M20.38,77.77a.34.34,0,0,1,.34.33c.1,1.3-2.17,1.18-2.94,1.14-.6,0-2.51,0-2.83-.77a.34.34,0,0,1,.28-.6C17,78.28,18.66,77.76,20.38,77.77Z"/><path class="cls-8" d="M15.48,69.84a.18.18,0,0,1,.06-.09,1.17,1.17,0,0,1,.15-.27.68.68,0,0,1,.43-.31.25.25,0,0,1,.39.11,3.27,3.27,0,0,1,.14,1.21A18.43,18.43,0,0,0,17,72.57c.09.36.5,1.38.12,1.7s-.62.13-.88-.18A4.53,4.53,0,0,1,15.48,69.84Z"/><path class="cls-8" d="M13.92,74.09c-.36-.34-.42-1.18-.5-1.64a7.28,7.28,0,0,1,0-2.55.14.14,0,0,1,0-.06.91.91,0,0,1,.44-.71c.73-.38.71,2.88.72,3.12S14.82,75,13.92,74.09Z"/><path class="cls-8" d="M19.87,89a.34.34,0,0,1-.57.24c-.92-.93-1.12-2.43-1.31-3.74,0-.17-.06-.35-.08-.53,0,0,0,0,0-.08v-.06c0-.51.1-.92.57-.92.74,0,.69,1.25.76,1.7A15.46,15.46,0,0,1,19.87,89Z"/><path class="cls-8" d="M19.91,81.48c-1.24.79-5,.7-5.6-.94a.31.31,0,0,1,.14-.36c0-.22.13-.47.4-.36,1.55.61,3.16.26,4.76.49C20.28,80.4,20.58,81.06,19.91,81.48Z"/><path class="cls-8" d="M21.35,88.82a6.64,6.64,0,0,1-1.2-4.17,2.93,2.93,0,0,1,.11-.9c.11-.39.45-.89.93-.61s.3,1,.3,1.51a10,10,0,0,0,.18,2.62,5.41,5.41,0,0,1,.25,1.31A.34.34,0,0,1,21.35,88.82Z"/><path class="cls-8" d="M23.83,77.06a.49.49,0,0,1,.69-.13,2.63,2.63,0,0,1,.31,1.47c.07,1,.39,2,.51,2.95.05.34-.47.44-.62.17A7.11,7.11,0,0,1,23.83,77.06Z"/><path class="cls-8" d="M24.52,84.83c1.23.62,2.7.16,4,.31.23,0,.45.27.29.51-.49.7-1.44.54-2.2.54s-1.95,0-2.48-.76a.26.26,0,0,1,0-.08C23.86,85.12,24.17,84.66,24.52,84.83Z"/><path class="cls-8" d="M24.07,87.14a.34.34,0,0,1,.42-.41l.19.07a.33.33,0,0,1,.22,0,21,21,0,0,0,3.8.3.34.34,0,0,1,.24.57c-.69.7-2.07.54-3,.48S24.38,88,24.07,87.14Z"/><path class="cls-8" d="M70.38,84c0,.34.06.91-.44.91s-.85-.79-1-1.14a5.67,5.67,0,0,1-.29-3.16,7.19,7.19,0,0,1,.43-1.76c.17-.44.51-1.36,1.14-1.29a.49.49,0,0,1,.38.34,2.24,2.24,0,0,1,.13.92l-.09.54c-.08.54-.15,1.09-.21,1.63a13.57,13.57,0,0,0-.09,1.91C70.32,83.3,70.35,83.67,70.38,84Z"/><path class="cls-8" d="M69.15,76.25c-1.08,0-3.5,0-3.7-1.49a.36.36,0,0,1,.12-.34.31.31,0,0,1,.41-.28,10.34,10.34,0,0,0,3.66.65,11.11,11.11,0,0,1,2.21-.18.32.32,0,0,1,.24.32C72,76.29,70.1,76.25,69.15,76.25Z"/><path class="cls-8" d="M67.48,83.62l.06,1a.34.34,0,0,1-.58.24,4.6,4.6,0,0,1-.58-3.61c.15-.86.16-2.5.89-3.11a.34.34,0,0,1,.57.24,11.7,11.7,0,0,1-.28,1.84,2.83,2.83,0,0,0,0,.29c0,.47-.1.94-.11,1.4A16.66,16.66,0,0,0,67.48,83.62Z"/><path class="cls-8" d="M69.36,73.65c-1.13-.05-2.57-.14-3.35-1.1a.27.27,0,0,1-.07-.14c-.18-.23,0-.65.33-.53a10.18,10.18,0,0,0,3.37.6,23.73,23.73,0,0,0,2.67-.32c.27,0,.39.3.29.5C72,73.77,70.42,73.71,69.36,73.65Z"/><path class="cls-8" d="M73.7,91.55a3.63,3.63,0,0,1-1-3.15c.07-.77.11-2.15.87-2.6a.35.35,0,0,1,.5.2,3.11,3.11,0,0,1,0,.61.32.32,0,0,1,.08.29A6.72,6.72,0,0,0,74,89.54a6.6,6.6,0,0,1,.23,1.72C74.2,91.49,73.92,91.72,73.7,91.55Z"/><path class="cls-8" d="M76.7,89.84a4.75,4.75,0,0,1,0,1.19c-.09.31-.33.67-.71.48C75,91,74.81,88.64,74.92,87.68a3.23,3.23,0,0,1,.88-2.2.51.51,0,0,1,.79.11A3.13,3.13,0,0,1,76.82,87a.31.31,0,0,1,0,.19A14.46,14.46,0,0,0,76.7,89.84Z"/><path class="cls-8" d="M77.19,83.52a6.42,6.42,0,0,1-3.31-.47c-1-.26-1.79-.72-1.18-1.43a.33.33,0,0,1,.33-.08l.43.15a10.63,10.63,0,0,0,2.65.23,15.68,15.68,0,0,1,2.65,0,.33.33,0,0,1,.24.23C79.17,83,77.83,83.38,77.19,83.52Z"/><path class="cls-8" d="M77.23,80.57a6.73,6.73,0,0,1-4-1.16.27.27,0,0,1-.09-.3.33.33,0,0,1,.38-.48,13.47,13.47,0,0,0,3.3.27c.86,0,1.77-.11,2.61,0a.34.34,0,0,1,.24.33C79.68,80.27,78,80.59,77.23,80.57Z"/><path class="cls-8" d="M76.5,75.31c.09.42.12,1.13-.41,1.28-1.23.34-1.48-2.73-1.48-3.33s.32-3.8,1.61-3.05a.73.73,0,0,1,.36.62.28.28,0,0,1,.13.36A7.79,7.79,0,0,0,76.5,75.31Z"/><path class="cls-8" d="M79.08,75.49c0,.37.15.79-.12,1.1a.32.32,0,0,1-.4,0c-.78-.4-.92-1.57-1-2.34a7.25,7.25,0,0,1,.45-3.67.49.49,0,0,1,.56-.27.35.35,0,0,1,.37,0c.63.25.41,1.53.19,2.45A12.3,12.3,0,0,0,79.08,75.49Z"/><path class="cls-8" d="M82.89,78.35a27.24,27.24,0,0,0-.31,4.78c0,.53,0,1.61-.64,1.79a.33.33,0,0,1-.33-.08,4.77,4.77,0,0,1-.48-3A14.53,14.53,0,0,1,82,78.32a.5.5,0,0,1,.88,0Z"/><path class="cls-8" d="M87.72,73.63c-.94,1.87-5.32,2.48-6.37.41l0-.1s0,0,0,0a.34.34,0,0,1,0-.1v0a.51.51,0,0,1,.44-.55h.09a.67.67,0,0,1,.39.08,9.16,9.16,0,0,0,5.16-.17C87.64,73,87.84,73.38,87.72,73.63Z"/><path class="cls-8" d="M82,71.27a.33.33,0,0,1,.41-.31,18.44,18.44,0,0,0,4.92.23.34.34,0,0,1,.24.57,4.89,4.89,0,0,1-5.57,0A.31.31,0,0,1,82,71.27Z"/><path class="cls-8" d="M47.88,85.7c.12.4-.16,1-.66.85-1.84-.5-2.2-3.38-2.06-4.93.06-.59.17-1.39.8-1.65.43-.18,1-.17,1.15.38a3.61,3.61,0,0,1,0,1.6A9.58,9.58,0,0,0,47.88,85.7Z"/><path class="cls-8" d="M43.72,79.23A4.43,4.43,0,0,1,41,78.55a.29.29,0,0,1-.09-.28c-.09-.23.08-.55.38-.44,2.23.8,4.41.28,6.7.3a.34.34,0,0,1,.09.66A12.73,12.73,0,0,1,43.72,79.23Z"/><path class="cls-8" d="M44.29,81.59a14.34,14.34,0,0,0,.34,4c0,.29-.32.63-.56.33a4.7,4.7,0,0,1-.81-2.64,6,6,0,0,1,.13-2.6.46.46,0,0,1,.87,0,1.36,1.36,0,0,1,0,.8A.33.33,0,0,1,44.29,81.59Z"/><path class="cls-8" d="M41.35,76h0a.35.35,0,0,1,.18,0,33.46,33.46,0,0,0,6.25,0,.34.34,0,0,1,.33.34c0,1.09-1.8,1-2.53,1-1.56.06-3.23.38-4.51-.74A.34.34,0,0,1,41.35,76Z"/></g><g class="cls-15"><path class="cls-8" d="M8.68,64.8c1.2,4.8,4.3,16.83,6.17,21.38,2.36,5.73,1.26,8.24,9,9,6.69.67,20.46.36,26.28.21,5.82.15,19.59.46,26.28-.21,7.77-.79,6.68-3.3,9-9,1.87-4.55,5.21-18.45,6.42-23.25ZM82.82,85.86a8.4,8.4,0,0,1-1.4,1.32c-2.73,2-6.42,2.64-9.81,2.91-1.94.15-3.88.17-5.83.19-6.83.09-13.64.66-20.47.76q-4.81.08-9.65,0c-5-.1-10.53.42-15.18-1.76a13,13,0,0,1-6.08-6.78c-1.82-4.08-5.55-14.44,3-14,2.4.13,4.76.16,7.16.18,7.4.06,14.79.26,22.19.11q3.21-.06,6.42-.22c7.56-.39,18.54-1.08,26.11-1.29,2.26-.06,5.1-.49,7.22.41C90.8,69.54,84.41,84,82.82,85.86Z"/></g><path class="cls-16" d="M36.3,70.28c-3.27,0-6.54,0-9.8,0-2.39,0-5.48-.48-7.74.31-2.89,1-1.16,4.5-.34,6.15a9.62,9.62,0,0,0,3.95,3.92C27,83.33,33.26,84,38.84,84.26c4.59.21,9.19.12,13.78-.11,6.07-.29,12.34-.2,18.27-1.44a19.33,19.33,0,0,0,13-9.37c.59-1.12,2-3.35.17-4.18-2-.91-24.41.86-33.06,1Q43.63,70.21,36.3,70.28Z"/><g class="cls-17"><path class="cls-8" d="M83.28,90c-5.26,3.84-23,3.14-26.1,3.21-6.29.14-12.58.17-18.87.14-3.17,0-15-.67-17.66-1.21a9.05,9.05,0,0,1-4.57-2.19c1,3.14,1.9,4.69,7.71,5.28,6.68.67,20.45.36,26.27.21,5.82.15,19.6.46,26.28-.21,6.34-.64,6.78-2.43,8-6.17A8.59,8.59,0,0,1,83.28,90Z"/><path class="cls-8" d="M15.44,65.64c4.4-.39,8.86-.11,13.27-.13,6.34,0,12.68-.29,19-.32s12.75.11,19.12,0,12.58-.74,18.83-.41c1.29.06,3.83,0,4.68,1.26a2.34,2.34,0,0,1,.36,1.19l1.06-4.27L8.58,64.8l.65,2.55a5,5,0,0,1,1.47-.71A14.29,14.29,0,0,1,15.44,65.64Z"/></g><path class="cls-13" d="M36.61,89.66a2.15,2.15,0,0,1-2.5-2.43,3.12,3.12,0,0,1,.36-1.51,6.31,6.31,0,0,1,1-1.32l5.24-5.48a11.25,11.25,0,0,0,1.7-2.16A3.71,3.71,0,0,0,42.89,75a2.06,2.06,0,0,0-.75-1.73A3.51,3.51,0,0,0,40,72.64a6,6,0,0,0-1.51.21,9.15,9.15,0,0,0-1.77.69,2.15,2.15,0,0,1-1.42.21,2.07,2.07,0,0,1-1.1-.65,2.28,2.28,0,0,1-.34-2.49,2.31,2.31,0,0,1,1.11-1.07,10.93,10.93,0,0,1,2.86-1.1,13.31,13.31,0,0,1,3-.35,10.33,10.33,0,0,1,4.14.73,5.39,5.39,0,0,1,2.54,2.12,6.21,6.21,0,0,1,.87,3.35,8.19,8.19,0,0,1-.38,2.48,9.18,9.18,0,0,1-1.2,2.41,18.37,18.37,0,0,1-2.21,2.6L39.68,86.6V85.18h7.4a2.32,2.32,0,0,1,1.71.57,2.26,2.26,0,0,1,.57,1.66,2,2,0,0,1-2.28,2.25Z"/><path class="cls-13" d="M59.35,90a7,7,0,0,1-6-2.89C52,85.21,51.26,82.48,51.26,79A16.64,16.64,0,0,1,52.19,73a7.13,7.13,0,0,1,7.16-4.94,7,7,0,0,1,6,2.79q2.07,2.78,2.07,8.07a17,17,0,0,1-.93,6,8,8,0,0,1-2.74,3.78A7.32,7.32,0,0,1,59.35,90Zm0-4.43A2.27,2.27,0,0,0,61.49,84,13.58,13.58,0,0,0,62.18,79,12.7,12.7,0,0,0,61.49,74a2.28,2.28,0,0,0-4.28,0A12.7,12.7,0,0,0,56.52,79,13.58,13.58,0,0,0,57.21,84,2.27,2.27,0,0,0,59.35,85.6Z"/></g></g></svg>