<svg xmlns="http://www.w3.org/2000/svg" viewBox="0 0 105.29 104.84"><defs><style>.cls-1{isolation:isolate;}.cls-2{fill:#ed7d03;}.cls-3{fill:#ff8c03;}.cls-4{fill:#fcbc08;}.cls-5{fill:#f28106;opacity:0.7;}.cls-6{fill:#7c6a13;}.cls-7{fill:#937b18;}.cls-8{fill:#b86313;}.cls-11,.cls-9{fill:#cc7917;}.cls-10{fill:#9e4727;}.cls-11,.cls-12,.cls-17{opacity:0.5;}.cls-11,.cls-15,.cls-17{mix-blend-mode:multiply;}.cls-13,.cls-16{fill:#fff;}.cls-14,.cls-15{opacity:0.3;}.cls-14{mix-blend-mode:screen;}.cls-16{opacity:0.1;}</style></defs><title>orange17</title><g class="cls-1"><g id="Layer_1" data-name="Layer 1"><path class="cls-2" d="M79.29,46.2c-4.72-1.6-9.7-5.65-10.85-10.74H24.22V65.67H81.53V46.81A19.53,19.53,0,0,1,79.29,46.2Z"/><path class="cls-3" d="M66.75,12.29c3,2.2,6.91,9.14,2.29,14.85s-11.37,6.06-16.47,2.7A11.48,11.48,0,0,1,51.15,11.7C56.29,6.81,62.24,9,66.75,12.29Z"/><path class="cls-4" d="M54.26,11.48h0Z"/><path class="cls-4" d="M55,12.2c.35-.17.75-.53.42-.85s-.78,0-1.1.12C53.84,11.87,54,12.65,55,12.2Z"/><path class="cls-4" d="M54.28,11.47l.53-.21A.78.78,0,0,0,54.28,11.47Z"/><path class="cls-4" d="M53.32,13c.13-.1.31-.3.14-.44a.23.23,0,0,0-.34.07.43.43,0,0,0-.21.29C52.88,13.21,53.18,13.1,53.32,13Z"/><path class="cls-4" d="M55.61,12.82a.35.35,0,0,0-.33,0c-.16,0-.35.08-.39.21a.11.11,0,0,0,0,.08l0,0,0,0c0,.14.38,0,.51,0S55.87,13,55.61,12.82Z"/><path class="cls-4" d="M54.84,13.15l0,0Z"/><path class="cls-4" d="M56.34,12c-.15,0-.32.21-.23.35s.44.1.56,0C57.17,12.14,56.53,11.92,56.34,12Z"/><path class="cls-4" d="M57,11.11c-.11,0-.29-.06-.37,0a.15.15,0,0,0,0,.18c0,.1.18.2.25.23s.92.33,1,.07S57.15,11.14,57,11.11Z"/><path class="cls-4" d="M56.14,10.59c.15.09.71.07.77-.16s-.31-.28-.45-.26a.6.6,0,0,0-.24.14C56.07,10.38,56,10.5,56.14,10.59Z"/><path class="cls-4" d="M53.42,11.92c.29-.22,0-.34-.22-.3h0c-.14,0-.47.14-.38.33S53.31,12,53.42,11.92Z"/><path class="cls-4" d="M52.2,13.3c.11-.13.44-.67.06-.69a.3.3,0,0,0-.2.1,1.06,1.06,0,0,0-.38.53C51.53,13.75,52,13.52,52.2,13.3Z"/><path class="cls-4" d="M54.25,13.45a.8.8,0,0,0-.5,0,1,1,0,0,0-.67.52c-.12.52.79.15,1,.08S54.67,13.61,54.25,13.45Z"/><path class="cls-4" d="M55.78,13.86c-.15.05-.31.17-.3.29s.52.18.67.11C56.71,14,56,13.75,55.78,13.86Z"/><path class="cls-4" d="M59.36,11a.25.25,0,0,0-.25.1.7.7,0,0,0,1,0A.59.59,0,0,0,59.36,11Z"/><path class="cls-4" d="M57.88,12.32c.32.11,1.17.17,1.24-.27a.75.75,0,0,0-.69-.09C58.17,12,57.89,12,57.88,12.32Z"/><path class="cls-4" d="M58.5,10a.44.44,0,0,0-.62-.06.25.25,0,0,0-.15.18A.59.59,0,0,0,58.5,10Z"/><path class="cls-4" d="M60.81,11.85c-.63,0,.18.81.53.55S61.06,11.69,60.81,11.85Z"/><path class="cls-4" d="M51.88,14.44c-.2-.15-.36,0-.47.18-.42.27-.93.91-.52,1.06S51.87,14.79,51.88,14.44Z"/><path class="cls-4" d="M50.72,13.62c-.54.1-.28,1,.23.39C51.27,13.62,51,13.5,50.72,13.62Z"/><path class="cls-4" d="M53.8,15.27a.27.27,0,0,0-.2.25c.2.14.74.15.87-.11S54,15,53.8,15.27Z"/><path class="cls-4" d="M58.59,13.79l0,0a.43.43,0,0,0,0,.11c0,.05,0,.09,0,.11.12.3.73.31.62-.06S58.74,13.65,58.59,13.79Z"/><path class="cls-4" d="M64.15,13c-.37-.51-1.12,0-.65.15C63.78,13.37,64.51,13.5,64.15,13Z"/><path class="cls-4" d="M51.2,17.79l.07-.13a.93.93,0,0,0-.4.63c.22.06.85-.36.84-.64S51.39,17.52,51.2,17.79Z"/><path class="cls-4" d="M56.87,16.38a.15.15,0,0,0,.22,0c.26,0,.74,0,.53-.31S57,16.16,56.87,16.38Z"/><path class="cls-4" d="M49,16.1a.38.38,0,0,0,0,.22c.32.1,1.13,0,.86-.51S49.13,15.72,49,16.1Z"/><path class="cls-4" d="M50.15,14.74h0a.27.27,0,0,0-.33.26.4.4,0,0,0,.56-.21A.36.36,0,0,0,50.15,14.74Z"/><path class="cls-5" d="M51.21,26.05c-1.18.86,4.8,5.2,8.68,5.05a11.47,11.47,0,0,0,9.41-6c1-2.14.66-8.23-.62-7.81-.46.16.1,2.22-1.78,5.35-1.65,2.74-4.48,5.45-8.21,5.27C53.57,27.65,52,25.49,51.21,26.05Z"/><path class="cls-6" d="M64,11a.54.54,0,0,0-.49.83c.32.8,2.27,2.1,2.83,1.88s.59-.87-.23-1.5A4.73,4.73,0,0,0,64,11Z"/><path class="cls-6" d="M65,12.07S67.3,9.73,68,8.84a42,42,0,0,0,2.14-4.22s.2-.3.47-.24.2.46.2.46S69.18,8.07,68.55,9c-1.3,1.81-3,3.77-3,3.77Z"/><path class="cls-6" d="M69,7.66c-.13,0-3.73-.47-3.73-.47l-.13.21L67,7.7,68.82,8Z"/><path class="cls-6" d="M61.21,11.86c-3.85,1-9.55-1.77-9.55-1.77s3.81-4.43,7.07-4.76S67.66,7.6,67.66,7.6A13.44,13.44,0,0,1,61.21,11.86Z"/><path class="cls-7" d="M64.06,11.23A.82.82,0,0,0,64,12a4.16,4.16,0,0,0,1.4,1.12l.1-.71s-.3-.2-.33-.38a.41.41,0,0,1,0-.27Z"/><path class="cls-7" d="M66.4,7.69a30.48,30.48,0,0,0-6.46.06c-3,.44-7.52,1.87-7.46,2.07S57.42,8.18,59.84,8s6.74,0,6.74,0Z"/><path class="cls-7" d="M64.88,7.8A3.41,3.41,0,0,1,64.26,9a8.25,8.25,0,0,0-1.09,1.68,9.93,9.93,0,0,0,1.25-1.57c.36-.52.82-1.26.82-1.26Z"/><path class="cls-7" d="M61.88,7.83a5,5,0,0,1-.66,1.91c-.66,1.36-.92,1.75-.76,1.78s.66-1,1-1.74.85-2,.85-2Z"/><path class="cls-7" d="M59,8.1a3.63,3.63,0,0,1-.23,1.42c-.3,1-.66,1.57-.52,1.64s.48-.86.68-1.59S59.4,8,59.4,8Z"/><path class="cls-7" d="M55.83,8.84a2.13,2.13,0,0,1-.16.84c-.18.52-.47,1-.38,1a1.82,1.82,0,0,0,.53-.92l.28-1Z"/><path class="cls-7" d="M65.24,7.72a4.25,4.25,0,0,0-1.13-1.08A3.53,3.53,0,0,0,62.65,6c-.08.07.83.33,1.15.54A12.41,12.41,0,0,1,65,7.71Z"/><path class="cls-7" d="M62.16,7.63a2.91,2.91,0,0,0-.92-1.23,4.73,4.73,0,0,0-2.06-.8c-.2.07,1.5.49,1.88.87a4.1,4.1,0,0,1,.69,1.2Z"/><path class="cls-7" d="M59.4,8A6.42,6.42,0,0,0,58,6.86a5.93,5.93,0,0,0-1.66-.43c-.19,0,1.28.33,1.69.62a9.24,9.24,0,0,1,1.05,1Z"/><path class="cls-7" d="M55.83,8.75s0-.24-.73-.5-1.07-.42-.92-.42a3.94,3.94,0,0,1,.91.23,6.06,6.06,0,0,1,1.07.61Z"/><path class="cls-3" d="M47,13.4c3,2.2,6.91,9.14,2.29,14.86S37.92,34.31,32.83,31A11.48,11.48,0,0,1,31.4,12.82C36.55,7.92,42.5,10.09,47,13.4Z"/><path class="cls-4" d="M34.51,12.59h0Z"/><path class="cls-4" d="M35.21,13.31c.35-.17.74-.53.41-.85s-.78,0-1.09.13C34.09,13,34.27,13.76,35.21,13.31Z"/><path class="cls-4" d="M34.53,12.58l.53-.21A.88.88,0,0,0,34.53,12.58Z"/><path class="cls-4" d="M33.57,14.11c.14-.09.31-.29.14-.44s-.25,0-.33.08a.41.41,0,0,0-.22.28C33.13,14.33,33.44,14.21,33.57,14.11Z"/><path class="cls-4" d="M35.86,13.93a.35.35,0,0,0-.33,0c-.16,0-.35.09-.38.21a.31.31,0,0,0,0,.09l0,0,0,0c0,.14.39,0,.51,0S36.13,14.08,35.86,13.93Z"/><path class="cls-4" d="M35.1,14.27h0Z"/><path class="cls-4" d="M36.59,13.15c-.15,0-.32.21-.23.36s.44.09.56,0C37.43,13.25,36.78,13,36.59,13.15Z"/><path class="cls-4" d="M37.22,12.23c-.1,0-.29-.07-.37,0a.15.15,0,0,0,0,.18c0,.11.18.2.26.23s.91.33,1,.07S37.41,12.25,37.22,12.23Z"/><path class="cls-4" d="M36.39,11.71c.16.08.71.06.77-.17s-.3-.27-.45-.25a.52.52,0,0,0-.24.13C36.32,11.5,36.21,11.61,36.39,11.71Z"/><path class="cls-4" d="M33.67,13c.29-.22,0-.34-.22-.29h0c-.13,0-.46.15-.37.33S33.56,13.11,33.67,13Z"/><path class="cls-4" d="M32.45,14.41c.11-.12.44-.67.06-.69a.26.26,0,0,0-.19.1,1.06,1.06,0,0,0-.39.54C31.78,14.86,32.26,14.63,32.45,14.41Z"/><path class="cls-4" d="M34.5,14.57a.68.68,0,0,0-.5,0,1,1,0,0,0-.67.51c-.12.52.79.15,1,.08S34.93,14.72,34.5,14.57Z"/><path class="cls-4" d="M36,15c-.15,0-.3.17-.3.29s.52.18.67.11C37,15.11,36.23,14.86,36,15Z"/><path class="cls-4" d="M39.61,12.09a.27.27,0,0,0-.25.1.69.69,0,0,0,1,0A.58.58,0,0,0,39.61,12.09Z"/><path class="cls-4" d="M38.14,13.43c.31.11,1.16.17,1.23-.27a.72.72,0,0,0-.68-.08C38.42,13.06,38.14,13.15,38.14,13.43Z"/><path class="cls-4" d="M38.75,11.13a.44.44,0,0,0-.62-.06.3.3,0,0,0-.15.18A.59.59,0,0,0,38.75,11.13Z"/><path class="cls-4" d="M41.06,13c-.62,0,.18.81.53.55S41.31,12.8,41.06,13Z"/><path class="cls-4" d="M32.13,15.55c-.19-.15-.36,0-.47.18-.42.27-.92.91-.52,1.06S32.12,15.9,32.13,15.55Z"/><path class="cls-4" d="M31,14.73c-.54.1-.29,1,.23.39C31.53,14.74,31.2,14.61,31,14.73Z"/><path class="cls-4" d="M34.05,16.38a.28.28,0,0,0-.2.25c.2.14.74.16.88-.11S34.23,16.07,34.05,16.38Z"/><path class="cls-4" d="M38.84,14.9l0,0a.43.43,0,0,0,0,.11s0,.1,0,.12c.11.29.73.3.61-.07S39,14.76,38.84,14.9Z"/><path class="cls-4" d="M44.4,14.12c-.36-.5-1.12,0-.65.16C44,14.48,44.76,14.61,44.4,14.12Z"/><path class="cls-4" d="M31.45,18.91l.08-.14a.89.89,0,0,0-.4.64c.21.05.85-.37.83-.65S31.64,18.64,31.45,18.91Z"/><path class="cls-4" d="M37.13,17.49a.16.16,0,0,0,.21.05c.26,0,.74,0,.54-.32S37.2,17.27,37.13,17.49Z"/><path class="cls-4" d="M29.29,17.21a.4.4,0,0,0,0,.22c.32.11,1.13,0,.86-.51S29.38,16.83,29.29,17.21Z"/><path class="cls-4" d="M30.41,15.85h0a.27.27,0,0,0-.33.26.4.4,0,0,0,.56-.21A.34.34,0,0,0,30.41,15.85Z"/><path class="cls-5" d="M31.46,27.17c-1.18.86,4.8,5.19,8.69,5a11.45,11.45,0,0,0,9.4-6c1-2.14.67-8.23-.62-7.8-.46.15.11,2.21-1.78,5.34C45.5,26.5,42.68,29.2,38.94,29,33.82,28.77,32.24,26.6,31.46,27.17Z"/><path class="cls-6" d="M44.28,12.11a.54.54,0,0,0-.49.83c.33.8,2.28,2.1,2.84,1.88s.58-.87-.24-1.49A4.61,4.61,0,0,0,44.28,12.11Z"/><path class="cls-6" d="M45.29,13.18S47.55,10.84,48.2,10a41.89,41.89,0,0,0,2.14-4.23.55.55,0,0,1,.48-.24c.27,0,.19.47.19.47s-1.57,3.22-2.21,4.11c-1.3,1.81-3,3.77-3,3.77Z"/><path class="cls-6" d="M49.24,8.77c-.14,0-3.73-.47-3.73-.47l-.14.21,1.85.31,1.85.3Z"/><path class="cls-6" d="M41.46,13c-3.85,1-9.55-1.76-9.55-1.76S35.72,6.77,39,6.44s8.93,2.27,8.93,2.27A13.44,13.44,0,0,1,41.46,13Z"/><path class="cls-7" d="M44.31,12.35a.8.8,0,0,0-.08.79,4.09,4.09,0,0,0,1.4,1.11l.09-.7s-.3-.21-.33-.38a.44.44,0,0,1,0-.28Z"/><path class="cls-7" d="M46.65,8.8a30.48,30.48,0,0,0-6.46.06c-3,.44-7.52,1.87-7.46,2.07s5-1.64,7.36-1.8,6.74,0,6.74,0Z"/><path class="cls-7" d="M45.14,8.91a3.61,3.61,0,0,1-.63,1.18,8.56,8.56,0,0,0-1.09,1.68,10.76,10.76,0,0,0,1.26-1.56c.35-.53.81-1.27.81-1.27Z"/><path class="cls-7" d="M42.14,8.94a5.29,5.29,0,0,1-.66,1.91c-.67,1.36-.93,1.76-.77,1.79s.66-1,1-1.75.85-2,.85-2Z"/><path class="cls-7" d="M39.22,9.21A3.63,3.63,0,0,1,39,10.63c-.3,1-.66,1.58-.52,1.64s.48-.86.68-1.59.5-1.62.5-1.62Z"/><path class="cls-7" d="M36.09,10a2.36,2.36,0,0,1-.16.84c-.19.52-.48,1-.39,1a1.75,1.75,0,0,0,.53-.91c.14-.47.28-1,.28-1Z"/><path class="cls-7" d="M45.49,8.83a4.25,4.25,0,0,0-1.13-1.08,3.53,3.53,0,0,0-1.46-.6c-.08.07.83.33,1.15.54a12.62,12.62,0,0,1,1.19,1.14Z"/><path class="cls-7" d="M42.41,8.74a2.85,2.85,0,0,0-.92-1.22,4.44,4.44,0,0,0-2.06-.8c-.19.06,1.5.49,1.88.86A4.36,4.36,0,0,1,42,8.79Z"/><path class="cls-7" d="M39.65,9.06A6.6,6.6,0,0,0,38.27,8a5.66,5.66,0,0,0-1.66-.42c-.2,0,1.27.32,1.68.62a8.6,8.6,0,0,1,1.05,1Z"/><path class="cls-7" d="M36.08,9.87s0-.25-.73-.5-1.07-.43-.92-.43a4.57,4.57,0,0,1,.91.23,6.29,6.29,0,0,1,1.08.61Z"/><path class="cls-3" d="M80.66,24c3,2.2,6.91,9.14,2.29,14.85s-11.38,6.06-16.47,2.7a11.47,11.47,0,0,1-1.42-18.13C70.2,18.49,76.15,20.66,80.66,24Z"/><path class="cls-4" d="M68.17,23.16h0Z"/><path class="cls-4" d="M68.86,23.88c.35-.17.74-.53.41-.85s-.77,0-1.09.12C67.75,23.55,67.93,24.33,68.86,23.88Z"/><path class="cls-4" d="M68.18,23.15l.54-.21A.88.88,0,0,0,68.18,23.15Z"/><path class="cls-4" d="M67.23,24.68c.13-.09.31-.3.13-.44s-.25,0-.33.08a.41.41,0,0,0-.22.28C66.78,24.9,67.09,24.78,67.23,24.68Z"/><path class="cls-4" d="M69.51,24.5a.35.35,0,0,0-.33,0c-.15,0-.35.09-.38.21a.28.28,0,0,0,0,.08.05.05,0,0,1,0,0l0,0c0,.14.38,0,.5,0S69.78,24.65,69.51,24.5Z"/><path class="cls-4" d="M68.75,24.83l0,0Z"/><path class="cls-4" d="M70.25,23.72c-.15,0-.32.21-.24.36s.44.09.57,0C71.08,23.82,70.43,23.61,70.25,23.72Z"/><path class="cls-4" d="M70.87,22.79c-.1,0-.29-.06-.37,0a.15.15,0,0,0,0,.18c0,.1.18.2.25.23s.91.33,1,.07S71.06,22.82,70.87,22.79Z"/><path class="cls-4" d="M70,22.27c.16.09.72.07.78-.16s-.31-.27-.45-.26a.71.71,0,0,0-.25.14C70,22.06,69.86,22.18,70,22.27Z"/><path class="cls-4" d="M67.33,23.6c.29-.22,0-.34-.22-.29h0c-.13,0-.46.15-.37.33S67.22,23.68,67.33,23.6Z"/><path class="cls-4" d="M66.11,25c.11-.12.44-.67.06-.69a.3.3,0,0,0-.2.1,1.06,1.06,0,0,0-.38.53C65.44,25.43,65.92,25.2,66.11,25Z"/><path class="cls-4" d="M68.16,25.13a.74.74,0,0,0-.5.05,1,1,0,0,0-.67.51c-.13.52.78.15,1,.08S68.58,25.29,68.16,25.13Z"/><path class="cls-4" d="M69.68,25.54c-.14.05-.3.17-.3.29s.53.18.67.11C70.61,25.68,69.88,25.43,69.68,25.54Z"/><path class="cls-4" d="M73.27,22.66a.25.25,0,0,0-.25.1.68.68,0,0,0,1,0A.57.57,0,0,0,73.27,22.66Z"/><path class="cls-4" d="M71.79,24c.32.11,1.17.17,1.23-.27a.7.7,0,0,0-.68-.08C72.08,23.63,71.79,23.72,71.79,24Z"/><path class="cls-4" d="M72.41,21.7a.46.46,0,0,0-.63-.06.28.28,0,0,0-.15.18A.6.6,0,0,0,72.41,21.7Z"/><path class="cls-4" d="M74.72,23.53c-.63,0,.18.81.53.55S75,23.37,74.72,23.53Z"/><path class="cls-4" d="M65.78,26.12c-.19-.15-.35,0-.46.18-.42.27-.93.91-.53,1.06S65.77,26.47,65.78,26.12Z"/><path class="cls-4" d="M64.63,25.3c-.54.1-.28,1,.23.39C65.18,25.31,64.85,25.18,64.63,25.3Z"/><path class="cls-4" d="M67.7,27a.27.27,0,0,0-.19.25c.2.14.73.15.87-.11S67.88,26.64,67.7,27Z"/><path class="cls-4" d="M72.5,25.47l0,0a.45.45,0,0,0,0,.11c0,.05,0,.1,0,.11.11.3.73.31.61-.06S72.64,25.33,72.5,25.47Z"/><path class="cls-4" d="M78.05,24.69c-.36-.5-1.11,0-.64.16C77.69,25.05,78.41,25.18,78.05,24.69Z"/><path class="cls-4" d="M65.11,29.48l.07-.14a.92.92,0,0,0-.4.64c.22.05.85-.37.83-.65S65.29,29.2,65.11,29.48Z"/><path class="cls-4" d="M70.78,28.06a.16.16,0,0,0,.21.05c.26,0,.75,0,.54-.32S70.85,27.84,70.78,28.06Z"/><path class="cls-4" d="M63,27.78a.51.51,0,0,0,0,.22c.32.11,1.14,0,.87-.51S63,27.4,63,27.78Z"/><path class="cls-4" d="M64.06,26.42h0a.26.26,0,0,0-.33.26.39.39,0,0,0,.55-.21A.33.33,0,0,0,64.06,26.42Z"/><path class="cls-5" d="M65.11,37.74c-1.17.86,4.81,5.19,8.69,5a11.45,11.45,0,0,0,9.4-6c1-2.14.67-8.23-.61-7.8-.46.15.1,2.21-1.78,5.34-1.66,2.75-4.48,5.45-8.22,5.27C67.48,39.33,65.89,37.17,65.11,37.74Z"/><path class="cls-6" d="M77.93,22.68a.54.54,0,0,0-.48.83c.32.8,2.27,2.1,2.83,1.88s.59-.87-.23-1.49A4.64,4.64,0,0,0,77.93,22.68Z"/><path class="cls-6" d="M79,23.75s2.26-2.34,2.9-3.22A39.83,39.83,0,0,0,84,16.3s.2-.3.48-.24.2.46.2.46-1.58,3.23-2.22,4.12c-1.3,1.81-3,3.77-3,3.77Z"/><path class="cls-6" d="M82.89,19.34c-.14,0-3.73-.47-3.73-.47l-.14.21,1.86.31,1.85.3Z"/><path class="cls-6" d="M75.12,23.54c-3.85,1-9.55-1.76-9.55-1.76s3.8-4.44,7.07-4.77,8.93,2.27,8.93,2.27A13.5,13.5,0,0,1,75.12,23.54Z"/><path class="cls-7" d="M78,22.91a.82.82,0,0,0-.09.79,4,4,0,0,0,1.4,1.12l.09-.7s-.3-.21-.33-.39a.41.41,0,0,1,0-.27Z"/><path class="cls-7" d="M80.31,19.37a30.51,30.51,0,0,0-6.46.06c-3,.44-7.52,1.87-7.46,2.07s4.94-1.64,7.36-1.8,6.73,0,6.73,0Z"/><path class="cls-7" d="M78.79,19.48a3.36,3.36,0,0,1-.63,1.18,8.47,8.47,0,0,0-1.08,1.68,10.21,10.21,0,0,0,1.25-1.56c.36-.53.82-1.27.82-1.27Z"/><path class="cls-7" d="M75.79,19.51a5.29,5.29,0,0,1-.66,1.91c-.66,1.36-.93,1.75-.76,1.79s.65-1,1-1.75.84-2,.84-2Z"/><path class="cls-7" d="M72.87,19.78a3.7,3.7,0,0,1-.22,1.42c-.3,1-.66,1.57-.53,1.64s.48-.86.69-1.59.5-1.62.5-1.62Z"/><path class="cls-7" d="M69.74,20.52a2.39,2.39,0,0,1-.16.84c-.18.52-.47,1-.39,1a1.74,1.74,0,0,0,.54-.92l.28-1Z"/><path class="cls-7" d="M79.14,19.4A4.07,4.07,0,0,0,78,18.32a3.51,3.51,0,0,0-1.45-.6c-.08.07.82.33,1.15.54a12.23,12.23,0,0,1,1.18,1.14Z"/><path class="cls-7" d="M76.06,19.31a2.85,2.85,0,0,0-.92-1.22,4.45,4.45,0,0,0-2-.8c-.2.06,1.5.49,1.88.86a4.23,4.23,0,0,1,.69,1.21Z"/><path class="cls-7" d="M73.31,19.63a6.75,6.75,0,0,0-1.39-1.09,5.58,5.58,0,0,0-1.66-.42c-.19,0,1.28.32,1.69.61a8.84,8.84,0,0,1,1,1Z"/><path class="cls-7" d="M69.74,20.44s0-.25-.74-.5-1.06-.43-.91-.43a4.75,4.75,0,0,1,.91.23,6.06,6.06,0,0,1,1.07.61Z"/><path class="cls-3" d="M60.09,20.73c3,2.2,6.91,9.14,2.29,14.85S51,41.64,45.91,38.28a11.47,11.47,0,0,1-1.42-18.13C49.63,15.25,55.58,17.42,60.09,20.73Z"/><path class="cls-4" d="M47.6,19.92h0Z"/><path class="cls-4" d="M48.29,20.64c.35-.17.75-.53.42-.85s-.78.05-1.1.12C47.18,20.31,47.36,21.09,48.29,20.64Z"/><path class="cls-4" d="M47.62,19.91l.53-.21A.83.83,0,0,0,47.62,19.91Z"/><path class="cls-4" d="M46.66,21.44c.13-.09.31-.3.14-.44a.23.23,0,0,0-.34.08.39.39,0,0,0-.21.28C46.22,21.66,46.52,21.54,46.66,21.44Z"/><path class="cls-4" d="M49,21.26a.35.35,0,0,0-.33,0c-.16,0-.35.09-.39.21a.11.11,0,0,0,0,.08s0,0,0,0l0,0c0,.14.38,0,.51,0S49.21,21.41,49,21.26Z"/><path class="cls-4" d="M48.18,21.59l0,0Z"/><path class="cls-4" d="M49.68,20.48c-.15,0-.32.21-.23.36s.44.09.56,0C50.51,20.58,49.87,20.37,49.68,20.48Z"/><path class="cls-4" d="M50.31,19.55c-.11,0-.29-.06-.37,0a.15.15,0,0,0,0,.18c0,.1.18.2.25.23s.92.33,1,.07S50.49,19.58,50.31,19.55Z"/><path class="cls-4" d="M49.48,19c.15.09.71.07.77-.16s-.31-.27-.45-.26a.6.6,0,0,0-.24.14C49.41,18.82,49.3,18.94,49.48,19Z"/><path class="cls-4" d="M46.76,20.36c.29-.22,0-.34-.22-.29h0c-.14,0-.47.15-.38.33S46.65,20.44,46.76,20.36Z"/><path class="cls-4" d="M45.54,21.74c.11-.12.44-.67.06-.69a.3.3,0,0,0-.2.1,1.06,1.06,0,0,0-.38.53C44.87,22.19,45.35,22,45.54,21.74Z"/><path class="cls-4" d="M47.59,21.89a.75.75,0,0,0-.5.05,1,1,0,0,0-.67.51c-.12.52.79.15,1,.08S48,22.05,47.59,21.89Z"/><path class="cls-4" d="M49.12,22.3c-.15.05-.31.17-.3.29s.52.18.67.11C50.05,22.44,49.31,22.19,49.12,22.3Z"/><path class="cls-4" d="M52.7,19.42a.25.25,0,0,0-.25.1.69.69,0,0,0,1,0A.59.59,0,0,0,52.7,19.42Z"/><path class="cls-4" d="M51.22,20.76c.32.11,1.17.17,1.24-.27a.72.72,0,0,0-.69-.08C51.51,20.39,51.23,20.48,51.22,20.76Z"/><path class="cls-4" d="M51.84,18.46a.44.44,0,0,0-.62-.06.25.25,0,0,0-.15.18A.59.59,0,0,0,51.84,18.46Z"/><path class="cls-4" d="M54.15,20.29c-.63,0,.18.81.53.55S54.4,20.13,54.15,20.29Z"/><path class="cls-4" d="M45.22,22.88c-.2-.15-.36,0-.47.18-.42.27-.93.91-.52,1.06S45.21,23.23,45.22,22.88Z"/><path class="cls-4" d="M44.06,22.06c-.54.1-.28,1,.23.39C44.61,22.07,44.29,21.94,44.06,22.06Z"/><path class="cls-4" d="M47.14,23.71a.28.28,0,0,0-.2.25c.2.14.74.15.87-.11S47.32,23.4,47.14,23.71Z"/><path class="cls-4" d="M51.93,22.23l0,0a.43.43,0,0,0,0,.11c0,.05,0,.1,0,.11.11.3.73.31.62-.06S52.08,22.09,51.93,22.23Z"/><path class="cls-4" d="M57.49,21.45c-.37-.5-1.12,0-.65.16C57.12,21.81,57.85,21.94,57.49,21.45Z"/><path class="cls-4" d="M44.54,26.24l.07-.14a1,1,0,0,0-.4.64c.22.05.85-.37.84-.65S44.73,26,44.54,26.24Z"/><path class="cls-4" d="M50.21,24.82a.17.17,0,0,0,.22.05c.26,0,.74,0,.53-.32S50.29,24.6,50.21,24.82Z"/><path class="cls-4" d="M42.38,24.54a.4.4,0,0,0,0,.22c.32.11,1.13,0,.86-.51S42.47,24.16,42.38,24.54Z"/><path class="cls-4" d="M43.49,23.18h0a.27.27,0,0,0-.33.26.39.39,0,0,0,.55-.21A.33.33,0,0,0,43.49,23.18Z"/><path class="cls-5" d="M44.55,34.5c-1.18.86,4.8,5.19,8.68,5a11.45,11.45,0,0,0,9.41-6c1-2.14.66-8.23-.62-7.8-.46.15.1,2.21-1.78,5.34-1.65,2.75-4.48,5.45-8.21,5.27C46.91,36.09,45.32,33.93,44.55,34.5Z"/><path class="cls-6" d="M57.37,19.44a.54.54,0,0,0-.49.83c.32.8,2.27,2.1,2.83,1.88s.59-.87-.23-1.49A4.66,4.66,0,0,0,57.37,19.44Z"/><path class="cls-6" d="M58.38,20.51s2.26-2.34,2.91-3.22a41.89,41.89,0,0,0,2.14-4.23s.2-.3.47-.24.2.46.2.46-1.58,3.23-2.21,4.12c-1.3,1.81-3,3.77-3,3.77Z"/><path class="cls-6" d="M62.32,16.1c-.13,0-3.73-.47-3.73-.47l-.13.21,1.85.31,1.85.3Z"/><path class="cls-6" d="M54.55,20.3c-3.85,1-9.55-1.76-9.55-1.76s3.81-4.44,7.07-4.77S61,16,61,16A13.44,13.44,0,0,1,54.55,20.3Z"/><path class="cls-7" d="M57.4,19.67a.82.82,0,0,0-.09.79,4,4,0,0,0,1.4,1.12l.1-.7s-.3-.21-.33-.39a.35.35,0,0,1,0-.27Z"/><path class="cls-7" d="M59.74,16.13a30.48,30.48,0,0,0-6.46.06c-3,.44-7.52,1.87-7.46,2.07s4.94-1.64,7.36-1.8,6.74,0,6.74,0Z"/><path class="cls-7" d="M58.22,16.24a3.41,3.41,0,0,1-.62,1.18,8.25,8.25,0,0,0-1.09,1.68,10.21,10.21,0,0,0,1.25-1.56c.36-.53.82-1.27.82-1.27Z"/><path class="cls-7" d="M55.22,16.27a5,5,0,0,1-.66,1.91c-.66,1.36-.92,1.75-.76,1.79s.66-1,1-1.75.85-2,.85-2Z"/><path class="cls-7" d="M52.31,16.54A3.63,3.63,0,0,1,52.08,18c-.3,1-.66,1.57-.52,1.64s.48-.86.68-1.59.5-1.62.5-1.62Z"/><path class="cls-7" d="M49.17,17.28a2.13,2.13,0,0,1-.16.84c-.18.52-.47,1-.38,1a1.82,1.82,0,0,0,.53-.92l.28-1Z"/><path class="cls-7" d="M58.58,16.16a4.25,4.25,0,0,0-1.13-1.08,3.53,3.53,0,0,0-1.46-.6c-.08.07.83.33,1.15.54a12.23,12.23,0,0,1,1.18,1.14Z"/><path class="cls-7" d="M55.5,16.07a2.85,2.85,0,0,0-.92-1.22,4.48,4.48,0,0,0-2.06-.8c-.2.06,1.5.49,1.88.86a4.23,4.23,0,0,1,.69,1.21Z"/><path class="cls-7" d="M52.74,16.39a6.75,6.75,0,0,0-1.39-1.09,5.51,5.51,0,0,0-1.66-.42c-.19,0,1.28.32,1.69.61a9.24,9.24,0,0,1,1,1Z"/><path class="cls-7" d="M49.17,17.2s-.05-.25-.73-.5-1.07-.43-.92-.43a4.57,4.57,0,0,1,.91.23,6.06,6.06,0,0,1,1.07.61Z"/><path class="cls-3" d="M69.81,30.93c3,2.19,6.91,9.14,2.29,14.85s-11.37,6-16.47,2.69a11.47,11.47,0,0,1-1.42-18.13C59.35,25.44,65.3,27.61,69.81,30.93Z"/><path class="cls-4" d="M57.32,30.11h0Z"/><path class="cls-4" d="M58,30.83c.35-.17.74-.53.42-.84s-.78,0-1.1.12C56.9,30.51,57.08,31.29,58,30.83Z"/><path class="cls-4" d="M57.34,30.1l.53-.2A.83.83,0,0,0,57.34,30.1Z"/><path class="cls-4" d="M56.38,31.63c.13-.09.31-.29.14-.43a.23.23,0,0,0-.34.07.43.43,0,0,0-.21.29C55.94,31.85,56.24,31.73,56.38,31.63Z"/><path class="cls-4" d="M58.67,31.45a.32.32,0,0,0-.33,0c-.16,0-.35.08-.39.21a.11.11,0,0,0,0,.08l-.05,0,.05,0c0,.15.38,0,.51,0S58.93,31.6,58.67,31.45Z"/><path class="cls-4" d="M57.9,31.79h0Z"/><path class="cls-4" d="M59.4,30.67c-.15,0-.32.21-.23.36s.44.09.56,0C60.23,30.77,59.59,30.56,59.4,30.67Z"/><path class="cls-4" d="M60,29.75c-.11,0-.29-.07-.37,0a.14.14,0,0,0,0,.17c0,.11.18.2.25.24s.92.32,1,.06S60.21,29.77,60,29.75Z"/><path class="cls-4" d="M59.2,29.23c.15.08.71.06.77-.16s-.31-.28-.45-.26a.5.5,0,0,0-.24.14C59.13,29,59,29.13,59.2,29.23Z"/><path class="cls-4" d="M56.48,30.55c.29-.21,0-.33-.22-.29h0c-.14,0-.47.15-.38.33S56.37,30.64,56.48,30.55Z"/><path class="cls-4" d="M55.26,31.93c.11-.12.44-.67.06-.69a.3.3,0,0,0-.2.1,1.08,1.08,0,0,0-.38.54C54.59,32.38,55.07,32.15,55.26,31.93Z"/><path class="cls-4" d="M57.31,32.09a.74.74,0,0,0-.5,0c-.29.08-.62.3-.67.51-.12.52.79.15,1,.08S57.73,32.25,57.31,32.09Z"/><path class="cls-4" d="M58.83,32.5c-.14,0-.3.17-.29.29s.52.17.66.11C59.76,32.63,59,32.38,58.83,32.5Z"/><path class="cls-4" d="M62.42,29.61a.26.26,0,0,0-.25.11.69.69,0,0,0,1,0A.61.61,0,0,0,62.42,29.61Z"/><path class="cls-4" d="M60.94,31c.32.11,1.17.16,1.23-.28a.75.75,0,0,0-.68-.08C61.23,30.59,61,30.68,60.94,31Z"/><path class="cls-4" d="M61.56,28.66a.46.46,0,0,0-.63-.07.32.32,0,0,0-.14.18A.6.6,0,0,0,61.56,28.66Z"/><path class="cls-4" d="M63.87,30.48c-.63,0,.18.81.53.56S64.12,30.32,63.87,30.48Z"/><path class="cls-4" d="M54.94,33.08c-.2-.16-.36,0-.47.18-.42.27-.93.9-.53,1.06S54.93,33.42,54.94,33.08Z"/><path class="cls-4" d="M53.78,32.25c-.54.11-.28,1,.23.39C54.33,32.26,54,32.14,53.78,32.25Z"/><path class="cls-4" d="M56.86,33.9a.28.28,0,0,0-.2.25c.2.15.74.16.87-.11S57,33.59,56.86,33.9Z"/><path class="cls-4" d="M61.65,32.42l0,0a.52.52,0,0,0,0,.11s0,.1,0,.12c.11.29.73.3.62-.07S61.8,32.28,61.65,32.42Z"/><path class="cls-4" d="M67.21,31.64c-.37-.5-1.12,0-.65.16C66.84,32,67.57,32.13,67.21,31.64Z"/><path class="cls-4" d="M54.26,36.43l.07-.13a.91.91,0,0,0-.4.63c.22.06.85-.37.84-.65S54.44,36.16,54.26,36.43Z"/><path class="cls-4" d="M59.93,35a.17.17,0,0,0,.22.05c.26,0,.74,0,.53-.32S60,34.79,59.93,35Z"/><path class="cls-4" d="M52.1,34.73a.41.41,0,0,0,0,.22c.32.11,1.13,0,.86-.51S52.19,34.36,52.1,34.73Z"/><path class="cls-4" d="M53.21,33.37h0a.27.27,0,0,0-.33.27.39.39,0,0,0,.55-.22A.39.39,0,0,0,53.21,33.37Z"/><path class="cls-5" d="M54.27,44.69c-1.18.86,4.8,5.19,8.68,5a11.44,11.44,0,0,0,9.41-6c1-2.15.66-8.24-.62-7.81-.46.15.1,2.22-1.78,5.34-1.65,2.75-4.48,5.46-8.21,5.27C56.63,46.29,55,44.12,54.27,44.69Z"/><path class="cls-6" d="M67.09,29.63a.55.55,0,0,0-.49.84c.32.79,2.27,2.09,2.83,1.88s.59-.87-.23-1.5A4.76,4.76,0,0,0,67.09,29.63Z"/><path class="cls-6" d="M68.1,30.7s2.26-2.34,2.91-3.22a41.89,41.89,0,0,0,2.14-4.23s.2-.29.47-.24.2.47.2.47-1.58,3.23-2.21,4.11c-1.3,1.81-3,3.78-3,3.78Z"/><path class="cls-6" d="M72,26.29l-3.73-.47-.13.21,1.85.31,1.85.3Z"/><path class="cls-6" d="M64.27,30.5c-3.85,1-9.55-1.77-9.55-1.77s3.81-4.44,7.07-4.77,8.93,2.27,8.93,2.27A13.5,13.5,0,0,1,64.27,30.5Z"/><path class="cls-7" d="M67.12,29.87a.81.81,0,0,0-.09.79,4.09,4.09,0,0,0,1.4,1.11l.1-.7s-.3-.21-.34-.38a.36.36,0,0,1,0-.27Z"/><path class="cls-7" d="M69.46,26.33a29.75,29.75,0,0,0-6.46.06c-3,.43-7.52,1.86-7.46,2.06s4.94-1.63,7.36-1.8,6.74,0,6.74,0Z"/><path class="cls-7" d="M67.94,26.44a3.34,3.34,0,0,1-.62,1.17,8.47,8.47,0,0,0-1.09,1.69,10.44,10.44,0,0,0,1.25-1.57c.36-.53.82-1.27.82-1.27Z"/><path class="cls-7" d="M64.94,26.46a5,5,0,0,1-.66,1.91c-.66,1.36-.92,1.76-.76,1.79s.66-1,1-1.74.85-2,.85-2Z"/><path class="cls-7" d="M62,26.73a3.69,3.69,0,0,1-.23,1.43c-.3,1-.66,1.57-.53,1.64s.49-.87.69-1.59.5-1.63.5-1.63Z"/><path class="cls-7" d="M58.89,27.48a2.13,2.13,0,0,1-.16.84c-.18.51-.47,1-.38,1a1.93,1.93,0,0,0,.53-.92l.28-1Z"/><path class="cls-7" d="M68.3,26.36a4.38,4.38,0,0,0-1.13-1.09,3.53,3.53,0,0,0-1.46-.6c-.08.07.83.33,1.15.54A12.23,12.23,0,0,1,68,26.35Z"/><path class="cls-7" d="M65.22,26.27A2.88,2.88,0,0,0,64.29,25a4.57,4.57,0,0,0-2.05-.8c-.2.06,1.5.49,1.88.86a4.23,4.23,0,0,1,.69,1.21Z"/><path class="cls-7" d="M62.46,26.58a6.75,6.75,0,0,0-1.39-1.09,5.58,5.58,0,0,0-1.66-.42c-.19,0,1.28.33,1.69.62a9.06,9.06,0,0,1,1,1Z"/><path class="cls-7" d="M58.89,27.39s0-.24-.73-.5-1.07-.43-.92-.43a4.16,4.16,0,0,1,.91.24,5.61,5.61,0,0,1,1.07.6Z"/><path class="cls-3" d="M19,20.78c-3,2.19-6.91,9.14-2.29,14.85s11.37,6,16.47,2.7a11.48,11.48,0,0,0,1.42-18.14C29.42,15.3,23.47,17.46,19,20.78Z"/><path class="cls-4" d="M31.45,20h0Z"/><path class="cls-4" d="M30.76,20.68c-.35-.17-.74-.53-.41-.84s.77,0,1.09.12C31.87,20.36,31.69,21.14,30.76,20.68Z"/><path class="cls-4" d="M31.44,20l-.54-.21A.83.83,0,0,1,31.44,20Z"/><path class="cls-4" d="M32.39,21.49c-.13-.1-.31-.3-.14-.44a.23.23,0,0,1,.34.07.48.48,0,0,1,.22.29C32.83,21.7,32.53,21.59,32.39,21.49Z"/><path class="cls-4" d="M30.11,21.31a.29.29,0,0,1,.32,0c.16,0,.35.08.39.21a.11.11,0,0,1,0,.08l.05,0-.05,0c0,.15-.38,0-.5,0S29.84,21.45,30.11,21.31Z"/><path class="cls-4" d="M30.87,21.64h0Z"/><path class="cls-4" d="M29.37,20.52c.15.05.32.22.23.36s-.44.09-.56,0C28.54,20.62,29.19,20.41,29.37,20.52Z"/><path class="cls-4" d="M28.74,19.6c.11,0,.3-.06.38,0a.15.15,0,0,1,0,.18c0,.1-.18.19-.25.23s-.92.32-1,.06S28.56,19.63,28.74,19.6Z"/><path class="cls-4" d="M29.58,19.08c-.16.08-.72.06-.78-.16s.31-.28.45-.26a.58.58,0,0,1,.25.14C29.64,18.87,29.76,19,29.58,19.08Z"/><path class="cls-4" d="M32.29,20.4c-.29-.21,0-.33.22-.29h0c.13,0,.46.14.37.32S32.4,20.49,32.29,20.4Z"/><path class="cls-4" d="M33.51,21.79c-.11-.13-.44-.67-.06-.69a.23.23,0,0,1,.2.1,1.06,1.06,0,0,1,.38.53C34.18,22.23,33.7,22,33.51,21.79Z"/><path class="cls-4" d="M31.46,21.94a.74.74,0,0,1,.5,0,1,1,0,0,1,.67.52c.13.52-.78.14-1,.08S31,22.1,31.46,21.94Z"/><path class="cls-4" d="M29.94,22.35c.14,0,.3.17.3.29s-.53.18-.67.11C29,22.49,29.74,22.23,29.94,22.35Z"/><path class="cls-4" d="M26.35,19.47a.23.23,0,0,1,.25.1.69.69,0,0,1-1,0A.57.57,0,0,1,26.35,19.47Z"/><path class="cls-4" d="M27.83,20.81c-.32.11-1.17.16-1.23-.28a.75.75,0,0,1,.68-.08C27.54,20.44,27.82,20.53,27.83,20.81Z"/><path class="cls-4" d="M27.21,18.51a.45.45,0,0,1,.63-.06.28.28,0,0,1,.15.18A.62.62,0,0,1,27.21,18.51Z"/><path class="cls-4" d="M24.9,20.34c.63,0-.18.8-.53.55S24.65,20.17,24.9,20.34Z"/><path class="cls-4" d="M33.83,22.93c.2-.15.36,0,.47.18.42.27.93.9.53,1.06S33.85,23.28,33.83,22.93Z"/><path class="cls-4" d="M35,22.1c.54.11.28,1-.23.39C34.44,22.11,34.77,22,35,22.1Z"/><path class="cls-4" d="M31.92,23.76a.27.27,0,0,1,.19.24c-.2.15-.74.16-.87-.11S31.74,23.44,31.92,23.76Z"/><path class="cls-4" d="M27.12,22.28l0-.05a.61.61,0,0,1,0,.11c0,.06,0,.1,0,.12-.11.29-.73.3-.61-.07S27,22.13,27.12,22.28Z"/><path class="cls-4" d="M21.56,21.49c.37-.5,1.12,0,.65.16C21.93,21.85,21.21,22,21.56,21.49Z"/><path class="cls-4" d="M34.51,26.28l-.07-.13a.93.93,0,0,1,.4.63c-.22.06-.85-.36-.84-.65S34.33,26,34.51,26.28Z"/><path class="cls-4" d="M28.84,24.86c-.08.1-.14.09-.21.05-.27,0-.75,0-.54-.31S28.77,24.64,28.84,24.86Z"/><path class="cls-4" d="M36.67,24.58a.54.54,0,0,1,0,.22c-.32.11-1.14,0-.87-.51S36.58,24.21,36.67,24.58Z"/><path class="cls-4" d="M35.56,23.22h0c.19,0,.32.06.33.26a.39.39,0,0,1-.55-.22A.39.39,0,0,1,35.56,23.22Z"/><path class="cls-5" d="M34.51,34.54c1.17.86-4.81,5.2-8.69,5a11.41,11.41,0,0,1-9.4-6c-1-2.15-.67-8.23.61-7.81.46.15-.1,2.22,1.78,5.35,1.66,2.74,4.48,5.45,8.22,5.26C32.14,36.14,33.73,34,34.51,34.54Z"/><path class="cls-6" d="M21.68,19.48a.55.55,0,0,1,.49.84c-.32.8-2.27,2.1-2.83,1.88s-.59-.87.23-1.5A4.86,4.86,0,0,1,21.68,19.48Z"/><path class="cls-6" d="M20.67,20.55s-2.26-2.34-2.9-3.22a40.43,40.43,0,0,1-2.15-4.22s-.19-.3-.47-.25-.2.47-.2.47,1.58,3.23,2.22,4.12c1.3,1.8,3,3.77,3,3.77Z"/><path class="cls-6" d="M16.73,16.14l3.73-.47.13.22-1.85.3-1.85.31Z"/><path class="cls-6" d="M24.5,20.35c3.85,1,9.55-1.77,9.55-1.77s-3.8-4.43-7.07-4.77-8.93,2.27-8.93,2.27A13.49,13.49,0,0,0,24.5,20.35Z"/><path class="cls-7" d="M21.65,19.72a.82.82,0,0,1,.09.79,4.16,4.16,0,0,1-1.4,1.12l-.09-.71s.3-.2.33-.38a.39.39,0,0,0,0-.27Z"/><path class="cls-7" d="M19.31,16.18a30.51,30.51,0,0,1,6.46.06c3,.43,7.52,1.87,7.46,2.07s-4.94-1.64-7.36-1.8-6.73,0-6.73,0Z"/><path class="cls-7" d="M20.83,16.29a3.28,3.28,0,0,0,.63,1.17,8.7,8.7,0,0,1,1.08,1.69,9.93,9.93,0,0,1-1.25-1.57c-.36-.53-.82-1.27-.82-1.27Z"/><path class="cls-7" d="M23.83,16.31a5.29,5.29,0,0,0,.66,1.92c.66,1.36.93,1.75.76,1.78s-.65-1-1-1.74-.85-2-.85-2Z"/><path class="cls-7" d="M26.74,16.59A3.93,3.93,0,0,0,27,18c.3,1,.66,1.57.53,1.64s-.49-.86-.69-1.59-.5-1.62-.5-1.62Z"/><path class="cls-7" d="M29.88,17.33a2.39,2.39,0,0,0,.16.84c.18.51.47,1,.39,1a1.84,1.84,0,0,1-.54-.92l-.28-1Z"/><path class="cls-7" d="M20.47,16.21a4.32,4.32,0,0,1,1.14-1.09,3.44,3.44,0,0,1,1.45-.59c.08.07-.83.32-1.15.53a12.23,12.23,0,0,0-1.18,1.14Z"/><path class="cls-7" d="M23.56,16.12a2.81,2.81,0,0,1,.92-1.23,4.57,4.57,0,0,1,2.05-.8c.2.06-1.5.49-1.88.87a4.1,4.1,0,0,0-.69,1.2Z"/><path class="cls-7" d="M26.31,16.44a6.69,6.69,0,0,1,1.39-1.1,6.29,6.29,0,0,1,1.66-.42c.19,0-1.28.33-1.69.62a9.06,9.06,0,0,0-1,1Z"/><path class="cls-7" d="M29.88,17.24s.05-.24.74-.5,1.06-.43.91-.43a5.09,5.09,0,0,0-.91.24,5.46,5.46,0,0,0-1.07.61Z"/><path class="cls-3" d="M13.2,33.61c-3,2.19-6.91,9.14-2.29,14.85s11.38,6,16.47,2.7A11.48,11.48,0,0,0,28.8,33C23.66,28.13,17.71,30.3,13.2,33.61Z"/><path class="cls-4" d="M25.69,32.79h0Z"/><path class="cls-4" d="M25,33.51c-.35-.16-.74-.52-.41-.84s.77,0,1.09.12C26.11,33.19,25.93,34,25,33.51Z"/><path class="cls-4" d="M25.68,32.79l-.54-.21A.83.83,0,0,1,25.68,32.79Z"/><path class="cls-4" d="M26.63,34.32c-.13-.1-.31-.3-.13-.44a.22.22,0,0,1,.33.07.44.44,0,0,1,.22.29C27.07,34.53,26.77,34.42,26.63,34.32Z"/><path class="cls-4" d="M24.35,34.14a.33.33,0,0,1,.32,0c.16,0,.36.08.39.21a.11.11,0,0,1,0,.08l.05,0-.05,0c0,.15-.38,0-.5,0S24.08,34.28,24.35,34.14Z"/><path class="cls-4" d="M25.11,34.47h0Z"/><path class="cls-4" d="M23.61,33.35c.15,0,.32.22.23.36s-.44.09-.56,0C22.78,33.45,23.43,33.24,23.61,33.35Z"/><path class="cls-4" d="M23,32.43c.1,0,.29-.06.37,0a.15.15,0,0,1,0,.18c0,.1-.18.19-.25.23s-.92.32-1,.06S22.8,32.46,23,32.43Z"/><path class="cls-4" d="M23.82,31.91c-.16.09-.72.06-.78-.16s.31-.28.45-.26a.58.58,0,0,1,.25.14C23.89,31.7,24,31.81,23.82,31.91Z"/><path class="cls-4" d="M26.53,33.24c-.29-.22,0-.34.22-.3h0c.13,0,.46.14.37.32S26.64,33.32,26.53,33.24Z"/><path class="cls-4" d="M27.75,34.62c-.11-.13-.44-.67-.06-.69a.26.26,0,0,1,.2.1,1.06,1.06,0,0,1,.38.53C28.42,35.06,27.94,34.84,27.75,34.62Z"/><path class="cls-4" d="M25.7,34.77a.74.74,0,0,1,.5,0,1,1,0,0,1,.67.52c.13.52-.78.14-1,.08S25.28,34.93,25.7,34.77Z"/><path class="cls-4" d="M24.18,35.18c.14,0,.3.17.3.29s-.53.18-.67.11C23.25,35.32,24,35.07,24.18,35.18Z"/><path class="cls-4" d="M20.59,32.3a.23.23,0,0,1,.25.1.69.69,0,0,1-1,0A.57.57,0,0,1,20.59,32.3Z"/><path class="cls-4" d="M22.07,33.64c-.32.11-1.17.16-1.23-.28a.75.75,0,0,1,.68-.08C21.78,33.27,22.06,33.36,22.07,33.64Z"/><path class="cls-4" d="M21.45,31.34a.46.46,0,0,1,.63-.06.28.28,0,0,1,.15.18A.6.6,0,0,1,21.45,31.34Z"/><path class="cls-4" d="M19.14,33.17c.63,0-.18.81-.53.55S18.89,33,19.14,33.17Z"/><path class="cls-4" d="M28.07,35.76c.2-.15.36,0,.47.18.42.27.93.91.53,1.06S28.09,36.11,28.07,35.76Z"/><path class="cls-4" d="M29.23,34.94c.54.1.28,1-.23.38C28.68,34.94,29,34.82,29.23,34.94Z"/><path class="cls-4" d="M26.16,36.59a.27.27,0,0,1,.19.24c-.2.15-.74.16-.87-.11S26,36.28,26.16,36.59Z"/><path class="cls-4" d="M21.36,35.11l0,0a.61.61,0,0,1,0,.11c0,.06,0,.1,0,.12-.11.3-.73.31-.61-.07S21.22,35,21.36,35.11Z"/><path class="cls-4" d="M15.8,34.32c.37-.5,1.12,0,.65.16C16.17,34.68,15.45,34.82,15.8,34.32Z"/><path class="cls-4" d="M28.75,39.11,28.68,39a.9.9,0,0,1,.4.63c-.22.06-.85-.36-.83-.64S28.57,38.84,28.75,39.11Z"/><path class="cls-4" d="M23.08,37.69c-.08.1-.14.09-.21.05-.27,0-.75,0-.54-.31S23,37.47,23.08,37.69Z"/><path class="cls-4" d="M30.91,37.41a.54.54,0,0,1,0,.22c-.32.11-1.14,0-.87-.51S30.82,37,30.91,37.41Z"/><path class="cls-4" d="M29.8,36.05h0a.26.26,0,0,1,.33.26.39.39,0,0,1-.55-.21A.34.34,0,0,1,29.8,36.05Z"/><path class="cls-5" d="M28.75,47.37c1.17.86-4.81,5.2-8.69,5.05a11.44,11.44,0,0,1-9.4-6c-1-2.15-.67-8.23.61-7.81.46.15-.1,2.22,1.78,5.35,1.66,2.74,4.48,5.45,8.22,5.26C26.38,49,28,46.8,28.75,47.37Z"/><path class="cls-6" d="M15.92,32.31a.55.55,0,0,1,.49.84c-.32.8-2.27,2.1-2.83,1.88s-.59-.87.23-1.5A4.86,4.86,0,0,1,15.92,32.31Z"/><path class="cls-6" d="M14.91,33.38S12.65,31,12,30.16a39.9,39.9,0,0,1-2.14-4.22s-.2-.3-.48-.25-.2.47-.2.47,1.58,3.23,2.22,4.12c1.3,1.8,3,3.77,3,3.77Z"/><path class="cls-6" d="M11,29c.14,0,3.73-.48,3.73-.48l.14.22L13,29l-1.85.31Z"/><path class="cls-6" d="M18.74,33.18c3.85,1,9.55-1.77,9.55-1.77s-3.8-4.43-7.07-4.77-8.93,2.27-8.93,2.27A13.49,13.49,0,0,0,18.74,33.18Z"/><path class="cls-7" d="M15.89,32.55a.82.82,0,0,1,.09.79,4.16,4.16,0,0,1-1.4,1.12l-.09-.71s.3-.2.33-.38a.41.41,0,0,0,0-.27Z"/><path class="cls-7" d="M13.55,29a30.51,30.51,0,0,1,6.46.06c3,.43,7.52,1.87,7.46,2.07s-4.94-1.64-7.36-1.8-6.73,0-6.73,0Z"/><path class="cls-7" d="M15.07,29.12a3.36,3.36,0,0,0,.63,1.18A8.47,8.47,0,0,1,16.78,32a9.93,9.93,0,0,1-1.25-1.57c-.36-.52-.82-1.26-.82-1.26Z"/><path class="cls-7" d="M18.07,29.14a5.29,5.29,0,0,0,.66,1.92c.66,1.36.93,1.75.76,1.78s-.65-1-1-1.74-.84-2-.84-2Z"/><path class="cls-7" d="M21,29.42a3.72,3.72,0,0,0,.22,1.42c.3,1,.66,1.57.53,1.64s-.49-.86-.69-1.59-.5-1.62-.5-1.62Z"/><path class="cls-7" d="M24.12,30.16a2.39,2.39,0,0,0,.16.84c.18.52.47,1,.39,1a1.84,1.84,0,0,1-.54-.92l-.28-1Z"/><path class="cls-7" d="M14.72,29A4.19,4.19,0,0,1,15.85,28a3.44,3.44,0,0,1,1.45-.59c.08.07-.83.33-1.15.53A12.23,12.23,0,0,0,15,29Z"/><path class="cls-7" d="M17.8,29a2.81,2.81,0,0,1,.92-1.23,4.57,4.57,0,0,1,2.05-.8c.2.07-1.5.49-1.88.87A4.1,4.1,0,0,0,18.2,29Z"/><path class="cls-7" d="M20.55,29.27a6.69,6.69,0,0,1,1.39-1.1,6.29,6.29,0,0,1,1.66-.42c.19,0-1.28.33-1.69.62a9.06,9.06,0,0,0-1,1Z"/><path class="cls-7" d="M24.12,30.07s.05-.24.74-.5,1.06-.43.91-.43a5.09,5.09,0,0,0-.91.24,5.46,5.46,0,0,0-1.07.61Z"/><path class="cls-3" d="M85.92,36.37c3,2.19,6.91,9.14,2.29,14.85s-11.37,6.05-16.46,2.7a11.49,11.49,0,0,1-1.43-18.14C75.47,30.89,81.42,33.05,85.92,36.37Z"/><path class="cls-4" d="M73.43,35.55h0Z"/><path class="cls-4" d="M74.13,36.27c.35-.17.74-.53.41-.84s-.78,0-1.09.12C73,36,73.19,36.73,74.13,36.27Z"/><path class="cls-4" d="M73.45,35.55l.53-.21A.82.82,0,0,0,73.45,35.55Z"/><path class="cls-4" d="M72.49,37.08c.14-.1.32-.3.14-.44a.22.22,0,0,0-.33.07.44.44,0,0,0-.22.29C72.05,37.29,72.36,37.18,72.49,37.08Z"/><path class="cls-4" d="M74.78,36.9a.3.3,0,0,0-.33,0c-.15,0-.35.08-.38.21a.25.25,0,0,0,0,.08l0,0,0,0c0,.15.39,0,.51,0S75.05,37,74.78,36.9Z"/><path class="cls-4" d="M74,37.23h0Z"/><path class="cls-4" d="M75.51,36.11c-.15,0-.32.22-.23.36s.44.09.57,0C76.35,36.21,75.7,36,75.51,36.11Z"/><path class="cls-4" d="M76.14,35.19c-.1,0-.29-.06-.37,0a.12.12,0,0,0,0,.17c0,.11.18.2.25.24s.91.32,1,.06S76.33,35.22,76.14,35.19Z"/><path class="cls-4" d="M75.31,34.67c.16.08.72.06.77-.16s-.3-.28-.45-.26a.61.61,0,0,0-.24.14C75.24,34.46,75.13,34.57,75.31,34.67Z"/><path class="cls-4" d="M72.59,36c.29-.21,0-.33-.22-.29h0c-.13,0-.46.14-.37.32S72.48,36.08,72.59,36Z"/><path class="cls-4" d="M71.37,37.38c.11-.13.44-.67.06-.69a.22.22,0,0,0-.19.1,1.08,1.08,0,0,0-.39.53C70.7,37.82,71.19,37.59,71.37,37.38Z"/><path class="cls-4" d="M73.42,37.53a.74.74,0,0,0-.5,0,1,1,0,0,0-.66.52c-.13.51.78.14,1,.07S73.85,37.69,73.42,37.53Z"/><path class="cls-4" d="M75,37.94c-.15.05-.3.17-.3.29s.52.18.67.11C75.88,38.08,75.15,37.82,75,37.94Z"/><path class="cls-4" d="M78.53,35.06a.25.25,0,0,0-.25.1.7.7,0,0,0,1,0A.58.58,0,0,0,78.53,35.06Z"/><path class="cls-4" d="M77.06,36.4c.31.11,1.16.16,1.23-.28a.75.75,0,0,0-.68-.08C77.34,36,77.06,36.12,77.06,36.4Z"/><path class="cls-4" d="M77.67,34.1a.45.45,0,0,0-.62-.07.32.32,0,0,0-.15.19A.61.61,0,0,0,77.67,34.1Z"/><path class="cls-4" d="M80,35.93c-.62,0,.18.8.53.55S80.23,35.76,80,35.93Z"/><path class="cls-4" d="M71.05,38.52c-.19-.16-.36,0-.47.18-.42.27-.92.9-.52,1.06S71,38.87,71.05,38.52Z"/><path class="cls-4" d="M69.9,37.69c-.54.11-.29,1,.23.39C70.45,37.7,70.12,37.58,69.9,37.69Z"/><path class="cls-4" d="M73,39.35a.28.28,0,0,0-.2.24c.2.15.74.16.88-.11S73.15,39,73,39.35Z"/><path class="cls-4" d="M77.76,37.87l0,0a.52.52,0,0,0,0,.11c0,.06,0,.1,0,.12.11.29.73.3.61-.07S77.91,37.72,77.76,37.87Z"/><path class="cls-4" d="M83.32,37.08c-.36-.5-1.12,0-.64.16C83,37.44,83.68,37.58,83.32,37.08Z"/><path class="cls-4" d="M70.37,41.87l.08-.13a.9.9,0,0,0-.4.63c.21.06.85-.36.83-.65S70.56,41.6,70.37,41.87Z"/><path class="cls-4" d="M76.05,40.45c.08.09.14.09.21,0,.26,0,.74,0,.54-.31S76.12,40.23,76.05,40.45Z"/><path class="cls-4" d="M68.21,40.17a.41.41,0,0,0,0,.22c.32.11,1.13,0,.86-.51S68.3,39.8,68.21,40.17Z"/><path class="cls-4" d="M69.33,38.81h0a.27.27,0,0,0-.33.27.4.4,0,0,0,.56-.22A.41.41,0,0,0,69.33,38.81Z"/><path class="cls-5" d="M70.38,50.13c-1.17.86,4.8,5.2,8.69,5a11.44,11.44,0,0,0,9.4-6c1-2.15.67-8.23-.62-7.81-.46.15.11,2.22-1.78,5.35-1.65,2.74-4.47,5.45-8.21,5.26C72.74,51.73,71.16,49.56,70.38,50.13Z"/><path class="cls-6" d="M83.2,35.07a.55.55,0,0,0-.49.84c.33.8,2.28,2.1,2.84,1.88s.58-.87-.24-1.5A4.75,4.75,0,0,0,83.2,35.07Z"/><path class="cls-6" d="M84.21,36.14s2.26-2.34,2.91-3.22a42,42,0,0,0,2.14-4.22s.2-.3.48-.25.19.47.19.47S88.36,32.15,87.72,33c-1.3,1.8-3,3.77-3,3.77Z"/><path class="cls-6" d="M88.16,31.73l-3.73-.47-.14.22,1.85.3,1.86.31Z"/><path class="cls-6" d="M80.39,35.94c-3.86,1-9.55-1.77-9.55-1.77s3.8-4.43,7.06-4.77,8.93,2.27,8.93,2.27A13.43,13.43,0,0,1,80.39,35.94Z"/><path class="cls-7" d="M83.23,35.31a.8.8,0,0,0-.08.79,4.16,4.16,0,0,0,1.4,1.12l.09-.71s-.3-.2-.33-.38a.39.39,0,0,1,0-.27Z"/><path class="cls-7" d="M85.57,31.77a30.48,30.48,0,0,0-6.46.06c-3,.43-7.52,1.86-7.46,2.07S76.6,32.26,79,32.1s6.74,0,6.74,0Z"/><path class="cls-7" d="M84.06,31.88a3.52,3.52,0,0,1-.63,1.17,8.47,8.47,0,0,0-1.09,1.69,10.43,10.43,0,0,0,1.26-1.57c.35-.53.81-1.27.81-1.27Z"/><path class="cls-7" d="M81.06,31.9a5.29,5.29,0,0,1-.66,1.92c-.66,1.36-.93,1.75-.77,1.78s.66-1,1-1.74.85-2,.85-2Z"/><path class="cls-7" d="M78.14,32.18a3.65,3.65,0,0,1-.23,1.42c-.29,1-.66,1.57-.52,1.64s.48-.87.68-1.59.5-1.63.5-1.63Z"/><path class="cls-7" d="M75,32.92a2.39,2.39,0,0,1-.16.84c-.19.51-.48,1-.39,1a1.92,1.92,0,0,0,.54-.92c.13-.46.27-1,.27-1Z"/><path class="cls-7" d="M84.41,31.8a4.38,4.38,0,0,0-1.13-1.09,3.46,3.46,0,0,0-1.46-.59c-.07.07.83.32,1.15.53a12.62,12.62,0,0,1,1.19,1.14Z"/><path class="cls-7" d="M81.33,31.71a2.91,2.91,0,0,0-.92-1.23,4.56,4.56,0,0,0-2.06-.8c-.19.06,1.5.49,1.88.87a4.22,4.22,0,0,1,.7,1.2Z"/><path class="cls-7" d="M78.57,32a6.6,6.6,0,0,0-1.38-1.09,6.39,6.39,0,0,0-1.66-.42c-.2,0,1.27.33,1.68.62a8.6,8.6,0,0,1,1.05,1Z"/><path class="cls-7" d="M75,32.83s0-.24-.73-.5-1.06-.43-.92-.43a4.88,4.88,0,0,1,.91.24,5.66,5.66,0,0,1,1.08.61Z"/><path class="cls-3" d="M90.67,46.5c3,2.2,6.91,9.14,2.29,14.85s-11.37,6.06-16.47,2.7a11.48,11.48,0,0,1-1.42-18.14C80.21,41,86.16,43.19,90.67,46.5Z"/><path class="cls-4" d="M78.18,45.69h0Z"/><path class="cls-4" d="M78.87,46.41c.35-.17.74-.53.42-.85s-.78,0-1.1.12C77.76,46.08,77.94,46.86,78.87,46.41Z"/><path class="cls-4" d="M78.2,45.68l.53-.21A.78.78,0,0,0,78.2,45.68Z"/><path class="cls-4" d="M77.24,47.21c.13-.1.31-.3.14-.44a.23.23,0,0,0-.34.07.43.43,0,0,0-.21.29C76.8,47.42,77.1,47.31,77.24,47.21Z"/><path class="cls-4" d="M79.53,47a.35.35,0,0,0-.33,0c-.16,0-.35.08-.39.21a.11.11,0,0,0,0,.08l0,0,0,0c0,.14.38,0,.51,0S79.79,47.18,79.53,47Z"/><path class="cls-4" d="M78.76,47.36l0,0Z"/><path class="cls-4" d="M80.26,46.25c-.15,0-.32.21-.23.36s.44.09.56,0C81.09,46.35,80.45,46.13,80.26,46.25Z"/><path class="cls-4" d="M80.89,45.32c-.11,0-.29-.06-.37,0a.15.15,0,0,0,0,.18c0,.1.18.2.25.23s.92.33,1,.07S81.07,45.35,80.89,45.32Z"/><path class="cls-4" d="M80.06,44.8c.15.09.71.07.77-.16s-.31-.28-.45-.26a.6.6,0,0,0-.24.14C80,44.59,79.88,44.71,80.06,44.8Z"/><path class="cls-4" d="M77.34,46.13c.29-.22,0-.34-.22-.3h0c-.14,0-.47.14-.38.33S77.23,46.21,77.34,46.13Z"/><path class="cls-4" d="M76.12,47.51c.11-.12.44-.67.06-.69a.3.3,0,0,0-.2.1,1.06,1.06,0,0,0-.38.53C75.45,48,75.93,47.73,76.12,47.51Z"/><path class="cls-4" d="M78.17,47.66a.8.8,0,0,0-.5,0,1,1,0,0,0-.67.52c-.12.52.79.15,1,.08S78.59,47.82,78.17,47.66Z"/><path class="cls-4" d="M79.69,48.07c-.14,0-.3.17-.29.29s.52.18.66.11C80.62,48.21,79.89,48,79.69,48.07Z"/><path class="cls-4" d="M83.28,45.19a.25.25,0,0,0-.25.1.7.7,0,0,0,1,0A.59.59,0,0,0,83.28,45.19Z"/><path class="cls-4" d="M81.8,46.53c.32.11,1.17.17,1.23-.27a.72.72,0,0,0-.68-.09C82.09,46.16,81.81,46.25,81.8,46.53Z"/><path class="cls-4" d="M82.42,44.23a.46.46,0,0,0-.63-.06.26.26,0,0,0-.14.18A.59.59,0,0,0,82.42,44.23Z"/><path class="cls-4" d="M84.73,46.06c-.63,0,.18.81.53.55S85,45.9,84.73,46.06Z"/><path class="cls-4" d="M75.8,48.65c-.2-.15-.36,0-.47.18-.42.27-.93.91-.53,1.06S75.79,49,75.8,48.65Z"/><path class="cls-4" d="M74.64,47.83c-.54.1-.28,1,.23.39C75.19,47.83,74.87,47.71,74.64,47.83Z"/><path class="cls-4" d="M77.72,49.48a.27.27,0,0,0-.2.25c.2.14.74.15.87-.11S77.9,49.17,77.72,49.48Z"/><path class="cls-4" d="M82.51,48l0,0a.43.43,0,0,0,0,.11s0,.09,0,.11c.11.3.73.31.62-.06S82.66,47.86,82.51,48Z"/><path class="cls-4" d="M88.07,47.22c-.37-.51-1.12,0-.65.15C87.7,47.58,88.42,47.71,88.07,47.22Z"/><path class="cls-4" d="M75.12,52l.07-.13a.93.93,0,0,0-.4.64c.22.05.85-.37.84-.65S75.3,51.73,75.12,52Z"/><path class="cls-4" d="M80.79,50.59a.15.15,0,0,0,.22,0c.26,0,.74,0,.53-.31S80.87,50.37,80.79,50.59Z"/><path class="cls-4" d="M73,50.31a.4.4,0,0,0,0,.22c.32.11,1.13,0,.86-.51S73.05,49.93,73,50.31Z"/><path class="cls-4" d="M74.07,49h0a.27.27,0,0,0-.33.26A.39.39,0,0,0,74.3,49,.33.33,0,0,0,74.07,49Z"/><path class="cls-5" d="M75.13,60.26c-1.18.86,4.8,5.2,8.68,5.05a11.45,11.45,0,0,0,9.41-6c1-2.14.66-8.23-.62-7.81-.46.16.1,2.22-1.78,5.35-1.65,2.74-4.48,5.45-8.21,5.27C77.49,61.86,75.9,59.7,75.13,60.26Z"/><path class="cls-6" d="M88,45.21a.54.54,0,0,0-.49.83c.32.8,2.27,2.1,2.83,1.88s.59-.87-.23-1.49A4.66,4.66,0,0,0,88,45.21Z"/><path class="cls-6" d="M89,46.28s2.26-2.34,2.91-3.22A43,43,0,0,0,94,38.83s.2-.3.47-.24.2.46.2.46-1.58,3.23-2.21,4.12c-1.3,1.81-3,3.77-3,3.77Z"/><path class="cls-6" d="M92.9,41.87c-.13,0-3.73-.47-3.73-.47l-.13.21,1.85.3,1.85.31Z"/><path class="cls-6" d="M85.13,46.07c-3.85,1-9.55-1.77-9.55-1.77s3.81-4.43,7.07-4.76,8.93,2.27,8.93,2.27A13.44,13.44,0,0,1,85.13,46.07Z"/><path class="cls-7" d="M88,45.44a.82.82,0,0,0-.09.79,4.16,4.16,0,0,0,1.4,1.12l.1-.71s-.3-.2-.34-.38a.41.41,0,0,1,0-.27Z"/><path class="cls-7" d="M90.32,41.9a30.48,30.48,0,0,0-6.46.06c-3,.44-7.52,1.87-7.46,2.07s4.94-1.64,7.36-1.8,6.74,0,6.74,0Z"/><path class="cls-7" d="M88.8,42a3.36,3.36,0,0,1-.63,1.18,8.47,8.47,0,0,0-1.08,1.68,9.93,9.93,0,0,0,1.25-1.57c.36-.52.82-1.26.82-1.26Z"/><path class="cls-7" d="M85.8,42A5,5,0,0,1,85.14,44c-.66,1.36-.92,1.75-.76,1.78s.66-1,1-1.74.85-2,.85-2Z"/><path class="cls-7" d="M82.89,42.31a3.63,3.63,0,0,1-.23,1.42c-.3,1-.66,1.57-.53,1.64s.49-.86.69-1.59.5-1.62.5-1.62Z"/><path class="cls-7" d="M79.75,43.05a2.13,2.13,0,0,1-.16.84c-.18.52-.47,1-.38,1a1.82,1.82,0,0,0,.53-.92L80,43Z"/><path class="cls-7" d="M89.16,41.93A4.25,4.25,0,0,0,88,40.85a3.53,3.53,0,0,0-1.46-.6c-.08.07.83.33,1.15.54a12.23,12.23,0,0,1,1.18,1.14Z"/><path class="cls-7" d="M86.08,41.84a2.88,2.88,0,0,0-.93-1.23,4.7,4.7,0,0,0-2.05-.8c-.2.07,1.5.5,1.88.87a4.23,4.23,0,0,1,.69,1.2Z"/><path class="cls-7" d="M83.32,42.16a6.75,6.75,0,0,0-1.39-1.09,5.58,5.58,0,0,0-1.66-.42c-.19,0,1.28.32,1.69.61a8.84,8.84,0,0,1,1,1Z"/><path class="cls-7" d="M79.75,43s0-.24-.73-.5S78,42,78.1,42a3.94,3.94,0,0,1,.91.23,6.06,6.06,0,0,1,1.07.61Z"/><path class="cls-3" d="M70.92,47.06c3,2.19,6.91,9.14,2.29,14.85S61.84,68,56.75,64.6a11.48,11.48,0,0,1-1.43-18.13C60.47,41.58,66.42,43.74,70.92,47.06Z"/><path class="cls-4" d="M58.43,46.24h0Z"/><path class="cls-4" d="M59.13,47c.34-.17.74-.53.41-.84s-.78,0-1.09.12C58,46.64,58.19,47.42,59.13,47Z"/><path class="cls-4" d="M58.45,46.24,59,46A.8.8,0,0,0,58.45,46.24Z"/><path class="cls-4" d="M57.49,47.77c.14-.1.31-.3.14-.44a.23.23,0,0,0-.34.07.46.46,0,0,0-.21.29C57.05,48,57.36,47.87,57.49,47.77Z"/><path class="cls-4" d="M59.78,47.59a.3.3,0,0,0-.33,0c-.16,0-.35.08-.39.21s0,.06,0,.08l0,0,0,0c0,.15.38,0,.51,0S60.05,47.73,59.78,47.59Z"/><path class="cls-4" d="M59,47.92h0Z"/><path class="cls-4" d="M60.51,46.8c-.15.05-.32.21-.23.36s.44.09.56,0C61.35,46.9,60.7,46.69,60.51,46.8Z"/><path class="cls-4" d="M61.14,45.88c-.1,0-.29-.06-.37,0a.14.14,0,0,0,0,.17c0,.11.18.2.25.24s.92.32,1,.06S61.33,45.9,61.14,45.88Z"/><path class="cls-4" d="M60.31,45.36c.15.08.71.06.77-.16s-.3-.28-.45-.26a.55.55,0,0,0-.24.14C60.24,45.15,60.13,45.26,60.31,45.36Z"/><path class="cls-4" d="M57.59,46.68c.29-.21,0-.33-.22-.29h0c-.13,0-.46.14-.38.32S57.48,46.77,57.59,46.68Z"/><path class="cls-4" d="M56.37,48.07c.11-.13.44-.67.06-.69a.21.21,0,0,0-.19.1,1.08,1.08,0,0,0-.39.53C55.7,48.51,56.18,48.28,56.37,48.07Z"/><path class="cls-4" d="M58.42,48.22a.74.74,0,0,0-.5,0,1,1,0,0,0-.67.52c-.12.51.79.14,1,.07S58.85,48.38,58.42,48.22Z"/><path class="cls-4" d="M60,48.63c-.15,0-.3.17-.3.29s.52.18.67.11C60.88,48.77,60.15,48.51,60,48.63Z"/><path class="cls-4" d="M63.53,45.75a.25.25,0,0,0-.25.1.69.69,0,0,0,1,0A.59.59,0,0,0,63.53,45.75Z"/><path class="cls-4" d="M62.06,47.09c.31.11,1.16.16,1.23-.28a.75.75,0,0,0-.68-.08C62.34,46.72,62.06,46.81,62.06,47.09Z"/><path class="cls-4" d="M62.67,44.79a.45.45,0,0,0-.62-.07.32.32,0,0,0-.15.19A.61.61,0,0,0,62.67,44.79Z"/><path class="cls-4" d="M65,46.62c-.63,0,.18.8.53.55S65.23,46.45,65,46.62Z"/><path class="cls-4" d="M56.05,49.21c-.19-.16-.36,0-.47.18-.42.27-.92.9-.52,1.06S56,49.55,56.05,49.21Z"/><path class="cls-4" d="M54.9,48.38c-.54.11-.29,1,.23.39C55.45,48.39,55.12,48.27,54.9,48.38Z"/><path class="cls-4" d="M58,50a.29.29,0,0,0-.2.25c.2.15.74.16.87-.11S58.15,49.72,58,50Z"/><path class="cls-4" d="M62.76,48.56l0-.05a.52.52,0,0,0,0,.11c0,.06,0,.1,0,.12.12.29.74.3.62-.07S62.91,48.41,62.76,48.56Z"/><path class="cls-4" d="M68.32,47.77c-.37-.5-1.12,0-.65.16C68,48.13,68.68,48.26,68.32,47.77Z"/><path class="cls-4" d="M55.37,52.56l.08-.13a.87.87,0,0,0-.4.63c.21.06.85-.37.83-.65S55.56,52.29,55.37,52.56Z"/><path class="cls-4" d="M61.05,51.14c.08.09.14.09.21,0,.26,0,.74,0,.54-.31S61.12,50.92,61.05,51.14Z"/><path class="cls-4" d="M53.21,50.86a.41.41,0,0,0,0,.22c.32.11,1.13,0,.86-.51S53.3,50.49,53.21,50.86Z"/><path class="cls-4" d="M54.33,49.5h0a.27.27,0,0,0-.33.27.4.4,0,0,0,.56-.22A.41.41,0,0,0,54.33,49.5Z"/><path class="cls-5" d="M55.38,60.82c-1.18.86,4.8,5.19,8.69,5a11.44,11.44,0,0,0,9.4-6c1-2.15.67-8.23-.62-7.81-.46.15.11,2.22-1.78,5.35-1.65,2.74-4.47,5.45-8.21,5.26C57.74,62.42,56.16,60.25,55.38,60.82Z"/><path class="cls-6" d="M68.2,45.76a.55.55,0,0,0-.49.84c.33.8,2.27,2.1,2.83,1.88s.59-.87-.23-1.5A4.86,4.86,0,0,0,68.2,45.76Z"/><path class="cls-6" d="M69.21,46.83s2.26-2.34,2.91-3.22a42,42,0,0,0,2.14-4.22s.2-.3.48-.25.19.47.19.47-1.57,3.23-2.21,4.12c-1.3,1.8-3,3.77-3,3.77Z"/><path class="cls-6" d="M73.16,42.42,69.43,42l-.14.22,1.85.3,1.85.31Z"/><path class="cls-6" d="M65.38,46.63c-3.85,1-9.55-1.77-9.55-1.77s3.81-4.43,7.07-4.77,8.93,2.27,8.93,2.27A13.5,13.5,0,0,1,65.38,46.63Z"/><path class="cls-7" d="M68.23,46a.8.8,0,0,0-.08.79,4,4,0,0,0,1.4,1.11l.09-.7s-.3-.21-.33-.38a.39.39,0,0,1,0-.27Z"/><path class="cls-7" d="M70.57,42.46a30.48,30.48,0,0,0-6.46.06c-3,.43-7.52,1.86-7.46,2.07S61.59,43,64,42.79s6.74,0,6.74,0Z"/><path class="cls-7" d="M69.05,42.57a3.34,3.34,0,0,1-.62,1.17,8.47,8.47,0,0,0-1.09,1.69,10.43,10.43,0,0,0,1.26-1.57c.35-.53.81-1.27.81-1.27Z"/><path class="cls-7" d="M66.06,42.59a5.29,5.29,0,0,1-.66,1.91c-.67,1.36-.93,1.76-.77,1.79s.66-1,1-1.74.85-2,.85-2Z"/><path class="cls-7" d="M63.14,42.87a3.65,3.65,0,0,1-.23,1.42c-.3,1-.66,1.57-.52,1.64s.48-.87.68-1.59.5-1.63.5-1.63Z"/><path class="cls-7" d="M60,43.61a2.39,2.39,0,0,1-.16.84c-.19.51-.48,1-.39,1a1.93,1.93,0,0,0,.53-.92l.28-1Z"/><path class="cls-7" d="M69.41,42.49a4.38,4.38,0,0,0-1.13-1.09,3.46,3.46,0,0,0-1.46-.59c-.08.07.83.32,1.15.53a12.62,12.62,0,0,1,1.19,1.14Z"/><path class="cls-7" d="M66.33,42.4a2.91,2.91,0,0,0-.92-1.23,4.56,4.56,0,0,0-2.06-.8c-.19.06,1.5.49,1.88.87a4.22,4.22,0,0,1,.7,1.2Z"/><path class="cls-7" d="M63.57,42.71a6.6,6.6,0,0,0-1.38-1.09,6,6,0,0,0-1.66-.42c-.2,0,1.27.33,1.68.62a8.6,8.6,0,0,1,1,1Z"/><path class="cls-7" d="M60,43.52s0-.24-.73-.5-1.07-.43-.92-.43a4.88,4.88,0,0,1,.91.24,5.66,5.66,0,0,1,1.08.61Z"/><path class="cls-3" d="M52,29.26c3,2.19,6.91,9.14,2.29,14.85s-11.37,6-16.47,2.69a11.47,11.47,0,0,1-1.42-18.13C41.55,23.77,47.5,25.94,52,29.26Z"/><path class="cls-4" d="M39.52,28.44h0Z"/><path class="cls-4" d="M40.21,29.16c.35-.17.74-.53.42-.84s-.78,0-1.1.12C39.1,28.84,39.28,29.62,40.21,29.16Z"/><path class="cls-4" d="M39.54,28.44l.53-.21A.78.78,0,0,0,39.54,28.44Z"/><path class="cls-4" d="M38.58,30c.13-.1.31-.3.14-.44a.23.23,0,0,0-.34.07.43.43,0,0,0-.21.29C38.14,30.18,38.44,30.07,38.58,30Z"/><path class="cls-4" d="M40.87,29.79a.3.3,0,0,0-.33,0c-.16,0-.35.08-.39.21a.11.11,0,0,0,0,.08l0,0,0,0c0,.15.38,0,.51,0S41.13,29.93,40.87,29.79Z"/><path class="cls-4" d="M40.1,30.12h0Z"/><path class="cls-4" d="M41.6,29c-.15.05-.32.21-.23.36s.44.09.56,0C42.43,29.1,41.79,28.89,41.6,29Z"/><path class="cls-4" d="M42.23,28.08c-.11,0-.29-.07-.37,0a.14.14,0,0,0,0,.17c0,.11.18.2.25.24s.92.32,1,.06S42.41,28.1,42.23,28.08Z"/><path class="cls-4" d="M41.4,27.56c.15.08.71.06.77-.16s-.31-.28-.45-.26a.5.5,0,0,0-.24.14C41.33,27.35,41.21,27.46,41.4,27.56Z"/><path class="cls-4" d="M38.68,28.88c.29-.21,0-.33-.22-.29h0c-.13,0-.46.14-.37.32S38.57,29,38.68,28.88Z"/><path class="cls-4" d="M37.46,30.27c.11-.13.44-.67.06-.7a.27.27,0,0,0-.2.11,1.06,1.06,0,0,0-.38.53C36.79,30.71,37.27,30.48,37.46,30.27Z"/><path class="cls-4" d="M39.51,30.42a.74.74,0,0,0-.5,0,1,1,0,0,0-.67.52c-.12.51.79.14,1,.07S39.93,30.58,39.51,30.42Z"/><path class="cls-4" d="M41,30.83c-.14.05-.3.17-.29.29s.52.17.66.11C42,31,41.23,30.71,41,30.83Z"/><path class="cls-4" d="M44.62,27.94a.26.26,0,0,0-.25.11.69.69,0,0,0,1.05,0A.61.61,0,0,0,44.62,27.94Z"/><path class="cls-4" d="M43.14,29.29c.32.11,1.17.16,1.23-.28a.75.75,0,0,0-.68-.08C43.43,28.92,43.15,29,43.14,29.29Z"/><path class="cls-4" d="M43.76,27a.46.46,0,0,0-.63-.07.28.28,0,0,0-.14.19A.61.61,0,0,0,43.76,27Z"/><path class="cls-4" d="M46.07,28.82c-.63,0,.18.8.53.55S46.32,28.65,46.07,28.82Z"/><path class="cls-4" d="M37.14,31.41c-.2-.16-.36,0-.47.18-.42.27-.93.9-.53,1.06S37.13,31.75,37.14,31.41Z"/><path class="cls-4" d="M36,30.58c-.54.11-.28,1,.23.39C36.53,30.59,36.21,30.47,36,30.58Z"/><path class="cls-4" d="M39.06,32.23a.29.29,0,0,0-.2.25c.2.15.74.16.87-.11S39.24,31.92,39.06,32.23Z"/><path class="cls-4" d="M43.85,30.76l0-.05a.52.52,0,0,0,0,.11c0,.05,0,.1,0,.12.11.29.73.3.61-.07S44,30.61,43.85,30.76Z"/><path class="cls-4" d="M49.41,30c-.37-.5-1.12,0-.65.16C49,30.33,49.76,30.46,49.41,30Z"/><path class="cls-4" d="M36.46,34.76l.07-.13a.93.93,0,0,0-.4.63c.22.06.85-.37.84-.65S36.64,34.49,36.46,34.76Z"/><path class="cls-4" d="M42.13,33.34a.17.17,0,0,0,.22,0c.26,0,.74,0,.53-.31S42.21,33.12,42.13,33.34Z"/><path class="cls-4" d="M34.3,33.06a.41.41,0,0,0,0,.22c.32.11,1.13,0,.86-.51S34.39,32.69,34.3,33.06Z"/><path class="cls-4" d="M35.41,31.7h0a.27.27,0,0,0-.33.27.39.39,0,0,0,.55-.22A.39.39,0,0,0,35.41,31.7Z"/><path class="cls-5" d="M36.47,43c-1.18.86,4.8,5.19,8.68,5a11.44,11.44,0,0,0,9.41-6c1-2.15.66-8.23-.62-7.81-.46.15.1,2.22-1.78,5.34-1.66,2.75-4.48,5.46-8.21,5.27C38.83,44.62,37.24,42.45,36.47,43Z"/><path class="cls-6" d="M49.29,28a.55.55,0,0,0-.49.84c.32.8,2.27,2.1,2.83,1.88s.59-.87-.23-1.5A4.76,4.76,0,0,0,49.29,28Z"/><path class="cls-6" d="M50.3,29s2.26-2.34,2.91-3.22a42,42,0,0,0,2.14-4.22s.2-.3.47-.25.2.47.2.47S54.44,25,53.8,25.92c-1.29,1.81-3,3.78-3,3.78Z"/><path class="cls-6" d="M54.24,24.62l-3.73-.47-.13.22,1.85.3,1.85.3Z"/><path class="cls-6" d="M46.47,28.83c-3.85,1-9.55-1.77-9.55-1.77s3.81-4.43,7.07-4.77,8.93,2.27,8.93,2.27A13.5,13.5,0,0,1,46.47,28.83Z"/><path class="cls-7" d="M49.32,28.2a.81.81,0,0,0-.09.79,4.09,4.09,0,0,0,1.4,1.11l.1-.7s-.31-.21-.34-.38a.39.39,0,0,1,0-.27Z"/><path class="cls-7" d="M51.66,24.66a30.51,30.51,0,0,0-6.46.06c-3,.43-7.52,1.86-7.46,2.07s4.94-1.64,7.36-1.8,6.74,0,6.74,0Z"/><path class="cls-7" d="M50.14,24.77a3.28,3.28,0,0,1-.63,1.17,8.7,8.7,0,0,0-1.08,1.69,10.44,10.44,0,0,0,1.25-1.57c.36-.53.82-1.27.82-1.27Z"/><path class="cls-7" d="M47.14,24.79a5.29,5.29,0,0,1-.66,1.91c-.66,1.36-.93,1.76-.76,1.79s.66-1,1-1.74.85-2,.85-2Z"/><path class="cls-7" d="M44.23,25.07A3.65,3.65,0,0,1,44,26.49c-.3,1-.66,1.57-.53,1.64s.49-.87.69-1.59.5-1.63.5-1.63Z"/><path class="cls-7" d="M41.09,25.81a2.13,2.13,0,0,1-.16.84c-.18.51-.47,1-.38,1a1.93,1.93,0,0,0,.53-.92l.28-1Z"/><path class="cls-7" d="M50.5,24.69a4.38,4.38,0,0,0-1.13-1.09A3.46,3.46,0,0,0,47.91,23c-.08.07.83.32,1.15.53a12.23,12.23,0,0,1,1.18,1.14Z"/><path class="cls-7" d="M47.42,24.6a2.88,2.88,0,0,0-.93-1.23,4.57,4.57,0,0,0-2.05-.8c-.2.06,1.5.49,1.88.87a4.1,4.1,0,0,1,.69,1.2Z"/><path class="cls-7" d="M44.66,24.91a6.75,6.75,0,0,0-1.39-1.09,5.58,5.58,0,0,0-1.66-.42c-.19,0,1.28.33,1.69.62a9.06,9.06,0,0,1,1,1Z"/><path class="cls-7" d="M41.09,25.72s-.05-.24-.74-.5-1.06-.43-.91-.43a4.88,4.88,0,0,1,.91.24,5.46,5.46,0,0,1,1.07.61Z"/><path class="cls-3" d="M25.53,45c-3,2.2-6.91,9.14-2.29,14.85s11.37,6.06,16.46,2.7a11.48,11.48,0,0,0,1.43-18.13C36,39.47,30,41.64,25.53,45Z"/><path class="cls-4" d="M38,44.14h0Z"/><path class="cls-4" d="M37.32,44.86c-.35-.17-.74-.53-.41-.85s.78.05,1.09.12C38.44,44.53,38.26,45.31,37.32,44.86Z"/><path class="cls-4" d="M38,44.13l-.53-.21A.88.88,0,0,1,38,44.13Z"/><path class="cls-4" d="M39,45.66c-.14-.1-.31-.3-.14-.44a.22.22,0,0,1,.33.07.44.44,0,0,1,.22.29C39.4,45.87,39.09,45.76,39,45.66Z"/><path class="cls-4" d="M36.67,45.48a.35.35,0,0,1,.33,0c.15,0,.35.09.38.21a.28.28,0,0,1,0,.08l0,0,0,0c0,.14-.39,0-.51,0S36.4,45.63,36.67,45.48Z"/><path class="cls-4" d="M37.43,45.81l0,0Z"/><path class="cls-4" d="M35.94,44.7c.15,0,.32.21.23.36s-.44.09-.56,0C35.1,44.8,35.75,44.59,35.94,44.7Z"/><path class="cls-4" d="M35.31,43.77c.1,0,.29-.06.37,0a.14.14,0,0,1,0,.18c0,.1-.18.2-.25.23s-.91.33-1,.07S35.12,43.8,35.31,43.77Z"/><path class="cls-4" d="M36.14,43.25c-.16.09-.71.07-.77-.16s.3-.28.45-.26a.77.77,0,0,1,.24.14C36.21,43,36.32,43.16,36.14,43.25Z"/><path class="cls-4" d="M38.86,44.58c-.29-.22,0-.34.22-.29h0c.13,0,.46.15.37.33S39,44.66,38.86,44.58Z"/><path class="cls-4" d="M40.08,46c-.11-.12-.44-.67-.06-.69a.28.28,0,0,1,.19.1,1.08,1.08,0,0,1,.39.53C40.75,46.41,40.26,46.18,40.08,46Z"/><path class="cls-4" d="M38,46.11a.8.8,0,0,1,.5,0,1,1,0,0,1,.66.52c.13.52-.78.15-1,.08S37.6,46.27,38,46.11Z"/><path class="cls-4" d="M36.5,46.52c.15,0,.3.17.3.29s-.52.18-.67.11C35.57,46.66,36.3,46.41,36.5,46.52Z"/><path class="cls-4" d="M32.92,43.64a.27.27,0,0,1,.25.1.7.7,0,0,1-1.05,0A.58.58,0,0,1,32.92,43.64Z"/><path class="cls-4" d="M34.39,45c-.31.11-1.16.17-1.23-.27a.7.7,0,0,1,.68-.08C34.11,44.61,34.39,44.7,34.39,45Z"/><path class="cls-4" d="M33.78,42.68a.44.44,0,0,1,.62-.06.28.28,0,0,1,.15.18A.59.59,0,0,1,33.78,42.68Z"/><path class="cls-4" d="M31.47,44.51c.62,0-.18.81-.53.55S31.22,44.35,31.47,44.51Z"/><path class="cls-4" d="M40.4,47.1c.19-.15.36,0,.47.18.42.27.92.91.52,1.06S40.41,47.45,40.4,47.1Z"/><path class="cls-4" d="M41.55,46.28c.54.1.29,1-.23.39C41,46.28,41.33,46.16,41.55,46.28Z"/><path class="cls-4" d="M38.48,47.93a.3.3,0,0,1,.2.25c-.2.14-.74.15-.88-.11S38.3,47.62,38.48,47.93Z"/><path class="cls-4" d="M33.69,46.45l0,0a.43.43,0,0,1,0,.11s0,.1,0,.11c-.11.3-.73.31-.61-.06S33.54,46.31,33.69,46.45Z"/><path class="cls-4" d="M28.13,45.67c.36-.51,1.12,0,.64.16C28.5,46,27.77,46.16,28.13,45.67Z"/><path class="cls-4" d="M41.08,50.46,41,50.32a.9.9,0,0,1,.4.64c-.21,0-.85-.37-.83-.65S40.89,50.18,41.08,50.46Z"/><path class="cls-4" d="M35.4,49a.16.16,0,0,1-.21.05c-.26,0-.74,0-.54-.32S35.33,48.82,35.4,49Z"/><path class="cls-4" d="M43.24,48.76a.4.4,0,0,1,0,.22c-.32.11-1.13,0-.86-.51S43.15,48.38,43.24,48.76Z"/><path class="cls-4" d="M42.12,47.4h0a.27.27,0,0,1,.33.26.4.4,0,0,1-.56-.21A.34.34,0,0,1,42.12,47.4Z"/><path class="cls-5" d="M41.07,58.71c1.17.86-4.8,5.2-8.69,5a11.45,11.45,0,0,1-9.4-6c-1-2.14-.67-8.23.62-7.8.46.15-.11,2.21,1.78,5.34C27,58,29.85,60.75,33.59,60.57,38.71,60.31,40.29,58.15,41.07,58.71Z"/><path class="cls-6" d="M28.25,43.66a.54.54,0,0,1,.49.83c-.33.8-2.28,2.1-2.84,1.88s-.58-.87.24-1.49A4.57,4.57,0,0,1,28.25,43.66Z"/><path class="cls-6" d="M27.24,44.73S25,42.39,24.33,41.51a41.89,41.89,0,0,1-2.14-4.23S22,37,21.71,37s-.19.46-.19.46,1.57,3.23,2.21,4.12c1.3,1.81,3,3.77,3,3.77Z"/><path class="cls-6" d="M23.29,40.32c.14,0,3.73-.47,3.73-.47l.14.21-1.85.3-1.85.31Z"/><path class="cls-6" d="M31.07,44.52c3.85,1,9.54-1.76,9.54-1.76s-3.8-4.44-7.06-4.77-8.93,2.27-8.93,2.27A13.44,13.44,0,0,0,31.07,44.52Z"/><path class="cls-7" d="M28.22,43.89a.8.8,0,0,1,.08.79,4.16,4.16,0,0,1-1.4,1.12l-.09-.71s.3-.2.33-.38a.41.41,0,0,0,0-.27Z"/><path class="cls-7" d="M25.88,40.35a30.48,30.48,0,0,1,6.46.06c3,.44,7.52,1.87,7.46,2.07s-4.95-1.64-7.36-1.8-6.74,0-6.74,0Z"/><path class="cls-7" d="M27.39,40.46A3.61,3.61,0,0,0,28,41.64a8.25,8.25,0,0,1,1.09,1.68,10.76,10.76,0,0,1-1.26-1.56c-.35-.53-.81-1.27-.81-1.27Z"/><path class="cls-7" d="M30.39,40.49a5.29,5.29,0,0,0,.66,1.91c.66,1.36.93,1.75.77,1.79s-.66-1-1-1.75-.85-2-.85-2Z"/><path class="cls-7" d="M33.31,40.76a3.63,3.63,0,0,0,.23,1.42c.29,1,.66,1.57.52,1.64s-.48-.86-.68-1.59-.5-1.62-.5-1.62Z"/><path class="cls-7" d="M36.44,41.5a2.39,2.39,0,0,0,.16.84c.19.52.48,1,.39,1a1.81,1.81,0,0,1-.54-.92c-.13-.46-.27-1-.27-1Z"/><path class="cls-7" d="M27,40.38a4.25,4.25,0,0,1,1.13-1.08,3.53,3.53,0,0,1,1.46-.6c.07.07-.83.33-1.15.54a12.62,12.62,0,0,0-1.19,1.14Z"/><path class="cls-7" d="M30.12,40.29A2.91,2.91,0,0,1,31,39.06a4.68,4.68,0,0,1,2.06-.8c.19.07-1.5.5-1.88.87a4.36,4.36,0,0,0-.7,1.2Z"/><path class="cls-7" d="M32.88,40.61a6.6,6.6,0,0,1,1.38-1.09,5.66,5.66,0,0,1,1.66-.42c.2,0-1.27.32-1.68.61a8.4,8.4,0,0,0-1.05,1Z"/><path class="cls-7" d="M36.45,41.42s0-.25.73-.5,1.06-.43.92-.43a4.57,4.57,0,0,0-.91.23,6.29,6.29,0,0,0-1.08.61Z"/><path class="cls-3" d="M54.51,47.06c3,2.19,6.91,9.14,2.29,14.85S45.43,68,40.34,64.6a11.48,11.48,0,0,1-1.43-18.13C44.06,41.58,50,43.74,54.51,47.06Z"/><path class="cls-4" d="M42,46.24h0Z"/><path class="cls-4" d="M42.72,47c.34-.17.74-.53.41-.84s-.78,0-1.09.12C41.6,46.64,41.78,47.42,42.72,47Z"/><path class="cls-4" d="M42,46.24l.53-.21A.8.8,0,0,0,42,46.24Z"/><path class="cls-4" d="M41.08,47.77c.14-.1.31-.3.14-.44a.22.22,0,0,0-.33.07.44.44,0,0,0-.22.29C40.64,48,41,47.87,41.08,47.77Z"/><path class="cls-4" d="M43.37,47.59a.3.3,0,0,0-.33,0c-.16,0-.35.08-.38.21a.25.25,0,0,0,0,.08l0,0,0,0c0,.15.38,0,.51,0S43.64,47.73,43.37,47.59Z"/><path class="cls-4" d="M42.61,47.92h0Z"/><path class="cls-4" d="M44.1,46.8c-.15.05-.32.21-.23.36s.44.09.56,0C44.94,46.9,44.29,46.69,44.1,46.8Z"/><path class="cls-4" d="M44.73,45.88c-.1,0-.29-.06-.37,0a.14.14,0,0,0,0,.17c0,.11.18.2.25.24s.92.32,1,.06S44.92,45.9,44.73,45.88Z"/><path class="cls-4" d="M43.9,45.36c.15.08.71.06.77-.16s-.3-.28-.45-.26a.55.55,0,0,0-.24.14C43.83,45.15,43.72,45.26,43.9,45.36Z"/><path class="cls-4" d="M41.18,46.68c.29-.21,0-.33-.22-.29h0c-.13,0-.46.14-.37.32S41.07,46.77,41.18,46.68Z"/><path class="cls-4" d="M40,48.07c.11-.13.44-.67.06-.69a.21.21,0,0,0-.19.1,1.08,1.08,0,0,0-.39.53C39.29,48.51,39.77,48.28,40,48.07Z"/><path class="cls-4" d="M42,48.22a.74.74,0,0,0-.5,0,1,1,0,0,0-.67.52c-.12.51.79.14,1,.07S42.44,48.38,42,48.22Z"/><path class="cls-4" d="M43.54,48.63c-.15,0-.3.17-.3.29s.52.18.67.11C44.47,48.77,43.74,48.51,43.54,48.63Z"/><path class="cls-4" d="M47.12,45.75a.25.25,0,0,0-.25.1.69.69,0,0,0,1.05,0A.59.59,0,0,0,47.12,45.75Z"/><path class="cls-4" d="M45.65,47.09c.31.11,1.16.16,1.23-.28a.75.75,0,0,0-.68-.08C45.93,46.72,45.65,46.81,45.65,47.09Z"/><path class="cls-4" d="M46.26,44.79a.45.45,0,0,0-.62-.07.32.32,0,0,0-.15.19A.61.61,0,0,0,46.26,44.79Z"/><path class="cls-4" d="M48.57,46.62c-.63,0,.18.8.53.55S48.82,46.45,48.57,46.62Z"/><path class="cls-4" d="M39.64,49.21c-.19-.16-.36,0-.47.18-.42.27-.92.9-.52,1.06S39.63,49.55,39.64,49.21Z"/><path class="cls-4" d="M38.49,48.38c-.54.11-.29,1,.23.39C39,48.39,38.71,48.27,38.49,48.38Z"/><path class="cls-4" d="M41.56,50a.29.29,0,0,0-.2.25c.2.15.74.16.87-.11S41.74,49.72,41.56,50Z"/><path class="cls-4" d="M46.35,48.56l0-.05a.52.52,0,0,0,0,.11c0,.06,0,.1,0,.12.12.29.74.3.62-.07S46.5,48.41,46.35,48.56Z"/><path class="cls-4" d="M51.91,47.77c-.37-.5-1.12,0-.65.16C51.54,48.13,52.27,48.26,51.91,47.77Z"/><path class="cls-4" d="M39,52.56l.08-.13a.87.87,0,0,0-.4.63c.21.06.85-.37.83-.65S39.15,52.29,39,52.56Z"/><path class="cls-4" d="M44.64,51.14c.08.09.14.09.21,0,.26,0,.74,0,.54-.31S44.71,50.92,44.64,51.14Z"/><path class="cls-4" d="M36.8,50.86a.41.41,0,0,0,0,.22c.32.11,1.13,0,.86-.51S36.89,50.49,36.8,50.86Z"/><path class="cls-4" d="M37.92,49.5h0a.27.27,0,0,0-.33.27.4.4,0,0,0,.56-.22A.41.41,0,0,0,37.92,49.5Z"/><path class="cls-5" d="M39,60.82c-1.18.86,4.8,5.19,8.69,5a11.44,11.44,0,0,0,9.4-6c1-2.15.67-8.23-.62-7.81-.46.15.11,2.22-1.78,5.35-1.65,2.74-4.47,5.45-8.21,5.26C41.33,62.42,39.75,60.25,39,60.82Z"/><path class="cls-6" d="M51.79,45.76a.55.55,0,0,0-.49.84c.33.8,2.27,2.1,2.83,1.88s.59-.87-.23-1.5A4.8,4.8,0,0,0,51.79,45.76Z"/><path class="cls-6" d="M52.8,46.83s2.26-2.34,2.91-3.22a42,42,0,0,0,2.14-4.22s.2-.3.48-.25.19.47.19.47S57,42.84,56.31,43.73c-1.3,1.8-3,3.77-3,3.77Z"/><path class="cls-6" d="M56.75,42.42,53,42l-.14.22,1.85.3,1.85.31Z"/><path class="cls-6" d="M49,46.63c-3.85,1-9.55-1.77-9.55-1.77s3.81-4.43,7.07-4.77,8.93,2.27,8.93,2.27A13.5,13.5,0,0,1,49,46.63Z"/><path class="cls-7" d="M51.82,46a.8.8,0,0,0-.08.79,4,4,0,0,0,1.4,1.11l.09-.7s-.3-.21-.33-.38a.39.39,0,0,1,0-.27Z"/><path class="cls-7" d="M54.16,42.46a30.48,30.48,0,0,0-6.46.06c-3,.43-7.52,1.86-7.46,2.07s4.95-1.64,7.36-1.8,6.74,0,6.74,0Z"/><path class="cls-7" d="M52.64,42.57A3.34,3.34,0,0,1,52,43.74a8.47,8.47,0,0,0-1.09,1.69,10.43,10.43,0,0,0,1.26-1.57c.35-.53.81-1.27.81-1.27Z"/><path class="cls-7" d="M49.65,42.59A5.29,5.29,0,0,1,49,44.5c-.67,1.36-.93,1.76-.77,1.79s.66-1,1-1.74.85-2,.85-2Z"/><path class="cls-7" d="M46.73,42.87a3.65,3.65,0,0,1-.23,1.42c-.3,1-.66,1.57-.52,1.64s.48-.87.68-1.59.5-1.63.5-1.63Z"/><path class="cls-7" d="M43.6,43.61a2.39,2.39,0,0,1-.16.84c-.19.51-.48,1-.39,1a1.93,1.93,0,0,0,.53-.92l.28-1Z"/><path class="cls-7" d="M53,42.49a4.38,4.38,0,0,0-1.13-1.09,3.46,3.46,0,0,0-1.46-.59c-.08.07.83.32,1.15.53a12.62,12.62,0,0,1,1.19,1.14Z"/><path class="cls-7" d="M49.92,42.4A2.91,2.91,0,0,0,49,41.17a4.56,4.56,0,0,0-2.06-.8c-.19.06,1.5.49,1.88.87a4.22,4.22,0,0,1,.7,1.2Z"/><path class="cls-7" d="M47.16,42.71a6.6,6.6,0,0,0-1.38-1.09,6,6,0,0,0-1.66-.42c-.2,0,1.27.33,1.68.62a8.6,8.6,0,0,1,1.05,1Z"/><path class="cls-7" d="M43.59,43.52s-.05-.24-.73-.5-1.07-.43-.92-.43a4.88,4.88,0,0,1,.91.24,5.66,5.66,0,0,1,1.08.61Z"/><path class="cls-3" d="M8.29,46.7c-3,2.2-6.91,9.14-2.29,14.85s11.37,6.06,16.47,2.7a11.47,11.47,0,0,0,1.42-18.13C18.75,41.22,12.8,43.39,8.29,46.7Z"/><path class="cls-4" d="M20.78,45.89h0Z"/><path class="cls-4" d="M20.09,46.61c-.35-.17-.74-.53-.42-.85s.78,0,1.1.12C21.2,46.28,21,47.06,20.09,46.61Z"/><path class="cls-4" d="M20.76,45.88l-.53-.21A.78.78,0,0,1,20.76,45.88Z"/><path class="cls-4" d="M21.72,47.41c-.13-.1-.31-.3-.14-.44a.23.23,0,0,1,.34.07.43.43,0,0,1,.21.29C22.16,47.62,21.86,47.51,21.72,47.41Z"/><path class="cls-4" d="M19.43,47.23a.35.35,0,0,1,.33,0c.16,0,.35.08.39.21a.11.11,0,0,1,0,.08s0,0,.05,0l-.05,0c0,.14-.38,0-.51,0S19.17,47.38,19.43,47.23Z"/><path class="cls-4" d="M20.2,47.56l0,0Z"/><path class="cls-4" d="M18.7,46.45c.15,0,.32.21.23.36s-.44.09-.56,0C17.87,46.55,18.51,46.34,18.7,46.45Z"/><path class="cls-4" d="M18.07,45.52c.11,0,.29-.06.37,0a.15.15,0,0,1,0,.18c0,.1-.18.2-.25.23s-.92.33-1,.07S17.89,45.55,18.07,45.52Z"/><path class="cls-4" d="M18.9,45c-.15.09-.71.07-.77-.16s.31-.28.45-.26a.6.6,0,0,1,.24.14C19,44.79,19.08,44.91,18.9,45Z"/><path class="cls-4" d="M21.62,46.33c-.29-.22,0-.34.22-.3h0c.13,0,.46.15.37.33S21.73,46.41,21.62,46.33Z"/><path class="cls-4" d="M22.84,47.71c-.11-.12-.44-.67-.06-.69a.3.3,0,0,1,.2.1,1.06,1.06,0,0,1,.38.53C23.51,48.16,23,47.93,22.84,47.71Z"/><path class="cls-4" d="M20.79,47.86a.8.8,0,0,1,.5,0,1,1,0,0,1,.67.52c.12.52-.79.15-1,.08S20.37,48,20.79,47.86Z"/><path class="cls-4" d="M19.27,48.27c.14,0,.3.17.29.29s-.52.18-.66.11C18.34,48.41,19.07,48.16,19.27,48.27Z"/><path class="cls-4" d="M15.68,45.39a.25.25,0,0,1,.25.1.7.7,0,0,1-1,0A.59.59,0,0,1,15.68,45.39Z"/><path class="cls-4" d="M17.16,46.73c-.32.11-1.17.17-1.23-.27a.69.69,0,0,1,.68-.08C16.87,46.36,17.15,46.45,17.16,46.73Z"/><path class="cls-4" d="M16.54,44.43a.46.46,0,0,1,.63-.06.26.26,0,0,1,.14.18A.59.59,0,0,1,16.54,44.43Z"/><path class="cls-4" d="M14.23,46.26c.63,0-.18.81-.53.55S14,46.1,14.23,46.26Z"/><path class="cls-4" d="M23.16,48.85c.2-.15.36,0,.47.18.42.27.93.91.53,1.06S23.17,49.2,23.16,48.85Z"/><path class="cls-4" d="M24.32,48c.54.1.28,1-.23.39C23.77,48,24.09,47.91,24.32,48Z"/><path class="cls-4" d="M21.24,49.68a.28.28,0,0,1,.2.25c-.2.14-.74.15-.87-.11S21.06,49.37,21.24,49.68Z"/><path class="cls-4" d="M16.45,48.2l0,0a.43.43,0,0,1,0,.11s0,.1,0,.11c-.11.3-.73.31-.61-.06S16.3,48.06,16.45,48.2Z"/><path class="cls-4" d="M10.89,47.42c.37-.51,1.12,0,.65.15C11.26,47.78,10.54,47.91,10.89,47.42Z"/><path class="cls-4" d="M23.84,52.21l-.07-.14a.93.93,0,0,1,.4.64c-.22,0-.85-.37-.84-.65S23.66,51.93,23.84,52.21Z"/><path class="cls-4" d="M18.17,50.79a.17.17,0,0,1-.22.05c-.26,0-.74,0-.53-.32S18.09,50.57,18.17,50.79Z"/><path class="cls-4" d="M26,50.51a.4.4,0,0,1,0,.22c-.32.11-1.13,0-.86-.51S25.91,50.13,26,50.51Z"/><path class="cls-4" d="M24.89,49.15h0a.27.27,0,0,1,.33.26.39.39,0,0,1-.55-.21A.33.33,0,0,1,24.89,49.15Z"/><path class="cls-5" d="M23.83,60.46c1.18.86-4.8,5.2-8.68,5.05a11.45,11.45,0,0,1-9.41-6c-1-2.14-.66-8.23.62-7.81.46.16-.1,2.22,1.78,5.35,1.66,2.74,4.48,5.45,8.21,5.27C21.47,62.06,23.06,59.9,23.83,60.46Z"/><path class="cls-6" d="M11,45.41a.54.54,0,0,1,.49.83c-.32.8-2.27,2.1-2.83,1.88s-.59-.87.23-1.49A4.66,4.66,0,0,1,11,45.41Z"/><path class="cls-6" d="M10,46.48s-2.26-2.34-2.91-3.22A41.89,41.89,0,0,1,5,39s-.2-.3-.47-.24-.2.46-.2.46,1.58,3.23,2.22,4.12c1.29,1.81,3,3.77,3,3.77Z"/><path class="cls-6" d="M6.06,42.07c.13,0,3.73-.47,3.73-.47l.13.21-1.85.3-1.85.31Z"/><path class="cls-6" d="M13.83,46.27c3.85,1,9.55-1.76,9.55-1.76s-3.81-4.44-7.07-4.77S7.38,42,7.38,42A13.44,13.44,0,0,0,13.83,46.27Z"/><path class="cls-7" d="M11,45.64a.82.82,0,0,1,.09.79,4.16,4.16,0,0,1-1.4,1.12l-.1-.71s.31-.2.34-.38a.41.41,0,0,0,0-.27Z"/><path class="cls-7" d="M8.64,42.1a30.51,30.51,0,0,1,6.46.06c3,.44,7.52,1.87,7.46,2.07s-4.94-1.64-7.36-1.8-6.74,0-6.74,0Z"/><path class="cls-7" d="M10.16,42.21a3.36,3.36,0,0,0,.63,1.18,8.47,8.47,0,0,1,1.08,1.68,10.21,10.21,0,0,1-1.25-1.56c-.36-.53-.82-1.27-.82-1.27Z"/><path class="cls-7" d="M13.16,42.24a5,5,0,0,0,.66,1.91c.66,1.36.92,1.75.76,1.79s-.66-1-1-1.75-.85-2-.85-2Z"/><path class="cls-7" d="M16.07,42.51a3.63,3.63,0,0,0,.23,1.42c.3,1,.66,1.57.53,1.64s-.49-.86-.69-1.59-.5-1.62-.5-1.62Z"/><path class="cls-7" d="M19.21,43.25a2.13,2.13,0,0,0,.16.84c.18.52.47,1,.38,1a1.82,1.82,0,0,1-.53-.92l-.28-1Z"/><path class="cls-7" d="M9.8,42.13a4.25,4.25,0,0,1,1.13-1.08,3.53,3.53,0,0,1,1.46-.6c.08.07-.83.33-1.15.54a12.23,12.23,0,0,0-1.18,1.14Z"/><path class="cls-7" d="M12.88,42a2.88,2.88,0,0,1,.93-1.23,4.7,4.7,0,0,1,2-.8c.2.07-1.5.5-1.88.87a4.23,4.23,0,0,0-.69,1.2Z"/><path class="cls-7" d="M15.64,42.36A6.75,6.75,0,0,1,17,41.27a5.58,5.58,0,0,1,1.66-.42c.19,0-1.28.32-1.69.61a8.84,8.84,0,0,0-1,1Z"/><path class="cls-7" d="M19.21,43.17s.05-.25.74-.5,1.06-.43.91-.43a4.57,4.57,0,0,0-.91.23,6.06,6.06,0,0,0-1.07.61Z"/><path class="cls-8" d="M8.58,64.8c1.21,4.8,4.31,16.83,6.17,21.38,2.36,5.73,1.26,8.24,9,9,6.68.67,20.45.36,26.27.21,5.82.15,19.6.46,26.28-.21,7.78-.79,6.68-3.3,9-9,1.87-4.55,5.22-18.45,6.42-23.25Z"/><path class="cls-9" d="M94.06,60.58c-.63-2.28-4.19-1.78-5.9-1.7-.58,0-1.17,0-1.75,0-2.93.06-5.85.09-8.77.13-3.31,0-42.61.84-45.88,1L22,60.33c-2.87.1-5.73.2-8.6.28-.57,0-1.15,0-1.72,0-1.68,0-5.2-.33-5.71,1.93A2.32,2.32,0,0,0,7.72,65.4a14.82,14.82,0,0,0,3.39-.1C14.38,65.1,17.67,65,21,65l9.94-.24L41,64.5c1.23,0,7.54-.08,9.09-.11l8.48-.21,10.28-.26L79,63.7c3.34-.08,6.69-.18,10-.12a15.22,15.22,0,0,0,3.44-.06A2.37,2.37,0,0,0,94.06,60.58Z"/><path class="cls-10" d="M13.09,65.15c-.84-.13-1.05-1.36-1.12-2A4.39,4.39,0,0,1,12.43,61a0,0,0,0,0-.07,0,3.25,3.25,0,0,0-.53,2.72,4,4,0,0,0,.17.63A2.62,2.62,0,0,1,12,61a.06.06,0,0,0-.09-.07,2.88,2.88,0,0,0,.52,4.14h.06a.79.79,0,0,0,.6.25C13.19,65.33,13.18,65.16,13.09,65.15Z"/><path class="cls-10" d="M13.22,65a3.39,3.39,0,0,1-.1-4,.06.06,0,0,0-.09-.08,3.08,3.08,0,0,0-.79,2.07,2.88,2.88,0,0,0,.87,2.15C13.18,65.11,13.27,65,13.22,65Z"/><path class="cls-10" d="M23.13,65a5.29,5.29,0,0,1-.8-4.76.06.06,0,1,0-.11-.05c-.69,1.46-.73,4,.77,5A.1.1,0,0,0,23.13,65Z"/><path class="cls-10" d="M24,65a5.25,5.25,0,0,1-.77-4.67s-.06-.08-.08,0a4,4,0,0,0-.39,2.44c0,.15.06.32.09.49-.07-.15-.15-.31-.21-.47a3.71,3.71,0,0,1,.11-2.46.07.07,0,0,0-.12,0c-.63,1.38-.63,3.39.7,4.4l.05,0a1.93,1.93,0,0,0,.45.49C23.9,65.23,24.05,65.1,24,65Z"/><path class="cls-10" d="M36.33,64.51a6.78,6.78,0,0,1-.93-2.28,4.29,4.29,0,0,1,.21-1.95c0-.13.2-.35.17-.51a.07.07,0,0,0-.07-.06c-.52.1-.71,1.65-.7,2.06a3.32,3.32,0,0,0,1.22,2.83C36.28,64.63,36.37,64.58,36.33,64.51Z"/><path class="cls-10" d="M37.38,64.48c-.85-1.33-1.58-3-1-4.6,0-.08-.07-.11-.11-.05-.72,1.3-.48,4,.95,4.8C37.36,64.69,37.43,64.55,37.38,64.48Z"/><path class="cls-10" d="M51,61.4c-.09-.65,0-1.25,0-1.88,0-.09-.11-.09-.14,0a4.27,4.27,0,0,0,.55,4,.07.07,0,0,0,.11-.07A11.35,11.35,0,0,1,51,61.4Z"/><path class="cls-10" d="M50.94,64.28a8.93,8.93,0,0,1-.86-4.71c0-.1-.12-.11-.14,0a6,6,0,0,0,0,2.6,4.9,4.9,0,0,0,.79,2.25A.12.12,0,0,0,50.94,64.28Z"/><path class="cls-10" d="M50.51,64.47a9.68,9.68,0,0,1-.81-2.28,12,12,0,0,1,0-2.54.08.08,0,1,0-.15,0c-.29,1.51-.52,3.85.77,5C50.4,64.73,50.57,64.59,50.51,64.47Z"/><path class="cls-10" d="M59.51,60.57c0-.34.07-1.15-.16-1.41,0,0-.09,0-.09,0a6.74,6.74,0,0,0,.43,3.67c0,.06.13,0,.12,0C59.72,62.07,59.57,61.33,59.51,60.57Z"/><path class="cls-10" d="M60.51,61.52c0-.78.05-1.56,0-2.33a.08.08,0,0,0-.16,0A9.28,9.28,0,0,0,60.65,64c0,.06.11,0,.1,0C60.7,63.18,60.56,62.35,60.51,61.52Z"/><path class="cls-10" d="M59.92,61.32c-.06-.65,0-1.31,0-2,0-.08-.13-.07-.15,0a6.23,6.23,0,0,0,.44,4.15s.1,0,.09,0A13,13,0,0,1,59.92,61.32Z"/><path class="cls-10" d="M68.36,61.46a15.62,15.62,0,0,0,0-2.37c0-.09-.16-.1-.17,0-.13,1.51-.5,3.72.56,5a.12.12,0,0,0,.2-.12A10.29,10.29,0,0,1,68.36,61.46Z"/><path class="cls-10" d="M69.13,61.69c-.07-.84.09-1.65.08-2.48,0-.11-.15-.09-.17,0-.33,1.37-.73,3.79.43,4.91.07.07.22,0,.2-.12A12.93,12.93,0,0,1,69.13,61.69Z"/><path class="cls-10" d="M81.2,61.71c0-.87-.21-2.4-1-2.94a.06.06,0,0,0-.09.07,9.11,9.11,0,0,1,.62,2.62c.08.74-.28,1.53-.17,2.22,0,.07.1.14.17.1C81.33,63.45,81.21,62.28,81.2,61.71Z"/><path class="cls-10" d="M81.25,58.85a.1.1,0,0,0-.18.1,7,7,0,0,1,.38,4.49c0,.07.06.14.11.07A4.14,4.14,0,0,0,81.25,58.85Z"/><path class="cls-10" d="M91.55,60.55a2.78,2.78,0,0,0-.77-2c-.09-.07-.2,0-.14.14.87,1.32.61,3.21.42,4.67a.15.15,0,0,0,.29.08A7.09,7.09,0,0,0,91.55,60.55Z"/><path class="cls-10" d="M90.44,58.58a.09.09,0,0,0-.16.09A12.12,12.12,0,0,1,90.74,60a10.43,10.43,0,0,1,.12,1.48.15.15,0,0,0,.3,0A3.81,3.81,0,0,0,90.44,58.58Z"/><path class="cls-11" d="M94.06,60.58a2,2,0,0,0-.71-1.07A2.09,2.09,0,0,1,92,60.62a15.46,15.46,0,0,1-3.4.05c-3.3-.05-6.61,0-9.91.12l-10,.22-10.15.25-8.37.2c-1.53,0-7.75.09-9,.11l-10,.22-9.8.23c-3.24.08-6.49.14-9.72.34a14.94,14.94,0,0,1-3.34.1,2.05,2.05,0,0,1-1.47-1.13A2,2,0,0,0,6,62.59,2.32,2.32,0,0,0,7.72,65.4a14.82,14.82,0,0,0,3.39-.1C14.38,65.1,17.67,65,21,65l9.94-.24L41,64.5c1.23,0,7.54-.08,9.09-.11l8.48-.21,10.28-.26L79,63.7c3.34-.08,6.69-.18,10-.12a15.22,15.22,0,0,0,3.44-.06A2.37,2.37,0,0,0,94.06,60.58Z"/><path class="cls-11" d="M81.11,62.75,70.24,63l-11,.27-9.11.22c-1.67,0-8.44.1-9.77.12l-10.84.24-10.68.26c-3.52.09-7,.15-10.57.37-.57,0-1.16.11-1.75.15a2,2,0,0,0,1.25.77,14.82,14.82,0,0,0,3.39-.1C14.38,65.1,17.67,65,21,65l9.94-.24L41,64.5c1.23,0,7.54-.08,9.09-.11l8.48-.21,10.28-.26L79,63.7c3.34-.08,6.69-.18,10-.12a15.22,15.22,0,0,0,3.44-.06,2,2,0,0,0,1.22-.82c-.6,0-1.2-.07-1.78-.07C88.3,62.57,84.71,62.67,81.11,62.75Z"/><g class="cls-12"><path class="cls-13" d="M8.77,61.12a3.06,3.06,0,0,0-1.27.14.16.16,0,0,0,0,.32,4.19,4.19,0,0,0,.5,0,6.48,6.48,0,0,0,.77-.09A.17.17,0,0,0,8.77,61.12Z"/><path class="cls-13" d="M10.11,60.94a1.1,1.1,0,0,0-.54,0,.16.16,0,0,0,0,.31,1.1,1.1,0,0,0,.54,0A.16.16,0,0,0,10.11,60.94Z"/><path class="cls-13" d="M21.45,60.73a26.2,26.2,0,0,0-4.06,0,20.78,20.78,0,0,0-3.7.21.06.06,0,0,0,0,.11,18.28,18.28,0,0,0,3.47.07A35.87,35.87,0,0,0,21.44,61,.14.14,0,0,0,21.45,60.73Z"/><path class="cls-13" d="M33.56,60.54a21.18,21.18,0,0,0-4.21.05c-1.69,0-3.36,0-5,.15-.07,0-.07.12,0,.13,1.56.09,3.14.17,4.71.19a21.5,21.5,0,0,0,4.54-.18A.17.17,0,0,0,33.56,60.54Z"/><path class="cls-13" d="M48.84,60a37.69,37.69,0,0,0-5.52.06,32.49,32.49,0,0,0-5.41.3c-.08,0-.09.15,0,.15,1.72,0,3.4.1,5.12,0a46.88,46.88,0,0,0,5.81-.21A.18.18,0,0,0,48.84,60Z"/><path class="cls-13" d="M57.73,59.91a24.87,24.87,0,0,0-2.59,0c-.89,0-1.81.16-2.69.14a.07.07,0,0,0,0,.14,12.16,12.16,0,0,0,2.34.07,22.48,22.48,0,0,0,3,0A.15.15,0,0,0,57.73,59.91Z"/><path class="cls-13" d="M67.39,59.84c-1.85-.34-3.75.06-5.6,0-.07,0-.08.08,0,.1a14.53,14.53,0,0,0,2.8.14,13.89,13.89,0,0,0,2.81,0A.12.12,0,0,0,67.39,59.84Z"/><path class="cls-13" d="M78.09,59.67c-2.74-.3-5.49,0-8.24-.08-.18,0-.22.27,0,.29a23.73,23.73,0,0,0,3.77.13c1.5-.1,3,0,4.51-.15A.1.1,0,0,0,78.09,59.67Z"/><path class="cls-13" d="M80.08,59.62a1.63,1.63,0,0,0-1.15-.13c-.16,0-.18.29,0,.3a4.93,4.93,0,0,0,1.08.09C80.12,59.86,80.2,59.69,80.08,59.62Z"/><path class="cls-13" d="M89,59.18a30.18,30.18,0,0,0-6.23.16s-.05.08,0,.08a32.42,32.42,0,0,0,6.23,0A.11.11,0,0,0,89,59.18Z"/><path class="cls-13" d="M92.8,59.32a1.51,1.51,0,0,0-.93-.19c-.14,0-.13.22,0,.24.29,0,.55.14.84.16C92.82,59.53,92.91,59.39,92.8,59.32Z"/></g><path class="cls-10" d="M14,74.72a21.05,21.05,0,0,1-.83-3.09,23.13,23.13,0,0,1-.09-3c0-.12-.16-.1-.19,0a10.19,10.19,0,0,0,.8,6.22C13.73,75,14,74.91,14,74.72Z"/><path class="cls-10" d="M16.44,75.47a11.68,11.68,0,0,1-1.17-3,21.74,21.74,0,0,1-.18-3.13c0-.16-.27-.16-.29,0-.17,2.21-.18,4.53,1.35,6.32C16.27,75.77,16.53,75.64,16.44,75.47Z"/><path class="cls-10" d="M18.52,74.45a17.92,17.92,0,0,1-.84-2.6,16.78,16.78,0,0,1-.15-3,.14.14,0,0,0-.28,0,8.51,8.51,0,0,0,1,5.77C18.36,74.76,18.58,74.61,18.52,74.45Z"/><path class="cls-10" d="M18.7,89.34a17.89,17.89,0,0,1-1.26-5,.08.08,0,1,0-.15,0,10.77,10.77,0,0,0,1.21,5.07C18.57,89.57,18.76,89.46,18.7,89.34Z"/><path class="cls-10" d="M20.9,88.88a18,18,0,0,1-1-3.11,9.16,9.16,0,0,0-.46-2.34.12.12,0,0,0-.22.06c.16.87.22,1.77.37,2.65A9.71,9.71,0,0,0,20.62,89,.15.15,0,0,0,20.9,88.88Z"/><path class="cls-10" d="M23.3,89.41A17.36,17.36,0,0,1,22,83.9c0-.17-.31-.18-.32,0a11.2,11.2,0,0,0,1.24,5.66C23.06,89.77,23.4,89.64,23.3,89.41Z"/><path class="cls-10" d="M24.79,82.47a10.34,10.34,0,0,1-1.15-2.89,32.81,32.81,0,0,1-.44-3.43c0-.12-.21-.13-.22,0a10.09,10.09,0,0,0,1.53,6.48C24.62,82.78,24.88,82.63,24.79,82.47Z"/><path class="cls-10" d="M26.6,82.81a25.48,25.48,0,0,1-1-3.29c-.2-1-.26-2.1-.44-3.15a.12.12,0,0,0-.24,0c.26,2.3.37,4.41,1.46,6.5A.12.12,0,0,0,26.6,82.81Z"/><path class="cls-10" d="M28.79,81.63a29.18,29.18,0,0,1-1-4.09.11.11,0,0,0-.21,0,9.51,9.51,0,0,0,1,4.21A.15.15,0,0,0,28.79,81.63Z"/><path class="cls-10" d="M29,76.43a22.06,22.06,0,0,1-.67-2.54c-.15-1-.25-2.1-.38-3.14a.13.13,0,0,0-.26,0,15.07,15.07,0,0,0,1,5.73C28.75,76.65,29,76.6,29,76.43Z"/><path class="cls-10" d="M31.59,76.48a15.67,15.67,0,0,1-1.08-3.06A18.84,18.84,0,0,0,30,70.85a.09.09,0,0,0-.18.05c.37,2,.3,4,1.47,5.76A.18.18,0,0,0,31.59,76.48Z"/><path class="cls-10" d="M32.73,70.83a.07.07,0,0,0-.14,0,43.12,43.12,0,0,0,1,5.15c0,.14.28.08.25-.07C33.58,74.24,33.21,72.5,32.73,70.83Z"/><path class="cls-10" d="M43.1,80.25a.1.1,0,0,0-.19,0,11,11,0,0,0,.2,5.13c0,.18.36.1.32-.09A16.54,16.54,0,0,1,43.1,80.25Z"/><path class="cls-10" d="M44.85,80.47c0-.18-.32-.18-.33,0a15.61,15.61,0,0,0,.61,5.81.15.15,0,0,0,.29-.08A44,44,0,0,1,44.85,80.47Z"/><path class="cls-10" d="M48.85,85.54a22,22,0,0,1-1.15-5.68c0-.18-.27-.13-.27,0a12.79,12.79,0,0,0,1.11,5.77A.17.17,0,0,0,48.85,85.54Z"/><path class="cls-10" d="M50.24,74c0-.09-.17-.09-.17,0a26.94,26.94,0,0,0,.33,6.53.14.14,0,0,0,.28,0A64.3,64.3,0,0,1,50.24,74Z"/><path class="cls-10" d="M52.73,73.43c0-.15-.2-.17-.23,0a13.72,13.72,0,0,0-.09,6.34.14.14,0,0,0,.27,0A29.21,29.21,0,0,1,52.73,73.43Z"/><path class="cls-10" d="M55.11,76.33c-.08-1.16,0-2.33,0-3.48,0-.15-.23-.14-.25,0a13.55,13.55,0,0,0,.66,7.25A.15.15,0,0,0,55.8,80,35.76,35.76,0,0,1,55.11,76.33Z"/><path class="cls-10" d="M66.1,81c.1-1.17.39-2.34.56-3.51a.11.11,0,0,0-.22,0c-.58,2.45-1.19,4.82-.57,7.32a.2.2,0,0,0,.39-.05A17.25,17.25,0,0,1,66.1,81Z"/><path class="cls-10" d="M68.5,78.61a.14.14,0,0,0-.28,0A18.06,18.06,0,0,0,68,85.2a.15.15,0,0,0,.3,0A41,41,0,0,1,68.5,78.61Z"/><path class="cls-10" d="M71.46,80.7a26.8,26.8,0,0,0,.14-3.1c0-.13-.21-.1-.21,0,0,1.12-.29,2.26-.36,3.38a13.39,13.39,0,0,0,.15,3.35.16.16,0,0,0,.31,0C71.45,83.11,71.42,81.91,71.46,80.7Z"/><path class="cls-10" d="M81.44,77.91a16.32,16.32,0,0,0-.88,6.61.12.12,0,0,0,.24,0c.08-1.1.07-2.2.21-3.3s.54-2.18.6-3.27C81.61,77.86,81.47,77.81,81.44,77.91Z"/><path class="cls-10" d="M83.59,78.25c-.37,2.37-1,4.69-.74,7.12,0,.21.37.22.38,0a36.28,36.28,0,0,1,.2-3.76c.12-1.11.39-2.21.42-3.33A.13.13,0,0,0,83.59,78.25Z"/><path class="cls-10" d="M72.56,88.54c0-.78.16-1.56.18-2.34a.08.08,0,0,0-.15,0,6.36,6.36,0,0,0-.34,2.34,9.43,9.43,0,0,0,.23,2.75c0,.18.32.15.29,0A14,14,0,0,1,72.56,88.54Z"/><path class="cls-10" d="M74.89,86.39c0-.11-.14-.14-.19,0a8,8,0,0,0-.07,5.07.14.14,0,0,0,.27-.07A12.5,12.5,0,0,1,74.89,86.39Z"/><path class="cls-10" d="M77.39,86.46a.11.11,0,0,0-.22,0,17.2,17.2,0,0,0,.1,4.7.18.18,0,0,0,.35,0C77.44,89.57,77.59,88,77.39,86.46Z"/><path class="cls-10" d="M74.31,73.31c.07-1,.31-1.9.47-2.86a.08.08,0,0,0-.16,0c-.49,2.09-1,4.08-.29,6.2,0,.12.24.06.22-.06A13.75,13.75,0,0,1,74.31,73.31Z"/><path class="cls-10" d="M77.19,73.35c0-.88.18-1.75.18-2.64,0-.13-.23-.13-.23,0-.15,2.12-.67,4.16,0,6.26.05.19.34.1.32-.09A19.76,19.76,0,0,1,77.19,73.35Z"/><path class="cls-10" d="M80.3,70.81c0-.17-.26-.21-.27,0-.11,2.08-.76,4.14-.37,6.24A.15.15,0,0,0,80,77,60.43,60.43,0,0,1,80.3,70.81Z"/><path class="cls-10" d="M31.92,65.75a19.22,19.22,0,0,1-5.35.46c-.09,0-.1.12,0,.14A9.84,9.84,0,0,0,32,66.07C32.18,66,32.11,65.71,31.92,65.75Z"/><path class="cls-10" d="M32.72,67.6c-1.91.38-4.16,1-6.12.51-.07,0-.1.1,0,.13a6.28,6.28,0,0,0,2.66.33,9.64,9.64,0,0,0,3.57-.68C33,67.82,32.89,67.56,32.72,67.6Z"/><path class="cls-10" d="M26.3,70.58a13.61,13.61,0,0,1-5.05.1c-.07,0-.11.1,0,.13a7.29,7.29,0,0,0,5.16.09C26.55,70.82,26.49,70.54,26.3,70.58Z"/><path class="cls-10" d="M26.63,73.09a21.23,21.23,0,0,1-5.1.14c-.09,0-.13.13,0,.15a9.81,9.81,0,0,0,5.24.08C27,73.4,26.84,73.06,26.63,73.09Z"/><path class="cls-10" d="M26.45,75.31a17.74,17.74,0,0,1-4.77-.12c-.09,0-.12.12,0,.15a7.28,7.28,0,0,0,4.89.24C26.69,75.53,26.61,75.3,26.45,75.31Z"/><path class="cls-10" d="M35.28,77a23,23,0,0,1-6.13.73c-.2,0-.25.3,0,.32a14,14,0,0,0,6.27-.7A.18.18,0,0,0,35.28,77Z"/><path class="cls-10" d="M34.73,79.88a18.73,18.73,0,0,1-5.49.24.14.14,0,0,0-.07.26,9.83,9.83,0,0,0,5.66-.13A.19.19,0,0,0,34.73,79.88Z"/><path class="cls-10" d="M34.55,82.58c-1.5.31-3.34,1-4.88.68a.12.12,0,0,0-.06.22c1.48.51,3.62,0,5-.49A.22.22,0,0,0,34.55,82.58Z"/><path class="cls-10" d="M29.4,84.4c-1.88,0-3.76.34-5.64-.08-.07,0-.1.09,0,.12a9.79,9.79,0,0,0,5.67.29C29.56,84.69,29.61,84.4,29.4,84.4Z"/><path class="cls-10" d="M29.9,86.07a21.23,21.23,0,0,1-5.34.2c-.13,0-.15.17,0,.2a12.7,12.7,0,0,0,5.42,0A.21.21,0,0,0,29.9,86.07Z"/><path class="cls-10" d="M29.85,87.87a16,16,0,0,1-5.38.45c-.11,0-.16.16,0,.19a9.09,9.09,0,0,0,5.5-.36C30.08,88.1,30,87.85,29.85,87.87Z"/><path class="cls-10" d="M20.25,76.93c-2,0-4,.48-6,.23-.12,0-.14.16,0,.19a12.8,12.8,0,0,0,6.12-.15C20.49,77.16,20.39,76.93,20.25,76.93Z"/><path class="cls-10" d="M20,79.71c-1.55-.21-3.1-.18-4.65-.32a.1.1,0,0,0,0,.2A31.37,31.37,0,0,0,20,80C20.16,80,20.2,79.73,20,79.71Z"/><path class="cls-10" d="M20.37,82.08a26.63,26.63,0,0,1-4.64.12.13.13,0,0,0,0,.26,9.11,9.11,0,0,0,4.75-.13A.13.13,0,0,0,20.37,82.08Z"/><path class="cls-10" d="M47.74,75.26c-2.16.07-4.27.15-6.43,0a.08.08,0,0,0,0,.16,17.43,17.43,0,0,0,6.48,0A.13.13,0,0,0,47.74,75.26Z"/><path class="cls-10" d="M49,77.45c-1.38,0-2.76.18-4.15.23a33.56,33.56,0,0,1-3.87-.2.09.09,0,0,0,0,.18,22.39,22.39,0,0,0,8.08.08A.15.15,0,0,0,49,77.45Z"/><path class="cls-10" d="M48.2,79.36a39,39,0,0,1-7.4.14.08.08,0,0,0,0,.16,13.44,13.44,0,0,0,3.23.21,23.84,23.84,0,0,0,4.22-.31A.1.1,0,0,0,48.2,79.36Z"/><path class="cls-10" d="M55,68.18c-1,0-1.89.1-2.85.08s-1.81-.16-2.69-.26a.06.06,0,0,0,0,.12,13.08,13.08,0,0,0,5.56.36C55.11,68.44,55.13,68.18,55,68.18Z"/><path class="cls-10" d="M54.82,69.79a21.65,21.65,0,0,1-5.63-.21c-.08,0-.12.12,0,.16a11.13,11.13,0,0,0,5.7.28A.12.12,0,0,0,54.82,69.79Z"/><path class="cls-10" d="M55.3,71.26a19.61,19.61,0,0,1-7.44.26c-.09,0-.1.1,0,.12a14.09,14.09,0,0,0,7.54-.09C55.54,71.5,55.46,71.23,55.3,71.26Z"/><path class="cls-10" d="M72.87,71.5a21.92,21.92,0,0,1-4,.16,25.57,25.57,0,0,1-3.48-.6.1.1,0,0,0-.06.19,12.78,12.78,0,0,0,7.56.57A.16.16,0,0,0,72.87,71.5Z"/><path class="cls-10" d="M72.09,73.83A20.54,20.54,0,0,1,66,73.57c-.1,0-.14.15,0,.18a11.27,11.27,0,0,0,6.14.42A.17.17,0,0,0,72.09,73.83Z"/><path class="cls-10" d="M73.16,75.89a15.33,15.33,0,0,1-7.67.36c-.18,0-.2.23,0,.27a12.2,12.2,0,0,0,7.85-.31C73.5,76.12,73.37,75.83,73.16,75.89Z"/><path class="cls-10" d="M87.5,70.63a38.5,38.5,0,0,1-5.26-.21c-.12,0-.14.16,0,.19A19.06,19.06,0,0,0,87.5,71C87.7,71,87.7,70.63,87.5,70.63Z"/><path class="cls-10" d="M86.34,72.72a14.52,14.52,0,0,1-4,.07.11.11,0,0,0,0,.22,9.9,9.9,0,0,0,4,0A.16.16,0,0,0,86.34,72.72Z"/><path class="cls-10" d="M85.86,75.46a10.55,10.55,0,0,1-4.43.33c-.11,0-.16.15-.05.19a6.3,6.3,0,0,0,4.56-.21C86.1,75.7,86,75.43,85.86,75.46Z"/><path class="cls-10" d="M79.05,77.92a23.7,23.7,0,0,1-5.19,0c-.1,0-.15.15,0,.18a9.16,9.16,0,0,0,2.45.26,15.73,15.73,0,0,0,2.83-.1A.18.18,0,0,0,79.05,77.92Z"/><path class="cls-10" d="M78.58,81a31.44,31.44,0,0,1-5.57-.5c-.15,0-.21.21-.07.25a17,17,0,0,0,5.64.6C78.78,81.38,78.78,81,78.58,81Z"/><path class="cls-10" d="M78.43,84.13A16.85,16.85,0,0,1,73,83.75a.13.13,0,0,0-.07.25,11.67,11.67,0,0,0,5.56.49A.18.18,0,0,0,78.43,84.13Z"/><g class="cls-14"><path class="cls-8" d="M54.67,68.63c.25,0,.5.37.24.58a3.7,3.7,0,0,1-2.15.49,7.84,7.84,0,0,1-2.84-.46.3.3,0,0,1-.14-.1c-.34-.13-.16-.69.24-.63a16.43,16.43,0,0,0,2.8.22A14.34,14.34,0,0,1,54.67,68.63Z"/><path class="cls-8" d="M52.08,80.09a.31.31,0,0,1-.13.36.33.33,0,0,1-.6.06,8,8,0,0,1-.8-4.15c0-.69,0-2.18.77-2.49a.37.37,0,0,1,.33.09c.38.33.26,1.1.2,1.54A10.77,10.77,0,0,0,52.08,80.09Z"/><path class="cls-8" d="M50.14,71.42c-.53,0-1.42-.34-1.58-.93-.21-.23.1-.67.44-.5,1.61.78,3.64.57,5.36.42.39,0,.45.56.09.66A12.77,12.77,0,0,1,50.14,71.42Z"/><path class="cls-8" d="M53.72,73.52a.34.34,0,0,1,.56.15,3,3,0,0,1-.18,1.86,7.78,7.78,0,0,0,0,2.68c.14.65.41,1.22.57,1.85a.34.34,0,0,1-.5.38c-1.06-.47-1.37-2.09-1.4-3.12S52.8,74.33,53.72,73.52Z"/><path class="cls-8" d="M32.4,72.68c.06.7.13,1.39.24,2.09a1.89,1.89,0,0,1-.06,1,.34.34,0,0,1-.49.2c-1-.64-1.11-2.35-1.15-3.49s0-2,.68-1.88S32.35,72.15,32.4,72.68Z"/><path class="cls-8" d="M33.67,79.57a9.37,9.37,0,0,1-4-.17.34.34,0,0,1-.18-.1.62.62,0,0,1-.14-.14.43.43,0,0,1,.12-.54.1.1,0,0,1,.05,0,.27.27,0,0,1,.28-.16,16.08,16.08,0,0,0,2.86-.14c.84-.09,1.58-.38,2.39-.5a.35.35,0,0,1,.43.32C35.56,79,34.4,79.41,33.67,79.57Z"/><path class="cls-8" d="M35,81.09c-.72,2-4.05,1.7-5.34.57a.33.33,0,0,1,.05-.51.31.31,0,0,1,.4-.27,6.55,6.55,0,0,0,2.82.14c.45-.06,1.48-.59,1.91-.31A.34.34,0,0,1,35,81.09Z"/><path class="cls-8" d="M28.49,73.08c0-.66-.2-1.63.33-2.13a.33.33,0,0,1,.41,0c.57.38.4,1.47.46,2,.1.92.64,1.92.48,2.83a.29.29,0,0,1-.28.24.26.26,0,0,1-.36-.07A5.05,5.05,0,0,1,28.49,73.08Z"/><path class="cls-8" d="M27,66.64a9.4,9.4,0,0,0,2.85.21,9.42,9.42,0,0,1,1.83-.11.34.34,0,0,1,.15.56,4.48,4.48,0,0,1-3.22.71,3,3,0,0,1-1.93-.74.32.32,0,0,1-.06-.15A.33.33,0,0,1,27,66.64Z"/><path class="cls-8" d="M27.51,82.27c-1.54.42-1.77-4.42-1.68-5.12a.35.35,0,0,1,.33-.31.32.32,0,0,1,.51-.06,1.31,1.31,0,0,1,.39.91,13.79,13.79,0,0,0,.46,2.47C27.66,80.58,28.32,82.05,27.51,82.27Z"/><path class="cls-8" d="M26.74,74.39a1.51,1.51,0,0,1-1,.7,4.25,4.25,0,0,1-4.12-.7.32.32,0,0,1,.16-.55.27.27,0,0,1,.28-.06,11.39,11.39,0,0,0,4.43.11C26.71,73.85,26.85,74.19,26.74,74.39Z"/><path class="cls-8" d="M26.2,72.23a4.92,4.92,0,0,1-4.56.46c-.29-.15-.77-.6-.3-.88h0a.37.37,0,0,1,.42-.33,27.67,27.67,0,0,0,4.27.14A.33.33,0,0,1,26.2,72.23Z"/><path class="cls-8" d="M20.38,77.77a.34.34,0,0,1,.34.33c.1,1.3-2.17,1.18-2.94,1.14-.6,0-2.51,0-2.83-.77a.34.34,0,0,1,.28-.6C17,78.28,18.66,77.76,20.38,77.77Z"/><path class="cls-8" d="M15.48,69.84a.18.18,0,0,1,.06-.09,1.17,1.17,0,0,1,.15-.27.68.68,0,0,1,.43-.31.25.25,0,0,1,.39.11,3.27,3.27,0,0,1,.14,1.21A18.43,18.43,0,0,0,17,72.57c.09.36.5,1.38.12,1.7s-.62.13-.88-.18A4.53,4.53,0,0,1,15.48,69.84Z"/><path class="cls-8" d="M13.92,74.09c-.36-.34-.42-1.18-.5-1.64a7.28,7.28,0,0,1,0-2.55.14.14,0,0,1,0-.06.91.91,0,0,1,.44-.71c.73-.38.71,2.88.72,3.12S14.82,75,13.92,74.09Z"/><path class="cls-8" d="M19.87,89a.34.34,0,0,1-.57.24c-.92-.93-1.12-2.43-1.31-3.74,0-.17-.06-.35-.08-.53,0,0,0,0,0-.08v-.06c0-.51.1-.92.57-.92.74,0,.69,1.25.76,1.7A15.46,15.46,0,0,1,19.87,89Z"/><path class="cls-8" d="M19.91,81.48c-1.24.79-5,.7-5.6-.94a.31.31,0,0,1,.14-.36c0-.22.13-.47.4-.36,1.55.61,3.16.26,4.76.49C20.28,80.4,20.58,81.06,19.91,81.48Z"/><path class="cls-8" d="M21.35,88.82a6.64,6.64,0,0,1-1.2-4.17,2.93,2.93,0,0,1,.11-.9c.11-.39.45-.89.93-.61s.3,1,.3,1.51a10,10,0,0,0,.18,2.62,5.41,5.41,0,0,1,.25,1.31A.34.34,0,0,1,21.35,88.82Z"/><path class="cls-8" d="M23.83,77.06a.49.49,0,0,1,.69-.13,2.63,2.63,0,0,1,.31,1.47c.07,1,.39,2,.51,2.95.05.34-.47.44-.62.17A7.11,7.11,0,0,1,23.83,77.06Z"/><path class="cls-8" d="M24.52,84.83c1.23.62,2.7.16,4,.31.23,0,.45.27.29.51-.49.7-1.44.54-2.2.54s-1.95,0-2.48-.76a.26.26,0,0,1,0-.08C23.86,85.12,24.17,84.66,24.52,84.83Z"/><path class="cls-8" d="M24.07,87.14a.34.34,0,0,1,.42-.41l.19.07a.33.33,0,0,1,.22,0,21,21,0,0,0,3.8.3.34.34,0,0,1,.24.57c-.69.7-2.07.54-3,.48S24.38,88,24.07,87.14Z"/><path class="cls-8" d="M70.38,84c0,.34.06.91-.44.91s-.85-.79-1-1.14a5.67,5.67,0,0,1-.29-3.16,7.19,7.19,0,0,1,.43-1.76c.17-.44.51-1.36,1.14-1.29a.49.49,0,0,1,.38.34,2.24,2.24,0,0,1,.13.92l-.09.54c-.08.54-.15,1.09-.21,1.63a13.57,13.57,0,0,0-.09,1.91C70.32,83.3,70.35,83.67,70.38,84Z"/><path class="cls-8" d="M69.15,76.25c-1.08,0-3.5,0-3.7-1.49a.36.36,0,0,1,.12-.34.31.31,0,0,1,.41-.28,10.34,10.34,0,0,0,3.66.65,11.11,11.11,0,0,1,2.21-.18.32.32,0,0,1,.24.32C72,76.29,70.1,76.25,69.15,76.25Z"/><path class="cls-8" d="M67.48,83.62l.06,1a.34.34,0,0,1-.58.24,4.6,4.6,0,0,1-.58-3.61c.15-.86.16-2.5.89-3.11a.34.34,0,0,1,.57.24,11.7,11.7,0,0,1-.28,1.84,2.83,2.83,0,0,0,0,.29c0,.47-.1.94-.11,1.4A16.66,16.66,0,0,0,67.48,83.62Z"/><path class="cls-8" d="M69.36,73.65c-1.13-.05-2.57-.14-3.35-1.1a.27.27,0,0,1-.07-.14c-.18-.23,0-.65.33-.53a10.18,10.18,0,0,0,3.37.6,23.73,23.73,0,0,0,2.67-.32c.27,0,.39.3.29.5C72,73.77,70.42,73.71,69.36,73.65Z"/><path class="cls-8" d="M73.7,91.55a3.63,3.63,0,0,1-1-3.15c.07-.77.11-2.15.87-2.6a.35.35,0,0,1,.5.2,3.11,3.11,0,0,1,0,.61.32.32,0,0,1,.08.29A6.72,6.72,0,0,0,74,89.54a6.6,6.6,0,0,1,.23,1.72C74.2,91.49,73.92,91.72,73.7,91.55Z"/><path class="cls-8" d="M76.7,89.84a4.75,4.75,0,0,1,0,1.19c-.09.31-.33.67-.71.48C75,91,74.81,88.64,74.92,87.68a3.23,3.23,0,0,1,.88-2.2.51.51,0,0,1,.79.11A3.13,3.13,0,0,1,76.82,87a.31.31,0,0,1,0,.19A14.46,14.46,0,0,0,76.7,89.84Z"/><path class="cls-8" d="M77.19,83.52a6.42,6.42,0,0,1-3.31-.47c-1-.26-1.79-.72-1.18-1.43a.33.33,0,0,1,.33-.08l.43.15a10.63,10.63,0,0,0,2.65.23,15.68,15.68,0,0,1,2.65,0,.33.33,0,0,1,.24.23C79.17,83,77.83,83.38,77.19,83.52Z"/><path class="cls-8" d="M77.23,80.57a6.73,6.73,0,0,1-4-1.16.27.27,0,0,1-.09-.3.33.33,0,0,1,.38-.48,13.47,13.47,0,0,0,3.3.27c.86,0,1.77-.11,2.61,0a.34.34,0,0,1,.24.33C79.68,80.27,78,80.59,77.23,80.57Z"/><path class="cls-8" d="M76.5,75.31c.09.42.12,1.13-.41,1.28-1.23.34-1.48-2.73-1.48-3.33s.32-3.8,1.61-3.05a.73.73,0,0,1,.36.62.28.28,0,0,1,.13.36A7.79,7.79,0,0,0,76.5,75.31Z"/><path class="cls-8" d="M79.08,75.49c0,.37.15.79-.12,1.1a.32.32,0,0,1-.4,0c-.78-.4-.92-1.57-1-2.34a7.25,7.25,0,0,1,.45-3.67.49.49,0,0,1,.56-.27.35.35,0,0,1,.37,0c.63.25.41,1.53.19,2.45A12.3,12.3,0,0,0,79.08,75.49Z"/><path class="cls-8" d="M82.89,78.35a27.24,27.24,0,0,0-.31,4.78c0,.53,0,1.61-.64,1.79a.33.33,0,0,1-.33-.08,4.77,4.77,0,0,1-.48-3A14.53,14.53,0,0,1,82,78.32a.5.5,0,0,1,.88,0Z"/><path class="cls-8" d="M87.72,73.63c-.94,1.87-5.32,2.48-6.37.41l0-.1s0,0,0,0a.34.34,0,0,1,0-.1v0a.51.51,0,0,1,.44-.55h.09a.67.67,0,0,1,.39.08,9.16,9.16,0,0,0,5.16-.17C87.64,73,87.84,73.38,87.72,73.63Z"/><path class="cls-8" d="M82,71.27a.33.33,0,0,1,.41-.31,18.44,18.44,0,0,0,4.92.23.34.34,0,0,1,.24.57,4.89,4.89,0,0,1-5.57,0A.31.31,0,0,1,82,71.27Z"/><path class="cls-8" d="M47.88,85.7c.12.4-.16,1-.66.85-1.84-.5-2.2-3.38-2.06-4.93.06-.59.17-1.39.8-1.65.43-.18,1-.17,1.15.38a3.61,3.61,0,0,1,0,1.6A9.58,9.58,0,0,0,47.88,85.7Z"/><path class="cls-8" d="M43.72,79.23A4.43,4.43,0,0,1,41,78.55a.29.29,0,0,1-.09-.28c-.09-.23.08-.55.38-.44,2.23.8,4.41.28,6.7.3a.34.34,0,0,1,.09.66A12.73,12.73,0,0,1,43.72,79.23Z"/><path class="cls-8" d="M44.29,81.59a14.34,14.34,0,0,0,.34,4c0,.29-.32.63-.56.33a4.7,4.7,0,0,1-.81-2.64,6,6,0,0,1,.13-2.6.46.46,0,0,1,.87,0,1.36,1.36,0,0,1,0,.8A.33.33,0,0,1,44.29,81.59Z"/><path class="cls-8" d="M41.35,76h0a.35.35,0,0,1,.18,0,33.46,33.46,0,0,0,6.25,0,.34.34,0,0,1,.33.34c0,1.09-1.8,1-2.53,1-1.56.06-3.23.38-4.51-.74A.34.34,0,0,1,41.35,76Z"/></g><g class="cls-15"><path class="cls-8" d="M8.68,64.8c1.2,4.8,4.3,16.83,6.17,21.38,2.36,5.73,1.26,8.24,9,9,6.69.67,20.46.36,26.28.21,5.82.15,19.59.46,26.28-.21,7.77-.79,6.68-3.3,9-9,1.87-4.55,5.21-18.45,6.42-23.25ZM82.82,85.86a8.4,8.4,0,0,1-1.4,1.32c-2.73,2-6.42,2.64-9.81,2.91-1.94.15-3.88.17-5.83.19-6.83.09-13.64.66-20.47.76q-4.81.08-9.65,0c-5-.1-10.53.42-15.18-1.76a13,13,0,0,1-6.08-6.78c-1.82-4.08-5.55-14.44,3-14,2.4.13,4.76.16,7.16.18,7.4.06,14.79.26,22.19.11q3.21-.06,6.42-.22c7.56-.39,18.54-1.08,26.11-1.29,2.26-.06,5.1-.49,7.22.41C90.8,69.54,84.41,84,82.82,85.86Z"/></g><path class="cls-16" d="M36.3,70.28c-3.27,0-6.54,0-9.8,0-2.39,0-5.48-.48-7.74.31-2.89,1-1.16,4.5-.34,6.15a9.62,9.62,0,0,0,3.95,3.92C27,83.33,33.26,84,38.84,84.26c4.59.21,9.19.12,13.78-.11,6.07-.29,12.34-.2,18.27-1.44a19.33,19.33,0,0,0,13-9.37c.59-1.12,2-3.35.17-4.18-2-.91-24.41.86-33.06,1Q43.63,70.21,36.3,70.28Z"/><g class="cls-17"><path class="cls-8" d="M83.28,90c-5.26,3.84-23,3.14-26.1,3.21-6.29.14-12.58.17-18.87.14-3.17,0-15-.67-17.66-1.21a9.05,9.05,0,0,1-4.57-2.19c1,3.14,1.9,4.69,7.71,5.28,6.68.67,20.45.36,26.27.21,5.82.15,19.6.46,26.28-.21,6.34-.64,6.78-2.43,8-6.17A8.59,8.59,0,0,1,83.28,90Z"/><path class="cls-8" d="M15.44,65.64c4.4-.39,8.86-.11,13.27-.13,6.34,0,12.68-.29,19-.32s12.75.11,19.12,0,12.58-.74,18.83-.41c1.29.06,3.83,0,4.68,1.26a2.34,2.34,0,0,1,.36,1.19l1.06-4.27L8.58,64.8l.65,2.55a5,5,0,0,1,1.47-.71A14.29,14.29,0,0,1,15.44,65.64Z"/></g><path class="cls-13" d="M32.41,89.66a2.32,2.32,0,0,1-1.73-.6,2.27,2.27,0,0,1-.59-1.65,2.23,2.23,0,0,1,.59-1.66,2.39,2.39,0,0,1,1.73-.57h2.65V72.85h2.55l-4.36,2.7a2.12,2.12,0,0,1-1.47.38,1.94,1.94,0,0,1-1.16-.59A2.47,2.47,0,0,1,30,74.17a2.33,2.33,0,0,1,.1-1.4,2.25,2.25,0,0,1,1.09-1.16L35.36,69a5.19,5.19,0,0,1,1.34-.65,4.84,4.84,0,0,1,1.49-.23,2.51,2.51,0,0,1,1.79.61,2.22,2.22,0,0,1,.64,1.71V85.18H43a2.34,2.34,0,0,1,1.7.57,2.23,2.23,0,0,1,.59,1.66,2.27,2.27,0,0,1-.59,1.67,2.31,2.31,0,0,1-1.7.58Z"/><path class="cls-13" d="M51,90a2.65,2.65,0,0,1-1.65-.48,1.79,1.79,0,0,1-.73-1.26,2.83,2.83,0,0,1,.43-1.71l8.33-15.14V73H49a2.4,2.4,0,0,1-1.73-.59,2.56,2.56,0,0,1,0-3.34A2.4,2.4,0,0,1,49,68.45H60.27a2.77,2.77,0,0,1,1.86.62,2.12,2.12,0,0,1,.72,1.7,4.37,4.37,0,0,1-.28,1.64c-.19.47-.43,1-.71,1.52l-7.7,14.26a3.28,3.28,0,0,1-1.23,1.34A3.79,3.79,0,0,1,51,90Z"/></g></g></svg>