<svg id="Layer_1" data-name="Layer 1" xmlns="http://www.w3.org/2000/svg" viewBox="0 0 105.29 104.84"><defs><style>.cls-1{fill:#ff8c03;}.cls-2{fill:#fcbc08;}.cls-3{fill:#f28106;opacity:0.7;}.cls-4{fill:#7c6a13;}.cls-5{fill:#937b18;}</style></defs><title>orange4</title><path class="cls-1" d="M66.12,31.71C71.21,35.39,77.91,47.05,70,56.64S50.62,66.8,41.93,61.16C32.89,55.3,28.56,41,39.5,30.73,48.28,22.51,58.43,26.15,66.12,31.71Z"/><path class="cls-2" d="M44.81,30.34h0Z"/><path class="cls-2" d="M46,31.55c.6-.28,1.27-.89.71-1.42s-1.33.08-1.87.21C44.09,31,44.4,32.32,46,31.55Z"/><path class="cls-2" d="M44.84,30.33l.91-.35A1.48,1.48,0,0,0,44.84,30.33Z"/><path class="cls-2" d="M43.21,32.9c.22-.16.53-.5.23-.73a.38.38,0,0,0-.57.12.72.72,0,0,0-.37.48C42.45,33.26,43,33.07,43.21,32.9Z"/><path class="cls-2" d="M47.11,32.6a.56.56,0,0,0-.56,0c-.27,0-.6.14-.66.35a.23.23,0,0,0,0,.14l-.08,0,.08,0c.08.25.66.07.87,0S47.56,32.84,47.11,32.6Z"/><path class="cls-2" d="M45.8,33.16l0,0Z"/><path class="cls-2" d="M48.36,31.28c-.26.08-.55.36-.4.61s.75.15,1,0C49.78,31.45,48.68,31.1,48.36,31.28Z"/><path class="cls-2" d="M49.43,29.73c-.18,0-.5-.1-.63.05a.24.24,0,0,0,0,.3c0,.17.31.33.43.39s1.56.54,1.65.11S49.75,29.78,49.43,29.73Z"/><path class="cls-2" d="M48,28.86c.27.14,1.22.11,1.32-.27s-.52-.47-.77-.43a1,1,0,0,0-.41.23C47.89,28.51,47.7,28.7,48,28.86Z"/><path class="cls-2" d="M43.38,31.08c.49-.36,0-.56-.38-.49h0c-.22,0-.79.25-.64.55S43.19,31.22,43.38,31.08Z"/><path class="cls-2" d="M41.3,33.4c.18-.21.75-1.12.1-1.16a.51.51,0,0,0-.34.17,1.78,1.78,0,0,0-.65.9C40.15,34.15,41,33.77,41.3,33.4Z"/><path class="cls-2" d="M44.79,33.66a1.28,1.28,0,0,0-.85.07,1.68,1.68,0,0,0-1.14.87c-.21.87,1.34.24,1.67.13C45,34.56,45.52,33.93,44.79,33.66Z"/><path class="cls-2" d="M47.4,34.35c-.25.08-.52.28-.51.48,0,.43.89.3,1.14.19C49,34.58,47.73,34.16,47.4,34.35Z"/><path class="cls-2" d="M53.51,29.51a.43.43,0,0,0-.42.17,1.19,1.19,0,0,0,1.78,0A1,1,0,0,0,53.51,29.51Z"/><path class="cls-2" d="M51,31.76c.54.19,2,.28,2.1-.46a1.3,1.3,0,0,0-1.16-.14C51.48,31.14,51,31.29,51,31.76Z"/><path class="cls-2" d="M52,27.9A.77.77,0,0,0,51,27.8a.49.49,0,0,0-.26.3A1,1,0,0,0,52,27.9Z"/><path class="cls-2" d="M56,31c-1.07,0,.3,1.36.9.93S56.41,30.7,56,31Z"/><path class="cls-2" d="M40.75,35.32c-.34-.26-.62,0-.8.3-.72.45-1.58,1.52-.9,1.78C39.9,37.73,40.73,35.9,40.75,35.32Z"/><path class="cls-2" d="M38.78,33.94c-.93.17-.49,1.68.39.65C39.71,34,39.16,33.74,38.78,33.94Z"/><path class="cls-2" d="M44,36.71a.46.46,0,0,0-.34.41c.35.25,1.26.27,1.49-.18C45.51,36.27,44.33,36.19,44,36.71Z"/><path class="cls-2" d="M52.2,34.23l-.05-.08a.46.46,0,0,0,0,.19c-.06.09-.06.16,0,.19.2.5,1.25.51,1-.11S52.45,34,52.2,34.23Z"/><path class="cls-2" d="M61.68,32.91c-.62-.84-1.91,0-1.1.27C61.06,33.51,62.29,33.74,61.68,32.91Z"/><path class="cls-2" d="M39.59,41l.12-.23A1.55,1.55,0,0,0,39,41.79c.37.09,1.45-.62,1.42-1.09C40.41,40,39.9,40.49,39.59,41Z"/><path class="cls-2" d="M49.27,38.57a.26.26,0,0,0,.36.08c.45.05,1.27-.06.92-.53S49.39,38.2,49.27,38.57Z"/><path class="cls-2" d="M35.9,38.1a.65.65,0,0,0,0,.37c.54.18,1.93,0,1.47-.86S36.06,37.47,35.9,38.1Z"/><path class="cls-2" d="M37.8,35.81h0a.46.46,0,0,0-.56.44.68.68,0,0,0,1-.36A.67.67,0,0,0,37.8,35.81Z"/><path class="cls-3" d="M39.6,54.81c-2,1.44,8.19,8.72,14.82,8.46a19.53,19.53,0,0,0,16-10.06c1.75-3.6,1.14-13.81-1.06-13.1-.78.25.18,3.72-3,9-2.83,4.6-7.64,9.15-14,8.84C43.63,57.49,40.92,53.86,39.6,54.81Z"/><path class="cls-4" d="M61.48,29.54a.92.92,0,0,0-.83,1.4c.55,1.34,3.87,3.52,4.83,3.15s1-1.46-.4-2.51S62.75,29.7,61.48,29.54Z"/><path class="cls-4" d="M63.21,31.33s3.85-3.92,4.95-5.4a69.06,69.06,0,0,0,3.66-7.09s.34-.5.81-.41.34.78.34.78-2.69,5.42-3.78,6.91c-2.22,3-5.14,6.33-5.14,6.33Z"/><path class="cls-4" d="M69.93,23.93c-.23,0-6.36-.79-6.36-.79l-.23.36L66.5,24l3.16.51Z"/><path class="cls-4" d="M56.67,31c-6.57,1.65-16.29-3-16.29-3s6.49-7.44,12.06-8,15.23,3.81,15.23,3.81S63.27,29.34,56.67,31Z"/><path class="cls-5" d="M61.53,29.94a1.35,1.35,0,0,0-.15,1.32,7,7,0,0,0,2.39,1.87L63.93,32s-.51-.34-.56-.64a.61.61,0,0,1,.05-.45Z"/><path class="cls-5" d="M65.52,24a53,53,0,0,0-11,.1c-5.11.73-12.83,3.13-12.73,3.47s8.44-2.75,12.56-3,11.5,0,11.5,0Z"/><path class="cls-5" d="M62.93,24.18a5.47,5.47,0,0,1-1.06,2A14.28,14.28,0,0,0,60,29a17.35,17.35,0,0,0,2.13-2.62c.61-.89,1.39-2.13,1.39-2.13Z"/><path class="cls-5" d="M57.82,24.22a8.8,8.8,0,0,1-1.13,3.21c-1.13,2.28-1.58,2.94-1.3,3s1.12-1.67,1.69-2.92,1.44-3.36,1.44-3.36Z"/><path class="cls-5" d="M52.84,24.68a6,6,0,0,1-.39,2.38c-.5,1.69-1.12,2.64-.89,2.76s.82-1.45,1.17-2.67.85-2.73.85-2.73Z"/><path class="cls-5" d="M47.49,25.92a3.81,3.81,0,0,1-.27,1.41c-.31.87-.8,1.74-.66,1.73a3.08,3.08,0,0,0,.92-1.54c.22-.78.47-1.69.47-1.69Z"/><path class="cls-5" d="M63.54,24a7.26,7.26,0,0,0-1.93-1.82,5.89,5.89,0,0,0-2.49-1c-.13.12,1.42.55,2,.9a21.46,21.46,0,0,1,2,1.91Z"/><path class="cls-5" d="M58.28,23.89a4.83,4.83,0,0,0-1.57-2.06,7.78,7.78,0,0,0-3.5-1.34c-.34.11,2.56.82,3.2,1.45a7.08,7.08,0,0,1,1.19,2Z"/><path class="cls-5" d="M53.58,24.42a11.22,11.22,0,0,0-2.36-1.83,10.37,10.37,0,0,0-2.84-.71c-.33.05,2.18.55,2.88,1A15.72,15.72,0,0,1,53,24.57Z"/><path class="cls-5" d="M47.49,25.78s-.09-.41-1.25-.84-1.82-.72-1.57-.72a7.86,7.86,0,0,1,1.56.39,10,10,0,0,1,1.83,1Z"/><path class="cls-1" d="M65,53.34C70.09,57,76.8,68.68,68.91,78.27s-19.4,10.16-28.09,4.52c-9-5.86-13.38-20.18-2.43-30.43C47.16,44.14,57.32,47.78,65,53.34Z"/><path class="cls-2" d="M43.69,52h0Z"/><path class="cls-2" d="M44.88,53.19c.59-.29,1.26-.89.7-1.42s-1.33.07-1.86.2C43,52.64,43.28,54,44.88,53.19Z"/><path class="cls-2" d="M43.72,52l.91-.35A1.37,1.37,0,0,0,43.72,52Z"/><path class="cls-2" d="M42.09,54.53c.23-.16.53-.49.23-.73a.38.38,0,0,0-.57.12.75.75,0,0,0-.37.48C41.33,54.89,41.86,54.7,42.09,54.53Z"/><path class="cls-2" d="M46,54.23a.59.59,0,0,0-.56,0c-.27,0-.6.14-.66.35a.76.76,0,0,0,0,.14l-.07,0,.08,0c.07.24.65.06.86,0S46.45,54.48,46,54.23Z"/><path class="cls-2" d="M44.69,54.79l0,0Z"/><path class="cls-2" d="M47.24,52.92c-.25.07-.54.35-.39.6s.75.15,1,0C48.67,53.08,47.56,52.73,47.24,52.92Z"/><path class="cls-2" d="M48.31,51.37c-.17,0-.49-.11-.63,0a.23.23,0,0,0,0,.3c0,.18.3.33.42.39s1.56.55,1.66.11S48.63,51.41,48.31,51.37Z"/><path class="cls-2" d="M46.89,50.49c.27.14,1.23.11,1.32-.27s-.52-.46-.77-.43A1,1,0,0,0,47,50C46.78,50.14,46.59,50.33,46.89,50.49Z"/><path class="cls-2" d="M42.26,52.72c.5-.36,0-.57-.38-.5h0c-.22,0-.78.24-.63.54S42.07,52.86,42.26,52.72Z"/><path class="cls-2" d="M40.18,55c.19-.21.75-1.13.1-1.16a.45.45,0,0,0-.34.17,1.78,1.78,0,0,0-.65.89C39,55.78,39.86,55.4,40.18,55Z"/><path class="cls-2" d="M43.68,55.29a1.37,1.37,0,0,0-.86.07,1.7,1.7,0,0,0-1.14.87c-.21.87,1.34.24,1.67.13C43.84,56.19,44.4,55.56,43.68,55.29Z"/><path class="cls-2" d="M46.28,56c-.25.08-.52.28-.51.48,0,.44.89.3,1.14.19C47.87,56.21,46.62,55.79,46.28,56Z"/><path class="cls-2" d="M52.4,51.14a.44.44,0,0,0-.43.17,1.18,1.18,0,0,0,1.78,0A1,1,0,0,0,52.4,51.14Z"/><path class="cls-2" d="M49.88,53.39c.53.19,2,.28,2.1-.46a1.27,1.27,0,0,0-1.16-.13C50.36,52.77,49.88,52.93,49.88,53.39Z"/><path class="cls-2" d="M50.92,49.53a.77.77,0,0,0-1.06-.1.47.47,0,0,0-.25.3A1,1,0,0,0,50.92,49.53Z"/><path class="cls-2" d="M54.87,52.6c-1.07,0,.31,1.36.9.93S55.29,52.33,54.87,52.6Z"/><path class="cls-2" d="M39.63,57c-.33-.26-.61,0-.8.31-.72.45-1.58,1.51-.9,1.77C38.78,59.36,39.61,57.53,39.63,57Z"/><path class="cls-2" d="M37.66,55.57c-.92.18-.48,1.68.39.65C38.6,55.58,38,55.38,37.66,55.57Z"/><path class="cls-2" d="M42.9,58.34a.47.47,0,0,0-.33.42c.34.24,1.26.26,1.49-.19C44.4,57.91,43.21,57.82,42.9,58.34Z"/><path class="cls-2" d="M51.08,55.86l0-.07A.58.58,0,0,0,51,56c-.05.09-.05.17,0,.2.19.49,1.25.51,1-.11S51.33,55.62,51.08,55.86Z"/><path class="cls-2" d="M60.56,54.54c-.62-.84-1.91,0-1.1.27C59.94,55.15,61.17,55.37,60.56,54.54Z"/><path class="cls-2" d="M38.47,62.58l.13-.22a1.48,1.48,0,0,0-.68,1.06c.36.1,1.45-.62,1.42-1.09C39.29,61.62,38.79,62.13,38.47,62.58Z"/><path class="cls-2" d="M48.15,60.2a.26.26,0,0,0,.36.08c.45,0,1.27-.06.92-.53S48.28,59.83,48.15,60.2Z"/><path class="cls-2" d="M34.78,59.73a.88.88,0,0,0-.05.37c.54.18,1.93,0,1.47-.86S34.94,59.1,34.78,59.73Z"/><path class="cls-2" d="M36.69,57.45v0a.45.45,0,0,0-.56.45.68.68,0,0,0,.94-.36A.58.58,0,0,0,36.69,57.45Z"/><path class="cls-3" d="M38.48,76.44c-2,1.44,8.2,8.72,14.83,8.47a19.55,19.55,0,0,0,16-10.07c1.76-3.6,1.14-13.81-1-13.1-.79.25.17,3.72-3,9-2.82,4.61-7.64,9.15-14,8.84C42.52,79.12,39.81,75.49,38.48,76.44Z"/><path class="cls-4" d="M60.36,51.17a.92.92,0,0,0-.83,1.4c.55,1.34,3.88,3.52,4.83,3.16s1-1.46-.4-2.51S61.63,51.33,60.36,51.17Z"/><path class="cls-4" d="M62.09,53s3.86-3.93,5-5.41a68.51,68.51,0,0,0,3.65-7.09s.34-.5.81-.41.34.78.34.78-2.69,5.42-3.78,6.91c-2.22,3-5.14,6.33-5.14,6.33Z"/><path class="cls-4" d="M68.82,45.57c-.24,0-6.37-.79-6.37-.79l-.23.35,3.16.52,3.16.51Z"/><path class="cls-4" d="M55.55,52.62c-6.57,1.65-16.29-3-16.29-3s6.49-7.45,12.06-8,15.23,3.81,15.23,3.81S62.15,51,55.55,52.62Z"/><path class="cls-5" d="M60.41,51.57a1.33,1.33,0,0,0-.14,1.32,7,7,0,0,0,2.39,1.88l.15-1.19s-.51-.34-.56-.64a.68.68,0,0,1,0-.45Z"/><path class="cls-5" d="M64.41,45.62a52.64,52.64,0,0,0-11,.11c-5.11.72-12.82,3.13-12.73,3.47s8.44-2.75,12.57-3,11.49,0,11.49,0Z"/><path class="cls-5" d="M61.82,45.81a5.64,5.64,0,0,1-1.07,2,13.89,13.89,0,0,0-1.85,2.83A18,18,0,0,0,61,48c.6-.89,1.39-2.13,1.39-2.13Z"/><path class="cls-5" d="M56.7,45.85a8.79,8.79,0,0,1-1.12,3.21c-1.13,2.28-1.59,2.94-1.31,3s1.12-1.68,1.69-2.93,1.45-3.36,1.45-3.36Z"/><path class="cls-5" d="M51.72,46.31a6.06,6.06,0,0,1-.38,2.38c-.51,1.69-1.13,2.64-.9,2.76s.82-1.45,1.17-2.67.85-2.73.85-2.73Z"/><path class="cls-5" d="M46.38,47.55A3.72,3.72,0,0,1,46.1,49c-.31.87-.8,1.74-.66,1.73a3,3,0,0,0,.92-1.54c.22-.78.47-1.69.47-1.69Z"/><path class="cls-5" d="M62.42,45.67a7.26,7.26,0,0,0-1.93-1.82,6.07,6.07,0,0,0-2.48-1c-.13.12,1.41.55,2,.9a21.5,21.5,0,0,1,2,1.91Z"/><path class="cls-5" d="M57.17,45.52a4.91,4.91,0,0,0-1.58-2.06,7.74,7.74,0,0,0-3.5-1.34c-.34.11,2.56.83,3.21,1.45a7,7,0,0,1,1.18,2Z"/><path class="cls-5" d="M52.46,46.05a11.57,11.57,0,0,0-2.36-1.83,9.87,9.87,0,0,0-2.83-.7c-.34,0,2.17.54,2.87,1a15.23,15.23,0,0,1,1.79,1.65Z"/><path class="cls-5" d="M46.37,47.41s-.08-.41-1.25-.84-1.82-.72-1.56-.72a8.13,8.13,0,0,1,1.55.4,10,10,0,0,1,1.83,1Z"/><path class="cls-1" d="M36.62,53.34c5.09,3.69,11.8,15.34,3.91,24.93s-19.4,10.16-28.09,4.52C3.39,76.93-.94,62.61,10,52.36,18.78,44.14,28.94,47.78,36.62,53.34Z"/><path class="cls-2" d="M15.31,52h0Z"/><path class="cls-2" d="M16.5,53.19c.59-.29,1.26-.89.7-1.42s-1.33.07-1.87.2C14.6,52.64,14.9,54,16.5,53.19Z"/><path class="cls-2" d="M15.34,52l.91-.35A1.37,1.37,0,0,0,15.34,52Z"/><path class="cls-2" d="M13.71,54.53c.23-.16.53-.49.23-.73a.38.38,0,0,0-.57.12.75.75,0,0,0-.37.48C13,54.89,13.48,54.7,13.71,54.53Z"/><path class="cls-2" d="M17.61,54.23a.59.59,0,0,0-.56,0c-.27,0-.6.14-.66.35a.35.35,0,0,0,0,.14l-.07,0,.08,0c.07.24.65.06.86,0S18.07,54.48,17.61,54.23Z"/><path class="cls-2" d="M16.31,54.79l0,0Z"/><path class="cls-2" d="M18.86,52.92c-.25.07-.54.35-.39.6s.75.15,1,0C20.29,53.08,19.18,52.73,18.86,52.92Z"/><path class="cls-2" d="M19.93,51.37c-.17,0-.5-.11-.63,0a.24.24,0,0,0,0,.3c0,.18.31.33.43.39s1.56.55,1.66.11S20.25,51.41,19.93,51.37Z"/><path class="cls-2" d="M18.51,50.49c.27.14,1.22.11,1.32-.27s-.52-.46-.77-.43a1,1,0,0,0-.41.23C18.4,50.14,18.21,50.33,18.51,50.49Z"/><path class="cls-2" d="M13.88,52.72c.5-.36,0-.57-.38-.5h0c-.22,0-.78.24-.63.54S13.69,52.86,13.88,52.72Z"/><path class="cls-2" d="M11.8,55c.19-.21.75-1.13.1-1.16a.43.43,0,0,0-.34.17,1.78,1.78,0,0,0-.65.89C10.66,55.78,11.48,55.4,11.8,55Z"/><path class="cls-2" d="M15.3,55.29a1.37,1.37,0,0,0-.86.07,1.68,1.68,0,0,0-1.14.87c-.21.87,1.34.24,1.67.13C15.46,56.19,16,55.56,15.3,55.29Z"/><path class="cls-2" d="M17.9,56c-.25.08-.52.28-.51.48,0,.44.89.3,1.14.19C19.48,56.21,18.24,55.79,17.9,56Z"/><path class="cls-2" d="M24,51.14a.44.44,0,0,0-.43.17,1.18,1.18,0,0,0,1.78,0A1,1,0,0,0,24,51.14Z"/><path class="cls-2" d="M21.5,53.39c.53.19,2,.28,2.1-.46a1.29,1.29,0,0,0-1.17-.13C22,52.77,21.5,52.93,21.5,53.39Z"/><path class="cls-2" d="M22.54,49.53a.77.77,0,0,0-1.06-.1.47.47,0,0,0-.25.3A1,1,0,0,0,22.54,49.53Z"/><path class="cls-2" d="M26.49,52.6c-1.07,0,.31,1.36.9.93S26.91,52.33,26.49,52.6Z"/><path class="cls-2" d="M11.25,57c-.33-.26-.61,0-.8.31-.72.45-1.58,1.51-.9,1.77C10.4,59.36,11.23,57.53,11.25,57Z"/><path class="cls-2" d="M9.28,55.57c-.92.18-.48,1.68.39.65C10.22,55.58,9.66,55.38,9.28,55.57Z"/><path class="cls-2" d="M14.52,58.34a.47.47,0,0,0-.33.42c.34.24,1.26.26,1.48-.19C16,57.91,14.83,57.82,14.52,58.34Z"/><path class="cls-2" d="M22.7,55.86l-.05-.07a.58.58,0,0,0,0,.18c-.05.09-.06.17,0,.2.19.49,1.24.51,1-.11S23,55.62,22.7,55.86Z"/><path class="cls-2" d="M32.18,54.54c-.62-.84-1.91,0-1.1.27C31.56,55.15,32.79,55.37,32.18,54.54Z"/><path class="cls-2" d="M10.09,62.58l.13-.22a1.48,1.48,0,0,0-.68,1.06c.36.1,1.45-.62,1.42-1.09C10.91,61.62,10.41,62.13,10.09,62.58Z"/><path class="cls-2" d="M19.77,60.2a.26.26,0,0,0,.36.08c.45,0,1.27-.06.92-.53S19.9,59.83,19.77,60.2Z"/><path class="cls-2" d="M6.4,59.73a.74.74,0,0,0-.05.37c.54.18,1.93,0,1.47-.86S6.56,59.1,6.4,59.73Z"/><path class="cls-2" d="M8.31,57.45v0a.46.46,0,0,0-.57.45.69.69,0,0,0,.95-.36A.58.58,0,0,0,8.31,57.45Z"/><path class="cls-3" d="M10.1,76.44c-2,1.44,8.2,8.72,14.83,8.47A19.55,19.55,0,0,0,41,74.84c1.75-3.6,1.14-13.81-1-13.1-.79.25.17,3.72-3,9-2.82,4.61-7.64,9.15-14,8.84C14.14,79.12,11.43,75.49,10.1,76.44Z"/><path class="cls-4" d="M32,51.17a.92.92,0,0,0-.83,1.4C31.7,53.91,35,56.09,36,55.73s1-1.46-.4-2.51S33.25,51.33,32,51.17Z"/><path class="cls-4" d="M33.71,53s3.85-3.93,5-5.41a68.51,68.51,0,0,0,3.65-7.09s.34-.5.81-.41.34.78.34.78-2.69,5.42-3.78,6.91c-2.22,3-5.14,6.33-5.14,6.33Z"/><path class="cls-4" d="M40.44,45.57c-.24,0-6.37-.79-6.37-.79l-.23.35,3.16.52,3.16.51Z"/><path class="cls-4" d="M27.17,52.62c-6.57,1.65-16.29-3-16.29-3s6.49-7.45,12.06-8,15.23,3.81,15.23,3.81S33.77,51,27.17,52.62Z"/><path class="cls-5" d="M32,51.57a1.33,1.33,0,0,0-.14,1.32,7,7,0,0,0,2.39,1.88l.15-1.19s-.51-.34-.56-.64a.68.68,0,0,1,.05-.45Z"/><path class="cls-5" d="M36,45.62a52.54,52.54,0,0,0-11,.11c-5.11.72-12.82,3.13-12.73,3.47s8.44-2.75,12.57-3,11.49,0,11.49,0Z"/><path class="cls-5" d="M33.44,45.81a5.64,5.64,0,0,1-1.07,2,13.89,13.89,0,0,0-1.85,2.83A18,18,0,0,0,32.66,48c.6-.89,1.38-2.13,1.38-2.13Z"/><path class="cls-5" d="M28.32,45.85a8.74,8.74,0,0,1-1.13,3.21c-1.12,2.28-1.58,2.94-1.3,3s1.12-1.68,1.69-2.93S29,45.77,29,45.77Z"/><path class="cls-5" d="M23.34,46.31A6.06,6.06,0,0,1,23,48.69c-.51,1.69-1.13,2.64-.9,2.76s.82-1.45,1.17-2.67.85-2.73.85-2.73Z"/><path class="cls-5" d="M18,47.55A3.72,3.72,0,0,1,17.72,49c-.31.87-.8,1.74-.66,1.73A3.08,3.08,0,0,0,18,49.15c.22-.78.47-1.69.47-1.69Z"/><path class="cls-5" d="M34,45.67a7.26,7.26,0,0,0-1.93-1.82,6.07,6.07,0,0,0-2.48-1c-.14.12,1.41.55,2,.9a21.5,21.5,0,0,1,2,1.91Z"/><path class="cls-5" d="M28.79,45.52a4.91,4.91,0,0,0-1.58-2.06,7.78,7.78,0,0,0-3.5-1.34c-.34.11,2.56.83,3.21,1.45a7,7,0,0,1,1.18,2Z"/><path class="cls-5" d="M24.08,46.05a11.57,11.57,0,0,0-2.36-1.83,9.87,9.87,0,0,0-2.83-.7c-.34,0,2.17.54,2.87,1a15.23,15.23,0,0,1,1.79,1.65Z"/><path class="cls-5" d="M18,47.41s-.08-.41-1.25-.84-1.82-.72-1.56-.72a8.13,8.13,0,0,1,1.55.4,10,10,0,0,1,1.83,1Z"/><path class="cls-1" d="M94.24,53.34C99.33,57,106,68.68,98.15,78.27s-19.41,10.16-28.1,4.52c-9-5.86-13.37-20.18-2.43-30.43C76.4,44.14,86.55,47.78,94.24,53.34Z"/><path class="cls-2" d="M72.93,52h0Z"/><path class="cls-2" d="M74.11,53.19c.6-.29,1.27-.89.71-1.42s-1.33.07-1.87.2C72.21,52.64,72.52,54,74.11,53.19Z"/><path class="cls-2" d="M73,52l.91-.35A1.35,1.35,0,0,0,73,52Z"/><path class="cls-2" d="M71.33,54.53c.22-.16.53-.49.23-.73a.38.38,0,0,0-.57.12.72.72,0,0,0-.37.48C70.57,54.89,71.09,54.7,71.33,54.53Z"/><path class="cls-2" d="M75.23,54.23a.58.58,0,0,0-.56,0c-.27,0-.6.14-.66.35a.23.23,0,0,0,0,.14l-.08,0,.08,0c.07.24.66.06.87,0S75.68,54.48,75.23,54.23Z"/><path class="cls-2" d="M73.92,54.79l0,0Z"/><path class="cls-2" d="M76.48,52.92c-.26.07-.55.35-.4.6s.75.15,1,0C77.9,53.08,76.8,52.73,76.48,52.92Z"/><path class="cls-2" d="M77.55,51.37c-.18,0-.5-.11-.64,0a.26.26,0,0,0,0,.3c0,.18.31.33.43.39s1.56.55,1.65.11S77.87,51.41,77.55,51.37Z"/><path class="cls-2" d="M76.13,50.49c.27.14,1.22.11,1.32-.27s-.52-.46-.77-.43a.9.9,0,0,0-.41.23C76,50.14,75.82,50.33,76.13,50.49Z"/><path class="cls-2" d="M71.5,52.72c.49-.36,0-.57-.38-.5h0c-.23,0-.79.24-.64.54S71.31,52.86,71.5,52.72Z"/><path class="cls-2" d="M69.42,55c.18-.21.75-1.13.1-1.16a.43.43,0,0,0-.34.17,1.8,1.8,0,0,0-.66.89C68.27,55.78,69.09,55.4,69.42,55Z"/><path class="cls-2" d="M72.91,55.29a1.34,1.34,0,0,0-.85.07,1.68,1.68,0,0,0-1.14.87c-.22.87,1.34.24,1.67.13C73.08,56.19,73.64,55.56,72.91,55.29Z"/><path class="cls-2" d="M75.51,56c-.24.08-.51.28-.51.48,0,.44.9.3,1.15.19C77.1,56.21,75.85,55.79,75.51,56Z"/><path class="cls-2" d="M81.63,51.14a.43.43,0,0,0-.42.17,1.18,1.18,0,0,0,1.78,0A1,1,0,0,0,81.63,51.14Z"/><path class="cls-2" d="M79.11,53.39c.54.19,2,.28,2.1-.46a1.27,1.27,0,0,0-1.16-.13C79.6,52.77,79.12,52.93,79.11,53.39Z"/><path class="cls-2" d="M80.16,49.53a.77.77,0,0,0-1.06-.1.52.52,0,0,0-.26.3A1,1,0,0,0,80.16,49.53Z"/><path class="cls-2" d="M84.1,52.6c-1.07,0,.31,1.36.91.93S84.53,52.33,84.1,52.6Z"/><path class="cls-2" d="M68.86,57c-.33-.26-.61,0-.8.31-.71.45-1.57,1.51-.89,1.77C68,59.36,68.84,57.53,68.86,57Z"/><path class="cls-2" d="M66.9,55.57c-.93.18-.49,1.68.39.65C67.83,55.58,67.27,55.38,66.9,55.57Z"/><path class="cls-2" d="M72.14,58.34a.48.48,0,0,0-.34.42c.35.24,1.26.26,1.49-.19C73.63,57.91,72.44,57.82,72.14,58.34Z"/><path class="cls-2" d="M80.32,55.86l0-.07a.61.61,0,0,0,0,.18c0,.09,0,.17,0,.2.19.49,1.25.51,1-.11S80.57,55.62,80.32,55.86Z"/><path class="cls-2" d="M89.8,54.54c-.62-.84-1.91,0-1.1.27C89.17,55.15,90.41,55.37,89.8,54.54Z"/><path class="cls-2" d="M67.71,62.58l.12-.22a1.51,1.51,0,0,0-.68,1.06c.37.1,1.45-.62,1.42-1.09C68.53,61.62,68,62.13,67.71,62.58Z"/><path class="cls-2" d="M77.39,60.2a.26.26,0,0,0,.36.08c.45,0,1.27-.06.92-.53S77.51,59.83,77.39,60.2Z"/><path class="cls-2" d="M64,59.73a.74.74,0,0,0-.06.37c.55.18,1.94,0,1.48-.86S64.18,59.1,64,59.73Z"/><path class="cls-2" d="M65.92,57.45v0a.46.46,0,0,0-.56.45.69.69,0,0,0,.95-.36A.6.6,0,0,0,65.92,57.45Z"/><path class="cls-3" d="M67.72,76.44c-2,1.44,8.19,8.72,14.82,8.47a19.56,19.56,0,0,0,16-10.07c1.75-3.6,1.14-13.81-1.06-13.1-.78.25.18,3.72-3,9-2.83,4.61-7.64,9.15-14,8.84C71.75,79.12,69,75.49,67.72,76.44Z"/><path class="cls-4" d="M89.6,51.17a.92.92,0,0,0-.84,1.4c.55,1.34,3.88,3.52,4.84,3.16s1-1.46-.4-2.51S90.87,51.33,89.6,51.17Z"/><path class="cls-4" d="M91.33,53s3.85-3.93,5-5.41a68.51,68.51,0,0,0,3.65-7.09.92.92,0,0,1,.82-.41c.47.09.33.78.33.78s-2.69,5.42-3.78,6.91c-2.21,3-5.13,6.33-5.13,6.33Z"/><path class="cls-4" d="M98.05,45.57c-.23,0-6.36-.79-6.36-.79l-.24.35,3.17.52,3.16.51Z"/><path class="cls-4" d="M84.79,52.62c-6.57,1.65-16.29-3-16.29-3s6.49-7.45,12.06-8,15.23,3.81,15.23,3.81S91.38,51,84.79,52.62Z"/><path class="cls-5" d="M89.65,51.57a1.35,1.35,0,0,0-.15,1.32,7.06,7.06,0,0,0,2.39,1.88l.16-1.19s-.51-.34-.56-.64a.61.61,0,0,1,.05-.45Z"/><path class="cls-5" d="M93.64,45.62a52.56,52.56,0,0,0-11,.11c-5.11.72-12.83,3.13-12.73,3.47s8.44-2.75,12.56-3,11.49,0,11.49,0Z"/><path class="cls-5" d="M91.05,45.81a5.64,5.64,0,0,1-1.07,2,14.41,14.41,0,0,0-1.85,2.83A17.37,17.37,0,0,0,90.27,48c.61-.89,1.39-2.13,1.39-2.13Z"/><path class="cls-5" d="M85.94,45.85a8.74,8.74,0,0,1-1.13,3.21c-1.13,2.28-1.58,2.94-1.3,3s1.12-1.68,1.69-2.93,1.44-3.36,1.44-3.36Z"/><path class="cls-5" d="M81,46.31a6,6,0,0,1-.39,2.38c-.51,1.69-1.12,2.64-.89,2.76s.82-1.45,1.16-2.67.86-2.73.86-2.73Z"/><path class="cls-5" d="M75.61,47.55A3.81,3.81,0,0,1,75.34,49c-.31.87-.81,1.74-.66,1.73a3,3,0,0,0,.91-1.54c.23-.78.48-1.69.48-1.69Z"/><path class="cls-5" d="M91.66,45.67a7.46,7.46,0,0,0-1.93-1.82,6.09,6.09,0,0,0-2.49-1c-.13.12,1.42.55,2,.9a22.86,22.86,0,0,1,2,1.91Z"/><path class="cls-5" d="M86.4,45.52a4.83,4.83,0,0,0-1.57-2.06,7.77,7.77,0,0,0-3.51-1.34c-.33.11,2.56.83,3.21,1.45a7,7,0,0,1,1.18,2Z"/><path class="cls-5" d="M81.7,46.05a11.57,11.57,0,0,0-2.36-1.83,9.91,9.91,0,0,0-2.84-.7c-.33,0,2.18.54,2.88,1a15.72,15.72,0,0,1,1.78,1.65Z"/><path class="cls-5" d="M75.6,47.41s-.08-.41-1.25-.84-1.81-.72-1.56-.72a8,8,0,0,1,1.55.4,9.88,9.88,0,0,1,1.84,1Z"/></svg>