<svg xmlns="http://www.w3.org/2000/svg" viewBox="0 0 105.29 104.84"><defs><style>.cls-1{isolation:isolate;}.cls-2{fill:#ed7d03;}.cls-3{fill:#ff8c03;}.cls-4{fill:#fcbc08;}.cls-5{fill:#f28106;opacity:0.7;}.cls-6{fill:#7c6a13;}.cls-7{fill:#937b18;}.cls-8{fill:#b86313;}.cls-11,.cls-9{fill:#cc7917;}.cls-10{fill:#9e4727;}.cls-11,.cls-12,.cls-17{opacity:0.5;}.cls-11,.cls-15,.cls-17{mix-blend-mode:multiply;}.cls-13,.cls-16{fill:#fff;}.cls-14,.cls-15{opacity:0.3;}.cls-14{mix-blend-mode:screen;}.cls-16{opacity:0.1;}</style></defs><title>orange21</title><g class="cls-1"><g id="Layer_1" data-name="Layer 1"><path class="cls-2" d="M78.75,48.46c-4.72-1.6-9.7-5.65-10.85-10.74H23.68V67.93H81V49.07C80.23,48.9,79.48,48.7,78.75,48.46Z"/><path class="cls-3" d="M66.21,14.55c3,2.19,6.91,9.14,2.29,14.85S57.13,35.45,52,32.09A11.47,11.47,0,0,1,50.61,14C55.75,9.06,61.7,11.23,66.21,14.55Z"/><path class="cls-4" d="M53.72,13.73h0Z"/><path class="cls-4" d="M54.41,14.45c.35-.17.74-.53.42-.84s-.78,0-1.1.12C53.3,14.13,53.48,14.91,54.41,14.45Z"/><path class="cls-4" d="M53.74,13.73l.53-.21A.78.78,0,0,0,53.74,13.73Z"/><path class="cls-4" d="M52.78,15.26c.13-.1.31-.3.14-.44a.23.23,0,0,0-.34.07.43.43,0,0,0-.21.29C52.34,15.47,52.64,15.36,52.78,15.26Z"/><path class="cls-4" d="M55.07,15.08a.3.3,0,0,0-.33,0c-.16,0-.35.08-.39.21a.11.11,0,0,0,0,.08l-.05,0,.05,0c0,.15.38,0,.51,0S55.33,15.22,55.07,15.08Z"/><path class="cls-4" d="M54.3,15.41h0Z"/><path class="cls-4" d="M55.8,14.29c-.15.05-.32.21-.23.36s.44.09.56,0C56.63,14.39,56,14.18,55.8,14.29Z"/><path class="cls-4" d="M56.43,13.37c-.11,0-.3-.07-.38,0a.15.15,0,0,0,0,.17c0,.11.18.2.25.24s.92.32,1,.06S56.61,13.39,56.43,13.37Z"/><path class="cls-4" d="M55.6,12.85c.15.08.71.06.77-.16s-.31-.28-.45-.26a.58.58,0,0,0-.25.14C55.53,12.64,55.41,12.75,55.6,12.85Z"/><path class="cls-4" d="M52.88,14.17c.29-.21,0-.33-.22-.29h0c-.13,0-.46.14-.37.32S52.77,14.26,52.88,14.17Z"/><path class="cls-4" d="M51.66,15.56c.11-.13.44-.67.06-.69a.23.23,0,0,0-.2.1,1.06,1.06,0,0,0-.38.53C51,16,51.47,15.77,51.66,15.56Z"/><path class="cls-4" d="M53.71,15.71a.74.74,0,0,0-.5,0,1,1,0,0,0-.67.52c-.12.51.79.14,1,.07S54.13,15.87,53.71,15.71Z"/><path class="cls-4" d="M55.23,16.12c-.14.05-.3.17-.29.29s.52.17.66.11C56.16,16.25,55.43,16,55.23,16.12Z"/><path class="cls-4" d="M58.82,13.23a.26.26,0,0,0-.25.11.68.68,0,0,0,1,0A.59.59,0,0,0,58.82,13.23Z"/><path class="cls-4" d="M57.34,14.58c.32.11,1.17.16,1.23-.28a.75.75,0,0,0-.68-.08C57.63,14.21,57.35,14.3,57.34,14.58Z"/><path class="cls-4" d="M58,12.28a.46.46,0,0,0-.63-.07.32.32,0,0,0-.15.19A.62.62,0,0,0,58,12.28Z"/><path class="cls-4" d="M60.27,14.11c-.63,0,.18.8.53.55S60.52,13.94,60.27,14.11Z"/><path class="cls-4" d="M51.34,16.7c-.2-.16-.36,0-.47.18-.42.27-.93.9-.53,1.06S51.33,17,51.34,16.7Z"/><path class="cls-4" d="M50.18,15.87c-.54.11-.28,1,.23.39C50.73,15.88,50.4,15.76,50.18,15.87Z"/><path class="cls-4" d="M53.26,17.52a.29.29,0,0,0-.2.25c.2.15.74.16.87-.11S53.44,17.21,53.26,17.52Z"/><path class="cls-4" d="M58.05,16.05,58,16a.61.61,0,0,0,0,.11c0,.05,0,.1,0,.12.11.29.73.3.61-.07S58.19,15.9,58.05,16.05Z"/><path class="cls-4" d="M63.61,15.26c-.37-.5-1.12,0-.65.16C63.24,15.62,64,15.75,63.61,15.26Z"/><path class="cls-4" d="M50.66,20.05l.07-.13a.93.93,0,0,0-.4.63c.22.06.85-.37.84-.65S50.84,19.78,50.66,20.05Z"/><path class="cls-4" d="M56.33,18.63c.08.09.14.09.21.05.27,0,.75,0,.54-.31S56.41,18.41,56.33,18.63Z"/><path class="cls-4" d="M48.5,18.35a.54.54,0,0,0,0,.22c.32.11,1.14,0,.87-.51S48.59,18,48.5,18.35Z"/><path class="cls-4" d="M49.61,17h0a.27.27,0,0,0-.33.27.39.39,0,0,0,.55-.22A.39.39,0,0,0,49.61,17Z"/><path class="cls-5" d="M50.66,28.31c-1.17.86,4.81,5.19,8.69,5a11.44,11.44,0,0,0,9.41-6c1-2.15.66-8.23-.62-7.81-.46.15.1,2.22-1.78,5.34-1.66,2.75-4.48,5.46-8.21,5.27C53,29.91,51.44,27.74,50.66,28.31Z"/><path class="cls-6" d="M63.49,13.25a.55.55,0,0,0-.49.84c.32.8,2.27,2.1,2.83,1.88s.59-.87-.23-1.5A4.76,4.76,0,0,0,63.49,13.25Z"/><path class="cls-6" d="M64.5,14.32S66.76,12,67.41,11.1a42,42,0,0,0,2.14-4.22s.2-.3.47-.25.2.47.2.47S68.64,10.33,68,11.21C66.71,13,65,15,65,15Z"/><path class="cls-6" d="M68.44,9.91l-3.73-.47-.13.22,1.85.3,1.85.3Z"/><path class="cls-6" d="M60.67,14.12c-3.85,1-9.55-1.77-9.55-1.77s3.81-4.43,7.07-4.77,8.93,2.27,8.93,2.27A13.5,13.5,0,0,1,60.67,14.12Z"/><path class="cls-7" d="M63.52,13.49a.81.81,0,0,0-.09.79,4.09,4.09,0,0,0,1.4,1.11l.09-.7s-.3-.21-.33-.38a.39.39,0,0,1,0-.27Z"/><path class="cls-7" d="M65.86,10A30.51,30.51,0,0,0,59.4,10c-3,.43-7.52,1.86-7.46,2.07s4.94-1.64,7.36-1.8,6.74,0,6.74,0Z"/><path class="cls-7" d="M64.34,10.06a3.28,3.28,0,0,1-.63,1.17,8.7,8.7,0,0,0-1.08,1.69,10.44,10.44,0,0,0,1.25-1.57c.36-.53.82-1.27.82-1.27Z"/><path class="cls-7" d="M61.34,10.08A5.29,5.29,0,0,1,60.68,12c-.66,1.36-.93,1.76-.76,1.79s.66-1,1-1.74.85-2,.85-2Z"/><path class="cls-7" d="M58.43,10.36a3.65,3.65,0,0,1-.23,1.42c-.3,1-.66,1.57-.53,1.64s.49-.87.69-1.59.5-1.63.5-1.63Z"/><path class="cls-7" d="M55.29,11.1a2.13,2.13,0,0,1-.16.84c-.18.51-.47,1-.38,1a1.93,1.93,0,0,0,.53-.92l.28-1Z"/><path class="cls-7" d="M64.7,10a4.38,4.38,0,0,0-1.13-1.09,3.5,3.5,0,0,0-1.46-.59c-.08.07.83.32,1.15.53A12.23,12.23,0,0,1,64.44,10Z"/><path class="cls-7" d="M61.61,9.89a2.81,2.81,0,0,0-.92-1.23,4.57,4.57,0,0,0-2-.8c-.2.06,1.5.49,1.88.87a4.1,4.1,0,0,1,.69,1.2Z"/><path class="cls-7" d="M58.86,10.2a6.75,6.75,0,0,0-1.39-1.09,5.58,5.58,0,0,0-1.66-.42c-.19,0,1.28.33,1.69.62a9.06,9.06,0,0,1,1,1Z"/><path class="cls-7" d="M55.29,11s0-.24-.74-.5-1.06-.43-.91-.43a5.09,5.09,0,0,1,.91.24,5.46,5.46,0,0,1,1.07.61Z"/><path class="cls-3" d="M46.46,15.66c3,2.19,6.91,9.14,2.29,14.85s-11.37,6.05-16.46,2.7a11.49,11.49,0,0,1-1.43-18.14C36,10.18,42,12.35,46.46,15.66Z"/><path class="cls-4" d="M34,14.84h0Z"/><path class="cls-4" d="M34.67,15.57c.34-.17.74-.53.41-.85s-.78,0-1.1.12C33.55,15.24,33.73,16,34.67,15.57Z"/><path class="cls-4" d="M34,14.84l.53-.21A.78.78,0,0,0,34,14.84Z"/><path class="cls-4" d="M33,16.37c.13-.1.31-.3.14-.44a.24.24,0,0,0-.34.07.43.43,0,0,0-.21.29C32.59,16.58,32.9,16.47,33,16.37Z"/><path class="cls-4" d="M35.32,16.19a.35.35,0,0,0-.33,0c-.16,0-.35.08-.39.21s0,.06,0,.08l-.05,0,.05,0c0,.14.38,0,.51,0S35.59,16.33,35.32,16.19Z"/><path class="cls-4" d="M34.55,16.52h0Z"/><path class="cls-4" d="M36.05,15.4c-.15,0-.32.22-.23.36s.44.09.56,0C36.89,15.51,36.24,15.29,36.05,15.4Z"/><path class="cls-4" d="M36.68,14.48c-.1,0-.29-.06-.37,0a.15.15,0,0,0,0,.18c0,.1.18.2.25.23s.92.32,1,.06S36.87,14.51,36.68,14.48Z"/><path class="cls-4" d="M35.85,14c.15.09.71.06.77-.16s-.31-.28-.45-.26a.55.55,0,0,0-.24.14C35.78,13.75,35.67,13.87,35.85,14Z"/><path class="cls-4" d="M33.13,15.29c.29-.22,0-.34-.22-.3h0c-.14,0-.46.14-.38.32S33,15.37,33.13,15.29Z"/><path class="cls-4" d="M31.91,16.67c.11-.13.44-.67.06-.69a.26.26,0,0,0-.2.1,1.12,1.12,0,0,0-.38.53C31.24,17.11,31.72,16.89,31.91,16.67Z"/><path class="cls-4" d="M34,16.82a.8.8,0,0,0-.5,0c-.28.08-.62.31-.67.52-.12.52.79.14,1,.08S34.39,17,34,16.82Z"/><path class="cls-4" d="M35.49,17.23c-.15.05-.3.17-.3.29s.52.18.67.11C36.42,17.37,35.69,17.12,35.49,17.23Z"/><path class="cls-4" d="M39.07,14.35a.24.24,0,0,0-.25.1.7.7,0,0,0,1,0A.59.59,0,0,0,39.07,14.35Z"/><path class="cls-4" d="M37.6,15.69c.31.11,1.16.17,1.23-.28a.76.76,0,0,0-.68-.08C37.88,15.32,37.6,15.41,37.6,15.69Z"/><path class="cls-4" d="M38.21,13.39a.44.44,0,0,0-.62-.06.28.28,0,0,0-.15.18A.59.59,0,0,0,38.21,13.39Z"/><path class="cls-4" d="M40.52,15.22c-.63,0,.18.81.53.55S40.77,15.06,40.52,15.22Z"/><path class="cls-4" d="M31.59,17.81c-.2-.15-.36,0-.47.18-.42.27-.92.91-.52,1.06S31.58,18.16,31.59,17.81Z"/><path class="cls-4" d="M30.44,17c-.54.1-.29,1,.23.38C31,17,30.66,16.87,30.44,17Z"/><path class="cls-4" d="M33.51,18.64a.27.27,0,0,0-.2.25c.2.14.74.15.87-.11S33.69,18.33,33.51,18.64Z"/><path class="cls-4" d="M38.3,17.16l0-.05a.5.5,0,0,0,0,.12c0,.05,0,.09,0,.11.12.3.74.31.62-.06S38.45,17,38.3,17.16Z"/><path class="cls-4" d="M43.86,16.37c-.37-.5-1.12,0-.65.16C43.49,16.73,44.22,16.87,43.86,16.37Z"/><path class="cls-4" d="M30.91,21.16,31,21a.87.87,0,0,0-.4.63c.21.06.85-.36.83-.64S31.1,20.89,30.91,21.16Z"/><path class="cls-4" d="M36.59,19.75a.14.14,0,0,0,.21,0c.26,0,.74,0,.54-.31S36.66,19.53,36.59,19.75Z"/><path class="cls-4" d="M28.75,19.47a.36.36,0,0,0,0,.21c.32.11,1.13,0,.86-.51S28.84,19.09,28.75,19.47Z"/><path class="cls-4" d="M29.86,18.1h0a.27.27,0,0,0-.33.26.4.4,0,0,0,.56-.21A.37.37,0,0,0,29.86,18.1Z"/><path class="cls-5" d="M30.92,29.42c-1.18.86,4.8,5.2,8.69,5a11.47,11.47,0,0,0,9.4-6c1-2.15.67-8.23-.62-7.81-.46.15.1,2.22-1.78,5.35-1.65,2.74-4.47,5.45-8.21,5.26C33.28,31,31.69,28.85,30.92,29.42Z"/><path class="cls-6" d="M43.74,14.36a.55.55,0,0,0-.49.84c.32.8,2.27,2.1,2.83,1.88s.59-.87-.23-1.5A4.86,4.86,0,0,0,43.74,14.36Z"/><path class="cls-6" d="M44.75,15.43s2.26-2.34,2.91-3.22A42,42,0,0,0,49.8,8s.2-.3.47-.25.2.47.2.47-1.57,3.23-2.21,4.12c-1.3,1.8-3,3.77-3,3.77Z"/><path class="cls-6" d="M48.7,11c-.14,0-3.74-.47-3.74-.47l-.13.21,1.85.3,1.85.31Z"/><path class="cls-6" d="M40.92,15.23c-3.85,1-9.55-1.77-9.55-1.77S35.18,9,38.44,8.69,47.37,11,47.37,11A13.42,13.42,0,0,1,40.92,15.23Z"/><path class="cls-7" d="M43.77,14.6a.82.82,0,0,0-.09.79,4.17,4.17,0,0,0,1.41,1.12l.09-.71s-.3-.2-.33-.38a.41.41,0,0,1,0-.27Z"/><path class="cls-7" d="M46.11,11.06a30.48,30.48,0,0,0-6.46.06c-3,.43-7.52,1.87-7.46,2.07s4.94-1.64,7.36-1.8,6.74,0,6.74,0Z"/><path class="cls-7" d="M44.59,11.17A3.41,3.41,0,0,1,44,12.35,8.25,8.25,0,0,0,42.88,14a10.43,10.43,0,0,0,1.26-1.57c.35-.52.81-1.26.81-1.26Z"/><path class="cls-7" d="M41.6,11.19a5.29,5.29,0,0,1-.66,1.92c-.67,1.36-.93,1.75-.77,1.78s.66-1,1-1.74.85-2,.85-2Z"/><path class="cls-7" d="M38.68,11.47a3.65,3.65,0,0,1-.23,1.42c-.3,1-.66,1.57-.52,1.64s.48-.86.68-1.59.5-1.62.5-1.62Z"/><path class="cls-7" d="M35.54,12.21a2.13,2.13,0,0,1-.16.84c-.18.52-.47,1-.38,1a1.88,1.88,0,0,0,.53-.92l.28-1Z"/><path class="cls-7" d="M45,11.09A4.38,4.38,0,0,0,43.82,10a3.61,3.61,0,0,0-1.46-.59c-.08.07.83.33,1.15.54a12.81,12.81,0,0,1,1.19,1.13Z"/><path class="cls-7" d="M41.87,11A2.91,2.91,0,0,0,41,9.77,4.6,4.6,0,0,0,38.89,9c-.19.07,1.5.49,1.88.87a4.1,4.1,0,0,1,.69,1.2Z"/><path class="cls-7" d="M39.11,11.32a6.28,6.28,0,0,0-1.38-1.09,6.1,6.1,0,0,0-1.66-.43c-.2,0,1.27.33,1.68.62a9.24,9.24,0,0,1,1,1Z"/><path class="cls-7" d="M35.54,12.12s0-.24-.73-.5-1.07-.42-.92-.43a4.88,4.88,0,0,1,.91.24,5.46,5.46,0,0,1,1.07.61Z"/><path class="cls-3" d="M80.11,26.23c3,2.19,6.92,9.14,2.29,14.85S71,47.13,65.94,43.78a11.48,11.48,0,0,1-1.42-18.14C69.66,20.75,75.61,22.92,80.11,26.23Z"/><path class="cls-4" d="M67.63,25.41h0Z"/><path class="cls-4" d="M68.32,26.13c.35-.17.74-.52.41-.84s-.78,0-1.09.12C67.21,25.81,67.39,26.59,68.32,26.13Z"/><path class="cls-4" d="M67.64,25.41l.54-.21A.83.83,0,0,0,67.64,25.41Z"/><path class="cls-4" d="M66.69,26.94c.13-.1.31-.3.13-.44a.22.22,0,0,0-.33.07.44.44,0,0,0-.22.29C66.24,27.15,66.55,27,66.69,26.94Z"/><path class="cls-4" d="M69,26.76a.33.33,0,0,0-.33,0c-.15,0-.35.08-.38.21a.25.25,0,0,0,0,.08l0,0,0,0c0,.15.39,0,.51,0S69.24,26.9,69,26.76Z"/><path class="cls-4" d="M68.21,27.09h0Z"/><path class="cls-4" d="M69.71,26c-.15.05-.32.22-.24.36s.44.09.57,0C70.54,26.07,69.89,25.86,69.71,26Z"/><path class="cls-4" d="M70.33,25.05c-.1,0-.29-.06-.37,0a.15.15,0,0,0,0,.18c0,.1.18.19.25.23s.91.32,1,.06S70.52,25.08,70.33,25.05Z"/><path class="cls-4" d="M69.5,24.53c.16.08.72.06.77-.16s-.3-.28-.45-.26a.61.61,0,0,0-.24.14C69.43,24.32,69.32,24.43,69.5,24.53Z"/><path class="cls-4" d="M66.79,25.86c.29-.22,0-.34-.23-.3h0c-.13,0-.46.14-.37.32S66.67,25.94,66.79,25.86Z"/><path class="cls-4" d="M65.57,27.24c.11-.13.44-.67.06-.69a.23.23,0,0,0-.2.1,1.15,1.15,0,0,0-.39.53C64.9,27.68,65.38,27.45,65.57,27.24Z"/><path class="cls-4" d="M67.62,27.39a.76.76,0,0,0-.51,0,1,1,0,0,0-.66.52c-.13.52.78.14,1,.08S68,27.55,67.62,27.39Z"/><path class="cls-4" d="M69.14,27.8c-.14.05-.3.17-.3.29s.52.18.67.11C70.07,27.94,69.34,27.69,69.14,27.8Z"/><path class="cls-4" d="M72.73,24.92a.23.23,0,0,0-.25.1.69.69,0,0,0,1,0A.57.57,0,0,0,72.73,24.92Z"/><path class="cls-4" d="M71.25,26.26c.31.11,1.16.16,1.23-.28a.75.75,0,0,0-.68-.08C71.53,25.89,71.25,26,71.25,26.26Z"/><path class="cls-4" d="M71.86,24a.44.44,0,0,0-.62-.06.28.28,0,0,0-.15.18A.59.59,0,0,0,71.86,24Z"/><path class="cls-4" d="M74.17,25.79c-.62,0,.19.81.53.55S74.42,25.62,74.17,25.79Z"/><path class="cls-4" d="M65.24,28.38c-.19-.15-.35,0-.47.18-.42.27-.92.9-.52,1.06S65.23,28.73,65.24,28.38Z"/><path class="cls-4" d="M64.09,27.56c-.54.1-.28,1,.23.38C64.64,27.56,64.31,27.44,64.09,27.56Z"/><path class="cls-4" d="M67.16,29.21a.28.28,0,0,0-.2.24c.21.15.74.16.88-.11S67.34,28.9,67.16,29.21Z"/><path class="cls-4" d="M72,27.73l0-.05a.26.26,0,0,0,0,.11c0,.06,0,.1,0,.12.11.29.73.3.61-.07S72.1,27.59,72,27.73Z"/><path class="cls-4" d="M77.51,26.94c-.36-.5-1.12,0-.64.16C77.15,27.3,77.87,27.44,77.51,26.94Z"/><path class="cls-4" d="M64.57,31.73l.07-.13a.9.9,0,0,0-.4.63c.22.06.85-.36.83-.64S64.75,31.46,64.57,31.73Z"/><path class="cls-4" d="M70.24,30.31c.08.1.14.09.21.05.26,0,.74,0,.54-.31S70.31,30.09,70.24,30.31Z"/><path class="cls-4" d="M62.4,30a.53.53,0,0,0,0,.22c.32.11,1.14,0,.87-.51S62.5,29.66,62.4,30Z"/><path class="cls-4" d="M63.52,28.67h0a.26.26,0,0,0-.33.26.39.39,0,0,0,.55-.21A.34.34,0,0,0,63.52,28.67Z"/><path class="cls-5" d="M64.57,40c-1.17.86,4.8,5.2,8.69,5a11.44,11.44,0,0,0,9.4-6c1-2.15.67-8.23-.61-7.81-.46.15.1,2.22-1.79,5.35-1.65,2.74-4.47,5.45-8.21,5.26C66.94,41.59,65.35,39.42,64.57,40Z"/><path class="cls-6" d="M77.39,24.93a.55.55,0,0,0-.48.84c.32.8,2.27,2.1,2.83,1.88s.58-.87-.23-1.5A4.83,4.83,0,0,0,77.39,24.93Z"/><path class="cls-6" d="M78.41,26s2.26-2.34,2.9-3.22a39.9,39.9,0,0,0,2.14-4.22s.2-.3.48-.25.2.47.2.47S82.55,22,81.91,22.9c-1.3,1.8-3,3.77-3,3.77Z"/><path class="cls-6" d="M82.35,21.59l-3.73-.47-.14.22,1.86.3,1.85.31Z"/><path class="cls-6" d="M74.58,25.8C70.72,26.78,65,24,65,24s3.8-4.43,7.07-4.77S81,21.53,81,21.53A13.43,13.43,0,0,1,74.58,25.8Z"/><path class="cls-7" d="M77.43,25.17a.82.82,0,0,0-.09.79,4.16,4.16,0,0,0,1.4,1.12l.09-.71s-.3-.2-.33-.38a.39.39,0,0,1,0-.27Z"/><path class="cls-7" d="M79.76,21.63a30.4,30.4,0,0,0-6.45.06c-3,.43-7.52,1.87-7.47,2.07s5-1.64,7.37-1.8,6.73,0,6.73,0Z"/><path class="cls-7" d="M78.25,21.74a3.28,3.28,0,0,1-.63,1.17,8.7,8.7,0,0,0-1.08,1.69A10.55,10.55,0,0,0,77.79,23c.35-.52.81-1.27.81-1.27Z"/><path class="cls-7" d="M75.25,21.76a5.29,5.29,0,0,1-.66,1.92c-.66,1.36-.93,1.75-.76,1.78s.65-1,1-1.74.85-2,.85-2Z"/><path class="cls-7" d="M72.33,22a3.65,3.65,0,0,1-.23,1.42c-.29,1-.66,1.57-.52,1.64s.48-.86.68-1.59.5-1.62.5-1.62Z"/><path class="cls-7" d="M69.2,22.78a2.39,2.39,0,0,1-.16.84c-.18.52-.47,1-.39,1a1.84,1.84,0,0,0,.54-.92c.13-.46.27-1,.27-1Z"/><path class="cls-7" d="M78.6,21.66a4.38,4.38,0,0,0-1.13-1.09A3.41,3.41,0,0,0,76,20c-.07.07.83.32,1.15.53a11.47,11.47,0,0,1,1.19,1.14Z"/><path class="cls-7" d="M75.52,21.57a2.91,2.91,0,0,0-.92-1.23,4.57,4.57,0,0,0-2-.8c-.2.07,1.5.49,1.88.87a4.1,4.1,0,0,1,.69,1.2Z"/><path class="cls-7" d="M72.76,21.89a6.54,6.54,0,0,0-1.38-1.1,6.29,6.29,0,0,0-1.66-.42c-.2,0,1.27.33,1.69.62a9.06,9.06,0,0,1,1,1Z"/><path class="cls-7" d="M69.19,22.69s0-.24-.73-.5-1.06-.43-.92-.43a4.91,4.91,0,0,1,.92.24,5.81,5.81,0,0,1,1.07.61Z"/><path class="cls-3" d="M59.55,23c3,2.19,6.91,9.14,2.29,14.85s-11.37,6-16.47,2.7A11.48,11.48,0,0,1,44,22.4C49.09,17.51,55,19.68,59.55,23Z"/><path class="cls-4" d="M47.06,22.17h0Z"/><path class="cls-4" d="M47.75,22.89c.35-.17.74-.52.41-.84s-.77,0-1.09.12C46.64,22.57,46.82,23.35,47.75,22.89Z"/><path class="cls-4" d="M47.08,22.17l.53-.21A.78.78,0,0,0,47.08,22.17Z"/><path class="cls-4" d="M46.12,23.7c.13-.1.31-.3.14-.44a.23.23,0,0,0-.34.07.48.48,0,0,0-.22.29C45.68,23.91,46,23.8,46.12,23.7Z"/><path class="cls-4" d="M48.41,23.52a.32.32,0,0,0-.33,0c-.16,0-.35.08-.39.21a.11.11,0,0,0,0,.08l0,0,0,0c0,.15.38,0,.51,0S48.67,23.66,48.41,23.52Z"/><path class="cls-4" d="M47.64,23.85h0Z"/><path class="cls-4" d="M49.14,22.73c-.15.05-.32.22-.23.36s.44.09.56,0C50,22.83,49.33,22.62,49.14,22.73Z"/><path class="cls-4" d="M49.77,21.81c-.11,0-.3-.06-.38,0a.17.17,0,0,0,0,.18c0,.1.18.19.25.23s.92.32,1,.06S50,21.84,49.77,21.81Z"/><path class="cls-4" d="M48.94,21.29c.15.08.71.06.77-.16s-.31-.28-.45-.26A.58.58,0,0,0,49,21C48.87,21.08,48.75,21.19,48.94,21.29Z"/><path class="cls-4" d="M46.22,22.62c.29-.22,0-.34-.22-.3h0c-.13,0-.46.14-.37.32S46.11,22.7,46.22,22.62Z"/><path class="cls-4" d="M45,24c.11-.13.44-.67.06-.69a.23.23,0,0,0-.2.1,1.06,1.06,0,0,0-.38.53C44.33,24.44,44.81,24.21,45,24Z"/><path class="cls-4" d="M47.05,24.15a.74.74,0,0,0-.5,0,1,1,0,0,0-.67.52c-.12.52.79.14,1,.08S47.47,24.31,47.05,24.15Z"/><path class="cls-4" d="M48.57,24.56c-.14.05-.3.17-.29.29s.52.18.66.11C49.5,24.7,48.77,24.45,48.57,24.56Z"/><path class="cls-4" d="M52.16,21.68a.23.23,0,0,0-.25.1.69.69,0,0,0,1,0A.57.57,0,0,0,52.16,21.68Z"/><path class="cls-4" d="M50.68,23c.32.11,1.17.16,1.23-.28a.75.75,0,0,0-.68-.08C51,22.65,50.69,22.74,50.68,23Z"/><path class="cls-4" d="M51.3,20.72a.46.46,0,0,0-.63-.06.28.28,0,0,0-.15.18A.6.6,0,0,0,51.3,20.72Z"/><path class="cls-4" d="M53.61,22.55c-.63,0,.18.81.53.55S53.86,22.38,53.61,22.55Z"/><path class="cls-4" d="M44.68,25.14c-.2-.15-.36,0-.47.18-.42.27-.93.9-.53,1.06S44.67,25.49,44.68,25.14Z"/><path class="cls-4" d="M43.52,24.32c-.54.1-.28,1,.23.38C44.07,24.32,43.74,24.2,43.52,24.32Z"/><path class="cls-4" d="M46.6,26a.27.27,0,0,0-.2.24c.2.15.74.16.87-.11S46.77,25.66,46.6,26Z"/><path class="cls-4" d="M51.39,24.49l0,0a.61.61,0,0,0,0,.11c0,.06,0,.1,0,.12.11.29.73.3.61-.07S51.53,24.35,51.39,24.49Z"/><path class="cls-4" d="M57,23.7c-.37-.5-1.12,0-.65.16C56.58,24.06,57.3,24.2,57,23.7Z"/><path class="cls-4" d="M44,28.49l.07-.13a.93.93,0,0,0-.4.63c.22.06.85-.36.84-.64C44.48,27.92,44.18,28.22,44,28.49Z"/><path class="cls-4" d="M49.67,27.07c.08.1.14.09.21.05.27,0,.75,0,.54-.31S49.75,26.85,49.67,27.07Z"/><path class="cls-4" d="M41.84,26.79a.54.54,0,0,0,0,.22c.32.11,1.14,0,.87-.51S41.93,26.42,41.84,26.79Z"/><path class="cls-4" d="M43,25.43h0a.27.27,0,0,0-.33.26.39.39,0,0,0,.55-.21A.34.34,0,0,0,43,25.43Z"/><path class="cls-5" d="M44,36.75c-1.17.86,4.81,5.2,8.69,5a11.44,11.44,0,0,0,9.41-6c1-2.15.66-8.23-.62-7.81-.46.15.1,2.22-1.78,5.35-1.66,2.74-4.48,5.45-8.22,5.26C46.37,38.35,44.78,36.18,44,36.75Z"/><path class="cls-6" d="M56.83,21.69a.55.55,0,0,0-.49.84c.32.8,2.27,2.1,2.83,1.88s.59-.87-.23-1.5A4.86,4.86,0,0,0,56.83,21.69Z"/><path class="cls-6" d="M57.84,22.76s2.26-2.34,2.9-3.22a40.43,40.43,0,0,0,2.15-4.22s.2-.3.47-.25.2.47.2.47S62,18.77,61.34,19.66c-1.29,1.8-3,3.77-3,3.77Z"/><path class="cls-6" d="M61.78,18.35l-3.73-.47-.13.22,1.85.3,1.85.31Z"/><path class="cls-6" d="M54,22.56c-3.85,1-9.55-1.77-9.55-1.77s3.81-4.43,7.07-4.77,8.93,2.27,8.93,2.27A13.49,13.49,0,0,1,54,22.56Z"/><path class="cls-7" d="M56.86,21.93a.82.82,0,0,0-.09.79,4.16,4.16,0,0,0,1.4,1.12l.09-.71s-.3-.2-.33-.38a.39.39,0,0,1,0-.27Z"/><path class="cls-7" d="M59.2,18.39a30.51,30.51,0,0,0-6.46.06c-3,.43-7.52,1.87-7.46,2.07s4.94-1.64,7.36-1.8,6.74,0,6.74,0Z"/><path class="cls-7" d="M57.68,18.5a3.28,3.28,0,0,1-.63,1.17A8.7,8.7,0,0,0,56,21.36a9.93,9.93,0,0,0,1.25-1.57c.36-.52.82-1.27.82-1.27Z"/><path class="cls-7" d="M54.68,18.52A5.29,5.29,0,0,1,54,20.44c-.66,1.36-.93,1.75-.76,1.78s.66-1,1-1.74.85-2,.85-2Z"/><path class="cls-7" d="M51.77,18.8a3.65,3.65,0,0,1-.23,1.42c-.3,1-.66,1.57-.53,1.64s.49-.86.69-1.59.5-1.62.5-1.62Z"/><path class="cls-7" d="M48.63,19.54a2.13,2.13,0,0,1-.16.84c-.18.52-.47,1-.38,1a1.93,1.93,0,0,0,.53-.92l.28-1Z"/><path class="cls-7" d="M58,18.42a4.38,4.38,0,0,0-1.13-1.09,3.5,3.5,0,0,0-1.46-.59c-.08.07.83.32,1.15.53a12.23,12.23,0,0,1,1.18,1.14Z"/><path class="cls-7" d="M55,18.33A2.81,2.81,0,0,0,54,17.1,4.57,4.57,0,0,0,52,16.3c-.2.07,1.5.49,1.88.87a4.1,4.1,0,0,1,.69,1.2Z"/><path class="cls-7" d="M52.2,18.65a6.69,6.69,0,0,0-1.39-1.1,6.29,6.29,0,0,0-1.66-.42c-.19,0,1.28.33,1.69.62a9.06,9.06,0,0,1,1,1Z"/><path class="cls-7" d="M48.63,19.45s-.05-.24-.74-.5-1.06-.43-.91-.43a5.09,5.09,0,0,1,.91.24,5.46,5.46,0,0,1,1.07.61Z"/><path class="cls-3" d="M69.27,33.18c3,2.2,6.91,9.14,2.29,14.85s-11.37,6.06-16.47,2.7A11.47,11.47,0,0,1,53.67,32.6C58.81,27.7,64.76,29.87,69.27,33.18Z"/><path class="cls-4" d="M56.78,32.37h0Z"/><path class="cls-4" d="M57.47,33.09c.35-.17.74-.53.41-.85s-.77,0-1.09.12C56.36,32.76,56.54,33.54,57.47,33.09Z"/><path class="cls-4" d="M56.79,32.36l.54-.21A.88.88,0,0,0,56.79,32.36Z"/><path class="cls-4" d="M55.84,33.89c.13-.1.31-.3.14-.44a.23.23,0,0,0-.34.07.48.48,0,0,0-.22.29C55.4,34.11,55.7,34,55.84,33.89Z"/><path class="cls-4" d="M58.12,33.71a.33.33,0,0,0-.32,0c-.16,0-.35.09-.39.21a.11.11,0,0,0,0,.08s0,0,0,0l0,0c0,.14.38,0,.5,0S58.39,33.86,58.12,33.71Z"/><path class="cls-4" d="M57.36,34l0,0Z"/><path class="cls-4" d="M58.86,32.93c-.15,0-.32.21-.23.36s.44.09.56,0C59.69,33,59,32.82,58.86,32.93Z"/><path class="cls-4" d="M59.49,32c-.11,0-.3-.06-.38,0a.15.15,0,0,0,0,.18c0,.1.18.2.25.23s.92.33,1,.07S59.67,32,59.49,32Z"/><path class="cls-4" d="M58.65,31.48c.16.09.72.07.78-.16s-.31-.28-.45-.26a.71.71,0,0,0-.25.14C58.59,31.27,58.47,31.39,58.65,31.48Z"/><path class="cls-4" d="M55.94,32.81c.29-.22,0-.34-.22-.29h0c-.13,0-.46.15-.37.33S55.83,32.89,55.94,32.81Z"/><path class="cls-4" d="M54.72,34.19c.11-.12.44-.67.06-.69a.3.3,0,0,0-.2.1,1.06,1.06,0,0,0-.38.53C54.05,34.64,54.53,34.41,54.72,34.19Z"/><path class="cls-4" d="M56.77,34.34a.74.74,0,0,0-.5,0,1,1,0,0,0-.67.51c-.13.52.78.15,1,.08S57.19,34.5,56.77,34.34Z"/><path class="cls-4" d="M58.29,34.75c-.14,0-.3.17-.3.29s.53.18.67.11C59.22,34.89,58.49,34.64,58.29,34.75Z"/><path class="cls-4" d="M61.88,31.87a.25.25,0,0,0-.25.1.68.68,0,0,0,1,0A.57.57,0,0,0,61.88,31.87Z"/><path class="cls-4" d="M60.4,33.21c.32.11,1.17.17,1.23-.27a.7.7,0,0,0-.68-.08C60.69,32.84,60.41,32.93,60.4,33.21Z"/><path class="cls-4" d="M61,30.91a.46.46,0,0,0-.63-.06.28.28,0,0,0-.15.18A.6.6,0,0,0,61,30.91Z"/><path class="cls-4" d="M63.33,32.74c-.63,0,.18.81.53.55S63.58,32.58,63.33,32.74Z"/><path class="cls-4" d="M54.4,35.33c-.2-.15-.36,0-.47.18-.42.27-.93.91-.53,1.06S54.38,35.68,54.4,35.33Z"/><path class="cls-4" d="M53.24,34.51c-.54.1-.28,1,.23.39C53.79,34.51,53.46,34.39,53.24,34.51Z"/><path class="cls-4" d="M56.32,36.16a.28.28,0,0,0-.2.25c.2.14.74.15.87-.11S56.49,35.85,56.32,36.16Z"/><path class="cls-4" d="M61.11,34.68l0,0a.45.45,0,0,0,0,.11s0,.1,0,.11c.11.3.73.31.61-.06S61.25,34.54,61.11,34.68Z"/><path class="cls-4" d="M66.67,33.9c-.37-.51-1.12,0-.65.16C66.3,34.26,67,34.39,66.67,33.9Z"/><path class="cls-4" d="M53.72,38.69l.07-.14a.93.93,0,0,0-.4.64c.22.05.85-.37.84-.65S53.9,38.41,53.72,38.69Z"/><path class="cls-4" d="M59.39,37.27a.16.16,0,0,0,.21,0c.27,0,.75,0,.54-.32S59.46,37.05,59.39,37.27Z"/><path class="cls-4" d="M51.56,37a.51.51,0,0,0,0,.22c.32.11,1.14,0,.87-.51S51.65,36.61,51.56,37Z"/><path class="cls-4" d="M52.67,35.63h0a.27.27,0,0,0-.33.26.39.39,0,0,0,.55-.21A.33.33,0,0,0,52.67,35.63Z"/><path class="cls-5" d="M53.72,47c-1.17.85,4.81,5.19,8.69,5a11.42,11.42,0,0,0,9.4-6c1-2.14.67-8.23-.61-7.8-.46.15.1,2.21-1.78,5.34C67.76,46.27,64.94,49,61.2,48.8,56.09,48.54,54.5,46.38,53.72,47Z"/><path class="cls-6" d="M66.55,31.89a.54.54,0,0,0-.49.83c.32.8,2.27,2.1,2.83,1.88s.59-.87-.23-1.49A4.66,4.66,0,0,0,66.55,31.89Z"/><path class="cls-6" d="M67.56,33s2.26-2.34,2.9-3.22a40.36,40.36,0,0,0,2.15-4.23s.19-.3.47-.24.2.46.2.46S71.7,29,71.06,29.85c-1.29,1.81-3,3.77-3,3.77Z"/><path class="cls-6" d="M71.5,28.55c-.14,0-3.73-.47-3.73-.47l-.13.21,1.85.31,1.85.3Z"/><path class="cls-6" d="M63.73,32.75c-3.85,1-9.55-1.76-9.55-1.76s3.8-4.44,7.07-4.77,8.93,2.27,8.93,2.27A13.5,13.5,0,0,1,63.73,32.75Z"/><path class="cls-7" d="M66.58,32.12a.82.82,0,0,0-.09.79A4,4,0,0,0,67.89,34l.09-.71s-.3-.2-.33-.38a.41.41,0,0,1,0-.27Z"/><path class="cls-7" d="M68.92,28.58a30.51,30.51,0,0,0-6.46.06c-3,.44-7.52,1.87-7.46,2.07s4.94-1.64,7.36-1.8,6.73,0,6.73,0Z"/><path class="cls-7" d="M67.4,28.69a3.36,3.36,0,0,1-.63,1.18,8.47,8.47,0,0,0-1.08,1.68A10.21,10.21,0,0,0,66.94,30c.36-.53.82-1.27.82-1.27Z"/><path class="cls-7" d="M64.4,28.72a5.29,5.29,0,0,1-.66,1.91c-.66,1.36-.93,1.75-.76,1.79s.66-1,1-1.75.85-2,.85-2Z"/><path class="cls-7" d="M61.49,29a3.92,3.92,0,0,1-.23,1.42c-.3,1-.66,1.57-.53,1.64s.49-.86.69-1.59.5-1.62.5-1.62Z"/><path class="cls-7" d="M58.35,29.73a2.39,2.39,0,0,1-.16.84c-.18.52-.47,1-.39,1a1.74,1.74,0,0,0,.54-.92l.28-1Z"/><path class="cls-7" d="M67.76,28.61a4.2,4.2,0,0,0-1.14-1.08,3.51,3.51,0,0,0-1.45-.6c-.08.07.83.33,1.15.54a12.23,12.23,0,0,1,1.18,1.14Z"/><path class="cls-7" d="M64.67,28.52a2.75,2.75,0,0,0-.92-1.22,4.62,4.62,0,0,0-2-.81c-.2.07,1.5.5,1.88.87a4.23,4.23,0,0,1,.69,1.2Z"/><path class="cls-7" d="M61.92,28.84a6.75,6.75,0,0,0-1.39-1.09,5.58,5.58,0,0,0-1.66-.42c-.19,0,1.28.32,1.69.61a8.84,8.84,0,0,1,1,1Z"/><path class="cls-7" d="M58.35,29.65s-.05-.25-.74-.5-1.06-.43-.91-.43a4.75,4.75,0,0,1,.91.23,6.06,6.06,0,0,1,1.07.61Z"/><path class="cls-3" d="M18.42,23c-3,2.2-6.91,9.14-2.29,14.86s11.37,6,16.47,2.69A11.47,11.47,0,0,0,34,22.45C28.88,17.55,22.93,19.72,18.42,23Z"/><path class="cls-4" d="M30.91,22.22h0Z"/><path class="cls-4" d="M30.22,22.94c-.35-.17-.74-.53-.42-.85s.78.05,1.1.13C31.33,22.61,31.15,23.39,30.22,22.94Z"/><path class="cls-4" d="M30.89,22.21l-.53-.2A.83.83,0,0,1,30.89,22.21Z"/><path class="cls-4" d="M31.85,23.74c-.13-.09-.31-.29-.14-.43a.23.23,0,0,1,.34.07.43.43,0,0,1,.21.29C32.29,24,32,23.84,31.85,23.74Z"/><path class="cls-4" d="M29.56,23.56a.35.35,0,0,1,.33,0c.16,0,.35.09.39.22a.11.11,0,0,1,0,.08l0,0,0,0c0,.14-.38,0-.51,0S29.3,23.71,29.56,23.56Z"/><path class="cls-4" d="M30.33,23.9h0Z"/><path class="cls-4" d="M28.83,22.78c.15,0,.32.21.23.36s-.44.09-.56,0C28,22.88,28.64,22.67,28.83,22.78Z"/><path class="cls-4" d="M28.2,21.86c.11,0,.29-.07.37,0a.15.15,0,0,1,0,.18c0,.11-.18.2-.25.24s-.92.32-1,.06S28,21.88,28.2,21.86Z"/><path class="cls-4" d="M29,21.34c-.15.08-.71.06-.77-.17s.31-.27.45-.25a.43.43,0,0,1,.24.14C29.1,21.13,29.21,21.24,29,21.34Z"/><path class="cls-4" d="M31.75,22.66c-.29-.21,0-.34.22-.29h0c.14,0,.47.15.38.33S31.86,22.74,31.75,22.66Z"/><path class="cls-4" d="M33,24c-.11-.12-.44-.67-.06-.69a.3.3,0,0,1,.2.1,1.08,1.08,0,0,1,.38.54C33.64,24.49,33.16,24.26,33,24Z"/><path class="cls-4" d="M30.92,24.2a.74.74,0,0,1,.5,0c.29.08.62.3.67.51.12.52-.79.15-1,.08S30.5,24.35,30.92,24.2Z"/><path class="cls-4" d="M29.4,24.6c.14,0,.3.17.29.29s-.52.18-.66.11C28.47,24.74,29.2,24.49,29.4,24.6Z"/><path class="cls-4" d="M25.81,21.72a.27.27,0,0,1,.25.1.69.69,0,0,1-1,0A.6.6,0,0,1,25.81,21.72Z"/><path class="cls-4" d="M27.29,23.06c-.32.11-1.17.17-1.23-.27a.75.75,0,0,1,.68-.08C27,22.7,27.28,22.79,27.29,23.06Z"/><path class="cls-4" d="M26.67,20.76a.46.46,0,0,1,.63-.06.32.32,0,0,1,.14.18A.59.59,0,0,1,26.67,20.76Z"/><path class="cls-4" d="M24.36,22.59c.63,0-.18.81-.53.56S24.11,22.43,24.36,22.59Z"/><path class="cls-4" d="M33.29,25.19c.2-.16.36,0,.47.18.42.26.93.9.53,1.06S33.3,25.53,33.29,25.19Z"/><path class="cls-4" d="M34.45,24.36c.54.11.28,1-.23.39C33.9,24.37,34.22,24.25,34.45,24.36Z"/><path class="cls-4" d="M31.37,26a.28.28,0,0,1,.2.25c-.2.15-.74.16-.87-.11S31.19,25.7,31.37,26Z"/><path class="cls-4" d="M26.58,24.53l0,0a.52.52,0,0,1,0,.11s0,.1,0,.12c-.11.29-.73.3-.62-.07S26.43,24.39,26.58,24.53Z"/><path class="cls-4" d="M21,23.75c.37-.5,1.12,0,.65.16C21.39,24.11,20.67,24.24,21,23.75Z"/><path class="cls-4" d="M34,28.54l-.07-.13a.91.91,0,0,1,.4.63c-.22.06-.85-.37-.84-.65S33.79,28.27,34,28.54Z"/><path class="cls-4" d="M28.3,27.12a.17.17,0,0,1-.22.05c-.26,0-.74,0-.53-.32S28.22,26.9,28.3,27.12Z"/><path class="cls-4" d="M36.13,26.84a.4.4,0,0,1,0,.22c-.32.11-1.13,0-.86-.51S36,26.46,36.13,26.84Z"/><path class="cls-4" d="M35,25.48h0a.27.27,0,0,1,.33.27.4.4,0,0,1-.55-.22A.33.33,0,0,1,35,25.48Z"/><path class="cls-5" d="M34,36.8c1.18.86-4.8,5.19-8.68,5a11.43,11.43,0,0,1-9.41-6c-1-2.14-.66-8.23.62-7.8.46.15-.1,2.21,1.78,5.34,1.65,2.75,4.48,5.46,8.21,5.27C31.6,38.4,33.19,36.23,34,36.8Z"/><path class="cls-6" d="M21.14,21.74a.55.55,0,0,1,.49.83c-.32.8-2.27,2.1-2.83,1.88s-.59-.87.23-1.49A4.66,4.66,0,0,1,21.14,21.74Z"/><path class="cls-6" d="M20.13,22.81s-2.26-2.34-2.91-3.22a41.89,41.89,0,0,1-2.14-4.23s-.2-.29-.47-.24-.2.47-.2.47S16,18.81,16.62,19.7c1.3,1.81,3,3.78,3,3.78Z"/><path class="cls-6" d="M16.19,18.4c.13,0,3.73-.47,3.73-.47l.13.21-1.85.31-1.85.3Z"/><path class="cls-6" d="M24,22.61c3.85,1,9.55-1.77,9.55-1.77s-3.81-4.44-7.07-4.77-8.93,2.27-8.93,2.27A13.5,13.5,0,0,0,24,22.61Z"/><path class="cls-7" d="M21.11,22a.81.81,0,0,1,.09.79,4.09,4.09,0,0,1-1.4,1.11l-.1-.7S20,23,20,22.8a.39.39,0,0,0,0-.27Z"/><path class="cls-7" d="M18.77,18.43a30.09,30.09,0,0,1,6.46.07c3,.43,7.52,1.86,7.46,2.06s-4.94-1.64-7.36-1.8-6.74,0-6.74,0Z"/><path class="cls-7" d="M20.29,18.55a3.28,3.28,0,0,0,.63,1.17A9.15,9.15,0,0,1,22,21.4a10.21,10.21,0,0,1-1.25-1.56c-.36-.53-.82-1.27-.82-1.27Z"/><path class="cls-7" d="M23.29,18.57A5,5,0,0,0,24,20.48c.66,1.36.92,1.76.76,1.79s-.66-1-1-1.75-.85-2-.85-2Z"/><path class="cls-7" d="M26.2,18.84a3.63,3.63,0,0,0,.23,1.42c.3,1,.66,1.58.53,1.64s-.49-.86-.69-1.58-.5-1.63-.5-1.63Z"/><path class="cls-7" d="M29.34,19.58a2.11,2.11,0,0,0,.16.84c.18.52.47,1,.38,1a1.83,1.83,0,0,1-.53-.91l-.28-1Z"/><path class="cls-7" d="M19.93,18.46a4.43,4.43,0,0,1,1.13-1.08,3.53,3.53,0,0,1,1.46-.6c.08.07-.83.33-1.15.54a12.23,12.23,0,0,0-1.18,1.14Z"/><path class="cls-7" d="M23,18.38a2.88,2.88,0,0,1,.93-1.23,4.45,4.45,0,0,1,2-.8c.2.06-1.5.49-1.88.86a4.23,4.23,0,0,0-.69,1.21Z"/><path class="cls-7" d="M25.77,18.69a6.75,6.75,0,0,1,1.39-1.09,5.58,5.58,0,0,1,1.66-.42c.19,0-1.28.33-1.69.62a9.06,9.06,0,0,0-1,1Z"/><path class="cls-7" d="M29.34,19.5s.05-.25.73-.5,1.07-.43.92-.43a4.16,4.16,0,0,0-.91.24,5.61,5.61,0,0,0-1.07.6Z"/><path class="cls-3" d="M12.66,35.87c-3,2.19-6.91,9.13-2.29,14.85s11.37,6.05,16.47,2.69a11.47,11.47,0,0,0,1.42-18.13C23.12,30.38,17.17,32.55,12.66,35.87Z"/><path class="cls-4" d="M25.15,35.05h0Z"/><path class="cls-4" d="M24.46,35.77c-.35-.17-.74-.53-.42-.85s.78,0,1.1.13C25.57,35.44,25.39,36.23,24.46,35.77Z"/><path class="cls-4" d="M25.13,35l-.53-.2A.83.83,0,0,1,25.13,35Z"/><path class="cls-4" d="M26.09,36.57c-.13-.09-.31-.29-.14-.43a.23.23,0,0,1,.34.07.43.43,0,0,1,.21.29C26.53,36.79,26.23,36.67,26.09,36.57Z"/><path class="cls-4" d="M23.8,36.39a.32.32,0,0,1,.33,0c.16,0,.35.08.39.21a.11.11,0,0,1,0,.08l.05,0-.05,0c0,.15-.38,0-.51,0S23.54,36.54,23.8,36.39Z"/><path class="cls-4" d="M24.57,36.73h0Z"/><path class="cls-4" d="M23.07,35.61c.15,0,.32.21.23.36s-.44.09-.56,0C22.24,35.71,22.88,35.5,23.07,35.61Z"/><path class="cls-4" d="M22.44,34.69c.11,0,.3-.07.37,0a.14.14,0,0,1,0,.17c0,.11-.18.2-.25.24s-.92.32-1,.06S22.26,34.71,22.44,34.69Z"/><path class="cls-4" d="M23.27,34.17c-.15.08-.71.06-.77-.17s.31-.27.45-.25a.5.5,0,0,1,.24.14C23.34,34,23.46,34.07,23.27,34.17Z"/><path class="cls-4" d="M26,35.49c-.29-.21,0-.34.22-.29h0c.13,0,.46.15.37.33S26.1,35.57,26,35.49Z"/><path class="cls-4" d="M27.21,36.87c-.11-.12-.44-.67-.06-.69a.3.3,0,0,1,.2.1,1.08,1.08,0,0,1,.38.54C27.88,37.32,27.4,37.09,27.21,36.87Z"/><path class="cls-4" d="M25.16,37a.74.74,0,0,1,.5,0c.29.08.62.3.67.51.12.52-.79.15-1,.08S24.74,37.19,25.16,37Z"/><path class="cls-4" d="M23.64,37.44c.14,0,.3.17.29.28s-.52.18-.66.11C22.71,37.57,23.44,37.32,23.64,37.44Z"/><path class="cls-4" d="M20.05,34.55a.26.26,0,0,1,.25.11.68.68,0,0,1-1,0A.58.58,0,0,1,20.05,34.55Z"/><path class="cls-4" d="M21.53,35.9c-.32.1-1.17.16-1.23-.28a.75.75,0,0,1,.68-.08C21.24,35.53,21.52,35.62,21.53,35.9Z"/><path class="cls-4" d="M20.91,33.6a.46.46,0,0,1,.63-.07.28.28,0,0,1,.14.18A.6.6,0,0,1,20.91,33.6Z"/><path class="cls-4" d="M18.6,35.42c.63,0-.18.81-.53.56S18.35,35.26,18.6,35.42Z"/><path class="cls-4" d="M27.53,38c.2-.16.36,0,.47.18.42.26.93.9.53,1.06S27.54,38.36,27.53,38Z"/><path class="cls-4" d="M28.69,37.19c.54.11.28,1-.23.39C28.14,37.2,28.46,37.08,28.69,37.19Z"/><path class="cls-4" d="M25.61,38.84a.28.28,0,0,1,.2.25c-.2.15-.74.16-.87-.11S25.43,38.53,25.61,38.84Z"/><path class="cls-4" d="M20.82,37.36l0,0a.61.61,0,0,1,0,.11s0,.1,0,.12c-.11.29-.73.3-.61-.07S20.68,37.22,20.82,37.36Z"/><path class="cls-4" d="M15.26,36.58c.37-.5,1.12,0,.65.16C15.63,36.94,14.91,37.07,15.26,36.58Z"/><path class="cls-4" d="M28.21,41.37l-.07-.13a.91.91,0,0,1,.4.63c-.22.06-.85-.37-.84-.65S28,41.1,28.21,41.37Z"/><path class="cls-4" d="M22.54,40a.16.16,0,0,1-.21,0c-.27,0-.75,0-.54-.32S22.46,39.73,22.54,40Z"/><path class="cls-4" d="M30.37,39.67a.51.51,0,0,1,0,.22c-.33.11-1.14,0-.87-.51S30.28,39.3,30.37,39.67Z"/><path class="cls-4" d="M29.26,38.31h0a.27.27,0,0,1,.33.27.4.4,0,0,1-.55-.22A.39.39,0,0,1,29.26,38.31Z"/><path class="cls-5" d="M28.2,49.63c1.18.86-4.8,5.19-8.68,5a11.43,11.43,0,0,1-9.41-6c-1-2.14-.66-8.23.62-7.8.46.15-.1,2.22,1.78,5.34C14.17,49,17,51.67,20.72,51.48,25.84,51.23,27.43,49.06,28.2,49.63Z"/><path class="cls-6" d="M15.38,34.57a.55.55,0,0,1,.49.84c-.32.79-2.27,2.09-2.83,1.88s-.59-.87.23-1.5A4.76,4.76,0,0,1,15.38,34.57Z"/><path class="cls-6" d="M14.37,35.64s-2.26-2.34-2.91-3.22a41.89,41.89,0,0,1-2.14-4.23s-.2-.29-.47-.24-.2.47-.2.47,1.58,3.22,2.22,4.11c1.29,1.81,3,3.78,3,3.78Z"/><path class="cls-6" d="M10.43,31.23l3.73-.47.13.21-1.85.31-1.85.3Z"/><path class="cls-6" d="M18.2,35.44c3.85,1,9.55-1.77,9.55-1.77s-3.81-4.44-7.07-4.77-8.93,2.27-8.93,2.27A13.5,13.5,0,0,0,18.2,35.44Z"/><path class="cls-7" d="M15.35,34.81a.81.81,0,0,1,.09.79A4.09,4.09,0,0,1,14,36.71L14,36s.3-.21.33-.38a.39.39,0,0,0,0-.27Z"/><path class="cls-7" d="M13,31.27a29.77,29.77,0,0,1,6.46.06c3,.43,7.52,1.86,7.46,2.06s-4.94-1.63-7.36-1.8-6.74,0-6.74,0Z"/><path class="cls-7" d="M14.53,31.38a3.28,3.28,0,0,0,.63,1.17,9.15,9.15,0,0,1,1.08,1.68A9.72,9.72,0,0,1,15,32.67c-.36-.53-.82-1.27-.82-1.27Z"/><path class="cls-7" d="M17.53,31.4a5.29,5.29,0,0,0,.66,1.91c.66,1.36.93,1.76.76,1.79s-.66-1-1-1.74-.85-2-.85-2Z"/><path class="cls-7" d="M20.44,31.67a3.63,3.63,0,0,0,.23,1.42c.3,1,.66,1.58.53,1.65s-.49-.87-.69-1.59-.5-1.63-.5-1.63Z"/><path class="cls-7" d="M23.58,32.41a2.11,2.11,0,0,0,.16.84c.18.52.47,1,.38,1a1.83,1.83,0,0,1-.53-.91l-.28-1Z"/><path class="cls-7" d="M14.17,31.29a4.43,4.43,0,0,1,1.13-1.08,3.59,3.59,0,0,1,1.46-.6c.08.07-.83.33-1.15.54a12.23,12.23,0,0,0-1.18,1.14Z"/><path class="cls-7" d="M17.25,31.21A2.88,2.88,0,0,1,18.18,30a4.45,4.45,0,0,1,2.05-.8c.2.06-1.5.49-1.88.86a4.23,4.23,0,0,0-.69,1.21Z"/><path class="cls-7" d="M20,31.52a6.75,6.75,0,0,1,1.39-1.09A5.58,5.58,0,0,1,23.06,30c.19,0-1.28.33-1.69.62a9.06,9.06,0,0,0-1,1Z"/><path class="cls-7" d="M23.58,32.33s.05-.25.74-.5,1.06-.43.91-.43a4.31,4.31,0,0,0-.91.24,5.61,5.61,0,0,0-1.07.6Z"/><path class="cls-3" d="M85.38,38.62c3,2.2,6.91,9.14,2.29,14.86S76.3,59.53,71.21,56.17A11.48,11.48,0,0,1,69.78,38C74.93,33.14,80.88,35.31,85.38,38.62Z"/><path class="cls-4" d="M72.89,37.81h0Z"/><path class="cls-4" d="M73.59,38.53c.34-.17.74-.53.41-.85s-.78,0-1.09.13C72.47,38.2,72.65,39,73.59,38.53Z"/><path class="cls-4" d="M72.91,37.8l.53-.2A.8.8,0,0,0,72.91,37.8Z"/><path class="cls-4" d="M72,39.33c.14-.09.31-.29.14-.43a.23.23,0,0,0-.34.07.46.46,0,0,0-.21.29C71.51,39.55,71.82,39.43,72,39.33Z"/><path class="cls-4" d="M74.24,39.15a.35.35,0,0,0-.33,0c-.16,0-.35.09-.39.21s0,.06,0,.09l0,0,0,0c0,.14.38,0,.51,0S74.51,39.3,74.24,39.15Z"/><path class="cls-4" d="M73.47,39.49h0Z"/><path class="cls-4" d="M75,38.37c-.15,0-.32.21-.23.36s.44.09.56,0C75.81,38.47,75.16,38.26,75,38.37Z"/><path class="cls-4" d="M75.6,37.45c-.1,0-.29-.07-.37,0a.15.15,0,0,0,0,.18c0,.11.18.2.25.24s.92.32,1,.06S75.79,37.47,75.6,37.45Z"/><path class="cls-4" d="M74.77,36.93c.15.08.71.06.77-.17s-.3-.27-.45-.25a.47.47,0,0,0-.24.14C74.7,36.72,74.59,36.83,74.77,36.93Z"/><path class="cls-4" d="M72.05,38.25c.29-.21,0-.34-.22-.29h0c-.13,0-.46.15-.38.33S71.94,38.33,72.05,38.25Z"/><path class="cls-4" d="M70.83,39.63c.11-.12.44-.67.06-.69a.3.3,0,0,0-.2.1,1.15,1.15,0,0,0-.38.54C70.16,40.08,70.64,39.85,70.83,39.63Z"/><path class="cls-4" d="M72.88,39.79a.68.68,0,0,0-.5,0,1,1,0,0,0-.67.51c-.12.52.79.15,1,.08S73.31,39.94,72.88,39.79Z"/><path class="cls-4" d="M74.41,40.19c-.15.05-.3.17-.3.29s.52.18.67.11C75.34,40.33,74.61,40.08,74.41,40.19Z"/><path class="cls-4" d="M78,37.31a.27.27,0,0,0-.25.1.69.69,0,0,0,1.05,0A.59.59,0,0,0,78,37.31Z"/><path class="cls-4" d="M76.52,38.65c.31.11,1.16.17,1.23-.27a.72.72,0,0,0-.68-.08C76.8,38.29,76.52,38.38,76.52,38.65Z"/><path class="cls-4" d="M77.13,36.35a.44.44,0,0,0-.62-.06.34.34,0,0,0-.15.18A.59.59,0,0,0,77.13,36.35Z"/><path class="cls-4" d="M79.44,38.18c-.63,0,.18.81.53.56S79.69,38,79.44,38.18Z"/><path class="cls-4" d="M70.51,40.77c-.19-.15-.36,0-.47.18-.42.27-.92.91-.52,1.07S70.5,41.12,70.51,40.77Z"/><path class="cls-4" d="M69.36,40c-.54.11-.29,1,.23.39C69.91,40,69.58,39.84,69.36,40Z"/><path class="cls-4" d="M72.43,41.6a.28.28,0,0,0-.2.25c.2.14.74.16.87-.11S72.61,41.29,72.43,41.6Z"/><path class="cls-4" d="M77.22,40.12l0,0a.52.52,0,0,0,0,.11c0,.05,0,.1,0,.12.12.29.74.3.62-.07S77.37,40,77.22,40.12Z"/><path class="cls-4" d="M82.78,39.34c-.37-.5-1.12,0-.65.16C82.41,39.7,83.14,39.83,82.78,39.34Z"/><path class="cls-4" d="M69.83,44.13l.08-.14a.89.89,0,0,0-.4.64c.21.06.85-.37.83-.65S70,43.86,69.83,44.13Z"/><path class="cls-4" d="M75.51,42.71a.16.16,0,0,0,.21,0c.26,0,.74,0,.54-.32S75.58,42.49,75.51,42.71Z"/><path class="cls-4" d="M67.67,42.43a.4.4,0,0,0,0,.22c.32.11,1.13,0,.86-.51S67.76,42.05,67.67,42.43Z"/><path class="cls-4" d="M68.79,41.07h0a.27.27,0,0,0-.33.27.41.41,0,0,0,.56-.22A.34.34,0,0,0,68.79,41.07Z"/><path class="cls-5" d="M69.84,52.39c-1.18.86,4.8,5.19,8.69,5a11.43,11.43,0,0,0,9.4-6c1-2.14.67-8.23-.62-7.8-.46.15.11,2.21-1.78,5.34-1.65,2.75-4.47,5.45-8.21,5.27C72.2,54,70.61,51.82,69.84,52.39Z"/><path class="cls-6" d="M82.66,37.33a.55.55,0,0,0-.49.83c.33.8,2.27,2.1,2.83,1.88s.59-.87-.23-1.49A4.66,4.66,0,0,0,82.66,37.33Z"/><path class="cls-6" d="M83.67,38.4s2.26-2.34,2.91-3.22A41.89,41.89,0,0,0,88.72,31a.55.55,0,0,1,.48-.24c.27.05.19.47.19.47s-1.57,3.22-2.21,4.11c-1.3,1.81-3,3.78-3,3.78Z"/><path class="cls-6" d="M87.62,34c-.14,0-3.74-.47-3.74-.47l-.13.21L85.6,34l1.85.3Z"/><path class="cls-6" d="M79.84,38.2c-3.85,1-9.55-1.77-9.55-1.77S74.1,32,77.36,31.66s8.93,2.27,8.93,2.27A13.5,13.5,0,0,1,79.84,38.2Z"/><path class="cls-7" d="M82.69,37.57a.8.8,0,0,0-.08.79A4,4,0,0,0,84,39.47l.09-.7s-.3-.21-.33-.38a.39.39,0,0,1,0-.27Z"/><path class="cls-7" d="M85,34a30.09,30.09,0,0,0-6.46.07c-3,.43-7.52,1.86-7.46,2.06s4.94-1.64,7.36-1.8,6.74,0,6.74,0Z"/><path class="cls-7" d="M83.51,34.13a3.32,3.32,0,0,1-.62,1.18A8.56,8.56,0,0,0,81.8,37a10.76,10.76,0,0,0,1.26-1.56c.35-.53.81-1.27.81-1.27Z"/><path class="cls-7" d="M80.52,34.16a5.29,5.29,0,0,1-.66,1.91c-.67,1.36-.93,1.76-.77,1.79s.66-1,1-1.75.85-2,.85-2Z"/><path class="cls-7" d="M77.6,34.43a3.63,3.63,0,0,1-.23,1.42c-.3,1-.66,1.58-.52,1.64s.48-.86.68-1.58.5-1.63.5-1.63Z"/><path class="cls-7" d="M74.47,35.17a2.36,2.36,0,0,1-.16.84c-.19.52-.48,1-.39,1a1.83,1.83,0,0,0,.53-.91l.28-1Z"/><path class="cls-7" d="M83.87,34.05A4.43,4.43,0,0,0,82.74,33a3.53,3.53,0,0,0-1.46-.6c-.08.07.83.33,1.15.54a12.62,12.62,0,0,1,1.19,1.14Z"/><path class="cls-7" d="M80.79,34a2.91,2.91,0,0,0-.92-1.22,4.44,4.44,0,0,0-2.06-.8c-.19.06,1.5.49,1.88.86a4.36,4.36,0,0,1,.7,1.21Z"/><path class="cls-7" d="M78,34.28a6.6,6.6,0,0,0-1.38-1.09A5.66,5.66,0,0,0,75,32.77c-.2,0,1.27.33,1.68.62a9.48,9.48,0,0,1,1,1Z"/><path class="cls-7" d="M74.46,35.09s0-.25-.73-.5-1.07-.43-.92-.43a4.16,4.16,0,0,1,.91.24,5.61,5.61,0,0,1,1.07.6Z"/><path class="cls-3" d="M90.13,48.76c3,2.19,6.91,9.14,2.29,14.85S81.05,69.66,76,66.3a11.47,11.47,0,0,1-1.42-18.13C79.67,43.28,85.62,45.44,90.13,48.76Z"/><path class="cls-4" d="M77.64,47.94h0Z"/><path class="cls-4" d="M78.33,48.66c.35-.17.74-.53.41-.84s-.77,0-1.09.12C77.22,48.34,77.4,49.12,78.33,48.66Z"/><path class="cls-4" d="M77.65,47.94l.54-.21A.83.83,0,0,0,77.65,47.94Z"/><path class="cls-4" d="M76.7,49.47c.13-.1.31-.3.14-.44a.23.23,0,0,0-.34.07.48.48,0,0,0-.22.29C76.26,49.68,76.56,49.57,76.7,49.47Z"/><path class="cls-4" d="M79,49.29a.29.29,0,0,0-.32,0c-.16,0-.35.08-.39.21a.11.11,0,0,0,0,.08l0,0,0,0c0,.15.38,0,.5,0S79.25,49.43,79,49.29Z"/><path class="cls-4" d="M78.22,49.62h0Z"/><path class="cls-4" d="M79.72,48.5c-.15,0-.32.21-.23.36s.44.09.56,0C80.55,48.6,79.9,48.39,79.72,48.5Z"/><path class="cls-4" d="M80.35,47.58c-.11,0-.3-.07-.38,0a.14.14,0,0,0,0,.17c0,.11.18.2.25.24s.92.32,1,.06S80.53,47.6,80.35,47.58Z"/><path class="cls-4" d="M79.51,47.06c.16.08.72.06.78-.16s-.31-.28-.45-.26a.58.58,0,0,0-.25.14C79.45,46.85,79.33,47,79.51,47.06Z"/><path class="cls-4" d="M76.8,48.38c.29-.21,0-.33-.22-.29h0c-.13,0-.46.14-.37.32S76.69,48.47,76.8,48.38Z"/><path class="cls-4" d="M75.58,49.77c.11-.13.44-.67.06-.69a.23.23,0,0,0-.2.1,1.06,1.06,0,0,0-.38.53C74.91,50.21,75.39,50,75.58,49.77Z"/><path class="cls-4" d="M77.63,49.92a.74.74,0,0,0-.5,0,1,1,0,0,0-.67.52c-.13.51.78.14,1,.07S78.05,50.08,77.63,49.92Z"/><path class="cls-4" d="M79.15,50.33c-.14.05-.3.17-.3.29s.53.18.67.11C80.08,50.47,79.35,50.21,79.15,50.33Z"/><path class="cls-4" d="M82.74,47.45a.23.23,0,0,0-.25.1.68.68,0,0,0,1,0A.58.58,0,0,0,82.74,47.45Z"/><path class="cls-4" d="M81.26,48.79c.32.11,1.17.16,1.23-.28a.75.75,0,0,0-.68-.08C81.55,48.42,81.27,48.51,81.26,48.79Z"/><path class="cls-4" d="M81.88,46.49a.46.46,0,0,0-.63-.07.32.32,0,0,0-.15.19A.62.62,0,0,0,81.88,46.49Z"/><path class="cls-4" d="M84.19,48.32c-.63,0,.18.8.53.55S84.44,48.15,84.19,48.32Z"/><path class="cls-4" d="M75.26,50.91c-.2-.16-.36,0-.47.18-.42.27-.93.9-.53,1.06S75.24,51.25,75.26,50.91Z"/><path class="cls-4" d="M74.1,50.08c-.54.11-.28,1,.23.39C74.65,50.09,74.32,50,74.1,50.08Z"/><path class="cls-4" d="M77.17,51.73A.3.3,0,0,0,77,52c.2.15.74.16.87-.11S77.35,51.42,77.17,51.73Z"/><path class="cls-4" d="M82,50.26l0,0a.61.61,0,0,0,0,.11s0,.1,0,.12c.11.29.73.3.61-.07S82.11,50.11,82,50.26Z"/><path class="cls-4" d="M87.53,49.47c-.37-.5-1.12,0-.65.16C87.16,49.83,87.88,50,87.53,49.47Z"/><path class="cls-4" d="M74.58,54.26l.07-.13a.93.93,0,0,0-.4.63c.22.06.85-.37.84-.65S74.76,54,74.58,54.26Z"/><path class="cls-4" d="M80.25,52.84c.08.09.14.09.21,0,.27,0,.75,0,.54-.31S80.32,52.62,80.25,52.84Z"/><path class="cls-4" d="M72.42,52.56a.54.54,0,0,0,0,.22c.32.11,1.14,0,.87-.51S72.51,52.19,72.42,52.56Z"/><path class="cls-4" d="M73.53,51.2h0c-.19,0-.32.07-.33.27a.39.39,0,1,0,.32-.26Z"/><path class="cls-5" d="M74.58,62.52c-1.17.86,4.81,5.19,8.69,5a11.41,11.41,0,0,0,9.4-6c1-2.15.67-8.23-.61-7.81-.46.15.1,2.22-1.78,5.35-1.66,2.74-4.48,5.45-8.22,5.26C77,64.12,75.36,62,74.58,62.52Z"/><path class="cls-6" d="M87.41,47.46a.55.55,0,0,0-.49.84c.32.8,2.27,2.1,2.83,1.88s.59-.87-.23-1.5A4.76,4.76,0,0,0,87.41,47.46Z"/><path class="cls-6" d="M88.42,48.53s2.26-2.34,2.9-3.22a40.43,40.43,0,0,0,2.15-4.22s.19-.3.47-.25.2.47.2.47-1.58,3.23-2.22,4.12c-1.3,1.8-3,3.77-3,3.77Z"/><path class="cls-6" d="M92.36,44.12l-3.73-.47-.13.22,1.85.3,1.85.3Z"/><path class="cls-6" d="M84.59,48.33c-3.85,1-9.55-1.77-9.55-1.77s3.8-4.43,7.07-4.77S91,44.06,91,44.06A13.56,13.56,0,0,1,84.59,48.33Z"/><path class="cls-7" d="M87.44,47.7a.82.82,0,0,0-.09.79,4.09,4.09,0,0,0,1.4,1.11l.09-.7s-.3-.21-.33-.38a.39.39,0,0,1,0-.27Z"/><path class="cls-7" d="M89.78,44.16a30.51,30.51,0,0,0-6.46.06c-3,.43-7.52,1.86-7.46,2.07s4.94-1.64,7.36-1.8,6.73,0,6.73,0Z"/><path class="cls-7" d="M88.26,44.27a3.28,3.28,0,0,1-.63,1.17,8.7,8.7,0,0,0-1.08,1.69,9.93,9.93,0,0,0,1.25-1.57c.36-.53.82-1.27.82-1.27Z"/><path class="cls-7" d="M85.26,44.29a5.29,5.29,0,0,1-.66,1.91c-.66,1.36-.93,1.76-.76,1.79s.65-1,1-1.74.85-2,.85-2Z"/><path class="cls-7" d="M82.35,44.57A3.93,3.93,0,0,1,82.12,46c-.3,1-.66,1.57-.53,1.64s.49-.87.69-1.59.5-1.63.5-1.63Z"/><path class="cls-7" d="M79.21,45.31a2.39,2.39,0,0,1-.16.84c-.18.51-.47,1-.39,1a1.84,1.84,0,0,0,.54-.92l.28-1Z"/><path class="cls-7" d="M88.62,44.19a4.32,4.32,0,0,0-1.14-1.09A3.44,3.44,0,0,0,86,42.51c-.08.07.83.32,1.15.53a12.23,12.23,0,0,1,1.18,1.14Z"/><path class="cls-7" d="M85.53,44.1a2.81,2.81,0,0,0-.92-1.23,4.57,4.57,0,0,0-2-.8c-.2.06,1.5.49,1.88.87a4.1,4.1,0,0,1,.69,1.2Z"/><path class="cls-7" d="M82.78,44.41a6.75,6.75,0,0,0-1.39-1.09,5.58,5.58,0,0,0-1.66-.42c-.19,0,1.28.33,1.69.62a9.06,9.06,0,0,1,1,1Z"/><path class="cls-7" d="M79.21,45.22s0-.24-.74-.5-1.06-.43-.91-.43a5.09,5.09,0,0,1,.91.24,5.46,5.46,0,0,1,1.07.61Z"/><path class="cls-3" d="M70.38,49.31c3,2.2,6.91,9.14,2.29,14.86s-11.37,6-16.47,2.69a11.49,11.49,0,0,1-1.42-18.13C59.92,43.83,65.88,46,70.38,49.31Z"/><path class="cls-4" d="M57.89,48.5h0Z"/><path class="cls-4" d="M58.58,49.22c.35-.17.75-.53.42-.85s-.78.05-1.1.13C57.47,48.89,57.65,49.67,58.58,49.22Z"/><path class="cls-4" d="M57.91,48.49l.53-.21A.83.83,0,0,0,57.91,48.49Z"/><path class="cls-4" d="M57,50c.13-.09.31-.29.14-.44a.23.23,0,0,0-.34.08.41.41,0,0,0-.21.28C56.51,50.24,56.81,50.12,57,50Z"/><path class="cls-4" d="M59.24,49.84a.35.35,0,0,0-.33,0c-.16,0-.35.09-.39.21a.14.14,0,0,0,0,.09l-.05,0,.05,0c0,.14.38,0,.51,0S59.51,50,59.24,49.84Z"/><path class="cls-4" d="M58.47,50.18h0Z"/><path class="cls-4" d="M60,49.06c-.15,0-.32.21-.23.36s.44.09.56,0C60.81,49.16,60.16,49,60,49.06Z"/><path class="cls-4" d="M60.6,48.14c-.11,0-.29-.07-.37,0a.15.15,0,0,0,0,.18c0,.11.18.2.25.23s.92.33,1,.07S60.79,48.16,60.6,48.14Z"/><path class="cls-4" d="M59.77,47.62c.15.08.71.06.77-.17s-.31-.27-.45-.25a.48.48,0,0,0-.24.13C59.7,47.41,59.59,47.52,59.77,47.62Z"/><path class="cls-4" d="M57.05,48.94c.29-.22,0-.34-.22-.29h0c-.14,0-.47.15-.38.33S56.94,49,57.05,48.94Z"/><path class="cls-4" d="M55.83,50.32c.11-.12.44-.67.06-.69a.3.3,0,0,0-.2.1,1.1,1.1,0,0,0-.38.54C55.16,50.77,55.64,50.54,55.83,50.32Z"/><path class="cls-4" d="M57.88,50.48a.68.68,0,0,0-.5,0,1,1,0,0,0-.67.51c-.12.52.79.15,1,.08S58.3,50.63,57.88,50.48Z"/><path class="cls-4" d="M59.41,50.88c-.15,0-.31.17-.3.29s.52.18.67.11C60.34,51,59.6,50.77,59.41,50.88Z"/><path class="cls-4" d="M63,48a.25.25,0,0,0-.25.1.69.69,0,0,0,1,0A.59.59,0,0,0,63,48Z"/><path class="cls-4" d="M61.52,49.34c.31.11,1.16.17,1.23-.27a.74.74,0,0,0-.69-.08C61.8,49,61.52,49.06,61.52,49.34Z"/><path class="cls-4" d="M62.13,47a.44.44,0,0,0-.62-.06.27.27,0,0,0-.15.18A.59.59,0,0,0,62.13,47Z"/><path class="cls-4" d="M64.44,48.87c-.63,0,.18.81.53.55S64.69,48.71,64.44,48.87Z"/><path class="cls-4" d="M55.51,51.46c-.2-.15-.36,0-.47.18-.42.27-.92.91-.52,1.06S55.5,51.81,55.51,51.46Z"/><path class="cls-4" d="M54.36,50.64c-.55.1-.29,1,.22.39C54.9,50.65,54.58,50.52,54.36,50.64Z"/><path class="cls-4" d="M57.43,52.29a.28.28,0,0,0-.2.25c.2.14.74.16.87-.11S57.61,52,57.43,52.29Z"/><path class="cls-4" d="M62.22,50.81l0,0a.43.43,0,0,0,0,.11s0,.1,0,.12c.12.29.73.3.62-.07S62.37,50.67,62.22,50.81Z"/><path class="cls-4" d="M67.78,50c-.37-.5-1.12,0-.65.16C67.41,50.39,68.14,50.52,67.78,50Z"/><path class="cls-4" d="M54.83,54.82l.07-.14a1,1,0,0,0-.4.64c.22.06.86-.37.84-.65S55,54.55,54.83,54.82Z"/><path class="cls-4" d="M60.51,53.4a.15.15,0,0,0,.21.05c.26,0,.74,0,.54-.32S60.58,53.18,60.51,53.4Z"/><path class="cls-4" d="M52.67,53.12a.4.4,0,0,0,0,.22c.32.11,1.13,0,.86-.51S52.76,52.74,52.67,53.12Z"/><path class="cls-4" d="M53.78,51.76h0a.27.27,0,0,0-.33.26A.4.4,0,0,0,54,51.8.36.36,0,0,0,53.78,51.76Z"/><path class="cls-5" d="M54.84,63.08c-1.18.86,4.8,5.19,8.68,5a11.45,11.45,0,0,0,9.41-6c1-2.14.67-8.23-.62-7.8-.46.15.1,2.21-1.78,5.34-1.65,2.75-4.48,5.45-8.21,5.27C57.2,64.68,55.61,62.51,54.84,63.08Z"/><path class="cls-6" d="M67.66,48a.54.54,0,0,0-.49.83c.32.8,2.27,2.1,2.83,1.88s.59-.87-.23-1.49A4.66,4.66,0,0,0,67.66,48Z"/><path class="cls-6" d="M68.67,49.09s2.26-2.34,2.91-3.22a41.89,41.89,0,0,0,2.14-4.23s.2-.29.47-.24.2.47.2.47S72.81,45.09,72.18,46c-1.3,1.81-3,3.78-3,3.78Z"/><path class="cls-6" d="M72.61,44.68c-.13,0-3.73-.47-3.73-.47l-.13.21,1.85.31,1.85.3Z"/><path class="cls-6" d="M64.84,48.89c-3.85,1-9.55-1.77-9.55-1.77s3.81-4.44,7.07-4.77,8.93,2.27,8.93,2.27A13.5,13.5,0,0,1,64.84,48.89Z"/><path class="cls-7" d="M67.69,48.26a.81.81,0,0,0-.09.79A4.1,4.1,0,0,0,69,50.16l.09-.7s-.3-.21-.33-.38a.39.39,0,0,1,0-.27Z"/><path class="cls-7" d="M70,44.71a30.48,30.48,0,0,0-6.46.06c-3,.44-7.52,1.87-7.46,2.07s4.94-1.64,7.36-1.8,6.74,0,6.74,0Z"/><path class="cls-7" d="M68.51,44.82A3.41,3.41,0,0,1,67.89,46a8.56,8.56,0,0,0-1.09,1.68,10.21,10.21,0,0,0,1.25-1.56c.36-.53.82-1.27.82-1.27Z"/><path class="cls-7" d="M65.52,44.85a5.23,5.23,0,0,1-.67,1.91c-.66,1.36-.92,1.76-.76,1.79s.66-1,1-1.75.85-2,.85-2Z"/><path class="cls-7" d="M62.6,45.12a3.63,3.63,0,0,1-.23,1.42c-.3,1-.66,1.58-.52,1.64s.48-.86.68-1.59S63,45,63,45Z"/><path class="cls-7" d="M59.46,45.86a2.11,2.11,0,0,1-.16.84c-.18.52-.47,1-.38,1a1.83,1.83,0,0,0,.53-.91l.28-1Z"/><path class="cls-7" d="M68.87,44.74a4.25,4.25,0,0,0-1.13-1.08,3.53,3.53,0,0,0-1.46-.6c-.08.07.83.33,1.15.54a12.23,12.23,0,0,1,1.18,1.14Z"/><path class="cls-7" d="M65.79,44.65a2.85,2.85,0,0,0-.92-1.22,4.48,4.48,0,0,0-2.06-.8c-.19.06,1.5.49,1.88.86a4.23,4.23,0,0,1,.69,1.21Z"/><path class="cls-7" d="M63,45a6.6,6.6,0,0,0-1.38-1.09A5.66,5.66,0,0,0,60,43.46c-.2,0,1.27.32,1.68.62a9.48,9.48,0,0,1,1,1Z"/><path class="cls-7" d="M59.46,45.78s-.05-.25-.73-.5-1.07-.43-.92-.43a4.57,4.57,0,0,1,.91.23,6.06,6.06,0,0,1,1.07.61Z"/><path class="cls-3" d="M51.47,31.51c3,2.2,6.91,9.14,2.29,14.86s-11.38,6.05-16.47,2.69a11.47,11.47,0,0,1-1.42-18.13C41,26,47,28.2,51.47,31.51Z"/><path class="cls-4" d="M39,30.7h0Z"/><path class="cls-4" d="M39.67,31.42c.35-.17.74-.53.41-.85s-.77.05-1.09.12C38.56,31.09,38.74,31.87,39.67,31.42Z"/><path class="cls-4" d="M39,30.69l.54-.21A.88.88,0,0,0,39,30.69Z"/><path class="cls-4" d="M38,32.22c.13-.09.31-.29.14-.44a.23.23,0,0,0-.34.08.41.41,0,0,0-.22.28C37.6,32.44,37.9,32.32,38,32.22Z"/><path class="cls-4" d="M40.32,32a.33.33,0,0,0-.32,0c-.16,0-.35.09-.39.21a.14.14,0,0,0,0,.09l0,0,0,0c0,.14.38,0,.5,0S40.59,32.19,40.32,32Z"/><path class="cls-4" d="M39.56,32.38h0Z"/><path class="cls-4" d="M41.06,31.26c-.15,0-.32.21-.23.36s.44.09.56,0C41.89,31.36,41.24,31.15,41.06,31.26Z"/><path class="cls-4" d="M41.68,30.33c-.1,0-.29-.06-.37,0a.15.15,0,0,0,0,.18c0,.1.18.2.25.23s.92.33,1,.07S41.87,30.36,41.68,30.33Z"/><path class="cls-4" d="M40.85,29.82c.16.08.72.06.78-.17s-.31-.27-.45-.25a.55.55,0,0,0-.25.13C40.78,29.61,40.67,29.72,40.85,29.82Z"/><path class="cls-4" d="M38.14,31.14c.29-.22,0-.34-.22-.29h0c-.13,0-.46.15-.37.33S38,31.22,38.14,31.14Z"/><path class="cls-4" d="M36.92,32.52c.11-.12.44-.67.06-.69a.3.3,0,0,0-.2.1,1,1,0,0,0-.38.54C36.25,33,36.73,32.74,36.92,32.52Z"/><path class="cls-4" d="M39,32.68a.68.68,0,0,0-.5,0,1,1,0,0,0-.67.51c-.13.52.78.15,1,.08S39.39,32.83,39,32.68Z"/><path class="cls-4" d="M40.49,33.08c-.14.05-.3.17-.3.29s.53.18.67.11C41.42,33.22,40.69,33,40.49,33.08Z"/><path class="cls-4" d="M44.08,30.2a.25.25,0,0,0-.25.1.68.68,0,0,0,1,0A.57.57,0,0,0,44.08,30.2Z"/><path class="cls-4" d="M42.6,31.54c.32.11,1.17.17,1.23-.27a.72.72,0,0,0-.68-.08C42.89,31.17,42.61,31.26,42.6,31.54Z"/><path class="cls-4" d="M43.22,29.24a.46.46,0,0,0-.63-.06.3.3,0,0,0-.15.18A.6.6,0,0,0,43.22,29.24Z"/><path class="cls-4" d="M45.53,31.07c-.63,0,.18.81.53.55S45.78,30.91,45.53,31.07Z"/><path class="cls-4" d="M36.6,33.66c-.2-.15-.36,0-.47.18-.42.27-.93.91-.53,1.06S36.58,34,36.6,33.66Z"/><path class="cls-4" d="M35.44,32.84c-.54.1-.28,1,.23.39C36,32.85,35.66,32.72,35.44,32.84Z"/><path class="cls-4" d="M38.51,34.49a.29.29,0,0,0-.19.25c.2.14.74.16.87-.11S38.69,34.18,38.51,34.49Z"/><path class="cls-4" d="M43.31,33l0,0a.45.45,0,0,0,0,.11c0,.05,0,.1,0,.11.11.3.73.31.61-.06S43.45,32.87,43.31,33Z"/><path class="cls-4" d="M48.87,32.23c-.37-.5-1.12,0-.65.16C48.5,32.59,49.22,32.72,48.87,32.23Z"/><path class="cls-4" d="M35.92,37l.07-.14a1,1,0,0,0-.4.64c.22,0,.85-.37.84-.65S36.1,36.75,35.92,37Z"/><path class="cls-4" d="M41.59,35.6a.16.16,0,0,0,.21,0c.27,0,.75,0,.54-.32S41.66,35.38,41.59,35.6Z"/><path class="cls-4" d="M33.76,35.32a.51.51,0,0,0,0,.22c.32.11,1.14,0,.87-.51S33.85,34.94,33.76,35.32Z"/><path class="cls-4" d="M34.87,34h0a.26.26,0,0,0-.33.26A.39.39,0,0,0,35.1,34,.33.33,0,0,0,34.87,34Z"/><path class="cls-5" d="M35.92,45.28c-1.17.86,4.81,5.19,8.69,5a11.42,11.42,0,0,0,9.4-6c1-2.14.67-8.23-.61-7.8-.46.15.1,2.21-1.78,5.34-1.66,2.75-4.48,5.45-8.22,5.27C38.29,46.87,36.7,44.71,35.92,45.28Z"/><path class="cls-6" d="M48.75,30.22a.54.54,0,0,0-.49.83c.32.8,2.27,2.1,2.83,1.88s.59-.87-.23-1.49A4.66,4.66,0,0,0,48.75,30.22Z"/><path class="cls-6" d="M49.76,31.29S52,29,52.66,28.07a39.83,39.83,0,0,0,2.14-4.23.55.55,0,0,1,.48-.24c.28,0,.2.47.2.47s-1.58,3.22-2.22,4.11C52,30,50.25,32,50.25,32Z"/><path class="cls-6" d="M53.7,26.88c-.14,0-3.73-.47-3.73-.47l-.14.21,1.86.31,1.85.3Z"/><path class="cls-6" d="M45.93,31.08c-3.85,1-9.55-1.76-9.55-1.76s3.8-4.44,7.07-4.77,8.93,2.27,8.93,2.27A13.5,13.5,0,0,1,45.93,31.08Z"/><path class="cls-7" d="M48.78,30.45a.82.82,0,0,0-.09.79,4,4,0,0,0,1.4,1.12l.09-.7s-.3-.21-.33-.39a.41.41,0,0,1,0-.27Z"/><path class="cls-7" d="M51.12,26.91a30.51,30.51,0,0,0-6.46.06c-3,.44-7.52,1.87-7.46,2.07s4.94-1.64,7.36-1.8,6.73,0,6.73,0Z"/><path class="cls-7" d="M49.6,27A3.36,3.36,0,0,1,49,28.2a8.47,8.47,0,0,0-1.08,1.68,10.21,10.21,0,0,0,1.25-1.56c.36-.53.82-1.27.82-1.27Z"/><path class="cls-7" d="M46.6,27.05A5.29,5.29,0,0,1,45.94,29c-.66,1.36-.93,1.76-.76,1.79s.65-1,1-1.75S47,27,47,27Z"/><path class="cls-7" d="M43.68,27.32a3.7,3.7,0,0,1-.22,1.42c-.3,1-.66,1.58-.53,1.64s.49-.86.69-1.59.5-1.62.5-1.62Z"/><path class="cls-7" d="M40.55,28.06a2.36,2.36,0,0,1-.16.84c-.18.52-.47,1-.39,1a1.75,1.75,0,0,0,.54-.91l.28-1Z"/><path class="cls-7" d="M50,26.94a4.07,4.07,0,0,0-1.13-1.08,3.51,3.51,0,0,0-1.45-.6c-.08.07.83.33,1.15.54a12.23,12.23,0,0,1,1.18,1.14Z"/><path class="cls-7" d="M46.87,26.85A2.75,2.75,0,0,0,46,25.63a4.45,4.45,0,0,0-2.05-.8c-.2.06,1.5.49,1.88.86a4.23,4.23,0,0,1,.69,1.21Z"/><path class="cls-7" d="M44.12,27.17a6.75,6.75,0,0,0-1.39-1.09,5.58,5.58,0,0,0-1.66-.42c-.19,0,1.28.32,1.69.61a9.8,9.8,0,0,1,1,1Z"/><path class="cls-7" d="M40.55,28s0-.25-.74-.5-1.06-.43-.91-.43a4.75,4.75,0,0,1,.91.23,6.06,6.06,0,0,1,1.07.61Z"/><path class="cls-3" d="M25,47.21c-3,2.19-6.92,9.14-2.29,14.85s11.37,6,16.46,2.7a11.49,11.49,0,0,0,1.43-18.14C35.44,41.73,29.49,43.89,25,47.21Z"/><path class="cls-4" d="M37.48,46.39h0Z"/><path class="cls-4" d="M36.78,47.11c-.35-.17-.74-.53-.41-.84s.78,0,1.09.12C37.9,46.79,37.71,47.57,36.78,47.11Z"/><path class="cls-4" d="M37.46,46.39l-.53-.21A.82.82,0,0,1,37.46,46.39Z"/><path class="cls-4" d="M38.41,47.92c-.13-.1-.31-.3-.13-.44a.22.22,0,0,1,.33.07.44.44,0,0,1,.22.29C38.86,48.13,38.55,48,38.41,47.92Z"/><path class="cls-4" d="M36.13,47.74a.3.3,0,0,1,.33,0c.15,0,.35.08.38.21a.25.25,0,0,1,0,.08l0,0,0,0c-.05.15-.39,0-.51,0S35.86,47.88,36.13,47.74Z"/><path class="cls-4" d="M36.89,48.07h0Z"/><path class="cls-4" d="M35.39,47c.15,0,.32.22.24.36s-.44.09-.57,0C34.56,47.05,35.21,46.84,35.39,47Z"/><path class="cls-4" d="M34.77,46c.1,0,.29-.06.37,0a.12.12,0,0,1,0,.17c0,.11-.18.2-.25.24s-.91.32-1,.06S34.58,46.05,34.77,46Z"/><path class="cls-4" d="M35.6,45.51c-.16.08-.72.06-.77-.16s.3-.28.45-.26a.61.61,0,0,1,.24.14C35.67,45.3,35.78,45.41,35.6,45.51Z"/><path class="cls-4" d="M38.31,46.83c-.29-.21,0-.33.23-.29h0c.13,0,.46.14.37.32S38.43,46.92,38.31,46.83Z"/><path class="cls-4" d="M39.53,48.22c-.1-.13-.44-.67-.05-.69a.23.23,0,0,1,.19.1,1.15,1.15,0,0,1,.39.53C40.2,48.66,39.72,48.43,39.53,48.22Z"/><path class="cls-4" d="M37.48,48.37a.76.76,0,0,1,.51,0,1,1,0,0,1,.66.52c.13.51-.78.14-1,.07S37.06,48.53,37.48,48.37Z"/><path class="cls-4" d="M36,48.78c.14,0,.3.17.3.29s-.52.18-.67.11C35,48.92,35.76,48.66,36,48.78Z"/><path class="cls-4" d="M32.37,45.9a.23.23,0,0,1,.25.1.69.69,0,0,1-1,0A.57.57,0,0,1,32.37,45.9Z"/><path class="cls-4" d="M33.85,47.24c-.31.11-1.16.16-1.23-.28a.75.75,0,0,1,.68-.08C33.57,46.87,33.85,47,33.85,47.24Z"/><path class="cls-4" d="M33.24,44.94a.44.44,0,0,1,.62-.07.32.32,0,0,1,.15.19A.61.61,0,0,1,33.24,44.94Z"/><path class="cls-4" d="M30.93,46.77c.62,0-.19.8-.53.55S30.68,46.6,30.93,46.77Z"/><path class="cls-4" d="M39.86,49.36c.19-.16.36,0,.47.18.42.27.92.9.52,1.06S39.87,49.71,39.86,49.36Z"/><path class="cls-4" d="M41,48.53c.54.11.28,1-.23.39C40.46,48.54,40.79,48.42,41,48.53Z"/><path class="cls-4" d="M37.94,50.19a.28.28,0,0,1,.2.24c-.21.15-.74.16-.88-.11S37.76,49.87,37.94,50.19Z"/><path class="cls-4" d="M33.14,48.71l0-.05a.26.26,0,0,1,0,.11c0,.06,0,.1,0,.12-.11.29-.73.3-.61-.07S33,48.56,33.14,48.71Z"/><path class="cls-4" d="M27.59,47.92c.36-.5,1.12,0,.64.16C28,48.28,27.23,48.42,27.59,47.92Z"/><path class="cls-4" d="M40.54,52.71l-.08-.13a.9.9,0,0,1,.4.63c-.21.06-.85-.36-.83-.65S40.35,52.44,40.54,52.71Z"/><path class="cls-4" d="M34.86,51.29c-.08.09-.14.09-.21.05-.26,0-.74,0-.54-.31S34.79,51.07,34.86,51.29Z"/><path class="cls-4" d="M42.7,51a.53.53,0,0,1,0,.22c-.32.11-1.14,0-.87-.51S42.6,50.64,42.7,51Z"/><path class="cls-4" d="M41.58,49.65h0c.19,0,.31.07.32.27a.39.39,0,0,1-.55-.22A.41.41,0,0,1,41.58,49.65Z"/><path class="cls-5" d="M40.53,61c1.17.86-4.8,5.2-8.69,5a11.44,11.44,0,0,1-9.4-6c-1-2.15-.67-8.23.62-7.81.45.15-.11,2.22,1.78,5.35,1.65,2.74,4.47,5.45,8.21,5.26C38.16,62.57,39.75,60.4,40.53,61Z"/><path class="cls-6" d="M27.71,45.91a.55.55,0,0,1,.48.84c-.32.8-2.27,2.1-2.83,1.88s-.58-.87.23-1.5A4.83,4.83,0,0,1,27.71,45.91Z"/><path class="cls-6" d="M26.69,47s-2.26-2.34-2.9-3.22a39.9,39.9,0,0,1-2.14-4.22s-.2-.3-.48-.25-.2.47-.2.47,1.58,3.23,2.22,4.12c1.3,1.8,3,3.77,3,3.77Z"/><path class="cls-6" d="M22.75,42.57l3.73-.47.14.22-1.86.3-1.85.31Z"/><path class="cls-6" d="M30.52,46.78c3.86,1,9.55-1.77,9.55-1.77s-3.8-4.43-7.06-4.77-8.93,2.27-8.93,2.27A13.43,13.43,0,0,0,30.52,46.78Z"/><path class="cls-7" d="M27.68,46.15a.8.8,0,0,1,.08.79,4.16,4.16,0,0,1-1.4,1.12l-.09-.71s.3-.2.33-.38a.39.39,0,0,0,0-.27Z"/><path class="cls-7" d="M25.34,42.61a30.48,30.48,0,0,1,6.46.06c3,.43,7.51,1.86,7.46,2.07s-4.95-1.64-7.37-1.8-6.73,0-6.73,0Z"/><path class="cls-7" d="M26.85,42.72a3.28,3.28,0,0,0,.63,1.17,8.17,8.17,0,0,1,1.08,1.69A10.55,10.55,0,0,1,27.31,44c-.35-.53-.81-1.27-.81-1.27Z"/><path class="cls-7" d="M29.85,42.74a5.29,5.29,0,0,0,.66,1.92c.66,1.36.93,1.75.77,1.78s-.66-1-1-1.74-.85-2-.85-2Z"/><path class="cls-7" d="M32.77,43A3.65,3.65,0,0,0,33,44.44c.29,1,.66,1.57.52,1.64s-.48-.87-.68-1.59-.5-1.63-.5-1.63Z"/><path class="cls-7" d="M35.9,43.76a2.39,2.39,0,0,0,.16.84c.19.51.47,1,.39,1a1.84,1.84,0,0,1-.54-.92c-.13-.46-.27-1-.27-1Z"/><path class="cls-7" d="M26.5,42.64a4.38,4.38,0,0,1,1.13-1.09A3.41,3.41,0,0,1,29.09,41c.07.07-.83.32-1.15.53a12.62,12.62,0,0,0-1.19,1.14Z"/><path class="cls-7" d="M29.58,42.55a2.91,2.91,0,0,1,.92-1.23,4.56,4.56,0,0,1,2.06-.8c.19.06-1.51.49-1.89.87a4.1,4.1,0,0,0-.69,1.2Z"/><path class="cls-7" d="M32.34,42.86a6.6,6.6,0,0,1,1.38-1.09,6.29,6.29,0,0,1,1.66-.42c.2,0-1.27.33-1.69.62a9.06,9.06,0,0,0-1,1Z"/><path class="cls-7" d="M35.91,43.67s.05-.24.73-.5,1.06-.43.92-.43a4.69,4.69,0,0,0-.91.24,5.66,5.66,0,0,0-1.08.61Z"/><path class="cls-3" d="M54,49.31c3,2.2,6.91,9.14,2.29,14.86s-11.37,6-16.47,2.69a11.49,11.49,0,0,1-1.42-18.13C43.51,43.83,49.47,46,54,49.31Z"/><path class="cls-4" d="M41.48,48.5h0Z"/><path class="cls-4" d="M42.17,49.22c.35-.17.75-.53.42-.85s-.78.05-1.1.13C41.06,48.89,41.24,49.67,42.17,49.22Z"/><path class="cls-4" d="M41.5,48.49l.53-.21A.83.83,0,0,0,41.5,48.49Z"/><path class="cls-4" d="M40.54,50c.13-.09.31-.29.14-.44a.23.23,0,0,0-.34.08.41.41,0,0,0-.21.28C40.1,50.24,40.41,50.12,40.54,50Z"/><path class="cls-4" d="M42.83,49.84a.35.35,0,0,0-.33,0c-.16,0-.35.09-.39.21a.14.14,0,0,0,0,.09l0,0,0,0c0,.14.38,0,.51,0S43.1,50,42.83,49.84Z"/><path class="cls-4" d="M42.06,50.18h0Z"/><path class="cls-4" d="M43.56,49.06c-.15,0-.32.21-.23.36s.44.09.56,0C44.4,49.16,43.75,49,43.56,49.06Z"/><path class="cls-4" d="M44.19,48.14c-.1,0-.29-.07-.37,0a.15.15,0,0,0,0,.18c0,.11.18.2.25.23s.92.33,1,.07S44.38,48.16,44.19,48.14Z"/><path class="cls-4" d="M43.36,47.62c.15.08.71.06.77-.17s-.31-.27-.45-.25a.48.48,0,0,0-.24.13C43.29,47.41,43.18,47.52,43.36,47.62Z"/><path class="cls-4" d="M40.64,48.94c.29-.22,0-.34-.22-.29h0c-.14,0-.47.15-.38.33S40.53,49,40.64,48.94Z"/><path class="cls-4" d="M39.42,50.32c.11-.12.44-.67.06-.69a.3.3,0,0,0-.2.1,1.1,1.1,0,0,0-.38.54C38.75,50.77,39.23,50.54,39.42,50.32Z"/><path class="cls-4" d="M41.47,50.48a.68.68,0,0,0-.5,0,1,1,0,0,0-.67.51c-.12.52.79.15,1,.08S41.89,50.63,41.47,50.48Z"/><path class="cls-4" d="M43,50.88c-.15,0-.31.17-.3.29s.52.18.67.11C43.93,51,43.19,50.77,43,50.88Z"/><path class="cls-4" d="M46.58,48a.26.26,0,0,0-.25.1.69.69,0,0,0,1.05,0A.59.59,0,0,0,46.58,48Z"/><path class="cls-4" d="M45.11,49.34c.31.11,1.16.17,1.23-.27a.74.74,0,0,0-.69-.08C45.39,49,45.11,49.06,45.11,49.34Z"/><path class="cls-4" d="M45.72,47A.44.44,0,0,0,45.1,47a.27.27,0,0,0-.15.18A.59.59,0,0,0,45.72,47Z"/><path class="cls-4" d="M48,48.87c-.63,0,.18.81.53.55S48.28,48.71,48,48.87Z"/><path class="cls-4" d="M39.1,51.46c-.2-.15-.36,0-.47.18-.42.27-.92.91-.52,1.06S39.09,51.81,39.1,51.46Z"/><path class="cls-4" d="M38,50.64c-.55.1-.29,1,.22.39C38.49,50.65,38.17,50.52,38,50.64Z"/><path class="cls-4" d="M41,52.29a.28.28,0,0,0-.2.25c.2.14.74.16.87-.11S41.2,52,41,52.29Z"/><path class="cls-4" d="M45.81,50.81l0,0a.43.43,0,0,0,0,.11s0,.1,0,.12c.12.29.73.3.62-.07S46,50.67,45.81,50.81Z"/><path class="cls-4" d="M51.37,50c-.37-.5-1.12,0-.65.16C51,50.39,51.73,50.52,51.37,50Z"/><path class="cls-4" d="M38.42,54.82l.07-.14a.91.91,0,0,0-.39.64c.21.06.85-.37.83-.65S38.61,54.55,38.42,54.82Z"/><path class="cls-4" d="M44.1,53.4a.15.15,0,0,0,.21.05c.26,0,.74,0,.54-.32S44.17,53.18,44.1,53.4Z"/><path class="cls-4" d="M36.26,53.12a.4.4,0,0,0,0,.22c.32.11,1.13,0,.86-.51S36.35,52.74,36.26,53.12Z"/><path class="cls-4" d="M37.37,51.76h0a.27.27,0,0,0-.33.26.4.4,0,0,0,.56-.21A.36.36,0,0,0,37.37,51.76Z"/><path class="cls-5" d="M38.43,63.08c-1.18.86,4.8,5.19,8.69,5a11.45,11.45,0,0,0,9.4-6c1-2.14.67-8.23-.62-7.8-.46.15.1,2.21-1.78,5.34-1.65,2.75-4.48,5.45-8.21,5.27C40.79,64.68,39.2,62.51,38.43,63.08Z"/><path class="cls-6" d="M51.25,48a.54.54,0,0,0-.49.83c.32.8,2.27,2.1,2.83,1.88s.59-.87-.23-1.49A4.66,4.66,0,0,0,51.25,48Z"/><path class="cls-6" d="M52.26,49.09s2.26-2.34,2.91-3.22a41.89,41.89,0,0,0,2.14-4.23s.2-.29.47-.24.2.47.2.47S56.41,45.09,55.77,46c-1.3,1.81-3,3.78-3,3.78Z"/><path class="cls-6" d="M56.2,44.68c-.13,0-3.73-.47-3.73-.47l-.13.21,1.85.31L56,45Z"/><path class="cls-6" d="M48.43,48.89c-3.85,1-9.55-1.77-9.55-1.77s3.81-4.44,7.07-4.77,8.93,2.27,8.93,2.27A13.5,13.5,0,0,1,48.43,48.89Z"/><path class="cls-7" d="M51.28,48.26a.81.81,0,0,0-.09.79,4.1,4.1,0,0,0,1.41,1.11l.09-.7s-.3-.21-.33-.38a.39.39,0,0,1,0-.27Z"/><path class="cls-7" d="M53.62,44.71a30.48,30.48,0,0,0-6.46.06c-3,.44-7.52,1.87-7.46,2.07s4.94-1.64,7.36-1.8,6.74,0,6.74,0Z"/><path class="cls-7" d="M52.1,44.82A3.41,3.41,0,0,1,51.48,46a8.56,8.56,0,0,0-1.09,1.68,10.76,10.76,0,0,0,1.26-1.56c.35-.53.81-1.27.81-1.27Z"/><path class="cls-7" d="M49.11,44.85a5.23,5.23,0,0,1-.67,1.91c-.66,1.36-.92,1.76-.76,1.79s.66-1,1-1.75.85-2,.85-2Z"/><path class="cls-7" d="M46.19,45.12A3.63,3.63,0,0,1,46,46.54c-.3,1-.66,1.58-.52,1.64s.48-.86.68-1.59.5-1.62.5-1.62Z"/><path class="cls-7" d="M43.05,45.86a2.11,2.11,0,0,1-.16.84c-.18.52-.47,1-.38,1a1.83,1.83,0,0,0,.53-.91l.28-1Z"/><path class="cls-7" d="M52.46,44.74a4.25,4.25,0,0,0-1.13-1.08,3.53,3.53,0,0,0-1.46-.6c-.08.07.83.33,1.15.54a12.23,12.23,0,0,1,1.18,1.14Z"/><path class="cls-7" d="M49.38,44.65a2.85,2.85,0,0,0-.92-1.22,4.48,4.48,0,0,0-2.06-.8c-.19.06,1.5.49,1.88.86A4.23,4.23,0,0,1,49,44.7Z"/><path class="cls-7" d="M46.62,45a6.6,6.6,0,0,0-1.38-1.09,5.66,5.66,0,0,0-1.66-.42c-.2,0,1.27.32,1.68.62a9.48,9.48,0,0,1,1.05,1Z"/><path class="cls-7" d="M43.05,45.78s0-.25-.73-.5-1.07-.43-.92-.43a4.57,4.57,0,0,1,.91.23,6.06,6.06,0,0,1,1.07.61Z"/><path class="cls-3" d="M7.75,49c-3,2.19-6.91,9.14-2.29,14.85s11.37,6,16.47,2.7a11.5,11.5,0,0,0,1.42-18.14C18.21,43.48,12.25,45.64,7.75,49Z"/><path class="cls-4" d="M20.24,48.14h0Z"/><path class="cls-4" d="M19.55,48.86c-.35-.17-.75-.53-.42-.84s.78,0,1.1.12C20.66,48.54,20.48,49.32,19.55,48.86Z"/><path class="cls-4" d="M20.22,48.14l-.53-.21A.78.78,0,0,1,20.22,48.14Z"/><path class="cls-4" d="M21.18,49.67c-.13-.1-.31-.3-.14-.44a.23.23,0,0,1,.34.07.43.43,0,0,1,.21.29C21.62,49.88,21.32,49.77,21.18,49.67Z"/><path class="cls-4" d="M18.89,49.49a.3.3,0,0,1,.33,0c.16,0,.35.08.39.21a.11.11,0,0,1,0,.08l.05,0-.05,0c0,.15-.38,0-.51,0S18.62,49.63,18.89,49.49Z"/><path class="cls-4" d="M19.66,49.82h0Z"/><path class="cls-4" d="M18.16,48.7c.15,0,.32.21.23.36s-.44.09-.56,0C17.32,48.8,18,48.59,18.16,48.7Z"/><path class="cls-4" d="M17.53,47.78c.11,0,.29-.06.37,0a.14.14,0,0,1,0,.17c0,.11-.18.2-.25.24s-.92.32-1,.06S17.34,47.8,17.53,47.78Z"/><path class="cls-4" d="M18.36,47.26c-.15.08-.71.06-.77-.16s.31-.28.45-.26a.5.5,0,0,1,.24.14C18.43,47.05,18.54,47.16,18.36,47.26Z"/><path class="cls-4" d="M21.08,48.58c-.29-.21,0-.33.22-.29h0c.14,0,.47.14.38.32S21.19,48.67,21.08,48.58Z"/><path class="cls-4" d="M22.3,50c-.11-.13-.44-.67-.06-.69a.23.23,0,0,1,.2.1,1.12,1.12,0,0,1,.38.53C23,50.41,22.49,50.18,22.3,50Z"/><path class="cls-4" d="M20.25,50.12a.74.74,0,0,1,.5,0c.28.08.62.31.67.52.12.51-.79.14-1,.07S19.83,50.28,20.25,50.12Z"/><path class="cls-4" d="M18.72,50.53c.15,0,.31.17.3.29s-.52.18-.67.11C17.79,50.67,18.53,50.41,18.72,50.53Z"/><path class="cls-4" d="M15.14,47.65a.24.24,0,0,1,.25.1.69.69,0,0,1-1.05,0A.59.59,0,0,1,15.14,47.65Z"/><path class="cls-4" d="M16.61,49c-.31.11-1.16.16-1.23-.28a.77.77,0,0,1,.69-.08C16.33,48.62,16.61,48.71,16.61,49Z"/><path class="cls-4" d="M16,46.69a.45.45,0,0,1,.62-.07.29.29,0,0,1,.15.19A.61.61,0,0,1,16,46.69Z"/><path class="cls-4" d="M13.69,48.52c.63,0-.18.8-.53.55S13.44,48.35,13.69,48.52Z"/><path class="cls-4" d="M22.62,51.11c.2-.16.36,0,.47.18.42.27.92.9.52,1.06S22.63,51.46,22.62,51.11Z"/><path class="cls-4" d="M23.77,50.28c.55.11.29,1-.22.39C23.23,50.29,23.55,50.17,23.77,50.28Z"/><path class="cls-4" d="M20.7,51.94a.27.27,0,0,1,.2.24c-.2.15-.74.16-.87-.11S20.52,51.62,20.7,51.94Z"/><path class="cls-4" d="M15.91,50.46l0-.05a.52.52,0,0,1,0,.11c0,.06,0,.1,0,.12-.12.29-.73.3-.62-.07S15.76,50.31,15.91,50.46Z"/><path class="cls-4" d="M10.35,49.67c.37-.5,1.12,0,.65.16C10.72,50,10,50.17,10.35,49.67Z"/><path class="cls-4" d="M23.3,54.46l-.07-.13a.93.93,0,0,1,.4.63c-.22.06-.86-.36-.84-.65S23.11,54.19,23.3,54.46Z"/><path class="cls-4" d="M17.62,53c-.08.09-.13.09-.21.05-.26,0-.74,0-.54-.31S17.55,52.82,17.62,53Z"/><path class="cls-4" d="M25.46,52.76a.41.41,0,0,1,0,.22c-.32.11-1.13,0-.86-.51S25.37,52.39,25.46,52.76Z"/><path class="cls-4" d="M24.35,51.4h0a.27.27,0,0,1,.33.27.4.4,0,0,1-.56-.22A.43.43,0,0,1,24.35,51.4Z"/><path class="cls-5" d="M23.29,62.72c1.18.86-4.8,5.19-8.69,5a11.44,11.44,0,0,1-9.4-6c-1-2.15-.67-8.23.62-7.81.46.15-.1,2.22,1.78,5.35,1.65,2.74,4.48,5.45,8.21,5.26C20.93,64.32,22.52,62.15,23.29,62.72Z"/><path class="cls-6" d="M10.47,47.66a.55.55,0,0,1,.49.84c-.32.8-2.27,2.1-2.83,1.88s-.59-.87.23-1.5A4.86,4.86,0,0,1,10.47,47.66Z"/><path class="cls-6" d="M9.46,48.73S7.2,46.39,6.55,45.51a42,42,0,0,1-2.14-4.22s-.2-.3-.47-.25-.2.47-.2.47S5.31,44.74,6,45.63c1.3,1.8,3,3.77,3,3.77Z"/><path class="cls-6" d="M5.52,44.32l3.73-.47.13.22-1.85.3-1.85.31Z"/><path class="cls-6" d="M13.29,48.53c3.85,1,9.55-1.77,9.55-1.77S19,42.33,15.77,42s-8.93,2.27-8.93,2.27A13.5,13.5,0,0,0,13.29,48.53Z"/><path class="cls-7" d="M10.44,47.9a.82.82,0,0,1,.09.79,4.17,4.17,0,0,1-1.41,1.12L9,49.1s.3-.2.33-.38a.39.39,0,0,0,0-.27Z"/><path class="cls-7" d="M8.1,44.36a30.48,30.48,0,0,1,6.46.06c3,.43,7.52,1.86,7.46,2.07s-4.94-1.64-7.36-1.8-6.74,0-6.74,0Z"/><path class="cls-7" d="M9.62,44.47a3.34,3.34,0,0,0,.62,1.17,8.47,8.47,0,0,1,1.09,1.69,9.93,9.93,0,0,1-1.25-1.57c-.36-.53-.82-1.27-.82-1.27Z"/><path class="cls-7" d="M12.61,44.49a5.23,5.23,0,0,0,.67,1.92c.66,1.36.92,1.75.76,1.78s-.66-1-1-1.74-.85-2-.85-2Z"/><path class="cls-7" d="M15.53,44.77a3.65,3.65,0,0,0,.23,1.42c.3,1,.66,1.57.52,1.64s-.48-.87-.68-1.59-.5-1.63-.5-1.63Z"/><path class="cls-7" d="M18.67,45.51a2.13,2.13,0,0,0,.16.84c.18.51.47,1,.38,1a1.93,1.93,0,0,1-.53-.92l-.28-1Z"/><path class="cls-7" d="M9.26,44.39a4.38,4.38,0,0,1,1.13-1.09,3.46,3.46,0,0,1,1.46-.59c.08.07-.83.32-1.15.53a12.23,12.23,0,0,0-1.18,1.14Z"/><path class="cls-7" d="M12.34,44.3a2.91,2.91,0,0,1,.92-1.23,4.6,4.6,0,0,1,2.06-.8c.19.06-1.5.49-1.88.87a4.1,4.1,0,0,0-.69,1.2Z"/><path class="cls-7" d="M15.1,44.61a6.6,6.6,0,0,1,1.38-1.09,6.39,6.39,0,0,1,1.66-.42c.2,0-1.27.33-1.68.62a9.48,9.48,0,0,0-1.05,1Z"/><path class="cls-7" d="M18.67,45.42s0-.24.73-.5,1.07-.43.92-.43a4.88,4.88,0,0,0-.91.24,5.46,5.46,0,0,0-1.07.61Z"/><path class="cls-8" d="M8.58,64.8c1.21,4.8,4.31,16.83,6.17,21.38,2.36,5.73,1.26,8.24,9,9,6.68.67,20.45.36,26.27.21,5.82.15,19.6.46,26.28-.21,7.78-.79,6.68-3.3,9-9,1.87-4.55,5.22-18.45,6.42-23.25Z"/><path class="cls-9" d="M94.06,60.58c-.63-2.28-4.19-1.78-5.9-1.7-.58,0-1.17,0-1.75,0-2.93.06-5.85.09-8.77.13-3.31,0-42.61.84-45.88,1L22,60.33c-2.87.1-5.73.2-8.6.28-.57,0-1.15,0-1.72,0-1.68,0-5.2-.33-5.71,1.93A2.32,2.32,0,0,0,7.72,65.4a14.82,14.82,0,0,0,3.39-.1C14.38,65.1,17.67,65,21,65l9.94-.24L41,64.5c1.23,0,7.54-.08,9.09-.11l8.48-.21,10.28-.26L79,63.7c3.34-.08,6.69-.18,10-.12a15.22,15.22,0,0,0,3.44-.06A2.37,2.37,0,0,0,94.06,60.58Z"/><path class="cls-10" d="M13.09,65.15c-.84-.13-1.05-1.36-1.12-2A4.39,4.39,0,0,1,12.43,61a0,0,0,0,0-.07,0,3.25,3.25,0,0,0-.53,2.72,4,4,0,0,0,.17.63A2.62,2.62,0,0,1,12,61a.06.06,0,0,0-.09-.07,2.88,2.88,0,0,0,.52,4.14h.06a.79.79,0,0,0,.6.25C13.19,65.33,13.18,65.16,13.09,65.15Z"/><path class="cls-10" d="M13.22,65a3.39,3.39,0,0,1-.1-4,.06.06,0,0,0-.09-.08,3.08,3.08,0,0,0-.79,2.07,2.88,2.88,0,0,0,.87,2.15C13.18,65.11,13.27,65,13.22,65Z"/><path class="cls-10" d="M23.13,65a5.29,5.29,0,0,1-.8-4.76.06.06,0,1,0-.11-.05c-.69,1.46-.73,4,.77,5A.1.1,0,0,0,23.13,65Z"/><path class="cls-10" d="M24,65a5.25,5.25,0,0,1-.77-4.67s-.06-.08-.08,0a4,4,0,0,0-.39,2.44c0,.15.06.32.09.49-.07-.15-.15-.31-.21-.47a3.71,3.71,0,0,1,.11-2.46.07.07,0,0,0-.12,0c-.63,1.38-.63,3.39.7,4.4l.05,0a1.93,1.93,0,0,0,.45.49C23.9,65.23,24.05,65.1,24,65Z"/><path class="cls-10" d="M36.33,64.51a6.78,6.78,0,0,1-.93-2.28,4.29,4.29,0,0,1,.21-1.95c0-.13.2-.35.17-.51a.07.07,0,0,0-.07-.06c-.52.1-.71,1.65-.7,2.06a3.32,3.32,0,0,0,1.22,2.83C36.28,64.63,36.37,64.58,36.33,64.51Z"/><path class="cls-10" d="M37.38,64.48c-.85-1.33-1.58-3-1-4.6,0-.08-.07-.11-.11-.05-.72,1.3-.48,4,.95,4.8C37.36,64.69,37.43,64.55,37.38,64.48Z"/><path class="cls-10" d="M51,61.4c-.09-.65,0-1.25,0-1.88,0-.09-.11-.09-.14,0a4.27,4.27,0,0,0,.55,4,.07.07,0,0,0,.11-.07A11.35,11.35,0,0,1,51,61.4Z"/><path class="cls-10" d="M50.94,64.28a8.93,8.93,0,0,1-.86-4.71c0-.1-.12-.11-.14,0a6,6,0,0,0,0,2.6,4.9,4.9,0,0,0,.79,2.25A.12.12,0,0,0,50.94,64.28Z"/><path class="cls-10" d="M50.51,64.47a9.68,9.68,0,0,1-.81-2.28,12,12,0,0,1,0-2.54.08.08,0,1,0-.15,0c-.29,1.51-.52,3.85.77,5C50.4,64.73,50.57,64.59,50.51,64.47Z"/><path class="cls-10" d="M59.51,60.57c0-.34.07-1.15-.16-1.41,0,0-.09,0-.09,0a6.74,6.74,0,0,0,.43,3.67c0,.06.13,0,.12,0C59.72,62.07,59.57,61.33,59.51,60.57Z"/><path class="cls-10" d="M60.51,61.52c0-.78.05-1.56,0-2.33a.08.08,0,0,0-.16,0A9.28,9.28,0,0,0,60.65,64c0,.06.11,0,.1,0C60.7,63.18,60.56,62.35,60.51,61.52Z"/><path class="cls-10" d="M59.92,61.32c-.06-.65,0-1.31,0-2,0-.08-.13-.07-.15,0a6.23,6.23,0,0,0,.44,4.15s.1,0,.09,0A13,13,0,0,1,59.92,61.32Z"/><path class="cls-10" d="M68.36,61.46a15.62,15.62,0,0,0,0-2.37c0-.09-.16-.1-.17,0-.13,1.51-.5,3.72.56,5a.12.12,0,0,0,.2-.12A10.29,10.29,0,0,1,68.36,61.46Z"/><path class="cls-10" d="M69.13,61.69c-.07-.84.09-1.65.08-2.48,0-.11-.15-.09-.17,0-.33,1.37-.73,3.79.43,4.91.07.07.22,0,.2-.12A12.93,12.93,0,0,1,69.13,61.69Z"/><path class="cls-10" d="M81.2,61.71c0-.87-.21-2.4-1-2.94a.06.06,0,0,0-.09.07,9.11,9.11,0,0,1,.62,2.62c.08.74-.28,1.53-.17,2.22,0,.07.1.14.17.1C81.33,63.45,81.21,62.28,81.2,61.71Z"/><path class="cls-10" d="M81.25,58.85a.1.1,0,0,0-.18.1,7,7,0,0,1,.38,4.49c0,.07.06.14.11.07A4.14,4.14,0,0,0,81.25,58.85Z"/><path class="cls-10" d="M91.55,60.55a2.78,2.78,0,0,0-.77-2c-.09-.07-.2,0-.14.14.87,1.32.61,3.21.42,4.67a.15.15,0,0,0,.29.08A7.09,7.09,0,0,0,91.55,60.55Z"/><path class="cls-10" d="M90.44,58.58a.09.09,0,0,0-.16.09A12.12,12.12,0,0,1,90.74,60a10.43,10.43,0,0,1,.12,1.48.15.15,0,0,0,.3,0A3.81,3.81,0,0,0,90.44,58.58Z"/><path class="cls-11" d="M94.06,60.58a2,2,0,0,0-.71-1.07A2.09,2.09,0,0,1,92,60.62a15.46,15.46,0,0,1-3.4.05c-3.3-.05-6.61,0-9.91.12l-10,.22-10.15.25-8.37.2c-1.53,0-7.75.09-9,.11l-10,.22-9.8.23c-3.24.08-6.49.14-9.72.34a14.94,14.94,0,0,1-3.34.1,2.05,2.05,0,0,1-1.47-1.13A2,2,0,0,0,6,62.59,2.32,2.32,0,0,0,7.72,65.4a14.82,14.82,0,0,0,3.39-.1C14.38,65.1,17.67,65,21,65l9.94-.24L41,64.5c1.23,0,7.54-.08,9.09-.11l8.48-.21,10.28-.26L79,63.7c3.34-.08,6.69-.18,10-.12a15.22,15.22,0,0,0,3.44-.06A2.37,2.37,0,0,0,94.06,60.58Z"/><path class="cls-11" d="M81.11,62.75,70.24,63l-11,.27-9.11.22c-1.67,0-8.44.1-9.77.12l-10.84.24-10.68.26c-3.52.09-7,.15-10.57.37-.57,0-1.16.11-1.75.15a2,2,0,0,0,1.25.77,14.82,14.82,0,0,0,3.39-.1C14.38,65.1,17.67,65,21,65l9.94-.24L41,64.5c1.23,0,7.54-.08,9.09-.11l8.48-.21,10.28-.26L79,63.7c3.34-.08,6.69-.18,10-.12a15.22,15.22,0,0,0,3.44-.06,2,2,0,0,0,1.22-.82c-.6,0-1.2-.07-1.78-.07C88.3,62.57,84.71,62.67,81.11,62.75Z"/><g class="cls-12"><path class="cls-13" d="M8.77,61.12a3.06,3.06,0,0,0-1.27.14.16.16,0,0,0,0,.32,4.19,4.19,0,0,0,.5,0,6.48,6.48,0,0,0,.77-.09A.17.17,0,0,0,8.77,61.12Z"/><path class="cls-13" d="M10.11,60.94a1.1,1.1,0,0,0-.54,0,.16.16,0,0,0,0,.31,1.1,1.1,0,0,0,.54,0A.16.16,0,0,0,10.11,60.94Z"/><path class="cls-13" d="M21.45,60.73a26.2,26.2,0,0,0-4.06,0,20.78,20.78,0,0,0-3.7.21.06.06,0,0,0,0,.11,18.28,18.28,0,0,0,3.47.07A35.87,35.87,0,0,0,21.44,61,.14.14,0,0,0,21.45,60.73Z"/><path class="cls-13" d="M33.56,60.54a21.18,21.18,0,0,0-4.21.05c-1.69,0-3.36,0-5,.15-.07,0-.07.12,0,.13,1.56.09,3.14.17,4.71.19a21.5,21.5,0,0,0,4.54-.18A.17.17,0,0,0,33.56,60.54Z"/><path class="cls-13" d="M48.84,60a37.69,37.69,0,0,0-5.52.06,32.49,32.49,0,0,0-5.41.3c-.08,0-.09.15,0,.15,1.72,0,3.4.1,5.12,0a46.88,46.88,0,0,0,5.81-.21A.18.18,0,0,0,48.84,60Z"/><path class="cls-13" d="M57.73,59.91a24.87,24.87,0,0,0-2.59,0c-.89,0-1.81.16-2.69.14a.07.07,0,0,0,0,.14,12.16,12.16,0,0,0,2.34.07,22.48,22.48,0,0,0,3,0A.15.15,0,0,0,57.73,59.91Z"/><path class="cls-13" d="M67.39,59.84c-1.85-.34-3.75.06-5.6,0-.07,0-.08.08,0,.1a14.53,14.53,0,0,0,2.8.14,13.89,13.89,0,0,0,2.81,0A.12.12,0,0,0,67.39,59.84Z"/><path class="cls-13" d="M78.09,59.67c-2.74-.3-5.49,0-8.24-.08-.18,0-.22.27,0,.29a23.73,23.73,0,0,0,3.77.13c1.5-.1,3,0,4.51-.15A.1.1,0,0,0,78.09,59.67Z"/><path class="cls-13" d="M80.08,59.62a1.63,1.63,0,0,0-1.15-.13c-.16,0-.18.29,0,.3a4.93,4.93,0,0,0,1.08.09C80.12,59.86,80.2,59.69,80.08,59.62Z"/><path class="cls-13" d="M89,59.18a30.18,30.18,0,0,0-6.23.16s-.05.08,0,.08a32.42,32.42,0,0,0,6.23,0A.11.11,0,0,0,89,59.18Z"/><path class="cls-13" d="M92.8,59.32a1.51,1.51,0,0,0-.93-.19c-.14,0-.13.22,0,.24.29,0,.55.14.84.16C92.82,59.53,92.91,59.39,92.8,59.32Z"/></g><path class="cls-10" d="M14,74.72a21.05,21.05,0,0,1-.83-3.09,23.13,23.13,0,0,1-.09-3c0-.12-.16-.1-.19,0a10.19,10.19,0,0,0,.8,6.22C13.73,75,14,74.91,14,74.72Z"/><path class="cls-10" d="M16.44,75.47a11.68,11.68,0,0,1-1.17-3,21.74,21.74,0,0,1-.18-3.13c0-.16-.27-.16-.29,0-.17,2.21-.18,4.53,1.35,6.32C16.27,75.77,16.53,75.64,16.44,75.47Z"/><path class="cls-10" d="M18.52,74.45a17.92,17.92,0,0,1-.84-2.6,16.78,16.78,0,0,1-.15-3,.14.14,0,0,0-.28,0,8.51,8.51,0,0,0,1,5.77C18.36,74.76,18.58,74.61,18.52,74.45Z"/><path class="cls-10" d="M18.7,89.34a17.89,17.89,0,0,1-1.26-5,.08.08,0,1,0-.15,0,10.77,10.77,0,0,0,1.21,5.07C18.57,89.57,18.76,89.46,18.7,89.34Z"/><path class="cls-10" d="M20.9,88.88a18,18,0,0,1-1-3.11,9.16,9.16,0,0,0-.46-2.34.12.12,0,0,0-.22.06c.16.87.22,1.77.37,2.65A9.71,9.71,0,0,0,20.62,89,.15.15,0,0,0,20.9,88.88Z"/><path class="cls-10" d="M23.3,89.41A17.36,17.36,0,0,1,22,83.9c0-.17-.31-.18-.32,0a11.2,11.2,0,0,0,1.24,5.66C23.06,89.77,23.4,89.64,23.3,89.41Z"/><path class="cls-10" d="M24.79,82.47a10.34,10.34,0,0,1-1.15-2.89,32.81,32.81,0,0,1-.44-3.43c0-.12-.21-.13-.22,0a10.09,10.09,0,0,0,1.53,6.48C24.62,82.78,24.88,82.63,24.79,82.47Z"/><path class="cls-10" d="M26.6,82.81a25.48,25.48,0,0,1-1-3.29c-.2-1-.26-2.1-.44-3.15a.12.12,0,0,0-.24,0c.26,2.3.37,4.41,1.46,6.5A.12.12,0,0,0,26.6,82.81Z"/><path class="cls-10" d="M28.79,81.63a29.18,29.18,0,0,1-1-4.09.11.11,0,0,0-.21,0,9.51,9.51,0,0,0,1,4.21A.15.15,0,0,0,28.79,81.63Z"/><path class="cls-10" d="M29,76.43a22.06,22.06,0,0,1-.67-2.54c-.15-1-.25-2.1-.38-3.14a.13.13,0,0,0-.26,0,15.07,15.07,0,0,0,1,5.73C28.75,76.65,29,76.6,29,76.43Z"/><path class="cls-10" d="M31.59,76.48a15.67,15.67,0,0,1-1.08-3.06A18.84,18.84,0,0,0,30,70.85a.09.09,0,0,0-.18.05c.37,2,.3,4,1.47,5.76A.18.18,0,0,0,31.59,76.48Z"/><path class="cls-10" d="M32.73,70.83a.07.07,0,0,0-.14,0,43.12,43.12,0,0,0,1,5.15c0,.14.28.08.25-.07C33.58,74.24,33.21,72.5,32.73,70.83Z"/><path class="cls-10" d="M43.1,80.25a.1.1,0,0,0-.19,0,11,11,0,0,0,.2,5.13c0,.18.36.1.32-.09A16.54,16.54,0,0,1,43.1,80.25Z"/><path class="cls-10" d="M44.85,80.47c0-.18-.32-.18-.33,0a15.61,15.61,0,0,0,.61,5.81.15.15,0,0,0,.29-.08A44,44,0,0,1,44.85,80.47Z"/><path class="cls-10" d="M48.85,85.54a22,22,0,0,1-1.15-5.68c0-.18-.27-.13-.27,0a12.79,12.79,0,0,0,1.11,5.77A.17.17,0,0,0,48.85,85.54Z"/><path class="cls-10" d="M50.24,74c0-.09-.17-.09-.17,0a26.94,26.94,0,0,0,.33,6.53.14.14,0,0,0,.28,0A64.3,64.3,0,0,1,50.24,74Z"/><path class="cls-10" d="M52.73,73.43c0-.15-.2-.17-.23,0a13.72,13.72,0,0,0-.09,6.34.14.14,0,0,0,.27,0A29.21,29.21,0,0,1,52.73,73.43Z"/><path class="cls-10" d="M55.11,76.33c-.08-1.16,0-2.33,0-3.48,0-.15-.23-.14-.25,0a13.55,13.55,0,0,0,.66,7.25A.15.15,0,0,0,55.8,80,35.76,35.76,0,0,1,55.11,76.33Z"/><path class="cls-10" d="M66.1,81c.1-1.17.39-2.34.56-3.51a.11.11,0,0,0-.22,0c-.58,2.45-1.19,4.82-.57,7.32a.2.2,0,0,0,.39-.05A17.25,17.25,0,0,1,66.1,81Z"/><path class="cls-10" d="M68.5,78.61a.14.14,0,0,0-.28,0A18.06,18.06,0,0,0,68,85.2a.15.15,0,0,0,.3,0A41,41,0,0,1,68.5,78.61Z"/><path class="cls-10" d="M71.46,80.7a26.8,26.8,0,0,0,.14-3.1c0-.13-.21-.1-.21,0,0,1.12-.29,2.26-.36,3.38a13.39,13.39,0,0,0,.15,3.35.16.16,0,0,0,.31,0C71.45,83.11,71.42,81.91,71.46,80.7Z"/><path class="cls-10" d="M81.44,77.91a16.32,16.32,0,0,0-.88,6.61.12.12,0,0,0,.24,0c.08-1.1.07-2.2.21-3.3s.54-2.18.6-3.27C81.61,77.86,81.47,77.81,81.44,77.91Z"/><path class="cls-10" d="M83.59,78.25c-.37,2.37-1,4.69-.74,7.12,0,.21.37.22.38,0a36.28,36.28,0,0,1,.2-3.76c.12-1.11.39-2.21.42-3.33A.13.13,0,0,0,83.59,78.25Z"/><path class="cls-10" d="M72.56,88.54c0-.78.16-1.56.18-2.34a.08.08,0,0,0-.15,0,6.36,6.36,0,0,0-.34,2.34,9.43,9.43,0,0,0,.23,2.75c0,.18.32.15.29,0A14,14,0,0,1,72.56,88.54Z"/><path class="cls-10" d="M74.89,86.39c0-.11-.14-.14-.19,0a8,8,0,0,0-.07,5.07.14.14,0,0,0,.27-.07A12.5,12.5,0,0,1,74.89,86.39Z"/><path class="cls-10" d="M77.39,86.46a.11.11,0,0,0-.22,0,17.2,17.2,0,0,0,.1,4.7.18.18,0,0,0,.35,0C77.44,89.57,77.59,88,77.39,86.46Z"/><path class="cls-10" d="M74.31,73.31c.07-1,.31-1.9.47-2.86a.08.08,0,0,0-.16,0c-.49,2.09-1,4.08-.29,6.2,0,.12.24.06.22-.06A13.75,13.75,0,0,1,74.31,73.31Z"/><path class="cls-10" d="M77.19,73.35c0-.88.18-1.75.18-2.64,0-.13-.23-.13-.23,0-.15,2.12-.67,4.16,0,6.26.05.19.34.1.32-.09A19.76,19.76,0,0,1,77.19,73.35Z"/><path class="cls-10" d="M80.3,70.81c0-.17-.26-.21-.27,0-.11,2.08-.76,4.14-.37,6.24A.15.15,0,0,0,80,77,60.43,60.43,0,0,1,80.3,70.81Z"/><path class="cls-10" d="M31.92,65.75a19.22,19.22,0,0,1-5.35.46c-.09,0-.1.12,0,.14A9.84,9.84,0,0,0,32,66.07C32.18,66,32.11,65.71,31.92,65.75Z"/><path class="cls-10" d="M32.72,67.6c-1.91.38-4.16,1-6.12.51-.07,0-.1.1,0,.13a6.28,6.28,0,0,0,2.66.33,9.64,9.64,0,0,0,3.57-.68C33,67.82,32.89,67.56,32.72,67.6Z"/><path class="cls-10" d="M26.3,70.58a13.61,13.61,0,0,1-5.05.1c-.07,0-.11.1,0,.13a7.29,7.29,0,0,0,5.16.09C26.55,70.82,26.49,70.54,26.3,70.58Z"/><path class="cls-10" d="M26.63,73.09a21.23,21.23,0,0,1-5.1.14c-.09,0-.13.13,0,.15a9.81,9.81,0,0,0,5.24.08C27,73.4,26.84,73.06,26.63,73.09Z"/><path class="cls-10" d="M26.45,75.31a17.74,17.74,0,0,1-4.77-.12c-.09,0-.12.12,0,.15a7.28,7.28,0,0,0,4.89.24C26.69,75.53,26.61,75.3,26.45,75.31Z"/><path class="cls-10" d="M35.28,77a23,23,0,0,1-6.13.73c-.2,0-.25.3,0,.32a14,14,0,0,0,6.27-.7A.18.18,0,0,0,35.28,77Z"/><path class="cls-10" d="M34.73,79.88a18.73,18.73,0,0,1-5.49.24.14.14,0,0,0-.07.26,9.83,9.83,0,0,0,5.66-.13A.19.19,0,0,0,34.73,79.88Z"/><path class="cls-10" d="M34.55,82.58c-1.5.31-3.34,1-4.88.68a.12.12,0,0,0-.06.22c1.48.51,3.62,0,5-.49A.22.22,0,0,0,34.55,82.58Z"/><path class="cls-10" d="M29.4,84.4c-1.88,0-3.76.34-5.64-.08-.07,0-.1.09,0,.12a9.79,9.79,0,0,0,5.67.29C29.56,84.69,29.61,84.4,29.4,84.4Z"/><path class="cls-10" d="M29.9,86.07a21.23,21.23,0,0,1-5.34.2c-.13,0-.15.17,0,.2a12.7,12.7,0,0,0,5.42,0A.21.21,0,0,0,29.9,86.07Z"/><path class="cls-10" d="M29.85,87.87a16,16,0,0,1-5.38.45c-.11,0-.16.16,0,.19a9.09,9.09,0,0,0,5.5-.36C30.08,88.1,30,87.85,29.85,87.87Z"/><path class="cls-10" d="M20.25,76.93c-2,0-4,.48-6,.23-.12,0-.14.16,0,.19a12.8,12.8,0,0,0,6.12-.15C20.49,77.16,20.39,76.93,20.25,76.93Z"/><path class="cls-10" d="M20,79.71c-1.55-.21-3.1-.18-4.65-.32a.1.1,0,0,0,0,.2A31.37,31.37,0,0,0,20,80C20.16,80,20.2,79.73,20,79.71Z"/><path class="cls-10" d="M20.37,82.08a26.63,26.63,0,0,1-4.64.12.13.13,0,0,0,0,.26,9.11,9.11,0,0,0,4.75-.13A.13.13,0,0,0,20.37,82.08Z"/><path class="cls-10" d="M47.74,75.26c-2.16.07-4.27.15-6.43,0a.08.08,0,0,0,0,.16,17.43,17.43,0,0,0,6.48,0A.13.13,0,0,0,47.74,75.26Z"/><path class="cls-10" d="M49,77.45c-1.38,0-2.76.18-4.15.23a33.56,33.56,0,0,1-3.87-.2.09.09,0,0,0,0,.18,22.39,22.39,0,0,0,8.08.08A.15.15,0,0,0,49,77.45Z"/><path class="cls-10" d="M48.2,79.36a39,39,0,0,1-7.4.14.08.08,0,0,0,0,.16,13.44,13.44,0,0,0,3.23.21,23.84,23.84,0,0,0,4.22-.31A.1.1,0,0,0,48.2,79.36Z"/><path class="cls-10" d="M55,68.18c-1,0-1.89.1-2.85.08s-1.81-.16-2.69-.26a.06.06,0,0,0,0,.12,13.08,13.08,0,0,0,5.56.36C55.11,68.44,55.13,68.18,55,68.18Z"/><path class="cls-10" d="M54.82,69.79a21.65,21.65,0,0,1-5.63-.21c-.08,0-.12.12,0,.16a11.13,11.13,0,0,0,5.7.28A.12.12,0,0,0,54.82,69.79Z"/><path class="cls-10" d="M55.3,71.26a19.61,19.61,0,0,1-7.44.26c-.09,0-.1.1,0,.12a14.09,14.09,0,0,0,7.54-.09C55.54,71.5,55.46,71.23,55.3,71.26Z"/><path class="cls-10" d="M72.87,71.5a21.92,21.92,0,0,1-4,.16,25.57,25.57,0,0,1-3.48-.6.1.1,0,0,0-.06.19,12.78,12.78,0,0,0,7.56.57A.16.16,0,0,0,72.87,71.5Z"/><path class="cls-10" d="M72.09,73.83A20.54,20.54,0,0,1,66,73.57c-.1,0-.14.15,0,.18a11.27,11.27,0,0,0,6.14.42A.17.17,0,0,0,72.09,73.83Z"/><path class="cls-10" d="M73.16,75.89a15.33,15.33,0,0,1-7.67.36c-.18,0-.2.23,0,.27a12.2,12.2,0,0,0,7.85-.31C73.5,76.12,73.37,75.83,73.16,75.89Z"/><path class="cls-10" d="M87.5,70.63a38.5,38.5,0,0,1-5.26-.21c-.12,0-.14.16,0,.19A19.06,19.06,0,0,0,87.5,71C87.7,71,87.7,70.63,87.5,70.63Z"/><path class="cls-10" d="M86.34,72.72a14.52,14.52,0,0,1-4,.07.11.11,0,0,0,0,.22,9.9,9.9,0,0,0,4,0A.16.16,0,0,0,86.34,72.72Z"/><path class="cls-10" d="M85.86,75.46a10.55,10.55,0,0,1-4.43.33c-.11,0-.16.15-.05.19a6.3,6.3,0,0,0,4.56-.21C86.1,75.7,86,75.43,85.86,75.46Z"/><path class="cls-10" d="M79.05,77.92a23.7,23.7,0,0,1-5.19,0c-.1,0-.15.15,0,.18a9.16,9.16,0,0,0,2.45.26,15.73,15.73,0,0,0,2.83-.1A.18.18,0,0,0,79.05,77.92Z"/><path class="cls-10" d="M78.58,81a31.44,31.44,0,0,1-5.57-.5c-.15,0-.21.21-.07.25a17,17,0,0,0,5.64.6C78.78,81.38,78.78,81,78.58,81Z"/><path class="cls-10" d="M78.43,84.13A16.85,16.85,0,0,1,73,83.75a.13.13,0,0,0-.07.25,11.67,11.67,0,0,0,5.56.49A.18.18,0,0,0,78.43,84.13Z"/><g class="cls-14"><path class="cls-8" d="M54.67,68.63c.25,0,.5.37.24.58a3.7,3.7,0,0,1-2.15.49,7.84,7.84,0,0,1-2.84-.46.3.3,0,0,1-.14-.1c-.34-.13-.16-.69.24-.63a16.43,16.43,0,0,0,2.8.22A14.34,14.34,0,0,1,54.67,68.63Z"/><path class="cls-8" d="M52.08,80.09a.31.31,0,0,1-.13.36.33.33,0,0,1-.6.06,8,8,0,0,1-.8-4.15c0-.69,0-2.18.77-2.49a.37.37,0,0,1,.33.09c.38.33.26,1.1.2,1.54A10.77,10.77,0,0,0,52.08,80.09Z"/><path class="cls-8" d="M50.14,71.42c-.53,0-1.42-.34-1.58-.93-.21-.23.1-.67.44-.5,1.61.78,3.64.57,5.36.42.39,0,.45.56.09.66A12.77,12.77,0,0,1,50.14,71.42Z"/><path class="cls-8" d="M53.72,73.52a.34.34,0,0,1,.56.15,3,3,0,0,1-.18,1.86,7.78,7.78,0,0,0,0,2.68c.14.65.41,1.22.57,1.85a.34.34,0,0,1-.5.38c-1.06-.47-1.37-2.09-1.4-3.12S52.8,74.33,53.72,73.52Z"/><path class="cls-8" d="M32.4,72.68c.06.7.13,1.39.24,2.09a1.89,1.89,0,0,1-.06,1,.34.34,0,0,1-.49.2c-1-.64-1.11-2.35-1.15-3.49s0-2,.68-1.88S32.35,72.15,32.4,72.68Z"/><path class="cls-8" d="M33.67,79.57a9.37,9.37,0,0,1-4-.17.34.34,0,0,1-.18-.1.62.62,0,0,1-.14-.14.43.43,0,0,1,.12-.54.1.1,0,0,1,.05,0,.27.27,0,0,1,.28-.16,16.08,16.08,0,0,0,2.86-.14c.84-.09,1.58-.38,2.39-.5a.35.35,0,0,1,.43.32C35.56,79,34.4,79.41,33.67,79.57Z"/><path class="cls-8" d="M35,81.09c-.72,2-4.05,1.7-5.34.57a.33.33,0,0,1,.05-.51.31.31,0,0,1,.4-.27,6.55,6.55,0,0,0,2.82.14c.45-.06,1.48-.59,1.91-.31A.34.34,0,0,1,35,81.09Z"/><path class="cls-8" d="M28.49,73.08c0-.66-.2-1.63.33-2.13a.33.33,0,0,1,.41,0c.57.38.4,1.47.46,2,.1.92.64,1.92.48,2.83a.29.29,0,0,1-.28.24.26.26,0,0,1-.36-.07A5.05,5.05,0,0,1,28.49,73.08Z"/><path class="cls-8" d="M27,66.64a9.4,9.4,0,0,0,2.85.21,9.42,9.42,0,0,1,1.83-.11.34.34,0,0,1,.15.56,4.48,4.48,0,0,1-3.22.71,3,3,0,0,1-1.93-.74.32.32,0,0,1-.06-.15A.33.33,0,0,1,27,66.64Z"/><path class="cls-8" d="M27.51,82.27c-1.54.42-1.77-4.42-1.68-5.12a.35.35,0,0,1,.33-.31.32.32,0,0,1,.51-.06,1.31,1.31,0,0,1,.39.91,13.79,13.79,0,0,0,.46,2.47C27.66,80.58,28.32,82.05,27.51,82.27Z"/><path class="cls-8" d="M26.74,74.39a1.51,1.51,0,0,1-1,.7,4.25,4.25,0,0,1-4.12-.7.32.32,0,0,1,.16-.55.27.27,0,0,1,.28-.06,11.39,11.39,0,0,0,4.43.11C26.71,73.85,26.85,74.19,26.74,74.39Z"/><path class="cls-8" d="M26.2,72.23a4.92,4.92,0,0,1-4.56.46c-.29-.15-.77-.6-.3-.88h0a.37.37,0,0,1,.42-.33,27.67,27.67,0,0,0,4.27.14A.33.33,0,0,1,26.2,72.23Z"/><path class="cls-8" d="M20.38,77.77a.34.34,0,0,1,.34.33c.1,1.3-2.17,1.18-2.94,1.14-.6,0-2.51,0-2.83-.77a.34.34,0,0,1,.28-.6C17,78.28,18.66,77.76,20.38,77.77Z"/><path class="cls-8" d="M15.48,69.84a.18.18,0,0,1,.06-.09,1.17,1.17,0,0,1,.15-.27.68.68,0,0,1,.43-.31.25.25,0,0,1,.39.11,3.27,3.27,0,0,1,.14,1.21A18.43,18.43,0,0,0,17,72.57c.09.36.5,1.38.12,1.7s-.62.13-.88-.18A4.53,4.53,0,0,1,15.48,69.84Z"/><path class="cls-8" d="M13.92,74.09c-.36-.34-.42-1.18-.5-1.64a7.28,7.28,0,0,1,0-2.55.14.14,0,0,1,0-.06.91.91,0,0,1,.44-.71c.73-.38.71,2.88.72,3.12S14.82,75,13.92,74.09Z"/><path class="cls-8" d="M19.87,89a.34.34,0,0,1-.57.24c-.92-.93-1.12-2.43-1.31-3.74,0-.17-.06-.35-.08-.53,0,0,0,0,0-.08v-.06c0-.51.1-.92.57-.92.74,0,.69,1.25.76,1.7A15.46,15.46,0,0,1,19.87,89Z"/><path class="cls-8" d="M19.91,81.48c-1.24.79-5,.7-5.6-.94a.31.31,0,0,1,.14-.36c0-.22.13-.47.4-.36,1.55.61,3.16.26,4.76.49C20.28,80.4,20.58,81.06,19.91,81.48Z"/><path class="cls-8" d="M21.35,88.82a6.64,6.64,0,0,1-1.2-4.17,2.93,2.93,0,0,1,.11-.9c.11-.39.45-.89.93-.61s.3,1,.3,1.51a10,10,0,0,0,.18,2.62,5.41,5.41,0,0,1,.25,1.31A.34.34,0,0,1,21.35,88.82Z"/><path class="cls-8" d="M23.83,77.06a.49.49,0,0,1,.69-.13,2.63,2.63,0,0,1,.31,1.47c.07,1,.39,2,.51,2.95.05.34-.47.44-.62.17A7.11,7.11,0,0,1,23.83,77.06Z"/><path class="cls-8" d="M24.52,84.83c1.23.62,2.7.16,4,.31.23,0,.45.27.29.51-.49.7-1.44.54-2.2.54s-1.95,0-2.48-.76a.26.26,0,0,1,0-.08C23.86,85.12,24.17,84.66,24.52,84.83Z"/><path class="cls-8" d="M24.07,87.14a.34.34,0,0,1,.42-.41l.19.07a.33.33,0,0,1,.22,0,21,21,0,0,0,3.8.3.34.34,0,0,1,.24.57c-.69.7-2.07.54-3,.48S24.38,88,24.07,87.14Z"/><path class="cls-8" d="M70.38,84c0,.34.06.91-.44.91s-.85-.79-1-1.14a5.67,5.67,0,0,1-.29-3.16,7.19,7.19,0,0,1,.43-1.76c.17-.44.51-1.36,1.14-1.29a.49.49,0,0,1,.38.34,2.24,2.24,0,0,1,.13.92l-.09.54c-.08.54-.15,1.09-.21,1.63a13.57,13.57,0,0,0-.09,1.91C70.32,83.3,70.35,83.67,70.38,84Z"/><path class="cls-8" d="M69.15,76.25c-1.08,0-3.5,0-3.7-1.49a.36.36,0,0,1,.12-.34.31.31,0,0,1,.41-.28,10.34,10.34,0,0,0,3.66.65,11.11,11.11,0,0,1,2.21-.18.32.32,0,0,1,.24.32C72,76.29,70.1,76.25,69.15,76.25Z"/><path class="cls-8" d="M67.48,83.62l.06,1a.34.34,0,0,1-.58.24,4.6,4.6,0,0,1-.58-3.61c.15-.86.16-2.5.89-3.11a.34.34,0,0,1,.57.24,11.7,11.7,0,0,1-.28,1.84,2.83,2.83,0,0,0,0,.29c0,.47-.1.94-.11,1.4A16.66,16.66,0,0,0,67.48,83.62Z"/><path class="cls-8" d="M69.36,73.65c-1.13-.05-2.57-.14-3.35-1.1a.27.27,0,0,1-.07-.14c-.18-.23,0-.65.33-.53a10.18,10.18,0,0,0,3.37.6,23.73,23.73,0,0,0,2.67-.32c.27,0,.39.3.29.5C72,73.77,70.42,73.71,69.36,73.65Z"/><path class="cls-8" d="M73.7,91.55a3.63,3.63,0,0,1-1-3.15c.07-.77.11-2.15.87-2.6a.35.35,0,0,1,.5.2,3.11,3.11,0,0,1,0,.61.32.32,0,0,1,.08.29A6.72,6.72,0,0,0,74,89.54a6.6,6.6,0,0,1,.23,1.72C74.2,91.49,73.92,91.72,73.7,91.55Z"/><path class="cls-8" d="M76.7,89.84a4.75,4.75,0,0,1,0,1.19c-.09.31-.33.67-.71.48C75,91,74.81,88.64,74.92,87.68a3.23,3.23,0,0,1,.88-2.2.51.51,0,0,1,.79.11A3.13,3.13,0,0,1,76.82,87a.31.31,0,0,1,0,.19A14.46,14.46,0,0,0,76.7,89.84Z"/><path class="cls-8" d="M77.19,83.52a6.42,6.42,0,0,1-3.31-.47c-1-.26-1.79-.72-1.18-1.43a.33.33,0,0,1,.33-.08l.43.15a10.63,10.63,0,0,0,2.65.23,15.68,15.68,0,0,1,2.65,0,.33.33,0,0,1,.24.23C79.17,83,77.83,83.38,77.19,83.52Z"/><path class="cls-8" d="M77.23,80.57a6.73,6.73,0,0,1-4-1.16.27.27,0,0,1-.09-.3.33.33,0,0,1,.38-.48,13.47,13.47,0,0,0,3.3.27c.86,0,1.77-.11,2.61,0a.34.34,0,0,1,.24.33C79.68,80.27,78,80.59,77.23,80.57Z"/><path class="cls-8" d="M76.5,75.31c.09.42.12,1.13-.41,1.28-1.23.34-1.48-2.73-1.48-3.33s.32-3.8,1.61-3.05a.73.73,0,0,1,.36.62.28.28,0,0,1,.13.36A7.79,7.79,0,0,0,76.5,75.31Z"/><path class="cls-8" d="M79.08,75.49c0,.37.15.79-.12,1.1a.32.32,0,0,1-.4,0c-.78-.4-.92-1.57-1-2.34a7.25,7.25,0,0,1,.45-3.67.49.49,0,0,1,.56-.27.35.35,0,0,1,.37,0c.63.25.41,1.53.19,2.45A12.3,12.3,0,0,0,79.08,75.49Z"/><path class="cls-8" d="M82.89,78.35a27.24,27.24,0,0,0-.31,4.78c0,.53,0,1.61-.64,1.79a.33.33,0,0,1-.33-.08,4.77,4.77,0,0,1-.48-3A14.53,14.53,0,0,1,82,78.32a.5.5,0,0,1,.88,0Z"/><path class="cls-8" d="M87.72,73.63c-.94,1.87-5.32,2.48-6.37.41l0-.1s0,0,0,0a.34.34,0,0,1,0-.1v0a.51.51,0,0,1,.44-.55h.09a.67.67,0,0,1,.39.08,9.16,9.16,0,0,0,5.16-.17C87.64,73,87.84,73.38,87.72,73.63Z"/><path class="cls-8" d="M82,71.27a.33.33,0,0,1,.41-.31,18.44,18.44,0,0,0,4.92.23.34.34,0,0,1,.24.57,4.89,4.89,0,0,1-5.57,0A.31.31,0,0,1,82,71.27Z"/><path class="cls-8" d="M47.88,85.7c.12.4-.16,1-.66.85-1.84-.5-2.2-3.38-2.06-4.93.06-.59.17-1.39.8-1.65.43-.18,1-.17,1.15.38a3.61,3.61,0,0,1,0,1.6A9.58,9.58,0,0,0,47.88,85.7Z"/><path class="cls-8" d="M43.72,79.23A4.43,4.43,0,0,1,41,78.55a.29.29,0,0,1-.09-.28c-.09-.23.08-.55.38-.44,2.23.8,4.41.28,6.7.3a.34.34,0,0,1,.09.66A12.73,12.73,0,0,1,43.72,79.23Z"/><path class="cls-8" d="M44.29,81.59a14.34,14.34,0,0,0,.34,4c0,.29-.32.63-.56.33a4.7,4.7,0,0,1-.81-2.64,6,6,0,0,1,.13-2.6.46.46,0,0,1,.87,0,1.36,1.36,0,0,1,0,.8A.33.33,0,0,1,44.29,81.59Z"/><path class="cls-8" d="M41.35,76h0a.35.35,0,0,1,.18,0,33.46,33.46,0,0,0,6.25,0,.34.34,0,0,1,.33.34c0,1.09-1.8,1-2.53,1-1.56.06-3.23.38-4.51-.74A.34.34,0,0,1,41.35,76Z"/></g><g class="cls-15"><path class="cls-8" d="M8.68,64.8c1.2,4.8,4.3,16.83,6.17,21.38,2.36,5.73,1.26,8.24,9,9,6.69.67,20.46.36,26.28.21,5.82.15,19.59.46,26.28-.21,7.77-.79,6.68-3.3,9-9,1.87-4.55,5.21-18.45,6.42-23.25ZM82.82,85.86a8.4,8.4,0,0,1-1.4,1.32c-2.73,2-6.42,2.64-9.81,2.91-1.94.15-3.88.17-5.83.19-6.83.09-13.64.66-20.47.76q-4.81.08-9.65,0c-5-.1-10.53.42-15.18-1.76a13,13,0,0,1-6.08-6.78c-1.82-4.08-5.55-14.44,3-14,2.4.13,4.76.16,7.16.18,7.4.06,14.79.26,22.19.11q3.21-.06,6.42-.22c7.56-.39,18.54-1.08,26.11-1.29,2.26-.06,5.1-.49,7.22.41C90.8,69.54,84.41,84,82.82,85.86Z"/></g><path class="cls-16" d="M36.3,70.28c-3.27,0-6.54,0-9.8,0-2.39,0-5.48-.48-7.74.31-2.89,1-1.16,4.5-.34,6.15a9.62,9.62,0,0,0,3.95,3.92C27,83.33,33.26,84,38.84,84.26c4.59.21,9.19.12,13.78-.11,6.07-.29,12.34-.2,18.27-1.44a19.33,19.33,0,0,0,13-9.37c.59-1.12,2-3.35.17-4.18-2-.91-24.41.86-33.06,1Q43.63,70.21,36.3,70.28Z"/><g class="cls-17"><path class="cls-8" d="M83.28,90c-5.26,3.84-23,3.14-26.1,3.21-6.29.14-12.58.17-18.87.14-3.17,0-15-.67-17.66-1.21a9.05,9.05,0,0,1-4.57-2.19c1,3.14,1.9,4.69,7.71,5.28,6.68.67,20.45.36,26.27.21,5.82.15,19.6.46,26.28-.21,6.34-.64,6.78-2.43,8-6.17A8.59,8.59,0,0,1,83.28,90Z"/><path class="cls-8" d="M15.44,65.64c4.4-.39,8.86-.11,13.27-.13,6.34,0,12.68-.29,19-.32s12.75.11,19.12,0,12.58-.74,18.83-.41c1.29.06,3.83,0,4.68,1.26a2.34,2.34,0,0,1,.36,1.19l1.06-4.27L8.58,64.8l.65,2.55a5,5,0,0,1,1.47-.71A14.29,14.29,0,0,1,15.44,65.64Z"/></g><path class="cls-13" d="M36.61,89.66a2.15,2.15,0,0,1-2.5-2.43,3.12,3.12,0,0,1,.36-1.51,6.31,6.31,0,0,1,1-1.32l5.24-5.48a11.25,11.25,0,0,0,1.7-2.16A3.71,3.71,0,0,0,42.89,75a2.06,2.06,0,0,0-.75-1.73A3.51,3.51,0,0,0,40,72.64a6,6,0,0,0-1.51.21,9.15,9.15,0,0,0-1.77.69,2.15,2.15,0,0,1-1.42.21,2.07,2.07,0,0,1-1.1-.65,2.28,2.28,0,0,1-.34-2.49,2.31,2.31,0,0,1,1.11-1.07,10.93,10.93,0,0,1,2.86-1.1,13.31,13.31,0,0,1,3-.35,10.33,10.33,0,0,1,4.14.73,5.39,5.39,0,0,1,2.54,2.12,6.21,6.21,0,0,1,.87,3.35,8.19,8.19,0,0,1-.38,2.48,9.18,9.18,0,0,1-1.2,2.41,18.37,18.37,0,0,1-2.21,2.6L39.68,86.6V85.18h7.4a2.32,2.32,0,0,1,1.71.57,2.26,2.26,0,0,1,.57,1.66,2,2,0,0,1-2.28,2.25Z"/><path class="cls-13" d="M55.08,89.66a2.32,2.32,0,0,1-1.73-.6,2.27,2.27,0,0,1-.59-1.65,2.23,2.23,0,0,1,.59-1.66,2.39,2.39,0,0,1,1.73-.57h2.65V72.85h2.55l-4.36,2.71a2.16,2.16,0,0,1-1.47.37,1.94,1.94,0,0,1-1.16-.59,2.47,2.47,0,0,1-.63-1.17,2.33,2.33,0,0,1,.1-1.4,2.25,2.25,0,0,1,1.09-1.16L58,69a5.19,5.19,0,0,1,1.34-.65,4.84,4.84,0,0,1,1.49-.23,2.51,2.51,0,0,1,1.79.61,2.22,2.22,0,0,1,.64,1.71V85.18h2.38a2.34,2.34,0,0,1,1.7.57A2.23,2.23,0,0,1,68,87.41a2.27,2.27,0,0,1-.59,1.67,2.31,2.31,0,0,1-1.7.58Z"/></g></g></svg>