<svg xmlns="http://www.w3.org/2000/svg" viewBox="0 0 105.29 104.84"><defs><style>.cls-1{isolation:isolate;}.cls-2{fill:#ed7d03;}.cls-3{fill:#ff8c03;}.cls-4{fill:#fcbc08;}.cls-5{fill:#f28106;opacity:0.7;}.cls-6{fill:#7c6a13;}.cls-7{fill:#937b18;}.cls-8{fill:#b86313;}.cls-11,.cls-9{fill:#cc7917;}.cls-10{fill:#9e4727;}.cls-11,.cls-12,.cls-17{opacity:0.5;}.cls-11,.cls-15,.cls-17{mix-blend-mode:multiply;}.cls-13,.cls-16{fill:#fff;}.cls-14,.cls-15{opacity:0.3;}.cls-14{mix-blend-mode:screen;}.cls-16{opacity:0.1;}</style></defs><title>orange12</title><g class="cls-1"><g id="Layer_1" data-name="Layer 1"><path class="cls-2" d="M79.18,47c-4.72-1.6-9.7-5.65-10.85-10.74H24.11V66.5H81.42V47.64C80.66,47.47,79.91,47.27,79.18,47Z"/><path class="cls-3" d="M66.64,13.12c3,2.19,6.91,9.14,2.29,14.85S57.55,34,52.46,30.67A11.48,11.48,0,0,1,51,12.53C56.18,7.64,62.13,9.81,66.64,13.12Z"/><path class="cls-4" d="M54.15,12.3h0Z"/><path class="cls-4" d="M54.84,13c.35-.17.74-.52.41-.84s-.77,0-1.09.12C53.73,12.7,53.91,13.48,54.84,13Z"/><path class="cls-4" d="M54.16,12.3l.54-.21A.83.83,0,0,0,54.16,12.3Z"/><path class="cls-4" d="M53.21,13.83c.13-.1.31-.3.13-.44a.22.22,0,0,0-.33.07.44.44,0,0,0-.22.29C52.76,14,53.07,13.93,53.21,13.83Z"/><path class="cls-4" d="M55.49,13.65a.33.33,0,0,0-.33,0c-.15,0-.35.08-.38.21a.11.11,0,0,0,0,.08l-.05,0,.05,0c0,.15.38,0,.5,0S55.76,13.79,55.49,13.65Z"/><path class="cls-4" d="M54.73,14h0Z"/><path class="cls-4" d="M56.23,12.86c-.15.05-.32.22-.24.36s.44.09.57,0C57.06,13,56.41,12.75,56.23,12.86Z"/><path class="cls-4" d="M56.85,11.94c-.1,0-.29-.06-.37,0a.15.15,0,0,0,0,.18c0,.1.18.19.25.23s.92.32,1,.06S57,12,56.85,11.94Z"/><path class="cls-4" d="M56,11.42c.16.08.72.06.78-.16s-.31-.28-.45-.26a.58.58,0,0,0-.25.14C56,11.21,55.84,11.32,56,11.42Z"/><path class="cls-4" d="M53.31,12.74c.29-.21,0-.33-.22-.29h0c-.13,0-.46.14-.37.32S53.2,12.83,53.31,12.74Z"/><path class="cls-4" d="M52.09,14.13c.11-.13.44-.67.06-.69a.23.23,0,0,0-.2.1,1.06,1.06,0,0,0-.38.53C51.42,14.57,51.9,14.34,52.09,14.13Z"/><path class="cls-4" d="M54.14,14.28a.74.74,0,0,0-.5,0,1,1,0,0,0-.67.52c-.13.52.78.14,1,.08S54.56,14.44,54.14,14.28Z"/><path class="cls-4" d="M55.66,14.69c-.14.05-.3.17-.3.29s.53.18.67.11C56.59,14.83,55.86,14.58,55.66,14.69Z"/><path class="cls-4" d="M59.25,11.81a.23.23,0,0,0-.25.1.69.69,0,0,0,1,0A.57.57,0,0,0,59.25,11.81Z"/><path class="cls-4" d="M57.77,13.15c.32.11,1.17.16,1.23-.28a.75.75,0,0,0-.68-.08C58.06,12.78,57.78,12.87,57.77,13.15Z"/><path class="cls-4" d="M58.39,10.85a.45.45,0,0,0-.63-.06.28.28,0,0,0-.15.18A.61.61,0,0,0,58.39,10.85Z"/><path class="cls-4" d="M60.7,12.68c-.63,0,.18.81.53.55S61,12.51,60.7,12.68Z"/><path class="cls-4" d="M51.77,15.27c-.2-.15-.36,0-.47.18-.42.27-.93.9-.53,1.06S51.75,15.62,51.77,15.27Z"/><path class="cls-4" d="M50.61,14.44c-.54.11-.28,1,.23.39C51.16,14.45,50.83,14.33,50.61,14.44Z"/><path class="cls-4" d="M53.68,16.1a.27.27,0,0,0-.19.24c.2.15.74.16.87-.11S53.86,15.78,53.68,16.1Z"/><path class="cls-4" d="M58.48,14.62l0,0a.61.61,0,0,0,0,.11c0,.06,0,.1,0,.12.11.29.73.3.61-.07S58.62,14.48,58.48,14.62Z"/><path class="cls-4" d="M64,13.83c-.36-.5-1.11,0-.64.16C63.67,14.19,64.39,14.33,64,13.83Z"/><path class="cls-4" d="M51.09,18.62l.07-.13a.9.9,0,0,0-.4.63c.22.06.85-.36.83-.65S51.27,18.35,51.09,18.62Z"/><path class="cls-4" d="M56.76,17.2c.08.1.14.09.21.05.27,0,.75,0,.54-.31S56.83,17,56.76,17.2Z"/><path class="cls-4" d="M48.93,16.92a.54.54,0,0,0,0,.22c.32.11,1.14,0,.87-.51S49,16.55,48.93,16.92Z"/><path class="cls-4" d="M50,15.56h0c-.19,0-.32.06-.33.26a.39.39,0,0,0,.55-.21A.34.34,0,0,0,50,15.56Z"/><path class="cls-5" d="M51.09,26.88c-1.17.86,4.81,5.2,8.69,5a11.41,11.41,0,0,0,9.4-6c1-2.15.67-8.23-.61-7.81-.46.15.1,2.22-1.78,5.35-1.66,2.74-4.48,5.45-8.22,5.26C53.46,28.48,51.87,26.31,51.09,26.88Z"/><path class="cls-6" d="M63.91,11.82a.55.55,0,0,0-.48.84c.32.8,2.27,2.1,2.83,1.88s.59-.87-.23-1.5A4.83,4.83,0,0,0,63.91,11.82Z"/><path class="cls-6" d="M64.93,12.89s2.26-2.34,2.9-3.22A39.9,39.9,0,0,0,70,5.45s.2-.3.48-.25.2.47.2.47S69.07,8.9,68.43,9.79c-1.3,1.8-3,3.77-3,3.77Z"/><path class="cls-6" d="M68.87,8.48,65.14,8,65,8.23l1.86.3,1.85.31Z"/><path class="cls-6" d="M61.1,12.69c-3.85,1-9.55-1.77-9.55-1.77s3.8-4.43,7.07-4.77,8.93,2.27,8.93,2.27A13.49,13.49,0,0,1,61.1,12.69Z"/><path class="cls-7" d="M64,12.06a.82.82,0,0,0-.09.79A4.16,4.16,0,0,0,65.26,14l.09-.71s-.3-.2-.33-.38a.39.39,0,0,1,0-.27Z"/><path class="cls-7" d="M66.29,8.52a30.51,30.51,0,0,0-6.46.06c-3,.43-7.52,1.87-7.46,2.07S57.31,9,59.73,8.85s6.73,0,6.73,0Z"/><path class="cls-7" d="M64.77,8.63a3.28,3.28,0,0,1-.63,1.17,8.7,8.7,0,0,0-1.08,1.69,9.93,9.93,0,0,0,1.25-1.57c.36-.53.82-1.27.82-1.27Z"/><path class="cls-7" d="M61.77,8.65a5.29,5.29,0,0,1-.66,1.92c-.66,1.36-.93,1.75-.76,1.78s.65-1,1-1.74.84-2,.84-2Z"/><path class="cls-7" d="M58.85,8.93a3.72,3.72,0,0,1-.22,1.42c-.3,1-.66,1.57-.53,1.64s.48-.86.69-1.59.5-1.62.5-1.62Z"/><path class="cls-7" d="M55.72,9.67a2.39,2.39,0,0,1-.16.84c-.18.51-.47,1-.39,1a1.84,1.84,0,0,0,.54-.92l.28-1Z"/><path class="cls-7" d="M65.12,8.55A4.19,4.19,0,0,0,64,7.46a3.44,3.44,0,0,0-1.45-.59c-.08.07.83.32,1.15.53a12.23,12.23,0,0,1,1.18,1.14Z"/><path class="cls-7" d="M62,8.46a2.91,2.91,0,0,0-.92-1.23,4.57,4.57,0,0,0-2-.8c-.2.06,1.5.49,1.88.87a4.1,4.1,0,0,1,.69,1.2Z"/><path class="cls-7" d="M59.29,8.78a6.69,6.69,0,0,0-1.39-1.1,6.29,6.29,0,0,0-1.66-.42c-.19,0,1.28.33,1.69.62a9.06,9.06,0,0,1,1,1Z"/><path class="cls-7" d="M55.72,9.58s0-.24-.74-.5-1.06-.43-.91-.43a5.09,5.09,0,0,1,.91.24,5.46,5.46,0,0,1,1.07.61Z"/><path class="cls-3" d="M46.89,14.23c3,2.2,6.91,9.14,2.29,14.85s-11.37,6.06-16.47,2.7a11.48,11.48,0,0,1-1.42-18.14C36.43,8.75,42.38,10.92,46.89,14.23Z"/><path class="cls-4" d="M34.4,13.42h0Z"/><path class="cls-4" d="M35.09,14.14c.35-.17.75-.53.42-.85s-.78,0-1.1.12C34,13.81,34.16,14.59,35.09,14.14Z"/><path class="cls-4" d="M34.42,13.41,35,13.2A.78.78,0,0,0,34.42,13.41Z"/><path class="cls-4" d="M33.46,14.94c.13-.1.31-.3.14-.44a.23.23,0,0,0-.34.07.43.43,0,0,0-.21.29C33,15.15,33.32,15,33.46,14.94Z"/><path class="cls-4" d="M35.75,14.76a.35.35,0,0,0-.33,0c-.16,0-.35.08-.39.21a.11.11,0,0,0,0,.08l-.05,0,.05,0c0,.14.38,0,.51,0S36,14.91,35.75,14.76Z"/><path class="cls-4" d="M35,15.09l0,0Z"/><path class="cls-4" d="M36.48,14c-.15,0-.32.21-.23.35s.44.1.56,0C37.31,14.08,36.67,13.86,36.48,14Z"/><path class="cls-4" d="M37.11,13.05c-.11,0-.29-.06-.37,0a.15.15,0,0,0,0,.18c0,.1.18.2.25.23s.92.33,1,.07S37.29,13.08,37.11,13.05Z"/><path class="cls-4" d="M36.28,12.53c.15.09.71.07.77-.16s-.31-.28-.45-.26a.6.6,0,0,0-.24.14C36.21,12.32,36.1,12.44,36.28,12.53Z"/><path class="cls-4" d="M33.56,13.86c.29-.22,0-.34-.22-.3h0c-.14,0-.47.14-.38.33S33.45,13.94,33.56,13.86Z"/><path class="cls-4" d="M32.34,15.24c.11-.13.44-.67.06-.69a.3.3,0,0,0-.2.1,1.06,1.06,0,0,0-.38.53C31.67,15.69,32.15,15.46,32.34,15.24Z"/><path class="cls-4" d="M34.39,15.39a.8.8,0,0,0-.5,0,1,1,0,0,0-.67.52c-.12.52.79.15,1,.08S34.81,15.55,34.39,15.39Z"/><path class="cls-4" d="M35.92,15.8c-.15,0-.31.17-.3.29s.52.18.66.11C36.85,15.94,36.11,15.69,35.92,15.8Z"/><path class="cls-4" d="M39.5,12.92a.25.25,0,0,0-.25.1.7.7,0,0,0,1,0A.59.59,0,0,0,39.5,12.92Z"/><path class="cls-4" d="M38,14.26c.32.11,1.17.17,1.23-.27a.72.72,0,0,0-.68-.09C38.31,13.89,38,14,38,14.26Z"/><path class="cls-4" d="M38.64,12A.44.44,0,0,0,38,11.9a.25.25,0,0,0-.15.18A.59.59,0,0,0,38.64,12Z"/><path class="cls-4" d="M41,13.79c-.63,0,.18.81.53.55S41.2,13.63,41,13.79Z"/><path class="cls-4" d="M32,16.38c-.2-.15-.36,0-.47.18-.42.27-.93.91-.52,1.06S32,16.73,32,16.38Z"/><path class="cls-4" d="M30.86,15.56c-.54.1-.28,1,.23.39C31.41,15.56,31.09,15.44,30.86,15.56Z"/><path class="cls-4" d="M33.94,17.21a.27.27,0,0,0-.2.25c.2.14.74.15.87-.11S34.12,16.9,33.94,17.21Z"/><path class="cls-4" d="M38.73,15.73l0,0a.43.43,0,0,0,0,.11s0,.09,0,.11c.11.3.73.31.62-.06S38.88,15.59,38.73,15.73Z"/><path class="cls-4" d="M44.29,15c-.37-.51-1.12,0-.65.15C43.92,15.31,44.65,15.44,44.29,15Z"/><path class="cls-4" d="M31.34,19.73l.07-.13a.93.93,0,0,0-.4.63c.22.06.85-.36.84-.64S31.53,19.46,31.34,19.73Z"/><path class="cls-4" d="M37,18.32a.15.15,0,0,0,.22,0c.26,0,.74,0,.53-.31S37.09,18.1,37,18.32Z"/><path class="cls-4" d="M29.18,18a.4.4,0,0,0,0,.22c.32.11,1.13,0,.86-.51S29.27,17.66,29.18,18Z"/><path class="cls-4" d="M30.29,16.68h0a.27.27,0,0,0-.33.26.39.39,0,0,0,.55-.21A.33.33,0,0,0,30.29,16.68Z"/><path class="cls-5" d="M31.35,28c-1.18.86,4.8,5.2,8.68,5.05a11.45,11.45,0,0,0,9.41-6c1-2.14.66-8.23-.62-7.81-.46.16.1,2.22-1.78,5.35-1.65,2.74-4.48,5.45-8.21,5.27C33.71,29.59,32.12,27.43,31.35,28Z"/><path class="cls-6" d="M44.17,12.94a.54.54,0,0,0-.49.83c.32.8,2.27,2.1,2.83,1.88s.59-.87-.23-1.5A4.73,4.73,0,0,0,44.17,12.94Z"/><path class="cls-6" d="M45.18,14s2.26-2.34,2.91-3.23a42,42,0,0,0,2.14-4.22s.2-.3.47-.24.2.46.2.46S49.32,10,48.69,10.9c-1.3,1.81-3,3.77-3,3.77Z"/><path class="cls-6" d="M49.12,9.6c-.13,0-3.73-.47-3.73-.47l-.13.21,1.85.3L49,10Z"/><path class="cls-6" d="M41.35,13.8C37.5,14.78,31.8,12,31.8,12s3.81-4.43,7.07-4.76S47.8,9.54,47.8,9.54A13.44,13.44,0,0,1,41.35,13.8Z"/><path class="cls-7" d="M44.2,13.17a.82.82,0,0,0-.09.79,4.16,4.16,0,0,0,1.4,1.12l.1-.71s-.3-.2-.33-.38a.35.35,0,0,1,0-.27Z"/><path class="cls-7" d="M46.54,9.63a30.48,30.48,0,0,0-6.46.06c-3,.44-7.52,1.87-7.46,2.07S37.56,10.12,40,10s6.74,0,6.74,0Z"/><path class="cls-7" d="M45,9.74a3.41,3.41,0,0,1-.62,1.18,8.25,8.25,0,0,0-1.09,1.68A9.93,9.93,0,0,0,44.56,11c.36-.52.82-1.26.82-1.26Z"/><path class="cls-7" d="M42,9.77a5,5,0,0,1-.66,1.91c-.66,1.36-.92,1.75-.76,1.78s.66-1,1-1.74.85-2,.85-2Z"/><path class="cls-7" d="M39.11,10a3.63,3.63,0,0,1-.23,1.42c-.3,1-.66,1.57-.53,1.64s.49-.86.69-1.59.5-1.62.5-1.62Z"/><path class="cls-7" d="M36,10.78a2.13,2.13,0,0,1-.16.84c-.18.52-.47,1-.38,1a1.82,1.82,0,0,0,.53-.92l.28-1Z"/><path class="cls-7" d="M45.38,9.66a4.25,4.25,0,0,0-1.13-1.08A3.53,3.53,0,0,0,42.79,8c-.08.07.83.33,1.15.54a12.41,12.41,0,0,1,1.18,1.13Z"/><path class="cls-7" d="M42.3,9.57a2.91,2.91,0,0,0-.92-1.23,4.73,4.73,0,0,0-2.06-.8c-.2.07,1.5.49,1.88.87a4.1,4.1,0,0,1,.69,1.2Z"/><path class="cls-7" d="M39.54,9.89A6.42,6.42,0,0,0,38.15,8.8a6,6,0,0,0-1.66-.43c-.19,0,1.28.33,1.69.62a9.24,9.24,0,0,1,1,1Z"/><path class="cls-7" d="M36,10.69s0-.24-.73-.5-1.07-.42-.92-.42a3.94,3.94,0,0,1,.91.23,6.06,6.06,0,0,1,1.07.61Z"/><path class="cls-3" d="M80.54,24.8c3,2.2,6.91,9.14,2.29,14.85s-11.37,6.06-16.46,2.7a11.49,11.49,0,0,1-1.43-18.14C70.09,19.32,76,21.49,80.54,24.8Z"/><path class="cls-4" d="M68.05,24h0Z"/><path class="cls-4" d="M68.75,24.71c.35-.17.74-.53.41-.85s-.78,0-1.09.12C67.63,24.38,67.81,25.16,68.75,24.71Z"/><path class="cls-4" d="M68.07,24l.53-.21A.82.82,0,0,0,68.07,24Z"/><path class="cls-4" d="M67.12,25.51c.13-.1.31-.3.13-.44a.22.22,0,0,0-.33.07.44.44,0,0,0-.22.29C66.67,25.72,67,25.61,67.12,25.51Z"/><path class="cls-4" d="M69.4,25.33a.35.35,0,0,0-.33,0c-.15,0-.35.08-.38.21a.25.25,0,0,0,0,.08l0,0,0,0c0,.14.39,0,.51,0S69.67,25.47,69.4,25.33Z"/><path class="cls-4" d="M68.64,25.66h0Z"/><path class="cls-4" d="M70.13,24.54c-.15.05-.32.22-.23.36s.44.09.57,0C71,24.65,70.32,24.43,70.13,24.54Z"/><path class="cls-4" d="M70.76,23.62c-.1,0-.29-.06-.37,0a.14.14,0,0,0,0,.18c0,.1.18.2.25.23s.91.32,1,.06S71,23.65,70.76,23.62Z"/><path class="cls-4" d="M69.93,23.1c.16.09.72.06.77-.16s-.3-.28-.45-.26a.61.61,0,0,0-.24.14C69.86,22.89,69.75,23,69.93,23.1Z"/><path class="cls-4" d="M67.21,24.43c.3-.22,0-.34-.22-.3h0c-.13,0-.46.14-.37.32S67.1,24.51,67.21,24.43Z"/><path class="cls-4" d="M66,25.81c.1-.13.44-.67,0-.69-.06,0-.13,0-.19.1a1.15,1.15,0,0,0-.39.53C65.32,26.25,65.81,26,66,25.81Z"/><path class="cls-4" d="M68,26a.8.8,0,0,0-.5,0,1,1,0,0,0-.66.52c-.13.52.78.14,1,.08S68.47,26.12,68,26Z"/><path class="cls-4" d="M69.57,26.37c-.15.05-.3.17-.3.29s.52.18.67.11C70.5,26.51,69.77,26.26,69.57,26.37Z"/><path class="cls-4" d="M73.16,23.49a.23.23,0,0,0-.25.1.69.69,0,0,0,1,0A.57.57,0,0,0,73.16,23.49Z"/><path class="cls-4" d="M71.68,24.83c.31.11,1.16.17,1.23-.28a.75.75,0,0,0-.68-.08C72,24.46,71.68,24.55,71.68,24.83Z"/><path class="cls-4" d="M72.29,22.53a.44.44,0,0,0-.62-.06.28.28,0,0,0-.15.18A.59.59,0,0,0,72.29,22.53Z"/><path class="cls-4" d="M74.6,24.36c-.62,0,.18.81.53.55S74.85,24.2,74.6,24.36Z"/><path class="cls-4" d="M65.67,27c-.19-.15-.36,0-.47.18-.42.27-.92.91-.52,1.06S65.66,27.3,65.67,27Z"/><path class="cls-4" d="M64.52,26.13c-.54.1-.29,1,.23.38C65.07,26.13,64.74,26,64.52,26.13Z"/><path class="cls-4" d="M67.59,27.78a.28.28,0,0,0-.2.25c.21.14.74.15.88-.11S67.77,27.47,67.59,27.78Z"/><path class="cls-4" d="M72.38,26.3l0,0a.2.2,0,0,0,0,.11c0,.05,0,.09,0,.11.11.3.73.31.61-.06S72.53,26.16,72.38,26.3Z"/><path class="cls-4" d="M77.94,25.51c-.36-.5-1.12,0-.64.16C77.58,25.87,78.3,26,77.94,25.51Z"/><path class="cls-4" d="M65,30.3l.08-.13a.9.9,0,0,0-.4.63c.21.06.85-.36.83-.64S65.18,30,65,30.3Z"/><path class="cls-4" d="M70.67,28.89a.14.14,0,0,0,.21,0c.26,0,.74,0,.54-.31S70.74,28.67,70.67,28.89Z"/><path class="cls-4" d="M62.83,28.61a.36.36,0,0,0,0,.21c.32.11,1.13,0,.87-.5S62.93,28.23,62.83,28.61Z"/><path class="cls-4" d="M64,27.24h0a.27.27,0,0,0-.33.26.4.4,0,0,0,.56-.21A.36.36,0,0,0,64,27.24Z"/><path class="cls-5" d="M65,38.56c-1.17.86,4.8,5.2,8.69,5a11.47,11.47,0,0,0,9.4-6c1-2.14.67-8.23-.62-7.81-.45.15.11,2.22-1.78,5.35-1.65,2.74-4.47,5.45-8.21,5.27C67.36,40.16,65.78,38,65,38.56Z"/><path class="cls-6" d="M77.82,23.5a.55.55,0,0,0-.49.84c.33.8,2.28,2.1,2.84,1.88s.58-.87-.24-1.5A4.75,4.75,0,0,0,77.82,23.5Z"/><path class="cls-6" d="M78.84,24.57s2.26-2.34,2.9-3.22a39.9,39.9,0,0,0,2.14-4.22s.2-.3.48-.25.19.47.19.47S83,20.58,82.34,21.47c-1.3,1.8-3,3.77-3,3.77Z"/><path class="cls-6" d="M82.78,20.17c-.14,0-3.73-.47-3.73-.47l-.14.21,1.85.3,1.86.31Z"/><path class="cls-6" d="M75,24.37c-3.86,1-9.55-1.77-9.55-1.77s3.8-4.43,7.06-4.77,8.93,2.28,8.93,2.28A13.44,13.44,0,0,1,75,24.37Z"/><path class="cls-7" d="M77.85,23.74a.8.8,0,0,0-.08.79,4.16,4.16,0,0,0,1.4,1.12l.09-.71s-.3-.2-.33-.38a.41.41,0,0,1,0-.27Z"/><path class="cls-7" d="M80.19,20.2a30.48,30.48,0,0,0-6.46.06c-3,.43-7.51,1.87-7.46,2.07s5-1.64,7.37-1.8,6.73,0,6.73,0Z"/><path class="cls-7" d="M78.68,20.31a3.61,3.61,0,0,1-.63,1.18A7.52,7.52,0,0,0,77,23.17a10.55,10.55,0,0,0,1.25-1.57c.35-.52.81-1.26.81-1.26Z"/><path class="cls-7" d="M75.68,20.34A5.29,5.29,0,0,1,75,22.25c-.66,1.36-.93,1.75-.77,1.78s.66-1,1-1.74.85-2,.85-2Z"/><path class="cls-7" d="M72.76,20.61A3.65,3.65,0,0,1,72.53,22c-.29,1-.66,1.57-.52,1.64s.48-.86.68-1.59.5-1.62.5-1.62Z"/><path class="cls-7" d="M69.63,21.35a2.39,2.39,0,0,1-.16.84c-.19.52-.48,1-.39,1a1.79,1.79,0,0,0,.54-.92c.13-.46.27-1,.27-1Z"/><path class="cls-7" d="M79,20.23a4.38,4.38,0,0,0-1.13-1.09,3.56,3.56,0,0,0-1.46-.59c-.07.07.83.33,1.15.54a12.81,12.81,0,0,1,1.19,1.13Z"/><path class="cls-7" d="M76,20.14A2.91,2.91,0,0,0,75,18.91a4.68,4.68,0,0,0-2.06-.8c-.19.07,1.5.49,1.88.87a4,4,0,0,1,.7,1.2Z"/><path class="cls-7" d="M73.19,20.46a6.28,6.28,0,0,0-1.38-1.09,6.1,6.1,0,0,0-1.66-.43c-.2,0,1.27.33,1.69.62a8.84,8.84,0,0,1,1,1Z"/><path class="cls-7" d="M69.62,21.26s-.05-.24-.73-.5-1.06-.42-.92-.43a4.69,4.69,0,0,1,.91.24,5.66,5.66,0,0,1,1.08.61Z"/><path class="cls-3" d="M60,21.56c3,2.19,6.91,9.14,2.29,14.85s-11.38,6.06-16.47,2.7A11.48,11.48,0,0,1,44.38,21C49.52,16.08,55.47,18.25,60,21.56Z"/><path class="cls-4" d="M47.49,20.74h0Z"/><path class="cls-4" d="M48.18,21.47c.35-.17.74-.53.41-.85s-.77,0-1.09.12C47.07,21.14,47.25,21.92,48.18,21.47Z"/><path class="cls-4" d="M47.5,20.74l.54-.21A.83.83,0,0,0,47.5,20.74Z"/><path class="cls-4" d="M46.55,22.27c.13-.1.31-.3.13-.44a.22.22,0,0,0-.33.07.44.44,0,0,0-.22.29C46.1,22.48,46.41,22.37,46.55,22.27Z"/><path class="cls-4" d="M48.83,22.09a.35.35,0,0,0-.33,0c-.15,0-.35.08-.38.21a.11.11,0,0,0,0,.08l0,0,0,0c0,.14.38,0,.5,0S49.1,22.23,48.83,22.09Z"/><path class="cls-4" d="M48.07,22.42h0Z"/><path class="cls-4" d="M49.57,21.3c-.15.05-.32.22-.24.36s.44.09.57,0C50.4,21.41,49.75,21.19,49.57,21.3Z"/><path class="cls-4" d="M50.19,20.38c-.1,0-.29-.06-.37,0a.15.15,0,0,0,0,.18c0,.1.18.2.25.23s.92.32,1,.06S50.38,20.41,50.19,20.38Z"/><path class="cls-4" d="M49.36,19.86c.16.09.72.06.78-.16s-.31-.28-.45-.26a.58.58,0,0,0-.25.14C49.29,19.65,49.18,19.77,49.36,19.86Z"/><path class="cls-4" d="M46.65,21.19c.29-.22,0-.34-.22-.3h0c-.13,0-.46.14-.37.32S46.54,21.27,46.65,21.19Z"/><path class="cls-4" d="M45.43,22.57c.11-.13.44-.67.06-.69a.26.26,0,0,0-.2.1,1.06,1.06,0,0,0-.38.53C44.76,23,45.24,22.79,45.43,22.57Z"/><path class="cls-4" d="M47.48,22.72a.8.8,0,0,0-.5,0,1,1,0,0,0-.67.52c-.13.52.78.14,1,.08S47.9,22.88,47.48,22.72Z"/><path class="cls-4" d="M49,23.13c-.14.05-.3.17-.3.29s.53.18.67.11C49.93,23.27,49.2,23,49,23.13Z"/><path class="cls-4" d="M52.59,20.25a.23.23,0,0,0-.25.1.69.69,0,0,0,1,0A.57.57,0,0,0,52.59,20.25Z"/><path class="cls-4" d="M51.11,21.59c.32.11,1.17.17,1.23-.28a.75.75,0,0,0-.68-.08C51.4,21.22,51.12,21.31,51.11,21.59Z"/><path class="cls-4" d="M51.73,19.29a.46.46,0,0,0-.63-.06.28.28,0,0,0-.15.18A.6.6,0,0,0,51.73,19.29Z"/><path class="cls-4" d="M54,21.12c-.63,0,.18.81.53.55S54.29,21,54,21.12Z"/><path class="cls-4" d="M45.11,23.71c-.2-.15-.36,0-.47.18-.42.27-.93.91-.53,1.06S45.09,24.06,45.11,23.71Z"/><path class="cls-4" d="M44,22.89c-.54.1-.28,1,.23.38C44.5,22.89,44.17,22.77,44,22.89Z"/><path class="cls-4" d="M47,24.54a.27.27,0,0,0-.19.25c.2.14.74.15.87-.11S47.2,24.23,47,24.54Z"/><path class="cls-4" d="M51.82,23.06l0,0a.35.35,0,0,0,0,.11c0,.05,0,.09,0,.11.11.3.73.31.61-.06S52,22.92,51.82,23.06Z"/><path class="cls-4" d="M57.37,22.27c-.36-.5-1.11,0-.64.16C57,22.63,57.73,22.77,57.37,22.27Z"/><path class="cls-4" d="M44.43,27.06l.07-.13a.9.9,0,0,0-.4.63c.22.06.85-.36.83-.64C44.91,26.49,44.61,26.79,44.43,27.06Z"/><path class="cls-4" d="M50.1,25.65a.14.14,0,0,0,.21,0c.27,0,.75,0,.54-.31S50.17,25.43,50.1,25.65Z"/><path class="cls-4" d="M42.27,25.37a.46.46,0,0,0,0,.21c.32.11,1.14,0,.87-.5S42.36,25,42.27,25.37Z"/><path class="cls-4" d="M43.38,24h0a.26.26,0,0,0-.33.26.39.39,0,0,0,.55-.21A.34.34,0,0,0,43.38,24Z"/><path class="cls-5" d="M44.43,35.32c-1.17.86,4.81,5.2,8.69,5a11.44,11.44,0,0,0,9.4-6c1-2.14.67-8.23-.61-7.81-.46.15.1,2.22-1.78,5.35-1.66,2.74-4.48,5.45-8.22,5.27C46.8,36.92,45.21,34.75,44.43,35.32Z"/><path class="cls-6" d="M57.25,20.26a.55.55,0,0,0-.48.84c.32.8,2.27,2.1,2.83,1.88s.59-.87-.23-1.5A4.83,4.83,0,0,0,57.25,20.26Z"/><path class="cls-6" d="M58.27,21.33s2.26-2.34,2.9-3.22a39.9,39.9,0,0,0,2.14-4.22s.2-.3.48-.25.2.47.2.47-1.58,3.23-2.22,4.12c-1.3,1.8-3,3.77-3,3.77Z"/><path class="cls-6" d="M62.21,16.93c-.14,0-3.73-.47-3.73-.47l-.14.21,1.86.3,1.85.31Z"/><path class="cls-6" d="M54.44,21.13c-3.85,1-9.55-1.77-9.55-1.77s3.8-4.43,7.07-4.77,8.93,2.28,8.93,2.28A13.5,13.5,0,0,1,54.44,21.13Z"/><path class="cls-7" d="M57.29,20.5a.82.82,0,0,0-.09.79,4.16,4.16,0,0,0,1.4,1.12l.09-.71s-.3-.2-.33-.38a.41.41,0,0,1,0-.27Z"/><path class="cls-7" d="M59.63,17a30.51,30.51,0,0,0-6.46.06c-3,.43-7.52,1.87-7.46,2.07s4.94-1.64,7.36-1.8,6.73,0,6.73,0Z"/><path class="cls-7" d="M58.11,17.07a3.36,3.36,0,0,1-.63,1.18,8.47,8.47,0,0,0-1.08,1.68,9.93,9.93,0,0,0,1.25-1.57c.36-.52.82-1.26.82-1.26Z"/><path class="cls-7" d="M55.11,17.1A5.29,5.29,0,0,1,54.45,19c-.66,1.36-.93,1.75-.76,1.78s.65-1,1-1.74.84-2,.84-2Z"/><path class="cls-7" d="M52.19,17.37A3.72,3.72,0,0,1,52,18.79c-.3,1-.66,1.57-.53,1.64s.48-.86.69-1.59.5-1.62.5-1.62Z"/><path class="cls-7" d="M49.06,18.11a2.39,2.39,0,0,1-.16.84c-.18.52-.47,1-.39,1a1.79,1.79,0,0,0,.54-.92l.28-1Z"/><path class="cls-7" d="M58.46,17a4.19,4.19,0,0,0-1.13-1.09,3.59,3.59,0,0,0-1.45-.59c-.08.07.83.33,1.15.54A12.41,12.41,0,0,1,58.21,17Z"/><path class="cls-7" d="M55.38,16.9a2.91,2.91,0,0,0-.92-1.23,4.7,4.7,0,0,0-2.05-.8c-.2.07,1.5.49,1.88.87a4.1,4.1,0,0,1,.69,1.2Z"/><path class="cls-7" d="M52.63,17.22a6.42,6.42,0,0,0-1.39-1.09,6,6,0,0,0-1.66-.43c-.19,0,1.28.33,1.69.62a8.84,8.84,0,0,1,1,1Z"/><path class="cls-7" d="M49.06,18s-.05-.24-.74-.5-1.06-.42-.91-.43a5.09,5.09,0,0,1,.91.24,5.46,5.46,0,0,1,1.07.61Z"/><path class="cls-3" d="M69.7,31.75c3,2.2,6.91,9.14,2.29,14.86s-11.38,6-16.47,2.69A11.47,11.47,0,0,1,54.1,31.17C59.24,26.27,65.19,28.44,69.7,31.75Z"/><path class="cls-4" d="M57.21,30.94h0Z"/><path class="cls-4" d="M57.9,31.66c.35-.17.74-.53.41-.85s-.77.05-1.09.12C56.79,31.33,57,32.11,57.9,31.66Z"/><path class="cls-4" d="M57.22,30.93l.54-.21A.88.88,0,0,0,57.22,30.93Z"/><path class="cls-4" d="M56.27,32.46c.13-.09.31-.29.13-.44s-.25,0-.33.08a.41.41,0,0,0-.22.28C55.82,32.68,56.13,32.56,56.27,32.46Z"/><path class="cls-4" d="M58.55,32.28a.35.35,0,0,0-.33,0c-.15,0-.35.09-.38.21a.31.31,0,0,0,0,.09l0,0,.05,0c0,.14.38,0,.5,0S58.82,32.43,58.55,32.28Z"/><path class="cls-4" d="M57.79,32.62h0Z"/><path class="cls-4" d="M59.29,31.5c-.15,0-.32.21-.24.36s.44.09.57,0C60.12,31.6,59.47,31.39,59.29,31.5Z"/><path class="cls-4" d="M59.91,30.58c-.1,0-.29-.07-.37,0a.15.15,0,0,0,0,.18c0,.11.18.2.25.23s.91.33,1,.07S60.1,30.6,59.91,30.58Z"/><path class="cls-4" d="M59.08,30.06c.16.08.72.06.78-.17s-.31-.27-.45-.25a.55.55,0,0,0-.25.13C59,29.85,58.9,30,59.08,30.06Z"/><path class="cls-4" d="M56.37,31.38c.29-.22,0-.34-.22-.29h0c-.13,0-.46.15-.37.33S56.26,31.46,56.37,31.38Z"/><path class="cls-4" d="M55.15,32.76c.11-.12.44-.67.06-.69a.3.3,0,0,0-.2.1,1,1,0,0,0-.38.54C54.48,33.21,55,33,55.15,32.76Z"/><path class="cls-4" d="M57.2,32.92a.71.71,0,0,0-.51,0,1,1,0,0,0-.66.51c-.13.52.78.15,1,.08S57.62,33.07,57.2,32.92Z"/><path class="cls-4" d="M58.72,33.32c-.14,0-.3.17-.3.29s.53.18.67.11C59.65,33.46,58.92,33.21,58.72,33.32Z"/><path class="cls-4" d="M62.31,30.44a.25.25,0,0,0-.25.1.68.68,0,0,0,1,0A.57.57,0,0,0,62.31,30.44Z"/><path class="cls-4" d="M60.83,31.78c.32.11,1.17.17,1.23-.27a.72.72,0,0,0-.68-.08C61.12,31.41,60.83,31.5,60.83,31.78Z"/><path class="cls-4" d="M61.44,29.48a.44.44,0,0,0-.62-.06.3.3,0,0,0-.15.18A.59.59,0,0,0,61.44,29.48Z"/><path class="cls-4" d="M63.76,31.31c-.63,0,.18.81.53.55S64,31.15,63.76,31.31Z"/><path class="cls-4" d="M54.82,33.9c-.19-.15-.35,0-.46.18-.42.27-.93.91-.53,1.06S54.81,34.25,54.82,33.9Z"/><path class="cls-4" d="M53.67,33.08c-.54.1-.28,1,.23.39C54.22,33.09,53.89,33,53.67,33.08Z"/><path class="cls-4" d="M56.74,34.73a.27.27,0,0,0-.19.25c.2.14.73.16.87-.11S56.92,34.42,56.74,34.73Z"/><path class="cls-4" d="M61.54,33.25l0,0a.45.45,0,0,0,0,.11s0,.1,0,.11c.11.3.73.31.61-.06S61.68,33.11,61.54,33.25Z"/><path class="cls-4" d="M67.09,32.47c-.36-.5-1.12,0-.64.16C66.73,32.83,67.45,33,67.09,32.47Z"/><path class="cls-4" d="M54.15,37.26l.07-.14a.92.92,0,0,0-.4.64c.22.05.85-.37.83-.65S54.33,37,54.15,37.26Z"/><path class="cls-4" d="M59.82,35.84a.16.16,0,0,0,.21,0c.26,0,.75,0,.54-.32S59.89,35.62,59.82,35.84Z"/><path class="cls-4" d="M52,35.56a.51.51,0,0,0,0,.22c.32.11,1.14,0,.87-.51S52.08,35.18,52,35.56Z"/><path class="cls-4" d="M53.1,34.2h0a.26.26,0,0,0-.33.26.39.39,0,0,0,.55-.21A.33.33,0,0,0,53.1,34.2Z"/><path class="cls-5" d="M54.15,45.52c-1.17.86,4.81,5.19,8.69,5a11.45,11.45,0,0,0,9.4-6c1-2.14.67-8.23-.61-7.8-.46.15.1,2.21-1.78,5.34-1.66,2.75-4.48,5.45-8.22,5.27C56.52,47.11,54.93,45,54.15,45.52Z"/><path class="cls-6" d="M67,30.46a.54.54,0,0,0-.48.83c.32.8,2.27,2.1,2.83,1.88s.59-.87-.23-1.49A4.64,4.64,0,0,0,67,30.46Z"/><path class="cls-6" d="M68,31.53s2.26-2.34,2.9-3.22A39.83,39.83,0,0,0,73,24.08a.55.55,0,0,1,.48-.24c.28.05.2.47.2.47s-1.58,3.22-2.22,4.11c-1.3,1.81-3,3.77-3,3.77Z"/><path class="cls-6" d="M71.93,27.12c-.14,0-3.73-.47-3.73-.47l-.14.21,1.86.31,1.85.3Z"/><path class="cls-6" d="M64.16,31.32c-3.85,1-9.55-1.76-9.55-1.76s3.8-4.44,7.07-4.77,8.93,2.27,8.93,2.27A13.5,13.5,0,0,1,64.16,31.32Z"/><path class="cls-7" d="M67,30.7a.81.81,0,0,0-.09.79,4.09,4.09,0,0,0,1.4,1.11l.09-.7s-.3-.21-.33-.38a.44.44,0,0,1,0-.28Z"/><path class="cls-7" d="M69.35,27.15a30.51,30.51,0,0,0-6.46.06c-3,.44-7.52,1.87-7.46,2.07s4.94-1.64,7.36-1.8,6.73,0,6.73,0Z"/><path class="cls-7" d="M67.83,27.26a3.36,3.36,0,0,1-.63,1.18,8.79,8.79,0,0,0-1.08,1.68,10.21,10.21,0,0,0,1.25-1.56c.36-.53.82-1.27.82-1.27Z"/><path class="cls-7" d="M64.83,27.29a5.29,5.29,0,0,1-.66,1.91c-.66,1.36-.93,1.76-.76,1.79s.65-1,1-1.75.84-2,.84-2Z"/><path class="cls-7" d="M61.91,27.56A3.7,3.7,0,0,1,61.69,29c-.3,1-.66,1.58-.53,1.64s.48-.86.69-1.59.5-1.62.5-1.62Z"/><path class="cls-7" d="M58.78,28.3a2.36,2.36,0,0,1-.16.84c-.18.52-.47,1-.39,1a1.75,1.75,0,0,0,.54-.91l.28-1Z"/><path class="cls-7" d="M68.18,27.18a4.07,4.07,0,0,0-1.13-1.08,3.51,3.51,0,0,0-1.45-.6c-.08.07.82.33,1.15.54a12.23,12.23,0,0,1,1.18,1.14Z"/><path class="cls-7" d="M65.1,27.09a2.85,2.85,0,0,0-.92-1.22,4.45,4.45,0,0,0-2.05-.8c-.2.06,1.5.49,1.88.86a4.23,4.23,0,0,1,.69,1.21Z"/><path class="cls-7" d="M62.35,27.41A6.75,6.75,0,0,0,61,26.32a5.58,5.58,0,0,0-1.66-.42,17.77,17.77,0,0,1,1.69.62,9.06,9.06,0,0,1,1,1Z"/><path class="cls-7" d="M58.78,28.22s-.05-.25-.74-.5-1.06-.43-.91-.43a4.75,4.75,0,0,1,.91.23,6.49,6.49,0,0,1,1.07.61Z"/><path class="cls-3" d="M18.85,21.61c-3,2.19-6.91,9.14-2.29,14.85s11.37,6,16.47,2.69A11.49,11.49,0,0,0,34.45,21C29.31,16.12,23.35,18.29,18.85,21.61Z"/><path class="cls-4" d="M31.34,20.79h0Z"/><path class="cls-4" d="M30.65,21.51c-.35-.17-.75-.53-.42-.84s.78,0,1.1.12C31.76,21.19,31.58,22,30.65,21.51Z"/><path class="cls-4" d="M31.32,20.78l-.53-.2A.83.83,0,0,1,31.32,20.78Z"/><path class="cls-4" d="M32.28,22.31c-.13-.09-.31-.29-.14-.43a.23.23,0,0,1,.34.07.43.43,0,0,1,.21.29C32.72,22.53,32.41,22.41,32.28,22.31Z"/><path class="cls-4" d="M30,22.13a.32.32,0,0,1,.33,0c.16,0,.35.08.39.21a.11.11,0,0,1,0,.08l.05,0-.05,0c0,.15-.38,0-.51,0S29.72,22.28,30,22.13Z"/><path class="cls-4" d="M30.76,22.47h0Z"/><path class="cls-4" d="M29.26,21.35c.15,0,.32.21.23.36s-.44.09-.56,0C28.42,21.45,29.07,21.24,29.26,21.35Z"/><path class="cls-4" d="M28.63,20.43c.1,0,.29-.07.37,0a.14.14,0,0,1,0,.17c0,.11-.18.2-.25.24s-.92.32-1,.06S28.44,20.45,28.63,20.43Z"/><path class="cls-4" d="M29.46,19.91c-.15.08-.71.06-.77-.16s.31-.28.45-.26a.5.5,0,0,1,.24.14C29.53,19.7,29.64,19.81,29.46,19.91Z"/><path class="cls-4" d="M32.18,21.23c-.29-.21,0-.33.22-.29h0c.14,0,.47.15.38.33S32.29,21.32,32.18,21.23Z"/><path class="cls-4" d="M33.4,22.61c-.11-.12-.44-.66-.06-.69a.3.3,0,0,1,.2.1,1.15,1.15,0,0,1,.38.54C34.07,23.06,33.59,22.83,33.4,22.61Z"/><path class="cls-4" d="M31.35,22.77a.74.74,0,0,1,.5,0c.28.08.62.3.67.51.12.52-.79.15-1,.08S30.92,22.93,31.35,22.77Z"/><path class="cls-4" d="M29.82,23.18c.15.05.31.17.3.29s-.52.17-.67.11C28.89,23.31,29.63,23.06,29.82,23.18Z"/><path class="cls-4" d="M26.24,20.29a.27.27,0,0,1,.25.11.69.69,0,0,1-1,0A.61.61,0,0,1,26.24,20.29Z"/><path class="cls-4" d="M27.71,21.64c-.31.11-1.16.16-1.23-.28a.76.76,0,0,1,.68-.08C27.43,21.27,27.71,21.36,27.71,21.64Z"/><path class="cls-4" d="M27.1,19.34a.45.45,0,0,1,.62-.07.3.3,0,0,1,.15.18A.59.59,0,0,1,27.1,19.34Z"/><path class="cls-4" d="M24.79,21.17c.63,0-.18.8-.53.55S24.54,21,24.79,21.17Z"/><path class="cls-4" d="M33.72,23.76c.2-.16.36,0,.47.18.42.27.92.9.52,1.06S33.73,24.1,33.72,23.76Z"/><path class="cls-4" d="M34.87,22.93c.55.11.29,1-.23.39C34.33,22.94,34.65,22.82,34.87,22.93Z"/><path class="cls-4" d="M31.8,24.58a.28.28,0,0,1,.2.25c-.2.15-.74.16-.87-.11S31.62,24.27,31.8,24.58Z"/><path class="cls-4" d="M27,23.1l0,0a.52.52,0,0,1,0,.11s0,.1,0,.12c-.12.29-.73.3-.62-.07S26.86,23,27,23.1Z"/><path class="cls-4" d="M21.45,22.32c.37-.5,1.12,0,.65.16C21.82,22.68,21.09,22.81,21.45,22.32Z"/><path class="cls-4" d="M34.4,27.11,34.33,27a.87.87,0,0,1,.39.63c-.21.06-.85-.37-.83-.65S34.21,26.84,34.4,27.11Z"/><path class="cls-4" d="M28.72,25.69a.15.15,0,0,1-.21,0c-.26,0-.74,0-.54-.32S28.65,25.47,28.72,25.69Z"/><path class="cls-4" d="M36.56,25.41a.41.41,0,0,1,0,.22c-.32.11-1.13,0-.86-.51S36.47,25,36.56,25.41Z"/><path class="cls-4" d="M35.45,24.05h0a.27.27,0,0,1,.33.27.4.4,0,0,1-.56-.22A.43.43,0,0,1,35.45,24.05Z"/><path class="cls-5" d="M34.39,35.37c1.18.86-4.8,5.19-8.69,5a11.44,11.44,0,0,1-9.4-6c-1-2.15-.67-8.24.62-7.81.46.15-.1,2.22,1.78,5.34,1.65,2.75,4.48,5.46,8.21,5.27C32,37,33.62,34.8,34.39,35.37Z"/><path class="cls-6" d="M21.57,20.31a.55.55,0,0,1,.49.84c-.32.79-2.27,2.09-2.83,1.88s-.59-.87.23-1.5A4.76,4.76,0,0,1,21.57,20.31Z"/><path class="cls-6" d="M20.56,21.38S18.3,19,17.65,18.16a41.89,41.89,0,0,1-2.14-4.23s-.2-.29-.47-.24-.2.47-.2.47,1.57,3.23,2.21,4.11c1.3,1.81,3,3.78,3,3.78Z"/><path class="cls-6" d="M16.61,17l3.74-.47.13.21L18.63,17l-1.85.3Z"/><path class="cls-6" d="M24.39,21.18c3.85,1,9.55-1.77,9.55-1.77S30.13,15,26.87,14.64s-8.93,2.27-8.93,2.27A13.5,13.5,0,0,0,24.39,21.18Z"/><path class="cls-7" d="M21.54,20.55a.81.81,0,0,1,.09.79,4.1,4.1,0,0,1-1.41,1.11l-.09-.7s.3-.21.33-.38a.39.39,0,0,0,0-.27Z"/><path class="cls-7" d="M19.2,17a29.75,29.75,0,0,1,6.46.06c3,.43,7.52,1.86,7.46,2.06s-4.94-1.63-7.36-1.8-6.74,0-6.74,0Z"/><path class="cls-7" d="M20.72,17.12a3.34,3.34,0,0,0,.62,1.17A8.47,8.47,0,0,1,22.43,20a11,11,0,0,1-1.26-1.57c-.35-.53-.81-1.27-.81-1.27Z"/><path class="cls-7" d="M23.71,17.14a5.23,5.23,0,0,0,.67,1.91c.66,1.36.92,1.76.76,1.79s-.66-1-1-1.74-.85-2-.85-2Z"/><path class="cls-7" d="M26.63,17.41a3.69,3.69,0,0,0,.23,1.43c.3,1,.66,1.57.52,1.64s-.48-.87-.68-1.59-.5-1.63-.5-1.63Z"/><path class="cls-7" d="M29.77,18.16a2.13,2.13,0,0,0,.16.84c.18.51.47,1,.38,1a1.93,1.93,0,0,1-.53-.92l-.28-1Z"/><path class="cls-7" d="M20.36,17A4.38,4.38,0,0,1,21.49,16a3.53,3.53,0,0,1,1.46-.6c.08.07-.83.33-1.15.54A12.23,12.23,0,0,0,20.62,17Z"/><path class="cls-7" d="M23.44,17a2.91,2.91,0,0,1,.92-1.23,4.6,4.6,0,0,1,2.06-.8c.19.06-1.5.49-1.88.86A4.23,4.23,0,0,0,23.85,17Z"/><path class="cls-7" d="M26.2,17.26a6.6,6.6,0,0,1,1.38-1.09,5.66,5.66,0,0,1,1.66-.42c.2,0-1.27.33-1.68.62a9.48,9.48,0,0,0-1,1Z"/><path class="cls-7" d="M29.77,18.07s.05-.24.73-.5,1.07-.43.92-.43a4.16,4.16,0,0,0-.91.24,5.61,5.61,0,0,0-1.07.6Z"/><path class="cls-3" d="M13.09,34.44c-3,2.19-6.91,9.14-2.29,14.85S22.17,55.34,27.27,52a11.47,11.47,0,0,0,1.42-18.13C23.55,29,17.6,31.12,13.09,34.44Z"/><path class="cls-4" d="M25.58,33.62h0Z"/><path class="cls-4" d="M24.89,34.34c-.35-.17-.75-.53-.42-.84s.78,0,1.1.12C26,34,25.82,34.8,24.89,34.34Z"/><path class="cls-4" d="M25.56,33.62,25,33.41A.78.78,0,0,1,25.56,33.62Z"/><path class="cls-4" d="M26.52,35.15c-.13-.1-.31-.3-.14-.44a.23.23,0,0,1,.34.07.43.43,0,0,1,.21.29C27,35.36,26.66,35.25,26.52,35.15Z"/><path class="cls-4" d="M24.23,35a.32.32,0,0,1,.33,0c.16,0,.35.08.39.21a.11.11,0,0,1,0,.08l.05,0-.05,0c0,.15-.38,0-.51,0S24,35.11,24.23,35Z"/><path class="cls-4" d="M25,35.3h0Z"/><path class="cls-4" d="M23.5,34.18c.15,0,.32.21.23.36s-.44.09-.56,0C22.67,34.28,23.31,34.07,23.5,34.18Z"/><path class="cls-4" d="M22.87,33.26c.11,0,.29-.07.37,0a.14.14,0,0,1,0,.17c0,.11-.18.2-.25.24s-.92.32-1,.06S22.68,33.28,22.87,33.26Z"/><path class="cls-4" d="M23.7,32.74c-.15.08-.71.06-.77-.16s.31-.28.45-.26a.5.5,0,0,1,.24.14C23.77,32.53,23.88,32.64,23.7,32.74Z"/><path class="cls-4" d="M26.42,34.06c-.29-.21,0-.33.22-.29h0c.14,0,.47.14.38.32S26.53,34.15,26.42,34.06Z"/><path class="cls-4" d="M27.64,35.45c-.11-.13-.44-.67-.06-.7a.27.27,0,0,1,.2.11,1,1,0,0,1,.38.53C28.31,35.89,27.83,35.66,27.64,35.45Z"/><path class="cls-4" d="M25.59,35.6a.74.74,0,0,1,.5,0c.29.08.62.3.67.51.12.52-.79.15-1,.08S25.17,35.76,25.59,35.6Z"/><path class="cls-4" d="M24.06,36c.15.05.31.17.3.29s-.52.17-.67.11C23.13,36.14,23.87,35.89,24.06,36Z"/><path class="cls-4" d="M20.48,33.12a.26.26,0,0,1,.25.11.69.69,0,0,1-1.05,0A.61.61,0,0,1,20.48,33.12Z"/><path class="cls-4" d="M22,34.47c-.32.11-1.17.16-1.24-.28a.77.77,0,0,1,.69-.08C21.67,34.1,22,34.19,22,34.47Z"/><path class="cls-4" d="M21.34,32.17A.45.45,0,0,1,22,32.1a.29.29,0,0,1,.15.19A.61.61,0,0,1,21.34,32.17Z"/><path class="cls-4" d="M19,34c.63,0-.18.8-.53.55S18.78,33.83,19,34Z"/><path class="cls-4" d="M28,36.59c.2-.16.36,0,.47.18.42.27.93.9.52,1.06S28,36.93,28,36.59Z"/><path class="cls-4" d="M29.11,35.76c.55.11.29,1-.22.39C28.57,35.77,28.89,35.65,29.11,35.76Z"/><path class="cls-4" d="M26,37.41a.29.29,0,0,1,.2.25c-.2.15-.74.16-.87-.11S25.86,37.1,26,37.41Z"/><path class="cls-4" d="M21.25,35.94l0,0a.52.52,0,0,1,0,.11s0,.1,0,.12c-.12.29-.73.3-.62-.07S21.1,35.79,21.25,35.94Z"/><path class="cls-4" d="M15.69,35.15c.37-.5,1.12,0,.65.16C16.06,35.51,15.33,35.64,15.69,35.15Z"/><path class="cls-4" d="M28.64,39.94l-.07-.13a.93.93,0,0,1,.4.63c-.22.06-.85-.37-.84-.65S28.45,39.67,28.64,39.94Z"/><path class="cls-4" d="M23,38.52a.17.17,0,0,1-.22,0c-.26,0-.74,0-.54-.32S22.89,38.3,23,38.52Z"/><path class="cls-4" d="M30.8,38.24a.41.41,0,0,1,0,.22c-.32.11-1.13,0-.86-.51S30.71,37.87,30.8,38.24Z"/><path class="cls-4" d="M29.69,36.88h0a.27.27,0,0,1,.33.27.4.4,0,0,1-.56-.22A.43.43,0,0,1,29.69,36.88Z"/><path class="cls-5" d="M28.63,48.2c1.18.86-4.8,5.19-8.68,5a11.44,11.44,0,0,1-9.41-6c-1-2.15-.67-8.23.62-7.81.46.15-.1,2.22,1.78,5.34,1.65,2.75,4.48,5.46,8.21,5.27C26.27,49.8,27.86,47.63,28.63,48.2Z"/><path class="cls-6" d="M15.81,33.14a.55.55,0,0,1,.49.84c-.32.8-2.27,2.09-2.83,1.88s-.59-.87.23-1.5A4.76,4.76,0,0,1,15.81,33.14Z"/><path class="cls-6" d="M14.8,34.21S12.54,31.87,11.89,31a42,42,0,0,1-2.14-4.22s-.2-.3-.47-.25-.2.47-.2.47,1.58,3.23,2.21,4.11c1.3,1.81,3,3.78,3,3.78Z"/><path class="cls-6" d="M10.86,29.8l3.73-.47.13.22-1.85.3-1.85.3Z"/><path class="cls-6" d="M18.63,34c3.85,1,9.55-1.77,9.55-1.77s-3.81-4.43-7.07-4.77-8.93,2.27-8.93,2.27A13.5,13.5,0,0,0,18.63,34Z"/><path class="cls-7" d="M15.78,33.38a.81.81,0,0,1,.09.79,4.09,4.09,0,0,1-1.4,1.11l-.1-.7s.3-.21.33-.38a.39.39,0,0,0,0-.27Z"/><path class="cls-7" d="M13.44,29.84a29.75,29.75,0,0,1,6.46.06c3,.43,7.52,1.86,7.46,2.07s-4.94-1.64-7.36-1.8-6.74,0-6.74,0Z"/><path class="cls-7" d="M15,30a3.34,3.34,0,0,0,.62,1.17,8.47,8.47,0,0,1,1.09,1.69,10.44,10.44,0,0,1-1.25-1.57c-.36-.53-.82-1.27-.82-1.27Z"/><path class="cls-7" d="M18,30a5.23,5.23,0,0,0,.67,1.91c.66,1.36.92,1.76.76,1.79s-.66-1-1-1.74-.85-2-.85-2Z"/><path class="cls-7" d="M20.87,30.24a3.69,3.69,0,0,0,.23,1.43c.3,1,.66,1.57.52,1.64s-.48-.87-.68-1.59-.5-1.63-.5-1.63Z"/><path class="cls-7" d="M24,31a2.13,2.13,0,0,0,.16.84c.18.51.47,1,.38,1a1.93,1.93,0,0,1-.53-.92l-.28-1Z"/><path class="cls-7" d="M14.6,29.87a4.38,4.38,0,0,1,1.13-1.09,3.46,3.46,0,0,1,1.46-.59c.08.07-.83.32-1.15.53a12.23,12.23,0,0,0-1.18,1.14Z"/><path class="cls-7" d="M17.68,29.78a2.91,2.91,0,0,1,.92-1.23,4.6,4.6,0,0,1,2.06-.8c.19.06-1.5.49-1.88.87a4.1,4.1,0,0,0-.69,1.2Z"/><path class="cls-7" d="M20.44,30.09A6.9,6.9,0,0,1,21.82,29a5.63,5.63,0,0,1,1.67-.42c.19,0-1.28.33-1.69.62a9.48,9.48,0,0,0-1.05,1Z"/><path class="cls-7" d="M24,30.9s0-.24.73-.5,1.07-.43.92-.43a4.16,4.16,0,0,0-.91.24,5.46,5.46,0,0,0-1.07.61Z"/><path class="cls-3" d="M85.81,37.2c3,2.19,6.91,9.13,2.29,14.85S76.73,58.1,71.63,54.74a11.48,11.48,0,0,1-1.42-18.13C75.35,31.71,81.31,33.88,85.81,37.2Z"/><path class="cls-4" d="M73.32,36.38h0Z"/><path class="cls-4" d="M74,37.1c.35-.17.75-.53.42-.84s-.78,0-1.1.12C72.9,36.77,73.08,37.56,74,37.1Z"/><path class="cls-4" d="M73.34,36.37l.53-.2A.83.83,0,0,0,73.34,36.37Z"/><path class="cls-4" d="M72.38,37.9c.13-.09.31-.29.14-.43a.23.23,0,0,0-.34.07.43.43,0,0,0-.21.29C71.94,38.12,72.24,38,72.38,37.9Z"/><path class="cls-4" d="M74.67,37.72a.32.32,0,0,0-.33,0c-.16,0-.35.08-.39.21A.11.11,0,0,0,74,38l0,0,0,0c0,.15.38,0,.51,0S74.93,37.87,74.67,37.72Z"/><path class="cls-4" d="M73.9,38.06h0Z"/><path class="cls-4" d="M75.4,36.94c-.15,0-.32.21-.23.36s.44.09.56,0C76.24,37,75.59,36.83,75.4,36.94Z"/><path class="cls-4" d="M76,36c-.11,0-.29-.07-.37,0a.14.14,0,0,0,0,.17c0,.11.18.2.25.24s.92.32,1,.06S76.22,36,76,36Z"/><path class="cls-4" d="M75.2,35.5c.15.08.71.06.77-.16s-.31-.28-.45-.26a.5.5,0,0,0-.24.14C75.13,35.29,75,35.4,75.2,35.5Z"/><path class="cls-4" d="M72.48,36.82c.29-.21,0-.34-.22-.29h0c-.14,0-.47.15-.38.33S72.37,36.9,72.48,36.82Z"/><path class="cls-4" d="M71.26,38.2c.11-.12.44-.67.06-.69a.3.3,0,0,0-.2.1,1.08,1.08,0,0,0-.38.54C70.59,38.65,71.07,38.42,71.26,38.2Z"/><path class="cls-4" d="M73.31,38.36a.74.74,0,0,0-.5,0c-.29.08-.62.3-.67.51-.12.52.79.15,1,.08S73.73,38.52,73.31,38.36Z"/><path class="cls-4" d="M74.84,38.77c-.15,0-.31.17-.3.29s.52.17.67.11C75.77,38.9,75,38.65,74.84,38.77Z"/><path class="cls-4" d="M78.42,35.88a.26.26,0,0,0-.25.11.69.69,0,0,0,1,0A.61.61,0,0,0,78.42,35.88Z"/><path class="cls-4" d="M76.94,37.23c.32.1,1.17.16,1.24-.28a.77.77,0,0,0-.69-.08C77.23,36.86,77,37,76.94,37.23Z"/><path class="cls-4" d="M77.56,34.93a.45.45,0,0,0-.62-.07.3.3,0,0,0-.15.18A.6.6,0,0,0,77.56,34.93Z"/><path class="cls-4" d="M79.87,36.75c-.63,0,.18.81.53.56S80.12,36.59,79.87,36.75Z"/><path class="cls-4" d="M70.94,39.35c-.2-.16-.36,0-.47.18-.42.26-.93.9-.52,1.06S70.93,39.69,70.94,39.35Z"/><path class="cls-4" d="M69.79,38.52c-.55.11-.29,1,.22.39C70.33,38.53,70,38.41,69.79,38.52Z"/><path class="cls-4" d="M72.86,40.17a.28.28,0,0,0-.2.25c.2.15.74.16.87-.11S73,39.86,72.86,40.17Z"/><path class="cls-4" d="M77.65,38.69l0,0a.52.52,0,0,0,0,.11c0,.05,0,.1,0,.12.12.29.73.3.62-.07S77.8,38.55,77.65,38.69Z"/><path class="cls-4" d="M83.21,37.91c-.37-.5-1.12,0-.65.16C82.84,38.27,83.57,38.4,83.21,37.91Z"/><path class="cls-4" d="M70.26,42.7l.07-.13a.91.91,0,0,0-.4.63c.22.06.85-.37.84-.65S70.45,42.43,70.26,42.7Z"/><path class="cls-4" d="M75.93,41.28a.17.17,0,0,0,.22,0c.26,0,.74,0,.54-.32S76,41.06,75.93,41.28Z"/><path class="cls-4" d="M68.1,41a.41.41,0,0,0,0,.22c.32.11,1.13,0,.86-.51S68.19,40.63,68.1,41Z"/><path class="cls-4" d="M69.21,39.64h0a.27.27,0,0,0-.33.27.41.41,0,0,0,.56-.22A.43.43,0,0,0,69.21,39.64Z"/><path class="cls-5" d="M70.27,51c-1.18.86,4.8,5.19,8.68,5a11.44,11.44,0,0,0,9.41-6c1-2.15.67-8.24-.62-7.81-.46.15.1,2.22-1.78,5.34-1.65,2.75-4.48,5.46-8.21,5.27C72.63,52.56,71,50.39,70.27,51Z"/><path class="cls-6" d="M83.09,35.9a.55.55,0,0,0-.49.84c.32.79,2.27,2.09,2.83,1.88s.59-.87-.23-1.5A4.76,4.76,0,0,0,83.09,35.9Z"/><path class="cls-6" d="M84.1,37s2.26-2.34,2.91-3.22a41.89,41.89,0,0,0,2.14-4.23s.2-.29.47-.24.2.47.2.47S88.24,33,87.61,33.86c-1.3,1.81-3,3.78-3,3.78Z"/><path class="cls-6" d="M88,32.56l-3.73-.47-.13.21,1.85.31,1.85.3Z"/><path class="cls-6" d="M80.27,36.77c-3.85,1-9.55-1.77-9.55-1.77s3.81-4.44,7.07-4.77,8.93,2.27,8.93,2.27A13.5,13.5,0,0,1,80.27,36.77Z"/><path class="cls-7" d="M83.12,36.14a.81.81,0,0,0-.09.79A4.09,4.09,0,0,0,84.43,38l.1-.7s-.3-.21-.33-.38a.39.39,0,0,1,0-.27Z"/><path class="cls-7" d="M85.46,32.6a29.75,29.75,0,0,0-6.46.06c-3,.43-7.52,1.86-7.46,2.06s4.94-1.63,7.36-1.8,6.74,0,6.74,0Z"/><path class="cls-7" d="M83.94,32.71a3.34,3.34,0,0,1-.62,1.17,8.89,8.89,0,0,0-1.09,1.68A9.72,9.72,0,0,0,83.48,34c.36-.53.82-1.27.82-1.27Z"/><path class="cls-7" d="M81,32.73a5.23,5.23,0,0,1-.67,1.91c-.66,1.36-.92,1.76-.76,1.79s.66-1,1-1.74.85-2,.85-2Z"/><path class="cls-7" d="M78,33a3.63,3.63,0,0,1-.23,1.42c-.3,1-.66,1.58-.52,1.65s.48-.87.68-1.59.5-1.63.5-1.63Z"/><path class="cls-7" d="M74.89,33.74a2.11,2.11,0,0,1-.16.84c-.18.52-.47,1-.38,1a1.93,1.93,0,0,0,.53-.92l.28-1Z"/><path class="cls-7" d="M84.3,32.63a4.38,4.38,0,0,0-1.13-1.09,3.53,3.53,0,0,0-1.46-.6c-.08.07.83.33,1.15.54A12.23,12.23,0,0,1,84,32.62Z"/><path class="cls-7" d="M81.22,32.54a2.91,2.91,0,0,0-.92-1.23,4.48,4.48,0,0,0-2.06-.8c-.19.06,1.5.49,1.88.86a4.23,4.23,0,0,1,.69,1.21Z"/><path class="cls-7" d="M78.46,32.85a6.9,6.9,0,0,0-1.38-1.09,5.63,5.63,0,0,0-1.67-.42c-.19,0,1.28.33,1.69.62a9.48,9.48,0,0,1,1.05,1Z"/><path class="cls-7" d="M74.89,33.66s0-.25-.73-.5-1.07-.43-.92-.43a4.16,4.16,0,0,1,.91.24,5.61,5.61,0,0,1,1.07.6Z"/><path class="cls-3" d="M90.56,47.33c3,2.19,6.91,9.14,2.29,14.85s-11.38,6.05-16.47,2.7A11.48,11.48,0,0,1,75,46.74C80.1,41.85,86.05,44,90.56,47.33Z"/><path class="cls-4" d="M78.07,46.51h0Z"/><path class="cls-4" d="M78.76,47.23c.35-.17.74-.52.41-.84s-.77,0-1.09.12C77.65,46.91,77.83,47.69,78.76,47.23Z"/><path class="cls-4" d="M78.08,46.51l.54-.21A.83.83,0,0,0,78.08,46.51Z"/><path class="cls-4" d="M77.13,48c.13-.1.31-.3.13-.44a.22.22,0,0,0-.33.07.44.44,0,0,0-.22.29C76.68,48.25,77,48.14,77.13,48Z"/><path class="cls-4" d="M79.41,47.86a.35.35,0,0,0-.33,0c-.15,0-.35.08-.38.21a.25.25,0,0,0,0,.08l0,0,0,0c0,.15.38,0,.5,0S79.68,48,79.41,47.86Z"/><path class="cls-4" d="M78.65,48.19h0Z"/><path class="cls-4" d="M80.15,47.07c-.15,0-.32.22-.24.36s.44.09.57,0C81,47.17,80.33,47,80.15,47.07Z"/><path class="cls-4" d="M80.77,46.15c-.1,0-.29-.06-.37,0a.15.15,0,0,0,0,.18c0,.1.18.19.25.23s.91.32,1,.06S81,46.18,80.77,46.15Z"/><path class="cls-4" d="M79.94,45.63c.16.08.72.06.78-.16s-.31-.28-.46-.26a.61.61,0,0,0-.24.14C79.87,45.42,79.76,45.53,79.94,45.63Z"/><path class="cls-4" d="M77.23,47c.29-.22,0-.34-.22-.3h0c-.13,0-.46.14-.37.32S77.12,47,77.23,47Z"/><path class="cls-4" d="M76,48.34c.11-.13.44-.67.06-.69a.26.26,0,0,0-.2.1,1.06,1.06,0,0,0-.38.53C75.34,48.78,75.82,48.56,76,48.34Z"/><path class="cls-4" d="M78.06,48.49a.77.77,0,0,0-.51,0,1,1,0,0,0-.66.52c-.13.52.78.14,1,.08S78.48,48.65,78.06,48.49Z"/><path class="cls-4" d="M79.58,48.9c-.14.05-.3.17-.3.29s.53.18.67.11C80.51,49,79.78,48.79,79.58,48.9Z"/><path class="cls-4" d="M83.17,46a.23.23,0,0,0-.25.1.69.69,0,0,0,1,0A.57.57,0,0,0,83.17,46Z"/><path class="cls-4" d="M81.69,47.36c.32.11,1.17.16,1.23-.28a.75.75,0,0,0-.68-.08C82,47,81.69,47.08,81.69,47.36Z"/><path class="cls-4" d="M82.3,45.06a.44.44,0,0,0-.62-.06.28.28,0,0,0-.15.18A.59.59,0,0,0,82.3,45.06Z"/><path class="cls-4" d="M84.62,46.89c-.63,0,.18.81.53.55S84.87,46.72,84.62,46.89Z"/><path class="cls-4" d="M75.68,49.48c-.19-.15-.35,0-.46.18-.42.27-.93.9-.53,1.06S75.67,49.83,75.68,49.48Z"/><path class="cls-4" d="M74.53,48.66c-.54.1-.28,1,.23.38C75.08,48.66,74.75,48.54,74.53,48.66Z"/><path class="cls-4" d="M77.6,50.31a.26.26,0,0,0-.19.24c.2.15.73.16.87-.11S77.78,50,77.6,50.31Z"/><path class="cls-4" d="M82.4,48.83l0,0a.26.26,0,0,0,0,.11c0,.06,0,.1,0,.12.11.29.73.31.61-.07S82.54,48.69,82.4,48.83Z"/><path class="cls-4" d="M88,48c-.36-.5-1.12,0-.64.16C87.59,48.4,88.31,48.54,88,48Z"/><path class="cls-4" d="M75,52.83l.07-.13a.9.9,0,0,0-.4.63c.22.06.85-.36.83-.64S75.19,52.56,75,52.83Z"/><path class="cls-4" d="M80.68,51.41c.08.1.14.09.21.05.26,0,.75,0,.54-.31S80.75,51.19,80.68,51.41Z"/><path class="cls-4" d="M72.85,51.13a.54.54,0,0,0,0,.22c.32.11,1.14,0,.87-.51S72.94,50.76,72.85,51.13Z"/><path class="cls-4" d="M74,49.77h0a.26.26,0,0,0-.33.26.39.39,0,0,0,.55-.21A.34.34,0,0,0,74,49.77Z"/><path class="cls-5" d="M75,61.09c-1.17.86,4.81,5.2,8.69,5a11.44,11.44,0,0,0,9.4-6c1-2.15.67-8.23-.61-7.81-.46.15.1,2.22-1.78,5.35-1.66,2.74-4.48,5.45-8.22,5.26C77.38,62.69,75.79,60.52,75,61.09Z"/><path class="cls-6" d="M87.83,46a.55.55,0,0,0-.48.84c.32.8,2.27,2.1,2.83,1.88s.59-.87-.23-1.5A4.83,4.83,0,0,0,87.83,46Z"/><path class="cls-6" d="M88.85,47.1s2.26-2.34,2.9-3.22a39.9,39.9,0,0,0,2.14-4.22s.2-.3.48-.25.2.47.2.47S93,43.11,92.35,44c-1.3,1.8-3,3.77-3,3.77Z"/><path class="cls-6" d="M92.79,42.7c-.14,0-3.73-.48-3.73-.48l-.14.22,1.86.3,1.85.31Z"/><path class="cls-6" d="M85,46.9c-3.86,1-9.55-1.77-9.55-1.77s3.8-4.43,7.07-4.77,8.93,2.27,8.93,2.27A13.49,13.49,0,0,1,85,46.9Z"/><path class="cls-7" d="M87.87,46.27a.82.82,0,0,0-.09.79,4.16,4.16,0,0,0,1.4,1.12l.09-.71s-.3-.2-.33-.38a.39.39,0,0,1,0-.27Z"/><path class="cls-7" d="M90.21,42.73a30.51,30.51,0,0,0-6.46.06c-3,.43-7.52,1.87-7.46,2.07s4.94-1.64,7.36-1.8,6.73,0,6.73,0Z"/><path class="cls-7" d="M88.69,42.84A3.36,3.36,0,0,1,88.06,44,8.47,8.47,0,0,0,87,45.7a9.93,9.93,0,0,0,1.25-1.57c.36-.52.82-1.27.82-1.27Z"/><path class="cls-7" d="M85.69,42.86A5.29,5.29,0,0,1,85,44.78c-.66,1.36-.93,1.75-.76,1.78s.65-1,1-1.74.84-2,.84-2Z"/><path class="cls-7" d="M82.77,43.14a3.72,3.72,0,0,1-.22,1.42c-.3,1-.66,1.57-.53,1.64s.48-.86.69-1.59.5-1.62.5-1.62Z"/><path class="cls-7" d="M79.64,43.88a2.39,2.39,0,0,1-.16.84c-.18.52-.47,1-.39,1a1.84,1.84,0,0,0,.54-.92l.28-1Z"/><path class="cls-7" d="M89,42.76a4.19,4.19,0,0,0-1.13-1.09,3.44,3.44,0,0,0-1.45-.59c-.08.07.82.33,1.15.53a12.23,12.23,0,0,1,1.18,1.14Z"/><path class="cls-7" d="M86,42.67A2.91,2.91,0,0,0,85,41.44a4.57,4.57,0,0,0-2.05-.8c-.2.07,1.5.49,1.88.87a4.1,4.1,0,0,1,.69,1.2Z"/><path class="cls-7" d="M83.21,43a6.69,6.69,0,0,0-1.39-1.1,6.29,6.29,0,0,0-1.66-.42c-.19,0,1.28.33,1.69.62a9.06,9.06,0,0,1,1,1Z"/><path class="cls-7" d="M79.64,43.79s0-.24-.74-.5-1.06-.43-.91-.43a5.09,5.09,0,0,1,.91.24,5.81,5.81,0,0,1,1.07.61Z"/><path class="cls-3" d="M70.81,47.89c3,2.19,6.91,9.13,2.29,14.85s-11.37,6.05-16.47,2.69A11.47,11.47,0,0,1,55.21,47.3C60.35,42.4,66.3,44.57,70.81,47.89Z"/><path class="cls-4" d="M58.32,47.07h0Z"/><path class="cls-4" d="M59,47.79c.35-.17.74-.53.42-.85s-.78.05-1.1.13C57.9,47.46,58.08,48.24,59,47.79Z"/><path class="cls-4" d="M58.34,47.06l.53-.2A.83.83,0,0,0,58.34,47.06Z"/><path class="cls-4" d="M57.38,48.59c.13-.09.31-.29.14-.43a.23.23,0,0,0-.34.07.43.43,0,0,0-.21.29C56.94,48.81,57.24,48.69,57.38,48.59Z"/><path class="cls-4" d="M59.67,48.41a.32.32,0,0,0-.33,0c-.16,0-.35.08-.39.21a.11.11,0,0,0,0,.08l-.05,0,.05,0c0,.14.38,0,.51,0S59.93,48.56,59.67,48.41Z"/><path class="cls-4" d="M58.9,48.75h0Z"/><path class="cls-4" d="M60.4,47.63c-.15,0-.32.21-.23.36s.44.09.56,0C61.23,47.73,60.59,47.52,60.4,47.63Z"/><path class="cls-4" d="M61,46.71c-.11,0-.29-.07-.37,0a.15.15,0,0,0,0,.18c0,.11.18.2.25.24s.92.32,1,.06S61.21,46.73,61,46.71Z"/><path class="cls-4" d="M60.2,46.19c.15.08.71.06.77-.17s-.31-.27-.45-.25a.43.43,0,0,0-.24.14C60.13,46,60,46.09,60.2,46.19Z"/><path class="cls-4" d="M57.48,47.51c.29-.21,0-.34-.22-.29h0c-.13,0-.46.15-.37.33S57.37,47.59,57.48,47.51Z"/><path class="cls-4" d="M56.26,48.89c.11-.12.44-.67.06-.69a.3.3,0,0,0-.2.1,1.08,1.08,0,0,0-.38.54C55.59,49.34,56.07,49.11,56.26,48.89Z"/><path class="cls-4" d="M58.31,49.05a.74.74,0,0,0-.5,0c-.29.08-.62.3-.67.51-.12.52.79.15,1,.08S58.73,49.21,58.31,49.05Z"/><path class="cls-4" d="M59.83,49.46c-.14,0-.3.17-.29.28s.52.18.66.11C60.76,49.59,60,49.34,59.83,49.46Z"/><path class="cls-4" d="M63.42,46.57a.26.26,0,0,0-.25.11.69.69,0,0,0,1,0A.6.6,0,0,0,63.42,46.57Z"/><path class="cls-4" d="M61.94,47.91c.32.11,1.17.17,1.23-.27a.75.75,0,0,0-.68-.08C62.23,47.55,62,47.64,61.94,47.91Z"/><path class="cls-4" d="M62.56,45.62a.46.46,0,0,0-.63-.07.32.32,0,0,0-.14.18A.6.6,0,0,0,62.56,45.62Z"/><path class="cls-4" d="M64.87,47.44c-.63,0,.18.81.53.56S65.12,47.28,64.87,47.44Z"/><path class="cls-4" d="M55.94,50c-.2-.16-.36,0-.47.18-.42.26-.93.9-.53,1.06S55.93,50.38,55.94,50Z"/><path class="cls-4" d="M54.78,49.21c-.54.11-.28,1,.23.39C55.33,49.22,55,49.1,54.78,49.21Z"/><path class="cls-4" d="M57.86,50.86a.28.28,0,0,0-.2.25c.2.15.74.16.87-.11S58,50.55,57.86,50.86Z"/><path class="cls-4" d="M62.65,49.38l0,0a.52.52,0,0,0,0,.11s0,.1,0,.12c.11.29.73.3.61-.07S62.8,49.24,62.65,49.38Z"/><path class="cls-4" d="M68.21,48.6c-.37-.5-1.12,0-.65.16C67.84,49,68.56,49.09,68.21,48.6Z"/><path class="cls-4" d="M55.26,53.39l.07-.13a.91.91,0,0,0-.4.63c.22.06.85-.37.84-.65S55.44,53.12,55.26,53.39Z"/><path class="cls-4" d="M60.93,52a.17.17,0,0,0,.22.05c.26,0,.74,0,.53-.32S61,51.75,60.93,52Z"/><path class="cls-4" d="M53.1,51.69a.4.4,0,0,0,0,.22c.32.11,1.13,0,.86-.51S53.19,51.31,53.1,51.69Z"/><path class="cls-4" d="M54.21,50.33h0a.27.27,0,0,0-.33.27.4.4,0,0,0,.55-.22A.39.39,0,0,0,54.21,50.33Z"/><path class="cls-5" d="M55.27,61.65c-1.18.86,4.8,5.19,8.68,5a11.43,11.43,0,0,0,9.41-6c1-2.14.66-8.23-.62-7.8-.46.15.1,2.21-1.78,5.34C69.3,61,66.48,63.69,62.75,63.5,57.63,63.25,56,61.08,55.27,61.65Z"/><path class="cls-6" d="M68.09,46.59a.55.55,0,0,0-.49.84c.32.79,2.27,2.09,2.83,1.88s.59-.87-.23-1.5A4.76,4.76,0,0,0,68.09,46.59Z"/><path class="cls-6" d="M69.1,47.66s2.26-2.34,2.91-3.22a41.89,41.89,0,0,0,2.14-4.23s.2-.29.47-.24.2.47.2.47-1.58,3.22-2.22,4.11c-1.29,1.81-3,3.78-3,3.78Z"/><path class="cls-6" d="M73,43.25l-3.73-.47-.13.21L71,43.3l1.85.3Z"/><path class="cls-6" d="M65.27,47.46c-3.85,1-9.55-1.77-9.55-1.77s3.81-4.44,7.07-4.77,8.93,2.27,8.93,2.27A13.5,13.5,0,0,1,65.27,47.46Z"/><path class="cls-7" d="M68.12,46.83a.81.81,0,0,0-.09.79,4.09,4.09,0,0,0,1.4,1.11l.1-.7s-.31-.21-.34-.38a.39.39,0,0,1,0-.27Z"/><path class="cls-7" d="M70.46,43.29a29.77,29.77,0,0,0-6.46.06c-3,.43-7.52,1.86-7.46,2.06s4.94-1.63,7.36-1.8,6.74,0,6.74,0Z"/><path class="cls-7" d="M68.94,43.4a3.28,3.28,0,0,1-.63,1.17,9.15,9.15,0,0,0-1.08,1.68,9.72,9.72,0,0,0,1.25-1.56c.36-.53.82-1.27.82-1.27Z"/><path class="cls-7" d="M65.94,43.42a5,5,0,0,1-.66,1.91c-.66,1.36-.92,1.76-.76,1.79s.66-1,1-1.74.85-2,.85-2Z"/><path class="cls-7" d="M63,43.69a3.63,3.63,0,0,1-.23,1.42c-.3,1-.66,1.58-.53,1.65s.49-.87.69-1.59.5-1.63.5-1.63Z"/><path class="cls-7" d="M59.89,44.43a2.11,2.11,0,0,1-.16.84c-.18.52-.47,1-.38,1a1.83,1.83,0,0,0,.53-.91l.28-1Z"/><path class="cls-7" d="M69.3,43.31a4.43,4.43,0,0,0-1.13-1.08,3.53,3.53,0,0,0-1.46-.6c-.08.07.83.33,1.15.54A12.23,12.23,0,0,1,69,43.31Z"/><path class="cls-7" d="M66.22,43.23A2.88,2.88,0,0,0,65.29,42a4.45,4.45,0,0,0-2.05-.8c-.2.06,1.5.49,1.88.86a4.23,4.23,0,0,1,.69,1.21Z"/><path class="cls-7" d="M63.46,43.54a6.75,6.75,0,0,0-1.39-1.09A5.58,5.58,0,0,0,60.41,42c-.19,0,1.28.33,1.69.62a9.06,9.06,0,0,1,1,1Z"/><path class="cls-7" d="M59.89,44.35s0-.25-.74-.5-1.06-.43-.91-.43a4.16,4.16,0,0,1,.91.24,5.61,5.61,0,0,1,1.07.6Z"/><path class="cls-3" d="M51.9,30.08c3,2.2,6.91,9.14,2.29,14.86S42.81,51,37.72,47.63A11.47,11.47,0,0,1,36.3,29.5C41.44,24.6,47.39,26.77,51.9,30.08Z"/><path class="cls-4" d="M39.41,29.27h0Z"/><path class="cls-4" d="M40.1,30c.35-.17.74-.53.41-.85s-.77.05-1.09.13C39,29.66,39.17,30.44,40.1,30Z"/><path class="cls-4" d="M39.42,29.26l.54-.2A.88.88,0,0,0,39.42,29.26Z"/><path class="cls-4" d="M38.47,30.79c.13-.09.31-.29.13-.43a.22.22,0,0,0-.33.07.44.44,0,0,0-.22.29C38,31,38.33,30.89,38.47,30.79Z"/><path class="cls-4" d="M40.75,30.61a.35.35,0,0,0-.33,0c-.15,0-.35.09-.38.22a.25.25,0,0,0,0,.08l0,0,0,0c0,.14.38,0,.5,0S41,30.76,40.75,30.61Z"/><path class="cls-4" d="M40,31h0Z"/><path class="cls-4" d="M41.49,29.83c-.15,0-.32.21-.24.36s.44.09.57,0C42.32,29.93,41.67,29.72,41.49,29.83Z"/><path class="cls-4" d="M42.11,28.91c-.1,0-.29-.07-.37,0a.15.15,0,0,0,0,.18c0,.11.18.2.25.24s.91.32,1,.06S42.3,28.93,42.11,28.91Z"/><path class="cls-4" d="M41.28,28.39c.16.08.72.06.77-.17s-.3-.27-.45-.25a.51.51,0,0,0-.24.14C41.21,28.18,41.1,28.29,41.28,28.39Z"/><path class="cls-4" d="M38.57,29.71c.29-.21,0-.34-.22-.29h0c-.13,0-.46.15-.37.33S38.46,29.79,38.57,29.71Z"/><path class="cls-4" d="M37.35,31.09c.11-.12.44-.67.06-.69a.3.3,0,0,0-.2.1,1.08,1.08,0,0,0-.38.54C36.68,31.54,37.16,31.31,37.35,31.09Z"/><path class="cls-4" d="M39.4,31.25a.77.77,0,0,0-.51,0c-.28.08-.61.3-.66.51-.13.52.78.15,1,.08S39.82,31.41,39.4,31.25Z"/><path class="cls-4" d="M40.92,31.65c-.14.05-.3.17-.3.29s.53.18.67.11C41.85,31.79,41.12,31.54,40.92,31.65Z"/><path class="cls-4" d="M44.51,28.77a.27.27,0,0,0-.25.1.68.68,0,0,0,1,0A.58.58,0,0,0,44.51,28.77Z"/><path class="cls-4" d="M43,30.11c.31.11,1.16.17,1.23-.27a.75.75,0,0,0-.68-.08C43.32,29.75,43,29.84,43,30.11Z"/><path class="cls-4" d="M43.64,27.81a.44.44,0,0,0-.62-.06.34.34,0,0,0-.15.18A.59.59,0,0,0,43.64,27.81Z"/><path class="cls-4" d="M46,29.64c-.63,0,.18.81.52.56S46.2,29.48,46,29.64Z"/><path class="cls-4" d="M37,32.24c-.19-.16-.35,0-.46.18-.42.26-.93.9-.53,1.06S37,32.58,37,32.24Z"/><path class="cls-4" d="M35.87,31.41c-.54.11-.28,1,.23.39C36.42,31.42,36.09,31.3,35.87,31.41Z"/><path class="cls-4" d="M38.94,33.06a.27.27,0,0,0-.19.25c.2.15.73.16.87-.11S39.12,32.75,38.94,33.06Z"/><path class="cls-4" d="M43.74,31.58l0,0a.26.26,0,0,0,0,.11c0,.05,0,.1,0,.12.11.29.73.3.61-.07S43.88,31.44,43.74,31.58Z"/><path class="cls-4" d="M49.29,30.8c-.36-.5-1.12,0-.64.16C48.93,31.16,49.65,31.29,49.29,30.8Z"/><path class="cls-4" d="M36.35,35.59l.07-.13a.88.88,0,0,0-.4.63c.22.06.85-.37.83-.65S36.53,35.32,36.35,35.59Z"/><path class="cls-4" d="M42,34.17a.16.16,0,0,0,.21,0c.26,0,.75,0,.54-.32S42.09,34,42,34.17Z"/><path class="cls-4" d="M34.18,33.89a.51.51,0,0,0,0,.22c.32.11,1.14,0,.87-.51S34.28,33.51,34.18,33.89Z"/><path class="cls-4" d="M35.3,32.53h0a.27.27,0,0,0-.33.27.4.4,0,0,0,.55-.22A.33.33,0,0,0,35.3,32.53Z"/><path class="cls-5" d="M36.35,43.85c-1.17.86,4.81,5.19,8.69,5a11.43,11.43,0,0,0,9.4-6c1-2.14.67-8.23-.61-7.8-.46.15.1,2.21-1.78,5.34-1.66,2.75-4.48,5.46-8.22,5.27C38.72,45.45,37.13,43.28,36.35,43.85Z"/><path class="cls-6" d="M49.17,28.79a.54.54,0,0,0-.48.83c.32.8,2.27,2.1,2.83,1.88s.58-.87-.23-1.49A4.73,4.73,0,0,0,49.17,28.79Z"/><path class="cls-6" d="M50.19,29.86s2.26-2.34,2.9-3.22a39.83,39.83,0,0,0,2.14-4.23.55.55,0,0,1,.48-.24c.28,0,.2.47.2.47s-1.58,3.22-2.22,4.11c-1.3,1.81-3,3.78-3,3.78Z"/><path class="cls-6" d="M54.13,25.45C54,25.42,50.4,25,50.4,25l-.14.21,1.86.31,1.85.3Z"/><path class="cls-6" d="M46.36,29.66c-3.86,1-9.55-1.77-9.55-1.77s3.8-4.44,7.07-4.77,8.92,2.27,8.92,2.27A13.5,13.5,0,0,1,46.36,29.66Z"/><path class="cls-7" d="M49.21,29a.81.81,0,0,0-.09.79,4.09,4.09,0,0,0,1.4,1.11l.09-.7s-.3-.21-.33-.38a.39.39,0,0,1,0-.27Z"/><path class="cls-7" d="M51.55,25.48a30.11,30.11,0,0,0-6.46.07c-3,.43-7.52,1.86-7.47,2.06s5-1.64,7.37-1.8,6.73,0,6.73,0Z"/><path class="cls-7" d="M50,25.6a3.28,3.28,0,0,1-.63,1.17,9.15,9.15,0,0,0-1.08,1.68,10.21,10.21,0,0,0,1.25-1.56c.36-.53.81-1.27.81-1.27Z"/><path class="cls-7" d="M47,25.62a5.29,5.29,0,0,1-.66,1.91c-.66,1.36-.93,1.76-.76,1.79s.65-1,1-1.75.84-2,.84-2Z"/><path class="cls-7" d="M44.11,25.89a3.7,3.7,0,0,1-.22,1.42c-.3,1-.66,1.58-.53,1.64s.48-.86.69-1.58.5-1.63.5-1.63Z"/><path class="cls-7" d="M41,26.63a2.36,2.36,0,0,1-.16.84c-.18.52-.47,1-.39,1a1.75,1.75,0,0,0,.54-.91c.13-.47.27-1,.27-1Z"/><path class="cls-7" d="M50.38,25.51a4.24,4.24,0,0,0-1.13-1.08,3.51,3.51,0,0,0-1.45-.6c-.08.07.82.33,1.15.54a12.23,12.23,0,0,1,1.18,1.14Z"/><path class="cls-7" d="M47.3,25.43a2.91,2.91,0,0,0-.92-1.23,4.45,4.45,0,0,0-2.05-.8c-.2.06,1.5.49,1.88.86a4.23,4.23,0,0,1,.69,1.21Z"/><path class="cls-7" d="M44.55,25.74a6.75,6.75,0,0,0-1.39-1.09,5.58,5.58,0,0,0-1.66-.42c-.2,0,1.28.33,1.69.62a9.06,9.06,0,0,1,1,1Z"/><path class="cls-7" d="M41,26.55s0-.25-.73-.5-1.06-.43-.91-.43a4.31,4.31,0,0,1,.91.24,6,6,0,0,1,1.07.6Z"/><path class="cls-3" d="M25.41,45.78c-3,2.19-6.91,9.14-2.29,14.85s11.38,6.05,16.47,2.7A11.48,11.48,0,0,0,41,45.19C35.87,40.3,29.92,42.47,25.41,45.78Z"/><path class="cls-4" d="M37.9,45h0Z"/><path class="cls-4" d="M37.21,45.69c-.35-.17-.74-.53-.41-.85s.77,0,1.09.12C38.32,45.36,38.14,46.14,37.21,45.69Z"/><path class="cls-4" d="M37.89,45l-.54-.21A.83.83,0,0,1,37.89,45Z"/><path class="cls-4" d="M38.84,46.49c-.13-.1-.31-.3-.13-.44a.22.22,0,0,1,.33.07.44.44,0,0,1,.22.29C39.29,46.7,39,46.59,38.84,46.49Z"/><path class="cls-4" d="M36.56,46.31a.35.35,0,0,1,.33,0c.15,0,.35.08.38.21a.25.25,0,0,1,0,.08l0,0,0,0c0,.15-.38,0-.5,0S36.29,46.45,36.56,46.31Z"/><path class="cls-4" d="M37.32,46.64h0Z"/><path class="cls-4" d="M35.82,45.52c.15,0,.32.22.24.36s-.44.09-.57,0C35,45.62,35.64,45.41,35.82,45.52Z"/><path class="cls-4" d="M35.2,44.6c.1,0,.29-.06.37,0a.15.15,0,0,1,0,.18c0,.1-.18.2-.25.23s-.91.32-1,.06S35,44.63,35.2,44.6Z"/><path class="cls-4" d="M36,44.08c-.16.09-.72.06-.77-.16s.3-.28.45-.26a.61.61,0,0,1,.24.14C36.1,43.87,36.21,44,36,44.08Z"/><path class="cls-4" d="M38.74,45.41c-.29-.22,0-.34.22-.3h0c.13,0,.46.14.37.32S38.86,45.49,38.74,45.41Z"/><path class="cls-4" d="M40,46.79c-.11-.13-.44-.67-.06-.69a.26.26,0,0,1,.2.1,1.15,1.15,0,0,1,.39.53C40.63,47.23,40.15,47,40,46.79Z"/><path class="cls-4" d="M37.91,46.94a.77.77,0,0,1,.51,0,1,1,0,0,1,.66.52c.13.52-.78.14-1,.08S37.49,47.1,37.91,46.94Z"/><path class="cls-4" d="M36.39,47.35c.14,0,.3.17.3.29s-.53.18-.67.11C35.46,47.49,36.19,47.24,36.39,47.35Z"/><path class="cls-4" d="M32.8,44.47a.23.23,0,0,1,.25.1.69.69,0,0,1-1,0A.57.57,0,0,1,32.8,44.47Z"/><path class="cls-4" d="M34.28,45.81c-.31.11-1.16.16-1.23-.28a.75.75,0,0,1,.68-.08C34,45.44,34.28,45.53,34.28,45.81Z"/><path class="cls-4" d="M33.67,43.51a.44.44,0,0,1,.62-.06.28.28,0,0,1,.15.18A.59.59,0,0,1,33.67,43.51Z"/><path class="cls-4" d="M31.35,45.34c.63,0-.18.81-.52.55S31.11,45.18,31.35,45.34Z"/><path class="cls-4" d="M40.29,47.93c.19-.15.35,0,.46.18.43.27.93.91.53,1.06S40.3,48.28,40.29,47.93Z"/><path class="cls-4" d="M41.44,47.11c.54.1.28,1-.23.38C40.89,47.11,41.22,47,41.44,47.11Z"/><path class="cls-4" d="M38.37,48.76a.26.26,0,0,1,.19.25c-.2.14-.73.15-.87-.11S38.19,48.45,38.37,48.76Z"/><path class="cls-4" d="M33.57,47.28l0-.05a.27.27,0,0,1,0,.12s0,.09,0,.11c-.11.3-.73.31-.61-.06S33.43,47.14,33.57,47.28Z"/><path class="cls-4" d="M28,46.49c.36-.5,1.12,0,.64.16C28.38,46.85,27.66,47,28,46.49Z"/><path class="cls-4" d="M41,51.28l-.07-.13a.9.9,0,0,1,.4.63c-.22.06-.85-.36-.83-.64S40.78,51,41,51.28Z"/><path class="cls-4" d="M35.29,49.87a.14.14,0,0,1-.21,0c-.26,0-.75,0-.54-.31S35.22,49.65,35.29,49.87Z"/><path class="cls-4" d="M43.13,49.58a.53.53,0,0,1,0,.22c-.32.11-1.14,0-.87-.51S43,49.21,43.13,49.58Z"/><path class="cls-4" d="M42,48.22h0a.26.26,0,0,1,.33.26.39.39,0,0,1-.55-.21A.34.34,0,0,1,42,48.22Z"/><path class="cls-5" d="M41,59.54c1.17.86-4.81,5.2-8.69,5.05a11.47,11.47,0,0,1-9.4-6c-1-2.15-.67-8.23.61-7.81.46.15-.1,2.22,1.78,5.35,1.66,2.74,4.48,5.45,8.22,5.26C38.59,61.14,40.18,59,41,59.54Z"/><path class="cls-6" d="M28.14,44.48a.55.55,0,0,1,.48.84c-.32.8-2.27,2.1-2.83,1.88s-.58-.87.23-1.5A4.83,4.83,0,0,1,28.14,44.48Z"/><path class="cls-6" d="M27.12,45.55s-2.26-2.34-2.9-3.22a39.9,39.9,0,0,1-2.14-4.22s-.2-.3-.48-.25-.2.47-.2.47,1.58,3.23,2.22,4.12c1.3,1.8,3,3.77,3,3.77Z"/><path class="cls-6" d="M23.18,41.15c.14,0,3.73-.48,3.73-.48l.14.22-1.86.3-1.85.31Z"/><path class="cls-6" d="M31,45.35c3.86,1,9.55-1.77,9.55-1.77s-3.8-4.43-7.07-4.77-8.92,2.27-8.92,2.27A13.43,13.43,0,0,0,31,45.35Z"/><path class="cls-7" d="M28.1,44.72a.82.82,0,0,1,.09.79,4.16,4.16,0,0,1-1.4,1.12l-.09-.71s.3-.2.33-.38a.41.41,0,0,0,0-.27Z"/><path class="cls-7" d="M25.77,41.18a30.4,30.4,0,0,1,6.45.06c3,.43,7.52,1.87,7.47,2.07s-4.95-1.64-7.37-1.8-6.73,0-6.73,0Z"/><path class="cls-7" d="M27.28,41.29a3.36,3.36,0,0,0,.63,1.18A8.47,8.47,0,0,1,29,44.15a9.93,9.93,0,0,1-1.25-1.57c-.36-.52-.81-1.26-.81-1.26Z"/><path class="cls-7" d="M30.28,41.31a5.29,5.29,0,0,0,.66,1.92c.66,1.36.93,1.75.76,1.78s-.65-1-1-1.74-.84-2-.84-2Z"/><path class="cls-7" d="M33.2,41.59A3.72,3.72,0,0,0,33.42,43c.3,1,.66,1.57.53,1.64s-.48-.86-.69-1.59-.5-1.62-.5-1.62Z"/><path class="cls-7" d="M36.33,42.33a2.39,2.39,0,0,0,.16.84c.18.52.47,1,.39,1a1.79,1.79,0,0,1-.54-.92c-.13-.46-.27-1-.27-1Z"/><path class="cls-7" d="M26.93,41.21a4.19,4.19,0,0,1,1.13-1.09,3.56,3.56,0,0,1,1.46-.59c.07.07-.83.33-1.16.54a11.26,11.26,0,0,0-1.18,1.13Z"/><path class="cls-7" d="M30,41.12a2.91,2.91,0,0,1,.92-1.23,4.57,4.57,0,0,1,2-.8c.2.07-1.5.49-1.88.87a4.1,4.1,0,0,0-.69,1.2Z"/><path class="cls-7" d="M32.76,41.44a6.42,6.42,0,0,1,1.39-1.09,6,6,0,0,1,1.66-.43c.2,0-1.28.33-1.69.62a8.84,8.84,0,0,0-1,1Z"/><path class="cls-7" d="M36.34,42.24s0-.24.73-.5,1.06-.42.91-.43a5.09,5.09,0,0,0-.91.24,5.81,5.81,0,0,0-1.07.61Z"/><path class="cls-3" d="M54.4,47.89c3,2.19,6.91,9.13,2.29,14.85s-11.37,6.05-16.47,2.69A11.47,11.47,0,0,1,38.8,47.3C43.94,42.4,49.89,44.57,54.4,47.89Z"/><path class="cls-4" d="M41.91,47.07h0Z"/><path class="cls-4" d="M42.6,47.79c.35-.17.74-.53.42-.85s-.78.05-1.1.13C41.49,47.46,41.67,48.24,42.6,47.79Z"/><path class="cls-4" d="M41.93,47.06l.53-.2A.83.83,0,0,0,41.93,47.06Z"/><path class="cls-4" d="M41,48.59c.13-.09.31-.29.14-.43a.23.23,0,0,0-.34.07.43.43,0,0,0-.21.29C40.53,48.81,40.83,48.69,41,48.59Z"/><path class="cls-4" d="M43.26,48.41a.32.32,0,0,0-.33,0c-.16,0-.35.08-.39.21a.11.11,0,0,0,0,.08l0,0,0,0c0,.14.38,0,.51,0S43.52,48.56,43.26,48.41Z"/><path class="cls-4" d="M42.49,48.75h0Z"/><path class="cls-4" d="M44,47.63c-.15,0-.32.21-.23.36s.44.09.56,0C44.82,47.73,44.18,47.52,44,47.63Z"/><path class="cls-4" d="M44.62,46.71c-.11,0-.29-.07-.37,0a.15.15,0,0,0,0,.18c0,.11.18.2.25.24s.92.32,1,.06S44.8,46.73,44.62,46.71Z"/><path class="cls-4" d="M43.79,46.19c.15.08.71.06.77-.17s-.31-.27-.45-.25a.43.43,0,0,0-.24.14C43.72,46,43.61,46.09,43.79,46.19Z"/><path class="cls-4" d="M41.07,47.51c.29-.21,0-.34-.22-.29h0c-.14,0-.47.15-.38.33S41,47.59,41.07,47.51Z"/><path class="cls-4" d="M39.85,48.89c.11-.12.44-.67.06-.69a.3.3,0,0,0-.2.1,1.08,1.08,0,0,0-.38.54C39.18,49.34,39.66,49.11,39.85,48.89Z"/><path class="cls-4" d="M41.9,49.05a.74.74,0,0,0-.5,0c-.29.08-.62.3-.67.51-.12.52.79.15,1,.08S42.32,49.21,41.9,49.05Z"/><path class="cls-4" d="M43.42,49.46c-.14,0-.3.17-.29.28s.52.18.66.11C44.35,49.59,43.62,49.34,43.42,49.46Z"/><path class="cls-4" d="M47,46.57a.26.26,0,0,0-.25.11.69.69,0,0,0,1.05,0A.6.6,0,0,0,47,46.57Z"/><path class="cls-4" d="M45.53,47.91c.32.11,1.17.17,1.23-.27a.75.75,0,0,0-.68-.08C45.82,47.55,45.54,47.64,45.53,47.91Z"/><path class="cls-4" d="M46.15,45.62a.46.46,0,0,0-.63-.07.32.32,0,0,0-.14.18A.6.6,0,0,0,46.15,45.62Z"/><path class="cls-4" d="M48.46,47.44c-.63,0,.18.81.53.56S48.71,47.28,48.46,47.44Z"/><path class="cls-4" d="M39.53,50c-.2-.16-.36,0-.47.18-.42.26-.93.9-.53,1.06S39.52,50.38,39.53,50Z"/><path class="cls-4" d="M38.37,49.21c-.54.11-.28,1,.23.39C38.92,49.22,38.6,49.1,38.37,49.21Z"/><path class="cls-4" d="M41.45,50.86a.28.28,0,0,0-.2.25c.2.15.74.16.87-.11S41.63,50.55,41.45,50.86Z"/><path class="cls-4" d="M46.24,49.38l0,0a.52.52,0,0,0,0,.11s0,.1,0,.12c.11.29.73.3.62-.07S46.39,49.24,46.24,49.38Z"/><path class="cls-4" d="M51.8,48.6c-.37-.5-1.12,0-.65.16C51.43,49,52.15,49.09,51.8,48.6Z"/><path class="cls-4" d="M38.85,53.39l.07-.13a.91.91,0,0,0-.4.63c.22.06.85-.37.84-.65S39,53.12,38.85,53.39Z"/><path class="cls-4" d="M44.52,52a.17.17,0,0,0,.22.05c.26,0,.74,0,.53-.32S44.6,51.75,44.52,52Z"/><path class="cls-4" d="M36.69,51.69a.4.4,0,0,0,0,.22c.32.11,1.13,0,.86-.51S36.78,51.31,36.69,51.69Z"/><path class="cls-4" d="M37.8,50.33h0a.27.27,0,0,0-.33.27.4.4,0,0,0,.55-.22A.39.39,0,0,0,37.8,50.33Z"/><path class="cls-5" d="M38.86,61.65c-1.18.86,4.8,5.19,8.68,5a11.43,11.43,0,0,0,9.41-6c1-2.14.66-8.23-.62-7.8-.46.15.1,2.21-1.78,5.34C52.9,61,50.07,63.69,46.34,63.5,41.22,63.25,39.63,61.08,38.86,61.65Z"/><path class="cls-6" d="M51.68,46.59a.55.55,0,0,0-.49.84c.32.79,2.27,2.09,2.83,1.88s.59-.87-.23-1.5A4.76,4.76,0,0,0,51.68,46.59Z"/><path class="cls-6" d="M52.69,47.66S55,45.32,55.6,44.44a41.89,41.89,0,0,0,2.14-4.23s.2-.29.47-.24.2.47.2.47-1.58,3.22-2.22,4.11c-1.29,1.81-3,3.78-3,3.78Z"/><path class="cls-6" d="M56.63,43.25l-3.73-.47-.13.21,1.85.31,1.85.3Z"/><path class="cls-6" d="M48.86,47.46c-3.85,1-9.55-1.77-9.55-1.77s3.81-4.44,7.07-4.77,8.93,2.27,8.93,2.27A13.5,13.5,0,0,1,48.86,47.46Z"/><path class="cls-7" d="M51.71,46.83a.81.81,0,0,0-.09.79A4.09,4.09,0,0,0,53,48.73l.1-.7s-.31-.21-.34-.38a.39.39,0,0,1,0-.27Z"/><path class="cls-7" d="M54.05,43.29a29.77,29.77,0,0,0-6.46.06c-3,.43-7.52,1.86-7.46,2.06s4.94-1.63,7.36-1.8,6.74,0,6.74,0Z"/><path class="cls-7" d="M52.53,43.4a3.28,3.28,0,0,1-.63,1.17,9.15,9.15,0,0,0-1.08,1.68,9.72,9.72,0,0,0,1.25-1.56c.36-.53.82-1.27.82-1.27Z"/><path class="cls-7" d="M49.53,43.42a5,5,0,0,1-.66,1.91c-.66,1.36-.92,1.76-.76,1.79s.66-1,1-1.74.85-2,.85-2Z"/><path class="cls-7" d="M46.62,43.69a3.63,3.63,0,0,1-.23,1.42c-.3,1-.66,1.58-.53,1.65s.49-.87.69-1.59.5-1.63.5-1.63Z"/><path class="cls-7" d="M43.48,44.43a2.11,2.11,0,0,1-.16.84c-.18.52-.47,1-.38,1a1.83,1.83,0,0,0,.53-.91l.28-1Z"/><path class="cls-7" d="M52.89,43.31a4.43,4.43,0,0,0-1.13-1.08,3.53,3.53,0,0,0-1.46-.6c-.08.07.83.33,1.15.54a12.23,12.23,0,0,1,1.18,1.14Z"/><path class="cls-7" d="M49.81,43.23A2.88,2.88,0,0,0,48.88,42a4.45,4.45,0,0,0-2.05-.8c-.2.06,1.5.49,1.88.86a4.23,4.23,0,0,1,.69,1.21Z"/><path class="cls-7" d="M47.05,43.54a6.75,6.75,0,0,0-1.39-1.09A5.58,5.58,0,0,0,44,42c-.19,0,1.28.33,1.69.62a9.06,9.06,0,0,1,1,1Z"/><path class="cls-7" d="M43.48,44.35s0-.25-.73-.5-1.07-.43-.92-.43a4.16,4.16,0,0,1,.91.24,5.61,5.61,0,0,1,1.07.6Z"/><path class="cls-3" d="M8.18,47.53c-3,2.19-6.91,9.14-2.29,14.85s11.37,6.05,16.46,2.7a11.49,11.49,0,0,0,1.43-18.14C18.63,42.05,12.68,44.22,8.18,47.53Z"/><path class="cls-4" d="M20.67,46.71h0Z"/><path class="cls-4" d="M20,47.43c-.34-.16-.74-.52-.41-.84s.78,0,1.09.12C21.09,47.11,20.91,47.89,20,47.43Z"/><path class="cls-4" d="M20.65,46.71l-.53-.21A.8.8,0,0,1,20.65,46.71Z"/><path class="cls-4" d="M21.61,48.24c-.14-.1-.31-.3-.14-.44a.22.22,0,0,1,.33.07.44.44,0,0,1,.22.29C22.05,48.45,21.74,48.34,21.61,48.24Z"/><path class="cls-4" d="M19.32,48.06a.35.35,0,0,1,.33,0c.16,0,.35.08.39.21s0,.06,0,.08l0,0,0,0c0,.15-.38,0-.51,0S19.05,48.2,19.32,48.06Z"/><path class="cls-4" d="M20.08,48.39h0Z"/><path class="cls-4" d="M18.59,47.27c.15,0,.32.22.23.36s-.44.09-.56,0C17.75,47.37,18.4,47.16,18.59,47.27Z"/><path class="cls-4" d="M18,46.35c.1,0,.29-.06.37,0a.15.15,0,0,1,0,.18c0,.1-.18.19-.25.23s-.92.32-1,.06S17.77,46.38,18,46.35Z"/><path class="cls-4" d="M18.79,45.83c-.15.09-.71.06-.77-.16s.3-.28.45-.26a.55.55,0,0,1,.24.14C18.86,45.62,19,45.74,18.79,45.83Z"/><path class="cls-4" d="M21.51,47.16c-.29-.22,0-.34.22-.3h0c.13,0,.46.14.38.32S21.62,47.24,21.51,47.16Z"/><path class="cls-4" d="M22.73,48.54c-.11-.13-.44-.67-.06-.69a.23.23,0,0,1,.19.1,1.08,1.08,0,0,1,.39.53C23.4,49,22.92,48.76,22.73,48.54Z"/><path class="cls-4" d="M20.68,48.69a.74.74,0,0,1,.5,0,1,1,0,0,1,.67.52c.12.52-.79.14-1,.08S20.25,48.85,20.68,48.69Z"/><path class="cls-4" d="M19.15,49.1c.15,0,.3.17.3.29s-.52.18-.67.11C18.22,49.24,19,49,19.15,49.1Z"/><path class="cls-4" d="M15.57,46.22a.25.25,0,0,1,.25.1.7.7,0,0,1-1.05,0A.58.58,0,0,1,15.57,46.22Z"/><path class="cls-4" d="M17,47.56c-.31.11-1.16.16-1.23-.28a.75.75,0,0,1,.68-.08C16.76,47.19,17,47.28,17,47.56Z"/><path class="cls-4" d="M16.43,45.26a.44.44,0,0,1,.62-.06.28.28,0,0,1,.15.18A.59.59,0,0,1,16.43,45.26Z"/><path class="cls-4" d="M14.12,47.09c.63,0-.18.81-.53.55S13.87,46.93,14.12,47.09Z"/><path class="cls-4" d="M23.05,49.68c.19-.15.36,0,.47.18.42.27.92.91.52,1.06S23.06,50,23.05,49.68Z"/><path class="cls-4" d="M24.2,48.86c.54.1.29,1-.23.38C23.65,48.86,24,48.74,24.2,48.86Z"/><path class="cls-4" d="M21.13,50.51a.27.27,0,0,1,.2.24c-.2.15-.74.16-.87-.1S21,50.2,21.13,50.51Z"/><path class="cls-4" d="M16.34,49l0-.05a.5.5,0,0,1,0,.12s0,.09,0,.11c-.12.3-.74.31-.62-.07S16.19,48.89,16.34,49Z"/><path class="cls-4" d="M10.78,48.24c.37-.5,1.12,0,.65.16C11.15,48.6,10.42,48.74,10.78,48.24Z"/><path class="cls-4" d="M23.73,53l-.08-.13a.87.87,0,0,1,.4.63c-.21.06-.85-.36-.83-.64S23.54,52.76,23.73,53Z"/><path class="cls-4" d="M18.05,51.62a.14.14,0,0,1-.21,0c-.26,0-.74,0-.54-.31S18,51.4,18.05,51.62Z"/><path class="cls-4" d="M25.89,51.33a.41.41,0,0,1,0,.22c-.32.11-1.13,0-.86-.51S25.8,51,25.89,51.33Z"/><path class="cls-4" d="M24.77,50h0a.27.27,0,0,1,.33.26.4.4,0,0,1-.56-.21A.36.36,0,0,1,24.77,50Z"/><path class="cls-5" d="M23.72,61.29c1.18.86-4.8,5.2-8.69,5.05a11.47,11.47,0,0,1-9.4-6c-1-2.15-.67-8.23.62-7.81.46.15-.11,2.22,1.78,5.35,1.65,2.74,4.47,5.45,8.21,5.26C21.36,62.89,22.94,60.72,23.72,61.29Z"/><path class="cls-6" d="M10.9,46.23a.55.55,0,0,1,.49.84c-.33.8-2.27,2.1-2.83,1.88s-.59-.87.23-1.5A4.86,4.86,0,0,1,10.9,46.23Z"/><path class="cls-6" d="M9.89,47.3S7.63,45,7,44.08a42,42,0,0,1-2.14-4.22s-.2-.3-.48-.25-.19.47-.19.47,1.57,3.23,2.21,4.12c1.3,1.8,3,3.77,3,3.77Z"/><path class="cls-6" d="M5.94,42.9c.14,0,3.73-.48,3.73-.48l.14.22L8,42.94l-1.85.31Z"/><path class="cls-6" d="M13.72,47.1c3.85,1,9.55-1.77,9.55-1.77s-3.81-4.43-7.07-4.77-8.93,2.27-8.93,2.27A13.42,13.42,0,0,0,13.72,47.1Z"/><path class="cls-7" d="M10.87,46.47a.8.8,0,0,1,.08.79,4.06,4.06,0,0,1-1.4,1.12l-.09-.71s.3-.2.33-.38a.41.41,0,0,0,0-.27Z"/><path class="cls-7" d="M8.53,42.93A30.48,30.48,0,0,1,15,43c3,.43,7.52,1.87,7.46,2.07s-4.94-1.64-7.36-1.8-6.74,0-6.74,0Z"/><path class="cls-7" d="M10.05,43a3.41,3.41,0,0,0,.62,1.18,8.25,8.25,0,0,1,1.09,1.68,10.43,10.43,0,0,1-1.26-1.57c-.35-.52-.81-1.26-.81-1.26Z"/><path class="cls-7" d="M13,43.06A5.29,5.29,0,0,0,13.7,45c.67,1.36.93,1.75.77,1.78s-.66-1-1-1.74-.85-2-.85-2Z"/><path class="cls-7" d="M16,43.34a3.65,3.65,0,0,0,.23,1.42c.3,1,.66,1.57.52,1.64s-.48-.86-.68-1.59-.5-1.62-.5-1.62Z"/><path class="cls-7" d="M19.09,44.08a2.39,2.39,0,0,0,.16.84c.19.52.48,1,.39,1a1.88,1.88,0,0,1-.53-.92l-.28-1Z"/><path class="cls-7" d="M9.69,43a4.38,4.38,0,0,1,1.13-1.09,3.61,3.61,0,0,1,1.46-.59c.08.07-.83.33-1.15.54A11.59,11.59,0,0,0,9.94,43Z"/><path class="cls-7" d="M12.77,42.87a2.91,2.91,0,0,1,.92-1.23,4.56,4.56,0,0,1,2.06-.8c.19.07-1.5.49-1.88.87a4.22,4.22,0,0,0-.7,1.2Z"/><path class="cls-7" d="M15.53,43.19a6.54,6.54,0,0,1,1.38-1.1,6.39,6.39,0,0,1,1.66-.42c.2,0-1.27.33-1.68.62a8.6,8.6,0,0,0-1.05,1Z"/><path class="cls-7" d="M19.1,44s0-.24.73-.5,1.07-.42.92-.43a4.88,4.88,0,0,0-.91.24,5.66,5.66,0,0,0-1.08.61Z"/><path class="cls-8" d="M8.58,64.8c1.21,4.8,4.31,16.83,6.17,21.38,2.36,5.73,1.26,8.24,9,9,6.68.67,20.45.36,26.27.21,5.82.15,19.6.46,26.28-.21,7.78-.79,6.68-3.3,9-9,1.87-4.55,5.22-18.45,6.42-23.25Z"/><path class="cls-9" d="M94.06,60.58c-.63-2.28-4.19-1.78-5.9-1.7-.58,0-1.17,0-1.75,0-2.93.06-5.85.09-8.77.13-3.31,0-42.61.84-45.88,1L22,60.33c-2.87.1-5.73.2-8.6.28-.57,0-1.15,0-1.72,0-1.68,0-5.2-.33-5.71,1.93A2.32,2.32,0,0,0,7.72,65.4a14.82,14.82,0,0,0,3.39-.1C14.38,65.1,17.67,65,21,65l9.94-.24L41,64.5c1.23,0,7.54-.08,9.09-.11l8.48-.21,10.28-.26L79,63.7c3.34-.08,6.69-.18,10-.12a15.22,15.22,0,0,0,3.44-.06A2.37,2.37,0,0,0,94.06,60.58Z"/><path class="cls-10" d="M13.09,65.15c-.84-.13-1.05-1.36-1.12-2A4.39,4.39,0,0,1,12.43,61a0,0,0,0,0-.07,0,3.25,3.25,0,0,0-.53,2.72,4,4,0,0,0,.17.63A2.62,2.62,0,0,1,12,61a.06.06,0,0,0-.09-.07,2.88,2.88,0,0,0,.52,4.14h.06a.79.79,0,0,0,.6.25C13.19,65.33,13.18,65.16,13.09,65.15Z"/><path class="cls-10" d="M13.22,65a3.39,3.39,0,0,1-.1-4,.06.06,0,0,0-.09-.08,3.08,3.08,0,0,0-.79,2.07,2.88,2.88,0,0,0,.87,2.15C13.18,65.11,13.27,65,13.22,65Z"/><path class="cls-10" d="M23.13,65a5.29,5.29,0,0,1-.8-4.76.06.06,0,1,0-.11-.05c-.69,1.46-.73,4,.77,5A.1.1,0,0,0,23.13,65Z"/><path class="cls-10" d="M24,65a5.25,5.25,0,0,1-.77-4.67s-.06-.08-.08,0a4,4,0,0,0-.39,2.44c0,.15.06.32.09.49-.07-.15-.15-.31-.21-.47a3.71,3.71,0,0,1,.11-2.46.07.07,0,0,0-.12,0c-.63,1.38-.63,3.39.7,4.4l.05,0a1.93,1.93,0,0,0,.45.49C23.9,65.23,24.05,65.1,24,65Z"/><path class="cls-10" d="M36.33,64.51a6.78,6.78,0,0,1-.93-2.28,4.29,4.29,0,0,1,.21-1.95c0-.13.2-.35.17-.51a.07.07,0,0,0-.07-.06c-.52.1-.71,1.65-.7,2.06a3.32,3.32,0,0,0,1.22,2.83C36.28,64.63,36.37,64.58,36.33,64.51Z"/><path class="cls-10" d="M37.38,64.48c-.85-1.33-1.58-3-1-4.6,0-.08-.07-.11-.11-.05-.72,1.3-.48,4,.95,4.8C37.36,64.69,37.43,64.55,37.38,64.48Z"/><path class="cls-10" d="M51,61.4c-.09-.65,0-1.25,0-1.88,0-.09-.11-.09-.14,0a4.27,4.27,0,0,0,.55,4,.07.07,0,0,0,.11-.07A11.35,11.35,0,0,1,51,61.4Z"/><path class="cls-10" d="M50.94,64.28a8.93,8.93,0,0,1-.86-4.71c0-.1-.12-.11-.14,0a6,6,0,0,0,0,2.6,4.9,4.9,0,0,0,.79,2.25A.12.12,0,0,0,50.94,64.28Z"/><path class="cls-10" d="M50.51,64.47a9.68,9.68,0,0,1-.81-2.28,12,12,0,0,1,0-2.54.08.08,0,1,0-.15,0c-.29,1.51-.52,3.85.77,5C50.4,64.73,50.57,64.59,50.51,64.47Z"/><path class="cls-10" d="M59.51,60.57c0-.34.07-1.15-.16-1.41,0,0-.09,0-.09,0a6.74,6.74,0,0,0,.43,3.67c0,.06.13,0,.12,0C59.72,62.07,59.57,61.33,59.51,60.57Z"/><path class="cls-10" d="M60.51,61.52c0-.78.05-1.56,0-2.33a.08.08,0,0,0-.16,0A9.28,9.28,0,0,0,60.65,64c0,.06.11,0,.1,0C60.7,63.18,60.56,62.35,60.51,61.52Z"/><path class="cls-10" d="M59.92,61.32c-.06-.65,0-1.31,0-2,0-.08-.13-.07-.15,0a6.23,6.23,0,0,0,.44,4.15s.1,0,.09,0A13,13,0,0,1,59.92,61.32Z"/><path class="cls-10" d="M68.36,61.46a15.62,15.62,0,0,0,0-2.37c0-.09-.16-.1-.17,0-.13,1.51-.5,3.72.56,5a.12.12,0,0,0,.2-.12A10.29,10.29,0,0,1,68.36,61.46Z"/><path class="cls-10" d="M69.13,61.69c-.07-.84.09-1.65.08-2.48,0-.11-.15-.09-.17,0-.33,1.37-.73,3.79.43,4.91.07.07.22,0,.2-.12A12.93,12.93,0,0,1,69.13,61.69Z"/><path class="cls-10" d="M81.2,61.71c0-.87-.21-2.4-1-2.94a.06.06,0,0,0-.09.07,9.11,9.11,0,0,1,.62,2.62c.08.74-.28,1.53-.17,2.22,0,.07.1.14.17.1C81.33,63.45,81.21,62.28,81.2,61.71Z"/><path class="cls-10" d="M81.25,58.85a.1.1,0,0,0-.18.1,7,7,0,0,1,.38,4.49c0,.07.06.14.11.07A4.14,4.14,0,0,0,81.25,58.85Z"/><path class="cls-10" d="M91.55,60.55a2.78,2.78,0,0,0-.77-2c-.09-.07-.2,0-.14.14.87,1.32.61,3.21.42,4.67a.15.15,0,0,0,.29.08A7.09,7.09,0,0,0,91.55,60.55Z"/><path class="cls-10" d="M90.44,58.58a.09.09,0,0,0-.16.09A12.12,12.12,0,0,1,90.74,60a10.43,10.43,0,0,1,.12,1.48.15.15,0,0,0,.3,0A3.81,3.81,0,0,0,90.44,58.58Z"/><path class="cls-11" d="M94.06,60.58a2,2,0,0,0-.71-1.07A2.09,2.09,0,0,1,92,60.62a15.46,15.46,0,0,1-3.4.05c-3.3-.05-6.61,0-9.91.12l-10,.22-10.15.25-8.37.2c-1.53,0-7.75.09-9,.11l-10,.22-9.8.23c-3.24.08-6.49.14-9.72.34a14.94,14.94,0,0,1-3.34.1,2.05,2.05,0,0,1-1.47-1.13A2,2,0,0,0,6,62.59,2.32,2.32,0,0,0,7.72,65.4a14.82,14.82,0,0,0,3.39-.1C14.38,65.1,17.67,65,21,65l9.94-.24L41,64.5c1.23,0,7.54-.08,9.09-.11l8.48-.21,10.28-.26L79,63.7c3.34-.08,6.69-.18,10-.12a15.22,15.22,0,0,0,3.44-.06A2.37,2.37,0,0,0,94.06,60.58Z"/><path class="cls-11" d="M81.11,62.75,70.24,63l-11,.27-9.11.22c-1.67,0-8.44.1-9.77.12l-10.84.24-10.68.26c-3.52.09-7,.15-10.57.37-.57,0-1.16.11-1.75.15a2,2,0,0,0,1.25.77,14.82,14.82,0,0,0,3.39-.1C14.38,65.1,17.67,65,21,65l9.94-.24L41,64.5c1.23,0,7.54-.08,9.09-.11l8.48-.21,10.28-.26L79,63.7c3.34-.08,6.69-.18,10-.12a15.22,15.22,0,0,0,3.44-.06,2,2,0,0,0,1.22-.82c-.6,0-1.2-.07-1.78-.07C88.3,62.57,84.71,62.67,81.11,62.75Z"/><g class="cls-12"><path class="cls-13" d="M8.77,61.12a3.06,3.06,0,0,0-1.27.14.16.16,0,0,0,0,.32,4.19,4.19,0,0,0,.5,0,6.48,6.48,0,0,0,.77-.09A.17.17,0,0,0,8.77,61.12Z"/><path class="cls-13" d="M10.11,60.94a1.1,1.1,0,0,0-.54,0,.16.16,0,0,0,0,.31,1.1,1.1,0,0,0,.54,0A.16.16,0,0,0,10.11,60.94Z"/><path class="cls-13" d="M21.45,60.73a26.2,26.2,0,0,0-4.06,0,20.78,20.78,0,0,0-3.7.21.06.06,0,0,0,0,.11,18.28,18.28,0,0,0,3.47.07A35.87,35.87,0,0,0,21.44,61,.14.14,0,0,0,21.45,60.73Z"/><path class="cls-13" d="M33.56,60.54a21.18,21.18,0,0,0-4.21.05c-1.69,0-3.36,0-5,.15-.07,0-.07.12,0,.13,1.56.09,3.14.17,4.71.19a21.5,21.5,0,0,0,4.54-.18A.17.17,0,0,0,33.56,60.54Z"/><path class="cls-13" d="M48.84,60a37.69,37.69,0,0,0-5.52.06,32.49,32.49,0,0,0-5.41.3c-.08,0-.09.15,0,.15,1.72,0,3.4.1,5.12,0a46.88,46.88,0,0,0,5.81-.21A.18.18,0,0,0,48.84,60Z"/><path class="cls-13" d="M57.73,59.91a24.87,24.87,0,0,0-2.59,0c-.89,0-1.81.16-2.69.14a.07.07,0,0,0,0,.14,12.16,12.16,0,0,0,2.34.07,22.48,22.48,0,0,0,3,0A.15.15,0,0,0,57.73,59.91Z"/><path class="cls-13" d="M67.39,59.84c-1.85-.34-3.75.06-5.6,0-.07,0-.08.08,0,.1a14.53,14.53,0,0,0,2.8.14,13.89,13.89,0,0,0,2.81,0A.12.12,0,0,0,67.39,59.84Z"/><path class="cls-13" d="M78.09,59.67c-2.74-.3-5.49,0-8.24-.08-.18,0-.22.27,0,.29a23.73,23.73,0,0,0,3.77.13c1.5-.1,3,0,4.51-.15A.1.1,0,0,0,78.09,59.67Z"/><path class="cls-13" d="M80.08,59.62a1.63,1.63,0,0,0-1.15-.13c-.16,0-.18.29,0,.3a4.93,4.93,0,0,0,1.08.09C80.12,59.86,80.2,59.69,80.08,59.62Z"/><path class="cls-13" d="M89,59.18a30.18,30.18,0,0,0-6.23.16s-.05.08,0,.08a32.42,32.42,0,0,0,6.23,0A.11.11,0,0,0,89,59.18Z"/><path class="cls-13" d="M92.8,59.32a1.51,1.51,0,0,0-.93-.19c-.14,0-.13.22,0,.24.29,0,.55.14.84.16C92.82,59.53,92.91,59.39,92.8,59.32Z"/></g><path class="cls-10" d="M14,74.72a21.05,21.05,0,0,1-.83-3.09,23.13,23.13,0,0,1-.09-3c0-.12-.16-.1-.19,0a10.19,10.19,0,0,0,.8,6.22C13.73,75,14,74.91,14,74.72Z"/><path class="cls-10" d="M16.44,75.47a11.68,11.68,0,0,1-1.17-3,21.74,21.74,0,0,1-.18-3.13c0-.16-.27-.16-.29,0-.17,2.21-.18,4.53,1.35,6.32C16.27,75.77,16.53,75.64,16.44,75.47Z"/><path class="cls-10" d="M18.52,74.45a17.92,17.92,0,0,1-.84-2.6,16.78,16.78,0,0,1-.15-3,.14.14,0,0,0-.28,0,8.51,8.51,0,0,0,1,5.77C18.36,74.76,18.58,74.61,18.52,74.45Z"/><path class="cls-10" d="M18.7,89.34a17.89,17.89,0,0,1-1.26-5,.08.08,0,1,0-.15,0,10.77,10.77,0,0,0,1.21,5.07C18.57,89.57,18.76,89.46,18.7,89.34Z"/><path class="cls-10" d="M20.9,88.88a18,18,0,0,1-1-3.11,9.16,9.16,0,0,0-.46-2.34.12.12,0,0,0-.22.06c.16.87.22,1.77.37,2.65A9.71,9.71,0,0,0,20.62,89,.15.15,0,0,0,20.9,88.88Z"/><path class="cls-10" d="M23.3,89.41A17.36,17.36,0,0,1,22,83.9c0-.17-.31-.18-.32,0a11.2,11.2,0,0,0,1.24,5.66C23.06,89.77,23.4,89.64,23.3,89.41Z"/><path class="cls-10" d="M24.79,82.47a10.34,10.34,0,0,1-1.15-2.89,32.81,32.81,0,0,1-.44-3.43c0-.12-.21-.13-.22,0a10.09,10.09,0,0,0,1.53,6.48C24.62,82.78,24.88,82.63,24.79,82.47Z"/><path class="cls-10" d="M26.6,82.81a25.48,25.48,0,0,1-1-3.29c-.2-1-.26-2.1-.44-3.15a.12.12,0,0,0-.24,0c.26,2.3.37,4.41,1.46,6.5A.12.12,0,0,0,26.6,82.81Z"/><path class="cls-10" d="M28.79,81.63a29.18,29.18,0,0,1-1-4.09.11.11,0,0,0-.21,0,9.51,9.51,0,0,0,1,4.21A.15.15,0,0,0,28.79,81.63Z"/><path class="cls-10" d="M29,76.43a22.06,22.06,0,0,1-.67-2.54c-.15-1-.25-2.1-.38-3.14a.13.13,0,0,0-.26,0,15.07,15.07,0,0,0,1,5.73C28.75,76.65,29,76.6,29,76.43Z"/><path class="cls-10" d="M31.59,76.48a15.67,15.67,0,0,1-1.08-3.06A18.84,18.84,0,0,0,30,70.85a.09.09,0,0,0-.18.05c.37,2,.3,4,1.47,5.76A.18.18,0,0,0,31.59,76.48Z"/><path class="cls-10" d="M32.73,70.83a.07.07,0,0,0-.14,0,43.12,43.12,0,0,0,1,5.15c0,.14.28.08.25-.07C33.58,74.24,33.21,72.5,32.73,70.83Z"/><path class="cls-10" d="M43.1,80.25a.1.1,0,0,0-.19,0,11,11,0,0,0,.2,5.13c0,.18.36.1.32-.09A16.54,16.54,0,0,1,43.1,80.25Z"/><path class="cls-10" d="M44.85,80.47c0-.18-.32-.18-.33,0a15.61,15.61,0,0,0,.61,5.81.15.15,0,0,0,.29-.08A44,44,0,0,1,44.85,80.47Z"/><path class="cls-10" d="M48.85,85.54a22,22,0,0,1-1.15-5.68c0-.18-.27-.13-.27,0a12.79,12.79,0,0,0,1.11,5.77A.17.17,0,0,0,48.85,85.54Z"/><path class="cls-10" d="M50.24,74c0-.09-.17-.09-.17,0a26.94,26.94,0,0,0,.33,6.53.14.14,0,0,0,.28,0A64.3,64.3,0,0,1,50.24,74Z"/><path class="cls-10" d="M52.73,73.43c0-.15-.2-.17-.23,0a13.72,13.72,0,0,0-.09,6.34.14.14,0,0,0,.27,0A29.21,29.21,0,0,1,52.73,73.43Z"/><path class="cls-10" d="M55.11,76.33c-.08-1.16,0-2.33,0-3.48,0-.15-.23-.14-.25,0a13.55,13.55,0,0,0,.66,7.25A.15.15,0,0,0,55.8,80,35.76,35.76,0,0,1,55.11,76.33Z"/><path class="cls-10" d="M66.1,81c.1-1.17.39-2.34.56-3.51a.11.11,0,0,0-.22,0c-.58,2.45-1.19,4.82-.57,7.32a.2.2,0,0,0,.39-.05A17.25,17.25,0,0,1,66.1,81Z"/><path class="cls-10" d="M68.5,78.61a.14.14,0,0,0-.28,0A18.06,18.06,0,0,0,68,85.2a.15.15,0,0,0,.3,0A41,41,0,0,1,68.5,78.61Z"/><path class="cls-10" d="M71.46,80.7a26.8,26.8,0,0,0,.14-3.1c0-.13-.21-.1-.21,0,0,1.12-.29,2.26-.36,3.38a13.39,13.39,0,0,0,.15,3.35.16.16,0,0,0,.31,0C71.45,83.11,71.42,81.91,71.46,80.7Z"/><path class="cls-10" d="M81.44,77.91a16.32,16.32,0,0,0-.88,6.61.12.12,0,0,0,.24,0c.08-1.1.07-2.2.21-3.3s.54-2.18.6-3.27C81.61,77.86,81.47,77.81,81.44,77.91Z"/><path class="cls-10" d="M83.59,78.25c-.37,2.37-1,4.69-.74,7.12,0,.21.37.22.38,0a36.28,36.28,0,0,1,.2-3.76c.12-1.11.39-2.21.42-3.33A.13.13,0,0,0,83.59,78.25Z"/><path class="cls-10" d="M72.56,88.54c0-.78.16-1.56.18-2.34a.08.08,0,0,0-.15,0,6.36,6.36,0,0,0-.34,2.34,9.43,9.43,0,0,0,.23,2.75c0,.18.32.15.29,0A14,14,0,0,1,72.56,88.54Z"/><path class="cls-10" d="M74.89,86.39c0-.11-.14-.14-.19,0a8,8,0,0,0-.07,5.07.14.14,0,0,0,.27-.07A12.5,12.5,0,0,1,74.89,86.39Z"/><path class="cls-10" d="M77.39,86.46a.11.11,0,0,0-.22,0,17.2,17.2,0,0,0,.1,4.7.18.18,0,0,0,.35,0C77.44,89.57,77.59,88,77.39,86.46Z"/><path class="cls-10" d="M74.31,73.31c.07-1,.31-1.9.47-2.86a.08.08,0,0,0-.16,0c-.49,2.09-1,4.08-.29,6.2,0,.12.24.06.22-.06A13.75,13.75,0,0,1,74.31,73.31Z"/><path class="cls-10" d="M77.19,73.35c0-.88.18-1.75.18-2.64,0-.13-.23-.13-.23,0-.15,2.12-.67,4.16,0,6.26.05.19.34.1.32-.09A19.76,19.76,0,0,1,77.19,73.35Z"/><path class="cls-10" d="M80.3,70.81c0-.17-.26-.21-.27,0-.11,2.08-.76,4.14-.37,6.24A.15.15,0,0,0,80,77,60.43,60.43,0,0,1,80.3,70.81Z"/><path class="cls-10" d="M31.92,65.75a19.22,19.22,0,0,1-5.35.46c-.09,0-.1.12,0,.14A9.84,9.84,0,0,0,32,66.07C32.18,66,32.11,65.71,31.92,65.75Z"/><path class="cls-10" d="M32.72,67.6c-1.91.38-4.16,1-6.12.51-.07,0-.1.1,0,.13a6.28,6.28,0,0,0,2.66.33,9.64,9.64,0,0,0,3.57-.68C33,67.82,32.89,67.56,32.72,67.6Z"/><path class="cls-10" d="M26.3,70.58a13.61,13.61,0,0,1-5.05.1c-.07,0-.11.1,0,.13a7.29,7.29,0,0,0,5.16.09C26.55,70.82,26.49,70.54,26.3,70.58Z"/><path class="cls-10" d="M26.63,73.09a21.23,21.23,0,0,1-5.1.14c-.09,0-.13.13,0,.15a9.81,9.81,0,0,0,5.24.08C27,73.4,26.84,73.06,26.63,73.09Z"/><path class="cls-10" d="M26.45,75.31a17.74,17.74,0,0,1-4.77-.12c-.09,0-.12.12,0,.15a7.28,7.28,0,0,0,4.89.24C26.69,75.53,26.61,75.3,26.45,75.31Z"/><path class="cls-10" d="M35.28,77a23,23,0,0,1-6.13.73c-.2,0-.25.3,0,.32a14,14,0,0,0,6.27-.7A.18.18,0,0,0,35.28,77Z"/><path class="cls-10" d="M34.73,79.88a18.73,18.73,0,0,1-5.49.24.14.14,0,0,0-.07.26,9.83,9.83,0,0,0,5.66-.13A.19.19,0,0,0,34.73,79.88Z"/><path class="cls-10" d="M34.55,82.58c-1.5.31-3.34,1-4.88.68a.12.12,0,0,0-.06.22c1.48.51,3.62,0,5-.49A.22.22,0,0,0,34.55,82.58Z"/><path class="cls-10" d="M29.4,84.4c-1.88,0-3.76.34-5.64-.08-.07,0-.1.09,0,.12a9.79,9.79,0,0,0,5.67.29C29.56,84.69,29.61,84.4,29.4,84.4Z"/><path class="cls-10" d="M29.9,86.07a21.23,21.23,0,0,1-5.34.2c-.13,0-.15.17,0,.2a12.7,12.7,0,0,0,5.42,0A.21.21,0,0,0,29.9,86.07Z"/><path class="cls-10" d="M29.85,87.87a16,16,0,0,1-5.38.45c-.11,0-.16.16,0,.19a9.09,9.09,0,0,0,5.5-.36C30.08,88.1,30,87.85,29.85,87.87Z"/><path class="cls-10" d="M20.25,76.93c-2,0-4,.48-6,.23-.12,0-.14.16,0,.19a12.8,12.8,0,0,0,6.12-.15C20.49,77.16,20.39,76.93,20.25,76.93Z"/><path class="cls-10" d="M20,79.71c-1.55-.21-3.1-.18-4.65-.32a.1.1,0,0,0,0,.2A31.37,31.37,0,0,0,20,80C20.16,80,20.2,79.73,20,79.71Z"/><path class="cls-10" d="M20.37,82.08a26.63,26.63,0,0,1-4.64.12.13.13,0,0,0,0,.26,9.11,9.11,0,0,0,4.75-.13A.13.13,0,0,0,20.37,82.08Z"/><path class="cls-10" d="M47.74,75.26c-2.16.07-4.27.15-6.43,0a.08.08,0,0,0,0,.16,17.43,17.43,0,0,0,6.48,0A.13.13,0,0,0,47.74,75.26Z"/><path class="cls-10" d="M49,77.45c-1.38,0-2.76.18-4.15.23a33.56,33.56,0,0,1-3.87-.2.09.09,0,0,0,0,.18,22.39,22.39,0,0,0,8.08.08A.15.15,0,0,0,49,77.45Z"/><path class="cls-10" d="M48.2,79.36a39,39,0,0,1-7.4.14.08.08,0,0,0,0,.16,13.44,13.44,0,0,0,3.23.21,23.84,23.84,0,0,0,4.22-.31A.1.1,0,0,0,48.2,79.36Z"/><path class="cls-10" d="M55,68.18c-1,0-1.89.1-2.85.08s-1.81-.16-2.69-.26a.06.06,0,0,0,0,.12,13.08,13.08,0,0,0,5.56.36C55.11,68.44,55.13,68.18,55,68.18Z"/><path class="cls-10" d="M54.82,69.79a21.65,21.65,0,0,1-5.63-.21c-.08,0-.12.12,0,.16a11.13,11.13,0,0,0,5.7.28A.12.12,0,0,0,54.82,69.79Z"/><path class="cls-10" d="M55.3,71.26a19.61,19.61,0,0,1-7.44.26c-.09,0-.1.1,0,.12a14.09,14.09,0,0,0,7.54-.09C55.54,71.5,55.46,71.23,55.3,71.26Z"/><path class="cls-10" d="M72.87,71.5a21.92,21.92,0,0,1-4,.16,25.57,25.57,0,0,1-3.48-.6.1.1,0,0,0-.06.19,12.78,12.78,0,0,0,7.56.57A.16.16,0,0,0,72.87,71.5Z"/><path class="cls-10" d="M72.09,73.83A20.54,20.54,0,0,1,66,73.57c-.1,0-.14.15,0,.18a11.27,11.27,0,0,0,6.14.42A.17.17,0,0,0,72.09,73.83Z"/><path class="cls-10" d="M73.16,75.89a15.33,15.33,0,0,1-7.67.36c-.18,0-.2.23,0,.27a12.2,12.2,0,0,0,7.85-.31C73.5,76.12,73.37,75.83,73.16,75.89Z"/><path class="cls-10" d="M87.5,70.63a38.5,38.5,0,0,1-5.26-.21c-.12,0-.14.16,0,.19A19.06,19.06,0,0,0,87.5,71C87.7,71,87.7,70.63,87.5,70.63Z"/><path class="cls-10" d="M86.34,72.72a14.52,14.52,0,0,1-4,.07.11.11,0,0,0,0,.22,9.9,9.9,0,0,0,4,0A.16.16,0,0,0,86.34,72.72Z"/><path class="cls-10" d="M85.86,75.46a10.55,10.55,0,0,1-4.43.33c-.11,0-.16.15-.05.19a6.3,6.3,0,0,0,4.56-.21C86.1,75.7,86,75.43,85.86,75.46Z"/><path class="cls-10" d="M79.05,77.92a23.7,23.7,0,0,1-5.19,0c-.1,0-.15.15,0,.18a9.16,9.16,0,0,0,2.45.26,15.73,15.73,0,0,0,2.83-.1A.18.18,0,0,0,79.05,77.92Z"/><path class="cls-10" d="M78.58,81a31.44,31.44,0,0,1-5.57-.5c-.15,0-.21.21-.07.25a17,17,0,0,0,5.64.6C78.78,81.38,78.78,81,78.58,81Z"/><path class="cls-10" d="M78.43,84.13A16.85,16.85,0,0,1,73,83.75a.13.13,0,0,0-.07.25,11.67,11.67,0,0,0,5.56.49A.18.18,0,0,0,78.43,84.13Z"/><g class="cls-14"><path class="cls-8" d="M54.67,68.63c.25,0,.5.37.24.58a3.7,3.7,0,0,1-2.15.49,7.84,7.84,0,0,1-2.84-.46.3.3,0,0,1-.14-.1c-.34-.13-.16-.69.24-.63a16.43,16.43,0,0,0,2.8.22A14.34,14.34,0,0,1,54.67,68.63Z"/><path class="cls-8" d="M52.08,80.09a.31.31,0,0,1-.13.36.33.33,0,0,1-.6.06,8,8,0,0,1-.8-4.15c0-.69,0-2.18.77-2.49a.37.37,0,0,1,.33.09c.38.33.26,1.1.2,1.54A10.77,10.77,0,0,0,52.08,80.09Z"/><path class="cls-8" d="M50.14,71.42c-.53,0-1.42-.34-1.58-.93-.21-.23.1-.67.44-.5,1.61.78,3.64.57,5.36.42.39,0,.45.56.09.66A12.77,12.77,0,0,1,50.14,71.42Z"/><path class="cls-8" d="M53.72,73.52a.34.34,0,0,1,.56.15,3,3,0,0,1-.18,1.86,7.78,7.78,0,0,0,0,2.68c.14.65.41,1.22.57,1.85a.34.34,0,0,1-.5.38c-1.06-.47-1.37-2.09-1.4-3.12S52.8,74.33,53.72,73.52Z"/><path class="cls-8" d="M32.4,72.68c.06.7.13,1.39.24,2.09a1.89,1.89,0,0,1-.06,1,.34.34,0,0,1-.49.2c-1-.64-1.11-2.35-1.15-3.49s0-2,.68-1.88S32.35,72.15,32.4,72.68Z"/><path class="cls-8" d="M33.67,79.57a9.37,9.37,0,0,1-4-.17.34.34,0,0,1-.18-.1.62.62,0,0,1-.14-.14.43.43,0,0,1,.12-.54.1.1,0,0,1,.05,0,.27.27,0,0,1,.28-.16,16.08,16.08,0,0,0,2.86-.14c.84-.09,1.58-.38,2.39-.5a.35.35,0,0,1,.43.32C35.56,79,34.4,79.41,33.67,79.57Z"/><path class="cls-8" d="M35,81.09c-.72,2-4.05,1.7-5.34.57a.33.33,0,0,1,.05-.51.31.31,0,0,1,.4-.27,6.55,6.55,0,0,0,2.82.14c.45-.06,1.48-.59,1.91-.31A.34.34,0,0,1,35,81.09Z"/><path class="cls-8" d="M28.49,73.08c0-.66-.2-1.63.33-2.13a.33.33,0,0,1,.41,0c.57.38.4,1.47.46,2,.1.92.64,1.92.48,2.83a.29.29,0,0,1-.28.24.26.26,0,0,1-.36-.07A5.05,5.05,0,0,1,28.49,73.08Z"/><path class="cls-8" d="M27,66.64a9.4,9.4,0,0,0,2.85.21,9.42,9.42,0,0,1,1.83-.11.34.34,0,0,1,.15.56,4.48,4.48,0,0,1-3.22.71,3,3,0,0,1-1.93-.74.32.32,0,0,1-.06-.15A.33.33,0,0,1,27,66.64Z"/><path class="cls-8" d="M27.51,82.27c-1.54.42-1.77-4.42-1.68-5.12a.35.35,0,0,1,.33-.31.32.32,0,0,1,.51-.06,1.31,1.31,0,0,1,.39.91,13.79,13.79,0,0,0,.46,2.47C27.66,80.58,28.32,82.05,27.51,82.27Z"/><path class="cls-8" d="M26.74,74.39a1.51,1.51,0,0,1-1,.7,4.25,4.25,0,0,1-4.12-.7.32.32,0,0,1,.16-.55.27.27,0,0,1,.28-.06,11.39,11.39,0,0,0,4.43.11C26.71,73.85,26.85,74.19,26.74,74.39Z"/><path class="cls-8" d="M26.2,72.23a4.92,4.92,0,0,1-4.56.46c-.29-.15-.77-.6-.3-.88h0a.37.37,0,0,1,.42-.33,27.67,27.67,0,0,0,4.27.14A.33.33,0,0,1,26.2,72.23Z"/><path class="cls-8" d="M20.38,77.77a.34.34,0,0,1,.34.33c.1,1.3-2.17,1.18-2.94,1.14-.6,0-2.51,0-2.83-.77a.34.34,0,0,1,.28-.6C17,78.28,18.66,77.76,20.38,77.77Z"/><path class="cls-8" d="M15.48,69.84a.18.18,0,0,1,.06-.09,1.17,1.17,0,0,1,.15-.27.68.68,0,0,1,.43-.31.25.25,0,0,1,.39.11,3.27,3.27,0,0,1,.14,1.21A18.43,18.43,0,0,0,17,72.57c.09.36.5,1.38.12,1.7s-.62.13-.88-.18A4.53,4.53,0,0,1,15.48,69.84Z"/><path class="cls-8" d="M13.92,74.09c-.36-.34-.42-1.18-.5-1.64a7.28,7.28,0,0,1,0-2.55.14.14,0,0,1,0-.06.91.91,0,0,1,.44-.71c.73-.38.71,2.88.72,3.12S14.82,75,13.92,74.09Z"/><path class="cls-8" d="M19.87,89a.34.34,0,0,1-.57.24c-.92-.93-1.12-2.43-1.31-3.74,0-.17-.06-.35-.08-.53,0,0,0,0,0-.08v-.06c0-.51.1-.92.57-.92.74,0,.69,1.25.76,1.7A15.46,15.46,0,0,1,19.87,89Z"/><path class="cls-8" d="M19.91,81.48c-1.24.79-5,.7-5.6-.94a.31.31,0,0,1,.14-.36c0-.22.13-.47.4-.36,1.55.61,3.16.26,4.76.49C20.28,80.4,20.58,81.06,19.91,81.48Z"/><path class="cls-8" d="M21.35,88.82a6.64,6.64,0,0,1-1.2-4.17,2.93,2.93,0,0,1,.11-.9c.11-.39.45-.89.93-.61s.3,1,.3,1.51a10,10,0,0,0,.18,2.62,5.41,5.41,0,0,1,.25,1.31A.34.34,0,0,1,21.35,88.82Z"/><path class="cls-8" d="M23.83,77.06a.49.49,0,0,1,.69-.13,2.63,2.63,0,0,1,.31,1.47c.07,1,.39,2,.51,2.95.05.34-.47.44-.62.17A7.11,7.11,0,0,1,23.83,77.06Z"/><path class="cls-8" d="M24.52,84.83c1.23.62,2.7.16,4,.31.23,0,.45.27.29.51-.49.7-1.44.54-2.2.54s-1.95,0-2.48-.76a.26.26,0,0,1,0-.08C23.86,85.12,24.17,84.66,24.52,84.83Z"/><path class="cls-8" d="M24.07,87.14a.34.34,0,0,1,.42-.41l.19.07a.33.33,0,0,1,.22,0,21,21,0,0,0,3.8.3.34.34,0,0,1,.24.57c-.69.7-2.07.54-3,.48S24.38,88,24.07,87.14Z"/><path class="cls-8" d="M70.38,84c0,.34.06.91-.44.91s-.85-.79-1-1.14a5.67,5.67,0,0,1-.29-3.16,7.19,7.19,0,0,1,.43-1.76c.17-.44.51-1.36,1.14-1.29a.49.49,0,0,1,.38.34,2.24,2.24,0,0,1,.13.92l-.09.54c-.08.54-.15,1.09-.21,1.63a13.57,13.57,0,0,0-.09,1.91C70.32,83.3,70.35,83.67,70.38,84Z"/><path class="cls-8" d="M69.15,76.25c-1.08,0-3.5,0-3.7-1.49a.36.36,0,0,1,.12-.34.31.31,0,0,1,.41-.28,10.34,10.34,0,0,0,3.66.65,11.11,11.11,0,0,1,2.21-.18.32.32,0,0,1,.24.32C72,76.29,70.1,76.25,69.15,76.25Z"/><path class="cls-8" d="M67.48,83.62l.06,1a.34.34,0,0,1-.58.24,4.6,4.6,0,0,1-.58-3.61c.15-.86.16-2.5.89-3.11a.34.34,0,0,1,.57.24,11.7,11.7,0,0,1-.28,1.84,2.83,2.83,0,0,0,0,.29c0,.47-.1.94-.11,1.4A16.66,16.66,0,0,0,67.48,83.62Z"/><path class="cls-8" d="M69.36,73.65c-1.13-.05-2.57-.14-3.35-1.1a.27.27,0,0,1-.07-.14c-.18-.23,0-.65.33-.53a10.18,10.18,0,0,0,3.37.6,23.73,23.73,0,0,0,2.67-.32c.27,0,.39.3.29.5C72,73.77,70.42,73.71,69.36,73.65Z"/><path class="cls-8" d="M73.7,91.55a3.63,3.63,0,0,1-1-3.15c.07-.77.11-2.15.87-2.6a.35.35,0,0,1,.5.2,3.11,3.11,0,0,1,0,.61.32.32,0,0,1,.08.29A6.72,6.72,0,0,0,74,89.54a6.6,6.6,0,0,1,.23,1.72C74.2,91.49,73.92,91.72,73.7,91.55Z"/><path class="cls-8" d="M76.7,89.84a4.75,4.75,0,0,1,0,1.19c-.09.31-.33.67-.71.48C75,91,74.81,88.64,74.92,87.68a3.23,3.23,0,0,1,.88-2.2.51.51,0,0,1,.79.11A3.13,3.13,0,0,1,76.82,87a.31.31,0,0,1,0,.19A14.46,14.46,0,0,0,76.7,89.84Z"/><path class="cls-8" d="M77.19,83.52a6.42,6.42,0,0,1-3.31-.47c-1-.26-1.79-.72-1.18-1.43a.33.33,0,0,1,.33-.08l.43.15a10.63,10.63,0,0,0,2.65.23,15.68,15.68,0,0,1,2.65,0,.33.33,0,0,1,.24.23C79.17,83,77.83,83.38,77.19,83.52Z"/><path class="cls-8" d="M77.23,80.57a6.73,6.73,0,0,1-4-1.16.27.27,0,0,1-.09-.3.33.33,0,0,1,.38-.48,13.47,13.47,0,0,0,3.3.27c.86,0,1.77-.11,2.61,0a.34.34,0,0,1,.24.33C79.68,80.27,78,80.59,77.23,80.57Z"/><path class="cls-8" d="M76.5,75.31c.09.42.12,1.13-.41,1.28-1.23.34-1.48-2.73-1.48-3.33s.32-3.8,1.61-3.05a.73.73,0,0,1,.36.62.28.28,0,0,1,.13.36A7.79,7.79,0,0,0,76.5,75.31Z"/><path class="cls-8" d="M79.08,75.49c0,.37.15.79-.12,1.1a.32.32,0,0,1-.4,0c-.78-.4-.92-1.57-1-2.34a7.25,7.25,0,0,1,.45-3.67.49.49,0,0,1,.56-.27.35.35,0,0,1,.37,0c.63.25.41,1.53.19,2.45A12.3,12.3,0,0,0,79.08,75.49Z"/><path class="cls-8" d="M82.89,78.35a27.24,27.24,0,0,0-.31,4.78c0,.53,0,1.61-.64,1.79a.33.33,0,0,1-.33-.08,4.77,4.77,0,0,1-.48-3A14.53,14.53,0,0,1,82,78.32a.5.5,0,0,1,.88,0Z"/><path class="cls-8" d="M87.72,73.63c-.94,1.87-5.32,2.48-6.37.41l0-.1s0,0,0,0a.34.34,0,0,1,0-.1v0a.51.51,0,0,1,.44-.55h.09a.67.67,0,0,1,.39.08,9.16,9.16,0,0,0,5.16-.17C87.64,73,87.84,73.38,87.72,73.63Z"/><path class="cls-8" d="M82,71.27a.33.33,0,0,1,.41-.31,18.44,18.44,0,0,0,4.92.23.34.34,0,0,1,.24.57,4.89,4.89,0,0,1-5.57,0A.31.31,0,0,1,82,71.27Z"/><path class="cls-8" d="M47.88,85.7c.12.4-.16,1-.66.85-1.84-.5-2.2-3.38-2.06-4.93.06-.59.17-1.39.8-1.65.43-.18,1-.17,1.15.38a3.61,3.61,0,0,1,0,1.6A9.58,9.58,0,0,0,47.88,85.7Z"/><path class="cls-8" d="M43.72,79.23A4.43,4.43,0,0,1,41,78.55a.29.29,0,0,1-.09-.28c-.09-.23.08-.55.38-.44,2.23.8,4.41.28,6.7.3a.34.34,0,0,1,.09.66A12.73,12.73,0,0,1,43.72,79.23Z"/><path class="cls-8" d="M44.29,81.59a14.34,14.34,0,0,0,.34,4c0,.29-.32.63-.56.33a4.7,4.7,0,0,1-.81-2.64,6,6,0,0,1,.13-2.6.46.46,0,0,1,.87,0,1.36,1.36,0,0,1,0,.8A.33.33,0,0,1,44.29,81.59Z"/><path class="cls-8" d="M41.35,76h0a.35.35,0,0,1,.18,0,33.46,33.46,0,0,0,6.25,0,.34.34,0,0,1,.33.34c0,1.09-1.8,1-2.53,1-1.56.06-3.23.38-4.51-.74A.34.34,0,0,1,41.35,76Z"/></g><g class="cls-15"><path class="cls-8" d="M8.68,64.8c1.2,4.8,4.3,16.83,6.17,21.38,2.36,5.73,1.26,8.24,9,9,6.69.67,20.46.36,26.28.21,5.82.15,19.59.46,26.28-.21,7.77-.79,6.68-3.3,9-9,1.87-4.55,5.21-18.45,6.42-23.25ZM82.82,85.86a8.4,8.4,0,0,1-1.4,1.32c-2.73,2-6.42,2.64-9.81,2.91-1.94.15-3.88.17-5.83.19-6.83.09-13.64.66-20.47.76q-4.81.08-9.65,0c-5-.1-10.53.42-15.18-1.76a13,13,0,0,1-6.08-6.78c-1.82-4.08-5.55-14.44,3-14,2.4.13,4.76.16,7.16.18,7.4.06,14.79.26,22.19.11q3.21-.06,6.42-.22c7.56-.39,18.54-1.08,26.11-1.29,2.26-.06,5.1-.49,7.22.41C90.8,69.54,84.41,84,82.82,85.86Z"/></g><path class="cls-16" d="M36.3,70.28c-3.27,0-6.54,0-9.8,0-2.39,0-5.48-.48-7.74.31-2.89,1-1.16,4.5-.34,6.15a9.62,9.62,0,0,0,3.95,3.92C27,83.33,33.26,84,38.84,84.26c4.59.21,9.19.12,13.78-.11,6.07-.29,12.34-.2,18.27-1.44a19.33,19.33,0,0,0,13-9.37c.59-1.12,2-3.35.17-4.18-2-.91-24.41.86-33.06,1Q43.63,70.21,36.3,70.28Z"/><g class="cls-17"><path class="cls-8" d="M83.28,90c-5.26,3.84-23,3.14-26.1,3.21-6.29.14-12.58.17-18.87.14-3.17,0-15-.67-17.66-1.21a9.05,9.05,0,0,1-4.57-2.19c1,3.14,1.9,4.69,7.71,5.28,6.68.67,20.45.36,26.27.21,5.82.15,19.6.46,26.28-.21,6.34-.64,6.78-2.43,8-6.17A8.59,8.59,0,0,1,83.28,90Z"/><path class="cls-8" d="M15.44,65.64c4.4-.39,8.86-.11,13.27-.13,6.34,0,12.68-.29,19-.32s12.75.11,19.12,0,12.58-.74,18.83-.41c1.29.06,3.83,0,4.68,1.26a2.34,2.34,0,0,1,.36,1.19l1.06-4.27L8.58,64.8l.65,2.55a5,5,0,0,1,1.47-.71A14.29,14.29,0,0,1,15.44,65.64Z"/></g><path class="cls-13" d="M36,89.66a2.32,2.32,0,0,1-1.73-.6,2.27,2.27,0,0,1-.59-1.65,2.23,2.23,0,0,1,.59-1.66A2.39,2.39,0,0,1,36,85.18h2.65V72.85h2.55l-4.36,2.7a2.18,2.18,0,0,1-1.47.38,2,2,0,0,1-1.16-.59,2.47,2.47,0,0,1-.63-1.17,2.33,2.33,0,0,1,.1-1.4,2.27,2.27,0,0,1,1.08-1.16L39,69a4.89,4.89,0,0,1,1.34-.65,4.82,4.82,0,0,1,1.48-.23,2.52,2.52,0,0,1,1.79.6,2.22,2.22,0,0,1,.65,1.72V85.18h2.38a2.34,2.34,0,0,1,1.7.57,2.22,2.22,0,0,1,.58,1.66,2.26,2.26,0,0,1-.58,1.67,2.31,2.31,0,0,1-1.7.58Z"/><path class="cls-13" d="M53.66,89.66a2.15,2.15,0,0,1-2.5-2.43,3.12,3.12,0,0,1,.36-1.51,6.31,6.31,0,0,1,1-1.32l5.24-5.48a11.25,11.25,0,0,0,1.7-2.16A3.75,3.75,0,0,0,60,75a2.07,2.07,0,0,0-.76-1.73A3.51,3.51,0,0,0,57,72.64a6.08,6.08,0,0,0-1.51.21,9.15,9.15,0,0,0-1.77.69,2.15,2.15,0,0,1-1.42.21,2,2,0,0,1-1.09-.65,2.2,2.2,0,0,1-.55-1.17,2.25,2.25,0,0,1,.2-1.32A2.31,2.31,0,0,1,52,69.54a11.06,11.06,0,0,1,2.86-1.1,13.31,13.31,0,0,1,3-.35,10.33,10.33,0,0,1,4.14.73,5.39,5.39,0,0,1,2.54,2.12,6.21,6.21,0,0,1,.87,3.35A7.89,7.89,0,0,1,65,76.77a9.18,9.18,0,0,1-1.2,2.41,18.37,18.37,0,0,1-2.21,2.6L56.73,86.6V85.18h7.4a2.32,2.32,0,0,1,1.71.57,2.26,2.26,0,0,1,.57,1.66,2,2,0,0,1-2.28,2.25Z"/></g></g></svg>