<svg xmlns="http://www.w3.org/2000/svg" viewBox="0 0 105.29 104.84"><defs><style>.cls-1{isolation:isolate;}.cls-2{fill:#ed7d03;}.cls-3{fill:#ff8c03;}.cls-4{fill:#fcbc08;}.cls-5{fill:#f28106;opacity:0.7;}.cls-6{fill:#7c6a13;}.cls-7{fill:#937b18;}.cls-8{fill:#b86313;}.cls-11,.cls-9{fill:#cc7917;}.cls-10{fill:#9e4727;}.cls-11,.cls-12,.cls-17{opacity:0.5;}.cls-11,.cls-15,.cls-17{mix-blend-mode:multiply;}.cls-13,.cls-16{fill:#fff;}.cls-14,.cls-15{opacity:0.3;}.cls-14{mix-blend-mode:screen;}.cls-16{opacity:0.1;}</style></defs><title>orange16 </title><g class="cls-1"><g id="Layer_1" data-name="Layer 1"><path class="cls-2" d="M79.4,45.26c-4.72-1.6-9.7-5.65-10.85-10.74H24.33V64.73H81.64V45.87C80.88,45.7,80.14,45.5,79.4,45.26Z"/><path class="cls-3" d="M66.86,11.35c3,2.19,6.91,9.14,2.29,14.85s-11.37,6.05-16.47,2.69a11.47,11.47,0,0,1-1.42-18.13C56.4,5.87,62.35,8,66.86,11.35Z"/><path class="cls-4" d="M54.37,10.53h0Z"/><path class="cls-4" d="M55.06,11.25c.35-.17.75-.53.42-.84s-.78,0-1.1.12C54,10.93,54.13,11.71,55.06,11.25Z"/><path class="cls-4" d="M54.39,10.53l.53-.21A.78.78,0,0,0,54.39,10.53Z"/><path class="cls-4" d="M53.43,12.06c.13-.1.31-.3.14-.44a.23.23,0,0,0-.34.07A.43.43,0,0,0,53,12C53,12.27,53.29,12.16,53.43,12.06Z"/><path class="cls-4" d="M55.72,11.88a.3.3,0,0,0-.33,0c-.16,0-.35.08-.39.21a.11.11,0,0,0,0,.08l0,0,0,0c0,.15.38,0,.51,0S56,12,55.72,11.88Z"/><path class="cls-4" d="M55,12.21h0Z"/><path class="cls-4" d="M56.45,11.09c-.15.05-.32.21-.23.36s.44.09.56,0C57.28,11.19,56.64,11,56.45,11.09Z"/><path class="cls-4" d="M57.08,10.17c-.11,0-.29-.06-.37,0a.14.14,0,0,0,0,.17c0,.11.18.2.25.24s.92.32,1,.06S57.26,10.19,57.08,10.17Z"/><path class="cls-4" d="M56.25,9.65c.15.08.71.06.77-.16s-.31-.28-.45-.26a.5.5,0,0,0-.24.14C56.18,9.44,56.07,9.55,56.25,9.65Z"/><path class="cls-4" d="M53.53,11c.29-.21,0-.33-.22-.29h0c-.14,0-.47.14-.38.32S53.42,11.06,53.53,11Z"/><path class="cls-4" d="M52.31,12.36c.11-.13.44-.67.06-.69a.23.23,0,0,0-.2.1,1.06,1.06,0,0,0-.38.53C51.64,12.8,52.12,12.57,52.31,12.36Z"/><path class="cls-4" d="M54.36,12.51a.74.74,0,0,0-.5,0,1,1,0,0,0-.67.52c-.12.51.79.14,1,.07S54.78,12.67,54.36,12.51Z"/><path class="cls-4" d="M55.89,12.92c-.15.05-.31.17-.3.29s.52.18.67.11C56.82,13.06,56.08,12.8,55.89,12.92Z"/><path class="cls-4" d="M59.47,10a.23.23,0,0,0-.25.1.69.69,0,0,0,1.05,0A.59.59,0,0,0,59.47,10Z"/><path class="cls-4" d="M58,11.38c.32.11,1.17.16,1.23-.28a.75.75,0,0,0-.68-.08C58.28,11,58,11.1,58,11.38Z"/><path class="cls-4" d="M58.61,9.08A.45.45,0,0,0,58,9a.29.29,0,0,0-.15.19A.61.61,0,0,0,58.61,9.08Z"/><path class="cls-4" d="M60.92,10.91c-.63,0,.18.8.53.55S61.17,10.74,60.92,10.91Z"/><path class="cls-4" d="M52,13.5c-.2-.16-.36,0-.47.18-.42.27-.93.9-.52,1.06S52,13.84,52,13.5Z"/><path class="cls-4" d="M50.83,12.67c-.54.11-.28,1,.23.39C51.38,12.68,51.06,12.56,50.83,12.67Z"/><path class="cls-4" d="M53.91,14.32a.29.29,0,0,0-.2.25c.2.15.74.16.87-.11S54.09,14,53.91,14.32Z"/><path class="cls-4" d="M58.7,12.85l0,0a.52.52,0,0,0,0,.11c0,.06,0,.1,0,.12.11.29.73.3.62-.07S58.85,12.7,58.7,12.85Z"/><path class="cls-4" d="M64.26,12.06c-.37-.5-1.12,0-.65.16C63.89,12.42,64.62,12.55,64.26,12.06Z"/><path class="cls-4" d="M51.31,16.85l.07-.13a.93.93,0,0,0-.4.63c.22.06.85-.37.84-.65S51.5,16.58,51.31,16.85Z"/><path class="cls-4" d="M57,15.43a.16.16,0,0,0,.22.05c.26,0,.74,0,.53-.31S57.06,15.21,57,15.43Z"/><path class="cls-4" d="M49.15,15.15a.41.41,0,0,0,0,.22c.32.11,1.13,0,.86-.51S49.24,14.78,49.15,15.15Z"/><path class="cls-4" d="M50.26,13.79h0a.27.27,0,0,0-.33.27.39.39,0,0,0,.55-.22A.39.39,0,0,0,50.26,13.79Z"/><path class="cls-5" d="M51.32,25.11c-1.18.86,4.8,5.19,8.68,5a11.44,11.44,0,0,0,9.41-6c1-2.15.66-8.23-.62-7.81-.46.15.1,2.22-1.78,5.35-1.65,2.74-4.48,5.45-8.21,5.26C53.68,26.71,52.09,24.54,51.32,25.11Z"/><path class="cls-6" d="M64.14,10.05a.55.55,0,0,0-.49.84c.32.8,2.27,2.1,2.83,1.88s.59-.87-.23-1.5A4.86,4.86,0,0,0,64.14,10.05Z"/><path class="cls-6" d="M65.15,11.12s2.26-2.34,2.91-3.22A42,42,0,0,0,70.2,3.68s.2-.3.47-.25.2.47.2.47S69.29,7.13,68.66,8c-1.3,1.8-3,3.77-3,3.77Z"/><path class="cls-6" d="M69.09,6.71l-3.73-.47-.13.22,1.85.3,1.85.31Z"/><path class="cls-6" d="M61.32,10.92c-3.85,1-9.55-1.77-9.55-1.77s3.81-4.43,7.07-4.77,8.93,2.27,8.93,2.27A13.5,13.5,0,0,1,61.32,10.92Z"/><path class="cls-7" d="M64.17,10.29a.82.82,0,0,0-.09.79,4.09,4.09,0,0,0,1.4,1.11l.1-.7s-.3-.21-.33-.38a.33.33,0,0,1,0-.27Z"/><path class="cls-7" d="M66.51,6.75a30.48,30.48,0,0,0-6.46.06c-3,.43-7.52,1.86-7.46,2.07S57.53,7.24,60,7.08s6.74,0,6.74,0Z"/><path class="cls-7" d="M65,6.86A3.34,3.34,0,0,1,64.37,8a8.47,8.47,0,0,0-1.09,1.69,9.93,9.93,0,0,0,1.25-1.57c.36-.53.82-1.27.82-1.27Z"/><path class="cls-7" d="M62,6.88a5,5,0,0,1-.66,1.91c-.66,1.36-.92,1.76-.76,1.79s.66-1,1-1.74.85-2,.85-2Z"/><path class="cls-7" d="M59.08,7.16a3.65,3.65,0,0,1-.23,1.42c-.3,1-.66,1.57-.52,1.64s.48-.87.68-1.59.5-1.63.5-1.63Z"/><path class="cls-7" d="M55.94,7.9a2.13,2.13,0,0,1-.16.84c-.18.51-.47,1-.38,1a1.93,1.93,0,0,0,.53-.92l.28-1Z"/><path class="cls-7" d="M65.35,6.78a4.38,4.38,0,0,0-1.13-1.09,3.46,3.46,0,0,0-1.46-.59c-.08.07.83.32,1.15.53a12.23,12.23,0,0,1,1.18,1.14Z"/><path class="cls-7" d="M62.27,6.69a2.91,2.91,0,0,0-.92-1.23,4.6,4.6,0,0,0-2.06-.8c-.2.06,1.5.49,1.88.87a4.1,4.1,0,0,1,.69,1.2Z"/><path class="cls-7" d="M59.51,7a6.75,6.75,0,0,0-1.39-1.09,5.92,5.92,0,0,0-1.66-.42c-.19,0,1.28.33,1.69.62a9.48,9.48,0,0,1,1.05,1Z"/><path class="cls-7" d="M55.94,7.81s0-.24-.73-.5-1.07-.43-.92-.43a4.88,4.88,0,0,1,.91.24,5.46,5.46,0,0,1,1.07.61Z"/><path class="cls-3" d="M47.11,12.46c3,2.2,6.91,9.14,2.29,14.85S38,33.37,32.94,30a11.49,11.49,0,0,1-1.43-18.14C36.66,7,42.61,9.15,47.11,12.46Z"/><path class="cls-4" d="M34.62,11.64h0Z"/><path class="cls-4" d="M35.32,12.37c.34-.17.74-.53.41-.85s-.78,0-1.09.12C34.2,12,34.38,12.82,35.32,12.37Z"/><path class="cls-4" d="M34.64,11.64l.53-.21A.82.82,0,0,0,34.64,11.64Z"/><path class="cls-4" d="M33.68,13.17c.14-.1.31-.3.14-.44a.22.22,0,0,0-.33.07.44.44,0,0,0-.22.29C33.24,13.38,33.55,13.27,33.68,13.17Z"/><path class="cls-4" d="M36,13a.35.35,0,0,0-.33,0c-.16,0-.35.08-.38.21a.25.25,0,0,0,0,.08l0,0,0,0c0,.14.39,0,.51,0S36.24,13.13,36,13Z"/><path class="cls-4" d="M35.21,13.32h0Z"/><path class="cls-4" d="M36.7,12.2c-.15.05-.32.22-.23.36s.44.09.56,0C37.54,12.31,36.89,12.09,36.7,12.2Z"/><path class="cls-4" d="M37.33,11.28c-.1,0-.29-.06-.37,0a.15.15,0,0,0,0,.18c0,.1.18.2.25.23s.92.32,1,.06S37.52,11.31,37.33,11.28Z"/><path class="cls-4" d="M36.5,10.76c.16.09.71.06.77-.16s-.3-.28-.45-.26a.55.55,0,0,0-.24.14C36.43,10.55,36.32,10.67,36.5,10.76Z"/><path class="cls-4" d="M33.78,12.09c.29-.22,0-.34-.22-.3h0c-.13,0-.46.14-.37.32S33.67,12.17,33.78,12.09Z"/><path class="cls-4" d="M32.56,13.47c.11-.13.44-.67.06-.69a.23.23,0,0,0-.19.1,1.08,1.08,0,0,0-.39.53C31.89,13.91,32.37,13.69,32.56,13.47Z"/><path class="cls-4" d="M34.61,13.62a.8.8,0,0,0-.5,0,1,1,0,0,0-.67.52c-.12.52.79.14,1,.08S35,13.78,34.61,13.62Z"/><path class="cls-4" d="M36.14,14c-.15.05-.3.17-.3.29s.52.18.67.11C37.07,14.17,36.34,13.92,36.14,14Z"/><path class="cls-4" d="M39.72,11.15a.25.25,0,0,0-.25.1.7.7,0,0,0,1.05,0A.58.58,0,0,0,39.72,11.15Z"/><path class="cls-4" d="M38.25,12.49c.31.11,1.16.17,1.23-.28a.75.75,0,0,0-.68-.08C38.53,12.12,38.25,12.21,38.25,12.49Z"/><path class="cls-4" d="M38.86,10.19a.44.44,0,0,0-.62-.06.28.28,0,0,0-.15.18A.59.59,0,0,0,38.86,10.19Z"/><path class="cls-4" d="M41.17,12c-.63,0,.18.81.53.55S41.42,11.86,41.17,12Z"/><path class="cls-4" d="M32.24,14.61c-.19-.15-.36,0-.47.18-.42.27-.92.91-.52,1.06S32.23,15,32.24,14.61Z"/><path class="cls-4" d="M31.09,13.79c-.54.1-.29,1,.23.39C31.64,13.79,31.31,13.67,31.09,13.79Z"/><path class="cls-4" d="M34.16,15.44a.27.27,0,0,0-.2.25c.2.14.74.15.88-.11S34.34,15.13,34.16,15.44Z"/><path class="cls-4" d="M39,14l0,0a.36.36,0,0,0,0,.11c0,.05,0,.09,0,.11.12.3.74.31.62-.06S39.1,13.82,39,14Z"/><path class="cls-4" d="M44.51,13.17c-.37-.5-1.12,0-.65.16C44.14,13.53,44.87,13.67,44.51,13.17Z"/><path class="cls-4" d="M31.56,18l.08-.13a.87.87,0,0,0-.4.63c.21.06.85-.36.83-.64S31.75,17.69,31.56,18Z"/><path class="cls-4" d="M37.24,16.55a.14.14,0,0,0,.21,0c.26,0,.74,0,.54-.31S37.31,16.33,37.24,16.55Z"/><path class="cls-4" d="M29.4,16.27a.36.36,0,0,0,0,.21c.32.11,1.13,0,.86-.5S29.49,15.89,29.4,16.27Z"/><path class="cls-4" d="M30.52,14.9h0a.27.27,0,0,0-.33.26.4.4,0,0,0,.56-.21A.36.36,0,0,0,30.52,14.9Z"/><path class="cls-5" d="M31.57,26.22c-1.18.86,4.8,5.2,8.69,5.05a11.47,11.47,0,0,0,9.4-6c1-2.14.67-8.23-.62-7.81-.46.15.11,2.22-1.78,5.35-1.65,2.74-4.47,5.45-8.21,5.27C33.93,27.82,32.35,25.65,31.57,26.22Z"/><path class="cls-6" d="M44.39,11.16a.55.55,0,0,0-.49.84c.33.8,2.28,2.1,2.84,1.88s.58-.87-.24-1.5A4.8,4.8,0,0,0,44.39,11.16Z"/><path class="cls-6" d="M45.4,12.23S47.66,9.89,48.31,9a42,42,0,0,0,2.14-4.22s.2-.3.48-.25.19.47.19.47-1.57,3.23-2.21,4.12c-1.3,1.8-3,3.77-3,3.77Z"/><path class="cls-6" d="M49.35,7.83c-.14,0-3.73-.47-3.73-.47l-.14.21,1.85.3,1.85.31Z"/><path class="cls-6" d="M41.57,12C37.72,13,32,10.26,32,10.26s3.81-4.43,7.07-4.77S48,7.77,48,7.77A13.44,13.44,0,0,1,41.57,12Z"/><path class="cls-7" d="M44.42,11.4a.8.8,0,0,0-.08.79,4.16,4.16,0,0,0,1.4,1.12l.09-.71s-.3-.2-.33-.38a.41.41,0,0,1,0-.27Z"/><path class="cls-7" d="M46.76,7.86a30.48,30.48,0,0,0-6.46.06c-3,.43-7.52,1.87-7.46,2.07s4.95-1.64,7.36-1.8,6.74,0,6.74,0Z"/><path class="cls-7" d="M45.24,8a3.41,3.41,0,0,1-.62,1.18,8.25,8.25,0,0,0-1.09,1.68,10.43,10.43,0,0,0,1.26-1.57c.35-.52.81-1.26.81-1.26Z"/><path class="cls-7" d="M42.25,8a5.29,5.29,0,0,1-.66,1.91c-.67,1.36-.93,1.75-.77,1.78s.66-1,1-1.74.85-2,.85-2Z"/><path class="cls-7" d="M39.33,8.27a3.65,3.65,0,0,1-.23,1.42c-.3,1-.66,1.57-.52,1.64s.48-.86.68-1.59.5-1.62.5-1.62Z"/><path class="cls-7" d="M36.2,9a2.39,2.39,0,0,1-.16.84c-.19.52-.48,1-.39,1a1.88,1.88,0,0,0,.53-.92l.28-1Z"/><path class="cls-7" d="M45.6,7.89A4.38,4.38,0,0,0,44.47,6.8,3.61,3.61,0,0,0,43,6.21c-.08.07.83.33,1.15.54a12.81,12.81,0,0,1,1.19,1.13Z"/><path class="cls-7" d="M42.52,7.8a2.91,2.91,0,0,0-.92-1.23,4.68,4.68,0,0,0-2.06-.8c-.19.07,1.5.49,1.88.87a4.22,4.22,0,0,1,.7,1.2Z"/><path class="cls-7" d="M39.76,8.12A6.28,6.28,0,0,0,38.38,7a6.1,6.1,0,0,0-1.66-.43c-.2,0,1.27.33,1.68.62a8.4,8.4,0,0,1,1.05,1Z"/><path class="cls-7" d="M36.19,8.92s0-.24-.73-.5S34.39,8,34.54,8a4.88,4.88,0,0,1,.91.24,5.66,5.66,0,0,1,1.08.61Z"/><path class="cls-3" d="M80.77,23c3,2.19,6.91,9.14,2.29,14.85s-11.38,6-16.47,2.7a11.48,11.48,0,0,1-1.42-18.14C70.31,17.55,76.26,19.72,80.77,23Z"/><path class="cls-4" d="M68.28,22.21h0Z"/><path class="cls-4" d="M69,22.93c.35-.16.74-.52.41-.84s-.77,0-1.09.12C67.86,22.61,68,23.39,69,22.93Z"/><path class="cls-4" d="M68.29,22.21l.54-.21A.83.83,0,0,0,68.29,22.21Z"/><path class="cls-4" d="M67.34,23.74c.13-.1.31-.3.13-.44a.22.22,0,0,0-.33.07.44.44,0,0,0-.22.29C66.89,24,67.2,23.84,67.34,23.74Z"/><path class="cls-4" d="M69.62,23.56a.35.35,0,0,0-.33,0c-.15,0-.35.08-.38.21a.25.25,0,0,0,0,.08l0,0,0,0c0,.15.38,0,.5,0S69.89,23.7,69.62,23.56Z"/><path class="cls-4" d="M68.86,23.89h0Z"/><path class="cls-4" d="M70.36,22.77c-.15.05-.32.22-.24.36s.44.09.57,0C71.19,22.87,70.54,22.66,70.36,22.77Z"/><path class="cls-4" d="M71,21.85c-.1,0-.29-.06-.37,0a.15.15,0,0,0,0,.18c0,.1.18.19.25.23s.91.32,1,.06S71.17,21.88,71,21.85Z"/><path class="cls-4" d="M70.15,21.33c.16.09.72.06.78-.16s-.31-.28-.46-.26a.61.61,0,0,0-.24.14C70.08,21.12,70,21.23,70.15,21.33Z"/><path class="cls-4" d="M67.44,22.66c.29-.22,0-.34-.22-.3h0c-.13,0-.46.14-.37.32S67.33,22.74,67.44,22.66Z"/><path class="cls-4" d="M66.22,24c.11-.13.44-.67.06-.69a.26.26,0,0,0-.2.1,1.06,1.06,0,0,0-.38.53C65.55,24.48,66,24.26,66.22,24Z"/><path class="cls-4" d="M68.27,24.19a.77.77,0,0,0-.51,0,1,1,0,0,0-.66.52c-.13.52.78.14,1,.08S68.69,24.35,68.27,24.19Z"/><path class="cls-4" d="M69.79,24.6c-.14,0-.3.17-.3.29s.53.18.67.11C70.72,24.74,70,24.49,69.79,24.6Z"/><path class="cls-4" d="M73.38,21.72a.23.23,0,0,0-.25.1.69.69,0,0,0,1,0A.57.57,0,0,0,73.38,21.72Z"/><path class="cls-4" d="M71.9,23.06c.32.11,1.16.16,1.23-.28a.75.75,0,0,0-.68-.08C72.19,22.69,71.9,22.78,71.9,23.06Z"/><path class="cls-4" d="M72.51,20.76a.44.44,0,0,0-.62-.06.28.28,0,0,0-.15.18A.59.59,0,0,0,72.51,20.76Z"/><path class="cls-4" d="M74.83,22.59c-.63,0,.18.81.52.55S75.08,22.42,74.83,22.59Z"/><path class="cls-4" d="M65.89,25.18c-.19-.15-.35,0-.46.18-.42.27-.93.91-.53,1.06S65.88,25.53,65.89,25.18Z"/><path class="cls-4" d="M64.74,24.36c-.54.1-.28,1,.23.38C65.29,24.36,65,24.24,64.74,24.36Z"/><path class="cls-4" d="M67.81,26a.26.26,0,0,0-.19.24c.2.15.73.16.87-.11S68,25.7,67.81,26Z"/><path class="cls-4" d="M72.61,24.53l0-.05a.26.26,0,0,0,0,.11c0,.06,0,.1,0,.12.11.3.73.31.61-.07S72.75,24.39,72.61,24.53Z"/><path class="cls-4" d="M78.16,23.74c-.36-.5-1.12,0-.64.16C77.8,24.1,78.52,24.24,78.16,23.74Z"/><path class="cls-4" d="M65.22,28.53l.07-.13a.9.9,0,0,0-.4.63c.22.06.85-.36.83-.64S65.4,28.26,65.22,28.53Z"/><path class="cls-4" d="M70.89,27.11c.08.1.14.09.21.05.26,0,.75,0,.54-.31S71,26.89,70.89,27.11Z"/><path class="cls-4" d="M63.06,26.83a.54.54,0,0,0,0,.22c.32.11,1.14,0,.87-.51S63.15,26.46,63.06,26.83Z"/><path class="cls-4" d="M64.17,25.47h0a.26.26,0,0,0-.33.26.39.39,0,0,0,.55-.21A.34.34,0,0,0,64.17,25.47Z"/><path class="cls-5" d="M65.22,36.79c-1.17.86,4.81,5.2,8.69,5.05a11.47,11.47,0,0,0,9.4-6c1-2.15.67-8.23-.61-7.81-.46.15.1,2.22-1.78,5.35-1.66,2.74-4.48,5.45-8.22,5.26C67.59,38.39,66,36.22,65.22,36.79Z"/><path class="cls-6" d="M78,21.73a.55.55,0,0,0-.48.84c.32.8,2.27,2.1,2.83,1.88s.58-.87-.23-1.5A4.83,4.83,0,0,0,78,21.73Z"/><path class="cls-6" d="M79.06,22.8s2.26-2.34,2.9-3.22a39.9,39.9,0,0,0,2.14-4.22s.2-.3.48-.25.2.47.2.47-1.58,3.23-2.22,4.12c-1.3,1.8-3,3.77-3,3.77Z"/><path class="cls-6" d="M83,18.4c-.14,0-3.73-.48-3.73-.48l-.14.22,1.86.3,1.85.31Z"/><path class="cls-6" d="M75.23,22.6c-3.86,1-9.55-1.77-9.55-1.77s3.8-4.43,7.07-4.77,8.93,2.27,8.93,2.27A13.49,13.49,0,0,1,75.23,22.6Z"/><path class="cls-7" d="M78.08,22a.82.82,0,0,0-.09.79,4.16,4.16,0,0,0,1.4,1.12l.09-.71s-.3-.2-.33-.38a.41.41,0,0,1,0-.27Z"/><path class="cls-7" d="M80.42,18.43a30.51,30.51,0,0,0-6.46.06c-3,.43-7.52,1.87-7.46,2.07s4.94-1.64,7.36-1.8,6.73,0,6.73,0Z"/><path class="cls-7" d="M78.9,18.54a3.36,3.36,0,0,1-.63,1.18,8.47,8.47,0,0,0-1.08,1.68,9.93,9.93,0,0,0,1.25-1.57c.36-.52.81-1.26.81-1.26Z"/><path class="cls-7" d="M75.9,18.56a5.29,5.29,0,0,1-.66,1.92c-.66,1.36-.93,1.75-.76,1.78s.65-1,1-1.74.84-2,.84-2Z"/><path class="cls-7" d="M73,18.84a3.72,3.72,0,0,1-.22,1.42c-.3,1-.66,1.57-.53,1.64s.48-.86.69-1.59.5-1.62.5-1.62Z"/><path class="cls-7" d="M69.85,19.58a2.39,2.39,0,0,1-.16.84c-.18.52-.47,1-.39,1a1.84,1.84,0,0,0,.54-.92l.28-1Z"/><path class="cls-7" d="M79.25,18.46a4.19,4.19,0,0,0-1.13-1.09,3.44,3.44,0,0,0-1.45-.59c-.08.07.82.33,1.15.54A11.26,11.26,0,0,1,79,18.45Z"/><path class="cls-7" d="M76.17,18.37a2.91,2.91,0,0,0-.92-1.23,4.57,4.57,0,0,0-2-.8c-.2.07,1.5.49,1.88.87a4.1,4.1,0,0,1,.69,1.2Z"/><path class="cls-7" d="M73.42,18.69A6.69,6.69,0,0,0,72,17.59a6.29,6.29,0,0,0-1.66-.42c-.2,0,1.28.33,1.69.62a9.06,9.06,0,0,1,1,1Z"/><path class="cls-7" d="M69.84,19.49s0-.24-.73-.5-1.06-.42-.91-.43a5.09,5.09,0,0,1,.91.24,5.81,5.81,0,0,1,1.07.61Z"/><path class="cls-3" d="M60.2,19.79c3,2.19,6.91,9.14,2.29,14.85s-11.37,6-16.47,2.7A11.48,11.48,0,0,1,44.6,19.2C49.74,14.31,55.69,16.48,60.2,19.79Z"/><path class="cls-4" d="M47.71,19h0Z"/><path class="cls-4" d="M48.4,19.69c.35-.16.75-.52.42-.84s-.78,0-1.1.12C47.29,19.37,47.47,20.15,48.4,19.69Z"/><path class="cls-4" d="M47.73,19l.53-.21A.78.78,0,0,0,47.73,19Z"/><path class="cls-4" d="M46.77,20.5c.13-.1.31-.3.14-.44a.23.23,0,0,0-.34.07.43.43,0,0,0-.21.29C46.33,20.71,46.63,20.6,46.77,20.5Z"/><path class="cls-4" d="M49.06,20.32a.35.35,0,0,0-.33,0c-.16,0-.35.08-.39.21a.11.11,0,0,0,0,.08l-.05,0,.05,0c0,.15.38,0,.51,0S49.32,20.46,49.06,20.32Z"/><path class="cls-4" d="M48.29,20.65h0Z"/><path class="cls-4" d="M49.79,19.53c-.15,0-.32.22-.23.36s.44.09.56,0C50.62,19.63,50,19.42,49.79,19.53Z"/><path class="cls-4" d="M50.42,18.61c-.11,0-.29-.06-.37,0a.15.15,0,0,0,0,.18c0,.1.18.19.25.23s.92.32,1,.06S50.6,18.64,50.42,18.61Z"/><path class="cls-4" d="M49.59,18.09c.15.09.71.06.77-.16s-.31-.28-.45-.26a.5.5,0,0,0-.24.14C49.52,17.88,49.41,18,49.59,18.09Z"/><path class="cls-4" d="M46.87,19.42c.29-.22,0-.34-.22-.3h0c-.14,0-.47.14-.38.32S46.76,19.5,46.87,19.42Z"/><path class="cls-4" d="M45.65,20.8c.11-.13.44-.67.06-.69a.26.26,0,0,0-.2.1,1.06,1.06,0,0,0-.38.53C45,21.24,45.46,21,45.65,20.8Z"/><path class="cls-4" d="M47.7,21a.74.74,0,0,0-.5,0,1,1,0,0,0-.67.52c-.12.52.79.14,1,.08S48.12,21.11,47.7,21Z"/><path class="cls-4" d="M49.23,21.36c-.15.05-.31.17-.3.29s.52.18.66.11C50.16,21.5,49.42,21.25,49.23,21.36Z"/><path class="cls-4" d="M52.81,18.48a.23.23,0,0,0-.25.1.7.7,0,0,0,1,0A.59.59,0,0,0,52.81,18.48Z"/><path class="cls-4" d="M51.33,19.82c.32.11,1.17.16,1.23-.28a.75.75,0,0,0-.68-.08C51.62,19.45,51.34,19.54,51.33,19.82Z"/><path class="cls-4" d="M52,17.52a.44.44,0,0,0-.62-.06.25.25,0,0,0-.15.18A.59.59,0,0,0,52,17.52Z"/><path class="cls-4" d="M54.26,19.35c-.63,0,.18.81.53.55S54.51,19.18,54.26,19.35Z"/><path class="cls-4" d="M45.33,21.94c-.2-.15-.36,0-.47.18-.42.27-.93.91-.53,1.06S45.32,22.29,45.33,21.94Z"/><path class="cls-4" d="M44.17,21.12c-.54.1-.28,1,.23.38C44.72,21.12,44.4,21,44.17,21.12Z"/><path class="cls-4" d="M47.25,22.77a.27.27,0,0,0-.2.24c.2.15.74.16.87-.11S47.43,22.46,47.25,22.77Z"/><path class="cls-4" d="M52,21.29l0-.05a.52.52,0,0,0,0,.11c0,.06,0,.1,0,.12.11.3.73.31.62-.07S52.19,21.15,52,21.29Z"/><path class="cls-4" d="M57.6,20.5c-.37-.5-1.12,0-.65.16C57.23,20.86,58,21,57.6,20.5Z"/><path class="cls-4" d="M44.65,25.29l.07-.13a.93.93,0,0,0-.4.63c.22.06.85-.36.84-.64S44.84,25,44.65,25.29Z"/><path class="cls-4" d="M50.32,23.87a.15.15,0,0,0,.22.05c.26,0,.74,0,.53-.31S50.4,23.65,50.32,23.87Z"/><path class="cls-4" d="M42.49,23.59a.41.41,0,0,0,0,.22c.32.11,1.13,0,.86-.51S42.58,23.22,42.49,23.59Z"/><path class="cls-4" d="M43.6,22.23h0a.27.27,0,0,0-.33.26.39.39,0,0,0,.55-.21A.34.34,0,0,0,43.6,22.23Z"/><path class="cls-5" d="M44.66,33.55c-1.18.86,4.8,5.2,8.68,5.05a11.47,11.47,0,0,0,9.41-6c1-2.15.66-8.23-.62-7.81-.46.15.1,2.22-1.78,5.35-1.65,2.74-4.48,5.45-8.21,5.26C47,35.15,45.43,33,44.66,33.55Z"/><path class="cls-6" d="M57.48,18.49a.55.55,0,0,0-.49.84c.32.8,2.27,2.1,2.83,1.88s.59-.87-.23-1.5A4.86,4.86,0,0,0,57.48,18.49Z"/><path class="cls-6" d="M58.49,19.56s2.26-2.34,2.91-3.22a42,42,0,0,0,2.14-4.22s.2-.3.47-.25.2.47.2.47S62.63,15.57,62,16.46c-1.3,1.8-3,3.77-3,3.77Z"/><path class="cls-6" d="M62.43,15.16c-.13,0-3.73-.48-3.73-.48l-.13.22,1.85.3,1.85.31Z"/><path class="cls-6" d="M54.66,19.36c-3.85,1-9.55-1.77-9.55-1.77s3.81-4.43,7.07-4.77,8.93,2.27,8.93,2.27A13.42,13.42,0,0,1,54.66,19.36Z"/><path class="cls-7" d="M57.51,18.73a.82.82,0,0,0-.09.79,4.16,4.16,0,0,0,1.4,1.12l.1-.71s-.3-.2-.33-.38a.35.35,0,0,1,0-.27Z"/><path class="cls-7" d="M59.85,15.19a30.48,30.48,0,0,0-6.46.06c-3,.43-7.52,1.87-7.46,2.07s4.94-1.64,7.36-1.8,6.74,0,6.74,0Z"/><path class="cls-7" d="M58.33,15.3a3.41,3.41,0,0,1-.62,1.18,8.25,8.25,0,0,0-1.09,1.68,9.93,9.93,0,0,0,1.25-1.57c.36-.52.82-1.26.82-1.26Z"/><path class="cls-7" d="M55.33,15.32a5,5,0,0,1-.66,1.92C54,18.6,53.75,19,53.91,19s.66-1,1-1.74.85-2,.85-2Z"/><path class="cls-7" d="M52.42,15.6A3.65,3.65,0,0,1,52.19,17c-.3,1-.66,1.57-.53,1.64s.49-.86.69-1.59.5-1.62.5-1.62Z"/><path class="cls-7" d="M49.28,16.34a2.13,2.13,0,0,1-.16.84c-.18.52-.47,1-.38,1a1.93,1.93,0,0,0,.53-.92l.28-1Z"/><path class="cls-7" d="M58.69,15.22a4.38,4.38,0,0,0-1.13-1.09,3.46,3.46,0,0,0-1.46-.59c-.08.07.83.33,1.15.54a11.26,11.26,0,0,1,1.18,1.13Z"/><path class="cls-7" d="M55.61,15.13a2.91,2.91,0,0,0-.92-1.23,4.6,4.6,0,0,0-2.06-.8c-.2.07,1.5.49,1.88.87a4.1,4.1,0,0,1,.69,1.2Z"/><path class="cls-7" d="M52.85,15.45a6.69,6.69,0,0,0-1.39-1.1,6.29,6.29,0,0,0-1.66-.42c-.19,0,1.28.33,1.69.62a9.06,9.06,0,0,1,1,1Z"/><path class="cls-7" d="M49.28,16.25s-.05-.24-.73-.5-1.07-.42-.92-.43a4.88,4.88,0,0,1,.91.24,5.46,5.46,0,0,1,1.07.61Z"/><path class="cls-3" d="M69.92,30c3,2.2,6.91,9.14,2.29,14.85s-11.37,6.06-16.47,2.7A11.47,11.47,0,0,1,54.32,29.4C59.46,24.5,65.41,26.67,69.92,30Z"/><path class="cls-4" d="M57.43,29.17h0Z"/><path class="cls-4" d="M58.12,29.89c.35-.17.74-.53.42-.85s-.78.05-1.1.12C57,29.56,57.19,30.34,58.12,29.89Z"/><path class="cls-4" d="M57.45,29.16,58,29A.83.83,0,0,0,57.45,29.16Z"/><path class="cls-4" d="M56.49,30.69c.13-.09.31-.3.14-.44a.23.23,0,0,0-.34.08.39.39,0,0,0-.21.28C56.05,30.91,56.35,30.79,56.49,30.69Z"/><path class="cls-4" d="M58.78,30.51a.35.35,0,0,0-.33,0c-.16,0-.35.09-.39.21a.11.11,0,0,0,0,.08s0,0-.05,0l.05,0c0,.14.38,0,.51,0S59,30.66,58.78,30.51Z"/><path class="cls-4" d="M58,30.84l0,0Z"/><path class="cls-4" d="M59.51,29.73c-.15,0-.32.21-.23.36s.44.09.56,0C60.34,29.83,59.7,29.62,59.51,29.73Z"/><path class="cls-4" d="M60.14,28.8c-.11,0-.29-.06-.37,0a.15.15,0,0,0,0,.18c0,.1.18.2.25.23s.92.33,1,.07S60.32,28.83,60.14,28.8Z"/><path class="cls-4" d="M59.31,28.28c.15.09.71.07.77-.16s-.31-.27-.45-.26a.6.6,0,0,0-.24.14C59.24,28.07,59.13,28.19,59.31,28.28Z"/><path class="cls-4" d="M56.59,29.61c.29-.22,0-.34-.22-.29h0c-.14,0-.47.15-.38.33S56.48,29.69,56.59,29.61Z"/><path class="cls-4" d="M55.37,31c.11-.12.44-.67.06-.69a.3.3,0,0,0-.2.1,1.06,1.06,0,0,0-.38.53C54.7,31.44,55.18,31.21,55.37,31Z"/><path class="cls-4" d="M57.42,31.14a.75.75,0,0,0-.5.05,1,1,0,0,0-.67.51c-.12.52.79.15,1,.08S57.84,31.3,57.42,31.14Z"/><path class="cls-4" d="M58.94,31.55c-.14.05-.3.17-.29.29s.52.18.66.11C59.87,31.69,59.14,31.44,58.94,31.55Z"/><path class="cls-4" d="M62.53,28.67a.25.25,0,0,0-.25.1.69.69,0,0,0,1,0A.59.59,0,0,0,62.53,28.67Z"/><path class="cls-4" d="M61.05,30c.32.11,1.17.17,1.23-.27a.69.69,0,0,0-.68-.08C61.34,29.64,61.06,29.73,61.05,30Z"/><path class="cls-4" d="M61.67,27.71a.46.46,0,0,0-.63-.06.26.26,0,0,0-.14.18A.59.59,0,0,0,61.67,27.71Z"/><path class="cls-4" d="M64,29.54c-.63,0,.18.81.53.55S64.23,29.38,64,29.54Z"/><path class="cls-4" d="M55.05,32.13c-.2-.15-.36,0-.47.18-.42.27-.93.91-.53,1.06S55,32.48,55.05,32.13Z"/><path class="cls-4" d="M53.89,31.31c-.54.1-.28,1,.23.39C54.44,31.32,54.12,31.19,53.89,31.31Z"/><path class="cls-4" d="M57,33a.28.28,0,0,0-.2.25c.2.14.74.15.87-.11S57.15,32.65,57,33Z"/><path class="cls-4" d="M61.76,31.48l0,0a.43.43,0,0,0,0,.11c0,.05,0,.1,0,.11.11.3.73.31.62-.06S61.91,31.34,61.76,31.48Z"/><path class="cls-4" d="M67.32,30.7c-.37-.51-1.12,0-.65.16C67,31.06,67.67,31.19,67.32,30.7Z"/><path class="cls-4" d="M54.37,35.49l.07-.14A1,1,0,0,0,54,36c.22,0,.85-.37.84-.65C54.85,34.91,54.55,35.21,54.37,35.49Z"/><path class="cls-4" d="M60,34.07a.17.17,0,0,0,.22,0c.26,0,.74,0,.53-.32S60.12,33.85,60,34.07Z"/><path class="cls-4" d="M52.21,33.79a.4.4,0,0,0,0,.22c.32.11,1.13,0,.86-.51S52.3,33.41,52.21,33.79Z"/><path class="cls-4" d="M53.32,32.43h0a.27.27,0,0,0-.33.26.39.39,0,0,0,.55-.21A.33.33,0,0,0,53.32,32.43Z"/><path class="cls-5" d="M54.38,43.75c-1.18.86,4.8,5.19,8.68,5a11.45,11.45,0,0,0,9.41-6c1-2.14.66-8.23-.62-7.8-.46.15.1,2.21-1.78,5.34-1.65,2.75-4.48,5.45-8.21,5.27C56.74,45.34,55.15,43.18,54.38,43.75Z"/><path class="cls-6" d="M67.2,28.69a.54.54,0,0,0-.49.83c.32.8,2.27,2.1,2.83,1.88s.59-.87-.23-1.49A4.66,4.66,0,0,0,67.2,28.69Z"/><path class="cls-6" d="M68.21,29.76s2.26-2.34,2.91-3.22a41.89,41.89,0,0,0,2.14-4.23s.2-.3.47-.24.2.46.2.46-1.58,3.23-2.22,4.12c-1.29,1.81-3,3.77-3,3.77Z"/><path class="cls-6" d="M72.15,25.35c-.13,0-3.73-.47-3.73-.47l-.13.21,1.85.31,1.85.3Z"/><path class="cls-6" d="M64.38,29.55c-3.85,1-9.55-1.76-9.55-1.76S58.64,23.35,61.9,23s8.93,2.27,8.93,2.27A13.44,13.44,0,0,1,64.38,29.55Z"/><path class="cls-7" d="M67.23,28.92a.82.82,0,0,0-.09.79,4,4,0,0,0,1.4,1.12l.1-.7s-.31-.21-.34-.39a.41.41,0,0,1,0-.27Z"/><path class="cls-7" d="M69.57,25.38a30.51,30.51,0,0,0-6.46.06c-3,.44-7.52,1.87-7.46,2.07s4.94-1.64,7.36-1.8,6.74,0,6.74,0Z"/><path class="cls-7" d="M68.05,25.49a3.36,3.36,0,0,1-.63,1.18,8.47,8.47,0,0,0-1.08,1.68,10.21,10.21,0,0,0,1.25-1.56c.36-.53.82-1.27.82-1.27Z"/><path class="cls-7" d="M65.05,25.52a5,5,0,0,1-.66,1.91c-.66,1.36-.92,1.75-.76,1.79s.66-1,1-1.75.85-2,.85-2Z"/><path class="cls-7" d="M62.14,25.79a3.63,3.63,0,0,1-.23,1.42c-.3,1-.66,1.57-.53,1.64s.49-.86.69-1.59.5-1.62.5-1.62Z"/><path class="cls-7" d="M59,26.53a2.13,2.13,0,0,1-.16.84c-.18.52-.47,1-.38,1a1.82,1.82,0,0,0,.53-.92l.28-1Z"/><path class="cls-7" d="M68.41,25.41a4.25,4.25,0,0,0-1.13-1.08,3.53,3.53,0,0,0-1.46-.6c-.08.07.83.33,1.15.54a12.23,12.23,0,0,1,1.18,1.14Z"/><path class="cls-7" d="M65.33,25.32a2.82,2.82,0,0,0-.93-1.22,4.45,4.45,0,0,0-2.05-.8c-.2.06,1.5.49,1.88.86a4.23,4.23,0,0,1,.69,1.21Z"/><path class="cls-7" d="M62.57,25.64a6.75,6.75,0,0,0-1.39-1.09,5.58,5.58,0,0,0-1.66-.42c-.19,0,1.28.32,1.69.61a8.84,8.84,0,0,1,1,1Z"/><path class="cls-7" d="M59,26.45s0-.25-.73-.5-1.07-.43-.92-.43a4.57,4.57,0,0,1,.91.23,6.06,6.06,0,0,1,1.07.61Z"/><path class="cls-3" d="M19.07,19.84c-3,2.19-6.91,9.13-2.29,14.85s11.37,6.05,16.47,2.69a11.47,11.47,0,0,0,1.42-18.13C29.53,14.35,23.58,16.52,19.07,19.84Z"/><path class="cls-4" d="M31.56,19h0Z"/><path class="cls-4" d="M30.87,19.74c-.35-.17-.74-.53-.41-.85s.77.05,1.09.13C32,19.41,31.8,20.19,30.87,19.74Z"/><path class="cls-4" d="M31.55,19l-.54-.2A.88.88,0,0,1,31.55,19Z"/><path class="cls-4" d="M32.5,20.54c-.13-.09-.31-.29-.14-.43a.23.23,0,0,1,.34.07.48.48,0,0,1,.22.29C32.94,20.76,32.64,20.64,32.5,20.54Z"/><path class="cls-4" d="M30.22,20.36a.31.31,0,0,1,.32,0c.16,0,.35.08.39.21a.11.11,0,0,1,0,.08l.05,0-.05,0c0,.14-.38,0-.51,0S30,20.51,30.22,20.36Z"/><path class="cls-4" d="M31,20.7h0Z"/><path class="cls-4" d="M29.48,19.58c.15,0,.32.21.23.36s-.44.09-.56,0C28.65,19.68,29.3,19.47,29.48,19.58Z"/><path class="cls-4" d="M28.85,18.66c.11,0,.3-.07.38,0a.15.15,0,0,1,0,.18c0,.11-.18.2-.25.24s-.92.32-1,.06S28.67,18.68,28.85,18.66Z"/><path class="cls-4" d="M29.69,18.14c-.16.08-.72.06-.78-.17s.31-.27.45-.25a.49.49,0,0,1,.25.14C29.75,17.93,29.87,18,29.69,18.14Z"/><path class="cls-4" d="M32.4,19.46c-.29-.21,0-.34.22-.29h0c.13,0,.46.15.37.33S32.51,19.54,32.4,19.46Z"/><path class="cls-4" d="M33.62,20.84c-.11-.12-.44-.67-.06-.69a.3.3,0,0,1,.2.1,1.08,1.08,0,0,1,.38.54C34.29,21.29,33.81,21.06,33.62,20.84Z"/><path class="cls-4" d="M31.57,21a.74.74,0,0,1,.5,0c.29.08.62.3.67.51.13.52-.78.15-1,.08S31.15,21.16,31.57,21Z"/><path class="cls-4" d="M30.05,21.41c.14,0,.3.16.3.28s-.53.18-.67.11C29.12,21.54,29.85,21.29,30.05,21.41Z"/><path class="cls-4" d="M26.46,18.52a.27.27,0,0,1,.25.1.68.68,0,0,1-1,0A.58.58,0,0,1,26.46,18.52Z"/><path class="cls-4" d="M27.94,19.86c-.32.11-1.17.17-1.23-.27a.75.75,0,0,1,.68-.08C27.65,19.5,27.93,19.59,27.94,19.86Z"/><path class="cls-4" d="M27.32,17.57A.46.46,0,0,1,28,17.5a.34.34,0,0,1,.15.18A.61.61,0,0,1,27.32,17.57Z"/><path class="cls-4" d="M25,19.39c.63,0-.18.81-.53.56S24.76,19.23,25,19.39Z"/><path class="cls-4" d="M33.94,22c.2-.16.36,0,.47.18.42.26.93.9.53,1.06S34,22.33,33.94,22Z"/><path class="cls-4" d="M35.1,21.16c.54.11.28,1-.23.39C34.55,21.17,34.88,21.05,35.1,21.16Z"/><path class="cls-4" d="M32,22.81a.28.28,0,0,1,.2.25c-.2.15-.74.16-.87-.11S31.85,22.5,32,22.81Z"/><path class="cls-4" d="M27.23,21.33l0,0a.61.61,0,0,1,0,.11c0,.05,0,.1,0,.12-.11.29-.73.3-.61-.07S27.09,21.19,27.23,21.33Z"/><path class="cls-4" d="M21.67,20.55c.37-.5,1.12,0,.65.16C22,20.91,21.32,21,21.67,20.55Z"/><path class="cls-4" d="M34.62,25.34l-.07-.13a.91.91,0,0,1,.4.63c-.22.06-.85-.37-.84-.65S34.44,25.07,34.62,25.34Z"/><path class="cls-4" d="M29,23.92a.16.16,0,0,1-.21,0c-.27,0-.75,0-.54-.32S28.87,23.7,29,23.92Z"/><path class="cls-4" d="M36.78,23.64a.51.51,0,0,1,0,.22c-.32.11-1.14,0-.87-.51S36.69,23.26,36.78,23.64Z"/><path class="cls-4" d="M35.67,22.28h0a.27.27,0,0,1,.33.27.4.4,0,0,1-.55-.22A.39.39,0,0,1,35.67,22.28Z"/><path class="cls-5" d="M34.62,33.6c1.17.86-4.81,5.19-8.69,5a11.39,11.39,0,0,1-9.4-6c-1-2.14-.67-8.23.61-7.8.46.15-.1,2.21,1.78,5.34,1.66,2.75,4.48,5.46,8.22,5.27C32.25,35.2,33.84,33,34.62,33.6Z"/><path class="cls-6" d="M21.79,18.54a.55.55,0,0,1,.49.83c-.32.8-2.27,2.1-2.83,1.89s-.59-.87.23-1.5A4.76,4.76,0,0,1,21.79,18.54Z"/><path class="cls-6" d="M20.78,19.61s-2.26-2.34-2.9-3.22a40.36,40.36,0,0,1-2.15-4.23s-.2-.29-.47-.24-.2.47-.2.47,1.58,3.22,2.22,4.11c1.29,1.81,3,3.78,3,3.78Z"/><path class="cls-6" d="M16.84,15.2c.14,0,3.73-.47,3.73-.47l.13.21-1.85.31-1.85.3Z"/><path class="cls-6" d="M24.61,19.41c3.85,1,9.55-1.77,9.55-1.77s-3.8-4.44-7.07-4.77-8.93,2.27-8.93,2.27A13.56,13.56,0,0,0,24.61,19.41Z"/><path class="cls-7" d="M21.76,18.78a.81.81,0,0,1,.09.79,4.09,4.09,0,0,1-1.4,1.11l-.09-.7s.3-.21.33-.38a.39.39,0,0,0,0-.27Z"/><path class="cls-7" d="M19.42,15.24a29.77,29.77,0,0,1,6.46.06c3,.43,7.52,1.86,7.46,2.06S28.4,15.72,26,15.56s-6.73,0-6.73,0Z"/><path class="cls-7" d="M20.94,15.35a3.28,3.28,0,0,0,.63,1.17,9.15,9.15,0,0,1,1.08,1.68,9.72,9.72,0,0,1-1.25-1.56c-.36-.53-.82-1.27-.82-1.27Z"/><path class="cls-7" d="M23.94,15.37a5.29,5.29,0,0,0,.66,1.91c.66,1.36.93,1.76.76,1.79s-.66-1-1-1.75-.85-2-.85-2Z"/><path class="cls-7" d="M26.85,15.64a3.92,3.92,0,0,0,.23,1.42c.3,1,.66,1.58.53,1.65s-.49-.87-.69-1.59-.5-1.63-.5-1.63Z"/><path class="cls-7" d="M30,16.38a2.11,2.11,0,0,0,.16.84c.18.52.47,1,.39,1a1.75,1.75,0,0,1-.54-.91l-.28-1Z"/><path class="cls-7" d="M20.58,15.26a4.37,4.37,0,0,1,1.14-1.08,3.51,3.51,0,0,1,1.45-.6c.08.07-.83.33-1.15.54a12.23,12.23,0,0,0-1.18,1.14Z"/><path class="cls-7" d="M23.67,15.18A2.81,2.81,0,0,1,24.59,14a4.45,4.45,0,0,1,2.05-.8c.2.06-1.5.49-1.88.86a4.23,4.23,0,0,0-.69,1.21Z"/><path class="cls-7" d="M26.42,15.49a6.75,6.75,0,0,1,1.39-1.09A5.58,5.58,0,0,1,29.47,14c.19,0-1.28.33-1.69.62a9.06,9.06,0,0,0-1,1Z"/><path class="cls-7" d="M30,16.3s.05-.25.74-.5,1.06-.43.91-.43a4.31,4.31,0,0,0-.91.24,5.61,5.61,0,0,0-1.07.6Z"/><path class="cls-3" d="M13.31,32.67c-3,2.19-6.91,9.14-2.29,14.85s11.38,6,16.47,2.69a11.47,11.47,0,0,0,1.42-18.13C23.77,27.18,17.82,29.35,13.31,32.67Z"/><path class="cls-4" d="M25.8,31.85h0Z"/><path class="cls-4" d="M25.11,32.57c-.35-.17-.74-.53-.41-.84s.77,0,1.09.12C26.22,32.25,26,33,25.11,32.57Z"/><path class="cls-4" d="M25.79,31.84l-.54-.2A.88.88,0,0,1,25.79,31.84Z"/><path class="cls-4" d="M26.74,33.37c-.13-.09-.31-.29-.14-.43a.23.23,0,0,1,.34.07.44.44,0,0,1,.22.29C27.18,33.59,26.88,33.47,26.74,33.37Z"/><path class="cls-4" d="M24.46,33.19a.31.31,0,0,1,.32,0c.16,0,.35.08.39.21a.11.11,0,0,1,0,.08l0,0,0,0c0,.15-.38,0-.5,0S24.19,33.34,24.46,33.19Z"/><path class="cls-4" d="M25.22,33.53h0Z"/><path class="cls-4" d="M23.72,32.41c.15,0,.32.21.23.36s-.44.09-.56,0C22.89,32.51,23.54,32.3,23.72,32.41Z"/><path class="cls-4" d="M23.1,31.49c.1,0,.29-.07.37,0a.14.14,0,0,1,0,.17c0,.11-.18.2-.25.24s-.92.32-1,.06S22.91,31.51,23.1,31.49Z"/><path class="cls-4" d="M23.93,31c-.16.08-.72.06-.78-.16s.31-.28.45-.26a.58.58,0,0,1,.25.14C24,30.76,24.11,30.87,23.93,31Z"/><path class="cls-4" d="M26.64,32.29c-.29-.21,0-.33.22-.29h0c.13,0,.46.15.37.33S26.75,32.38,26.64,32.29Z"/><path class="cls-4" d="M27.86,33.67c-.11-.12-.44-.67-.06-.69a.3.3,0,0,1,.2.1,1.08,1.08,0,0,1,.38.54C28.53,34.12,28.05,33.89,27.86,33.67Z"/><path class="cls-4" d="M25.81,33.83a.74.74,0,0,1,.5,0c.29.08.62.3.67.51.13.52-.78.15-1,.08S25.39,34,25.81,33.83Z"/><path class="cls-4" d="M24.29,34.24c.14,0,.3.17.3.29s-.53.17-.67.11C23.36,34.37,24.09,34.12,24.29,34.24Z"/><path class="cls-4" d="M20.7,31.35a.26.26,0,0,1,.25.11.68.68,0,0,1-1,0A.59.59,0,0,1,20.7,31.35Z"/><path class="cls-4" d="M22.18,32.7c-.32.11-1.17.16-1.23-.28a.75.75,0,0,1,.68-.08C21.89,32.33,22.17,32.42,22.18,32.7Z"/><path class="cls-4" d="M21.56,30.4a.46.46,0,0,1,.63-.07.34.34,0,0,1,.15.18A.61.61,0,0,1,21.56,30.4Z"/><path class="cls-4" d="M19.25,32.22c.63,0-.18.81-.53.56S19,32.06,19.25,32.22Z"/><path class="cls-4" d="M28.18,34.82c.2-.16.36,0,.47.18.42.27.93.9.53,1.06S28.2,35.16,28.18,34.82Z"/><path class="cls-4" d="M29.34,34c.54.11.28,1-.23.39C28.79,34,29.12,33.88,29.34,34Z"/><path class="cls-4" d="M26.27,35.64a.29.29,0,0,1,.19.25c-.2.15-.74.16-.87-.11S26.09,35.33,26.27,35.64Z"/><path class="cls-4" d="M21.47,34.16l0,0a.61.61,0,0,1,0,.11c0,.05,0,.1,0,.12-.11.29-.73.3-.61-.07S21.33,34,21.47,34.16Z"/><path class="cls-4" d="M15.91,33.38c.37-.5,1.12,0,.65.16C16.28,33.74,15.56,33.87,15.91,33.38Z"/><path class="cls-4" d="M28.86,38.17,28.79,38a.91.91,0,0,1,.4.63c-.22.06-.85-.37-.84-.65S28.68,37.9,28.86,38.17Z"/><path class="cls-4" d="M23.19,36.75a.16.16,0,0,1-.21,0c-.27,0-.75,0-.54-.32S23.12,36.53,23.19,36.75Z"/><path class="cls-4" d="M31,36.47a.54.54,0,0,1,0,.22c-.32.11-1.14,0-.87-.51S30.93,36.1,31,36.47Z"/><path class="cls-4" d="M29.91,35.11h0a.27.27,0,0,1,.33.27.39.39,0,0,1-.55-.22A.39.39,0,0,1,29.91,35.11Z"/><path class="cls-5" d="M28.86,46.43c1.17.86-4.81,5.19-8.69,5a11.41,11.41,0,0,1-9.4-6c-1-2.15-.67-8.24.61-7.81.46.15-.1,2.22,1.78,5.34,1.66,2.75,4.48,5.46,8.22,5.27C26.49,48,28.08,45.86,28.86,46.43Z"/><path class="cls-6" d="M16,31.37a.55.55,0,0,1,.49.84c-.32.79-2.27,2.09-2.83,1.88s-.59-.87.23-1.5A4.76,4.76,0,0,1,16,31.37Z"/><path class="cls-6" d="M15,32.44s-2.26-2.34-2.9-3.22A39.83,39.83,0,0,1,10,25a.55.55,0,0,0-.48-.24c-.28.05-.2.47-.2.47s1.58,3.23,2.22,4.11c1.3,1.81,3,3.78,3,3.78Z"/><path class="cls-6" d="M11.08,28l3.73-.47.14.21-1.86.31-1.85.3Z"/><path class="cls-6" d="M18.85,32.24c3.85,1,9.55-1.77,9.55-1.77S24.6,26,21.33,25.7,12.4,28,12.4,28A13.56,13.56,0,0,0,18.85,32.24Z"/><path class="cls-7" d="M16,31.61a.81.81,0,0,1,.09.79,4.09,4.09,0,0,1-1.4,1.11l-.09-.7s.3-.21.33-.38a.39.39,0,0,0,0-.27Z"/><path class="cls-7" d="M13.66,28.07a29.77,29.77,0,0,1,6.46.06c3,.43,7.52,1.86,7.46,2.06s-4.94-1.63-7.36-1.8-6.73,0-6.73,0Z"/><path class="cls-7" d="M15.18,28.18a3.28,3.28,0,0,0,.63,1.17A8.7,8.7,0,0,1,16.89,31a10.44,10.44,0,0,1-1.25-1.57c-.36-.53-.82-1.27-.82-1.27Z"/><path class="cls-7" d="M18.18,28.2a5.29,5.29,0,0,0,.66,1.91c.66,1.36.93,1.76.76,1.79s-.65-1-1-1.74-.85-2-.85-2Z"/><path class="cls-7" d="M21.1,28.47a3.76,3.76,0,0,0,.22,1.43c.3,1,.66,1.57.53,1.64s-.49-.87-.69-1.59-.5-1.63-.5-1.63Z"/><path class="cls-7" d="M24.23,29.22a2.39,2.39,0,0,0,.16.84c.18.51.47,1,.39,1a1.84,1.84,0,0,1-.54-.92l-.28-1Z"/><path class="cls-7" d="M14.82,28.1A4.32,4.32,0,0,1,16,27a3.51,3.51,0,0,1,1.45-.6c.08.07-.83.33-1.15.54a12.23,12.23,0,0,0-1.18,1.14Z"/><path class="cls-7" d="M17.91,28a2.81,2.81,0,0,1,.92-1.23,4.57,4.57,0,0,1,2.05-.8c.2.06-1.5.49-1.88.86a4.23,4.23,0,0,0-.69,1.21Z"/><path class="cls-7" d="M20.66,28.32a6.75,6.75,0,0,1,1.39-1.09,5.58,5.58,0,0,1,1.66-.42c.19,0-1.28.33-1.69.62a9.06,9.06,0,0,0-1,1Z"/><path class="cls-7" d="M24.23,29.13s.05-.24.74-.5,1.06-.43.91-.43a4.31,4.31,0,0,0-.91.24,5.61,5.61,0,0,0-1.07.6Z"/><path class="cls-3" d="M86,35.42c3,2.2,6.91,9.14,2.29,14.86S77,56.33,71.86,53a11.48,11.48,0,0,1-1.43-18.13C75.58,29.94,81.53,32.11,86,35.42Z"/><path class="cls-4" d="M73.54,34.61h0Z"/><path class="cls-4" d="M74.24,35.33c.35-.17.74-.53.41-.85s-.78.05-1.09.13C73.12,35,73.3,35.78,74.24,35.33Z"/><path class="cls-4" d="M73.56,34.6l.53-.2A.87.87,0,0,0,73.56,34.6Z"/><path class="cls-4" d="M72.6,36.13c.14-.09.31-.29.14-.43a.22.22,0,0,0-.33.07.44.44,0,0,0-.22.29C72.16,36.35,72.47,36.23,72.6,36.13Z"/><path class="cls-4" d="M74.89,36a.35.35,0,0,0-.33,0c-.15,0-.35.09-.38.22a.25.25,0,0,0,0,.08l0,0,0,0c0,.14.39,0,.51,0S75.16,36.1,74.89,36Z"/><path class="cls-4" d="M74.13,36.29h0Z"/><path class="cls-4" d="M75.62,35.17c-.15,0-.32.21-.23.36s.44.09.56,0C76.46,35.27,75.81,35.06,75.62,35.17Z"/><path class="cls-4" d="M76.25,34.25c-.1,0-.29-.07-.37,0a.14.14,0,0,0,0,.18c0,.11.18.2.25.24s.91.32,1,.06S76.44,34.27,76.25,34.25Z"/><path class="cls-4" d="M75.42,33.73c.16.08.71.06.77-.17s-.3-.27-.45-.25a.51.51,0,0,0-.24.14C75.35,33.52,75.24,33.63,75.42,33.73Z"/><path class="cls-4" d="M72.7,35.05c.29-.21,0-.34-.22-.29h0c-.13,0-.46.15-.37.33S72.59,35.13,72.7,35.05Z"/><path class="cls-4" d="M71.48,36.43c.11-.12.44-.67.06-.69a.28.28,0,0,0-.19.1,1.1,1.1,0,0,0-.39.54C70.81,36.88,71.3,36.65,71.48,36.43Z"/><path class="cls-4" d="M73.53,36.59a.74.74,0,0,0-.5,0c-.28.08-.61.3-.66.51-.13.52.78.15,1,.08S74,36.75,73.53,36.59Z"/><path class="cls-4" d="M75.06,37c-.15,0-.3.17-.3.29s.52.18.67.11C76,37.13,75.26,36.88,75.06,37Z"/><path class="cls-4" d="M78.64,34.11a.29.29,0,0,0-.25.1.69.69,0,0,0,1,0A.59.59,0,0,0,78.64,34.11Z"/><path class="cls-4" d="M77.17,35.45c.31.11,1.16.17,1.23-.27a.75.75,0,0,0-.68-.08C77.45,35.09,77.17,35.18,77.17,35.45Z"/><path class="cls-4" d="M77.78,33.16a.44.44,0,0,0-.62-.07.34.34,0,0,0-.15.18A.59.59,0,0,0,77.78,33.16Z"/><path class="cls-4" d="M80.09,35c-.62,0,.18.81.53.56S80.34,34.82,80.09,35Z"/><path class="cls-4" d="M71.16,37.58c-.19-.16-.36,0-.47.18-.42.26-.92.9-.52,1.06S71.15,37.92,71.16,37.58Z"/><path class="cls-4" d="M70,36.75c-.54.11-.29,1,.23.39C70.56,36.76,70.23,36.64,70,36.75Z"/><path class="cls-4" d="M73.08,38.4a.3.3,0,0,0-.2.25c.2.15.74.16.88-.11S73.26,38.09,73.08,38.4Z"/><path class="cls-4" d="M77.87,36.92l0,0a.52.52,0,0,0,0,.11s0,.1,0,.12c.11.29.73.3.61-.07S78,36.78,77.87,36.92Z"/><path class="cls-4" d="M83.43,36.14c-.36-.5-1.12,0-.64.16C83.06,36.5,83.79,36.63,83.43,36.14Z"/><path class="cls-4" d="M70.48,40.93l.08-.13a.88.88,0,0,0-.4.63c.21.06.85-.37.83-.65S70.67,40.66,70.48,40.93Z"/><path class="cls-4" d="M76.16,39.51a.16.16,0,0,0,.21.05c.26,0,.74,0,.54-.32S76.23,39.29,76.16,39.51Z"/><path class="cls-4" d="M68.32,39.23a.4.4,0,0,0,0,.22c.32.11,1.13,0,.86-.51S68.41,38.85,68.32,39.23Z"/><path class="cls-4" d="M69.44,37.87h0a.27.27,0,0,0-.33.27.41.41,0,0,0,.56-.22A.34.34,0,0,0,69.44,37.87Z"/><path class="cls-5" d="M70.49,49.19c-1.17.86,4.8,5.19,8.69,5a11.43,11.43,0,0,0,9.4-6c1-2.14.67-8.23-.62-7.8-.46.15.11,2.21-1.78,5.34C84.53,48.52,81.71,51.23,78,51,72.85,50.79,71.27,48.62,70.49,49.19Z"/><path class="cls-6" d="M83.31,34.13a.55.55,0,0,0-.49.83c.33.8,2.28,2.1,2.84,1.88s.58-.87-.24-1.49A4.66,4.66,0,0,0,83.31,34.13Z"/><path class="cls-6" d="M84.32,35.2s2.26-2.34,2.91-3.22a41.89,41.89,0,0,0,2.14-4.23.55.55,0,0,1,.48-.24c.27,0,.19.47.19.47s-1.57,3.22-2.21,4.11c-1.3,1.81-3,3.78-3,3.78Z"/><path class="cls-6" d="M88.27,30.79c-.14,0-3.73-.47-3.73-.47l-.14.21,1.85.31,1.85.3Z"/><path class="cls-6" d="M80.49,35C76.64,36,71,33.23,71,33.23s3.8-4.44,7.06-4.77,8.93,2.27,8.93,2.27A13.5,13.5,0,0,1,80.49,35Z"/><path class="cls-7" d="M83.34,34.37a.8.8,0,0,0-.08.79,4.09,4.09,0,0,0,1.4,1.11l.09-.7s-.3-.21-.33-.38a.39.39,0,0,1,0-.27Z"/><path class="cls-7" d="M85.68,30.82a30.09,30.09,0,0,0-6.46.07c-3,.43-7.52,1.86-7.46,2.06s4.95-1.64,7.36-1.8,6.74,0,6.74,0Z"/><path class="cls-7" d="M84.17,30.94a3.52,3.52,0,0,1-.63,1.17,8.89,8.89,0,0,0-1.09,1.68,10.76,10.76,0,0,0,1.26-1.56c.35-.53.81-1.27.81-1.27Z"/><path class="cls-7" d="M81.17,31a5.29,5.29,0,0,1-.66,1.91c-.66,1.36-.93,1.76-.77,1.79s.66-1,1-1.75.85-2,.85-2Z"/><path class="cls-7" d="M78.25,31.23A3.63,3.63,0,0,1,78,32.65c-.29,1-.66,1.58-.52,1.64s.48-.86.68-1.58.5-1.63.5-1.63Z"/><path class="cls-7" d="M75.12,32a2.36,2.36,0,0,1-.16.84c-.19.52-.48,1-.39,1a1.75,1.75,0,0,0,.53-.91c.14-.47.28-1,.28-1Z"/><path class="cls-7" d="M84.52,30.85a4.43,4.43,0,0,0-1.13-1.08,3.53,3.53,0,0,0-1.46-.6c-.08.07.83.33,1.15.54a12.62,12.62,0,0,1,1.19,1.14Z"/><path class="cls-7" d="M81.44,30.77a2.91,2.91,0,0,0-.92-1.23,4.44,4.44,0,0,0-2.06-.8c-.19.06,1.5.49,1.88.86a4.36,4.36,0,0,1,.7,1.21Z"/><path class="cls-7" d="M78.68,31.08A6.6,6.6,0,0,0,77.3,30a5.66,5.66,0,0,0-1.66-.42c-.2,0,1.27.33,1.68.62a8.6,8.6,0,0,1,1.05,1Z"/><path class="cls-7" d="M75.11,31.89s0-.25-.73-.5S73.32,31,73.46,31a4.16,4.16,0,0,1,.91.24,5.82,5.82,0,0,1,1.08.6Z"/><path class="cls-3" d="M90.78,45.56c3,2.19,6.91,9.14,2.29,14.85s-11.37,6-16.47,2.7A11.48,11.48,0,0,1,75.18,45C80.32,40.08,86.27,42.24,90.78,45.56Z"/><path class="cls-4" d="M78.29,44.74h0Z"/><path class="cls-4" d="M79,45.46c.35-.17.74-.53.42-.84s-.78,0-1.1.12C77.87,45.14,78.05,45.92,79,45.46Z"/><path class="cls-4" d="M78.31,44.74l.53-.21A.78.78,0,0,0,78.31,44.74Z"/><path class="cls-4" d="M77.35,46.27c.13-.1.31-.3.14-.44a.23.23,0,0,0-.34.07.43.43,0,0,0-.21.29C76.91,46.48,77.21,46.37,77.35,46.27Z"/><path class="cls-4" d="M79.64,46.09a.3.3,0,0,0-.33,0c-.16,0-.35.08-.39.21a.11.11,0,0,0,0,.08l0,0,0,0c0,.15.38,0,.51,0S79.9,46.23,79.64,46.09Z"/><path class="cls-4" d="M78.87,46.42h0Z"/><path class="cls-4" d="M80.37,45.3c-.15.05-.32.22-.23.36s.44.09.56,0C81.2,45.4,80.56,45.19,80.37,45.3Z"/><path class="cls-4" d="M81,44.38c-.11,0-.29-.06-.37,0a.14.14,0,0,0,0,.17c0,.11.18.2.25.24s.92.32,1,.06S81.18,44.4,81,44.38Z"/><path class="cls-4" d="M80.17,43.86c.15.08.71.06.77-.16s-.31-.28-.45-.26a.5.5,0,0,0-.24.14C80.1,43.65,80,43.76,80.17,43.86Z"/><path class="cls-4" d="M77.45,45.18c.29-.21,0-.33-.22-.29h0c-.14,0-.47.14-.38.32S77.34,45.27,77.45,45.18Z"/><path class="cls-4" d="M76.23,46.57c.11-.13.44-.67.06-.69a.23.23,0,0,0-.2.1,1.06,1.06,0,0,0-.38.53C75.56,47,76,46.78,76.23,46.57Z"/><path class="cls-4" d="M78.28,46.72a.74.74,0,0,0-.5,0,1,1,0,0,0-.67.52c-.12.51.79.14,1,.07S78.7,46.88,78.28,46.72Z"/><path class="cls-4" d="M79.8,47.13c-.14,0-.3.17-.29.29s.52.18.66.11C80.73,47.27,80,47,79.8,47.13Z"/><path class="cls-4" d="M83.39,44.25a.23.23,0,0,0-.25.1.7.7,0,0,0,1,0A.59.59,0,0,0,83.39,44.25Z"/><path class="cls-4" d="M81.91,45.59c.32.11,1.17.16,1.23-.28a.75.75,0,0,0-.68-.08C82.2,45.22,81.92,45.31,81.91,45.59Z"/><path class="cls-4" d="M82.53,43.29a.46.46,0,0,0-.63-.07.31.31,0,0,0-.14.19A.61.61,0,0,0,82.53,43.29Z"/><path class="cls-4" d="M84.84,45.12c-.63,0,.18.8.53.55S85.09,45,84.84,45.12Z"/><path class="cls-4" d="M75.91,47.71c-.2-.16-.36,0-.47.18-.42.27-.93.9-.53,1.06S75.9,48.06,75.91,47.71Z"/><path class="cls-4" d="M74.75,46.88c-.54.11-.28,1,.23.39C75.3,46.89,75,46.77,74.75,46.88Z"/><path class="cls-4" d="M77.83,48.54a.27.27,0,0,0-.2.24c.2.15.74.16.87-.11S78,48.22,77.83,48.54Z"/><path class="cls-4" d="M82.62,47.06l0-.05a.52.52,0,0,0,0,.11c0,.06,0,.1,0,.12.11.29.73.3.61-.07S82.77,46.91,82.62,47.06Z"/><path class="cls-4" d="M88.18,46.27c-.37-.5-1.12,0-.65.16C87.81,46.63,88.53,46.77,88.18,46.27Z"/><path class="cls-4" d="M75.23,51.06l.07-.13a.93.93,0,0,0-.4.63c.22.06.85-.36.84-.65S75.41,50.79,75.23,51.06Z"/><path class="cls-4" d="M80.9,49.64a.16.16,0,0,0,.22,0c.26,0,.74,0,.53-.31S81,49.42,80.9,49.64Z"/><path class="cls-4" d="M73.07,49.36a.41.41,0,0,0,0,.22c.32.11,1.13,0,.86-.51S73.16,49,73.07,49.36Z"/><path class="cls-4" d="M74.18,48h0a.27.27,0,0,0-.33.27.39.39,0,1,0,.32-.26Z"/><path class="cls-5" d="M75.24,59.32c-1.18.86,4.8,5.2,8.68,5a11.44,11.44,0,0,0,9.41-6c1-2.15.66-8.23-.62-7.81-.46.15.1,2.22-1.78,5.35-1.65,2.74-4.48,5.45-8.21,5.26C77.6,60.92,76,58.75,75.24,59.32Z"/><path class="cls-6" d="M88.06,44.26a.55.55,0,0,0-.49.84c.32.8,2.27,2.1,2.83,1.88s.59-.87-.23-1.5A4.86,4.86,0,0,0,88.06,44.26Z"/><path class="cls-6" d="M89.07,45.33S91.33,43,92,42.11a42,42,0,0,0,2.14-4.22s.2-.3.47-.25.2.47.2.47-1.58,3.23-2.22,4.12c-1.29,1.8-3,3.77-3,3.77Z"/><path class="cls-6" d="M93,40.92l-3.73-.47-.13.22L91,41l1.85.31Z"/><path class="cls-6" d="M85.24,45.13c-3.85,1-9.55-1.77-9.55-1.77s3.81-4.43,7.07-4.77,8.93,2.27,8.93,2.27A13.5,13.5,0,0,1,85.24,45.13Z"/><path class="cls-7" d="M88.09,44.5a.82.82,0,0,0-.09.79,4.16,4.16,0,0,0,1.4,1.12l.1-.71s-.31-.2-.34-.38a.39.39,0,0,1,0-.27Z"/><path class="cls-7" d="M90.43,41A30.51,30.51,0,0,0,84,41c-3,.43-7.52,1.86-7.46,2.07s4.94-1.64,7.36-1.8,6.74,0,6.74,0Z"/><path class="cls-7" d="M88.91,41.07a3.28,3.28,0,0,1-.63,1.17,8.7,8.7,0,0,0-1.08,1.69,9.93,9.93,0,0,0,1.25-1.57c.36-.53.82-1.27.82-1.27Z"/><path class="cls-7" d="M85.91,41.09A5,5,0,0,1,85.25,43c-.66,1.36-.92,1.75-.76,1.78s.66-1,1-1.74.85-2,.85-2Z"/><path class="cls-7" d="M83,41.37a3.65,3.65,0,0,1-.23,1.42c-.3,1-.66,1.57-.53,1.64s.49-.87.69-1.59.5-1.63.5-1.63Z"/><path class="cls-7" d="M79.86,42.11a2.13,2.13,0,0,1-.16.84c-.18.51-.47,1-.38,1a1.93,1.93,0,0,0,.53-.92l.28-1Z"/><path class="cls-7" d="M89.27,41a4.38,4.38,0,0,0-1.13-1.09,3.46,3.46,0,0,0-1.46-.59c-.08.07.83.32,1.15.53A12.23,12.23,0,0,1,89,41Z"/><path class="cls-7" d="M86.19,40.9a2.88,2.88,0,0,0-.93-1.23,4.57,4.57,0,0,0-2.05-.8c-.2.06,1.5.49,1.88.87a4.1,4.1,0,0,1,.69,1.2Z"/><path class="cls-7" d="M83.43,41.21A6.75,6.75,0,0,0,82,40.12a6.29,6.29,0,0,0-1.66-.42c-.19,0,1.28.33,1.69.62a9.06,9.06,0,0,1,1,1Z"/><path class="cls-7" d="M79.86,42s0-.24-.73-.5-1.07-.43-.92-.43a4.88,4.88,0,0,1,.91.24,5.46,5.46,0,0,1,1.07.61Z"/><path class="cls-3" d="M71,46.11c3,2.2,6.91,9.14,2.29,14.86S62,67,56.86,63.66a11.48,11.48,0,0,1-1.43-18.13C60.58,40.63,66.53,42.8,71,46.11Z"/><path class="cls-4" d="M58.54,45.3h0Z"/><path class="cls-4" d="M59.24,46c.34-.17.74-.53.41-.85s-.78,0-1.09.13C58.12,45.69,58.3,46.47,59.24,46Z"/><path class="cls-4" d="M58.56,45.29l.53-.2A.8.8,0,0,0,58.56,45.29Z"/><path class="cls-4" d="M57.6,46.82c.14-.09.31-.29.14-.43a.23.23,0,0,0-.34.07.46.46,0,0,0-.21.29C57.16,47,57.47,46.92,57.6,46.82Z"/><path class="cls-4" d="M59.89,46.64a.35.35,0,0,0-.33,0c-.16,0-.35.09-.39.21s0,.06,0,.09l-.05,0,.05,0c0,.14.38,0,.51,0S60.16,46.79,59.89,46.64Z"/><path class="cls-4" d="M59.12,47h0Z"/><path class="cls-4" d="M60.62,45.86c-.15,0-.32.21-.23.36s.44.09.56,0C61.46,46,60.81,45.75,60.62,45.86Z"/><path class="cls-4" d="M61.25,44.94c-.1,0-.29-.07-.37,0a.15.15,0,0,0,0,.18c0,.11.18.2.25.24s.92.32,1,.06S61.44,45,61.25,44.94Z"/><path class="cls-4" d="M60.42,44.42c.15.08.71.06.77-.17s-.3-.27-.45-.25a.47.47,0,0,0-.24.14C60.35,44.21,60.24,44.32,60.42,44.42Z"/><path class="cls-4" d="M57.7,45.74c.29-.21,0-.34-.22-.29h0c-.13,0-.46.15-.38.33S57.59,45.82,57.7,45.74Z"/><path class="cls-4" d="M56.48,47.12c.11-.12.44-.67.06-.69a.26.26,0,0,0-.19.1,1.1,1.1,0,0,0-.39.54C55.81,47.57,56.29,47.34,56.48,47.12Z"/><path class="cls-4" d="M58.53,47.28a.74.74,0,0,0-.5,0,1,1,0,0,0-.67.51c-.12.52.79.15,1,.08S59,47.43,58.53,47.28Z"/><path class="cls-4" d="M60.06,47.68c-.15,0-.3.17-.3.29s.52.18.67.11C61,47.82,60.26,47.57,60.06,47.68Z"/><path class="cls-4" d="M63.64,44.8a.27.27,0,0,0-.25.1.69.69,0,0,0,1,0A.59.59,0,0,0,63.64,44.8Z"/><path class="cls-4" d="M62.17,46.14c.31.11,1.16.17,1.23-.27a.72.72,0,0,0-.68-.08C62.45,45.78,62.17,45.87,62.17,46.14Z"/><path class="cls-4" d="M62.78,43.84a.44.44,0,0,0-.62-.06A.34.34,0,0,0,62,44,.59.59,0,0,0,62.78,43.84Z"/><path class="cls-4" d="M65.09,45.67c-.63,0,.18.81.53.56S65.34,45.51,65.09,45.67Z"/><path class="cls-4" d="M56.16,48.26c-.19-.15-.36,0-.47.18-.42.27-.92.91-.52,1.07S56.15,48.61,56.16,48.26Z"/><path class="cls-4" d="M55,47.44c-.54.11-.29,1,.23.39C55.56,47.45,55.23,47.33,55,47.44Z"/><path class="cls-4" d="M58.08,49.09a.28.28,0,0,0-.2.25c.2.14.74.16.87-.11S58.26,48.78,58.08,49.09Z"/><path class="cls-4" d="M62.87,47.61l0,0a.52.52,0,0,0,0,.11s0,.1,0,.12c.12.29.74.3.62-.07S63,47.47,62.87,47.61Z"/><path class="cls-4" d="M68.43,46.83c-.37-.5-1.12,0-.65.16C68.06,47.19,68.79,47.32,68.43,46.83Z"/><path class="cls-4" d="M55.48,51.62l.08-.14a.89.89,0,0,0-.4.64c.21.06.85-.37.83-.65S55.67,51.35,55.48,51.62Z"/><path class="cls-4" d="M61.16,50.2a.16.16,0,0,0,.21,0c.26,0,.74,0,.54-.32S61.23,50,61.16,50.2Z"/><path class="cls-4" d="M53.32,49.92a.4.4,0,0,0,0,.22c.32.11,1.13,0,.86-.51S53.41,49.54,53.32,49.92Z"/><path class="cls-4" d="M54.44,48.56h0a.27.27,0,0,0-.33.27.41.41,0,0,0,.56-.22A.34.34,0,0,0,54.44,48.56Z"/><path class="cls-5" d="M55.49,59.88c-1.18.86,4.8,5.19,8.69,5a11.43,11.43,0,0,0,9.4-6c1-2.14.67-8.23-.62-7.8-.46.15.11,2.21-1.78,5.34-1.65,2.75-4.47,5.45-8.21,5.27C57.85,61.48,56.26,59.31,55.49,59.88Z"/><path class="cls-6" d="M68.31,44.82a.55.55,0,0,0-.49.83c.33.8,2.27,2.1,2.83,1.88s.59-.87-.23-1.49A4.66,4.66,0,0,0,68.31,44.82Z"/><path class="cls-6" d="M69.32,45.89s2.26-2.34,2.91-3.22a41.89,41.89,0,0,0,2.14-4.23.55.55,0,0,1,.48-.24c.27,0,.19.47.19.47s-1.57,3.22-2.21,4.11c-1.3,1.81-3,3.78-3,3.78Z"/><path class="cls-6" d="M73.27,41.48c-.14,0-3.74-.47-3.74-.47l-.13.21,1.85.31,1.85.3Z"/><path class="cls-6" d="M65.49,45.69c-3.85,1-9.55-1.77-9.55-1.77s3.81-4.44,7.07-4.77,8.93,2.27,8.93,2.27A13.5,13.5,0,0,1,65.49,45.69Z"/><path class="cls-7" d="M68.34,45.06a.8.8,0,0,0-.08.79A4,4,0,0,0,69.66,47l.09-.7s-.3-.21-.33-.38a.39.39,0,0,1,0-.27Z"/><path class="cls-7" d="M70.68,41.51a30.09,30.09,0,0,0-6.46.07c-3,.43-7.52,1.86-7.46,2.06s4.94-1.64,7.36-1.8,6.74,0,6.74,0Z"/><path class="cls-7" d="M69.16,41.62a3.32,3.32,0,0,1-.62,1.18,8.89,8.89,0,0,0-1.09,1.68,10.76,10.76,0,0,0,1.26-1.56c.35-.53.81-1.27.81-1.27Z"/><path class="cls-7" d="M66.17,41.65a5.29,5.29,0,0,1-.66,1.91c-.67,1.36-.93,1.76-.77,1.79s.66-1,1-1.75.85-2,.85-2Z"/><path class="cls-7" d="M63.25,41.92A3.63,3.63,0,0,1,63,43.34c-.3,1-.66,1.58-.52,1.64s.48-.86.68-1.58.5-1.63.5-1.63Z"/><path class="cls-7" d="M60.12,42.66a2.36,2.36,0,0,1-.16.84c-.19.52-.48,1-.39,1a1.83,1.83,0,0,0,.53-.91l.28-1Z"/><path class="cls-7" d="M69.52,41.54a4.43,4.43,0,0,0-1.13-1.08,3.53,3.53,0,0,0-1.46-.6c-.08.07.83.33,1.15.54a12.62,12.62,0,0,1,1.19,1.14Z"/><path class="cls-7" d="M66.44,41.45a2.91,2.91,0,0,0-.92-1.22,4.44,4.44,0,0,0-2.06-.8c-.19.06,1.5.49,1.88.86A4.36,4.36,0,0,1,66,41.5Z"/><path class="cls-7" d="M63.68,41.77a6.6,6.6,0,0,0-1.38-1.09,5.66,5.66,0,0,0-1.66-.42c-.2,0,1.27.33,1.68.62a9.48,9.48,0,0,1,1,1Z"/><path class="cls-7" d="M60.11,42.58s0-.25-.73-.5-1.07-.43-.92-.43a4.16,4.16,0,0,1,.91.24,5.61,5.61,0,0,1,1.07.6Z"/><path class="cls-3" d="M52.12,28.31c3,2.2,6.91,9.14,2.29,14.86s-11.37,6-16.47,2.69a11.47,11.47,0,0,1-1.42-18.13C41.66,22.83,47.61,25,52.12,28.31Z"/><path class="cls-4" d="M39.63,27.5h0Z"/><path class="cls-4" d="M40.32,28.22c.35-.17.74-.53.42-.85s-.78.05-1.1.13C39.21,27.89,39.39,28.67,40.32,28.22Z"/><path class="cls-4" d="M39.65,27.49l.53-.21A.83.83,0,0,0,39.65,27.49Z"/><path class="cls-4" d="M38.69,29c.13-.09.31-.29.14-.44a.23.23,0,0,0-.34.08.41.41,0,0,0-.21.28C38.25,29.24,38.55,29.12,38.69,29Z"/><path class="cls-4" d="M41,28.84a.35.35,0,0,0-.33,0c-.16,0-.35.09-.39.21a.14.14,0,0,0,0,.09l0,0,0,0c0,.14.38,0,.51,0S41.24,29,41,28.84Z"/><path class="cls-4" d="M40.21,29.18h0Z"/><path class="cls-4" d="M41.71,28.06c-.15,0-.32.21-.23.36s.44.09.56,0C42.54,28.16,41.9,28,41.71,28.06Z"/><path class="cls-4" d="M42.34,27.14c-.11,0-.3-.07-.37,0a.15.15,0,0,0,0,.18c0,.11.18.2.25.23s.92.33,1,.07S42.52,27.16,42.34,27.14Z"/><path class="cls-4" d="M41.51,26.62c.15.08.71.06.77-.17s-.31-.27-.45-.25a.48.48,0,0,0-.24.13C41.44,26.41,41.32,26.52,41.51,26.62Z"/><path class="cls-4" d="M38.79,27.94c.29-.22,0-.34-.22-.29h0c-.13,0-.46.15-.37.33S38.68,28,38.79,27.94Z"/><path class="cls-4" d="M37.57,29.32c.11-.12.44-.67.06-.69a.3.3,0,0,0-.2.1,1,1,0,0,0-.38.54C36.9,29.77,37.38,29.54,37.57,29.32Z"/><path class="cls-4" d="M39.62,29.48a.68.68,0,0,0-.5,0,1,1,0,0,0-.67.51c-.12.52.79.15,1,.08S40,29.63,39.62,29.48Z"/><path class="cls-4" d="M41.14,29.88c-.14.05-.3.17-.29.29s.52.18.66.11C42.07,30,41.34,29.77,41.14,29.88Z"/><path class="cls-4" d="M44.73,27a.25.25,0,0,0-.25.1.68.68,0,0,0,1,0A.57.57,0,0,0,44.73,27Z"/><path class="cls-4" d="M43.25,28.34c.32.11,1.17.17,1.23-.27A.72.72,0,0,0,43.8,28C43.54,28,43.26,28.06,43.25,28.34Z"/><path class="cls-4" d="M43.87,26a.46.46,0,0,0-.63-.06.26.26,0,0,0-.14.18A.59.59,0,0,0,43.87,26Z"/><path class="cls-4" d="M46.18,27.87c-.63,0,.18.81.53.55S46.43,27.71,46.18,27.87Z"/><path class="cls-4" d="M37.25,30.46c-.2-.15-.36,0-.47.18-.42.27-.93.91-.53,1.06S37.24,30.81,37.25,30.46Z"/><path class="cls-4" d="M36.09,29.64c-.54.1-.28,1,.23.39C36.64,29.65,36.32,29.52,36.09,29.64Z"/><path class="cls-4" d="M39.17,31.29a.28.28,0,0,0-.2.25c.2.14.74.16.87-.11S39.35,31,39.17,31.29Z"/><path class="cls-4" d="M44,29.81l0,0a.45.45,0,0,0,0,.11c0,.05,0,.1,0,.12.11.29.73.3.61-.07S44.1,29.67,44,29.81Z"/><path class="cls-4" d="M49.52,29c-.37-.5-1.12,0-.65.16C49.15,29.39,49.87,29.52,49.52,29Z"/><path class="cls-4" d="M36.57,33.82l.07-.14a1,1,0,0,0-.4.64c.22.06.85-.37.84-.65S36.75,33.55,36.57,33.82Z"/><path class="cls-4" d="M42.24,32.4a.16.16,0,0,0,.21.05c.27,0,.75,0,.54-.32S42.32,32.18,42.24,32.4Z"/><path class="cls-4" d="M34.41,32.12a.51.51,0,0,0,0,.22c.33.11,1.14,0,.87-.51S34.5,31.74,34.41,32.12Z"/><path class="cls-4" d="M35.52,30.76h0a.27.27,0,0,0-.33.26.39.39,0,0,0,.55-.21A.33.33,0,0,0,35.52,30.76Z"/><path class="cls-5" d="M36.58,42.08c-1.18.86,4.8,5.19,8.68,5a11.43,11.43,0,0,0,9.41-6c1-2.14.66-8.23-.62-7.8-.46.15.1,2.21-1.78,5.34-1.66,2.75-4.48,5.45-8.21,5.27C38.94,43.68,37.35,41.51,36.58,42.08Z"/><path class="cls-6" d="M49.4,27a.54.54,0,0,0-.49.83c.32.8,2.27,2.1,2.83,1.88s.59-.87-.23-1.49A4.66,4.66,0,0,0,49.4,27Z"/><path class="cls-6" d="M50.41,28.09s2.26-2.34,2.91-3.22a41.89,41.89,0,0,0,2.14-4.23s.2-.29.47-.24.2.47.2.47S54.55,24.09,53.91,25c-1.29,1.81-3,3.78-3,3.78Z"/><path class="cls-6" d="M54.35,23.68c-.14,0-3.73-.47-3.73-.47l-.13.21,1.85.31,1.85.3Z"/><path class="cls-6" d="M46.58,27.89c-3.85,1-9.55-1.77-9.55-1.77s3.81-4.44,7.07-4.77S53,23.62,53,23.62A13.5,13.5,0,0,1,46.58,27.89Z"/><path class="cls-7" d="M49.43,27.26a.81.81,0,0,0-.09.79,4.09,4.09,0,0,0,1.4,1.11l.09-.7s-.3-.21-.33-.38a.39.39,0,0,1,0-.27Z"/><path class="cls-7" d="M51.77,23.71a30.51,30.51,0,0,0-6.46.06c-3,.44-7.52,1.87-7.46,2.07s4.94-1.64,7.36-1.8S52,24,52,24Z"/><path class="cls-7" d="M50.25,23.82A3.36,3.36,0,0,1,49.62,25a8.79,8.79,0,0,0-1.08,1.68,10.21,10.21,0,0,0,1.25-1.56c.36-.53.82-1.27.82-1.27Z"/><path class="cls-7" d="M47.25,23.85a5.29,5.29,0,0,1-.66,1.91c-.66,1.36-.93,1.76-.76,1.79s.66-1,1-1.75.85-2,.85-2Z"/><path class="cls-7" d="M44.34,24.12a3.63,3.63,0,0,1-.23,1.42c-.3,1-.66,1.58-.53,1.64s.49-.86.69-1.59.5-1.62.5-1.62Z"/><path class="cls-7" d="M41.2,24.86a2.11,2.11,0,0,1-.16.84c-.18.52-.47,1-.38,1a1.83,1.83,0,0,0,.53-.91l.28-1Z"/><path class="cls-7" d="M50.61,23.74a4.43,4.43,0,0,0-1.13-1.08,3.59,3.59,0,0,0-1.46-.6c-.08.07.83.33,1.15.54a12.23,12.23,0,0,1,1.18,1.14Z"/><path class="cls-7" d="M47.53,23.65a2.82,2.82,0,0,0-.93-1.22,4.45,4.45,0,0,0-2.05-.8c-.2.06,1.5.49,1.88.86a4.23,4.23,0,0,1,.69,1.21Z"/><path class="cls-7" d="M44.77,24a6.75,6.75,0,0,0-1.39-1.09,5.58,5.58,0,0,0-1.66-.42,17.77,17.77,0,0,1,1.69.62,9.06,9.06,0,0,1,1,1Z"/><path class="cls-7" d="M41.2,24.78s-.05-.25-.74-.5-1.06-.43-.91-.43a4.75,4.75,0,0,1,.91.23,6.06,6.06,0,0,1,1.07.61Z"/><path class="cls-3" d="M25.64,44c-3,2.19-6.91,9.14-2.29,14.85s11.37,6,16.46,2.7a11.49,11.49,0,0,0,1.43-18.14C36.09,38.53,30.14,40.7,25.64,44Z"/><path class="cls-4" d="M38.13,43.19h0Z"/><path class="cls-4" d="M37.43,43.91c-.35-.17-.74-.53-.41-.84s.78,0,1.09.12C38.55,43.59,38.37,44.37,37.43,43.91Z"/><path class="cls-4" d="M38.11,43.19,37.58,43A.82.82,0,0,1,38.11,43.19Z"/><path class="cls-4" d="M39.07,44.72c-.14-.1-.32-.3-.14-.44a.22.22,0,0,1,.33.07.44.44,0,0,1,.22.29C39.51,44.93,39.2,44.82,39.07,44.72Z"/><path class="cls-4" d="M36.78,44.54a.33.33,0,0,1,.33,0c.15,0,.35.08.38.21a.25.25,0,0,1,0,.08l0,0,0,0c0,.15-.39,0-.51,0S36.51,44.68,36.78,44.54Z"/><path class="cls-4" d="M37.54,44.87h0Z"/><path class="cls-4" d="M36.05,43.75c.15,0,.32.22.23.36s-.44.09-.57,0C35.21,43.85,35.86,43.64,36.05,43.75Z"/><path class="cls-4" d="M35.42,42.83c.1,0,.29-.06.37,0a.14.14,0,0,1,0,.18c0,.1-.18.19-.25.23s-.91.32-1,.06S35.23,42.86,35.42,42.83Z"/><path class="cls-4" d="M36.25,42.31c-.16.08-.72.06-.77-.16s.3-.28.45-.26a.61.61,0,0,1,.24.14C36.32,42.1,36.43,42.21,36.25,42.31Z"/><path class="cls-4" d="M39,43.63c-.29-.21,0-.33.22-.29h0c.13,0,.46.14.37.32S39.08,43.72,39,43.63Z"/><path class="cls-4" d="M40.19,45c-.11-.13-.45-.67-.06-.69a.22.22,0,0,1,.19.1,1.08,1.08,0,0,1,.39.53C40.86,45.46,40.37,45.23,40.19,45Z"/><path class="cls-4" d="M38.14,45.17a.74.74,0,0,1,.5,0,1,1,0,0,1,.66.52c.13.52-.78.14-1,.08S37.71,45.33,38.14,45.17Z"/><path class="cls-4" d="M36.61,45.58c.15.05.3.17.3.29s-.52.18-.67.11C35.68,45.72,36.41,45.47,36.61,45.58Z"/><path class="cls-4" d="M33,42.7a.25.25,0,0,1,.25.1.7.7,0,0,1-1.05,0A.58.58,0,0,1,33,42.7Z"/><path class="cls-4" d="M34.5,44c-.31.11-1.16.16-1.23-.28a.75.75,0,0,1,.68-.08C34.22,43.67,34.5,43.76,34.5,44Z"/><path class="cls-4" d="M33.89,41.74a.43.43,0,0,1,.62-.06.28.28,0,0,1,.15.18A.61.61,0,0,1,33.89,41.74Z"/><path class="cls-4" d="M31.58,43.57c.62,0-.18.8-.53.55S31.33,43.4,31.58,43.57Z"/><path class="cls-4" d="M40.51,46.16c.19-.15.36,0,.47.18.42.27.92.9.52,1.06S40.52,46.51,40.51,46.16Z"/><path class="cls-4" d="M41.66,45.33c.54.11.29,1-.23.39C41.11,45.34,41.44,45.22,41.66,45.33Z"/><path class="cls-4" d="M38.59,47a.28.28,0,0,1,.2.24c-.2.15-.74.16-.88-.11S38.41,46.67,38.59,47Z"/><path class="cls-4" d="M33.8,45.51l0,0a.52.52,0,0,1,0,.11c0,.06,0,.1,0,.12-.11.29-.73.3-.61-.07S33.65,45.37,33.8,45.51Z"/><path class="cls-4" d="M28.24,44.72c.36-.5,1.12,0,.64.16C28.61,45.08,27.88,45.22,28.24,44.72Z"/><path class="cls-4" d="M41.19,49.51l-.08-.13a.9.9,0,0,1,.4.63c-.21.06-.85-.36-.83-.65S41,49.24,41.19,49.51Z"/><path class="cls-4" d="M35.51,48.09c-.08.1-.14.09-.21,0-.26,0-.74,0-.54-.31S35.44,47.87,35.51,48.09Z"/><path class="cls-4" d="M43.35,47.81a.41.41,0,0,1,0,.22c-.32.11-1.13,0-.86-.51S43.26,47.44,43.35,47.81Z"/><path class="cls-4" d="M42.23,46.45h0a.26.26,0,0,1,.33.26A.4.4,0,0,1,42,46.5.36.36,0,0,1,42.23,46.45Z"/><path class="cls-5" d="M41.18,57.77c1.17.86-4.8,5.2-8.69,5a11.44,11.44,0,0,1-9.4-6c-1-2.15-.67-8.23.62-7.81.46.15-.11,2.22,1.78,5.35,1.65,2.74,4.47,5.45,8.21,5.26C38.82,59.37,40.4,57.2,41.18,57.77Z"/><path class="cls-6" d="M28.36,42.71a.55.55,0,0,1,.49.84c-.33.8-2.28,2.1-2.84,1.88s-.58-.87.24-1.5A4.75,4.75,0,0,1,28.36,42.71Z"/><path class="cls-6" d="M27.35,43.78s-2.26-2.34-2.91-3.22a42,42,0,0,1-2.14-4.22s-.2-.3-.48-.25-.19.47-.19.47,1.57,3.23,2.21,4.12c1.3,1.8,3,3.77,3,3.77Z"/><path class="cls-6" d="M23.4,39.37l3.73-.47.14.22-1.85.3-1.86.31Z"/><path class="cls-6" d="M31.17,43.58c3.86,1,9.55-1.77,9.55-1.77s-3.8-4.43-7.06-4.77-8.93,2.27-8.93,2.27A13.43,13.43,0,0,0,31.17,43.58Z"/><path class="cls-7" d="M28.33,43a.8.8,0,0,1,.08.79A4.16,4.16,0,0,1,27,44.86l-.09-.71s.3-.2.33-.38a.39.39,0,0,0,0-.27Z"/><path class="cls-7" d="M26,39.41a30.48,30.48,0,0,1,6.46.06c3,.43,7.52,1.87,7.46,2.07S35,39.9,32.55,39.74s-6.74,0-6.74,0Z"/><path class="cls-7" d="M27.5,39.52a3.52,3.52,0,0,0,.63,1.17,8.47,8.47,0,0,1,1.09,1.69A10.43,10.43,0,0,1,28,40.81c-.35-.53-.81-1.27-.81-1.27Z"/><path class="cls-7" d="M30.5,39.54a5.29,5.29,0,0,0,.66,1.92c.66,1.36.93,1.75.77,1.78s-.66-1-1-1.74-.85-2-.85-2Z"/><path class="cls-7" d="M33.42,39.82a3.65,3.65,0,0,0,.23,1.42c.29,1,.66,1.57.52,1.64s-.48-.86-.68-1.59-.5-1.62-.5-1.62Z"/><path class="cls-7" d="M36.55,40.56a2.39,2.39,0,0,0,.16.84c.19.51.48,1,.39,1a1.92,1.92,0,0,1-.54-.92c-.13-.46-.27-1-.27-1Z"/><path class="cls-7" d="M27.15,39.44a4.38,4.38,0,0,1,1.13-1.09,3.46,3.46,0,0,1,1.46-.59c.07.07-.83.32-1.15.53a12.62,12.62,0,0,0-1.19,1.14Z"/><path class="cls-7" d="M30.23,39.35a2.91,2.91,0,0,1,.92-1.23,4.56,4.56,0,0,1,2.06-.8c.19.06-1.5.49-1.88.87a4.22,4.22,0,0,0-.7,1.2Z"/><path class="cls-7" d="M33,39.67a6.54,6.54,0,0,1,1.38-1.1A6.39,6.39,0,0,1,36,38.15c.2,0-1.27.33-1.68.62a8.6,8.6,0,0,0-1.05,1Z"/><path class="cls-7" d="M36.56,40.47s0-.24.73-.5,1.06-.43.92-.43a4.88,4.88,0,0,0-.91.24,5.66,5.66,0,0,0-1.08.61Z"/><path class="cls-3" d="M54.62,46.11c3,2.2,6.91,9.14,2.29,14.86s-11.37,6-16.46,2.69A11.48,11.48,0,0,1,39,45.53C44.17,40.63,50.12,42.8,54.62,46.11Z"/><path class="cls-4" d="M42.13,45.3h0Z"/><path class="cls-4" d="M42.83,46c.34-.17.74-.53.41-.85s-.78,0-1.09.13C41.71,45.69,41.89,46.47,42.83,46Z"/><path class="cls-4" d="M42.15,45.29l.53-.2A.8.8,0,0,0,42.15,45.29Z"/><path class="cls-4" d="M41.19,46.82c.14-.09.31-.29.14-.43a.23.23,0,0,0-.34.07.46.46,0,0,0-.21.29C40.75,47,41.06,46.92,41.19,46.82Z"/><path class="cls-4" d="M43.48,46.64a.35.35,0,0,0-.33,0c-.16,0-.35.09-.39.21s0,.06,0,.09l0,0,0,0c0,.14.38,0,.51,0S43.75,46.79,43.48,46.64Z"/><path class="cls-4" d="M42.72,47h0Z"/><path class="cls-4" d="M44.21,45.86c-.15,0-.32.21-.23.36s.44.09.56,0C45.05,46,44.4,45.75,44.21,45.86Z"/><path class="cls-4" d="M44.84,44.94c-.1,0-.29-.07-.37,0a.15.15,0,0,0,0,.18c0,.11.18.2.25.24s.92.32,1,.06S45,45,44.84,44.94Z"/><path class="cls-4" d="M44,44.42c.15.08.71.06.77-.17s-.3-.27-.45-.25a.47.47,0,0,0-.24.14C43.94,44.21,43.83,44.32,44,44.42Z"/><path class="cls-4" d="M41.29,45.74c.29-.21,0-.34-.22-.29h0c-.13,0-.46.15-.38.33S41.18,45.82,41.29,45.74Z"/><path class="cls-4" d="M40.07,47.12c.11-.12.44-.67.06-.69a.26.26,0,0,0-.19.1,1.1,1.1,0,0,0-.39.54C39.4,47.57,39.88,47.34,40.07,47.12Z"/><path class="cls-4" d="M42.12,47.28a.74.74,0,0,0-.5,0,1,1,0,0,0-.67.51c-.12.52.79.15,1,.08S42.55,47.43,42.12,47.28Z"/><path class="cls-4" d="M43.65,47.68c-.15,0-.3.17-.3.29s.52.18.67.11C44.58,47.82,43.85,47.57,43.65,47.68Z"/><path class="cls-4" d="M47.23,44.8a.27.27,0,0,0-.25.1.69.69,0,0,0,1.05,0A.58.58,0,0,0,47.23,44.8Z"/><path class="cls-4" d="M45.76,46.14c.31.11,1.16.17,1.23-.27a.72.72,0,0,0-.68-.08C46,45.78,45.76,45.87,45.76,46.14Z"/><path class="cls-4" d="M46.37,43.84a.44.44,0,0,0-.62-.06.34.34,0,0,0-.15.18A.59.59,0,0,0,46.37,43.84Z"/><path class="cls-4" d="M48.68,45.67c-.63,0,.18.81.53.56S48.93,45.51,48.68,45.67Z"/><path class="cls-4" d="M39.75,48.26c-.19-.15-.36,0-.47.18-.42.27-.92.91-.52,1.07S39.74,48.61,39.75,48.26Z"/><path class="cls-4" d="M38.6,47.44c-.54.11-.29,1,.23.39C39.15,47.45,38.82,47.33,38.6,47.44Z"/><path class="cls-4" d="M41.67,49.09a.28.28,0,0,0-.2.25c.2.14.74.16.87-.11S41.85,48.78,41.67,49.09Z"/><path class="cls-4" d="M46.46,47.61l0,0a.52.52,0,0,0,0,.11s0,.1,0,.12c.12.29.74.3.62-.07S46.61,47.47,46.46,47.61Z"/><path class="cls-4" d="M52,46.83c-.37-.5-1.12,0-.65.16C51.65,47.19,52.38,47.32,52,46.83Z"/><path class="cls-4" d="M39.07,51.62l.08-.14a.89.89,0,0,0-.4.64c.21.06.85-.37.83-.65S39.26,51.35,39.07,51.62Z"/><path class="cls-4" d="M44.75,50.2a.16.16,0,0,0,.21,0c.26,0,.74,0,.54-.32S44.82,50,44.75,50.2Z"/><path class="cls-4" d="M36.91,49.92a.4.4,0,0,0,0,.22c.32.11,1.13,0,.86-.51S37,49.54,36.91,49.92Z"/><path class="cls-4" d="M38,48.56h0a.27.27,0,0,0-.33.27.41.41,0,0,0,.56-.22A.34.34,0,0,0,38,48.56Z"/><path class="cls-5" d="M39.08,59.88c-1.18.86,4.8,5.19,8.69,5a11.43,11.43,0,0,0,9.4-6c1-2.14.67-8.23-.62-7.8-.46.15.11,2.21-1.78,5.34-1.65,2.75-4.47,5.45-8.21,5.27C41.44,61.48,39.86,59.31,39.08,59.88Z"/><path class="cls-6" d="M51.9,44.82a.55.55,0,0,0-.49.83c.33.8,2.27,2.1,2.83,1.88s.59-.87-.23-1.49A4.66,4.66,0,0,0,51.9,44.82Z"/><path class="cls-6" d="M52.91,45.89s2.26-2.34,2.91-3.22A41.89,41.89,0,0,0,58,38.44a.55.55,0,0,1,.48-.24c.27,0,.19.47.19.47s-1.57,3.22-2.21,4.11c-1.3,1.81-3,3.78-3,3.78Z"/><path class="cls-6" d="M56.86,41.48c-.14,0-3.73-.47-3.73-.47l-.14.21,1.85.31,1.85.3Z"/><path class="cls-6" d="M49.08,45.69c-3.85,1-9.55-1.77-9.55-1.77s3.81-4.44,7.07-4.77,8.93,2.27,8.93,2.27A13.5,13.5,0,0,1,49.08,45.69Z"/><path class="cls-7" d="M51.93,45.06a.8.8,0,0,0-.08.79A4,4,0,0,0,53.25,47l.09-.7s-.3-.21-.33-.38a.39.39,0,0,1,0-.27Z"/><path class="cls-7" d="M54.27,41.51a30.09,30.09,0,0,0-6.46.07c-3,.43-7.52,1.86-7.46,2.06s4.94-1.64,7.36-1.8,6.74,0,6.74,0Z"/><path class="cls-7" d="M52.75,41.62a3.32,3.32,0,0,1-.62,1.18A8.89,8.89,0,0,0,51,44.48a10.76,10.76,0,0,0,1.26-1.56c.35-.53.81-1.27.81-1.27Z"/><path class="cls-7" d="M49.76,41.65a5.29,5.29,0,0,1-.66,1.91c-.67,1.36-.93,1.76-.77,1.79s.66-1,1-1.75.85-2,.85-2Z"/><path class="cls-7" d="M46.84,41.92a3.63,3.63,0,0,1-.23,1.42c-.3,1-.66,1.58-.52,1.64s.48-.86.68-1.58.5-1.63.5-1.63Z"/><path class="cls-7" d="M43.71,42.66a2.36,2.36,0,0,1-.16.84c-.19.52-.48,1-.39,1a1.83,1.83,0,0,0,.53-.91l.28-1Z"/><path class="cls-7" d="M53.11,41.54A4.43,4.43,0,0,0,52,40.46a3.53,3.53,0,0,0-1.46-.6c-.08.07.83.33,1.15.54a12.62,12.62,0,0,1,1.19,1.14Z"/><path class="cls-7" d="M50,41.45a2.91,2.91,0,0,0-.92-1.22,4.44,4.44,0,0,0-2.06-.8c-.19.06,1.5.49,1.88.86a4.36,4.36,0,0,1,.7,1.21Z"/><path class="cls-7" d="M47.27,41.77a6.6,6.6,0,0,0-1.38-1.09,5.66,5.66,0,0,0-1.66-.42c-.2,0,1.27.33,1.68.62a8.6,8.6,0,0,1,1.05,1Z"/><path class="cls-7" d="M43.7,42.58s-.05-.25-.73-.5-1.07-.43-.92-.43a4.16,4.16,0,0,1,.91.24,5.82,5.82,0,0,1,1.08.6Z"/><path class="cls-3" d="M8.4,45.76C5.42,48,1.49,54.9,6.11,60.61s11.37,6,16.47,2.7A11.48,11.48,0,0,0,24,45.17C18.86,40.28,12.91,42.45,8.4,45.76Z"/><path class="cls-4" d="M20.89,44.94h0Z"/><path class="cls-4" d="M20.2,45.66c-.35-.17-.74-.53-.42-.84s.78,0,1.1.12C21.31,45.34,21.13,46.12,20.2,45.66Z"/><path class="cls-4" d="M20.87,44.94l-.53-.21A.78.78,0,0,1,20.87,44.94Z"/><path class="cls-4" d="M21.83,46.47c-.13-.1-.31-.3-.14-.44a.23.23,0,0,1,.34.07.43.43,0,0,1,.21.29C22.27,46.68,22,46.57,21.83,46.47Z"/><path class="cls-4" d="M19.54,46.29a.32.32,0,0,1,.33,0c.16,0,.35.08.39.21a.11.11,0,0,1,0,.08l0,0,0,0c0,.15-.38,0-.51,0S19.28,46.43,19.54,46.29Z"/><path class="cls-4" d="M20.31,46.62h0Z"/><path class="cls-4" d="M18.81,45.5c.15,0,.32.22.23.36s-.44.09-.56,0C18,45.6,18.62,45.39,18.81,45.5Z"/><path class="cls-4" d="M18.18,44.58c.11,0,.29-.06.37,0a.15.15,0,0,1,0,.18c0,.1-.18.19-.25.23s-.92.32-1,.06S18,44.61,18.18,44.58Z"/><path class="cls-4" d="M19,44.06c-.15.08-.71.06-.77-.16s.31-.28.45-.26a.5.5,0,0,1,.24.14C19.08,43.85,19.19,44,19,44.06Z"/><path class="cls-4" d="M21.73,45.38c-.29-.21,0-.33.22-.29h0c.14,0,.47.14.38.32S21.84,45.47,21.73,45.38Z"/><path class="cls-4" d="M23,46.77c-.11-.13-.44-.67-.06-.69a.23.23,0,0,1,.2.1,1.06,1.06,0,0,1,.38.53C23.62,47.21,23.14,47,23,46.77Z"/><path class="cls-4" d="M20.9,46.92a.74.74,0,0,1,.5,0,1,1,0,0,1,.67.52c.12.52-.79.14-1,.08S20.48,47.08,20.9,46.92Z"/><path class="cls-4" d="M19.38,47.33c.14.05.3.17.29.29s-.52.18-.66.11C18.45,47.47,19.18,47.21,19.38,47.33Z"/><path class="cls-4" d="M15.79,44.45a.23.23,0,0,1,.25.1.7.7,0,0,1-1,0A.59.59,0,0,1,15.79,44.45Z"/><path class="cls-4" d="M17.27,45.79C17,45.9,16.1,46,16,45.51a.75.75,0,0,1,.68-.08C17,45.42,17.26,45.51,17.27,45.79Z"/><path class="cls-4" d="M16.65,43.49a.45.45,0,0,1,.63-.06.26.26,0,0,1,.14.18A.61.61,0,0,1,16.65,43.49Z"/><path class="cls-4" d="M14.34,45.32c.63,0-.18.8-.53.55S14.09,45.15,14.34,45.32Z"/><path class="cls-4" d="M23.27,47.91c.2-.15.36,0,.47.18.42.27.93.9.53,1.06S23.28,48.26,23.27,47.91Z"/><path class="cls-4" d="M24.43,47.08c.54.11.28,1-.23.39C23.88,47.09,24.2,47,24.43,47.08Z"/><path class="cls-4" d="M21.35,48.74a.27.27,0,0,1,.2.24c-.2.15-.74.16-.87-.11S21.17,48.42,21.35,48.74Z"/><path class="cls-4" d="M16.56,47.26l0,0a.52.52,0,0,1,0,.11c0,.06,0,.1,0,.12-.11.29-.73.3-.62-.07S16.41,47.12,16.56,47.26Z"/><path class="cls-4" d="M11,46.47c.37-.5,1.12,0,.65.16C11.37,46.83,10.65,47,11,46.47Z"/><path class="cls-4" d="M24,51.26l-.07-.13a.93.93,0,0,1,.4.63c-.22.06-.85-.36-.84-.65S23.77,51,24,51.26Z"/><path class="cls-4" d="M18.28,49.84a.15.15,0,0,1-.22,0c-.26,0-.74,0-.53-.31S18.2,49.62,18.28,49.84Z"/><path class="cls-4" d="M26.11,49.56a.41.41,0,0,1,0,.22c-.32.11-1.13,0-.86-.51S26,49.19,26.11,49.56Z"/><path class="cls-4" d="M25,48.2h0a.26.26,0,0,1,.33.26A.39.39,0,1,1,25,48.2Z"/><path class="cls-5" d="M23.94,59.52c1.18.86-4.8,5.2-8.68,5a11.44,11.44,0,0,1-9.41-6c-1-2.15-.66-8.23.62-7.81.46.15-.1,2.22,1.78,5.35,1.65,2.74,4.48,5.45,8.21,5.26C21.58,61.12,23.17,59,23.94,59.52Z"/><path class="cls-6" d="M11.12,44.46a.55.55,0,0,1,.49.84c-.32.8-2.27,2.1-2.83,1.88s-.59-.87.23-1.5A4.86,4.86,0,0,1,11.12,44.46Z"/><path class="cls-6" d="M10.11,45.53S7.85,43.19,7.2,42.31a42,42,0,0,1-2.14-4.22s-.2-.3-.47-.25-.2.47-.2.47S6,41.54,6.6,42.43c1.3,1.8,3,3.77,3,3.77Z"/><path class="cls-6" d="M6.17,41.12l3.73-.47.13.22-1.85.3-1.85.31Z"/><path class="cls-6" d="M13.94,45.33c3.85,1,9.55-1.77,9.55-1.77s-3.81-4.43-7.07-4.77-8.93,2.27-8.93,2.27A13.42,13.42,0,0,0,13.94,45.33Z"/><path class="cls-7" d="M11.09,44.7a.82.82,0,0,1,.09.79,4.16,4.16,0,0,1-1.4,1.12l-.1-.71s.3-.2.34-.38a.39.39,0,0,0,0-.27Z"/><path class="cls-7" d="M8.75,41.16a30.51,30.51,0,0,1,6.46.06c3,.43,7.52,1.87,7.46,2.07s-4.94-1.64-7.36-1.8-6.74,0-6.74,0Z"/><path class="cls-7" d="M10.27,41.27a3.28,3.28,0,0,0,.63,1.17A8.7,8.7,0,0,1,12,44.13a9.93,9.93,0,0,1-1.25-1.57c-.36-.53-.82-1.27-.82-1.27Z"/><path class="cls-7" d="M13.27,41.29a5,5,0,0,0,.66,1.92c.66,1.36.92,1.75.76,1.78s-.66-1-1-1.74-.85-2-.85-2Z"/><path class="cls-7" d="M16.18,41.57A3.65,3.65,0,0,0,16.41,43c.3,1,.66,1.57.53,1.64s-.49-.86-.69-1.59-.5-1.62-.5-1.62Z"/><path class="cls-7" d="M19.32,42.31a2.13,2.13,0,0,0,.16.84c.18.51.47,1,.38,1a1.93,1.93,0,0,1-.53-.92l-.28-1Z"/><path class="cls-7" d="M9.91,41.19A4.38,4.38,0,0,1,11,40.1a3.46,3.46,0,0,1,1.46-.59c.08.07-.83.32-1.15.53a12.23,12.23,0,0,0-1.18,1.14Z"/><path class="cls-7" d="M13,41.1a2.88,2.88,0,0,1,.93-1.23,4.57,4.57,0,0,1,2.05-.8c.2.06-1.5.49-1.88.87a4.1,4.1,0,0,0-.69,1.2Z"/><path class="cls-7" d="M15.75,41.42a6.69,6.69,0,0,1,1.39-1.1,6.29,6.29,0,0,1,1.66-.42c.19,0-1.28.33-1.69.62a9.06,9.06,0,0,0-1,1Z"/><path class="cls-7" d="M19.32,42.22s.05-.24.73-.5,1.07-.43.92-.43a4.88,4.88,0,0,0-.91.24,5.46,5.46,0,0,0-1.07.61Z"/><path class="cls-8" d="M8.58,64.8c1.21,4.8,4.31,16.83,6.17,21.38,2.36,5.73,1.26,8.24,9,9,6.68.67,20.45.36,26.27.21,5.82.15,19.6.46,26.28-.21,7.78-.79,6.68-3.3,9-9,1.87-4.55,5.22-18.45,6.42-23.25Z"/><path class="cls-9" d="M94.06,60.58c-.63-2.28-4.19-1.78-5.9-1.7-.58,0-1.17,0-1.75,0-2.93.06-5.85.09-8.77.13-3.31,0-42.61.84-45.88,1L22,60.33c-2.87.1-5.73.2-8.6.28-.57,0-1.15,0-1.72,0-1.68,0-5.2-.33-5.71,1.93A2.32,2.32,0,0,0,7.72,65.4a14.82,14.82,0,0,0,3.39-.1C14.38,65.1,17.67,65,21,65l9.94-.24L41,64.5c1.23,0,7.54-.08,9.09-.11l8.48-.21,10.28-.26L79,63.7c3.34-.08,6.69-.18,10-.12a15.22,15.22,0,0,0,3.44-.06A2.37,2.37,0,0,0,94.06,60.58Z"/><path class="cls-10" d="M13.09,65.15c-.84-.13-1.05-1.36-1.12-2A4.39,4.39,0,0,1,12.43,61a0,0,0,0,0-.07,0,3.25,3.25,0,0,0-.53,2.72,4,4,0,0,0,.17.63A2.62,2.62,0,0,1,12,61a.06.06,0,0,0-.09-.07,2.88,2.88,0,0,0,.52,4.14h.06a.79.79,0,0,0,.6.25C13.19,65.33,13.18,65.16,13.09,65.15Z"/><path class="cls-10" d="M13.22,65a3.39,3.39,0,0,1-.1-4,.06.06,0,0,0-.09-.08,3.08,3.08,0,0,0-.79,2.07,2.88,2.88,0,0,0,.87,2.15C13.18,65.11,13.27,65,13.22,65Z"/><path class="cls-10" d="M23.13,65a5.29,5.29,0,0,1-.8-4.76.06.06,0,1,0-.11-.05c-.69,1.46-.73,4,.77,5A.1.1,0,0,0,23.13,65Z"/><path class="cls-10" d="M24,65a5.25,5.25,0,0,1-.77-4.67s-.06-.08-.08,0a4,4,0,0,0-.39,2.44c0,.15.06.32.09.49-.07-.15-.15-.31-.21-.47a3.71,3.71,0,0,1,.11-2.46.07.07,0,0,0-.12,0c-.63,1.38-.63,3.39.7,4.4l.05,0a1.93,1.93,0,0,0,.45.49C23.9,65.23,24.05,65.1,24,65Z"/><path class="cls-10" d="M36.33,64.51a6.78,6.78,0,0,1-.93-2.28,4.29,4.29,0,0,1,.21-1.95c0-.13.2-.35.17-.51a.07.07,0,0,0-.07-.06c-.52.1-.71,1.65-.7,2.06a3.32,3.32,0,0,0,1.22,2.83C36.28,64.63,36.37,64.58,36.33,64.51Z"/><path class="cls-10" d="M37.38,64.48c-.85-1.33-1.58-3-1-4.6,0-.08-.07-.11-.11-.05-.72,1.3-.48,4,.95,4.8C37.36,64.69,37.43,64.55,37.38,64.48Z"/><path class="cls-10" d="M51,61.4c-.09-.65,0-1.25,0-1.88,0-.09-.11-.09-.14,0a4.27,4.27,0,0,0,.55,4,.07.07,0,0,0,.11-.07A11.35,11.35,0,0,1,51,61.4Z"/><path class="cls-10" d="M50.94,64.28a8.93,8.93,0,0,1-.86-4.71c0-.1-.12-.11-.14,0a6,6,0,0,0,0,2.6,4.9,4.9,0,0,0,.79,2.25A.12.12,0,0,0,50.94,64.28Z"/><path class="cls-10" d="M50.51,64.47a9.68,9.68,0,0,1-.81-2.28,12,12,0,0,1,0-2.54.08.08,0,1,0-.15,0c-.29,1.51-.52,3.85.77,5C50.4,64.73,50.57,64.59,50.51,64.47Z"/><path class="cls-10" d="M59.51,60.57c0-.34.07-1.15-.16-1.41,0,0-.09,0-.09,0a6.74,6.74,0,0,0,.43,3.67c0,.06.13,0,.12,0C59.72,62.07,59.57,61.33,59.51,60.57Z"/><path class="cls-10" d="M60.51,61.52c0-.78.05-1.56,0-2.33a.08.08,0,0,0-.16,0A9.28,9.28,0,0,0,60.65,64c0,.06.11,0,.1,0C60.7,63.18,60.56,62.35,60.51,61.52Z"/><path class="cls-10" d="M59.92,61.32c-.06-.65,0-1.31,0-2,0-.08-.13-.07-.15,0a6.23,6.23,0,0,0,.44,4.15s.1,0,.09,0A13,13,0,0,1,59.92,61.32Z"/><path class="cls-10" d="M68.36,61.46a15.62,15.62,0,0,0,0-2.37c0-.09-.16-.1-.17,0-.13,1.51-.5,3.72.56,5a.12.12,0,0,0,.2-.12A10.29,10.29,0,0,1,68.36,61.46Z"/><path class="cls-10" d="M69.13,61.69c-.07-.84.09-1.65.08-2.48,0-.11-.15-.09-.17,0-.33,1.37-.73,3.79.43,4.91.07.07.22,0,.2-.12A12.93,12.93,0,0,1,69.13,61.69Z"/><path class="cls-10" d="M81.2,61.71c0-.87-.21-2.4-1-2.94a.06.06,0,0,0-.09.07,9.11,9.11,0,0,1,.62,2.62c.08.74-.28,1.53-.17,2.22,0,.07.1.14.17.1C81.33,63.45,81.21,62.28,81.2,61.71Z"/><path class="cls-10" d="M81.25,58.85a.1.1,0,0,0-.18.1,7,7,0,0,1,.38,4.49c0,.07.06.14.11.07A4.14,4.14,0,0,0,81.25,58.85Z"/><path class="cls-10" d="M91.55,60.55a2.78,2.78,0,0,0-.77-2c-.09-.07-.2,0-.14.14.87,1.32.61,3.21.42,4.67a.15.15,0,0,0,.29.08A7.09,7.09,0,0,0,91.55,60.55Z"/><path class="cls-10" d="M90.44,58.58a.09.09,0,0,0-.16.09A12.12,12.12,0,0,1,90.74,60a10.43,10.43,0,0,1,.12,1.48.15.15,0,0,0,.3,0A3.81,3.81,0,0,0,90.44,58.58Z"/><path class="cls-11" d="M94.06,60.58a2,2,0,0,0-.71-1.07A2.09,2.09,0,0,1,92,60.62a15.46,15.46,0,0,1-3.4.05c-3.3-.05-6.61,0-9.91.12l-10,.22-10.15.25-8.37.2c-1.53,0-7.75.09-9,.11l-10,.22-9.8.23c-3.24.08-6.49.14-9.72.34a14.94,14.94,0,0,1-3.34.1,2.05,2.05,0,0,1-1.47-1.13A2,2,0,0,0,6,62.59,2.32,2.32,0,0,0,7.72,65.4a14.82,14.82,0,0,0,3.39-.1C14.38,65.1,17.67,65,21,65l9.94-.24L41,64.5c1.23,0,7.54-.08,9.09-.11l8.48-.21,10.28-.26L79,63.7c3.34-.08,6.69-.18,10-.12a15.22,15.22,0,0,0,3.44-.06A2.37,2.37,0,0,0,94.06,60.58Z"/><path class="cls-11" d="M81.11,62.75,70.24,63l-11,.27-9.11.22c-1.67,0-8.44.1-9.77.12l-10.84.24-10.68.26c-3.52.09-7,.15-10.57.37-.57,0-1.16.11-1.75.15a2,2,0,0,0,1.25.77,14.82,14.82,0,0,0,3.39-.1C14.38,65.1,17.67,65,21,65l9.94-.24L41,64.5c1.23,0,7.54-.08,9.09-.11l8.48-.21,10.28-.26L79,63.7c3.34-.08,6.69-.18,10-.12a15.22,15.22,0,0,0,3.44-.06,2,2,0,0,0,1.22-.82c-.6,0-1.2-.07-1.78-.07C88.3,62.57,84.71,62.67,81.11,62.75Z"/><g class="cls-12"><path class="cls-13" d="M8.77,61.12a3.06,3.06,0,0,0-1.27.14.16.16,0,0,0,0,.32,4.19,4.19,0,0,0,.5,0,6.48,6.48,0,0,0,.77-.09A.17.17,0,0,0,8.77,61.12Z"/><path class="cls-13" d="M10.11,60.94a1.1,1.1,0,0,0-.54,0,.16.16,0,0,0,0,.31,1.1,1.1,0,0,0,.54,0A.16.16,0,0,0,10.11,60.94Z"/><path class="cls-13" d="M21.45,60.73a26.2,26.2,0,0,0-4.06,0,20.78,20.78,0,0,0-3.7.21.06.06,0,0,0,0,.11,18.28,18.28,0,0,0,3.47.07A35.87,35.87,0,0,0,21.44,61,.14.14,0,0,0,21.45,60.73Z"/><path class="cls-13" d="M33.56,60.54a21.18,21.18,0,0,0-4.21.05c-1.69,0-3.36,0-5,.15-.07,0-.07.12,0,.13,1.56.09,3.14.17,4.71.19a21.5,21.5,0,0,0,4.54-.18A.17.17,0,0,0,33.56,60.54Z"/><path class="cls-13" d="M48.84,60a37.69,37.69,0,0,0-5.52.06,32.49,32.49,0,0,0-5.41.3c-.08,0-.09.15,0,.15,1.72,0,3.4.1,5.12,0a46.88,46.88,0,0,0,5.81-.21A.18.18,0,0,0,48.84,60Z"/><path class="cls-13" d="M57.73,59.91a24.87,24.87,0,0,0-2.59,0c-.89,0-1.81.16-2.69.14a.07.07,0,0,0,0,.14,12.16,12.16,0,0,0,2.34.07,22.48,22.48,0,0,0,3,0A.15.15,0,0,0,57.73,59.91Z"/><path class="cls-13" d="M67.39,59.84c-1.85-.34-3.75.06-5.6,0-.07,0-.08.08,0,.1a14.53,14.53,0,0,0,2.8.14,13.89,13.89,0,0,0,2.81,0A.12.12,0,0,0,67.39,59.84Z"/><path class="cls-13" d="M78.09,59.67c-2.74-.3-5.49,0-8.24-.08-.18,0-.22.27,0,.29a23.73,23.73,0,0,0,3.77.13c1.5-.1,3,0,4.51-.15A.1.1,0,0,0,78.09,59.67Z"/><path class="cls-13" d="M80.08,59.62a1.63,1.63,0,0,0-1.15-.13c-.16,0-.18.29,0,.3a4.93,4.93,0,0,0,1.08.09C80.12,59.86,80.2,59.69,80.08,59.62Z"/><path class="cls-13" d="M89,59.18a30.18,30.18,0,0,0-6.23.16s-.05.08,0,.08a32.42,32.42,0,0,0,6.23,0A.11.11,0,0,0,89,59.18Z"/><path class="cls-13" d="M92.8,59.32a1.51,1.51,0,0,0-.93-.19c-.14,0-.13.22,0,.24.29,0,.55.14.84.16C92.82,59.53,92.91,59.39,92.8,59.32Z"/></g><path class="cls-10" d="M14,74.72a21.05,21.05,0,0,1-.83-3.09,23.13,23.13,0,0,1-.09-3c0-.12-.16-.1-.19,0a10.19,10.19,0,0,0,.8,6.22C13.73,75,14,74.91,14,74.72Z"/><path class="cls-10" d="M16.44,75.47a11.68,11.68,0,0,1-1.17-3,21.74,21.74,0,0,1-.18-3.13c0-.16-.27-.16-.29,0-.17,2.21-.18,4.53,1.35,6.32C16.27,75.77,16.53,75.64,16.44,75.47Z"/><path class="cls-10" d="M18.52,74.45a17.92,17.92,0,0,1-.84-2.6,16.78,16.78,0,0,1-.15-3,.14.14,0,0,0-.28,0,8.51,8.51,0,0,0,1,5.77C18.36,74.76,18.58,74.61,18.52,74.45Z"/><path class="cls-10" d="M18.7,89.34a17.89,17.89,0,0,1-1.26-5,.08.08,0,1,0-.15,0,10.77,10.77,0,0,0,1.21,5.07C18.57,89.57,18.76,89.46,18.7,89.34Z"/><path class="cls-10" d="M20.9,88.88a18,18,0,0,1-1-3.11,9.16,9.16,0,0,0-.46-2.34.12.12,0,0,0-.22.06c.16.87.22,1.77.37,2.65A9.71,9.71,0,0,0,20.62,89,.15.15,0,0,0,20.9,88.88Z"/><path class="cls-10" d="M23.3,89.41A17.36,17.36,0,0,1,22,83.9c0-.17-.31-.18-.32,0a11.2,11.2,0,0,0,1.24,5.66C23.06,89.77,23.4,89.64,23.3,89.41Z"/><path class="cls-10" d="M24.79,82.47a10.34,10.34,0,0,1-1.15-2.89,32.81,32.81,0,0,1-.44-3.43c0-.12-.21-.13-.22,0a10.09,10.09,0,0,0,1.53,6.48C24.62,82.78,24.88,82.63,24.79,82.47Z"/><path class="cls-10" d="M26.6,82.81a25.48,25.48,0,0,1-1-3.29c-.2-1-.26-2.1-.44-3.15a.12.12,0,0,0-.24,0c.26,2.3.37,4.41,1.46,6.5A.12.12,0,0,0,26.6,82.81Z"/><path class="cls-10" d="M28.79,81.63a29.18,29.18,0,0,1-1-4.09.11.11,0,0,0-.21,0,9.51,9.51,0,0,0,1,4.21A.15.15,0,0,0,28.79,81.63Z"/><path class="cls-10" d="M29,76.43a22.06,22.06,0,0,1-.67-2.54c-.15-1-.25-2.1-.38-3.14a.13.13,0,0,0-.26,0,15.07,15.07,0,0,0,1,5.73C28.75,76.65,29,76.6,29,76.43Z"/><path class="cls-10" d="M31.59,76.48a15.67,15.67,0,0,1-1.08-3.06A18.84,18.84,0,0,0,30,70.85a.09.09,0,0,0-.18.05c.37,2,.3,4,1.47,5.76A.18.18,0,0,0,31.59,76.48Z"/><path class="cls-10" d="M32.73,70.83a.07.07,0,0,0-.14,0,43.12,43.12,0,0,0,1,5.15c0,.14.28.08.25-.07C33.58,74.24,33.21,72.5,32.73,70.83Z"/><path class="cls-10" d="M43.1,80.25a.1.1,0,0,0-.19,0,11,11,0,0,0,.2,5.13c0,.18.36.1.32-.09A16.54,16.54,0,0,1,43.1,80.25Z"/><path class="cls-10" d="M44.85,80.47c0-.18-.32-.18-.33,0a15.61,15.61,0,0,0,.61,5.81.15.15,0,0,0,.29-.08A44,44,0,0,1,44.85,80.47Z"/><path class="cls-10" d="M48.85,85.54a22,22,0,0,1-1.15-5.68c0-.18-.27-.13-.27,0a12.79,12.79,0,0,0,1.11,5.77A.17.17,0,0,0,48.85,85.54Z"/><path class="cls-10" d="M50.24,74c0-.09-.17-.09-.17,0a26.94,26.94,0,0,0,.33,6.53.14.14,0,0,0,.28,0A64.3,64.3,0,0,1,50.24,74Z"/><path class="cls-10" d="M52.73,73.43c0-.15-.2-.17-.23,0a13.72,13.72,0,0,0-.09,6.34.14.14,0,0,0,.27,0A29.21,29.21,0,0,1,52.73,73.43Z"/><path class="cls-10" d="M55.11,76.33c-.08-1.16,0-2.33,0-3.48,0-.15-.23-.14-.25,0a13.55,13.55,0,0,0,.66,7.25A.15.15,0,0,0,55.8,80,35.76,35.76,0,0,1,55.11,76.33Z"/><path class="cls-10" d="M66.1,81c.1-1.17.39-2.34.56-3.51a.11.11,0,0,0-.22,0c-.58,2.45-1.19,4.82-.57,7.32a.2.2,0,0,0,.39-.05A17.25,17.25,0,0,1,66.1,81Z"/><path class="cls-10" d="M68.5,78.61a.14.14,0,0,0-.28,0A18.06,18.06,0,0,0,68,85.2a.15.15,0,0,0,.3,0A41,41,0,0,1,68.5,78.61Z"/><path class="cls-10" d="M71.46,80.7a26.8,26.8,0,0,0,.14-3.1c0-.13-.21-.1-.21,0,0,1.12-.29,2.26-.36,3.38a13.39,13.39,0,0,0,.15,3.35.16.16,0,0,0,.31,0C71.45,83.11,71.42,81.91,71.46,80.7Z"/><path class="cls-10" d="M81.44,77.91a16.32,16.32,0,0,0-.88,6.61.12.12,0,0,0,.24,0c.08-1.1.07-2.2.21-3.3s.54-2.18.6-3.27C81.61,77.86,81.47,77.81,81.44,77.91Z"/><path class="cls-10" d="M83.59,78.25c-.37,2.37-1,4.69-.74,7.12,0,.21.37.22.38,0a36.28,36.28,0,0,1,.2-3.76c.12-1.11.39-2.21.42-3.33A.13.13,0,0,0,83.59,78.25Z"/><path class="cls-10" d="M72.56,88.54c0-.78.16-1.56.18-2.34a.08.08,0,0,0-.15,0,6.36,6.36,0,0,0-.34,2.34,9.43,9.43,0,0,0,.23,2.75c0,.18.32.15.29,0A14,14,0,0,1,72.56,88.54Z"/><path class="cls-10" d="M74.89,86.39c0-.11-.14-.14-.19,0a8,8,0,0,0-.07,5.07.14.14,0,0,0,.27-.07A12.5,12.5,0,0,1,74.89,86.39Z"/><path class="cls-10" d="M77.39,86.46a.11.11,0,0,0-.22,0,17.2,17.2,0,0,0,.1,4.7.18.18,0,0,0,.35,0C77.44,89.57,77.59,88,77.39,86.46Z"/><path class="cls-10" d="M74.31,73.31c.07-1,.31-1.9.47-2.86a.08.08,0,0,0-.16,0c-.49,2.09-1,4.08-.29,6.2,0,.12.24.06.22-.06A13.75,13.75,0,0,1,74.31,73.31Z"/><path class="cls-10" d="M77.19,73.35c0-.88.18-1.75.18-2.64,0-.13-.23-.13-.23,0-.15,2.12-.67,4.16,0,6.26.05.19.34.1.32-.09A19.76,19.76,0,0,1,77.19,73.35Z"/><path class="cls-10" d="M80.3,70.81c0-.17-.26-.21-.27,0-.11,2.08-.76,4.14-.37,6.24A.15.15,0,0,0,80,77,60.43,60.43,0,0,1,80.3,70.81Z"/><path class="cls-10" d="M31.92,65.75a19.22,19.22,0,0,1-5.35.46c-.09,0-.1.12,0,.14A9.84,9.84,0,0,0,32,66.07C32.18,66,32.11,65.71,31.92,65.75Z"/><path class="cls-10" d="M32.72,67.6c-1.91.38-4.16,1-6.12.51-.07,0-.1.1,0,.13a6.28,6.28,0,0,0,2.66.33,9.64,9.64,0,0,0,3.57-.68C33,67.82,32.89,67.56,32.72,67.6Z"/><path class="cls-10" d="M26.3,70.58a13.61,13.61,0,0,1-5.05.1c-.07,0-.11.1,0,.13a7.29,7.29,0,0,0,5.16.09C26.55,70.82,26.49,70.54,26.3,70.58Z"/><path class="cls-10" d="M26.63,73.09a21.23,21.23,0,0,1-5.1.14c-.09,0-.13.13,0,.15a9.81,9.81,0,0,0,5.24.08C27,73.4,26.84,73.06,26.63,73.09Z"/><path class="cls-10" d="M26.45,75.31a17.74,17.74,0,0,1-4.77-.12c-.09,0-.12.12,0,.15a7.28,7.28,0,0,0,4.89.24C26.69,75.53,26.61,75.3,26.45,75.31Z"/><path class="cls-10" d="M35.28,77a23,23,0,0,1-6.13.73c-.2,0-.25.3,0,.32a14,14,0,0,0,6.27-.7A.18.18,0,0,0,35.28,77Z"/><path class="cls-10" d="M34.73,79.88a18.73,18.73,0,0,1-5.49.24.14.14,0,0,0-.07.26,9.83,9.83,0,0,0,5.66-.13A.19.19,0,0,0,34.73,79.88Z"/><path class="cls-10" d="M34.55,82.58c-1.5.31-3.34,1-4.88.68a.12.12,0,0,0-.06.22c1.48.51,3.62,0,5-.49A.22.22,0,0,0,34.55,82.58Z"/><path class="cls-10" d="M29.4,84.4c-1.88,0-3.76.34-5.64-.08-.07,0-.1.09,0,.12a9.79,9.79,0,0,0,5.67.29C29.56,84.69,29.61,84.4,29.4,84.4Z"/><path class="cls-10" d="M29.9,86.07a21.23,21.23,0,0,1-5.34.2c-.13,0-.15.17,0,.2a12.7,12.7,0,0,0,5.42,0A.21.21,0,0,0,29.9,86.07Z"/><path class="cls-10" d="M29.85,87.87a16,16,0,0,1-5.38.45c-.11,0-.16.16,0,.19a9.09,9.09,0,0,0,5.5-.36C30.08,88.1,30,87.85,29.85,87.87Z"/><path class="cls-10" d="M20.25,76.93c-2,0-4,.48-6,.23-.12,0-.14.16,0,.19a12.8,12.8,0,0,0,6.12-.15C20.49,77.16,20.39,76.93,20.25,76.93Z"/><path class="cls-10" d="M20,79.71c-1.55-.21-3.1-.18-4.65-.32a.1.1,0,0,0,0,.2A31.37,31.37,0,0,0,20,80C20.16,80,20.2,79.73,20,79.71Z"/><path class="cls-10" d="M20.37,82.08a26.63,26.63,0,0,1-4.64.12.13.13,0,0,0,0,.26,9.11,9.11,0,0,0,4.75-.13A.13.13,0,0,0,20.37,82.08Z"/><path class="cls-10" d="M47.74,75.26c-2.16.07-4.27.15-6.43,0a.08.08,0,0,0,0,.16,17.43,17.43,0,0,0,6.48,0A.13.13,0,0,0,47.74,75.26Z"/><path class="cls-10" d="M49,77.45c-1.38,0-2.76.18-4.15.23a33.56,33.56,0,0,1-3.87-.2.09.09,0,0,0,0,.18,22.39,22.39,0,0,0,8.08.08A.15.15,0,0,0,49,77.45Z"/><path class="cls-10" d="M48.2,79.36a39,39,0,0,1-7.4.14.08.08,0,0,0,0,.16,13.44,13.44,0,0,0,3.23.21,23.84,23.84,0,0,0,4.22-.31A.1.1,0,0,0,48.2,79.36Z"/><path class="cls-10" d="M55,68.18c-1,0-1.89.1-2.85.08s-1.81-.16-2.69-.26a.06.06,0,0,0,0,.12,13.08,13.08,0,0,0,5.56.36C55.11,68.44,55.13,68.18,55,68.18Z"/><path class="cls-10" d="M54.82,69.79a21.65,21.65,0,0,1-5.63-.21c-.08,0-.12.12,0,.16a11.13,11.13,0,0,0,5.7.28A.12.12,0,0,0,54.82,69.79Z"/><path class="cls-10" d="M55.3,71.26a19.61,19.61,0,0,1-7.44.26c-.09,0-.1.1,0,.12a14.09,14.09,0,0,0,7.54-.09C55.54,71.5,55.46,71.23,55.3,71.26Z"/><path class="cls-10" d="M72.87,71.5a21.92,21.92,0,0,1-4,.16,25.57,25.57,0,0,1-3.48-.6.1.1,0,0,0-.06.19,12.78,12.78,0,0,0,7.56.57A.16.16,0,0,0,72.87,71.5Z"/><path class="cls-10" d="M72.09,73.83A20.54,20.54,0,0,1,66,73.57c-.1,0-.14.15,0,.18a11.27,11.27,0,0,0,6.14.42A.17.17,0,0,0,72.09,73.83Z"/><path class="cls-10" d="M73.16,75.89a15.33,15.33,0,0,1-7.67.36c-.18,0-.2.23,0,.27a12.2,12.2,0,0,0,7.85-.31C73.5,76.12,73.37,75.83,73.16,75.89Z"/><path class="cls-10" d="M87.5,70.63a38.5,38.5,0,0,1-5.26-.21c-.12,0-.14.16,0,.19A19.06,19.06,0,0,0,87.5,71C87.7,71,87.7,70.63,87.5,70.63Z"/><path class="cls-10" d="M86.34,72.72a14.52,14.52,0,0,1-4,.07.11.11,0,0,0,0,.22,9.9,9.9,0,0,0,4,0A.16.16,0,0,0,86.34,72.72Z"/><path class="cls-10" d="M85.86,75.46a10.55,10.55,0,0,1-4.43.33c-.11,0-.16.15-.05.19a6.3,6.3,0,0,0,4.56-.21C86.1,75.7,86,75.43,85.86,75.46Z"/><path class="cls-10" d="M79.05,77.92a23.7,23.7,0,0,1-5.19,0c-.1,0-.15.15,0,.18a9.16,9.16,0,0,0,2.45.26,15.73,15.73,0,0,0,2.83-.1A.18.18,0,0,0,79.05,77.92Z"/><path class="cls-10" d="M78.58,81a31.44,31.44,0,0,1-5.57-.5c-.15,0-.21.21-.07.25a17,17,0,0,0,5.64.6C78.78,81.38,78.78,81,78.58,81Z"/><path class="cls-10" d="M78.43,84.13A16.85,16.85,0,0,1,73,83.75a.13.13,0,0,0-.07.25,11.67,11.67,0,0,0,5.56.49A.18.18,0,0,0,78.43,84.13Z"/><g class="cls-14"><path class="cls-8" d="M54.67,68.63c.25,0,.5.37.24.58a3.7,3.7,0,0,1-2.15.49,7.84,7.84,0,0,1-2.84-.46.3.3,0,0,1-.14-.1c-.34-.13-.16-.69.24-.63a16.43,16.43,0,0,0,2.8.22A14.34,14.34,0,0,1,54.67,68.63Z"/><path class="cls-8" d="M52.08,80.09a.31.31,0,0,1-.13.36.33.33,0,0,1-.6.06,8,8,0,0,1-.8-4.15c0-.69,0-2.18.77-2.49a.37.37,0,0,1,.33.09c.38.33.26,1.1.2,1.54A10.77,10.77,0,0,0,52.08,80.09Z"/><path class="cls-8" d="M50.14,71.42c-.53,0-1.42-.34-1.58-.93-.21-.23.1-.67.44-.5,1.61.78,3.64.57,5.36.42.39,0,.45.56.09.66A12.77,12.77,0,0,1,50.14,71.42Z"/><path class="cls-8" d="M53.72,73.52a.34.34,0,0,1,.56.15,3,3,0,0,1-.18,1.86,7.78,7.78,0,0,0,0,2.68c.14.65.41,1.22.57,1.85a.34.34,0,0,1-.5.38c-1.06-.47-1.37-2.09-1.4-3.12S52.8,74.33,53.72,73.52Z"/><path class="cls-8" d="M32.4,72.68c.06.7.13,1.39.24,2.09a1.89,1.89,0,0,1-.06,1,.34.34,0,0,1-.49.2c-1-.64-1.11-2.35-1.15-3.49s0-2,.68-1.88S32.35,72.15,32.4,72.68Z"/><path class="cls-8" d="M33.67,79.57a9.37,9.37,0,0,1-4-.17.34.34,0,0,1-.18-.1.62.62,0,0,1-.14-.14.43.43,0,0,1,.12-.54.1.1,0,0,1,.05,0,.27.27,0,0,1,.28-.16,16.08,16.08,0,0,0,2.86-.14c.84-.09,1.58-.38,2.39-.5a.35.35,0,0,1,.43.32C35.56,79,34.4,79.41,33.67,79.57Z"/><path class="cls-8" d="M35,81.09c-.72,2-4.05,1.7-5.34.57a.33.33,0,0,1,.05-.51.31.31,0,0,1,.4-.27,6.55,6.55,0,0,0,2.82.14c.45-.06,1.48-.59,1.91-.31A.34.34,0,0,1,35,81.09Z"/><path class="cls-8" d="M28.49,73.08c0-.66-.2-1.63.33-2.13a.33.33,0,0,1,.41,0c.57.38.4,1.47.46,2,.1.92.64,1.92.48,2.83a.29.29,0,0,1-.28.24.26.26,0,0,1-.36-.07A5.05,5.05,0,0,1,28.49,73.08Z"/><path class="cls-8" d="M27,66.64a9.4,9.4,0,0,0,2.85.21,9.42,9.42,0,0,1,1.83-.11.34.34,0,0,1,.15.56,4.48,4.48,0,0,1-3.22.71,3,3,0,0,1-1.93-.74.32.32,0,0,1-.06-.15A.33.33,0,0,1,27,66.64Z"/><path class="cls-8" d="M27.51,82.27c-1.54.42-1.77-4.42-1.68-5.12a.35.35,0,0,1,.33-.31.32.32,0,0,1,.51-.06,1.31,1.31,0,0,1,.39.91,13.79,13.79,0,0,0,.46,2.47C27.66,80.58,28.32,82.05,27.51,82.27Z"/><path class="cls-8" d="M26.74,74.39a1.51,1.51,0,0,1-1,.7,4.25,4.25,0,0,1-4.12-.7.32.32,0,0,1,.16-.55.27.27,0,0,1,.28-.06,11.39,11.39,0,0,0,4.43.11C26.71,73.85,26.85,74.19,26.74,74.39Z"/><path class="cls-8" d="M26.2,72.23a4.92,4.92,0,0,1-4.56.46c-.29-.15-.77-.6-.3-.88h0a.37.37,0,0,1,.42-.33,27.67,27.67,0,0,0,4.27.14A.33.33,0,0,1,26.2,72.23Z"/><path class="cls-8" d="M20.38,77.77a.34.34,0,0,1,.34.33c.1,1.3-2.17,1.18-2.94,1.14-.6,0-2.51,0-2.83-.77a.34.34,0,0,1,.28-.6C17,78.28,18.66,77.76,20.38,77.77Z"/><path class="cls-8" d="M15.48,69.84a.18.18,0,0,1,.06-.09,1.17,1.17,0,0,1,.15-.27.68.68,0,0,1,.43-.31.25.25,0,0,1,.39.11,3.27,3.27,0,0,1,.14,1.21A18.43,18.43,0,0,0,17,72.57c.09.36.5,1.38.12,1.7s-.62.13-.88-.18A4.53,4.53,0,0,1,15.48,69.84Z"/><path class="cls-8" d="M13.92,74.09c-.36-.34-.42-1.18-.5-1.64a7.28,7.28,0,0,1,0-2.55.14.14,0,0,1,0-.06.91.91,0,0,1,.44-.71c.73-.38.71,2.88.72,3.12S14.82,75,13.92,74.09Z"/><path class="cls-8" d="M19.87,89a.34.34,0,0,1-.57.24c-.92-.93-1.12-2.43-1.31-3.74,0-.17-.06-.35-.08-.53,0,0,0,0,0-.08v-.06c0-.51.1-.92.57-.92.74,0,.69,1.25.76,1.7A15.46,15.46,0,0,1,19.87,89Z"/><path class="cls-8" d="M19.91,81.48c-1.24.79-5,.7-5.6-.94a.31.31,0,0,1,.14-.36c0-.22.13-.47.4-.36,1.55.61,3.16.26,4.76.49C20.28,80.4,20.58,81.06,19.91,81.48Z"/><path class="cls-8" d="M21.35,88.82a6.64,6.64,0,0,1-1.2-4.17,2.93,2.93,0,0,1,.11-.9c.11-.39.45-.89.93-.61s.3,1,.3,1.51a10,10,0,0,0,.18,2.62,5.41,5.41,0,0,1,.25,1.31A.34.34,0,0,1,21.35,88.82Z"/><path class="cls-8" d="M23.83,77.06a.49.49,0,0,1,.69-.13,2.63,2.63,0,0,1,.31,1.47c.07,1,.39,2,.51,2.95.05.34-.47.44-.62.17A7.11,7.11,0,0,1,23.83,77.06Z"/><path class="cls-8" d="M24.52,84.83c1.23.62,2.7.16,4,.31.23,0,.45.27.29.51-.49.7-1.44.54-2.2.54s-1.95,0-2.48-.76a.26.26,0,0,1,0-.08C23.86,85.12,24.17,84.66,24.52,84.83Z"/><path class="cls-8" d="M24.07,87.14a.34.34,0,0,1,.42-.41l.19.07a.33.33,0,0,1,.22,0,21,21,0,0,0,3.8.3.34.34,0,0,1,.24.57c-.69.7-2.07.54-3,.48S24.38,88,24.07,87.14Z"/><path class="cls-8" d="M70.38,84c0,.34.06.91-.44.91s-.85-.79-1-1.14a5.67,5.67,0,0,1-.29-3.16,7.19,7.19,0,0,1,.43-1.76c.17-.44.51-1.36,1.14-1.29a.49.49,0,0,1,.38.34,2.24,2.24,0,0,1,.13.92l-.09.54c-.08.54-.15,1.09-.21,1.63a13.57,13.57,0,0,0-.09,1.91C70.32,83.3,70.35,83.67,70.38,84Z"/><path class="cls-8" d="M69.15,76.25c-1.08,0-3.5,0-3.7-1.49a.36.36,0,0,1,.12-.34.31.31,0,0,1,.41-.28,10.34,10.34,0,0,0,3.66.65,11.11,11.11,0,0,1,2.21-.18.32.32,0,0,1,.24.32C72,76.29,70.1,76.25,69.15,76.25Z"/><path class="cls-8" d="M67.48,83.62l.06,1a.34.34,0,0,1-.58.24,4.6,4.6,0,0,1-.58-3.61c.15-.86.16-2.5.89-3.11a.34.34,0,0,1,.57.24,11.7,11.7,0,0,1-.28,1.84,2.83,2.83,0,0,0,0,.29c0,.47-.1.94-.11,1.4A16.66,16.66,0,0,0,67.48,83.62Z"/><path class="cls-8" d="M69.36,73.65c-1.13-.05-2.57-.14-3.35-1.1a.27.27,0,0,1-.07-.14c-.18-.23,0-.65.33-.53a10.18,10.18,0,0,0,3.37.6,23.73,23.73,0,0,0,2.67-.32c.27,0,.39.3.29.5C72,73.77,70.42,73.71,69.36,73.65Z"/><path class="cls-8" d="M73.7,91.55a3.63,3.63,0,0,1-1-3.15c.07-.77.11-2.15.87-2.6a.35.35,0,0,1,.5.2,3.11,3.11,0,0,1,0,.61.32.32,0,0,1,.08.29A6.72,6.72,0,0,0,74,89.54a6.6,6.6,0,0,1,.23,1.72C74.2,91.49,73.92,91.72,73.7,91.55Z"/><path class="cls-8" d="M76.7,89.84a4.75,4.75,0,0,1,0,1.19c-.09.31-.33.67-.71.48C75,91,74.81,88.64,74.92,87.68a3.23,3.23,0,0,1,.88-2.2.51.51,0,0,1,.79.11A3.13,3.13,0,0,1,76.82,87a.31.31,0,0,1,0,.19A14.46,14.46,0,0,0,76.7,89.84Z"/><path class="cls-8" d="M77.19,83.52a6.42,6.42,0,0,1-3.31-.47c-1-.26-1.79-.72-1.18-1.43a.33.33,0,0,1,.33-.08l.43.15a10.63,10.63,0,0,0,2.65.23,15.68,15.68,0,0,1,2.65,0,.33.33,0,0,1,.24.23C79.17,83,77.83,83.38,77.19,83.52Z"/><path class="cls-8" d="M77.23,80.57a6.73,6.73,0,0,1-4-1.16.27.27,0,0,1-.09-.3.33.33,0,0,1,.38-.48,13.47,13.47,0,0,0,3.3.27c.86,0,1.77-.11,2.61,0a.34.34,0,0,1,.24.33C79.68,80.27,78,80.59,77.23,80.57Z"/><path class="cls-8" d="M76.5,75.31c.09.42.12,1.13-.41,1.28-1.23.34-1.48-2.73-1.48-3.33s.32-3.8,1.61-3.05a.73.73,0,0,1,.36.62.28.28,0,0,1,.13.36A7.79,7.79,0,0,0,76.5,75.31Z"/><path class="cls-8" d="M79.08,75.49c0,.37.15.79-.12,1.1a.32.32,0,0,1-.4,0c-.78-.4-.92-1.57-1-2.34a7.25,7.25,0,0,1,.45-3.67.49.49,0,0,1,.56-.27.35.35,0,0,1,.37,0c.63.25.41,1.53.19,2.45A12.3,12.3,0,0,0,79.08,75.49Z"/><path class="cls-8" d="M82.89,78.35a27.24,27.24,0,0,0-.31,4.78c0,.53,0,1.61-.64,1.79a.33.33,0,0,1-.33-.08,4.77,4.77,0,0,1-.48-3A14.53,14.53,0,0,1,82,78.32a.5.5,0,0,1,.88,0Z"/><path class="cls-8" d="M87.72,73.63c-.94,1.87-5.32,2.48-6.37.41l0-.1s0,0,0,0a.34.34,0,0,1,0-.1v0a.51.51,0,0,1,.44-.55h.09a.67.67,0,0,1,.39.08,9.16,9.16,0,0,0,5.16-.17C87.64,73,87.84,73.38,87.72,73.63Z"/><path class="cls-8" d="M82,71.27a.33.33,0,0,1,.41-.31,18.44,18.44,0,0,0,4.92.23.34.34,0,0,1,.24.57,4.89,4.89,0,0,1-5.57,0A.31.31,0,0,1,82,71.27Z"/><path class="cls-8" d="M47.88,85.7c.12.4-.16,1-.66.85-1.84-.5-2.2-3.38-2.06-4.93.06-.59.17-1.39.8-1.65.43-.18,1-.17,1.15.38a3.61,3.61,0,0,1,0,1.6A9.58,9.58,0,0,0,47.88,85.7Z"/><path class="cls-8" d="M43.72,79.23A4.43,4.43,0,0,1,41,78.55a.29.29,0,0,1-.09-.28c-.09-.23.08-.55.38-.44,2.23.8,4.41.28,6.7.3a.34.34,0,0,1,.09.66A12.73,12.73,0,0,1,43.72,79.23Z"/><path class="cls-8" d="M44.29,81.59a14.34,14.34,0,0,0,.34,4c0,.29-.32.63-.56.33a4.7,4.7,0,0,1-.81-2.64,6,6,0,0,1,.13-2.6.46.46,0,0,1,.87,0,1.36,1.36,0,0,1,0,.8A.33.33,0,0,1,44.29,81.59Z"/><path class="cls-8" d="M41.35,76h0a.35.35,0,0,1,.18,0,33.46,33.46,0,0,0,6.25,0,.34.34,0,0,1,.33.34c0,1.09-1.8,1-2.53,1-1.56.06-3.23.38-4.51-.74A.34.34,0,0,1,41.35,76Z"/></g><g class="cls-15"><path class="cls-8" d="M8.68,64.8c1.2,4.8,4.3,16.83,6.17,21.38,2.36,5.73,1.26,8.24,9,9,6.69.67,20.46.36,26.28.21,5.82.15,19.59.46,26.28-.21,7.77-.79,6.68-3.3,9-9,1.87-4.55,5.21-18.45,6.42-23.25ZM82.82,85.86a8.4,8.4,0,0,1-1.4,1.32c-2.73,2-6.42,2.64-9.81,2.91-1.94.15-3.88.17-5.83.19-6.83.09-13.64.66-20.47.76q-4.81.08-9.65,0c-5-.1-10.53.42-15.18-1.76a13,13,0,0,1-6.08-6.78c-1.82-4.08-5.55-14.44,3-14,2.4.13,4.76.16,7.16.18,7.4.06,14.79.26,22.19.11q3.21-.06,6.42-.22c7.56-.39,18.54-1.08,26.11-1.29,2.26-.06,5.1-.49,7.22.41C90.8,69.54,84.41,84,82.82,85.86Z"/></g><path class="cls-16" d="M36.3,70.28c-3.27,0-6.54,0-9.8,0-2.39,0-5.48-.48-7.74.31-2.89,1-1.16,4.5-.34,6.15a9.62,9.62,0,0,0,3.95,3.92C27,83.33,33.26,84,38.84,84.26c4.59.21,9.19.12,13.78-.11,6.07-.29,12.34-.2,18.27-1.44a19.33,19.33,0,0,0,13-9.37c.59-1.12,2-3.35.17-4.18-2-.91-24.41.86-33.06,1Q43.63,70.21,36.3,70.28Z"/><g class="cls-17"><path class="cls-8" d="M83.28,90c-5.26,3.84-23,3.14-26.1,3.21-6.29.14-12.58.17-18.87.14-3.17,0-15-.67-17.66-1.21a9.05,9.05,0,0,1-4.57-2.19c1,3.14,1.9,4.69,7.71,5.28,6.68.67,20.45.36,26.27.21,5.82.15,19.6.46,26.28-.21,6.34-.64,6.78-2.43,8-6.17A8.59,8.59,0,0,1,83.28,90Z"/><path class="cls-8" d="M15.44,65.64c4.4-.39,8.86-.11,13.27-.13,6.34,0,12.68-.29,19-.32s12.75.11,19.12,0,12.58-.74,18.83-.41c1.29.06,3.83,0,4.68,1.26a2.34,2.34,0,0,1,.36,1.19l1.06-4.27L8.58,64.8l.65,2.55a5,5,0,0,1,1.47-.71A14.29,14.29,0,0,1,15.44,65.64Z"/></g><path class="cls-13" d="M36,89.66a2.32,2.32,0,0,1-1.73-.6,2.27,2.27,0,0,1-.59-1.65,2.23,2.23,0,0,1,.59-1.66A2.39,2.39,0,0,1,36,85.18h2.65V72.85h2.55l-4.36,2.7a2.12,2.12,0,0,1-1.47.38,1.91,1.91,0,0,1-1.16-.59,2.47,2.47,0,0,1-.63-1.17,2.33,2.33,0,0,1,.1-1.4,2.27,2.27,0,0,1,1.08-1.16L39,69a5.19,5.19,0,0,1,1.34-.65,4.82,4.82,0,0,1,1.48-.23,2.48,2.48,0,0,1,1.79.61,2.19,2.19,0,0,1,.65,1.71V85.18h2.38a2.34,2.34,0,0,1,1.7.57,2.22,2.22,0,0,1,.58,1.66,2.26,2.26,0,0,1-.58,1.67,2.31,2.31,0,0,1-1.7.58Z"/><path class="cls-13" d="M59.19,90a8.45,8.45,0,0,1-4.72-1.28,8.08,8.08,0,0,1-3-3.67,14.77,14.77,0,0,1-1-5.79,15.62,15.62,0,0,1,.66-4.73A9.66,9.66,0,0,1,53.06,71a8.24,8.24,0,0,1,3-2.19,10.92,10.92,0,0,1,6.63-.44,9.33,9.33,0,0,1,2.38,1,1.83,1.83,0,0,1,1,.93,2.6,2.6,0,0,1,.22,1.32,2.25,2.25,0,0,1-.45,1.21,2,2,0,0,1-1,.7,2.33,2.33,0,0,1-1.51-.13,7.57,7.57,0,0,0-1.66-.59,7.23,7.23,0,0,0-1.5-.16,4.75,4.75,0,0,0-2.5.61,3.69,3.69,0,0,0-1.52,1.88,8.57,8.57,0,0,0-.5,3.1v1.63h-.48a5.52,5.52,0,0,1,1-2.23A4.8,4.8,0,0,1,58,76.22a5.57,5.57,0,0,1,2.39-.51,5.69,5.69,0,0,1,3.16.9,6.42,6.42,0,0,1,2.19,2.45,8.25,8.25,0,0,1-.12,7.37A6.82,6.82,0,0,1,63,89.06,7.45,7.45,0,0,1,59.19,90Zm-.3-4.25a2.69,2.69,0,0,0,1.39-.36,2.24,2.24,0,0,0,.9-1,4.1,4.1,0,0,0,0-3.08,2.31,2.31,0,0,0-.9-1,2.6,2.6,0,0,0-1.39-.37,2.4,2.4,0,0,0-2.24,1.4,4,4,0,0,0,0,3.08,2.36,2.36,0,0,0,.9,1A2.51,2.51,0,0,0,58.89,85.78Z"/></g></g></svg>