<svg xmlns="http://www.w3.org/2000/svg" viewBox="0 0 105.29 104.84"><defs><style>.cls-1{isolation:isolate;}.cls-2{fill:#ed7d03;}.cls-3{fill:#ff8c03;}.cls-4{fill:#fcbc08;}.cls-5{fill:#f28106;opacity:0.7;}.cls-6{fill:#7c6a13;}.cls-7{fill:#937b18;}.cls-8{fill:#b86313;}.cls-11,.cls-9{fill:#cc7917;}.cls-10{fill:#9e4727;}.cls-11,.cls-12,.cls-17{opacity:0.5;}.cls-11,.cls-15,.cls-17{mix-blend-mode:multiply;}.cls-13,.cls-16{fill:#fff;}.cls-14,.cls-15{opacity:0.3;}.cls-14{mix-blend-mode:screen;}.cls-16{opacity:0.1;}</style></defs><title>orange18</title><g class="cls-1"><g id="Layer_1" data-name="Layer 1"><path class="cls-2" d="M79.92,45.26c-4.73-1.6-9.71-5.65-10.85-10.74H24.84V64.73H82.15V45.87A19.36,19.36,0,0,1,79.92,45.26Z"/><path class="cls-3" d="M67.37,11.35c3,2.2,6.91,9.14,2.29,14.85S58.29,32.26,53.2,28.9a11.48,11.48,0,0,1-1.43-18.13C56.92,5.87,62.87,8,67.37,11.35Z"/><path class="cls-4" d="M54.88,10.54h0Z"/><path class="cls-4" d="M55.58,11.26c.35-.17.74-.53.41-.85s-.78.05-1.09.12C54.46,10.93,54.64,11.71,55.58,11.26Z"/><path class="cls-4" d="M54.9,10.53l.53-.21A.88.88,0,0,0,54.9,10.53Z"/><path class="cls-4" d="M53.94,12.06c.14-.09.31-.29.14-.44s-.25,0-.33.08a.41.41,0,0,0-.22.28C53.5,12.28,53.81,12.16,53.94,12.06Z"/><path class="cls-4" d="M56.23,11.88a.35.35,0,0,0-.33,0c-.16,0-.35.09-.38.21a.28.28,0,0,0,0,.08s0,0,0,0l0,0c0,.14.39,0,.51,0S56.5,12,56.23,11.88Z"/><path class="cls-4" d="M55.47,12.22h0Z"/><path class="cls-4" d="M57,11.1c-.15,0-.32.21-.23.36s.44.09.56,0C57.8,11.2,57.15,11,57,11.1Z"/><path class="cls-4" d="M57.59,10.17c-.1,0-.29-.06-.37,0a.14.14,0,0,0,0,.18c0,.1.17.2.25.23s.91.33,1,.07S57.78,10.2,57.59,10.17Z"/><path class="cls-4" d="M56.76,9.66c.16.08.71.06.77-.17s-.3-.27-.45-.25a.52.52,0,0,0-.24.13C56.69,9.44,56.58,9.56,56.76,9.66Z"/><path class="cls-4" d="M54,11c.29-.22,0-.34-.22-.29h0c-.13,0-.46.15-.37.33S53.93,11.06,54,11Z"/><path class="cls-4" d="M52.82,12.36c.11-.12.44-.67.06-.69a.28.28,0,0,0-.19.1,1.08,1.08,0,0,0-.39.53C52.15,12.81,52.63,12.58,52.82,12.36Z"/><path class="cls-4" d="M54.87,12.51a.75.75,0,0,0-.5.05,1,1,0,0,0-.67.51c-.12.52.79.15,1,.08S55.3,12.67,54.87,12.51Z"/><path class="cls-4" d="M56.4,12.92c-.15.05-.3.17-.3.29s.52.18.67.11C57.33,13.06,56.6,12.81,56.4,12.92Z"/><path class="cls-4" d="M60,10a.27.27,0,0,0-.25.1.69.69,0,0,0,1.05,0A.58.58,0,0,0,60,10Z"/><path class="cls-4" d="M58.51,11.38c.31.11,1.16.17,1.23-.27a.7.7,0,0,0-.68-.08C58.79,11,58.51,11.1,58.51,11.38Z"/><path class="cls-4" d="M59.12,9.08A.44.44,0,0,0,58.5,9a.3.3,0,0,0-.15.18A.59.59,0,0,0,59.12,9.08Z"/><path class="cls-4" d="M61.43,10.91c-.62,0,.18.81.53.55S61.68,10.75,61.43,10.91Z"/><path class="cls-4" d="M52.5,13.5c-.19-.15-.36,0-.47.18-.42.27-.92.91-.52,1.06S52.49,13.85,52.5,13.5Z"/><path class="cls-4" d="M51.35,12.68c-.54.1-.29,1,.23.39C51.9,12.69,51.57,12.56,51.35,12.68Z"/><path class="cls-4" d="M54.42,14.33a.3.3,0,0,0-.2.25c.2.14.74.16.88-.11S54.6,14,54.42,14.33Z"/><path class="cls-4" d="M59.21,12.85l0,0a.43.43,0,0,0,0,.11c0,.05,0,.1,0,.11.11.3.73.31.61-.06S59.36,12.71,59.21,12.85Z"/><path class="cls-4" d="M64.77,12.07c-.36-.5-1.12,0-.65.16C64.4,12.43,65.13,12.56,64.77,12.07Z"/><path class="cls-4" d="M51.82,16.86l.08-.14a.92.92,0,0,0-.4.64c.21.05.85-.37.83-.65C52.3,16.28,52,16.59,51.82,16.86Z"/><path class="cls-4" d="M57.5,15.44a.16.16,0,0,0,.21.05c.26,0,.74,0,.54-.32S57.57,15.22,57.5,15.44Z"/><path class="cls-4" d="M49.66,15.16a.4.4,0,0,0,0,.22c.32.11,1.13,0,.86-.51S49.75,14.78,49.66,15.16Z"/><path class="cls-4" d="M50.78,13.8h0a.27.27,0,0,0-.33.26.4.4,0,0,0,.56-.21A.34.34,0,0,0,50.78,13.8Z"/><path class="cls-5" d="M51.83,25.12c-1.18.86,4.8,5.19,8.69,5a11.45,11.45,0,0,0,9.4-6c1-2.14.67-8.23-.62-7.8-.46.15.11,2.21-1.78,5.34-1.65,2.75-4.47,5.45-8.21,5.27C54.19,26.71,52.61,24.55,51.83,25.12Z"/><path class="cls-6" d="M64.65,10.06a.54.54,0,0,0-.49.83c.33.8,2.28,2.1,2.84,1.88s.58-.87-.24-1.49A4.57,4.57,0,0,0,64.65,10.06Z"/><path class="cls-6" d="M65.66,11.13s2.26-2.34,2.91-3.22a41.89,41.89,0,0,0,2.14-4.23s.2-.3.48-.24.19.46.19.46S69.81,7.13,69.17,8c-1.3,1.81-3,3.77-3,3.77Z"/><path class="cls-6" d="M69.61,6.72c-.14,0-3.73-.47-3.73-.47l-.14.21,1.85.31,1.85.3Z"/><path class="cls-6" d="M61.83,10.92c-3.85,1-9.54-1.76-9.54-1.76s3.8-4.44,7.06-4.77,8.93,2.27,8.93,2.27A13.44,13.44,0,0,1,61.83,10.92Z"/><path class="cls-7" d="M64.68,10.29a.8.8,0,0,0-.08.79A4,4,0,0,0,66,12.2l.09-.7s-.3-.21-.33-.39a.41.41,0,0,1,0-.27Z"/><path class="cls-7" d="M67,6.75a30.48,30.48,0,0,0-6.46.06c-3,.44-7.52,1.87-7.46,2.07s4.95-1.64,7.36-1.8,6.74,0,6.74,0Z"/><path class="cls-7" d="M65.51,6.86A3.61,3.61,0,0,1,64.88,8a8.25,8.25,0,0,0-1.09,1.68,10.76,10.76,0,0,0,1.26-1.56c.35-.53.81-1.27.81-1.27Z"/><path class="cls-7" d="M62.51,6.89a5.29,5.29,0,0,1-.66,1.91c-.67,1.36-.93,1.76-.77,1.79s.66-1,1-1.75.85-2,.85-2Z"/><path class="cls-7" d="M59.59,7.16a3.63,3.63,0,0,1-.23,1.42c-.29,1-.66,1.57-.52,1.64s.48-.86.68-1.59S60,7,60,7Z"/><path class="cls-7" d="M56.46,7.9a2.36,2.36,0,0,1-.16.84c-.19.52-.48,1-.39,1a1.75,1.75,0,0,0,.53-.91c.14-.47.28-1,.28-1Z"/><path class="cls-7" d="M65.86,6.78A4.25,4.25,0,0,0,64.73,5.7a3.53,3.53,0,0,0-1.46-.6c-.08.07.83.33,1.15.54a12.62,12.62,0,0,1,1.19,1.14Z"/><path class="cls-7" d="M62.78,6.69a2.85,2.85,0,0,0-.92-1.22,4.44,4.44,0,0,0-2.06-.8c-.19.06,1.5.49,1.88.86a4.36,4.36,0,0,1,.7,1.21Z"/><path class="cls-7" d="M60,7a6.6,6.6,0,0,0-1.38-1.09A5.66,5.66,0,0,0,57,5.5c-.2,0,1.27.32,1.68.61a8.4,8.4,0,0,1,1.05,1Z"/><path class="cls-7" d="M56.45,7.82s-.05-.25-.73-.5-1.06-.43-.92-.43a4.57,4.57,0,0,1,.91.23,6.29,6.29,0,0,1,1.08.61Z"/><path class="cls-3" d="M47.62,12.47c3,2.19,6.92,9.13,2.3,14.85s-11.38,6-16.47,2.69A11.47,11.47,0,0,1,32,11.88C37.17,7,43.12,9.15,47.62,12.47Z"/><path class="cls-4" d="M35.14,11.65h0Z"/><path class="cls-4" d="M35.83,12.37c.35-.17.74-.53.41-.85s-.78.05-1.09.13C34.72,12,34.9,12.83,35.83,12.37Z"/><path class="cls-4" d="M35.15,11.64l.54-.2A.88.88,0,0,0,35.15,11.64Z"/><path class="cls-4" d="M34.2,13.17c.13-.09.31-.29.13-.43a.22.22,0,0,0-.33.07.44.44,0,0,0-.22.29C33.75,13.39,34.06,13.27,34.2,13.17Z"/><path class="cls-4" d="M36.48,13a.33.33,0,0,0-.33,0c-.15,0-.35.08-.38.21a.25.25,0,0,0,0,.08l0,0,0,0c.05.15.39,0,.51,0S36.75,13.14,36.48,13Z"/><path class="cls-4" d="M35.72,13.33h0Z"/><path class="cls-4" d="M37.22,12.21c-.15,0-.32.21-.24.36s.44.09.57,0C38.05,12.31,37.4,12.1,37.22,12.21Z"/><path class="cls-4" d="M37.84,11.29c-.1,0-.29-.07-.37,0a.14.14,0,0,0,0,.17c0,.11.18.2.25.24s.91.32,1,.06S38,11.31,37.84,11.29Z"/><path class="cls-4" d="M37,10.77c.16.08.72.06.77-.17s-.3-.27-.45-.25a.61.61,0,0,0-.24.14C36.94,10.56,36.83,10.67,37,10.77Z"/><path class="cls-4" d="M34.3,12.09c.29-.21,0-.34-.23-.29h0c-.13,0-.46.15-.37.33S34.18,12.17,34.3,12.09Z"/><path class="cls-4" d="M33.08,13.47c.11-.12.44-.67.06-.69a.3.3,0,0,0-.2.1,1.17,1.17,0,0,0-.39.54C32.41,13.92,32.89,13.69,33.08,13.47Z"/><path class="cls-4" d="M35.13,13.63a.77.77,0,0,0-.51,0c-.28.08-.61.3-.66.51-.13.52.78.15,1,.08S35.55,13.79,35.13,13.63Z"/><path class="cls-4" d="M36.65,14c-.14,0-.3.17-.3.28,0,.26.53.18.67.11C37.58,14.17,36.85,13.92,36.65,14Z"/><path class="cls-4" d="M40.24,11.15a.26.26,0,0,0-.25.11.68.68,0,0,0,1,0A.58.58,0,0,0,40.24,11.15Z"/><path class="cls-4" d="M38.76,12.5c.31.1,1.16.16,1.23-.28a.75.75,0,0,0-.68-.08C39,12.13,38.76,12.22,38.76,12.5Z"/><path class="cls-4" d="M39.37,10.2a.44.44,0,0,0-.62-.07.34.34,0,0,0-.15.18A.59.59,0,0,0,39.37,10.2Z"/><path class="cls-4" d="M41.69,12c-.63,0,.18.81.52.56S41.93,11.86,41.69,12Z"/><path class="cls-4" d="M32.75,14.62c-.19-.16-.35,0-.47.18-.42.26-.92.9-.52,1.06S32.74,15,32.75,14.62Z"/><path class="cls-4" d="M31.6,13.79c-.54.11-.28,1,.23.39C32.15,13.8,31.82,13.68,31.6,13.79Z"/><path class="cls-4" d="M34.67,15.44a.27.27,0,0,0-.19.25c.2.15.73.16.87-.11S34.85,15.13,34.67,15.44Z"/><path class="cls-4" d="M39.47,14l0,0a.26.26,0,0,0,0,.11c0,.05,0,.1,0,.12.11.29.73.3.61-.07S39.61,13.82,39.47,14Z"/><path class="cls-4" d="M45,13.18c-.36-.5-1.12,0-.64.16C44.66,13.54,45.38,13.67,45,13.18Z"/><path class="cls-4" d="M32.08,18l.07-.13a.88.88,0,0,0-.4.63c.22.06.85-.37.83-.65S32.26,17.7,32.08,18Z"/><path class="cls-4" d="M37.75,16.55a.16.16,0,0,0,.21.05c.26,0,.74,0,.54-.32S37.82,16.33,37.75,16.55Z"/><path class="cls-4" d="M29.91,16.27a.51.51,0,0,0,0,.22c.32.11,1.14,0,.87-.51S30,15.9,29.91,16.27Z"/><path class="cls-4" d="M31,14.91h0a.27.27,0,0,0-.33.27.4.4,0,0,0,.55-.22A.39.39,0,0,0,31,14.91Z"/><path class="cls-5" d="M32.08,26.23c-1.17.86,4.8,5.19,8.69,5a11.43,11.43,0,0,0,9.4-6c1-2.14.67-8.23-.61-7.8-.46.15.1,2.22-1.79,5.34-1.65,2.75-4.47,5.46-8.21,5.27C34.45,27.83,32.86,25.66,32.08,26.23Z"/><path class="cls-6" d="M44.9,11.17a.55.55,0,0,0-.48.84c.32.79,2.27,2.09,2.83,1.88s.58-.87-.23-1.5A4.73,4.73,0,0,0,44.9,11.17Z"/><path class="cls-6" d="M45.92,12.24S48.18,9.9,48.82,9A39.83,39.83,0,0,0,51,4.79a.55.55,0,0,1,.48-.24c.28,0,.2.47.2.47s-1.58,3.22-2.22,4.11c-1.3,1.81-3,3.78-3,3.78Z"/><path class="cls-6" d="M49.86,7.83l-3.73-.47L46,7.57l1.86.31,1.85.3Z"/><path class="cls-6" d="M42.09,12c-3.86,1-9.55-1.77-9.55-1.77s3.8-4.44,7.07-4.77,8.92,2.27,8.92,2.27A13.5,13.5,0,0,1,42.09,12Z"/><path class="cls-7" d="M44.94,11.41a.81.81,0,0,0-.09.79,4.09,4.09,0,0,0,1.4,1.11l.09-.7s-.3-.21-.33-.38A.39.39,0,0,1,46,12Z"/><path class="cls-7" d="M47.27,7.87a29.67,29.67,0,0,0-6.45.06c-3,.43-7.52,1.86-7.47,2.06s4.95-1.63,7.37-1.8,6.73,0,6.73,0Z"/><path class="cls-7" d="M45.76,8a3.28,3.28,0,0,1-.63,1.17,9.15,9.15,0,0,0-1.08,1.68A10.32,10.32,0,0,0,45.3,9.27c.35-.53.81-1.27.81-1.27Z"/><path class="cls-7" d="M42.76,8a5.29,5.29,0,0,1-.66,1.91c-.66,1.36-.93,1.76-.76,1.79s.65-1,1-1.74.85-2,.85-2Z"/><path class="cls-7" d="M39.84,8.27a3.63,3.63,0,0,1-.23,1.42c-.29,1-.66,1.58-.52,1.65s.48-.87.68-1.59.5-1.63.5-1.63Z"/><path class="cls-7" d="M36.71,9a2.36,2.36,0,0,1-.16.84c-.18.52-.47,1-.39,1A1.75,1.75,0,0,0,36.7,10c.13-.47.27-1,.27-1Z"/><path class="cls-7" d="M46.11,7.89A4.43,4.43,0,0,0,45,6.81a3.48,3.48,0,0,0-1.46-.6c-.07.07.83.33,1.15.54a11.47,11.47,0,0,1,1.19,1.14Z"/><path class="cls-7" d="M43,7.81a2.91,2.91,0,0,0-.92-1.23,4.45,4.45,0,0,0-2-.8c-.2.06,1.5.49,1.88.86a4.23,4.23,0,0,1,.69,1.21Z"/><path class="cls-7" d="M40.27,8.12A6.6,6.6,0,0,0,38.89,7a5.58,5.58,0,0,0-1.66-.42c-.2,0,1.27.33,1.69.62a9.06,9.06,0,0,1,1,1Z"/><path class="cls-7" d="M36.7,8.93s0-.25-.73-.5S34.91,8,35.06,8a4.31,4.31,0,0,1,.91.24,6,6,0,0,1,1.07.6Z"/><path class="cls-3" d="M81.28,23c3,2.2,6.91,9.14,2.29,14.86s-11.37,6-16.47,2.69a11.47,11.47,0,0,1-1.42-18.13C70.82,17.55,76.77,19.72,81.28,23Z"/><path class="cls-4" d="M68.79,22.22h0Z"/><path class="cls-4" d="M69.48,22.94c.35-.17.74-.53.42-.85s-.78.05-1.1.13C68.37,22.61,68.55,23.39,69.48,22.94Z"/><path class="cls-4" d="M68.81,22.21l.53-.2A.83.83,0,0,0,68.81,22.21Z"/><path class="cls-4" d="M67.85,23.74c.13-.09.31-.29.14-.43a.23.23,0,0,0-.34.07.43.43,0,0,0-.21.29C67.41,24,67.71,23.84,67.85,23.74Z"/><path class="cls-4" d="M70.14,23.56a.35.35,0,0,0-.33,0c-.16,0-.35.09-.39.21a.14.14,0,0,0,0,.09l0,0,0,0c0,.14.38,0,.51,0S70.4,23.71,70.14,23.56Z"/><path class="cls-4" d="M69.37,23.9h0Z"/><path class="cls-4" d="M70.87,22.78c-.15,0-.32.21-.23.36s.44.09.56,0C71.7,22.88,71.06,22.67,70.87,22.78Z"/><path class="cls-4" d="M71.5,21.86c-.11,0-.29-.07-.37,0a.15.15,0,0,0,0,.18c0,.11.18.2.25.24s.92.32,1,.06S71.68,21.88,71.5,21.86Z"/><path class="cls-4" d="M70.67,21.34c.15.08.71.06.77-.17s-.31-.27-.45-.25a.43.43,0,0,0-.24.14C70.6,21.13,70.49,21.24,70.67,21.34Z"/><path class="cls-4" d="M68,22.66c.29-.21,0-.34-.22-.29h0c-.14,0-.47.15-.38.33S67.84,22.74,68,22.66Z"/><path class="cls-4" d="M66.73,24c.11-.12.44-.67.06-.69a.3.3,0,0,0-.2.1,1.08,1.08,0,0,0-.38.54C66.06,24.49,66.54,24.26,66.73,24Z"/><path class="cls-4" d="M68.78,24.2a.74.74,0,0,0-.5,0,1,1,0,0,0-.67.51c-.12.52.79.15,1,.08S69.2,24.35,68.78,24.2Z"/><path class="cls-4" d="M70.3,24.6c-.14,0-.3.17-.29.29s.52.18.66.11C71.23,24.74,70.5,24.49,70.3,24.6Z"/><path class="cls-4" d="M73.89,21.72a.25.25,0,0,0-.25.1.69.69,0,0,0,1,0A.59.59,0,0,0,73.89,21.72Z"/><path class="cls-4" d="M72.41,23.06c.32.11,1.17.17,1.23-.27a.72.72,0,0,0-.68-.08C72.7,22.7,72.42,22.79,72.41,23.06Z"/><path class="cls-4" d="M73,20.76a.46.46,0,0,0-.63-.06.32.32,0,0,0-.14.18A.59.59,0,0,0,73,20.76Z"/><path class="cls-4" d="M75.34,22.59c-.63,0,.18.81.53.56S75.59,22.43,75.34,22.59Z"/><path class="cls-4" d="M66.41,25.19c-.2-.16-.36,0-.47.17-.42.27-.93.91-.53,1.07S66.4,25.53,66.41,25.19Z"/><path class="cls-4" d="M65.25,24.36c-.54.11-.28,1,.23.39C65.8,24.37,65.48,24.25,65.25,24.36Z"/><path class="cls-4" d="M68.33,26a.28.28,0,0,0-.2.25c.2.15.74.16.87-.11S68.51,25.7,68.33,26Z"/><path class="cls-4" d="M73.12,24.53l0,0a.52.52,0,0,0,0,.11s0,.1,0,.12c.11.29.73.3.62-.07S73.27,24.39,73.12,24.53Z"/><path class="cls-4" d="M78.68,23.75c-.37-.5-1.12,0-.65.16C78.31,24.11,79,24.24,78.68,23.75Z"/><path class="cls-4" d="M65.73,28.54l.07-.14a1,1,0,0,0-.4.64c.22.06.85-.37.84-.65S65.91,28.27,65.73,28.54Z"/><path class="cls-4" d="M71.4,27.12a.17.17,0,0,0,.22.05c.26,0,.74,0,.53-.32S71.48,26.9,71.4,27.12Z"/><path class="cls-4" d="M63.57,26.84a.4.4,0,0,0,0,.22c.32.11,1.13,0,.86-.51S63.66,26.46,63.57,26.84Z"/><path class="cls-4" d="M64.68,25.48h0a.27.27,0,0,0-.33.27.4.4,0,0,0,.55-.22A.33.33,0,0,0,64.68,25.48Z"/><path class="cls-5" d="M65.74,36.8c-1.18.86,4.8,5.19,8.68,5a11.43,11.43,0,0,0,9.41-6c1-2.14.66-8.23-.62-7.8-.46.15.1,2.21-1.78,5.34-1.65,2.75-4.48,5.46-8.21,5.27C68.1,38.4,66.51,36.23,65.74,36.8Z"/><path class="cls-6" d="M78.56,21.74a.55.55,0,0,0-.49.83c.32.8,2.27,2.1,2.83,1.88s.59-.87-.23-1.49A4.66,4.66,0,0,0,78.56,21.74Z"/><path class="cls-6" d="M79.57,22.81s2.26-2.34,2.91-3.22a41.89,41.89,0,0,0,2.14-4.23s.2-.29.47-.24.2.47.2.47-1.58,3.22-2.21,4.11c-1.3,1.81-3,3.78-3,3.78Z"/><path class="cls-6" d="M83.51,18.4c-.13,0-3.73-.47-3.73-.47l-.13.21,1.85.31,1.85.3Z"/><path class="cls-6" d="M75.74,22.61c-3.85,1-9.55-1.77-9.55-1.77S70,16.4,73.26,16.07s8.93,2.27,8.93,2.27A13.5,13.5,0,0,1,75.74,22.61Z"/><path class="cls-7" d="M78.59,22a.81.81,0,0,0-.09.79,4.09,4.09,0,0,0,1.4,1.11l.1-.7s-.3-.21-.34-.38a.39.39,0,0,1,0-.27Z"/><path class="cls-7" d="M80.93,18.43a30.09,30.09,0,0,0-6.46.07c-3,.43-7.52,1.86-7.46,2.06s4.94-1.64,7.36-1.8,6.74,0,6.74,0Z"/><path class="cls-7" d="M79.41,18.55a3.28,3.28,0,0,1-.63,1.17A9.15,9.15,0,0,0,77.7,21.4,10.21,10.21,0,0,0,79,19.84c.36-.53.82-1.27.82-1.27Z"/><path class="cls-7" d="M76.41,18.57a5,5,0,0,1-.66,1.91c-.66,1.36-.92,1.76-.76,1.79s.66-1,1-1.75.85-2,.85-2Z"/><path class="cls-7" d="M73.5,18.84a3.63,3.63,0,0,1-.23,1.42c-.3,1-.66,1.58-.53,1.64s.49-.86.69-1.58.5-1.63.5-1.63Z"/><path class="cls-7" d="M70.36,19.58a2.11,2.11,0,0,1-.16.84c-.18.52-.47,1-.38,1a1.83,1.83,0,0,0,.53-.91l.28-1Z"/><path class="cls-7" d="M79.77,18.46a4.43,4.43,0,0,0-1.13-1.08,3.53,3.53,0,0,0-1.46-.6c-.08.07.83.33,1.15.54a12.23,12.23,0,0,1,1.18,1.14Z"/><path class="cls-7" d="M76.69,18.38a2.88,2.88,0,0,0-.93-1.23,4.45,4.45,0,0,0-2.05-.8c-.2.06,1.5.49,1.88.86a4.23,4.23,0,0,1,.69,1.21Z"/><path class="cls-7" d="M73.93,18.69a6.75,6.75,0,0,0-1.39-1.09,5.58,5.58,0,0,0-1.66-.42c-.19,0,1.28.33,1.69.62a9.06,9.06,0,0,1,1,1Z"/><path class="cls-7" d="M70.36,19.5s0-.25-.73-.5-1.07-.43-.92-.43a4.16,4.16,0,0,1,.91.24,5.61,5.61,0,0,1,1.07.6Z"/><path class="cls-3" d="M60.71,19.79c3,2.2,6.91,9.14,2.29,14.86S51.63,40.7,46.54,37.34a11.48,11.48,0,0,1-1.43-18.13C50.26,14.31,56.21,16.48,60.71,19.79Z"/><path class="cls-4" d="M48.22,19h0Z"/><path class="cls-4" d="M48.92,19.7c.35-.17.74-.53.41-.85s-.78,0-1.09.13C47.8,19.37,48,20.15,48.92,19.7Z"/><path class="cls-4" d="M48.24,19l.53-.2A.87.87,0,0,0,48.24,19Z"/><path class="cls-4" d="M47.28,20.5c.14-.09.31-.29.14-.43a.22.22,0,0,0-.33.07.44.44,0,0,0-.22.29C46.84,20.72,47.15,20.6,47.28,20.5Z"/><path class="cls-4" d="M49.57,20.32a.35.35,0,0,0-.33,0c-.16,0-.35.09-.38.21a.31.31,0,0,0,0,.09l0,0,0,0c0,.14.39,0,.51,0S49.84,20.47,49.57,20.32Z"/><path class="cls-4" d="M48.81,20.66h0Z"/><path class="cls-4" d="M50.3,19.54c-.15,0-.32.21-.23.36s.44.09.56,0C51.14,19.64,50.49,19.43,50.3,19.54Z"/><path class="cls-4" d="M50.93,18.62c-.1,0-.29-.07-.37,0a.15.15,0,0,0,0,.18c0,.11.18.2.26.24s.91.32,1,.06S51.12,18.64,50.93,18.62Z"/><path class="cls-4" d="M50.1,18.1c.16.08.71.06.77-.17s-.3-.27-.45-.25a.47.47,0,0,0-.24.14C50,17.89,49.92,18,50.1,18.1Z"/><path class="cls-4" d="M47.38,19.42c.29-.21,0-.34-.22-.29h0c-.13,0-.46.15-.37.33S47.27,19.5,47.38,19.42Z"/><path class="cls-4" d="M46.16,20.8c.11-.12.44-.67.06-.69a.28.28,0,0,0-.19.1,1.1,1.1,0,0,0-.39.54C45.49,21.25,46,21,46.16,20.8Z"/><path class="cls-4" d="M48.21,21a.74.74,0,0,0-.5,0,1,1,0,0,0-.67.51c-.12.52.79.15,1,.08S48.64,21.11,48.21,21Z"/><path class="cls-4" d="M49.74,21.36c-.15.05-.3.17-.3.29s.52.18.67.11C50.67,21.5,49.94,21.25,49.74,21.36Z"/><path class="cls-4" d="M53.32,18.48a.27.27,0,0,0-.25.1.69.69,0,0,0,1,0A.58.58,0,0,0,53.32,18.48Z"/><path class="cls-4" d="M51.85,19.82c.31.11,1.16.17,1.23-.27a.72.72,0,0,0-.68-.08C52.13,19.46,51.85,19.55,51.85,19.82Z"/><path class="cls-4" d="M52.46,17.52a.44.44,0,0,0-.62-.06.34.34,0,0,0-.15.18A.59.59,0,0,0,52.46,17.52Z"/><path class="cls-4" d="M54.77,19.35c-.62,0,.18.81.53.56S55,19.19,54.77,19.35Z"/><path class="cls-4" d="M45.84,22c-.19-.16-.36,0-.47.17-.42.27-.92.91-.52,1.07S45.83,22.29,45.84,22Z"/><path class="cls-4" d="M44.69,21.12c-.54.11-.29,1,.23.39C45.24,21.13,44.91,21,44.69,21.12Z"/><path class="cls-4" d="M47.76,22.77a.3.3,0,0,0-.2.25c.2.15.74.16.88-.11S47.94,22.46,47.76,22.77Z"/><path class="cls-4" d="M52.55,21.29l0,0a.52.52,0,0,0,0,.11c0,.05,0,.1,0,.12.11.29.73.3.61-.07S52.7,21.15,52.55,21.29Z"/><path class="cls-4" d="M58.11,20.51c-.36-.5-1.12,0-.65.16C57.74,20.87,58.47,21,58.11,20.51Z"/><path class="cls-4" d="M45.16,25.3l.08-.14a.92.92,0,0,0-.4.64c.21.06.85-.37.83-.65S45.35,25,45.16,25.3Z"/><path class="cls-4" d="M50.84,23.88a.16.16,0,0,0,.21.05c.26,0,.74,0,.54-.32S50.91,23.66,50.84,23.88Z"/><path class="cls-4" d="M43,23.6a.4.4,0,0,0,0,.22c.32.11,1.13,0,.86-.51S43.09,23.22,43,23.6Z"/><path class="cls-4" d="M44.12,22.24h0a.27.27,0,0,0-.33.27.41.41,0,0,0,.56-.22A.34.34,0,0,0,44.12,22.24Z"/><path class="cls-5" d="M45.17,33.56c-1.18.86,4.8,5.19,8.69,5a11.43,11.43,0,0,0,9.4-6c1-2.14.67-8.23-.62-7.8-.46.15.11,2.21-1.78,5.34-1.65,2.75-4.47,5.46-8.21,5.27C47.53,35.16,46,33,45.17,33.56Z"/><path class="cls-6" d="M58,18.5a.55.55,0,0,0-.49.83c.33.8,2.28,2.1,2.84,1.88s.58-.87-.24-1.49A4.61,4.61,0,0,0,58,18.5Z"/><path class="cls-6" d="M59,19.57s2.26-2.34,2.91-3.22a41.89,41.89,0,0,0,2.14-4.23.55.55,0,0,1,.48-.24c.27,0,.19.47.19.47s-1.57,3.22-2.21,4.11c-1.3,1.81-3,3.78-3,3.78Z"/><path class="cls-6" d="M63,15.16c-.14,0-3.73-.47-3.73-.47l-.14.21,1.85.31,1.85.3Z"/><path class="cls-6" d="M55.17,19.37c-3.85,1-9.54-1.77-9.54-1.77s3.8-4.44,7.06-4.77,8.93,2.27,8.93,2.27A13.5,13.5,0,0,1,55.17,19.37Z"/><path class="cls-7" d="M58,18.74a.8.8,0,0,0-.08.79,4.09,4.09,0,0,0,1.4,1.11l.09-.7s-.3-.21-.33-.38a.39.39,0,0,1,0-.27Z"/><path class="cls-7" d="M60.36,15.19a30.09,30.09,0,0,0-6.46.07c-3,.43-7.52,1.86-7.46,2.06s5-1.64,7.36-1.8,6.74,0,6.74,0Z"/><path class="cls-7" d="M58.85,15.31a3.52,3.52,0,0,1-.63,1.17,8.89,8.89,0,0,0-1.09,1.68,10.76,10.76,0,0,0,1.26-1.56c.35-.53.81-1.27.81-1.27Z"/><path class="cls-7" d="M55.85,15.33a5.29,5.29,0,0,1-.66,1.91c-.67,1.36-.93,1.76-.77,1.79s.66-1,1-1.75.85-2,.85-2Z"/><path class="cls-7" d="M52.93,15.6A3.63,3.63,0,0,1,52.7,17c-.3,1-.66,1.58-.52,1.64s.48-.86.68-1.58.5-1.63.5-1.63Z"/><path class="cls-7" d="M49.8,16.34a2.36,2.36,0,0,1-.16.84c-.19.52-.48,1-.39,1a1.75,1.75,0,0,0,.53-.91c.14-.47.28-1,.28-1Z"/><path class="cls-7" d="M59.2,15.22a4.43,4.43,0,0,0-1.13-1.08,3.53,3.53,0,0,0-1.46-.6c-.08.07.83.33,1.15.54A12.62,12.62,0,0,1,59,15.22Z"/><path class="cls-7" d="M56.12,15.14a2.91,2.91,0,0,0-.92-1.23,4.44,4.44,0,0,0-2.06-.8c-.19.06,1.5.49,1.88.86a4.36,4.36,0,0,1,.7,1.21Z"/><path class="cls-7" d="M53.36,15.45A6.6,6.6,0,0,0,52,14.36a5.66,5.66,0,0,0-1.66-.42c-.2,0,1.27.33,1.68.62a8.6,8.6,0,0,1,1,1Z"/><path class="cls-7" d="M49.79,16.26s0-.25-.73-.5-1.07-.43-.92-.43a4.16,4.16,0,0,1,.91.24,5.82,5.82,0,0,1,1.08.6Z"/><path class="cls-3" d="M70.43,30c3,2.19,6.91,9.14,2.29,14.85s-11.37,6-16.46,2.69A11.48,11.48,0,0,1,54.83,29.4C60,24.51,65.93,26.67,70.43,30Z"/><path class="cls-4" d="M57.94,29.17h0Z"/><path class="cls-4" d="M58.64,29.89c.34-.17.74-.53.41-.84s-.78,0-1.09.12C57.52,29.57,57.7,30.35,58.64,29.89Z"/><path class="cls-4" d="M58,29.17l.53-.21A.8.8,0,0,0,58,29.17Z"/><path class="cls-4" d="M57,30.7c.14-.1.31-.3.14-.44a.22.22,0,0,0-.33.07.44.44,0,0,0-.22.29C56.56,30.91,56.87,30.8,57,30.7Z"/><path class="cls-4" d="M59.29,30.52a.3.3,0,0,0-.33,0c-.16,0-.35.08-.38.21a.25.25,0,0,0,0,.08l0,0,0,0c0,.15.38,0,.51,0S59.56,30.66,59.29,30.52Z"/><path class="cls-4" d="M58.53,30.85h0Z"/><path class="cls-4" d="M60,29.73c-.15.05-.32.21-.23.36s.44.09.56,0C60.86,29.83,60.21,29.62,60,29.73Z"/><path class="cls-4" d="M60.65,28.81c-.1,0-.29-.06-.37,0a.14.14,0,0,0,0,.17c0,.11.18.2.25.24s.92.32,1,.06S60.84,28.83,60.65,28.81Z"/><path class="cls-4" d="M59.82,28.29c.16.08.71.06.77-.16s-.3-.28-.45-.26a.55.55,0,0,0-.24.14C59.75,28.08,59.64,28.19,59.82,28.29Z"/><path class="cls-4" d="M57.1,29.61c.29-.21,0-.33-.22-.29h0c-.13,0-.46.14-.37.32S57,29.7,57.1,29.61Z"/><path class="cls-4" d="M55.88,31c.11-.13.44-.67.06-.69a.21.21,0,0,0-.19.1,1.08,1.08,0,0,0-.39.53C55.21,31.44,55.69,31.21,55.88,31Z"/><path class="cls-4" d="M57.93,31.15a.74.74,0,0,0-.5,0,1,1,0,0,0-.67.52c-.12.51.79.14,1,.07S58.36,31.31,57.93,31.15Z"/><path class="cls-4" d="M59.46,31.56c-.15.05-.3.17-.3.29s.52.18.67.11C60.39,31.7,59.66,31.44,59.46,31.56Z"/><path class="cls-4" d="M63,28.68a.25.25,0,0,0-.25.1.69.69,0,0,0,1.05,0A.59.59,0,0,0,63,28.68Z"/><path class="cls-4" d="M61.57,30c.31.11,1.16.16,1.23-.28a.75.75,0,0,0-.68-.08C61.85,29.65,61.57,29.74,61.57,30Z"/><path class="cls-4" d="M62.18,27.72a.45.45,0,0,0-.62-.07.32.32,0,0,0-.15.19A.61.61,0,0,0,62.18,27.72Z"/><path class="cls-4" d="M64.49,29.55c-.63,0,.18.8.53.55S64.74,29.38,64.49,29.55Z"/><path class="cls-4" d="M55.56,32.14c-.19-.16-.36,0-.47.18-.42.27-.92.9-.52,1.06S55.55,32.48,55.56,32.14Z"/><path class="cls-4" d="M54.41,31.31c-.54.11-.29,1,.23.39C55,31.32,54.63,31.2,54.41,31.31Z"/><path class="cls-4" d="M57.48,33a.29.29,0,0,0-.2.25c.2.15.74.16.87-.11S57.66,32.65,57.48,33Z"/><path class="cls-4" d="M62.27,31.49l0,0a.52.52,0,0,0,0,.11c0,.06,0,.1,0,.12.12.29.74.3.62-.07S62.42,31.34,62.27,31.49Z"/><path class="cls-4" d="M67.83,30.7c-.37-.5-1.12,0-.65.16C67.46,31.06,68.19,31.19,67.83,30.7Z"/><path class="cls-4" d="M54.88,35.49l.08-.13a.87.87,0,0,0-.4.63c.21.06.85-.37.83-.65S55.07,35.22,54.88,35.49Z"/><path class="cls-4" d="M60.56,34.07c.08.09.14.09.21,0,.26,0,.74,0,.54-.31S60.63,33.85,60.56,34.07Z"/><path class="cls-4" d="M52.72,33.79a.41.41,0,0,0,0,.22c.32.11,1.13,0,.86-.51S52.81,33.42,52.72,33.79Z"/><path class="cls-4" d="M53.84,32.43h0a.27.27,0,0,0-.33.27.4.4,0,0,0,.56-.22A.41.41,0,0,0,53.84,32.43Z"/><path class="cls-5" d="M54.89,43.75c-1.18.86,4.8,5.19,8.69,5a11.44,11.44,0,0,0,9.4-6c1-2.15.67-8.23-.62-7.81-.46.15.11,2.22-1.78,5.35-1.65,2.74-4.47,5.45-8.21,5.26C57.25,45.35,55.67,43.18,54.89,43.75Z"/><path class="cls-6" d="M67.71,28.69a.55.55,0,0,0-.49.84c.33.8,2.27,2.1,2.84,1.88s.58-.87-.24-1.5A4.8,4.8,0,0,0,67.71,28.69Z"/><path class="cls-6" d="M68.72,29.76s2.26-2.34,2.91-3.22a42,42,0,0,0,2.14-4.22s.2-.3.48-.25.19.47.19.47-1.57,3.23-2.21,4.12c-1.3,1.8-3,3.77-3,3.77Z"/><path class="cls-6" d="M72.67,25.35l-3.73-.47-.14.22,1.85.3,1.85.31Z"/><path class="cls-6" d="M64.89,29.56c-3.85,1-9.55-1.77-9.55-1.77s3.81-4.43,7.07-4.77,8.93,2.27,8.93,2.27A13.5,13.5,0,0,1,64.89,29.56Z"/><path class="cls-7" d="M67.74,28.93a.8.8,0,0,0-.08.79,4.09,4.09,0,0,0,1.4,1.11l.09-.7s-.3-.21-.33-.38a.39.39,0,0,1,0-.27Z"/><path class="cls-7" d="M70.08,25.39a30.48,30.48,0,0,0-6.46.06c-3,.43-7.52,1.86-7.46,2.07s5-1.64,7.36-1.8,6.74,0,6.74,0Z"/><path class="cls-7" d="M68.56,25.5a3.34,3.34,0,0,1-.62,1.17,8.47,8.47,0,0,0-1.09,1.69,10.43,10.43,0,0,0,1.26-1.57c.35-.53.81-1.27.81-1.27Z"/><path class="cls-7" d="M65.57,25.52a5.29,5.29,0,0,1-.66,1.91c-.67,1.36-.93,1.76-.77,1.79s.66-1,1-1.74.85-2,.85-2Z"/><path class="cls-7" d="M62.65,25.8a3.65,3.65,0,0,1-.23,1.42c-.3,1-.66,1.57-.52,1.64s.48-.87.68-1.59.5-1.63.5-1.63Z"/><path class="cls-7" d="M59.52,26.54a2.39,2.39,0,0,1-.16.84c-.19.51-.48,1-.39,1a1.93,1.93,0,0,0,.53-.92l.28-1Z"/><path class="cls-7" d="M68.92,25.42a4.38,4.38,0,0,0-1.13-1.09,3.46,3.46,0,0,0-1.46-.59c-.08.07.83.32,1.15.53a12.62,12.62,0,0,1,1.19,1.14Z"/><path class="cls-7" d="M65.84,25.33a2.91,2.91,0,0,0-.92-1.23,4.56,4.56,0,0,0-2.06-.8c-.19.06,1.5.49,1.88.87a4.22,4.22,0,0,1,.7,1.2Z"/><path class="cls-7" d="M63.08,25.64a6.6,6.6,0,0,0-1.38-1.09A6,6,0,0,0,60,24.13c-.2,0,1.27.33,1.68.62a8.6,8.6,0,0,1,1.05,1Z"/><path class="cls-7" d="M59.51,26.45s0-.24-.73-.5-1.07-.43-.92-.43a4.88,4.88,0,0,1,.91.24,5.66,5.66,0,0,1,1.08.61Z"/><path class="cls-3" d="M19.59,19.84C16.6,22,12.67,29,17.3,34.69s11.37,6.06,16.46,2.7a11.48,11.48,0,0,0,1.42-18.14C30,14.36,24.09,16.53,19.59,19.84Z"/><path class="cls-4" d="M32.07,19h0Z"/><path class="cls-4" d="M31.38,19.75c-.35-.17-.74-.53-.41-.85s.78,0,1.09.12C32.49,19.42,32.31,20.2,31.38,19.75Z"/><path class="cls-4" d="M32.06,19l-.54-.21A.83.83,0,0,1,32.06,19Z"/><path class="cls-4" d="M33,20.55c-.13-.1-.31-.3-.13-.44a.22.22,0,0,1,.33.07.44.44,0,0,1,.22.29C33.46,20.76,33.15,20.65,33,20.55Z"/><path class="cls-4" d="M30.73,20.37a.35.35,0,0,1,.33,0c.15,0,.35.08.38.21a.25.25,0,0,1,0,.08l0,0,0,0c-.05.14-.39,0-.51,0S30.46,20.51,30.73,20.37Z"/><path class="cls-4" d="M31.49,20.7h0Z"/><path class="cls-4" d="M30,19.58c.15.05.32.22.24.36s-.44.09-.57,0C29.16,19.69,29.81,19.47,30,19.58Z"/><path class="cls-4" d="M29.37,18.66c.1,0,.29-.06.37,0a.15.15,0,0,1,0,.18c0,.1-.18.2-.25.23s-.91.32-1,.06S29.18,18.69,29.37,18.66Z"/><path class="cls-4" d="M30.2,18.14c-.16.09-.72.06-.77-.16s.3-.28.45-.26a.61.61,0,0,1,.24.14C30.27,17.93,30.38,18.05,30.2,18.14Z"/><path class="cls-4" d="M32.91,19.47c-.29-.22,0-.34.23-.3h0c.13,0,.46.14.37.32S33,19.55,32.91,19.47Z"/><path class="cls-4" d="M34.13,20.85c-.11-.13-.44-.67-.06-.69a.26.26,0,0,1,.2.1,1.15,1.15,0,0,1,.39.53C34.8,21.29,34.32,21.07,34.13,20.85Z"/><path class="cls-4" d="M32.08,21a.83.83,0,0,1,.51,0,1,1,0,0,1,.66.52c.13.52-.78.14-1,.08S31.66,21.16,32.08,21Z"/><path class="cls-4" d="M30.56,21.41c.14.05.3.17.3.29s-.52.18-.67.11C29.63,21.55,30.36,21.3,30.56,21.41Z"/><path class="cls-4" d="M27,18.53a.23.23,0,0,1,.25.1.69.69,0,0,1-1,0A.57.57,0,0,1,27,18.53Z"/><path class="cls-4" d="M28.45,19.87c-.31.11-1.16.17-1.23-.28a.75.75,0,0,1,.68-.08C28.17,19.5,28.45,19.59,28.45,19.87Z"/><path class="cls-4" d="M27.84,17.57a.44.44,0,0,1,.62-.06.28.28,0,0,1,.15.18A.59.59,0,0,1,27.84,17.57Z"/><path class="cls-4" d="M25.53,19.4c.62,0-.19.81-.53.55S25.28,19.24,25.53,19.4Z"/><path class="cls-4" d="M34.46,22c.19-.15.35,0,.47.18.42.27.92.91.52,1.06S34.47,22.34,34.46,22Z"/><path class="cls-4" d="M35.61,21.17c.54.1.28,1-.23.39C35.06,21.17,35.39,21.05,35.61,21.17Z"/><path class="cls-4" d="M32.54,22.82a.28.28,0,0,1,.2.25c-.21.14-.74.15-.88-.11S32.36,22.51,32.54,22.82Z"/><path class="cls-4" d="M27.74,21.34l0,0a.2.2,0,0,1,0,.11c0,.05,0,.09,0,.11-.11.3-.73.31-.61-.06S27.6,21.2,27.74,21.34Z"/><path class="cls-4" d="M22.19,20.55c.36-.5,1.12,0,.64.16C22.55,20.91,21.83,21.05,22.19,20.55Z"/><path class="cls-4" d="M35.13,25.34l-.07-.13a.9.9,0,0,1,.4.63c-.22.06-.85-.36-.83-.64S35,25.07,35.13,25.34Z"/><path class="cls-4" d="M29.46,23.93a.14.14,0,0,1-.21,0c-.26,0-.74,0-.54-.31S29.39,23.71,29.46,23.93Z"/><path class="cls-4" d="M37.3,23.65a.47.47,0,0,1,0,.21c-.32.11-1.14,0-.87-.5S37.2,23.27,37.3,23.65Z"/><path class="cls-4" d="M36.18,22.28h0a.26.26,0,0,1,.33.26.39.39,0,0,1-.55-.21A.34.34,0,0,1,36.18,22.28Z"/><path class="cls-5" d="M35.13,33.6c1.17.86-4.8,5.2-8.69,5a11.47,11.47,0,0,1-9.4-6c-1-2.14-.67-8.23.61-7.81.46.15-.1,2.22,1.79,5.35,1.65,2.74,4.47,5.45,8.21,5.27C32.76,35.2,34.35,33,35.13,33.6Z"/><path class="cls-6" d="M22.31,18.54a.55.55,0,0,1,.48.84c-.32.8-2.27,2.1-2.83,1.88s-.58-.87.23-1.5A4.83,4.83,0,0,1,22.31,18.54Z"/><path class="cls-6" d="M21.29,19.61s-2.26-2.34-2.9-3.22a39.9,39.9,0,0,1-2.14-4.22s-.2-.3-.48-.25-.2.47-.2.47,1.58,3.23,2.22,4.12c1.3,1.8,3,3.77,3,3.77Z"/><path class="cls-6" d="M17.35,15.21c.14,0,3.73-.47,3.73-.47l.14.21-1.86.3-1.85.31Z"/><path class="cls-6" d="M25.12,19.41c3.86,1,9.55-1.77,9.55-1.77s-3.8-4.43-7.07-4.77-8.92,2.28-8.92,2.28A13.44,13.44,0,0,0,25.12,19.41Z"/><path class="cls-7" d="M22.27,18.78a.82.82,0,0,1,.09.79A4.16,4.16,0,0,1,21,20.69L20.87,20s.3-.2.33-.38a.41.41,0,0,0,0-.27Z"/><path class="cls-7" d="M19.94,15.24a30.4,30.4,0,0,1,6.45.06c3,.43,7.52,1.87,7.47,2.07s-4.95-1.64-7.37-1.8-6.73,0-6.73,0Z"/><path class="cls-7" d="M21.45,15.35a3.36,3.36,0,0,0,.63,1.18,8.47,8.47,0,0,1,1.08,1.68,10.55,10.55,0,0,1-1.25-1.57c-.35-.52-.81-1.26-.81-1.26Z"/><path class="cls-7" d="M24.45,15.38a5.29,5.29,0,0,0,.66,1.91c.66,1.36.93,1.75.76,1.78s-.65-1-1-1.74-.85-2-.85-2Z"/><path class="cls-7" d="M27.37,15.65a3.65,3.65,0,0,0,.23,1.42c.29,1,.66,1.57.52,1.64s-.48-.86-.68-1.59-.5-1.62-.5-1.62Z"/><path class="cls-7" d="M30.5,16.39a2.39,2.39,0,0,0,.16.84c.18.52.47,1,.39,1a1.79,1.79,0,0,1-.54-.92c-.13-.46-.27-1-.27-1Z"/><path class="cls-7" d="M21.1,15.27a4.38,4.38,0,0,1,1.13-1.09,3.56,3.56,0,0,1,1.46-.59c.07.07-.83.33-1.15.54a11.62,11.62,0,0,0-1.19,1.13Z"/><path class="cls-7" d="M24.18,15.18A2.91,2.91,0,0,1,25.1,14a4.7,4.7,0,0,1,2-.8c.2.07-1.5.49-1.88.87a4.1,4.1,0,0,0-.69,1.2Z"/><path class="cls-7" d="M26.94,15.5a6.28,6.28,0,0,1,1.38-1.09A6,6,0,0,1,30,14c.2,0-1.27.33-1.69.62a8.84,8.84,0,0,0-1,1Z"/><path class="cls-7" d="M30.51,16.3s0-.24.73-.5,1.06-.42.92-.43a4.91,4.91,0,0,0-.92.24,5.81,5.81,0,0,0-1.07.61Z"/><path class="cls-3" d="M13.83,32.67c-3,2.2-6.92,9.14-2.29,14.85S22.91,53.58,28,50.22a11.49,11.49,0,0,0,1.43-18.14C24.28,27.19,18.33,29.36,13.83,32.67Z"/><path class="cls-4" d="M26.32,31.86h0Z"/><path class="cls-4" d="M25.62,32.58c-.35-.17-.74-.53-.41-.85s.78,0,1.09.12C26.74,32.25,26.55,33,25.62,32.58Z"/><path class="cls-4" d="M26.3,31.85l-.53-.21A.82.82,0,0,1,26.3,31.85Z"/><path class="cls-4" d="M27.25,33.38c-.13-.1-.31-.3-.13-.44a.22.22,0,0,1,.33.07.44.44,0,0,1,.22.29C27.7,33.59,27.39,33.48,27.25,33.38Z"/><path class="cls-4" d="M25,33.2a.35.35,0,0,1,.33,0c.15,0,.35.08.38.21a.25.25,0,0,1,0,.08l0,0,0,0c-.05.14-.39,0-.51,0S24.7,33.35,25,33.2Z"/><path class="cls-4" d="M25.73,33.53l0,0Z"/><path class="cls-4" d="M24.23,32.42c.15,0,.32.21.24.35s-.44.1-.57,0C23.4,32.52,24.05,32.3,24.23,32.42Z"/><path class="cls-4" d="M23.61,31.49c.1,0,.29-.06.37,0a.15.15,0,0,1,0,.18c0,.1-.18.2-.25.23s-.91.33-1,.07S23.42,31.52,23.61,31.49Z"/><path class="cls-4" d="M24.44,31c-.16.09-.72.07-.77-.16s.3-.28.45-.26a.77.77,0,0,1,.24.14C24.51,30.76,24.62,30.88,24.44,31Z"/><path class="cls-4" d="M27.15,32.3c-.29-.22,0-.34.23-.3h0c.13,0,.46.14.37.32S27.27,32.38,27.15,32.3Z"/><path class="cls-4" d="M28.37,33.68c-.1-.13-.44-.67-.05-.69a.3.3,0,0,1,.19.1,1.15,1.15,0,0,1,.39.53C29,34.13,28.56,33.9,28.37,33.68Z"/><path class="cls-4" d="M26.32,33.83a.83.83,0,0,1,.51,0,1,1,0,0,1,.66.52c.13.52-.78.15-1,.08S25.9,34,26.32,33.83Z"/><path class="cls-4" d="M24.8,34.24c.14,0,.3.17.3.29s-.52.18-.67.11C23.87,34.38,24.6,34.13,24.8,34.24Z"/><path class="cls-4" d="M21.21,31.36a.25.25,0,0,1,.25.1.69.69,0,0,1-1,0A.57.57,0,0,1,21.21,31.36Z"/><path class="cls-4" d="M22.69,32.7c-.31.11-1.16.17-1.23-.27a.73.73,0,0,1,.68-.09C22.41,32.33,22.69,32.42,22.69,32.7Z"/><path class="cls-4" d="M22.08,30.4a.44.44,0,0,1,.62-.06.28.28,0,0,1,.15.18A.59.59,0,0,1,22.08,30.4Z"/><path class="cls-4" d="M19.77,32.23c.62,0-.19.81-.53.55S19.52,32.07,19.77,32.23Z"/><path class="cls-4" d="M28.7,34.82c.19-.15.36,0,.47.18.42.27.92.91.52,1.06S28.71,35.17,28.7,34.82Z"/><path class="cls-4" d="M29.85,34c.54.1.28,1-.23.39C29.3,34,29.63,33.88,29.85,34Z"/><path class="cls-4" d="M26.78,35.65a.28.28,0,0,1,.2.25c-.21.14-.74.15-.88-.11S26.6,35.34,26.78,35.65Z"/><path class="cls-4" d="M22,34.17l0,0a.23.23,0,0,1,0,.11s0,.09,0,.11c-.11.3-.73.31-.61-.06S21.84,34,22,34.17Z"/><path class="cls-4" d="M16.43,33.39c.36-.51,1.12,0,.64.15C16.79,33.75,16.07,33.88,16.43,33.39Z"/><path class="cls-4" d="M29.38,38.17,29.3,38a.9.9,0,0,1,.4.63c-.21.06-.85-.36-.83-.64S29.19,37.9,29.38,38.17Z"/><path class="cls-4" d="M23.7,36.76a.14.14,0,0,1-.21,0c-.26,0-.74,0-.54-.31S23.63,36.54,23.7,36.76Z"/><path class="cls-4" d="M31.54,36.48a.49.49,0,0,1,0,.22c-.32.1-1.14,0-.87-.51S31.44,36.1,31.54,36.48Z"/><path class="cls-4" d="M30.42,35.12h0c.2,0,.32.07.33.26a.39.39,0,0,1-.55-.21A.34.34,0,0,1,30.42,35.12Z"/><path class="cls-5" d="M29.37,46.43c1.17.86-4.8,5.2-8.69,5a11.47,11.47,0,0,1-9.4-6c-1-2.14-.67-8.23.62-7.81.45.16-.11,2.22,1.78,5.35,1.65,2.74,4.47,5.45,8.21,5.27C27,48,28.59,45.87,29.37,46.43Z"/><path class="cls-6" d="M16.55,31.38a.54.54,0,0,1,.48.83c-.32.8-2.27,2.1-2.83,1.88s-.58-.87.23-1.5A4.7,4.7,0,0,1,16.55,31.38Z"/><path class="cls-6" d="M15.53,32.45s-2.26-2.34-2.9-3.23A39.9,39.9,0,0,1,10.49,25s-.2-.3-.48-.24-.2.46-.2.46,1.58,3.23,2.22,4.12c1.3,1.81,3,3.77,3,3.77Z"/><path class="cls-6" d="M11.59,28c.14,0,3.73-.47,3.73-.47l.14.21-1.86.3-1.85.31Z"/><path class="cls-6" d="M19.36,32.24c3.86,1,9.55-1.77,9.55-1.77s-3.8-4.43-7.06-4.76S12.92,28,12.92,28A13.44,13.44,0,0,0,19.36,32.24Z"/><path class="cls-7" d="M16.52,31.61a.8.8,0,0,1,.08.79,4.16,4.16,0,0,1-1.4,1.12l-.09-.71s.3-.2.33-.38a.41.41,0,0,0,0-.27Z"/><path class="cls-7" d="M14.18,28.07a30.48,30.48,0,0,1,6.46.06c3,.44,7.51,1.87,7.46,2.07s-5-1.64-7.37-1.8-6.73,0-6.73,0Z"/><path class="cls-7" d="M15.69,28.18a3.36,3.36,0,0,0,.63,1.18A8.47,8.47,0,0,1,17.4,31a10.55,10.55,0,0,1-1.25-1.57c-.35-.52-.81-1.26-.81-1.26Z"/><path class="cls-7" d="M18.69,28.21a5.29,5.29,0,0,0,.66,1.91c.66,1.36.93,1.75.77,1.78s-.66-1-1-1.74-.85-2-.85-2Z"/><path class="cls-7" d="M21.61,28.48a3.63,3.63,0,0,0,.23,1.42c.29,1,.66,1.57.52,1.64s-.48-.86-.68-1.59-.5-1.62-.5-1.62Z"/><path class="cls-7" d="M24.74,29.22a2.39,2.39,0,0,0,.16.84c.18.52.47,1,.39,1a1.74,1.74,0,0,1-.54-.92c-.13-.46-.27-1-.27-1Z"/><path class="cls-7" d="M15.34,28.1A4.25,4.25,0,0,1,16.47,27a3.48,3.48,0,0,1,1.46-.6c.07.07-.83.33-1.15.54a12.81,12.81,0,0,0-1.19,1.13Z"/><path class="cls-7" d="M18.42,28a2.91,2.91,0,0,1,.92-1.23A4.68,4.68,0,0,1,21.4,26c.19.07-1.51.49-1.89.87a4.1,4.1,0,0,0-.69,1.2Z"/><path class="cls-7" d="M21.18,28.33a6.28,6.28,0,0,1,1.38-1.09,6,6,0,0,1,1.66-.43c.2,0-1.27.33-1.69.62a8.84,8.84,0,0,0-1,1Z"/><path class="cls-7" d="M24.75,29.13s0-.24.73-.5,1.06-.42.92-.42a3.82,3.82,0,0,0-.91.23,6.29,6.29,0,0,0-1.08.61Z"/><path class="cls-3" d="M86.55,35.43c3,2.19,6.91,9.14,2.29,14.85s-11.38,6-16.47,2.7A11.48,11.48,0,0,1,71,34.84C76.09,30,82,32.12,86.55,35.43Z"/><path class="cls-4" d="M74.06,34.61h0Z"/><path class="cls-4" d="M74.75,35.34c.35-.17.74-.53.41-.85s-.77,0-1.09.12C73.64,35,73.82,35.79,74.75,35.34Z"/><path class="cls-4" d="M74.07,34.61l.54-.21A.83.83,0,0,0,74.07,34.61Z"/><path class="cls-4" d="M73.12,36.14c.13-.1.31-.3.13-.44a.22.22,0,0,0-.33.07.44.44,0,0,0-.22.29C72.67,36.35,73,36.24,73.12,36.14Z"/><path class="cls-4" d="M75.4,36a.35.35,0,0,0-.33,0c-.15,0-.35.08-.38.21a.25.25,0,0,0,0,.08l0,0,0,0c0,.14.38,0,.5,0S75.67,36.1,75.4,36Z"/><path class="cls-4" d="M74.64,36.29h0Z"/><path class="cls-4" d="M76.14,35.17c-.15,0-.32.22-.24.36s.44.09.57,0C77,35.28,76.32,35.06,76.14,35.17Z"/><path class="cls-4" d="M76.76,34.25c-.1,0-.29-.06-.37,0a.15.15,0,0,0,0,.18c0,.1.18.2.25.23s.91.32,1,.06S77,34.28,76.76,34.25Z"/><path class="cls-4" d="M75.93,33.73c.16.09.72.06.77-.16s-.3-.28-.45-.26a.61.61,0,0,0-.24.14C75.86,33.52,75.75,33.64,75.93,33.73Z"/><path class="cls-4" d="M73.22,35.06c.29-.22,0-.34-.22-.3h0c-.13,0-.46.14-.37.32S73.11,35.14,73.22,35.06Z"/><path class="cls-4" d="M72,36.44c.11-.13.44-.67.06-.69a.26.26,0,0,0-.2.1,1.15,1.15,0,0,0-.39.53C71.33,36.88,71.81,36.66,72,36.44Z"/><path class="cls-4" d="M74.05,36.59a.83.83,0,0,0-.51,0,1,1,0,0,0-.66.52c-.13.52.78.14,1,.08S74.47,36.75,74.05,36.59Z"/><path class="cls-4" d="M75.57,37c-.14,0-.3.17-.3.29s.53.18.67.11C76.5,37.14,75.77,36.89,75.57,37Z"/><path class="cls-4" d="M79.16,34.12a.23.23,0,0,0-.25.1.69.69,0,0,0,1,0A.57.57,0,0,0,79.16,34.12Z"/><path class="cls-4" d="M77.68,35.46c.31.11,1.16.17,1.23-.28a.75.75,0,0,0-.68-.08C78,35.09,77.68,35.18,77.68,35.46Z"/><path class="cls-4" d="M78.29,33.16a.44.44,0,0,0-.62-.06.28.28,0,0,0-.15.18A.59.59,0,0,0,78.29,33.16Z"/><path class="cls-4" d="M80.61,35c-.63,0,.18.81.52.55S80.85,34.83,80.61,35Z"/><path class="cls-4" d="M71.67,37.58c-.19-.15-.35,0-.46.18-.42.27-.93.91-.53,1.06S71.66,37.93,71.67,37.58Z"/><path class="cls-4" d="M70.52,36.76c-.54.1-.28,1,.23.38C71.07,36.76,70.74,36.64,70.52,36.76Z"/><path class="cls-4" d="M73.59,38.41a.26.26,0,0,0-.19.25c.2.14.73.15.87-.11S73.77,38.1,73.59,38.41Z"/><path class="cls-4" d="M78.39,36.93l0,0a.2.2,0,0,0,0,.11s0,.09,0,.11c.11.3.73.31.61-.06S78.53,36.79,78.39,36.93Z"/><path class="cls-4" d="M83.94,36.14c-.36-.5-1.12,0-.64.16C83.58,36.5,84.3,36.64,83.94,36.14Z"/><path class="cls-4" d="M71,40.93l.07-.13a.9.9,0,0,0-.4.63c.22.06.85-.36.83-.64S71.18,40.66,71,40.93Z"/><path class="cls-4" d="M76.67,39.52a.14.14,0,0,0,.21,0c.26,0,.75,0,.54-.31S76.74,39.3,76.67,39.52Z"/><path class="cls-4" d="M68.83,39.24a.47.47,0,0,0,0,.21c.32.11,1.14,0,.87-.51S68.93,38.86,68.83,39.24Z"/><path class="cls-4" d="M70,37.87h0a.26.26,0,0,0-.33.26.39.39,0,0,0,.55-.21A.34.34,0,0,0,70,37.87Z"/><path class="cls-5" d="M71,49.19c-1.17.86,4.81,5.2,8.69,5.05a11.47,11.47,0,0,0,9.4-6c1-2.15.67-8.23-.61-7.81-.46.15.1,2.22-1.78,5.35-1.66,2.74-4.48,5.45-8.22,5.27C73.37,50.79,71.78,48.62,71,49.19Z"/><path class="cls-6" d="M83.82,34.13a.55.55,0,0,0-.48.84c.32.8,2.27,2.1,2.83,1.88s.58-.87-.23-1.5A4.83,4.83,0,0,0,83.82,34.13Z"/><path class="cls-6" d="M84.84,35.2s2.26-2.34,2.9-3.22a39.9,39.9,0,0,0,2.14-4.22s.2-.3.48-.25.2.47.2.47S89,31.21,88.34,32.1c-1.3,1.8-3,3.77-3,3.77Z"/><path class="cls-6" d="M88.78,30.8c-.14,0-3.73-.47-3.73-.47l-.14.21,1.86.3,1.85.31Z"/><path class="cls-6" d="M81,35c-3.86,1-9.55-1.77-9.55-1.77s3.8-4.43,7.07-4.77,8.92,2.28,8.92,2.28A13.44,13.44,0,0,1,81,35Z"/><path class="cls-7" d="M83.86,34.37a.82.82,0,0,0-.09.79,4.16,4.16,0,0,0,1.4,1.12l.09-.71s-.3-.2-.33-.38a.41.41,0,0,1,0-.27Z"/><path class="cls-7" d="M86.19,30.83a30.4,30.4,0,0,0-6.45.06c-3,.43-7.52,1.87-7.47,2.07s5-1.64,7.37-1.8,6.73,0,6.73,0Z"/><path class="cls-7" d="M84.68,30.94a3.36,3.36,0,0,1-.63,1.18A8.47,8.47,0,0,0,83,33.8a9.93,9.93,0,0,0,1.25-1.57C84.58,31.71,85,31,85,31Z"/><path class="cls-7" d="M81.68,31A5.29,5.29,0,0,1,81,32.88c-.66,1.36-.93,1.75-.76,1.78s.65-1,1-1.74.84-2,.84-2Z"/><path class="cls-7" d="M78.76,31.24a3.72,3.72,0,0,1-.22,1.42c-.3,1-.66,1.57-.53,1.64s.48-.86.69-1.59.5-1.62.5-1.62Z"/><path class="cls-7" d="M75.63,32a2.39,2.39,0,0,1-.16.84c-.18.52-.47,1-.39,1a1.79,1.79,0,0,0,.54-.92c.13-.46.27-1,.27-1Z"/><path class="cls-7" d="M85,30.86a4.19,4.19,0,0,0-1.13-1.09,3.56,3.56,0,0,0-1.46-.59c-.07.07.83.33,1.16.54a12.41,12.41,0,0,1,1.18,1.13Z"/><path class="cls-7" d="M82,30.77A2.91,2.91,0,0,0,81,29.54a4.57,4.57,0,0,0-2-.8c-.2.07,1.5.49,1.88.87a4.1,4.1,0,0,1,.69,1.2Z"/><path class="cls-7" d="M79.2,31.09A6.42,6.42,0,0,0,77.81,30a6,6,0,0,0-1.66-.43c-.2,0,1.28.33,1.69.62a8.84,8.84,0,0,1,1,1Z"/><path class="cls-7" d="M75.62,31.89s0-.24-.73-.5S73.83,31,74,31a5.09,5.09,0,0,1,.91.24,5.81,5.81,0,0,1,1.07.61Z"/><path class="cls-3" d="M91.29,45.56c3,2.2,6.91,9.14,2.29,14.86s-11.37,6-16.46,2.69A11.48,11.48,0,0,1,75.69,45C80.84,40.08,86.79,42.25,91.29,45.56Z"/><path class="cls-4" d="M78.8,44.75h0Z"/><path class="cls-4" d="M79.5,45.47c.34-.17.74-.53.41-.85s-.78.05-1.09.12C78.38,45.14,78.56,45.92,79.5,45.47Z"/><path class="cls-4" d="M78.82,44.74l.53-.21A.85.85,0,0,0,78.82,44.74Z"/><path class="cls-4" d="M77.86,46.27c.14-.09.31-.29.14-.44a.22.22,0,0,0-.33.08.41.41,0,0,0-.22.28C77.42,46.49,77.73,46.37,77.86,46.27Z"/><path class="cls-4" d="M80.15,46.09a.35.35,0,0,0-.33,0c-.16,0-.35.09-.38.21a.28.28,0,0,0,0,.08l0,0,0,0c0,.14.38,0,.51,0S80.42,46.24,80.15,46.09Z"/><path class="cls-4" d="M79.39,46.43h0Z"/><path class="cls-4" d="M80.88,45.31c-.15,0-.32.21-.23.36s.44.09.56,0C81.72,45.41,81.07,45.2,80.88,45.31Z"/><path class="cls-4" d="M81.51,44.38c-.1,0-.29-.06-.37,0a.15.15,0,0,0,0,.18c0,.1.18.2.25.23s.92.33,1,.07S81.7,44.41,81.51,44.38Z"/><path class="cls-4" d="M80.68,43.87c.15.08.71.06.77-.17s-.3-.27-.45-.25a.52.52,0,0,0-.24.13C80.61,43.66,80.5,43.77,80.68,43.87Z"/><path class="cls-4" d="M78,45.19c.29-.22,0-.34-.22-.29h0c-.13,0-.46.15-.37.33S77.85,45.27,78,45.19Z"/><path class="cls-4" d="M76.74,46.57c.11-.12.44-.67.06-.69a.26.26,0,0,0-.19.1,1.06,1.06,0,0,0-.39.54C76.07,47,76.55,46.79,76.74,46.57Z"/><path class="cls-4" d="M78.79,46.73a.68.68,0,0,0-.5,0,1,1,0,0,0-.67.51c-.12.52.79.15,1,.08S79.22,46.88,78.79,46.73Z"/><path class="cls-4" d="M80.32,47.13c-.15,0-.3.17-.3.29s.52.18.67.11C81.25,47.27,80.52,47,80.32,47.13Z"/><path class="cls-4" d="M83.9,44.25a.27.27,0,0,0-.25.1.69.69,0,0,0,1,0A.58.58,0,0,0,83.9,44.25Z"/><path class="cls-4" d="M82.43,45.59c.31.11,1.16.17,1.23-.27a.72.72,0,0,0-.68-.08C82.71,45.22,82.43,45.31,82.43,45.59Z"/><path class="cls-4" d="M83,43.29a.44.44,0,0,0-.62-.06.3.3,0,0,0-.15.18A.59.59,0,0,0,83,43.29Z"/><path class="cls-4" d="M85.35,45.12c-.63,0,.18.81.53.55S85.6,45,85.35,45.12Z"/><path class="cls-4" d="M76.42,47.71c-.19-.15-.36,0-.47.18-.42.27-.92.91-.52,1.06S76.41,48.06,76.42,47.71Z"/><path class="cls-4" d="M75.27,46.89c-.54.1-.29,1,.23.39C75.82,46.9,75.49,46.77,75.27,46.89Z"/><path class="cls-4" d="M78.34,48.54a.28.28,0,0,0-.2.25c.2.14.74.16.87-.11S78.52,48.23,78.34,48.54Z"/><path class="cls-4" d="M83.13,47.06l0,0a.43.43,0,0,0,0,.11s0,.1,0,.11c.12.3.74.31.62-.06S83.28,46.92,83.13,47.06Z"/><path class="cls-4" d="M88.69,46.28c-.37-.5-1.12,0-.65.16C88.32,46.64,89.05,46.77,88.69,46.28Z"/><path class="cls-4" d="M75.74,51.07l.08-.14a.89.89,0,0,0-.4.64c.21,0,.85-.37.83-.65S75.93,50.8,75.74,51.07Z"/><path class="cls-4" d="M81.42,49.65a.16.16,0,0,0,.21.05c.26,0,.74,0,.54-.32S81.49,49.43,81.42,49.65Z"/><path class="cls-4" d="M73.58,49.37a.4.4,0,0,0,0,.22c.32.11,1.13,0,.86-.51S73.67,49,73.58,49.37Z"/><path class="cls-4" d="M74.7,48h0a.27.27,0,0,0-.33.26.4.4,0,0,0,.56-.21A.34.34,0,0,0,74.7,48Z"/><path class="cls-5" d="M75.75,59.33c-1.18.86,4.8,5.19,8.69,5a11.45,11.45,0,0,0,9.4-6c1-2.14.67-8.23-.62-7.8-.46.15.11,2.21-1.78,5.34-1.65,2.75-4.47,5.45-8.21,5.27C78.11,60.92,76.53,58.76,75.75,59.33Z"/><path class="cls-6" d="M88.57,44.27a.54.54,0,0,0-.49.83c.33.8,2.27,2.1,2.83,1.88s.59-.87-.23-1.49A4.61,4.61,0,0,0,88.57,44.27Z"/><path class="cls-6" d="M89.58,45.34s2.26-2.34,2.91-3.22a41.89,41.89,0,0,0,2.14-4.23.55.55,0,0,1,.48-.24c.27.05.19.47.19.47s-1.57,3.22-2.21,4.11c-1.3,1.81-3,3.77-3,3.77Z"/><path class="cls-6" d="M93.53,40.93c-.14,0-3.73-.47-3.73-.47l-.14.21,1.85.31,1.85.3Z"/><path class="cls-6" d="M85.75,45.13c-3.85,1-9.55-1.76-9.55-1.76S80,38.93,83.27,38.6s8.93,2.27,8.93,2.27A13.44,13.44,0,0,1,85.75,45.13Z"/><path class="cls-7" d="M88.6,44.5a.8.8,0,0,0-.08.79c.27.55,1.4,1.12,1.4,1.12l.09-.7s-.3-.21-.33-.39a.41.41,0,0,1,0-.27Z"/><path class="cls-7" d="M90.94,41a30.48,30.48,0,0,0-6.46.06c-3,.44-7.52,1.87-7.46,2.07s5-1.64,7.36-1.8,6.74,0,6.74,0Z"/><path class="cls-7" d="M89.42,41.07a3.41,3.41,0,0,1-.62,1.18,8.25,8.25,0,0,0-1.09,1.68A10.76,10.76,0,0,0,89,42.37c.35-.53.81-1.27.81-1.27Z"/><path class="cls-7" d="M86.43,41.1A5.29,5.29,0,0,1,85.77,43c-.67,1.36-.93,1.76-.77,1.79s.66-1,1-1.75.85-2,.85-2Z"/><path class="cls-7" d="M83.51,41.37a3.63,3.63,0,0,1-.23,1.42c-.3,1-.66,1.58-.52,1.64s.48-.86.68-1.59.5-1.62.5-1.62Z"/><path class="cls-7" d="M80.38,42.11a2.36,2.36,0,0,1-.16.84c-.19.52-.48,1-.39,1a1.83,1.83,0,0,0,.53-.91l.28-1Z"/><path class="cls-7" d="M89.78,41a4.25,4.25,0,0,0-1.13-1.08,3.53,3.53,0,0,0-1.46-.6c-.08.07.83.33,1.15.54A12.62,12.62,0,0,1,89.53,41Z"/><path class="cls-7" d="M86.7,40.9a2.85,2.85,0,0,0-.92-1.22,4.44,4.44,0,0,0-2.06-.8c-.19.06,1.5.49,1.88.86A4.36,4.36,0,0,1,86.3,41Z"/><path class="cls-7" d="M83.94,41.22a6.6,6.6,0,0,0-1.38-1.09,5.66,5.66,0,0,0-1.66-.42c-.2,0,1.27.32,1.68.61a9.25,9.25,0,0,1,1,1Z"/><path class="cls-7" d="M80.37,42s-.05-.25-.73-.5-1.07-.43-.92-.43a4.57,4.57,0,0,1,.91.23,6.29,6.29,0,0,1,1.08.61Z"/><path class="cls-3" d="M71.54,46.12c3,2.19,6.92,9.14,2.29,14.85s-11.37,6-16.46,2.7a11.49,11.49,0,0,1-1.43-18.14C61.09,40.64,67,42.81,71.54,46.12Z"/><path class="cls-4" d="M59.06,45.3h0Z"/><path class="cls-4" d="M59.75,46c.35-.16.74-.52.41-.84s-.78,0-1.09.12C58.63,45.7,58.82,46.48,59.75,46Z"/><path class="cls-4" d="M59.07,45.3l.54-.21A.83.83,0,0,0,59.07,45.3Z"/><path class="cls-4" d="M58.12,46.83c.13-.1.31-.3.13-.44a.22.22,0,0,0-.33.07.44.44,0,0,0-.22.29C57.67,47,58,46.93,58.12,46.83Z"/><path class="cls-4" d="M60.4,46.65a.35.35,0,0,0-.33,0c-.15,0-.35.08-.38.21a.25.25,0,0,0,0,.08l0,0,0,0c0,.15.39,0,.51,0S60.67,46.79,60.4,46.65Z"/><path class="cls-4" d="M59.64,47h0Z"/><path class="cls-4" d="M61.14,45.86c-.15,0-.32.22-.24.36s.44.09.57,0C62,46,61.32,45.75,61.14,45.86Z"/><path class="cls-4" d="M61.76,44.94c-.1,0-.29-.06-.37,0a.15.15,0,0,0,0,.18c0,.1.18.19.25.23s.91.32,1,.06S62,45,61.76,44.94Z"/><path class="cls-4" d="M60.93,44.42c.16.09.72.06.77-.16s-.3-.28-.45-.26a.61.61,0,0,0-.24.14C60.86,44.21,60.75,44.33,60.93,44.42Z"/><path class="cls-4" d="M58.22,45.75c.29-.22,0-.34-.23-.3h0c-.13,0-.46.14-.37.32S58.1,45.83,58.22,45.75Z"/><path class="cls-4" d="M57,47.13c.1-.13.44-.67.06-.69a.26.26,0,0,0-.2.1,1.15,1.15,0,0,0-.39.53C56.33,47.57,56.81,47.35,57,47.13Z"/><path class="cls-4" d="M59.05,47.28a.76.76,0,0,0-.51,0,1,1,0,0,0-.66.52c-.13.52.78.14,1,.08S59.47,47.44,59.05,47.28Z"/><path class="cls-4" d="M60.57,47.69c-.14.05-.3.17-.3.29s.52.18.67.11C61.5,47.83,60.77,47.58,60.57,47.69Z"/><path class="cls-4" d="M64.16,44.81a.23.23,0,0,0-.25.1.69.69,0,0,0,1,0A.57.57,0,0,0,64.16,44.81Z"/><path class="cls-4" d="M62.68,46.15c.31.11,1.16.16,1.23-.28a.75.75,0,0,0-.68-.08C63,45.78,62.68,45.87,62.68,46.15Z"/><path class="cls-4" d="M63.29,43.85a.44.44,0,0,0-.62-.06.28.28,0,0,0-.15.18A.59.59,0,0,0,63.29,43.85Z"/><path class="cls-4" d="M65.6,45.68c-.62,0,.19.81.53.55S65.85,45.52,65.6,45.68Z"/><path class="cls-4" d="M56.67,48.27c-.19-.15-.36,0-.47.18-.42.27-.92.91-.52,1.06S56.66,48.62,56.67,48.27Z"/><path class="cls-4" d="M55.52,47.45c-.54.1-.28,1,.23.38C56.07,47.45,55.74,47.33,55.52,47.45Z"/><path class="cls-4" d="M58.59,49.1a.28.28,0,0,0-.2.24c.21.15.74.16.88-.1S58.77,48.79,58.59,49.1Z"/><path class="cls-4" d="M63.39,47.62l0,0a.27.27,0,0,0,0,.12c0,.05,0,.09,0,.11.11.3.73.31.61-.07S63.53,47.48,63.39,47.62Z"/><path class="cls-4" d="M68.94,46.83c-.36-.5-1.12,0-.64.16C68.58,47.19,69.3,47.33,68.94,46.83Z"/><path class="cls-4" d="M56,51.62l.08-.13a.9.9,0,0,0-.4.63c.21.06.85-.36.83-.64S56.18,51.35,56,51.62Z"/><path class="cls-4" d="M61.67,50.21a.14.14,0,0,0,.21,0c.26,0,.74,0,.54-.31S61.74,50,61.67,50.21Z"/><path class="cls-4" d="M53.83,49.92a.53.53,0,0,0,0,.22c.32.11,1.14,0,.87-.51S53.93,49.55,53.83,49.92Z"/><path class="cls-4" d="M55,48.56h0c-.2,0-.32.07-.33.26a.39.39,0,0,0,.55-.21A.35.35,0,0,0,55,48.56Z"/><path class="cls-5" d="M56,59.88c-1.17.86,4.8,5.2,8.69,5.05a11.47,11.47,0,0,0,9.4-6c1-2.15.67-8.23-.62-7.81-.45.15.11,2.22-1.78,5.35-1.65,2.74-4.47,5.45-8.21,5.26C58.37,61.48,56.78,59.31,56,59.88Z"/><path class="cls-6" d="M68.82,44.82a.55.55,0,0,0-.48.84c.32.8,2.27,2.1,2.83,1.88s.58-.87-.23-1.5A4.83,4.83,0,0,0,68.82,44.82Z"/><path class="cls-6" d="M69.84,45.89s2.26-2.34,2.9-3.22a39.9,39.9,0,0,0,2.14-4.22s.2-.3.48-.25.2.47.2.47S74,41.9,73.34,42.79c-1.3,1.8-3,3.77-3,3.77Z"/><path class="cls-6" d="M73.78,41.49c-.14,0-3.73-.48-3.73-.48l-.14.22,1.86.3,1.85.31Z"/><path class="cls-6" d="M66,45.69c-3.86,1-9.55-1.77-9.55-1.77s3.8-4.43,7.06-4.77,8.93,2.27,8.93,2.27A13.43,13.43,0,0,1,66,45.69Z"/><path class="cls-7" d="M68.85,45.06a.83.83,0,0,0-.08.79A4.16,4.16,0,0,0,70.17,47l.09-.71s-.3-.2-.33-.38a.41.41,0,0,1,0-.27Z"/><path class="cls-7" d="M71.19,41.52a30.48,30.48,0,0,0-6.46.06c-3,.43-7.51,1.87-7.46,2.07s4.95-1.64,7.37-1.8,6.73,0,6.73,0Z"/><path class="cls-7" d="M69.68,41.63a3.36,3.36,0,0,1-.63,1.18A8.47,8.47,0,0,0,68,44.49a10.55,10.55,0,0,0,1.25-1.57c.35-.52.81-1.26.81-1.26Z"/><path class="cls-7" d="M66.68,41.65A5.29,5.29,0,0,1,66,43.57c-.66,1.36-.93,1.75-.77,1.78s.66-1,1-1.74.85-2,.85-2Z"/><path class="cls-7" d="M63.76,41.93a3.65,3.65,0,0,1-.23,1.42c-.29,1-.66,1.57-.52,1.64s.48-.86.68-1.59.5-1.62.5-1.62Z"/><path class="cls-7" d="M60.63,42.67a2.39,2.39,0,0,1-.16.84c-.18.52-.47,1-.39,1a1.79,1.79,0,0,0,.54-.92c.13-.46.27-1,.27-1Z"/><path class="cls-7" d="M70,41.55a4.38,4.38,0,0,0-1.13-1.09,3.56,3.56,0,0,0-1.46-.59c-.07.07.83.33,1.15.54a10.61,10.61,0,0,1,1.19,1.13Z"/><path class="cls-7" d="M67,41.46A2.91,2.91,0,0,0,66,40.23a4.56,4.56,0,0,0-2.06-.8c-.19.07,1.51.49,1.89.87a4.1,4.1,0,0,1,.69,1.2Z"/><path class="cls-7" d="M64.19,41.78a6.54,6.54,0,0,0-1.38-1.1,6.29,6.29,0,0,0-1.66-.42c-.2,0,1.27.33,1.69.62a9.06,9.06,0,0,1,1,1Z"/><path class="cls-7" d="M60.62,42.58s0-.24-.73-.5-1.06-.42-.92-.43a4.69,4.69,0,0,1,.91.24A5.66,5.66,0,0,1,61,42.5Z"/><path class="cls-3" d="M52.63,28.32c3,2.19,6.91,9.14,2.29,14.85s-11.37,6-16.46,2.7A11.49,11.49,0,0,1,37,27.73C42.18,22.84,48.13,25,52.63,28.32Z"/><path class="cls-4" d="M40.14,27.5h0Z"/><path class="cls-4" d="M40.84,28.22c.34-.17.74-.52.41-.84s-.78,0-1.09.12C39.72,27.9,39.9,28.68,40.84,28.22Z"/><path class="cls-4" d="M40.16,27.5l.53-.21A.8.8,0,0,0,40.16,27.5Z"/><path class="cls-4" d="M39.2,29c.14-.1.31-.3.14-.44a.24.24,0,0,0-.34.07.46.46,0,0,0-.21.29C38.76,29.24,39.07,29.13,39.2,29Z"/><path class="cls-4" d="M41.49,28.85a.35.35,0,0,0-.33,0c-.16,0-.35.08-.39.21s0,.06,0,.08l-.05,0,.05,0c0,.15.38,0,.51,0S41.76,29,41.49,28.85Z"/><path class="cls-4" d="M40.72,29.18h0Z"/><path class="cls-4" d="M42.22,28.06c-.15.05-.32.22-.23.36s.44.09.56,0C43.06,28.16,42.41,28,42.22,28.06Z"/><path class="cls-4" d="M42.85,27.14c-.1,0-.29-.06-.37,0a.15.15,0,0,0,0,.18c0,.1.18.19.25.23s.92.32,1,.06S43,27.17,42.85,27.14Z"/><path class="cls-4" d="M42,26.62c.15.08.71.06.77-.16s-.3-.28-.45-.26a.55.55,0,0,0-.24.14C42,26.41,41.84,26.52,42,26.62Z"/><path class="cls-4" d="M39.3,28c.29-.22,0-.34-.22-.3h0c-.13,0-.46.14-.38.32S39.19,28,39.3,28Z"/><path class="cls-4" d="M38.08,29.33c.11-.13.44-.67.06-.69a.23.23,0,0,0-.19.1,1.08,1.08,0,0,0-.39.53C37.41,29.77,37.89,29.55,38.08,29.33Z"/><path class="cls-4" d="M40.13,29.48a.74.74,0,0,0-.5,0c-.28.08-.62.31-.67.52-.12.52.79.14,1,.08S40.56,29.64,40.13,29.48Z"/><path class="cls-4" d="M41.66,29.89c-.15.05-.3.17-.3.29s.52.18.67.11C42.59,30,41.86,29.78,41.66,29.89Z"/><path class="cls-4" d="M45.24,27a.25.25,0,0,0-.25.1.7.7,0,0,0,1,0A.59.59,0,0,0,45.24,27Z"/><path class="cls-4" d="M43.77,28.35c.31.11,1.16.16,1.23-.28a.75.75,0,0,0-.68-.08C44.05,28,43.77,28.07,43.77,28.35Z"/><path class="cls-4" d="M44.38,26.05a.44.44,0,0,0-.62-.06.28.28,0,0,0-.15.18A.59.59,0,0,0,44.38,26.05Z"/><path class="cls-4" d="M46.69,27.88c-.63,0,.18.81.53.55S46.94,27.71,46.69,27.88Z"/><path class="cls-4" d="M37.76,30.47c-.19-.15-.36,0-.47.18-.42.27-.92.9-.52,1.06S37.75,30.82,37.76,30.47Z"/><path class="cls-4" d="M36.61,29.65c-.54.1-.29,1,.23.38C37.16,29.65,36.83,29.53,36.61,29.65Z"/><path class="cls-4" d="M39.68,31.3a.27.27,0,0,0-.2.24c.2.15.74.16.87-.11S39.86,31,39.68,31.3Z"/><path class="cls-4" d="M44.47,29.82l0-.05a.52.52,0,0,0,0,.11c0,.06,0,.1,0,.12.12.29.74.31.62-.07S44.62,29.68,44.47,29.82Z"/><path class="cls-4" d="M50,29c-.37-.5-1.12,0-.65.16C49.66,29.39,50.39,29.53,50,29Z"/><path class="cls-4" d="M37.08,33.82l.08-.13a.87.87,0,0,0-.4.63c.21.06.85-.36.83-.64S37.27,33.55,37.08,33.82Z"/><path class="cls-4" d="M42.76,32.4c.08.1.14.09.21.05.26,0,.74,0,.54-.31S42.83,32.18,42.76,32.4Z"/><path class="cls-4" d="M34.92,32.12a.41.41,0,0,0,0,.22c.32.11,1.13,0,.86-.51S35,31.75,34.92,32.12Z"/><path class="cls-4" d="M36,30.76h0a.27.27,0,0,0-.33.26.4.4,0,0,0,.56-.21A.36.36,0,0,0,36,30.76Z"/><path class="cls-5" d="M37.09,42.08c-1.18.86,4.8,5.2,8.69,5a11.44,11.44,0,0,0,9.4-6c1-2.15.67-8.23-.62-7.81-.46.15.11,2.22-1.78,5.35-1.65,2.74-4.47,5.45-8.21,5.26C39.45,43.68,37.86,41.51,37.09,42.08Z"/><path class="cls-6" d="M49.91,27a.55.55,0,0,0-.49.84c.33.8,2.27,2.1,2.83,1.88s.59-.87-.23-1.5A4.86,4.86,0,0,0,49.91,27Z"/><path class="cls-6" d="M50.92,28.09s2.26-2.34,2.91-3.22A42,42,0,0,0,56,20.65s.2-.3.48-.25.19.47.19.47S55.07,24.1,54.43,25c-1.3,1.8-3,3.77-3,3.77Z"/><path class="cls-6" d="M54.87,23.69c-.14,0-3.74-.48-3.74-.48l-.13.22,1.85.3L54.7,24Z"/><path class="cls-6" d="M47.09,27.89c-3.85,1-9.55-1.77-9.55-1.77s3.81-4.43,7.07-4.77,8.93,2.27,8.93,2.27A13.42,13.42,0,0,1,47.09,27.89Z"/><path class="cls-7" d="M49.94,27.26a.8.8,0,0,0-.08.79,4.06,4.06,0,0,0,1.4,1.12l.09-.71s-.3-.2-.33-.38a.39.39,0,0,1,0-.27Z"/><path class="cls-7" d="M52.28,23.72a30.48,30.48,0,0,0-6.46.06c-3,.43-7.52,1.87-7.46,2.07s4.94-1.64,7.36-1.8,6.74,0,6.74,0Z"/><path class="cls-7" d="M50.76,23.83A3.41,3.41,0,0,1,50.14,25a8.25,8.25,0,0,0-1.09,1.68,10.43,10.43,0,0,0,1.26-1.57c.35-.52.81-1.27.81-1.27Z"/><path class="cls-7" d="M47.77,23.85a5.29,5.29,0,0,1-.66,1.92c-.67,1.36-.93,1.75-.77,1.78s.66-1,1-1.74.85-2,.85-2Z"/><path class="cls-7" d="M44.85,24.13a3.65,3.65,0,0,1-.23,1.42c-.3,1-.66,1.57-.52,1.64s.48-.86.68-1.59.5-1.62.5-1.62Z"/><path class="cls-7" d="M41.72,24.87a2.39,2.39,0,0,1-.16.84c-.19.52-.48,1-.39,1a1.93,1.93,0,0,0,.53-.92l.28-1Z"/><path class="cls-7" d="M51.12,23.75A4.38,4.38,0,0,0,50,22.66a3.46,3.46,0,0,0-1.46-.59c-.08.07.83.33,1.15.53a12.62,12.62,0,0,1,1.19,1.14Z"/><path class="cls-7" d="M48,23.66a2.91,2.91,0,0,0-.92-1.23,4.56,4.56,0,0,0-2.06-.8c-.19.07,1.5.49,1.88.87a4.22,4.22,0,0,1,.7,1.2Z"/><path class="cls-7" d="M45.28,24a6.54,6.54,0,0,0-1.38-1.1,6.39,6.39,0,0,0-1.66-.42c-.2,0,1.27.33,1.68.62a9.48,9.48,0,0,1,1,1Z"/><path class="cls-7" d="M41.71,24.78s-.05-.24-.73-.5-1.07-.43-.92-.43a4.88,4.88,0,0,1,.91.24A5.46,5.46,0,0,1,42,24.7Z"/><path class="cls-3" d="M26.15,44c-3,2.2-6.91,9.14-2.29,14.86s11.37,6.05,16.47,2.69a11.48,11.48,0,0,0,1.42-18.13C36.61,38.53,30.65,40.7,26.15,44Z"/><path class="cls-4" d="M38.64,43.2h0Z"/><path class="cls-4" d="M38,43.92c-.35-.17-.75-.53-.42-.85s.78,0,1.1.13C39.06,43.59,38.88,44.37,38,43.92Z"/><path class="cls-4" d="M38.62,43.19,38.09,43A.83.83,0,0,1,38.62,43.19Z"/><path class="cls-4" d="M39.58,44.72c-.13-.09-.31-.29-.14-.44a.23.23,0,0,1,.34.08.41.41,0,0,1,.21.28C40,44.94,39.72,44.82,39.58,44.72Z"/><path class="cls-4" d="M37.29,44.54a.35.35,0,0,1,.33,0c.16,0,.35.09.39.21a.14.14,0,0,1,0,.09l.05,0-.05,0c0,.14-.38,0-.51,0S37,44.69,37.29,44.54Z"/><path class="cls-4" d="M38.06,44.88h0Z"/><path class="cls-4" d="M36.56,43.76c.15,0,.32.21.23.36s-.44.09-.56,0C35.73,43.86,36.37,43.65,36.56,43.76Z"/><path class="cls-4" d="M35.93,42.84c.11,0,.29-.07.37,0a.15.15,0,0,1,0,.18c0,.11-.18.2-.25.23s-.92.33-1,.07S35.74,42.86,35.93,42.84Z"/><path class="cls-4" d="M36.76,42.32c-.15.08-.71.06-.77-.17s.31-.27.45-.25a.48.48,0,0,1,.24.13C36.83,42.11,36.94,42.22,36.76,42.32Z"/><path class="cls-4" d="M39.48,43.64c-.29-.22,0-.34.22-.29h0c.14,0,.47.15.38.33S39.59,43.72,39.48,43.64Z"/><path class="cls-4" d="M40.7,45c-.11-.12-.44-.67-.06-.69a.3.3,0,0,1,.2.1,1,1,0,0,1,.38.54C41.37,45.47,40.89,45.24,40.7,45Z"/><path class="cls-4" d="M38.65,45.18a.68.68,0,0,1,.5,0,1,1,0,0,1,.67.51c.12.52-.79.15-1,.08S38.23,45.33,38.65,45.18Z"/><path class="cls-4" d="M37.12,45.58c.15.05.31.17.3.29s-.52.18-.67.11C36.19,45.72,36.93,45.47,37.12,45.58Z"/><path class="cls-4" d="M33.54,42.7a.25.25,0,0,1,.25.1.69.69,0,0,1-1,0A.59.59,0,0,1,33.54,42.7Z"/><path class="cls-4" d="M35,44c-.32.11-1.17.17-1.24-.27a.74.74,0,0,1,.69-.08C34.73,43.67,35,43.76,35,44Z"/><path class="cls-4" d="M34.4,41.74a.44.44,0,0,1,.62-.06.27.27,0,0,1,.15.18A.59.59,0,0,1,34.4,41.74Z"/><path class="cls-4" d="M32.09,43.57c.63,0-.18.81-.53.55S31.84,43.41,32.09,43.57Z"/><path class="cls-4" d="M41,46.16c.2-.15.36,0,.47.18.42.27.93.91.52,1.06S41,46.51,41,46.16Z"/><path class="cls-4" d="M42.17,45.34c.55.1.29,1-.22.39C41.63,45.35,42,45.22,42.17,45.34Z"/><path class="cls-4" d="M39.1,47a.28.28,0,0,1,.2.25c-.2.14-.74.16-.87-.11S38.92,46.68,39.1,47Z"/><path class="cls-4" d="M34.31,45.51l0,0a.43.43,0,0,1,0,.11c0,.05,0,.1,0,.12-.12.29-.73.3-.62-.07S34.16,45.37,34.31,45.51Z"/><path class="cls-4" d="M28.75,44.73c.37-.5,1.12,0,.65.16C29.12,45.09,28.39,45.22,28.75,44.73Z"/><path class="cls-4" d="M41.7,49.52l-.07-.14A1,1,0,0,1,42,50c-.22,0-.85-.37-.84-.65S41.51,49.25,41.7,49.52Z"/><path class="cls-4" d="M36,48.1a.17.17,0,0,1-.22,0c-.26,0-.74,0-.54-.32S36,47.88,36,48.1Z"/><path class="cls-4" d="M43.86,47.82a.4.4,0,0,1,0,.22c-.32.11-1.13,0-.86-.51S43.77,47.44,43.86,47.82Z"/><path class="cls-4" d="M42.75,46.46h0a.27.27,0,0,1,.33.26.4.4,0,0,1-.56-.21A.36.36,0,0,1,42.75,46.46Z"/><path class="cls-5" d="M41.69,57.78c1.18.86-4.8,5.19-8.68,5a11.45,11.45,0,0,1-9.41-6c-1-2.14-.67-8.23.62-7.8.46.15-.1,2.21,1.78,5.34,1.65,2.75,4.48,5.45,8.21,5.27C39.33,59.38,40.92,57.21,41.69,57.78Z"/><path class="cls-6" d="M28.87,42.72a.54.54,0,0,1,.49.83c-.32.8-2.27,2.1-2.83,1.88s-.59-.87.23-1.49A4.66,4.66,0,0,1,28.87,42.72Z"/><path class="cls-6" d="M27.86,43.79S25.6,41.45,25,40.57a41.89,41.89,0,0,1-2.14-4.23s-.2-.29-.47-.24-.2.47-.2.47,1.58,3.22,2.21,4.11c1.3,1.81,3,3.78,3,3.78Z"/><path class="cls-6" d="M23.92,39.38c.13,0,3.73-.47,3.73-.47l.13.21-1.85.31-1.85.3Z"/><path class="cls-6" d="M31.69,43.59c3.85,1,9.55-1.77,9.55-1.77s-3.81-4.44-7.07-4.77-8.93,2.27-8.93,2.27A13.5,13.5,0,0,0,31.69,43.59Z"/><path class="cls-7" d="M28.84,43a.81.81,0,0,1,.09.79,4.09,4.09,0,0,1-1.4,1.11l-.1-.7s.3-.21.33-.38a.39.39,0,0,0,0-.27Z"/><path class="cls-7" d="M26.5,39.41a30.48,30.48,0,0,1,6.46.06c3,.44,7.52,1.87,7.46,2.07s-4.94-1.64-7.36-1.8-6.74,0-6.74,0Z"/><path class="cls-7" d="M28,39.52a3.41,3.41,0,0,0,.62,1.18,8.56,8.56,0,0,1,1.09,1.68,10.21,10.21,0,0,1-1.25-1.56c-.36-.53-.82-1.27-.82-1.27Z"/><path class="cls-7" d="M31,39.55a5.23,5.23,0,0,0,.67,1.91c.66,1.36.92,1.76.76,1.79s-.66-1-1-1.75-.85-2-.85-2Z"/><path class="cls-7" d="M33.93,39.82a3.63,3.63,0,0,0,.23,1.42c.3,1,.66,1.58.52,1.64S34.2,42,34,41.29s-.5-1.62-.5-1.62Z"/><path class="cls-7" d="M37.07,40.56a2.11,2.11,0,0,0,.16.84c.18.52.47,1,.38,1a1.83,1.83,0,0,1-.53-.91l-.28-1Z"/><path class="cls-7" d="M27.66,39.44a4.25,4.25,0,0,1,1.13-1.08,3.53,3.53,0,0,1,1.46-.6c.08.07-.83.33-1.15.54a12.23,12.23,0,0,0-1.18,1.14Z"/><path class="cls-7" d="M30.74,39.35a2.85,2.85,0,0,1,.92-1.22,4.48,4.48,0,0,1,2.06-.8c.19.06-1.5.49-1.88.86a4.23,4.23,0,0,0-.69,1.21Z"/><path class="cls-7" d="M33.5,39.67a6.9,6.9,0,0,1,1.38-1.09,5.63,5.63,0,0,1,1.67-.42,17.77,17.77,0,0,0-1.69.62,9.48,9.48,0,0,0-1,1Z"/><path class="cls-7" d="M37.07,40.48s0-.25.73-.5,1.07-.43.92-.43a4.57,4.57,0,0,0-.91.23,6.06,6.06,0,0,0-1.07.61Z"/><path class="cls-3" d="M55.13,46.12c3,2.19,6.92,9.14,2.29,14.85S46.05,67,41,63.67a11.48,11.48,0,0,1-1.42-18.14C44.68,40.64,50.63,42.81,55.13,46.12Z"/><path class="cls-4" d="M42.65,45.3h0Z"/><path class="cls-4" d="M43.34,46c.35-.16.74-.52.41-.84s-.78,0-1.09.12C42.23,45.7,42.41,46.48,43.34,46Z"/><path class="cls-4" d="M42.66,45.3l.54-.21A.83.83,0,0,0,42.66,45.3Z"/><path class="cls-4" d="M41.71,46.83c.13-.1.31-.3.13-.44a.22.22,0,0,0-.33.07.44.44,0,0,0-.22.29C41.26,47,41.57,46.93,41.71,46.83Z"/><path class="cls-4" d="M44,46.65a.35.35,0,0,0-.33,0c-.15,0-.35.08-.38.21a.25.25,0,0,0,0,.08l0,0,0,0c0,.15.39,0,.51,0S44.26,46.79,44,46.65Z"/><path class="cls-4" d="M43.23,47h0Z"/><path class="cls-4" d="M44.73,45.86c-.15,0-.32.22-.24.36s.44.09.57,0C45.56,46,44.91,45.75,44.73,45.86Z"/><path class="cls-4" d="M45.35,44.94c-.1,0-.29-.06-.37,0a.15.15,0,0,0,0,.18c0,.1.18.19.25.23s.91.32,1,.06S45.54,45,45.35,44.94Z"/><path class="cls-4" d="M44.52,44.42c.16.09.72.06.77-.16S45,44,44.84,44a.61.61,0,0,0-.24.14C44.45,44.21,44.34,44.33,44.52,44.42Z"/><path class="cls-4" d="M41.81,45.75c.29-.22,0-.34-.23-.3h0c-.13,0-.46.14-.37.32S41.69,45.83,41.81,45.75Z"/><path class="cls-4" d="M40.59,47.13c.11-.13.44-.67.06-.69a.26.26,0,0,0-.2.1,1.15,1.15,0,0,0-.39.53C39.92,47.57,40.4,47.35,40.59,47.13Z"/><path class="cls-4" d="M42.64,47.28a.76.76,0,0,0-.51,0,1,1,0,0,0-.66.52c-.13.52.78.14,1,.08S43.06,47.44,42.64,47.28Z"/><path class="cls-4" d="M44.16,47.69c-.14.05-.3.17-.3.29s.52.18.67.11C45.09,47.83,44.36,47.58,44.16,47.69Z"/><path class="cls-4" d="M47.75,44.81a.23.23,0,0,0-.25.1.69.69,0,0,0,1,0A.57.57,0,0,0,47.75,44.81Z"/><path class="cls-4" d="M46.27,46.15c.31.11,1.16.16,1.23-.28a.75.75,0,0,0-.68-.08C46.55,45.78,46.27,45.87,46.27,46.15Z"/><path class="cls-4" d="M46.88,43.85a.44.44,0,0,0-.62-.06.28.28,0,0,0-.15.18A.59.59,0,0,0,46.88,43.85Z"/><path class="cls-4" d="M49.19,45.68c-.62,0,.19.81.53.55S49.44,45.52,49.19,45.68Z"/><path class="cls-4" d="M40.26,48.27c-.19-.15-.36,0-.47.18-.42.27-.92.91-.52,1.06S40.25,48.62,40.26,48.27Z"/><path class="cls-4" d="M39.11,47.45c-.54.1-.28,1,.23.38C39.66,47.45,39.33,47.33,39.11,47.45Z"/><path class="cls-4" d="M42.18,49.1a.28.28,0,0,0-.2.24c.21.15.74.16.88-.1S42.36,48.79,42.18,49.1Z"/><path class="cls-4" d="M47,47.62l0,0a.27.27,0,0,0,0,.12c0,.05,0,.09,0,.11.11.3.73.31.61-.07S47.12,47.48,47,47.62Z"/><path class="cls-4" d="M52.53,46.83c-.36-.5-1.12,0-.64.16C52.17,47.19,52.89,47.33,52.53,46.83Z"/><path class="cls-4" d="M39.58,51.62l.08-.13a.9.9,0,0,0-.4.63c.21.06.85-.36.83-.64S39.77,51.35,39.58,51.62Z"/><path class="cls-4" d="M45.26,50.21a.14.14,0,0,0,.21,0c.26,0,.74,0,.54-.31S45.33,50,45.26,50.21Z"/><path class="cls-4" d="M37.42,49.92a.53.53,0,0,0,0,.22c.32.11,1.14,0,.87-.51S37.52,49.55,37.42,49.92Z"/><path class="cls-4" d="M38.54,48.56h0a.26.26,0,0,0-.33.26.39.39,0,0,0,.55-.21A.35.35,0,0,0,38.54,48.56Z"/><path class="cls-5" d="M39.59,59.88c-1.17.86,4.8,5.2,8.69,5.05a11.47,11.47,0,0,0,9.4-6c1-2.15.67-8.23-.62-7.81-.45.15.11,2.22-1.78,5.35-1.65,2.74-4.47,5.45-8.21,5.26C42,61.48,40.37,59.31,39.59,59.88Z"/><path class="cls-6" d="M52.41,44.82a.55.55,0,0,0-.48.84c.32.8,2.27,2.1,2.83,1.88s.58-.87-.23-1.5A4.83,4.83,0,0,0,52.41,44.82Z"/><path class="cls-6" d="M53.43,45.89s2.26-2.34,2.9-3.22a39.9,39.9,0,0,0,2.14-4.22s.2-.3.48-.25.2.47.2.47-1.58,3.23-2.22,4.12c-1.3,1.8-3,3.77-3,3.77Z"/><path class="cls-6" d="M57.37,41.49c-.14,0-3.73-.48-3.73-.48l-.14.22,1.86.3,1.85.31Z"/><path class="cls-6" d="M49.6,45.69c-3.86,1-9.55-1.77-9.55-1.77s3.8-4.43,7.06-4.77S56,41.42,56,41.42A13.43,13.43,0,0,1,49.6,45.69Z"/><path class="cls-7" d="M52.45,45.06a.82.82,0,0,0-.09.79A4.16,4.16,0,0,0,53.76,47l.09-.71s-.3-.2-.33-.38a.41.41,0,0,1,0-.27Z"/><path class="cls-7" d="M54.78,41.52a30.48,30.48,0,0,0-6.46.06c-3,.43-7.51,1.87-7.46,2.07s5-1.64,7.37-1.8,6.73,0,6.73,0Z"/><path class="cls-7" d="M53.27,41.63a3.36,3.36,0,0,1-.63,1.18,8.47,8.47,0,0,0-1.08,1.68,10.55,10.55,0,0,0,1.25-1.57c.35-.52.81-1.26.81-1.26Z"/><path class="cls-7" d="M50.27,41.65a5.29,5.29,0,0,1-.66,1.92c-.66,1.36-.93,1.75-.77,1.78s.66-1,1-1.74.85-2,.85-2Z"/><path class="cls-7" d="M47.35,41.93a3.65,3.65,0,0,1-.23,1.42c-.29,1-.66,1.57-.52,1.64s.48-.86.68-1.59.5-1.62.5-1.62Z"/><path class="cls-7" d="M44.22,42.67a2.39,2.39,0,0,1-.16.84c-.18.52-.47,1-.39,1a1.79,1.79,0,0,0,.54-.92c.13-.46.27-1,.27-1Z"/><path class="cls-7" d="M53.62,41.55a4.38,4.38,0,0,0-1.13-1.09A3.56,3.56,0,0,0,51,39.87c-.07.07.83.33,1.15.54a10.61,10.61,0,0,1,1.19,1.13Z"/><path class="cls-7" d="M50.54,41.46a2.91,2.91,0,0,0-.92-1.23,4.57,4.57,0,0,0-2-.8c-.2.07,1.5.49,1.88.87a4.1,4.1,0,0,1,.69,1.2Z"/><path class="cls-7" d="M47.78,41.78a6.54,6.54,0,0,0-1.38-1.1,6.29,6.29,0,0,0-1.66-.42c-.2,0,1.27.33,1.69.62a9.06,9.06,0,0,1,1,1Z"/><path class="cls-7" d="M44.21,42.58s0-.24-.73-.5-1.06-.42-.92-.43a4.69,4.69,0,0,1,.91.24,5.66,5.66,0,0,1,1.08.61Z"/><path class="cls-3" d="M8.91,45.76C5.93,48,2,54.9,6.62,60.62S18,66.67,23.09,63.31a11.47,11.47,0,0,0,1.42-18.13C19.37,40.28,13.42,42.45,8.91,45.76Z"/><path class="cls-4" d="M21.4,45h0Z"/><path class="cls-4" d="M20.71,45.67c-.35-.17-.74-.53-.41-.85s.77,0,1.09.13C21.82,45.34,21.64,46.12,20.71,45.67Z"/><path class="cls-4" d="M21.39,44.94l-.54-.21A.88.88,0,0,1,21.39,44.94Z"/><path class="cls-4" d="M22.34,46.47c-.13-.09-.31-.29-.13-.44s.25,0,.33.08a.41.41,0,0,1,.22.28C22.79,46.69,22.48,46.57,22.34,46.47Z"/><path class="cls-4" d="M20.06,46.29a.35.35,0,0,1,.33,0c.15,0,.35.09.38.21a.31.31,0,0,1,0,.09l0,0-.05,0c0,.14-.38,0-.5,0S19.79,46.44,20.06,46.29Z"/><path class="cls-4" d="M20.82,46.63h0Z"/><path class="cls-4" d="M19.32,45.51c.15,0,.32.21.24.36s-.44.09-.57,0C18.49,45.61,19.14,45.4,19.32,45.51Z"/><path class="cls-4" d="M18.7,44.59c.1,0,.29-.07.37,0a.15.15,0,0,1,0,.18c0,.11-.18.2-.25.23s-.91.33-1,.07S18.51,44.61,18.7,44.59Z"/><path class="cls-4" d="M19.53,44.07c-.16.08-.72.06-.78-.17s.31-.27.46-.25a.57.57,0,0,1,.24.13C19.6,43.86,19.71,44,19.53,44.07Z"/><path class="cls-4" d="M22.24,45.39c-.29-.22,0-.34.22-.29h0c.13,0,.46.15.37.33S22.35,45.47,22.24,45.39Z"/><path class="cls-4" d="M23.46,46.77c-.11-.12-.44-.67-.06-.69a.3.3,0,0,1,.2.1,1,1,0,0,1,.38.54C24.13,47.22,23.65,47,23.46,46.77Z"/><path class="cls-4" d="M21.41,46.93a.71.71,0,0,1,.51,0,1,1,0,0,1,.66.51c.13.52-.78.15-1,.08S21,47.08,21.41,46.93Z"/><path class="cls-4" d="M19.89,47.33c.14.05.3.17.3.29s-.53.18-.67.11C19,47.47,19.69,47.22,19.89,47.33Z"/><path class="cls-4" d="M16.3,44.45a.25.25,0,0,1,.25.1.68.68,0,0,1-1,0A.57.57,0,0,1,16.3,44.45Z"/><path class="cls-4" d="M17.78,45.79c-.32.11-1.16.17-1.23-.27a.72.72,0,0,1,.68-.08C17.49,45.42,17.78,45.51,17.78,45.79Z"/><path class="cls-4" d="M17.17,43.49a.44.44,0,0,1,.62-.06.3.3,0,0,1,.15.18A.59.59,0,0,1,17.17,43.49Z"/><path class="cls-4" d="M14.85,45.32c.63,0-.18.81-.52.55S14.6,45.16,14.85,45.32Z"/><path class="cls-4" d="M23.79,47.91c.19-.15.35,0,.46.18.42.27.93.91.53,1.06S23.8,48.26,23.79,47.91Z"/><path class="cls-4" d="M24.94,47.09c.54.1.28,1-.23.39C24.39,47.1,24.72,47,24.94,47.09Z"/><path class="cls-4" d="M21.87,48.74a.27.27,0,0,1,.19.25c-.2.14-.73.16-.87-.11S21.69,48.43,21.87,48.74Z"/><path class="cls-4" d="M17.07,47.26l0,0a.23.23,0,0,1,0,.11c0,.05,0,.1,0,.12-.11.29-.73.3-.61-.07S16.93,47.12,17.07,47.26Z"/><path class="cls-4" d="M11.52,46.48c.36-.5,1.12,0,.64.16C11.88,46.84,11.16,47,11.52,46.48Z"/><path class="cls-4" d="M24.46,51.27l-.07-.14a.92.92,0,0,1,.4.64c-.22,0-.85-.37-.83-.65S24.28,51,24.46,51.27Z"/><path class="cls-4" d="M18.79,49.85a.16.16,0,0,1-.21,0c-.26,0-.75,0-.54-.32S18.72,49.63,18.79,49.85Z"/><path class="cls-4" d="M26.62,49.57a.51.51,0,0,1,0,.22c-.32.11-1.14,0-.87-.51S26.53,49.19,26.62,49.57Z"/><path class="cls-4" d="M25.51,48.21h0a.26.26,0,0,1,.33.26.39.39,0,0,1-.55-.21A.33.33,0,0,1,25.51,48.21Z"/><path class="cls-5" d="M24.46,59.53c1.17.86-4.81,5.19-8.69,5a11.45,11.45,0,0,1-9.4-6c-1-2.14-.67-8.23.61-7.8.46.15-.1,2.21,1.78,5.34,1.66,2.75,4.48,5.45,8.22,5.27C22.09,61.13,23.68,59,24.46,59.53Z"/><path class="cls-6" d="M11.64,44.47a.54.54,0,0,1,.48.83c-.32.8-2.27,2.1-2.83,1.88s-.58-.87.23-1.49A4.64,4.64,0,0,1,11.64,44.47Z"/><path class="cls-6" d="M10.62,45.54s-2.26-2.34-2.9-3.22a39.83,39.83,0,0,1-2.14-4.23.55.55,0,0,0-.48-.24c-.28,0-.2.47-.2.47s1.58,3.22,2.22,4.11c1.3,1.81,3,3.77,3,3.77Z"/><path class="cls-6" d="M6.68,41.13c.14,0,3.73-.47,3.73-.47l.14.21-1.86.31-1.85.3Z"/><path class="cls-6" d="M14.45,45.33c3.86,1,9.55-1.76,9.55-1.76s-3.8-4.44-7.07-4.77S8,41.07,8,41.07A13.5,13.5,0,0,0,14.45,45.33Z"/><path class="cls-7" d="M11.6,44.71a.81.81,0,0,1,.09.79,4.09,4.09,0,0,1-1.4,1.11l-.09-.7s.3-.21.33-.38a.44.44,0,0,0,0-.28Z"/><path class="cls-7" d="M9.26,41.16a30.51,30.51,0,0,1,6.46.06c3,.44,7.52,1.87,7.46,2.07s-4.94-1.64-7.36-1.8-6.73,0-6.73,0Z"/><path class="cls-7" d="M10.78,41.27a3.36,3.36,0,0,0,.63,1.18,8.79,8.79,0,0,1,1.08,1.68,10.21,10.21,0,0,1-1.25-1.56c-.36-.53-.81-1.27-.81-1.27Z"/><path class="cls-7" d="M13.78,41.3a5.29,5.29,0,0,0,.66,1.91c.66,1.36.93,1.76.76,1.79s-.65-1-1-1.75-.84-2-.84-2Z"/><path class="cls-7" d="M16.7,41.57A3.7,3.7,0,0,0,16.92,43c.3,1,.66,1.58.53,1.64S17,43.77,16.76,43s-.5-1.62-.5-1.62Z"/><path class="cls-7" d="M19.83,42.31a2.36,2.36,0,0,0,.16.84c.18.52.47,1,.39,1a1.75,1.75,0,0,1-.54-.91l-.28-1Z"/><path class="cls-7" d="M10.43,41.19a4.07,4.07,0,0,1,1.13-1.08,3.51,3.51,0,0,1,1.45-.6c.08.07-.82.33-1.15.54a12.23,12.23,0,0,0-1.18,1.14Z"/><path class="cls-7" d="M13.51,41.1a2.85,2.85,0,0,1,.92-1.22,4.45,4.45,0,0,1,2.05-.8c.2.06-1.5.49-1.88.86a4.23,4.23,0,0,0-.69,1.21Z"/><path class="cls-7" d="M16.26,41.42a6.75,6.75,0,0,1,1.39-1.09,5.58,5.58,0,0,1,1.66-.42c.2,0-1.28.32-1.69.62a9.06,9.06,0,0,0-1,1Z"/><path class="cls-7" d="M19.84,42.23s0-.25.73-.5,1.06-.43.91-.43a4.75,4.75,0,0,0-.91.23,6.49,6.49,0,0,0-1.07.61Z"/><path class="cls-8" d="M8.58,64.8c1.21,4.8,4.31,16.83,6.17,21.38,2.36,5.73,1.26,8.24,9,9,6.68.67,20.45.36,26.27.21,5.82.15,19.6.46,26.28-.21,7.78-.79,6.68-3.3,9-9,1.87-4.55,5.22-18.45,6.42-23.25Z"/><path class="cls-9" d="M94.06,60.58c-.63-2.28-4.19-1.78-5.9-1.7-.58,0-1.17,0-1.75,0-2.93.06-5.85.09-8.77.13-3.31,0-42.61.84-45.88,1L22,60.33c-2.87.1-5.73.2-8.6.28-.57,0-1.15,0-1.72,0-1.68,0-5.2-.33-5.71,1.93A2.32,2.32,0,0,0,7.72,65.4a14.82,14.82,0,0,0,3.39-.1C14.38,65.1,17.67,65,21,65l9.94-.24L41,64.5c1.23,0,7.54-.08,9.09-.11l8.48-.21,10.28-.26L79,63.7c3.34-.08,6.69-.18,10-.12a15.22,15.22,0,0,0,3.44-.06A2.37,2.37,0,0,0,94.06,60.58Z"/><path class="cls-10" d="M13.09,65.15c-.84-.13-1.05-1.36-1.12-2A4.39,4.39,0,0,1,12.43,61a0,0,0,0,0-.07,0,3.25,3.25,0,0,0-.53,2.72,4,4,0,0,0,.17.63A2.62,2.62,0,0,1,12,61a.06.06,0,0,0-.09-.07,2.88,2.88,0,0,0,.52,4.14h.06a.79.79,0,0,0,.6.25C13.19,65.33,13.18,65.16,13.09,65.15Z"/><path class="cls-10" d="M13.22,65a3.39,3.39,0,0,1-.1-4,.06.06,0,0,0-.09-.08,3.08,3.08,0,0,0-.79,2.07,2.88,2.88,0,0,0,.87,2.15C13.18,65.11,13.27,65,13.22,65Z"/><path class="cls-10" d="M23.13,65a5.29,5.29,0,0,1-.8-4.76.06.06,0,1,0-.11-.05c-.69,1.46-.73,4,.77,5A.1.1,0,0,0,23.13,65Z"/><path class="cls-10" d="M24,65a5.25,5.25,0,0,1-.77-4.67s-.06-.08-.08,0a4,4,0,0,0-.39,2.44c0,.15.06.32.09.49-.07-.15-.15-.31-.21-.47a3.71,3.71,0,0,1,.11-2.46.07.07,0,0,0-.12,0c-.63,1.38-.63,3.39.7,4.4l.05,0a1.93,1.93,0,0,0,.45.49C23.9,65.23,24.05,65.1,24,65Z"/><path class="cls-10" d="M36.33,64.51a6.78,6.78,0,0,1-.93-2.28,4.29,4.29,0,0,1,.21-1.95c0-.13.2-.35.17-.51a.07.07,0,0,0-.07-.06c-.52.1-.71,1.65-.7,2.06a3.32,3.32,0,0,0,1.22,2.83C36.28,64.63,36.37,64.58,36.33,64.51Z"/><path class="cls-10" d="M37.38,64.48c-.85-1.33-1.58-3-1-4.6,0-.08-.07-.11-.11-.05-.72,1.3-.48,4,.95,4.8C37.36,64.69,37.43,64.55,37.38,64.48Z"/><path class="cls-10" d="M51,61.4c-.09-.65,0-1.25,0-1.88,0-.09-.11-.09-.14,0a4.27,4.27,0,0,0,.55,4,.07.07,0,0,0,.11-.07A11.35,11.35,0,0,1,51,61.4Z"/><path class="cls-10" d="M50.94,64.28a8.93,8.93,0,0,1-.86-4.71c0-.1-.12-.11-.14,0a6,6,0,0,0,0,2.6,4.9,4.9,0,0,0,.79,2.25A.12.12,0,0,0,50.94,64.28Z"/><path class="cls-10" d="M50.51,64.47a9.68,9.68,0,0,1-.81-2.28,12,12,0,0,1,0-2.54.08.08,0,1,0-.15,0c-.29,1.51-.52,3.85.77,5C50.4,64.73,50.57,64.59,50.51,64.47Z"/><path class="cls-10" d="M59.51,60.57c0-.34.07-1.15-.16-1.41,0,0-.09,0-.09,0a6.74,6.74,0,0,0,.43,3.67c0,.06.13,0,.12,0C59.72,62.07,59.57,61.33,59.51,60.57Z"/><path class="cls-10" d="M60.51,61.52c0-.78.05-1.56,0-2.33a.08.08,0,0,0-.16,0A9.28,9.28,0,0,0,60.65,64c0,.06.11,0,.1,0C60.7,63.18,60.56,62.35,60.51,61.52Z"/><path class="cls-10" d="M59.92,61.32c-.06-.65,0-1.31,0-2,0-.08-.13-.07-.15,0a6.23,6.23,0,0,0,.44,4.15s.1,0,.09,0A13,13,0,0,1,59.92,61.32Z"/><path class="cls-10" d="M68.36,61.46a15.62,15.62,0,0,0,0-2.37c0-.09-.16-.1-.17,0-.13,1.51-.5,3.72.56,5a.12.12,0,0,0,.2-.12A10.29,10.29,0,0,1,68.36,61.46Z"/><path class="cls-10" d="M69.13,61.69c-.07-.84.09-1.65.08-2.48,0-.11-.15-.09-.17,0-.33,1.37-.73,3.79.43,4.91.07.07.22,0,.2-.12A12.93,12.93,0,0,1,69.13,61.69Z"/><path class="cls-10" d="M81.2,61.71c0-.87-.21-2.4-1-2.94a.06.06,0,0,0-.09.07,9.11,9.11,0,0,1,.62,2.62c.08.74-.28,1.53-.17,2.22,0,.07.1.14.17.1C81.33,63.45,81.21,62.28,81.2,61.71Z"/><path class="cls-10" d="M81.25,58.85a.1.1,0,0,0-.18.1,7,7,0,0,1,.38,4.49c0,.07.06.14.11.07A4.14,4.14,0,0,0,81.25,58.85Z"/><path class="cls-10" d="M91.55,60.55a2.78,2.78,0,0,0-.77-2c-.09-.07-.2,0-.14.14.87,1.32.61,3.21.42,4.67a.15.15,0,0,0,.29.08A7.09,7.09,0,0,0,91.55,60.55Z"/><path class="cls-10" d="M90.44,58.58a.09.09,0,0,0-.16.09A12.12,12.12,0,0,1,90.74,60a10.43,10.43,0,0,1,.12,1.48.15.15,0,0,0,.3,0A3.81,3.81,0,0,0,90.44,58.58Z"/><path class="cls-11" d="M94.06,60.58a2,2,0,0,0-.71-1.07A2.09,2.09,0,0,1,92,60.62a15.46,15.46,0,0,1-3.4.05c-3.3-.05-6.61,0-9.91.12l-10,.22-10.15.25-8.37.2c-1.53,0-7.75.09-9,.11l-10,.22-9.8.23c-3.24.08-6.49.14-9.72.34a14.94,14.94,0,0,1-3.34.1,2.05,2.05,0,0,1-1.47-1.13A2,2,0,0,0,6,62.59,2.32,2.32,0,0,0,7.72,65.4a14.82,14.82,0,0,0,3.39-.1C14.38,65.1,17.67,65,21,65l9.94-.24L41,64.5c1.23,0,7.54-.08,9.09-.11l8.48-.21,10.28-.26L79,63.7c3.34-.08,6.69-.18,10-.12a15.22,15.22,0,0,0,3.44-.06A2.37,2.37,0,0,0,94.06,60.58Z"/><path class="cls-11" d="M81.11,62.75,70.24,63l-11,.27-9.11.22c-1.67,0-8.44.1-9.77.12l-10.84.24-10.68.26c-3.52.09-7,.15-10.57.37-.57,0-1.16.11-1.75.15a2,2,0,0,0,1.25.77,14.82,14.82,0,0,0,3.39-.1C14.38,65.1,17.67,65,21,65l9.94-.24L41,64.5c1.23,0,7.54-.08,9.09-.11l8.48-.21,10.28-.26L79,63.7c3.34-.08,6.69-.18,10-.12a15.22,15.22,0,0,0,3.44-.06,2,2,0,0,0,1.22-.82c-.6,0-1.2-.07-1.78-.07C88.3,62.57,84.71,62.67,81.11,62.75Z"/><g class="cls-12"><path class="cls-13" d="M8.77,61.12a3.06,3.06,0,0,0-1.27.14.16.16,0,0,0,0,.32,4.19,4.19,0,0,0,.5,0,6.48,6.48,0,0,0,.77-.09A.17.17,0,0,0,8.77,61.12Z"/><path class="cls-13" d="M10.11,60.94a1.1,1.1,0,0,0-.54,0,.16.16,0,0,0,0,.31,1.1,1.1,0,0,0,.54,0A.16.16,0,0,0,10.11,60.94Z"/><path class="cls-13" d="M21.45,60.73a26.2,26.2,0,0,0-4.06,0,20.78,20.78,0,0,0-3.7.21.06.06,0,0,0,0,.11,18.28,18.28,0,0,0,3.47.07A35.87,35.87,0,0,0,21.44,61,.14.14,0,0,0,21.45,60.73Z"/><path class="cls-13" d="M33.56,60.54a21.18,21.18,0,0,0-4.21.05c-1.69,0-3.36,0-5,.15-.07,0-.07.12,0,.13,1.56.09,3.14.17,4.71.19a21.5,21.5,0,0,0,4.54-.18A.17.17,0,0,0,33.56,60.54Z"/><path class="cls-13" d="M48.84,60a37.69,37.69,0,0,0-5.52.06,32.49,32.49,0,0,0-5.41.3c-.08,0-.09.15,0,.15,1.72,0,3.4.1,5.12,0a46.88,46.88,0,0,0,5.81-.21A.18.18,0,0,0,48.84,60Z"/><path class="cls-13" d="M57.73,59.91a24.87,24.87,0,0,0-2.59,0c-.89,0-1.81.16-2.69.14a.07.07,0,0,0,0,.14,12.16,12.16,0,0,0,2.34.07,22.48,22.48,0,0,0,3,0A.15.15,0,0,0,57.73,59.91Z"/><path class="cls-13" d="M67.39,59.84c-1.85-.34-3.75.06-5.6,0-.07,0-.08.08,0,.1a14.53,14.53,0,0,0,2.8.14,13.89,13.89,0,0,0,2.81,0A.12.12,0,0,0,67.39,59.84Z"/><path class="cls-13" d="M78.09,59.67c-2.74-.3-5.49,0-8.24-.08-.18,0-.22.27,0,.29a23.73,23.73,0,0,0,3.77.13c1.5-.1,3,0,4.51-.15A.1.1,0,0,0,78.09,59.67Z"/><path class="cls-13" d="M80.08,59.62a1.63,1.63,0,0,0-1.15-.13c-.16,0-.18.29,0,.3a4.93,4.93,0,0,0,1.08.09C80.12,59.86,80.2,59.69,80.08,59.62Z"/><path class="cls-13" d="M89,59.18a30.18,30.18,0,0,0-6.23.16s-.05.08,0,.08a32.42,32.42,0,0,0,6.23,0A.11.11,0,0,0,89,59.18Z"/><path class="cls-13" d="M92.8,59.32a1.51,1.51,0,0,0-.93-.19c-.14,0-.13.22,0,.24.29,0,.55.14.84.16C92.82,59.53,92.91,59.39,92.8,59.32Z"/></g><path class="cls-10" d="M14,74.72a21.05,21.05,0,0,1-.83-3.09,23.13,23.13,0,0,1-.09-3c0-.12-.16-.1-.19,0a10.19,10.19,0,0,0,.8,6.22C13.73,75,14,74.91,14,74.72Z"/><path class="cls-10" d="M16.44,75.47a11.68,11.68,0,0,1-1.17-3,21.74,21.74,0,0,1-.18-3.13c0-.16-.27-.16-.29,0-.17,2.21-.18,4.53,1.35,6.32C16.27,75.77,16.53,75.64,16.44,75.47Z"/><path class="cls-10" d="M18.52,74.45a17.92,17.92,0,0,1-.84-2.6,16.78,16.78,0,0,1-.15-3,.14.14,0,0,0-.28,0,8.51,8.51,0,0,0,1,5.77C18.36,74.76,18.58,74.61,18.52,74.45Z"/><path class="cls-10" d="M18.7,89.34a17.89,17.89,0,0,1-1.26-5,.08.08,0,1,0-.15,0,10.77,10.77,0,0,0,1.21,5.07C18.57,89.57,18.76,89.46,18.7,89.34Z"/><path class="cls-10" d="M20.9,88.88a18,18,0,0,1-1-3.11,9.16,9.16,0,0,0-.46-2.34.12.12,0,0,0-.22.06c.16.87.22,1.77.37,2.65A9.71,9.71,0,0,0,20.62,89,.15.15,0,0,0,20.9,88.88Z"/><path class="cls-10" d="M23.3,89.41A17.36,17.36,0,0,1,22,83.9c0-.17-.31-.18-.32,0a11.2,11.2,0,0,0,1.24,5.66C23.06,89.77,23.4,89.64,23.3,89.41Z"/><path class="cls-10" d="M24.79,82.47a10.34,10.34,0,0,1-1.15-2.89,32.81,32.81,0,0,1-.44-3.43c0-.12-.21-.13-.22,0a10.09,10.09,0,0,0,1.53,6.48C24.62,82.78,24.88,82.63,24.79,82.47Z"/><path class="cls-10" d="M26.6,82.81a25.48,25.48,0,0,1-1-3.29c-.2-1-.26-2.1-.44-3.15a.12.12,0,0,0-.24,0c.26,2.3.37,4.41,1.46,6.5A.12.12,0,0,0,26.6,82.81Z"/><path class="cls-10" d="M28.79,81.63a29.18,29.18,0,0,1-1-4.09.11.11,0,0,0-.21,0,9.51,9.51,0,0,0,1,4.21A.15.15,0,0,0,28.79,81.63Z"/><path class="cls-10" d="M29,76.43a22.06,22.06,0,0,1-.67-2.54c-.15-1-.25-2.1-.38-3.14a.13.13,0,0,0-.26,0,15.07,15.07,0,0,0,1,5.73C28.75,76.65,29,76.6,29,76.43Z"/><path class="cls-10" d="M31.59,76.48a15.67,15.67,0,0,1-1.08-3.06A18.84,18.84,0,0,0,30,70.85a.09.09,0,0,0-.18.05c.37,2,.3,4,1.47,5.76A.18.18,0,0,0,31.59,76.48Z"/><path class="cls-10" d="M32.73,70.83a.07.07,0,0,0-.14,0,43.12,43.12,0,0,0,1,5.15c0,.14.28.08.25-.07C33.58,74.24,33.21,72.5,32.73,70.83Z"/><path class="cls-10" d="M43.1,80.25a.1.1,0,0,0-.19,0,11,11,0,0,0,.2,5.13c0,.18.36.1.32-.09A16.54,16.54,0,0,1,43.1,80.25Z"/><path class="cls-10" d="M44.85,80.47c0-.18-.32-.18-.33,0a15.61,15.61,0,0,0,.61,5.81.15.15,0,0,0,.29-.08A44,44,0,0,1,44.85,80.47Z"/><path class="cls-10" d="M48.85,85.54a22,22,0,0,1-1.15-5.68c0-.18-.27-.13-.27,0a12.79,12.79,0,0,0,1.11,5.77A.17.17,0,0,0,48.85,85.54Z"/><path class="cls-10" d="M50.24,74c0-.09-.17-.09-.17,0a26.94,26.94,0,0,0,.33,6.53.14.14,0,0,0,.28,0A64.3,64.3,0,0,1,50.24,74Z"/><path class="cls-10" d="M52.73,73.43c0-.15-.2-.17-.23,0a13.72,13.72,0,0,0-.09,6.34.14.14,0,0,0,.27,0A29.21,29.21,0,0,1,52.73,73.43Z"/><path class="cls-10" d="M55.11,76.33c-.08-1.16,0-2.33,0-3.48,0-.15-.23-.14-.25,0a13.55,13.55,0,0,0,.66,7.25A.15.15,0,0,0,55.8,80,35.76,35.76,0,0,1,55.11,76.33Z"/><path class="cls-10" d="M66.1,81c.1-1.17.39-2.34.56-3.51a.11.11,0,0,0-.22,0c-.58,2.45-1.19,4.82-.57,7.32a.2.2,0,0,0,.39-.05A17.25,17.25,0,0,1,66.1,81Z"/><path class="cls-10" d="M68.5,78.61a.14.14,0,0,0-.28,0A18.06,18.06,0,0,0,68,85.2a.15.15,0,0,0,.3,0A41,41,0,0,1,68.5,78.61Z"/><path class="cls-10" d="M71.46,80.7a26.8,26.8,0,0,0,.14-3.1c0-.13-.21-.1-.21,0,0,1.12-.29,2.26-.36,3.38a13.39,13.39,0,0,0,.15,3.35.16.16,0,0,0,.31,0C71.45,83.11,71.42,81.91,71.46,80.7Z"/><path class="cls-10" d="M81.44,77.91a16.32,16.32,0,0,0-.88,6.61.12.12,0,0,0,.24,0c.08-1.1.07-2.2.21-3.3s.54-2.18.6-3.27C81.61,77.86,81.47,77.81,81.44,77.91Z"/><path class="cls-10" d="M83.59,78.25c-.37,2.37-1,4.69-.74,7.12,0,.21.37.22.38,0a36.28,36.28,0,0,1,.2-3.76c.12-1.11.39-2.21.42-3.33A.13.13,0,0,0,83.59,78.25Z"/><path class="cls-10" d="M72.56,88.54c0-.78.16-1.56.18-2.34a.08.08,0,0,0-.15,0,6.36,6.36,0,0,0-.34,2.34,9.43,9.43,0,0,0,.23,2.75c0,.18.32.15.29,0A14,14,0,0,1,72.56,88.54Z"/><path class="cls-10" d="M74.89,86.39c0-.11-.14-.14-.19,0a8,8,0,0,0-.07,5.07.14.14,0,0,0,.27-.07A12.5,12.5,0,0,1,74.89,86.39Z"/><path class="cls-10" d="M77.39,86.46a.11.11,0,0,0-.22,0,17.2,17.2,0,0,0,.1,4.7.18.18,0,0,0,.35,0C77.44,89.57,77.59,88,77.39,86.46Z"/><path class="cls-10" d="M74.31,73.31c.07-1,.31-1.9.47-2.86a.08.08,0,0,0-.16,0c-.49,2.09-1,4.08-.29,6.2,0,.12.24.06.22-.06A13.75,13.75,0,0,1,74.31,73.31Z"/><path class="cls-10" d="M77.19,73.35c0-.88.18-1.75.18-2.64,0-.13-.23-.13-.23,0-.15,2.12-.67,4.16,0,6.26.05.19.34.1.32-.09A19.76,19.76,0,0,1,77.19,73.35Z"/><path class="cls-10" d="M80.3,70.81c0-.17-.26-.21-.27,0-.11,2.08-.76,4.14-.37,6.24A.15.15,0,0,0,80,77,60.43,60.43,0,0,1,80.3,70.81Z"/><path class="cls-10" d="M31.92,65.75a19.22,19.22,0,0,1-5.35.46c-.09,0-.1.12,0,.14A9.84,9.84,0,0,0,32,66.07C32.18,66,32.11,65.71,31.92,65.75Z"/><path class="cls-10" d="M32.72,67.6c-1.91.38-4.16,1-6.12.51-.07,0-.1.1,0,.13a6.28,6.28,0,0,0,2.66.33,9.64,9.64,0,0,0,3.57-.68C33,67.82,32.89,67.56,32.72,67.6Z"/><path class="cls-10" d="M26.3,70.58a13.61,13.61,0,0,1-5.05.1c-.07,0-.11.1,0,.13a7.29,7.29,0,0,0,5.16.09C26.55,70.82,26.49,70.54,26.3,70.58Z"/><path class="cls-10" d="M26.63,73.09a21.23,21.23,0,0,1-5.1.14c-.09,0-.13.13,0,.15a9.81,9.81,0,0,0,5.24.08C27,73.4,26.84,73.06,26.63,73.09Z"/><path class="cls-10" d="M26.45,75.31a17.74,17.74,0,0,1-4.77-.12c-.09,0-.12.12,0,.15a7.28,7.28,0,0,0,4.89.24C26.69,75.53,26.61,75.3,26.45,75.31Z"/><path class="cls-10" d="M35.28,77a23,23,0,0,1-6.13.73c-.2,0-.25.3,0,.32a14,14,0,0,0,6.27-.7A.18.18,0,0,0,35.28,77Z"/><path class="cls-10" d="M34.73,79.88a18.73,18.73,0,0,1-5.49.24.14.14,0,0,0-.07.26,9.83,9.83,0,0,0,5.66-.13A.19.19,0,0,0,34.73,79.88Z"/><path class="cls-10" d="M34.55,82.58c-1.5.31-3.34,1-4.88.68a.12.12,0,0,0-.06.22c1.48.51,3.62,0,5-.49A.22.22,0,0,0,34.55,82.58Z"/><path class="cls-10" d="M29.4,84.4c-1.88,0-3.76.34-5.64-.08-.07,0-.1.09,0,.12a9.79,9.79,0,0,0,5.67.29C29.56,84.69,29.61,84.4,29.4,84.4Z"/><path class="cls-10" d="M29.9,86.07a21.23,21.23,0,0,1-5.34.2c-.13,0-.15.17,0,.2a12.7,12.7,0,0,0,5.42,0A.21.21,0,0,0,29.9,86.07Z"/><path class="cls-10" d="M29.85,87.87a16,16,0,0,1-5.38.45c-.11,0-.16.16,0,.19a9.09,9.09,0,0,0,5.5-.36C30.08,88.1,30,87.85,29.85,87.87Z"/><path class="cls-10" d="M20.25,76.93c-2,0-4,.48-6,.23-.12,0-.14.16,0,.19a12.8,12.8,0,0,0,6.12-.15C20.49,77.16,20.39,76.93,20.25,76.93Z"/><path class="cls-10" d="M20,79.71c-1.55-.21-3.1-.18-4.65-.32a.1.1,0,0,0,0,.2A31.37,31.37,0,0,0,20,80C20.16,80,20.2,79.73,20,79.71Z"/><path class="cls-10" d="M20.37,82.08a26.63,26.63,0,0,1-4.64.12.13.13,0,0,0,0,.26,9.11,9.11,0,0,0,4.75-.13A.13.13,0,0,0,20.37,82.08Z"/><path class="cls-10" d="M47.74,75.26c-2.16.07-4.27.15-6.43,0a.08.08,0,0,0,0,.16,17.43,17.43,0,0,0,6.48,0A.13.13,0,0,0,47.74,75.26Z"/><path class="cls-10" d="M49,77.45c-1.38,0-2.76.18-4.15.23a33.56,33.56,0,0,1-3.87-.2.09.09,0,0,0,0,.18,22.39,22.39,0,0,0,8.08.08A.15.15,0,0,0,49,77.45Z"/><path class="cls-10" d="M48.2,79.36a39,39,0,0,1-7.4.14.08.08,0,0,0,0,.16,13.44,13.44,0,0,0,3.23.21,23.84,23.84,0,0,0,4.22-.31A.1.1,0,0,0,48.2,79.36Z"/><path class="cls-10" d="M55,68.18c-1,0-1.89.1-2.85.08s-1.81-.16-2.69-.26a.06.06,0,0,0,0,.12,13.08,13.08,0,0,0,5.56.36C55.11,68.44,55.13,68.18,55,68.18Z"/><path class="cls-10" d="M54.82,69.79a21.65,21.65,0,0,1-5.63-.21c-.08,0-.12.12,0,.16a11.13,11.13,0,0,0,5.7.28A.12.12,0,0,0,54.82,69.79Z"/><path class="cls-10" d="M55.3,71.26a19.61,19.61,0,0,1-7.44.26c-.09,0-.1.1,0,.12a14.09,14.09,0,0,0,7.54-.09C55.54,71.5,55.46,71.23,55.3,71.26Z"/><path class="cls-10" d="M72.87,71.5a21.92,21.92,0,0,1-4,.16,25.57,25.57,0,0,1-3.48-.6.1.1,0,0,0-.06.19,12.78,12.78,0,0,0,7.56.57A.16.16,0,0,0,72.87,71.5Z"/><path class="cls-10" d="M72.09,73.83A20.54,20.54,0,0,1,66,73.57c-.1,0-.14.15,0,.18a11.27,11.27,0,0,0,6.14.42A.17.17,0,0,0,72.09,73.83Z"/><path class="cls-10" d="M73.16,75.89a15.33,15.33,0,0,1-7.67.36c-.18,0-.2.23,0,.27a12.2,12.2,0,0,0,7.85-.31C73.5,76.12,73.37,75.83,73.16,75.89Z"/><path class="cls-10" d="M87.5,70.63a38.5,38.5,0,0,1-5.26-.21c-.12,0-.14.16,0,.19A19.06,19.06,0,0,0,87.5,71C87.7,71,87.7,70.63,87.5,70.63Z"/><path class="cls-10" d="M86.34,72.72a14.52,14.52,0,0,1-4,.07.11.11,0,0,0,0,.22,9.9,9.9,0,0,0,4,0A.16.16,0,0,0,86.34,72.72Z"/><path class="cls-10" d="M85.86,75.46a10.55,10.55,0,0,1-4.43.33c-.11,0-.16.15-.05.19a6.3,6.3,0,0,0,4.56-.21C86.1,75.7,86,75.43,85.86,75.46Z"/><path class="cls-10" d="M79.05,77.92a23.7,23.7,0,0,1-5.19,0c-.1,0-.15.15,0,.18a9.16,9.16,0,0,0,2.45.26,15.73,15.73,0,0,0,2.83-.1A.18.18,0,0,0,79.05,77.92Z"/><path class="cls-10" d="M78.58,81a31.44,31.44,0,0,1-5.57-.5c-.15,0-.21.21-.07.25a17,17,0,0,0,5.64.6C78.78,81.38,78.78,81,78.58,81Z"/><path class="cls-10" d="M78.43,84.13A16.85,16.85,0,0,1,73,83.75a.13.13,0,0,0-.07.25,11.67,11.67,0,0,0,5.56.49A.18.18,0,0,0,78.43,84.13Z"/><g class="cls-14"><path class="cls-8" d="M54.67,68.63c.25,0,.5.37.24.58a3.7,3.7,0,0,1-2.15.49,7.84,7.84,0,0,1-2.84-.46.3.3,0,0,1-.14-.1c-.34-.13-.16-.69.24-.63a16.43,16.43,0,0,0,2.8.22A14.34,14.34,0,0,1,54.67,68.63Z"/><path class="cls-8" d="M52.08,80.09a.31.31,0,0,1-.13.36.33.33,0,0,1-.6.06,8,8,0,0,1-.8-4.15c0-.69,0-2.18.77-2.49a.37.37,0,0,1,.33.09c.38.33.26,1.1.2,1.54A10.77,10.77,0,0,0,52.08,80.09Z"/><path class="cls-8" d="M50.14,71.42c-.53,0-1.42-.34-1.58-.93-.21-.23.1-.67.44-.5,1.61.78,3.64.57,5.36.42.39,0,.45.56.09.66A12.77,12.77,0,0,1,50.14,71.42Z"/><path class="cls-8" d="M53.72,73.52a.34.34,0,0,1,.56.15,3,3,0,0,1-.18,1.86,7.78,7.78,0,0,0,0,2.68c.14.65.41,1.22.57,1.85a.34.34,0,0,1-.5.38c-1.06-.47-1.37-2.09-1.4-3.12S52.8,74.33,53.72,73.52Z"/><path class="cls-8" d="M32.4,72.68c.06.7.13,1.39.24,2.09a1.89,1.89,0,0,1-.06,1,.34.34,0,0,1-.49.2c-1-.64-1.11-2.35-1.15-3.49s0-2,.68-1.88S32.35,72.15,32.4,72.68Z"/><path class="cls-8" d="M33.67,79.57a9.37,9.37,0,0,1-4-.17.34.34,0,0,1-.18-.1.62.62,0,0,1-.14-.14.43.43,0,0,1,.12-.54.1.1,0,0,1,.05,0,.27.27,0,0,1,.28-.16,16.08,16.08,0,0,0,2.86-.14c.84-.09,1.58-.38,2.39-.5a.35.35,0,0,1,.43.32C35.56,79,34.4,79.41,33.67,79.57Z"/><path class="cls-8" d="M35,81.09c-.72,2-4.05,1.7-5.34.57a.33.33,0,0,1,.05-.51.31.31,0,0,1,.4-.27,6.55,6.55,0,0,0,2.82.14c.45-.06,1.48-.59,1.91-.31A.34.34,0,0,1,35,81.09Z"/><path class="cls-8" d="M28.49,73.08c0-.66-.2-1.63.33-2.13a.33.33,0,0,1,.41,0c.57.38.4,1.47.46,2,.1.92.64,1.92.48,2.83a.29.29,0,0,1-.28.24.26.26,0,0,1-.36-.07A5.05,5.05,0,0,1,28.49,73.08Z"/><path class="cls-8" d="M27,66.64a9.4,9.4,0,0,0,2.85.21,9.42,9.42,0,0,1,1.83-.11.34.34,0,0,1,.15.56,4.48,4.48,0,0,1-3.22.71,3,3,0,0,1-1.93-.74.32.32,0,0,1-.06-.15A.33.33,0,0,1,27,66.64Z"/><path class="cls-8" d="M27.51,82.27c-1.54.42-1.77-4.42-1.68-5.12a.35.35,0,0,1,.33-.31.32.32,0,0,1,.51-.06,1.31,1.31,0,0,1,.39.91,13.79,13.79,0,0,0,.46,2.47C27.66,80.58,28.32,82.05,27.51,82.27Z"/><path class="cls-8" d="M26.74,74.39a1.51,1.51,0,0,1-1,.7,4.25,4.25,0,0,1-4.12-.7.32.32,0,0,1,.16-.55.27.27,0,0,1,.28-.06,11.39,11.39,0,0,0,4.43.11C26.71,73.85,26.85,74.19,26.74,74.39Z"/><path class="cls-8" d="M26.2,72.23a4.92,4.92,0,0,1-4.56.46c-.29-.15-.77-.6-.3-.88h0a.37.37,0,0,1,.42-.33,27.67,27.67,0,0,0,4.27.14A.33.33,0,0,1,26.2,72.23Z"/><path class="cls-8" d="M20.38,77.77a.34.34,0,0,1,.34.33c.1,1.3-2.17,1.18-2.94,1.14-.6,0-2.51,0-2.83-.77a.34.34,0,0,1,.28-.6C17,78.28,18.66,77.76,20.38,77.77Z"/><path class="cls-8" d="M15.48,69.84a.18.18,0,0,1,.06-.09,1.17,1.17,0,0,1,.15-.27.68.68,0,0,1,.43-.31.25.25,0,0,1,.39.11,3.27,3.27,0,0,1,.14,1.21A18.43,18.43,0,0,0,17,72.57c.09.36.5,1.38.12,1.7s-.62.13-.88-.18A4.53,4.53,0,0,1,15.48,69.84Z"/><path class="cls-8" d="M13.92,74.09c-.36-.34-.42-1.18-.5-1.64a7.28,7.28,0,0,1,0-2.55.14.14,0,0,1,0-.06.91.91,0,0,1,.44-.71c.73-.38.71,2.88.72,3.12S14.82,75,13.92,74.09Z"/><path class="cls-8" d="M19.87,89a.34.34,0,0,1-.57.24c-.92-.93-1.12-2.43-1.31-3.74,0-.17-.06-.35-.08-.53,0,0,0,0,0-.08v-.06c0-.51.1-.92.57-.92.74,0,.69,1.25.76,1.7A15.46,15.46,0,0,1,19.87,89Z"/><path class="cls-8" d="M19.91,81.48c-1.24.79-5,.7-5.6-.94a.31.31,0,0,1,.14-.36c0-.22.13-.47.4-.36,1.55.61,3.16.26,4.76.49C20.28,80.4,20.58,81.06,19.91,81.48Z"/><path class="cls-8" d="M21.35,88.82a6.64,6.64,0,0,1-1.2-4.17,2.93,2.93,0,0,1,.11-.9c.11-.39.45-.89.93-.61s.3,1,.3,1.51a10,10,0,0,0,.18,2.62,5.41,5.41,0,0,1,.25,1.31A.34.34,0,0,1,21.35,88.82Z"/><path class="cls-8" d="M23.83,77.06a.49.49,0,0,1,.69-.13,2.63,2.63,0,0,1,.31,1.47c.07,1,.39,2,.51,2.95.05.34-.47.44-.62.17A7.11,7.11,0,0,1,23.83,77.06Z"/><path class="cls-8" d="M24.52,84.83c1.23.62,2.7.16,4,.31.23,0,.45.27.29.51-.49.7-1.44.54-2.2.54s-1.95,0-2.48-.76a.26.26,0,0,1,0-.08C23.86,85.12,24.17,84.66,24.52,84.83Z"/><path class="cls-8" d="M24.07,87.14a.34.34,0,0,1,.42-.41l.19.07a.33.33,0,0,1,.22,0,21,21,0,0,0,3.8.3.34.34,0,0,1,.24.57c-.69.7-2.07.54-3,.48S24.38,88,24.07,87.14Z"/><path class="cls-8" d="M70.38,84c0,.34.06.91-.44.91s-.85-.79-1-1.14a5.67,5.67,0,0,1-.29-3.16,7.19,7.19,0,0,1,.43-1.76c.17-.44.51-1.36,1.14-1.29a.49.49,0,0,1,.38.34,2.24,2.24,0,0,1,.13.92l-.09.54c-.08.54-.15,1.09-.21,1.63a13.57,13.57,0,0,0-.09,1.91C70.32,83.3,70.35,83.67,70.38,84Z"/><path class="cls-8" d="M69.15,76.25c-1.08,0-3.5,0-3.7-1.49a.36.36,0,0,1,.12-.34.31.31,0,0,1,.41-.28,10.34,10.34,0,0,0,3.66.65,11.11,11.11,0,0,1,2.21-.18.32.32,0,0,1,.24.32C72,76.29,70.1,76.25,69.15,76.25Z"/><path class="cls-8" d="M67.48,83.62l.06,1a.34.34,0,0,1-.58.24,4.6,4.6,0,0,1-.58-3.61c.15-.86.16-2.5.89-3.11a.34.34,0,0,1,.57.24,11.7,11.7,0,0,1-.28,1.84,2.83,2.83,0,0,0,0,.29c0,.47-.1.94-.11,1.4A16.66,16.66,0,0,0,67.48,83.62Z"/><path class="cls-8" d="M69.36,73.65c-1.13-.05-2.57-.14-3.35-1.1a.27.27,0,0,1-.07-.14c-.18-.23,0-.65.33-.53a10.18,10.18,0,0,0,3.37.6,23.73,23.73,0,0,0,2.67-.32c.27,0,.39.3.29.5C72,73.77,70.42,73.71,69.36,73.65Z"/><path class="cls-8" d="M73.7,91.55a3.63,3.63,0,0,1-1-3.15c.07-.77.11-2.15.87-2.6a.35.35,0,0,1,.5.2,3.11,3.11,0,0,1,0,.61.32.32,0,0,1,.08.29A6.72,6.72,0,0,0,74,89.54a6.6,6.6,0,0,1,.23,1.72C74.2,91.49,73.92,91.72,73.7,91.55Z"/><path class="cls-8" d="M76.7,89.84a4.75,4.75,0,0,1,0,1.19c-.09.31-.33.67-.71.48C75,91,74.81,88.64,74.92,87.68a3.23,3.23,0,0,1,.88-2.2.51.51,0,0,1,.79.11A3.13,3.13,0,0,1,76.82,87a.31.31,0,0,1,0,.19A14.46,14.46,0,0,0,76.7,89.84Z"/><path class="cls-8" d="M77.19,83.52a6.42,6.42,0,0,1-3.31-.47c-1-.26-1.79-.72-1.18-1.43a.33.33,0,0,1,.33-.08l.43.15a10.63,10.63,0,0,0,2.65.23,15.68,15.68,0,0,1,2.65,0,.33.33,0,0,1,.24.23C79.17,83,77.83,83.38,77.19,83.52Z"/><path class="cls-8" d="M77.23,80.57a6.73,6.73,0,0,1-4-1.16.27.27,0,0,1-.09-.3.33.33,0,0,1,.38-.48,13.47,13.47,0,0,0,3.3.27c.86,0,1.77-.11,2.61,0a.34.34,0,0,1,.24.33C79.68,80.27,78,80.59,77.23,80.57Z"/><path class="cls-8" d="M76.5,75.31c.09.42.12,1.13-.41,1.28-1.23.34-1.48-2.73-1.48-3.33s.32-3.8,1.61-3.05a.73.73,0,0,1,.36.62.28.28,0,0,1,.13.36A7.79,7.79,0,0,0,76.5,75.31Z"/><path class="cls-8" d="M79.08,75.49c0,.37.15.79-.12,1.1a.32.32,0,0,1-.4,0c-.78-.4-.92-1.57-1-2.34a7.25,7.25,0,0,1,.45-3.67.49.49,0,0,1,.56-.27.35.35,0,0,1,.37,0c.63.25.41,1.53.19,2.45A12.3,12.3,0,0,0,79.08,75.49Z"/><path class="cls-8" d="M82.89,78.35a27.24,27.24,0,0,0-.31,4.78c0,.53,0,1.61-.64,1.79a.33.33,0,0,1-.33-.08,4.77,4.77,0,0,1-.48-3A14.53,14.53,0,0,1,82,78.32a.5.5,0,0,1,.88,0Z"/><path class="cls-8" d="M87.72,73.63c-.94,1.87-5.32,2.48-6.37.41l0-.1s0,0,0,0a.34.34,0,0,1,0-.1v0a.51.51,0,0,1,.44-.55h.09a.67.67,0,0,1,.39.08,9.16,9.16,0,0,0,5.16-.17C87.64,73,87.84,73.38,87.72,73.63Z"/><path class="cls-8" d="M82,71.27a.33.33,0,0,1,.41-.31,18.44,18.44,0,0,0,4.92.23.34.34,0,0,1,.24.57,4.89,4.89,0,0,1-5.57,0A.31.31,0,0,1,82,71.27Z"/><path class="cls-8" d="M47.88,85.7c.12.4-.16,1-.66.85-1.84-.5-2.2-3.38-2.06-4.93.06-.59.17-1.39.8-1.65.43-.18,1-.17,1.15.38a3.61,3.61,0,0,1,0,1.6A9.58,9.58,0,0,0,47.88,85.7Z"/><path class="cls-8" d="M43.72,79.23A4.43,4.43,0,0,1,41,78.55a.29.29,0,0,1-.09-.28c-.09-.23.08-.55.38-.44,2.23.8,4.41.28,6.7.3a.34.34,0,0,1,.09.66A12.73,12.73,0,0,1,43.72,79.23Z"/><path class="cls-8" d="M44.29,81.59a14.34,14.34,0,0,0,.34,4c0,.29-.32.63-.56.33a4.7,4.7,0,0,1-.81-2.64,6,6,0,0,1,.13-2.6.46.46,0,0,1,.87,0,1.36,1.36,0,0,1,0,.8A.33.33,0,0,1,44.29,81.59Z"/><path class="cls-8" d="M41.35,76h0a.35.35,0,0,1,.18,0,33.46,33.46,0,0,0,6.25,0,.34.34,0,0,1,.33.34c0,1.09-1.8,1-2.53,1-1.56.06-3.23.38-4.51-.74A.34.34,0,0,1,41.35,76Z"/></g><g class="cls-15"><path class="cls-8" d="M8.68,64.8c1.2,4.8,4.3,16.83,6.17,21.38,2.36,5.73,1.26,8.24,9,9,6.69.67,20.46.36,26.28.21,5.82.15,19.59.46,26.28-.21,7.77-.79,6.68-3.3,9-9,1.87-4.55,5.21-18.45,6.42-23.25ZM82.82,85.86a8.4,8.4,0,0,1-1.4,1.32c-2.73,2-6.42,2.64-9.81,2.91-1.94.15-3.88.17-5.83.19-6.83.09-13.64.66-20.47.76q-4.81.08-9.65,0c-5-.1-10.53.42-15.18-1.76a13,13,0,0,1-6.08-6.78c-1.82-4.08-5.55-14.44,3-14,2.4.13,4.76.16,7.16.18,7.4.06,14.79.26,22.19.11q3.21-.06,6.42-.22c7.56-.39,18.54-1.08,26.11-1.29,2.26-.06,5.1-.49,7.22.41C90.8,69.54,84.41,84,82.82,85.86Z"/></g><path class="cls-16" d="M36.3,70.28c-3.27,0-6.54,0-9.8,0-2.39,0-5.48-.48-7.74.31-2.89,1-1.16,4.5-.34,6.15a9.62,9.62,0,0,0,3.95,3.92C27,83.33,33.26,84,38.84,84.26c4.59.21,9.19.12,13.78-.11,6.07-.29,12.34-.2,18.27-1.44a19.33,19.33,0,0,0,13-9.37c.59-1.12,2-3.35.17-4.18-2-.91-24.41.86-33.06,1Q43.63,70.21,36.3,70.28Z"/><g class="cls-17"><path class="cls-8" d="M83.28,90c-5.26,3.84-23,3.14-26.1,3.21-6.29.14-12.58.17-18.87.14-3.17,0-15-.67-17.66-1.21a9.05,9.05,0,0,1-4.57-2.19c1,3.14,1.9,4.69,7.71,5.28,6.68.67,20.45.36,26.27.21,5.82.15,19.6.46,26.28-.21,6.34-.64,6.78-2.43,8-6.17A8.59,8.59,0,0,1,83.28,90Z"/><path class="cls-8" d="M15.44,65.64c4.4-.39,8.86-.11,13.27-.13,6.34,0,12.68-.29,19-.32s12.75.11,19.12,0,12.58-.74,18.83-.41c1.29.06,3.83,0,4.68,1.26a2.34,2.34,0,0,1,.36,1.19l1.06-4.27L8.58,64.8l.65,2.55a5,5,0,0,1,1.47-.71A14.29,14.29,0,0,1,15.44,65.64Z"/></g><path class="cls-13" d="M35,89.66a2.32,2.32,0,0,1-1.73-.6,2.27,2.27,0,0,1-.59-1.65,2.23,2.23,0,0,1,.59-1.66A2.39,2.39,0,0,1,35,85.18h2.65V72.85h2.55l-4.36,2.7a2.12,2.12,0,0,1-1.47.38,1.91,1.91,0,0,1-1.16-.59,2.47,2.47,0,0,1-.63-1.17,2.33,2.33,0,0,1,.1-1.4,2.27,2.27,0,0,1,1.08-1.16L38,69a5.19,5.19,0,0,1,1.34-.65,4.82,4.82,0,0,1,1.48-.23,2.48,2.48,0,0,1,1.79.61,2.19,2.19,0,0,1,.65,1.71V85.18h2.38a2.34,2.34,0,0,1,1.7.57,2.22,2.22,0,0,1,.58,1.66,2.26,2.26,0,0,1-.58,1.67,2.31,2.31,0,0,1-1.7.58Z"/><path class="cls-13" d="M57.35,90a11.81,11.81,0,0,1-4.42-.76,6.32,6.32,0,0,1-2.86-2.12,5.46,5.46,0,0,1-1-3.29,5.76,5.76,0,0,1,.61-2.71,5.31,5.31,0,0,1,1.7-1.91,5.37,5.37,0,0,1,2.44-.89v.87a5.27,5.27,0,0,1-4.21-5.29,5.1,5.1,0,0,1,1-3.13,6.06,6.06,0,0,1,2.69-2,12.19,12.19,0,0,1,8.2,0,6.05,6.05,0,0,1,2.67,2,5.1,5.1,0,0,1,1,3.13,5.8,5.8,0,0,1-.52,2.48,5,5,0,0,1-1.46,1.85,4.57,4.57,0,0,1-2.17.9v-.81a5.68,5.68,0,0,1,3.7,8.8,6.37,6.37,0,0,1-2.84,2.12A11.81,11.81,0,0,1,57.35,90Zm0-4.19a4,4,0,0,0,2.42-.61,2.37,2.37,0,0,0,0-3.6,5.18,5.18,0,0,0-4.84,0,2.37,2.37,0,0,0,0,3.6A4,4,0,0,0,57.35,85.84Zm0-9a3.57,3.57,0,0,0,1.47-.27,2,2,0,0,0,.92-.8,2.34,2.34,0,0,0,.32-1.22,2.09,2.09,0,0,0-.72-1.67,3,3,0,0,0-2-.61,2.88,2.88,0,0,0-2,.61,2.34,2.34,0,0,0,0,3.34A2.88,2.88,0,0,0,57.35,76.85Z"/></g></g></svg>