<svg xmlns="http://www.w3.org/2000/svg" viewBox="0 0 105.29 104.84"><defs><style>.cls-1{isolation:isolate;}.cls-2{fill:#ed7d03;}.cls-3{fill:#ff8c03;}.cls-4{fill:#fcbc08;}.cls-5{fill:#f28106;opacity:0.7;}.cls-6{fill:#7c6a13;}.cls-7{fill:#937b18;}.cls-8{fill:#b86313;}.cls-11,.cls-9{fill:#cc7917;}.cls-10{fill:#9e4727;}.cls-11,.cls-12,.cls-17{opacity:0.5;}.cls-11,.cls-15,.cls-17{mix-blend-mode:multiply;}.cls-13,.cls-16{fill:#fff;}.cls-14,.cls-15{opacity:0.3;}.cls-14{mix-blend-mode:screen;}.cls-16{opacity:0.1;}</style></defs><title>orange11</title><g class="cls-1"><g id="Layer_1" data-name="Layer 1"><path class="cls-2" d="M79.35,47.15c-4.72-1.6-9.7-5.65-10.85-10.74H24.28V66.62H81.59V47.76C80.83,47.59,80.08,47.39,79.35,47.15Z"/><path class="cls-3" d="M66.81,13.24c3,2.19,6.91,9.14,2.29,14.85s-11.37,6.05-16.47,2.69a11.47,11.47,0,0,1-1.42-18.13C56.35,7.76,62.3,9.92,66.81,13.24Z"/><path class="cls-4" d="M54.32,12.42h0Z"/><path class="cls-4" d="M55,13.14c.35-.17.74-.53.41-.84s-.77,0-1.09.12C53.9,12.82,54.08,13.6,55,13.14Z"/><path class="cls-4" d="M54.34,12.42l.53-.21A.78.78,0,0,0,54.34,12.42Z"/><path class="cls-4" d="M53.38,14c.13-.1.31-.3.14-.44a.23.23,0,0,0-.34.07.48.48,0,0,0-.22.29C52.94,14.16,53.24,14.05,53.38,14Z"/><path class="cls-4" d="M55.67,13.77a.3.3,0,0,0-.33,0c-.16,0-.35.08-.39.21a.11.11,0,0,0,0,.08l-.05,0,.05,0c0,.15.38,0,.51,0S55.93,13.91,55.67,13.77Z"/><path class="cls-4" d="M54.9,14.1h0Z"/><path class="cls-4" d="M56.4,13c-.15,0-.32.21-.23.36s.44.09.56,0C57.23,13.08,56.59,12.87,56.4,13Z"/><path class="cls-4" d="M57,12.06c-.11,0-.3-.07-.38,0a.15.15,0,0,0,0,.17c0,.11.18.2.25.24s.92.32,1,.06S57.21,12.08,57,12.06Z"/><path class="cls-4" d="M56.2,11.54c.15.08.71.06.77-.16s-.31-.28-.45-.26a.58.58,0,0,0-.25.14C56.13,11.33,56,11.44,56.2,11.54Z"/><path class="cls-4" d="M53.48,12.86c.29-.21,0-.33-.22-.29h0c-.13,0-.46.14-.37.32S53.37,13,53.48,12.86Z"/><path class="cls-4" d="M52.26,14.25c.11-.13.44-.67.06-.69a.23.23,0,0,0-.2.1,1.06,1.06,0,0,0-.38.53C51.59,14.69,52.07,14.46,52.26,14.25Z"/><path class="cls-4" d="M54.31,14.4a.74.74,0,0,0-.5,0,1,1,0,0,0-.67.52c-.12.51.79.14,1,.07S54.73,14.56,54.31,14.4Z"/><path class="cls-4" d="M55.83,14.81c-.14,0-.3.17-.29.29s.52.18.66.11C56.76,15,56,14.69,55.83,14.81Z"/><path class="cls-4" d="M59.42,11.93a.23.23,0,0,0-.25.1.68.68,0,0,0,1,0A.58.58,0,0,0,59.42,11.93Z"/><path class="cls-4" d="M57.94,13.27c.32.11,1.17.16,1.23-.28a.75.75,0,0,0-.68-.08C58.23,12.9,58,13,57.94,13.27Z"/><path class="cls-4" d="M58.56,11a.46.46,0,0,0-.63-.07.32.32,0,0,0-.15.19A.62.62,0,0,0,58.56,11Z"/><path class="cls-4" d="M60.87,12.8c-.63,0,.18.8.53.55S61.12,12.63,60.87,12.8Z"/><path class="cls-4" d="M51.94,15.39c-.2-.16-.36,0-.47.18-.42.27-.93.9-.53,1.06S51.93,15.73,51.94,15.39Z"/><path class="cls-4" d="M50.78,14.56c-.54.11-.28,1,.23.39C51.33,14.57,51,14.45,50.78,14.56Z"/><path class="cls-4" d="M53.86,16.21a.29.29,0,0,0-.2.25c.2.15.74.16.87-.11S54,15.9,53.86,16.21Z"/><path class="cls-4" d="M58.65,14.74l0-.05a.61.61,0,0,0,0,.11c0,.06,0,.1,0,.12.11.29.73.3.61-.07S58.79,14.59,58.65,14.74Z"/><path class="cls-4" d="M64.21,14c-.37-.5-1.12,0-.65.16C63.84,14.31,64.56,14.44,64.21,14Z"/><path class="cls-4" d="M51.26,18.74l.07-.13a.93.93,0,0,0-.4.63c.22.06.85-.37.84-.65S51.44,18.47,51.26,18.74Z"/><path class="cls-4" d="M56.93,17.32c.08.09.14.09.21.05.27,0,.75,0,.54-.31S57,17.1,56.93,17.32Z"/><path class="cls-4" d="M49.1,17a.54.54,0,0,0,0,.22c.32.11,1.14,0,.87-.51S49.19,16.67,49.1,17Z"/><path class="cls-4" d="M50.21,15.68h0a.27.27,0,0,0-.33.27.39.39,0,0,0,.55-.22A.39.39,0,0,0,50.21,15.68Z"/><path class="cls-5" d="M51.26,27c-1.17.86,4.81,5.19,8.69,5a11.44,11.44,0,0,0,9.41-6c1-2.15.66-8.23-.62-7.81-.46.15.1,2.22-1.78,5.35-1.66,2.74-4.48,5.45-8.22,5.26C53.63,28.6,52,26.43,51.26,27Z"/><path class="cls-6" d="M64.09,11.94a.55.55,0,0,0-.49.84c.32.8,2.27,2.1,2.83,1.88s.59-.87-.23-1.5A4.76,4.76,0,0,0,64.09,11.94Z"/><path class="cls-6" d="M65.1,13s2.26-2.34,2.9-3.22a40.43,40.43,0,0,0,2.15-4.22s.2-.3.47-.25.2.47.2.47S69.24,9,68.6,9.91c-1.29,1.8-3,3.77-3,3.77Z"/><path class="cls-6" d="M69,8.6l-3.73-.47-.13.22,1.85.3,1.85.3Z"/><path class="cls-6" d="M61.27,12.81c-3.85,1-9.55-1.77-9.55-1.77s3.81-4.43,7.07-4.77,8.93,2.27,8.93,2.27A13.56,13.56,0,0,1,61.27,12.81Z"/><path class="cls-7" d="M64.12,12.18A.82.82,0,0,0,64,13a4.09,4.09,0,0,0,1.4,1.11l.09-.7s-.3-.21-.33-.38a.39.39,0,0,1,0-.27Z"/><path class="cls-7" d="M66.46,8.64A30.51,30.51,0,0,0,60,8.7c-3,.43-7.52,1.86-7.46,2.07S57.48,9.13,59.9,9s6.74,0,6.74,0Z"/><path class="cls-7" d="M64.94,8.75a3.28,3.28,0,0,1-.63,1.17,8.7,8.7,0,0,0-1.08,1.69A9.93,9.93,0,0,0,64.48,10c.36-.53.82-1.27.82-1.27Z"/><path class="cls-7" d="M61.94,8.77a5.29,5.29,0,0,1-.66,1.91c-.66,1.36-.93,1.76-.76,1.79s.66-1,1-1.74.85-2,.85-2Z"/><path class="cls-7" d="M59,9.05a3.65,3.65,0,0,1-.23,1.42c-.3,1-.66,1.57-.53,1.64s.49-.87.69-1.59.5-1.63.5-1.63Z"/><path class="cls-7" d="M55.89,9.79a2.13,2.13,0,0,1-.16.84c-.18.51-.47,1-.38,1a1.93,1.93,0,0,0,.53-.92l.28-1Z"/><path class="cls-7" d="M65.3,8.67a4.38,4.38,0,0,0-1.13-1.09A3.5,3.5,0,0,0,62.71,7c-.08.07.83.32,1.15.53A12.23,12.23,0,0,1,65,8.66Z"/><path class="cls-7" d="M62.21,8.58a2.81,2.81,0,0,0-.92-1.23,4.57,4.57,0,0,0-2-.8c-.2.06,1.5.49,1.88.87a4.1,4.1,0,0,1,.69,1.2Z"/><path class="cls-7" d="M59.46,8.89A6.75,6.75,0,0,0,58.07,7.8a5.92,5.92,0,0,0-1.66-.42c-.19,0,1.28.33,1.69.62a9.06,9.06,0,0,1,1,1Z"/><path class="cls-7" d="M55.89,9.7s0-.24-.74-.5-1.06-.43-.91-.43a5.09,5.09,0,0,1,.91.24,5.46,5.46,0,0,1,1.07.61Z"/><path class="cls-3" d="M47.06,14.35c3,2.19,6.91,9.14,2.29,14.85S38,35.26,32.88,31.9a11.5,11.5,0,0,1-1.42-18.14C36.6,8.87,42.56,11,47.06,14.35Z"/><path class="cls-4" d="M34.57,13.53h0Z"/><path class="cls-4" d="M35.27,14.26c.34-.17.74-.53.41-.85s-.78,0-1.1.12C34.15,13.93,34.33,14.71,35.27,14.26Z"/><path class="cls-4" d="M34.59,13.53l.53-.21A.78.78,0,0,0,34.59,13.53Z"/><path class="cls-4" d="M33.63,15.06c.13-.1.31-.3.14-.44a.24.24,0,0,0-.34.07.43.43,0,0,0-.21.29C33.19,15.27,33.5,15.16,33.63,15.06Z"/><path class="cls-4" d="M35.92,14.88a.35.35,0,0,0-.33,0c-.16,0-.35.08-.39.21a.11.11,0,0,0,0,.08l-.05,0,.05,0c0,.14.38,0,.51,0S36.19,15,35.92,14.88Z"/><path class="cls-4" d="M35.15,15.21h0Z"/><path class="cls-4" d="M36.65,14.09c-.15.05-.32.22-.23.36s.44.09.56,0C37.49,14.2,36.84,14,36.65,14.09Z"/><path class="cls-4" d="M37.28,13.17c-.1,0-.29-.06-.37,0a.15.15,0,0,0,0,.18c0,.1.18.2.25.23s.92.32,1,.06S37.47,13.2,37.28,13.17Z"/><path class="cls-4" d="M36.45,12.65c.15.09.71.06.77-.16s-.31-.28-.45-.26a.5.5,0,0,0-.24.14C36.38,12.44,36.27,12.56,36.45,12.65Z"/><path class="cls-4" d="M33.73,14c.29-.22,0-.34-.22-.3h0c-.14,0-.46.14-.38.32S33.62,14.06,33.73,14Z"/><path class="cls-4" d="M32.51,15.36c.11-.13.44-.67.06-.69a.26.26,0,0,0-.2.1,1.12,1.12,0,0,0-.38.53C31.84,15.8,32.32,15.58,32.51,15.36Z"/><path class="cls-4" d="M34.56,15.51a.8.8,0,0,0-.5,0c-.28.08-.62.31-.67.52-.12.52.79.14,1,.08S35,15.67,34.56,15.51Z"/><path class="cls-4" d="M36.09,15.92c-.15.05-.31.17-.3.29s.52.18.67.11C37,16.06,36.29,15.81,36.09,15.92Z"/><path class="cls-4" d="M39.67,13a.24.24,0,0,0-.25.1.7.7,0,0,0,1,0A.59.59,0,0,0,39.67,13Z"/><path class="cls-4" d="M38.2,14.38c.31.11,1.16.17,1.23-.28a.76.76,0,0,0-.68-.08C38.48,14,38.2,14.1,38.2,14.38Z"/><path class="cls-4" d="M38.81,12.08a.44.44,0,0,0-.62-.06.25.25,0,0,0-.15.18A.59.59,0,0,0,38.81,12.08Z"/><path class="cls-4" d="M41.12,13.91c-.63,0,.18.81.53.55S41.37,13.75,41.12,13.91Z"/><path class="cls-4" d="M32.19,16.5c-.2-.15-.36,0-.47.18-.42.27-.92.91-.52,1.06S32.18,16.85,32.19,16.5Z"/><path class="cls-4" d="M31,15.68c-.54.1-.29,1,.23.38C31.58,15.68,31.26,15.56,31,15.68Z"/><path class="cls-4" d="M34.11,17.33a.27.27,0,0,0-.2.25c.2.14.74.15.87-.11S34.29,17,34.11,17.33Z"/><path class="cls-4" d="M38.9,15.85l0,0a.36.36,0,0,0,0,.11c0,.05,0,.09,0,.11.12.3.74.31.62-.06S39.05,15.71,38.9,15.85Z"/><path class="cls-4" d="M44.46,15.06c-.37-.5-1.12,0-.65.16C44.09,15.42,44.82,15.56,44.46,15.06Z"/><path class="cls-4" d="M31.51,19.85l.08-.13a.87.87,0,0,0-.4.63c.21.06.85-.36.83-.64C32,19.28,31.7,19.58,31.51,19.85Z"/><path class="cls-4" d="M37.19,18.44a.14.14,0,0,0,.21,0c.26,0,.74,0,.54-.31S37.26,18.22,37.19,18.44Z"/><path class="cls-4" d="M29.35,18.16a.36.36,0,0,0,0,.21c.32.11,1.13,0,.86-.5S29.44,17.78,29.35,18.16Z"/><path class="cls-4" d="M30.46,16.79h0a.27.27,0,0,0-.33.26.4.4,0,0,0,.56-.21A.37.37,0,0,0,30.46,16.79Z"/><path class="cls-5" d="M31.52,28.11c-1.18.86,4.8,5.2,8.69,5a11.47,11.47,0,0,0,9.4-6c1-2.15.67-8.23-.62-7.81-.46.15.1,2.22-1.78,5.35C45.56,27.44,42.74,30.15,39,30,33.88,29.71,32.29,27.54,31.52,28.11Z"/><path class="cls-6" d="M44.34,13.05a.55.55,0,0,0-.49.84c.32.8,2.27,2.1,2.83,1.88s.59-.87-.23-1.5A4.86,4.86,0,0,0,44.34,13.05Z"/><path class="cls-6" d="M45.35,14.12s2.26-2.34,2.91-3.22A42,42,0,0,0,50.4,6.68s.2-.3.47-.25.2.47.2.47S49.5,10.13,48.86,11c-1.3,1.8-3,3.77-3,3.77Z"/><path class="cls-6" d="M49.3,9.72c-.14,0-3.74-.47-3.74-.47l-.13.21,1.85.3,1.85.31Z"/><path class="cls-6" d="M41.52,13.92c-3.85,1-9.55-1.77-9.55-1.77S35.78,7.72,39,7.38,48,9.66,48,9.66A13.44,13.44,0,0,1,41.52,13.92Z"/><path class="cls-7" d="M44.37,13.29a.82.82,0,0,0-.09.79,4.17,4.17,0,0,0,1.41,1.12l.09-.71s-.3-.2-.33-.38a.41.41,0,0,1,0-.27Z"/><path class="cls-7" d="M46.71,9.75a30.48,30.48,0,0,0-6.46.06c-3,.43-7.52,1.87-7.46,2.07s4.94-1.64,7.36-1.8,6.74,0,6.74,0Z"/><path class="cls-7" d="M45.19,9.86A3.41,3.41,0,0,1,44.57,11a8.25,8.25,0,0,0-1.09,1.68,10.43,10.43,0,0,0,1.26-1.57c.35-.52.81-1.26.81-1.26Z"/><path class="cls-7" d="M42.2,9.89a5.29,5.29,0,0,1-.66,1.91c-.67,1.36-.93,1.75-.77,1.78s.66-1,1-1.74.85-2,.85-2Z"/><path class="cls-7" d="M39.28,10.16a3.65,3.65,0,0,1-.23,1.42c-.3,1-.66,1.57-.52,1.64s.48-.86.68-1.59.5-1.62.5-1.62Z"/><path class="cls-7" d="M36.14,10.9a2.13,2.13,0,0,1-.16.84c-.18.52-.47,1-.38,1a1.88,1.88,0,0,0,.53-.92l.28-1Z"/><path class="cls-7" d="M45.55,9.78a4.38,4.38,0,0,0-1.13-1.09A3.61,3.61,0,0,0,43,8.1c-.08.07.83.33,1.15.54a12.41,12.41,0,0,1,1.18,1.13Z"/><path class="cls-7" d="M42.47,9.69a2.91,2.91,0,0,0-.92-1.23,4.73,4.73,0,0,0-2.06-.8c-.19.07,1.5.49,1.88.87a4.1,4.1,0,0,1,.69,1.2Z"/><path class="cls-7" d="M39.71,10a6.28,6.28,0,0,0-1.38-1.09,6.1,6.1,0,0,0-1.66-.43c-.2,0,1.27.33,1.68.62a9.24,9.24,0,0,1,1,1Z"/><path class="cls-7" d="M36.14,10.81s0-.24-.73-.5-1.07-.42-.92-.43a4.88,4.88,0,0,1,.91.24,5.46,5.46,0,0,1,1.07.61Z"/><path class="cls-3" d="M80.71,24.92c3,2.19,6.92,9.14,2.29,14.85s-11.37,6-16.46,2.7a11.48,11.48,0,0,1-1.42-18.14C70.26,19.44,76.21,21.61,80.71,24.92Z"/><path class="cls-4" d="M68.23,24.1h0Z"/><path class="cls-4" d="M68.92,24.82c.35-.16.74-.52.41-.84s-.78,0-1.09.12C67.81,24.5,68,25.28,68.92,24.82Z"/><path class="cls-4" d="M68.24,24.1l.54-.21A.83.83,0,0,0,68.24,24.1Z"/><path class="cls-4" d="M67.29,25.63c.13-.1.31-.3.13-.44a.22.22,0,0,0-.33.07.44.44,0,0,0-.22.29C66.84,25.84,67.15,25.73,67.29,25.63Z"/><path class="cls-4" d="M69.57,25.45a.35.35,0,0,0-.33,0c-.15,0-.35.08-.38.21a.25.25,0,0,0,0,.08l0,0,0,0c.05.15.39,0,.51,0S69.84,25.59,69.57,25.45Z"/><path class="cls-4" d="M68.81,25.78h0Z"/><path class="cls-4" d="M70.31,24.66c-.15.05-.32.22-.24.36s.44.09.57,0C71.14,24.76,70.49,24.55,70.31,24.66Z"/><path class="cls-4" d="M70.93,23.74c-.1,0-.29-.06-.37,0a.15.15,0,0,0,0,.18c0,.1.18.19.25.23s.91.32,1,.06S71.12,23.77,70.93,23.74Z"/><path class="cls-4" d="M70.1,23.22c.16.08.72.06.77-.16s-.3-.28-.45-.26a.61.61,0,0,0-.24.14C70,23,69.92,23.12,70.1,23.22Z"/><path class="cls-4" d="M67.39,24.55c.29-.22,0-.34-.23-.3h0c-.13,0-.46.14-.37.32S67.27,24.63,67.39,24.55Z"/><path class="cls-4" d="M66.17,25.93c.11-.13.44-.67.06-.69a.26.26,0,0,0-.2.1,1.15,1.15,0,0,0-.39.53C65.5,26.37,66,26.15,66.17,25.93Z"/><path class="cls-4" d="M68.22,26.08a.76.76,0,0,0-.51,0,1,1,0,0,0-.66.52c-.13.52.78.14,1,.08S68.64,26.24,68.22,26.08Z"/><path class="cls-4" d="M69.74,26.49c-.14.05-.3.17-.3.29s.52.18.67.11C70.67,26.63,69.94,26.38,69.74,26.49Z"/><path class="cls-4" d="M73.33,23.61a.23.23,0,0,0-.25.1.69.69,0,0,0,1,0A.57.57,0,0,0,73.33,23.61Z"/><path class="cls-4" d="M71.85,25c.31.11,1.16.16,1.23-.28a.75.75,0,0,0-.68-.08C72.13,24.58,71.85,24.67,71.85,25Z"/><path class="cls-4" d="M72.46,22.65a.44.44,0,0,0-.62-.06.28.28,0,0,0-.15.18A.59.59,0,0,0,72.46,22.65Z"/><path class="cls-4" d="M74.77,24.48c-.62,0,.19.81.53.55S75,24.31,74.77,24.48Z"/><path class="cls-4" d="M65.84,27.07c-.19-.15-.35,0-.47.18-.42.27-.92.91-.52,1.06S65.83,27.42,65.84,27.07Z"/><path class="cls-4" d="M64.69,26.25c-.54.1-.28,1,.23.38C65.24,26.25,64.91,26.13,64.69,26.25Z"/><path class="cls-4" d="M67.76,27.9a.28.28,0,0,0-.2.24c.21.15.74.16.88-.11S67.94,27.59,67.76,27.9Z"/><path class="cls-4" d="M72.56,26.42l0-.05a.26.26,0,0,0,0,.11c0,.06,0,.1,0,.12.11.3.73.31.61-.07S72.7,26.28,72.56,26.42Z"/><path class="cls-4" d="M78.11,25.63c-.36-.5-1.12,0-.64.16C77.75,26,78.47,26.13,78.11,25.63Z"/><path class="cls-4" d="M65.16,30.42l.08-.13a.9.9,0,0,0-.4.63c.21.06.85-.36.83-.64C65.65,29.85,65.35,30.15,65.16,30.42Z"/><path class="cls-4" d="M70.84,29c.08.1.14.09.21.05.26,0,.74,0,.54-.31S70.91,28.78,70.84,29Z"/><path class="cls-4" d="M63,28.72a.53.53,0,0,0,0,.22c.32.11,1.14,0,.87-.51S63.1,28.35,63,28.72Z"/><path class="cls-4" d="M64.12,27.36h0a.26.26,0,0,0-.33.26.39.39,0,0,0,.55-.21A.34.34,0,0,0,64.12,27.36Z"/><path class="cls-5" d="M65.17,38.68c-1.17.86,4.8,5.2,8.69,5a11.47,11.47,0,0,0,9.4-6c1-2.15.67-8.23-.62-7.81-.45.15.11,2.22-1.78,5.35-1.65,2.74-4.47,5.45-8.21,5.26C67.54,40.28,66,38.11,65.17,38.68Z"/><path class="cls-6" d="M78,23.62a.55.55,0,0,0-.48.84c.32.8,2.27,2.1,2.83,1.88s.58-.87-.23-1.5A4.83,4.83,0,0,0,78,23.62Z"/><path class="cls-6" d="M79,24.69s2.26-2.34,2.9-3.22a39.9,39.9,0,0,0,2.14-4.22s.2-.3.48-.25.2.47.2.47-1.58,3.23-2.22,4.12c-1.3,1.8-3,3.77-3,3.77Z"/><path class="cls-6" d="M83,20.29c-.14,0-3.73-.48-3.73-.48l-.14.22,1.86.3,1.85.31Z"/><path class="cls-6" d="M75.18,24.49c-3.86,1-9.55-1.77-9.55-1.77s3.8-4.43,7.07-4.77,8.92,2.27,8.92,2.27A13.43,13.43,0,0,1,75.18,24.49Z"/><path class="cls-7" d="M78,23.86a.82.82,0,0,0-.09.79,4.16,4.16,0,0,0,1.4,1.12l.09-.71s-.3-.2-.33-.38a.41.41,0,0,1,0-.27Z"/><path class="cls-7" d="M80.36,20.32a30.4,30.4,0,0,0-6.45.06c-3,.43-7.52,1.87-7.47,2.07s5-1.64,7.37-1.8,6.73,0,6.73,0Z"/><path class="cls-7" d="M78.85,20.43a3.36,3.36,0,0,1-.63,1.18,8.47,8.47,0,0,0-1.08,1.68,10.55,10.55,0,0,0,1.25-1.57c.35-.52.81-1.26.81-1.26Z"/><path class="cls-7" d="M75.85,20.45a5.29,5.29,0,0,1-.66,1.92c-.66,1.36-.93,1.75-.77,1.78s.66-1,1-1.74.85-2,.85-2Z"/><path class="cls-7" d="M72.93,20.73a3.65,3.65,0,0,1-.23,1.42c-.29,1-.66,1.57-.52,1.64s.48-.86.68-1.59.5-1.62.5-1.62Z"/><path class="cls-7" d="M69.8,21.47a2.39,2.39,0,0,1-.16.84c-.18.52-.47,1-.39,1a1.84,1.84,0,0,0,.54-.92c.13-.46.27-1,.27-1Z"/><path class="cls-7" d="M79.2,20.35a4.38,4.38,0,0,0-1.13-1.09,3.41,3.41,0,0,0-1.46-.59c-.07.07.83.33,1.15.53A11.47,11.47,0,0,1,79,20.34Z"/><path class="cls-7" d="M76.12,20.26A2.91,2.91,0,0,0,75.2,19a4.57,4.57,0,0,0-2-.8c-.2.07,1.5.49,1.88.87a4.1,4.1,0,0,1,.69,1.2Z"/><path class="cls-7" d="M73.36,20.58A6.54,6.54,0,0,0,72,19.48a6.29,6.29,0,0,0-1.66-.42c-.2,0,1.27.33,1.69.62a9.06,9.06,0,0,1,1,1Z"/><path class="cls-7" d="M69.79,21.38s0-.24-.73-.5-1.06-.43-.92-.43a4.69,4.69,0,0,1,.91.24,5.66,5.66,0,0,1,1.08.61Z"/><path class="cls-3" d="M60.15,21.68c3,2.19,6.91,9.14,2.29,14.85s-11.37,6-16.47,2.7a11.48,11.48,0,0,1-1.42-18.14C49.69,16.2,55.64,18.37,60.15,21.68Z"/><path class="cls-4" d="M47.66,20.86h0Z"/><path class="cls-4" d="M48.35,21.58c.35-.16.74-.52.41-.84s-.77,0-1.09.12C47.24,21.26,47.42,22,48.35,21.58Z"/><path class="cls-4" d="M47.68,20.86l.53-.21A.78.78,0,0,0,47.68,20.86Z"/><path class="cls-4" d="M46.72,22.39c.13-.1.31-.3.14-.44a.23.23,0,0,0-.34.07.48.48,0,0,0-.22.29C46.28,22.6,46.58,22.49,46.72,22.39Z"/><path class="cls-4" d="M49,22.21a.33.33,0,0,0-.32,0c-.16,0-.35.08-.39.21a.11.11,0,0,0,0,.08l0,0,0,0c0,.15.38,0,.51,0S49.27,22.35,49,22.21Z"/><path class="cls-4" d="M48.24,22.54h0Z"/><path class="cls-4" d="M49.74,21.42c-.15,0-.32.22-.23.36s.44.09.56,0C50.57,21.52,49.93,21.31,49.74,21.42Z"/><path class="cls-4" d="M50.37,20.5c-.11,0-.3-.06-.38,0a.17.17,0,0,0,0,.18c0,.1.18.19.25.23s.92.32,1,.06S50.55,20.53,50.37,20.5Z"/><path class="cls-4" d="M49.54,20c.15.08.71.06.77-.16s-.31-.28-.45-.26a.58.58,0,0,0-.25.14C49.47,19.77,49.35,19.88,49.54,20Z"/><path class="cls-4" d="M46.82,21.31c.29-.22,0-.34-.22-.3h0c-.13,0-.46.14-.37.32S46.71,21.39,46.82,21.31Z"/><path class="cls-4" d="M45.6,22.69c.11-.13.44-.67.06-.69a.26.26,0,0,0-.2.1,1.06,1.06,0,0,0-.38.53C44.93,23.13,45.41,22.91,45.6,22.69Z"/><path class="cls-4" d="M47.65,22.84a.74.74,0,0,0-.5,0,1,1,0,0,0-.67.52c-.12.52.79.14,1,.08S48.07,23,47.65,22.84Z"/><path class="cls-4" d="M49.17,23.25c-.14.05-.3.17-.3.29s.53.18.67.11C50.1,23.39,49.37,23.14,49.17,23.25Z"/><path class="cls-4" d="M52.76,20.37a.23.23,0,0,0-.25.1.69.69,0,0,0,1,0A.57.57,0,0,0,52.76,20.37Z"/><path class="cls-4" d="M51.28,21.71c.32.11,1.17.16,1.23-.28a.75.75,0,0,0-.68-.08C51.57,21.34,51.29,21.43,51.28,21.71Z"/><path class="cls-4" d="M51.9,19.41a.46.46,0,0,0-.63-.06.28.28,0,0,0-.15.18A.6.6,0,0,0,51.9,19.41Z"/><path class="cls-4" d="M54.21,21.24c-.63,0,.18.81.53.55S54.46,21.07,54.21,21.24Z"/><path class="cls-4" d="M45.28,23.83c-.2-.15-.36,0-.47.18-.42.27-.93.91-.53,1.06S45.26,24.18,45.28,23.83Z"/><path class="cls-4" d="M44.12,23c-.54.1-.28,1,.23.38C44.67,23,44.34,22.89,44.12,23Z"/><path class="cls-4" d="M47.2,24.66a.27.27,0,0,0-.2.24c.2.15.74.16.87-.11S47.37,24.35,47.2,24.66Z"/><path class="cls-4" d="M52,23.18l0-.05a.61.61,0,0,0,0,.11c0,.06,0,.1,0,.12.11.3.73.31.61-.07S52.13,23,52,23.18Z"/><path class="cls-4" d="M57.55,22.39c-.37-.5-1.12,0-.65.16C57.18,22.75,57.9,22.89,57.55,22.39Z"/><path class="cls-4" d="M44.6,27.18l.07-.13a.93.93,0,0,0-.4.63c.22.06.85-.36.84-.64S44.78,26.91,44.6,27.18Z"/><path class="cls-4" d="M50.27,25.76c.08.1.14.09.21,0,.27,0,.75,0,.54-.31S50.35,25.54,50.27,25.76Z"/><path class="cls-4" d="M42.44,25.48a.54.54,0,0,0,0,.22c.32.11,1.14,0,.87-.51S42.53,25.11,42.44,25.48Z"/><path class="cls-4" d="M43.55,24.12h0a.27.27,0,0,0-.33.26.39.39,0,0,0,.55-.21A.34.34,0,0,0,43.55,24.12Z"/><path class="cls-5" d="M44.6,35.44c-1.17.86,4.81,5.2,8.69,5.05a11.47,11.47,0,0,0,9.41-6c1-2.15.66-8.23-.62-7.81-.46.15.1,2.22-1.78,5.35-1.66,2.74-4.48,5.45-8.22,5.26C47,37,45.38,34.87,44.6,35.44Z"/><path class="cls-6" d="M57.43,20.38a.55.55,0,0,0-.49.84c.32.8,2.27,2.1,2.83,1.88s.59-.87-.23-1.5A4.86,4.86,0,0,0,57.43,20.38Z"/><path class="cls-6" d="M58.44,21.45s2.26-2.34,2.9-3.22A40.43,40.43,0,0,0,63.49,14s.2-.3.47-.25.2.47.2.47-1.58,3.23-2.22,4.12c-1.29,1.8-3,3.77-3,3.77Z"/><path class="cls-6" d="M62.38,17.05c-.14,0-3.73-.48-3.73-.48l-.13.22,1.85.3,1.85.31Z"/><path class="cls-6" d="M54.61,21.25c-3.85,1-9.55-1.77-9.55-1.77s3.8-4.43,7.07-4.77S61.06,17,61.06,17A13.49,13.49,0,0,1,54.61,21.25Z"/><path class="cls-7" d="M57.46,20.62a.82.82,0,0,0-.09.79,4.16,4.16,0,0,0,1.4,1.12l.09-.71s-.3-.2-.33-.38a.41.41,0,0,1,0-.27Z"/><path class="cls-7" d="M59.8,17.08a30.51,30.51,0,0,0-6.46.06c-3,.43-7.52,1.87-7.46,2.07s4.94-1.64,7.36-1.8,6.74,0,6.74,0Z"/><path class="cls-7" d="M58.28,17.19a3.36,3.36,0,0,1-.63,1.18,8.47,8.47,0,0,0-1.08,1.68,9.93,9.93,0,0,0,1.25-1.57c.36-.52.82-1.26.82-1.26Z"/><path class="cls-7" d="M55.28,17.21a5.29,5.29,0,0,1-.66,1.92c-.66,1.36-.93,1.75-.76,1.78s.66-1,1-1.74.85-2,.85-2Z"/><path class="cls-7" d="M52.37,17.49a3.65,3.65,0,0,1-.23,1.42c-.3,1-.66,1.57-.53,1.64s.49-.86.69-1.59.5-1.62.5-1.62Z"/><path class="cls-7" d="M49.23,18.23a2.13,2.13,0,0,1-.16.84c-.18.52-.47,1-.38,1a1.93,1.93,0,0,0,.53-.92l.28-1Z"/><path class="cls-7" d="M58.64,17.11A4.32,4.32,0,0,0,57.5,16a3.44,3.44,0,0,0-1.45-.59c-.08.07.83.33,1.15.53a12.23,12.23,0,0,1,1.18,1.14Z"/><path class="cls-7" d="M55.55,17a2.81,2.81,0,0,0-.92-1.23,4.57,4.57,0,0,0-2.05-.8c-.2.07,1.5.49,1.88.87a4.1,4.1,0,0,1,.69,1.2Z"/><path class="cls-7" d="M52.8,17.34a6.69,6.69,0,0,0-1.39-1.1,6.29,6.29,0,0,0-1.66-.42c-.19,0,1.28.33,1.69.62a9.06,9.06,0,0,1,1,1Z"/><path class="cls-7" d="M49.23,18.14s0-.24-.74-.5-1.06-.43-.91-.43a5.09,5.09,0,0,1,.91.24,5.46,5.46,0,0,1,1.07.61Z"/><path class="cls-3" d="M69.87,31.87c3,2.2,6.91,9.14,2.29,14.85s-11.38,6.06-16.47,2.7a11.47,11.47,0,0,1-1.42-18.13C59.41,26.39,65.36,28.56,69.87,31.87Z"/><path class="cls-4" d="M57.38,31.06h0Z"/><path class="cls-4" d="M58.07,31.78c.35-.17.74-.53.41-.85s-.77.05-1.09.12C57,31.45,57.14,32.23,58.07,31.78Z"/><path class="cls-4" d="M57.39,31.05l.54-.21A.88.88,0,0,0,57.39,31.05Z"/><path class="cls-4" d="M56.44,32.58c.13-.09.31-.3.14-.44a.23.23,0,0,0-.34.08.43.43,0,0,0-.22.28C56,32.8,56.3,32.68,56.44,32.58Z"/><path class="cls-4" d="M58.72,32.4a.33.33,0,0,0-.32,0c-.16,0-.35.09-.39.21a.11.11,0,0,0,0,.08s0,0,0,0l0,0c0,.14.38,0,.5,0S59,32.55,58.72,32.4Z"/><path class="cls-4" d="M58,32.73l0,0Z"/><path class="cls-4" d="M59.46,31.62c-.15,0-.32.21-.23.36s.44.09.56,0C60.29,31.72,59.64,31.51,59.46,31.62Z"/><path class="cls-4" d="M60.09,30.69c-.11,0-.3-.06-.38,0a.15.15,0,0,0,0,.18c0,.1.18.2.25.23s.92.33,1,.07S60.27,30.72,60.09,30.69Z"/><path class="cls-4" d="M59.25,30.17c.16.09.72.07.78-.16s-.31-.27-.45-.26a.71.71,0,0,0-.25.14C59.19,30,59.07,30.08,59.25,30.17Z"/><path class="cls-4" d="M56.54,31.5c.29-.22,0-.34-.22-.29h0c-.13,0-.46.15-.37.33S56.43,31.58,56.54,31.5Z"/><path class="cls-4" d="M55.32,32.88c.11-.12.44-.67.06-.69a.3.3,0,0,0-.2.1,1.06,1.06,0,0,0-.38.53C54.65,33.33,55.13,33.1,55.32,32.88Z"/><path class="cls-4" d="M57.37,33a.74.74,0,0,0-.5,0,1,1,0,0,0-.67.51c-.13.52.78.15,1,.08S57.79,33.19,57.37,33Z"/><path class="cls-4" d="M58.89,33.44c-.14.05-.3.17-.3.29s.53.18.67.11C59.82,33.58,59.09,33.33,58.89,33.44Z"/><path class="cls-4" d="M62.48,30.56a.25.25,0,0,0-.25.1.68.68,0,0,0,1,0A.57.57,0,0,0,62.48,30.56Z"/><path class="cls-4" d="M61,31.9c.32.11,1.17.17,1.23-.27a.7.7,0,0,0-.68-.08C61.29,31.53,61,31.62,61,31.9Z"/><path class="cls-4" d="M61.62,29.6a.46.46,0,0,0-.63-.06.28.28,0,0,0-.15.18A.6.6,0,0,0,61.62,29.6Z"/><path class="cls-4" d="M63.93,31.43c-.63,0,.18.81.53.55S64.18,31.27,63.93,31.43Z"/><path class="cls-4" d="M55,34c-.2-.15-.36,0-.47.18-.42.27-.93.91-.53,1.06S55,34.37,55,34Z"/><path class="cls-4" d="M53.84,33.2c-.54.1-.28,1,.23.39C54.39,33.21,54.06,33.08,53.84,33.2Z"/><path class="cls-4" d="M56.91,34.85a.29.29,0,0,0-.19.25c.2.14.74.15.87-.11S57.09,34.54,56.91,34.85Z"/><path class="cls-4" d="M61.71,33.37l0,0a.45.45,0,0,0,0,.11c0,.05,0,.1,0,.11.11.3.73.31.61-.06S61.85,33.23,61.71,33.37Z"/><path class="cls-4" d="M67.27,32.59c-.37-.51-1.12,0-.65.16C66.9,33,67.62,33.08,67.27,32.59Z"/><path class="cls-4" d="M54.32,37.38l.07-.14a.93.93,0,0,0-.4.64c.22,0,.85-.37.84-.65S54.5,37.1,54.32,37.38Z"/><path class="cls-4" d="M60,36a.16.16,0,0,0,.21,0c.27,0,.75,0,.54-.32S60.06,35.74,60,36Z"/><path class="cls-4" d="M52.16,35.68a.51.51,0,0,0,0,.22c.32.11,1.14,0,.87-.51S52.25,35.3,52.16,35.68Z"/><path class="cls-4" d="M53.27,34.32h0a.26.26,0,0,0-.33.26.39.39,0,0,0,.55-.21A.33.33,0,0,0,53.27,34.32Z"/><path class="cls-5" d="M54.32,45.64c-1.17.86,4.81,5.19,8.69,5a11.42,11.42,0,0,0,9.4-6c1-2.14.67-8.23-.61-7.8-.46.15.1,2.21-1.78,5.34-1.66,2.75-4.48,5.45-8.22,5.27C56.69,47.23,55.1,45.07,54.32,45.64Z"/><path class="cls-6" d="M67.15,30.58a.54.54,0,0,0-.49.83c.32.8,2.27,2.1,2.83,1.88s.59-.87-.23-1.49A4.66,4.66,0,0,0,67.15,30.58Z"/><path class="cls-6" d="M68.16,31.65s2.26-2.34,2.9-3.22a40.36,40.36,0,0,0,2.15-4.23s.19-.3.47-.24.2.46.2.46-1.58,3.23-2.22,4.12c-1.3,1.81-3,3.77-3,3.77Z"/><path class="cls-6" d="M72.1,27.24c-.14,0-3.73-.47-3.73-.47l-.13.21,1.85.31,1.85.3Z"/><path class="cls-6" d="M64.33,31.44c-3.85,1-9.55-1.76-9.55-1.76s3.8-4.44,7.07-4.77,8.93,2.27,8.93,2.27A13.5,13.5,0,0,1,64.33,31.44Z"/><path class="cls-7" d="M67.18,30.81a.82.82,0,0,0-.09.79,4,4,0,0,0,1.4,1.12l.09-.7s-.3-.21-.33-.39a.41.41,0,0,1,0-.27Z"/><path class="cls-7" d="M69.52,27.27a30.51,30.51,0,0,0-6.46.06c-3,.44-7.52,1.87-7.46,2.07s4.94-1.64,7.36-1.8,6.73,0,6.73,0Z"/><path class="cls-7" d="M68,27.38a3.36,3.36,0,0,1-.63,1.18,8.47,8.47,0,0,0-1.08,1.68,10.21,10.21,0,0,0,1.25-1.56c.36-.53.82-1.27.82-1.27Z"/><path class="cls-7" d="M65,27.41a5.29,5.29,0,0,1-.66,1.91c-.66,1.36-.93,1.75-.76,1.79s.65-1,1-1.75.85-2,.85-2Z"/><path class="cls-7" d="M62.09,27.68a3.92,3.92,0,0,1-.23,1.42c-.3,1-.66,1.57-.53,1.64s.49-.86.69-1.59.5-1.62.5-1.62Z"/><path class="cls-7" d="M59,28.42a2.39,2.39,0,0,1-.16.84c-.18.52-.47,1-.39,1a1.74,1.74,0,0,0,.54-.92l.28-1Z"/><path class="cls-7" d="M68.36,27.3a4.2,4.2,0,0,0-1.14-1.08,3.51,3.51,0,0,0-1.45-.6c-.08.07.83.33,1.15.54A12.23,12.23,0,0,1,68.1,27.3Z"/><path class="cls-7" d="M65.27,27.21A2.75,2.75,0,0,0,64.35,26a4.45,4.45,0,0,0-2-.8c-.2.06,1.5.49,1.88.86a4.23,4.23,0,0,1,.69,1.21Z"/><path class="cls-7" d="M62.52,27.53a6.75,6.75,0,0,0-1.39-1.09A5.58,5.58,0,0,0,59.47,26c-.19,0,1.28.32,1.69.61a8.84,8.84,0,0,1,1,1Z"/><path class="cls-7" d="M59,28.34s-.05-.25-.74-.5-1.06-.43-.91-.43a4.75,4.75,0,0,1,.91.23,6.06,6.06,0,0,1,1.07.61Z"/><path class="cls-3" d="M19,21.73c-3,2.19-6.91,9.13-2.29,14.85S28.1,42.63,33.2,39.27a11.47,11.47,0,0,0,1.42-18.13C29.48,16.24,23.53,18.41,19,21.73Z"/><path class="cls-4" d="M31.51,20.91h0Z"/><path class="cls-4" d="M30.82,21.63c-.35-.17-.74-.53-.42-.85s.78,0,1.1.13C31.93,21.3,31.75,22.08,30.82,21.63Z"/><path class="cls-4" d="M31.49,20.9,31,20.7A.83.83,0,0,1,31.49,20.9Z"/><path class="cls-4" d="M32.45,22.43c-.13-.09-.31-.29-.14-.43a.23.23,0,0,1,.34.07.43.43,0,0,1,.21.29C32.89,22.65,32.59,22.53,32.45,22.43Z"/><path class="cls-4" d="M30.16,22.25a.32.32,0,0,1,.33,0c.16,0,.35.08.39.21a.11.11,0,0,1,0,.08l.05,0-.05,0c0,.14-.38,0-.51,0S29.9,22.4,30.16,22.25Z"/><path class="cls-4" d="M30.93,22.59h0Z"/><path class="cls-4" d="M29.43,21.47c.15,0,.32.21.23.36s-.44.09-.56,0C28.6,21.57,29.24,21.36,29.43,21.47Z"/><path class="cls-4" d="M28.8,20.55c.11,0,.29-.07.37,0a.15.15,0,0,1,0,.18c0,.11-.18.2-.25.24s-.92.32-1,.06S28.62,20.57,28.8,20.55Z"/><path class="cls-4" d="M29.63,20c-.15.08-.71.06-.77-.17s.31-.27.45-.25a.43.43,0,0,1,.24.14C29.7,19.82,29.81,19.93,29.63,20Z"/><path class="cls-4" d="M32.35,21.35c-.29-.21,0-.34.22-.29h0c.14,0,.47.15.38.33S32.46,21.43,32.35,21.35Z"/><path class="cls-4" d="M33.57,22.73c-.11-.12-.44-.67-.06-.69a.3.3,0,0,1,.2.1,1.08,1.08,0,0,1,.38.54C34.24,23.18,33.76,23,33.57,22.73Z"/><path class="cls-4" d="M31.52,22.89a.74.74,0,0,1,.5,0c.29.08.62.3.67.51.12.52-.79.15-1,.08S31.1,23.05,31.52,22.89Z"/><path class="cls-4" d="M30,23.3c.15,0,.31.16.3.28s-.52.18-.66.11C29.07,23.43,29.8,23.18,30,23.3Z"/><path class="cls-4" d="M26.41,20.41a.27.27,0,0,1,.25.1.69.69,0,0,1-1.05,0A.6.6,0,0,1,26.41,20.41Z"/><path class="cls-4" d="M27.89,21.75c-.32.11-1.17.17-1.23-.27a.75.75,0,0,1,.68-.08C27.6,21.39,27.88,21.48,27.89,21.75Z"/><path class="cls-4" d="M27.27,19.46a.45.45,0,0,1,.63-.07.32.32,0,0,1,.14.18A.6.6,0,0,1,27.27,19.46Z"/><path class="cls-4" d="M25,21.28c.63,0-.18.81-.53.56S24.71,21.12,25,21.28Z"/><path class="cls-4" d="M33.89,23.88c.2-.16.36,0,.47.18.42.26.93.9.53,1.06S33.9,24.22,33.89,23.88Z"/><path class="cls-4" d="M35.05,23.05c.54.11.28,1-.23.39C34.5,23.06,34.82,22.94,35.05,23.05Z"/><path class="cls-4" d="M32,24.7a.28.28,0,0,1,.2.25c-.2.15-.74.16-.87-.11S31.79,24.39,32,24.7Z"/><path class="cls-4" d="M27.18,23.22l0,0a.52.52,0,0,1,0,.11c0,.05,0,.1,0,.12-.11.29-.73.3-.62-.07S27,23.08,27.18,23.22Z"/><path class="cls-4" d="M21.62,22.44c.37-.5,1.12,0,.65.16C22,22.8,21.26,22.93,21.62,22.44Z"/><path class="cls-4" d="M34.57,27.23l-.07-.13a.91.91,0,0,1,.4.63c-.22.06-.85-.37-.84-.65S34.39,27,34.57,27.23Z"/><path class="cls-4" d="M28.9,25.81a.17.17,0,0,1-.22.05c-.26,0-.74,0-.53-.32S28.82,25.59,28.9,25.81Z"/><path class="cls-4" d="M36.73,25.53a.4.4,0,0,1,0,.22c-.32.11-1.13,0-.86-.51S36.64,25.15,36.73,25.53Z"/><path class="cls-4" d="M35.62,24.17h0a.27.27,0,0,1,.33.27.4.4,0,0,1-.55-.22A.39.39,0,0,1,35.62,24.17Z"/><path class="cls-5" d="M34.56,35.49c1.18.86-4.8,5.19-8.68,5a11.43,11.43,0,0,1-9.41-6c-1-2.14-.66-8.23.62-7.8.46.15-.1,2.21,1.78,5.34,1.65,2.75,4.48,5.46,8.21,5.27C32.2,37.09,33.79,34.92,34.56,35.49Z"/><path class="cls-6" d="M21.74,20.43a.55.55,0,0,1,.49.83c-.32.8-2.27,2.1-2.83,1.89s-.59-.88.23-1.5A4.76,4.76,0,0,1,21.74,20.43Z"/><path class="cls-6" d="M20.73,21.5s-2.26-2.34-2.91-3.22a41.89,41.89,0,0,1-2.14-4.23s-.2-.29-.47-.24-.2.47-.2.47,1.58,3.22,2.21,4.11c1.3,1.81,3,3.78,3,3.78Z"/><path class="cls-6" d="M16.79,17.09c.13,0,3.73-.47,3.73-.47l.13.21-1.85.31-1.85.3Z"/><path class="cls-6" d="M24.56,21.3c3.85,1,9.55-1.77,9.55-1.77S30.3,15.09,27,14.76,18.11,17,18.11,17A13.5,13.5,0,0,0,24.56,21.3Z"/><path class="cls-7" d="M21.71,20.67a.81.81,0,0,1,.09.79,4.09,4.09,0,0,1-1.4,1.11l-.1-.7s.3-.21.34-.38a.36.36,0,0,0,0-.27Z"/><path class="cls-7" d="M19.37,17.12a30.09,30.09,0,0,1,6.46.07c3,.43,7.52,1.86,7.46,2.06s-4.94-1.64-7.36-1.8-6.74,0-6.74,0Z"/><path class="cls-7" d="M20.89,17.24a3.34,3.34,0,0,0,.62,1.17,8.89,8.89,0,0,1,1.09,1.68,9.72,9.72,0,0,1-1.25-1.56c-.36-.53-.82-1.27-.82-1.27Z"/><path class="cls-7" d="M23.89,17.26a5,5,0,0,0,.66,1.91c.66,1.36.92,1.76.76,1.79s-.66-1-1-1.75-.85-2-.85-2Z"/><path class="cls-7" d="M26.8,17.53A3.63,3.63,0,0,0,27,19c.3,1,.66,1.58.53,1.65s-.49-.87-.69-1.59-.5-1.63-.5-1.63Z"/><path class="cls-7" d="M29.94,18.27a2.11,2.11,0,0,0,.16.84c.18.52.47,1,.38,1a1.83,1.83,0,0,1-.53-.91l-.28-1Z"/><path class="cls-7" d="M20.53,17.15a4.43,4.43,0,0,1,1.13-1.08,3.53,3.53,0,0,1,1.46-.6c.08.07-.83.33-1.15.54a12.23,12.23,0,0,0-1.18,1.14Z"/><path class="cls-7" d="M23.61,17.07a2.91,2.91,0,0,1,.92-1.23,4.52,4.52,0,0,1,2.06-.8c.2.06-1.5.49-1.88.86A4.23,4.23,0,0,0,24,17.11Z"/><path class="cls-7" d="M26.37,17.38a6.75,6.75,0,0,1,1.39-1.09,5.58,5.58,0,0,1,1.66-.42c.19,0-1.28.33-1.69.62a9.06,9.06,0,0,0-1,1Z"/><path class="cls-7" d="M29.94,18.19s0-.25.73-.5,1.07-.43.92-.43a4.16,4.16,0,0,0-.91.24,5.61,5.61,0,0,0-1.07.6Z"/><path class="cls-3" d="M13.26,34.56c-3,2.19-6.91,9.14-2.29,14.85s11.37,6.05,16.47,2.69A11.47,11.47,0,0,0,28.86,34C23.72,29.07,17.77,31.24,13.26,34.56Z"/><path class="cls-4" d="M25.75,33.74h0Z"/><path class="cls-4" d="M25.06,34.46c-.35-.17-.74-.53-.42-.84s.78,0,1.1.12C26.17,34.13,26,34.92,25.06,34.46Z"/><path class="cls-4" d="M25.73,33.73l-.53-.2A.83.83,0,0,1,25.73,33.73Z"/><path class="cls-4" d="M26.69,35.26c-.13-.09-.31-.29-.14-.43a.23.23,0,0,1,.34.07.43.43,0,0,1,.21.29C27.13,35.48,26.83,35.36,26.69,35.26Z"/><path class="cls-4" d="M24.4,35.08a.32.32,0,0,1,.33,0c.16,0,.35.08.39.21a.11.11,0,0,1,0,.08l.05,0-.05,0c0,.15-.38,0-.51,0S24.14,35.23,24.4,35.08Z"/><path class="cls-4" d="M25.17,35.42h0Z"/><path class="cls-4" d="M23.67,34.3c.15,0,.32.21.23.36s-.44.09-.56,0C22.84,34.4,23.48,34.19,23.67,34.3Z"/><path class="cls-4" d="M23,33.38c.11,0,.29-.07.37,0a.14.14,0,0,1,0,.17c0,.11-.18.2-.25.24s-.92.32-1,.06S22.86,33.4,23,33.38Z"/><path class="cls-4" d="M23.87,32.86c-.15.08-.71.06-.77-.16s.31-.28.45-.26a.5.5,0,0,1,.24.14C23.94,32.65,24.06,32.76,23.87,32.86Z"/><path class="cls-4" d="M26.59,34.18c-.29-.21,0-.33.22-.29h0c.13,0,.46.15.37.33S26.7,34.27,26.59,34.18Z"/><path class="cls-4" d="M27.81,35.56c-.11-.12-.44-.67-.06-.69a.3.3,0,0,1,.2.1,1.08,1.08,0,0,1,.38.54C28.48,36,28,35.78,27.81,35.56Z"/><path class="cls-4" d="M25.76,35.72a.74.74,0,0,1,.5,0c.29.08.62.3.67.51.12.52-.79.15-1,.08S25.34,35.88,25.76,35.72Z"/><path class="cls-4" d="M24.24,36.13c.14,0,.3.17.29.29s-.52.17-.66.11C23.31,36.26,24,36,24.24,36.13Z"/><path class="cls-4" d="M20.65,33.24a.26.26,0,0,1,.25.11.69.69,0,0,1-1,0A.61.61,0,0,1,20.65,33.24Z"/><path class="cls-4" d="M22.13,34.59c-.32.11-1.17.16-1.23-.28a.75.75,0,0,1,.68-.08C21.84,34.22,22.12,34.31,22.13,34.59Z"/><path class="cls-4" d="M21.51,32.29a.46.46,0,0,1,.63-.07.28.28,0,0,1,.14.18A.6.6,0,0,1,21.51,32.29Z"/><path class="cls-4" d="M19.2,34.11c.63,0-.18.81-.53.56S19,34,19.2,34.11Z"/><path class="cls-4" d="M28.13,36.71c.2-.16.36,0,.47.18.42.27.93.9.53,1.06S28.14,37.05,28.13,36.71Z"/><path class="cls-4" d="M29.29,35.88c.54.11.28,1-.23.39C28.74,35.89,29.06,35.77,29.29,35.88Z"/><path class="cls-4" d="M26.21,37.53a.28.28,0,0,1,.2.25c-.2.15-.74.16-.87-.11S26,37.22,26.21,37.53Z"/><path class="cls-4" d="M21.42,36.05l0,0a.23.23,0,0,1,0,.11c0,.05,0,.1,0,.12-.11.29-.73.3-.61-.07S21.28,35.91,21.42,36.05Z"/><path class="cls-4" d="M15.86,35.27c.37-.5,1.12,0,.65.16C16.23,35.63,15.51,35.76,15.86,35.27Z"/><path class="cls-4" d="M28.81,40.06l-.07-.13a.91.91,0,0,1,.4.63c-.22.06-.85-.37-.84-.65S28.63,39.79,28.81,40.06Z"/><path class="cls-4" d="M23.14,38.64a.17.17,0,0,1-.22,0c-.26,0-.74,0-.53-.32S23.06,38.42,23.14,38.64Z"/><path class="cls-4" d="M31,38.36a.54.54,0,0,1,0,.22c-.33.11-1.14,0-.87-.51S30.88,38,31,38.36Z"/><path class="cls-4" d="M29.86,37h0a.27.27,0,0,1,.33.27.39.39,0,0,1-.55-.22A.39.39,0,0,1,29.86,37Z"/><path class="cls-5" d="M28.8,48.32c1.18.86-4.8,5.19-8.68,5a11.44,11.44,0,0,1-9.41-6c-1-2.15-.66-8.24.62-7.81.46.15-.1,2.22,1.78,5.34,1.66,2.75,4.48,5.46,8.21,5.27C26.44,49.92,28,47.75,28.8,48.32Z"/><path class="cls-6" d="M16,33.26a.55.55,0,0,1,.49.84c-.32.79-2.27,2.09-2.83,1.88s-.59-.87.23-1.5A4.76,4.76,0,0,1,16,33.26Z"/><path class="cls-6" d="M15,34.33S12.71,32,12.06,31.11a41.89,41.89,0,0,1-2.14-4.23s-.2-.29-.47-.24-.2.47-.2.47,1.58,3.23,2.22,4.11c1.29,1.81,3,3.78,3,3.78Z"/><path class="cls-6" d="M11,29.92l3.73-.47.13.21L13,30l-1.85.3Z"/><path class="cls-6" d="M18.8,34.13c3.85,1,9.55-1.77,9.55-1.77s-3.81-4.44-7.07-4.77-8.93,2.27-8.93,2.27A13.5,13.5,0,0,0,18.8,34.13Z"/><path class="cls-7" d="M16,33.5a.81.81,0,0,1,.09.79,4.09,4.09,0,0,1-1.4,1.11l-.1-.7s.31-.21.34-.38a.39.39,0,0,0,0-.27Z"/><path class="cls-7" d="M13.61,30a29.77,29.77,0,0,1,6.46.06c3,.43,7.52,1.86,7.46,2.06s-4.94-1.63-7.36-1.8-6.74,0-6.74,0Z"/><path class="cls-7" d="M15.13,30.07a3.28,3.28,0,0,0,.63,1.17,8.7,8.7,0,0,1,1.08,1.69,10.44,10.44,0,0,1-1.25-1.57c-.36-.53-.82-1.27-.82-1.27Z"/><path class="cls-7" d="M18.13,30.09A5.29,5.29,0,0,0,18.79,32c.66,1.36.93,1.76.76,1.79s-.66-1-1-1.74-.85-2-.85-2Z"/><path class="cls-7" d="M21,30.36a3.69,3.69,0,0,0,.23,1.43c.3,1,.66,1.57.53,1.64s-.49-.87-.69-1.59-.5-1.63-.5-1.63Z"/><path class="cls-7" d="M24.18,31.11a2.07,2.07,0,0,0,.16.83c.18.52.47,1,.38,1a1.93,1.93,0,0,1-.53-.92l-.28-1Z"/><path class="cls-7" d="M14.77,30A4.38,4.38,0,0,1,15.9,28.9a3.59,3.59,0,0,1,1.46-.6c.08.07-.83.33-1.15.54A12.23,12.23,0,0,0,15,30Z"/><path class="cls-7" d="M17.85,29.9a2.88,2.88,0,0,1,.93-1.23,4.45,4.45,0,0,1,2-.8c.2.06-1.5.49-1.88.86a4.23,4.23,0,0,0-.69,1.21Z"/><path class="cls-7" d="M20.61,30.21A6.75,6.75,0,0,1,22,29.12a5.58,5.58,0,0,1,1.66-.42c.19,0-1.28.33-1.69.62a9.06,9.06,0,0,0-1,1Z"/><path class="cls-7" d="M24.18,31s.05-.24.74-.5,1.06-.43.91-.43a4.31,4.31,0,0,0-.91.24,5.61,5.61,0,0,0-1.07.6Z"/><path class="cls-3" d="M86,37.31c3,2.2,6.91,9.14,2.29,14.86s-11.37,6-16.46,2.69a11.48,11.48,0,0,1-1.43-18.13C75.53,31.83,81.48,34,86,37.31Z"/><path class="cls-4" d="M73.49,36.5h0Z"/><path class="cls-4" d="M74.19,37.22c.34-.17.74-.53.41-.85s-.78.05-1.1.13C73.07,36.89,73.25,37.67,74.19,37.22Z"/><path class="cls-4" d="M73.51,36.49l.53-.2A.85.85,0,0,0,73.51,36.49Z"/><path class="cls-4" d="M72.55,38c.13-.09.31-.29.14-.43a.23.23,0,0,0-.34.07.46.46,0,0,0-.21.29C72.11,38.24,72.42,38.12,72.55,38Z"/><path class="cls-4" d="M74.84,37.84a.35.35,0,0,0-.33,0c-.16,0-.35.09-.39.22a.22.22,0,0,0,0,.08l-.05,0,.05,0c0,.14.38,0,.51,0S75.11,38,74.84,37.84Z"/><path class="cls-4" d="M74.07,38.18h0Z"/><path class="cls-4" d="M75.57,37.06c-.15,0-.32.21-.23.36s.44.09.56,0C76.41,37.16,75.76,37,75.57,37.06Z"/><path class="cls-4" d="M76.2,36.14c-.1,0-.29-.07-.37,0a.15.15,0,0,0,0,.18c0,.11.18.2.25.24s.92.32,1,.06S76.39,36.16,76.2,36.14Z"/><path class="cls-4" d="M75.37,35.62c.15.08.71.06.77-.17s-.3-.27-.45-.25a.47.47,0,0,0-.24.14C75.3,35.41,75.19,35.52,75.37,35.62Z"/><path class="cls-4" d="M72.65,36.94c.29-.21,0-.34-.22-.29h0c-.13,0-.46.15-.38.33S72.54,37,72.65,36.94Z"/><path class="cls-4" d="M71.43,38.32c.11-.12.44-.67.06-.69a.3.3,0,0,0-.2.1,1.15,1.15,0,0,0-.38.54C70.76,38.77,71.24,38.54,71.43,38.32Z"/><path class="cls-4" d="M73.48,38.48a.74.74,0,0,0-.5,0c-.28.08-.62.3-.67.51-.12.52.79.15,1,.08S73.91,38.63,73.48,38.48Z"/><path class="cls-4" d="M75,38.88c-.15,0-.3.17-.3.29s.52.18.67.11C75.94,39,75.21,38.77,75,38.88Z"/><path class="cls-4" d="M78.59,36a.29.29,0,0,0-.25.1.69.69,0,0,0,1,0A.6.6,0,0,0,78.59,36Z"/><path class="cls-4" d="M77.12,37.34c.31.11,1.16.17,1.23-.27a.75.75,0,0,0-.68-.08C77.4,37,77.12,37.07,77.12,37.34Z"/><path class="cls-4" d="M77.73,35a.44.44,0,0,0-.62-.06.34.34,0,0,0-.15.18A.59.59,0,0,0,77.73,35Z"/><path class="cls-4" d="M80,36.87c-.63,0,.18.81.53.56S80.29,36.71,80,36.87Z"/><path class="cls-4" d="M71.11,39.47c-.19-.16-.36,0-.47.18-.42.26-.92.9-.52,1.06S71.1,39.81,71.11,39.47Z"/><path class="cls-4" d="M70,38.64c-.54.11-.29,1,.23.39C70.51,38.65,70.18,38.53,70,38.64Z"/><path class="cls-4" d="M73,40.29a.28.28,0,0,0-.2.25c.2.15.74.16.87-.11S73.21,40,73,40.29Z"/><path class="cls-4" d="M77.82,38.81l0,0a.52.52,0,0,0,0,.11s0,.1,0,.12c.12.29.74.3.62-.07S78,38.67,77.82,38.81Z"/><path class="cls-4" d="M83.38,38c-.37-.5-1.12,0-.65.16C83,38.39,83.74,38.52,83.38,38Z"/><path class="cls-4" d="M70.43,42.82l.08-.13a.85.85,0,0,0-.4.63c.21.06.85-.37.83-.65S70.62,42.55,70.43,42.82Z"/><path class="cls-4" d="M76.11,41.4a.16.16,0,0,0,.21.05c.26,0,.74,0,.54-.32S76.18,41.18,76.11,41.4Z"/><path class="cls-4" d="M68.27,41.12a.4.4,0,0,0,0,.22c.32.11,1.13,0,.86-.51S68.36,40.74,68.27,41.12Z"/><path class="cls-4" d="M69.39,39.76h0a.27.27,0,0,0-.33.27.41.41,0,0,0,.56-.22A.34.34,0,0,0,69.39,39.76Z"/><path class="cls-5" d="M70.44,51.08c-1.18.86,4.8,5.19,8.69,5a11.43,11.43,0,0,0,9.4-6c1-2.14.67-8.23-.62-7.8-.46.15.11,2.21-1.78,5.34-1.65,2.75-4.47,5.46-8.21,5.27C72.8,52.68,71.21,50.51,70.44,51.08Z"/><path class="cls-6" d="M83.26,36a.55.55,0,0,0-.49.83c.33.8,2.27,2.1,2.83,1.88s.59-.87-.23-1.49A4.76,4.76,0,0,0,83.26,36Z"/><path class="cls-6" d="M84.27,37.09s2.26-2.34,2.91-3.22a41.89,41.89,0,0,0,2.14-4.23.55.55,0,0,1,.48-.24c.27.05.19.47.19.47S88.42,33.09,87.78,34c-1.3,1.81-3,3.78-3,3.78Z"/><path class="cls-6" d="M88.22,32.68c-.14,0-3.74-.47-3.74-.47l-.13.21,1.85.31,1.85.3Z"/><path class="cls-6" d="M80.44,36.89c-3.85,1-9.55-1.77-9.55-1.77S74.7,30.68,78,30.35s8.93,2.27,8.93,2.27A13.5,13.5,0,0,1,80.44,36.89Z"/><path class="cls-7" d="M83.29,36.26a.8.8,0,0,0-.08.79,4,4,0,0,0,1.4,1.11l.09-.7s-.3-.21-.33-.38a.39.39,0,0,1,0-.27Z"/><path class="cls-7" d="M85.63,32.71a30.09,30.09,0,0,0-6.46.07c-3,.43-7.52,1.86-7.46,2.06s4.94-1.64,7.36-1.8,6.74,0,6.74,0Z"/><path class="cls-7" d="M84.11,32.83A3.34,3.34,0,0,1,83.49,34a8.89,8.89,0,0,0-1.09,1.68,10.76,10.76,0,0,0,1.26-1.56c.35-.53.81-1.27.81-1.27Z"/><path class="cls-7" d="M81.12,32.85a5.29,5.29,0,0,1-.66,1.91c-.67,1.36-.93,1.76-.77,1.79s.66-1,1-1.75.85-2,.85-2Z"/><path class="cls-7" d="M78.2,33.12A3.63,3.63,0,0,1,78,34.54c-.3,1-.66,1.58-.52,1.64s.48-.86.68-1.58.5-1.63.5-1.63Z"/><path class="cls-7" d="M75.07,33.86a2.36,2.36,0,0,1-.16.84c-.19.52-.48,1-.39,1a1.83,1.83,0,0,0,.53-.91l.28-1Z"/><path class="cls-7" d="M84.47,32.74a4.43,4.43,0,0,0-1.13-1.08,3.53,3.53,0,0,0-1.46-.6c-.08.07.83.33,1.15.54a12.62,12.62,0,0,1,1.19,1.14Z"/><path class="cls-7" d="M81.39,32.66a2.91,2.91,0,0,0-.92-1.23,4.48,4.48,0,0,0-2.06-.8c-.19.06,1.5.49,1.88.86A4.36,4.36,0,0,1,81,32.7Z"/><path class="cls-7" d="M78.63,33a6.6,6.6,0,0,0-1.38-1.09,5.66,5.66,0,0,0-1.66-.42c-.2,0,1.27.33,1.68.62a9.48,9.48,0,0,1,1,1Z"/><path class="cls-7" d="M75.06,33.78s0-.25-.73-.5-1.07-.43-.92-.43a4.16,4.16,0,0,1,.91.24,5.61,5.61,0,0,1,1.07.6Z"/><path class="cls-3" d="M90.73,47.45c3,2.19,6.91,9.14,2.29,14.85s-11.38,6-16.47,2.7a11.48,11.48,0,0,1-1.42-18.14C80.27,42,86.22,44.13,90.73,47.45Z"/><path class="cls-4" d="M78.24,46.63h0Z"/><path class="cls-4" d="M78.93,47.35c.35-.17.74-.53.41-.84s-.77,0-1.09.12C77.82,47,78,47.81,78.93,47.35Z"/><path class="cls-4" d="M78.25,46.63l.54-.21A.83.83,0,0,0,78.25,46.63Z"/><path class="cls-4" d="M77.3,48.16c.13-.1.31-.3.14-.44a.23.23,0,0,0-.34.07.48.48,0,0,0-.22.29C76.86,48.37,77.16,48.26,77.3,48.16Z"/><path class="cls-4" d="M79.58,48a.29.29,0,0,0-.32,0c-.16,0-.35.08-.39.21a.11.11,0,0,0,0,.08l-.05,0,.05,0c0,.15.38,0,.5,0S79.85,48.12,79.58,48Z"/><path class="cls-4" d="M78.82,48.31h0Z"/><path class="cls-4" d="M80.32,47.19c-.15.05-.32.21-.23.36s.44.09.56,0C81.15,47.29,80.5,47.08,80.32,47.19Z"/><path class="cls-4" d="M80.94,46.27c-.1,0-.29-.06-.37,0a.14.14,0,0,0,0,.17c0,.11.18.2.25.24s.92.32,1,.06S81.13,46.29,80.94,46.27Z"/><path class="cls-4" d="M80.11,45.75c.16.08.72.06.78-.16s-.31-.28-.45-.26a.58.58,0,0,0-.25.14C80.05,45.54,79.93,45.65,80.11,45.75Z"/><path class="cls-4" d="M77.4,47.07c.29-.21,0-.33-.22-.29h0c-.13,0-.46.14-.37.32S77.29,47.16,77.4,47.07Z"/><path class="cls-4" d="M76.18,48.46c.11-.13.44-.67.06-.69a.23.23,0,0,0-.2.1,1.06,1.06,0,0,0-.38.53C75.51,48.9,76,48.67,76.18,48.46Z"/><path class="cls-4" d="M78.23,48.61a.74.74,0,0,0-.5,0,1,1,0,0,0-.67.52c-.13.51.78.14,1,.07S78.65,48.77,78.23,48.61Z"/><path class="cls-4" d="M79.75,49c-.14,0-.3.17-.3.29s.53.18.67.11C80.68,49.16,80,48.9,79.75,49Z"/><path class="cls-4" d="M83.34,46.14a.23.23,0,0,0-.25.1.68.68,0,0,0,1,0A.58.58,0,0,0,83.34,46.14Z"/><path class="cls-4" d="M81.86,47.48c.32.11,1.17.16,1.23-.28a.75.75,0,0,0-.68-.08C82.15,47.11,81.87,47.2,81.86,47.48Z"/><path class="cls-4" d="M82.48,45.18a.46.46,0,0,0-.63-.07.32.32,0,0,0-.15.19A.62.62,0,0,0,82.48,45.18Z"/><path class="cls-4" d="M84.79,47c-.63,0,.18.8.53.55S85,46.84,84.79,47Z"/><path class="cls-4" d="M75.86,49.6c-.2-.16-.36,0-.47.18-.42.27-.93.9-.53,1.06S75.84,50,75.86,49.6Z"/><path class="cls-4" d="M74.7,48.77c-.54.11-.28,1,.23.39C75.25,48.78,74.92,48.66,74.7,48.77Z"/><path class="cls-4" d="M77.77,50.42a.3.3,0,0,0-.19.25c.2.15.74.16.87-.11S78,50.11,77.77,50.42Z"/><path class="cls-4" d="M82.57,49l0-.05a.61.61,0,0,0,0,.11c0,.06,0,.1,0,.12.11.29.73.3.61-.07S82.71,48.8,82.57,49Z"/><path class="cls-4" d="M88.13,48.16c-.37-.5-1.12,0-.65.16C87.76,48.52,88.48,48.65,88.13,48.16Z"/><path class="cls-4" d="M75.18,53l.07-.13a.93.93,0,0,0-.4.63c.22.06.85-.36.84-.65S75.36,52.68,75.18,53Z"/><path class="cls-4" d="M80.85,51.53c.08.09.14.09.21,0,.27,0,.75,0,.54-.31S80.92,51.31,80.85,51.53Z"/><path class="cls-4" d="M73,51.25a.54.54,0,0,0,0,.22c.32.11,1.14,0,.87-.51S73.11,50.88,73,51.25Z"/><path class="cls-4" d="M74.13,49.89h0c-.19,0-.32.07-.33.27a.39.39,0,1,0,.32-.26Z"/><path class="cls-5" d="M75.18,61.21c-1.17.86,4.81,5.19,8.69,5a11.41,11.41,0,0,0,9.4-6c1-2.15.67-8.23-.61-7.81-.46.15.1,2.22-1.78,5.35-1.66,2.74-4.48,5.45-8.22,5.26C77.55,62.81,76,60.64,75.18,61.21Z"/><path class="cls-6" d="M88,46.15a.55.55,0,0,0-.49.84c.32.8,2.27,2.1,2.83,1.88s.59-.87-.23-1.5A4.86,4.86,0,0,0,88,46.15Z"/><path class="cls-6" d="M89,47.22s2.26-2.34,2.9-3.22a40.43,40.43,0,0,0,2.15-4.22s.19-.3.47-.25.2.47.2.47-1.58,3.23-2.22,4.12c-1.3,1.8-3,3.77-3,3.77Z"/><path class="cls-6" d="M93,42.81l-3.73-.47-.14.22,1.86.3,1.85.31Z"/><path class="cls-6" d="M85.19,47c-3.85,1-9.55-1.77-9.55-1.77s3.8-4.43,7.07-4.77,8.93,2.27,8.93,2.27A13.56,13.56,0,0,1,85.19,47Z"/><path class="cls-7" d="M88,46.39a.82.82,0,0,0-.09.79,4.16,4.16,0,0,0,1.4,1.12l.09-.71s-.3-.2-.33-.38a.39.39,0,0,1,0-.27Z"/><path class="cls-7" d="M90.38,42.85a30.51,30.51,0,0,0-6.46.06c-3,.43-7.52,1.86-7.46,2.07s4.94-1.64,7.36-1.8,6.73,0,6.73,0Z"/><path class="cls-7" d="M88.86,43a3.28,3.28,0,0,1-.63,1.17,8.7,8.7,0,0,0-1.08,1.69,9.93,9.93,0,0,0,1.25-1.57c.36-.53.82-1.27.82-1.27Z"/><path class="cls-7" d="M85.86,43a5.29,5.29,0,0,1-.66,1.91c-.66,1.36-.93,1.76-.76,1.79s.65-1,1-1.74.85-2,.85-2Z"/><path class="cls-7" d="M83,43.26a3.93,3.93,0,0,1-.23,1.42c-.3,1-.66,1.57-.53,1.64s.49-.87.69-1.59.5-1.63.5-1.63Z"/><path class="cls-7" d="M79.81,44a2.39,2.39,0,0,1-.16.84c-.18.51-.47,1-.39,1A1.84,1.84,0,0,0,79.8,45l.28-1Z"/><path class="cls-7" d="M89.22,42.88a4.32,4.32,0,0,0-1.14-1.09,3.44,3.44,0,0,0-1.45-.59c-.08.07.83.32,1.15.53A12.23,12.23,0,0,1,89,42.87Z"/><path class="cls-7" d="M86.13,42.79a2.81,2.81,0,0,0-.92-1.23,4.57,4.57,0,0,0-2-.8c-.2.06,1.5.49,1.88.87a4.1,4.1,0,0,1,.69,1.2Z"/><path class="cls-7" d="M83.38,43.1A6.75,6.75,0,0,0,82,42a6.29,6.29,0,0,0-1.66-.42c-.19,0,1.28.33,1.69.62a9.06,9.06,0,0,1,1,1Z"/><path class="cls-7" d="M79.81,43.91s0-.24-.74-.5S78,43,78.16,43a5.09,5.09,0,0,1,.91.24,5.46,5.46,0,0,1,1.07.61Z"/><path class="cls-3" d="M71,48c3,2.2,6.91,9.14,2.29,14.86s-11.37,6-16.47,2.69a11.49,11.49,0,0,1-1.42-18.13C60.52,42.52,66.48,44.69,71,48Z"/><path class="cls-4" d="M58.49,47.19h0Z"/><path class="cls-4" d="M59.18,47.91c.35-.17.75-.53.42-.85s-.78,0-1.1.13C58.07,47.58,58.25,48.36,59.18,47.91Z"/><path class="cls-4" d="M58.51,47.18,59,47A.78.78,0,0,0,58.51,47.18Z"/><path class="cls-4" d="M57.55,48.71c.13-.09.31-.29.14-.43a.22.22,0,0,0-.34.07.43.43,0,0,0-.21.28C57.11,48.93,57.41,48.81,57.55,48.71Z"/><path class="cls-4" d="M59.84,48.53a.35.35,0,0,0-.33,0c-.16,0-.35.09-.39.21a.14.14,0,0,0,0,.09l0,0,0,0c0,.14.38,0,.51,0S60.11,48.68,59.84,48.53Z"/><path class="cls-4" d="M59.07,48.87h0Z"/><path class="cls-4" d="M60.57,47.75c-.15,0-.32.21-.23.36s.44.09.56,0C61.41,47.85,60.76,47.64,60.57,47.75Z"/><path class="cls-4" d="M61.2,46.83c-.11,0-.29-.07-.37,0a.15.15,0,0,0,0,.18c0,.11.18.2.25.24s.92.32,1,.06S61.39,46.85,61.2,46.83Z"/><path class="cls-4" d="M60.37,46.31c.15.08.71.06.77-.17s-.31-.27-.45-.25a.43.43,0,0,0-.24.14C60.3,46.1,60.19,46.21,60.37,46.31Z"/><path class="cls-4" d="M57.65,47.63c.29-.21,0-.34-.22-.29h0c-.14,0-.47.15-.38.33S57.54,47.71,57.65,47.63Z"/><path class="cls-4" d="M56.43,49c.11-.12.44-.67.06-.69a.3.3,0,0,0-.2.1,1,1,0,0,0-.38.54C55.76,49.46,56.24,49.23,56.43,49Z"/><path class="cls-4" d="M58.48,49.17a.68.68,0,0,0-.5,0,1,1,0,0,0-.67.51c-.12.52.79.15,1,.08S58.9,49.32,58.48,49.17Z"/><path class="cls-4" d="M60,49.57c-.15,0-.31.17-.3.29s.52.18.67.11C60.94,49.71,60.2,49.46,60,49.57Z"/><path class="cls-4" d="M63.59,46.69a.25.25,0,0,0-.25.1.69.69,0,0,0,1,0A.59.59,0,0,0,63.59,46.69Z"/><path class="cls-4" d="M62.11,48c.32.11,1.17.17,1.24-.27a.74.74,0,0,0-.69-.08C62.4,47.67,62.12,47.76,62.11,48Z"/><path class="cls-4" d="M62.73,45.73a.44.44,0,0,0-.62-.06.3.3,0,0,0-.15.18A.59.59,0,0,0,62.73,45.73Z"/><path class="cls-4" d="M65,47.56c-.63,0,.18.81.53.56S65.29,47.4,65,47.56Z"/><path class="cls-4" d="M56.11,50.15c-.2-.15-.36,0-.47.18-.42.27-.93.91-.52,1.07S56.1,50.5,56.11,50.15Z"/><path class="cls-4" d="M55,49.33c-.55.11-.29,1,.22.39C55.5,49.34,55.18,49.22,55,49.33Z"/><path class="cls-4" d="M58,51a.28.28,0,0,0-.2.25c.2.14.74.16.87-.11S58.21,50.67,58,51Z"/><path class="cls-4" d="M62.82,49.5l0,0a.52.52,0,0,0,0,.11s0,.1,0,.12c.12.29.73.3.62-.07S63,49.36,62.82,49.5Z"/><path class="cls-4" d="M68.38,48.72c-.37-.5-1.12,0-.65.16C68,49.08,68.74,49.21,68.38,48.72Z"/><path class="cls-4" d="M55.43,53.51l.07-.14a1,1,0,0,0-.4.64c.22.06.85-.37.84-.65S55.62,53.24,55.43,53.51Z"/><path class="cls-4" d="M61.1,52.09a.17.17,0,0,0,.22,0c.26,0,.74,0,.54-.32S61.18,51.87,61.1,52.09Z"/><path class="cls-4" d="M53.27,51.81a.4.4,0,0,0,0,.22c.32.11,1.13,0,.86-.51S53.36,51.43,53.27,51.81Z"/><path class="cls-4" d="M54.38,50.45h0a.27.27,0,0,0-.33.27.41.41,0,0,0,.56-.22A.36.36,0,0,0,54.38,50.45Z"/><path class="cls-5" d="M55.44,61.77c-1.18.86,4.8,5.19,8.68,5a11.43,11.43,0,0,0,9.41-6c1-2.14.67-8.23-.62-7.8-.46.15.1,2.21-1.78,5.34-1.65,2.75-4.48,5.45-8.21,5.27C57.8,63.37,56.21,61.2,55.44,61.77Z"/><path class="cls-6" d="M68.26,46.71a.55.55,0,0,0-.49.83c.32.8,2.27,2.1,2.83,1.88s.59-.87-.23-1.49A4.66,4.66,0,0,0,68.26,46.71Z"/><path class="cls-6" d="M69.27,47.78s2.26-2.34,2.91-3.22a41.89,41.89,0,0,0,2.14-4.23s.2-.29.47-.24.2.47.2.47-1.58,3.22-2.21,4.11c-1.3,1.81-3,3.78-3,3.78Z"/><path class="cls-6" d="M73.21,43.37c-.13,0-3.73-.47-3.73-.47l-.13.21,1.85.31,1.85.3Z"/><path class="cls-6" d="M65.44,47.58c-3.85,1-9.55-1.77-9.55-1.77S59.7,41.37,63,41s8.93,2.27,8.93,2.27A13.5,13.5,0,0,1,65.44,47.58Z"/><path class="cls-7" d="M68.29,47a.81.81,0,0,0-.09.79,4.1,4.1,0,0,0,1.41,1.11l.09-.7s-.3-.21-.33-.38a.39.39,0,0,1,0-.27Z"/><path class="cls-7" d="M70.63,43.4a30.09,30.09,0,0,0-6.46.07c-3,.43-7.52,1.86-7.46,2.06s4.94-1.64,7.36-1.8,6.74,0,6.74,0Z"/><path class="cls-7" d="M69.11,43.51a3.41,3.41,0,0,1-.62,1.18,8.56,8.56,0,0,0-1.09,1.68,10.21,10.21,0,0,0,1.25-1.56c.36-.53.82-1.27.82-1.27Z"/><path class="cls-7" d="M66.12,43.54a5.23,5.23,0,0,1-.67,1.91c-.66,1.36-.92,1.76-.76,1.79s.66-1,1-1.75.85-2,.85-2Z"/><path class="cls-7" d="M63.2,43.81A3.63,3.63,0,0,1,63,45.23c-.3,1-.66,1.58-.52,1.64s.48-.86.68-1.58.5-1.63.5-1.63Z"/><path class="cls-7" d="M60.06,44.55a2.11,2.11,0,0,1-.16.84c-.18.52-.47,1-.38,1a1.83,1.83,0,0,0,.53-.91l.28-1Z"/><path class="cls-7" d="M69.47,43.43a4.43,4.43,0,0,0-1.13-1.08,3.53,3.53,0,0,0-1.46-.6c-.08.07.83.33,1.15.54a12.23,12.23,0,0,1,1.18,1.14Z"/><path class="cls-7" d="M66.39,43.34a2.91,2.91,0,0,0-.92-1.22,4.48,4.48,0,0,0-2.06-.8c-.19.06,1.5.49,1.88.86A4.23,4.23,0,0,1,66,43.39Z"/><path class="cls-7" d="M63.63,43.66a6.6,6.6,0,0,0-1.38-1.09,5.63,5.63,0,0,0-1.67-.42c-.19,0,1.28.33,1.69.62a9.48,9.48,0,0,1,1,1Z"/><path class="cls-7" d="M60.06,44.47s-.05-.25-.73-.5-1.07-.43-.92-.43a4.16,4.16,0,0,1,.91.24,5.61,5.61,0,0,1,1.07.6Z"/><path class="cls-3" d="M52.07,30.2c3,2.2,6.91,9.14,2.29,14.86s-11.38,6-16.47,2.69a11.47,11.47,0,0,1-1.42-18.13C41.61,24.72,47.56,26.89,52.07,30.2Z"/><path class="cls-4" d="M39.58,29.39h0Z"/><path class="cls-4" d="M40.27,30.11c.35-.17.74-.53.41-.85s-.77,0-1.09.13C39.16,29.78,39.34,30.56,40.27,30.11Z"/><path class="cls-4" d="M39.59,29.38l.54-.21A.88.88,0,0,0,39.59,29.38Z"/><path class="cls-4" d="M38.64,30.91c.13-.09.31-.29.14-.44a.23.23,0,0,0-.34.08.43.43,0,0,0-.22.28C38.2,31.13,38.5,31,38.64,30.91Z"/><path class="cls-4" d="M40.92,30.73a.33.33,0,0,0-.32,0c-.16,0-.35.09-.39.21a.14.14,0,0,0,0,.09l-.05,0,.05,0c0,.14.38,0,.5,0S41.19,30.88,40.92,30.73Z"/><path class="cls-4" d="M40.16,31.07h0Z"/><path class="cls-4" d="M41.66,30c-.15,0-.32.21-.23.36s.44.09.56,0C42.49,30.05,41.84,29.84,41.66,30Z"/><path class="cls-4" d="M42.28,29c-.1,0-.29-.07-.37,0a.15.15,0,0,0,0,.18c0,.11.18.2.25.23s.92.33,1,.07S42.47,29.05,42.28,29Z"/><path class="cls-4" d="M41.45,28.51c.16.08.72.06.78-.17s-.31-.27-.45-.25a.55.55,0,0,0-.25.13C41.38,28.3,41.27,28.41,41.45,28.51Z"/><path class="cls-4" d="M38.74,29.83c.29-.22,0-.34-.22-.29h0c-.13,0-.46.15-.37.33S38.63,29.91,38.74,29.83Z"/><path class="cls-4" d="M37.52,31.21c.11-.12.44-.67.06-.69a.3.3,0,0,0-.2.1,1,1,0,0,0-.38.54C36.85,31.66,37.33,31.43,37.52,31.21Z"/><path class="cls-4" d="M39.57,31.37a.68.68,0,0,0-.5,0,1,1,0,0,0-.67.51c-.13.52.78.15,1,.08S40,31.52,39.57,31.37Z"/><path class="cls-4" d="M41.09,31.77c-.14.05-.3.17-.3.29s.53.18.67.11C42,31.91,41.29,31.66,41.09,31.77Z"/><path class="cls-4" d="M44.68,28.89a.25.25,0,0,0-.25.1.68.68,0,0,0,1,0A.57.57,0,0,0,44.68,28.89Z"/><path class="cls-4" d="M43.2,30.23c.32.11,1.17.17,1.23-.27a.72.72,0,0,0-.68-.08C43.49,29.86,43.21,30,43.2,30.23Z"/><path class="cls-4" d="M43.82,27.93a.46.46,0,0,0-.63-.06.3.3,0,0,0-.15.18A.6.6,0,0,0,43.82,27.93Z"/><path class="cls-4" d="M46.13,29.76c-.63,0,.18.81.53.55S46.38,29.6,46.13,29.76Z"/><path class="cls-4" d="M37.2,32.35c-.2-.15-.36,0-.47.18-.42.27-.93.91-.53,1.06S37.18,32.7,37.2,32.35Z"/><path class="cls-4" d="M36,31.53c-.54.1-.28,1,.23.39C36.59,31.54,36.26,31.41,36,31.53Z"/><path class="cls-4" d="M39.11,33.18a.29.29,0,0,0-.19.25c.2.14.74.16.87-.11S39.29,32.87,39.11,33.18Z"/><path class="cls-4" d="M43.91,31.7l0,0a.45.45,0,0,0,0,.11c0,.05,0,.1,0,.12.11.29.73.3.61-.07S44.05,31.56,43.91,31.7Z"/><path class="cls-4" d="M49.47,30.92c-.37-.5-1.12,0-.65.16C49.1,31.28,49.82,31.41,49.47,30.92Z"/><path class="cls-4" d="M36.52,35.71l.07-.14a1,1,0,0,0-.4.64c.22,0,.85-.37.83-.65S36.7,35.44,36.52,35.71Z"/><path class="cls-4" d="M42.19,34.29a.16.16,0,0,0,.21.05c.27,0,.75,0,.54-.32S42.26,34.07,42.19,34.29Z"/><path class="cls-4" d="M34.36,34a.51.51,0,0,0,0,.22c.32.11,1.14,0,.87-.51S34.45,33.63,34.36,34Z"/><path class="cls-4" d="M35.47,32.65h0a.26.26,0,0,0-.33.26.39.39,0,0,0,.55-.21A.33.33,0,0,0,35.47,32.65Z"/><path class="cls-5" d="M36.52,44c-1.17.86,4.81,5.19,8.69,5a11.42,11.42,0,0,0,9.4-6c1-2.14.67-8.23-.61-7.8-.46.15.1,2.21-1.78,5.34C50.56,43.3,47.74,46,44,45.82,38.89,45.57,37.3,43.4,36.52,44Z"/><path class="cls-6" d="M49.35,28.91a.54.54,0,0,0-.49.83c.32.8,2.27,2.1,2.83,1.88s.59-.87-.23-1.49A4.66,4.66,0,0,0,49.35,28.91Z"/><path class="cls-6" d="M50.36,30s2.26-2.34,2.9-3.22a39.83,39.83,0,0,0,2.14-4.23.55.55,0,0,1,.48-.24c.28.05.2.47.2.47S54.5,26,53.86,26.87c-1.3,1.81-3,3.77-3,3.77Z"/><path class="cls-6" d="M54.3,25.57c-.14,0-3.73-.47-3.73-.47l-.14.21,1.86.31,1.85.3Z"/><path class="cls-6" d="M46.53,29.78C42.68,30.76,37,28,37,28s3.8-4.44,7.07-4.77S53,25.51,53,25.51A13.56,13.56,0,0,1,46.53,29.78Z"/><path class="cls-7" d="M49.38,29.15a.81.81,0,0,0-.09.79,4.09,4.09,0,0,0,1.4,1.11l.09-.7s-.3-.21-.33-.38a.39.39,0,0,1,0-.27Z"/><path class="cls-7" d="M51.72,25.6a30.51,30.51,0,0,0-6.46.06c-3,.44-7.52,1.87-7.46,2.07s4.94-1.64,7.36-1.8,6.73,0,6.73,0Z"/><path class="cls-7" d="M50.2,25.71a3.36,3.36,0,0,1-.63,1.18,8.79,8.79,0,0,0-1.08,1.68A10.21,10.21,0,0,0,49.74,27c.36-.53.82-1.27.82-1.27Z"/><path class="cls-7" d="M47.2,25.74a5.29,5.29,0,0,1-.66,1.91c-.66,1.36-.93,1.76-.76,1.79s.65-1,1-1.75.84-2,.84-2Z"/><path class="cls-7" d="M44.28,26a3.7,3.7,0,0,1-.22,1.42c-.3,1-.66,1.58-.53,1.64s.49-.86.69-1.59.5-1.62.5-1.62Z"/><path class="cls-7" d="M41.15,26.75a2.36,2.36,0,0,1-.16.84c-.18.52-.47,1-.39,1a1.75,1.75,0,0,0,.54-.91l.28-1Z"/><path class="cls-7" d="M50.55,25.63a4.07,4.07,0,0,0-1.13-1.08A3.51,3.51,0,0,0,48,24c-.08.07.83.33,1.15.54a12.23,12.23,0,0,1,1.18,1.14Z"/><path class="cls-7" d="M47.47,25.54a2.75,2.75,0,0,0-.92-1.22,4.45,4.45,0,0,0-2-.8c-.2.06,1.5.49,1.88.86a4.23,4.23,0,0,1,.69,1.21Z"/><path class="cls-7" d="M44.72,25.86a6.75,6.75,0,0,0-1.39-1.09,5.58,5.58,0,0,0-1.66-.42,17.77,17.77,0,0,1,1.69.62,9.06,9.06,0,0,1,1,1Z"/><path class="cls-7" d="M41.15,26.67s0-.25-.74-.5-1.06-.43-.91-.43a4.75,4.75,0,0,1,.91.23,6.06,6.06,0,0,1,1.07.61Z"/><path class="cls-3" d="M25.59,45.9c-3,2.19-6.92,9.14-2.29,14.85s11.37,6,16.46,2.7a11.49,11.49,0,0,0,1.43-18.14C36,40.42,30.09,42.58,25.59,45.9Z"/><path class="cls-4" d="M38.08,45.08h0Z"/><path class="cls-4" d="M37.38,45.8c-.35-.17-.74-.53-.41-.84s.78,0,1.09.12C38.5,45.48,38.31,46.26,37.38,45.8Z"/><path class="cls-4" d="M38.06,45.08l-.53-.21A.82.82,0,0,1,38.06,45.08Z"/><path class="cls-4" d="M39,46.61c-.13-.1-.31-.3-.13-.44a.22.22,0,0,1,.33.07.44.44,0,0,1,.22.29C39.46,46.82,39.15,46.71,39,46.61Z"/><path class="cls-4" d="M36.73,46.43a.3.3,0,0,1,.33,0c.15,0,.35.08.38.21a.25.25,0,0,1,0,.08l0,0,0,0c-.05.15-.39,0-.51,0S36.46,46.57,36.73,46.43Z"/><path class="cls-4" d="M37.49,46.76h0Z"/><path class="cls-4" d="M36,45.64c.15,0,.32.22.24.36s-.44.09-.57,0C35.16,45.74,35.81,45.53,36,45.64Z"/><path class="cls-4" d="M35.37,44.72c.1,0,.29-.06.37,0a.15.15,0,0,1,0,.18c0,.1-.18.19-.25.23s-.91.32-1,.06S35.18,44.75,35.37,44.72Z"/><path class="cls-4" d="M36.2,44.2c-.16.08-.72.06-.77-.16s.3-.28.45-.26a.61.61,0,0,1,.24.14C36.27,44,36.38,44.1,36.2,44.2Z"/><path class="cls-4" d="M38.91,45.52c-.29-.21,0-.33.23-.29h0c.13,0,.46.14.37.32S39,45.61,38.91,45.52Z"/><path class="cls-4" d="M40.13,46.91c-.1-.13-.44-.67-.05-.69a.23.23,0,0,1,.19.1,1.15,1.15,0,0,1,.39.53C40.8,47.35,40.32,47.12,40.13,46.91Z"/><path class="cls-4" d="M38.08,47.06a.76.76,0,0,1,.51,0,1,1,0,0,1,.66.52c.13.52-.78.14-1,.08S37.66,47.22,38.08,47.06Z"/><path class="cls-4" d="M36.56,47.47c.14.05.3.17.3.29s-.52.18-.67.11C35.63,47.61,36.36,47.35,36.56,47.47Z"/><path class="cls-4" d="M33,44.59a.23.23,0,0,1,.25.1.69.69,0,0,1-1,0A.57.57,0,0,1,33,44.59Z"/><path class="cls-4" d="M34.45,45.93c-.31.11-1.16.16-1.23-.28a.75.75,0,0,1,.68-.08C34.17,45.56,34.45,45.65,34.45,45.93Z"/><path class="cls-4" d="M33.84,43.63a.43.43,0,0,1,.62-.06.28.28,0,0,1,.15.18A.61.61,0,0,1,33.84,43.63Z"/><path class="cls-4" d="M31.53,45.46c.62,0-.19.8-.53.55S31.28,45.29,31.53,45.46Z"/><path class="cls-4" d="M40.46,48.05c.19-.15.36,0,.47.18.42.27.92.9.52,1.06S40.47,48.4,40.46,48.05Z"/><path class="cls-4" d="M41.61,47.22c.54.11.28,1-.23.39C41.06,47.23,41.39,47.11,41.61,47.22Z"/><path class="cls-4" d="M38.54,48.88a.28.28,0,0,1,.2.24c-.21.15-.74.16-.88-.11S38.36,48.56,38.54,48.88Z"/><path class="cls-4" d="M33.74,47.4l0,0a.26.26,0,0,1,0,.11c0,.06,0,.1,0,.12-.11.29-.73.3-.61-.07S33.6,47.25,33.74,47.4Z"/><path class="cls-4" d="M28.19,46.61c.36-.5,1.12,0,.64.16C28.55,47,27.83,47.11,28.19,46.61Z"/><path class="cls-4" d="M41.14,51.4l-.08-.13a.9.9,0,0,1,.4.63c-.21.06-.85-.36-.83-.65S41,51.13,41.14,51.4Z"/><path class="cls-4" d="M35.46,50c-.08.1-.14.09-.21.05-.26,0-.74,0-.54-.31S35.39,49.76,35.46,50Z"/><path class="cls-4" d="M43.3,49.7a.53.53,0,0,1,0,.22c-.32.11-1.14,0-.87-.51S43.2,49.33,43.3,49.7Z"/><path class="cls-4" d="M42.18,48.34h0c.2,0,.32.06.33.26a.39.39,0,0,1-.55-.22A.41.41,0,0,1,42.18,48.34Z"/><path class="cls-5" d="M41.13,59.66c1.17.86-4.8,5.2-8.69,5a11.44,11.44,0,0,1-9.4-6c-1-2.15-.67-8.23.62-7.81.45.15-.11,2.22,1.78,5.35,1.65,2.74,4.47,5.45,8.21,5.26C38.76,61.26,40.35,59.09,41.13,59.66Z"/><path class="cls-6" d="M28.31,44.6a.55.55,0,0,1,.48.84c-.32.8-2.27,2.1-2.83,1.88s-.58-.87.23-1.5A4.83,4.83,0,0,1,28.31,44.6Z"/><path class="cls-6" d="M27.29,45.67s-2.26-2.34-2.9-3.22a39.9,39.9,0,0,1-2.14-4.22s-.2-.3-.48-.25-.2.47-.2.47,1.58,3.23,2.22,4.12c1.3,1.8,3,3.77,3,3.77Z"/><path class="cls-6" d="M23.35,41.26l3.73-.47.14.22-1.86.3-1.85.31Z"/><path class="cls-6" d="M31.12,45.47c3.86,1,9.55-1.77,9.55-1.77s-3.8-4.43-7.06-4.77-8.93,2.27-8.93,2.27A13.43,13.43,0,0,0,31.12,45.47Z"/><path class="cls-7" d="M28.28,44.84a.8.8,0,0,1,.08.79A4.16,4.16,0,0,1,27,46.75L26.87,46s.3-.2.33-.38a.39.39,0,0,0,0-.27Z"/><path class="cls-7" d="M25.94,41.3a30.48,30.48,0,0,1,6.46.06c3,.43,7.51,1.87,7.46,2.07s-5-1.64-7.37-1.8-6.73,0-6.73,0Z"/><path class="cls-7" d="M27.45,41.41a3.28,3.28,0,0,0,.63,1.17,8.7,8.7,0,0,1,1.08,1.69,10.55,10.55,0,0,1-1.25-1.57c-.35-.53-.81-1.27-.81-1.27Z"/><path class="cls-7" d="M30.45,41.43a5.29,5.29,0,0,0,.66,1.92c.66,1.36.93,1.75.77,1.78s-.66-1-1-1.74-.85-2-.85-2Z"/><path class="cls-7" d="M33.37,41.71a3.65,3.65,0,0,0,.23,1.42c.29,1,.66,1.57.52,1.64s-.48-.86-.68-1.59-.5-1.62-.5-1.62Z"/><path class="cls-7" d="M36.5,42.45a2.39,2.39,0,0,0,.16.84c.18.51.47,1,.39,1a1.84,1.84,0,0,1-.54-.92c-.13-.46-.27-1-.27-1Z"/><path class="cls-7" d="M27.1,41.33a4.38,4.38,0,0,1,1.13-1.09,3.41,3.41,0,0,1,1.46-.59c.07.07-.83.32-1.15.53a12.62,12.62,0,0,0-1.19,1.14Z"/><path class="cls-7" d="M30.18,41.24A2.91,2.91,0,0,1,31.1,40a4.56,4.56,0,0,1,2.06-.8c.19.06-1.51.49-1.89.87a4.1,4.1,0,0,0-.69,1.2Z"/><path class="cls-7" d="M32.94,41.56a6.54,6.54,0,0,1,1.38-1.1A6.29,6.29,0,0,1,36,40c.2,0-1.27.33-1.69.62a9.06,9.06,0,0,0-1,1Z"/><path class="cls-7" d="M36.51,42.36s0-.24.73-.5,1.06-.43.92-.43a4.69,4.69,0,0,0-.91.24,5.66,5.66,0,0,0-1.08.61Z"/><path class="cls-3" d="M54.57,48c3,2.2,6.91,9.14,2.29,14.86s-11.37,6-16.47,2.69A11.49,11.49,0,0,1,39,47.42C44.11,42.52,50.07,44.69,54.57,48Z"/><path class="cls-4" d="M42.08,47.19h0Z"/><path class="cls-4" d="M42.77,47.91c.35-.17.75-.53.42-.85s-.78,0-1.1.13C41.66,47.58,41.84,48.36,42.77,47.91Z"/><path class="cls-4" d="M42.1,47.18l.53-.2A.78.78,0,0,0,42.1,47.18Z"/><path class="cls-4" d="M41.14,48.71c.13-.09.31-.29.14-.43a.22.22,0,0,0-.34.07.43.43,0,0,0-.21.28C40.7,48.93,41,48.81,41.14,48.71Z"/><path class="cls-4" d="M43.43,48.53a.35.35,0,0,0-.33,0c-.16,0-.35.09-.39.21a.14.14,0,0,0,0,.09l-.05,0,.05,0c0,.14.38,0,.51,0S43.7,48.68,43.43,48.53Z"/><path class="cls-4" d="M42.66,48.87h0Z"/><path class="cls-4" d="M44.16,47.75c-.15,0-.32.21-.23.36s.44.09.56,0C45,47.85,44.35,47.64,44.16,47.75Z"/><path class="cls-4" d="M44.79,46.83c-.11,0-.29-.07-.37,0a.15.15,0,0,0,0,.18c0,.11.18.2.25.24s.92.32,1,.06S45,46.85,44.79,46.83Z"/><path class="cls-4" d="M44,46.31c.15.08.71.06.77-.17s-.31-.27-.45-.25A.43.43,0,0,0,44,46C43.89,46.1,43.78,46.21,44,46.31Z"/><path class="cls-4" d="M41.24,47.63c.29-.21,0-.34-.22-.29h0c-.14,0-.47.15-.38.33S41.13,47.71,41.24,47.63Z"/><path class="cls-4" d="M40,49c.11-.12.44-.67.06-.69a.3.3,0,0,0-.2.1,1.1,1.1,0,0,0-.38.54C39.35,49.46,39.83,49.23,40,49Z"/><path class="cls-4" d="M42.07,49.17a.68.68,0,0,0-.5,0,1,1,0,0,0-.67.51c-.12.52.79.15,1,.08S42.49,49.32,42.07,49.17Z"/><path class="cls-4" d="M43.6,49.57c-.15,0-.31.17-.3.29s.52.18.67.11C44.53,49.71,43.79,49.46,43.6,49.57Z"/><path class="cls-4" d="M47.18,46.69a.26.26,0,0,0-.25.1.69.69,0,0,0,1,0A.59.59,0,0,0,47.18,46.69Z"/><path class="cls-4" d="M45.71,48c.31.11,1.16.17,1.23-.27a.74.74,0,0,0-.69-.08C46,47.67,45.71,47.76,45.71,48Z"/><path class="cls-4" d="M46.32,45.73a.44.44,0,0,0-.62-.06.3.3,0,0,0-.15.18A.59.59,0,0,0,46.32,45.73Z"/><path class="cls-4" d="M48.63,47.56c-.63,0,.18.81.53.56S48.88,47.4,48.63,47.56Z"/><path class="cls-4" d="M39.7,50.15c-.2-.15-.36,0-.47.18-.42.27-.92.91-.52,1.07S39.69,50.5,39.7,50.15Z"/><path class="cls-4" d="M38.55,49.33c-.55.11-.29,1,.22.39C39.09,49.34,38.77,49.22,38.55,49.33Z"/><path class="cls-4" d="M41.62,51a.28.28,0,0,0-.2.25c.2.14.74.16.87-.11S41.8,50.67,41.62,51Z"/><path class="cls-4" d="M46.41,49.5l0,0a.52.52,0,0,0,0,.11s0,.1,0,.12c.12.29.73.3.62-.07S46.56,49.36,46.41,49.5Z"/><path class="cls-4" d="M52,48.72c-.37-.5-1.12,0-.65.16C51.6,49.08,52.33,49.21,52,48.72Z"/><path class="cls-4" d="M39,53.51l.07-.14a1,1,0,0,0-.4.64c.22.06.86-.37.84-.65S39.21,53.24,39,53.51Z"/><path class="cls-4" d="M44.7,52.09a.15.15,0,0,0,.21,0c.26,0,.74,0,.54-.32S44.77,51.87,44.7,52.09Z"/><path class="cls-4" d="M36.86,51.81a.4.4,0,0,0,0,.22c.32.11,1.13,0,.86-.51S37,51.43,36.86,51.81Z"/><path class="cls-4" d="M38,50.45h0a.27.27,0,0,0-.33.27.41.41,0,0,0,.56-.22A.36.36,0,0,0,38,50.45Z"/><path class="cls-5" d="M39,61.77c-1.18.86,4.8,5.19,8.69,5a11.43,11.43,0,0,0,9.4-6c1-2.14.67-8.23-.62-7.8-.46.15.1,2.21-1.78,5.34-1.65,2.75-4.48,5.45-8.21,5.27C41.39,63.37,39.8,61.2,39,61.77Z"/><path class="cls-6" d="M51.85,46.71a.55.55,0,0,0-.49.83c.32.8,2.27,2.1,2.83,1.88s.59-.87-.23-1.49A4.66,4.66,0,0,0,51.85,46.71Z"/><path class="cls-6" d="M52.86,47.78s2.26-2.34,2.91-3.22a41.89,41.89,0,0,0,2.14-4.23s.2-.29.47-.24.2.47.2.47S57,43.78,56.37,44.67c-1.3,1.81-3,3.78-3,3.78Z"/><path class="cls-6" d="M56.8,43.37c-.13,0-3.73-.47-3.73-.47l-.13.21,1.85.31,1.85.3Z"/><path class="cls-6" d="M49,47.58c-3.85,1-9.55-1.77-9.55-1.77s3.81-4.44,7.07-4.77,8.93,2.27,8.93,2.27A13.5,13.5,0,0,1,49,47.58Z"/><path class="cls-7" d="M51.88,47a.81.81,0,0,0-.09.79,4.1,4.1,0,0,0,1.41,1.11l.09-.7s-.3-.21-.33-.38a.39.39,0,0,1,0-.27Z"/><path class="cls-7" d="M54.22,43.4a30.09,30.09,0,0,0-6.46.07c-3,.43-7.52,1.86-7.46,2.06s4.94-1.64,7.36-1.8,6.74,0,6.74,0Z"/><path class="cls-7" d="M52.7,43.51a3.41,3.41,0,0,1-.62,1.18A8.56,8.56,0,0,0,51,46.37a10.21,10.21,0,0,0,1.25-1.56c.36-.53.82-1.27.82-1.27Z"/><path class="cls-7" d="M49.71,43.54A5.23,5.23,0,0,1,49,45.45c-.66,1.36-.92,1.76-.76,1.79s.66-1,1-1.75.85-2,.85-2Z"/><path class="cls-7" d="M46.79,43.81a3.63,3.63,0,0,1-.23,1.42c-.3,1-.66,1.58-.52,1.64s.48-.86.68-1.58.5-1.63.5-1.63Z"/><path class="cls-7" d="M43.65,44.55a2.11,2.11,0,0,1-.16.84c-.18.52-.47,1-.38,1a1.83,1.83,0,0,0,.53-.91l.28-1Z"/><path class="cls-7" d="M53.06,43.43a4.43,4.43,0,0,0-1.13-1.08,3.53,3.53,0,0,0-1.46-.6c-.08.07.83.33,1.15.54a12.23,12.23,0,0,1,1.18,1.14Z"/><path class="cls-7" d="M50,43.34a2.91,2.91,0,0,0-.92-1.22,4.48,4.48,0,0,0-2.06-.8c-.19.06,1.5.49,1.88.86a4.23,4.23,0,0,1,.69,1.21Z"/><path class="cls-7" d="M47.22,43.66a6.6,6.6,0,0,0-1.38-1.09,5.66,5.66,0,0,0-1.66-.42c-.2,0,1.27.33,1.68.62a9.48,9.48,0,0,1,1,1Z"/><path class="cls-7" d="M43.65,44.47s0-.25-.73-.5-1.07-.43-.92-.43a4.16,4.16,0,0,1,.91.24,5.61,5.61,0,0,1,1.07.6Z"/><path class="cls-3" d="M8.35,47.65c-3,2.19-6.91,9.14-2.29,14.85s11.37,6,16.47,2.7A11.5,11.5,0,0,0,24,47.06C18.81,42.17,12.85,44.33,8.35,47.65Z"/><path class="cls-4" d="M20.84,46.83h0Z"/><path class="cls-4" d="M20.15,47.55c-.35-.17-.75-.53-.42-.84s.78,0,1.1.12C21.26,47.23,21.08,48,20.15,47.55Z"/><path class="cls-4" d="M20.82,46.83l-.53-.21A.78.78,0,0,1,20.82,46.83Z"/><path class="cls-4" d="M21.78,48.36c-.13-.1-.31-.3-.14-.44A.23.23,0,0,1,22,48a.43.43,0,0,1,.21.29C22.22,48.57,21.91,48.46,21.78,48.36Z"/><path class="cls-4" d="M19.49,48.18a.3.3,0,0,1,.33,0c.16,0,.35.08.39.21a.11.11,0,0,1,0,.08l.05,0-.05,0c0,.15-.38,0-.51,0S19.22,48.32,19.49,48.18Z"/><path class="cls-4" d="M20.26,48.51h0Z"/><path class="cls-4" d="M18.76,47.39c.15,0,.32.22.23.36s-.44.09-.56,0C17.92,47.49,18.57,47.28,18.76,47.39Z"/><path class="cls-4" d="M18.13,46.47c.1,0,.29-.06.37,0a.15.15,0,0,1,0,.18c0,.1-.18.19-.25.23s-.92.32-1,.06S17.94,46.5,18.13,46.47Z"/><path class="cls-4" d="M19,46c-.15.08-.71.06-.77-.16s.31-.28.45-.26a.5.5,0,0,1,.24.14C19,45.74,19.14,45.85,19,46Z"/><path class="cls-4" d="M21.68,47.27c-.29-.21,0-.33.22-.29h0c.14,0,.47.14.38.32S21.79,47.36,21.68,47.27Z"/><path class="cls-4" d="M22.9,48.66c-.11-.13-.44-.67-.06-.69a.23.23,0,0,1,.2.1,1.12,1.12,0,0,1,.38.53C23.57,49.1,23.09,48.87,22.9,48.66Z"/><path class="cls-4" d="M20.85,48.81a.74.74,0,0,1,.5,0c.28.08.62.31.67.52.12.51-.79.14-1,.08S20.43,49,20.85,48.81Z"/><path class="cls-4" d="M19.32,49.22c.15.05.31.17.3.29s-.52.18-.67.11C18.39,49.36,19.13,49.1,19.32,49.22Z"/><path class="cls-4" d="M15.74,46.34a.24.24,0,0,1,.25.1.7.7,0,0,1-1.05,0A.59.59,0,0,1,15.74,46.34Z"/><path class="cls-4" d="M17.21,47.68c-.31.11-1.16.16-1.23-.28a.77.77,0,0,1,.69-.08C16.93,47.31,17.21,47.4,17.21,47.68Z"/><path class="cls-4" d="M16.6,45.38a.45.45,0,0,1,.62-.07.29.29,0,0,1,.15.19A.61.61,0,0,1,16.6,45.38Z"/><path class="cls-4" d="M14.29,47.21c.63,0-.18.8-.53.55S14,47,14.29,47.21Z"/><path class="cls-4" d="M23.22,49.8c.2-.16.36,0,.47.18.42.27.92.9.52,1.06S23.23,50.15,23.22,49.8Z"/><path class="cls-4" d="M24.37,49c.55.11.29,1-.22.39C23.83,49,24.15,48.86,24.37,49Z"/><path class="cls-4" d="M21.3,50.63a.27.27,0,0,1,.2.24c-.2.15-.74.16-.87-.11S21.12,50.31,21.3,50.63Z"/><path class="cls-4" d="M16.51,49.15l0,0a.52.52,0,0,1,0,.11c0,.06,0,.1,0,.12-.12.29-.73.3-.62-.07S16.36,49,16.51,49.15Z"/><path class="cls-4" d="M11,48.36c.37-.5,1.12,0,.65.16C11.32,48.72,10.59,48.86,11,48.36Z"/><path class="cls-4" d="M23.9,53.15,23.83,53a.89.89,0,0,1,.39.63c-.21.06-.85-.36-.83-.65S23.71,52.88,23.9,53.15Z"/><path class="cls-4" d="M18.22,51.73c-.08.09-.13.09-.21.05-.26,0-.74,0-.54-.31S18.15,51.51,18.22,51.73Z"/><path class="cls-4" d="M26.06,51.45a.41.41,0,0,1,0,.22c-.32.11-1.13,0-.86-.51S26,51.08,26.06,51.45Z"/><path class="cls-4" d="M25,50.09h0a.27.27,0,0,1,.33.27.4.4,0,0,1-.56-.22A.43.43,0,0,1,25,50.09Z"/><path class="cls-5" d="M23.89,61.41c1.18.86-4.8,5.2-8.69,5a11.44,11.44,0,0,1-9.4-6c-1-2.15-.67-8.23.62-7.81.46.15-.1,2.22,1.78,5.35,1.65,2.74,4.48,5.45,8.21,5.26C21.53,63,23.12,60.84,23.89,61.41Z"/><path class="cls-6" d="M11.07,46.35a.55.55,0,0,1,.49.84c-.32.8-2.27,2.1-2.83,1.88s-.59-.87.23-1.5A4.86,4.86,0,0,1,11.07,46.35Z"/><path class="cls-6" d="M10.06,47.42S7.8,45.08,7.15,44.2A42,42,0,0,1,5,40s-.2-.3-.47-.25-.2.47-.2.47,1.57,3.23,2.21,4.12c1.3,1.8,3,3.77,3,3.77Z"/><path class="cls-6" d="M6.12,43l3.73-.47.13.22-1.85.3-1.85.31Z"/><path class="cls-6" d="M13.89,47.22c3.85,1,9.55-1.77,9.55-1.77S19.63,41,16.37,40.68,7.44,43,7.44,43A13.42,13.42,0,0,0,13.89,47.22Z"/><path class="cls-7" d="M11,46.59a.82.82,0,0,1,.09.79A4.17,4.17,0,0,1,9.72,48.5l-.09-.71s.3-.2.33-.38a.39.39,0,0,0,0-.27Z"/><path class="cls-7" d="M8.7,43.05a30.48,30.48,0,0,1,6.46.06c3,.43,7.52,1.87,7.46,2.07s-4.94-1.64-7.36-1.8-6.74,0-6.74,0Z"/><path class="cls-7" d="M10.22,43.16a3.34,3.34,0,0,0,.62,1.17A8.47,8.47,0,0,1,11.93,46a10.43,10.43,0,0,1-1.26-1.57c-.35-.53-.81-1.27-.81-1.27Z"/><path class="cls-7" d="M13.21,43.18a5.23,5.23,0,0,0,.67,1.92c.66,1.36.92,1.75.76,1.78s-.66-1-1-1.74-.85-2-.85-2Z"/><path class="cls-7" d="M16.13,43.46a3.65,3.65,0,0,0,.23,1.42c.3,1,.66,1.57.52,1.64s-.48-.86-.68-1.59-.5-1.62-.5-1.62Z"/><path class="cls-7" d="M19.27,44.2a2.13,2.13,0,0,0,.16.84c.18.51.47,1,.38,1a1.93,1.93,0,0,1-.53-.92l-.28-1Z"/><path class="cls-7" d="M9.86,43.08A4.38,4.38,0,0,1,11,42a3.46,3.46,0,0,1,1.46-.59c.08.07-.83.32-1.15.53a12.23,12.23,0,0,0-1.18,1.14Z"/><path class="cls-7" d="M12.94,43a2.91,2.91,0,0,1,.92-1.23,4.6,4.6,0,0,1,2.06-.8c.19.06-1.5.49-1.88.87a4.1,4.1,0,0,0-.69,1.2Z"/><path class="cls-7" d="M15.7,43.31a6.54,6.54,0,0,1,1.38-1.1,6.39,6.39,0,0,1,1.66-.42c.2,0-1.27.33-1.68.62a9.48,9.48,0,0,0-1,1Z"/><path class="cls-7" d="M19.27,44.11s.05-.24.73-.5,1.07-.43.92-.43a4.88,4.88,0,0,0-.91.24,5.46,5.46,0,0,0-1.07.61Z"/><path class="cls-8" d="M8.58,64.8c1.21,4.8,4.31,16.83,6.17,21.38,2.36,5.73,1.26,8.24,9,9,6.68.67,20.45.36,26.27.21,5.82.15,19.6.46,26.28-.21,7.78-.79,6.68-3.3,9-9,1.87-4.55,5.22-18.45,6.42-23.25Z"/><path class="cls-9" d="M94.06,60.58c-.63-2.28-4.19-1.78-5.9-1.7-.58,0-1.17,0-1.75,0-2.93.06-5.85.09-8.77.13-3.31,0-42.61.84-45.88,1L22,60.33c-2.87.1-5.73.2-8.6.28-.57,0-1.15,0-1.72,0-1.68,0-5.2-.33-5.71,1.93A2.32,2.32,0,0,0,7.72,65.4a14.82,14.82,0,0,0,3.39-.1C14.38,65.1,17.67,65,21,65l9.94-.24L41,64.5c1.23,0,7.54-.08,9.09-.11l8.48-.21,10.28-.26L79,63.7c3.34-.08,6.69-.18,10-.12a15.22,15.22,0,0,0,3.44-.06A2.37,2.37,0,0,0,94.06,60.58Z"/><path class="cls-10" d="M13.09,65.15c-.84-.13-1.05-1.36-1.12-2A4.39,4.39,0,0,1,12.43,61a0,0,0,0,0-.07,0,3.25,3.25,0,0,0-.53,2.72,4,4,0,0,0,.17.63A2.62,2.62,0,0,1,12,61a.06.06,0,0,0-.09-.07,2.88,2.88,0,0,0,.52,4.14h.06a.79.79,0,0,0,.6.25C13.19,65.33,13.18,65.16,13.09,65.15Z"/><path class="cls-10" d="M13.22,65a3.39,3.39,0,0,1-.1-4,.06.06,0,0,0-.09-.08,3.08,3.08,0,0,0-.79,2.07,2.88,2.88,0,0,0,.87,2.15C13.18,65.11,13.27,65,13.22,65Z"/><path class="cls-10" d="M23.13,65a5.29,5.29,0,0,1-.8-4.76.06.06,0,1,0-.11-.05c-.69,1.46-.73,4,.77,5A.1.1,0,0,0,23.13,65Z"/><path class="cls-10" d="M24,65a5.25,5.25,0,0,1-.77-4.67s-.06-.08-.08,0a4,4,0,0,0-.39,2.44c0,.15.06.32.09.49-.07-.15-.15-.31-.21-.47a3.71,3.71,0,0,1,.11-2.46.07.07,0,0,0-.12,0c-.63,1.38-.63,3.39.7,4.4l.05,0a1.93,1.93,0,0,0,.45.49C23.9,65.23,24.05,65.1,24,65Z"/><path class="cls-10" d="M36.33,64.51a6.78,6.78,0,0,1-.93-2.28,4.29,4.29,0,0,1,.21-1.95c0-.13.2-.35.17-.51a.07.07,0,0,0-.07-.06c-.52.1-.71,1.65-.7,2.06a3.32,3.32,0,0,0,1.22,2.83C36.28,64.63,36.37,64.58,36.33,64.51Z"/><path class="cls-10" d="M37.38,64.48c-.85-1.33-1.58-3-1-4.6,0-.08-.07-.11-.11-.05-.72,1.3-.48,4,.95,4.8C37.36,64.69,37.43,64.55,37.38,64.48Z"/><path class="cls-10" d="M51,61.4c-.09-.65,0-1.25,0-1.88,0-.09-.11-.09-.14,0a4.27,4.27,0,0,0,.55,4,.07.07,0,0,0,.11-.07A11.35,11.35,0,0,1,51,61.4Z"/><path class="cls-10" d="M50.94,64.28a8.93,8.93,0,0,1-.86-4.71c0-.1-.12-.11-.14,0a6,6,0,0,0,0,2.6,4.9,4.9,0,0,0,.79,2.25A.12.12,0,0,0,50.94,64.28Z"/><path class="cls-10" d="M50.51,64.47a9.68,9.68,0,0,1-.81-2.28,12,12,0,0,1,0-2.54.08.08,0,1,0-.15,0c-.29,1.51-.52,3.85.77,5C50.4,64.73,50.57,64.59,50.51,64.47Z"/><path class="cls-10" d="M59.51,60.57c0-.34.07-1.15-.16-1.41,0,0-.09,0-.09,0a6.74,6.74,0,0,0,.43,3.67c0,.06.13,0,.12,0C59.72,62.07,59.57,61.33,59.51,60.57Z"/><path class="cls-10" d="M60.51,61.52c0-.78.05-1.56,0-2.33a.08.08,0,0,0-.16,0A9.28,9.28,0,0,0,60.65,64c0,.06.11,0,.1,0C60.7,63.18,60.56,62.35,60.51,61.52Z"/><path class="cls-10" d="M59.92,61.32c-.06-.65,0-1.31,0-2,0-.08-.13-.07-.15,0a6.23,6.23,0,0,0,.44,4.15s.1,0,.09,0A13,13,0,0,1,59.92,61.32Z"/><path class="cls-10" d="M68.36,61.46a15.62,15.62,0,0,0,0-2.37c0-.09-.16-.1-.17,0-.13,1.51-.5,3.72.56,5a.12.12,0,0,0,.2-.12A10.29,10.29,0,0,1,68.36,61.46Z"/><path class="cls-10" d="M69.13,61.69c-.07-.84.09-1.65.08-2.48,0-.11-.15-.09-.17,0-.33,1.37-.73,3.79.43,4.91.07.07.22,0,.2-.12A12.93,12.93,0,0,1,69.13,61.69Z"/><path class="cls-10" d="M81.2,61.71c0-.87-.21-2.4-1-2.94a.06.06,0,0,0-.09.07,9.11,9.11,0,0,1,.62,2.62c.08.74-.28,1.53-.17,2.22,0,.07.1.14.17.1C81.33,63.45,81.21,62.28,81.2,61.71Z"/><path class="cls-10" d="M81.25,58.85a.1.1,0,0,0-.18.1,7,7,0,0,1,.38,4.49c0,.07.06.14.11.07A4.14,4.14,0,0,0,81.25,58.85Z"/><path class="cls-10" d="M91.55,60.55a2.78,2.78,0,0,0-.77-2c-.09-.07-.2,0-.14.14.87,1.32.61,3.21.42,4.67a.15.15,0,0,0,.29.08A7.09,7.09,0,0,0,91.55,60.55Z"/><path class="cls-10" d="M90.44,58.58a.09.09,0,0,0-.16.09A12.12,12.12,0,0,1,90.74,60a10.43,10.43,0,0,1,.12,1.48.15.15,0,0,0,.3,0A3.81,3.81,0,0,0,90.44,58.58Z"/><path class="cls-11" d="M94.06,60.58a2,2,0,0,0-.71-1.07A2.09,2.09,0,0,1,92,60.62a15.46,15.46,0,0,1-3.4.05c-3.3-.05-6.61,0-9.91.12l-10,.22-10.15.25-8.37.2c-1.53,0-7.75.09-9,.11l-10,.22-9.8.23c-3.24.08-6.49.14-9.72.34a14.94,14.94,0,0,1-3.34.1,2.05,2.05,0,0,1-1.47-1.13A2,2,0,0,0,6,62.59,2.32,2.32,0,0,0,7.72,65.4a14.82,14.82,0,0,0,3.39-.1C14.38,65.1,17.67,65,21,65l9.94-.24L41,64.5c1.23,0,7.54-.08,9.09-.11l8.48-.21,10.28-.26L79,63.7c3.34-.08,6.69-.18,10-.12a15.22,15.22,0,0,0,3.44-.06A2.37,2.37,0,0,0,94.06,60.58Z"/><path class="cls-11" d="M81.11,62.75,70.24,63l-11,.27-9.11.22c-1.67,0-8.44.1-9.77.12l-10.84.24-10.68.26c-3.52.09-7,.15-10.57.37-.57,0-1.16.11-1.75.15a2,2,0,0,0,1.25.77,14.82,14.82,0,0,0,3.39-.1C14.38,65.1,17.67,65,21,65l9.94-.24L41,64.5c1.23,0,7.54-.08,9.09-.11l8.48-.21,10.28-.26L79,63.7c3.34-.08,6.69-.18,10-.12a15.22,15.22,0,0,0,3.44-.06,2,2,0,0,0,1.22-.82c-.6,0-1.2-.07-1.78-.07C88.3,62.57,84.71,62.67,81.11,62.75Z"/><g class="cls-12"><path class="cls-13" d="M8.77,61.12a3.06,3.06,0,0,0-1.27.14.16.16,0,0,0,0,.32,4.19,4.19,0,0,0,.5,0,6.48,6.48,0,0,0,.77-.09A.17.17,0,0,0,8.77,61.12Z"/><path class="cls-13" d="M10.11,60.94a1.1,1.1,0,0,0-.54,0,.16.16,0,0,0,0,.31,1.1,1.1,0,0,0,.54,0A.16.16,0,0,0,10.11,60.94Z"/><path class="cls-13" d="M21.45,60.73a26.2,26.2,0,0,0-4.06,0,20.78,20.78,0,0,0-3.7.21.06.06,0,0,0,0,.11,18.28,18.28,0,0,0,3.47.07A35.87,35.87,0,0,0,21.44,61,.14.14,0,0,0,21.45,60.73Z"/><path class="cls-13" d="M33.56,60.54a21.18,21.18,0,0,0-4.21.05c-1.69,0-3.36,0-5,.15-.07,0-.07.12,0,.13,1.56.09,3.14.17,4.71.19a21.5,21.5,0,0,0,4.54-.18A.17.17,0,0,0,33.56,60.54Z"/><path class="cls-13" d="M48.84,60a37.69,37.69,0,0,0-5.52.06,32.49,32.49,0,0,0-5.41.3c-.08,0-.09.15,0,.15,1.72,0,3.4.1,5.12,0a46.88,46.88,0,0,0,5.81-.21A.18.18,0,0,0,48.84,60Z"/><path class="cls-13" d="M57.73,59.91a24.87,24.87,0,0,0-2.59,0c-.89,0-1.81.16-2.69.14a.07.07,0,0,0,0,.14,12.16,12.16,0,0,0,2.34.07,22.48,22.48,0,0,0,3,0A.15.15,0,0,0,57.73,59.91Z"/><path class="cls-13" d="M67.39,59.84c-1.85-.34-3.75.06-5.6,0-.07,0-.08.08,0,.1a14.53,14.53,0,0,0,2.8.14,13.89,13.89,0,0,0,2.81,0A.12.12,0,0,0,67.39,59.84Z"/><path class="cls-13" d="M78.09,59.67c-2.74-.3-5.49,0-8.24-.08-.18,0-.22.27,0,.29a23.73,23.73,0,0,0,3.77.13c1.5-.1,3,0,4.51-.15A.1.1,0,0,0,78.09,59.67Z"/><path class="cls-13" d="M80.08,59.62a1.63,1.63,0,0,0-1.15-.13c-.16,0-.18.29,0,.3a4.93,4.93,0,0,0,1.08.09C80.12,59.86,80.2,59.69,80.08,59.62Z"/><path class="cls-13" d="M89,59.18a30.18,30.18,0,0,0-6.23.16s-.05.08,0,.08a32.42,32.42,0,0,0,6.23,0A.11.11,0,0,0,89,59.18Z"/><path class="cls-13" d="M92.8,59.32a1.51,1.51,0,0,0-.93-.19c-.14,0-.13.22,0,.24.29,0,.55.14.84.16C92.82,59.53,92.91,59.39,92.8,59.32Z"/></g><path class="cls-10" d="M14,74.72a21.05,21.05,0,0,1-.83-3.09,23.13,23.13,0,0,1-.09-3c0-.12-.16-.1-.19,0a10.19,10.19,0,0,0,.8,6.22C13.73,75,14,74.91,14,74.72Z"/><path class="cls-10" d="M16.44,75.47a11.68,11.68,0,0,1-1.17-3,21.74,21.74,0,0,1-.18-3.13c0-.16-.27-.16-.29,0-.17,2.21-.18,4.53,1.35,6.32C16.27,75.77,16.53,75.64,16.44,75.47Z"/><path class="cls-10" d="M18.52,74.45a17.92,17.92,0,0,1-.84-2.6,16.78,16.78,0,0,1-.15-3,.14.14,0,0,0-.28,0,8.51,8.51,0,0,0,1,5.77C18.36,74.76,18.58,74.61,18.52,74.45Z"/><path class="cls-10" d="M18.7,89.34a17.89,17.89,0,0,1-1.26-5,.08.08,0,1,0-.15,0,10.77,10.77,0,0,0,1.21,5.07C18.57,89.57,18.76,89.46,18.7,89.34Z"/><path class="cls-10" d="M20.9,88.88a18,18,0,0,1-1-3.11,9.16,9.16,0,0,0-.46-2.34.12.12,0,0,0-.22.06c.16.87.22,1.77.37,2.65A9.71,9.71,0,0,0,20.62,89,.15.15,0,0,0,20.9,88.88Z"/><path class="cls-10" d="M23.3,89.41A17.36,17.36,0,0,1,22,83.9c0-.17-.31-.18-.32,0a11.2,11.2,0,0,0,1.24,5.66C23.06,89.77,23.4,89.64,23.3,89.41Z"/><path class="cls-10" d="M24.79,82.47a10.34,10.34,0,0,1-1.15-2.89,32.81,32.81,0,0,1-.44-3.43c0-.12-.21-.13-.22,0a10.09,10.09,0,0,0,1.53,6.48C24.62,82.78,24.88,82.63,24.79,82.47Z"/><path class="cls-10" d="M26.6,82.81a25.48,25.48,0,0,1-1-3.29c-.2-1-.26-2.1-.44-3.15a.12.12,0,0,0-.24,0c.26,2.3.37,4.41,1.46,6.5A.12.12,0,0,0,26.6,82.81Z"/><path class="cls-10" d="M28.79,81.63a29.18,29.18,0,0,1-1-4.09.11.11,0,0,0-.21,0,9.51,9.51,0,0,0,1,4.21A.15.15,0,0,0,28.79,81.63Z"/><path class="cls-10" d="M29,76.43a22.06,22.06,0,0,1-.67-2.54c-.15-1-.25-2.1-.38-3.14a.13.13,0,0,0-.26,0,15.07,15.07,0,0,0,1,5.73C28.75,76.65,29,76.6,29,76.43Z"/><path class="cls-10" d="M31.59,76.48a15.67,15.67,0,0,1-1.08-3.06A18.84,18.84,0,0,0,30,70.85a.09.09,0,0,0-.18.05c.37,2,.3,4,1.47,5.76A.18.18,0,0,0,31.59,76.48Z"/><path class="cls-10" d="M32.73,70.83a.07.07,0,0,0-.14,0,43.12,43.12,0,0,0,1,5.15c0,.14.28.08.25-.07C33.58,74.24,33.21,72.5,32.73,70.83Z"/><path class="cls-10" d="M43.1,80.25a.1.1,0,0,0-.19,0,11,11,0,0,0,.2,5.13c0,.18.36.1.32-.09A16.54,16.54,0,0,1,43.1,80.25Z"/><path class="cls-10" d="M44.85,80.47c0-.18-.32-.18-.33,0a15.61,15.61,0,0,0,.61,5.81.15.15,0,0,0,.29-.08A44,44,0,0,1,44.85,80.47Z"/><path class="cls-10" d="M48.85,85.54a22,22,0,0,1-1.15-5.68c0-.18-.27-.13-.27,0a12.79,12.79,0,0,0,1.11,5.77A.17.17,0,0,0,48.85,85.54Z"/><path class="cls-10" d="M50.24,74c0-.09-.17-.09-.17,0a26.94,26.94,0,0,0,.33,6.53.14.14,0,0,0,.28,0A64.3,64.3,0,0,1,50.24,74Z"/><path class="cls-10" d="M52.73,73.43c0-.15-.2-.17-.23,0a13.72,13.72,0,0,0-.09,6.34.14.14,0,0,0,.27,0A29.21,29.21,0,0,1,52.73,73.43Z"/><path class="cls-10" d="M55.11,76.33c-.08-1.16,0-2.33,0-3.48,0-.15-.23-.14-.25,0a13.55,13.55,0,0,0,.66,7.25A.15.15,0,0,0,55.8,80,35.76,35.76,0,0,1,55.11,76.33Z"/><path class="cls-10" d="M66.1,81c.1-1.17.39-2.34.56-3.51a.11.11,0,0,0-.22,0c-.58,2.45-1.19,4.82-.57,7.32a.2.2,0,0,0,.39-.05A17.25,17.25,0,0,1,66.1,81Z"/><path class="cls-10" d="M68.5,78.61a.14.14,0,0,0-.28,0A18.06,18.06,0,0,0,68,85.2a.15.15,0,0,0,.3,0A41,41,0,0,1,68.5,78.61Z"/><path class="cls-10" d="M71.46,80.7a26.8,26.8,0,0,0,.14-3.1c0-.13-.21-.1-.21,0,0,1.12-.29,2.26-.36,3.38a13.39,13.39,0,0,0,.15,3.35.16.16,0,0,0,.31,0C71.45,83.11,71.42,81.91,71.46,80.7Z"/><path class="cls-10" d="M81.44,77.91a16.32,16.32,0,0,0-.88,6.61.12.12,0,0,0,.24,0c.08-1.1.07-2.2.21-3.3s.54-2.18.6-3.27C81.61,77.86,81.47,77.81,81.44,77.91Z"/><path class="cls-10" d="M83.59,78.25c-.37,2.37-1,4.69-.74,7.12,0,.21.37.22.38,0a36.28,36.28,0,0,1,.2-3.76c.12-1.11.39-2.21.42-3.33A.13.13,0,0,0,83.59,78.25Z"/><path class="cls-10" d="M72.56,88.54c0-.78.16-1.56.18-2.34a.08.08,0,0,0-.15,0,6.36,6.36,0,0,0-.34,2.34,9.43,9.43,0,0,0,.23,2.75c0,.18.32.15.29,0A14,14,0,0,1,72.56,88.54Z"/><path class="cls-10" d="M74.89,86.39c0-.11-.14-.14-.19,0a8,8,0,0,0-.07,5.07.14.14,0,0,0,.27-.07A12.5,12.5,0,0,1,74.89,86.39Z"/><path class="cls-10" d="M77.39,86.46a.11.11,0,0,0-.22,0,17.2,17.2,0,0,0,.1,4.7.18.18,0,0,0,.35,0C77.44,89.57,77.59,88,77.39,86.46Z"/><path class="cls-10" d="M74.31,73.31c.07-1,.31-1.9.47-2.86a.08.08,0,0,0-.16,0c-.49,2.09-1,4.08-.29,6.2,0,.12.24.06.22-.06A13.75,13.75,0,0,1,74.31,73.31Z"/><path class="cls-10" d="M77.19,73.35c0-.88.18-1.75.18-2.64,0-.13-.23-.13-.23,0-.15,2.12-.67,4.16,0,6.26.05.19.34.1.32-.09A19.76,19.76,0,0,1,77.19,73.35Z"/><path class="cls-10" d="M80.3,70.81c0-.17-.26-.21-.27,0-.11,2.08-.76,4.14-.37,6.24A.15.15,0,0,0,80,77,60.43,60.43,0,0,1,80.3,70.81Z"/><path class="cls-10" d="M31.92,65.75a19.22,19.22,0,0,1-5.35.46c-.09,0-.1.12,0,.14A9.84,9.84,0,0,0,32,66.07C32.18,66,32.11,65.71,31.92,65.75Z"/><path class="cls-10" d="M32.72,67.6c-1.91.38-4.16,1-6.12.51-.07,0-.1.1,0,.13a6.28,6.28,0,0,0,2.66.33,9.64,9.64,0,0,0,3.57-.68C33,67.82,32.89,67.56,32.72,67.6Z"/><path class="cls-10" d="M26.3,70.58a13.61,13.61,0,0,1-5.05.1c-.07,0-.11.1,0,.13a7.29,7.29,0,0,0,5.16.09C26.55,70.82,26.49,70.54,26.3,70.58Z"/><path class="cls-10" d="M26.63,73.09a21.23,21.23,0,0,1-5.1.14c-.09,0-.13.13,0,.15a9.81,9.81,0,0,0,5.24.08C27,73.4,26.84,73.06,26.63,73.09Z"/><path class="cls-10" d="M26.45,75.31a17.74,17.74,0,0,1-4.77-.12c-.09,0-.12.12,0,.15a7.28,7.28,0,0,0,4.89.24C26.69,75.53,26.61,75.3,26.45,75.31Z"/><path class="cls-10" d="M35.28,77a23,23,0,0,1-6.13.73c-.2,0-.25.3,0,.32a14,14,0,0,0,6.27-.7A.18.18,0,0,0,35.28,77Z"/><path class="cls-10" d="M34.73,79.88a18.73,18.73,0,0,1-5.49.24.14.14,0,0,0-.07.26,9.83,9.83,0,0,0,5.66-.13A.19.19,0,0,0,34.73,79.88Z"/><path class="cls-10" d="M34.55,82.58c-1.5.31-3.34,1-4.88.68a.12.12,0,0,0-.06.22c1.48.51,3.62,0,5-.49A.22.22,0,0,0,34.55,82.58Z"/><path class="cls-10" d="M29.4,84.4c-1.88,0-3.76.34-5.64-.08-.07,0-.1.09,0,.12a9.79,9.79,0,0,0,5.67.29C29.56,84.69,29.61,84.4,29.4,84.4Z"/><path class="cls-10" d="M29.9,86.07a21.23,21.23,0,0,1-5.34.2c-.13,0-.15.17,0,.2a12.7,12.7,0,0,0,5.42,0A.21.21,0,0,0,29.9,86.07Z"/><path class="cls-10" d="M29.85,87.87a16,16,0,0,1-5.38.45c-.11,0-.16.16,0,.19a9.09,9.09,0,0,0,5.5-.36C30.08,88.1,30,87.85,29.85,87.87Z"/><path class="cls-10" d="M20.25,76.93c-2,0-4,.48-6,.23-.12,0-.14.16,0,.19a12.8,12.8,0,0,0,6.12-.15C20.49,77.16,20.39,76.93,20.25,76.93Z"/><path class="cls-10" d="M20,79.71c-1.55-.21-3.1-.18-4.65-.32a.1.1,0,0,0,0,.2A31.37,31.37,0,0,0,20,80C20.16,80,20.2,79.73,20,79.71Z"/><path class="cls-10" d="M20.37,82.08a26.63,26.63,0,0,1-4.64.12.13.13,0,0,0,0,.26,9.11,9.11,0,0,0,4.75-.13A.13.13,0,0,0,20.37,82.08Z"/><path class="cls-10" d="M47.74,75.26c-2.16.07-4.27.15-6.43,0a.08.08,0,0,0,0,.16,17.43,17.43,0,0,0,6.48,0A.13.13,0,0,0,47.74,75.26Z"/><path class="cls-10" d="M49,77.45c-1.38,0-2.76.18-4.15.23a33.56,33.56,0,0,1-3.87-.2.09.09,0,0,0,0,.18,22.39,22.39,0,0,0,8.08.08A.15.15,0,0,0,49,77.45Z"/><path class="cls-10" d="M48.2,79.36a39,39,0,0,1-7.4.14.08.08,0,0,0,0,.16,13.44,13.44,0,0,0,3.23.21,23.84,23.84,0,0,0,4.22-.31A.1.1,0,0,0,48.2,79.36Z"/><path class="cls-10" d="M55,68.18c-1,0-1.89.1-2.85.08s-1.81-.16-2.69-.26a.06.06,0,0,0,0,.12,13.08,13.08,0,0,0,5.56.36C55.11,68.44,55.13,68.18,55,68.18Z"/><path class="cls-10" d="M54.82,69.79a21.65,21.65,0,0,1-5.63-.21c-.08,0-.12.12,0,.16a11.13,11.13,0,0,0,5.7.28A.12.12,0,0,0,54.82,69.79Z"/><path class="cls-10" d="M55.3,71.26a19.61,19.61,0,0,1-7.44.26c-.09,0-.1.1,0,.12a14.09,14.09,0,0,0,7.54-.09C55.54,71.5,55.46,71.23,55.3,71.26Z"/><path class="cls-10" d="M72.87,71.5a21.92,21.92,0,0,1-4,.16,25.57,25.57,0,0,1-3.48-.6.1.1,0,0,0-.06.19,12.78,12.78,0,0,0,7.56.57A.16.16,0,0,0,72.87,71.5Z"/><path class="cls-10" d="M72.09,73.83A20.54,20.54,0,0,1,66,73.57c-.1,0-.14.15,0,.18a11.27,11.27,0,0,0,6.14.42A.17.17,0,0,0,72.09,73.83Z"/><path class="cls-10" d="M73.16,75.89a15.33,15.33,0,0,1-7.67.36c-.18,0-.2.23,0,.27a12.2,12.2,0,0,0,7.85-.31C73.5,76.12,73.37,75.83,73.16,75.89Z"/><path class="cls-10" d="M87.5,70.63a38.5,38.5,0,0,1-5.26-.21c-.12,0-.14.16,0,.19A19.06,19.06,0,0,0,87.5,71C87.7,71,87.7,70.63,87.5,70.63Z"/><path class="cls-10" d="M86.34,72.72a14.52,14.52,0,0,1-4,.07.11.11,0,0,0,0,.22,9.9,9.9,0,0,0,4,0A.16.16,0,0,0,86.34,72.72Z"/><path class="cls-10" d="M85.86,75.46a10.55,10.55,0,0,1-4.43.33c-.11,0-.16.15-.05.19a6.3,6.3,0,0,0,4.56-.21C86.1,75.7,86,75.43,85.86,75.46Z"/><path class="cls-10" d="M79.05,77.92a23.7,23.7,0,0,1-5.19,0c-.1,0-.15.15,0,.18a9.16,9.16,0,0,0,2.45.26,15.73,15.73,0,0,0,2.83-.1A.18.18,0,0,0,79.05,77.92Z"/><path class="cls-10" d="M78.58,81a31.44,31.44,0,0,1-5.57-.5c-.15,0-.21.21-.07.25a17,17,0,0,0,5.64.6C78.78,81.38,78.78,81,78.58,81Z"/><path class="cls-10" d="M78.43,84.13A16.85,16.85,0,0,1,73,83.75a.13.13,0,0,0-.07.25,11.67,11.67,0,0,0,5.56.49A.18.18,0,0,0,78.43,84.13Z"/><g class="cls-14"><path class="cls-8" d="M54.67,68.63c.25,0,.5.37.24.58a3.7,3.7,0,0,1-2.15.49,7.84,7.84,0,0,1-2.84-.46.3.3,0,0,1-.14-.1c-.34-.13-.16-.69.24-.63a16.43,16.43,0,0,0,2.8.22A14.34,14.34,0,0,1,54.67,68.63Z"/><path class="cls-8" d="M52.08,80.09a.31.31,0,0,1-.13.36.33.33,0,0,1-.6.06,8,8,0,0,1-.8-4.15c0-.69,0-2.18.77-2.49a.37.37,0,0,1,.33.09c.38.33.26,1.1.2,1.54A10.77,10.77,0,0,0,52.08,80.09Z"/><path class="cls-8" d="M50.14,71.42c-.53,0-1.42-.34-1.58-.93-.21-.23.1-.67.44-.5,1.61.78,3.64.57,5.36.42.39,0,.45.56.09.66A12.77,12.77,0,0,1,50.14,71.42Z"/><path class="cls-8" d="M53.72,73.52a.34.34,0,0,1,.56.15,3,3,0,0,1-.18,1.86,7.78,7.78,0,0,0,0,2.68c.14.65.41,1.22.57,1.85a.34.34,0,0,1-.5.38c-1.06-.47-1.37-2.09-1.4-3.12S52.8,74.33,53.72,73.52Z"/><path class="cls-8" d="M32.4,72.68c.06.7.13,1.39.24,2.09a1.89,1.89,0,0,1-.06,1,.34.34,0,0,1-.49.2c-1-.64-1.11-2.35-1.15-3.49s0-2,.68-1.88S32.35,72.15,32.4,72.68Z"/><path class="cls-8" d="M33.67,79.57a9.37,9.37,0,0,1-4-.17.34.34,0,0,1-.18-.1.62.62,0,0,1-.14-.14.43.43,0,0,1,.12-.54.1.1,0,0,1,.05,0,.27.27,0,0,1,.28-.16,16.08,16.08,0,0,0,2.86-.14c.84-.09,1.58-.38,2.39-.5a.35.35,0,0,1,.43.32C35.56,79,34.4,79.41,33.67,79.57Z"/><path class="cls-8" d="M35,81.09c-.72,2-4.05,1.7-5.34.57a.33.33,0,0,1,.05-.51.31.31,0,0,1,.4-.27,6.55,6.55,0,0,0,2.82.14c.45-.06,1.48-.59,1.91-.31A.34.34,0,0,1,35,81.09Z"/><path class="cls-8" d="M28.49,73.08c0-.66-.2-1.63.33-2.13a.33.33,0,0,1,.41,0c.57.38.4,1.47.46,2,.1.92.64,1.92.48,2.83a.29.29,0,0,1-.28.24.26.26,0,0,1-.36-.07A5.05,5.05,0,0,1,28.49,73.08Z"/><path class="cls-8" d="M27,66.64a9.4,9.4,0,0,0,2.85.21,9.42,9.42,0,0,1,1.83-.11.34.34,0,0,1,.15.56,4.48,4.48,0,0,1-3.22.71,3,3,0,0,1-1.93-.74.32.32,0,0,1-.06-.15A.33.33,0,0,1,27,66.64Z"/><path class="cls-8" d="M27.51,82.27c-1.54.42-1.77-4.42-1.68-5.12a.35.35,0,0,1,.33-.31.32.32,0,0,1,.51-.06,1.31,1.31,0,0,1,.39.91,13.79,13.79,0,0,0,.46,2.47C27.66,80.58,28.32,82.05,27.51,82.27Z"/><path class="cls-8" d="M26.74,74.39a1.51,1.51,0,0,1-1,.7,4.25,4.25,0,0,1-4.12-.7.32.32,0,0,1,.16-.55.27.27,0,0,1,.28-.06,11.39,11.39,0,0,0,4.43.11C26.71,73.85,26.85,74.19,26.74,74.39Z"/><path class="cls-8" d="M26.2,72.23a4.92,4.92,0,0,1-4.56.46c-.29-.15-.77-.6-.3-.88h0a.37.37,0,0,1,.42-.33,27.67,27.67,0,0,0,4.27.14A.33.33,0,0,1,26.2,72.23Z"/><path class="cls-8" d="M20.38,77.77a.34.34,0,0,1,.34.33c.1,1.3-2.17,1.18-2.94,1.14-.6,0-2.51,0-2.83-.77a.34.34,0,0,1,.28-.6C17,78.28,18.66,77.76,20.38,77.77Z"/><path class="cls-8" d="M15.48,69.84a.18.18,0,0,1,.06-.09,1.17,1.17,0,0,1,.15-.27.68.68,0,0,1,.43-.31.25.25,0,0,1,.39.11,3.27,3.27,0,0,1,.14,1.21A18.43,18.43,0,0,0,17,72.57c.09.36.5,1.38.12,1.7s-.62.13-.88-.18A4.53,4.53,0,0,1,15.48,69.84Z"/><path class="cls-8" d="M13.92,74.09c-.36-.34-.42-1.18-.5-1.64a7.28,7.28,0,0,1,0-2.55.14.14,0,0,1,0-.06.91.91,0,0,1,.44-.71c.73-.38.71,2.88.72,3.12S14.82,75,13.92,74.09Z"/><path class="cls-8" d="M19.87,89a.34.34,0,0,1-.57.24c-.92-.93-1.12-2.43-1.31-3.74,0-.17-.06-.35-.08-.53,0,0,0,0,0-.08v-.06c0-.51.1-.92.57-.92.74,0,.69,1.25.76,1.7A15.46,15.46,0,0,1,19.87,89Z"/><path class="cls-8" d="M19.91,81.48c-1.24.79-5,.7-5.6-.94a.31.31,0,0,1,.14-.36c0-.22.13-.47.4-.36,1.55.61,3.16.26,4.76.49C20.28,80.4,20.58,81.06,19.91,81.48Z"/><path class="cls-8" d="M21.35,88.82a6.64,6.64,0,0,1-1.2-4.17,2.93,2.93,0,0,1,.11-.9c.11-.39.45-.89.93-.61s.3,1,.3,1.51a10,10,0,0,0,.18,2.62,5.41,5.41,0,0,1,.25,1.31A.34.34,0,0,1,21.35,88.82Z"/><path class="cls-8" d="M23.83,77.06a.49.49,0,0,1,.69-.13,2.63,2.63,0,0,1,.31,1.47c.07,1,.39,2,.51,2.95.05.34-.47.44-.62.17A7.11,7.11,0,0,1,23.83,77.06Z"/><path class="cls-8" d="M24.52,84.83c1.23.62,2.7.16,4,.31.23,0,.45.27.29.51-.49.7-1.44.54-2.2.54s-1.95,0-2.48-.76a.26.26,0,0,1,0-.08C23.86,85.12,24.17,84.66,24.52,84.83Z"/><path class="cls-8" d="M24.07,87.14a.34.34,0,0,1,.42-.41l.19.07a.33.33,0,0,1,.22,0,21,21,0,0,0,3.8.3.34.34,0,0,1,.24.57c-.69.7-2.07.54-3,.48S24.38,88,24.07,87.14Z"/><path class="cls-8" d="M70.38,84c0,.34.06.91-.44.91s-.85-.79-1-1.14a5.67,5.67,0,0,1-.29-3.16,7.19,7.19,0,0,1,.43-1.76c.17-.44.51-1.36,1.14-1.29a.49.49,0,0,1,.38.34,2.24,2.24,0,0,1,.13.92l-.09.54c-.08.54-.15,1.09-.21,1.63a13.57,13.57,0,0,0-.09,1.91C70.32,83.3,70.35,83.67,70.38,84Z"/><path class="cls-8" d="M69.15,76.25c-1.08,0-3.5,0-3.7-1.49a.36.36,0,0,1,.12-.34.31.31,0,0,1,.41-.28,10.34,10.34,0,0,0,3.66.65,11.11,11.11,0,0,1,2.21-.18.32.32,0,0,1,.24.32C72,76.29,70.1,76.25,69.15,76.25Z"/><path class="cls-8" d="M67.48,83.62l.06,1a.34.34,0,0,1-.58.24,4.6,4.6,0,0,1-.58-3.61c.15-.86.16-2.5.89-3.11a.34.34,0,0,1,.57.24,11.7,11.7,0,0,1-.28,1.84,2.83,2.83,0,0,0,0,.29c0,.47-.1.94-.11,1.4A16.66,16.66,0,0,0,67.48,83.62Z"/><path class="cls-8" d="M69.36,73.65c-1.13-.05-2.57-.14-3.35-1.1a.27.27,0,0,1-.07-.14c-.18-.23,0-.65.33-.53a10.18,10.18,0,0,0,3.37.6,23.73,23.73,0,0,0,2.67-.32c.27,0,.39.3.29.5C72,73.77,70.42,73.71,69.36,73.65Z"/><path class="cls-8" d="M73.7,91.55a3.63,3.63,0,0,1-1-3.15c.07-.77.11-2.15.87-2.6a.35.35,0,0,1,.5.2,3.11,3.11,0,0,1,0,.61.32.32,0,0,1,.08.29A6.72,6.72,0,0,0,74,89.54a6.6,6.6,0,0,1,.23,1.72C74.2,91.49,73.92,91.72,73.7,91.55Z"/><path class="cls-8" d="M76.7,89.84a4.75,4.75,0,0,1,0,1.19c-.09.31-.33.67-.71.48C75,91,74.81,88.64,74.92,87.68a3.23,3.23,0,0,1,.88-2.2.51.51,0,0,1,.79.11A3.13,3.13,0,0,1,76.82,87a.31.31,0,0,1,0,.19A14.46,14.46,0,0,0,76.7,89.84Z"/><path class="cls-8" d="M77.19,83.52a6.42,6.42,0,0,1-3.31-.47c-1-.26-1.79-.72-1.18-1.43a.33.33,0,0,1,.33-.08l.43.15a10.63,10.63,0,0,0,2.65.23,15.68,15.68,0,0,1,2.65,0,.33.33,0,0,1,.24.23C79.17,83,77.83,83.38,77.19,83.52Z"/><path class="cls-8" d="M77.23,80.57a6.73,6.73,0,0,1-4-1.16.27.27,0,0,1-.09-.3.33.33,0,0,1,.38-.48,13.47,13.47,0,0,0,3.3.27c.86,0,1.77-.11,2.61,0a.34.34,0,0,1,.24.33C79.68,80.27,78,80.59,77.23,80.57Z"/><path class="cls-8" d="M76.5,75.31c.09.42.12,1.13-.41,1.28-1.23.34-1.48-2.73-1.48-3.33s.32-3.8,1.61-3.05a.73.73,0,0,1,.36.62.28.28,0,0,1,.13.36A7.79,7.79,0,0,0,76.5,75.31Z"/><path class="cls-8" d="M79.08,75.49c0,.37.15.79-.12,1.1a.32.32,0,0,1-.4,0c-.78-.4-.92-1.57-1-2.34a7.25,7.25,0,0,1,.45-3.67.49.49,0,0,1,.56-.27.35.35,0,0,1,.37,0c.63.25.41,1.53.19,2.45A12.3,12.3,0,0,0,79.08,75.49Z"/><path class="cls-8" d="M82.89,78.35a27.24,27.24,0,0,0-.31,4.78c0,.53,0,1.61-.64,1.79a.33.33,0,0,1-.33-.08,4.77,4.77,0,0,1-.48-3A14.53,14.53,0,0,1,82,78.32a.5.5,0,0,1,.88,0Z"/><path class="cls-8" d="M87.72,73.63c-.94,1.87-5.32,2.48-6.37.41l0-.1s0,0,0,0a.34.34,0,0,1,0-.1v0a.51.51,0,0,1,.44-.55h.09a.67.67,0,0,1,.39.08,9.16,9.16,0,0,0,5.16-.17C87.64,73,87.84,73.38,87.72,73.63Z"/><path class="cls-8" d="M82,71.27a.33.33,0,0,1,.41-.31,18.44,18.44,0,0,0,4.92.23.34.34,0,0,1,.24.57,4.89,4.89,0,0,1-5.57,0A.31.31,0,0,1,82,71.27Z"/><path class="cls-8" d="M47.88,85.7c.12.4-.16,1-.66.85-1.84-.5-2.2-3.38-2.06-4.93.06-.59.17-1.39.8-1.65.43-.18,1-.17,1.15.38a3.61,3.61,0,0,1,0,1.6A9.58,9.58,0,0,0,47.88,85.7Z"/><path class="cls-8" d="M43.72,79.23A4.43,4.43,0,0,1,41,78.55a.29.29,0,0,1-.09-.28c-.09-.23.08-.55.38-.44,2.23.8,4.41.28,6.7.3a.34.34,0,0,1,.09.66A12.73,12.73,0,0,1,43.72,79.23Z"/><path class="cls-8" d="M44.29,81.59a14.34,14.34,0,0,0,.34,4c0,.29-.32.63-.56.33a4.7,4.7,0,0,1-.81-2.64,6,6,0,0,1,.13-2.6.46.46,0,0,1,.87,0,1.36,1.36,0,0,1,0,.8A.33.33,0,0,1,44.29,81.59Z"/><path class="cls-8" d="M41.35,76h0a.35.35,0,0,1,.18,0,33.46,33.46,0,0,0,6.25,0,.34.34,0,0,1,.33.34c0,1.09-1.8,1-2.53,1-1.56.06-3.23.38-4.51-.74A.34.34,0,0,1,41.35,76Z"/></g><g class="cls-15"><path class="cls-8" d="M8.68,64.8c1.2,4.8,4.3,16.83,6.17,21.38,2.36,5.73,1.26,8.24,9,9,6.69.67,20.46.36,26.28.21,5.82.15,19.59.46,26.28-.21,7.77-.79,6.68-3.3,9-9,1.87-4.55,5.21-18.45,6.42-23.25ZM82.82,85.86a8.4,8.4,0,0,1-1.4,1.32c-2.73,2-6.42,2.64-9.81,2.91-1.94.15-3.88.17-5.83.19-6.83.09-13.64.66-20.47.76q-4.81.08-9.65,0c-5-.1-10.53.42-15.18-1.76a13,13,0,0,1-6.08-6.78c-1.82-4.08-5.55-14.44,3-14,2.4.13,4.76.16,7.16.18,7.4.06,14.79.26,22.19.11q3.21-.06,6.42-.22c7.56-.39,18.54-1.08,26.11-1.29,2.26-.06,5.1-.49,7.22.41C90.8,69.54,84.41,84,82.82,85.86Z"/></g><path class="cls-16" d="M36.3,70.28c-3.27,0-6.54,0-9.8,0-2.39,0-5.48-.48-7.74.31-2.89,1-1.16,4.5-.34,6.15a9.62,9.62,0,0,0,3.95,3.92C27,83.33,33.26,84,38.84,84.26c4.59.21,9.19.12,13.78-.11,6.07-.29,12.34-.2,18.27-1.44a19.33,19.33,0,0,0,13-9.37c.59-1.12,2-3.35.17-4.18-2-.91-24.41.86-33.06,1Q43.63,70.21,36.3,70.28Z"/><g class="cls-17"><path class="cls-8" d="M83.28,90c-5.26,3.84-23,3.14-26.1,3.21-6.29.14-12.58.17-18.87.14-3.17,0-15-.67-17.66-1.21a9.05,9.05,0,0,1-4.57-2.19c1,3.14,1.9,4.69,7.71,5.28,6.68.67,20.45.36,26.27.21,5.82.15,19.6.46,26.28-.21,6.34-.64,6.78-2.43,8-6.17A8.59,8.59,0,0,1,83.28,90Z"/><path class="cls-8" d="M15.44,65.64c4.4-.39,8.86-.11,13.27-.13,6.34,0,12.68-.29,19-.32s12.75.11,19.12,0,12.58-.74,18.83-.41c1.29.06,3.83,0,4.68,1.26a2.34,2.34,0,0,1,.36,1.19l1.06-4.27L8.58,64.8l.65,2.55a5,5,0,0,1,1.47-.71A14.29,14.29,0,0,1,15.44,65.64Z"/></g><path class="cls-13" d="M36,89.66a2.32,2.32,0,0,1-1.73-.6,2.27,2.27,0,0,1-.59-1.65,2.23,2.23,0,0,1,.59-1.66A2.39,2.39,0,0,1,36,85.18h2.65V72.85h2.55l-4.36,2.7a2.18,2.18,0,0,1-1.47.38,2,2,0,0,1-1.16-.59,2.47,2.47,0,0,1-.63-1.17,2.33,2.33,0,0,1,.1-1.4,2.27,2.27,0,0,1,1.08-1.16L39,69a4.89,4.89,0,0,1,1.34-.65,4.82,4.82,0,0,1,1.48-.23,2.52,2.52,0,0,1,1.79.6,2.22,2.22,0,0,1,.65,1.72V85.18h2.38a2.34,2.34,0,0,1,1.7.57,2.22,2.22,0,0,1,.58,1.66,2.26,2.26,0,0,1-.58,1.67,2.31,2.31,0,0,1-1.7.58Z"/><path class="cls-13" d="M54.08,89.66a2.32,2.32,0,0,1-1.73-.6,2.27,2.27,0,0,1-.59-1.65,2.23,2.23,0,0,1,.59-1.66,2.39,2.39,0,0,1,1.73-.57h2.65V72.85h2.55l-4.36,2.7a2.18,2.18,0,0,1-1.47.38,2,2,0,0,1-1.16-.59,2.47,2.47,0,0,1-.63-1.17,2.33,2.33,0,0,1,.1-1.4,2.25,2.25,0,0,1,1.09-1.16L57,69a5,5,0,0,1,2.83-.88,2.55,2.55,0,0,1,1.79.6,2.26,2.26,0,0,1,.64,1.72V85.18h2.38a2.34,2.34,0,0,1,1.7.57A2.23,2.23,0,0,1,67,87.41a2.27,2.27,0,0,1-.59,1.67,2.31,2.31,0,0,1-1.7.58Z"/></g></g></svg>