<svg xmlns="http://www.w3.org/2000/svg" viewBox="0 0 105.29 104.84"><defs><style>.cls-1{isolation:isolate;}.cls-2{fill:#ed7d03;}.cls-3{fill:#ff8c03;}.cls-4{fill:#fcbc08;}.cls-5{fill:#f28106;opacity:0.7;}.cls-6{fill:#7c6a13;}.cls-7{fill:#937b18;}.cls-8{fill:#b86313;}.cls-11,.cls-9{fill:#cc7917;}.cls-10{fill:#9e4727;}.cls-11,.cls-12,.cls-17{opacity:0.5;}.cls-11,.cls-15,.cls-17{mix-blend-mode:multiply;}.cls-13,.cls-16{fill:#fff;}.cls-14,.cls-15{opacity:0.3;}.cls-14{mix-blend-mode:screen;}.cls-16{opacity:0.1;}</style></defs><title>orange19</title><g class="cls-1"><g id="Layer_1" data-name="Layer 1"><path class="cls-2" d="M79.12,46.13c-4.72-1.6-9.71-5.65-10.85-10.74H24.05V65.6H81.36V46.74C80.6,46.57,79.85,46.37,79.12,46.13Z"/><path class="cls-3" d="M66.58,12.22c3,2.19,6.91,9.14,2.29,14.85s-11.38,6-16.47,2.7A11.48,11.48,0,0,1,51,11.63C56.12,6.74,62.07,8.9,66.58,12.22Z"/><path class="cls-4" d="M54.09,11.4h0Z"/><path class="cls-4" d="M54.78,12.12c.35-.17.74-.53.41-.84s-.78,0-1.09.12C53.67,11.8,53.85,12.58,54.78,12.12Z"/><path class="cls-4" d="M54.1,11.4l.54-.21A.83.83,0,0,0,54.1,11.4Z"/><path class="cls-4" d="M53.15,12.93c.13-.1.31-.3.13-.44a.22.22,0,0,0-.33.07.44.44,0,0,0-.22.29C52.7,13.14,53,13,53.15,12.93Z"/><path class="cls-4" d="M55.43,12.75a.3.3,0,0,0-.33,0c-.15,0-.35.08-.38.21a.25.25,0,0,0,0,.08l0,0,0,0c0,.15.38,0,.5,0S55.7,12.89,55.43,12.75Z"/><path class="cls-4" d="M54.67,13.08h0Z"/><path class="cls-4" d="M56.17,12c-.15,0-.32.21-.24.36s.44.09.57,0C57,12.06,56.35,11.85,56.17,12Z"/><path class="cls-4" d="M56.79,11c-.1,0-.29-.06-.37,0a.14.14,0,0,0,0,.17c0,.11.18.2.25.24s.91.32,1,.06S57,11.06,56.79,11Z"/><path class="cls-4" d="M56,10.52c.16.08.72.06.77-.16s-.3-.28-.45-.26a.61.61,0,0,0-.24.14C55.89,10.31,55.78,10.42,56,10.52Z"/><path class="cls-4" d="M53.25,11.84c.29-.21,0-.33-.22-.29h0c-.13,0-.46.14-.37.32S53.13,11.93,53.25,11.84Z"/><path class="cls-4" d="M52,13.23c.11-.13.44-.67.06-.69a.23.23,0,0,0-.2.1,1.15,1.15,0,0,0-.39.53C51.36,13.67,51.84,13.44,52,13.23Z"/><path class="cls-4" d="M54.08,13.38a.77.77,0,0,0-.51,0,1,1,0,0,0-.66.52c-.13.51.78.14,1,.07S54.5,13.54,54.08,13.38Z"/><path class="cls-4" d="M55.6,13.79c-.14.05-.3.17-.3.29s.53.18.67.11C56.53,13.93,55.8,13.67,55.6,13.79Z"/><path class="cls-4" d="M59.19,10.91a.23.23,0,0,0-.25.1.68.68,0,0,0,1,0A.58.58,0,0,0,59.19,10.91Z"/><path class="cls-4" d="M57.71,12.25c.31.11,1.16.16,1.23-.28a.75.75,0,0,0-.68-.08C58,11.88,57.71,12,57.71,12.25Z"/><path class="cls-4" d="M58.32,10a.44.44,0,0,0-.62-.07.32.32,0,0,0-.15.19A.61.61,0,0,0,58.32,10Z"/><path class="cls-4" d="M60.64,11.78c-.63,0,.18.8.52.55S60.88,11.61,60.64,11.78Z"/><path class="cls-4" d="M51.7,14.37c-.19-.16-.35,0-.46.18-.43.27-.93.9-.53,1.06S51.69,14.72,51.7,14.37Z"/><path class="cls-4" d="M50.55,13.54c-.54.11-.28,1,.23.39C51.1,13.55,50.77,13.43,50.55,13.54Z"/><path class="cls-4" d="M53.62,15.19a.28.28,0,0,0-.19.25c.2.15.73.16.87-.11S53.8,14.88,53.62,15.19Z"/><path class="cls-4" d="M58.42,13.72l0-.05a.26.26,0,0,0,0,.11c0,.06,0,.1,0,.12.11.29.73.3.61-.07S58.56,13.57,58.42,13.72Z"/><path class="cls-4" d="M64,12.93c-.36-.5-1.12,0-.64.16C63.61,13.29,64.33,13.42,64,12.93Z"/><path class="cls-4" d="M51,17.72l.07-.13a.9.9,0,0,0-.4.63c.22.06.85-.36.83-.65S51.21,17.45,51,17.72Z"/><path class="cls-4" d="M56.7,16.3c.08.09.14.09.21.05.26,0,.75,0,.54-.31S56.77,16.08,56.7,16.3Z"/><path class="cls-4" d="M48.86,16a.53.53,0,0,0,0,.22c.32.11,1.14,0,.87-.51S49,15.65,48.86,16Z"/><path class="cls-4" d="M50,14.66h0c-.19,0-.32.07-.33.27a.39.39,0,0,0,.55-.22A.39.39,0,0,0,50,14.66Z"/><path class="cls-5" d="M51,26c-1.17.86,4.81,5.19,8.69,5a11.44,11.44,0,0,0,9.4-6c1-2.15.67-8.23-.61-7.81-.46.15.1,2.22-1.78,5.35-1.66,2.74-4.48,5.45-8.22,5.26C53.4,27.58,51.81,25.41,51,26Z"/><path class="cls-6" d="M63.85,10.92a.55.55,0,0,0-.48.84c.32.8,2.27,2.1,2.83,1.88s.58-.87-.23-1.5A4.83,4.83,0,0,0,63.85,10.92Z"/><path class="cls-6" d="M64.87,12s2.26-2.34,2.9-3.22a39.9,39.9,0,0,0,2.14-4.22s.2-.3.48-.25.2.47.2.47S69,8,68.37,8.89c-1.3,1.8-3,3.77-3,3.77Z"/><path class="cls-6" d="M68.81,7.58l-3.73-.47-.14.22,1.86.3,1.85.31Z"/><path class="cls-6" d="M61,11.79c-3.86,1-9.55-1.77-9.55-1.77s3.8-4.43,7.07-4.77,8.92,2.27,8.92,2.27A13.5,13.5,0,0,1,61,11.79Z"/><path class="cls-7" d="M63.89,11.16a.82.82,0,0,0-.09.79,4.16,4.16,0,0,0,1.4,1.12l.09-.71S65,12.15,65,12a.39.39,0,0,1,0-.27Z"/><path class="cls-7" d="M66.22,7.62a30.4,30.4,0,0,0-6.45.06c-3,.43-7.52,1.86-7.47,2.07s5-1.64,7.37-1.8,6.73,0,6.73,0Z"/><path class="cls-7" d="M64.71,7.73a3.28,3.28,0,0,1-.63,1.17A8.7,8.7,0,0,0,63,10.59,9.93,9.93,0,0,0,64.25,9c.36-.53.81-1.27.81-1.27Z"/><path class="cls-7" d="M61.71,7.75a5.29,5.29,0,0,1-.66,1.91c-.66,1.36-.93,1.76-.76,1.79s.65-1,1-1.74.84-2,.84-2Z"/><path class="cls-7" d="M58.79,8a3.72,3.72,0,0,1-.22,1.42c-.3,1-.66,1.57-.53,1.64s.48-.87.69-1.59.5-1.63.5-1.63Z"/><path class="cls-7" d="M55.66,8.77a2.39,2.39,0,0,1-.16.84c-.18.51-.47,1-.39,1a1.84,1.84,0,0,0,.54-.92c.13-.46.27-1,.27-1Z"/><path class="cls-7" d="M65.06,7.65a4.19,4.19,0,0,0-1.13-1.09A3.41,3.41,0,0,0,62.47,6c-.07.07.83.32,1.16.53a12.23,12.23,0,0,1,1.18,1.14Z"/><path class="cls-7" d="M62,7.56a2.91,2.91,0,0,0-.92-1.23A4.57,4.57,0,0,0,59,5.53c-.2.06,1.5.49,1.88.87a4.1,4.1,0,0,1,.69,1.2Z"/><path class="cls-7" d="M59.23,7.87a6.75,6.75,0,0,0-1.39-1.09,6.29,6.29,0,0,0-1.66-.42c-.2,0,1.28.33,1.69.62a9.06,9.06,0,0,1,1,1Z"/><path class="cls-7" d="M55.65,8.68s0-.24-.73-.5-1.06-.43-.91-.43a5.09,5.09,0,0,1,.91.24A5.81,5.81,0,0,1,56,8.6Z"/><path class="cls-3" d="M46.83,13.33c3,2.2,6.91,9.14,2.29,14.85s-11.37,6.06-16.47,2.7a11.48,11.48,0,0,1-1.42-18.14C36.37,7.85,42.32,10,46.83,13.33Z"/><path class="cls-4" d="M34.34,12.52h0Z"/><path class="cls-4" d="M35,13.24c.35-.17.74-.53.41-.85s-.77,0-1.09.12C33.92,12.91,34.1,13.69,35,13.24Z"/><path class="cls-4" d="M34.36,12.51l.53-.21A.78.78,0,0,0,34.36,12.51Z"/><path class="cls-4" d="M33.4,14c.13-.1.31-.3.14-.44a.23.23,0,0,0-.34.07A.48.48,0,0,0,33,14C33,14.25,33.26,14.14,33.4,14Z"/><path class="cls-4" d="M35.69,13.86a.35.35,0,0,0-.33,0c-.16,0-.35.08-.39.21a.11.11,0,0,0,0,.08l0,0,0,0c0,.14.38,0,.51,0S36,14,35.69,13.86Z"/><path class="cls-4" d="M34.92,14.19h0Z"/><path class="cls-4" d="M36.42,13.07c-.15,0-.32.22-.23.36s.44.09.56,0C37.25,13.18,36.61,13,36.42,13.07Z"/><path class="cls-4" d="M37.05,12.15c-.11,0-.3-.06-.38,0a.17.17,0,0,0,0,.18c0,.1.18.2.25.23s.92.32,1,.06S37.23,12.18,37.05,12.15Z"/><path class="cls-4" d="M36.22,11.63c.15.09.71.07.77-.16s-.31-.28-.45-.26a.58.58,0,0,0-.25.14C36.15,11.42,36,11.54,36.22,11.63Z"/><path class="cls-4" d="M33.5,13c.29-.22,0-.34-.22-.3h0c-.13,0-.46.14-.37.32S33.39,13,33.5,13Z"/><path class="cls-4" d="M32.28,14.34c.11-.13.44-.67.06-.69a.26.26,0,0,0-.2.1,1.06,1.06,0,0,0-.38.53C31.61,14.78,32.09,14.56,32.28,14.34Z"/><path class="cls-4" d="M34.33,14.49a.8.8,0,0,0-.5,0,1,1,0,0,0-.67.52c-.12.52.79.14,1,.08S34.75,14.65,34.33,14.49Z"/><path class="cls-4" d="M35.85,14.9c-.14,0-.3.17-.3.29s.53.18.67.11C36.78,15,36.05,14.79,35.85,14.9Z"/><path class="cls-4" d="M39.44,12a.23.23,0,0,0-.25.1.69.69,0,0,0,1,0A.57.57,0,0,0,39.44,12Z"/><path class="cls-4" d="M38,13.36c.32.11,1.17.17,1.23-.28a.75.75,0,0,0-.68-.08C38.25,13,38,13.08,38,13.36Z"/><path class="cls-4" d="M38.58,11.06A.46.46,0,0,0,38,11a.28.28,0,0,0-.15.18A.6.6,0,0,0,38.58,11.06Z"/><path class="cls-4" d="M40.89,12.89c-.63,0,.18.81.53.55S41.14,12.73,40.89,12.89Z"/><path class="cls-4" d="M32,15.48c-.2-.15-.36,0-.47.18-.42.27-.93.91-.53,1.06S31.94,15.83,32,15.48Z"/><path class="cls-4" d="M30.8,14.66c-.54.1-.28,1,.23.39C31.35,14.66,31,14.54,30.8,14.66Z"/><path class="cls-4" d="M33.88,16.31a.27.27,0,0,0-.2.25c.2.14.74.15.87-.11S34.05,16,33.88,16.31Z"/><path class="cls-4" d="M38.67,14.83l0,0a.35.35,0,0,0,0,.11s0,.09,0,.11c.11.3.73.31.61-.06S38.81,14.69,38.67,14.83Z"/><path class="cls-4" d="M44.23,14.05c-.37-.51-1.12,0-.65.15C43.86,14.4,44.58,14.54,44.23,14.05Z"/><path class="cls-4" d="M31.28,18.83l.07-.13a.93.93,0,0,0-.4.63c.22.06.85-.36.84-.64C31.76,18.26,31.46,18.56,31.28,18.83Z"/><path class="cls-4" d="M37,17.42a.14.14,0,0,0,.21,0c.27,0,.75,0,.54-.31S37,17.2,37,17.42Z"/><path class="cls-4" d="M29.12,17.14a.46.46,0,0,0,0,.21c.32.11,1.14,0,.87-.5S29.21,16.76,29.12,17.14Z"/><path class="cls-4" d="M30.23,15.77h0a.27.27,0,0,0-.33.26.39.39,0,0,0,.55-.21A.4.4,0,0,0,30.23,15.77Z"/><path class="cls-5" d="M31.28,27.09c-1.17.86,4.81,5.2,8.69,5.05a11.47,11.47,0,0,0,9.41-6c1-2.14.66-8.23-.62-7.81-.46.16.1,2.22-1.78,5.35-1.66,2.74-4.48,5.45-8.22,5.27C33.65,28.69,32.06,26.52,31.28,27.09Z"/><path class="cls-6" d="M44.11,12a.55.55,0,0,0-.49.84c.32.8,2.27,2.1,2.83,1.88s.59-.87-.23-1.5A4.86,4.86,0,0,0,44.11,12Z"/><path class="cls-6" d="M45.12,13.1s2.26-2.34,2.9-3.22a40.43,40.43,0,0,0,2.15-4.22s.2-.3.47-.25.2.47.2.47S49.26,9.11,48.62,10c-1.29,1.8-3,3.77-3,3.77Z"/><path class="cls-6" d="M49.06,8.7c-.14,0-3.73-.47-3.73-.47l-.13.21,1.85.3,1.85.31Z"/><path class="cls-6" d="M41.29,12.9c-3.85,1-9.55-1.77-9.55-1.77s3.81-4.43,7.07-4.77,8.93,2.28,8.93,2.28A13.5,13.5,0,0,1,41.29,12.9Z"/><path class="cls-7" d="M44.14,12.27a.82.82,0,0,0-.09.79,4.16,4.16,0,0,0,1.4,1.12l.09-.71s-.3-.2-.33-.38a.41.41,0,0,1,0-.27Z"/><path class="cls-7" d="M46.48,8.73A30.51,30.51,0,0,0,40,8.79c-3,.43-7.52,1.87-7.46,2.07s4.94-1.64,7.36-1.8,6.74,0,6.74,0Z"/><path class="cls-7" d="M45,8.84A3.36,3.36,0,0,1,44.33,10a8.47,8.47,0,0,0-1.08,1.68,9.93,9.93,0,0,0,1.25-1.57c.36-.52.82-1.26.82-1.26Z"/><path class="cls-7" d="M42,8.87a5.29,5.29,0,0,1-.66,1.91c-.66,1.36-.93,1.75-.76,1.78s.66-1,1-1.74.85-2,.85-2Z"/><path class="cls-7" d="M39.05,9.14a3.65,3.65,0,0,1-.23,1.42c-.3,1-.66,1.57-.53,1.64s.49-.86.69-1.59.5-1.62.5-1.62Z"/><path class="cls-7" d="M35.91,9.88a2.13,2.13,0,0,1-.16.84c-.18.52-.47,1-.38,1a1.88,1.88,0,0,0,.53-.92l.28-1Z"/><path class="cls-7" d="M45.32,8.76a4.32,4.32,0,0,0-1.14-1.09,3.59,3.59,0,0,0-1.45-.59c-.08.07.83.33,1.15.54a12.41,12.41,0,0,1,1.18,1.13Z"/><path class="cls-7" d="M42.23,8.67a2.81,2.81,0,0,0-.92-1.23,4.7,4.7,0,0,0-2.05-.8c-.2.07,1.5.49,1.88.87a4.1,4.1,0,0,1,.69,1.2Z"/><path class="cls-7" d="M39.48,9A6.42,6.42,0,0,0,38.09,7.9a6,6,0,0,0-1.66-.43c-.19,0,1.28.33,1.69.62a8.84,8.84,0,0,1,1,1Z"/><path class="cls-7" d="M35.91,9.79s0-.24-.74-.5-1.06-.42-.91-.43a5.09,5.09,0,0,1,.91.24,5.46,5.46,0,0,1,1.07.61Z"/><path class="cls-3" d="M80.48,23.9c3,2.19,6.91,9.14,2.29,14.85s-11.37,6-16.46,2.7a11.49,11.49,0,0,1-1.43-18.14C70,18.42,76,20.59,80.48,23.9Z"/><path class="cls-4" d="M68,23.08h0Z"/><path class="cls-4" d="M68.69,23.8c.34-.16.74-.52.41-.84s-.78,0-1.09.12C67.57,23.48,67.75,24.26,68.69,23.8Z"/><path class="cls-4" d="M68,23.08l.53-.21A.82.82,0,0,0,68,23.08Z"/><path class="cls-4" d="M67.05,24.61c.14-.1.31-.3.14-.44a.22.22,0,0,0-.33.07.44.44,0,0,0-.22.29C66.61,24.82,66.92,24.71,67.05,24.61Z"/><path class="cls-4" d="M69.34,24.43a.35.35,0,0,0-.33,0c-.16,0-.35.08-.38.21a.25.25,0,0,0,0,.08l0,0,0,0c0,.15.39,0,.51,0S69.61,24.57,69.34,24.43Z"/><path class="cls-4" d="M68.58,24.76h0Z"/><path class="cls-4" d="M70.07,23.64c-.15.05-.32.22-.23.36s.44.09.56,0C70.91,23.74,70.26,23.53,70.07,23.64Z"/><path class="cls-4" d="M70.7,22.72c-.1,0-.29-.06-.37,0a.15.15,0,0,0,0,.18c0,.1.18.19.25.23s.92.32,1,.06S70.89,22.75,70.7,22.72Z"/><path class="cls-4" d="M69.87,22.2c.16.09.71.06.77-.16s-.3-.28-.45-.26a.55.55,0,0,0-.24.14C69.8,22,69.69,22.11,69.87,22.2Z"/><path class="cls-4" d="M67.15,23.53c.29-.22,0-.34-.22-.3h0c-.13,0-.46.14-.37.32S67,23.61,67.15,23.53Z"/><path class="cls-4" d="M65.93,24.91c.11-.13.44-.67.06-.69a.23.23,0,0,0-.19.1,1.08,1.08,0,0,0-.39.53C65.26,25.35,65.74,25.13,65.93,24.91Z"/><path class="cls-4" d="M68,25.06a.74.74,0,0,0-.5,0,1,1,0,0,0-.67.52c-.12.52.79.14,1,.08S68.41,25.22,68,25.06Z"/><path class="cls-4" d="M69.51,25.47c-.15.05-.3.17-.3.29s.52.18.67.11C70.44,25.61,69.71,25.36,69.51,25.47Z"/><path class="cls-4" d="M73.09,22.59a.25.25,0,0,0-.25.1.7.7,0,0,0,1,0A.58.58,0,0,0,73.09,22.59Z"/><path class="cls-4" d="M71.62,23.93c.31.11,1.16.16,1.23-.28a.75.75,0,0,0-.68-.08C71.9,23.56,71.62,23.65,71.62,23.93Z"/><path class="cls-4" d="M72.23,21.63a.44.44,0,0,0-.62-.06.28.28,0,0,0-.15.18A.59.59,0,0,0,72.23,21.63Z"/><path class="cls-4" d="M74.54,23.46c-.63,0,.18.81.53.55S74.79,23.3,74.54,23.46Z"/><path class="cls-4" d="M65.61,26.05c-.19-.15-.36,0-.47.18-.42.27-.92.91-.52,1.06S65.6,26.4,65.61,26.05Z"/><path class="cls-4" d="M64.46,25.23c-.54.1-.29,1,.23.38C65,25.23,64.68,25.11,64.46,25.23Z"/><path class="cls-4" d="M67.53,26.88a.27.27,0,0,0-.2.24c.2.15.74.16.88-.11S67.71,26.57,67.53,26.88Z"/><path class="cls-4" d="M72.32,25.4l0,0a.5.5,0,0,0,0,.12c0,.05,0,.09,0,.11.12.3.74.31.62-.07S72.47,25.26,72.32,25.4Z"/><path class="cls-4" d="M77.88,24.61c-.36-.5-1.12,0-.65.16C77.51,25,78.24,25.11,77.88,24.61Z"/><path class="cls-4" d="M64.93,29.4l.08-.13a.87.87,0,0,0-.4.63c.21.06.85-.36.83-.64C65.41,28.83,65.12,29.13,64.93,29.4Z"/><path class="cls-4" d="M70.61,28a.14.14,0,0,0,.21,0c.26,0,.74,0,.54-.31S70.68,27.76,70.61,28Z"/><path class="cls-4" d="M62.77,27.7a.41.41,0,0,0,0,.22c.32.11,1.13,0,.86-.51S62.86,27.33,62.77,27.7Z"/><path class="cls-4" d="M63.89,26.34h0a.27.27,0,0,0-.33.26.4.4,0,0,0,.56-.21A.36.36,0,0,0,63.89,26.34Z"/><path class="cls-5" d="M64.94,37.66c-1.18.86,4.8,5.2,8.69,5.05a11.47,11.47,0,0,0,9.4-6c1-2.15.67-8.23-.62-7.81-.46.15.11,2.22-1.78,5.35C79,37,76.16,39.7,72.42,39.51,67.3,39.26,65.72,37.09,64.94,37.66Z"/><path class="cls-6" d="M77.76,22.6a.55.55,0,0,0-.49.84c.33.8,2.28,2.1,2.84,1.88s.58-.87-.24-1.5A4.8,4.8,0,0,0,77.76,22.6Z"/><path class="cls-6" d="M78.77,23.67s2.26-2.34,2.91-3.22a42,42,0,0,0,2.14-4.22s.2-.3.48-.25.19.47.19.47-1.57,3.23-2.21,4.12c-1.3,1.8-3,3.77-3,3.77Z"/><path class="cls-6" d="M82.72,19.27c-.14,0-3.73-.48-3.73-.48l-.14.22,1.85.3,1.85.31Z"/><path class="cls-6" d="M74.94,23.47c-3.85,1-9.55-1.77-9.55-1.77s3.81-4.43,7.07-4.77,8.93,2.27,8.93,2.27A13.42,13.42,0,0,1,74.94,23.47Z"/><path class="cls-7" d="M77.79,22.84a.8.8,0,0,0-.08.79,4.16,4.16,0,0,0,1.4,1.12L79.2,24s-.3-.2-.33-.38a.41.41,0,0,1,0-.27Z"/><path class="cls-7" d="M80.13,19.3a30.48,30.48,0,0,0-6.46.06c-3,.43-7.52,1.87-7.46,2.07s5-1.64,7.36-1.8,6.74,0,6.74,0Z"/><path class="cls-7" d="M78.61,19.41A3.41,3.41,0,0,1,78,20.59a8.25,8.25,0,0,0-1.09,1.68,10.43,10.43,0,0,0,1.26-1.57c.35-.52.81-1.26.81-1.26Z"/><path class="cls-7" d="M75.62,19.43A5.29,5.29,0,0,1,75,21.35c-.67,1.36-.93,1.75-.77,1.78s.66-1,1-1.74.85-2,.85-2Z"/><path class="cls-7" d="M72.7,19.71a3.65,3.65,0,0,1-.23,1.42c-.3,1-.66,1.57-.52,1.64s.48-.86.68-1.59.5-1.62.5-1.62Z"/><path class="cls-7" d="M69.57,20.45a2.39,2.39,0,0,1-.16.84c-.19.52-.48,1-.39,1a1.88,1.88,0,0,0,.53-.92l.28-1Z"/><path class="cls-7" d="M79,19.33a4.38,4.38,0,0,0-1.13-1.09,3.61,3.61,0,0,0-1.46-.59c-.08.07.83.33,1.15.54a11.59,11.59,0,0,1,1.19,1.13Z"/><path class="cls-7" d="M75.89,19.24A2.91,2.91,0,0,0,75,18a4.56,4.56,0,0,0-2.06-.8c-.19.07,1.5.49,1.88.87a4.22,4.22,0,0,1,.7,1.2Z"/><path class="cls-7" d="M73.13,19.56a6.54,6.54,0,0,0-1.38-1.1A6.39,6.39,0,0,0,70.09,18c-.2,0,1.27.33,1.68.62a8.6,8.6,0,0,1,1,1Z"/><path class="cls-7" d="M69.56,20.36s0-.24-.73-.5-1.07-.42-.92-.43a4.88,4.88,0,0,1,.91.24,5.66,5.66,0,0,1,1.08.61Z"/><path class="cls-3" d="M59.92,20.66c3,2.19,6.91,9.14,2.29,14.85s-11.38,6.05-16.47,2.7a11.48,11.48,0,0,1-1.42-18.14C49.46,15.18,55.41,17.35,59.92,20.66Z"/><path class="cls-4" d="M47.43,19.84h0Z"/><path class="cls-4" d="M48.12,20.56c.35-.16.74-.52.41-.84s-.78,0-1.09.12C47,20.24,47.19,21,48.12,20.56Z"/><path class="cls-4" d="M47.44,19.84l.54-.21A.83.83,0,0,0,47.44,19.84Z"/><path class="cls-4" d="M46.49,21.37c.13-.1.31-.3.13-.44a.22.22,0,0,0-.33.07.44.44,0,0,0-.22.29C46,21.58,46.35,21.47,46.49,21.37Z"/><path class="cls-4" d="M48.77,21.19a.35.35,0,0,0-.33,0c-.15,0-.35.08-.38.21a.25.25,0,0,0,0,.08l0,0,.05,0c0,.15.38,0,.5,0S49,21.33,48.77,21.19Z"/><path class="cls-4" d="M48,21.52h0Z"/><path class="cls-4" d="M49.51,20.4c-.15.05-.32.22-.24.36s.44.09.57,0C50.34,20.5,49.69,20.29,49.51,20.4Z"/><path class="cls-4" d="M50.13,19.48c-.1,0-.29-.06-.37,0a.15.15,0,0,0,0,.18c0,.1.18.19.25.23s.91.32,1,.06S50.32,19.51,50.13,19.48Z"/><path class="cls-4" d="M49.3,19c.16.09.72.06.77-.16s-.3-.28-.45-.26a.61.61,0,0,0-.24.14C49.23,18.75,49.12,18.87,49.3,19Z"/><path class="cls-4" d="M46.59,20.29c.29-.22,0-.34-.23-.3h0c-.13,0-.46.14-.37.32S46.47,20.37,46.59,20.29Z"/><path class="cls-4" d="M45.37,21.67c.11-.13.44-.67.06-.69a.26.26,0,0,0-.2.1,1.15,1.15,0,0,0-.39.53C44.7,22.11,45.18,21.89,45.37,21.67Z"/><path class="cls-4" d="M47.42,21.82a.77.77,0,0,0-.51,0,1,1,0,0,0-.66.52c-.13.52.78.14,1,.08S47.84,22,47.42,21.82Z"/><path class="cls-4" d="M48.94,22.23c-.14.05-.3.17-.3.29s.53.18.67.11C49.87,22.37,49.14,22.12,48.94,22.23Z"/><path class="cls-4" d="M52.53,19.35a.23.23,0,0,0-.25.1.69.69,0,0,0,1,0A.57.57,0,0,0,52.53,19.35Z"/><path class="cls-4" d="M51.05,20.69c.31.11,1.16.16,1.23-.28a.75.75,0,0,0-.68-.08C51.33,20.32,51.05,20.41,51.05,20.69Z"/><path class="cls-4" d="M51.66,18.39a.44.44,0,0,0-.62-.06.28.28,0,0,0-.15.18A.59.59,0,0,0,51.66,18.39Z"/><path class="cls-4" d="M54,20.22c-.63,0,.18.81.52.55S54.22,20.06,54,20.22Z"/><path class="cls-4" d="M45,22.81c-.19-.15-.35,0-.47.18-.42.27-.92.91-.52,1.06S45,23.16,45,22.81Z"/><path class="cls-4" d="M43.89,22c-.54.1-.28,1,.23.38C44.44,22,44.11,21.87,43.89,22Z"/><path class="cls-4" d="M47,23.64a.26.26,0,0,0-.19.24c.2.15.73.16.87-.11S47.14,23.33,47,23.64Z"/><path class="cls-4" d="M51.76,22.16l0-.05a.27.27,0,0,0,0,.12c0,.05,0,.09,0,.11.11.3.73.31.61-.07S51.9,22,51.76,22.16Z"/><path class="cls-4" d="M57.31,21.37c-.36-.5-1.12,0-.64.16C57,21.73,57.67,21.87,57.31,21.37Z"/><path class="cls-4" d="M44.37,26.16l.07-.13a.9.9,0,0,0-.4.63c.22.06.85-.36.83-.64S44.55,25.89,44.37,26.16Z"/><path class="cls-4" d="M50,24.75a.14.14,0,0,0,.21,0c.26,0,.74,0,.54-.31S50.11,24.52,50,24.75Z"/><path class="cls-4" d="M42.2,24.46a.53.53,0,0,0,0,.22c.32.11,1.14,0,.87-.51S42.3,24.09,42.2,24.46Z"/><path class="cls-4" d="M43.32,23.1h0a.26.26,0,0,0-.33.26.39.39,0,0,0,.55-.21A.34.34,0,0,0,43.32,23.1Z"/><path class="cls-5" d="M44.37,34.42c-1.17.86,4.8,5.2,8.69,5a11.47,11.47,0,0,0,9.4-6c1-2.15.67-8.23-.61-7.81-.46.15.1,2.22-1.78,5.35-1.66,2.74-4.48,5.45-8.22,5.26C46.74,36,45.15,33.85,44.37,34.42Z"/><path class="cls-6" d="M57.19,19.36a.55.55,0,0,0-.48.84c.32.8,2.27,2.1,2.83,1.88s.58-.87-.23-1.5A4.83,4.83,0,0,0,57.19,19.36Z"/><path class="cls-6" d="M58.21,20.43s2.26-2.34,2.9-3.22A39.9,39.9,0,0,0,63.25,13s.2-.3.48-.25.2.47.2.47-1.58,3.23-2.22,4.12c-1.3,1.8-3,3.77-3,3.77Z"/><path class="cls-6" d="M62.15,16c-.14,0-3.73-.48-3.73-.48l-.14.22,1.86.3,1.85.31Z"/><path class="cls-6" d="M54.38,20.23c-3.86,1-9.55-1.77-9.55-1.77s3.8-4.43,7.07-4.77S60.82,16,60.82,16A13.43,13.43,0,0,1,54.38,20.23Z"/><path class="cls-7" d="M57.23,19.6a.82.82,0,0,0-.09.79,4.16,4.16,0,0,0,1.4,1.12l.09-.71s-.3-.2-.33-.38a.41.41,0,0,1,0-.27Z"/><path class="cls-7" d="M59.56,16.06a30.4,30.4,0,0,0-6.45.06c-3,.43-7.52,1.87-7.47,2.07s5-1.64,7.37-1.8,6.73,0,6.73,0Z"/><path class="cls-7" d="M58.05,16.17a3.36,3.36,0,0,1-.63,1.18A8.47,8.47,0,0,0,56.34,19a9.93,9.93,0,0,0,1.25-1.57c.35-.52.81-1.26.81-1.26Z"/><path class="cls-7" d="M55.05,16.19a5.29,5.29,0,0,1-.66,1.92c-.66,1.36-.93,1.75-.76,1.78s.65-1,1-1.74.84-2,.84-2Z"/><path class="cls-7" d="M52.13,16.47a3.72,3.72,0,0,1-.22,1.42c-.3,1-.66,1.57-.53,1.64s.48-.86.69-1.59.5-1.62.5-1.62Z"/><path class="cls-7" d="M49,17.21a2.39,2.39,0,0,1-.16.84c-.18.52-.47,1-.39,1a1.79,1.79,0,0,0,.54-.92c.13-.46.27-1,.27-1Z"/><path class="cls-7" d="M58.4,16.09A4.19,4.19,0,0,0,57.27,15a3.56,3.56,0,0,0-1.46-.59c-.07.07.83.33,1.15.54a10.61,10.61,0,0,1,1.19,1.13Z"/><path class="cls-7" d="M55.32,16a2.91,2.91,0,0,0-.92-1.23,4.57,4.57,0,0,0-2-.8c-.2.07,1.5.49,1.88.87a4.1,4.1,0,0,1,.69,1.2Z"/><path class="cls-7" d="M52.57,16.32a6.69,6.69,0,0,0-1.39-1.1,6.29,6.29,0,0,0-1.66-.42c-.2,0,1.28.33,1.69.62a9.06,9.06,0,0,1,1,1Z"/><path class="cls-7" d="M49,17.12s0-.24-.73-.5-1.06-.42-.91-.43a5.09,5.09,0,0,1,.91.24,5.81,5.81,0,0,1,1.07.61Z"/><path class="cls-3" d="M69.63,30.85c3,2.2,6.92,9.14,2.29,14.85s-11.37,6.06-16.46,2.7A11.47,11.47,0,0,1,54,30.27C59.18,25.37,65.13,27.54,69.63,30.85Z"/><path class="cls-4" d="M57.15,30h0Z"/><path class="cls-4" d="M57.84,30.76c.35-.17.74-.53.41-.85s-.78.05-1.09.12C56.73,30.43,56.91,31.21,57.84,30.76Z"/><path class="cls-4" d="M57.16,30l.54-.21A.88.88,0,0,0,57.16,30Z"/><path class="cls-4" d="M56.21,31.56c.13-.09.31-.3.13-.44s-.25,0-.33.08a.41.41,0,0,0-.22.28C55.76,31.78,56.07,31.66,56.21,31.56Z"/><path class="cls-4" d="M58.49,31.38a.35.35,0,0,0-.33,0c-.15,0-.35.09-.38.21a.28.28,0,0,0,0,.08l0,0,0,0c0,.14.39,0,.51,0S58.76,31.53,58.49,31.38Z"/><path class="cls-4" d="M57.73,31.72h0Z"/><path class="cls-4" d="M59.23,30.6c-.15,0-.32.21-.24.36s.44.09.57,0C60.06,30.7,59.41,30.49,59.23,30.6Z"/><path class="cls-4" d="M59.85,29.67c-.1,0-.29-.06-.37,0a.15.15,0,0,0,0,.18c0,.1.18.2.25.23s.91.33,1,.07S60,29.7,59.85,29.67Z"/><path class="cls-4" d="M59,29.15c.16.09.72.07.77-.16s-.3-.27-.45-.26a.77.77,0,0,0-.24.14C59,28.94,58.84,29.06,59,29.15Z"/><path class="cls-4" d="M56.31,30.48c.29-.22,0-.34-.23-.29h0c-.13,0-.46.15-.37.33S56.19,30.56,56.31,30.48Z"/><path class="cls-4" d="M55.09,31.86c.11-.12.44-.67.06-.69a.3.3,0,0,0-.2.1,1.15,1.15,0,0,0-.39.53C54.42,32.31,54.9,32.08,55.09,31.86Z"/><path class="cls-4" d="M57.14,32a.78.78,0,0,0-.51.05,1,1,0,0,0-.66.51c-.13.52.78.15,1,.08S57.56,32.17,57.14,32Z"/><path class="cls-4" d="M58.66,32.42c-.14,0-.3.17-.3.29s.52.18.67.11C59.59,32.56,58.86,32.31,58.66,32.42Z"/><path class="cls-4" d="M62.25,29.54a.25.25,0,0,0-.25.1.68.68,0,0,0,1,0A.57.57,0,0,0,62.25,29.54Z"/><path class="cls-4" d="M60.77,30.88c.31.11,1.16.17,1.23-.27a.7.7,0,0,0-.68-.08C61.05,30.51,60.77,30.6,60.77,30.88Z"/><path class="cls-4" d="M61.38,28.58a.44.44,0,0,0-.62-.06.3.3,0,0,0-.15.18A.59.59,0,0,0,61.38,28.58Z"/><path class="cls-4" d="M63.69,30.41c-.62,0,.19.81.53.55S63.94,30.25,63.69,30.41Z"/><path class="cls-4" d="M54.76,33c-.19-.15-.35,0-.47.18-.42.27-.92.91-.52,1.06S54.75,33.35,54.76,33Z"/><path class="cls-4" d="M53.61,32.18c-.54.1-.28,1,.23.39C54.16,32.19,53.83,32.06,53.61,32.18Z"/><path class="cls-4" d="M56.68,33.83a.3.3,0,0,0-.2.25c.21.14.74.15.88-.11S56.86,33.52,56.68,33.83Z"/><path class="cls-4" d="M61.48,32.35l0,0a.23.23,0,0,0,0,.11s0,.1,0,.11c.11.3.73.31.61-.06S61.62,32.21,61.48,32.35Z"/><path class="cls-4" d="M67,31.57c-.36-.5-1.12,0-.64.16C66.67,31.93,67.39,32.06,67,31.57Z"/><path class="cls-4" d="M54.09,36.36l.07-.14a.92.92,0,0,0-.4.64c.22,0,.85-.37.83-.65S54.27,36.08,54.09,36.36Z"/><path class="cls-4" d="M59.76,34.94A.16.16,0,0,0,60,35c.26,0,.74,0,.54-.32S59.83,34.72,59.76,34.94Z"/><path class="cls-4" d="M51.92,34.66a.51.51,0,0,0,0,.22c.32.11,1.14,0,.87-.51S52,34.28,51.92,34.66Z"/><path class="cls-4" d="M53,33.3h0a.26.26,0,0,0-.33.26.39.39,0,0,0,.55-.21A.33.33,0,0,0,53,33.3Z"/><path class="cls-5" d="M54.09,44.62c-1.17.86,4.8,5.19,8.69,5a11.45,11.45,0,0,0,9.4-6c1-2.14.67-8.23-.61-7.8-.46.15.1,2.21-1.79,5.34-1.65,2.75-4.47,5.45-8.21,5.27C56.46,46.21,54.87,44.05,54.09,44.62Z"/><path class="cls-6" d="M66.91,29.56a.54.54,0,0,0-.48.83c.32.8,2.27,2.1,2.83,1.88s.58-.87-.23-1.49A4.64,4.64,0,0,0,66.91,29.56Z"/><path class="cls-6" d="M67.93,30.63s2.26-2.34,2.9-3.22A39.83,39.83,0,0,0,73,23.18s.2-.3.48-.24.2.46.2.46-1.58,3.23-2.22,4.12c-1.3,1.81-3,3.77-3,3.77Z"/><path class="cls-6" d="M71.87,26.22c-.14,0-3.73-.47-3.73-.47L68,26l1.86.31,1.85.3Z"/><path class="cls-6" d="M64.1,30.42c-3.86,1-9.55-1.76-9.55-1.76s3.8-4.44,7.07-4.77,8.92,2.27,8.92,2.27A13.44,13.44,0,0,1,64.1,30.42Z"/><path class="cls-7" d="M67,29.79a.82.82,0,0,0-.09.79,4,4,0,0,0,1.4,1.12l.09-.7s-.3-.21-.33-.39a.41.41,0,0,1,0-.27Z"/><path class="cls-7" d="M69.28,26.25a30.4,30.4,0,0,0-6.45.06c-3,.44-7.52,1.87-7.47,2.07s5-1.64,7.37-1.8,6.73,0,6.73,0Z"/><path class="cls-7" d="M67.77,26.36a3.36,3.36,0,0,1-.63,1.18,8.47,8.47,0,0,0-1.08,1.68,10.88,10.88,0,0,0,1.25-1.56c.35-.53.81-1.27.81-1.27Z"/><path class="cls-7" d="M64.77,26.39a5.29,5.29,0,0,1-.66,1.91c-.66,1.36-.93,1.75-.76,1.79s.65-1,1-1.75.85-2,.85-2Z"/><path class="cls-7" d="M61.85,26.66a3.63,3.63,0,0,1-.23,1.42c-.29,1-.66,1.57-.52,1.64s.48-.86.68-1.59.5-1.62.5-1.62Z"/><path class="cls-7" d="M58.72,27.4a2.39,2.39,0,0,1-.16.84c-.18.52-.47,1-.39,1a1.75,1.75,0,0,0,.54-.91c.13-.47.27-1,.27-1Z"/><path class="cls-7" d="M68.12,26.28A4.25,4.25,0,0,0,67,25.2a3.48,3.48,0,0,0-1.46-.6c-.07.07.83.33,1.15.54a11.47,11.47,0,0,1,1.19,1.14Z"/><path class="cls-7" d="M65,26.19A2.85,2.85,0,0,0,64.12,25a4.45,4.45,0,0,0-2.05-.8c-.2.06,1.5.49,1.88.86a4.23,4.23,0,0,1,.69,1.21Z"/><path class="cls-7" d="M62.28,26.51a6.6,6.6,0,0,0-1.38-1.09A5.58,5.58,0,0,0,59.24,25c-.2,0,1.27.32,1.69.61a8.84,8.84,0,0,1,1,1Z"/><path class="cls-7" d="M58.71,27.32s0-.25-.73-.5-1.06-.43-.92-.43a4.61,4.61,0,0,1,.92.23,6.49,6.49,0,0,1,1.07.61Z"/><path class="cls-3" d="M18.79,20.71c-3,2.19-6.91,9.13-2.29,14.85s11.37,6,16.46,2.69a11.48,11.48,0,0,0,1.43-18.13C29.24,15.22,23.29,17.39,18.79,20.71Z"/><path class="cls-4" d="M31.28,19.89h0Z"/><path class="cls-4" d="M30.58,20.61c-.34-.17-.74-.53-.41-.85s.78,0,1.09.13C31.7,20.28,31.52,21.06,30.58,20.61Z"/><path class="cls-4" d="M31.26,19.88l-.53-.2A.85.85,0,0,1,31.26,19.88Z"/><path class="cls-4" d="M32.22,21.41c-.14-.09-.31-.29-.14-.43a.22.22,0,0,1,.33.07.44.44,0,0,1,.22.29C32.66,21.63,32.35,21.51,32.22,21.41Z"/><path class="cls-4" d="M29.93,21.23a.33.33,0,0,1,.33,0c.16,0,.35.08.38.21a.25.25,0,0,1,0,.08l0,0,0,0c0,.14-.38,0-.51,0S29.66,21.38,29.93,21.23Z"/><path class="cls-4" d="M30.69,21.57h0Z"/><path class="cls-4" d="M29.2,20.45c.15,0,.32.21.23.36s-.44.09-.56,0C28.36,20.55,29,20.34,29.2,20.45Z"/><path class="cls-4" d="M28.57,19.53c.1,0,.29-.07.37,0a.15.15,0,0,1,0,.18c0,.11-.18.2-.25.24s-.92.32-1,.06S28.38,19.55,28.57,19.53Z"/><path class="cls-4" d="M29.4,19c-.15.08-.71.06-.77-.17s.3-.27.45-.25a.47.47,0,0,1,.24.14C29.47,18.8,29.58,18.91,29.4,19Z"/><path class="cls-4" d="M32.12,20.33c-.29-.21,0-.34.22-.29h0c.13,0,.46.15.37.33S32.23,20.41,32.12,20.33Z"/><path class="cls-4" d="M33.34,21.71c-.11-.12-.44-.67-.06-.69a.26.26,0,0,1,.19.1,1.1,1.1,0,0,1,.39.54C34,22.16,33.53,21.93,33.34,21.71Z"/><path class="cls-4" d="M31.29,21.87a.74.74,0,0,1,.5,0,1,1,0,0,1,.67.51c.12.52-.79.15-1,.08S30.86,22,31.29,21.87Z"/><path class="cls-4" d="M29.76,22.28c.15,0,.3.17.3.28,0,.26-.52.18-.67.11C28.83,22.41,29.56,22.16,29.76,22.28Z"/><path class="cls-4" d="M26.18,19.39a.28.28,0,0,1,.25.11.69.69,0,0,1-1.05,0A.59.59,0,0,1,26.18,19.39Z"/><path class="cls-4" d="M27.65,20.74c-.31.1-1.16.16-1.23-.28a.75.75,0,0,1,.68-.08C27.37,20.37,27.65,20.46,27.65,20.74Z"/><path class="cls-4" d="M27,18.44a.45.45,0,0,1,.62-.07.34.34,0,0,1,.15.18A.59.59,0,0,1,27,18.44Z"/><path class="cls-4" d="M24.73,20.26c.63,0-.18.81-.53.56S24.48,20.1,24.73,20.26Z"/><path class="cls-4" d="M33.66,22.86c.19-.16.36,0,.47.18.42.26.92.9.52,1.06S33.67,23.2,33.66,22.86Z"/><path class="cls-4" d="M34.81,22c.54.11.29,1-.23.39C34.26,22,34.59,21.92,34.81,22Z"/><path class="cls-4" d="M31.74,23.68a.28.28,0,0,1,.2.25c-.2.15-.74.16-.87-.11S31.56,23.37,31.74,23.68Z"/><path class="cls-4" d="M27,22.2l0,0a.52.52,0,0,1,0,.11c0,.05,0,.1,0,.12-.12.29-.74.3-.62-.07S26.8,22.06,27,22.2Z"/><path class="cls-4" d="M21.39,21.42c.37-.5,1.12,0,.65.16C21.76,21.78,21,21.91,21.39,21.42Z"/><path class="cls-4" d="M34.34,26.21l-.08-.13a.85.85,0,0,1,.4.63c-.21.06-.85-.37-.83-.65S34.15,25.94,34.34,26.21Z"/><path class="cls-4" d="M28.66,24.79a.16.16,0,0,1-.21.05c-.26,0-.74,0-.54-.32S28.59,24.57,28.66,24.79Z"/><path class="cls-4" d="M36.5,24.51a.4.4,0,0,1,0,.22c-.32.11-1.13,0-.86-.51S36.41,24.13,36.5,24.51Z"/><path class="cls-4" d="M35.38,23.15h0a.27.27,0,0,1,.33.27.41.41,0,0,1-.56-.22A.41.41,0,0,1,35.38,23.15Z"/><path class="cls-5" d="M34.33,34.47c1.18.86-4.8,5.19-8.69,5a11.43,11.43,0,0,1-9.4-6c-1-2.14-.67-8.23.62-7.8.46.15-.11,2.21,1.78,5.34,1.65,2.75,4.47,5.46,8.21,5.27C32,36.07,33.55,33.9,34.33,34.47Z"/><path class="cls-6" d="M21.51,19.41a.55.55,0,0,1,.49.84c-.33.79-2.27,2.09-2.83,1.88s-.59-.87.23-1.5A4.71,4.71,0,0,1,21.51,19.41Z"/><path class="cls-6" d="M20.5,20.48s-2.26-2.34-2.91-3.22A41.89,41.89,0,0,1,15.45,13a.55.55,0,0,0-.48-.24c-.27.05-.19.47-.19.47s1.57,3.22,2.21,4.11c1.3,1.81,3,3.78,3,3.78Z"/><path class="cls-6" d="M16.55,16.07l3.73-.47.14.21-1.85.31-1.85.3Z"/><path class="cls-6" d="M24.33,20.28c3.85,1,9.55-1.77,9.55-1.77s-3.81-4.44-7.07-4.77S17.88,16,17.88,16A13.5,13.5,0,0,0,24.33,20.28Z"/><path class="cls-7" d="M21.48,19.65a.8.8,0,0,1,.08.79,4,4,0,0,1-1.4,1.11l-.09-.7s.3-.21.33-.38a.39.39,0,0,0,0-.27Z"/><path class="cls-7" d="M19.14,16.11a29.75,29.75,0,0,1,6.46.06c3,.43,7.52,1.86,7.46,2.06s-5-1.63-7.36-1.8-6.74,0-6.74,0Z"/><path class="cls-7" d="M20.66,16.22a3.34,3.34,0,0,0,.62,1.17,8.89,8.89,0,0,1,1.09,1.68,10.21,10.21,0,0,1-1.26-1.56c-.35-.53-.81-1.27-.81-1.27Z"/><path class="cls-7" d="M23.65,16.24a5.29,5.29,0,0,0,.66,1.91c.67,1.36.93,1.76.77,1.79s-.66-1-1-1.74-.85-2-.85-2Z"/><path class="cls-7" d="M26.57,16.51a3.63,3.63,0,0,0,.23,1.42c.3,1,.66,1.58.52,1.65s-.48-.87-.68-1.59-.5-1.63-.5-1.63Z"/><path class="cls-7" d="M29.7,17.25a2.36,2.36,0,0,0,.16.84c.19.52.48,1,.39,1a1.83,1.83,0,0,1-.53-.91l-.28-1Z"/><path class="cls-7" d="M20.3,16.13a4.43,4.43,0,0,1,1.13-1.08,3.53,3.53,0,0,1,1.46-.6c.08.07-.83.33-1.15.54a12.62,12.62,0,0,0-1.19,1.14Z"/><path class="cls-7" d="M23.38,16.05a2.91,2.91,0,0,1,.92-1.23,4.44,4.44,0,0,1,2.06-.8c.19.06-1.5.49-1.88.86a4.36,4.36,0,0,0-.7,1.21Z"/><path class="cls-7" d="M26.14,16.36a6.6,6.6,0,0,1,1.38-1.09,5.66,5.66,0,0,1,1.66-.42c.2,0-1.27.33-1.68.62a8.6,8.6,0,0,0-1.05,1Z"/><path class="cls-7" d="M29.71,17.17s.05-.25.73-.5,1.07-.43.92-.43a4.16,4.16,0,0,0-.91.24,5.82,5.82,0,0,0-1.08.6Z"/><path class="cls-3" d="M13,33.54c-3,2.19-6.91,9.14-2.29,14.85s11.37,6,16.46,2.69A11.48,11.48,0,0,0,28.63,33C23.49,28.05,17.53,30.22,13,33.54Z"/><path class="cls-4" d="M25.52,32.72h0Z"/><path class="cls-4" d="M24.82,33.44c-.34-.17-.74-.53-.41-.84s.78,0,1.1.12C25.94,33.12,25.76,33.9,24.82,33.44Z"/><path class="cls-4" d="M25.5,32.71l-.53-.2A.85.85,0,0,1,25.5,32.71Z"/><path class="cls-4" d="M26.46,34.24c-.13-.09-.31-.29-.14-.43a.23.23,0,0,1,.34.07.46.46,0,0,1,.21.29C26.9,34.46,26.59,34.34,26.46,34.24Z"/><path class="cls-4" d="M24.17,34.06a.33.33,0,0,1,.33,0c.16,0,.35.08.39.21s0,.06,0,.08l.05,0-.05,0c0,.15-.38,0-.51,0S23.9,34.21,24.17,34.06Z"/><path class="cls-4" d="M24.94,34.4h0Z"/><path class="cls-4" d="M23.44,33.28c.15,0,.32.21.23.36s-.44.09-.56,0C22.6,33.38,23.25,33.17,23.44,33.28Z"/><path class="cls-4" d="M22.81,32.36c.1,0,.29-.07.37,0a.14.14,0,0,1,0,.17c0,.11-.18.2-.25.24s-.92.32-1,.06S22.62,32.38,22.81,32.36Z"/><path class="cls-4" d="M23.64,31.84c-.15.08-.71.06-.77-.16s.3-.28.45-.26a.55.55,0,0,1,.24.14C23.71,31.63,23.82,31.74,23.64,31.84Z"/><path class="cls-4" d="M26.36,33.16c-.29-.21,0-.33.22-.29h0c.13,0,.46.15.38.33S26.47,33.25,26.36,33.16Z"/><path class="cls-4" d="M27.58,34.54c-.11-.12-.44-.66-.06-.69a.3.3,0,0,1,.2.1,1.15,1.15,0,0,1,.38.54C28.25,35,27.77,34.76,27.58,34.54Z"/><path class="cls-4" d="M25.53,34.7a.74.74,0,0,1,.5,0c.28.08.62.3.67.51.12.52-.79.15-1,.08S25.1,34.86,25.53,34.7Z"/><path class="cls-4" d="M24,35.11c.15,0,.3.17.3.29s-.52.17-.67.11C23.07,35.24,23.8,35,24,35.11Z"/><path class="cls-4" d="M20.42,32.22a.27.27,0,0,1,.25.11.69.69,0,0,1-1.05,0A.61.61,0,0,1,20.42,32.22Z"/><path class="cls-4" d="M21.89,33.57c-.31.11-1.16.16-1.23-.28a.75.75,0,0,1,.68-.08C21.61,33.2,21.89,33.29,21.89,33.57Z"/><path class="cls-4" d="M21.28,31.27a.45.45,0,0,1,.62-.07.34.34,0,0,1,.15.18A.59.59,0,0,1,21.28,31.27Z"/><path class="cls-4" d="M19,33.09c.63,0-.18.81-.53.56S18.72,32.93,19,33.09Z"/><path class="cls-4" d="M27.9,35.69c.19-.16.36,0,.47.18.42.27.92.9.52,1.06S27.91,36,27.9,35.69Z"/><path class="cls-4" d="M29.05,34.86c.54.11.29,1-.23.39C28.5,34.87,28.83,34.75,29.05,34.86Z"/><path class="cls-4" d="M26,36.51a.28.28,0,0,1,.2.25c-.2.15-.74.16-.87-.11S25.8,36.2,26,36.51Z"/><path class="cls-4" d="M21.19,35l0,0a.52.52,0,0,1,0,.11s0,.1,0,.12c-.12.29-.74.3-.62-.07S21,34.89,21.19,35Z"/><path class="cls-4" d="M15.63,34.25c.37-.5,1.12,0,.65.16C16,34.61,15.27,34.74,15.63,34.25Z"/><path class="cls-4" d="M28.58,39l-.08-.13a.85.85,0,0,1,.4.63c-.21.06-.85-.37-.83-.65S28.39,38.77,28.58,39Z"/><path class="cls-4" d="M22.9,37.62a.16.16,0,0,1-.21.05c-.26,0-.74,0-.54-.32S22.83,37.4,22.9,37.62Z"/><path class="cls-4" d="M30.74,37.34a.41.41,0,0,1,0,.22c-.32.11-1.13,0-.86-.51S30.65,37,30.74,37.34Z"/><path class="cls-4" d="M29.62,36h0a.27.27,0,0,1,.33.27.4.4,0,0,1-.56-.22A.41.41,0,0,1,29.62,36Z"/><path class="cls-5" d="M28.57,47.3c1.18.86-4.8,5.19-8.69,5a11.44,11.44,0,0,1-9.4-6c-1-2.15-.67-8.24.62-7.81.46.15-.11,2.22,1.78,5.34,1.65,2.75,4.47,5.46,8.21,5.27C26.21,48.9,27.8,46.73,28.57,47.3Z"/><path class="cls-6" d="M15.75,32.24a.55.55,0,0,1,.49.84c-.33.79-2.27,2.09-2.83,1.88s-.59-.87.23-1.5A4.76,4.76,0,0,1,15.75,32.24Z"/><path class="cls-6" d="M14.74,33.31S12.48,31,11.83,30.09a41.89,41.89,0,0,1-2.14-4.23s-.2-.29-.47-.24-.2.47-.2.47,1.57,3.23,2.21,4.11c1.3,1.81,3,3.78,3,3.78Z"/><path class="cls-6" d="M10.79,28.9l3.74-.47.13.21L12.81,29l-1.85.3Z"/><path class="cls-6" d="M18.57,33.11c3.85,1,9.55-1.77,9.55-1.77s-3.81-4.44-7.07-4.77-8.93,2.27-8.93,2.27A13.5,13.5,0,0,0,18.57,33.11Z"/><path class="cls-7" d="M15.72,32.48a.8.8,0,0,1,.08.79,4,4,0,0,1-1.4,1.11l-.09-.7s.3-.21.33-.38a.39.39,0,0,0,0-.27Z"/><path class="cls-7" d="M13.38,28.94a29.75,29.75,0,0,1,6.46.06c3,.43,7.52,1.86,7.46,2.06s-4.94-1.63-7.36-1.8-6.74,0-6.74,0Z"/><path class="cls-7" d="M14.9,29.05a3.34,3.34,0,0,0,.62,1.17,8.47,8.47,0,0,1,1.09,1.69,11,11,0,0,1-1.26-1.57c-.35-.53-.81-1.27-.81-1.27Z"/><path class="cls-7" d="M17.89,29.07A5.29,5.29,0,0,0,18.55,31c.67,1.36.93,1.76.77,1.79s-.66-1-1-1.74-.85-2-.85-2Z"/><path class="cls-7" d="M20.81,29.34A3.69,3.69,0,0,0,21,30.77c.3,1,.66,1.57.52,1.64s-.48-.87-.68-1.59-.5-1.63-.5-1.63Z"/><path class="cls-7" d="M24,30.09a2.21,2.21,0,0,0,.15.84c.19.51.48,1,.39,1A1.93,1.93,0,0,1,24,31l-.28-1Z"/><path class="cls-7" d="M14.54,29a4.38,4.38,0,0,1,1.13-1.09,3.53,3.53,0,0,1,1.46-.6c.08.07-.83.33-1.15.54A12.62,12.62,0,0,0,14.79,29Z"/><path class="cls-7" d="M17.62,28.88a2.91,2.91,0,0,1,.92-1.23,4.6,4.6,0,0,1,2.06-.8c.19.06-1.5.49-1.88.86a4.36,4.36,0,0,0-.7,1.21Z"/><path class="cls-7" d="M20.38,29.19a6.6,6.6,0,0,1,1.38-1.09,5.66,5.66,0,0,1,1.66-.42c.2,0-1.27.33-1.68.62a9.48,9.48,0,0,0-1,1Z"/><path class="cls-7" d="M24,30s.05-.24.73-.5,1.07-.43.92-.43a4.16,4.16,0,0,0-.91.24,5.61,5.61,0,0,0-1.07.6Z"/><path class="cls-3" d="M85.75,36.3c3,2.19,6.91,9.13,2.29,14.85S76.67,57.2,71.57,53.84a11.47,11.47,0,0,1-1.42-18.13C75.29,30.81,81.24,33,85.75,36.3Z"/><path class="cls-4" d="M73.26,35.48h0Z"/><path class="cls-4" d="M74,36.2c.35-.17.74-.53.42-.85s-.78,0-1.1.13C72.84,35.87,73,36.65,74,36.2Z"/><path class="cls-4" d="M73.28,35.47l.53-.2A.83.83,0,0,0,73.28,35.47Z"/><path class="cls-4" d="M72.32,37c.13-.09.31-.29.14-.43a.23.23,0,0,0-.34.07.43.43,0,0,0-.21.29C71.88,37.22,72.18,37.1,72.32,37Z"/><path class="cls-4" d="M74.61,36.82a.32.32,0,0,0-.33,0c-.16,0-.35.08-.39.21a.11.11,0,0,0,0,.08l0,0,0,0c0,.14.38,0,.51,0S74.87,37,74.61,36.82Z"/><path class="cls-4" d="M73.84,37.16h0Z"/><path class="cls-4" d="M75.34,36c-.15,0-.32.21-.23.36s.44.09.56,0C76.17,36.14,75.53,35.93,75.34,36Z"/><path class="cls-4" d="M76,35.12c-.11,0-.29-.07-.37,0a.15.15,0,0,0,0,.18c0,.11.18.2.25.24s.92.32,1,.06S76.15,35.14,76,35.12Z"/><path class="cls-4" d="M75.14,34.6c.15.08.71.06.77-.17s-.31-.27-.45-.25a.43.43,0,0,0-.24.14C75.07,34.39,75,34.5,75.14,34.6Z"/><path class="cls-4" d="M72.42,35.92c.29-.21,0-.34-.22-.29h0c-.13,0-.46.15-.37.33S72.31,36,72.42,35.92Z"/><path class="cls-4" d="M71.2,37.3c.11-.12.44-.67.06-.69a.3.3,0,0,0-.2.1,1.08,1.08,0,0,0-.38.54C70.53,37.75,71,37.52,71.2,37.3Z"/><path class="cls-4" d="M73.25,37.46a.74.74,0,0,0-.5,0c-.29.08-.62.3-.67.51-.12.52.79.15,1,.08S73.67,37.62,73.25,37.46Z"/><path class="cls-4" d="M74.77,37.86c-.14,0-.3.17-.29.29s.52.18.66.11C75.7,38,75,37.75,74.77,37.86Z"/><path class="cls-4" d="M78.36,35a.27.27,0,0,0-.25.1.69.69,0,0,0,1,0A.6.6,0,0,0,78.36,35Z"/><path class="cls-4" d="M76.88,36.32c.32.11,1.17.17,1.23-.27a.75.75,0,0,0-.68-.08C77.17,36,76.89,36.05,76.88,36.32Z"/><path class="cls-4" d="M77.5,34a.45.45,0,0,0-.63-.07.28.28,0,0,0-.14.18A.6.6,0,0,0,77.5,34Z"/><path class="cls-4" d="M79.81,35.85c-.63,0,.18.81.53.56S80.06,35.69,79.81,35.85Z"/><path class="cls-4" d="M70.88,38.45c-.2-.16-.36,0-.47.18-.42.26-.93.9-.53,1.06S70.87,38.79,70.88,38.45Z"/><path class="cls-4" d="M69.72,37.62c-.54.11-.28,1,.23.39C70.27,37.63,70,37.51,69.72,37.62Z"/><path class="cls-4" d="M72.8,39.27a.28.28,0,0,0-.2.25c.2.15.74.16.87-.11S73,39,72.8,39.27Z"/><path class="cls-4" d="M77.59,37.79l0,0a.23.23,0,0,0,0,.11s0,.1,0,.12c.11.29.73.3.61-.07S77.73,37.65,77.59,37.79Z"/><path class="cls-4" d="M83.15,37c-.37-.5-1.12,0-.65.16C82.78,37.37,83.5,37.5,83.15,37Z"/><path class="cls-4" d="M70.2,41.8l.07-.13a.91.91,0,0,0-.4.63c.22.06.85-.37.84-.65S70.38,41.53,70.2,41.8Z"/><path class="cls-4" d="M75.87,40.38a.17.17,0,0,0,.22,0c.26,0,.74,0,.53-.32S76,40.16,75.87,40.38Z"/><path class="cls-4" d="M68,40.1a.4.4,0,0,0,0,.22c.32.11,1.13,0,.86-.51S68.13,39.72,68,40.1Z"/><path class="cls-4" d="M69.15,38.74h0a.27.27,0,0,0-.33.27.4.4,0,0,0,.55-.22A.39.39,0,0,0,69.15,38.74Z"/><path class="cls-5" d="M70.21,50.06c-1.18.86,4.8,5.19,8.68,5a11.43,11.43,0,0,0,9.41-6c1-2.14.66-8.23-.62-7.8-.46.15.1,2.21-1.78,5.34-1.66,2.75-4.48,5.46-8.21,5.27C72.57,51.66,71,49.49,70.21,50.06Z"/><path class="cls-6" d="M83,35a.55.55,0,0,0-.49.83c.32.8,2.27,2.1,2.83,1.89s.59-.88-.23-1.5A4.76,4.76,0,0,0,83,35Z"/><path class="cls-6" d="M84,36.07S86.3,33.73,87,32.85a41.89,41.89,0,0,0,2.14-4.23s.2-.29.47-.24.2.47.2.47S88.18,32.07,87.54,33c-1.29,1.81-3,3.78-3,3.78Z"/><path class="cls-6" d="M88,31.66c-.14,0-3.73-.47-3.73-.47l-.13.21,1.85.31,1.85.3Z"/><path class="cls-6" d="M80.21,35.87c-3.85,1-9.55-1.77-9.55-1.77s3.81-4.44,7.07-4.77,8.93,2.27,8.93,2.27A13.5,13.5,0,0,1,80.21,35.87Z"/><path class="cls-7" d="M83.06,35.24A.81.81,0,0,0,83,36a4.09,4.09,0,0,0,1.4,1.11l.1-.7s-.31-.21-.34-.38a.39.39,0,0,1,0-.27Z"/><path class="cls-7" d="M85.4,31.69a30.11,30.11,0,0,0-6.46.07c-3,.43-7.52,1.86-7.46,2.06s4.94-1.64,7.36-1.8,6.74,0,6.74,0Z"/><path class="cls-7" d="M83.88,31.81A3.28,3.28,0,0,1,83.25,33a9.15,9.15,0,0,0-1.08,1.68,10.21,10.21,0,0,0,1.25-1.56c.36-.53.82-1.27.82-1.27Z"/><path class="cls-7" d="M80.88,31.83a5.29,5.29,0,0,1-.66,1.91c-.66,1.36-.93,1.76-.76,1.79s.66-1,1-1.75.85-2,.85-2Z"/><path class="cls-7" d="M78,32.1a3.63,3.63,0,0,1-.23,1.42c-.3,1-.66,1.58-.53,1.65s.49-.87.69-1.59.5-1.63.5-1.63Z"/><path class="cls-7" d="M74.83,32.84a2.11,2.11,0,0,1-.16.84c-.18.52-.47,1-.38,1a1.83,1.83,0,0,0,.53-.91l.28-1Z"/><path class="cls-7" d="M84.24,31.72a4.43,4.43,0,0,0-1.13-1.08,3.53,3.53,0,0,0-1.46-.6c-.08.07.83.33,1.15.54A12.23,12.23,0,0,1,84,31.72Z"/><path class="cls-7" d="M81.16,31.64a2.88,2.88,0,0,0-.93-1.23,4.45,4.45,0,0,0-2-.8c-.2.06,1.5.49,1.88.86a4.23,4.23,0,0,1,.69,1.21Z"/><path class="cls-7" d="M78.4,32A6.75,6.75,0,0,0,77,30.86a5.58,5.58,0,0,0-1.66-.42c-.19,0,1.28.33,1.69.62a9.06,9.06,0,0,1,1,1Z"/><path class="cls-7" d="M74.83,32.76s0-.25-.74-.5-1.06-.43-.91-.43a4.31,4.31,0,0,1,.91.24,5.61,5.61,0,0,1,1.07.6Z"/><path class="cls-3" d="M90.49,46.43c3,2.19,6.92,9.14,2.29,14.85s-11.37,6-16.46,2.7A11.48,11.48,0,0,1,74.9,45.84C80,41,86,43.11,90.49,46.43Z"/><path class="cls-4" d="M78,45.61h0Z"/><path class="cls-4" d="M78.7,46.33c.35-.17.74-.53.41-.84s-.78,0-1.09.12C77.59,46,77.77,46.79,78.7,46.33Z"/><path class="cls-4" d="M78,45.61l.54-.21A.83.83,0,0,0,78,45.61Z"/><path class="cls-4" d="M77.07,47.14c.13-.1.31-.3.13-.44a.22.22,0,0,0-.33.07.44.44,0,0,0-.22.29C76.62,47.35,76.93,47.24,77.07,47.14Z"/><path class="cls-4" d="M79.35,47A.3.3,0,0,0,79,47c-.15,0-.35.08-.38.21a.25.25,0,0,0,0,.08l0,0,0,0c.05.15.39,0,.51,0S79.62,47.1,79.35,47Z"/><path class="cls-4" d="M78.59,47.29h0Z"/><path class="cls-4" d="M80.09,46.17c-.15,0-.32.22-.24.36s.44.09.57,0C80.92,46.27,80.27,46.06,80.09,46.17Z"/><path class="cls-4" d="M80.71,45.25c-.1,0-.29-.06-.37,0a.14.14,0,0,0,0,.17c0,.11.18.2.25.24s.91.32,1,.06S80.9,45.28,80.71,45.25Z"/><path class="cls-4" d="M79.88,44.73c.16.08.72.06.77-.16s-.3-.28-.45-.26a.61.61,0,0,0-.24.14C79.81,44.52,79.7,44.63,79.88,44.73Z"/><path class="cls-4" d="M77.17,46.05c.29-.21,0-.33-.23-.29h0c-.13,0-.46.14-.37.32S77.05,46.14,77.17,46.05Z"/><path class="cls-4" d="M76,47.44c.11-.13.44-.67.06-.69a.23.23,0,0,0-.2.1,1.15,1.15,0,0,0-.39.53C75.28,47.88,75.76,47.65,76,47.44Z"/><path class="cls-4" d="M78,47.59a.76.76,0,0,0-.51,0,1,1,0,0,0-.66.52c-.13.51.78.14,1,.07S78.42,47.75,78,47.59Z"/><path class="cls-4" d="M79.52,48c-.14,0-.3.17-.3.29s.52.18.67.11C80.45,48.14,79.72,47.88,79.52,48Z"/><path class="cls-4" d="M83.11,45.12a.23.23,0,0,0-.25.1.69.69,0,0,0,1,0A.57.57,0,0,0,83.11,45.12Z"/><path class="cls-4" d="M81.63,46.46c.31.11,1.16.16,1.23-.28a.75.75,0,0,0-.68-.08C81.91,46.09,81.63,46.18,81.63,46.46Z"/><path class="cls-4" d="M82.24,44.16a.44.44,0,0,0-.62-.07.32.32,0,0,0-.15.19A.61.61,0,0,0,82.24,44.16Z"/><path class="cls-4" d="M84.55,46c-.62,0,.19.8.53.55S84.8,45.82,84.55,46Z"/><path class="cls-4" d="M75.62,48.58c-.19-.16-.35,0-.47.18-.42.27-.92.9-.52,1.06S75.61,48.93,75.62,48.58Z"/><path class="cls-4" d="M74.47,47.75c-.54.11-.28,1,.23.39C75,47.76,74.69,47.64,74.47,47.75Z"/><path class="cls-4" d="M77.54,49.41a.28.28,0,0,0-.2.24c.21.15.74.16.88-.11S77.72,49.09,77.54,49.41Z"/><path class="cls-4" d="M82.34,47.93l0,0a.26.26,0,0,0,0,.11c0,.06,0,.1,0,.12.11.29.73.3.61-.07S82.48,47.78,82.34,47.93Z"/><path class="cls-4" d="M87.89,47.14c-.36-.5-1.12,0-.64.16C87.53,47.5,88.25,47.64,87.89,47.14Z"/><path class="cls-4" d="M75,51.93,75,51.8a.9.9,0,0,0-.4.63c.22.06.85-.36.83-.65S75.13,51.66,75,51.93Z"/><path class="cls-4" d="M80.62,50.51c.08.09.14.09.21.05.26,0,.74,0,.54-.31S80.69,50.29,80.62,50.51Z"/><path class="cls-4" d="M72.78,50.23a.53.53,0,0,0,0,.22c.32.11,1.14,0,.87-.51S72.88,49.86,72.78,50.23Z"/><path class="cls-4" d="M73.9,48.87h0c-.19,0-.32.07-.33.27a.39.39,0,1,0,.32-.26Z"/><path class="cls-5" d="M75,60.19c-1.17.86,4.8,5.2,8.69,5a11.44,11.44,0,0,0,9.4-6c1-2.15.67-8.23-.61-7.81-.46.15.1,2.22-1.79,5.35C89,59.52,86.17,62.23,82.43,62,77.32,61.79,75.73,59.62,75,60.19Z"/><path class="cls-6" d="M87.77,45.13a.55.55,0,0,0-.48.84c.32.8,2.27,2.1,2.83,1.88s.58-.87-.23-1.5A4.83,4.83,0,0,0,87.77,45.13Z"/><path class="cls-6" d="M88.79,46.2s2.26-2.34,2.9-3.22a39.9,39.9,0,0,0,2.14-4.22s.2-.3.48-.25.2.47.2.47-1.58,3.23-2.22,4.12c-1.3,1.8-3,3.77-3,3.77Z"/><path class="cls-6" d="M92.73,41.79,89,41.32l-.14.22,1.86.3,1.85.31Z"/><path class="cls-6" d="M85,46c-3.86,1-9.55-1.77-9.55-1.77s3.8-4.43,7.07-4.77,8.92,2.27,8.92,2.27A13.43,13.43,0,0,1,85,46Z"/><path class="cls-7" d="M87.81,45.37a.82.82,0,0,0-.09.79,4.16,4.16,0,0,0,1.4,1.12l.09-.71s-.3-.2-.33-.38a.39.39,0,0,1,0-.27Z"/><path class="cls-7" d="M90.14,41.83a30.4,30.4,0,0,0-6.45.06c-3,.43-7.52,1.86-7.47,2.07s5-1.64,7.37-1.8,6.73,0,6.73,0Z"/><path class="cls-7" d="M88.63,41.94A3.28,3.28,0,0,1,88,43.11a8.7,8.7,0,0,0-1.08,1.69,10.55,10.55,0,0,0,1.25-1.57C88.52,42.7,89,42,89,42Z"/><path class="cls-7" d="M85.63,42A5.29,5.29,0,0,1,85,43.88c-.66,1.36-.93,1.75-.76,1.78s.65-1,1-1.74.85-2,.85-2Z"/><path class="cls-7" d="M82.71,42.24a3.65,3.65,0,0,1-.23,1.42c-.29,1-.66,1.57-.52,1.64s.48-.87.68-1.59.5-1.63.5-1.63Z"/><path class="cls-7" d="M79.58,43a2.39,2.39,0,0,1-.16.84c-.18.51-.47,1-.39,1a1.84,1.84,0,0,0,.54-.92c.13-.46.27-1,.27-1Z"/><path class="cls-7" d="M89,41.86a4.38,4.38,0,0,0-1.13-1.09,3.41,3.41,0,0,0-1.46-.59c-.07.07.83.32,1.15.53a11.47,11.47,0,0,1,1.19,1.14Z"/><path class="cls-7" d="M85.9,41.77A2.91,2.91,0,0,0,85,40.54a4.57,4.57,0,0,0-2-.8c-.2.06,1.5.49,1.88.87a4.1,4.1,0,0,1,.69,1.2Z"/><path class="cls-7" d="M83.14,42.08A6.6,6.6,0,0,0,81.76,41a6.29,6.29,0,0,0-1.66-.42c-.2,0,1.27.33,1.69.62a9.06,9.06,0,0,1,1,1Z"/><path class="cls-7" d="M79.57,42.89s0-.24-.73-.5S77.78,42,77.92,42a4.91,4.91,0,0,1,.92.24,5.81,5.81,0,0,1,1.07.61Z"/><path class="cls-3" d="M70.75,47c3,2.2,6.91,9.14,2.29,14.86s-11.38,6-16.47,2.69A11.47,11.47,0,0,1,55.15,46.4C60.29,41.5,66.24,43.67,70.75,47Z"/><path class="cls-4" d="M58.26,46.17h0Z"/><path class="cls-4" d="M59,46.89c.35-.17.74-.53.41-.85s-.77.05-1.09.13C57.84,46.56,58,47.34,59,46.89Z"/><path class="cls-4" d="M58.27,46.16l.54-.2A.88.88,0,0,0,58.27,46.16Z"/><path class="cls-4" d="M57.32,47.69c.13-.09.31-.29.14-.43a.23.23,0,0,0-.34.07.44.44,0,0,0-.22.29C56.88,47.91,57.18,47.79,57.32,47.69Z"/><path class="cls-4" d="M59.6,47.51a.33.33,0,0,0-.32,0c-.16,0-.35.09-.39.21a.14.14,0,0,0,0,.09l0,0,0,0c0,.14.38,0,.5,0S59.87,47.66,59.6,47.51Z"/><path class="cls-4" d="M58.84,47.85h0Z"/><path class="cls-4" d="M60.34,46.73c-.15,0-.32.21-.23.36s.44.09.56,0C61.17,46.83,60.52,46.62,60.34,46.73Z"/><path class="cls-4" d="M61,45.81c-.1,0-.29-.07-.37,0a.15.15,0,0,0,0,.18c0,.11.18.2.25.24s.92.32,1,.06S61.15,45.83,61,45.81Z"/><path class="cls-4" d="M60.13,45.29c.16.08.72.06.78-.17s-.31-.27-.45-.25a.49.49,0,0,0-.25.14C60.07,45.08,60,45.19,60.13,45.29Z"/><path class="cls-4" d="M57.42,46.61c.29-.21,0-.34-.22-.29h0c-.13,0-.46.15-.37.33S57.31,46.69,57.42,46.61Z"/><path class="cls-4" d="M56.2,48c.11-.12.44-.67.06-.69a.3.3,0,0,0-.2.1,1.08,1.08,0,0,0-.38.54C55.53,48.44,56,48.21,56.2,48Z"/><path class="cls-4" d="M58.25,48.15a.74.74,0,0,0-.5,0,1,1,0,0,0-.67.51c-.13.52.78.15,1,.08S58.67,48.3,58.25,48.15Z"/><path class="cls-4" d="M59.77,48.55c-.14.05-.3.17-.3.29s.53.18.67.11C60.7,48.69,60,48.44,59.77,48.55Z"/><path class="cls-4" d="M63.36,45.67a.25.25,0,0,0-.25.1.68.68,0,0,0,1,0A.57.57,0,0,0,63.36,45.67Z"/><path class="cls-4" d="M61.88,47c.32.11,1.17.17,1.23-.27a.72.72,0,0,0-.68-.08C62.17,46.65,61.89,46.74,61.88,47Z"/><path class="cls-4" d="M62.5,44.71a.46.46,0,0,0-.63-.06.34.34,0,0,0-.15.18A.6.6,0,0,0,62.5,44.71Z"/><path class="cls-4" d="M64.81,46.54c-.63,0,.18.81.53.56S65.06,46.38,64.81,46.54Z"/><path class="cls-4" d="M55.88,49.14c-.2-.16-.36,0-.47.17-.42.27-.93.91-.53,1.07S55.86,49.48,55.88,49.14Z"/><path class="cls-4" d="M54.72,48.31c-.54.11-.28,1,.23.39C55.27,48.32,54.94,48.2,54.72,48.31Z"/><path class="cls-4" d="M57.79,50a.29.29,0,0,0-.19.25c.2.15.74.16.87-.11S58,49.65,57.79,50Z"/><path class="cls-4" d="M62.59,48.48l0,0a.61.61,0,0,0,0,.11c0,.05,0,.1,0,.12.11.29.73.3.61-.07S62.73,48.34,62.59,48.48Z"/><path class="cls-4" d="M68.15,47.7c-.37-.5-1.12,0-.65.16C67.78,48.06,68.5,48.19,68.15,47.7Z"/><path class="cls-4" d="M55.2,52.49l.07-.14a1,1,0,0,0-.4.64c.22.06.85-.37.84-.65S55.38,52.22,55.2,52.49Z"/><path class="cls-4" d="M60.87,51.07a.16.16,0,0,0,.21,0c.27,0,.75,0,.54-.32S60.94,50.85,60.87,51.07Z"/><path class="cls-4" d="M53,50.79A.51.51,0,0,0,53,51c.32.11,1.14,0,.87-.51S53.13,50.41,53,50.79Z"/><path class="cls-4" d="M54.15,49.43h0a.27.27,0,0,0-.33.27.4.4,0,0,0,.55-.22A.33.33,0,0,0,54.15,49.43Z"/><path class="cls-5" d="M55.2,60.75c-1.17.86,4.81,5.19,8.69,5a11.39,11.39,0,0,0,9.4-6c1-2.14.67-8.23-.61-7.8-.46.15.1,2.21-1.78,5.34-1.66,2.75-4.48,5.45-8.22,5.27C57.57,62.35,56,60.18,55.2,60.75Z"/><path class="cls-6" d="M68,45.69a.55.55,0,0,0-.49.83c.32.8,2.27,2.1,2.83,1.88s.59-.87-.23-1.49A4.66,4.66,0,0,0,68,45.69Z"/><path class="cls-6" d="M69,46.76s2.26-2.34,2.9-3.22a40.36,40.36,0,0,0,2.15-4.23.52.52,0,0,1,.47-.24c.28,0,.2.47.2.47s-1.58,3.22-2.22,4.11c-1.3,1.81-3,3.78-3,3.78Z"/><path class="cls-6" d="M73,42.35c-.14,0-3.73-.47-3.73-.47l-.14.21L71,42.4l1.85.3Z"/><path class="cls-6" d="M65.21,46.56c-3.85,1-9.55-1.77-9.55-1.77s3.8-4.44,7.07-4.77,8.93,2.27,8.93,2.27A13.56,13.56,0,0,1,65.21,46.56Z"/><path class="cls-7" d="M68.06,45.93a.81.81,0,0,0-.09.79,4.09,4.09,0,0,0,1.4,1.11l.09-.7s-.3-.21-.33-.38a.39.39,0,0,1,0-.27Z"/><path class="cls-7" d="M70.4,42.38a30.11,30.11,0,0,0-6.46.07c-3,.43-7.52,1.86-7.46,2.06s4.94-1.64,7.36-1.8,6.73,0,6.73,0Z"/><path class="cls-7" d="M68.88,42.5a3.28,3.28,0,0,1-.63,1.17,9.15,9.15,0,0,0-1.08,1.68,10.21,10.21,0,0,0,1.25-1.56c.36-.53.82-1.27.82-1.27Z"/><path class="cls-7" d="M65.88,42.52a5.29,5.29,0,0,1-.66,1.91c-.66,1.36-.93,1.76-.76,1.79s.65-1,1-1.75.85-2,.85-2Z"/><path class="cls-7" d="M63,42.79a3.92,3.92,0,0,1-.23,1.42c-.3,1-.66,1.58-.53,1.64s.49-.86.69-1.58.5-1.63.5-1.63Z"/><path class="cls-7" d="M59.83,43.53a2.36,2.36,0,0,1-.16.84c-.18.52-.47,1-.39,1a1.75,1.75,0,0,0,.54-.91l.28-1Z"/><path class="cls-7" d="M69.24,42.41a4.37,4.37,0,0,0-1.14-1.08,3.51,3.51,0,0,0-1.45-.6c-.08.07.83.33,1.15.54A12.23,12.23,0,0,1,69,42.41Z"/><path class="cls-7" d="M66.15,42.33a2.81,2.81,0,0,0-.92-1.23,4.45,4.45,0,0,0-2.05-.8c-.2.06,1.5.49,1.88.86a4.23,4.23,0,0,1,.69,1.21Z"/><path class="cls-7" d="M63.4,42.64A6.75,6.75,0,0,0,62,41.55a5.58,5.58,0,0,0-1.66-.42c-.19,0,1.28.33,1.69.62a9.06,9.06,0,0,1,1,1Z"/><path class="cls-7" d="M59.83,43.45s0-.25-.74-.5-1.06-.43-.91-.43a4.31,4.31,0,0,1,.91.24,5.61,5.61,0,0,1,1.07.6Z"/><path class="cls-3" d="M51.83,29.18c3,2.2,6.92,9.14,2.29,14.86s-11.37,6.05-16.46,2.69A11.48,11.48,0,0,1,36.23,28.6C41.38,23.7,47.33,25.87,51.83,29.18Z"/><path class="cls-4" d="M39.35,28.37h0Z"/><path class="cls-4" d="M40,29.09c.35-.17.74-.53.41-.85s-.78.05-1.09.13C38.92,28.76,39.11,29.54,40,29.09Z"/><path class="cls-4" d="M39.36,28.36l.54-.21A.88.88,0,0,0,39.36,28.36Z"/><path class="cls-4" d="M38.41,29.89c.13-.09.31-.29.13-.44s-.25,0-.33.08a.43.43,0,0,0-.22.28C38,30.11,38.27,30,38.41,29.89Z"/><path class="cls-4" d="M40.69,29.71a.35.35,0,0,0-.33,0c-.15,0-.35.09-.38.21A.31.31,0,0,0,40,30l0,0,0,0c.05.14.39,0,.51,0S41,29.86,40.69,29.71Z"/><path class="cls-4" d="M39.93,30.05h0Z"/><path class="cls-4" d="M41.43,28.93c-.15,0-.32.21-.24.36s.44.09.57,0C42.26,29,41.61,28.82,41.43,28.93Z"/><path class="cls-4" d="M42.05,28c-.1,0-.29-.07-.37,0a.15.15,0,0,0,0,.18c0,.11.18.2.25.24s.91.32,1,.06S42.24,28,42.05,28Z"/><path class="cls-4" d="M41.22,27.49c.16.08.72.06.77-.17s-.3-.27-.45-.25a.57.57,0,0,0-.24.13C41.15,27.28,41,27.39,41.22,27.49Z"/><path class="cls-4" d="M38.51,28.81c.29-.22,0-.34-.23-.29h0c-.13,0-.46.15-.37.33S38.39,28.89,38.51,28.81Z"/><path class="cls-4" d="M37.29,30.19c.1-.12.44-.67.06-.69a.3.3,0,0,0-.2.1,1.12,1.12,0,0,0-.39.54C36.62,30.64,37.1,30.41,37.29,30.19Z"/><path class="cls-4" d="M39.34,30.35a.71.71,0,0,0-.51,0,1,1,0,0,0-.66.51c-.13.52.78.15,1,.08S39.76,30.5,39.34,30.35Z"/><path class="cls-4" d="M40.86,30.75c-.14.05-.3.17-.3.29s.52.18.67.11C41.79,30.89,41.06,30.64,40.86,30.75Z"/><path class="cls-4" d="M44.45,27.87a.25.25,0,0,0-.25.1.68.68,0,0,0,1,0A.57.57,0,0,0,44.45,27.87Z"/><path class="cls-4" d="M43,29.21c.31.11,1.16.17,1.23-.27a.72.72,0,0,0-.68-.08C43.25,28.84,43,28.93,43,29.21Z"/><path class="cls-4" d="M43.58,26.91a.44.44,0,0,0-.62-.06.3.3,0,0,0-.15.18A.59.59,0,0,0,43.58,26.91Z"/><path class="cls-4" d="M45.89,28.74c-.62,0,.19.81.53.55S46.14,28.58,45.89,28.74Z"/><path class="cls-4" d="M37,31.33c-.19-.15-.36,0-.47.18-.42.27-.92.91-.52,1.06S37,31.68,37,31.33Z"/><path class="cls-4" d="M35.81,30.51c-.54.11-.28,1,.23.39C36.36,30.52,36,30.39,35.81,30.51Z"/><path class="cls-4" d="M38.88,32.16a.3.3,0,0,0-.2.25c.21.14.74.16.88-.11S39.06,31.85,38.88,32.16Z"/><path class="cls-4" d="M43.68,30.68l0,0a.26.26,0,0,0,0,.11c0,.05,0,.1,0,.12.11.29.73.3.61-.07S43.82,30.54,43.68,30.68Z"/><path class="cls-4" d="M49.23,29.9c-.36-.5-1.12,0-.64.16C48.87,30.26,49.59,30.39,49.23,29.9Z"/><path class="cls-4" d="M36.28,34.69l.08-.14a.92.92,0,0,0-.4.64c.21.06.85-.37.83-.65S36.47,34.42,36.28,34.69Z"/><path class="cls-4" d="M42,33.27a.16.16,0,0,0,.21,0c.26,0,.74,0,.54-.32S42,33.05,42,33.27Z"/><path class="cls-4" d="M34.12,33a.51.51,0,0,0,0,.22c.32.11,1.14,0,.87-.51S34.22,32.61,34.12,33Z"/><path class="cls-4" d="M35.24,31.63h0c-.2,0-.32.07-.33.26a.39.39,0,0,0,.55-.21A.33.33,0,0,0,35.24,31.63Z"/><path class="cls-5" d="M36.29,43c-1.17.86,4.8,5.19,8.69,5a11.43,11.43,0,0,0,9.4-6c1-2.14.67-8.23-.62-7.8-.45.15.11,2.21-1.78,5.34-1.65,2.75-4.47,5.45-8.21,5.27C38.66,44.55,37.07,42.38,36.29,43Z"/><path class="cls-6" d="M49.11,27.89a.54.54,0,0,0-.48.83c.32.8,2.27,2.1,2.83,1.88s.58-.87-.23-1.49A4.64,4.64,0,0,0,49.11,27.89Z"/><path class="cls-6" d="M50.13,29s2.26-2.34,2.9-3.22a39.83,39.83,0,0,0,2.14-4.23.55.55,0,0,1,.48-.24c.27.05.2.47.2.47S54.27,25,53.63,25.85c-1.3,1.81-3,3.78-3,3.78Z"/><path class="cls-6" d="M54.07,24.55c-.14,0-3.73-.47-3.73-.47l-.14.21,1.86.31,1.85.3Z"/><path class="cls-6" d="M46.3,28.76c-3.86,1-9.55-1.77-9.55-1.77s3.8-4.44,7.06-4.77,8.93,2.27,8.93,2.27A13.5,13.5,0,0,1,46.3,28.76Z"/><path class="cls-7" d="M49.14,28.13a.82.82,0,0,0-.08.79A4.09,4.09,0,0,0,50.46,30l.09-.7s-.3-.21-.33-.38a.39.39,0,0,1,0-.27Z"/><path class="cls-7" d="M51.48,24.58a30.09,30.09,0,0,0-6.46.07c-3,.43-7.51,1.86-7.46,2.06s4.95-1.64,7.37-1.8,6.73,0,6.73,0Z"/><path class="cls-7" d="M50,24.69a3.36,3.36,0,0,1-.63,1.18,8.79,8.79,0,0,0-1.08,1.68A10.88,10.88,0,0,0,49.51,26c.35-.53.81-1.27.81-1.27Z"/><path class="cls-7" d="M47,24.72a5.29,5.29,0,0,1-.66,1.91c-.66,1.36-.93,1.76-.77,1.79s.66-1,1-1.75.85-2,.85-2Z"/><path class="cls-7" d="M44.05,25a3.63,3.63,0,0,1-.23,1.42c-.29,1-.66,1.58-.52,1.64s.48-.86.68-1.59.5-1.62.5-1.62Z"/><path class="cls-7" d="M40.92,25.73a2.36,2.36,0,0,1-.16.84c-.18.52-.47,1-.39,1a1.75,1.75,0,0,0,.54-.91c.13-.47.27-1,.27-1Z"/><path class="cls-7" d="M50.32,24.61a4.43,4.43,0,0,0-1.13-1.08,3.48,3.48,0,0,0-1.46-.6c-.07.07.83.33,1.15.54a11.47,11.47,0,0,1,1.19,1.14Z"/><path class="cls-7" d="M47.24,24.52a2.85,2.85,0,0,0-.92-1.22,4.44,4.44,0,0,0-2.06-.8c-.19.06,1.51.49,1.89.86a4.23,4.23,0,0,1,.69,1.21Z"/><path class="cls-7" d="M44.48,24.84a6.6,6.6,0,0,0-1.38-1.09,5.58,5.58,0,0,0-1.66-.42c-.2,0,1.27.32,1.69.62a9.06,9.06,0,0,1,1,1Z"/><path class="cls-7" d="M40.91,25.65s0-.25-.73-.5-1.06-.43-.92-.43a4,4,0,0,1,.91.24,5.82,5.82,0,0,1,1.08.6Z"/><path class="cls-3" d="M25.35,44.88c-3,2.19-6.91,9.14-2.29,14.85s11.38,6.05,16.47,2.7A11.48,11.48,0,0,0,41,44.29C35.81,39.4,29.86,41.57,25.35,44.88Z"/><path class="cls-4" d="M37.84,44.06h0Z"/><path class="cls-4" d="M37.15,44.78c-.35-.17-.74-.52-.41-.84s.77,0,1.09.12C38.26,44.46,38.08,45.24,37.15,44.78Z"/><path class="cls-4" d="M37.83,44.06l-.54-.21A.83.83,0,0,1,37.83,44.06Z"/><path class="cls-4" d="M38.78,45.59c-.13-.1-.31-.3-.13-.44a.22.22,0,0,1,.33.07.44.44,0,0,1,.22.29C39.22,45.8,38.92,45.69,38.78,45.59Z"/><path class="cls-4" d="M36.5,45.41a.31.31,0,0,1,.32,0c.16,0,.36.08.39.21a.11.11,0,0,1,0,.08l0,0,0,0c0,.15-.38,0-.5,0S36.23,45.55,36.5,45.41Z"/><path class="cls-4" d="M37.26,45.74h0Z"/><path class="cls-4" d="M35.76,44.62c.15.05.32.22.23.36s-.43.09-.56,0C34.93,44.72,35.58,44.51,35.76,44.62Z"/><path class="cls-4" d="M35.14,43.7c.1,0,.29-.06.37,0a.15.15,0,0,1,0,.18c0,.1-.18.19-.25.23s-.92.32-1,.06S35,43.73,35.14,43.7Z"/><path class="cls-4" d="M36,43.18c-.16.08-.72.06-.78-.16s.31-.28.45-.26a.58.58,0,0,1,.25.14C36,43,36.15,43.08,36,43.18Z"/><path class="cls-4" d="M38.68,44.51c-.29-.22,0-.34.22-.3h0c.13,0,.46.14.37.32S38.79,44.59,38.68,44.51Z"/><path class="cls-4" d="M39.9,45.89c-.11-.13-.44-.67-.06-.69a.23.23,0,0,1,.2.1,1.06,1.06,0,0,1,.38.53C40.57,46.33,40.09,46.1,39.9,45.89Z"/><path class="cls-4" d="M37.85,46a.74.74,0,0,1,.5,0,1,1,0,0,1,.67.52c.13.52-.78.14-1,.08S37.43,46.2,37.85,46Z"/><path class="cls-4" d="M36.33,46.45c.14,0,.3.17.3.29s-.53.18-.67.11C35.4,46.59,36.13,46.34,36.33,46.45Z"/><path class="cls-4" d="M32.74,43.57a.23.23,0,0,1,.25.1.69.69,0,0,1-1,0A.57.57,0,0,1,32.74,43.57Z"/><path class="cls-4" d="M34.22,44.91c-.32.11-1.17.16-1.23-.28a.75.75,0,0,1,.68-.08C33.93,44.54,34.21,44.63,34.22,44.91Z"/><path class="cls-4" d="M33.6,42.61a.45.45,0,0,1,.63-.06.28.28,0,0,1,.15.18A.61.61,0,0,1,33.6,42.61Z"/><path class="cls-4" d="M31.29,44.44c.63,0-.18.81-.53.55S31,44.27,31.29,44.44Z"/><path class="cls-4" d="M40.22,47c.2-.15.36,0,.47.18.42.27.93.9.53,1.06S40.24,47.38,40.22,47Z"/><path class="cls-4" d="M41.38,46.21c.54.1.28,1-.23.38C40.83,46.21,41.16,46.09,41.38,46.21Z"/><path class="cls-4" d="M38.31,47.86a.27.27,0,0,1,.19.24c-.2.15-.74.16-.87-.11S38.13,47.55,38.31,47.86Z"/><path class="cls-4" d="M33.51,46.38l0-.05a.61.61,0,0,1,0,.11c0,.06,0,.1,0,.12-.11.29-.73.3-.61-.07S33.37,46.24,33.51,46.38Z"/><path class="cls-4" d="M28,45.59c.36-.5,1.11,0,.64.16C28.32,46,27.6,46.09,28,45.59Z"/><path class="cls-4" d="M40.9,50.38l-.07-.13a.9.9,0,0,1,.4.63c-.22.06-.85-.36-.83-.65S40.72,50.11,40.9,50.38Z"/><path class="cls-4" d="M35.23,49c-.08.1-.14.09-.21,0-.27,0-.75,0-.54-.31S35.16,48.74,35.23,49Z"/><path class="cls-4" d="M43.06,48.68a.54.54,0,0,1,0,.22c-.32.11-1.14,0-.87-.51S43,48.31,43.06,48.68Z"/><path class="cls-4" d="M42,47.32h0a.26.26,0,0,1,.33.26.39.39,0,0,1-.55-.21A.34.34,0,0,1,42,47.32Z"/><path class="cls-5" d="M40.9,58.64c1.17.86-4.81,5.2-8.69,5a11.41,11.41,0,0,1-9.4-6c-1-2.15-.67-8.23.61-7.81.46.15-.1,2.22,1.78,5.35,1.66,2.74,4.48,5.45,8.22,5.26C38.53,60.24,40.12,58.07,40.9,58.64Z"/><path class="cls-6" d="M28.07,43.58a.55.55,0,0,1,.49.84c-.32.8-2.27,2.1-2.83,1.88s-.59-.87.23-1.5A4.86,4.86,0,0,1,28.07,43.58Z"/><path class="cls-6" d="M27.06,44.65s-2.26-2.34-2.9-3.22A39.9,39.9,0,0,1,22,37.21s-.2-.3-.48-.25-.2.47-.2.47,1.58,3.23,2.22,4.12c1.3,1.8,3,3.77,3,3.77Z"/><path class="cls-6" d="M23.12,40.24l3.73-.47L27,40l-1.86.3-1.85.31Z"/><path class="cls-6" d="M30.89,44.45c3.85,1,9.55-1.77,9.55-1.77s-3.8-4.43-7.07-4.77-8.93,2.27-8.93,2.27A13.49,13.49,0,0,0,30.89,44.45Z"/><path class="cls-7" d="M28,43.82a.82.82,0,0,1,.09.79,4.16,4.16,0,0,1-1.4,1.12L26.64,45s.3-.2.33-.38a.39.39,0,0,0,0-.27Z"/><path class="cls-7" d="M25.7,40.28a30.51,30.51,0,0,1,6.46.06c3,.43,7.52,1.87,7.46,2.07s-4.94-1.64-7.36-1.8-6.73,0-6.73,0Z"/><path class="cls-7" d="M27.22,40.39a3.28,3.28,0,0,0,.63,1.17,8.7,8.7,0,0,1,1.08,1.69,9.93,9.93,0,0,1-1.25-1.57c-.36-.52-.82-1.27-.82-1.27Z"/><path class="cls-7" d="M30.22,40.41a5.29,5.29,0,0,0,.66,1.92c.66,1.36.93,1.75.76,1.78s-.65-1-1-1.74-.84-2-.84-2Z"/><path class="cls-7" d="M33.14,40.69a3.72,3.72,0,0,0,.22,1.42c.3,1,.66,1.57.53,1.64s-.49-.86-.69-1.59-.5-1.62-.5-1.62Z"/><path class="cls-7" d="M36.27,41.43a2.39,2.39,0,0,0,.16.84c.18.51.47,1,.39,1a1.84,1.84,0,0,1-.54-.92l-.28-1Z"/><path class="cls-7" d="M26.87,40.31A4.19,4.19,0,0,1,28,39.22a3.44,3.44,0,0,1,1.45-.59c.08.07-.83.32-1.15.53a12.23,12.23,0,0,0-1.18,1.14Z"/><path class="cls-7" d="M30,40.22A2.91,2.91,0,0,1,30.87,39a4.57,4.57,0,0,1,2.05-.8c.2.07-1.5.49-1.88.87a4.1,4.1,0,0,0-.69,1.2Z"/><path class="cls-7" d="M32.7,40.54a6.69,6.69,0,0,1,1.39-1.1A6.29,6.29,0,0,1,35.75,39c.19,0-1.28.33-1.69.62a9.06,9.06,0,0,0-1,1Z"/><path class="cls-7" d="M36.27,41.34s0-.24.74-.5,1.06-.43.91-.43a5.09,5.09,0,0,0-.91.24,5.46,5.46,0,0,0-1.07.61Z"/><path class="cls-3" d="M54.34,47c3,2.2,6.91,9.14,2.29,14.86s-11.37,6-16.47,2.69A11.47,11.47,0,0,1,38.74,46.4C43.88,41.5,49.83,43.67,54.34,47Z"/><path class="cls-4" d="M41.85,46.17h0Z"/><path class="cls-4" d="M42.54,46.89c.35-.17.74-.53.41-.85s-.77.05-1.09.13C41.43,46.56,41.61,47.34,42.54,46.89Z"/><path class="cls-4" d="M41.86,46.16l.54-.2A.88.88,0,0,0,41.86,46.16Z"/><path class="cls-4" d="M40.91,47.69c.13-.09.31-.29.14-.43a.23.23,0,0,0-.34.07.48.48,0,0,0-.22.29C40.47,47.91,40.77,47.79,40.91,47.69Z"/><path class="cls-4" d="M43.19,47.51a.33.33,0,0,0-.32,0c-.16,0-.35.09-.39.21a.14.14,0,0,0,0,.09l0,0,0,0c0,.14.38,0,.5,0S43.46,47.66,43.19,47.51Z"/><path class="cls-4" d="M42.43,47.85h0Z"/><path class="cls-4" d="M43.93,46.73c-.15,0-.32.21-.23.36s.44.09.56,0C44.76,46.83,44.11,46.62,43.93,46.73Z"/><path class="cls-4" d="M44.56,45.81c-.11,0-.3-.07-.38,0a.15.15,0,0,0,0,.18c0,.11.18.2.25.24s.92.32,1,.06S44.74,45.83,44.56,45.81Z"/><path class="cls-4" d="M43.72,45.29c.16.08.72.06.78-.17s-.31-.27-.45-.25a.49.49,0,0,0-.25.14C43.66,45.08,43.54,45.19,43.72,45.29Z"/><path class="cls-4" d="M41,46.61c.29-.21,0-.34-.22-.29h0c-.13,0-.46.15-.37.33S40.9,46.69,41,46.61Z"/><path class="cls-4" d="M39.79,48c.11-.12.44-.67.06-.69a.3.3,0,0,0-.2.1,1.08,1.08,0,0,0-.38.54C39.12,48.44,39.6,48.21,39.79,48Z"/><path class="cls-4" d="M41.84,48.15a.74.74,0,0,0-.5,0,1,1,0,0,0-.67.51c-.13.52.78.15,1,.08S42.26,48.3,41.84,48.15Z"/><path class="cls-4" d="M43.36,48.55c-.14.05-.3.17-.3.29s.53.18.67.11C44.29,48.69,43.56,48.44,43.36,48.55Z"/><path class="cls-4" d="M47,45.67a.25.25,0,0,0-.25.1.68.68,0,0,0,1,0A.57.57,0,0,0,47,45.67Z"/><path class="cls-4" d="M45.47,47c.32.11,1.17.17,1.23-.27a.72.72,0,0,0-.68-.08C45.76,46.65,45.48,46.74,45.47,47Z"/><path class="cls-4" d="M46.09,44.71a.46.46,0,0,0-.63-.06.34.34,0,0,0-.15.18A.6.6,0,0,0,46.09,44.71Z"/><path class="cls-4" d="M48.4,46.54c-.63,0,.18.81.53.56S48.65,46.38,48.4,46.54Z"/><path class="cls-4" d="M39.47,49.14c-.2-.16-.36,0-.47.17-.42.27-.93.91-.53,1.07S39.45,49.48,39.47,49.14Z"/><path class="cls-4" d="M38.31,48.31c-.54.11-.28,1,.23.39C38.86,48.32,38.53,48.2,38.31,48.31Z"/><path class="cls-4" d="M41.38,50a.29.29,0,0,0-.19.25c.2.15.74.16.87-.11S41.56,49.65,41.38,50Z"/><path class="cls-4" d="M46.18,48.48l0,0a.61.61,0,0,0,0,.11c0,.05,0,.1,0,.12.11.29.73.3.61-.07S46.32,48.34,46.18,48.48Z"/><path class="cls-4" d="M51.74,47.7c-.37-.5-1.12,0-.65.16C51.37,48.06,52.09,48.19,51.74,47.7Z"/><path class="cls-4" d="M38.79,52.49l.07-.14a1,1,0,0,0-.4.64c.22.06.85-.37.84-.65S39,52.22,38.79,52.49Z"/><path class="cls-4" d="M44.46,51.07a.16.16,0,0,0,.21,0c.27,0,.75,0,.54-.32S44.53,50.85,44.46,51.07Z"/><path class="cls-4" d="M36.63,50.79a.51.51,0,0,0,0,.22c.32.11,1.14,0,.87-.51S36.72,50.41,36.63,50.79Z"/><path class="cls-4" d="M37.74,49.43h0a.27.27,0,0,0-.33.27.4.4,0,0,0,.55-.22A.33.33,0,0,0,37.74,49.43Z"/><path class="cls-5" d="M38.79,60.75c-1.17.86,4.81,5.19,8.69,5a11.39,11.39,0,0,0,9.4-6c1-2.14.67-8.23-.61-7.8-.46.15.1,2.21-1.78,5.34-1.66,2.75-4.48,5.45-8.22,5.27C41.16,62.35,39.57,60.18,38.79,60.75Z"/><path class="cls-6" d="M51.62,45.69a.55.55,0,0,0-.49.83c.32.8,2.27,2.1,2.83,1.88s.59-.87-.23-1.49A4.66,4.66,0,0,0,51.62,45.69Z"/><path class="cls-6" d="M52.63,46.76s2.26-2.34,2.9-3.22a40.36,40.36,0,0,0,2.15-4.23.52.52,0,0,1,.47-.24c.28,0,.2.47.2.47s-1.58,3.22-2.22,4.11c-1.3,1.81-3,3.78-3,3.78Z"/><path class="cls-6" d="M56.57,42.35c-.14,0-3.73-.47-3.73-.47l-.13.21,1.85.31,1.85.3Z"/><path class="cls-6" d="M48.8,46.56c-3.85,1-9.55-1.77-9.55-1.77s3.8-4.44,7.07-4.77,8.93,2.27,8.93,2.27A13.56,13.56,0,0,1,48.8,46.56Z"/><path class="cls-7" d="M51.65,45.93a.81.81,0,0,0-.09.79A4.09,4.09,0,0,0,53,47.83l.09-.7s-.3-.21-.33-.38a.39.39,0,0,1,0-.27Z"/><path class="cls-7" d="M54,42.38a30.11,30.11,0,0,0-6.46.07c-3,.43-7.52,1.86-7.46,2.06s4.94-1.64,7.36-1.8,6.73,0,6.73,0Z"/><path class="cls-7" d="M52.47,42.5a3.28,3.28,0,0,1-.63,1.17,9.15,9.15,0,0,0-1.08,1.68A10.21,10.21,0,0,0,52,43.79c.36-.53.82-1.27.82-1.27Z"/><path class="cls-7" d="M49.47,42.52a5.29,5.29,0,0,1-.66,1.91c-.66,1.36-.93,1.76-.76,1.79s.65-1,1-1.75.85-2,.85-2Z"/><path class="cls-7" d="M46.56,42.79a3.92,3.92,0,0,1-.23,1.42c-.3,1-.66,1.58-.53,1.64s.49-.86.69-1.58.5-1.63.5-1.63Z"/><path class="cls-7" d="M43.42,43.53a2.36,2.36,0,0,1-.16.84c-.18.52-.47,1-.39,1a1.75,1.75,0,0,0,.54-.91l.28-1Z"/><path class="cls-7" d="M52.83,42.41a4.37,4.37,0,0,0-1.14-1.08,3.51,3.51,0,0,0-1.45-.6c-.08.07.83.33,1.15.54a12.23,12.23,0,0,1,1.18,1.14Z"/><path class="cls-7" d="M49.74,42.33a2.81,2.81,0,0,0-.92-1.23,4.45,4.45,0,0,0-2-.8c-.2.06,1.5.49,1.88.86a4.23,4.23,0,0,1,.69,1.21Z"/><path class="cls-7" d="M47,42.64a6.75,6.75,0,0,0-1.39-1.09,5.58,5.58,0,0,0-1.66-.42c-.19,0,1.28.33,1.69.62a9.06,9.06,0,0,1,1,1Z"/><path class="cls-7" d="M43.42,43.45s-.05-.25-.74-.5-1.06-.43-.91-.43a4.31,4.31,0,0,1,.91.24,5.61,5.61,0,0,1,1.07.6Z"/><path class="cls-3" d="M8.12,46.63c-3,2.19-6.91,9.14-2.29,14.85s11.37,6.05,16.46,2.7A11.49,11.49,0,0,0,23.72,46C18.57,41.15,12.62,43.32,8.12,46.63Z"/><path class="cls-4" d="M20.61,45.81h0Z"/><path class="cls-4" d="M19.91,46.53c-.35-.17-.74-.52-.41-.84s.78,0,1.09.12C21,46.21,20.85,47,19.91,46.53Z"/><path class="cls-4" d="M20.59,45.81l-.53-.21A.82.82,0,0,1,20.59,45.81Z"/><path class="cls-4" d="M21.55,47.34c-.14-.1-.32-.3-.14-.44a.22.22,0,0,1,.33.07.44.44,0,0,1,.22.29C22,47.55,21.68,47.44,21.55,47.34Z"/><path class="cls-4" d="M19.26,47.16a.33.33,0,0,1,.33,0c.15,0,.35.08.38.21a.25.25,0,0,1,0,.08l0,0,0,0c0,.15-.39,0-.51,0S19,47.3,19.26,47.16Z"/><path class="cls-4" d="M20,47.49h0Z"/><path class="cls-4" d="M18.53,46.37c.15.05.32.22.23.36s-.44.09-.57,0C17.69,46.47,18.34,46.26,18.53,46.37Z"/><path class="cls-4" d="M17.9,45.45c.1,0,.29-.06.37,0a.14.14,0,0,1,0,.18c0,.1-.18.19-.25.23s-.91.32-1,.06S17.71,45.48,17.9,45.45Z"/><path class="cls-4" d="M18.73,44.93c-.16.08-.72.06-.77-.16s.3-.28.45-.26a.61.61,0,0,1,.24.14C18.8,44.72,18.91,44.83,18.73,44.93Z"/><path class="cls-4" d="M21.45,46.25c-.29-.21,0-.33.22-.29h0c.13,0,.46.14.37.32S21.56,46.34,21.45,46.25Z"/><path class="cls-4" d="M22.66,47.64c-.1-.13-.44-.67-.05-.69a.22.22,0,0,1,.19.1,1.08,1.08,0,0,1,.39.53C23.34,48.08,22.85,47.85,22.66,47.64Z"/><path class="cls-4" d="M20.62,47.79a.74.74,0,0,1,.5,0,1,1,0,0,1,.66.52c.13.52-.78.14-1,.08S20.19,48,20.62,47.79Z"/><path class="cls-4" d="M19.09,48.2c.15,0,.3.17.3.29s-.52.18-.67.11C18.16,48.34,18.89,48.09,19.09,48.2Z"/><path class="cls-4" d="M15.51,45.32a.25.25,0,0,1,.25.1.7.7,0,0,1-1,0A.58.58,0,0,1,15.51,45.32Z"/><path class="cls-4" d="M17,46.66c-.31.11-1.16.16-1.23-.28a.75.75,0,0,1,.68-.08C16.7,46.29,17,46.38,17,46.66Z"/><path class="cls-4" d="M16.37,44.36A.43.43,0,0,1,17,44.3a.28.28,0,0,1,.15.18A.6.6,0,0,1,16.37,44.36Z"/><path class="cls-4" d="M14.06,46.19c.62,0-.18.81-.53.55S13.81,46,14.06,46.19Z"/><path class="cls-4" d="M23,48.78c.19-.15.36,0,.47.18.42.27.92.9.52,1.06S23,49.13,23,48.78Z"/><path class="cls-4" d="M24.14,48c.54.11.29,1-.23.39C23.59,48,23.92,47.84,24.14,48Z"/><path class="cls-4" d="M21.07,49.61a.28.28,0,0,1,.2.24c-.2.15-.74.16-.88-.11S20.89,49.29,21.07,49.61Z"/><path class="cls-4" d="M16.28,48.13l0-.05a.52.52,0,0,1,0,.11c0,.06,0,.1,0,.12-.11.29-.73.3-.61-.07S16.13,48,16.28,48.13Z"/><path class="cls-4" d="M10.72,47.34c.36-.5,1.12,0,.64.16C11.09,47.7,10.36,47.84,10.72,47.34Z"/><path class="cls-4" d="M23.67,52.13,23.59,52a.9.9,0,0,1,.4.63c-.21.06-.85-.36-.83-.65S23.48,51.86,23.67,52.13Z"/><path class="cls-4" d="M18,50.71c-.08.1-.14.09-.21,0-.26,0-.74,0-.54-.31S17.92,50.49,18,50.71Z"/><path class="cls-4" d="M25.83,50.43a.41.41,0,0,1,0,.22c-.32.11-1.13,0-.87-.51S25.74,50.06,25.83,50.43Z"/><path class="cls-4" d="M24.71,49.07h0a.26.26,0,0,1,.33.26.4.4,0,0,1-.56-.21A.36.36,0,0,1,24.71,49.07Z"/><path class="cls-5" d="M23.66,60.39c1.17.86-4.8,5.2-8.69,5a11.44,11.44,0,0,1-9.4-6c-1-2.15-.67-8.23.62-7.81.46.15-.11,2.22,1.78,5.35,1.65,2.74,4.47,5.45,8.21,5.26C21.3,62,22.88,59.82,23.66,60.39Z"/><path class="cls-6" d="M10.84,45.33a.55.55,0,0,1,.49.84c-.33.8-2.28,2.1-2.84,1.88s-.58-.87.24-1.5A4.75,4.75,0,0,1,10.84,45.33Z"/><path class="cls-6" d="M9.82,46.4s-2.25-2.34-2.9-3.22A42,42,0,0,1,4.78,39s-.2-.3-.48-.25-.19.47-.19.47,1.57,3.23,2.21,4.12c1.3,1.8,3,3.77,3,3.77Z"/><path class="cls-6" d="M5.88,42l3.73-.47.14.22L7.9,42,6,42.35Z"/><path class="cls-6" d="M13.65,46.2c3.86,1,9.55-1.77,9.55-1.77S19.4,40,16.14,39.66s-8.93,2.27-8.93,2.27A13.43,13.43,0,0,0,13.65,46.2Z"/><path class="cls-7" d="M10.81,45.57a.8.8,0,0,1,.08.79,4.16,4.16,0,0,1-1.4,1.12l-.09-.71s.3-.2.33-.38a.39.39,0,0,0,0-.27Z"/><path class="cls-7" d="M8.47,42a30.48,30.48,0,0,1,6.46.06c3,.43,7.51,1.87,7.46,2.07s-4.95-1.64-7.36-1.8-6.74,0-6.74,0Z"/><path class="cls-7" d="M10,42.14a3.52,3.52,0,0,0,.63,1.17A8.47,8.47,0,0,1,11.7,45a10.43,10.43,0,0,1-1.26-1.57c-.35-.53-.81-1.27-.81-1.27Z"/><path class="cls-7" d="M13,42.16a5.29,5.29,0,0,0,.66,1.92c.66,1.36.93,1.75.77,1.78s-.66-1-1-1.74-.85-2-.85-2Z"/><path class="cls-7" d="M15.9,42.44a3.65,3.65,0,0,0,.23,1.42c.29,1,.66,1.57.52,1.64s-.48-.86-.68-1.59-.5-1.62-.5-1.62Z"/><path class="cls-7" d="M19,43.18a2.39,2.39,0,0,0,.16.84c.19.51.48,1,.39,1a1.92,1.92,0,0,1-.54-.92c-.13-.46-.27-1-.27-1Z"/><path class="cls-7" d="M9.63,42.06A4.38,4.38,0,0,1,10.76,41a3.46,3.46,0,0,1,1.46-.59c.07.07-.83.32-1.15.53a12.62,12.62,0,0,0-1.19,1.14Z"/><path class="cls-7" d="M12.71,42a2.91,2.91,0,0,1,.92-1.23,4.56,4.56,0,0,1,2.06-.8c.19.06-1.5.49-1.88.87a4.22,4.22,0,0,0-.7,1.2Z"/><path class="cls-7" d="M15.47,42.29a6.54,6.54,0,0,1,1.38-1.1,6.39,6.39,0,0,1,1.66-.42c.2,0-1.27.33-1.68.62a8.6,8.6,0,0,0-1,1Z"/><path class="cls-7" d="M19,43.09s.05-.24.73-.5,1.06-.43.92-.43a4.88,4.88,0,0,0-.91.24A5.66,5.66,0,0,0,18.7,43Z"/><path class="cls-8" d="M8.58,64.8c1.21,4.8,4.31,16.83,6.17,21.38,2.36,5.73,1.26,8.24,9,9,6.68.67,20.45.36,26.27.21,5.82.15,19.6.46,26.28-.21,7.78-.79,6.68-3.3,9-9,1.87-4.55,5.22-18.45,6.42-23.25Z"/><path class="cls-9" d="M94.06,60.58c-.63-2.28-4.19-1.78-5.9-1.7-.58,0-1.17,0-1.75,0-2.93.06-5.85.09-8.77.13-3.31,0-42.61.84-45.88,1L22,60.33c-2.87.1-5.73.2-8.6.28-.57,0-1.15,0-1.72,0-1.68,0-5.2-.33-5.71,1.93A2.32,2.32,0,0,0,7.72,65.4a14.82,14.82,0,0,0,3.39-.1C14.38,65.1,17.67,65,21,65l9.94-.24L41,64.5c1.23,0,7.54-.08,9.09-.11l8.48-.21,10.28-.26L79,63.7c3.34-.08,6.69-.18,10-.12a15.22,15.22,0,0,0,3.44-.06A2.37,2.37,0,0,0,94.06,60.58Z"/><path class="cls-10" d="M13.09,65.15c-.84-.13-1.05-1.36-1.12-2A4.39,4.39,0,0,1,12.43,61a0,0,0,0,0-.07,0,3.25,3.25,0,0,0-.53,2.72,4,4,0,0,0,.17.63A2.62,2.62,0,0,1,12,61a.06.06,0,0,0-.09-.07,2.88,2.88,0,0,0,.52,4.14h.06a.79.79,0,0,0,.6.25C13.19,65.33,13.18,65.16,13.09,65.15Z"/><path class="cls-10" d="M13.22,65a3.39,3.39,0,0,1-.1-4,.06.06,0,0,0-.09-.08,3.08,3.08,0,0,0-.79,2.07,2.88,2.88,0,0,0,.87,2.15C13.18,65.11,13.27,65,13.22,65Z"/><path class="cls-10" d="M23.13,65a5.29,5.29,0,0,1-.8-4.76.06.06,0,1,0-.11-.05c-.69,1.46-.73,4,.77,5A.1.1,0,0,0,23.13,65Z"/><path class="cls-10" d="M24,65a5.25,5.25,0,0,1-.77-4.67s-.06-.08-.08,0a4,4,0,0,0-.39,2.44c0,.15.06.32.09.49-.07-.15-.15-.31-.21-.47a3.71,3.71,0,0,1,.11-2.46.07.07,0,0,0-.12,0c-.63,1.38-.63,3.39.7,4.4l.05,0a1.93,1.93,0,0,0,.45.49C23.9,65.23,24.05,65.1,24,65Z"/><path class="cls-10" d="M36.33,64.51a6.78,6.78,0,0,1-.93-2.28,4.29,4.29,0,0,1,.21-1.95c0-.13.2-.35.17-.51a.07.07,0,0,0-.07-.06c-.52.1-.71,1.65-.7,2.06a3.32,3.32,0,0,0,1.22,2.83C36.28,64.63,36.37,64.58,36.33,64.51Z"/><path class="cls-10" d="M37.38,64.48c-.85-1.33-1.58-3-1-4.6,0-.08-.07-.11-.11-.05-.72,1.3-.48,4,.95,4.8C37.36,64.69,37.43,64.55,37.38,64.48Z"/><path class="cls-10" d="M51,61.4c-.09-.65,0-1.25,0-1.88,0-.09-.11-.09-.14,0a4.27,4.27,0,0,0,.55,4,.07.07,0,0,0,.11-.07A11.35,11.35,0,0,1,51,61.4Z"/><path class="cls-10" d="M50.94,64.28a8.93,8.93,0,0,1-.86-4.71c0-.1-.12-.11-.14,0a6,6,0,0,0,0,2.6,4.9,4.9,0,0,0,.79,2.25A.12.12,0,0,0,50.94,64.28Z"/><path class="cls-10" d="M50.51,64.47a9.68,9.68,0,0,1-.81-2.28,12,12,0,0,1,0-2.54.08.08,0,1,0-.15,0c-.29,1.51-.52,3.85.77,5C50.4,64.73,50.57,64.59,50.51,64.47Z"/><path class="cls-10" d="M59.51,60.57c0-.34.07-1.15-.16-1.41,0,0-.09,0-.09,0a6.74,6.74,0,0,0,.43,3.67c0,.06.13,0,.12,0C59.72,62.07,59.57,61.33,59.51,60.57Z"/><path class="cls-10" d="M60.51,61.52c0-.78.05-1.56,0-2.33a.08.08,0,0,0-.16,0A9.28,9.28,0,0,0,60.65,64c0,.06.11,0,.1,0C60.7,63.18,60.56,62.35,60.51,61.52Z"/><path class="cls-10" d="M59.92,61.32c-.06-.65,0-1.31,0-2,0-.08-.13-.07-.15,0a6.23,6.23,0,0,0,.44,4.15s.1,0,.09,0A13,13,0,0,1,59.92,61.32Z"/><path class="cls-10" d="M68.36,61.46a15.62,15.62,0,0,0,0-2.37c0-.09-.16-.1-.17,0-.13,1.51-.5,3.72.56,5a.12.12,0,0,0,.2-.12A10.29,10.29,0,0,1,68.36,61.46Z"/><path class="cls-10" d="M69.13,61.69c-.07-.84.09-1.65.08-2.48,0-.11-.15-.09-.17,0-.33,1.37-.73,3.79.43,4.91.07.07.22,0,.2-.12A12.93,12.93,0,0,1,69.13,61.69Z"/><path class="cls-10" d="M81.2,61.71c0-.87-.21-2.4-1-2.94a.06.06,0,0,0-.09.07,9.11,9.11,0,0,1,.62,2.62c.08.74-.28,1.53-.17,2.22,0,.07.1.14.17.1C81.33,63.45,81.21,62.28,81.2,61.71Z"/><path class="cls-10" d="M81.25,58.85a.1.1,0,0,0-.18.1,7,7,0,0,1,.38,4.49c0,.07.06.14.11.07A4.14,4.14,0,0,0,81.25,58.85Z"/><path class="cls-10" d="M91.55,60.55a2.78,2.78,0,0,0-.77-2c-.09-.07-.2,0-.14.14.87,1.32.61,3.21.42,4.67a.15.15,0,0,0,.29.08A7.09,7.09,0,0,0,91.55,60.55Z"/><path class="cls-10" d="M90.44,58.58a.09.09,0,0,0-.16.09A12.12,12.12,0,0,1,90.74,60a10.43,10.43,0,0,1,.12,1.48.15.15,0,0,0,.3,0A3.81,3.81,0,0,0,90.44,58.58Z"/><path class="cls-11" d="M94.06,60.58a2,2,0,0,0-.71-1.07A2.09,2.09,0,0,1,92,60.62a15.46,15.46,0,0,1-3.4.05c-3.3-.05-6.61,0-9.91.12l-10,.22-10.15.25-8.37.2c-1.53,0-7.75.09-9,.11l-10,.22-9.8.23c-3.24.08-6.49.14-9.72.34a14.94,14.94,0,0,1-3.34.1,2.05,2.05,0,0,1-1.47-1.13A2,2,0,0,0,6,62.59,2.32,2.32,0,0,0,7.72,65.4a14.82,14.82,0,0,0,3.39-.1C14.38,65.1,17.67,65,21,65l9.94-.24L41,64.5c1.23,0,7.54-.08,9.09-.11l8.48-.21,10.28-.26L79,63.7c3.34-.08,6.69-.18,10-.12a15.22,15.22,0,0,0,3.44-.06A2.37,2.37,0,0,0,94.06,60.58Z"/><path class="cls-11" d="M81.11,62.75,70.24,63l-11,.27-9.11.22c-1.67,0-8.44.1-9.77.12l-10.84.24-10.68.26c-3.52.09-7,.15-10.57.37-.57,0-1.16.11-1.75.15a2,2,0,0,0,1.25.77,14.82,14.82,0,0,0,3.39-.1C14.38,65.1,17.67,65,21,65l9.94-.24L41,64.5c1.23,0,7.54-.08,9.09-.11l8.48-.21,10.28-.26L79,63.7c3.34-.08,6.69-.18,10-.12a15.22,15.22,0,0,0,3.44-.06,2,2,0,0,0,1.22-.82c-.6,0-1.2-.07-1.78-.07C88.3,62.57,84.71,62.67,81.11,62.75Z"/><g class="cls-12"><path class="cls-13" d="M8.77,61.12a3.06,3.06,0,0,0-1.27.14.16.16,0,0,0,0,.32,4.19,4.19,0,0,0,.5,0,6.48,6.48,0,0,0,.77-.09A.17.17,0,0,0,8.77,61.12Z"/><path class="cls-13" d="M10.11,60.94a1.1,1.1,0,0,0-.54,0,.16.16,0,0,0,0,.31,1.1,1.1,0,0,0,.54,0A.16.16,0,0,0,10.11,60.94Z"/><path class="cls-13" d="M21.45,60.73a26.2,26.2,0,0,0-4.06,0,20.78,20.78,0,0,0-3.7.21.06.06,0,0,0,0,.11,18.28,18.28,0,0,0,3.47.07A35.87,35.87,0,0,0,21.44,61,.14.14,0,0,0,21.45,60.73Z"/><path class="cls-13" d="M33.56,60.54a21.18,21.18,0,0,0-4.21.05c-1.69,0-3.36,0-5,.15-.07,0-.07.12,0,.13,1.56.09,3.14.17,4.71.19a21.5,21.5,0,0,0,4.54-.18A.17.17,0,0,0,33.56,60.54Z"/><path class="cls-13" d="M48.84,60a37.69,37.69,0,0,0-5.52.06,32.49,32.49,0,0,0-5.41.3c-.08,0-.09.15,0,.15,1.72,0,3.4.1,5.12,0a46.88,46.88,0,0,0,5.81-.21A.18.18,0,0,0,48.84,60Z"/><path class="cls-13" d="M57.73,59.91a24.87,24.87,0,0,0-2.59,0c-.89,0-1.81.16-2.69.14a.07.07,0,0,0,0,.14,12.16,12.16,0,0,0,2.34.07,22.48,22.48,0,0,0,3,0A.15.15,0,0,0,57.73,59.91Z"/><path class="cls-13" d="M67.39,59.84c-1.85-.34-3.75.06-5.6,0-.07,0-.08.08,0,.1a14.53,14.53,0,0,0,2.8.14,13.89,13.89,0,0,0,2.81,0A.12.12,0,0,0,67.39,59.84Z"/><path class="cls-13" d="M78.09,59.67c-2.74-.3-5.49,0-8.24-.08-.18,0-.22.27,0,.29a23.73,23.73,0,0,0,3.77.13c1.5-.1,3,0,4.51-.15A.1.1,0,0,0,78.09,59.67Z"/><path class="cls-13" d="M80.08,59.62a1.63,1.63,0,0,0-1.15-.13c-.16,0-.18.29,0,.3a4.93,4.93,0,0,0,1.08.09C80.12,59.86,80.2,59.69,80.08,59.62Z"/><path class="cls-13" d="M89,59.18a30.18,30.18,0,0,0-6.23.16s-.05.08,0,.08a32.42,32.42,0,0,0,6.23,0A.11.11,0,0,0,89,59.18Z"/><path class="cls-13" d="M92.8,59.32a1.51,1.51,0,0,0-.93-.19c-.14,0-.13.22,0,.24.29,0,.55.14.84.16C92.82,59.53,92.91,59.39,92.8,59.32Z"/></g><path class="cls-10" d="M14,74.72a21.05,21.05,0,0,1-.83-3.09,23.13,23.13,0,0,1-.09-3c0-.12-.16-.1-.19,0a10.19,10.19,0,0,0,.8,6.22C13.73,75,14,74.91,14,74.72Z"/><path class="cls-10" d="M16.44,75.47a11.68,11.68,0,0,1-1.17-3,21.74,21.74,0,0,1-.18-3.13c0-.16-.27-.16-.29,0-.17,2.21-.18,4.53,1.35,6.32C16.27,75.77,16.53,75.64,16.44,75.47Z"/><path class="cls-10" d="M18.52,74.45a17.92,17.92,0,0,1-.84-2.6,16.78,16.78,0,0,1-.15-3,.14.14,0,0,0-.28,0,8.51,8.51,0,0,0,1,5.77C18.36,74.76,18.58,74.61,18.52,74.45Z"/><path class="cls-10" d="M18.7,89.34a17.89,17.89,0,0,1-1.26-5,.08.08,0,1,0-.15,0,10.77,10.77,0,0,0,1.21,5.07C18.57,89.57,18.76,89.46,18.7,89.34Z"/><path class="cls-10" d="M20.9,88.88a18,18,0,0,1-1-3.11,9.16,9.16,0,0,0-.46-2.34.12.12,0,0,0-.22.06c.16.87.22,1.77.37,2.65A9.71,9.71,0,0,0,20.62,89,.15.15,0,0,0,20.9,88.88Z"/><path class="cls-10" d="M23.3,89.41A17.36,17.36,0,0,1,22,83.9c0-.17-.31-.18-.32,0a11.2,11.2,0,0,0,1.24,5.66C23.06,89.77,23.4,89.64,23.3,89.41Z"/><path class="cls-10" d="M24.79,82.47a10.34,10.34,0,0,1-1.15-2.89,32.81,32.81,0,0,1-.44-3.43c0-.12-.21-.13-.22,0a10.09,10.09,0,0,0,1.53,6.48C24.62,82.78,24.88,82.63,24.79,82.47Z"/><path class="cls-10" d="M26.6,82.81a25.48,25.48,0,0,1-1-3.29c-.2-1-.26-2.1-.44-3.15a.12.12,0,0,0-.24,0c.26,2.3.37,4.41,1.46,6.5A.12.12,0,0,0,26.6,82.81Z"/><path class="cls-10" d="M28.79,81.63a29.18,29.18,0,0,1-1-4.09.11.11,0,0,0-.21,0,9.51,9.51,0,0,0,1,4.21A.15.15,0,0,0,28.79,81.63Z"/><path class="cls-10" d="M29,76.43a22.06,22.06,0,0,1-.67-2.54c-.15-1-.25-2.1-.38-3.14a.13.13,0,0,0-.26,0,15.07,15.07,0,0,0,1,5.73C28.75,76.65,29,76.6,29,76.43Z"/><path class="cls-10" d="M31.59,76.48a15.67,15.67,0,0,1-1.08-3.06A18.84,18.84,0,0,0,30,70.85a.09.09,0,0,0-.18.05c.37,2,.3,4,1.47,5.76A.18.18,0,0,0,31.59,76.48Z"/><path class="cls-10" d="M32.73,70.83a.07.07,0,0,0-.14,0,43.12,43.12,0,0,0,1,5.15c0,.14.28.08.25-.07C33.58,74.24,33.21,72.5,32.73,70.83Z"/><path class="cls-10" d="M43.1,80.25a.1.1,0,0,0-.19,0,11,11,0,0,0,.2,5.13c0,.18.36.1.32-.09A16.54,16.54,0,0,1,43.1,80.25Z"/><path class="cls-10" d="M44.85,80.47c0-.18-.32-.18-.33,0a15.61,15.61,0,0,0,.61,5.81.15.15,0,0,0,.29-.08A44,44,0,0,1,44.85,80.47Z"/><path class="cls-10" d="M48.85,85.54a22,22,0,0,1-1.15-5.68c0-.18-.27-.13-.27,0a12.79,12.79,0,0,0,1.11,5.77A.17.17,0,0,0,48.85,85.54Z"/><path class="cls-10" d="M50.24,74c0-.09-.17-.09-.17,0a26.94,26.94,0,0,0,.33,6.53.14.14,0,0,0,.28,0A64.3,64.3,0,0,1,50.24,74Z"/><path class="cls-10" d="M52.73,73.43c0-.15-.2-.17-.23,0a13.72,13.72,0,0,0-.09,6.34.14.14,0,0,0,.27,0A29.21,29.21,0,0,1,52.73,73.43Z"/><path class="cls-10" d="M55.11,76.33c-.08-1.16,0-2.33,0-3.48,0-.15-.23-.14-.25,0a13.55,13.55,0,0,0,.66,7.25A.15.15,0,0,0,55.8,80,35.76,35.76,0,0,1,55.11,76.33Z"/><path class="cls-10" d="M66.1,81c.1-1.17.39-2.34.56-3.51a.11.11,0,0,0-.22,0c-.58,2.45-1.19,4.82-.57,7.32a.2.2,0,0,0,.39-.05A17.25,17.25,0,0,1,66.1,81Z"/><path class="cls-10" d="M68.5,78.61a.14.14,0,0,0-.28,0A18.06,18.06,0,0,0,68,85.2a.15.15,0,0,0,.3,0A41,41,0,0,1,68.5,78.61Z"/><path class="cls-10" d="M71.46,80.7a26.8,26.8,0,0,0,.14-3.1c0-.13-.21-.1-.21,0,0,1.12-.29,2.26-.36,3.38a13.39,13.39,0,0,0,.15,3.35.16.16,0,0,0,.31,0C71.45,83.11,71.42,81.91,71.46,80.7Z"/><path class="cls-10" d="M81.44,77.91a16.32,16.32,0,0,0-.88,6.61.12.12,0,0,0,.24,0c.08-1.1.07-2.2.21-3.3s.54-2.18.6-3.27C81.61,77.86,81.47,77.81,81.44,77.91Z"/><path class="cls-10" d="M83.59,78.25c-.37,2.37-1,4.69-.74,7.12,0,.21.37.22.38,0a36.28,36.28,0,0,1,.2-3.76c.12-1.11.39-2.21.42-3.33A.13.13,0,0,0,83.59,78.25Z"/><path class="cls-10" d="M72.56,88.54c0-.78.16-1.56.18-2.34a.08.08,0,0,0-.15,0,6.36,6.36,0,0,0-.34,2.34,9.43,9.43,0,0,0,.23,2.75c0,.18.32.15.29,0A14,14,0,0,1,72.56,88.54Z"/><path class="cls-10" d="M74.89,86.39c0-.11-.14-.14-.19,0a8,8,0,0,0-.07,5.07.14.14,0,0,0,.27-.07A12.5,12.5,0,0,1,74.89,86.39Z"/><path class="cls-10" d="M77.39,86.46a.11.11,0,0,0-.22,0,17.2,17.2,0,0,0,.1,4.7.18.18,0,0,0,.35,0C77.44,89.57,77.59,88,77.39,86.46Z"/><path class="cls-10" d="M74.31,73.31c.07-1,.31-1.9.47-2.86a.08.08,0,0,0-.16,0c-.49,2.09-1,4.08-.29,6.2,0,.12.24.06.22-.06A13.75,13.75,0,0,1,74.31,73.31Z"/><path class="cls-10" d="M77.19,73.35c0-.88.18-1.75.18-2.64,0-.13-.23-.13-.23,0-.15,2.12-.67,4.16,0,6.26.05.19.34.1.32-.09A19.76,19.76,0,0,1,77.19,73.35Z"/><path class="cls-10" d="M80.3,70.81c0-.17-.26-.21-.27,0-.11,2.08-.76,4.14-.37,6.24A.15.15,0,0,0,80,77,60.43,60.43,0,0,1,80.3,70.81Z"/><path class="cls-10" d="M31.92,65.75a19.22,19.22,0,0,1-5.35.46c-.09,0-.1.12,0,.14A9.84,9.84,0,0,0,32,66.07C32.18,66,32.11,65.71,31.92,65.75Z"/><path class="cls-10" d="M32.72,67.6c-1.91.38-4.16,1-6.12.51-.07,0-.1.1,0,.13a6.28,6.28,0,0,0,2.66.33,9.64,9.64,0,0,0,3.57-.68C33,67.82,32.89,67.56,32.72,67.6Z"/><path class="cls-10" d="M26.3,70.58a13.61,13.61,0,0,1-5.05.1c-.07,0-.11.1,0,.13a7.29,7.29,0,0,0,5.16.09C26.55,70.82,26.49,70.54,26.3,70.58Z"/><path class="cls-10" d="M26.63,73.09a21.23,21.23,0,0,1-5.1.14c-.09,0-.13.13,0,.15a9.81,9.81,0,0,0,5.24.08C27,73.4,26.84,73.06,26.63,73.09Z"/><path class="cls-10" d="M26.45,75.31a17.74,17.74,0,0,1-4.77-.12c-.09,0-.12.12,0,.15a7.28,7.28,0,0,0,4.89.24C26.69,75.53,26.61,75.3,26.45,75.31Z"/><path class="cls-10" d="M35.28,77a23,23,0,0,1-6.13.73c-.2,0-.25.3,0,.32a14,14,0,0,0,6.27-.7A.18.18,0,0,0,35.28,77Z"/><path class="cls-10" d="M34.73,79.88a18.73,18.73,0,0,1-5.49.24.14.14,0,0,0-.07.26,9.83,9.83,0,0,0,5.66-.13A.19.19,0,0,0,34.73,79.88Z"/><path class="cls-10" d="M34.55,82.58c-1.5.31-3.34,1-4.88.68a.12.12,0,0,0-.06.22c1.48.51,3.62,0,5-.49A.22.22,0,0,0,34.55,82.58Z"/><path class="cls-10" d="M29.4,84.4c-1.88,0-3.76.34-5.64-.08-.07,0-.1.09,0,.12a9.79,9.79,0,0,0,5.67.29C29.56,84.69,29.61,84.4,29.4,84.4Z"/><path class="cls-10" d="M29.9,86.07a21.23,21.23,0,0,1-5.34.2c-.13,0-.15.17,0,.2a12.7,12.7,0,0,0,5.42,0A.21.21,0,0,0,29.9,86.07Z"/><path class="cls-10" d="M29.85,87.87a16,16,0,0,1-5.38.45c-.11,0-.16.16,0,.19a9.09,9.09,0,0,0,5.5-.36C30.08,88.1,30,87.85,29.85,87.87Z"/><path class="cls-10" d="M20.25,76.93c-2,0-4,.48-6,.23-.12,0-.14.16,0,.19a12.8,12.8,0,0,0,6.12-.15C20.49,77.16,20.39,76.93,20.25,76.93Z"/><path class="cls-10" d="M20,79.71c-1.55-.21-3.1-.18-4.65-.32a.1.1,0,0,0,0,.2A31.37,31.37,0,0,0,20,80C20.16,80,20.2,79.73,20,79.71Z"/><path class="cls-10" d="M20.37,82.08a26.63,26.63,0,0,1-4.64.12.13.13,0,0,0,0,.26,9.11,9.11,0,0,0,4.75-.13A.13.13,0,0,0,20.37,82.08Z"/><path class="cls-10" d="M47.74,75.26c-2.16.07-4.27.15-6.43,0a.08.08,0,0,0,0,.16,17.43,17.43,0,0,0,6.48,0A.13.13,0,0,0,47.74,75.26Z"/><path class="cls-10" d="M49,77.45c-1.38,0-2.76.18-4.15.23a33.56,33.56,0,0,1-3.87-.2.09.09,0,0,0,0,.18,22.39,22.39,0,0,0,8.08.08A.15.15,0,0,0,49,77.45Z"/><path class="cls-10" d="M48.2,79.36a39,39,0,0,1-7.4.14.08.08,0,0,0,0,.16,13.44,13.44,0,0,0,3.23.21,23.84,23.84,0,0,0,4.22-.31A.1.1,0,0,0,48.2,79.36Z"/><path class="cls-10" d="M55,68.18c-1,0-1.89.1-2.85.08s-1.81-.16-2.69-.26a.06.06,0,0,0,0,.12,13.08,13.08,0,0,0,5.56.36C55.11,68.44,55.13,68.18,55,68.18Z"/><path class="cls-10" d="M54.82,69.79a21.65,21.65,0,0,1-5.63-.21c-.08,0-.12.12,0,.16a11.13,11.13,0,0,0,5.7.28A.12.12,0,0,0,54.82,69.79Z"/><path class="cls-10" d="M55.3,71.26a19.61,19.61,0,0,1-7.44.26c-.09,0-.1.1,0,.12a14.09,14.09,0,0,0,7.54-.09C55.54,71.5,55.46,71.23,55.3,71.26Z"/><path class="cls-10" d="M72.87,71.5a21.92,21.92,0,0,1-4,.16,25.57,25.57,0,0,1-3.48-.6.1.1,0,0,0-.06.19,12.78,12.78,0,0,0,7.56.57A.16.16,0,0,0,72.87,71.5Z"/><path class="cls-10" d="M72.09,73.83A20.54,20.54,0,0,1,66,73.57c-.1,0-.14.15,0,.18a11.27,11.27,0,0,0,6.14.42A.17.17,0,0,0,72.09,73.83Z"/><path class="cls-10" d="M73.16,75.89a15.33,15.33,0,0,1-7.67.36c-.18,0-.2.23,0,.27a12.2,12.2,0,0,0,7.85-.31C73.5,76.12,73.37,75.83,73.16,75.89Z"/><path class="cls-10" d="M87.5,70.63a38.5,38.5,0,0,1-5.26-.21c-.12,0-.14.16,0,.19A19.06,19.06,0,0,0,87.5,71C87.7,71,87.7,70.63,87.5,70.63Z"/><path class="cls-10" d="M86.34,72.72a14.52,14.52,0,0,1-4,.07.11.11,0,0,0,0,.22,9.9,9.9,0,0,0,4,0A.16.16,0,0,0,86.34,72.72Z"/><path class="cls-10" d="M85.86,75.46a10.55,10.55,0,0,1-4.43.33c-.11,0-.16.15-.05.19a6.3,6.3,0,0,0,4.56-.21C86.1,75.7,86,75.43,85.86,75.46Z"/><path class="cls-10" d="M79.05,77.92a23.7,23.7,0,0,1-5.19,0c-.1,0-.15.15,0,.18a9.16,9.16,0,0,0,2.45.26,15.73,15.73,0,0,0,2.83-.1A.18.18,0,0,0,79.05,77.92Z"/><path class="cls-10" d="M78.58,81a31.44,31.44,0,0,1-5.57-.5c-.15,0-.21.21-.07.25a17,17,0,0,0,5.64.6C78.78,81.38,78.78,81,78.58,81Z"/><path class="cls-10" d="M78.43,84.13A16.85,16.85,0,0,1,73,83.75a.13.13,0,0,0-.07.25,11.67,11.67,0,0,0,5.56.49A.18.18,0,0,0,78.43,84.13Z"/><g class="cls-14"><path class="cls-8" d="M54.67,68.63c.25,0,.5.37.24.58a3.7,3.7,0,0,1-2.15.49,7.84,7.84,0,0,1-2.84-.46.3.3,0,0,1-.14-.1c-.34-.13-.16-.69.24-.63a16.43,16.43,0,0,0,2.8.22A14.34,14.34,0,0,1,54.67,68.63Z"/><path class="cls-8" d="M52.08,80.09a.31.31,0,0,1-.13.36.33.33,0,0,1-.6.06,8,8,0,0,1-.8-4.15c0-.69,0-2.18.77-2.49a.37.37,0,0,1,.33.09c.38.33.26,1.1.2,1.54A10.77,10.77,0,0,0,52.08,80.09Z"/><path class="cls-8" d="M50.14,71.42c-.53,0-1.42-.34-1.58-.93-.21-.23.1-.67.44-.5,1.61.78,3.64.57,5.36.42.39,0,.45.56.09.66A12.77,12.77,0,0,1,50.14,71.42Z"/><path class="cls-8" d="M53.72,73.52a.34.34,0,0,1,.56.15,3,3,0,0,1-.18,1.86,7.78,7.78,0,0,0,0,2.68c.14.65.41,1.22.57,1.85a.34.34,0,0,1-.5.38c-1.06-.47-1.37-2.09-1.4-3.12S52.8,74.33,53.72,73.52Z"/><path class="cls-8" d="M32.4,72.68c.06.7.13,1.39.24,2.09a1.89,1.89,0,0,1-.06,1,.34.34,0,0,1-.49.2c-1-.64-1.11-2.35-1.15-3.49s0-2,.68-1.88S32.35,72.15,32.4,72.68Z"/><path class="cls-8" d="M33.67,79.57a9.37,9.37,0,0,1-4-.17.34.34,0,0,1-.18-.1.62.62,0,0,1-.14-.14.43.43,0,0,1,.12-.54.1.1,0,0,1,.05,0,.27.27,0,0,1,.28-.16,16.08,16.08,0,0,0,2.86-.14c.84-.09,1.58-.38,2.39-.5a.35.35,0,0,1,.43.32C35.56,79,34.4,79.41,33.67,79.57Z"/><path class="cls-8" d="M35,81.09c-.72,2-4.05,1.7-5.34.57a.33.33,0,0,1,.05-.51.31.31,0,0,1,.4-.27,6.55,6.55,0,0,0,2.82.14c.45-.06,1.48-.59,1.91-.31A.34.34,0,0,1,35,81.09Z"/><path class="cls-8" d="M28.49,73.08c0-.66-.2-1.63.33-2.13a.33.33,0,0,1,.41,0c.57.38.4,1.47.46,2,.1.92.64,1.92.48,2.83a.29.29,0,0,1-.28.24.26.26,0,0,1-.36-.07A5.05,5.05,0,0,1,28.49,73.08Z"/><path class="cls-8" d="M27,66.64a9.4,9.4,0,0,0,2.85.21,9.42,9.42,0,0,1,1.83-.11.34.34,0,0,1,.15.56,4.48,4.48,0,0,1-3.22.71,3,3,0,0,1-1.93-.74.32.32,0,0,1-.06-.15A.33.33,0,0,1,27,66.64Z"/><path class="cls-8" d="M27.51,82.27c-1.54.42-1.77-4.42-1.68-5.12a.35.35,0,0,1,.33-.31.32.32,0,0,1,.51-.06,1.31,1.31,0,0,1,.39.91,13.79,13.79,0,0,0,.46,2.47C27.66,80.58,28.32,82.05,27.51,82.27Z"/><path class="cls-8" d="M26.74,74.39a1.51,1.51,0,0,1-1,.7,4.25,4.25,0,0,1-4.12-.7.32.32,0,0,1,.16-.55.27.27,0,0,1,.28-.06,11.39,11.39,0,0,0,4.43.11C26.71,73.85,26.85,74.19,26.74,74.39Z"/><path class="cls-8" d="M26.2,72.23a4.92,4.92,0,0,1-4.56.46c-.29-.15-.77-.6-.3-.88h0a.37.37,0,0,1,.42-.33,27.67,27.67,0,0,0,4.27.14A.33.33,0,0,1,26.2,72.23Z"/><path class="cls-8" d="M20.38,77.77a.34.34,0,0,1,.34.33c.1,1.3-2.17,1.18-2.94,1.14-.6,0-2.51,0-2.83-.77a.34.34,0,0,1,.28-.6C17,78.28,18.66,77.76,20.38,77.77Z"/><path class="cls-8" d="M15.48,69.84a.18.18,0,0,1,.06-.09,1.17,1.17,0,0,1,.15-.27.68.68,0,0,1,.43-.31.25.25,0,0,1,.39.11,3.27,3.27,0,0,1,.14,1.21A18.43,18.43,0,0,0,17,72.57c.09.36.5,1.38.12,1.7s-.62.13-.88-.18A4.53,4.53,0,0,1,15.48,69.84Z"/><path class="cls-8" d="M13.92,74.09c-.36-.34-.42-1.18-.5-1.64a7.28,7.28,0,0,1,0-2.55.14.14,0,0,1,0-.06.91.91,0,0,1,.44-.71c.73-.38.71,2.88.72,3.12S14.82,75,13.92,74.09Z"/><path class="cls-8" d="M19.87,89a.34.34,0,0,1-.57.24c-.92-.93-1.12-2.43-1.31-3.74,0-.17-.06-.35-.08-.53,0,0,0,0,0-.08v-.06c0-.51.1-.92.57-.92.74,0,.69,1.25.76,1.7A15.46,15.46,0,0,1,19.87,89Z"/><path class="cls-8" d="M19.91,81.48c-1.24.79-5,.7-5.6-.94a.31.31,0,0,1,.14-.36c0-.22.13-.47.4-.36,1.55.61,3.16.26,4.76.49C20.28,80.4,20.58,81.06,19.91,81.48Z"/><path class="cls-8" d="M21.35,88.82a6.64,6.64,0,0,1-1.2-4.17,2.93,2.93,0,0,1,.11-.9c.11-.39.45-.89.93-.61s.3,1,.3,1.51a10,10,0,0,0,.18,2.62,5.41,5.41,0,0,1,.25,1.31A.34.34,0,0,1,21.35,88.82Z"/><path class="cls-8" d="M23.83,77.06a.49.49,0,0,1,.69-.13,2.63,2.63,0,0,1,.31,1.47c.07,1,.39,2,.51,2.95.05.34-.47.44-.62.17A7.11,7.11,0,0,1,23.83,77.06Z"/><path class="cls-8" d="M24.52,84.83c1.23.62,2.7.16,4,.31.23,0,.45.27.29.51-.49.7-1.44.54-2.2.54s-1.95,0-2.48-.76a.26.26,0,0,1,0-.08C23.86,85.12,24.17,84.66,24.52,84.83Z"/><path class="cls-8" d="M24.07,87.14a.34.34,0,0,1,.42-.41l.19.07a.33.33,0,0,1,.22,0,21,21,0,0,0,3.8.3.34.34,0,0,1,.24.57c-.69.7-2.07.54-3,.48S24.38,88,24.07,87.14Z"/><path class="cls-8" d="M70.38,84c0,.34.06.91-.44.91s-.85-.79-1-1.14a5.67,5.67,0,0,1-.29-3.16,7.19,7.19,0,0,1,.43-1.76c.17-.44.51-1.36,1.14-1.29a.49.49,0,0,1,.38.34,2.24,2.24,0,0,1,.13.92l-.09.54c-.08.54-.15,1.09-.21,1.63a13.57,13.57,0,0,0-.09,1.91C70.32,83.3,70.35,83.67,70.38,84Z"/><path class="cls-8" d="M69.15,76.25c-1.08,0-3.5,0-3.7-1.49a.36.36,0,0,1,.12-.34.31.31,0,0,1,.41-.28,10.34,10.34,0,0,0,3.66.65,11.11,11.11,0,0,1,2.21-.18.32.32,0,0,1,.24.32C72,76.29,70.1,76.25,69.15,76.25Z"/><path class="cls-8" d="M67.48,83.62l.06,1a.34.34,0,0,1-.58.24,4.6,4.6,0,0,1-.58-3.61c.15-.86.16-2.5.89-3.11a.34.34,0,0,1,.57.24,11.7,11.7,0,0,1-.28,1.84,2.83,2.83,0,0,0,0,.29c0,.47-.1.94-.11,1.4A16.66,16.66,0,0,0,67.48,83.62Z"/><path class="cls-8" d="M69.36,73.65c-1.13-.05-2.57-.14-3.35-1.1a.27.27,0,0,1-.07-.14c-.18-.23,0-.65.33-.53a10.18,10.18,0,0,0,3.37.6,23.73,23.73,0,0,0,2.67-.32c.27,0,.39.3.29.5C72,73.77,70.42,73.71,69.36,73.65Z"/><path class="cls-8" d="M73.7,91.55a3.63,3.63,0,0,1-1-3.15c.07-.77.11-2.15.87-2.6a.35.35,0,0,1,.5.2,3.11,3.11,0,0,1,0,.61.32.32,0,0,1,.08.29A6.72,6.72,0,0,0,74,89.54a6.6,6.6,0,0,1,.23,1.72C74.2,91.49,73.92,91.72,73.7,91.55Z"/><path class="cls-8" d="M76.7,89.84a4.75,4.75,0,0,1,0,1.19c-.09.31-.33.67-.71.48C75,91,74.81,88.64,74.92,87.68a3.23,3.23,0,0,1,.88-2.2.51.51,0,0,1,.79.11A3.13,3.13,0,0,1,76.82,87a.31.31,0,0,1,0,.19A14.46,14.46,0,0,0,76.7,89.84Z"/><path class="cls-8" d="M77.19,83.52a6.42,6.42,0,0,1-3.31-.47c-1-.26-1.79-.72-1.18-1.43a.33.33,0,0,1,.33-.08l.43.15a10.63,10.63,0,0,0,2.65.23,15.68,15.68,0,0,1,2.65,0,.33.33,0,0,1,.24.23C79.17,83,77.83,83.38,77.19,83.52Z"/><path class="cls-8" d="M77.23,80.57a6.73,6.73,0,0,1-4-1.16.27.27,0,0,1-.09-.3.33.33,0,0,1,.38-.48,13.47,13.47,0,0,0,3.3.27c.86,0,1.77-.11,2.61,0a.34.34,0,0,1,.24.33C79.68,80.27,78,80.59,77.23,80.57Z"/><path class="cls-8" d="M76.5,75.31c.09.42.12,1.13-.41,1.28-1.23.34-1.48-2.73-1.48-3.33s.32-3.8,1.61-3.05a.73.73,0,0,1,.36.62.28.28,0,0,1,.13.36A7.79,7.79,0,0,0,76.5,75.31Z"/><path class="cls-8" d="M79.08,75.49c0,.37.15.79-.12,1.1a.32.32,0,0,1-.4,0c-.78-.4-.92-1.57-1-2.34a7.25,7.25,0,0,1,.45-3.67.49.49,0,0,1,.56-.27.35.35,0,0,1,.37,0c.63.25.41,1.53.19,2.45A12.3,12.3,0,0,0,79.08,75.49Z"/><path class="cls-8" d="M82.89,78.35a27.24,27.24,0,0,0-.31,4.78c0,.53,0,1.61-.64,1.79a.33.33,0,0,1-.33-.08,4.77,4.77,0,0,1-.48-3A14.53,14.53,0,0,1,82,78.32a.5.5,0,0,1,.88,0Z"/><path class="cls-8" d="M87.72,73.63c-.94,1.87-5.32,2.48-6.37.41l0-.1s0,0,0,0a.34.34,0,0,1,0-.1v0a.51.51,0,0,1,.44-.55h.09a.67.67,0,0,1,.39.08,9.16,9.16,0,0,0,5.16-.17C87.64,73,87.84,73.38,87.72,73.63Z"/><path class="cls-8" d="M82,71.27a.33.33,0,0,1,.41-.31,18.44,18.44,0,0,0,4.92.23.34.34,0,0,1,.24.57,4.89,4.89,0,0,1-5.57,0A.31.31,0,0,1,82,71.27Z"/><path class="cls-8" d="M47.88,85.7c.12.4-.16,1-.66.85-1.84-.5-2.2-3.38-2.06-4.93.06-.59.17-1.39.8-1.65.43-.18,1-.17,1.15.38a3.61,3.61,0,0,1,0,1.6A9.58,9.58,0,0,0,47.88,85.7Z"/><path class="cls-8" d="M43.72,79.23A4.43,4.43,0,0,1,41,78.55a.29.29,0,0,1-.09-.28c-.09-.23.08-.55.38-.44,2.23.8,4.41.28,6.7.3a.34.34,0,0,1,.09.66A12.73,12.73,0,0,1,43.72,79.23Z"/><path class="cls-8" d="M44.29,81.59a14.34,14.34,0,0,0,.34,4c0,.29-.32.63-.56.33a4.7,4.7,0,0,1-.81-2.64,6,6,0,0,1,.13-2.6.46.46,0,0,1,.87,0,1.36,1.36,0,0,1,0,.8A.33.33,0,0,1,44.29,81.59Z"/><path class="cls-8" d="M41.35,76h0a.35.35,0,0,1,.18,0,33.46,33.46,0,0,0,6.25,0,.34.34,0,0,1,.33.34c0,1.09-1.8,1-2.53,1-1.56.06-3.23.38-4.51-.74A.34.34,0,0,1,41.35,76Z"/></g><g class="cls-15"><path class="cls-8" d="M8.68,64.8c1.2,4.8,4.3,16.83,6.17,21.38,2.36,5.73,1.26,8.24,9,9,6.69.67,20.46.36,26.28.21,5.82.15,19.59.46,26.28-.21,7.77-.79,6.68-3.3,9-9,1.87-4.55,5.21-18.45,6.42-23.25ZM82.82,85.86a8.4,8.4,0,0,1-1.4,1.32c-2.73,2-6.42,2.64-9.81,2.91-1.94.15-3.88.17-5.83.19-6.83.09-13.64.66-20.47.76q-4.81.08-9.65,0c-5-.1-10.53.42-15.18-1.76a13,13,0,0,1-6.08-6.78c-1.82-4.08-5.55-14.44,3-14,2.4.13,4.76.16,7.16.18,7.4.06,14.79.26,22.19.11q3.21-.06,6.42-.22c7.56-.39,18.54-1.08,26.11-1.29,2.26-.06,5.1-.49,7.22.41C90.8,69.54,84.41,84,82.82,85.86Z"/></g><path class="cls-16" d="M36.3,70.28c-3.27,0-6.54,0-9.8,0-2.39,0-5.48-.48-7.74.31-2.89,1-1.16,4.5-.34,6.15a9.62,9.62,0,0,0,3.95,3.92C27,83.33,33.26,84,38.84,84.26c4.59.21,9.19.12,13.78-.11,6.07-.29,12.34-.2,18.27-1.44a19.33,19.33,0,0,0,13-9.37c.59-1.12,2-3.35.17-4.18-2-.91-24.41.86-33.06,1Q43.63,70.21,36.3,70.28Z"/><g class="cls-17"><path class="cls-8" d="M83.28,90c-5.26,3.84-23,3.14-26.1,3.21-6.29.14-12.58.17-18.87.14-3.17,0-15-.67-17.66-1.21a9.05,9.05,0,0,1-4.57-2.19c1,3.14,1.9,4.69,7.71,5.28,6.68.67,20.45.36,26.27.21,5.82.15,19.6.46,26.28-.21,6.34-.64,6.78-2.43,8-6.17A8.59,8.59,0,0,1,83.28,90Z"/><path class="cls-8" d="M15.44,65.64c4.4-.39,8.86-.11,13.27-.13,6.34,0,12.68-.29,19-.32s12.75.11,19.12,0,12.58-.74,18.83-.41c1.29.06,3.83,0,4.68,1.26a2.34,2.34,0,0,1,.36,1.19l1.06-4.27L8.58,64.8l.65,2.55a5,5,0,0,1,1.47-.71A14.29,14.29,0,0,1,15.44,65.64Z"/></g><path class="cls-13" d="M35,89.66a2.32,2.32,0,0,1-1.73-.6,2.27,2.27,0,0,1-.59-1.65,2.23,2.23,0,0,1,.59-1.66A2.39,2.39,0,0,1,35,85.18h2.65V72.85h2.55l-4.36,2.7a2.12,2.12,0,0,1-1.47.38,1.91,1.91,0,0,1-1.16-.59,2.47,2.47,0,0,1-.63-1.17,2.33,2.33,0,0,1,.1-1.4,2.27,2.27,0,0,1,1.08-1.16L38,69a5.19,5.19,0,0,1,1.34-.65,4.82,4.82,0,0,1,1.48-.23,2.48,2.48,0,0,1,1.79.61,2.19,2.19,0,0,1,.65,1.71V85.18h2.38a2.34,2.34,0,0,1,1.7.57,2.22,2.22,0,0,1,.58,1.66,2.26,2.26,0,0,1-.58,1.67,2.31,2.31,0,0,1-1.7.58Z"/><path class="cls-13" d="M55.49,90A10.38,10.38,0,0,1,53,89.71a10.22,10.22,0,0,1-2.38-.92,2.07,2.07,0,0,1-1-1,2.49,2.49,0,0,1-.22-1.29,2.32,2.32,0,0,1,.45-1.2,2.06,2.06,0,0,1,1-.74,2.19,2.19,0,0,1,1.52.15A9,9,0,0,0,54,85.3a6.75,6.75,0,0,0,1.51.18,4.65,4.65,0,0,0,2.51-.63A3.79,3.79,0,0,0,59.56,83a8.38,8.38,0,0,0,.5-3.08V78.26h.48a5.26,5.26,0,0,1-1,2.21,4.88,4.88,0,0,1-1.81,1.43,5.55,5.55,0,0,1-2.4.51,5.69,5.69,0,0,1-3.13-.9A6.2,6.2,0,0,1,50,79a7.65,7.65,0,0,1-.81-3.58,7.43,7.43,0,0,1,.95-3.79,6.93,6.93,0,0,1,2.6-2.61,7.3,7.3,0,0,1,3.79-1,8.48,8.48,0,0,1,4.74,1.28,8.06,8.06,0,0,1,3,3.67,14.77,14.77,0,0,1,1,5.79,15.62,15.62,0,0,1-.66,4.73,9.88,9.88,0,0,1-1.92,3.52,8.28,8.28,0,0,1-3.06,2.19A10.52,10.52,0,0,1,55.49,90Zm1.32-11.86a2.37,2.37,0,0,0,2.26-1.4,3.55,3.55,0,0,0,.3-1.52,3.83,3.83,0,0,0-.3-1.55,2.23,2.23,0,0,0-.89-1,2.93,2.93,0,0,0-2.74,0,2.25,2.25,0,0,0-.9,1,3.67,3.67,0,0,0-.32,1.55,3.41,3.41,0,0,0,.32,1.52,2.4,2.4,0,0,0,2.27,1.4Z"/></g></g></svg>