<svg id="Layer_1" data-name="Layer 1" xmlns="http://www.w3.org/2000/svg" viewBox="0 0 105.29 104.84"><defs><style>.cls-1{fill:#ff8c03;}.cls-2{fill:#fcbc08;}.cls-3{fill:#f28106;opacity:0.7;}.cls-4{fill:#7c6a13;}.cls-5{fill:#937b18;}</style></defs><title>orange3</title><path class="cls-1" d="M68.23,30C74.18,34.33,82,48,72.8,59.17S50.11,71,40,64.45C29.38,57.6,24.31,40.86,37.11,28.87,47.37,19.27,59.24,23.52,68.23,30Z"/><path class="cls-2" d="M43.32,28.42h0Z"/><path class="cls-2" d="M44.7,29.84c.7-.33,1.48-1,.82-1.66s-1.55.08-2.18.24C42.48,29.2,42.84,30.73,44.7,29.84Z"/><path class="cls-2" d="M43.35,28.41,44.41,28A1.7,1.7,0,0,0,43.35,28.41Z"/><path class="cls-2" d="M41.44,31.41c.27-.18.62-.58.27-.85a.44.44,0,0,0-.66.14.84.84,0,0,0-.43.56C40.56,31.83,41.17,31.61,41.44,31.41Z"/><path class="cls-2" d="M46,31.06a.68.68,0,0,0-.65,0c-.31,0-.7.17-.77.42a.3.3,0,0,0,0,.16l-.09.06.09-.06c.08.29.77.08,1,0S46.54,31.35,46,31.06Z"/><path class="cls-2" d="M44.48,31.72l0,0Z"/><path class="cls-2" d="M47.47,29.52c-.3.09-.64.42-.47.71s.88.17,1.13,0C49.13,29.72,47.84,29.3,47.47,29.52Z"/><path class="cls-2" d="M48.72,27.71c-.21,0-.58-.12-.74.06a.26.26,0,0,0,0,.34c0,.21.36.39.5.46.3.15,1.82.64,1.93.13S49.09,27.76,48.72,27.71Z"/><path class="cls-2" d="M47.06,26.69c.31.17,1.43.12,1.54-.32s-.61-.54-.9-.5a1.07,1.07,0,0,0-.48.27C46.92,26.28,46.7,26.5,47.06,26.69Z"/><path class="cls-2" d="M41.64,29.29c.58-.42,0-.66-.44-.58h0c-.26,0-.92.28-.74.63S41.42,29.45,41.64,29.29Z"/><path class="cls-2" d="M39.21,32c.22-.24.88-1.31.12-1.35a.52.52,0,0,0-.4.2,2.13,2.13,0,0,0-.76,1C37.87,32.88,38.83,32.43,39.21,32Z"/><path class="cls-2" d="M43.3,32.3a1.57,1.57,0,0,0-1,.08c-.56.16-1.22.6-1.32,1-.25,1,1.56.29,2,.16C43.49,33.35,44.14,32.61,43.3,32.3Z"/><path class="cls-2" d="M46.34,33.1c-.29.1-.6.34-.6.57,0,.51,1,.35,1.34.22C48.19,33.37,46.74,32.88,46.34,33.1Z"/><path class="cls-2" d="M53.49,27.45a.5.5,0,0,0-.5.2,1.4,1.4,0,0,0,2.09,0A1.18,1.18,0,0,0,53.49,27.45Z"/><path class="cls-2" d="M50.55,30.08c.62.22,2.32.33,2.45-.54a1.5,1.5,0,0,0-1.36-.16C51.11,29.36,50.55,29.53,50.55,30.08Z"/><path class="cls-2" d="M51.77,25.57a.91.91,0,0,0-1.24-.13.61.61,0,0,0-.3.36A1.2,1.2,0,0,0,51.77,25.57Z"/><path class="cls-2" d="M56.38,29.16c-1.25,0,.36,1.58,1.06,1.08S56.88,28.84,56.38,29.16Z"/><path class="cls-2" d="M38.56,34.24c-.38-.3-.71,0-.93.36-.84.52-1.85,1.77-1.05,2.08C37.58,37.05,38.54,34.92,38.56,34.24Z"/><path class="cls-2" d="M36.26,32.63c-1.08.2-.56,2,.46.76C37.36,32.64,36.71,32.4,36.26,32.63Z"/><path class="cls-2" d="M42.39,35.87a.54.54,0,0,0-.39.48c.4.29,1.47.31,1.74-.21C44.14,35.36,42.75,35.26,42.39,35.87Z"/><path class="cls-2" d="M52,33l-.06-.08a.63.63,0,0,0,0,.22c-.07.1-.07.19,0,.22.22.58,1.46.6,1.22-.13S52.24,32.69,52,33Z"/><path class="cls-2" d="M63,31.43c-.73-1-2.23,0-1.29.31C62.31,32.13,63.76,32.39,63,31.43Z"/><path class="cls-2" d="M37.21,40.82l.15-.26a1.79,1.79,0,0,0-.8,1.24c.43.12,1.7-.72,1.66-1.27C38.17,39.7,37.58,40.29,37.21,40.82Z"/><path class="cls-2" d="M48.53,38a.3.3,0,0,0,.42.09c.53.07,1.49-.06,1.08-.61S48.68,37.61,48.53,38Z"/><path class="cls-2" d="M32.9,37.49a.87.87,0,0,0-.07.43c.64.22,2.27,0,1.73-1S33.08,36.75,32.9,37.49Z"/><path class="cls-2" d="M35.12,34.82l0,0a.54.54,0,0,0-.66.52.79.79,0,0,0,1.11-.42A.75.75,0,0,0,35.12,34.82Z"/><path class="cls-3" d="M37.22,57c-2.34,1.69,9.59,10.19,17.34,9.89A22.81,22.81,0,0,0,73.31,55.16C75.37,51,74.65,39,72.08,39.84c-.91.3.21,4.35-3.55,10.49C65.23,55.71,59.6,61,52.15,60.66,41.94,60.17,38.77,55.91,37.22,57Z"/><path class="cls-4" d="M62.8,27.48a1.07,1.07,0,0,0-1,1.64c.64,1.57,4.53,4.12,5.65,3.69s1.17-1.71-.46-2.94S64.29,27.67,62.8,27.48Z"/><path class="cls-4" d="M64.82,29.58s4.51-4.59,5.8-6.32S74.89,15,74.89,15a1.09,1.09,0,0,1,1-.48c.55.11.39.92.39.92s-3.14,6.33-4.41,8.08c-2.6,3.54-6,7.4-6,7.4Z"/><path class="cls-4" d="M72.69,20.93c-.28-.05-7.44-.92-7.44-.92l-.27.42,3.69.59,3.7.6Z"/><path class="cls-4" d="M57.18,29.18c-7.68,1.93-19-3.47-19-3.47s7.59-8.7,14.1-9.35,17.82,4.45,17.82,4.45S64.89,27.25,57.18,29.18Z"/><path class="cls-5" d="M62.87,28a1.58,1.58,0,0,0-.18,1.55c.56,1.06,2.8,2.19,2.8,2.19l.18-1.39s-.6-.4-.66-.74a.77.77,0,0,1,.06-.53Z"/><path class="cls-5" d="M67.53,21a61.38,61.38,0,0,0-12.88.12c-6,.85-15,3.66-14.89,4.05S49.63,22,54.45,21.64s13.44,0,13.44,0Z"/><path class="cls-5" d="M64.51,21.21a6.72,6.72,0,0,1-1.25,2.31c-1.09,1.46-2.39,3.35-2.17,3.3a19.86,19.86,0,0,0,2.5-3.07c.71-1,1.63-2.49,1.63-2.49Z"/><path class="cls-5" d="M58.53,21.26A10.18,10.18,0,0,1,57.21,25c-1.32,2.67-1.85,3.45-1.53,3.51s1.32-2,2-3.42,1.69-3.93,1.69-3.93Z"/><path class="cls-5" d="M52.71,21.8a7.29,7.29,0,0,1-.46,2.79c-.59,2-1.31,3.08-1,3.22s1-1.7,1.36-3.12,1-3.19,1-3.19Z"/><path class="cls-5" d="M46.45,23.25a4.41,4.41,0,0,1-.31,1.65c-.37,1-1,2-.78,2a3.51,3.51,0,0,0,1.07-1.8c.26-.91.55-2,.55-2Z"/><path class="cls-5" d="M65.22,21.06A8.47,8.47,0,0,0,63,18.93a6.92,6.92,0,0,0-2.91-1.17c-.15.14,1.66.64,2.3,1A24.12,24.12,0,0,1,64.71,21Z"/><path class="cls-5" d="M59.07,20.88a5.7,5.7,0,0,0-1.84-2.41,9.21,9.21,0,0,0-4.1-1.57c-.39.13,3,1,3.75,1.7A8.31,8.31,0,0,1,58.27,21Z"/><path class="cls-5" d="M53.57,21.5a13.39,13.39,0,0,0-2.76-2.14,11.74,11.74,0,0,0-3.32-.83c-.39,0,2.55.64,3.37,1.21a17.67,17.67,0,0,1,2.08,1.94Z"/><path class="cls-5" d="M46.44,23.08s-.09-.48-1.46-1-2.12-.84-1.82-.84a8.68,8.68,0,0,1,1.81.47,11.39,11.39,0,0,1,2.14,1.19Z"/><path class="cls-1" d="M41.41,51.69C47.36,56,55.2,69.62,46,80.83S23.29,92.7,13.13,86.12C2.56,79.26-2.51,62.52,10.29,50.53,20.55,40.93,32.43,45.18,41.41,51.69Z"/><path class="cls-2" d="M16.5,50.09h0Z"/><path class="cls-2" d="M17.88,51.5c.7-.33,1.48-1,.82-1.66s-1.55.08-2.18.24C15.66,50.86,16,52.39,17.88,51.5Z"/><path class="cls-2" d="M16.53,50.07l1.06-.4A1.64,1.64,0,0,0,16.53,50.07Z"/><path class="cls-2" d="M14.62,53.08c.27-.19.62-.59.28-.86a.45.45,0,0,0-.67.14.84.84,0,0,0-.43.56C13.74,53.5,14.35,53.27,14.62,53.08Z"/><path class="cls-2" d="M19.18,52.72a.68.68,0,0,0-.65,0c-.31,0-.7.17-.77.42a.3.3,0,0,0,0,.16l-.09.06.09-.06c.09.29.77.08,1,0S19.72,53,19.18,52.72Z"/><path class="cls-2" d="M17.66,53.38l0,0Z"/><path class="cls-2" d="M20.65,51.18c-.3.09-.64.42-.47.71s.88.18,1.13,0C22.31,51.38,21,51,20.65,51.18Z"/><path class="cls-2" d="M21.9,49.37c-.21,0-.58-.12-.74.06a.29.29,0,0,0,0,.35c0,.2.36.39.5.46.3.14,1.83.63,1.93.12S22.27,49.42,21.9,49.37Z"/><path class="cls-2" d="M20.24,48.35c.31.17,1.43.13,1.54-.32s-.61-.54-.9-.5a1.07,1.07,0,0,0-.48.27C20.1,47.94,19.88,48.16,20.24,48.35Z"/><path class="cls-2" d="M14.82,51c.58-.42,0-.66-.44-.57h0c-.26,0-.92.28-.74.64S14.6,51.11,14.82,51Z"/><path class="cls-2" d="M12.39,53.66c.22-.24.88-1.31.12-1.35a.52.52,0,0,0-.4.2,2.13,2.13,0,0,0-.76,1C11.05,54.54,12,54.09,12.39,53.66Z"/><path class="cls-2" d="M16.48,54a1.48,1.48,0,0,0-1,.09c-.57.15-1.23.59-1.33,1-.25,1,1.56.28,2,.15C16.67,55,17.32,54.28,16.48,54Z"/><path class="cls-2" d="M19.52,54.77c-.29.09-.6.33-.6.56,0,.51,1,.35,1.34.22C21.38,55,19.92,54.54,19.52,54.77Z"/><path class="cls-2" d="M26.67,49.11a.5.5,0,0,0-.49.2,1.39,1.39,0,0,0,2.08,0A1.18,1.18,0,0,0,26.67,49.11Z"/><path class="cls-2" d="M23.73,51.74c.62.22,2.32.33,2.45-.54A1.53,1.53,0,0,0,24.82,51C24.3,51,23.74,51.2,23.73,51.74Z"/><path class="cls-2" d="M25,47.23a.9.9,0,0,0-1.24-.12.56.56,0,0,0-.3.35A1.19,1.19,0,0,0,25,47.23Z"/><path class="cls-2" d="M29.56,50.82c-1.25,0,.36,1.58,1.06,1.08S30.06,50.5,29.56,50.82Z"/><path class="cls-2" d="M11.74,55.9c-.38-.3-.71,0-.93.36C10,56.79,9,58,9.76,58.34,10.76,58.72,11.72,56.58,11.74,55.9Z"/><path class="cls-2" d="M9.44,54.29c-1.07.2-.56,2,.46.76C10.54,54.3,9.89,54.06,9.44,54.29Z"/><path class="cls-2" d="M15.57,57.53a.55.55,0,0,0-.39.48c.4.29,1.47.31,1.74-.21C17.32,57,15.93,56.92,15.57,57.53Z"/><path class="cls-2" d="M25.14,54.63l-.06-.09a.63.63,0,0,0,0,.22c-.06.1-.07.19,0,.22.22.58,1.46.6,1.22-.13S25.43,54.35,25.14,54.63Z"/><path class="cls-2" d="M36.22,53.09c-.73-1-2.23,0-1.29.31C35.49,53.79,36.94,54.05,36.22,53.09Z"/><path class="cls-2" d="M10.39,62.48l.15-.26a1.81,1.81,0,0,0-.8,1.25c.43.11,1.7-.72,1.66-1.28C11.35,61.36,10.76,62,10.39,62.48Z"/><path class="cls-2" d="M21.71,59.7a.31.31,0,0,0,.42.1c.53.06,1.49-.07,1.08-.62S21.86,59.27,21.71,59.7Z"/><path class="cls-2" d="M6.08,59.15a.77.77,0,0,0-.06.43c.63.22,2.26,0,1.72-1S6.27,58.41,6.08,59.15Z"/><path class="cls-2" d="M8.3,56.48h0a.53.53,0,0,0-.66.51.79.79,0,0,0,1.11-.42A.75.75,0,0,0,8.3,56.48Z"/><path class="cls-3" d="M10.4,78.69C8.06,80.38,20,88.88,27.74,88.59A22.84,22.84,0,0,0,46.49,76.82c2.06-4.21,1.34-16.15-1.23-15.32-.91.3.21,4.35-3.55,10.49-3.3,5.39-8.93,10.7-16.38,10.33C15.12,81.83,12,77.57,10.4,78.69Z"/><path class="cls-4" d="M36,49.14a1.07,1.07,0,0,0-1,1.64c.65,1.57,4.53,4.12,5.65,3.69s1.17-1.71-.46-2.93S37.47,49.33,36,49.14Z"/><path class="cls-4" d="M38,51.24s4.5-4.59,5.79-6.32,4.27-8.29,4.27-8.29a1.09,1.09,0,0,1,1-.48c.55.11.4.92.4.92S46.27,43.4,45,45.15c-2.59,3.54-6,7.4-6,7.4Z"/><path class="cls-4" d="M45.87,42.59c-.27-.05-7.44-.92-7.44-.92l-.27.42,3.69.59,3.7.6Z"/><path class="cls-4" d="M30.37,50.84c-7.69,1.93-19.06-3.47-19.06-3.47s7.59-8.7,14.1-9.35,17.82,4.45,17.82,4.45S38.08,48.91,30.37,50.84Z"/><path class="cls-5" d="M36.05,49.61a1.58,1.58,0,0,0-.18,1.55c.56,1.06,2.8,2.19,2.8,2.19L38.85,52s-.6-.41-.66-.75a.77.77,0,0,1,.06-.53Z"/><path class="cls-5" d="M40.71,42.66a61.38,61.38,0,0,0-12.88.12c-6,.85-15,3.66-14.89,4.06s9.87-3.22,14.69-3.54,13.44,0,13.44,0Z"/><path class="cls-5" d="M37.69,42.88a6.75,6.75,0,0,1-1.25,2.3c-1.09,1.47-2.39,3.35-2.17,3.31a20.07,20.07,0,0,0,2.5-3.08c.71-1,1.63-2.48,1.63-2.48Z"/><path class="cls-5" d="M31.71,42.92a10.25,10.25,0,0,1-1.32,3.76c-1.32,2.66-1.85,3.44-1.52,3.5s1.31-2,2-3.42,1.69-3.93,1.69-3.93Z"/><path class="cls-5" d="M25.89,43.46a7,7,0,0,1-.46,2.79c-.59,2-1.31,3.08-1,3.22s1-1.7,1.36-3.12,1-3.19,1-3.19Z"/><path class="cls-5" d="M19.64,44.91a4.58,4.58,0,0,1-.32,1.65c-.37,1-.95,2-.77,2a3.59,3.59,0,0,0,1.06-1.8c.26-.91.55-2,.55-2Z"/><path class="cls-5" d="M38.4,42.72a8.65,8.65,0,0,0-2.26-2.13,6.92,6.92,0,0,0-2.91-1.17c-.15.14,1.66.64,2.3,1a23.94,23.94,0,0,1,2.36,2.24Z"/><path class="cls-5" d="M32.25,42.54a5.7,5.7,0,0,0-1.84-2.41,9.33,9.33,0,0,0-4.1-1.57c-.39.13,3,1,3.75,1.7a8.31,8.31,0,0,1,1.39,2.36Z"/><path class="cls-5" d="M26.75,43.16A13.39,13.39,0,0,0,24,41a11.77,11.77,0,0,0-3.31-.83c-.4.06,2.54.65,3.36,1.22a17.9,17.9,0,0,1,2.08,1.93Z"/><path class="cls-5" d="M19.63,44.75s-.1-.48-1.47-1-2.12-.83-1.82-.84a9.41,9.41,0,0,1,1.81.47,11.39,11.39,0,0,1,2.14,1.19Z"/><path class="cls-1" d="M93.78,51.69c6,4.3,13.78,17.93,4.57,29.14S75.66,92.7,65.5,86.12c-10.58-6.86-15.64-23.6-2.84-35.59C72.92,40.93,84.79,45.18,93.78,51.69Z"/><path class="cls-2" d="M68.86,50.09h0Z"/><path class="cls-2" d="M70.24,51.5c.7-.33,1.48-1,.83-1.66s-1.55.08-2.18.24C68,50.86,68.38,52.39,70.24,51.5Z"/><path class="cls-2" d="M68.89,50.07l1.07-.4A1.67,1.67,0,0,0,68.89,50.07Z"/><path class="cls-2" d="M67,53.08c.26-.19.62-.59.27-.86a.45.45,0,0,0-.67.14.84.84,0,0,0-.43.56C66.1,53.5,66.71,53.27,67,53.08Z"/><path class="cls-2" d="M71.55,52.72a.7.7,0,0,0-.66,0c-.31,0-.7.17-.77.42a.3.3,0,0,0,0,.16l-.09.06.1-.06c.08.29.76.08,1,0S72.08,53,71.55,52.72Z"/><path class="cls-2" d="M70,53.38l0,0Z"/><path class="cls-2" d="M73,51.18c-.3.09-.64.42-.46.71s.87.18,1.12,0C74.67,51.38,73.38,51,73,51.18Z"/><path class="cls-2" d="M74.26,49.37c-.2,0-.58-.12-.74.06a.29.29,0,0,0,0,.35c0,.2.36.39.5.46.3.14,1.83.63,1.94.12S74.64,49.42,74.26,49.37Z"/><path class="cls-2" d="M72.6,48.35c.32.17,1.43.13,1.54-.32s-.6-.54-.89-.5a1.1,1.1,0,0,0-.49.27C72.47,47.94,72.24,48.16,72.6,48.35Z"/><path class="cls-2" d="M67.19,51c.58-.42,0-.66-.45-.57h0c-.27,0-.92.28-.75.64S67,51.11,67.19,51Z"/><path class="cls-2" d="M64.75,53.66c.22-.24.88-1.31.12-1.35a.5.5,0,0,0-.39.2,2.09,2.09,0,0,0-.77,1C63.42,54.54,64.38,54.09,64.75,53.66Z"/><path class="cls-2" d="M68.84,54a1.48,1.48,0,0,0-1,.09c-.57.15-1.23.59-1.33,1-.25,1,1.57.28,1.95.15C69,55,69.69,54.28,68.84,54Z"/><path class="cls-2" d="M71.88,54.77c-.28.09-.6.33-.59.56,0,.51,1,.35,1.33.22C73.74,55,72.28,54.54,71.88,54.77Z"/><path class="cls-2" d="M79,49.11a.5.5,0,0,0-.5.2,1.39,1.39,0,0,0,2.08,0A1.17,1.17,0,0,0,79,49.11Z"/><path class="cls-2" d="M76.09,51.74c.63.22,2.32.33,2.46-.54A1.54,1.54,0,0,0,77.19,51C76.66,51,76.1,51.2,76.09,51.74Z"/><path class="cls-2" d="M77.32,47.23a.91.91,0,0,0-1.25-.12.52.52,0,0,0-.29.35A1.19,1.19,0,0,0,77.32,47.23Z"/><path class="cls-2" d="M81.93,50.82c-1.25,0,.36,1.58,1,1.08S82.42,50.5,81.93,50.82Z"/><path class="cls-2" d="M64.11,55.9c-.39-.3-.72,0-.94.36-.84.53-1.84,1.77-1,2.08C63.12,58.72,64.09,56.58,64.11,55.9Z"/><path class="cls-2" d="M61.81,54.29c-1.08.2-.57,2,.46.76C62.9,54.3,62.25,54.06,61.81,54.29Z"/><path class="cls-2" d="M67.94,57.53a.56.56,0,0,0-.4.48c.41.29,1.48.31,1.74-.21C69.68,57,68.29,56.92,67.94,57.53Z"/><path class="cls-2" d="M77.5,54.63l-.06-.09a1,1,0,0,0,0,.22c-.06.1-.06.19,0,.22.23.58,1.46.6,1.23-.13S77.79,54.35,77.5,54.63Z"/><path class="cls-2" d="M88.59,53.09c-.73-1-2.24,0-1.29.31C87.85,53.79,89.3,54.05,88.59,53.09Z"/><path class="cls-2" d="M62.76,62.48l.14-.26a1.77,1.77,0,0,0-.79,1.25c.43.11,1.69-.72,1.66-1.28C63.72,61.36,63.13,62,62.76,62.48Z"/><path class="cls-2" d="M74.08,59.7a.31.31,0,0,0,.42.1c.52.06,1.48-.07,1.07-.62S74.22,59.27,74.08,59.7Z"/><path class="cls-2" d="M58.44,59.15a.87.87,0,0,0-.06.43c.64.22,2.26,0,1.73-1S58.63,58.41,58.44,59.15Z"/><path class="cls-2" d="M60.67,56.48h0A.53.53,0,0,0,60,57a.79.79,0,0,0,1.11-.42A.73.73,0,0,0,60.67,56.48Z"/><path class="cls-3" d="M62.77,78.69c-2.34,1.69,9.58,10.19,17.33,9.9A22.86,22.86,0,0,0,98.86,76.82c2-4.21,1.33-16.15-1.23-15.32-.92.3.2,4.35-3.55,10.49-3.3,5.39-8.93,10.7-16.39,10.33C67.49,81.83,64.32,77.57,62.77,78.69Z"/><path class="cls-4" d="M88.35,49.14a1.07,1.07,0,0,0-1,1.64C88,52.35,91.91,54.9,93,54.47s1.17-1.71-.46-2.93S89.83,49.33,88.35,49.14Z"/><path class="cls-4" d="M90.37,51.24s4.51-4.59,5.79-6.32,4.27-8.29,4.27-8.29a1.09,1.09,0,0,1,.95-.48c.56.11.4.92.4.92s-3.15,6.33-4.42,8.08c-2.59,3.54-6,7.4-6,7.4Z"/><path class="cls-4" d="M98.23,42.59c-.27-.05-7.44-.92-7.44-.92l-.27.42,3.7.59,3.69.6Z"/><path class="cls-4" d="M82.73,50.84C75,52.77,63.68,47.37,63.68,47.37s7.59-8.7,14.1-9.35,17.81,4.45,17.81,4.45S90.44,48.91,82.73,50.84Z"/><path class="cls-5" d="M88.41,49.61a1.57,1.57,0,0,0-.17,1.55C88.8,52.22,91,53.35,91,53.35L91.22,52s-.6-.41-.66-.75a.77.77,0,0,1,.06-.53Z"/><path class="cls-5" d="M93.08,42.66a61.46,61.46,0,0,0-12.89.12c-6,.85-15,3.66-14.88,4.06S75.17,43.62,80,43.3s13.44,0,13.44,0Z"/><path class="cls-5" d="M90.05,42.88a6.51,6.51,0,0,1-1.25,2.3c-1.09,1.47-2.38,3.35-2.16,3.31a20.7,20.7,0,0,0,2.5-3.08c.71-1,1.62-2.48,1.62-2.48Z"/><path class="cls-5" d="M84.07,42.92a10.25,10.25,0,0,1-1.32,3.76c-1.32,2.66-1.85,3.44-1.52,3.5s1.31-2,2-3.42,1.69-3.93,1.69-3.93Z"/><path class="cls-5" d="M78.25,43.46a7.1,7.1,0,0,1-.45,2.79c-.6,2-1.32,3.08-1,3.22s1-1.7,1.37-3.12,1-3.19,1-3.19Z"/><path class="cls-5" d="M72,44.91a4.32,4.32,0,0,1-.32,1.65c-.37,1-.94,2-.77,2A3.58,3.58,0,0,0,72,46.78c.26-.91.55-2,.55-2Z"/><path class="cls-5" d="M90.76,42.72a8.46,8.46,0,0,0-2.26-2.13,6.89,6.89,0,0,0-2.9-1.17c-.16.14,1.65.64,2.29,1a23.94,23.94,0,0,1,2.36,2.24Z"/><path class="cls-5" d="M84.61,42.54a5.63,5.63,0,0,0-1.83-2.41,9.33,9.33,0,0,0-4.1-1.57c-.39.13,3,1,3.75,1.7a8.19,8.19,0,0,1,1.38,2.36Z"/><path class="cls-5" d="M79.11,43.16A13.1,13.1,0,0,0,76.35,41,11.77,11.77,0,0,0,73,40.19c-.39.06,2.54.65,3.36,1.22a17.43,17.43,0,0,1,2.09,1.93Z"/><path class="cls-5" d="M72,44.75s-.1-.48-1.46-1-2.12-.83-1.83-.84a9.63,9.63,0,0,1,1.82.47,11.75,11.75,0,0,1,2.14,1.19Z"/></svg>