<svg xmlns="http://www.w3.org/2000/svg" viewBox="0 0 105.29 104.84"><defs><style>.cls-1{isolation:isolate;}.cls-2{fill:#ed7d03;}.cls-3{fill:#ff8c03;}.cls-4{fill:#fcbc08;}.cls-5{fill:#f28106;opacity:0.7;}.cls-6{fill:#7c6a13;}.cls-7{fill:#937b18;}.cls-8{fill:#b86313;}.cls-11,.cls-9{fill:#cc7917;}.cls-10{fill:#9e4727;}.cls-11,.cls-12,.cls-17{opacity:0.5;}.cls-11,.cls-15,.cls-17{mix-blend-mode:multiply;}.cls-13,.cls-16{fill:#fff;}.cls-14,.cls-15{opacity:0.3;}.cls-14{mix-blend-mode:screen;}.cls-16{opacity:0.1;}</style></defs><title>orange29</title><g class="cls-1"><g id="Layer_1" data-name="Layer 1"><path class="cls-2" d="M79.05,45.16c-4.72-1.6-9.71-5.65-10.85-10.74H24V64.63H81.28V45.77A19.36,19.36,0,0,1,79.05,45.16Z"/><path class="cls-3" d="M66.5,11.25c3,2.19,6.91,9.14,2.29,14.85s-11.37,6-16.46,2.7A11.49,11.49,0,0,1,50.9,10.66C56.05,5.77,62,7.94,66.5,11.25Z"/><path class="cls-4" d="M54,10.43h0Z"/><path class="cls-4" d="M54.71,11.16c.35-.17.74-.53.41-.85s-.78,0-1.09.12C53.59,10.83,53.77,11.61,54.71,11.16Z"/><path class="cls-4" d="M54,10.43l.53-.21A.82.82,0,0,0,54,10.43Z"/><path class="cls-4" d="M53.07,12c.14-.1.32-.3.14-.44a.22.22,0,0,0-.33.07.44.44,0,0,0-.22.29C52.63,12.17,52.94,12.06,53.07,12Z"/><path class="cls-4" d="M55.36,11.78a.35.35,0,0,0-.33,0c-.15,0-.35.08-.38.21a.25.25,0,0,0,0,.08l0,0,0,0c0,.15.39,0,.51,0S55.63,11.92,55.36,11.78Z"/><path class="cls-4" d="M54.6,12.11h0Z"/><path class="cls-4" d="M56.09,11c-.15,0-.32.22-.23.36s.44.09.57,0C56.93,11.09,56.28,10.88,56.09,11Z"/><path class="cls-4" d="M56.72,10.07c-.1,0-.29-.06-.37,0a.14.14,0,0,0,0,.18c0,.1.18.2.25.23s.91.32,1,.06S56.91,10.1,56.72,10.07Z"/><path class="cls-4" d="M55.89,9.55c.16.09.72.06.77-.16s-.3-.28-.45-.26a.61.61,0,0,0-.24.14C55.82,9.34,55.71,9.46,55.89,9.55Z"/><path class="cls-4" d="M53.17,10.88c.3-.22,0-.34-.22-.3h0c-.13,0-.46.14-.37.32S53.06,11,53.17,10.88Z"/><path class="cls-4" d="M52,12.26c.1-.13.44-.67,0-.69-.06,0-.13,0-.19.1a1.08,1.08,0,0,0-.39.53C51.28,12.7,51.77,12.48,52,12.26Z"/><path class="cls-4" d="M54,12.41a.74.74,0,0,0-.5,0,1,1,0,0,0-.66.52c-.13.52.78.14,1,.08S54.43,12.57,54,12.41Z"/><path class="cls-4" d="M55.53,12.82c-.15,0-.3.17-.3.29s.52.18.67.11C56.46,13,55.73,12.71,55.53,12.82Z"/><path class="cls-4" d="M59.12,9.94a.23.23,0,0,0-.25.1.69.69,0,0,0,1,0A.57.57,0,0,0,59.12,9.94Z"/><path class="cls-4" d="M57.64,11.28c.31.11,1.16.16,1.23-.28a.75.75,0,0,0-.68-.08C57.92,10.91,57.64,11,57.64,11.28Z"/><path class="cls-4" d="M58.25,9a.44.44,0,0,0-.62-.06.28.28,0,0,0-.15.18A.59.59,0,0,0,58.25,9Z"/><path class="cls-4" d="M60.56,10.81c-.62,0,.18.81.53.55S60.81,10.65,60.56,10.81Z"/><path class="cls-4" d="M51.63,13.4c-.19-.15-.36,0-.47.18-.42.27-.92.91-.52,1.06S51.62,13.75,51.63,13.4Z"/><path class="cls-4" d="M50.48,12.58c-.54.1-.29,1,.23.38C51,12.58,50.7,12.46,50.48,12.58Z"/><path class="cls-4" d="M53.55,14.23a.28.28,0,0,0-.2.25c.21.14.74.15.88-.11S53.73,13.92,53.55,14.23Z"/><path class="cls-4" d="M58.34,12.75l0-.05a.27.27,0,0,0,0,.12s0,.09,0,.11c.11.3.73.31.61-.06S58.49,12.61,58.34,12.75Z"/><path class="cls-4" d="M63.9,12c-.36-.5-1.12,0-.64.16C63.53,12.32,64.26,12.46,63.9,12Z"/><path class="cls-4" d="M51,16.75l.08-.13a.9.9,0,0,0-.4.63c.21.06.85-.36.83-.64S51.14,16.48,51,16.75Z"/><path class="cls-4" d="M56.63,15.34a.14.14,0,0,0,.21,0c.26,0,.74,0,.54-.31S56.7,15.12,56.63,15.34Z"/><path class="cls-4" d="M48.79,15.05a.41.41,0,0,0,0,.22c.32.11,1.13,0,.87-.51S48.88,14.68,48.79,15.05Z"/><path class="cls-4" d="M49.91,13.69h0a.27.27,0,0,0-.33.26.4.4,0,0,0,.56-.21A.36.36,0,0,0,49.91,13.69Z"/><path class="cls-5" d="M51,25c-1.17.86,4.8,5.2,8.69,5a11.47,11.47,0,0,0,9.4-6c1-2.15.67-8.23-.62-7.81-.46.15.11,2.22-1.78,5.35-1.65,2.74-4.47,5.45-8.21,5.26C53.32,26.61,51.74,24.44,51,25Z"/><path class="cls-6" d="M63.78,10a.55.55,0,0,0-.49.84c.33.8,2.28,2.1,2.84,1.88s.58-.87-.24-1.5A4.75,4.75,0,0,0,63.78,10Z"/><path class="cls-6" d="M64.8,11s2.26-2.34,2.9-3.22a39.9,39.9,0,0,0,2.14-4.22s.2-.3.48-.25.19.47.19.47S68.94,7,68.3,7.92c-1.3,1.8-3,3.77-3,3.77Z"/><path class="cls-6" d="M68.74,6.62c-.14,0-3.73-.48-3.73-.48l-.14.22,1.85.3L68.58,7Z"/><path class="cls-6" d="M61,10.82c-3.86,1-9.55-1.77-9.55-1.77s3.8-4.43,7.06-4.77,8.93,2.27,8.93,2.27A13.43,13.43,0,0,1,61,10.82Z"/><path class="cls-7" d="M63.81,10.19a.8.8,0,0,0-.08.79,4.16,4.16,0,0,0,1.4,1.12l.09-.71s-.3-.2-.33-.38a.41.41,0,0,1,0-.27Z"/><path class="cls-7" d="M66.15,6.65a30.48,30.48,0,0,0-6.46.06c-3,.43-7.51,1.87-7.46,2.07s5-1.64,7.36-1.8,6.74,0,6.74,0Z"/><path class="cls-7" d="M64.64,6.76A3.61,3.61,0,0,1,64,7.94a8.25,8.25,0,0,0-1.09,1.68,9.83,9.83,0,0,0,1.26-1.57c.35-.52.81-1.26.81-1.26Z"/><path class="cls-7" d="M61.64,6.78A5.29,5.29,0,0,1,61,8.7c-.66,1.36-.93,1.75-.77,1.78s.66-1,1-1.74.85-2,.85-2Z"/><path class="cls-7" d="M58.72,7.06a3.65,3.65,0,0,1-.23,1.42c-.29,1-.66,1.57-.52,1.64s.48-.86.68-1.59.5-1.62.5-1.62Z"/><path class="cls-7" d="M55.59,7.8a2.39,2.39,0,0,1-.16.84c-.19.52-.48,1-.39,1a1.79,1.79,0,0,0,.54-.92c.13-.46.27-1,.27-1Z"/><path class="cls-7" d="M65,6.68a4.38,4.38,0,0,0-1.13-1.09A3.61,3.61,0,0,0,62.4,5c-.07.07.83.33,1.15.54a11.59,11.59,0,0,1,1.19,1.13Z"/><path class="cls-7" d="M61.91,6.59A2.91,2.91,0,0,0,61,5.36a4.56,4.56,0,0,0-2.06-.8c-.19.07,1.5.49,1.88.87a4.22,4.22,0,0,1,.7,1.2Z"/><path class="cls-7" d="M59.15,6.91a6.28,6.28,0,0,0-1.38-1.09,6.1,6.1,0,0,0-1.66-.43c-.2,0,1.27.33,1.68.62a8.4,8.4,0,0,1,1.05,1Z"/><path class="cls-7" d="M55.58,7.71s0-.24-.73-.5-1.06-.42-.92-.43a4.88,4.88,0,0,1,.91.24,5.66,5.66,0,0,1,1.08.61Z"/><path class="cls-3" d="M46.76,12.36c3,2.2,6.91,9.14,2.29,14.85s-11.38,6.06-16.47,2.7a11.47,11.47,0,0,1-1.42-18.13C36.3,6.88,42.25,9.05,46.76,12.36Z"/><path class="cls-4" d="M34.27,11.55h0Z"/><path class="cls-4" d="M35,12.27c.35-.17.74-.53.41-.85s-.77.05-1.09.12C33.85,11.94,34,12.72,35,12.27Z"/><path class="cls-4" d="M34.28,11.54l.54-.21A.88.88,0,0,0,34.28,11.54Z"/><path class="cls-4" d="M33.33,13.07c.13-.1.31-.3.13-.44a.22.22,0,0,0-.33.07.44.44,0,0,0-.22.29C32.88,13.28,33.19,13.17,33.33,13.07Z"/><path class="cls-4" d="M35.61,12.89a.35.35,0,0,0-.33,0c-.15,0-.35.09-.38.21a.28.28,0,0,0,0,.08.05.05,0,0,1,0,0l0,0c0,.14.38,0,.5,0S35.88,13,35.61,12.89Z"/><path class="cls-4" d="M34.85,13.22l0,0Z"/><path class="cls-4" d="M36.35,12.11c-.15,0-.32.21-.24.36s.44.09.57,0C37.18,12.21,36.53,12,36.35,12.11Z"/><path class="cls-4" d="M37,11.18c-.1,0-.29-.06-.37,0a.15.15,0,0,0,0,.18c0,.1.18.2.25.23s.91.33,1,.07S37.16,11.21,37,11.18Z"/><path class="cls-4" d="M36.14,10.66c.16.09.72.07.78-.16s-.31-.28-.46-.26a.77.77,0,0,0-.24.14C36.07,10.45,36,10.57,36.14,10.66Z"/><path class="cls-4" d="M33.43,12c.29-.22,0-.34-.22-.29h0c-.13,0-.46.15-.37.33S33.32,12.07,33.43,12Z"/><path class="cls-4" d="M32.21,13.37c.11-.12.44-.67.06-.69a.3.3,0,0,0-.2.1,1.06,1.06,0,0,0-.38.53C31.54,13.82,32,13.59,32.21,13.37Z"/><path class="cls-4" d="M34.26,13.52a.83.83,0,0,0-.51,0,1,1,0,0,0-.66.52c-.13.52.78.15,1,.08S34.68,13.68,34.26,13.52Z"/><path class="cls-4" d="M35.78,13.93c-.14.05-.3.17-.3.29s.53.18.67.11C36.71,14.07,36,13.82,35.78,13.93Z"/><path class="cls-4" d="M39.37,11.05a.25.25,0,0,0-.25.1.69.69,0,0,0,1,0A.57.57,0,0,0,39.37,11.05Z"/><path class="cls-4" d="M37.89,12.39c.32.11,1.16.17,1.23-.27a.7.7,0,0,0-.68-.08C38.18,12,37.89,12.11,37.89,12.39Z"/><path class="cls-4" d="M38.5,10.09a.44.44,0,0,0-.62-.06.28.28,0,0,0-.15.18A.59.59,0,0,0,38.5,10.09Z"/><path class="cls-4" d="M40.82,11.92c-.63,0,.18.81.52.55S41.07,11.76,40.82,11.92Z"/><path class="cls-4" d="M31.88,14.51c-.19-.15-.35,0-.46.18-.42.27-.93.91-.53,1.06S31.87,14.86,31.88,14.51Z"/><path class="cls-4" d="M30.73,13.69c-.54.1-.28,1,.23.39C31.28,13.69,31,13.57,30.73,13.69Z"/><path class="cls-4" d="M33.8,15.34a.27.27,0,0,0-.19.25c.2.14.73.15.87-.11S34,15,33.8,15.34Z"/><path class="cls-4" d="M38.6,13.86l0,0a.23.23,0,0,0,0,.11c0,.05,0,.1,0,.11.11.3.73.31.61-.06S38.74,13.72,38.6,13.86Z"/><path class="cls-4" d="M44.15,13.08c-.36-.51-1.12,0-.64.16C43.79,13.44,44.51,13.57,44.15,13.08Z"/><path class="cls-4" d="M31.21,17.87l.07-.14a.9.9,0,0,0-.4.64c.22.05.85-.37.83-.65S31.39,17.59,31.21,17.87Z"/><path class="cls-4" d="M36.88,16.45a.16.16,0,0,0,.21.05c.26,0,.75,0,.54-.32S37,16.23,36.88,16.45Z"/><path class="cls-4" d="M29,16.17a.51.51,0,0,0,0,.22c.32.11,1.14,0,.87-.51S29.14,15.79,29,16.17Z"/><path class="cls-4" d="M30.16,14.81h0a.26.26,0,0,0-.33.26.39.39,0,0,0,.55-.21A.33.33,0,0,0,30.16,14.81Z"/><path class="cls-5" d="M31.21,26.13C30,27,36,31.32,39.9,31.17a11.45,11.45,0,0,0,9.4-6c1-2.14.67-8.23-.61-7.8-.46.15.1,2.21-1.78,5.34-1.66,2.74-4.48,5.45-8.22,5.27C33.58,27.72,32,25.56,31.21,26.13Z"/><path class="cls-6" d="M44,11.07a.54.54,0,0,0-.48.83c.32.8,2.27,2.1,2.83,1.88s.58-.87-.23-1.49A4.64,4.64,0,0,0,44,11.07Z"/><path class="cls-6" d="M45.05,12.14S47.31,9.8,48,8.92a39.83,39.83,0,0,0,2.14-4.23s.2-.3.48-.24.2.46.2.46S49.19,8.14,48.55,9c-1.3,1.81-3,3.77-3,3.77Z"/><path class="cls-6" d="M49,7.73c-.14,0-3.73-.47-3.73-.47l-.14.21L47,7.78l1.85.3Z"/><path class="cls-6" d="M41.22,11.93c-3.86,1-9.55-1.76-9.55-1.76s3.8-4.44,7.07-4.77,8.92,2.27,8.92,2.27A13.44,13.44,0,0,1,41.22,11.93Z"/><path class="cls-7" d="M44.07,11.3a.82.82,0,0,0-.09.79,4,4,0,0,0,1.4,1.12l.09-.71s-.3-.2-.33-.38a.41.41,0,0,1,0-.27Z"/><path class="cls-7" d="M46.41,7.76A30.51,30.51,0,0,0,40,7.82c-3,.44-7.52,1.87-7.47,2.07s5-1.64,7.37-1.8,6.73,0,6.73,0Z"/><path class="cls-7" d="M44.89,7.87a3.36,3.36,0,0,1-.63,1.18,8.47,8.47,0,0,0-1.08,1.68,10.21,10.21,0,0,0,1.25-1.56c.36-.53.81-1.27.81-1.27Z"/><path class="cls-7" d="M41.89,7.9a5.29,5.29,0,0,1-.66,1.91c-.66,1.36-.93,1.75-.76,1.79s.65-1,1-1.75.84-2,.84-2Z"/><path class="cls-7" d="M39,8.17a3.7,3.7,0,0,1-.22,1.42c-.3,1-.66,1.57-.53,1.64s.48-.86.69-1.59.5-1.62.5-1.62Z"/><path class="cls-7" d="M35.84,8.91a2.39,2.39,0,0,1-.16.84c-.18.52-.47,1-.39,1a1.74,1.74,0,0,0,.54-.92c.13-.46.27-1,.27-1Z"/><path class="cls-7" d="M45.24,7.79a4.07,4.07,0,0,0-1.13-1.08,3.51,3.51,0,0,0-1.45-.6c-.08.07.82.33,1.15.54A12.23,12.23,0,0,1,45,7.79Z"/><path class="cls-7" d="M42.16,7.7a2.85,2.85,0,0,0-.92-1.22,4.62,4.62,0,0,0-2.05-.81c-.2.07,1.5.5,1.88.87a4.23,4.23,0,0,1,.69,1.2Z"/><path class="cls-7" d="M39.41,8A6.75,6.75,0,0,0,38,6.93a5.58,5.58,0,0,0-1.66-.42c-.2,0,1.28.32,1.69.61a8.84,8.84,0,0,1,1,1Z"/><path class="cls-7" d="M35.83,8.83s0-.25-.73-.5S34,7.9,34.19,7.9a4.75,4.75,0,0,1,.91.23,6.49,6.49,0,0,1,1.07.61Z"/><path class="cls-3" d="M80.41,22.93c3,2.2,6.91,9.14,2.29,14.85s-11.37,6.06-16.47,2.7a11.49,11.49,0,0,1-1.42-18.14C70,17.45,75.91,19.62,80.41,22.93Z"/><path class="cls-4" d="M67.92,22.12h0Z"/><path class="cls-4" d="M68.61,22.84c.35-.17.75-.53.42-.85s-.78,0-1.1.12C67.5,22.51,67.68,23.29,68.61,22.84Z"/><path class="cls-4" d="M67.94,22.11l.53-.21A.78.78,0,0,0,67.94,22.11Z"/><path class="cls-4" d="M67,23.64c.13-.1.31-.3.14-.44a.23.23,0,0,0-.34.07.43.43,0,0,0-.21.29C66.54,23.85,66.84,23.74,67,23.64Z"/><path class="cls-4" d="M69.27,23.46a.35.35,0,0,0-.33,0c-.16,0-.35.08-.39.21a.11.11,0,0,0,0,.08l0,0,0,0c0,.14.38,0,.51,0S69.53,23.61,69.27,23.46Z"/><path class="cls-4" d="M68.5,23.79l0,0Z"/><path class="cls-4" d="M70,22.68c-.15,0-.32.21-.23.35s.44.1.56,0C70.83,22.78,70.19,22.56,70,22.68Z"/><path class="cls-4" d="M70.63,21.75c-.11,0-.29-.06-.37,0a.15.15,0,0,0,0,.18c0,.1.18.2.25.23s.92.33,1,.07S70.82,21.78,70.63,21.75Z"/><path class="cls-4" d="M69.8,21.23c.15.09.71.07.77-.16s-.31-.28-.45-.26a.6.6,0,0,0-.24.14C69.73,21,69.62,21.14,69.8,21.23Z"/><path class="cls-4" d="M67.08,22.56c.29-.22,0-.34-.22-.3h0c-.14,0-.47.14-.38.33S67,22.64,67.08,22.56Z"/><path class="cls-4" d="M65.86,23.94c.11-.13.44-.67.06-.69a.3.3,0,0,0-.2.1,1.06,1.06,0,0,0-.38.53C65.19,24.39,65.67,24.16,65.86,23.94Z"/><path class="cls-4" d="M67.91,24.09a.8.8,0,0,0-.5,0,1,1,0,0,0-.67.52c-.12.52.79.15,1,.08S68.33,24.25,67.91,24.09Z"/><path class="cls-4" d="M69.44,24.5c-.15.05-.31.17-.3.29s.52.18.67.11C70.37,24.64,69.63,24.39,69.44,24.5Z"/><path class="cls-4" d="M73,21.62a.25.25,0,0,0-.25.1.7.7,0,0,0,1,0A.59.59,0,0,0,73,21.62Z"/><path class="cls-4" d="M71.54,23c.32.11,1.17.17,1.24-.27a.75.75,0,0,0-.69-.09C71.83,22.59,71.55,22.68,71.54,23Z"/><path class="cls-4" d="M72.16,20.66a.44.44,0,0,0-.62-.06.25.25,0,0,0-.15.18A.59.59,0,0,0,72.16,20.66Z"/><path class="cls-4" d="M74.47,22.49c-.63,0,.18.81.53.55S74.72,22.33,74.47,22.49Z"/><path class="cls-4" d="M65.54,25.08c-.2-.15-.36,0-.47.18-.42.27-.93.91-.52,1.06S65.53,25.43,65.54,25.08Z"/><path class="cls-4" d="M64.39,24.26c-.55.1-.29,1,.22.39C64.93,24.26,64.61,24.14,64.39,24.26Z"/><path class="cls-4" d="M67.46,25.91a.27.27,0,0,0-.2.25c.2.14.74.15.87-.11S67.64,25.6,67.46,25.91Z"/><path class="cls-4" d="M72.25,24.43l0,0a.43.43,0,0,0,0,.11c0,.05,0,.09,0,.11.12.3.73.31.62-.06S72.4,24.29,72.25,24.43Z"/><path class="cls-4" d="M77.81,23.65c-.37-.51-1.12,0-.65.15C77.44,24,78.17,24.14,77.81,23.65Z"/><path class="cls-4" d="M64.86,28.43l.07-.13a.93.93,0,0,0-.4.63c.22.06.85-.36.84-.64S65.05,28.16,64.86,28.43Z"/><path class="cls-4" d="M70.53,27a.15.15,0,0,0,.22,0c.26,0,.74,0,.54-.31S70.61,26.8,70.53,27Z"/><path class="cls-4" d="M62.7,26.74a.38.38,0,0,0,0,.22c.32.1,1.13,0,.86-.51S62.79,26.36,62.7,26.74Z"/><path class="cls-4" d="M63.81,25.38h0a.27.27,0,0,0-.33.26.4.4,0,0,0,.56-.21A.36.36,0,0,0,63.81,25.38Z"/><path class="cls-5" d="M64.87,36.69c-1.18.86,4.8,5.2,8.68,5.05a11.47,11.47,0,0,0,9.41-6c1-2.14.67-8.23-.62-7.81-.46.16.1,2.22-1.78,5.35-1.65,2.74-4.48,5.45-8.21,5.27C67.23,38.29,65.64,36.13,64.87,36.69Z"/><path class="cls-6" d="M77.69,21.64a.54.54,0,0,0-.49.83c.32.8,2.27,2.1,2.83,1.88s.59-.87-.23-1.5A4.73,4.73,0,0,0,77.69,21.64Z"/><path class="cls-6" d="M78.7,22.71s2.26-2.34,2.91-3.23a42,42,0,0,0,2.14-4.22s.2-.3.47-.24.2.46.2.46-1.58,3.23-2.21,4.12c-1.3,1.81-3,3.77-3,3.77Z"/><path class="cls-6" d="M82.64,18.3c-.13,0-3.73-.47-3.73-.47l-.13.21,1.85.3,1.85.31Z"/><path class="cls-6" d="M74.87,22.5c-3.85,1-9.55-1.77-9.55-1.77S69.13,16.3,72.39,16s8.93,2.27,8.93,2.27A13.44,13.44,0,0,1,74.87,22.5Z"/><path class="cls-7" d="M77.72,21.87a.82.82,0,0,0-.09.79A4.16,4.16,0,0,0,79,23.78l.1-.71s-.3-.2-.33-.38a.41.41,0,0,1,0-.27Z"/><path class="cls-7" d="M80.06,18.33a30.48,30.48,0,0,0-6.46.06c-3,.44-7.52,1.87-7.46,2.07s4.94-1.64,7.36-1.8,6.74,0,6.74,0Z"/><path class="cls-7" d="M78.54,18.44a3.41,3.41,0,0,1-.62,1.18,8.25,8.25,0,0,0-1.09,1.68,9.93,9.93,0,0,0,1.25-1.57c.36-.52.82-1.26.82-1.26Z"/><path class="cls-7" d="M75.55,18.47a5.23,5.23,0,0,1-.67,1.91c-.66,1.36-.92,1.75-.76,1.78s.66-1,1-1.74.85-2,.85-2Z"/><path class="cls-7" d="M72.63,18.74a3.63,3.63,0,0,1-.23,1.42c-.3,1-.66,1.57-.52,1.64s.48-.86.68-1.59.5-1.62.5-1.62Z"/><path class="cls-7" d="M69.49,19.48a2.13,2.13,0,0,1-.16.84c-.18.52-.47,1-.38,1a1.82,1.82,0,0,0,.53-.92l.28-1Z"/><path class="cls-7" d="M78.9,18.36a4.25,4.25,0,0,0-1.13-1.08,3.53,3.53,0,0,0-1.46-.6c-.08.07.83.33,1.15.54a12.41,12.41,0,0,1,1.18,1.13Z"/><path class="cls-7" d="M75.82,18.27A2.91,2.91,0,0,0,74.9,17a4.73,4.73,0,0,0-2.06-.8c-.19.07,1.5.49,1.88.87a4.1,4.1,0,0,1,.69,1.2Z"/><path class="cls-7" d="M73.06,18.59a6.55,6.55,0,0,0-1.38-1.09A6.06,6.06,0,0,0,70,17.07c-.19,0,1.28.33,1.69.62a9.24,9.24,0,0,1,1,1Z"/><path class="cls-7" d="M69.49,19.39s0-.24-.73-.5-1.07-.42-.92-.42a3.94,3.94,0,0,1,.91.23,6.06,6.06,0,0,1,1.07.61Z"/><path class="cls-3" d="M59.84,19.69c3,2.2,6.91,9.14,2.29,14.85s-11.37,6.06-16.46,2.7A11.49,11.49,0,0,1,44.24,19.1C49.39,14.21,55.34,16.38,59.84,19.69Z"/><path class="cls-4" d="M47.35,18.88h0Z"/><path class="cls-4" d="M48.05,19.6c.35-.17.74-.53.41-.85s-.78,0-1.09.12C46.93,19.27,47.11,20.05,48.05,19.6Z"/><path class="cls-4" d="M47.37,18.87l.53-.21A.82.82,0,0,0,47.37,18.87Z"/><path class="cls-4" d="M46.41,20.4c.14-.1.32-.3.14-.44a.22.22,0,0,0-.33.07.44.44,0,0,0-.22.29C46,20.61,46.28,20.5,46.41,20.4Z"/><path class="cls-4" d="M48.7,20.22a.35.35,0,0,0-.33,0c-.15,0-.35.08-.38.21a.25.25,0,0,0,0,.08l0,0,0,0c0,.14.39,0,.51,0S49,20.37,48.7,20.22Z"/><path class="cls-4" d="M47.94,20.55l0,0Z"/><path class="cls-4" d="M49.43,19.44c-.15,0-.32.21-.23.35s.44.1.57,0C50.27,19.54,49.62,19.32,49.43,19.44Z"/><path class="cls-4" d="M50.06,18.51c-.1,0-.29-.06-.37,0a.14.14,0,0,0,0,.18c0,.1.18.2.25.23s.91.33,1,.07S50.25,18.54,50.06,18.51Z"/><path class="cls-4" d="M49.23,18c.16.09.72.07.77-.16s-.3-.28-.45-.26a.77.77,0,0,0-.24.14C49.16,17.78,49.05,17.9,49.23,18Z"/><path class="cls-4" d="M46.51,19.32c.29-.22,0-.34-.22-.3h0c-.13,0-.46.14-.37.33S46.4,19.4,46.51,19.32Z"/><path class="cls-4" d="M45.3,20.7c.1-.13.44-.67.05-.69a.3.3,0,0,0-.19.1,1.08,1.08,0,0,0-.39.53C44.62,21.15,45.11,20.92,45.3,20.7Z"/><path class="cls-4" d="M47.34,20.85a.8.8,0,0,0-.5,0,1,1,0,0,0-.66.52c-.13.52.78.15,1,.08S47.77,21,47.34,20.85Z"/><path class="cls-4" d="M48.87,21.26c-.15,0-.3.17-.3.29s.52.18.67.11C49.8,21.4,49.07,21.15,48.87,21.26Z"/><path class="cls-4" d="M52.45,18.38a.27.27,0,0,0-.25.1.7.7,0,0,0,1,0A.58.58,0,0,0,52.45,18.38Z"/><path class="cls-4" d="M51,19.72c.31.11,1.16.17,1.23-.27a.73.73,0,0,0-.68-.09C51.26,19.35,51,19.44,51,19.72Z"/><path class="cls-4" d="M51.59,17.42a.44.44,0,0,0-.62-.06.28.28,0,0,0-.15.18A.59.59,0,0,0,51.59,17.42Z"/><path class="cls-4" d="M53.9,19.25c-.62,0,.18.81.53.55S54.15,19.09,53.9,19.25Z"/><path class="cls-4" d="M45,21.84c-.19-.15-.36,0-.47.18-.42.27-.92.91-.52,1.06S45,22.19,45,21.84Z"/><path class="cls-4" d="M43.82,21c-.54.1-.29,1,.23.39C44.37,21,44,20.9,43.82,21Z"/><path class="cls-4" d="M46.89,22.67a.28.28,0,0,0-.2.25c.2.14.74.15.88-.11S47.07,22.36,46.89,22.67Z"/><path class="cls-4" d="M51.68,21.19l0,0a.43.43,0,0,0,0,.11s0,.09,0,.11c.11.3.73.31.61-.06S51.83,21.05,51.68,21.19Z"/><path class="cls-4" d="M57.24,20.41c-.36-.51-1.12,0-.64.15C56.87,20.77,57.6,20.9,57.24,20.41Z"/><path class="cls-4" d="M44.29,25.19l.08-.13a.9.9,0,0,0-.4.63c.21.06.85-.36.83-.64C44.78,24.62,44.48,24.92,44.29,25.19Z"/><path class="cls-4" d="M50,23.78a.14.14,0,0,0,.21,0c.26,0,.74,0,.54-.31S50,23.56,50,23.78Z"/><path class="cls-4" d="M42.13,23.5a.38.38,0,0,0,0,.22c.32.1,1.13,0,.87-.51S42.22,23.12,42.13,23.5Z"/><path class="cls-4" d="M43.25,22.14h0a.27.27,0,0,0-.33.26.4.4,0,0,0,.56-.21A.34.34,0,0,0,43.25,22.14Z"/><path class="cls-5" d="M44.3,33.45c-1.17.86,4.8,5.2,8.69,5a11.47,11.47,0,0,0,9.4-6c1-2.14.67-8.23-.62-7.81-.46.16.11,2.22-1.78,5.35-1.65,2.74-4.47,5.45-8.21,5.27C46.66,35.05,45.08,32.89,44.3,33.45Z"/><path class="cls-6" d="M57.12,18.4a.54.54,0,0,0-.49.83c.33.8,2.28,2.1,2.84,1.88s.58-.87-.24-1.5A4.63,4.63,0,0,0,57.12,18.4Z"/><path class="cls-6" d="M58.14,19.47s2.26-2.34,2.9-3.23A42,42,0,0,0,63.18,12s.2-.3.48-.24.19.46.19.46-1.57,3.23-2.21,4.12c-1.3,1.81-3,3.77-3,3.77Z"/><path class="cls-6" d="M62.08,15.06c-.14,0-3.73-.47-3.73-.47l-.14.21,1.85.3,1.86.31Z"/><path class="cls-6" d="M54.31,19.26c-3.86,1-9.55-1.77-9.55-1.77s3.8-4.43,7.06-4.76S60.75,15,60.75,15A13.44,13.44,0,0,1,54.31,19.26Z"/><path class="cls-7" d="M57.15,18.63a.8.8,0,0,0-.08.79,4.16,4.16,0,0,0,1.4,1.12l.09-.71s-.3-.2-.33-.38a.41.41,0,0,1,0-.27Z"/><path class="cls-7" d="M59.49,15.09a30.48,30.48,0,0,0-6.46.06c-3,.44-7.51,1.87-7.46,2.07s5-1.64,7.36-1.8,6.74,0,6.74,0Z"/><path class="cls-7" d="M58,15.2a3.61,3.61,0,0,1-.63,1.18,8.25,8.25,0,0,0-1.09,1.68,9.83,9.83,0,0,0,1.26-1.57c.35-.52.81-1.26.81-1.26Z"/><path class="cls-7" d="M55,15.23a5.29,5.29,0,0,1-.66,1.91c-.66,1.36-.93,1.75-.77,1.78s.66-1,1-1.74.85-2,.85-2Z"/><path class="cls-7" d="M52.06,15.5a3.63,3.63,0,0,1-.23,1.42c-.29,1-.66,1.57-.52,1.64s.48-.86.68-1.59.5-1.62.5-1.62Z"/><path class="cls-7" d="M48.93,16.24a2.39,2.39,0,0,1-.16.84c-.19.52-.48,1-.39,1a1.81,1.81,0,0,0,.54-.92c.13-.46.27-1,.27-1Z"/><path class="cls-7" d="M58.33,15.12A4.25,4.25,0,0,0,57.2,14a3.53,3.53,0,0,0-1.46-.6c-.07.07.83.33,1.15.54a12.81,12.81,0,0,1,1.19,1.13Z"/><path class="cls-7" d="M55.25,15a2.91,2.91,0,0,0-.92-1.23,4.68,4.68,0,0,0-2.06-.8c-.19.07,1.5.49,1.88.87a4.22,4.22,0,0,1,.7,1.2Z"/><path class="cls-7" d="M52.49,15.35a6.28,6.28,0,0,0-1.38-1.09,6.1,6.1,0,0,0-1.66-.43c-.2,0,1.27.33,1.68.62a8.4,8.4,0,0,1,1,1Z"/><path class="cls-7" d="M48.92,16.15s-.05-.24-.73-.5-1.06-.42-.92-.42a3.94,3.94,0,0,1,.91.23,6.29,6.29,0,0,1,1.08.61Z"/><path class="cls-3" d="M69.56,29.88c3,2.2,6.91,9.14,2.29,14.86s-11.37,6-16.46,2.69A11.48,11.48,0,0,1,54,29.3C59.11,24.4,65.06,26.57,69.56,29.88Z"/><path class="cls-4" d="M57.07,29.07h0Z"/><path class="cls-4" d="M57.77,29.79c.35-.17.74-.53.41-.85s-.78,0-1.09.13C56.65,29.46,56.83,30.24,57.77,29.79Z"/><path class="cls-4" d="M57.09,29.06l.53-.2A.87.87,0,0,0,57.09,29.06Z"/><path class="cls-4" d="M56.13,30.59c.14-.09.31-.29.14-.43a.22.22,0,0,0-.33.07.44.44,0,0,0-.22.29C55.69,30.81,56,30.69,56.13,30.59Z"/><path class="cls-4" d="M58.42,30.41a.35.35,0,0,0-.33,0c-.15,0-.35.09-.38.21a.31.31,0,0,0,0,.09l0,0,0,0c0,.14.39,0,.51,0S58.69,30.56,58.42,30.41Z"/><path class="cls-4" d="M57.66,30.75h0Z"/><path class="cls-4" d="M59.15,29.63c-.15,0-.32.21-.23.36s.44.09.57,0C60,29.73,59.34,29.52,59.15,29.63Z"/><path class="cls-4" d="M59.78,28.71c-.1,0-.29-.07-.37,0a.14.14,0,0,0,0,.18c0,.11.18.2.25.24s.91.32,1,.06S60,28.73,59.78,28.71Z"/><path class="cls-4" d="M59,28.19c.16.08.72.06.77-.17s-.3-.27-.45-.25a.51.51,0,0,0-.24.14C58.88,28,58.77,28.09,59,28.19Z"/><path class="cls-4" d="M56.23,29.51c.29-.21,0-.34-.22-.29h0c-.13,0-.46.15-.37.33S56.12,29.59,56.23,29.51Z"/><path class="cls-4" d="M55,30.89c.11-.12.44-.67.06-.69a.28.28,0,0,0-.19.1,1.1,1.1,0,0,0-.39.54C54.34,31.34,54.83,31.11,55,30.89Z"/><path class="cls-4" d="M57.06,31.05a.74.74,0,0,0-.5,0,1,1,0,0,0-.66.51c-.13.52.78.15,1,.08S57.49,31.2,57.06,31.05Z"/><path class="cls-4" d="M58.59,31.45c-.15.05-.3.17-.3.29s.52.18.67.11C59.52,31.59,58.79,31.34,58.59,31.45Z"/><path class="cls-4" d="M62.17,28.57a.27.27,0,0,0-.25.1.69.69,0,0,0,1,0A.58.58,0,0,0,62.17,28.57Z"/><path class="cls-4" d="M60.7,29.91c.31.11,1.16.17,1.23-.27a.72.72,0,0,0-.68-.08C61,29.55,60.7,29.64,60.7,29.91Z"/><path class="cls-4" d="M61.31,27.61a.44.44,0,0,0-.62-.06.34.34,0,0,0-.15.18A.59.59,0,0,0,61.31,27.61Z"/><path class="cls-4" d="M63.62,29.44c-.62,0,.18.81.53.56S63.87,29.28,63.62,29.44Z"/><path class="cls-4" d="M54.69,32c-.19-.16-.36,0-.47.17-.42.27-.92.91-.52,1.07S54.68,32.38,54.69,32Z"/><path class="cls-4" d="M53.54,31.21c-.54.11-.29,1,.23.39C54.09,31.22,53.76,31.1,53.54,31.21Z"/><path class="cls-4" d="M56.61,32.86a.3.3,0,0,0-.2.25c.2.15.74.16.88-.11S56.79,32.55,56.61,32.86Z"/><path class="cls-4" d="M61.4,31.38l0,0a.52.52,0,0,0,0,.11c0,.05,0,.1,0,.12.11.29.73.3.61-.07S61.55,31.24,61.4,31.38Z"/><path class="cls-4" d="M67,30.6c-.36-.5-1.12,0-.64.16C66.59,31,67.32,31.09,67,30.6Z"/><path class="cls-4" d="M54,35.39l.08-.14a.92.92,0,0,0-.4.64c.21.06.85-.37.83-.65S54.2,35.12,54,35.39Z"/><path class="cls-4" d="M59.69,34a.16.16,0,0,0,.21.05c.26,0,.74,0,.54-.32S59.76,33.75,59.69,34Z"/><path class="cls-4" d="M51.85,33.69a.4.4,0,0,0,0,.22c.32.11,1.13,0,.86-.51S51.94,33.31,51.85,33.69Z"/><path class="cls-4" d="M53,32.33h0a.27.27,0,0,0-.33.27.41.41,0,0,0,.56-.22A.34.34,0,0,0,53,32.33Z"/><path class="cls-5" d="M54,43.65c-1.17.86,4.8,5.19,8.69,5a11.43,11.43,0,0,0,9.4-6c1-2.14.67-8.23-.62-7.8-.46.15.11,2.21-1.78,5.34C68.06,43,65.24,45.69,61.5,45.5,56.38,45.25,54.8,43.08,54,43.65Z"/><path class="cls-6" d="M66.84,28.59a.55.55,0,0,0-.49.83c.33.8,2.28,2.1,2.84,1.88s.58-.87-.24-1.49A4.57,4.57,0,0,0,66.84,28.59Z"/><path class="cls-6" d="M67.85,29.66s2.26-2.34,2.91-3.22a41.89,41.89,0,0,0,2.14-4.23.55.55,0,0,1,.48-.24c.27.05.19.47.19.47S72,25.66,71.36,26.55c-1.3,1.81-3,3.78-3,3.78Z"/><path class="cls-6" d="M71.8,25.25c-.14,0-3.73-.47-3.73-.47l-.14.21,1.85.31,1.86.3Z"/><path class="cls-6" d="M64,29.46c-3.86,1-9.55-1.77-9.55-1.77s3.8-4.44,7.06-4.77,8.93,2.27,8.93,2.27A13.5,13.5,0,0,1,64,29.46Z"/><path class="cls-7" d="M66.87,28.83a.8.8,0,0,0-.08.79,4.09,4.09,0,0,0,1.4,1.11l.09-.7s-.3-.21-.33-.38a.39.39,0,0,1,0-.27Z"/><path class="cls-7" d="M69.21,25.28a30.09,30.09,0,0,0-6.46.07c-3,.43-7.52,1.86-7.46,2.06s5-1.64,7.36-1.8,6.74,0,6.74,0Z"/><path class="cls-7" d="M67.7,25.4a3.52,3.52,0,0,1-.63,1.17A8.89,8.89,0,0,0,66,28.25a10.76,10.76,0,0,0,1.26-1.56c.35-.53.81-1.27.81-1.27Z"/><path class="cls-7" d="M64.7,25.42A5.29,5.29,0,0,1,64,27.33c-.66,1.36-.93,1.76-.77,1.79s.66-1,1-1.75.85-2,.85-2Z"/><path class="cls-7" d="M61.78,25.69a3.63,3.63,0,0,1-.23,1.42c-.29,1-.66,1.58-.52,1.64s.48-.86.68-1.58.5-1.63.5-1.63Z"/><path class="cls-7" d="M58.65,26.43a2.36,2.36,0,0,1-.16.84c-.19.52-.48,1-.39,1a1.82,1.82,0,0,0,.54-.91c.13-.47.27-1,.27-1Z"/><path class="cls-7" d="M68.05,25.31a4.43,4.43,0,0,0-1.13-1.08,3.53,3.53,0,0,0-1.46-.6c-.07.07.83.33,1.15.54a12.62,12.62,0,0,1,1.19,1.14Z"/><path class="cls-7" d="M65,25.23A2.91,2.91,0,0,0,64.05,24,4.44,4.44,0,0,0,62,23.2c-.19.06,1.5.49,1.88.86a4.36,4.36,0,0,1,.7,1.21Z"/><path class="cls-7" d="M62.21,25.54a6.6,6.6,0,0,0-1.38-1.09A5.66,5.66,0,0,0,59.17,24c-.2,0,1.27.33,1.68.62a8.6,8.6,0,0,1,1,1Z"/><path class="cls-7" d="M58.64,26.35s0-.25-.73-.5-1.06-.43-.92-.43a4.16,4.16,0,0,1,.91.24,5.82,5.82,0,0,1,1.08.6Z"/><path class="cls-3" d="M18.72,19.74c-3,2.19-6.92,9.14-2.29,14.85s11.37,6,16.46,2.69a11.48,11.48,0,0,0,1.43-18.13C29.17,14.25,23.22,16.42,18.72,19.74Z"/><path class="cls-4" d="M31.21,18.92h0Z"/><path class="cls-4" d="M30.51,19.64c-.35-.17-.74-.53-.41-.84s.78,0,1.09.12C31.63,19.32,31.44,20.1,30.51,19.64Z"/><path class="cls-4" d="M31.19,18.92l-.53-.21A.82.82,0,0,1,31.19,18.92Z"/><path class="cls-4" d="M32.14,20.45c-.13-.1-.31-.3-.13-.44a.22.22,0,0,1,.33.07.44.44,0,0,1,.22.29C32.59,20.66,32.28,20.55,32.14,20.45Z"/><path class="cls-4" d="M29.86,20.27a.3.3,0,0,1,.33,0c.15,0,.35.08.38.21a.25.25,0,0,1,0,.08l0,0,0,0c0,.15-.39,0-.51,0S29.59,20.41,29.86,20.27Z"/><path class="cls-4" d="M30.62,20.6h0Z"/><path class="cls-4" d="M29.12,19.48c.15.05.32.21.24.36s-.44.09-.57,0C28.29,19.58,28.94,19.37,29.12,19.48Z"/><path class="cls-4" d="M28.5,18.56c.1,0,.29-.07.37,0a.12.12,0,0,1,0,.17c0,.11-.18.2-.25.24s-.91.32-1,.06S28.31,18.58,28.5,18.56Z"/><path class="cls-4" d="M29.33,18c-.16.08-.72.06-.77-.16s.3-.28.45-.26a.61.61,0,0,1,.24.14C29.4,17.83,29.51,17.94,29.33,18Z"/><path class="cls-4" d="M32,19.36c-.29-.21,0-.33.23-.29h0c.13,0,.46.14.37.32S32.16,19.45,32,19.36Z"/><path class="cls-4" d="M33.26,20.75c-.1-.13-.44-.67,0-.7a.27.27,0,0,1,.19.11,1.15,1.15,0,0,1,.39.53C33.93,21.19,33.45,21,33.26,20.75Z"/><path class="cls-4" d="M31.21,20.9a.76.76,0,0,1,.51,0c.28.08.61.3.66.52.13.51-.78.14-1,.07S30.79,21.06,31.21,20.9Z"/><path class="cls-4" d="M29.69,21.31c.14.05.3.17.3.29s-.52.17-.67.11C28.76,21.44,29.49,21.19,29.69,21.31Z"/><path class="cls-4" d="M26.1,18.42a.26.26,0,0,1,.25.11.68.68,0,0,1-1,0A.59.59,0,0,1,26.1,18.42Z"/><path class="cls-4" d="M27.58,19.77c-.31.11-1.16.16-1.23-.28a.75.75,0,0,1,.68-.08C27.3,19.4,27.58,19.49,27.58,19.77Z"/><path class="cls-4" d="M27,17.47a.44.44,0,0,1,.62-.07.32.32,0,0,1,.15.19A.61.61,0,0,1,27,17.47Z"/><path class="cls-4" d="M24.66,19.3c.62,0-.18.8-.53.55S24.41,19.13,24.66,19.3Z"/><path class="cls-4" d="M33.59,21.89c.19-.16.36,0,.47.18.42.27.92.9.52,1.06S33.6,22.23,33.59,21.89Z"/><path class="cls-4" d="M34.74,21.06c.54.11.29,1-.23.39C34.19,21.07,34.52,21,34.74,21.06Z"/><path class="cls-4" d="M31.67,22.71a.31.31,0,0,1,.2.25c-.21.15-.74.16-.88-.11S31.49,22.4,31.67,22.71Z"/><path class="cls-4" d="M26.87,21.24l0,0a.26.26,0,0,1,0,.11c0,.05,0,.1,0,.12-.11.29-.73.3-.61-.07S26.73,21.09,26.87,21.24Z"/><path class="cls-4" d="M21.32,20.45c.36-.5,1.12,0,.64.16C21.68,20.81,21,20.94,21.32,20.45Z"/><path class="cls-4" d="M34.27,25.24l-.08-.13a.9.9,0,0,1,.4.63c-.21.06-.85-.37-.83-.65S34.08,25,34.27,25.24Z"/><path class="cls-4" d="M28.59,23.82a.16.16,0,0,1-.21.05c-.26,0-.74,0-.54-.32S28.52,23.6,28.59,23.82Z"/><path class="cls-4" d="M36.43,23.54a.53.53,0,0,1,0,.22c-.32.11-1.14,0-.87-.51S36.33,23.17,36.43,23.54Z"/><path class="cls-4" d="M35.31,22.18h0a.26.26,0,0,1,.32.27.39.39,0,0,1-.55-.22A.41.41,0,0,1,35.31,22.18Z"/><path class="cls-5" d="M34.26,33.5c1.17.86-4.8,5.19-8.69,5a11.44,11.44,0,0,1-9.4-6c-1-2.15-.67-8.23.62-7.81.45.15-.11,2.22,1.78,5.34,1.65,2.75,4.47,5.46,8.21,5.27C31.89,35.1,33.48,32.93,34.26,33.5Z"/><path class="cls-6" d="M21.44,18.44a.55.55,0,0,1,.48.84c-.32.8-2.27,2.09-2.83,1.88s-.58-.87.23-1.5A4.73,4.73,0,0,1,21.44,18.44Z"/><path class="cls-6" d="M20.42,19.51s-2.26-2.34-2.9-3.22a39.9,39.9,0,0,1-2.14-4.22s-.2-.3-.48-.25-.2.47-.2.47,1.58,3.23,2.22,4.11c1.3,1.81,3,3.78,3,3.78Z"/><path class="cls-6" d="M16.48,15.1l3.73-.47.14.22-1.86.3-1.85.3Z"/><path class="cls-6" d="M24.25,19.31c3.86,1,9.55-1.77,9.55-1.77s-3.8-4.43-7.06-4.77S17.81,15,17.81,15A13.5,13.5,0,0,0,24.25,19.31Z"/><path class="cls-7" d="M21.41,18.68a.8.8,0,0,1,.08.79,4.09,4.09,0,0,1-1.4,1.11l-.09-.7s.3-.21.33-.38a.39.39,0,0,0,0-.27Z"/><path class="cls-7" d="M19.07,15.14a29.75,29.75,0,0,1,6.46.06c3,.43,7.51,1.86,7.46,2.07s-5-1.64-7.37-1.8-6.73,0-6.73,0Z"/><path class="cls-7" d="M20.58,15.25a3.52,3.52,0,0,0,.63,1.17,8.17,8.17,0,0,1,1.08,1.69A11.13,11.13,0,0,1,21,16.54c-.35-.53-.81-1.27-.81-1.27Z"/><path class="cls-7" d="M23.58,15.27a5.29,5.29,0,0,0,.66,1.91c.66,1.36.93,1.76.77,1.79s-.66-1-1-1.74-.85-2-.85-2Z"/><path class="cls-7" d="M26.5,15.54A3.69,3.69,0,0,0,26.73,17c.29,1,.66,1.57.52,1.64s-.48-.87-.68-1.59-.5-1.63-.5-1.63Z"/><path class="cls-7" d="M29.63,16.29a2.39,2.39,0,0,0,.16.84c.19.51.47,1,.39,1a1.84,1.84,0,0,1-.54-.92c-.13-.46-.27-1-.27-1Z"/><path class="cls-7" d="M20.23,15.17a4.38,4.38,0,0,1,1.13-1.09,3.41,3.41,0,0,1,1.46-.59c.07.07-.83.32-1.15.53a12.62,12.62,0,0,0-1.19,1.14Z"/><path class="cls-7" d="M23.31,15.08a2.91,2.91,0,0,1,.92-1.23,4.56,4.56,0,0,1,2.06-.8c.19.06-1.5.49-1.89.87a4.1,4.1,0,0,0-.69,1.2Z"/><path class="cls-7" d="M26.07,15.39a6.6,6.6,0,0,1,1.38-1.09,5.66,5.66,0,0,1,1.66-.42c.2,0-1.27.33-1.69.62a9.06,9.06,0,0,0-1,1Z"/><path class="cls-7" d="M29.64,16.2s.05-.24.73-.5,1.06-.43.92-.43a4,4,0,0,0-.91.24,5.66,5.66,0,0,0-1.08.61Z"/><path class="cls-3" d="M13,32.57c-3,2.19-6.91,9.14-2.29,14.85s11.37,6,16.46,2.69A11.48,11.48,0,0,0,28.56,32C23.41,27.09,17.46,29.25,13,32.57Z"/><path class="cls-4" d="M25.45,31.75h0Z"/><path class="cls-4" d="M24.75,32.47c-.35-.17-.74-.53-.41-.84s.78,0,1.09.12C25.87,32.15,25.69,32.93,24.75,32.47Z"/><path class="cls-4" d="M25.43,31.75l-.53-.21A.82.82,0,0,1,25.43,31.75Z"/><path class="cls-4" d="M26.38,33.28c-.13-.1-.31-.3-.13-.44a.22.22,0,0,1,.33.07.44.44,0,0,1,.22.29C26.83,33.49,26.52,33.38,26.38,33.28Z"/><path class="cls-4" d="M24.1,33.1a.3.3,0,0,1,.33,0c.15,0,.35.08.38.21a.25.25,0,0,1,0,.08l0,0,0,0c-.05.15-.39,0-.51,0S23.83,33.24,24.1,33.1Z"/><path class="cls-4" d="M24.86,33.43h0Z"/><path class="cls-4" d="M23.37,32.31c.15,0,.32.21.23.36s-.44.09-.57,0C22.53,32.41,23.18,32.2,23.37,32.31Z"/><path class="cls-4" d="M22.74,31.39c.1,0,.29-.06.37,0a.12.12,0,0,1,0,.17c0,.11-.18.2-.25.24s-.91.32-1,.06S22.55,31.41,22.74,31.39Z"/><path class="cls-4" d="M23.57,30.87c-.16.08-.72.06-.77-.16s.3-.28.45-.26a.61.61,0,0,1,.24.14C23.64,30.66,23.75,30.77,23.57,30.87Z"/><path class="cls-4" d="M26.29,32.19c-.3-.21,0-.33.22-.29h0c.13,0,.46.14.37.32S26.4,32.28,26.29,32.19Z"/><path class="cls-4" d="M27.5,33.58c-.1-.13-.44-.67-.05-.69a.23.23,0,0,1,.19.1,1.15,1.15,0,0,1,.39.53C28.18,34,27.69,33.79,27.5,33.58Z"/><path class="cls-4" d="M25.46,33.73a.74.74,0,0,1,.5,0,1,1,0,0,1,.66.52c.13.51-.78.14-1,.07S25,33.89,25.46,33.73Z"/><path class="cls-4" d="M23.93,34.14c.15,0,.3.17.3.29s-.52.18-.67.11C23,34.28,23.73,34,23.93,34.14Z"/><path class="cls-4" d="M20.34,31.26a.23.23,0,0,1,.25.1.68.68,0,0,1-1,0A.58.58,0,0,1,20.34,31.26Z"/><path class="cls-4" d="M21.82,32.6c-.31.11-1.16.16-1.23-.28a.75.75,0,0,1,.68-.08C21.54,32.23,21.82,32.32,21.82,32.6Z"/><path class="cls-4" d="M21.21,30.3a.44.44,0,0,1,.62-.07.32.32,0,0,1,.15.19A.61.61,0,0,1,21.21,30.3Z"/><path class="cls-4" d="M18.9,32.13c.62,0-.18.8-.53.55S18.65,32,18.9,32.13Z"/><path class="cls-4" d="M27.83,34.72c.19-.16.36,0,.47.18.42.27.92.9.52,1.06S27.84,35.06,27.83,34.72Z"/><path class="cls-4" d="M29,33.89c.54.11.29,1-.23.39C28.43,33.9,28.76,33.78,29,33.89Z"/><path class="cls-4" d="M25.91,35.54a.31.31,0,0,1,.2.25c-.21.15-.74.16-.88-.11S25.73,35.23,25.91,35.54Z"/><path class="cls-4" d="M21.12,34.07l0,0a.26.26,0,0,1,0,.11c0,.06,0,.1,0,.12-.11.29-.73.3-.61-.07S21,33.92,21.12,34.07Z"/><path class="cls-4" d="M15.56,33.28c.36-.5,1.12,0,.64.16C15.92,33.64,15.2,33.77,15.56,33.28Z"/><path class="cls-4" d="M28.51,38.07l-.08-.13a.9.9,0,0,1,.4.63c-.21.06-.85-.37-.83-.65S28.32,37.8,28.51,38.07Z"/><path class="cls-4" d="M22.83,36.65c-.08.09-.14.09-.21.05-.26,0-.74,0-.54-.31S22.76,36.43,22.83,36.65Z"/><path class="cls-4" d="M30.67,36.37a.41.41,0,0,1,0,.22c-.32.11-1.13,0-.87-.51S30.57,36,30.67,36.37Z"/><path class="cls-4" d="M29.55,35h0a.27.27,0,0,1,.33.27.4.4,0,0,1-.56-.22A.41.41,0,0,1,29.55,35Z"/><path class="cls-5" d="M28.5,46.33c1.17.86-4.8,5.19-8.69,5a11.44,11.44,0,0,1-9.4-6c-1-2.15-.67-8.23.62-7.81.45.15-.11,2.22,1.78,5.35,1.65,2.74,4.47,5.45,8.21,5.26C26.14,47.93,27.72,45.76,28.5,46.33Z"/><path class="cls-6" d="M15.68,31.27a.55.55,0,0,1,.49.84c-.33.8-2.28,2.1-2.84,1.88s-.58-.87.24-1.5A4.75,4.75,0,0,1,15.68,31.27Z"/><path class="cls-6" d="M14.66,32.34S12.4,30,11.76,29.12A39.9,39.9,0,0,1,9.62,24.9s-.2-.3-.48-.25-.19.47-.19.47,1.57,3.23,2.21,4.12c1.3,1.8,3,3.77,3,3.77Z"/><path class="cls-6" d="M10.72,27.93l3.73-.47.14.22-1.85.3-1.86.31Z"/><path class="cls-6" d="M18.49,32.14c3.86,1,9.55-1.77,9.55-1.77S24.24,25.94,21,25.6s-8.93,2.27-8.93,2.27A13.5,13.5,0,0,0,18.49,32.14Z"/><path class="cls-7" d="M15.65,31.51a.8.8,0,0,1,.08.79,4.09,4.09,0,0,1-1.4,1.11l-.09-.7s.3-.21.33-.38a.39.39,0,0,0,0-.27Z"/><path class="cls-7" d="M13.31,28a30.48,30.48,0,0,1,6.46.06c3,.43,7.51,1.86,7.46,2.07s-4.95-1.64-7.37-1.8-6.73,0-6.73,0Z"/><path class="cls-7" d="M14.82,28.08a3.52,3.52,0,0,0,.63,1.17,7.71,7.71,0,0,1,1.08,1.69,10.55,10.55,0,0,1-1.25-1.57c-.35-.53-.81-1.27-.81-1.27Z"/><path class="cls-7" d="M17.82,28.1A5.29,5.29,0,0,0,18.48,30c.66,1.36.93,1.76.77,1.79s-.66-1-1-1.74-.85-2-.85-2Z"/><path class="cls-7" d="M20.74,28.38A3.65,3.65,0,0,0,21,29.8c.29,1,.66,1.57.52,1.64s-.48-.87-.68-1.59-.5-1.63-.5-1.63Z"/><path class="cls-7" d="M23.87,29.12A2.39,2.39,0,0,0,24,30c.19.51.48,1,.39,1a1.84,1.84,0,0,1-.54-.92c-.13-.46-.27-1-.27-1Z"/><path class="cls-7" d="M14.47,28a4.38,4.38,0,0,1,1.13-1.09,3.41,3.41,0,0,1,1.46-.59c.07.07-.83.32-1.15.53A12.62,12.62,0,0,0,14.72,28Z"/><path class="cls-7" d="M17.55,27.91a2.91,2.91,0,0,1,.92-1.23,4.56,4.56,0,0,1,2.06-.8c.19.06-1.5.49-1.88.87A4,4,0,0,0,18,28Z"/><path class="cls-7" d="M20.31,28.22a6.6,6.6,0,0,1,1.38-1.09,6,6,0,0,1,1.66-.42c.2,0-1.27.33-1.69.62a9.06,9.06,0,0,0-1,1Z"/><path class="cls-7" d="M23.88,29s.05-.24.73-.5,1.06-.43.92-.43a4.69,4.69,0,0,0-.91.24,5.66,5.66,0,0,0-1.08.61Z"/><path class="cls-3" d="M85.68,35.33c3,2.19,6.91,9.14,2.29,14.85s-11.38,6-16.47,2.69a11.47,11.47,0,0,1-1.42-18.13C75.22,29.84,81.17,32,85.68,35.33Z"/><path class="cls-4" d="M73.19,34.51h0Z"/><path class="cls-4" d="M73.88,35.23c.35-.17.74-.53.41-.84s-.77,0-1.09.12C72.77,34.91,73,35.69,73.88,35.23Z"/><path class="cls-4" d="M73.2,34.5l.54-.2A.88.88,0,0,0,73.2,34.5Z"/><path class="cls-4" d="M72.25,36c.13-.1.31-.3.13-.44a.22.22,0,0,0-.33.07.44.44,0,0,0-.22.29C71.8,36.25,72.11,36.13,72.25,36Z"/><path class="cls-4" d="M74.53,35.85a.33.33,0,0,0-.33,0c-.15,0-.35.08-.38.21a.25.25,0,0,0,0,.08l0,0,0,0c0,.15.38,0,.5,0S74.8,36,74.53,35.85Z"/><path class="cls-4" d="M73.77,36.19h0Z"/><path class="cls-4" d="M75.27,35.07c-.15,0-.32.21-.24.36s.44.09.57,0C76.1,35.17,75.45,35,75.27,35.07Z"/><path class="cls-4" d="M75.89,34.15c-.1,0-.29-.07-.37,0a.14.14,0,0,0,0,.17c0,.11.18.2.25.24s.91.32,1,.06S76.08,34.17,75.89,34.15Z"/><path class="cls-4" d="M75.06,33.63c.16.08.72.06.78-.16s-.31-.28-.45-.26a.58.58,0,0,0-.25.14C75,33.42,74.88,33.53,75.06,33.63Z"/><path class="cls-4" d="M72.35,35c.29-.21,0-.33-.22-.29h0c-.13,0-.46.15-.37.33S72.24,35,72.35,35Z"/><path class="cls-4" d="M71.13,36.33c.11-.12.44-.66.06-.69a.27.27,0,0,0-.2.11,1,1,0,0,0-.38.53C70.46,36.78,70.94,36.55,71.13,36.33Z"/><path class="cls-4" d="M73.18,36.49a.74.74,0,0,0-.5,0c-.29.08-.62.3-.67.51-.13.52.78.15,1,.08S73.6,36.65,73.18,36.49Z"/><path class="cls-4" d="M74.7,36.9c-.14.05-.3.17-.3.29s.53.17.67.11C75.63,37,74.9,36.78,74.7,36.9Z"/><path class="cls-4" d="M78.29,34a.26.26,0,0,0-.25.11.68.68,0,0,0,1,0A.59.59,0,0,0,78.29,34Z"/><path class="cls-4" d="M76.81,35.36c.32.11,1.17.16,1.23-.28a.75.75,0,0,0-.68-.08C77.1,35,76.82,35.08,76.81,35.36Z"/><path class="cls-4" d="M77.43,33.06A.46.46,0,0,0,76.8,33a.34.34,0,0,0-.15.18A.61.61,0,0,0,77.43,33.06Z"/><path class="cls-4" d="M79.74,34.89c-.63,0,.18.8.53.55S80,34.72,79.74,34.89Z"/><path class="cls-4" d="M70.8,37.48c-.19-.16-.35,0-.46.18-.42.27-.93.9-.53,1.06S70.79,37.82,70.8,37.48Z"/><path class="cls-4" d="M69.65,36.65c-.54.11-.28,1,.23.39C70.2,36.66,69.87,36.54,69.65,36.65Z"/><path class="cls-4" d="M72.72,38.3a.3.3,0,0,0-.19.25c.2.15.73.16.87-.11S72.9,38,72.72,38.3Z"/><path class="cls-4" d="M77.52,36.82l0,0a.61.61,0,0,0,0,.11s0,.1,0,.12c.11.29.73.3.61-.07S77.66,36.68,77.52,36.82Z"/><path class="cls-4" d="M83.07,36c-.36-.5-1.11,0-.64.16C82.71,36.4,83.43,36.53,83.07,36Z"/><path class="cls-4" d="M70.13,40.83l.07-.13a.9.9,0,0,0-.4.63c.22.06.85-.37.83-.65S70.31,40.56,70.13,40.83Z"/><path class="cls-4" d="M75.8,39.41a.16.16,0,0,0,.21.05c.27,0,.75,0,.54-.32S75.87,39.19,75.8,39.41Z"/><path class="cls-4" d="M68,39.13a.54.54,0,0,0,0,.22c.32.11,1.14,0,.87-.51S68.06,38.76,68,39.13Z"/><path class="cls-4" d="M69.08,37.77h0a.27.27,0,0,0-.33.27.39.39,0,0,0,.55-.22A.39.39,0,0,0,69.08,37.77Z"/><path class="cls-5" d="M70.13,49.09c-1.17.86,4.81,5.19,8.69,5a11.42,11.42,0,0,0,9.4-6c1-2.15.67-8.23-.61-7.81-.46.15.1,2.22-1.78,5.34-1.66,2.75-4.48,5.46-8.22,5.27C72.5,50.69,70.91,48.52,70.13,49.09Z"/><path class="cls-6" d="M83,34a.55.55,0,0,0-.48.84c.32.8,2.27,2.09,2.83,1.88s.59-.87-.23-1.5A4.73,4.73,0,0,0,83,34Z"/><path class="cls-6" d="M84,35.1s2.26-2.34,2.9-3.22A39.83,39.83,0,0,0,89,27.65a.55.55,0,0,1,.48-.24c.28.05.2.47.2.47S88.11,31.11,87.47,32c-1.3,1.81-3,3.78-3,3.78Z"/><path class="cls-6" d="M87.91,30.69l-3.73-.47-.14.21,1.86.31,1.85.3Z"/><path class="cls-6" d="M80.14,34.9c-3.85,1-9.55-1.77-9.55-1.77s3.8-4.43,7.07-4.77,8.93,2.27,8.93,2.27A13.56,13.56,0,0,1,80.14,34.9Z"/><path class="cls-7" d="M83,34.27a.81.81,0,0,0-.09.79,4.09,4.09,0,0,0,1.4,1.11l.09-.7s-.3-.21-.33-.38a.39.39,0,0,1,0-.27Z"/><path class="cls-7" d="M85.33,30.73a29.77,29.77,0,0,0-6.46.06c-3,.43-7.52,1.86-7.46,2.07s4.94-1.64,7.36-1.8,6.73,0,6.73,0Z"/><path class="cls-7" d="M83.81,30.84A3.28,3.28,0,0,1,83.18,32,8.7,8.7,0,0,0,82.1,33.7a10.44,10.44,0,0,0,1.25-1.57c.36-.53.82-1.27.82-1.27Z"/><path class="cls-7" d="M80.81,30.86a5.29,5.29,0,0,1-.66,1.91c-.66,1.36-.93,1.76-.76,1.79s.65-1,1-1.74.84-2,.84-2Z"/><path class="cls-7" d="M77.89,31.13a3.76,3.76,0,0,1-.22,1.43c-.3,1-.66,1.57-.53,1.64s.48-.87.69-1.59.5-1.63.5-1.63Z"/><path class="cls-7" d="M74.76,31.88a2.39,2.39,0,0,1-.16.84c-.18.51-.47,1-.39,1a1.84,1.84,0,0,0,.54-.92l.28-1Z"/><path class="cls-7" d="M84.16,30.76A4.19,4.19,0,0,0,83,29.67a3.3,3.3,0,0,0-1.45-.59c-.08.07.83.32,1.15.53a12.23,12.23,0,0,1,1.18,1.14Z"/><path class="cls-7" d="M81.08,30.67a2.91,2.91,0,0,0-.92-1.23,4.57,4.57,0,0,0-2-.8c-.2.06,1.5.49,1.88.87a4.1,4.1,0,0,1,.69,1.2Z"/><path class="cls-7" d="M78.33,31a6.75,6.75,0,0,0-1.39-1.09,5.58,5.58,0,0,0-1.66-.42c-.19,0,1.28.33,1.69.62a9.06,9.06,0,0,1,1,1Z"/><path class="cls-7" d="M74.76,31.79s-.05-.24-.74-.5-1.06-.43-.91-.43a4.31,4.31,0,0,1,.91.24,5.46,5.46,0,0,1,1.07.61Z"/><path class="cls-3" d="M90.42,45.46c3,2.19,6.91,9.14,2.29,14.85s-11.37,6-16.46,2.7a11.49,11.49,0,0,1-1.43-18.14C80,40,85.92,42.15,90.42,45.46Z"/><path class="cls-4" d="M77.93,44.64h0Z"/><path class="cls-4" d="M78.63,45.37c.35-.17.74-.53.41-.85s-.78,0-1.09.12C77.51,45,77.69,45.82,78.63,45.37Z"/><path class="cls-4" d="M78,44.64l.53-.21A.82.82,0,0,0,78,44.64Z"/><path class="cls-4" d="M77,46.17c.14-.1.31-.3.14-.44a.22.22,0,0,0-.33.07.44.44,0,0,0-.22.29C76.55,46.38,76.86,46.27,77,46.17Z"/><path class="cls-4" d="M79.28,46A.35.35,0,0,0,79,46c-.15,0-.35.08-.38.21a.25.25,0,0,0,0,.08l0,0,0,0c0,.14.39,0,.51,0S79.55,46.13,79.28,46Z"/><path class="cls-4" d="M78.52,46.32h0Z"/><path class="cls-4" d="M80,45.2c-.15,0-.32.22-.23.36s.44.09.56,0C80.85,45.31,80.2,45.09,80,45.2Z"/><path class="cls-4" d="M80.64,44.28c-.1,0-.29-.06-.37,0a.14.14,0,0,0,0,.18c0,.1.18.2.25.23s.91.32,1,.06S80.83,44.31,80.64,44.28Z"/><path class="cls-4" d="M79.81,43.76c.16.09.71.06.77-.16s-.3-.28-.45-.26a.61.61,0,0,0-.24.14C79.74,43.55,79.63,43.67,79.81,43.76Z"/><path class="cls-4" d="M77.09,45.09c.29-.22,0-.34-.22-.3h0c-.13,0-.46.14-.37.32S77,45.17,77.09,45.09Z"/><path class="cls-4" d="M75.87,46.47c.11-.13.44-.67.06-.69-.07,0-.13,0-.19.1a1.08,1.08,0,0,0-.39.53C75.2,46.91,75.69,46.69,75.87,46.47Z"/><path class="cls-4" d="M77.92,46.62a.8.8,0,0,0-.5,0,1,1,0,0,0-.66.52c-.13.52.78.14,1,.08S78.35,46.78,77.92,46.62Z"/><path class="cls-4" d="M79.45,47c-.15,0-.3.17-.3.29s.52.18.67.11C80.38,47.17,79.65,46.92,79.45,47Z"/><path class="cls-4" d="M83,44.15a.25.25,0,0,0-.25.1.7.7,0,0,0,1,0A.58.58,0,0,0,83,44.15Z"/><path class="cls-4" d="M81.56,45.49c.31.11,1.16.17,1.23-.28a.75.75,0,0,0-.68-.08C81.84,45.12,81.56,45.21,81.56,45.49Z"/><path class="cls-4" d="M82.17,43.19a.44.44,0,0,0-.62-.06.28.28,0,0,0-.15.18A.59.59,0,0,0,82.17,43.19Z"/><path class="cls-4" d="M84.48,45c-.62,0,.18.81.53.55S84.73,44.86,84.48,45Z"/><path class="cls-4" d="M75.55,47.61c-.19-.15-.36,0-.47.18-.42.27-.92.91-.52,1.06S75.54,48,75.55,47.61Z"/><path class="cls-4" d="M74.4,46.79c-.54.1-.29,1,.23.38C75,46.79,74.62,46.67,74.4,46.79Z"/><path class="cls-4" d="M77.47,48.44a.28.28,0,0,0-.2.25c.2.14.74.15.88-.11S77.65,48.13,77.47,48.44Z"/><path class="cls-4" d="M82.26,47l0,0a.36.36,0,0,0,0,.11s0,.09,0,.11c.11.3.73.31.61-.06S82.41,46.82,82.26,47Z"/><path class="cls-4" d="M87.82,46.17c-.36-.5-1.12,0-.64.16C87.45,46.53,88.18,46.67,87.82,46.17Z"/><path class="cls-4" d="M74.87,51l.08-.13a.9.9,0,0,0-.4.63c.21.06.85-.36.83-.64S75.06,50.69,74.87,51Z"/><path class="cls-4" d="M80.55,49.55a.14.14,0,0,0,.21,0c.26,0,.74,0,.54-.31S80.62,49.33,80.55,49.55Z"/><path class="cls-4" d="M72.71,49.27a.36.36,0,0,0,0,.21c.32.11,1.13,0,.86-.51S72.8,48.89,72.71,49.27Z"/><path class="cls-4" d="M73.83,47.9h0a.27.27,0,0,0-.33.26.4.4,0,0,0,.56-.21A.36.36,0,0,0,73.83,47.9Z"/><path class="cls-5" d="M74.88,59.22c-1.17.86,4.8,5.2,8.69,5a11.47,11.47,0,0,0,9.4-6c1-2.15.67-8.23-.62-7.81-.46.15.11,2.22-1.78,5.35-1.65,2.74-4.47,5.45-8.21,5.27C77.24,60.82,75.66,58.65,74.88,59.22Z"/><path class="cls-6" d="M87.7,44.16a.55.55,0,0,0-.49.84c.33.8,2.28,2.1,2.84,1.88s.58-.87-.24-1.5A4.75,4.75,0,0,0,87.7,44.16Z"/><path class="cls-6" d="M88.71,45.23S91,42.89,91.62,42a42,42,0,0,0,2.14-4.22s.2-.3.48-.25.19.47.19.47-1.57,3.23-2.21,4.12c-1.3,1.8-3,3.77-3,3.77Z"/><path class="cls-6" d="M92.66,40.83c-.14,0-3.73-.47-3.73-.47l-.14.21,1.85.3,1.85.31Z"/><path class="cls-6" d="M84.89,45c-3.86,1-9.55-1.77-9.55-1.77s3.8-4.43,7.06-4.77,8.93,2.27,8.93,2.27A13.43,13.43,0,0,1,84.89,45Z"/><path class="cls-7" d="M87.73,44.4a.8.8,0,0,0-.08.79,4.16,4.16,0,0,0,1.4,1.12l.09-.71s-.3-.2-.33-.38a.41.41,0,0,1,0-.27Z"/><path class="cls-7" d="M90.07,40.86a30.48,30.48,0,0,0-6.46.06c-3,.43-7.52,1.87-7.46,2.07s4.95-1.64,7.36-1.8,6.74,0,6.74,0Z"/><path class="cls-7" d="M88.56,41a3.61,3.61,0,0,1-.63,1.18,8.25,8.25,0,0,0-1.09,1.68,10.43,10.43,0,0,0,1.26-1.57c.35-.52.81-1.26.81-1.26Z"/><path class="cls-7" d="M85.56,41a5.29,5.29,0,0,1-.66,1.92c-.66,1.36-.93,1.75-.77,1.78s.66-1,1-1.74S86,41,86,41Z"/><path class="cls-7" d="M82.64,41.27a3.65,3.65,0,0,1-.23,1.42c-.29,1-.66,1.57-.52,1.64s.48-.86.68-1.59.5-1.62.5-1.62Z"/><path class="cls-7" d="M79.51,42a2.39,2.39,0,0,1-.16.84c-.19.52-.48,1-.39,1A1.87,1.87,0,0,0,79.5,43c.13-.46.27-1,.27-1Z"/><path class="cls-7" d="M88.91,40.89a4.38,4.38,0,0,0-1.13-1.09,3.61,3.61,0,0,0-1.46-.59c-.07.07.83.33,1.15.54a12.81,12.81,0,0,1,1.19,1.13Z"/><path class="cls-7" d="M85.83,40.8a2.91,2.91,0,0,0-.92-1.23,4.56,4.56,0,0,0-2.06-.8c-.19.07,1.5.49,1.88.87a4.22,4.22,0,0,1,.7,1.2Z"/><path class="cls-7" d="M83.07,41.12A6.28,6.28,0,0,0,81.69,40,6.1,6.1,0,0,0,80,39.6c-.2,0,1.27.33,1.68.62a8.4,8.4,0,0,1,1.05,1Z"/><path class="cls-7" d="M79.5,41.92s0-.24-.73-.5S77.71,41,77.85,41a4.88,4.88,0,0,1,.91.24,5.66,5.66,0,0,1,1.08.61Z"/><path class="cls-3" d="M70.68,46c3,2.19,6.91,9.14,2.29,14.85S61.59,66.92,56.5,63.56a11.47,11.47,0,0,1-1.42-18.13C60.22,40.53,66.17,42.7,70.68,46Z"/><path class="cls-4" d="M58.19,45.2h0Z"/><path class="cls-4" d="M58.88,45.92c.35-.17.74-.53.41-.84s-.78,0-1.09.12C57.77,45.6,58,46.38,58.88,45.92Z"/><path class="cls-4" d="M58.2,45.19l.54-.2A.88.88,0,0,0,58.2,45.19Z"/><path class="cls-4" d="M57.25,46.72c.13-.09.31-.29.13-.43a.22.22,0,0,0-.33.07.44.44,0,0,0-.22.29C56.8,46.94,57.11,46.82,57.25,46.72Z"/><path class="cls-4" d="M59.53,46.54a.33.33,0,0,0-.33,0c-.15,0-.35.08-.38.21a.25.25,0,0,0,0,.08l0,0,0,0c0,.15.39,0,.51,0S59.8,46.69,59.53,46.54Z"/><path class="cls-4" d="M58.77,46.88h0Z"/><path class="cls-4" d="M60.27,45.76c-.15,0-.32.21-.24.36s.44.09.57,0C61.1,45.86,60.45,45.65,60.27,45.76Z"/><path class="cls-4" d="M60.89,44.84c-.1,0-.29-.07-.37,0a.14.14,0,0,0,0,.17c0,.11.18.2.25.24s.91.32,1,.06S61.08,44.86,60.89,44.84Z"/><path class="cls-4" d="M60.06,44.32c.16.08.72.06.77-.16s-.3-.28-.45-.26a.61.61,0,0,0-.24.14C60,44.11,59.88,44.22,60.06,44.32Z"/><path class="cls-4" d="M57.35,45.64c.29-.21,0-.33-.23-.29h0c-.13,0-.46.15-.37.33S57.23,45.73,57.35,45.64Z"/><path class="cls-4" d="M56.13,47c.11-.12.44-.66.06-.69a.3.3,0,0,0-.2.1,1.17,1.17,0,0,0-.39.54C55.46,47.47,55.94,47.24,56.13,47Z"/><path class="cls-4" d="M58.18,47.18a.77.77,0,0,0-.51,0c-.28.08-.61.3-.66.51-.13.52.78.15,1,.08S58.6,47.34,58.18,47.18Z"/><path class="cls-4" d="M59.7,47.59c-.14,0-.3.17-.3.29s.53.17.67.11C60.63,47.72,59.9,47.47,59.7,47.59Z"/><path class="cls-4" d="M63.29,44.7a.26.26,0,0,0-.25.11.68.68,0,0,0,1,0A.59.59,0,0,0,63.29,44.7Z"/><path class="cls-4" d="M61.81,46.05c.31.11,1.16.16,1.23-.28a.75.75,0,0,0-.68-.08C62.09,45.68,61.81,45.77,61.81,46.05Z"/><path class="cls-4" d="M62.42,43.75a.44.44,0,0,0-.62-.07.34.34,0,0,0-.15.18A.59.59,0,0,0,62.42,43.75Z"/><path class="cls-4" d="M64.74,45.58c-.63,0,.18.8.52.55S65,45.41,64.74,45.58Z"/><path class="cls-4" d="M55.8,48.17c-.19-.16-.35,0-.47.18-.42.27-.92.9-.52,1.06S55.79,48.51,55.8,48.17Z"/><path class="cls-4" d="M54.65,47.34c-.54.11-.28,1,.23.39C55.2,47.35,54.87,47.23,54.65,47.34Z"/><path class="cls-4" d="M57.72,49a.27.27,0,0,0-.19.25c.2.15.73.16.87-.11S57.9,48.68,57.72,49Z"/><path class="cls-4" d="M62.52,47.51l0,0a.26.26,0,0,0,0,.11c0,.05,0,.1,0,.12.11.29.73.3.61-.07S62.66,47.37,62.52,47.51Z"/><path class="cls-4" d="M68.07,46.73c-.36-.5-1.12,0-.64.16C67.71,47.09,68.43,47.22,68.07,46.73Z"/><path class="cls-4" d="M55.13,51.52l.07-.13a.9.9,0,0,0-.4.63c.22.06.85-.37.83-.65S55.31,51.25,55.13,51.52Z"/><path class="cls-4" d="M60.8,50.1a.16.16,0,0,0,.21,0c.26,0,.74,0,.54-.32S60.87,49.88,60.8,50.1Z"/><path class="cls-4" d="M53,49.82a.53.53,0,0,0,0,.22c.32.11,1.14,0,.87-.51S53.06,49.45,53,49.82Z"/><path class="cls-4" d="M54.08,48.46h0a.27.27,0,0,0-.33.27.4.4,0,0,0,.55-.22A.39.39,0,0,0,54.08,48.46Z"/><path class="cls-5" d="M55.13,59.78c-1.17.86,4.8,5.19,8.69,5a11.44,11.44,0,0,0,9.4-6c1-2.15.67-8.24-.61-7.81-.46.15.1,2.22-1.78,5.34-1.66,2.75-4.48,5.46-8.22,5.27C57.5,61.38,55.91,59.21,55.13,59.78Z"/><path class="cls-6" d="M68,44.72a.55.55,0,0,0-.48.84c.32.79,2.27,2.09,2.83,1.88s.58-.87-.23-1.5A4.73,4.73,0,0,0,68,44.72Z"/><path class="cls-6" d="M69,45.79s2.26-2.34,2.9-3.22A39.83,39.83,0,0,0,74,38.34a.55.55,0,0,1,.48-.24c.28,0,.2.47.2.47s-1.58,3.23-2.22,4.11c-1.3,1.81-3,3.78-3,3.78Z"/><path class="cls-6" d="M72.91,41.38l-3.73-.47-.14.21,1.86.31,1.85.3Z"/><path class="cls-6" d="M65.14,45.59c-3.86,1-9.55-1.77-9.55-1.77s3.8-4.44,7.07-4.77,8.92,2.27,8.92,2.27A13.5,13.5,0,0,1,65.14,45.59Z"/><path class="cls-7" d="M68,45a.81.81,0,0,0-.09.79,4.09,4.09,0,0,0,1.4,1.11l.09-.7s-.3-.21-.33-.38a.39.39,0,0,1,0-.27Z"/><path class="cls-7" d="M70.32,41.42a29.67,29.67,0,0,0-6.45.06c-3,.43-7.52,1.86-7.47,2.06s5-1.63,7.37-1.8,6.73,0,6.73,0Z"/><path class="cls-7" d="M68.81,41.53a3.28,3.28,0,0,1-.63,1.17,8.7,8.7,0,0,0-1.08,1.69,10.44,10.44,0,0,0,1.25-1.57c.35-.53.81-1.27.81-1.27Z"/><path class="cls-7" d="M65.81,41.55a5.29,5.29,0,0,1-.66,1.91c-.66,1.36-.93,1.76-.76,1.79s.65-1,1-1.74.84-2,.84-2Z"/><path class="cls-7" d="M62.89,41.82a3.76,3.76,0,0,1-.22,1.43c-.3,1-.66,1.57-.53,1.64s.48-.87.69-1.59.5-1.63.5-1.63Z"/><path class="cls-7" d="M59.76,42.57a2.39,2.39,0,0,1-.16.84c-.18.51-.47,1-.39,1a1.84,1.84,0,0,0,.54-.92c.13-.46.27-1,.27-1Z"/><path class="cls-7" d="M69.16,41.45A4.19,4.19,0,0,0,68,40.36a3.48,3.48,0,0,0-1.46-.6c-.07.07.83.33,1.15.54a11.47,11.47,0,0,1,1.19,1.14Z"/><path class="cls-7" d="M66.08,41.36a2.91,2.91,0,0,0-.92-1.23,4.57,4.57,0,0,0-2-.8c-.2.06,1.5.49,1.88.86a4.23,4.23,0,0,1,.69,1.21Z"/><path class="cls-7" d="M63.33,41.67a6.75,6.75,0,0,0-1.39-1.09,5.58,5.58,0,0,0-1.66-.42c-.2,0,1.28.33,1.69.62a9.06,9.06,0,0,1,1,1Z"/><path class="cls-7" d="M59.75,42.48s0-.24-.73-.5-1.06-.43-.91-.43a4.31,4.31,0,0,1,.91.24,6,6,0,0,1,1.07.6Z"/><path class="cls-3" d="M51.76,28.22c3,2.19,6.91,9.13,2.29,14.85s-11.37,6-16.46,2.69a11.48,11.48,0,0,1-1.43-18.13C41.31,22.73,47.26,24.9,51.76,28.22Z"/><path class="cls-4" d="M39.27,27.4h0Z"/><path class="cls-4" d="M40,28.12c.35-.17.74-.53.41-.84s-.78,0-1.09.12C38.85,27.79,39,28.58,40,28.12Z"/><path class="cls-4" d="M39.29,27.39l.53-.2A.87.87,0,0,0,39.29,27.39Z"/><path class="cls-4" d="M38.33,28.92c.14-.09.31-.29.14-.43a.22.22,0,0,0-.33.07.44.44,0,0,0-.22.29C37.89,29.14,38.2,29,38.33,28.92Z"/><path class="cls-4" d="M40.62,28.74a.33.33,0,0,0-.33,0c-.16,0-.35.08-.38.21a.25.25,0,0,0,0,.08l0,0,0,0c0,.15.39,0,.51,0S40.89,28.89,40.62,28.74Z"/><path class="cls-4" d="M39.86,29.08h0Z"/><path class="cls-4" d="M41.35,28c-.15,0-.32.21-.23.36s.44.09.56,0C42.19,28.06,41.54,27.85,41.35,28Z"/><path class="cls-4" d="M42,27c-.1,0-.29-.07-.37,0a.14.14,0,0,0,0,.17c0,.11.18.2.26.24s.91.32,1,.06S42.17,27.06,42,27Z"/><path class="cls-4" d="M41.15,26.52c.16.08.71.06.77-.16s-.3-.28-.45-.26a.55.55,0,0,0-.24.14C41.08,26.31,41,26.42,41.15,26.52Z"/><path class="cls-4" d="M38.43,27.84c.29-.21,0-.34-.22-.29h0c-.13,0-.46.15-.37.33S38.32,27.92,38.43,27.84Z"/><path class="cls-4" d="M37.21,29.22c.11-.12.44-.67.06-.69a.26.26,0,0,0-.19.1,1.1,1.1,0,0,0-.39.54C36.54,29.67,37,29.44,37.21,29.22Z"/><path class="cls-4" d="M39.26,29.38a.74.74,0,0,0-.5,0,1,1,0,0,0-.67.51c-.12.52.79.15,1,.08S39.69,29.54,39.26,29.38Z"/><path class="cls-4" d="M40.79,29.79c-.15.05-.3.17-.3.29s.52.17.67.11C41.72,29.92,41,29.67,40.79,29.79Z"/><path class="cls-4" d="M44.37,26.9a.28.28,0,0,0-.25.11.69.69,0,0,0,1.05,0A.6.6,0,0,0,44.37,26.9Z"/><path class="cls-4" d="M42.9,28.25c.31.1,1.16.16,1.23-.28a.75.75,0,0,0-.68-.08C43.18,27.88,42.9,28,42.9,28.25Z"/><path class="cls-4" d="M43.51,26a.45.45,0,0,0-.62-.07.34.34,0,0,0-.15.18A.59.59,0,0,0,43.51,26Z"/><path class="cls-4" d="M45.82,27.77c-.63,0,.18.81.53.56S46.07,27.61,45.82,27.77Z"/><path class="cls-4" d="M36.89,30.37c-.19-.16-.36,0-.47.18-.42.26-.92.9-.52,1.06S36.88,30.71,36.89,30.37Z"/><path class="cls-4" d="M35.74,29.54c-.54.11-.29,1,.23.39C36.29,29.55,36,29.43,35.74,29.54Z"/><path class="cls-4" d="M38.81,31.19a.28.28,0,0,0-.2.25c.2.15.74.16.88-.11S39,30.88,38.81,31.19Z"/><path class="cls-4" d="M43.6,29.71l0,0a.52.52,0,0,0,0,.11s0,.1,0,.12c.11.29.73.3.61-.07S43.75,29.57,43.6,29.71Z"/><path class="cls-4" d="M49.16,28.93c-.36-.5-1.12,0-.65.16C48.79,29.29,49.52,29.42,49.16,28.93Z"/><path class="cls-4" d="M36.21,33.72l.08-.13a.85.85,0,0,0-.4.63c.21.06.85-.37.83-.65S36.4,33.45,36.21,33.72Z"/><path class="cls-4" d="M41.89,32.3a.16.16,0,0,0,.21.05c.26,0,.74,0,.54-.32S42,32.08,41.89,32.3Z"/><path class="cls-4" d="M34.05,32a.41.41,0,0,0,0,.22c.32.11,1.13,0,.86-.51S34.14,31.65,34.05,32Z"/><path class="cls-4" d="M35.17,30.66h0a.27.27,0,0,0-.33.27.41.41,0,0,0,.56-.22A.41.41,0,0,0,35.17,30.66Z"/><path class="cls-5" d="M36.22,42c-1.18.86,4.8,5.19,8.69,5a11.43,11.43,0,0,0,9.4-6c1-2.14.67-8.23-.62-7.8-.46.15.11,2.22-1.78,5.34-1.65,2.75-4.47,5.46-8.21,5.27C38.58,43.58,37,41.41,36.22,42Z"/><path class="cls-6" d="M49,26.92a.55.55,0,0,0-.49.84c.33.79,2.28,2.09,2.84,1.88s.58-.87-.24-1.5A4.71,4.71,0,0,0,49,26.92Z"/><path class="cls-6" d="M50.05,28s2.26-2.34,2.91-3.22a41.89,41.89,0,0,0,2.14-4.23.55.55,0,0,1,.48-.24c.27.05.19.47.19.47S54.2,24,53.56,24.88c-1.3,1.81-3,3.78-3,3.78Z"/><path class="cls-6" d="M54,23.58l-3.73-.47-.14.21,1.85.31,1.85.3Z"/><path class="cls-6" d="M46.22,27.79c-3.85,1-9.55-1.77-9.55-1.77s3.81-4.44,7.07-4.77,8.93,2.27,8.93,2.27A13.5,13.5,0,0,1,46.22,27.79Z"/><path class="cls-7" d="M49.07,27.16A.8.8,0,0,0,49,28a4.09,4.09,0,0,0,1.4,1.11l.09-.7s-.3-.21-.33-.38a.39.39,0,0,1,0-.27Z"/><path class="cls-7" d="M51.41,23.62a29.75,29.75,0,0,0-6.46.06c-3,.43-7.52,1.86-7.46,2.06s4.95-1.63,7.36-1.8,6.74,0,6.74,0Z"/><path class="cls-7" d="M49.9,23.73a3.52,3.52,0,0,1-.63,1.17,8.89,8.89,0,0,0-1.09,1.68A10.21,10.21,0,0,0,49.44,25c.35-.53.81-1.27.81-1.27Z"/><path class="cls-7" d="M46.9,23.75a5.29,5.29,0,0,1-.66,1.91c-.67,1.36-.93,1.76-.77,1.79s.66-1,1-1.74.85-2,.85-2Z"/><path class="cls-7" d="M44,24a3.63,3.63,0,0,1-.23,1.42c-.3,1-.66,1.58-.52,1.65s.48-.87.68-1.59.5-1.63.5-1.63Z"/><path class="cls-7" d="M40.85,24.76a2.36,2.36,0,0,1-.16.84c-.19.52-.48,1-.39,1a1.85,1.85,0,0,0,.53-.92c.14-.47.28-1,.28-1Z"/><path class="cls-7" d="M50.25,23.65a4.38,4.38,0,0,0-1.13-1.09,3.53,3.53,0,0,0-1.46-.6c-.08.07.83.33,1.15.54A12.62,12.62,0,0,1,50,23.64Z"/><path class="cls-7" d="M47.17,23.56a2.91,2.91,0,0,0-.92-1.23,4.44,4.44,0,0,0-2.06-.8c-.19.06,1.5.49,1.88.86a4.36,4.36,0,0,1,.7,1.21Z"/><path class="cls-7" d="M44.41,23.87A6.6,6.6,0,0,0,43,22.78a5.66,5.66,0,0,0-1.66-.42c-.2,0,1.27.33,1.68.62a8.6,8.6,0,0,1,1.05,1Z"/><path class="cls-7" d="M40.84,24.68s-.05-.25-.73-.5-1.07-.43-.92-.43a4.16,4.16,0,0,1,.91.24,5.82,5.82,0,0,1,1.08.6Z"/><path class="cls-3" d="M25.28,43.91c-3,2.2-6.91,9.14-2.29,14.85s11.37,6.06,16.47,2.7a11.48,11.48,0,0,0,1.42-18.14C35.74,38.43,29.79,40.6,25.28,43.91Z"/><path class="cls-4" d="M37.77,43.1h0Z"/><path class="cls-4" d="M37.08,43.82c-.35-.17-.74-.53-.42-.85s.78,0,1.1.12C38.19,43.49,38,44.27,37.08,43.82Z"/><path class="cls-4" d="M37.75,43.09l-.53-.21A.78.78,0,0,1,37.75,43.09Z"/><path class="cls-4" d="M38.71,44.62c-.13-.1-.31-.3-.14-.44a.23.23,0,0,1,.34.07.43.43,0,0,1,.21.29C39.15,44.83,38.85,44.72,38.71,44.62Z"/><path class="cls-4" d="M36.42,44.44a.35.35,0,0,1,.33,0c.16,0,.35.08.39.21a.11.11,0,0,1,0,.08l0,0,0,0c0,.14-.38,0-.51,0S36.16,44.59,36.42,44.44Z"/><path class="cls-4" d="M37.19,44.77h0Z"/><path class="cls-4" d="M35.69,43.66c.15,0,.32.21.23.35s-.44.09-.56,0C34.86,43.76,35.5,43.54,35.69,43.66Z"/><path class="cls-4" d="M35.06,42.73c.11,0,.29-.06.37,0a.15.15,0,0,1,0,.18c0,.1-.18.2-.25.23s-.92.32-1,.06S34.88,42.76,35.06,42.73Z"/><path class="cls-4" d="M35.89,42.21c-.15.09-.71.07-.77-.16s.31-.28.45-.26a.5.5,0,0,1,.24.14C36,42,36.07,42.12,35.89,42.21Z"/><path class="cls-4" d="M38.61,43.54c-.29-.22,0-.34.22-.3h0c.14,0,.47.14.38.32S38.72,43.62,38.61,43.54Z"/><path class="cls-4" d="M39.83,44.92c-.11-.13-.44-.67-.06-.69a.26.26,0,0,1,.2.1,1.06,1.06,0,0,1,.38.53C40.5,45.36,40,45.14,39.83,44.92Z"/><path class="cls-4" d="M37.78,45.07a.8.8,0,0,1,.5,0,1,1,0,0,1,.67.52c.12.52-.79.14-1,.08S37.36,45.23,37.78,45.07Z"/><path class="cls-4" d="M36.26,45.48c.14.05.3.17.29.29s-.52.18-.66.11C35.33,45.62,36.06,45.37,36.26,45.48Z"/><path class="cls-4" d="M32.67,42.6a.23.23,0,0,1,.25.1.7.7,0,0,1-1.05,0A.59.59,0,0,1,32.67,42.6Z"/><path class="cls-4" d="M34.15,43.94c-.32.11-1.17.17-1.23-.28a.75.75,0,0,1,.68-.08C33.86,43.57,34.14,43.66,34.15,43.94Z"/><path class="cls-4" d="M33.53,41.64a.46.46,0,0,1,.63-.06.26.26,0,0,1,.14.18A.59.59,0,0,1,33.53,41.64Z"/><path class="cls-4" d="M31.22,43.47c.63,0-.18.81-.53.55S31,43.31,31.22,43.47Z"/><path class="cls-4" d="M40.15,46.06c.2-.15.36,0,.47.18.42.27.93.91.53,1.06S40.16,46.41,40.15,46.06Z"/><path class="cls-4" d="M41.31,45.24c.54.1.28,1-.23.39C40.76,45.24,41.08,45.12,41.31,45.24Z"/><path class="cls-4" d="M38.23,46.89a.27.27,0,0,1,.2.25c-.2.14-.74.15-.87-.11S38.05,46.58,38.23,46.89Z"/><path class="cls-4" d="M33.44,45.41l0,0a.36.36,0,0,1,0,.11c0,.05,0,.09,0,.11-.11.3-.73.31-.62-.06S33.29,45.27,33.44,45.41Z"/><path class="cls-4" d="M27.88,44.63c.37-.51,1.12,0,.65.15C28.25,45,27.53,45.12,27.88,44.63Z"/><path class="cls-4" d="M40.83,49.41l-.07-.13a.93.93,0,0,1,.4.63c-.22.06-.85-.36-.84-.64C40.35,48.84,40.65,49.14,40.83,49.41Z"/><path class="cls-4" d="M35.16,48a.15.15,0,0,1-.22,0c-.26,0-.74,0-.53-.31S35.08,47.78,35.16,48Z"/><path class="cls-4" d="M43,47.72a.38.38,0,0,1,0,.22c-.32.1-1.13,0-.86-.51S42.9,47.34,43,47.72Z"/><path class="cls-4" d="M41.88,46.35h0a.27.27,0,0,1,.33.26.39.39,0,0,1-.55-.21A.4.4,0,0,1,41.88,46.35Z"/><path class="cls-5" d="M40.82,57.67c1.18.86-4.8,5.2-8.68,5a11.47,11.47,0,0,1-9.41-6c-1-2.14-.66-8.23.62-7.81.46.16-.1,2.22,1.78,5.35,1.65,2.74,4.48,5.45,8.21,5.27C38.46,59.27,40.05,57.1,40.82,57.67Z"/><path class="cls-6" d="M28,42.61a.55.55,0,0,1,.49.84c-.32.8-2.27,2.1-2.83,1.88s-.59-.87.23-1.5A4.86,4.86,0,0,1,28,42.61Z"/><path class="cls-6" d="M27,43.68s-2.26-2.34-2.91-3.22a42,42,0,0,1-2.14-4.22s-.2-.3-.47-.24-.2.46-.2.46,1.58,3.23,2.21,4.12c1.3,1.8,3,3.77,3,3.77Z"/><path class="cls-6" d="M23.05,39.28c.13,0,3.73-.47,3.73-.47l.13.21-1.85.3-1.85.31Z"/><path class="cls-6" d="M30.82,43.48c3.85,1,9.55-1.77,9.55-1.77s-3.81-4.43-7.07-4.77-8.93,2.28-8.93,2.28A13.44,13.44,0,0,0,30.82,43.48Z"/><path class="cls-7" d="M28,42.85a.82.82,0,0,1,.09.79,4.16,4.16,0,0,1-1.4,1.12l-.1-.71s.3-.2.34-.38a.41.41,0,0,0,0-.27Z"/><path class="cls-7" d="M25.63,39.31a30.48,30.48,0,0,1,6.46.06c3,.43,7.52,1.87,7.46,2.07s-4.94-1.64-7.36-1.8-6.74,0-6.74,0Z"/><path class="cls-7" d="M27.15,39.42a3.36,3.36,0,0,0,.63,1.18,8.47,8.47,0,0,1,1.08,1.68,9.93,9.93,0,0,1-1.25-1.57c-.36-.52-.82-1.26-.82-1.26Z"/><path class="cls-7" d="M30.15,39.45a5,5,0,0,0,.66,1.91c.66,1.36.92,1.75.76,1.78s-.66-1-1-1.74-.85-2-.85-2Z"/><path class="cls-7" d="M33.06,39.72a3.65,3.65,0,0,0,.23,1.42c.3,1,.66,1.57.53,1.64s-.49-.86-.69-1.59-.5-1.62-.5-1.62Z"/><path class="cls-7" d="M36.2,40.46a2.13,2.13,0,0,0,.16.84c.18.52.47,1,.38,1a1.88,1.88,0,0,1-.53-.92l-.28-1Z"/><path class="cls-7" d="M26.79,39.34a4.38,4.38,0,0,1,1.13-1.09,3.61,3.61,0,0,1,1.46-.59c.08.07-.83.33-1.15.54a12.41,12.41,0,0,0-1.18,1.13Z"/><path class="cls-7" d="M29.87,39.25A2.88,2.88,0,0,1,30.8,38a4.7,4.7,0,0,1,2.05-.8c.2.07-1.5.49-1.88.87a4.1,4.1,0,0,0-.69,1.2Z"/><path class="cls-7" d="M32.63,39.57A6.42,6.42,0,0,1,34,38.48a6,6,0,0,1,1.66-.43c.19,0-1.28.33-1.69.62a8.84,8.84,0,0,0-1,1Z"/><path class="cls-7" d="M36.2,40.37s0-.24.73-.5,1.07-.42.92-.43a4.88,4.88,0,0,0-.91.24,5.46,5.46,0,0,0-1.07.61Z"/><path class="cls-3" d="M54.27,46c3,2.19,6.91,9.14,2.29,14.85s-11.38,6.05-16.47,2.69a11.47,11.47,0,0,1-1.42-18.13C43.81,40.53,49.76,42.7,54.27,46Z"/><path class="cls-4" d="M41.78,45.2h0Z"/><path class="cls-4" d="M42.47,45.92c.35-.17.74-.53.41-.84s-.78,0-1.09.12C41.36,45.6,41.54,46.38,42.47,45.92Z"/><path class="cls-4" d="M41.79,45.19l.54-.2A.88.88,0,0,0,41.79,45.19Z"/><path class="cls-4" d="M40.84,46.72c.13-.09.31-.29.13-.43a.22.22,0,0,0-.33.07.44.44,0,0,0-.22.29C40.39,46.94,40.7,46.82,40.84,46.72Z"/><path class="cls-4" d="M43.12,46.54a.33.33,0,0,0-.33,0c-.15,0-.35.08-.38.21a.25.25,0,0,0,0,.08l0,0,0,0c0,.15.38,0,.5,0S43.39,46.69,43.12,46.54Z"/><path class="cls-4" d="M42.36,46.88h0Z"/><path class="cls-4" d="M43.86,45.76c-.15,0-.32.21-.24.36s.44.09.57,0C44.69,45.86,44,45.65,43.86,45.76Z"/><path class="cls-4" d="M44.48,44.84c-.1,0-.29-.07-.37,0a.14.14,0,0,0,0,.17c0,.11.18.2.25.24s.91.32,1,.06S44.67,44.86,44.48,44.84Z"/><path class="cls-4" d="M43.65,44.32c.16.08.72.06.77-.16s-.3-.28-.45-.26a.61.61,0,0,0-.24.14C43.58,44.11,43.47,44.22,43.65,44.32Z"/><path class="cls-4" d="M40.94,45.64c.29-.21,0-.33-.22-.29h0c-.13,0-.46.15-.37.33S40.82,45.73,40.94,45.64Z"/><path class="cls-4" d="M39.72,47c.11-.12.44-.66.06-.69a.3.3,0,0,0-.2.1,1.17,1.17,0,0,0-.39.54C39.05,47.47,39.53,47.24,39.72,47Z"/><path class="cls-4" d="M41.77,47.18a.77.77,0,0,0-.51,0c-.28.08-.61.3-.66.51-.13.52.78.15,1,.08S42.19,47.34,41.77,47.18Z"/><path class="cls-4" d="M43.29,47.59c-.14,0-.3.17-.3.29s.53.17.67.11C44.22,47.72,43.49,47.47,43.29,47.59Z"/><path class="cls-4" d="M46.88,44.7a.26.26,0,0,0-.25.11.68.68,0,0,0,1,0A.59.59,0,0,0,46.88,44.7Z"/><path class="cls-4" d="M45.4,46.05c.31.11,1.16.16,1.23-.28a.75.75,0,0,0-.68-.08C45.68,45.68,45.4,45.77,45.4,46.05Z"/><path class="cls-4" d="M46,43.75a.44.44,0,0,0-.62-.07.34.34,0,0,0-.15.18A.59.59,0,0,0,46,43.75Z"/><path class="cls-4" d="M48.33,45.58c-.63,0,.18.8.52.55S48.57,45.41,48.33,45.58Z"/><path class="cls-4" d="M39.39,48.17c-.19-.16-.35,0-.46.18-.43.27-.93.9-.53,1.06S39.38,48.51,39.39,48.17Z"/><path class="cls-4" d="M38.24,47.34c-.54.11-.28,1,.23.39C38.79,47.35,38.46,47.23,38.24,47.34Z"/><path class="cls-4" d="M41.31,49a.27.27,0,0,0-.19.25c.2.15.73.16.87-.11S41.49,48.68,41.31,49Z"/><path class="cls-4" d="M46.11,47.51l0,0a.26.26,0,0,0,0,.11c0,.05,0,.1,0,.12.11.29.73.3.61-.07S46.25,47.37,46.11,47.51Z"/><path class="cls-4" d="M51.66,46.73c-.36-.5-1.12,0-.64.16C51.3,47.09,52,47.22,51.66,46.73Z"/><path class="cls-4" d="M38.72,51.52l.07-.13a.9.9,0,0,0-.4.63c.22.06.85-.37.83-.65S38.9,51.25,38.72,51.52Z"/><path class="cls-4" d="M44.39,50.1a.16.16,0,0,0,.21,0c.26,0,.75,0,.54-.32S44.46,49.88,44.39,50.1Z"/><path class="cls-4" d="M36.55,49.82a.53.53,0,0,0,0,.22c.32.11,1.14,0,.87-.51S36.65,49.45,36.55,49.82Z"/><path class="cls-4" d="M37.67,48.46h0a.27.27,0,0,0-.33.27.4.4,0,0,0,.55-.22A.39.39,0,0,0,37.67,48.46Z"/><path class="cls-5" d="M38.72,59.78c-1.17.86,4.8,5.19,8.69,5a11.44,11.44,0,0,0,9.4-6c1-2.15.67-8.24-.61-7.81-.46.15.1,2.22-1.78,5.34-1.66,2.75-4.48,5.46-8.22,5.27C41.09,61.38,39.5,59.21,38.72,59.78Z"/><path class="cls-6" d="M51.54,44.72a.55.55,0,0,0-.48.84c.32.79,2.27,2.09,2.83,1.88s.58-.87-.23-1.5A4.73,4.73,0,0,0,51.54,44.72Z"/><path class="cls-6" d="M52.56,45.79s2.26-2.34,2.9-3.22a39.83,39.83,0,0,0,2.14-4.23.55.55,0,0,1,.48-.24c.28,0,.2.47.2.47s-1.58,3.23-2.22,4.11c-1.3,1.81-3,3.78-3,3.78Z"/><path class="cls-6" d="M56.5,41.38l-3.73-.47-.14.21,1.86.31,1.85.3Z"/><path class="cls-6" d="M48.73,45.59c-3.86,1-9.55-1.77-9.55-1.77s3.8-4.44,7.07-4.77,8.92,2.27,8.92,2.27A13.5,13.5,0,0,1,48.73,45.59Z"/><path class="cls-7" d="M51.58,45a.81.81,0,0,0-.09.79,4.09,4.09,0,0,0,1.4,1.11l.09-.7s-.3-.21-.33-.38a.39.39,0,0,1,0-.27Z"/><path class="cls-7" d="M53.91,41.42a29.67,29.67,0,0,0-6.45.06c-3,.43-7.52,1.86-7.47,2.06s4.95-1.63,7.37-1.8,6.73,0,6.73,0Z"/><path class="cls-7" d="M52.4,41.53a3.28,3.28,0,0,1-.63,1.17,8.7,8.7,0,0,0-1.08,1.69,10.44,10.44,0,0,0,1.25-1.57c.36-.53.81-1.27.81-1.27Z"/><path class="cls-7" d="M49.4,41.55a5.29,5.29,0,0,1-.66,1.91c-.66,1.36-.93,1.76-.76,1.79s.65-1,1-1.74.84-2,.84-2Z"/><path class="cls-7" d="M46.48,41.82a3.76,3.76,0,0,1-.22,1.43c-.3,1-.66,1.57-.53,1.64s.48-.87.69-1.59.5-1.63.5-1.63Z"/><path class="cls-7" d="M43.35,42.57a2.39,2.39,0,0,1-.16.84c-.18.51-.47,1-.39,1a1.84,1.84,0,0,0,.54-.92c.13-.46.27-1,.27-1Z"/><path class="cls-7" d="M52.75,41.45a4.19,4.19,0,0,0-1.13-1.09,3.48,3.48,0,0,0-1.46-.6c-.07.07.83.33,1.16.54a12.23,12.23,0,0,1,1.18,1.14Z"/><path class="cls-7" d="M49.67,41.36a2.91,2.91,0,0,0-.92-1.23,4.57,4.57,0,0,0-2-.8c-.2.06,1.5.49,1.88.86a4.23,4.23,0,0,1,.69,1.21Z"/><path class="cls-7" d="M46.92,41.67a6.75,6.75,0,0,0-1.39-1.09,5.58,5.58,0,0,0-1.66-.42c-.2,0,1.28.33,1.69.62a9.06,9.06,0,0,1,1,1Z"/><path class="cls-7" d="M43.34,42.48s0-.24-.73-.5-1.06-.43-.91-.43a4.31,4.31,0,0,1,.91.24,6,6,0,0,1,1.07.6Z"/><path class="cls-3" d="M8,45.66c-3,2.2-6.91,9.14-2.29,14.85s11.38,6.06,16.47,2.7a11.48,11.48,0,0,0,1.42-18.14C18.5,40.18,12.55,42.35,8,45.66Z"/><path class="cls-4" d="M20.53,44.85h0Z"/><path class="cls-4" d="M19.84,45.57c-.35-.17-.74-.53-.41-.85s.78,0,1.09.12C21,45.24,20.77,46,19.84,45.57Z"/><path class="cls-4" d="M20.52,44.84,20,44.63A.83.83,0,0,1,20.52,44.84Z"/><path class="cls-4" d="M21.47,46.37c-.13-.1-.31-.3-.13-.44a.22.22,0,0,1,.33.07.44.44,0,0,1,.22.29C21.92,46.58,21.61,46.47,21.47,46.37Z"/><path class="cls-4" d="M19.19,46.19a.35.35,0,0,1,.33,0c.15,0,.35.08.38.21a.25.25,0,0,1,0,.08l0,0,0,0c-.05.14-.39,0-.51,0S18.92,46.34,19.19,46.19Z"/><path class="cls-4" d="M20,46.52h0Z"/><path class="cls-4" d="M18.45,45.4c.15.05.32.22.24.36s-.44.09-.57,0C17.62,45.51,18.27,45.29,18.45,45.4Z"/><path class="cls-4" d="M17.83,44.48c.1,0,.29-.06.37,0a.15.15,0,0,1,0,.18c0,.1-.18.2-.25.23s-.91.32-1,.06S17.64,44.51,17.83,44.48Z"/><path class="cls-4" d="M18.66,44c-.16.09-.72.07-.77-.16s.3-.28.45-.26a.61.61,0,0,1,.24.14C18.73,43.75,18.84,43.87,18.66,44Z"/><path class="cls-4" d="M21.37,45.29c-.29-.22,0-.34.23-.3h0c.13,0,.46.14.37.32S21.49,45.37,21.37,45.29Z"/><path class="cls-4" d="M22.59,46.67c-.11-.13-.44-.67-.06-.69a.26.26,0,0,1,.2.1,1.15,1.15,0,0,1,.39.53C23.26,47.11,22.78,46.89,22.59,46.67Z"/><path class="cls-4" d="M20.54,46.82a.83.83,0,0,1,.51,0,1,1,0,0,1,.66.52c.13.52-.78.14-1,.08S20.12,47,20.54,46.82Z"/><path class="cls-4" d="M19,47.23c.14.05.3.17.3.29s-.53.18-.67.11C18.09,47.37,18.82,47.12,19,47.23Z"/><path class="cls-4" d="M15.43,44.35a.23.23,0,0,1,.25.1.69.69,0,0,1-1,0A.57.57,0,0,1,15.43,44.35Z"/><path class="cls-4" d="M16.91,45.69c-.31.11-1.16.17-1.23-.28a.75.75,0,0,1,.68-.08C16.63,45.32,16.91,45.41,16.91,45.69Z"/><path class="cls-4" d="M16.3,43.39a.44.44,0,0,1,.62-.06.28.28,0,0,1,.15.18A.59.59,0,0,1,16.3,43.39Z"/><path class="cls-4" d="M14,45.22c.63,0-.18.81-.52.55S13.74,45.06,14,45.22Z"/><path class="cls-4" d="M22.92,47.81c.19-.15.35,0,.47.18.42.27.92.91.52,1.06S22.93,48.16,22.92,47.81Z"/><path class="cls-4" d="M24.07,47c.54.1.28,1-.23.39C23.52,47,23.85,46.87,24.07,47Z"/><path class="cls-4" d="M21,48.64a.26.26,0,0,1,.19.25c-.2.14-.73.15-.87-.11S20.82,48.33,21,48.64Z"/><path class="cls-4" d="M16.2,47.16l0,0a.2.2,0,0,1,0,.11c0,.05,0,.09,0,.11-.11.3-.73.31-.61-.06S16.06,47,16.2,47.16Z"/><path class="cls-4" d="M10.65,46.37c.36-.5,1.12,0,.64.16C11,46.73,10.29,46.87,10.65,46.37Z"/><path class="cls-4" d="M23.59,51.16,23.52,51a.9.9,0,0,1,.4.63c-.22.06-.85-.36-.83-.64C23.11,50.59,23.41,50.89,23.59,51.16Z"/><path class="cls-4" d="M17.92,49.75a.14.14,0,0,1-.21,0c-.26,0-.74,0-.54-.31S17.85,49.53,17.92,49.75Z"/><path class="cls-4" d="M25.76,49.47a.47.47,0,0,1,0,.21c-.32.11-1.14,0-.87-.5S25.66,49.09,25.76,49.47Z"/><path class="cls-4" d="M24.64,48.1h0a.26.26,0,0,1,.33.26.39.39,0,0,1-.55-.21A.4.4,0,0,1,24.64,48.1Z"/><path class="cls-5" d="M23.59,59.42c1.17.86-4.8,5.2-8.69,5a11.47,11.47,0,0,1-9.4-6c-1-2.14-.67-8.23.61-7.81.46.15-.1,2.22,1.78,5.35,1.66,2.74,4.48,5.45,8.22,5.27C21.22,61,22.81,58.85,23.59,59.42Z"/><path class="cls-6" d="M10.77,44.36a.55.55,0,0,1,.48.84c-.32.8-2.27,2.1-2.83,1.88s-.58-.87.23-1.5A4.83,4.83,0,0,1,10.77,44.36Z"/><path class="cls-6" d="M9.75,45.43s-2.26-2.34-2.9-3.22A39.9,39.9,0,0,1,4.71,38s-.2-.3-.48-.25-.2.47-.2.47,1.58,3.23,2.22,4.12c1.3,1.8,3,3.77,3,3.77Z"/><path class="cls-6" d="M5.81,41c.14,0,3.73-.47,3.73-.47l.14.21-1.86.3L6,41.38Z"/><path class="cls-6" d="M13.58,45.23c3.86,1,9.55-1.77,9.55-1.77s-3.8-4.43-7.07-4.77S7.14,41,7.14,41A13.44,13.44,0,0,0,13.58,45.23Z"/><path class="cls-7" d="M10.73,44.6a.82.82,0,0,1,.09.79,4.16,4.16,0,0,1-1.4,1.12l-.09-.71s.3-.2.33-.38a.41.41,0,0,0,0-.27Z"/><path class="cls-7" d="M8.4,41.06a30.4,30.4,0,0,1,6.45.06c3,.43,7.52,1.87,7.47,2.07s-4.95-1.64-7.37-1.8-6.73,0-6.73,0Z"/><path class="cls-7" d="M9.91,41.17a3.36,3.36,0,0,0,.63,1.18A8.47,8.47,0,0,1,11.62,44a9.93,9.93,0,0,1-1.25-1.57c-.35-.52-.81-1.26-.81-1.26Z"/><path class="cls-7" d="M12.91,41.2a5.29,5.29,0,0,0,.66,1.91c.66,1.36.93,1.75.76,1.78s-.65-1-1-1.74-.85-2-.85-2Z"/><path class="cls-7" d="M15.83,41.47a3.72,3.72,0,0,0,.22,1.42c.3,1,.66,1.57.53,1.64s-.48-.86-.69-1.59-.49-1.62-.49-1.62Z"/><path class="cls-7" d="M19,42.21a2.39,2.39,0,0,0,.16.84c.18.52.47,1,.39,1a1.79,1.79,0,0,1-.54-.92c-.13-.46-.27-1-.27-1Z"/><path class="cls-7" d="M9.56,41.09A4.19,4.19,0,0,1,10.69,40a3.56,3.56,0,0,1,1.46-.59c.07.07-.83.33-1.15.54a11.62,11.62,0,0,0-1.19,1.13Z"/><path class="cls-7" d="M12.64,41a2.91,2.91,0,0,1,.92-1.23,4.7,4.7,0,0,1,2-.8c.2.07-1.5.49-1.88.87A4.1,4.1,0,0,0,13,41Z"/><path class="cls-7" d="M15.4,41.32a6.28,6.28,0,0,1,1.38-1.09,6,6,0,0,1,1.66-.43c.2,0-1.28.33-1.69.62a8.84,8.84,0,0,0-1,1Z"/><path class="cls-7" d="M19,42.12s0-.24.73-.5,1.06-.42.91-.43a5.09,5.09,0,0,0-.91.24,5.81,5.81,0,0,0-1.07.61Z"/><path class="cls-8" d="M7.58,64.8c1.21,4.8,4.31,16.83,6.17,21.38,2.36,5.73,1.26,8.24,9,9,6.68.67,20.45.36,26.27.21,5.82.15,19.6.46,26.28-.21,7.78-.79,6.68-3.3,9-9,1.87-4.55,5.22-18.45,6.42-23.25Z"/><path class="cls-9" d="M93.06,60.58c-.63-2.28-4.19-1.78-5.9-1.7-.58,0-1.17,0-1.75,0-2.93.06-5.85.09-8.77.13-3.31,0-42.61.84-45.88,1L21,60.33c-2.87.1-5.73.2-8.6.28-.57,0-1.15,0-1.72,0-1.68,0-5.2-.33-5.71,1.93A2.32,2.32,0,0,0,6.72,65.4a14.82,14.82,0,0,0,3.39-.1C13.38,65.1,16.67,65,20,65l9.94-.24L40,64.5c1.23,0,7.54-.08,9.09-.11l8.48-.21,10.28-.26L78,63.7c3.34-.08,6.69-.18,10-.12a15.22,15.22,0,0,0,3.44-.06A2.37,2.37,0,0,0,93.06,60.58Z"/><path class="cls-10" d="M12.09,65.15c-.84-.13-1.05-1.36-1.12-2A4.39,4.39,0,0,1,11.43,61a0,0,0,0,0-.07,0,3.25,3.25,0,0,0-.53,2.72,4,4,0,0,0,.17.63A2.62,2.62,0,0,1,11,61a.06.06,0,0,0-.09-.07,2.88,2.88,0,0,0,.52,4.14h.06a.79.79,0,0,0,.6.25C12.19,65.33,12.18,65.16,12.09,65.15Z"/><path class="cls-10" d="M12.22,65a3.39,3.39,0,0,1-.1-4,.06.06,0,0,0-.09-.08,3.08,3.08,0,0,0-.79,2.07,2.88,2.88,0,0,0,.87,2.15C12.18,65.11,12.27,65,12.22,65Z"/><path class="cls-10" d="M22.13,65a5.29,5.29,0,0,1-.8-4.76.06.06,0,1,0-.11-.05c-.69,1.46-.73,4,.77,5A.1.1,0,0,0,22.13,65Z"/><path class="cls-10" d="M23,65a5.25,5.25,0,0,1-.77-4.67s-.06-.08-.08,0a4,4,0,0,0-.39,2.44c0,.15.06.32.09.49-.07-.15-.15-.31-.21-.47a3.71,3.71,0,0,1,.11-2.46.07.07,0,0,0-.12,0c-.63,1.38-.63,3.39.7,4.4l.05,0a1.93,1.93,0,0,0,.45.49C22.9,65.23,23.05,65.1,23,65Z"/><path class="cls-10" d="M35.33,64.51a6.78,6.78,0,0,1-.93-2.28,4.29,4.29,0,0,1,.21-1.95c0-.13.2-.35.17-.51a.07.07,0,0,0-.07-.06c-.52.1-.71,1.65-.7,2.06a3.32,3.32,0,0,0,1.22,2.83C35.28,64.63,35.37,64.58,35.33,64.51Z"/><path class="cls-10" d="M36.38,64.48c-.85-1.33-1.58-3-1-4.6,0-.08-.07-.11-.11-.05-.72,1.3-.48,4,.95,4.8C36.36,64.69,36.43,64.55,36.38,64.48Z"/><path class="cls-10" d="M50,61.4c-.09-.65,0-1.25,0-1.88,0-.09-.11-.09-.14,0a4.27,4.27,0,0,0,.55,4,.07.07,0,0,0,.11-.07A11.35,11.35,0,0,1,50,61.4Z"/><path class="cls-10" d="M49.94,64.28a8.93,8.93,0,0,1-.86-4.71c0-.1-.12-.11-.14,0a6,6,0,0,0,0,2.6,4.9,4.9,0,0,0,.79,2.25A.12.12,0,0,0,49.94,64.28Z"/><path class="cls-10" d="M49.51,64.47a9.68,9.68,0,0,1-.81-2.28,12,12,0,0,1,0-2.54.08.08,0,1,0-.15,0c-.29,1.51-.52,3.85.77,5C49.4,64.73,49.57,64.59,49.51,64.47Z"/><path class="cls-10" d="M58.51,60.57c0-.34.07-1.15-.16-1.41,0,0-.09,0-.09,0a6.74,6.74,0,0,0,.43,3.67c0,.06.13,0,.12,0C58.72,62.07,58.57,61.33,58.51,60.57Z"/><path class="cls-10" d="M59.51,61.52c0-.78.05-1.56,0-2.33a.08.08,0,0,0-.16,0A9.28,9.28,0,0,0,59.65,64c0,.06.11,0,.1,0C59.7,63.18,59.56,62.35,59.51,61.52Z"/><path class="cls-10" d="M58.92,61.32c-.06-.65,0-1.31,0-2,0-.08-.13-.07-.15,0a6.23,6.23,0,0,0,.44,4.15s.1,0,.09,0A13,13,0,0,1,58.92,61.32Z"/><path class="cls-10" d="M67.36,61.46a15.62,15.62,0,0,0,0-2.37c0-.09-.16-.1-.17,0-.13,1.51-.5,3.72.56,5a.12.12,0,0,0,.2-.12A10.29,10.29,0,0,1,67.36,61.46Z"/><path class="cls-10" d="M68.13,61.69c-.07-.84.09-1.65.08-2.48,0-.11-.15-.09-.17,0-.33,1.37-.73,3.79.43,4.91.07.07.22,0,.2-.12A12.93,12.93,0,0,1,68.13,61.69Z"/><path class="cls-10" d="M80.2,61.71c0-.87-.21-2.4-1-2.94a.06.06,0,0,0-.09.07,9.11,9.11,0,0,1,.62,2.62c.08.74-.28,1.53-.17,2.22,0,.07.1.14.17.1C80.33,63.45,80.21,62.28,80.2,61.71Z"/><path class="cls-10" d="M80.25,58.85a.1.1,0,0,0-.18.1,7,7,0,0,1,.38,4.49c0,.07.06.14.11.07A4.14,4.14,0,0,0,80.25,58.85Z"/><path class="cls-10" d="M90.55,60.55a2.78,2.78,0,0,0-.77-2c-.09-.07-.2,0-.14.14.87,1.32.61,3.21.42,4.67a.15.15,0,0,0,.29.08A7.09,7.09,0,0,0,90.55,60.55Z"/><path class="cls-10" d="M89.44,58.58a.09.09,0,0,0-.16.09A12.12,12.12,0,0,1,89.74,60a10.43,10.43,0,0,1,.12,1.48.15.15,0,0,0,.3,0A3.81,3.81,0,0,0,89.44,58.58Z"/><path class="cls-11" d="M93.06,60.58a2,2,0,0,0-.71-1.07A2.09,2.09,0,0,1,91,60.62a15.46,15.46,0,0,1-3.4.05c-3.3-.05-6.61,0-9.91.12l-10,.22-10.15.25-8.37.2c-1.53,0-7.75.09-9,.11l-10,.22-9.8.23c-3.24.08-6.49.14-9.72.34a14.94,14.94,0,0,1-3.34.1,2.05,2.05,0,0,1-1.47-1.13A2,2,0,0,0,5,62.59,2.32,2.32,0,0,0,6.72,65.4a14.82,14.82,0,0,0,3.39-.1C13.38,65.1,16.67,65,20,65l9.94-.24L40,64.5c1.23,0,7.54-.08,9.09-.11l8.48-.21,10.28-.26L78,63.7c3.34-.08,6.69-.18,10-.12a15.22,15.22,0,0,0,3.44-.06A2.37,2.37,0,0,0,93.06,60.58Z"/><path class="cls-11" d="M80.11,62.75,69.24,63l-11,.27-9.11.22c-1.67,0-8.44.1-9.77.12l-10.84.24-10.68.26c-3.52.09-7,.15-10.57.37-.57,0-1.16.11-1.75.15a2,2,0,0,0,1.25.77,14.82,14.82,0,0,0,3.39-.1C13.38,65.1,16.67,65,20,65l9.94-.24L40,64.5c1.23,0,7.54-.08,9.09-.11l8.48-.21,10.28-.26L78,63.7c3.34-.08,6.69-.18,10-.12a15.22,15.22,0,0,0,3.44-.06,2,2,0,0,0,1.22-.82c-.6,0-1.2-.07-1.78-.07C87.3,62.57,83.71,62.67,80.11,62.75Z"/><g class="cls-12"><path class="cls-13" d="M7.77,61.12a3.06,3.06,0,0,0-1.27.14.16.16,0,0,0,0,.32,4.19,4.19,0,0,0,.5,0,6.48,6.48,0,0,0,.77-.09A.17.17,0,0,0,7.77,61.12Z"/><path class="cls-13" d="M9.11,60.94a1.1,1.1,0,0,0-.54,0,.16.16,0,0,0,0,.31,1.1,1.1,0,0,0,.54,0A.16.16,0,0,0,9.11,60.94Z"/><path class="cls-13" d="M20.45,60.73a26.2,26.2,0,0,0-4.06,0,20.78,20.78,0,0,0-3.7.21.06.06,0,0,0,0,.11,18.28,18.28,0,0,0,3.47.07A35.87,35.87,0,0,0,20.44,61,.14.14,0,0,0,20.45,60.73Z"/><path class="cls-13" d="M32.56,60.54a21.18,21.18,0,0,0-4.21.05c-1.69,0-3.36,0-5,.15-.07,0-.07.12,0,.13,1.56.09,3.14.17,4.71.19a21.5,21.5,0,0,0,4.54-.18A.17.17,0,0,0,32.56,60.54Z"/><path class="cls-13" d="M47.84,60a37.69,37.69,0,0,0-5.52.06,32.49,32.49,0,0,0-5.41.3c-.08,0-.09.15,0,.15,1.72,0,3.4.1,5.12,0a46.88,46.88,0,0,0,5.81-.21A.18.18,0,0,0,47.84,60Z"/><path class="cls-13" d="M56.73,59.91a24.87,24.87,0,0,0-2.59,0c-.89,0-1.81.16-2.69.14a.07.07,0,0,0,0,.14,12.16,12.16,0,0,0,2.34.07,22.48,22.48,0,0,0,3,0A.15.15,0,0,0,56.73,59.91Z"/><path class="cls-13" d="M66.39,59.84c-1.85-.34-3.75.06-5.6,0-.07,0-.08.08,0,.1a14.53,14.53,0,0,0,2.8.14,13.89,13.89,0,0,0,2.81,0A.12.12,0,0,0,66.39,59.84Z"/><path class="cls-13" d="M77.09,59.67c-2.74-.3-5.49,0-8.24-.08-.18,0-.22.27,0,.29a23.73,23.73,0,0,0,3.77.13c1.5-.1,3,0,4.51-.15A.1.1,0,0,0,77.09,59.67Z"/><path class="cls-13" d="M79.08,59.62a1.63,1.63,0,0,0-1.15-.13c-.16,0-.18.29,0,.3a4.93,4.93,0,0,0,1.08.09C79.12,59.86,79.2,59.69,79.08,59.62Z"/><path class="cls-13" d="M88,59.18a30.18,30.18,0,0,0-6.23.16s-.05.08,0,.08a32.42,32.42,0,0,0,6.23,0A.11.11,0,0,0,88,59.18Z"/><path class="cls-13" d="M91.8,59.32a1.51,1.51,0,0,0-.93-.19c-.14,0-.13.22,0,.24.29,0,.55.14.84.16C91.82,59.53,91.91,59.39,91.8,59.32Z"/></g><path class="cls-10" d="M13,74.72a21.05,21.05,0,0,1-.83-3.09,23.13,23.13,0,0,1-.09-3c0-.12-.16-.1-.19,0a10.19,10.19,0,0,0,.8,6.22C12.73,75,13,74.91,13,74.72Z"/><path class="cls-10" d="M15.44,75.47a11.68,11.68,0,0,1-1.17-3,21.74,21.74,0,0,1-.18-3.13c0-.16-.27-.16-.29,0-.17,2.21-.18,4.53,1.35,6.32C15.27,75.77,15.53,75.64,15.44,75.47Z"/><path class="cls-10" d="M17.52,74.45a17.92,17.92,0,0,1-.84-2.6,16.78,16.78,0,0,1-.15-3,.14.14,0,0,0-.28,0,8.51,8.51,0,0,0,1,5.77C17.36,74.76,17.58,74.61,17.52,74.45Z"/><path class="cls-10" d="M17.7,89.34a17.89,17.89,0,0,1-1.26-5,.08.08,0,1,0-.15,0,10.77,10.77,0,0,0,1.21,5.07C17.57,89.57,17.76,89.46,17.7,89.34Z"/><path class="cls-10" d="M19.9,88.88a18,18,0,0,1-1-3.11,9.16,9.16,0,0,0-.46-2.34.12.12,0,0,0-.22.06c.16.87.22,1.77.37,2.65A9.71,9.71,0,0,0,19.62,89,.15.15,0,0,0,19.9,88.88Z"/><path class="cls-10" d="M22.3,89.41A17.36,17.36,0,0,1,21,83.9c0-.17-.31-.18-.32,0a11.2,11.2,0,0,0,1.24,5.66C22.06,89.77,22.4,89.64,22.3,89.41Z"/><path class="cls-10" d="M23.79,82.47a10.34,10.34,0,0,1-1.15-2.89,32.81,32.81,0,0,1-.44-3.43c0-.12-.21-.13-.22,0a10.09,10.09,0,0,0,1.53,6.48C23.62,82.78,23.88,82.63,23.79,82.47Z"/><path class="cls-10" d="M25.6,82.81a25.48,25.48,0,0,1-1-3.29c-.2-1-.26-2.1-.44-3.15a.12.12,0,0,0-.24,0c.26,2.3.37,4.41,1.46,6.5A.12.12,0,0,0,25.6,82.81Z"/><path class="cls-10" d="M27.79,81.63a29.18,29.18,0,0,1-1-4.09.11.11,0,0,0-.21,0,9.51,9.51,0,0,0,1,4.21A.15.15,0,0,0,27.79,81.63Z"/><path class="cls-10" d="M28,76.43a22.06,22.06,0,0,1-.67-2.54c-.15-1-.25-2.1-.38-3.14a.13.13,0,0,0-.26,0,15.07,15.07,0,0,0,1,5.73C27.75,76.65,28,76.6,28,76.43Z"/><path class="cls-10" d="M30.59,76.48a15.67,15.67,0,0,1-1.08-3.06A18.84,18.84,0,0,0,29,70.85a.09.09,0,0,0-.18.05c.37,2,.3,4,1.47,5.76A.18.18,0,0,0,30.59,76.48Z"/><path class="cls-10" d="M31.73,70.83a.07.07,0,0,0-.14,0A43.12,43.12,0,0,0,32.64,76c0,.14.28.08.25-.07C32.58,74.24,32.21,72.5,31.73,70.83Z"/><path class="cls-10" d="M42.1,80.25a.1.1,0,0,0-.19,0,11,11,0,0,0,.2,5.13c0,.18.36.1.32-.09A16.54,16.54,0,0,1,42.1,80.25Z"/><path class="cls-10" d="M43.85,80.47c0-.18-.32-.18-.33,0a15.61,15.61,0,0,0,.61,5.81.15.15,0,0,0,.29-.08A44,44,0,0,1,43.85,80.47Z"/><path class="cls-10" d="M47.85,85.54a22,22,0,0,1-1.15-5.68c0-.18-.27-.13-.27,0a12.79,12.79,0,0,0,1.11,5.77A.17.17,0,0,0,47.85,85.54Z"/><path class="cls-10" d="M49.24,74c0-.09-.17-.09-.17,0a26.94,26.94,0,0,0,.33,6.53.14.14,0,0,0,.28,0A64.3,64.3,0,0,1,49.24,74Z"/><path class="cls-10" d="M51.73,73.43c0-.15-.2-.17-.23,0a13.72,13.72,0,0,0-.09,6.34.14.14,0,0,0,.27,0A29.21,29.21,0,0,1,51.73,73.43Z"/><path class="cls-10" d="M54.11,76.33c-.08-1.16,0-2.33,0-3.48,0-.15-.23-.14-.25,0a13.55,13.55,0,0,0,.66,7.25A.15.15,0,0,0,54.8,80,35.76,35.76,0,0,1,54.11,76.33Z"/><path class="cls-10" d="M65.1,81c.1-1.17.39-2.34.56-3.51a.11.11,0,0,0-.22,0c-.58,2.45-1.19,4.82-.57,7.32a.2.2,0,0,0,.39-.05A17.25,17.25,0,0,1,65.1,81Z"/><path class="cls-10" d="M67.5,78.61a.14.14,0,0,0-.28,0A18.06,18.06,0,0,0,67,85.2a.15.15,0,0,0,.3,0A41,41,0,0,1,67.5,78.61Z"/><path class="cls-10" d="M70.46,80.7a26.8,26.8,0,0,0,.14-3.1c0-.13-.21-.1-.21,0,0,1.12-.29,2.26-.36,3.38a13.39,13.39,0,0,0,.15,3.35.16.16,0,0,0,.31,0C70.45,83.11,70.42,81.91,70.46,80.7Z"/><path class="cls-10" d="M80.44,77.91a16.32,16.32,0,0,0-.88,6.61.12.12,0,0,0,.24,0c.08-1.1.07-2.2.21-3.3s.54-2.18.6-3.27C80.61,77.86,80.47,77.81,80.44,77.91Z"/><path class="cls-10" d="M82.59,78.25c-.37,2.37-1,4.69-.74,7.12,0,.21.37.22.38,0a36.28,36.28,0,0,1,.2-3.76c.12-1.11.39-2.21.42-3.33A.13.13,0,0,0,82.59,78.25Z"/><path class="cls-10" d="M71.56,88.54c0-.78.16-1.56.18-2.34a.08.08,0,0,0-.15,0,6.36,6.36,0,0,0-.34,2.34,9.43,9.43,0,0,0,.23,2.75c0,.18.32.15.29,0A14,14,0,0,1,71.56,88.54Z"/><path class="cls-10" d="M73.89,86.39c0-.11-.14-.14-.19,0a8,8,0,0,0-.07,5.07.14.14,0,0,0,.27-.07A12.5,12.5,0,0,1,73.89,86.39Z"/><path class="cls-10" d="M76.39,86.46a.11.11,0,0,0-.22,0,17.2,17.2,0,0,0,.1,4.7.18.18,0,0,0,.35,0C76.44,89.57,76.59,88,76.39,86.46Z"/><path class="cls-10" d="M73.31,73.31c.07-1,.31-1.9.47-2.86a.08.08,0,0,0-.16,0c-.49,2.09-1,4.08-.29,6.2,0,.12.24.06.22-.06A13.75,13.75,0,0,1,73.31,73.31Z"/><path class="cls-10" d="M76.19,73.35c0-.88.18-1.75.18-2.64,0-.13-.23-.13-.23,0-.15,2.12-.67,4.16,0,6.26.05.19.34.1.32-.09A19.76,19.76,0,0,1,76.19,73.35Z"/><path class="cls-10" d="M79.3,70.81c0-.17-.26-.21-.27,0-.11,2.08-.76,4.14-.37,6.24A.15.15,0,0,0,79,77,60.43,60.43,0,0,1,79.3,70.81Z"/><path class="cls-10" d="M30.92,65.75a19.22,19.22,0,0,1-5.35.46c-.09,0-.1.12,0,.14A9.84,9.84,0,0,0,31,66.07C31.18,66,31.11,65.71,30.92,65.75Z"/><path class="cls-10" d="M31.72,67.6c-1.91.38-4.16,1-6.12.51-.07,0-.1.1,0,.13a6.28,6.28,0,0,0,2.66.33,9.64,9.64,0,0,0,3.57-.68C32,67.82,31.89,67.56,31.72,67.6Z"/><path class="cls-10" d="M25.3,70.58a13.61,13.61,0,0,1-5.05.1c-.07,0-.11.1,0,.13a7.29,7.29,0,0,0,5.16.09C25.55,70.82,25.49,70.54,25.3,70.58Z"/><path class="cls-10" d="M25.63,73.09a21.23,21.23,0,0,1-5.1.14c-.09,0-.13.13,0,.15a9.81,9.81,0,0,0,5.24.08C26,73.4,25.84,73.06,25.63,73.09Z"/><path class="cls-10" d="M25.45,75.31a17.74,17.74,0,0,1-4.77-.12c-.09,0-.12.12,0,.15a7.28,7.28,0,0,0,4.89.24C25.69,75.53,25.61,75.3,25.45,75.31Z"/><path class="cls-10" d="M34.28,77a23,23,0,0,1-6.13.73c-.2,0-.25.3,0,.32a14,14,0,0,0,6.27-.7A.18.18,0,0,0,34.28,77Z"/><path class="cls-10" d="M33.73,79.88a18.73,18.73,0,0,1-5.49.24.14.14,0,0,0-.07.26,9.83,9.83,0,0,0,5.66-.13A.19.19,0,0,0,33.73,79.88Z"/><path class="cls-10" d="M33.55,82.58c-1.5.31-3.34,1-4.88.68a.12.12,0,0,0-.06.22c1.48.51,3.62,0,5-.49A.22.22,0,0,0,33.55,82.58Z"/><path class="cls-10" d="M28.4,84.4c-1.88,0-3.76.34-5.64-.08-.07,0-.1.09,0,.12a9.79,9.79,0,0,0,5.67.29C28.56,84.69,28.61,84.4,28.4,84.4Z"/><path class="cls-10" d="M28.9,86.07a21.23,21.23,0,0,1-5.34.2c-.13,0-.15.17,0,.2a12.7,12.7,0,0,0,5.42,0A.21.21,0,0,0,28.9,86.07Z"/><path class="cls-10" d="M28.85,87.87a16,16,0,0,1-5.38.45c-.11,0-.16.16,0,.19a9.09,9.09,0,0,0,5.5-.36C29.08,88.1,29,87.85,28.85,87.87Z"/><path class="cls-10" d="M19.25,76.93c-2,0-4,.48-6,.23-.12,0-.14.16,0,.19a12.8,12.8,0,0,0,6.12-.15C19.49,77.16,19.39,76.93,19.25,76.93Z"/><path class="cls-10" d="M19,79.71c-1.55-.21-3.1-.18-4.65-.32a.1.1,0,0,0,0,.2A31.37,31.37,0,0,0,19,80C19.16,80,19.2,79.73,19,79.71Z"/><path class="cls-10" d="M19.37,82.08a26.63,26.63,0,0,1-4.64.12.13.13,0,0,0,0,.26,9.11,9.11,0,0,0,4.75-.13A.13.13,0,0,0,19.37,82.08Z"/><path class="cls-10" d="M46.74,75.26c-2.16.07-4.27.15-6.43,0a.08.08,0,0,0,0,.16,17.43,17.43,0,0,0,6.48,0A.13.13,0,0,0,46.74,75.26Z"/><path class="cls-10" d="M48,77.45c-1.38,0-2.76.18-4.15.23a33.56,33.56,0,0,1-3.87-.2.09.09,0,0,0,0,.18,22.39,22.39,0,0,0,8.08.08A.15.15,0,0,0,48,77.45Z"/><path class="cls-10" d="M47.2,79.36a39,39,0,0,1-7.4.14.08.08,0,0,0,0,.16,13.44,13.44,0,0,0,3.23.21,23.84,23.84,0,0,0,4.22-.31A.1.1,0,0,0,47.2,79.36Z"/><path class="cls-10" d="M54,68.18c-1,0-1.89.1-2.85.08s-1.81-.16-2.69-.26a.06.06,0,0,0,0,.12,13.08,13.08,0,0,0,5.56.36C54.11,68.44,54.13,68.18,54,68.18Z"/><path class="cls-10" d="M53.82,69.79a21.65,21.65,0,0,1-5.63-.21c-.08,0-.12.12,0,.16a11.13,11.13,0,0,0,5.7.28A.12.12,0,0,0,53.82,69.79Z"/><path class="cls-10" d="M54.3,71.26a19.61,19.61,0,0,1-7.44.26c-.09,0-.1.1,0,.12a14.09,14.09,0,0,0,7.54-.09C54.54,71.5,54.46,71.23,54.3,71.26Z"/><path class="cls-10" d="M71.87,71.5a21.92,21.92,0,0,1-4,.16,25.57,25.57,0,0,1-3.48-.6.1.1,0,0,0-.06.19,12.78,12.78,0,0,0,7.56.57A.16.16,0,0,0,71.87,71.5Z"/><path class="cls-10" d="M71.09,73.83A20.54,20.54,0,0,1,65,73.57c-.1,0-.14.15,0,.18a11.27,11.27,0,0,0,6.14.42A.17.17,0,0,0,71.09,73.83Z"/><path class="cls-10" d="M72.16,75.89a15.33,15.33,0,0,1-7.67.36c-.18,0-.2.23,0,.27a12.2,12.2,0,0,0,7.85-.31C72.5,76.12,72.37,75.83,72.16,75.89Z"/><path class="cls-10" d="M86.5,70.63a38.5,38.5,0,0,1-5.26-.21c-.12,0-.14.16,0,.19A19.06,19.06,0,0,0,86.5,71C86.7,71,86.7,70.63,86.5,70.63Z"/><path class="cls-10" d="M85.34,72.72a14.52,14.52,0,0,1-4,.07.11.11,0,0,0,0,.22,9.9,9.9,0,0,0,4,0A.16.16,0,0,0,85.34,72.72Z"/><path class="cls-10" d="M84.86,75.46a10.55,10.55,0,0,1-4.43.33c-.11,0-.16.15-.05.19a6.3,6.3,0,0,0,4.56-.21C85.1,75.7,85,75.43,84.86,75.46Z"/><path class="cls-10" d="M78.05,77.92a23.7,23.7,0,0,1-5.19,0c-.1,0-.15.15,0,.18a9.16,9.16,0,0,0,2.45.26,15.73,15.73,0,0,0,2.83-.1A.18.18,0,0,0,78.05,77.92Z"/><path class="cls-10" d="M77.58,81a31.44,31.44,0,0,1-5.57-.5c-.15,0-.21.21-.07.25a17,17,0,0,0,5.64.6C77.78,81.38,77.78,81,77.58,81Z"/><path class="cls-10" d="M77.43,84.13A16.85,16.85,0,0,1,72,83.75a.13.13,0,0,0-.07.25,11.67,11.67,0,0,0,5.56.49A.18.18,0,0,0,77.43,84.13Z"/><g class="cls-14"><path class="cls-8" d="M53.67,68.63c.25,0,.5.37.24.58a3.7,3.7,0,0,1-2.15.49,7.84,7.84,0,0,1-2.84-.46.3.3,0,0,1-.14-.1c-.34-.13-.16-.69.24-.63a16.43,16.43,0,0,0,2.8.22A14.34,14.34,0,0,1,53.67,68.63Z"/><path class="cls-8" d="M51.08,80.09a.31.31,0,0,1-.13.36.33.33,0,0,1-.6.06,8,8,0,0,1-.8-4.15c0-.69,0-2.18.77-2.49a.37.37,0,0,1,.33.09c.38.33.26,1.1.2,1.54A10.77,10.77,0,0,0,51.08,80.09Z"/><path class="cls-8" d="M49.14,71.42c-.53,0-1.42-.34-1.58-.93-.21-.23.1-.67.44-.5,1.61.78,3.64.57,5.36.42.39,0,.45.56.09.66A12.77,12.77,0,0,1,49.14,71.42Z"/><path class="cls-8" d="M52.72,73.52a.34.34,0,0,1,.56.15,3,3,0,0,1-.18,1.86,7.78,7.78,0,0,0,0,2.68c.14.65.41,1.22.57,1.85a.34.34,0,0,1-.5.38c-1.06-.47-1.37-2.09-1.4-3.12S51.8,74.33,52.72,73.52Z"/><path class="cls-8" d="M31.4,72.68c.06.7.13,1.39.24,2.09a1.89,1.89,0,0,1-.06,1,.34.34,0,0,1-.49.2c-1-.64-1.11-2.35-1.15-3.49s0-2,.68-1.88S31.35,72.15,31.4,72.68Z"/><path class="cls-8" d="M32.67,79.57a9.37,9.37,0,0,1-4-.17.34.34,0,0,1-.18-.1.62.62,0,0,1-.14-.14.43.43,0,0,1,.12-.54.1.1,0,0,1,.05,0,.27.27,0,0,1,.28-.16,16.08,16.08,0,0,0,2.86-.14c.84-.09,1.58-.38,2.39-.5a.35.35,0,0,1,.43.32C34.56,79,33.4,79.41,32.67,79.57Z"/><path class="cls-8" d="M34,81.09c-.72,2-4.05,1.7-5.34.57a.33.33,0,0,1,.05-.51.31.31,0,0,1,.4-.27,6.55,6.55,0,0,0,2.82.14c.45-.06,1.48-.59,1.91-.31A.34.34,0,0,1,34,81.09Z"/><path class="cls-8" d="M27.49,73.08c0-.66-.2-1.63.33-2.13a.33.33,0,0,1,.41,0c.57.38.4,1.47.46,2,.1.92.64,1.92.48,2.83a.29.29,0,0,1-.28.24.26.26,0,0,1-.36-.07A5.05,5.05,0,0,1,27.49,73.08Z"/><path class="cls-8" d="M26,66.64a9.4,9.4,0,0,0,2.85.21,9.42,9.42,0,0,1,1.83-.11.34.34,0,0,1,.15.56,4.48,4.48,0,0,1-3.22.71,3,3,0,0,1-1.93-.74.32.32,0,0,1-.06-.15A.33.33,0,0,1,26,66.64Z"/><path class="cls-8" d="M26.51,82.27c-1.54.42-1.77-4.42-1.68-5.12a.35.35,0,0,1,.33-.31.32.32,0,0,1,.51-.06,1.31,1.31,0,0,1,.39.91,13.79,13.79,0,0,0,.46,2.47C26.66,80.58,27.32,82.05,26.51,82.27Z"/><path class="cls-8" d="M25.74,74.39a1.51,1.51,0,0,1-1,.7,4.25,4.25,0,0,1-4.12-.7.32.32,0,0,1,.16-.55.27.27,0,0,1,.28-.06,11.39,11.39,0,0,0,4.43.11C25.71,73.85,25.85,74.19,25.74,74.39Z"/><path class="cls-8" d="M25.2,72.23a4.92,4.92,0,0,1-4.56.46c-.29-.15-.77-.6-.3-.88h0a.37.37,0,0,1,.42-.33,27.67,27.67,0,0,0,4.27.14A.33.33,0,0,1,25.2,72.23Z"/><path class="cls-8" d="M19.38,77.77a.34.34,0,0,1,.34.33c.1,1.3-2.17,1.18-2.94,1.14-.6,0-2.51,0-2.83-.77a.34.34,0,0,1,.28-.6C16,78.28,17.66,77.76,19.38,77.77Z"/><path class="cls-8" d="M14.48,69.84a.18.18,0,0,1,.06-.09,1.17,1.17,0,0,1,.15-.27.68.68,0,0,1,.43-.31.25.25,0,0,1,.39.11,3.27,3.27,0,0,1,.14,1.21A18.43,18.43,0,0,0,16,72.57c.09.36.5,1.38.12,1.7s-.62.13-.88-.18A4.53,4.53,0,0,1,14.48,69.84Z"/><path class="cls-8" d="M12.92,74.09c-.36-.34-.42-1.18-.5-1.64a7.28,7.28,0,0,1,0-2.55.14.14,0,0,1,0-.06.91.91,0,0,1,.44-.71c.73-.38.71,2.88.72,3.12S13.82,75,12.92,74.09Z"/><path class="cls-8" d="M18.87,89a.34.34,0,0,1-.57.24c-.92-.93-1.12-2.43-1.31-3.74,0-.17-.06-.35-.08-.53,0,0,0,0,0-.08v-.06c0-.51.1-.92.57-.92.74,0,.69,1.25.76,1.7A15.46,15.46,0,0,1,18.87,89Z"/><path class="cls-8" d="M18.91,81.48c-1.24.79-5,.7-5.6-.94a.31.31,0,0,1,.14-.36c0-.22.13-.47.4-.36,1.55.61,3.16.26,4.76.49C19.28,80.4,19.58,81.06,18.91,81.48Z"/><path class="cls-8" d="M20.35,88.82a6.64,6.64,0,0,1-1.2-4.17,2.93,2.93,0,0,1,.11-.9c.11-.39.45-.89.93-.61s.3,1,.3,1.51a10,10,0,0,0,.18,2.62,5.41,5.41,0,0,1,.25,1.31A.34.34,0,0,1,20.35,88.82Z"/><path class="cls-8" d="M22.83,77.06a.49.49,0,0,1,.69-.13,2.63,2.63,0,0,1,.31,1.47c.07,1,.39,2,.51,2.95.05.34-.47.44-.62.17A7.11,7.11,0,0,1,22.83,77.06Z"/><path class="cls-8" d="M23.52,84.83c1.23.62,2.7.16,4,.31.23,0,.45.27.29.51-.49.7-1.44.54-2.2.54s-1.95,0-2.48-.76a.26.26,0,0,1,0-.08C22.86,85.12,23.17,84.66,23.52,84.83Z"/><path class="cls-8" d="M23.07,87.14a.34.34,0,0,1,.42-.41l.19.07a.33.33,0,0,1,.22,0,21,21,0,0,0,3.8.3.34.34,0,0,1,.24.57c-.69.7-2.07.54-3,.48S23.38,88,23.07,87.14Z"/><path class="cls-8" d="M69.38,84c0,.34.06.91-.44.91s-.85-.79-1-1.14a5.67,5.67,0,0,1-.29-3.16,7.19,7.19,0,0,1,.43-1.76c.17-.44.51-1.36,1.14-1.29a.49.49,0,0,1,.38.34,2.24,2.24,0,0,1,.13.92l-.09.54c-.08.54-.15,1.09-.21,1.63a13.57,13.57,0,0,0-.09,1.91C69.32,83.3,69.35,83.67,69.38,84Z"/><path class="cls-8" d="M68.15,76.25c-1.08,0-3.5,0-3.7-1.49a.36.36,0,0,1,.12-.34.31.31,0,0,1,.41-.28,10.34,10.34,0,0,0,3.66.65,11.11,11.11,0,0,1,2.21-.18.32.32,0,0,1,.24.32C71,76.29,69.1,76.25,68.15,76.25Z"/><path class="cls-8" d="M66.48,83.62l.06,1a.34.34,0,0,1-.58.24,4.6,4.6,0,0,1-.58-3.61c.15-.86.16-2.5.89-3.11a.34.34,0,0,1,.57.24,11.7,11.7,0,0,1-.28,1.84,2.83,2.83,0,0,0,0,.29c0,.47-.1.94-.11,1.4A16.66,16.66,0,0,0,66.48,83.62Z"/><path class="cls-8" d="M68.36,73.65c-1.13-.05-2.57-.14-3.35-1.1a.27.27,0,0,1-.07-.14c-.18-.23,0-.65.33-.53a10.18,10.18,0,0,0,3.37.6,23.73,23.73,0,0,0,2.67-.32c.27,0,.39.3.29.5C71,73.77,69.42,73.71,68.36,73.65Z"/><path class="cls-8" d="M72.7,91.55a3.63,3.63,0,0,1-1-3.15c.07-.77.11-2.15.87-2.6a.35.35,0,0,1,.5.2,3.11,3.11,0,0,1,0,.61.32.32,0,0,1,.08.29A6.72,6.72,0,0,0,73,89.54a6.6,6.6,0,0,1,.23,1.72C73.2,91.49,72.92,91.72,72.7,91.55Z"/><path class="cls-8" d="M75.7,89.84a4.75,4.75,0,0,1,0,1.19c-.09.31-.33.67-.71.48C74,91,73.81,88.64,73.92,87.68a3.23,3.23,0,0,1,.88-2.2.51.51,0,0,1,.79.11A3.13,3.13,0,0,1,75.82,87a.31.31,0,0,1,0,.19A14.46,14.46,0,0,0,75.7,89.84Z"/><path class="cls-8" d="M76.19,83.52a6.42,6.42,0,0,1-3.31-.47c-1-.26-1.79-.72-1.18-1.43a.33.33,0,0,1,.33-.08l.43.15a10.63,10.63,0,0,0,2.65.23,15.68,15.68,0,0,1,2.65,0,.33.33,0,0,1,.24.23C78.17,83,76.83,83.38,76.19,83.52Z"/><path class="cls-8" d="M76.23,80.57a6.73,6.73,0,0,1-4-1.16.27.27,0,0,1-.09-.3.33.33,0,0,1,.38-.48,13.47,13.47,0,0,0,3.3.27c.86,0,1.77-.11,2.61,0a.34.34,0,0,1,.24.33C78.68,80.27,77,80.59,76.23,80.57Z"/><path class="cls-8" d="M75.5,75.31c.09.42.12,1.13-.41,1.28-1.23.34-1.48-2.73-1.48-3.33s.32-3.8,1.61-3.05a.73.73,0,0,1,.36.62.28.28,0,0,1,.13.36A7.79,7.79,0,0,0,75.5,75.31Z"/><path class="cls-8" d="M78.08,75.49c0,.37.15.79-.12,1.1a.32.32,0,0,1-.4,0c-.78-.4-.92-1.57-1-2.34a7.25,7.25,0,0,1,.45-3.67.49.49,0,0,1,.56-.27.35.35,0,0,1,.37,0c.63.25.41,1.53.19,2.45A12.3,12.3,0,0,0,78.08,75.49Z"/><path class="cls-8" d="M81.89,78.35a27.24,27.24,0,0,0-.31,4.78c0,.53,0,1.61-.64,1.79a.33.33,0,0,1-.33-.08,4.77,4.77,0,0,1-.48-3A14.53,14.53,0,0,1,81,78.32a.5.5,0,0,1,.88,0Z"/><path class="cls-8" d="M86.72,73.63c-.94,1.87-5.32,2.48-6.37.41l0-.1s0,0,0,0a.34.34,0,0,1,0-.1v0a.51.51,0,0,1,.44-.55h.09a.67.67,0,0,1,.39.08,9.16,9.16,0,0,0,5.16-.17C86.64,73,86.84,73.38,86.72,73.63Z"/><path class="cls-8" d="M81,71.27a.33.33,0,0,1,.41-.31,18.44,18.44,0,0,0,4.92.23.34.34,0,0,1,.24.57,4.89,4.89,0,0,1-5.57,0A.31.31,0,0,1,81,71.27Z"/><path class="cls-8" d="M46.88,85.7c.12.4-.16,1-.66.85-1.84-.5-2.2-3.38-2.06-4.93.06-.59.17-1.39.8-1.65.43-.18,1-.17,1.15.38a3.61,3.61,0,0,1,0,1.6A9.58,9.58,0,0,0,46.88,85.7Z"/><path class="cls-8" d="M42.72,79.23A4.43,4.43,0,0,1,40,78.55a.29.29,0,0,1-.09-.28c-.09-.23.08-.55.38-.44,2.23.8,4.41.28,6.7.3a.34.34,0,0,1,.09.66A12.73,12.73,0,0,1,42.72,79.23Z"/><path class="cls-8" d="M43.29,81.59a14.34,14.34,0,0,0,.34,4c0,.29-.32.63-.56.33a4.7,4.7,0,0,1-.81-2.64,6,6,0,0,1,.13-2.6.46.46,0,0,1,.87,0,1.36,1.36,0,0,1,0,.8A.33.33,0,0,1,43.29,81.59Z"/><path class="cls-8" d="M40.35,76h0a.35.35,0,0,1,.18,0,33.46,33.46,0,0,0,6.25,0,.34.34,0,0,1,.33.34c0,1.09-1.8,1-2.53,1-1.56.06-3.23.38-4.51-.74A.34.34,0,0,1,40.35,76Z"/></g><g class="cls-15"><path class="cls-8" d="M7.68,64.8c1.2,4.8,4.3,16.83,6.17,21.38,2.36,5.73,1.26,8.24,9,9,6.69.67,20.46.36,26.28.21,5.82.15,19.59.46,26.28-.21,7.77-.79,6.68-3.3,9-9,1.87-4.55,5.21-18.45,6.42-23.25ZM81.82,85.86a8.4,8.4,0,0,1-1.4,1.32c-2.73,2-6.42,2.64-9.81,2.91-1.94.15-3.88.17-5.83.19-6.83.09-13.64.66-20.47.76q-4.81.08-9.65,0c-5-.1-10.53.42-15.18-1.76a13,13,0,0,1-6.08-6.78c-1.82-4.08-5.55-14.44,3-14,2.4.13,4.76.16,7.16.18,7.4.06,14.79.26,22.19.11q3.21-.06,6.42-.22c7.56-.39,18.54-1.08,26.11-1.29,2.26-.06,5.1-.49,7.22.41C89.8,69.54,83.41,84,81.82,85.86Z"/></g><path class="cls-16" d="M35.3,70.28c-3.27,0-6.54,0-9.8,0-2.39,0-5.48-.48-7.74.31-2.89,1-1.16,4.5-.34,6.15a9.62,9.62,0,0,0,3.95,3.92C26,83.33,32.26,84,37.84,84.26c4.59.21,9.19.12,13.78-.11,6.07-.29,12.34-.2,18.27-1.44a19.33,19.33,0,0,0,13-9.37c.59-1.12,2-3.35.17-4.18-2-.91-24.41.86-33.06,1Q42.63,70.21,35.3,70.28Z"/><g class="cls-17"><path class="cls-8" d="M82.28,90c-5.26,3.84-23,3.14-26.1,3.21-6.29.14-12.58.17-18.87.14-3.17,0-15-.67-17.66-1.21a9.05,9.05,0,0,1-4.57-2.19c1,3.14,1.9,4.69,7.71,5.28,6.68.67,20.45.36,26.27.21,5.82.15,19.6.46,26.28-.21,6.34-.64,6.78-2.43,8-6.17A8.59,8.59,0,0,1,82.28,90Z"/><path class="cls-8" d="M14.44,65.64c4.4-.39,8.86-.11,13.27-.13,6.34,0,12.68-.29,19-.32s12.75.11,19.12,0,12.58-.74,18.83-.41c1.29.06,3.83,0,4.68,1.26a2.34,2.34,0,0,1,.36,1.19l1.06-4.27L7.58,64.8l.65,2.55a5,5,0,0,1,1.47-.71A14.29,14.29,0,0,1,14.44,65.64Z"/></g><path class="cls-13" d="M36.61,89.66a2.15,2.15,0,0,1-2.5-2.43,3.12,3.12,0,0,1,.36-1.51,6.31,6.31,0,0,1,1-1.32l5.24-5.48a11.25,11.25,0,0,0,1.7-2.16A3.74,3.74,0,0,0,42.89,75a2.06,2.06,0,0,0-.75-1.73A3.51,3.51,0,0,0,40,72.64a6,6,0,0,0-1.51.21,9.15,9.15,0,0,0-1.77.69,2.16,2.16,0,0,1-1.42.21,2.07,2.07,0,0,1-1.1-.65,2.26,2.26,0,0,1-.54-1.17,2.3,2.3,0,0,1,.2-1.33,2.34,2.34,0,0,1,1.11-1.06,10.93,10.93,0,0,1,2.86-1.1,13.31,13.31,0,0,1,3-.35,10.43,10.43,0,0,1,4.13.72,5.45,5.45,0,0,1,2.55,2.13,6.21,6.21,0,0,1,.87,3.35,8.19,8.19,0,0,1-.38,2.48,9.34,9.34,0,0,1-1.2,2.41,18.37,18.37,0,0,1-2.21,2.6L39.68,86.6V85.18h7.4a2.32,2.32,0,0,1,1.71.57,2.24,2.24,0,0,1,.57,1.66,2,2,0,0,1-2.28,2.25Z"/><path class="cls-13" d="M57.49,90A10.37,10.37,0,0,1,55,89.71a10.22,10.22,0,0,1-2.38-.92,2.07,2.07,0,0,1-1-1,2.49,2.49,0,0,1-.22-1.29,2.32,2.32,0,0,1,.45-1.2,2.06,2.06,0,0,1,1-.74,2.19,2.19,0,0,1,1.52.15A9,9,0,0,0,56,85.3a6.69,6.69,0,0,0,1.51.18,4.65,4.65,0,0,0,2.51-.63A3.79,3.79,0,0,0,61.56,83a8.38,8.38,0,0,0,.5-3.08V78.26h.48a5.26,5.26,0,0,1-1,2.21,5,5,0,0,1-1.81,1.43,5.56,5.56,0,0,1-2.41.51,5.68,5.68,0,0,1-3.12-.9A6.2,6.2,0,0,1,52,79a7.65,7.65,0,0,1-.81-3.58,7.43,7.43,0,0,1,.95-3.79,6.93,6.93,0,0,1,2.6-2.61,7.3,7.3,0,0,1,3.79-1,8.48,8.48,0,0,1,4.74,1.28,8.06,8.06,0,0,1,3,3.67,14.77,14.77,0,0,1,1,5.79,15.62,15.62,0,0,1-.66,4.73,9.88,9.88,0,0,1-1.92,3.52,8.28,8.28,0,0,1-3.06,2.19A10.52,10.52,0,0,1,57.49,90Zm1.32-11.85a2.49,2.49,0,0,0,1.37-.37,2.54,2.54,0,0,0,.89-1,3.58,3.58,0,0,0,.3-1.52,3.79,3.79,0,0,0-.3-1.55,2.23,2.23,0,0,0-.89-1,2.86,2.86,0,0,0-2.74,0,2.25,2.25,0,0,0-.9,1,3.64,3.64,0,0,0-.32,1.55,3.44,3.44,0,0,0,.32,1.52,2.57,2.57,0,0,0,.9,1A2.49,2.49,0,0,0,58.81,78.17Z"/></g></g></svg>