<svg id="Layer_1" data-name="Layer 1" xmlns="http://www.w3.org/2000/svg" viewBox="0 0 105.29 104.84"><defs><style>.cls-1{fill:#ff8c03;}.cls-2{fill:#fcbc08;}.cls-3{fill:#f28106;opacity:0.7;}.cls-4{fill:#7c6a13;}.cls-5{fill:#937b18;}</style></defs><title>orange10</title><path class="cls-1" d="M63.76,12.75C68.22,16,74.09,26.19,67.18,34.59s-17,8.9-24.61,4c-7.92-5.14-11.72-17.68-2.13-26.66C48.13,4.69,57,7.88,63.76,12.75Z"/><path class="cls-2" d="M45.09,11.55h0Z"/><path class="cls-2" d="M46.13,12.61c.52-.25,1.1-.78.61-1.24s-1.16.06-1.63.17C44.46,12.13,44.73,13.28,46.13,12.61Z"/><path class="cls-2" d="M45.11,11.54l.8-.3A1.23,1.23,0,0,0,45.11,11.54Z"/><path class="cls-2" d="M43.69,13.79c.19-.14.46-.44.2-.64a.34.34,0,0,0-.5.1.64.64,0,0,0-.32.43C43,14.11,43.48,13.94,43.69,13.79Z"/><path class="cls-2" d="M47.1,13.53a.48.48,0,0,0-.49,0c-.23,0-.52.12-.58.31A.24.24,0,0,0,46,14L46,14,46,14c.06.21.57.06.76,0S47.5,13.74,47.1,13.53Z"/><path class="cls-2" d="M46,14h0Z"/><path class="cls-2" d="M48.2,12.37c-.22.07-.48.32-.35.53s.66.13.84,0C49.45,12.52,48.48,12.21,48.2,12.37Z"/><path class="cls-2" d="M49.14,11c-.16,0-.44-.1-.56,0a.21.21,0,0,0,0,.26c0,.15.27.29.37.34s1.37.48,1.45.1S49.42,11.05,49.14,11Z"/><path class="cls-2" d="M47.89,10.25c.24.13,1.07.09,1.16-.24s-.46-.4-.67-.38a.94.94,0,0,0-.37.21C47.79,9.94,47.62,10.11,47.89,10.25Z"/><path class="cls-2" d="M43.83,12.2c.44-.32,0-.5-.33-.43h0c-.19,0-.69.21-.55.48S43.67,12.32,43.83,12.2Z"/><path class="cls-2" d="M42,14.23c.16-.18.66-1,.09-1a.4.4,0,0,0-.3.14,1.64,1.64,0,0,0-.57.79C41,14.89,41.73,14.55,42,14.23Z"/><path class="cls-2" d="M45.08,14.46a1.14,1.14,0,0,0-.76.06c-.42.11-.92.45-1,.75-.19.77,1.17.22,1.46.12S45.71,14.69,45.08,14.46Z"/><path class="cls-2" d="M47.35,15.06c-.21.07-.45.25-.44.42,0,.38.78.26,1,.16C48.74,15.26,47.65,14.89,47.35,15.06Z"/><path class="cls-2" d="M52.72,10.82a.39.39,0,0,0-.38.15,1,1,0,0,0,1.56,0A.87.87,0,0,0,52.72,10.82Z"/><path class="cls-2" d="M50.51,12.79c.47.16,1.74.25,1.84-.4a1.1,1.1,0,0,0-1-.12C50.93,12.25,50.51,12.38,50.51,12.79Z"/><path class="cls-2" d="M51.42,9.41a.67.67,0,0,0-.93-.09.44.44,0,0,0-.22.26A.89.89,0,0,0,51.42,9.41Z"/><path class="cls-2" d="M54.88,12.1c-.94,0,.27,1.19.79.81S55.25,11.86,54.88,12.1Z"/><path class="cls-2" d="M41.53,15.91c-.29-.23-.54,0-.7.27-.63.39-1.39,1.33-.79,1.55S41.51,16.42,41.53,15.91Z"/><path class="cls-2" d="M39.8,14.7c-.8.15-.42,1.47.35.57C40.62,14.71,40.14,14.53,39.8,14.7Z"/><path class="cls-2" d="M44.4,17.13a.41.41,0,0,0-.3.36c.3.21,1.11.23,1.31-.16C45.71,16.75,44.66,16.67,44.4,17.13Z"/><path class="cls-2" d="M51.56,15l0-.06a.53.53,0,0,0,0,.16c0,.08,0,.14,0,.17.16.43,1.09.45.91-.1S51.78,14.74,51.56,15Z"/><path class="cls-2" d="M59.87,13.8c-.55-.74-1.67,0-1,.23C59.32,14.33,60.41,14.52,59.87,13.8Z"/><path class="cls-2" d="M40.51,20.84l.12-.19a1.3,1.3,0,0,0-.6.93c.32.08,1.27-.54,1.24-1C41.23,20,40.79,20.44,40.51,20.84Z"/><path class="cls-2" d="M49,18.76a.23.23,0,0,0,.31.07c.4,0,1.11,0,.81-.47S49.11,18.43,49,18.76Z"/><path class="cls-2" d="M37.28,18.34a.72.72,0,0,0-.05.33c.48.16,1.7,0,1.3-.75S37.42,17.79,37.28,18.34Z"/><path class="cls-2" d="M39,16.34h0a.39.39,0,0,0-.49.39.6.6,0,0,0,.83-.32A.58.58,0,0,0,39,16.34Z"/><path class="cls-3" d="M40.52,33c-1.75,1.26,7.18,7.63,13,7.41a17.12,17.12,0,0,0,14.06-8.82c1.54-3.15,1-12.1-.92-11.48C66,20.33,66.8,23.36,64,28c-2.47,4-6.69,8-12.27,7.75C44.06,35.34,41.69,32.15,40.52,33Z"/><path class="cls-4" d="M59.69,10.84A.81.81,0,0,0,59,12.07c.49,1.18,3.4,3.09,4.24,2.77s.87-1.28-.35-2.2S60.8,11,59.69,10.84Z"/><path class="cls-4" d="M61.21,12.42S64.59,9,65.55,7.68a60.24,60.24,0,0,0,3.2-6.21s.3-.44.71-.36.3.69.3.69S67.4,6.54,66.44,7.85C64.5,10.51,62,13.4,62,13.4Z"/><path class="cls-4" d="M67.1,5.94c-.21,0-5.58-.7-5.58-.7l-.2.32L64.09,6l2.77.45Z"/><path class="cls-4" d="M55.48,12.12c-5.76,1.44-14.27-2.6-14.27-2.6s5.68-6.52,10.56-7S65.12,5.85,65.12,5.85A20.17,20.17,0,0,1,55.48,12.12Z"/><path class="cls-5" d="M59.74,11.19a1.19,1.19,0,0,0-.13,1.16A6.09,6.09,0,0,0,61.7,14l.14-1s-.45-.3-.49-.56a.57.57,0,0,1,0-.4Z"/><path class="cls-5" d="M63.24,6a46.61,46.61,0,0,0-9.66.09c-4.48.64-11.24,2.75-11.15,3s7.39-2.4,11-2.64,10.07,0,10.07,0Z"/><path class="cls-5" d="M61,6.15A4.91,4.91,0,0,1,60,7.88a12.77,12.77,0,0,0-1.62,2.47,15,15,0,0,0,1.87-2.3c.53-.78,1.22-1.87,1.22-1.87Z"/><path class="cls-5" d="M56.49,6.18A7.61,7.61,0,0,1,55.5,9c-1,2-1.39,2.59-1.14,2.63s1-1.47,1.48-2.56S57.1,6.11,57.1,6.11Z"/><path class="cls-5" d="M52.13,6.58a5.42,5.42,0,0,1-.34,2.09c-.45,1.48-1,2.32-.79,2.42s.72-1.27,1-2.34.75-2.39.75-2.39Z"/><path class="cls-5" d="M47.44,7.67a3.2,3.2,0,0,1-.24,1.24c-.27.76-.7,1.52-.58,1.51a2.56,2.56,0,0,0,.8-1.34c.2-.69.42-1.49.42-1.49Z"/><path class="cls-5" d="M61.5,6a6.41,6.41,0,0,0-1.69-1.6,5.3,5.3,0,0,0-2.18-.87c-.12.1,1.24.48,1.72.79A17.25,17.25,0,0,1,61.12,6Z"/><path class="cls-5" d="M56.89,5.9a4.2,4.2,0,0,0-1.37-1.81,6.73,6.73,0,0,0-3.08-1.17c-.29.09,2.25.72,2.82,1.27a6.27,6.27,0,0,1,1,1.77Z"/><path class="cls-5" d="M52.77,6.36a9.75,9.75,0,0,0-2.07-1.6,8.6,8.6,0,0,0-2.48-.62c-.29,0,1.91.48,2.52.91A12.53,12.53,0,0,1,52.3,6.49Z"/><path class="cls-5" d="M47.43,7.55s-.07-.36-1.09-.74S44.75,6.18,45,6.18a7.08,7.08,0,0,1,1.36.35,8.48,8.48,0,0,1,1.6.89Z"/><path class="cls-1" d="M63.69,31.35C68.15,34.57,74,44.79,67.11,53.19s-17,8.9-24.61,4C34.57,52,30.78,39.46,40.37,30.48,48.06,23.29,57,26.47,63.69,31.35Z"/><path class="cls-2" d="M45,30.15h0Z"/><path class="cls-2" d="M46.05,31.21c.53-.25,1.11-.78.62-1.25s-1.16.07-1.63.18C44.39,30.73,44.66,31.88,46.05,31.21Z"/><path class="cls-2" d="M45,30.14l.8-.31A1.29,1.29,0,0,0,45,30.14Z"/><path class="cls-2" d="M43.61,32.39c.2-.14.47-.44.21-.64a.34.34,0,0,0-.5.1.64.64,0,0,0-.33.42C43,32.7,43.41,32.54,43.61,32.39Z"/><path class="cls-2" d="M47,32.12a.5.5,0,0,0-.49,0c-.23,0-.53.12-.58.31a.24.24,0,0,0,0,.12l-.07,0,.07,0c.06.21.57.05.76,0S47.43,32.34,47,32.12Z"/><path class="cls-2" d="M45.89,32.61l0,0Z"/><path class="cls-2" d="M48.13,31c-.23.07-.48.31-.35.53s.66.13.84,0C49.37,31.12,48.41,30.81,48.13,31Z"/><path class="cls-2" d="M49.06,29.61c-.15,0-.43-.09-.55.05a.21.21,0,0,0,0,.26c0,.15.27.29.37.34s1.37.48,1.45.09S49.34,29.65,49.06,29.61Z"/><path class="cls-2" d="M47.82,28.85c.24.12,1.07.09,1.16-.24s-.46-.41-.68-.38a.86.86,0,0,0-.36.21C47.72,28.54,47.55,28.71,47.82,28.85Z"/><path class="cls-2" d="M43.76,30.8c.44-.32,0-.5-.33-.43h0c-.2,0-.69.21-.56.48S43.6,30.92,43.76,30.8Z"/><path class="cls-2" d="M41.94,32.83c.16-.18.66-1,.09-1a.44.44,0,0,0-.3.15,1.64,1.64,0,0,0-.57.79C40.94,33.48,41.66,33.15,41.94,32.83Z"/><path class="cls-2" d="M45,33.06a1.11,1.11,0,0,0-.75.06c-.42.11-.92.44-1,.75-.19.77,1.17.22,1.46.12S45.64,33.29,45,33.06Z"/><path class="cls-2" d="M47.28,33.66c-.21.07-.45.25-.44.42,0,.38.78.26,1,.16C48.67,33.86,47.58,33.49,47.28,33.66Z"/><path class="cls-2" d="M52.64,29.42a.38.38,0,0,0-.37.15,1,1,0,0,0,1.56,0A.89.89,0,0,0,52.64,29.42Z"/><path class="cls-2" d="M50.43,31.39c.47.16,1.75.24,1.84-.4a1.08,1.08,0,0,0-1-.12C50.86,30.85,50.44,31,50.43,31.39Z"/><path class="cls-2" d="M51.35,28a.66.66,0,0,0-.93-.09.44.44,0,0,0-.22.26A.89.89,0,0,0,51.35,28Z"/><path class="cls-2" d="M54.81,30.7c-.94,0,.27,1.19.79.81S55.18,30.46,54.81,30.7Z"/><path class="cls-2" d="M41.46,34.51c-.3-.23-.54,0-.7.26-.63.4-1.39,1.34-.79,1.56S41.44,35,41.46,34.51Z"/><path class="cls-2" d="M39.73,33.3c-.81.15-.42,1.47.34.57C40.55,33.31,40.06,33.13,39.73,33.3Z"/><path class="cls-2" d="M44.32,35.72a.44.44,0,0,0-.29.37c.3.21,1.1.23,1.3-.16C45.63,35.34,44.59,35.27,44.32,35.72Z"/><path class="cls-2" d="M51.49,33.55l0-.06a.32.32,0,0,0,0,.16c0,.08,0,.14,0,.17.17.43,1.1.45.92-.1S51.71,33.34,51.49,33.55Z"/><path class="cls-2" d="M59.8,32.4c-.55-.74-1.68,0-1,.23C59.25,32.93,60.33,33.12,59.8,32.4Z"/><path class="cls-2" d="M40.44,39.44l.11-.2a1.31,1.31,0,0,0-.59.93c.32.09,1.27-.53,1.24-1C41.16,38.6,40.72,39,40.44,39.44Z"/><path class="cls-2" d="M48.93,37.35c.12.14.2.13.31.07.39,0,1.11-.05.81-.46S49,37,48.93,37.35Z"/><path class="cls-2" d="M37.21,36.94a.7.7,0,0,0-.05.32c.48.17,1.7,0,1.3-.74S37.35,36.39,37.21,36.94Z"/><path class="cls-2" d="M38.88,34.94h0a.39.39,0,0,0-.49.39.59.59,0,0,0,.82-.32A.54.54,0,0,0,38.88,34.94Z"/><path class="cls-3" d="M40.45,51.58c-1.75,1.27,7.18,7.64,13,7.42A17.14,17.14,0,0,0,67.5,50.18c1.53-3.15,1-12.1-.93-11.48-.68.23.16,3.26-2.66,7.86-2.47,4-6.69,8-12.28,7.75C44,53.93,41.61,50.75,40.45,51.58Z"/><path class="cls-4" d="M59.62,29.44a.81.81,0,0,0-.73,1.23c.48,1.17,3.4,3.09,4.23,2.77s.88-1.28-.34-2.21S60.73,29.58,59.62,29.44Z"/><path class="cls-4" d="M61.13,31s3.38-3.45,4.35-4.74a60.24,60.24,0,0,0,3.2-6.21s.3-.44.71-.36.29.69.29.69-2.35,4.74-3.31,6.05C64.43,29.1,61.87,32,61.87,32Z"/><path class="cls-4" d="M67,24.53c-.21,0-5.58-.69-5.58-.69l-.2.31L64,24.6l2.77.45Z"/><path class="cls-4" d="M55.41,30.72c-5.76,1.44-14.28-2.6-14.28-2.6s5.69-6.52,10.57-7,13.35,3.34,13.35,3.34A20.15,20.15,0,0,1,55.41,30.72Z"/><path class="cls-5" d="M59.67,29.79A1.16,1.16,0,0,0,59.54,31a6.09,6.09,0,0,0,2.09,1.64l.14-1s-.45-.31-.5-.56a.61.61,0,0,1,0-.4Z"/><path class="cls-5" d="M63.16,24.58a46.5,46.5,0,0,0-9.65.09c-4.48.64-11.24,2.75-11.16,3s7.39-2.41,11-2.64,10.07,0,10.07,0Z"/><path class="cls-5" d="M60.9,24.75A5.07,5.07,0,0,1,60,26.47,12,12,0,0,0,58.34,29a15.65,15.65,0,0,0,1.87-2.3c.53-.78,1.22-1.87,1.22-1.87Z"/><path class="cls-5" d="M56.42,24.78a7.67,7.67,0,0,1-1,2.81c-1,2-1.39,2.58-1.15,2.63s1-1.47,1.48-2.56S57,24.71,57,24.71Z"/><path class="cls-5" d="M52.05,25.18a5.16,5.16,0,0,1-.34,2.09c-.44,1.48-1,2.32-.78,2.42s.72-1.27,1-2.34S52.7,25,52.7,25Z"/><path class="cls-5" d="M47.37,26.27a3.45,3.45,0,0,1-.24,1.24c-.27.76-.71,1.52-.58,1.51a2.56,2.56,0,0,0,.8-1.35c.2-.68.42-1.48.42-1.48Z"/><path class="cls-5" d="M61.43,24.63A6.41,6.41,0,0,0,59.74,23a5.15,5.15,0,0,0-2.18-.87c-.12.1,1.24.48,1.72.78a18.26,18.26,0,0,1,1.77,1.68Z"/><path class="cls-5" d="M56.82,24.5a4.28,4.28,0,0,0-1.38-1.81,6.91,6.91,0,0,0-3.07-1.18c-.29.1,2.24.73,2.81,1.28a6.13,6.13,0,0,1,1,1.77Z"/><path class="cls-5" d="M52.7,25a9.75,9.75,0,0,0-2.07-1.6,8.6,8.6,0,0,0-2.48-.62c-.3,0,1.9.48,2.52.9a14.07,14.07,0,0,1,1.56,1.45Z"/><path class="cls-5" d="M47.36,26.15s-.07-.36-1.09-.74-1.59-.63-1.37-.63a7.08,7.08,0,0,1,1.36.35,8.85,8.85,0,0,1,1.6.89Z"/><path class="cls-1" d="M38.82,31.35c4.46,3.22,10.33,13.44,3.43,21.84s-17,8.9-24.62,4C9.71,52,5.91,39.46,15.5,30.48,23.19,23.29,32.09,26.47,38.82,31.35Z"/><path class="cls-2" d="M20.15,30.15h0Z"/><path class="cls-2" d="M21.19,31.21c.52-.25,1.11-.78.62-1.25s-1.17.07-1.64.18C19.52,30.73,19.79,31.88,21.19,31.21Z"/><path class="cls-2" d="M20.18,30.14l.79-.31A1.26,1.26,0,0,0,20.18,30.14Z"/><path class="cls-2" d="M18.75,32.39c.2-.14.46-.44.2-.64a.34.34,0,0,0-.5.1.62.62,0,0,0-.32.42C18.09,32.7,18.54,32.54,18.75,32.39Z"/><path class="cls-2" d="M22.16,32.12a.5.5,0,0,0-.49,0c-.23,0-.52.12-.57.31a.17.17,0,0,0,0,.12l-.07,0,.07,0c.07.21.58.05.76,0S22.57,32.34,22.16,32.12Z"/><path class="cls-2" d="M21,32.61l0,0Z"/><path class="cls-2" d="M23.26,31c-.22.07-.48.31-.35.53s.66.13.85,0C24.51,31.12,23.54,30.81,23.26,31Z"/><path class="cls-2" d="M24.2,29.61c-.15,0-.44-.09-.56.05a.23.23,0,0,0,0,.26c0,.15.27.29.38.34s1.37.48,1.45.09S24.48,29.65,24.2,29.61Z"/><path class="cls-2" d="M23,28.85c.23.12,1.07.09,1.15-.24s-.45-.41-.67-.38a.8.8,0,0,0-.36.21C22.85,28.54,22.69,28.71,23,28.85Z"/><path class="cls-2" d="M18.9,30.8c.43-.32,0-.5-.33-.43h0c-.2,0-.69.21-.56.48S18.73,30.92,18.9,30.8Z"/><path class="cls-2" d="M17.07,32.83c.17-.18.66-1,.09-1a.43.43,0,0,0-.29.15,1.66,1.66,0,0,0-.58.79C16.07,33.48,16.79,33.15,17.07,32.83Z"/><path class="cls-2" d="M20.14,33.06a1.1,1.1,0,0,0-.75.06,1.47,1.47,0,0,0-1,.75c-.19.77,1.17.22,1.46.12S20.77,33.29,20.14,33.06Z"/><path class="cls-2" d="M22.42,33.66c-.22.07-.45.25-.45.42,0,.38.78.26,1,.16C23.81,33.86,22.71,33.49,22.42,33.66Z"/><path class="cls-2" d="M27.78,29.42a.39.39,0,0,0-.38.15,1.05,1.05,0,0,0,1.57,0A.89.89,0,0,0,27.78,29.42Z"/><path class="cls-2" d="M25.57,31.39c.47.16,1.74.24,1.84-.4a1.1,1.1,0,0,0-1-.12C26,30.85,25.58,31,25.57,31.39Z"/><path class="cls-2" d="M26.49,28a.67.67,0,0,0-.93-.09.42.42,0,0,0-.23.26A.9.9,0,0,0,26.49,28Z"/><path class="cls-2" d="M29.94,30.7c-.93,0,.27,1.19.79.81S30.32,30.46,29.94,30.7Z"/><path class="cls-2" d="M16.59,34.51c-.29-.23-.53,0-.7.26-.63.4-1.38,1.34-.78,1.56S16.57,35,16.59,34.51Z"/><path class="cls-2" d="M14.87,33.3c-.81.15-.43,1.47.34.57C15.69,33.31,15.2,33.13,14.87,33.3Z"/><path class="cls-2" d="M19.46,35.72a.43.43,0,0,0-.3.37c.31.21,1.11.23,1.31-.16C20.77,35.34,19.73,35.27,19.46,35.72Z"/><path class="cls-2" d="M26.63,33.55l-.05-.06a.94.94,0,0,0,0,.16c0,.08,0,.14,0,.17.17.43,1.09.45.92-.1S26.84,33.34,26.63,33.55Z"/><path class="cls-2" d="M34.93,32.4c-.54-.74-1.67,0-1,.23C34.39,32.93,35.47,33.12,34.93,32.4Z"/><path class="cls-2" d="M15.58,39.44l.11-.2a1.32,1.32,0,0,0-.6.93c.32.09,1.27-.53,1.25-1C16.3,38.6,15.85,39,15.58,39.44Z"/><path class="cls-2" d="M24.06,37.35a.22.22,0,0,0,.32.07c.39,0,1.11-.05.8-.46S24.17,37,24.06,37.35Z"/><path class="cls-2" d="M12.35,36.94a.59.59,0,0,0,0,.32c.48.17,1.69,0,1.29-.74S12.48,36.39,12.35,36.94Z"/><path class="cls-2" d="M14,34.94h0a.39.39,0,0,0-.49.39.6.6,0,0,0,.83-.32A.58.58,0,0,0,14,34.94Z"/><path class="cls-3" d="M15.59,51.58c-1.76,1.27,7.18,7.64,13,7.42a17.12,17.12,0,0,0,14.06-8.82c1.54-3.15,1-12.1-.92-11.48-.69.23.15,3.26-2.66,7.86-2.48,4-6.69,8-12.28,7.75C19.12,53.93,16.75,50.75,15.59,51.58Z"/><path class="cls-4" d="M34.75,29.44A.8.8,0,0,0,34,30.67c.48,1.17,3.39,3.09,4.23,2.77s.88-1.28-.35-2.21S35.87,29.58,34.75,29.44Z"/><path class="cls-4" d="M36.27,31s3.38-3.45,4.34-4.74a58.26,58.26,0,0,0,3.2-6.21s.3-.44.71-.36.3.69.3.69-2.36,4.74-3.31,6.05C39.57,29.1,37,32,37,32Z"/><path class="cls-4" d="M42.16,24.53c-.2,0-5.57-.69-5.57-.69l-.21.31,2.77.45,2.77.45Z"/><path class="cls-4" d="M30.54,30.72c-5.76,1.44-14.27-2.6-14.27-2.6s5.69-6.52,10.56-7,13.35,3.34,13.35,3.34A20.15,20.15,0,0,1,30.54,30.72Z"/><path class="cls-5" d="M34.8,29.79A1.19,1.19,0,0,0,34.67,31a6.1,6.1,0,0,0,2.1,1.64l.13-1s-.44-.31-.49-.56a.57.57,0,0,1,0-.4Z"/><path class="cls-5" d="M38.3,24.58a46.61,46.61,0,0,0-9.66.09c-4.48.64-11.24,2.75-11.15,3s7.39-2.41,11-2.64,10.06,0,10.06,0Z"/><path class="cls-5" d="M36,24.75a4.83,4.83,0,0,1-.94,1.72A13,13,0,0,0,33.47,29a14.92,14.92,0,0,0,1.88-2.3c.53-.78,1.21-1.87,1.21-1.87Z"/><path class="cls-5" d="M31.55,24.78a7.67,7.67,0,0,1-1,2.81c-1,2-1.38,2.58-1.14,2.63s1-1.47,1.48-2.56,1.27-2.95,1.27-2.95Z"/><path class="cls-5" d="M27.19,25.18a5.42,5.42,0,0,1-.34,2.09c-.45,1.48-1,2.32-.79,2.42s.73-1.27,1-2.34.74-2.39.74-2.39Z"/><path class="cls-5" d="M22.5,26.27a3.28,3.28,0,0,1-.23,1.24c-.28.76-.71,1.52-.58,1.51a2.7,2.7,0,0,0,.8-1.35l.41-1.48Z"/><path class="cls-5" d="M36.56,24.63A6.41,6.41,0,0,0,34.87,23a5.06,5.06,0,0,0-2.18-.87c-.11.1,1.24.48,1.72.78a18.26,18.26,0,0,1,1.77,1.68Z"/><path class="cls-5" d="M32,24.5a4.28,4.28,0,0,0-1.38-1.81,6.91,6.91,0,0,0-3.07-1.18c-.29.1,2.24.73,2.81,1.28a6,6,0,0,1,1,1.77Z"/><path class="cls-5" d="M27.83,25a9.6,9.6,0,0,0-2.06-1.6,8.65,8.65,0,0,0-2.49-.62c-.29,0,1.91.48,2.52.9a13.56,13.56,0,0,1,1.57,1.45Z"/><path class="cls-5" d="M22.5,26.15s-.08-.36-1.1-.74-1.59-.63-1.37-.63a6.9,6.9,0,0,1,1.36.35A8.69,8.69,0,0,1,23,26Z"/><path class="cls-1" d="M89.3,31.35c4.46,3.22,10.33,13.44,3.43,21.84s-17,8.9-24.62,4C60.19,52,56.39,39.46,66,30.48,73.67,23.29,82.57,26.47,89.3,31.35Z"/><path class="cls-2" d="M70.63,30.15h0Z"/><path class="cls-2" d="M71.67,31.21c.52-.25,1.11-.78.61-1.25s-1.16.07-1.63.18C70,30.73,70.27,31.88,71.67,31.21Z"/><path class="cls-2" d="M70.66,30.14l.79-.31A1.26,1.26,0,0,0,70.66,30.14Z"/><path class="cls-2" d="M69.23,32.39c.19-.14.46-.44.2-.64a.34.34,0,0,0-.5.1.62.62,0,0,0-.32.42C68.56,32.7,69,32.54,69.23,32.39Z"/><path class="cls-2" d="M72.64,32.12a.5.5,0,0,0-.49,0c-.23,0-.52.12-.57.31a.17.17,0,0,0,0,.12l-.07,0,.07,0c.06.21.57.05.76,0S73,32.34,72.64,32.12Z"/><path class="cls-2" d="M71.5,32.61l0,0Z"/><path class="cls-2" d="M73.74,31c-.22.07-.48.31-.35.53s.66.13.85,0C75,31.12,74,30.81,73.74,31Z"/><path class="cls-2" d="M74.68,29.61c-.16,0-.44-.09-.56.05a.21.21,0,0,0,0,.26c0,.15.27.29.38.34s1.37.48,1.45.09S75,29.65,74.68,29.61Z"/><path class="cls-2" d="M73.44,28.85c.23.12,1.07.09,1.15-.24s-.46-.41-.67-.38a.8.8,0,0,0-.36.21C73.33,28.54,73.17,28.71,73.44,28.85Z"/><path class="cls-2" d="M69.38,30.8c.43-.32,0-.5-.33-.43h0c-.19,0-.69.21-.55.48S69.21,30.92,69.38,30.8Z"/><path class="cls-2" d="M67.55,32.83c.17-.18.66-1,.09-1a.43.43,0,0,0-.29.15,1.6,1.6,0,0,0-.58.79C66.55,33.48,67.27,33.15,67.55,32.83Z"/><path class="cls-2" d="M70.62,33.06a1.1,1.1,0,0,0-.75.06,1.47,1.47,0,0,0-1,.75c-.19.77,1.17.22,1.46.12S71.25,33.29,70.62,33.06Z"/><path class="cls-2" d="M72.9,33.66c-.22.07-.45.25-.45.42,0,.38.78.26,1,.16C74.29,33.86,73.19,33.49,72.9,33.66Z"/><path class="cls-2" d="M78.26,29.42a.39.39,0,0,0-.38.15,1.05,1.05,0,0,0,1.57,0A.89.89,0,0,0,78.26,29.42Z"/><path class="cls-2" d="M76.05,31.39c.47.16,1.74.24,1.84-.4a1.1,1.1,0,0,0-1-.12C76.47,30.85,76.05,31,76.05,31.39Z"/><path class="cls-2" d="M77,28a.67.67,0,0,0-.93-.09.42.42,0,0,0-.23.26A.9.9,0,0,0,77,28Z"/><path class="cls-2" d="M80.42,30.7c-.94,0,.27,1.19.79.81S80.79,30.46,80.42,30.7Z"/><path class="cls-2" d="M67.07,34.51c-.29-.23-.54,0-.7.26-.63.4-1.38,1.34-.78,1.56S67.05,35,67.07,34.51Z"/><path class="cls-2" d="M65.35,33.3c-.81.15-.43,1.47.34.57C66.17,33.31,65.68,33.13,65.35,33.3Z"/><path class="cls-2" d="M69.94,35.72a.43.43,0,0,0-.3.37c.31.21,1.11.23,1.31-.16C71.25,35.34,70.21,35.27,69.94,35.72Z"/><path class="cls-2" d="M77.1,33.55l0-.06a.94.94,0,0,0,0,.16c0,.08,0,.14,0,.17.17.43,1.09.45.91-.1S77.32,33.34,77.1,33.55Z"/><path class="cls-2" d="M85.41,32.4c-.54-.74-1.67,0-1,.23C84.86,32.93,86,33.12,85.41,32.4Z"/><path class="cls-2" d="M66.06,39.44l.11-.2a1.32,1.32,0,0,0-.6.93c.32.09,1.27-.53,1.25-1C66.78,38.6,66.33,39,66.06,39.44Z"/><path class="cls-2" d="M74.54,37.35a.22.22,0,0,0,.32.07c.39,0,1.11-.05.8-.46S74.65,37,74.54,37.35Z"/><path class="cls-2" d="M62.83,36.94a.59.59,0,0,0,0,.32c.48.17,1.69,0,1.29-.74S63,36.39,62.83,36.94Z"/><path class="cls-2" d="M64.49,34.94h0a.39.39,0,0,0-.49.39.6.6,0,0,0,.83-.32A.58.58,0,0,0,64.49,34.94Z"/><path class="cls-3" d="M66.07,51.58c-1.76,1.27,7.18,7.64,13,7.42a17.14,17.14,0,0,0,14.06-8.82c1.54-3.15,1-12.1-.92-11.48-.69.23.15,3.26-2.66,7.86-2.48,4-6.69,8-12.28,7.75C69.6,53.93,67.23,50.75,66.07,51.58Z"/><path class="cls-4" d="M85.23,29.44a.8.8,0,0,0-.72,1.23c.48,1.17,3.39,3.09,4.23,2.77s.87-1.28-.35-2.21S86.35,29.58,85.23,29.44Z"/><path class="cls-4" d="M86.75,31s3.38-3.45,4.34-4.74a58.26,58.26,0,0,0,3.2-6.21s.3-.44.71-.36.3.69.3.69S92.94,25.14,92,26.45C90.05,29.1,87.49,32,87.49,32Z"/><path class="cls-4" d="M92.64,24.53c-.2,0-5.58-.69-5.58-.69l-.2.31,2.77.45,2.77.45Z"/><path class="cls-4" d="M81,30.72c-5.76,1.44-14.27-2.6-14.27-2.6s5.68-6.52,10.56-7,13.35,3.34,13.35,3.34A20.15,20.15,0,0,1,81,30.72Z"/><path class="cls-5" d="M85.28,29.79A1.19,1.19,0,0,0,85.15,31a6.1,6.1,0,0,0,2.1,1.64l.13-1s-.45-.31-.49-.56a.57.57,0,0,1,0-.4Z"/><path class="cls-5" d="M88.78,24.58a46.61,46.61,0,0,0-9.66.09c-4.48.64-11.24,2.75-11.15,3s7.39-2.41,11-2.64,10.07,0,10.07,0Z"/><path class="cls-5" d="M86.51,24.75a4.83,4.83,0,0,1-.94,1.72A13,13,0,0,0,84,29a14.92,14.92,0,0,0,1.88-2.3c.53-.78,1.21-1.87,1.21-1.87Z"/><path class="cls-5" d="M82,24.78a7.67,7.67,0,0,1-1,2.81c-1,2-1.39,2.58-1.14,2.63s1-1.47,1.48-2.56,1.27-2.95,1.27-2.95Z"/><path class="cls-5" d="M77.67,25.18a5.42,5.42,0,0,1-.34,2.09c-.45,1.48-1,2.32-.79,2.42s.72-1.27,1-2.34.74-2.39.74-2.39Z"/><path class="cls-5" d="M73,26.27a3.2,3.2,0,0,1-.24,1.24c-.27.76-.7,1.52-.57,1.51a2.7,2.7,0,0,0,.8-1.35l.41-1.48Z"/><path class="cls-5" d="M87,24.63A6.41,6.41,0,0,0,85.35,23a5.06,5.06,0,0,0-2.18-.87c-.11.1,1.24.48,1.72.78a18.26,18.26,0,0,1,1.77,1.68Z"/><path class="cls-5" d="M82.44,24.5a4.28,4.28,0,0,0-1.38-1.81A6.91,6.91,0,0,0,78,21.51c-.3.1,2.24.73,2.81,1.28a6,6,0,0,1,1,1.77Z"/><path class="cls-5" d="M78.31,25a9.48,9.48,0,0,0-2.07-1.6,8.53,8.53,0,0,0-2.48-.62c-.29,0,1.91.48,2.52.9a13.16,13.16,0,0,1,1.56,1.45Z"/><path class="cls-5" d="M73,26.15s-.08-.36-1.1-.74-1.59-.63-1.37-.63a6.9,6.9,0,0,1,1.36.35,8.69,8.69,0,0,1,1.61.89Z"/><path class="cls-1" d="M63.26,51.87c4.46,3.23,10.33,13.44,3.42,21.84s-17,8.9-24.61,4C34.14,72.54,30.35,60,39.94,51,47.63,43.81,56.52,47,63.26,51.87Z"/><path class="cls-2" d="M44.59,50.67h0Z"/><path class="cls-2" d="M45.62,51.73c.52-.25,1.11-.78.62-1.24s-1.16.06-1.63.18C44,51.25,44.23,52.4,45.62,51.73Z"/><path class="cls-2" d="M44.61,50.66l.8-.3A1.23,1.23,0,0,0,44.61,50.66Z"/><path class="cls-2" d="M43.18,52.91c.2-.14.47-.43.21-.64a.33.33,0,0,0-.5.11.64.64,0,0,0-.33.42C42.52,53.23,43,53.06,43.18,52.91Z"/><path class="cls-2" d="M46.6,52.65a.5.5,0,0,0-.49,0c-.24,0-.53.12-.58.3a.24.24,0,0,0,0,.12l-.07,0,.07,0c.06.21.57.06.76,0S47,52.86,46.6,52.65Z"/><path class="cls-2" d="M45.46,53.14l0,0Z"/><path class="cls-2" d="M47.7,51.5c-.23.06-.48.31-.35.52s.66.14.84,0C48.94,51.64,48,51.33,47.7,51.5Z"/><path class="cls-2" d="M48.63,50.14c-.15,0-.43-.1-.55,0a.2.2,0,0,0,0,.26c0,.15.27.29.37.35s1.37.47,1.45.09S48.91,50.18,48.63,50.14Z"/><path class="cls-2" d="M47.39,49.38c.23.12,1.07.09,1.16-.24s-.46-.41-.68-.38a.82.82,0,0,0-.36.2C47.29,49.07,47.12,49.23,47.39,49.38Z"/><path class="cls-2" d="M43.33,51.32c.44-.31,0-.49-.33-.43h0c-.2,0-.69.22-.56.48S43.16,51.44,43.33,51.32Z"/><path class="cls-2" d="M41.51,53.35c.16-.18.66-1,.09-1a.4.4,0,0,0-.3.15,1.61,1.61,0,0,0-.57.78C40.51,54,41.23,53.67,41.51,53.35Z"/><path class="cls-2" d="M44.57,53.58a1.11,1.11,0,0,0-.75.06c-.42.11-.92.45-1,.76-.19.76,1.17.21,1.46.11S45.21,53.81,44.57,53.58Z"/><path class="cls-2" d="M46.85,54.18c-.21.07-.45.25-.45.43,0,.37.79.26,1,.16C48.24,54.38,47.15,54,46.85,54.18Z"/><path class="cls-2" d="M52.21,49.94a.38.38,0,0,0-.37.15,1,1,0,0,0,1.56,0A.88.88,0,0,0,52.21,49.94Z"/><path class="cls-2" d="M50,51.92c.47.16,1.74.24,1.84-.41a1.11,1.11,0,0,0-1-.12C50.43,51.37,50,51.51,50,51.92Z"/><path class="cls-2" d="M50.92,48.53a.67.67,0,0,0-.93-.09.43.43,0,0,0-.22.27A.9.9,0,0,0,50.92,48.53Z"/><path class="cls-2" d="M54.38,51.22c-.94,0,.27,1.19.79.81S54.75,51,54.38,51.22Z"/><path class="cls-2" d="M41,55c-.3-.22-.54,0-.71.27-.62.39-1.38,1.33-.78,1.56S41,55.54,41,55Z"/><path class="cls-2" d="M39.3,53.82c-.81.16-.42,1.48.34.57C40.12,53.83,39.63,53.65,39.3,53.82Z"/><path class="cls-2" d="M43.89,56.25a.43.43,0,0,0-.29.36c.3.22,1.1.23,1.3-.16C45.2,55.87,44.16,55.79,43.89,56.25Z"/><path class="cls-2" d="M51.06,54.07,51,54a.34.34,0,0,0,0,.16c0,.08,0,.15,0,.17.17.44,1.1.45.92-.09S51.28,53.87,51.06,54.07Z"/><path class="cls-2" d="M59.37,52.92c-.55-.74-1.68,0-1,.24C58.82,53.45,59.9,53.65,59.37,52.92Z"/><path class="cls-2" d="M40,60l.11-.19a1.35,1.35,0,0,0-.6.93c.33.08,1.28-.54,1.25-1C40.73,59.12,40.29,59.57,40,60Z"/><path class="cls-2" d="M48.49,57.88a.24.24,0,0,0,.32.07c.39,0,1.11-.05.81-.46S48.6,57.56,48.49,57.88Z"/><path class="cls-2" d="M36.78,57.47a.66.66,0,0,0-.05.32c.48.16,1.7,0,1.3-.75S36.92,56.91,36.78,57.47Z"/><path class="cls-2" d="M38.45,55.47v0a.41.41,0,0,0-.5.39.59.59,0,0,0,.83-.31A.48.48,0,0,0,38.45,55.47Z"/><path class="cls-3" d="M40,72.11c-1.75,1.26,7.18,7.64,13,7.41a17.11,17.11,0,0,0,14.06-8.81c1.53-3.16,1-12.11-.93-11.48-.68.22.16,3.26-2.66,7.86-2.47,4-6.69,8-12.28,7.74C43.56,74.46,41.18,71.27,40,72.11Z"/><path class="cls-4" d="M59.19,50a.8.8,0,0,0-.73,1.22c.48,1.18,3.4,3.09,4.23,2.77s.88-1.28-.34-2.2S60.3,50.11,59.19,50Z"/><path class="cls-4" d="M60.7,51.54s3.38-3.44,4.35-4.74a60.24,60.24,0,0,0,3.2-6.21.82.82,0,0,1,.71-.36c.41.08.29.69.29.69s-2.35,4.75-3.31,6c-1.94,2.66-4.5,5.55-4.5,5.55Z"/><path class="cls-4" d="M66.6,45.06c-.21,0-5.58-.69-5.58-.69l-.2.31,2.77.45,2.77.44Z"/><path class="cls-4" d="M55,51.24c-5.76,1.44-14.28-2.6-14.28-2.6s5.69-6.52,10.57-7S64.62,45,64.62,45A20.17,20.17,0,0,1,55,51.24Z"/><path class="cls-5" d="M59.24,50.32a1.16,1.16,0,0,0-.13,1.16,6.13,6.13,0,0,0,2.09,1.64l.14-1s-.45-.3-.5-.56a.61.61,0,0,1,0-.4Z"/><path class="cls-5" d="M62.73,45.11a45.73,45.73,0,0,0-9.65.09c-4.48.63-11.24,2.74-11.16,3s7.39-2.41,11-2.65,10.07,0,10.07,0Z"/><path class="cls-5" d="M60.47,45.27A5.15,5.15,0,0,1,59.53,47a12.33,12.33,0,0,0-1.62,2.47,15.11,15.11,0,0,0,1.87-2.3c.53-.77,1.22-1.86,1.22-1.86Z"/><path class="cls-5" d="M56,45.31a7.46,7.46,0,0,1-1,2.81c-1,2-1.39,2.58-1.15,2.62s1-1.47,1.48-2.56,1.27-3,1.27-3Z"/><path class="cls-5" d="M51.62,45.71a5.17,5.17,0,0,1-.34,2.09c-.44,1.48-1,2.31-.78,2.41s.72-1.27,1-2.34.75-2.38.75-2.38Z"/><path class="cls-5" d="M46.94,46.8A3.42,3.42,0,0,1,46.7,48c-.27.76-.71,1.52-.58,1.52a2.66,2.66,0,0,0,.8-1.35c.2-.68.41-1.48.41-1.48Z"/><path class="cls-5" d="M61,45.15a6.28,6.28,0,0,0-1.69-1.59,5.38,5.38,0,0,0-2.18-.88c-.12.1,1.24.48,1.72.79a18.44,18.44,0,0,1,1.77,1.67Z"/><path class="cls-5" d="M56.39,45A4.22,4.22,0,0,0,55,43.22,6.91,6.91,0,0,0,51.94,42c-.29.09,2.24.72,2.81,1.27a6.13,6.13,0,0,1,1,1.77Z"/><path class="cls-5" d="M52.27,45.49a10,10,0,0,0-2.07-1.61,9,9,0,0,0-2.48-.62c-.3,0,1.9.48,2.52.91a14.07,14.07,0,0,1,1.56,1.45Z"/><path class="cls-5" d="M46.93,46.67s-.07-.36-1.09-.73-1.59-.63-1.37-.63a6.25,6.25,0,0,1,1.36.34,8.67,8.67,0,0,1,1.6.9Z"/><path class="cls-1" d="M38.39,51.87c4.46,3.23,10.33,13.44,3.43,21.84s-17,8.9-24.62,4C9.28,72.54,5.48,60,15.07,51,22.76,43.81,31.66,47,38.39,51.87Z"/><path class="cls-2" d="M19.72,50.67h0Z"/><path class="cls-2" d="M20.76,51.73c.52-.25,1.11-.78.62-1.24s-1.17.06-1.64.18C19.09,51.25,19.36,52.4,20.76,51.73Z"/><path class="cls-2" d="M19.75,50.66l.79-.3A1.21,1.21,0,0,0,19.75,50.66Z"/><path class="cls-2" d="M18.32,52.91c.2-.14.46-.43.2-.64a.34.34,0,0,0-.5.11.62.62,0,0,0-.32.42C17.65,53.23,18.11,53.06,18.32,52.91Z"/><path class="cls-2" d="M21.73,52.65a.5.5,0,0,0-.49,0c-.23,0-.52.12-.57.3a.17.17,0,0,0,0,.12l-.07,0,.07,0c.06.21.58.06.76,0S22.14,52.86,21.73,52.65Z"/><path class="cls-2" d="M20.59,53.14l0,0Z"/><path class="cls-2" d="M22.83,51.5c-.22.06-.48.31-.35.52s.66.14.85,0C24.08,51.64,23.11,51.33,22.83,51.5Z"/><path class="cls-2" d="M23.77,50.14c-.16,0-.44-.1-.56,0a.23.23,0,0,0,0,.26c0,.15.27.29.38.35s1.37.47,1.45.09S24.05,50.18,23.77,50.14Z"/><path class="cls-2" d="M22.53,49.38c.23.12,1.07.09,1.15-.24s-.45-.41-.67-.38a.77.77,0,0,0-.36.2C22.42,49.07,22.26,49.23,22.53,49.38Z"/><path class="cls-2" d="M18.47,51.32c.43-.31,0-.49-.33-.43h0c-.2,0-.69.22-.56.48S18.3,51.44,18.47,51.32Z"/><path class="cls-2" d="M16.64,53.35c.17-.18.66-1,.09-1a.4.4,0,0,0-.29.15,1.64,1.64,0,0,0-.58.78C15.64,54,16.36,53.67,16.64,53.35Z"/><path class="cls-2" d="M19.71,53.58a1.1,1.1,0,0,0-.75.06,1.48,1.48,0,0,0-1,.76c-.19.76,1.17.21,1.46.11S20.34,53.81,19.71,53.58Z"/><path class="cls-2" d="M22,54.18c-.22.07-.45.25-.45.43,0,.37.78.26,1,.16C23.38,54.38,22.28,54,22,54.18Z"/><path class="cls-2" d="M27.35,49.94a.39.39,0,0,0-.38.15,1.06,1.06,0,0,0,1.57,0A.88.88,0,0,0,27.35,49.94Z"/><path class="cls-2" d="M25.14,51.92c.47.16,1.74.24,1.84-.41a1.13,1.13,0,0,0-1-.12C25.57,51.37,25.15,51.51,25.14,51.92Z"/><path class="cls-2" d="M26.06,48.53a.68.68,0,0,0-.93-.09.42.42,0,0,0-.23.27A.91.91,0,0,0,26.06,48.53Z"/><path class="cls-2" d="M29.51,51.22c-.94,0,.27,1.19.79.81S29.89,51,29.51,51.22Z"/><path class="cls-2" d="M16.16,55c-.29-.22-.53,0-.7.27-.63.39-1.38,1.33-.78,1.56S16.14,55.54,16.16,55Z"/><path class="cls-2" d="M14.44,53.82c-.81.16-.43,1.48.34.57C15.26,53.83,14.77,53.65,14.44,53.82Z"/><path class="cls-2" d="M19,56.25a.42.42,0,0,0-.3.36c.31.22,1.11.23,1.31-.16C20.34,55.87,19.3,55.79,19,56.25Z"/><path class="cls-2" d="M26.2,54.07,26.15,54a1.24,1.24,0,0,0,0,.16c0,.08,0,.15,0,.17.17.44,1.09.45.92-.09S26.41,53.87,26.2,54.07Z"/><path class="cls-2" d="M34.5,52.92c-.54-.74-1.67,0-1,.24C34,53.45,35,53.65,34.5,52.92Z"/><path class="cls-2" d="M15.15,60l.11-.19a1.32,1.32,0,0,0-.6.93c.32.08,1.27-.54,1.25-1C15.87,59.12,15.42,59.57,15.15,60Z"/><path class="cls-2" d="M23.63,57.88A.24.24,0,0,0,24,58c.39,0,1.11-.05.8-.46S23.74,57.56,23.63,57.88Z"/><path class="cls-2" d="M11.92,57.47a.56.56,0,0,0-.05.32c.48.16,1.69,0,1.29-.75S12.05,56.91,11.92,57.47Z"/><path class="cls-2" d="M13.58,55.47v0a.4.4,0,0,0-.49.39.59.59,0,0,0,.83-.31A.51.51,0,0,0,13.58,55.47Z"/><path class="cls-3" d="M15.16,72.11c-1.76,1.26,7.18,7.64,13,7.41A17.11,17.11,0,0,0,42.2,70.71c1.54-3.16,1-12.11-.92-11.48-.69.22.15,3.26-2.66,7.86-2.48,4-6.69,8-12.28,7.74C18.69,74.46,16.32,71.27,15.16,72.11Z"/><path class="cls-4" d="M34.32,50a.8.8,0,0,0-.72,1.22c.48,1.18,3.39,3.09,4.23,2.77s.87-1.28-.35-2.2S35.44,50.11,34.32,50Z"/><path class="cls-4" d="M35.84,51.54s3.38-3.44,4.34-4.74a58.26,58.26,0,0,0,3.2-6.21.82.82,0,0,1,.71-.36c.42.08.3.69.3.69S42,45.67,41.08,47c-1.94,2.66-4.5,5.55-4.5,5.55Z"/><path class="cls-4" d="M41.73,45.06c-.2,0-5.57-.69-5.57-.69l-.21.31,2.77.45,2.77.44Z"/><path class="cls-4" d="M30.11,51.24c-5.76,1.44-14.27-2.6-14.27-2.6s5.69-6.52,10.56-7S39.75,45,39.75,45A20.17,20.17,0,0,1,30.11,51.24Z"/><path class="cls-5" d="M34.37,50.32a1.19,1.19,0,0,0-.13,1.16,6.23,6.23,0,0,0,2.1,1.64l.13-1s-.45-.3-.49-.56a.57.57,0,0,1,0-.4Z"/><path class="cls-5" d="M37.87,45.11a45.84,45.84,0,0,0-9.66.09c-4.48.63-11.24,2.74-11.15,3s7.39-2.41,11-2.65,10.07,0,10.07,0Z"/><path class="cls-5" d="M35.6,45.27A4.91,4.91,0,0,1,34.66,47,13.47,13.47,0,0,0,33,49.47a14.43,14.43,0,0,0,1.88-2.3c.53-.77,1.21-1.86,1.21-1.86Z"/><path class="cls-5" d="M31.12,45.31a7.67,7.67,0,0,1-1,2.81c-1,2-1.39,2.58-1.14,2.62s1-1.47,1.48-2.56,1.27-3,1.27-3Z"/><path class="cls-5" d="M26.76,45.71a5.43,5.43,0,0,1-.34,2.09c-.45,1.48-1,2.31-.79,2.41s.73-1.27,1-2.34.74-2.38.74-2.38Z"/><path class="cls-5" d="M22.07,46.8A3.16,3.16,0,0,1,21.83,48c-.27.76-.7,1.52-.57,1.52a2.81,2.81,0,0,0,.8-1.35l.41-1.48Z"/><path class="cls-5" d="M36.13,45.15a6.28,6.28,0,0,0-1.69-1.59,5.28,5.28,0,0,0-2.18-.88c-.11.1,1.24.48,1.72.79a18.44,18.44,0,0,1,1.77,1.67Z"/><path class="cls-5" d="M31.53,45a4.22,4.22,0,0,0-1.38-1.8A6.91,6.91,0,0,0,27.08,42c-.3.09,2.24.72,2.81,1.27a6,6,0,0,1,1,1.77Z"/><path class="cls-5" d="M27.4,45.49a9.74,9.74,0,0,0-2.07-1.61,8.87,8.87,0,0,0-2.48-.62c-.29,0,1.91.48,2.52.91a13.16,13.16,0,0,1,1.56,1.45Z"/><path class="cls-5" d="M22.07,46.67s-.08-.36-1.1-.73-1.59-.63-1.37-.63a6,6,0,0,1,1.36.34,8.52,8.52,0,0,1,1.61.9Z"/><path class="cls-1" d="M88.87,51.87c4.46,3.23,10.33,13.44,3.42,21.84s-17,8.9-24.61,4C59.76,72.54,56,60,65.55,51,73.24,43.81,82.14,47,88.87,51.87Z"/><path class="cls-2" d="M70.2,50.67h0Z"/><path class="cls-2" d="M71.24,51.73c.52-.25,1.11-.78.61-1.24s-1.16.06-1.63.18C69.57,51.25,69.84,52.4,71.24,51.73Z"/><path class="cls-2" d="M70.23,50.66l.79-.3A1.21,1.21,0,0,0,70.23,50.66Z"/><path class="cls-2" d="M68.8,52.91c.19-.14.46-.43.2-.64a.34.34,0,0,0-.5.11.62.62,0,0,0-.32.42C68.13,53.23,68.59,53.06,68.8,52.91Z"/><path class="cls-2" d="M72.21,52.65a.5.5,0,0,0-.49,0c-.23,0-.52.12-.57.3a.17.17,0,0,0,0,.12l-.07,0,.07,0c.06.21.57.06.76,0S72.61,52.86,72.21,52.65Z"/><path class="cls-2" d="M71.07,53.14l0,0Z"/><path class="cls-2" d="M73.31,51.5c-.22.06-.48.31-.35.52s.66.14.85,0C74.56,51.64,73.59,51.33,73.31,51.5Z"/><path class="cls-2" d="M74.25,50.14c-.16,0-.44-.1-.56,0a.21.21,0,0,0,0,.26c0,.15.27.29.38.35s1.36.47,1.45.09S74.53,50.18,74.25,50.14Z"/><path class="cls-2" d="M73,49.38c.23.12,1.07.09,1.15-.24s-.46-.41-.67-.38a.85.85,0,0,0-.37.2C72.9,49.07,72.74,49.23,73,49.38Z"/><path class="cls-2" d="M69,51.32c.43-.31,0-.49-.34-.43h0c-.19,0-.69.22-.55.48S68.78,51.44,69,51.32Z"/><path class="cls-2" d="M67.12,53.35c.17-.18.66-1,.09-1a.38.38,0,0,0-.29.15,1.57,1.57,0,0,0-.58.78C66.12,54,66.84,53.67,67.12,53.35Z"/><path class="cls-2" d="M70.19,53.58a1.1,1.1,0,0,0-.75.06,1.48,1.48,0,0,0-1,.76c-.19.76,1.17.21,1.46.11S70.82,53.81,70.19,53.58Z"/><path class="cls-2" d="M72.47,54.18c-.22.07-.46.25-.45.43,0,.37.78.26,1,.16C73.86,54.38,72.76,54,72.47,54.18Z"/><path class="cls-2" d="M77.83,49.94a.39.39,0,0,0-.38.15,1,1,0,0,0,1.56,0A.87.87,0,0,0,77.83,49.94Z"/><path class="cls-2" d="M75.62,51.92c.47.16,1.74.24,1.84-.41a1.13,1.13,0,0,0-1-.12C76,51.37,75.62,51.51,75.62,51.92Z"/><path class="cls-2" d="M76.54,48.53a.69.69,0,0,0-.94-.09.43.43,0,0,0-.22.27A.91.91,0,0,0,76.54,48.53Z"/><path class="cls-2" d="M80,51.22c-.94,0,.27,1.19.79.81S80.36,51,80,51.22Z"/><path class="cls-2" d="M66.64,55c-.29-.22-.54,0-.7.27-.63.39-1.38,1.33-.78,1.56S66.62,55.54,66.64,55Z"/><path class="cls-2" d="M64.92,53.82c-.81.16-.43,1.48.34.57C65.74,53.83,65.25,53.65,64.92,53.82Z"/><path class="cls-2" d="M69.51,56.25a.42.42,0,0,0-.3.36c.3.22,1.11.23,1.31-.16C70.82,55.87,69.78,55.79,69.51,56.25Z"/><path class="cls-2" d="M76.67,54.07l0-.06a1.24,1.24,0,0,0,0,.16c0,.08,0,.15,0,.17.17.44,1.09.45.91-.09S76.89,53.87,76.67,54.07Z"/><path class="cls-2" d="M85,52.92c-.54-.74-1.67,0-1,.24C84.43,53.45,85.52,53.65,85,52.92Z"/><path class="cls-2" d="M65.63,60l.11-.19a1.32,1.32,0,0,0-.6.93c.32.08,1.27-.54,1.24-1C66.35,59.12,65.9,59.57,65.63,60Z"/><path class="cls-2" d="M74.11,57.88a.24.24,0,0,0,.32.07c.39,0,1.11-.05.8-.46S74.22,57.56,74.11,57.88Z"/><path class="cls-2" d="M62.39,57.47a.56.56,0,0,0,0,.32c.47.16,1.69,0,1.29-.75S62.53,56.91,62.39,57.47Z"/><path class="cls-2" d="M64.06,55.47v0a.4.4,0,0,0-.49.39.59.59,0,0,0,.83-.31A.51.51,0,0,0,64.06,55.47Z"/><path class="cls-3" d="M65.64,72.11c-1.76,1.26,7.18,7.64,13,7.41a17.11,17.11,0,0,0,14.06-8.81c1.54-3.16,1-12.11-.92-11.48-.69.22.15,3.26-2.66,7.86-2.48,4-6.7,8-12.28,7.74C69.17,74.46,66.8,71.27,65.64,72.11Z"/><path class="cls-4" d="M84.8,50a.8.8,0,0,0-.73,1.22c.49,1.18,3.4,3.09,4.24,2.77s.87-1.28-.35-2.2S85.92,50.11,84.8,50Z"/><path class="cls-4" d="M86.32,51.54s3.38-3.44,4.34-4.74a60.24,60.24,0,0,0,3.2-6.21.82.82,0,0,1,.71-.36c.42.08.3.69.3.69s-2.36,4.75-3.31,6c-2,2.66-4.5,5.55-4.5,5.55Z"/><path class="cls-4" d="M92.21,45.06c-.2,0-5.58-.69-5.58-.69l-.2.31,2.77.45,2.77.44Z"/><path class="cls-4" d="M80.59,51.24c-5.76,1.44-14.27-2.6-14.27-2.6s5.68-6.52,10.56-7S90.23,45,90.23,45A20.17,20.17,0,0,1,80.59,51.24Z"/><path class="cls-5" d="M84.85,50.32a1.19,1.19,0,0,0-.13,1.16,6.23,6.23,0,0,0,2.1,1.64l.13-1s-.45-.3-.49-.56a.57.57,0,0,1,0-.4Z"/><path class="cls-5" d="M88.35,45.11a45.84,45.84,0,0,0-9.66.09c-4.48.63-11.24,2.74-11.15,3s7.39-2.41,11-2.65,10.07,0,10.07,0Z"/><path class="cls-5" d="M86.08,45.27A4.91,4.91,0,0,1,85.14,47a13.47,13.47,0,0,0-1.62,2.47,15,15,0,0,0,1.88-2.3c.53-.77,1.21-1.86,1.21-1.86Z"/><path class="cls-5" d="M81.6,45.31a7.67,7.67,0,0,1-1,2.81c-1,2-1.39,2.58-1.14,2.62s1-1.47,1.48-2.56,1.27-3,1.27-3Z"/><path class="cls-5" d="M77.24,45.71a5.43,5.43,0,0,1-.34,2.09c-.45,1.48-1,2.31-.79,2.41s.72-1.27,1-2.34.74-2.38.74-2.38Z"/><path class="cls-5" d="M72.55,46.8A3.16,3.16,0,0,1,72.31,48c-.27.76-.7,1.52-.57,1.52a2.81,2.81,0,0,0,.8-1.35L73,46.72Z"/><path class="cls-5" d="M86.61,45.15a6.28,6.28,0,0,0-1.69-1.59,5.28,5.28,0,0,0-2.18-.88c-.11.1,1.24.48,1.72.79a18.44,18.44,0,0,1,1.77,1.67Z"/><path class="cls-5" d="M82,45a4.15,4.15,0,0,0-1.37-1.8A6.91,6.91,0,0,0,77.56,42c-.3.09,2.24.72,2.81,1.27a6,6,0,0,1,1,1.77Z"/><path class="cls-5" d="M77.88,45.49a9.74,9.74,0,0,0-2.07-1.61,9,9,0,0,0-2.48-.62c-.29,0,1.91.48,2.52.91a13.16,13.16,0,0,1,1.56,1.45Z"/><path class="cls-5" d="M72.55,46.67s-.08-.36-1.1-.73-1.59-.63-1.37-.63a6,6,0,0,1,1.36.34,8.52,8.52,0,0,1,1.61.9Z"/><path class="cls-1" d="M63.26,74.76C67.72,78,73.59,88.2,66.68,96.6s-17,8.9-24.61,4c-7.93-5.14-11.72-17.69-2.13-26.66C47.63,66.7,56.52,69.89,63.26,74.76Z"/><path class="cls-2" d="M44.59,73.56h0Z"/><path class="cls-2" d="M45.62,74.62c.52-.25,1.11-.78.62-1.25s-1.16.07-1.63.18C44,74.14,44.23,75.29,45.62,74.62Z"/><path class="cls-2" d="M44.61,73.55l.8-.31A1.29,1.29,0,0,0,44.61,73.55Z"/><path class="cls-2" d="M43.18,75.8c.2-.14.47-.44.21-.64a.34.34,0,0,0-.5.1.63.63,0,0,0-.33.43C42.52,76.11,43,76,43.18,75.8Z"/><path class="cls-2" d="M46.6,75.53a.5.5,0,0,0-.49,0c-.24,0-.53.12-.58.31a.24.24,0,0,0,0,.12l-.07,0,.07,0c.06.21.57.05.76,0S47,75.75,46.6,75.53Z"/><path class="cls-2" d="M45.46,76h0Z"/><path class="cls-2" d="M47.7,74.38c-.23.07-.48.31-.35.53s.66.13.84,0C48.94,74.53,48,74.22,47.7,74.38Z"/><path class="cls-2" d="M48.63,73c-.15,0-.43-.1-.55,0a.2.2,0,0,0,0,.26c0,.15.27.29.37.34s1.37.48,1.45.09S48.91,73.06,48.63,73Z"/><path class="cls-2" d="M47.39,72.26c.23.12,1.07.09,1.16-.24s-.46-.41-.68-.38a.86.86,0,0,0-.36.21C47.29,72,47.12,72.12,47.39,72.26Z"/><path class="cls-2" d="M43.33,74.21c.44-.32,0-.5-.33-.43h0c-.2,0-.69.21-.56.48S43.16,74.33,43.33,74.21Z"/><path class="cls-2" d="M41.51,76.24c.16-.18.66-1,.09-1a.44.44,0,0,0-.3.15,1.64,1.64,0,0,0-.57.79C40.51,76.9,41.23,76.56,41.51,76.24Z"/><path class="cls-2" d="M44.57,76.47a1.11,1.11,0,0,0-.75.06c-.42.11-.92.44-1,.75-.19.77,1.17.22,1.46.12S45.21,76.7,44.57,76.47Z"/><path class="cls-2" d="M46.85,77.07c-.21.07-.45.25-.45.42,0,.38.79.26,1,.16C48.24,77.27,47.15,76.9,46.85,77.07Z"/><path class="cls-2" d="M52.21,72.83a.38.38,0,0,0-.37.15,1,1,0,0,0,1.56,0A.89.89,0,0,0,52.21,72.83Z"/><path class="cls-2" d="M50,74.8c.47.16,1.74.24,1.84-.4a1.08,1.08,0,0,0-1-.12C50.43,74.26,50,74.39,50,74.8Z"/><path class="cls-2" d="M50.92,71.42a.67.67,0,0,0-.93-.09.44.44,0,0,0-.22.26A.89.89,0,0,0,50.92,71.42Z"/><path class="cls-2" d="M54.38,74.11c-.94,0,.27,1.19.79.81S54.75,73.87,54.38,74.11Z"/><path class="cls-2" d="M41,77.92c-.3-.23-.54,0-.71.26-.62.4-1.38,1.34-.78,1.56S41,78.43,41,77.92Z"/><path class="cls-2" d="M39.3,76.71c-.81.15-.42,1.47.34.57C40.12,76.72,39.63,76.54,39.3,76.71Z"/><path class="cls-2" d="M43.89,79.14a.41.41,0,0,0-.29.36c.3.21,1.1.23,1.3-.16C45.2,78.75,44.16,78.68,43.89,79.14Z"/><path class="cls-2" d="M51.06,77l0-.06a.34.34,0,0,0,0,.16c0,.08,0,.14,0,.17.17.43,1.1.45.92-.1S51.28,76.75,51.06,77Z"/><path class="cls-2" d="M59.37,75.81c-.55-.74-1.68,0-1,.23C58.82,76.34,59.9,76.53,59.37,75.81Z"/><path class="cls-2" d="M40,82.85l.11-.2a1.37,1.37,0,0,0-.6.94c.33.08,1.28-.54,1.25-1C40.73,82,40.29,82.45,40,82.85Z"/><path class="cls-2" d="M48.49,80.77a.24.24,0,0,0,.32.07c.39,0,1.11-.06.81-.47S48.6,80.44,48.49,80.77Z"/><path class="cls-2" d="M36.78,80.35a.72.72,0,0,0-.05.33c.48.16,1.7,0,1.3-.75S36.92,79.8,36.78,80.35Z"/><path class="cls-2" d="M38.45,78.35h0a.4.4,0,0,0-.5.39.59.59,0,0,0,.83-.32A.54.54,0,0,0,38.45,78.35Z"/><path class="cls-3" d="M40,95c-1.75,1.27,7.18,7.64,13,7.42a17.12,17.12,0,0,0,14.06-8.82c1.53-3.15,1-12.1-.93-11.48-.68.23.16,3.26-2.66,7.86C61,94,56.79,98,51.2,97.72,43.56,97.34,41.18,94.16,40,95Z"/><path class="cls-4" d="M59.19,72.85a.81.81,0,0,0-.73,1.23c.48,1.18,3.4,3.09,4.23,2.77s.88-1.28-.34-2.2S60.3,73,59.19,72.85Z"/><path class="cls-4" d="M60.7,74.43s3.38-3.45,4.35-4.74a60.24,60.24,0,0,0,3.2-6.21s.3-.44.71-.36.29.69.29.69-2.35,4.74-3.31,6c-1.94,2.65-4.5,5.55-4.5,5.55Z"/><path class="cls-4" d="M66.6,67.94,61,67.25l-.2.32,2.77.44,2.77.45Z"/><path class="cls-4" d="M55,74.13c-5.76,1.44-14.28-2.6-14.28-2.6s5.69-6.52,10.57-7,13.35,3.33,13.35,3.33A20.15,20.15,0,0,1,55,74.13Z"/><path class="cls-5" d="M59.24,73.2a1.16,1.16,0,0,0-.13,1.16A6,6,0,0,0,61.2,76l.14-1s-.45-.3-.5-.56a.61.61,0,0,1,0-.4Z"/><path class="cls-5" d="M62.73,68a46.5,46.5,0,0,0-9.65.09c-4.48.64-11.24,2.75-11.16,3s7.39-2.41,11-2.64,10.07,0,10.07,0Z"/><path class="cls-5" d="M60.47,68.16a5.15,5.15,0,0,1-.94,1.73,11.75,11.75,0,0,0-1.62,2.47,15.65,15.65,0,0,0,1.87-2.3c.53-.78,1.22-1.87,1.22-1.87Z"/><path class="cls-5" d="M56,68.19A7.46,7.46,0,0,1,55,71c-1,2-1.39,2.58-1.15,2.63s1-1.47,1.48-2.56,1.27-2.95,1.27-2.95Z"/><path class="cls-5" d="M51.62,68.59a5.16,5.16,0,0,1-.34,2.09c-.44,1.48-1,2.32-.78,2.42s.72-1.27,1-2.34.75-2.39.75-2.39Z"/><path class="cls-5" d="M46.94,69.68a3.45,3.45,0,0,1-.24,1.24c-.27.76-.71,1.52-.58,1.51a2.56,2.56,0,0,0,.8-1.34c.2-.69.41-1.49.41-1.49Z"/><path class="cls-5" d="M61,68a6.41,6.41,0,0,0-1.69-1.6,5.15,5.15,0,0,0-2.18-.87c-.12.1,1.24.48,1.72.79A17.25,17.25,0,0,1,60.62,68Z"/><path class="cls-5" d="M56.39,67.91A4.28,4.28,0,0,0,55,66.1a6.91,6.91,0,0,0-3.07-1.18c-.29.1,2.24.73,2.81,1.28a6.13,6.13,0,0,1,1,1.77Z"/><path class="cls-5" d="M52.27,68.37a9.75,9.75,0,0,0-2.07-1.6,8.6,8.6,0,0,0-2.48-.62c-.3,0,1.9.48,2.52.91A13.35,13.35,0,0,1,51.8,68.5Z"/><path class="cls-5" d="M46.93,69.56s-.07-.36-1.09-.74-1.59-.63-1.37-.63a7.27,7.27,0,0,1,1.36.35,8.85,8.85,0,0,1,1.6.89Z"/><path class="cls-1" d="M38.39,74.76C42.85,78,48.72,88.2,41.82,96.6s-17,8.9-24.62,4C9.28,95.42,5.48,82.87,15.07,73.9,22.76,66.7,31.66,69.89,38.39,74.76Z"/><path class="cls-2" d="M19.72,73.56h0Z"/><path class="cls-2" d="M20.76,74.62c.52-.25,1.11-.78.62-1.25s-1.17.07-1.64.18C19.09,74.14,19.36,75.29,20.76,74.62Z"/><path class="cls-2" d="M19.75,73.55l.79-.31A1.26,1.26,0,0,0,19.75,73.55Z"/><path class="cls-2" d="M18.32,75.8c.2-.14.46-.44.2-.64a.34.34,0,0,0-.5.1.62.62,0,0,0-.32.43C17.65,76.11,18.11,76,18.32,75.8Z"/><path class="cls-2" d="M21.73,75.53a.5.5,0,0,0-.49,0c-.23,0-.52.12-.57.31a.17.17,0,0,0,0,.12l-.07,0,.07,0c.06.21.58.05.76,0S22.14,75.75,21.73,75.53Z"/><path class="cls-2" d="M20.59,76h0Z"/><path class="cls-2" d="M22.83,74.38c-.22.07-.48.31-.35.53s.66.13.85,0C24.08,74.53,23.11,74.22,22.83,74.38Z"/><path class="cls-2" d="M23.77,73c-.16,0-.44-.1-.56,0a.23.23,0,0,0,0,.26c0,.15.27.29.38.34s1.37.48,1.45.09S24.05,73.06,23.77,73Z"/><path class="cls-2" d="M22.53,72.26c.23.12,1.07.09,1.15-.24s-.45-.41-.67-.38a.8.8,0,0,0-.36.21C22.42,72,22.26,72.12,22.53,72.26Z"/><path class="cls-2" d="M18.47,74.21c.43-.32,0-.5-.33-.43h0c-.2,0-.69.21-.56.48S18.3,74.33,18.47,74.21Z"/><path class="cls-2" d="M16.64,76.24c.17-.18.66-1,.09-1a.43.43,0,0,0-.29.15,1.66,1.66,0,0,0-.58.79C15.64,76.9,16.36,76.56,16.64,76.24Z"/><path class="cls-2" d="M19.71,76.47a1.1,1.1,0,0,0-.75.06,1.47,1.47,0,0,0-1,.75c-.19.77,1.17.22,1.46.12S20.34,76.7,19.71,76.47Z"/><path class="cls-2" d="M22,77.07c-.22.07-.45.25-.45.42,0,.38.78.26,1,.16C23.38,77.27,22.28,76.9,22,77.07Z"/><path class="cls-2" d="M27.35,72.83A.39.39,0,0,0,27,73a1.05,1.05,0,0,0,1.57,0A.89.89,0,0,0,27.35,72.83Z"/><path class="cls-2" d="M25.14,74.8c.47.16,1.74.24,1.84-.4a1.1,1.1,0,0,0-1-.12C25.57,74.26,25.15,74.39,25.14,74.8Z"/><path class="cls-2" d="M26.06,71.42a.68.68,0,0,0-.93-.09.42.42,0,0,0-.23.26A.9.9,0,0,0,26.06,71.42Z"/><path class="cls-2" d="M29.51,74.11c-.94,0,.27,1.19.79.81S29.89,73.87,29.51,74.11Z"/><path class="cls-2" d="M16.16,77.92c-.29-.23-.53,0-.7.26-.63.4-1.38,1.34-.78,1.56S16.14,78.43,16.16,77.92Z"/><path class="cls-2" d="M14.44,76.71c-.81.15-.43,1.47.34.57C15.26,76.72,14.77,76.54,14.44,76.71Z"/><path class="cls-2" d="M19,79.14a.41.41,0,0,0-.3.36c.31.21,1.11.23,1.31-.16C20.34,78.75,19.3,78.68,19,79.14Z"/><path class="cls-2" d="M26.2,77l-.05-.06a1.24,1.24,0,0,0,0,.16c0,.08,0,.14,0,.17.17.43,1.09.45.92-.1S26.41,76.75,26.2,77Z"/><path class="cls-2" d="M34.5,75.81c-.54-.74-1.67,0-1,.23C34,76.34,35,76.53,34.5,75.81Z"/><path class="cls-2" d="M15.15,82.85l.11-.2a1.34,1.34,0,0,0-.6.94c.32.08,1.27-.54,1.25-1C15.87,82,15.42,82.45,15.15,82.85Z"/><path class="cls-2" d="M23.63,80.77a.24.24,0,0,0,.32.07c.39,0,1.11-.06.8-.47S23.74,80.44,23.63,80.77Z"/><path class="cls-2" d="M11.92,80.35a.61.61,0,0,0-.05.33c.48.16,1.69,0,1.29-.75S12.05,79.8,11.92,80.35Z"/><path class="cls-2" d="M13.58,78.35h0a.39.39,0,0,0-.49.39.6.6,0,0,0,.83-.32A.58.58,0,0,0,13.58,78.35Z"/><path class="cls-3" d="M15.16,95c-1.76,1.27,7.18,7.64,13,7.42A17.12,17.12,0,0,0,42.2,93.59c1.54-3.15,1-12.1-.92-11.48-.69.23.15,3.26-2.66,7.86-2.48,4-6.69,8-12.28,7.75C18.69,97.34,16.32,94.16,15.16,95Z"/><path class="cls-4" d="M34.32,72.85a.8.8,0,0,0-.72,1.23c.48,1.18,3.39,3.09,4.23,2.77s.87-1.28-.35-2.2S35.44,73,34.32,72.85Z"/><path class="cls-4" d="M35.84,74.43s3.38-3.45,4.34-4.74a58.26,58.26,0,0,0,3.2-6.21s.3-.44.71-.36.3.69.3.69-2.36,4.74-3.31,6c-1.94,2.65-4.5,5.55-4.5,5.55Z"/><path class="cls-4" d="M41.73,67.94l-5.57-.69-.21.32,2.77.44,2.77.45Z"/><path class="cls-4" d="M30.11,74.13c-5.76,1.44-14.27-2.6-14.27-2.6s5.69-6.52,10.56-7,13.35,3.33,13.35,3.33A20.15,20.15,0,0,1,30.11,74.13Z"/><path class="cls-5" d="M34.37,73.2a1.19,1.19,0,0,0-.13,1.16A6.1,6.1,0,0,0,36.34,76l.13-1s-.45-.3-.49-.56a.57.57,0,0,1,0-.4Z"/><path class="cls-5" d="M37.87,68a46.61,46.61,0,0,0-9.66.09c-4.48.64-11.24,2.75-11.15,3s7.39-2.41,11-2.64,10.07,0,10.07,0Z"/><path class="cls-5" d="M35.6,68.16a4.91,4.91,0,0,1-.94,1.73A12.77,12.77,0,0,0,33,72.36a14.92,14.92,0,0,0,1.88-2.3c.53-.78,1.21-1.87,1.21-1.87Z"/><path class="cls-5" d="M31.12,68.19a7.67,7.67,0,0,1-1,2.81c-1,2-1.39,2.58-1.14,2.63s1-1.47,1.48-2.56,1.27-2.95,1.27-2.95Z"/><path class="cls-5" d="M26.76,68.59a5.42,5.42,0,0,1-.34,2.09c-.45,1.48-1,2.32-.79,2.42s.73-1.27,1-2.34.74-2.39.74-2.39Z"/><path class="cls-5" d="M22.07,69.68a3.2,3.2,0,0,1-.24,1.24c-.27.76-.7,1.52-.57,1.51a2.7,2.7,0,0,0,.8-1.34l.41-1.49Z"/><path class="cls-5" d="M36.13,68a6.41,6.41,0,0,0-1.69-1.6,5.06,5.06,0,0,0-2.18-.87c-.11.1,1.24.48,1.72.79A17.25,17.25,0,0,1,35.75,68Z"/><path class="cls-5" d="M31.53,67.91a4.28,4.28,0,0,0-1.38-1.81,6.91,6.91,0,0,0-3.07-1.18c-.3.1,2.24.73,2.81,1.28a6,6,0,0,1,1,1.77Z"/><path class="cls-5" d="M27.4,68.37a9.48,9.48,0,0,0-2.07-1.6,8.53,8.53,0,0,0-2.48-.62c-.29,0,1.91.48,2.52.91a12.53,12.53,0,0,1,1.56,1.44Z"/><path class="cls-5" d="M22.07,69.56S22,69.2,21,68.82s-1.59-.63-1.37-.63a6.9,6.9,0,0,1,1.36.35,8.69,8.69,0,0,1,1.61.89Z"/><path class="cls-1" d="M88.87,74.76C93.33,78,99.2,88.2,92.29,96.6s-17,8.9-24.61,4C59.76,95.42,56,82.87,65.55,73.9,73.24,66.7,82.14,69.89,88.87,74.76Z"/><path class="cls-2" d="M70.2,73.56h0Z"/><path class="cls-2" d="M71.24,74.62c.52-.25,1.11-.78.61-1.25s-1.16.07-1.63.18C69.57,74.14,69.84,75.29,71.24,74.62Z"/><path class="cls-2" d="M70.23,73.55l.79-.31A1.26,1.26,0,0,0,70.23,73.55Z"/><path class="cls-2" d="M68.8,75.8c.19-.14.46-.44.2-.64a.34.34,0,0,0-.5.1.62.62,0,0,0-.32.43C68.13,76.11,68.59,76,68.8,75.8Z"/><path class="cls-2" d="M72.21,75.53a.5.5,0,0,0-.49,0c-.23,0-.52.12-.57.31a.17.17,0,0,0,0,.12l-.07,0,.07,0c.06.21.57.05.76,0S72.61,75.75,72.21,75.53Z"/><path class="cls-2" d="M71.07,76h0Z"/><path class="cls-2" d="M73.31,74.38c-.22.07-.48.31-.35.53s.66.13.85,0C74.56,74.53,73.59,74.22,73.31,74.38Z"/><path class="cls-2" d="M74.25,73c-.16,0-.44-.1-.56,0a.21.21,0,0,0,0,.26c0,.15.27.29.38.34s1.36.48,1.45.09S74.53,73.06,74.25,73Z"/><path class="cls-2" d="M73,72.26c.23.12,1.07.09,1.15-.24s-.46-.41-.67-.38a.88.88,0,0,0-.37.21C72.9,72,72.74,72.12,73,72.26Z"/><path class="cls-2" d="M69,74.21c.43-.32,0-.5-.34-.43h0c-.19,0-.69.21-.55.48S68.78,74.33,69,74.21Z"/><path class="cls-2" d="M67.12,76.24c.17-.18.66-1,.09-1a.41.41,0,0,0-.29.15,1.6,1.6,0,0,0-.58.79C66.12,76.9,66.84,76.56,67.12,76.24Z"/><path class="cls-2" d="M70.19,76.47a1.1,1.1,0,0,0-.75.06,1.47,1.47,0,0,0-1,.75c-.19.77,1.17.22,1.46.12S70.82,76.7,70.19,76.47Z"/><path class="cls-2" d="M72.47,77.07c-.22.07-.46.25-.45.42,0,.38.78.26,1,.16C73.86,77.27,72.76,76.9,72.47,77.07Z"/><path class="cls-2" d="M77.83,72.83a.39.39,0,0,0-.38.15A1,1,0,0,0,79,73,.87.87,0,0,0,77.83,72.83Z"/><path class="cls-2" d="M75.62,74.8c.47.16,1.74.24,1.84-.4a1.1,1.1,0,0,0-1-.12C76,74.26,75.62,74.39,75.62,74.8Z"/><path class="cls-2" d="M76.54,71.42a.69.69,0,0,0-.94-.09.44.44,0,0,0-.22.26A.9.9,0,0,0,76.54,71.42Z"/><path class="cls-2" d="M80,74.11c-.94,0,.27,1.19.79.81S80.36,73.87,80,74.11Z"/><path class="cls-2" d="M66.64,77.92c-.29-.23-.54,0-.7.26-.63.4-1.38,1.34-.78,1.56S66.62,78.43,66.64,77.92Z"/><path class="cls-2" d="M64.92,76.71c-.81.15-.43,1.47.34.57C65.74,76.72,65.25,76.54,64.92,76.71Z"/><path class="cls-2" d="M69.51,79.14a.41.41,0,0,0-.3.36c.3.21,1.11.23,1.31-.16C70.82,78.75,69.78,78.68,69.51,79.14Z"/><path class="cls-2" d="M76.67,77l0-.06a1.24,1.24,0,0,0,0,.16c0,.08,0,.14,0,.17.17.43,1.09.45.91-.1S76.89,76.75,76.67,77Z"/><path class="cls-2" d="M85,75.81c-.54-.74-1.67,0-1,.23C84.43,76.34,85.52,76.53,85,75.81Z"/><path class="cls-2" d="M65.63,82.85l.11-.2a1.34,1.34,0,0,0-.6.94c.32.08,1.27-.54,1.24-1C66.35,82,65.9,82.45,65.63,82.85Z"/><path class="cls-2" d="M74.11,80.77a.24.24,0,0,0,.32.07c.39,0,1.11-.06.8-.47S74.22,80.44,74.11,80.77Z"/><path class="cls-2" d="M62.39,80.35a.61.61,0,0,0,0,.33c.47.16,1.69,0,1.29-.75S62.53,79.8,62.39,80.35Z"/><path class="cls-2" d="M64.06,78.35h0a.39.39,0,0,0-.49.39.6.6,0,0,0,.83-.32A.58.58,0,0,0,64.06,78.35Z"/><path class="cls-3" d="M65.64,95c-1.76,1.27,7.18,7.64,13,7.42a17.12,17.12,0,0,0,14.06-8.82c1.54-3.15,1-12.1-.92-11.48-.69.23.15,3.26-2.66,7.86-2.48,4-6.7,8-12.28,7.75C69.17,97.34,66.8,94.16,65.64,95Z"/><path class="cls-4" d="M84.8,72.85a.81.81,0,0,0-.73,1.23c.49,1.18,3.4,3.09,4.24,2.77s.87-1.28-.35-2.2S85.92,73,84.8,72.85Z"/><path class="cls-4" d="M86.32,74.43S89.7,71,90.66,69.69a60.24,60.24,0,0,0,3.2-6.21s.3-.44.71-.36.3.69.3.69-2.36,4.74-3.31,6c-2,2.65-4.5,5.55-4.5,5.55Z"/><path class="cls-4" d="M92.21,67.94l-5.58-.69-.2.32L89.2,68l2.77.45Z"/><path class="cls-4" d="M80.59,74.13c-5.76,1.44-14.27-2.6-14.27-2.6S72,65,76.88,64.52s13.35,3.33,13.35,3.33A20.15,20.15,0,0,1,80.59,74.13Z"/><path class="cls-5" d="M84.85,73.2a1.19,1.19,0,0,0-.13,1.16A6.1,6.1,0,0,0,86.82,76L87,75s-.45-.3-.49-.56a.57.57,0,0,1,0-.4Z"/><path class="cls-5" d="M88.35,68a46.61,46.61,0,0,0-9.66.09c-4.48.64-11.24,2.75-11.15,3s7.39-2.41,11-2.64,10.07,0,10.07,0Z"/><path class="cls-5" d="M86.08,68.16a4.91,4.91,0,0,1-.94,1.73,12.77,12.77,0,0,0-1.62,2.47,15.54,15.54,0,0,0,1.88-2.3c.53-.78,1.21-1.87,1.21-1.87Z"/><path class="cls-5" d="M81.6,68.19a7.67,7.67,0,0,1-1,2.81c-1,2-1.39,2.58-1.14,2.63s1-1.47,1.48-2.56,1.27-2.95,1.27-2.95Z"/><path class="cls-5" d="M77.24,68.59a5.42,5.42,0,0,1-.34,2.09c-.45,1.48-1,2.32-.79,2.42s.72-1.27,1-2.34.74-2.39.74-2.39Z"/><path class="cls-5" d="M72.55,69.68a3.2,3.2,0,0,1-.24,1.24c-.27.76-.7,1.52-.57,1.51a2.7,2.7,0,0,0,.8-1.34L73,69.6Z"/><path class="cls-5" d="M86.61,68a6.41,6.41,0,0,0-1.69-1.6,5.06,5.06,0,0,0-2.18-.87c-.11.1,1.24.48,1.72.79A17.25,17.25,0,0,1,86.23,68Z"/><path class="cls-5" d="M82,67.91a4.2,4.2,0,0,0-1.37-1.81,6.91,6.91,0,0,0-3.07-1.18c-.3.1,2.24.73,2.81,1.28a6,6,0,0,1,1,1.77Z"/><path class="cls-5" d="M77.88,68.37a9.48,9.48,0,0,0-2.07-1.6,8.6,8.6,0,0,0-2.48-.62c-.29,0,1.91.48,2.52.91a12.53,12.53,0,0,1,1.56,1.44Z"/><path class="cls-5" d="M72.55,69.56s-.08-.36-1.1-.74-1.59-.63-1.37-.63a6.9,6.9,0,0,1,1.36.35,8.69,8.69,0,0,1,1.61.89Z"/></svg>