<svg xmlns="http://www.w3.org/2000/svg" xmlns:xlink="http://www.w3.org/1999/xlink" width="6564" height="3696.501" viewBox="0 0 6564 3696.501">
  <defs>
    <radialGradient id="radial-gradient" cx="0.5" cy="0.5" r="0.5" gradientUnits="objectBoundingBox">
      <stop offset="0" stop-color="#e6a8d8"/>
      <stop offset="1" stop-color="#8558d2"/>
    </radialGradient>
  </defs>
  <g id="Group_12762" data-name="Group 12762" transform="translate(-3568 10257.501)">
    <rect id="Rectangle_1804" data-name="Rectangle 1804" width="6564" height="3692" transform="translate(3568 -10253)" fill="url(#radial-gradient)"/>
    <circle id="Ellipse_268" data-name="Ellipse 268" cx="343.5" cy="343.5" r="343.5" transform="translate(6916 -8750)" fill="#e4e4e4"/>
    <path id="Path_41076" data-name="Path 41076" d="M2253.69,450,539,2295.958H4054.524Z" transform="translate(5240.408 -8856.958)" fill="#3a2f2a"/>
    <path id="Path_41077" data-name="Path 41077" d="M1217.889,450,872.9,2295.958H3018.723Z" transform="translate(6276.209 -8856.958)" fill="#aa6102"/>
    <path id="Path_41078" data-name="Path 41078" d="M-60,1638.307,1690.281,662,3287.7,1638.307Z" transform="translate(3628 -8199.307)" fill="#3a2f2a"/>
    <path id="Path_41079" data-name="Path 41079" d="M337,1638.307,569.209,662l1591.2,976.307Z" transform="translate(4755.286 -8199.307)" fill="#996b00"/>
    <path id="Path_41080" data-name="Path 41080" d="M2217.4,546,3649.039,1998.153H876Z" transform="translate(6285.825 -8559.153)" fill="#3a2f2a"/>
    <path id="Path_41081" data-name="Path 41081" d="M1330.187,546,2761.83,1998.153H1162Z" transform="translate(7173.034 -8559.153)" fill="#996b00"/>
    <path id="Path_41082" data-name="Path 41082" d="M1490.983,695,2496,1535.937H367Z" transform="translate(4706.842 -8096.937)" fill="#714c00"/>
    <path id="Path_41083" data-name="Path 41083" d="M587,1535.937,808.515,695l1005.021,840.936Z" transform="translate(5389.31 -8096.937)" fill="#aa6102"/>
    <path id="Path_41084" data-name="Path 41084" d="M3163.706,1731.37,2123.118,632,1096,1731.37Z" transform="translate(6968.293 -8292.37)" fill="#714c00"/>
    <path id="Path_41085" data-name="Path 41085" d="M2514.782,1731.37,1484.978,632,1365,1731.37Z" transform="translate(7617.217 -8292.37)" fill="#996b00"/>
    <path id="Path_41086" data-name="Path 41086" d="M2714.532,1560.753,1734.124,687,725,1560.753Z" transform="translate(5817.404 -8121.753)" fill="#714c00"/>
    <path id="Path_41087" data-name="Path 41087" d="M943,1560.753H2038.268L1057.86,687Z" transform="translate(6493.668 -8121.753)" fill="#996b00"/>
    <g id="layer1" transform="translate(4082.954 -10724.487)">
      <path id="path10000" d="M884.475,466.987c-95.413,0-190.246,15.9-257.713,43.2-42.507,17.2-73.8,38.793-91.148,62.071-41.707,3.186-81.1,11.422-111.132,23.575-39.147,15.84-61.936,38.1-61.936,60.5s22.789,44.666,61.936,60.506,94.172,25.061,149.535,25.061h947.119c35.339,0,70.466-5.883,95.454-15.994s39.528-24.325,39.528-38.624-14.54-28.505-39.528-38.616c-24.834-10.049-59.686-15.915-94.8-15.987-6.853-25.907-35.86-50.843-81.428-69.281-52.474-21.233-126.224-33.6-200.433-33.6-18.017,0-35.994.747-53.659,2.155a311.128,311.128,0,0,0-44.08-21.769c-67.467-27.3-162.3-43.2-257.713-43.2Z" transform="translate(0 0)" fill="#e4e4e4"/>
    </g>
    <g id="layer1-2" data-name="layer1" transform="translate(4953.954 -10724.487)">
      <path id="path10000-2" data-name="path10000" d="M884.475,466.987c-95.413,0-190.246,35.541-257.713,96.574a327.869,327.869,0,0,0-91.148,138.771c-41.707,7.122-81.1,25.537-111.132,52.707-39.147,35.414-61.936,85.174-61.936,135.257s22.789,99.86,61.936,135.273,94.172,56.03,149.535,56.03h947.119c35.339,0,70.466-13.153,95.454-35.757s39.528-54.383,39.528-86.351-14.54-63.729-39.528-86.334c-24.834-22.467-59.686-35.581-94.8-35.743-6.853-57.92-35.86-113.67-81.428-154.892-52.474-47.47-126.224-75.11-200.433-75.11a306.288,306.288,0,0,0-53.659,4.817,332.409,332.409,0,0,0-44.08-48.668c-67.467-61.033-162.3-96.574-257.713-96.574Z" transform="translate(0 0)" fill="#e4e4e4"/>
    </g>
    <g id="layer1-3" data-name="layer1" transform="translate(5840.667 -10724.487)">
      <path id="path10000-3" data-name="path10000" d="M884.475,466.987c-95.413,0-190.246,15.9-257.713,43.2-42.507,17.2-73.8,38.793-91.148,62.071-41.707,3.186-81.1,11.422-111.132,23.575-39.147,15.84-61.936,38.1-61.936,60.5s22.789,44.666,61.936,60.506S518.655,741.9,574.018,741.9h947.119c35.339,0,70.466-5.883,95.454-15.994s39.528-24.325,39.528-38.624-14.54-28.505-39.528-38.616c-24.834-10.049-59.686-15.915-94.8-15.987-6.853-25.907-35.86-50.843-81.428-69.282-52.474-21.233-126.224-33.6-200.433-33.6-18.017,0-35.994.747-53.659,2.155a311.138,311.138,0,0,0-44.08-21.769c-67.467-27.3-162.3-43.2-257.713-43.2Z" transform="translate(0 0)" fill="#e4e4e4"/>
    </g>
    <g id="layer1-4" data-name="layer1" transform="translate(6679.954 -10724.487)">
      <path id="path10000-4" data-name="path10000" d="M884.475,466.987c-95.413,0-190.246,32.667-257.713,88.764-42.507,35.343-73.8,79.716-91.148,127.549-41.707,6.546-81.1,23.472-111.132,48.444-39.147,32.55-61.936,78.286-61.936,124.319s22.789,91.784,61.936,124.334,94.172,51.5,149.535,51.5h947.119c35.339,0,70.466-12.09,95.454-32.865s39.528-49.985,39.528-79.368-14.54-58.576-39.528-79.352c-24.834-20.65-59.686-32.7-94.8-32.852-6.853-53.236-35.86-104.477-81.428-142.366-52.474-43.631-126.224-69.036-200.433-69.036a332.515,332.515,0,0,0-53.659,4.428,316.393,316.393,0,0,0-44.08-44.732c-67.467-56.1-162.3-88.764-257.713-88.764Z" transform="translate(0 0)" fill="#e4e4e4"/>
    </g>
    <g id="layer1-5" data-name="layer1" transform="translate(7488.954 -10719.987)">
      <path id="path10000-5" data-name="path10000" d="M884.475,466.987c-95.413,0-190.246,12.763-257.713,34.679-42.507,13.808-73.8,31.144-91.148,49.832-41.707,2.558-81.1,9.17-111.132,18.927-39.147,12.717-61.936,30.586-61.936,48.57s22.789,35.859,61.936,48.576,94.172,20.12,149.535,20.12h947.119c35.339,0,70.466-4.723,95.454-12.84s39.528-19.529,39.528-31.008-14.54-22.885-39.528-31c-24.834-8.068-59.686-12.777-94.8-12.835-6.853-20.8-35.86-40.819-81.428-55.622-52.474-17.046-126.224-26.972-200.433-26.972-18.017,0-35.994.6-53.659,1.73a347.422,347.422,0,0,0-44.08-17.477c-67.467-21.917-162.3-34.679-257.713-34.679Z" transform="translate(0 0)" fill="#e4e4e4"/>
    </g>
    <g id="layer1-6" data-name="layer1" transform="translate(8475.881 -10724.487)">
      <path id="path10000-6" data-name="path10000" d="M884.475,466.987c-95.413,0-190.246,32.667-257.713,88.764-42.507,35.343-73.8,79.716-91.148,127.549-41.707,6.546-81.1,23.472-111.132,48.444-39.147,32.55-61.936,78.286-61.936,124.319s22.789,91.784,61.936,124.334,94.172,51.5,149.535,51.5h947.119c35.339,0,70.466-12.09,95.454-32.865s39.528-49.985,39.528-79.368-14.54-58.576-39.528-79.352c-24.834-20.65-59.686-32.7-94.8-32.852-6.853-53.236-35.86-104.477-81.428-142.366-52.474-43.631-126.224-69.036-200.433-69.036a332.515,332.515,0,0,0-53.659,4.428,316.393,316.393,0,0,0-44.08-44.732c-67.467-56.1-162.3-88.764-257.713-88.764Z" transform="translate(0 0)" fill="#e4e4e4"/>
    </g>
    <g id="layer1-7" data-name="layer1" transform="translate(3205.453 -10724.487)">
      <path id="path10000-7" data-name="path10000" d="M884.475,466.987c-95.413,0-190.246,39.288-257.713,106.755-42.507,42.507-73.8,95.873-91.148,153.4-41.707,7.873-81.1,28.229-111.132,58.263a211.462,211.462,0,0,0,149.535,360.988h947.119a134.965,134.965,0,0,0,.65-269.928c-6.853-64.026-35.86-125.654-81.428-171.222-52.474-52.474-126.224-83.028-200.433-83.028a277.928,277.928,0,0,0-53.659,5.325,357.333,357.333,0,0,0-44.08-53.8c-67.467-67.468-162.3-106.755-257.713-106.755Z" transform="translate(0 0)" fill="#e4e4e4"/>
    </g>
    <g id="layer1-8" data-name="layer1" transform="translate(7859.332 -8836.197) rotate(180)">
      <path id="path10000-8" data-name="path10000" d="M884.475,466.987c-95.413,0-190.246,39.288-257.713,106.755-42.507,42.507-73.8,95.873-91.148,153.4-41.707,7.873-81.1,28.229-111.132,58.263a211.462,211.462,0,0,0,149.535,360.988h947.119a134.965,134.965,0,0,0,.65-269.928c-6.853-64.026-35.86-125.654-81.428-171.222-52.474-52.474-126.224-83.028-200.433-83.028a277.928,277.928,0,0,0-53.659,5.325,357.333,357.333,0,0,0-44.08-53.8c-67.467-67.468-162.3-106.755-257.713-106.755Z" transform="translate(0 0)" fill="#e4e4e4"/>
    </g>
    <g id="layer1-9" data-name="layer1" transform="translate(9507.619 -8885.9) rotate(180)">
      <path id="path10000-9" data-name="path10000" d="M884.475,466.987c-95.413,0-190.246,39.288-257.713,106.755-42.507,42.507-73.8,95.873-91.148,153.4-41.707,7.873-81.1,28.229-111.132,58.263a211.462,211.462,0,0,0,149.535,360.988h947.119a134.965,134.965,0,0,0,.65-269.928c-6.853-64.026-35.86-125.654-81.428-171.222-52.474-52.474-126.224-83.028-200.433-83.028a277.928,277.928,0,0,0-53.659,5.325,357.333,357.333,0,0,0-44.08-53.8c-67.467-67.468-162.3-106.755-257.713-106.755Z" transform="translate(0 0)" fill="#e4e4e4"/>
    </g>
    <g id="layer1-10" data-name="layer1" transform="translate(10494.547 -8618.9) rotate(180)">
      <path id="path10000-10" data-name="path10000" d="M823.521,466.987c-84.27,0-168.028,39.288-227.615,106.755-37.543,42.507-65.177,95.873-80.5,153.4-36.836,7.873-71.626,28.229-98.153,58.263-34.576,39.147-54.7,94.154-54.7,149.516s20.128,110.388,54.7,149.535,83.174,61.937,132.071,61.937h836.508c31.212,0,62.237-14.54,84.306-39.527s34.912-60.116,34.912-95.455-12.842-70.448-34.912-95.436c-21.934-24.835-52.715-39.333-83.732-39.511-6.052-64.026-31.672-125.654-71.919-171.222-46.346-52.474-111.482-83.028-177.025-83.028a217.838,217.838,0,0,0-47.393,5.325,352.1,352.1,0,0,0-38.932-53.8c-59.588-67.468-143.345-106.755-227.616-106.755Z" transform="translate(0 0)" fill="#e4e4e4"/>
    </g>
    <g id="layer1-11" data-name="layer1" transform="translate(8957.619 -8618.9) rotate(180)">
      <path id="path10000-11" data-name="path10000" d="M884.475,466.987c-95.413,0-190.246,39.288-257.713,106.755-42.507,42.507-73.8,95.873-91.148,153.4-41.707,7.873-81.1,28.229-111.132,58.263a211.462,211.462,0,0,0,149.535,360.988h947.119a134.965,134.965,0,0,0,.65-269.928c-6.853-64.026-35.86-125.654-81.428-171.222-52.474-52.474-126.224-83.028-200.433-83.028a277.928,277.928,0,0,0-53.659,5.325,357.333,357.333,0,0,0-44.08-53.8c-67.467-67.468-162.3-106.755-257.713-106.755Z" transform="translate(0 0)" fill="#e4e4e4"/>
    </g>
    <g id="layer1-12" data-name="layer1" transform="translate(7063.619 -8546.197) rotate(180)">
      <path id="path10000-12" data-name="path10000" d="M884.475,466.987c-95.413,0-190.246,39.288-257.713,106.755-42.507,42.507-73.8,95.873-91.148,153.4-41.707,7.873-81.1,28.229-111.132,58.263a211.462,211.462,0,0,0,149.535,360.988h947.119a134.965,134.965,0,0,0,.65-269.928c-6.853-64.026-35.86-125.654-81.428-171.222-52.474-52.474-126.224-83.028-200.433-83.028a277.928,277.928,0,0,0-53.659,5.325,357.333,357.333,0,0,0-44.08-53.8c-67.467-67.468-162.3-106.755-257.713-106.755Z" transform="translate(0 0)" fill="#e4e4e4"/>
    </g>
    <g id="layer1-13" data-name="layer1" transform="translate(6061.119 -8836.197) rotate(180)">
      <path id="path10000-13" data-name="path10000" d="M884.475,466.987c-95.413,0-190.246,39.288-257.713,106.755-42.507,42.507-73.8,95.873-91.148,153.4-41.707,7.873-81.1,28.229-111.132,58.263a211.462,211.462,0,0,0,149.535,360.988h947.119a134.965,134.965,0,0,0,.65-269.928c-6.853-64.026-35.86-125.654-81.428-171.222-52.474-52.474-126.224-83.028-200.433-83.028a277.928,277.928,0,0,0-53.659,5.325,357.333,357.333,0,0,0-44.08-53.8c-67.467-67.468-162.3-106.755-257.713-106.755Z" transform="translate(0 0)" fill="#e4e4e4"/>
    </g>
    <g id="layer1-14" data-name="layer1" transform="translate(5224.118 -8431.698) rotate(180)">
      <path id="path10000-14" data-name="path10000" d="M884.475,466.987c-95.413,0-190.246,39.288-257.713,106.755-42.507,42.507-73.8,95.873-91.148,153.4-41.707,7.873-81.1,28.229-111.132,58.263a211.462,211.462,0,0,0,149.535,360.988h947.119a134.965,134.965,0,0,0,.65-269.928c-6.853-64.026-35.86-125.654-81.428-171.222-52.474-52.474-126.224-83.028-200.433-83.028a277.928,277.928,0,0,0-53.659,5.325,357.333,357.333,0,0,0-44.08-53.8c-67.467-67.468-162.3-106.755-257.713-106.755Z" transform="translate(0 0)" fill="#e4e4e4"/>
    </g>
    <rect id="Rectangle_1805" data-name="Rectangle 1805" width="6564" height="831" transform="translate(3568 -10257)" fill="#e4e4e4"/>
    <g id="layer1-15" data-name="layer1" transform="translate(5312.047 -9106.197) rotate(180)">
      <path id="path10000-15" data-name="path10000" d="M884.476,466.987c-95.413,0-190.246,39.311-257.713,106.82-42.507,42.532-73.8,95.931-91.148,153.493-41.707,7.878-81.1,28.246-111.132,58.3A214.177,214.177,0,0,0,362.546,935.2c0,55.4,22.789,110.454,61.936,149.625A213.961,213.961,0,0,0,574.018,1146.8h947.119a135.046,135.046,0,0,0,.65-270.09c-6.853-64.065-35.86-125.729-81.428-171.325-52.474-52.506-126.224-83.078-200.433-83.078a277.768,277.768,0,0,0-53.659,5.328,357.5,357.5,0,0,0-44.08-53.831c-67.467-67.508-162.3-106.82-257.713-106.82Z" transform="translate(0 0)" fill="#bebebe"/>
    </g>
    <g id="layer1-16" data-name="layer1" transform="translate(6469.833 -9298.308) rotate(180)">
      <path id="path10000-16" data-name="path10000" d="M736.982,466.987c-68.45,0-136.484,28.2-184.885,76.633a264.009,264.009,0,0,0-65.39,110.117,151.742,151.742,0,0,0,27.551,300.955h679.471a96.883,96.883,0,0,0,.466-193.765c-4.916-45.961-25.726-90.2-58.417-122.91a205.745,205.745,0,0,0-143.792-59.6,199.27,199.27,0,0,0-38.5,3.823,256.479,256.479,0,0,0-31.623-38.619c-48.4-48.431-116.435-76.633-184.885-76.633Z" transform="translate(0 0)" fill="#bebebe"/>
    </g>
    <g id="layer1-17" data-name="layer1" transform="translate(8051.833 -9123.139) rotate(180)">
      <path id="path10000-17" data-name="path10000" d="M871.468,466.987c-93.035,0-185.5,38.332-251.29,104.157-41.448,41.472-71.957,93.54-88.876,149.668-40.668,7.682-79.076,27.542-108.362,56.846a206.316,206.316,0,0,0,145.808,352.2h923.516A131.68,131.68,0,0,0,1492.9,866.5c-6.682-62.468-34.966-122.6-79.4-167.055-51.166-51.2-123.078-81.008-195.438-81.008a270.848,270.848,0,0,0-52.322,5.2,348.59,348.59,0,0,0-42.982-52.49C1056.97,505.319,964.5,466.987,871.466,466.987Z" transform="translate(0 0)" fill="#bebebe"/>
    </g>
    <g id="layer1-18" data-name="layer1" transform="translate(8779.087 -8752.854) rotate(180)">
      <path id="path10000-18" data-name="path10000" d="M678.476,466.987c-57.754,0-115.158,23.8-156,64.659a222.756,222.756,0,0,0-55.173,92.911,128.032,128.032,0,0,0,23.246,253.93h573.3A81.745,81.745,0,0,0,1064.247,715,171.523,171.523,0,0,0,893.633,561.005a168.133,168.133,0,0,0-32.48,3.225,216.4,216.4,0,0,0-26.682-32.585c-40.839-40.863-98.242-64.659-156-64.659Z" transform="translate(0 0)" fill="#bebebe"/>
    </g>
    <g id="layer1-19" data-name="layer1" transform="translate(9616.746 -9123.139) rotate(180)">
      <path id="path10000-19" data-name="path10000" d="M874.923,466.987c-93.666,0-186.764,38.592-253,104.865-41.729,41.754-72.445,94.175-89.48,150.684-40.944,7.734-79.613,27.729-109.1,57.232a207.717,207.717,0,0,0,146.8,354.594h929.785a132.574,132.574,0,0,0,.638-265.147c-6.728-62.892-35.2-123.428-79.938-168.19-51.514-51.545-123.914-81.557-196.765-81.557a272.678,272.678,0,0,0-52.677,5.231,350.966,350.966,0,0,0-43.273-52.846c-66.232-66.273-159.329-104.865-253-104.865Z" transform="translate(0 0)" fill="#bebebe"/>
    </g>
    <g id="layer1-20" data-name="layer1" transform="translate(10494.547 -9225.604) rotate(180)">
      <path id="path10000-20" data-name="path10000" d="M709.8,466.987c-63.481,0-126.577,32.667-171.466,88.764-28.282,35.343-49.1,79.716-60.644,127.549-27.749,6.547-53.957,23.472-73.94,48.444-26.046,32.55-41.209,78.286-41.209,124.319s15.162,91.784,41.209,124.334,62.656,51.5,99.491,51.5H1133.4c23.512,0,46.884-12.09,63.509-32.865s26.3-49.985,26.3-79.368-9.674-58.575-26.3-79.352c-16.523-20.65-39.711-32.7-63.076-32.852-4.56-53.236-23.859-104.477-54.177-142.366-34.913-43.631-83.981-69.035-133.356-69.035a149.374,149.374,0,0,0-35.7,4.428,293.7,293.7,0,0,0-29.328-44.732c-44.888-56.1-107.984-88.764-171.466-88.764Z" transform="translate(0 0)" fill="#bebebe"/>
    </g>
  </g>
</svg>
