<svg xmlns="http://www.w3.org/2000/svg" xmlns:xlink="http://www.w3.org/1999/xlink" width="219" height="233" viewBox="0 0 219 233">
  <defs>
    <clipPath id="clip-App_Logo_Whites">
      <rect width="219" height="233"/>
    </clipPath>
  </defs>
  <g id="App_Logo_Whites" data-name="App Logo Whites" clip-path="url(#clip-App_Logo_Whites)">
    <g id="Group_87" data-name="Group 87" transform="translate(-503.359 -597.658)">
      <path id="Path_268" data-name="Path 268" d="M620.041,664.86l6.437.239a39.87,39.87,0,0,1,11.335,2.017c4.737,1.607,8.962,4.063,12,8.157,3.18,4.289,5.088,9.738,2.289,15.819a16.923,16.923,0,0,1-10.663,9.055l-.075.022a35.746,35.746,0,0,1-11.151,1.455c-.685-.019-1.371-.039-2.056-.03h0a7.669,7.669,0,0,0-7.633,7.669v48.207a6.981,6.981,0,0,1-7.008,6.981l-15.946-.062.18-55.636a7,7,0,0,0-6.918-7.02l-1.3-.014a7.8,7.8,0,0,0-7.89,7.773l-.234,63.486a6.713,6.713,0,0,0,6.717,6.738l41.378-.024a7.01,7.01,0,0,0,7.006-7.01v-52.3A5.387,5.387,0,0,1,641.58,715l2.437-.141a33.951,33.951,0,0,0,11.644-2.756c6.349-2.776,10.073-5.456,13.315-11.389,4.251-7.78,6.688-20.683-2.681-34.145-10.795-15.512-25.881-18.853-35.935-19.118H610.276Z" transform="translate(-9.887 0)" fill="#fff"/>
      <path id="Path_269" data-name="Path 269" d="M580.782,769.86s.018-8.176,8.4-8.278,8.752,7.492,8.752,7.492v24.868L589.36,784.6l-8.578,9.339Z" transform="translate(-9.555 -60.853)" fill="#ffb500"/>
      <path id="Path_270" data-name="Path 270" d="M562.861,712.224a1.694,1.694,0,0,1,.916-.812q8.343-3.726,16.675-7.475a1.655,1.655,0,0,1,1.485-.008q8.346,3.763,16.71,7.487c.729.325,1.153,1.039.7,1.72a.684.684,0,0,0-.057.358c0,3.016,0,6.032-.009,9.048a.473.473,0,0,0,.3.481,2.751,2.751,0,0,1-1.526,5.145,2.756,2.756,0,0,1-2.542-2.186,2.8,2.8,0,0,1,1.362-2.975.556.556,0,0,0,.263-.379c.015-2.755.011-5.51.01-8.266a2.028,2.028,0,0,0-.026-.216c-.133.034-.25.056-.362.093-1.163.384-2.322.781-3.491,1.146a.426.426,0,0,0-.35.5c.01,2.358.005,4.716.007,7.074a1.2,1.2,0,0,1-.451,1.083,1.234,1.234,0,0,1-1.161.1c-1.592-.454-3.177-.954-4.8-1.295a26.445,26.445,0,0,0-6.994-.456A30.557,30.557,0,0,0,571,724.152a1.048,1.048,0,0,1-1.505-1.092c0-2.358-.009-4.717.007-7.074a.5.5,0,0,0-.4-.575c-1.749-.584-3.486-1.2-5.232-1.793a1.518,1.518,0,0,1-1.008-.8Z" transform="translate(0 -30.02)" fill="#fff"/>
    </g>
  </g>
</svg>
