<svg id="Layer_1" data-name="Layer 1" xmlns="http://www.w3.org/2000/svg" viewBox="0 0 452.51 459.29"><defs><style>.cls-1{fill:#f40018;}</style></defs><title>zerored_6</title><path class="cls-1" d="M226.25,396.87q-59.64,0-91.52-44T102.84,228q0-53.22,14.22-90.39t41.75-56.2q27.52-19,67.44-19,60.11,0,91.76,42.44T349.67,228q0,53.67-14.22,91.3T293.7,376.91Q266.16,396.88,226.25,396.87Zm0-67.44q22,0,32.58-24.09T269.38,228q0-52.75-10.55-75.47t-32.58-22.71q-22,0-32.57,22.71T183.13,228q0,53.22,10.55,77.3T226.25,329.43Z"/></svg>