<svg id="Layer_1" data-name="Layer 1" xmlns="http://www.w3.org/2000/svg" viewBox="0 0 343.28 193"><defs><style>.cls-1{fill:#f70814; 
  -webkit-animation: heart-anim 7s 1s infinite;
          animation: heart-anim 7s 1s infinite;}@-webkit-keyframes heart-anim {
  55% {
    stroke-dashoffset: 308.522;
    fill: transparent;
  }
  70% {
    stroke-dashoffset: 0;
    fill: transparent;
  }
  87% {
    stroke-dashoffset: 0;
    fill: #E21737;
  }
  100% {
    stroke-dashoffset: 0;
    fill: #E21737;
  }
} .cls-2{fill:none;stroke:#f70814;stroke-miterlimit:10;}</style></defs><title>One</title><path class="cls-1" d="M208.26,136.81c-1.86-1.75-4.48-2.63-7.88-2.63H185.44V48q0-5.08-2.87-7.55a11.61,11.61,0,0,0-7.8-2.46,21.1,21.1,0,0,0-7,1.23,35.66,35.66,0,0,0-7,3.36L138,56.36a12,12,0,0,0-4.93,5.5,10.4,10.4,0,0,0-.57,6.4,11.11,11.11,0,0,0,3,5.5,9.21,9.21,0,0,0,5.5,2.71,11.3,11.3,0,0,0,7-1.73l12-7.3v66.74H143.24q-5.09,0-7.79,2.63t-2.71,7.72a10.58,10.58,0,0,0,2.71,7.71c1.8,1.87,4.4,2.79,7.79,2.79h57.14c3.4,0,6-.9,7.88-2.7s2.8-4.41,2.8-7.8S210.12,138.56,208.26,136.81Z"/><path id="One_Outline" data-name="One Outline" class="cls-2" d="M208.26,136.81c-1.86-1.75-4.48-2.63-7.88-2.63H185.44V48q0-5.08-2.87-7.55a11.61,11.61,0,0,0-7.8-2.46,21.1,21.1,0,0,0-7,1.23,35.66,35.66,0,0,0-7,3.36L138,56.36a12,12,0,0,0-4.93,5.5,10.4,10.4,0,0,0-.57,6.4,11.11,11.11,0,0,0,3,5.5,9.21,9.21,0,0,0,5.5,2.71,11.3,11.3,0,0,0,7-1.73l12-7.3v66.74H143.24q-5.09,0-7.79,2.63t-2.71,7.72a10.58,10.58,0,0,0,2.71,7.71c1.8,1.87,4.4,2.79,7.79,2.79h57.14c3.4,0,6-.9,7.88-2.7s2.8-4.41,2.8-7.8S210.12,138.56,208.26,136.81Z"/></svg>