<svg id="Layer_1" data-name="Layer 1" xmlns="http://www.w3.org/2000/svg" viewBox="0 0 343.28 193"><defs><style>.cls-1{fill:#f70814; 
  -webkit-animation: heart-anim 7s 1s infinite;
          animation: heart-anim 7s 1s infinite;}@-webkit-keyframes heart-anim {
  55% {
    stroke-dashoffset: 308.522;
    fill: transparent;
  }
  70% {
    stroke-dashoffset: 0;
    fill: transparent;
  }
  87% {
    stroke-dashoffset: 0;
    fill: #E21737;
  }
  100% {
    stroke-dashoffset: 0;
    fill: #E21737;
  }
} .cls-2{fill:none;stroke:#f70814;stroke-miterlimit:10;}.cls-2{fill:none;stroke:#f70814;stroke-miterlimit:10;}</style></defs><title>Two</title><path class="cls-1" d="M210.88,137q-2.79-2.62-8-2.63H165l22.27-22.64A112.15,112.15,0,0,0,199,97.48a54.9,54.9,0,0,0,6.72-13.2,41.74,41.74,0,0,0,2.22-13.46q0-10.66-4.59-18A29.13,29.13,0,0,0,189.88,41.7q-8.87-3.86-21.66-3.86A69.8,69.8,0,0,0,151.08,40a55.89,55.89,0,0,0-15.67,6.57,11.29,11.29,0,0,0-4.93,5.25,10.07,10.07,0,0,0-.65,6.15,11,11,0,0,0,2.79,5.33,9.15,9.15,0,0,0,5.16,2.87,9.94,9.94,0,0,0,6.65-1.39,37.48,37.48,0,0,1,10.42-4.51A41.41,41.41,0,0,1,164.78,59q8.68,0,13.37,3.69t4.68,10.75a24.72,24.72,0,0,1-3,11.56q-3,5.67-10.17,13L139,130.71a36.8,36.8,0,0,0-4.93,6.32,13.08,13.08,0,0,0-1.8,6.81c0,3.72.93,6.53,2.79,8.45s4.86,2.87,9,2.87h58.74q5.25,0,8-2.71t2.79-7.79Q213.67,139.58,210.88,137Z"/><path class="cls-2" d="M210.88,137q-2.79-2.62-8-2.63H165l22.27-22.64A112.15,112.15,0,0,0,199,97.48a54.9,54.9,0,0,0,6.72-13.2,41.74,41.74,0,0,0,2.22-13.46q0-10.66-4.59-18A29.13,29.13,0,0,0,189.88,41.7q-8.87-3.86-21.66-3.86A69.8,69.8,0,0,0,151.08,40a55.89,55.89,0,0,0-15.67,6.57,11.29,11.29,0,0,0-4.93,5.25,10.07,10.07,0,0,0-.65,6.15,11,11,0,0,0,2.79,5.33,9.15,9.15,0,0,0,5.16,2.87,9.94,9.94,0,0,0,6.65-1.39,37.48,37.48,0,0,1,10.42-4.51A41.41,41.41,0,0,1,164.78,59q8.68,0,13.37,3.69t4.68,10.75a24.72,24.72,0,0,1-3,11.56q-3,5.67-10.17,13L139,130.71a36.8,36.8,0,0,0-4.93,6.32,13.08,13.08,0,0,0-1.8,6.81c0,3.72.93,6.53,2.79,8.45s4.86,2.87,9,2.87h58.74q5.25,0,8-2.71t2.79-7.79Q213.67,139.58,210.88,137Z"/></svg>