<svg id="Layer_1" data-name="Layer 1" xmlns="http://www.w3.org/2000/svg" viewBox="0 0 452.51 459.29"><defs><style>.cls-1{fill:#fff;stroke:#070707;stroke-miterlimit:10;}</style></defs><title>twowhite_1</title><path class="cls-1" d="M337.84,334.48q-8.73-8.72-26.16-8.72H220.52l52.17-51.84q21.09-21.1,33.72-39.69t18.35-36.7a124.8,124.8,0,0,0,5.73-37.85q0-29.82-13.3-51.16T278.42,76.18q-25.46-11-63.08-11a202.51,202.51,0,0,0-45.42,5.27,166.23,166.23,0,0,0-43.59,16.75q-12.39,6.42-17,16.29a35.08,35.08,0,0,0,5.27,38.07,30.78,30.78,0,0,0,16.75,9.87q10.08,2.29,21.56-3.21A140,140,0,0,1,180,137.66,91.89,91.89,0,0,1,203,134.44q22,0,33.49,8.95t11.47,26.38q0,13.77-7.57,27.53t-25.92,33l-79.83,83.5A96.67,96.67,0,0,0,119.45,334,47.14,47.14,0,0,0,113.94,357q0,18.35,9,27.75T152,394.12H311.68q17.43,0,26.16-8.95t8.71-25.46Q346.55,343.2,337.84,334.48Z"/></svg>