<svg id="Layer_1" data-name="Layer 1" xmlns="http://www.w3.org/2000/svg" viewBox="0 0 343.28 193"><defs><style>.cls-1{fill:#f70814; 
  -webkit-animation: heart-anim 7s 1s infinite;
          animation: heart-anim 7s 1s infinite;}@-webkit-keyframes heart-anim {
  55% {
    stroke-dashoffset: 308.522;
    fill: transparent;
  }
  70% {
    stroke-dashoffset: 0;
    fill: transparent;
  }
  87% {
    stroke-dashoffset: 0;
    fill: #E21737;
  }
  100% {
    stroke-dashoffset: 0;
    fill: #E21737;
  }
} .cls-2{fill:none;stroke:#f70814;stroke-miterlimit:10;}.cls-2{fill:none;stroke:#f70814;stroke-miterlimit:10;}</style></defs><title>Three</title><path class="cls-1" d="M206.77,102.86a27.14,27.14,0,0,0-14.11-8.7A27.27,27.27,0,0,0,199.92,90a25.58,25.58,0,0,0,7.26-9.38,29,29,0,0,0,2.53-12.23q0-9.95-4.65-16.81A29.47,29.47,0,0,0,191.6,41q-8.81-3.68-21.21-3.67a69.26,69.26,0,0,0-16.72,2,61.33,61.33,0,0,0-15.25,6,12,12,0,0,0-5.06,5.31,10.15,10.15,0,0,0-.74,6,11.78,11.78,0,0,0,2.53,5.39,8.77,8.77,0,0,0,5.06,3,9.18,9.18,0,0,0,6.53-1.31,47.81,47.81,0,0,1,11.09-4.24,46.61,46.61,0,0,1,10.28-1.14q8.64,0,13,3.34t4.32,9.71a14.07,14.07,0,0,1-2,7.75,13,13,0,0,1-6,4.89,23.78,23.78,0,0,1-9.39,1.71h-7.17q-5.39,0-8.24,2.7t-2.86,7.58a10,10,0,0,0,2.86,7.51q2.85,2.78,8.24,2.77h9.62q9.13,0,13.87,3.26T189,119.91a14.66,14.66,0,0,1-2.2,8.24A12.59,12.59,0,0,1,180.1,133a33.24,33.24,0,0,1-10.85,1.55,50.77,50.77,0,0,1-23.66-5.54,11.86,11.86,0,0,0-7.42-1.31,9.56,9.56,0,0,0-5.46,3,10.46,10.46,0,0,0-2.61,5.55,9.92,9.92,0,0,0,1.14,6.28,13.57,13.57,0,0,0,5.87,5.38,54,54,0,0,0,15.42,5.71,80.32,80.32,0,0,0,17.37,2q13.54,0,23.25-3.92a32,32,0,0,0,14.93-11.58,30.83,30.83,0,0,0,5.22-17.78Q213.3,110.62,206.77,102.86Z"/><path id="Three_Outline" data-name="Three Outline" class="cls-2" d="M206.77,102.86a27.14,27.14,0,0,0-14.11-8.7A27.27,27.27,0,0,0,199.92,90a25.58,25.58,0,0,0,7.26-9.38,29,29,0,0,0,2.53-12.23q0-9.95-4.65-16.81A29.47,29.47,0,0,0,191.6,41q-8.81-3.68-21.21-3.67a69.26,69.26,0,0,0-16.72,2,61.33,61.33,0,0,0-15.25,6,12,12,0,0,0-5.06,5.31,10.15,10.15,0,0,0-.74,6,11.78,11.78,0,0,0,2.53,5.39,8.77,8.77,0,0,0,5.06,3,9.18,9.18,0,0,0,6.53-1.31,47.81,47.81,0,0,1,11.09-4.24,46.61,46.61,0,0,1,10.28-1.14q8.64,0,13,3.34t4.32,9.71a14.07,14.07,0,0,1-2,7.75,13,13,0,0,1-6,4.89,23.78,23.78,0,0,1-9.39,1.71h-7.17q-5.39,0-8.24,2.7t-2.86,7.58a10,10,0,0,0,2.86,7.51q2.85,2.78,8.24,2.77h9.62q9.13,0,13.87,3.26T189,119.91a14.66,14.66,0,0,1-2.2,8.24A12.59,12.59,0,0,1,180.1,133a33.24,33.24,0,0,1-10.85,1.55,50.77,50.77,0,0,1-23.66-5.54,11.86,11.86,0,0,0-7.42-1.31,9.56,9.56,0,0,0-5.46,3,10.46,10.46,0,0,0-2.61,5.55,9.92,9.92,0,0,0,1.14,6.28,13.57,13.57,0,0,0,5.87,5.38,54,54,0,0,0,15.42,5.71,80.32,80.32,0,0,0,17.37,2q13.54,0,23.25-3.92a32,32,0,0,0,14.93-11.58,30.83,30.83,0,0,0,5.22-17.78Q213.3,110.62,206.77,102.86Z"/></svg>