<svg id="Layer_1" data-name="Layer 1" xmlns="http://www.w3.org/2000/svg" viewBox="0 0 452.51 459.29"><defs><style>.cls-1{fill:#fff;stroke:#070707;stroke-miterlimit:10;}</style></defs><title>threewhite_2</title><path class="cls-1" d="M327.63,247.31q-14.72-17.51-38.94-24.43a78,78,0,0,0,19.9-11.36A70.82,70.82,0,0,0,329,185.83a78.93,78.93,0,0,0,7.12-34q0-28-13.77-47.95T282.9,73.19q-25.71-10.77-62.4-10.78a199.55,199.55,0,0,0-45.19,5.28A180.37,180.37,0,0,0,133.79,82.6Q120.47,89,115.67,98.66a32.67,32.67,0,0,0-3.44,19.5,36,36,0,0,0,7.8,17.89,31,31,0,0,0,16.28,10.78q9.87,2.76,21.8-1.83a131.33,131.33,0,0,1,28.67-10.33,119.07,119.07,0,0,1,25.46-3q21.57,0,32.58,8.26t11,23.4a29.11,29.11,0,0,1-5.28,17.43,31.68,31.68,0,0,1-14.68,11q-9.41,3.68-22.25,3.67h-17q-17.43,0-26.61,8.49t-9.17,24.55q0,16.06,9.17,24.77T196.64,262h24.78q22,0,33,7.57t11,23.63q0,11-5.5,18.81t-16.52,11.69q-11,3.92-27.07,3.91a140.69,140.69,0,0,1-28.67-3,172.43,172.43,0,0,1-31.89-10.32q-12.85-5.51-23.86-3a29.67,29.67,0,0,0-17.43,10.78,36.64,36.64,0,0,0-7.57,19A34,34,0,0,0,111.54,362q5.73,10.11,20.41,16.52,17,8.72,40.38,13.53a230.92,230.92,0,0,0,46.79,4.82q39.47,0,67.91-11.7t43.58-33q15.13-21.33,15.14-50.7Q345.75,268.88,327.63,247.31Z"/></svg>