<svg id="Layer_1" data-name="Layer 1" xmlns="http://www.w3.org/2000/svg" viewBox="0 0 343.28 193"><defs><style>.cls-1{fill:#f70814; 
  -webkit-animation: heart-anim 7s 1s infinite;
          animation: heart-anim 7s 1s infinite;}@-webkit-keyframes heart-anim {
  55% {
    stroke-dashoffset: 308.522;
    fill: transparent;
  }
  70% {
    stroke-dashoffset: 0;
    fill: transparent;
  }
  87% {
    stroke-dashoffset: 0;
    fill: #E21737;
  }
  100% {
    stroke-dashoffset: 0;
    fill: #E21737;
  }
} .cls-2{fill:none;stroke:#f70814;stroke-miterlimit:10;}.cls-2{fill:none;stroke:#f70814;stroke-miterlimit:10;}</style></defs><title>Four</title><path class="cls-1" d="M211.82,116.24q-2.67-2.55-7.72-2.55h-5.5v-64q0-6.42-3-9.46a10.72,10.72,0,0,0-8-3,13.37,13.37,0,0,0-7.33,2,19.59,19.59,0,0,0-5.8,6.17l-39.72,61.84a72.77,72.77,0,0,0-4.59,8.8,17.68,17.68,0,0,0-1.37,6.66q0,5.59,3.28,8.31t8.94,2.71h34.37v9.54q0,6.09,3,9.29c2,2.14,4.81,3.21,8.48,3.21s6.67-1.07,8.71-3.21,3-5.23,3-9.29v-9.54h5.5c3.37,0,5.94-.87,7.72-2.63s2.67-4.28,2.67-7.57S213.6,117.94,211.82,116.24Zm-60.76-2.55,24.32-38.61v38.61Z"/><path class="cls-2" d="M211.82,116.24q-2.67-2.55-7.72-2.55h-5.5v-64q0-6.42-3-9.46a10.72,10.72,0,0,0-8-3,13.37,13.37,0,0,0-7.33,2,19.59,19.59,0,0,0-5.8,6.17l-39.72,61.84a72.77,72.77,0,0,0-4.59,8.8,17.68,17.68,0,0,0-1.37,6.66q0,5.59,3.28,8.31t8.94,2.71h34.37v9.54q0,6.09,3,9.29c2,2.14,4.81,3.21,8.48,3.21s6.67-1.07,8.71-3.21,3-5.23,3-9.29v-9.54h5.5c3.37,0,5.94-.87,7.72-2.63s2.67-4.28,2.67-7.57S213.6,117.94,211.82,116.24Zm-60.76-2.55,24.32-38.61v38.61Z"/></svg>