<svg id="Layer_1" data-name="Layer 1" xmlns="http://www.w3.org/2000/svg" viewBox="0 0 452.51 459.29"><defs><style>.cls-1{fill:#fff;stroke:#070707;stroke-miterlimit:10;}</style></defs><title>fourwhite_3</title><path class="cls-1" d="M348.75,281.26Q339.81,273,322.37,273h-11V105.08q0-20.17-10.09-31t-28-10.78q-15.6,0-26.84,6.65T226,90.4L114.08,253.73q-10.1,14.68-14.68,25a52,52,0,0,0-4.59,21.34q0,18.81,11.47,28t31.66,9.18h92.21v17q0,20.21,10.79,31T271,396q19.26,0,29.82-11t10.55-30.74v-17h11q17.43,0,26.38-8.26t8.95-23.4Q357.7,289.52,348.75,281.26ZM170,273l60.19-88.85V273Z"/></svg>