<svg id="Layer_1" data-name="Layer 1" xmlns="http://www.w3.org/2000/svg" viewBox="0 0 343.28 193"><defs><style>.cls-1{fill:#f70814; 
  -webkit-animation: heart-anim 7s 1s infinite;
          animation: heart-anim 7s 1s infinite;}@-webkit-keyframes heart-anim {
  55% {
    stroke-dashoffset: 308.522;
    fill: transparent;
  }
  70% {
    stroke-dashoffset: 0;
    fill: transparent;
  }
  87% {
    stroke-dashoffset: 0;
    fill: #E21737;
  }
  100% {
    stroke-dashoffset: 0;
    fill: #E21737;
  }
} .cls-2{fill:none;stroke:#f70814;stroke-miterlimit:10;}.cls-2{fill:none;stroke:#f70814;stroke-miterlimit:10;}</style></defs><title>Five</title><path class="cls-1" d="M208.86,97A33.14,33.14,0,0,0,196,84a38.6,38.6,0,0,0-19.3-4.68A39.4,39.4,0,0,0,162,82.05a27.72,27.72,0,0,0-4.68,2.37V58.65h39.25q5.25,0,8.13-2.71t2.87-7.8c0-3.29-1-5.83-2.87-7.64s-4.63-2.71-8.13-2.71H143.83q-5.42,0-8.13,2.79T133,48.63v51.89a9.5,9.5,0,0,0,2.38,6.9q2.38,2.46,7.47,2.46a13.17,13.17,0,0,0,5.5-1.23,26.47,26.47,0,0,0,4.52-2.54,26.74,26.74,0,0,1,8.7-4.85,28.94,28.94,0,0,1,8.71-1.39q8.7,0,13.71,4.76t5,12.64a15.81,15.81,0,0,1-2.47,8.87,16.14,16.14,0,0,1-6.81,5.83A24.66,24.66,0,0,1,169.12,134a50.47,50.47,0,0,1-12.07-1.47,52.5,52.5,0,0,1-11.91-4.6,10.55,10.55,0,0,0-7.14-1.48,9.17,9.17,0,0,0-5.26,3,12.16,12.16,0,0,0-2.71,5.58,10.52,10.52,0,0,0,.74,6.41,11.41,11.41,0,0,0,5.34,5.33,54.36,54.36,0,0,0,16.26,6.41,78.88,78.88,0,0,0,17.08,2q13.62,0,23.48-4.85a35.92,35.92,0,0,0,15.19-13.54q5.34-8.72,5.34-20.53A39.21,39.21,0,0,0,208.86,97Z"/><path class="cls-2" d="M208.86,97A33.14,33.14,0,0,0,196,84a38.6,38.6,0,0,0-19.3-4.68A39.4,39.4,0,0,0,162,82.05a27.72,27.72,0,0,0-4.68,2.37V58.65h39.25q5.25,0,8.13-2.71t2.87-7.8c0-3.29-1-5.83-2.87-7.64s-4.63-2.71-8.13-2.71H143.83q-5.42,0-8.13,2.79T133,48.63v51.89a9.5,9.5,0,0,0,2.38,6.9q2.38,2.46,7.47,2.46a13.17,13.17,0,0,0,5.5-1.23,26.47,26.47,0,0,0,4.52-2.54,26.74,26.74,0,0,1,8.7-4.85,28.94,28.94,0,0,1,8.71-1.39q8.7,0,13.71,4.76t5,12.64a15.81,15.81,0,0,1-2.47,8.87,16.14,16.14,0,0,1-6.81,5.83A24.66,24.66,0,0,1,169.12,134a50.47,50.47,0,0,1-12.07-1.47,52.5,52.5,0,0,1-11.91-4.6,10.55,10.55,0,0,0-7.14-1.48,9.17,9.17,0,0,0-5.26,3,12.16,12.16,0,0,0-2.71,5.58,10.52,10.52,0,0,0,.74,6.41,11.41,11.41,0,0,0,5.34,5.33,54.36,54.36,0,0,0,16.26,6.41,78.88,78.88,0,0,0,17.08,2q13.62,0,23.48-4.85a35.92,35.92,0,0,0,15.19-13.54q5.34-8.72,5.34-20.53A39.21,39.21,0,0,0,208.86,97Z"/></svg>