<svg id="Layer_1" data-name="Layer 1" xmlns="http://www.w3.org/2000/svg" viewBox="0 0 452.51 459.29"><title>fiveblack_3</title><path d="M333,229.18a95.52,95.52,0,0,0-36.24-36.47q-23.17-13.31-54.83-13.31a107.94,107.94,0,0,0-38.31,6.66,82.13,82.13,0,0,0-9.86,4.49v-57H294.24q17.43,0,26.38-8.72t8.95-25.69q0-16.52-8.95-25.24t-26.38-8.71H150.18q-17,0-26.38,9.17t-9.4,26.15v139q0,14.69,8,22.25t24.09,7.57a51.36,51.36,0,0,0,17.89-3.21,73.25,73.25,0,0,0,13.77-6.43,71.63,71.63,0,0,1,22.25-10.55,81.18,81.18,0,0,1,20-2.75q21.09,0,33.26,10.55t12.16,28.91a37.84,37.84,0,0,1-5.74,20.87q-5.74,8.94-17,13.53t-26.38,4.59a131.27,131.27,0,0,1-30.51-3.9,142.93,142.93,0,0,1-31-11.24q-12.85-6.42-23.4-3.67a31.17,31.17,0,0,0-17,10.78,38.52,38.52,0,0,0-8,18.81A35.32,35.32,0,0,0,110,356.5q4.81,10.1,17.2,16.06a172.76,172.76,0,0,0,45,16.28,218.54,218.54,0,0,0,46.34,5.28q39.45,0,67.9-13.76t44.05-38.77q15.58-25,15.6-58Q346.09,252.35,333,229.18Z"/></svg>