<svg id="Layer_1" data-name="Layer 1" xmlns="http://www.w3.org/2000/svg" viewBox="0 0 343.28 193"><defs><style>.cls-1{fill:#f70814; 
  -webkit-animation: heart-anim 7s 1s infinite;
          animation: heart-anim 7s 1s infinite;}@-webkit-keyframes heart-anim {
  55% {
    stroke-dashoffset: 308.522;
    fill: transparent;
  }
  70% {
    stroke-dashoffset: 0;
    fill: transparent;
  }
  87% {
    stroke-dashoffset: 0;
    fill: #E21737;
  }
  100% {
    stroke-dashoffset: 0;
    fill: #E21737;
  }
} .cls-2{fill:none;stroke:#f70814;stroke-miterlimit:10;}.cls-2{fill:none;stroke:#f70814;stroke-miterlimit:10;}</style></defs><title>Six</title><path class="cls-1" d="M209.67,97.32a33.89,33.89,0,0,0-12.08-13.14,31.83,31.83,0,0,0-17.22-4.74A32.83,32.83,0,0,0,166.5,82.3a25.44,25.44,0,0,0-10.2,8.41,29.85,29.85,0,0,0-3.35,6V93.48q0-11.91,3.1-19.67a23.82,23.82,0,0,1,9.06-11.59q6-3.82,14.94-3.83a39.86,39.86,0,0,1,8.89,1.06,41.06,41.06,0,0,1,9.88,3.83,10.13,10.13,0,0,0,6.77,1.07,8.74,8.74,0,0,0,4.9-3.11,12.18,12.18,0,0,0,2.44-5.46,10.75,10.75,0,0,0-.65-6.12A9,9,0,0,0,208,45a58.91,58.91,0,0,0-13.63-5.71,55.44,55.44,0,0,0-35.5,2.12,44.07,44.07,0,0,0-16.16,11.84,51.45,51.45,0,0,0-10.12,19.09,88.75,88.75,0,0,0-3.43,25.71q0,18.45,5.39,31.26t15.67,19.58q10.27,6.78,25,6.78a40.46,40.46,0,0,0,20.24-5,35.63,35.63,0,0,0,13.79-13.87,40.91,40.91,0,0,0,5-20.33A40.07,40.07,0,0,0,209.67,97.32Zm-21.06,29.87a15,15,0,0,1-5.87,6.44,18.42,18.42,0,0,1-17.79,0,15.47,15.47,0,0,1-6-6.44,20.69,20.69,0,0,1-2.12-9.55,21.46,21.46,0,0,1,2.12-9.88,15.56,15.56,0,0,1,6-6.45,18.49,18.49,0,0,1,17.79,0,15.11,15.11,0,0,1,5.87,6.45,22.25,22.25,0,0,1,2,9.88A21.46,21.46,0,0,1,188.61,127.19Z"/><path class="cls-2" d="M209.67,97.32a33.89,33.89,0,0,0-12.08-13.14,31.83,31.83,0,0,0-17.22-4.74A32.83,32.83,0,0,0,166.5,82.3a25.44,25.44,0,0,0-10.2,8.41,29.85,29.85,0,0,0-3.35,6V93.48q0-11.91,3.1-19.67a23.82,23.82,0,0,1,9.06-11.59q6-3.82,14.94-3.83a39.86,39.86,0,0,1,8.89,1.06,41.06,41.06,0,0,1,9.88,3.83,10.13,10.13,0,0,0,6.77,1.07,8.74,8.74,0,0,0,4.9-3.11,12.18,12.18,0,0,0,2.44-5.46,10.75,10.75,0,0,0-.65-6.12A9,9,0,0,0,208,45a58.91,58.91,0,0,0-13.63-5.71,55.44,55.44,0,0,0-35.5,2.12,44.07,44.07,0,0,0-16.16,11.84,51.45,51.45,0,0,0-10.12,19.09,88.75,88.75,0,0,0-3.43,25.71q0,18.45,5.39,31.26t15.67,19.58q10.27,6.78,25,6.78a40.46,40.46,0,0,0,20.24-5,35.63,35.63,0,0,0,13.79-13.87,40.91,40.91,0,0,0,5-20.33A40.07,40.07,0,0,0,209.67,97.32Zm-21.06,29.87a15,15,0,0,1-5.87,6.44,18.42,18.42,0,0,1-17.79,0,15.47,15.47,0,0,1-6-6.44,20.69,20.69,0,0,1-2.12-9.55,21.46,21.46,0,0,1,2.12-9.88,15.56,15.56,0,0,1,6-6.45,18.49,18.49,0,0,1,17.79,0,15.11,15.11,0,0,1,5.87,6.45,22.25,22.25,0,0,1,2,9.88A21.46,21.46,0,0,1,188.61,127.19Z"/></svg>