<svg id="Layer_1" data-name="Layer 1" xmlns="http://www.w3.org/2000/svg" viewBox="0 0 452.51 459.29"><defs><style>.cls-1{fill:#f40018;}</style></defs><title>sixred_4</title><path class="cls-1" d="M336.36,229.64a97.94,97.94,0,0,0-33.49-37.39q-21.11-13.75-48.17-13.76a85.25,85.25,0,0,0-36.47,7.8,72.34,72.34,0,0,0-35.56,34.45V217q0-28,7.57-47.26t23.17-28.67q15.59-9.4,38.08-9.41a107.92,107.92,0,0,1,48.17,11.47q13.3,5.06,23.17,2.06a30.39,30.39,0,0,0,15.83-10.78,34.51,34.51,0,0,0,6.88-18.35A39.93,39.93,0,0,0,342.1,95.9q-4.37-9.63-14.91-14.22a143.72,143.72,0,0,0-36.25-14.45,158.4,158.4,0,0,0-38.54-4.82q-35.33,0-62.62,11.47a125.85,125.85,0,0,0-46.57,33.49q-19.26,22-29.36,53.68t-10.09,72q0,51.85,15.6,88.32t45.42,56q29.81,19.51,72,19.5,33,0,58.26-14.68a104.78,104.78,0,0,0,39.46-40.14q14.22-25.47,14.22-57.58Q348.75,253.27,336.36,229.64Zm-69.27,81.44a34.28,34.28,0,0,1-13.77,15.6,40.21,40.21,0,0,1-21.1,5.5,38.18,38.18,0,0,1-20.42-5.5A36.05,36.05,0,0,1,198,311.08q-4.81-10.09-4.82-23.4,0-13.77,4.82-23.63a38,38,0,0,1,13.76-15.6,37,37,0,0,1,20.42-5.73,39,39,0,0,1,21.1,5.73,36,36,0,0,1,13.77,15.6q4.57,9.87,4.58,23.63A56.18,56.18,0,0,1,267.09,311.08Z"/></svg>