<svg id="Layer_1" data-name="Layer 1" xmlns="http://www.w3.org/2000/svg" viewBox="0 0 343.28 193"><defs><style>.cls-1{fill:#f70814; 
  -webkit-animation: heart-anim 7s 1s infinite;
          animation: heart-anim 7s 1s infinite;}@-webkit-keyframes heart-anim {
  55% {
    stroke-dashoffset: 308.522;
    fill: transparent;
  }
  70% {
    stroke-dashoffset: 0;
    fill: transparent;
  }
  87% {
    stroke-dashoffset: 0;
    fill: #E21737;
  }
  100% {
    stroke-dashoffset: 0;
    fill: #E21737;
  }
} .cls-2{fill:none;stroke:#f70814;stroke-miterlimit:10;}.cls-2{fill:none;stroke:#f70814;stroke-miterlimit:10;}</style></defs><title>Seven</title><path class="cls-1" d="M211.16,40.59a13.12,13.12,0,0,0-8.64-2.8H139.61c-3.4,0-6.07.91-8,2.72s-2.88,4.42-2.88,7.82,1,6,2.88,7.82,4.59,2.72,8,2.72h45.64l-43.33,80.36a12.63,12.63,0,0,0-2,8,8.26,8.26,0,0,0,3.46,5.85,12.65,12.65,0,0,0,7.57,2.14,18.46,18.46,0,0,0,8.9-1.9,14.74,14.74,0,0,0,5.76-6.17l44.46-83.82a63.85,63.85,0,0,0,3.21-7.08,21.9,21.9,0,0,0,1.24-7.74A9.72,9.72,0,0,0,211.16,40.59Z"/><path class="cls-2" d="M211.16,40.59a13.12,13.12,0,0,0-8.64-2.8H139.61c-3.4,0-6.07.91-8,2.72s-2.88,4.42-2.88,7.82,1,6,2.88,7.82,4.59,2.72,8,2.72h45.64l-43.33,80.36a12.63,12.63,0,0,0-2,8,8.26,8.26,0,0,0,3.46,5.85,12.65,12.65,0,0,0,7.57,2.14,18.46,18.46,0,0,0,8.9-1.9,14.74,14.74,0,0,0,5.76-6.17l44.46-83.82a63.85,63.85,0,0,0,3.21-7.08,21.9,21.9,0,0,0,1.24-7.74A9.72,9.72,0,0,0,211.16,40.59Z"/></svg>