<svg id="Layer_1" data-name="Layer 1" xmlns="http://www.w3.org/2000/svg" viewBox="0 0 343.28 193"><defs><style>.cls-1{fill:#f70814; 
  -webkit-animation: heart-anim 7s 1s infinite;
          animation: heart-anim 7s 1s infinite;}@-webkit-keyframes heart-anim {
  55% {
    stroke-dashoffset: 308.522;
    fill: transparent;
  }
  70% {
    stroke-dashoffset: 0;
    fill: transparent;
  }
  87% {
    stroke-dashoffset: 0;
    fill: #E21737;
  }
  100% {
    stroke-dashoffset: 0;
    fill: #E21737;
  }
} .cls-2{fill:none;stroke:#f70814;stroke-miterlimit:10;}.cls-2{fill:none;stroke:#f70814;stroke-miterlimit:10;}</style></defs><title>Eight</title><path class="cls-1" d="M208.07,102.65a28.84,28.84,0,0,0-11.63-7.82,25.71,25.71,0,0,0,5.15-3A26.05,26.05,0,0,0,209.44,82a30.63,30.63,0,0,0,2.84-13.27,27.79,27.79,0,0,0-5-16.68,31.11,31.11,0,0,0-14.09-10.6q-9.06-3.65-21.53-3.65a57.76,57.76,0,0,0-21.45,3.65,30.58,30.58,0,0,0-14.09,10.6,28.08,28.08,0,0,0-4.93,16.68,28.14,28.14,0,0,0,15.89,26.1,29.47,29.47,0,0,0-6.34,3.2,28.16,28.16,0,0,0-9.23,10.12,29.72,29.72,0,0,0-3.4,14.49,29.48,29.48,0,0,0,5.26,17.48,32,32,0,0,0,15.06,11.25q9.79,3.81,23.23,3.81t23.23-3.81a32,32,0,0,0,15.06-11.25,29.55,29.55,0,0,0,5.26-17.48Q215.19,110.5,208.07,102.65Zm-49.3-41.77q4.62-4,12.87-4t12.87,4a13.11,13.11,0,0,1,4.78,10.61,13.81,13.81,0,0,1-8.26,13,22.38,22.38,0,0,1-9.39,1.78q-8.25,0-12.87-4a13.43,13.43,0,0,1-4.61-10.76A13.28,13.28,0,0,1,158.77,60.88Zm28.09,71.32q-5.19,3.88-15.22,3.88-9.87,0-15.14-3.88t-5.26-11.5q0-7.61,5.26-11.41t15.14-3.8q10,0,15.22,3.8T192,120.7Q192,128.32,186.86,132.2Z"/><path class="cls-2" d="M208.07,102.65a28.84,28.84,0,0,0-11.63-7.82,25.71,25.71,0,0,0,5.15-3A26.05,26.05,0,0,0,209.44,82a30.63,30.63,0,0,0,2.84-13.27,27.79,27.79,0,0,0-5-16.68,31.11,31.11,0,0,0-14.09-10.6q-9.06-3.65-21.53-3.65a57.76,57.76,0,0,0-21.45,3.65,30.58,30.58,0,0,0-14.09,10.6,28.08,28.08,0,0,0-4.93,16.68,28.14,28.14,0,0,0,15.89,26.1,29.47,29.47,0,0,0-6.34,3.2,28.16,28.16,0,0,0-9.23,10.12,29.72,29.72,0,0,0-3.4,14.49,29.48,29.48,0,0,0,5.26,17.48,32,32,0,0,0,15.06,11.25q9.79,3.81,23.23,3.81t23.23-3.81a32,32,0,0,0,15.06-11.25,29.55,29.55,0,0,0,5.26-17.48Q215.19,110.5,208.07,102.65Zm-49.3-41.77q4.62-4,12.87-4t12.87,4a13.11,13.11,0,0,1,4.78,10.61,13.81,13.81,0,0,1-8.26,13,22.38,22.38,0,0,1-9.39,1.78q-8.25,0-12.87-4a13.43,13.43,0,0,1-4.61-10.76A13.28,13.28,0,0,1,158.77,60.88Zm28.09,71.32q-5.19,3.88-15.22,3.88-9.87,0-15.14-3.88t-5.26-11.5q0-7.61,5.26-11.41t15.14-3.8q10,0,15.22,3.8T192,120.7Q192,128.32,186.86,132.2Z"/></svg>