<svg id="Layer_1" data-name="Layer 1" xmlns="http://www.w3.org/2000/svg" viewBox="0 0 452.51 459.29"><defs><style>.cls-1{fill:#fff;stroke:#070707;stroke-miterlimit:10;}</style></defs><title>eightwhite_7</title><path class="cls-1" d="M332.46,245.93a79.91,79.91,0,0,0-30-21.3,66.79,66.79,0,0,0,11.42-7.15,75.26,75.26,0,0,0,22.25-28.21,88.44,88.44,0,0,0,8-37.85q0-28-14.45-47.72T288.88,73.19Q262.5,62.42,226.25,62.41q-35.77,0-62.39,10.78T122.8,103.7q-14.46,19.74-14.46,47.72,0,30.74,17.9,52.53a80.29,80.29,0,0,0,24.6,20.25,80,80,0,0,0-41.35,37.33q-9.4,17.89-9.4,41.29,0,29.37,15.14,50.24t43.58,32.34q28.44,11.46,67.44,11.47,39.47,0,67.68-11.47t43.35-32.34q15.15-20.88,15.14-50.24Q352.42,268.41,332.46,245.93ZM196,135.59q10.56-9.41,30.28-9.41,19.27,0,30.28,9.41t11,25.46a35.38,35.38,0,0,1-4.82,18.58,30.27,30.27,0,0,1-14,12.16q-9.18,4.14-22.48,4.13-19.73,0-30.28-9.4t-10.55-25.47Q185.42,145,196,135.59Zm67.22,188.1q-12.63,9.42-36.94,9.41t-36.93-9.41q-12.62-9.39-12.62-27.29,0-18.34,12.62-27.53t36.93-9.18q24.32,0,36.94,9.18T275.8,296.4Q275.8,314.29,263.19,323.69Z"/></svg>