<svg id="Layer_1" data-name="Layer 1" xmlns="http://www.w3.org/2000/svg" viewBox="0 0 452.51 459.29"><title>nineblack_7</title><path d="M333.15,137.88q-15.6-36.47-45.19-56T215.7,62.41q-32.58,0-57.81,14.69A106.88,106.88,0,0,0,118.21,117q-14.46,25.23-14.45,57.81,0,30.74,12.38,54.59a96.17,96.17,0,0,0,34,37.62,86.86,86.86,0,0,0,47.72,13.77,84.88,84.88,0,0,0,36.7-7.8A75.52,75.52,0,0,0,262,251.21a73.23,73.23,0,0,0,7.8-12.35v3.4q0,28-7.57,47T239.33,318Q224,327.59,201,327.6a101.71,101.71,0,0,1-22.94-2.76,136.73,136.73,0,0,1-25.23-8.72q-13.32-5.5-23.17-2.29a31.2,31.2,0,0,0-15.83,11.24A35.39,35.39,0,0,0,107,343.42a38,38,0,0,0,3.44,19.73q4.35,9.41,14.91,14.91a154.63,154.63,0,0,0,36.24,14,158,158,0,0,0,38.54,4.82q35.33,0,62.63-11.47a125.82,125.82,0,0,0,46.57-33.49q19.26-22,29.36-53.68t10.09-72Q348.75,174.36,333.15,137.88ZM254.7,194.77a36.25,36.25,0,0,1-13.54,15.6,38.44,38.44,0,0,1-55.51-15.6q-4.82-9.86-4.82-23.16A55.3,55.3,0,0,1,185.65,148a34.44,34.44,0,0,1,13.76-15.6,43.91,43.91,0,0,1,41.75,0A33.13,33.13,0,0,1,254.7,148a57.78,57.78,0,0,1,4.59,23.63Q259.29,184.91,254.7,194.77Z"/></svg>