<?xml version="1.0" encoding="utf-8"?>
<!-- Generator: Adobe Illustrator 23.0.3, SVG Export Plug-In . SVG Version: 6.00 Build 0)  -->
<svg version="1.1" id="Layer_1" xmlns="http://www.w3.org/2000/svg" xmlns:xlink="http://www.w3.org/1999/xlink" x="0px" y="0px"
	  style="enable-background:new 0 0 100px 100px;" xml:space="preserve">
<style type="text/css">
	.st0{fill:#CEF4F1;}
	.st1{fill:#C1E4DB;}
	.st2{fill:#A4D2C6;}
	.st3{fill:#854B1E;}
	.st4{fill:#525A66;}
	.st5{fill:#5B070C;}
	.st6{fill:#660708;}
	.st7{opacity:0.5;}
	.st8{fill:#BA581D;}
	.st9{fill:#994116;}
	.st10{fill:#3C434C;}
	.st11{fill:#CB7C72;}
	.st12{fill:#B26964;}
	.st13{fill:#050505;}
	.st14{fill:#8F5012;stroke:#4C3300;stroke-linecap:round;stroke-linejoin:round;stroke-miterlimit:10;}
	.st15{fill:#3A1503;}
	.st16{fill:none;stroke:#000000;stroke-linecap:round;stroke-linejoin:round;stroke-miterlimit:10;}
	.st17{fill:none;stroke:#070707;stroke-linecap:round;stroke-linejoin:round;stroke-miterlimit:10;}
	.st18{fill:#9AB954;}
	.st19{fill:#B1D35F;}
	.st20{fill:#48CAE4;}
	.st21{fill:#55A630;}
	.st22{fill:#228500;}
	.st23{fill:#00B4D8;}
	.st24{fill:#94511E;}
	.st25{fill:#703D16;}
	.st26{fill:#8E9AAF;}
	.st27{fill:#CBC0D3;}
	.st28{fill:#EFD3D7;}
	.st29{fill:#FEEAFA;}
	.st30{fill:none;stroke:#703D16;stroke-miterlimit:10;}
	.st31{fill:#1D6D00;}
	.st32{fill:#E0E2E0;}
	.st33{fill:#174F02;}
	.st34{fill:#474946;}
	.st35{fill:#FFEE32;}
	.st36{fill:#8ED3D4;}
	.st37{fill:#007834;}
	.st38{fill:#4E932A;}
	.st39{fill:#503413;}
	.st40{fill:#6C3408;}
	.st41{fill:#B2C9B0;}
	.st42{fill:#D1D8D0;}
	.st43{fill:#D4D293;}
	.st44{fill:#C75864;}
	.st45{fill:#8B1308;}
	.st46{fill:#613D14;}
	.st47{fill:#683D0C;}
	.st48{fill:#8F5012;}
	.st49{fill:#A7C192;}
	.st50{fill:#D5171B;}
	.st51{fill:#A61713;}
	.st52{fill:#E98E2E;}
	.st53{fill:#452B09;}
	.st54{opacity:0.5;fill:#BA581D;}
	.st55{filter:url(#Adobe_OpacityMaskFilter);}
	.st56{filter:url(#Adobe_OpacityMaskFilter_1_);}
	.st57{mask:url(#SVGID_1_);fill:url(#SVGID_2_);}
	.st58{fill:url(#SVGID_3_);}
	.st59{fill:#440C00;}
	.st60{fill:#36B0C1;}
	.st61{fill:#319FA8;}
	.st62{fill:#FDC889;}
	.st63{opacity:0.7;fill:#C28963;}
	.st64{opacity:0.7;fill:#DC9E71;}
	.st65{fill:#2A1D07;}
	.st66{fill:#694C2E;}
	.st67{fill:#503A21;}
	.st68{fill:#31220D;}
	.st69{fill:#3FA000;}
	.st70{fill:#925F2D;}
	.st71{opacity:0.4;fill:#925F2D;}
	.st72{fill:#00943B;}
	.st73{fill:#5CC11A;}
	.st74{fill:#814525;}
	.st75{fill:#673A1D;}
	.st76{fill:#542F14;}
	.st77{fill:#FFD060;}
	.st78{fill:#FAA53C;}
	.st79{filter:url(#Adobe_OpacityMaskFilter_2_);}
	.st80{filter:url(#Adobe_OpacityMaskFilter_3_);}
	.st81{mask:url(#SVGID_4_);fill:url(#SVGID_5_);}
	.st82{fill:url(#SVGID_6_);}
</style>
<rect class="st0" width="100%" height="100%"/>
<g>
	<polygon class="st1" points="914.62,349.87 914.62,300.94 858.34,300.94 858.34,351.12 812.27,351.12 812.27,376.57 778.33,376.57 
		778.33,320.14 734.55,320.14 734.55,355.35 691.53,355.35 691.53,283.08 658.11,283.08 658.11,343.42 622.28,343.42 622.28,385.48 
		562.78,385.48 562.78,395.56 513.69,395.56 513.69,353.5 477.87,353.5 477.87,293.16 444.45,293.16 444.45,365.43 401.43,365.43 
		401.43,330.21 357.66,330.21 357.66,386.64 323.71,386.64 323.71,361.19 277.63,361.19 277.63,311.02 221.36,311.02 221.36,359.95 
		203.62,359.95 203.62,622.19 235.84,622.19 235.84,612.83 272.81,612.83 272.81,622.19 594.18,622.19 594.18,612.12 863.17,612.12 
		863.17,602.75 900.14,602.75 900.14,612.12 932.35,612.12 932.35,349.87 	"/>
	<polygon class="st2" points="917.14,458.33 917.14,416.36 868.86,416.36 868.86,459.4 836.43,459.4 836.43,486.46 828.8,486.46 
		828.8,421.53 813.59,421.53 813.59,379.55 765.31,379.55 765.31,422.6 725.78,422.6 725.78,444.43 696.66,444.43 696.66,396.02 
		659.1,396.02 659.1,426.23 622.2,426.23 622.2,364.23 593.53,364.23 593.53,415.99 562.79,415.99 562.79,452.08 511.74,452.08 
		511.74,460.72 469.63,460.72 469.63,424.64 438.9,424.64 438.9,372.87 410.23,372.87 410.23,434.87 373.32,434.87 373.32,404.66 
		335.77,404.66 335.77,453.07 306.64,453.07 306.64,431.24 267.12,431.24 267.12,388.19 218.84,388.19 218.84,430.17 203.62,430.17 
		203.62,655.15 231.26,655.15 231.26,647.12 262.98,647.12 262.98,655.15 538.68,655.15 538.68,646.51 769.45,646.51 769.45,638.47 
		801.17,638.47 801.17,646.51 828.8,646.51 828.8,621.31 836.43,621.31 836.43,683.32 873,683.32 873,675.28 904.72,675.28 
		904.72,683.32 932.35,683.32 932.35,458.33 	"/>
</g>
<g>
	<g class="st7">
		<path class="st8" d="M1255.67,335.05l-1.61-123.92c17.35-1.31,34.97-1.97,52.37-1.97c5.62,0,11.32,0.07,16.94,0.21
			c23.21,0.56,46.67,2.32,69.72,5.21l-8.03,123.68L1255.67,335.05z"/>
		<path class="st9" d="M1306.43,208.66v1c5.62,0,11.31,0.07,16.92,0.21c23.04,0.56,46.32,2.29,69.2,5.15l-7.97,122.73l-128.42-3.18
			l-1.59-122.97c17.19-1.29,34.63-1.94,51.86-1.94V208.66 M1306.43,208.66c-18.84,0-36.52,0.76-52.87,2.01l1.62,124.87l130.35,3.23
			c2.7-41.54,5.39-83.09,8.09-124.63c-21.23-2.68-44.74-4.65-70.23-5.27C1317.63,208.72,1311.98,208.66,1306.43,208.66
			L1306.43,208.66z"/>
	</g>
	<g>
		<path class="st4" d="M1297.27,324.1l0.87-34.93c0.29-11.56,9.92-20.97,21.48-20.97c0.18,0,0.36,0,0.54,0.01l4.09,0.1
			c11.85,0.29,21.25,10.17,20.96,22.03l-0.86,34.93L1297.27,324.1z"/>
		<path class="st10" d="M1319.62,267.7v1c0.18,0,0.35,0,0.53,0.01l4.09,0.1c5.61,0.14,10.83,2.45,14.69,6.52
			c3.87,4.06,5.92,9.39,5.78,15l-0.85,34.43l-46.08-1.14l0.85-34.43c0.28-11.29,9.69-20.48,20.98-20.48L1319.62,267.7
			 M1319.61,267.7c-11.9,0-21.69,9.49-21.98,21.46l-0.88,35.43l48.08,1.19l0.88-35.43c0.3-12.15-9.3-22.24-21.45-22.54l-4.09-0.1
			C1319.98,267.71,1319.8,267.7,1319.61,267.7L1319.61,267.7z"/>
	</g>
	<g>
		<path class="st11" d="M1252.61,458.63L1251,334.71c17.35-1.31,34.97-1.97,52.36-1.97c5.62,0,11.32,0.07,16.94,0.21
			c23.22,0.56,46.67,2.32,69.72,5.21l-8.03,123.68L1252.61,458.63z"/>
		<path class="st12" d="M1303.37,332.24v1c5.62,0,11.31,0.07,16.92,0.21c23.04,0.56,46.32,2.29,69.2,5.15l-7.97,122.73l-128.42-3.18
			l-1.59-122.97c17.19-1.29,34.63-1.94,51.86-1.94V332.24 M1303.37,332.24c-18.84,0-36.52,0.76-52.87,2.01l1.62,124.87l130.35,3.23
			c2.7-41.54,5.39-83.09,8.09-124.63c-21.23-2.68-44.74-4.65-70.23-5.27C1314.57,332.3,1308.92,332.24,1303.37,332.24
			L1303.37,332.24z"/>
	</g>
	<g>
		<path class="st5" d="M1245.68,334.95l0.24-9.66c20.26-2.26,40.87-3.4,61.25-3.4c4.5,0,9.06,0.06,13.55,0.17
			c24.99,0.61,50.17,2.95,74.85,6.94l-0.24,9.66L1245.68,334.95z"/>
		<path class="st13" d="M1307.18,321.39v1h0c4.49,0,9.04,0.06,13.53,0.17c24.82,0.61,49.83,2.92,74.35,6.87l-0.07,2.66l-0.15,6.06
			l-148.65-3.68l0.22-8.72c20.1-2.22,40.54-3.35,60.76-3.35L1307.18,321.39 M1307.17,321.39c-22.67,0-43.38,1.39-61.74,3.45
			l-0.26,10.59l150.65,3.73c0.09-3.53,0.17-7.06,0.26-10.59c-21.89-3.56-47.21-6.33-75.34-7.02
			C1316.14,321.45,1311.62,321.39,1307.17,321.39L1307.17,321.39z"/>
	</g>
	<polygon class="st14" points="1326.5,71.5 1362.49,137.56 1401.65,206.55 1323.28,201.76 1245.38,203.19 1287.29,135.69 	"/>
	<g>
		<path class="st4" d="M1293.91,459.65l0.87-34.93c0.29-11.56,9.92-20.97,21.48-20.97c0.18,0,0.36,0,0.54,0.01l4.09,0.1
			c5.74,0.14,11.08,2.51,15.04,6.67s6.06,9.61,5.92,15.35l-0.86,34.93L1293.91,459.65z"/>
		<g>
			<path class="st10" d="M1316.26,403.25v1c0.18,0,0.35,0,0.53,0.01l4.09,0.1c11.58,0.29,20.76,9.94,20.47,21.51l-0.85,34.43
				l-46.08-1.14l0.85-34.43c0.28-11.29,9.69-20.48,20.98-20.48L1316.26,403.25 M1316.26,403.25c-11.9,0-21.69,9.49-21.98,21.46
				l-0.88,35.43l48.08,1.19l0.88-35.43c0.3-12.15-9.3-22.24-21.45-22.54l-4.09-0.1C1316.63,403.26,1316.44,403.25,1316.26,403.25
				L1316.26,403.25z"/>
		</g>
	</g>
	<g>
		<path class="st5" d="M1244.27,211.26l0.24-9.65c21.19-2.2,42.73-3.31,64.05-3.31c5.05,0,10.17,0.06,15.21,0.19
			c26.48,0.65,53.17,3.02,79.32,7.06l-0.24,9.65L1244.27,211.26z"/>
		<path class="st15" d="M1308.56,197.79v1h0c5.04,0,10.16,0.06,15.2,0.19c26.31,0.65,52.83,2.99,78.83,6.98l-0.12,4.65l-0.1,4.07
			l-157.59-3.9l0.22-8.71c21.03-2.17,42.41-3.27,63.56-3.27L1308.56,197.79 M1308.56,197.79c-23.68,0-45.32,1.35-64.54,3.36
			l-0.26,10.59l159.59,3.95c0.09-3.53,0.18-7.06,0.26-10.59c-23.2-3.59-50.01-6.4-79.82-7.13
			C1318.62,197.85,1313.55,197.79,1308.56,197.79L1308.56,197.79z"/>
	</g>
</g>
<path class="st18" d="M0,490.48c0,0,666.56-29.06,1067.4,313.02H0V490.48z"/>
<path class="st19" d="M1440,454.07c0,0-1070.73-43.45-1185.1,349.43H1440V454.07z"/>
<path class="st20" d="M0,602.77c0,0,120.38-66.79,274.88-26.2c0,0,110.25,19.19,262.5,6.64c0,0,174-41.33,306.75,0
	c0,0,117.75,40.59,235.5-11.07c0,0,138.75-76.12,360.38-26.62v235.46H0.38L0,602.77z"/>
<g>
	<g>
		<path class="st32" d="M1177.6,590.44c0,0,0.47-8.89-2.34-14.04c0,0,3.98,3.51,3.98,9.13c0,0,0.94-4.68,0-9.36
			c0,0,1.87,3.28,1.87,8.42c0,0,0-7.49,1.4-10.3c0,0,0.94,4.21,0,12.17c0,0,1.87-11.23,3.74-13.57c0,0-2.81,9.83,0,17.78
			C1186.26,590.67,1182.05,594.88,1177.6,590.44z"/>
		<ellipse class="st22" cx="1201.71" cy="590.44" rx="28.78" ry="11.23"/>
	</g>
	<ellipse class="st33" cx="1200.97" cy="584.69" rx="19.19" ry="3.32"/>
</g>
<g>
	<g>
		<path class="st32" d="M1242.52,594.4c0,0,0.32-6.04-1.59-9.54c0,0,2.7,2.38,2.7,6.2c0,0,0.64-3.18,0-6.36c0,0,1.27,2.23,1.27,5.72
			c0,0,0-5.09,0.95-7c0,0,0.64,2.86,0,8.27c0,0,1.27-7.63,2.54-9.22c0,0-1.91,6.68,0,12.08
			C1248.4,594.56,1245.54,597.43,1242.52,594.4z"/>
		<ellipse class="st22" cx="1258.9" cy="594.4" rx="19.56" ry="7.63"/>
	</g>
	<ellipse class="st33" cx="1258.4" cy="590.5" rx="13.04" ry="2.26"/>
</g>
<g>
	<path class="st35" d="M1101.56,77.92c0-31.7-25.7-57.4-57.4-57.4s-57.4,25.7-57.4,57.4c0,11.77,3.55,22.7,9.62,31.81h95.55
		C1098.01,100.62,1101.56,89.68,1101.56,77.92z"/>
	<path class="st36" d="M939.52,109.81h323.87c0,0-18.59-14.63-56.07-7.32c0,0-12.8-44.78-48.44-14.62c0,0,0.72-31.99-34.38-31.08
		c-35.09,0.92-33.27,35.65-33.27,35.65s-24.68-41.13-59.41-2.74c0,0-22.85-9.14-30.16,13.71L939.52,109.81z"/>
</g>
<path class="st36" d="M55.17,103.75h269.09l-64.38-8.79c0,0,5.17-23.25-18.02-27.04c-26.55-4.33-29.34,18.08-29.93,20.78
	c0,0,0.61-44.42-41.22-44.42c-45.21,0-42.16,39.1-42.16,39.1S99.93,55.87,78.68,99.81L55.17,103.75z"/>
<g>
	<g>
		<path class="st37" d="M1356.85,471.42c19.77-45.64-7.98-33.9-7.98-33.9c-4.26-37.96-16.79-0.58-16.79-0.58
			c-8.53-21.73-15.28,10.13-15.28,10.13s1.33-15.65-4.53-20.58c-5.86-4.93-18.92,11.3-18.92,11.3s-0.54-14.78-6.13-18.54
			c-5.59-3.77-14.65,15.48-14.65,15.48s-5.86-11.71-10.12-12.29c-4.27-0.58-2.67,18.54-2.67,18.54c-9.86-3.19-16.25,8.98-16.25,8.98
			c-1.86-24.34-18.39-6.08-18.39-6.08s-0.26-13.62-5.06-16.52c-4.8-2.9-16.52,12.17-16.52,12.17s0-8.98-6.79-15.65
			c-6.79-6.66-16.93,13.62-16.93,13.62s0.27-15.36-6.13-18.54c-6.39-3.19-13.85,13.33-13.85,13.33
			c-9.91-10.4-15.99,21.44-15.99,21.44s-0.53-12.75-7.46-15.94c-6.93-3.19-15.99,11.01-15.99,11.01
			c-5.33-14.2-17.59-3.19-17.59-3.19s-0.8-13.33-7.46-16.8c-6.66-3.48-13.94,10.72-13.94,10.72s1.68-17.97-3.92-21.73
			c-5.6-3.77-14.96,11.01-14.96,11.01s-0.76-11.88-6.9-13.04c-6.13-1.16-7.1,29.85-7.1,29.85c-22.22-15.96-10.07,11.48-2.78,25.78
			H1356.85z"/>
	</g>
	<g>
		<path class="st38" d="M1272.68,472.1c14.01-32.34-5.65-24.02-5.65-24.02c-3.02-26.9-11.9-0.41-11.9-0.41
			c-6.04-15.4-10.83,7.18-10.83,7.18s0.94-11.09-3.21-14.58c-4.15-3.49-13.41,8.01-13.41,8.01s-0.38-10.47-4.35-13.14
			c-3.96-2.67-10.38,10.97-10.38,10.97s-4.15-8.3-7.18-8.71c-3.02-0.41-1.89,13.14-1.89,13.14c-6.99-2.26-11.52,6.36-11.52,6.36
			c-1.32-17.24-13.03-4.31-13.03-4.31s-0.19-9.65-3.59-11.7c-3.4-2.05-11.71,8.62-11.71,8.62s0-6.36-4.81-11.09
			c-4.81-4.72-12,9.65-12,9.65s0.19-10.88-4.34-13.14c-4.53-2.26-9.82,9.44-9.82,9.44c-7.02-7.37-11.33,15.2-11.33,15.2
			s-0.38-9.03-5.29-11.29c-4.91-2.26-11.33,7.8-11.33,7.8c-3.78-10.06-12.46-2.26-12.46-2.26s-0.57-9.45-5.29-11.91
			c-4.72-2.46-9.87,7.6-9.87,7.6s1.19-12.73-2.78-15.4c-3.96-2.67-10.6,7.8-10.6,7.8s-0.54-8.42-4.88-9.24
			c-4.34-0.82-5.03,21.15-5.03,21.15c-15.75-11.31-7.13,8.14-1.97,18.27H1272.68z"/>
	</g>
</g>
<g>
	<polygon class="st39" points="1305.15,469.51 1313.6,468.4 1313.24,474.29 1295.68,490.41 1287.49,483.12 	"/>
	<polygon class="st40" points="1324.09,341.7 1308.64,471.35 1292.02,484.53 1289.88,347.22 	"/>
	<path class="st41" d="M1313.52,370.58c2.54-1.33,5.07-2.66,7.6-3.98l1.98-16.63c-1.25,0.41-2.49,0.82-3.75,1.23
		c-9.75,3.18-19.33,7.09-29.26,9.68l0.36,23.19C1298.34,379.96,1305.7,374.66,1313.52,370.58z"/>
	<path class="st42" d="M1318.75,386.54l2.14-17.94c-2.42,1.29-4.83,2.59-7.23,3.9c-7.76,4.24-15.2,9.51-23.17,13.54l0.21,13.35
		C1300.13,395.36,1309.27,390.48,1318.75,386.54z"/>
	<path class="st43" d="M1314.58,404.5c0.72-0.41,1.44-0.82,2.17-1.23l1.76-14.75c-9.37,3.95-18.44,8.78-27.78,12.74l0.28,18.34
		C1298.99,414.78,1306.53,409.01,1314.58,404.5z"/>
	<path class="st41" d="M1291.49,441.93c7.34-6.7,15.12-12.87,22.92-19.01l2.09-17.52c-0.94,0.54-1.88,1.08-2.82,1.61
		c-7.74,4.41-14.97,9.92-22.64,14.55l0.32,20.5C1291.4,442.01,1291.44,441.97,1291.49,441.93z"/>
	<path class="st41" d="M1309.71,462.33l1.87-15.66c-3.91,1.77-7.77,3.63-11.57,5.66c-2.82,1.5-5.62,3.05-8.42,4.62l0.22,14.38
		C1297.75,468.27,1303.72,465.27,1309.71,462.33z"/>
	<path class="st43" d="M1291.85,473.29l0.17,11.24l16.63-13.18l0.82-6.94C1303.56,467.3,1297.69,470.27,1291.85,473.29z"/>
	<path class="st43" d="M1300.02,450.34c3.88-2.03,7.82-3.9,11.8-5.68l2.3-19.3c-7.29,5.74-14.54,11.54-21.39,17.81
		c-0.44,0.41-0.89,0.82-1.33,1.23l0.16,10.54C1294.36,453.37,1297.18,451.83,1300.02,450.34z"/>
	<path class="st43" d="M1318.89,349.5c1.48-0.48,2.96-0.97,4.44-1.46l0.75-6.34l-34.2,5.52l0.18,11.84
		C1299.84,356.46,1309.28,352.62,1318.89,349.5z"/>
	<polygon class="st44" points="1324.36,338.39 1308.64,471.35 1304.78,475.03 1316.18,342.99 	"/>
	<polygon class="st45" points="1212.1,263.36 1211.49,256.22 1259.54,260.33 1331.26,335.36 1308.57,352.52 	"/>
	<g>
		<g>
			<g>
				<rect x="1132.65" y="484.06" class="st46" width="163.03" height="6.34"/>
				<polygon class="st40" points="1292.17,479.77 1136.78,479.77 1127.14,349.45 1212.1,277.74 1292.17,341.73 				"/>
				<g>
					<path class="st42" d="M1219.33,334.88c-18,0.58-36.01,1.87-53.93,3.59c-9.04,0.87-18.06,1.87-27.07,2.98
						c-0.66,0.09-1.33,0.17-1.99,0.25l-9.2,7.76l0.63,8.5h164.4v-16.23l-9.12-7.29C1261.8,334.48,1240.56,334.19,1219.33,334.88z"/>
					<path class="st41" d="M1245.28,332.7c11.86-0.05,23.74,0.03,35.61,0.02l-68.8-54.99l-73.34,61.91
						C1174.12,335.34,1209.64,332.85,1245.28,332.7z"/>
					<path class="st43" d="M1176.56,378.27c36.42,0,72.79,1.41,109.11,4.1c2.17,0.16,4.33,0.32,6.5,0.49v-23.15H1127.9l1.44,19.44
						C1145.07,378.56,1160.81,378.27,1176.56,378.27z"/>
					<path class="st41" d="M1144.41,403.12c11.99-0.83,23.99-1.56,35.99-2.18c36.36-1.86,72.76-2.63,109.15-3.54
						c0.87-0.02,1.74-0.04,2.61-0.07v-12.68c-24.3-1.78-48.6-3.37-72.96-4.05c-29.91-0.83-59.84-0.83-89.74,0.27l1.74,23.48
						C1135.61,403.93,1140.02,403.42,1144.41,403.12z"/>
					<path class="st42" d="M1292.17,427.84v-28.76c-25.26,0.61-50.52,1.22-75.77,2.08c-18.19,0.62-36.37,1.47-54.53,2.58
						c-8.89,0.54-17.8,1.03-26.67,1.93c-1.29,0.13-2.57,0.26-3.86,0.39l1.61,21.78H1292.17z"/>
					<path class="st41" d="M1142.19,447.05c11.98,0.46,23.95,0.8,35.93,1.15c38.03,1.13,76.03,2.91,114.05,4.44v-23.05h-159.1
						l1.28,17.25C1136.96,446.89,1139.58,446.95,1142.19,447.05z"/>
					<path class="st42" d="M1211.87,451.13c-18.14-0.79-36.29-1.22-54.44-1.8c-7.65-0.24-15.3-0.52-22.96-0.74l2.31,31.18h155.39
						v-25.18C1265.39,453.54,1238.64,452.29,1211.87,451.13z"/>
				</g>
				<g>
					<g>
						<rect x="1219.26" y="422.56" class="st47" width="7.73" height="56.02"/>
						<rect x="1235.47" y="422.44" class="st47" width="4.94" height="56.13"/>
						<rect x="1248.66" y="422.44" class="st47" width="4.94" height="56.13"/>
						<rect x="1261.84" y="422.44" class="st47" width="4.94" height="56.13"/>
						<rect x="1275.02" y="422.44" class="st47" width="4.94" height="56.13"/>
					</g>
					<polygon class="st48" points="1286.23,424.84 1216.51,428.9 1215.41,416.76 1286.23,417.12 					"/>
				</g>
				<rect x="1140.92" y="476.3" class="st49" width="146.42" height="8.22"/>
				<g>
					<polygon class="st11" points="1145.61,484.53 1136.23,484.53 1126.59,347.8 1145.61,339.45 					"/>
					<polygon class="st11" points="1292.02,484.53 1282.64,484.53 1282.64,339.45 1298.71,347.25 					"/>
					<polygon class="st44" points="1292.02,484.53 1295.95,481.55 1302.85,348.04 1298.71,347.25 					"/>
				</g>
				<g>
					<polygon class="st50" points="1268.38,352.52 1308.57,352.52 1211.5,256.21 1115.82,352.52 1145.52,352.15 1211.5,282.53 					
						"/>
				</g>
				<g>
					<path class="st51" d="M1211.5,256.21L1211.5,256.21c-0.27,9.46,0,26.32,0,26.32l56.88,69.99h40.19L1211.5,256.21z"/>
				</g>
			</g>
		</g>
		<g>
			<path class="st52" d="M1224.6,422.88c-0.03,1.12-0.96,2-2.07,1.97c-1.12-0.03-2-0.96-1.97-2.07c0.03-1.12,0.96-2,2.07-1.97
				C1223.74,420.83,1224.63,421.76,1224.6,422.88z"/>
			<path class="st52" d="M1239.09,422.76c-0.02,0.75-0.64,1.34-1.39,1.32c-0.75-0.02-1.34-0.64-1.32-1.39
				c0.02-0.75,0.64-1.34,1.39-1.32C1238.51,421.39,1239.1,422.02,1239.09,422.76z"/>
			<path class="st52" d="M1252.07,422.03c-0.01,0.75-0.64,1.34-1.38,1.32c-0.75-0.02-1.34-0.64-1.32-1.39
				c0.02-0.75,0.64-1.34,1.39-1.32C1251.5,420.67,1252.09,421.29,1252.07,422.03z"/>
			<path class="st52" d="M1266.17,421.51c-0.02,0.75-0.64,1.34-1.38,1.32c-0.75-0.02-1.34-0.64-1.32-1.38
				c0.02-0.75,0.64-1.34,1.39-1.32C1265.6,420.14,1266.19,420.76,1266.17,421.51z"/>
			<path class="st52" d="M1277.17,421.48c-0.02,0.75-0.64,1.34-1.39,1.32c-0.75-0.02-1.34-0.64-1.32-1.39
				c0.02-0.75,0.64-1.34,1.39-1.32C1276.6,420.11,1277.19,420.74,1277.17,421.48z"/>
		</g>
		<polygon class="st11" points="1207.69,476.41 1158.31,476.78 1149.57,379.43 1212.47,377.11 		"/>
		<polygon class="st53" points="1205.01,476.41 1162.82,476.41 1156.1,383.38 1206.86,382.83 		"/>
		<polygon class="st54" points="1145.52,476.16 1145.52,352.15 1211.5,282.53 1268.38,352.52 1282.57,352.46 1283.08,416.94 
			1278.67,356.63 1263.59,356.26 1211.36,288.22 1149.2,353.32 		"/>
		<defs>
			<filter id="Adobe_OpacityMaskFilter" filterUnits="userSpaceOnUse" x="1119.78" y="259.9" width="89.74" height="90.11">
				<feFlood  style="flood-color:white;flood-opacity:1" result="back"/>
				<feBlend  in="SourceGraphic" in2="back" mode="normal"/>
			</filter>
		</defs>
		<mask maskUnits="userSpaceOnUse" x="1119.78" y="259.9" width="89.74" height="90.11" id="SVGID_1_">
			<g class="st55">
				<defs>
					<filter id="Adobe_OpacityMaskFilter_1_" filterUnits="userSpaceOnUse" x="1119.78" y="259.9" width="89.74" height="90.11">
						<feFlood  style="flood-color:white;flood-opacity:1" result="back"/>
						<feBlend  in="SourceGraphic" in2="back" mode="normal"/>
					</filter>
				</defs>
				<mask maskUnits="userSpaceOnUse" x="1119.78" y="259.9" width="89.74" height="90.11" id="SVGID_1_">
				</mask>
				<linearGradient id="SVGID_2_" gradientUnits="userSpaceOnUse" x1="1139.7329" y1="276.2806" x2="1191.0388" y2="335.31">
					<stop  offset="0" style="stop-color:#FFFFFF"/>
					<stop  offset="0.1164" style="stop-color:#C8C8C8"/>
					<stop  offset="0.2426" style="stop-color:#939393"/>
					<stop  offset="0.3708" style="stop-color:#666666"/>
					<stop  offset="0.4985" style="stop-color:#414141"/>
					<stop  offset="0.6255" style="stop-color:#252525"/>
					<stop  offset="0.7518" style="stop-color:#101010"/>
					<stop  offset="0.877" style="stop-color:#040404"/>
					<stop  offset="1" style="stop-color:#000000"/>
				</linearGradient>
				<polygon class="st57" points="1119.78,350.01 1209.52,259.9 1208.05,280.86 1142.58,350.01 				"/>
			</g>
		</mask>
		<linearGradient id="SVGID_3_" gradientUnits="userSpaceOnUse" x1="1139.7329" y1="276.2806" x2="1191.0388" y2="335.31">
			<stop  offset="0" style="stop-color:#FFFFFF"/>
			<stop  offset="1" style="stop-color:#FFFFFF"/>
		</linearGradient>
		<polygon class="st58" points="1119.78,350.01 1209.52,259.9 1208.05,280.86 1142.58,350.01 		"/>
	</g>
	<polygon class="st59" points="1222.03,265.75 1265.06,266.67 1267.08,268.51 	"/>
	<polygon class="st59" points="1298.16,340.78 1321.7,326.81 1323.72,328.65 	"/>
	<polygon class="st59" points="1261.93,303.09 1290.07,293.71 1292.09,295.54 	"/>
	<polygon class="st59" points="1283.63,326.99 1309.74,313.93 1311.77,315.77 	"/>
	<polygon class="st59" points="1272.78,314.67 1299.63,304 1301.65,305.84 	"/>
	<polygon class="st59" points="1236.19,278.81 1272.6,274.95 1274.62,276.79 	"/>
	<polygon class="st59" points="1249.06,291.13 1280.87,284.14 1282.9,285.98 	"/>
</g>
<g>
	<path class="st60" d="M1.87,653.37c0,0,71.93-12.22,118.38-38.46c0,0,52.45,28.03,110.14,38.46c0,0,93.65-11.5,143.1-38.46
		c0,0,63.31,32.53,164.45,38.28c0,0,121.37-12.58,164.08-38.46c0,0,35.96,20.49,169.32,38.46c0,0,128.87-6.11,232.26-38.46
		c0,0,71.93,24.44,198.54,38.46c0,0,64.43-3.95,137.86-46.72v55.35H2.25L1.87,653.37z"/>
	<path class="st61" d="M0,616.39c0,0,74.92,40.27,121.37,41.13c0,0,73.05-7.08,106.76-32.39c0,0,47.95,30.46,147.6,35.61
		c0,0,112.38-8.15,161.08-37.76c0,0,83.16,34.32,164.08,34.32c0,0,146.85-6.01,183.56-32.18c0,0,70.43,25.74,218.02,32.18
		c0,0,158.83-9.44,198.54-40.76c0,0,32.22,22.86,137.48,44.04H0V616.39z"/>
</g>
<g>
	<rect y="661.81" class="st19" width="100%" height="122.29"/>
	<rect y="661.81" class="st18" width="100%" height="26.95"/>
	<rect y="719.85" class="st18" width="100%" height="64.25"/>
	<rect y="736.43" class="st62" width="100%" height="73.57"/>
	<path class="st63" d="M269.81,767.64c0,5.21-38.31,9.43-85.57,9.43c-47.25,0-85.56-4.22-85.56-9.43c0-5.21,38.31-9.44,85.56-9.44
		C231.5,758.2,269.81,762.43,269.81,767.64z"/>
	<path class="st63" d="M1319.19,765.3c0,5.21-38.31,9.43-85.56,9.43c-47.26,0-85.56-4.22-85.56-9.43c0-5.21,38.31-9.44,85.56-9.44
		C1280.89,755.86,1319.19,760.09,1319.19,765.3z"/>
	<rect y="781" class="st64" width="100%" height="29"/>
</g>
<g>
	<ellipse class="st18" cx="965.93" cy="507.58" rx="69.74" ry="11.07"/>
	<g>
		<g>
			<g>
				<rect x="915.09" y="452.24" class="st65" width="6.08" height="27.38"/>
				<rect x="1009.46" y="452.24" class="st65" width="6.07" height="27.38"/>
			</g>
			<g>
				<rect x="909.72" y="449.28" class="st66" width="111.18" height="6.51"/>
				<rect x="909.72" y="459.51" class="st66" width="111.18" height="6.5"/>
				<rect x="909.72" y="469.74" class="st66" width="111.18" height="6.51"/>
			</g>
			<g>
				<path class="st65" d="M1013.17,452.27c0,0.48-0.39,0.87-0.87,0.87c-0.48,0-0.87-0.39-0.87-0.87c0-0.48,0.39-0.87,0.87-0.87
					C1012.78,451.4,1013.17,451.79,1013.17,452.27z"/>
				<path class="st65" d="M1013.17,462.63c0,0.48-0.39,0.87-0.87,0.87c-0.48,0-0.87-0.39-0.87-0.87c0-0.48,0.39-0.87,0.87-0.87
					C1012.78,461.76,1013.17,462.15,1013.17,462.63z"/>
				<path class="st65" d="M1013.17,473c0,0.48-0.39,0.87-0.87,0.87c-0.48,0-0.87-0.39-0.87-0.87c0-0.48,0.39-0.87,0.87-0.87
					C1012.78,472.13,1013.17,472.52,1013.17,473z"/>
			</g>
			<g>
				<path class="st65" d="M919,452.27c0,0.48-0.39,0.87-0.87,0.87c-0.48,0-0.87-0.39-0.87-0.87c0-0.48,0.39-0.87,0.87-0.87
					C918.61,451.4,919,451.79,919,452.27z"/>
				<path class="st65" d="M919,462.63c0,0.48-0.39,0.87-0.87,0.87c-0.48,0-0.87-0.39-0.87-0.87c0-0.48,0.39-0.87,0.87-0.87
					C918.61,461.76,919,462.15,919,462.63z"/>
				<path class="st65" d="M919,473c0,0.48-0.39,0.87-0.87,0.87c-0.48,0-0.87-0.39-0.87-0.87c0-0.48,0.39-0.87,0.87-0.87
					C918.61,472.13,919,472.52,919,473z"/>
			</g>
		</g>
		<g>
			<g>
				<g>
					<g>
						<g>
							<g>
								<rect x="908.37" y="486.5" class="st66" width="2.7" height="23.29"/>
								<rect x="907.79" y="485.88" class="st67" width="3.88" height="1.49"/>
							</g>
						</g>
					</g>
				</g>
				<g>
					<g>
						<g>
							<g>
								<rect x="1019.55" y="486.5" class="st66" width="2.71" height="23.29"/>
								<rect x="1018.97" y="485.88" class="st67" width="3.88" height="1.49"/>
							</g>
						</g>
					</g>
				</g>
			</g>
			<g>
				<g>
					<g>
						<g>
							<g>
								<rect x="912.46" y="482.37" class="st67" width="2.44" height="21.04"/>
								<rect x="911.93" y="481.81" class="st67" width="3.5" height="1.35"/>
							</g>
						</g>
					</g>
				</g>
				<g>
					<g>
						<g>
							<g>
								<rect x="1015.72" y="482.37" class="st67" width="2.44" height="21.04"/>
								<rect x="1015.19" y="481.81" class="st67" width="3.5" height="1.35"/>
							</g>
						</g>
					</g>
				</g>
			</g>
			<g>
				<polygon class="st66" points="1028.28,484.71 902.35,484.71 909.85,478.6 1020.88,478.6 				"/>
				<rect x="902.35" y="484.71" class="st68" width="125.94" height="2.01"/>
			</g>
		</g>
	</g>
</g>
<g>
	<g>
		<g>
			<g>
				<g>
					<path class="st37" d="M191.76,439.82c0,0,2.53,0.38,4.01-3.52c1.5-3.94-3.14-7.8-3.14-7.8c4.3-3.35-0.9-7.34-0.9-7.34
						s6.49,1.05,7.48-3.99c1.03-5.26-5.32-7.61-5.32-7.61s4.63-6.81-3.8-12.51c-8.01-5.41-12.19-0.78-12.19-0.78
						s-3.05-2.78-6.89-1.3c-4.58,1.76-5.63,5.35-5.63,5.35s-2.41-2.64-4.03-2.42c-1.62,0.22,0.12,2.93,0.12,2.93s-3.6-2.1-5.21-0.61
						c-1.61,1.49,0.49,3.66,0.49,3.66c-3.07-2.1-5.02-2.47-6.12-2.41c-0.32,0.05-0.64,0.11-0.96,0.2c-0.11,0.05-0.17,0.09-0.17,0.09
						s0-0.02,0.01-0.05c-3.3,0.95-6.51,3.85-3.78,6.96c0.14,0.16-0.06,0.44-0.25,0.3c-1.89-1.34-4.69-1.47-6.85-0.75
						c-0.98,0.33-2.18,0.91-2.56,1.96c-0.25,0.69-0.15,1.36,0.1,1.98c0.31,0.39,0.59,0.85,0.82,1.37c0.09,0.19-0.17,0.41-0.31,0.23
						c-0.33-0.44-0.67-0.95-0.9-1.49c-0.04-0.05-0.07-0.1-0.12-0.15c-3.32-3.69-9.38-1.05-12.31,1.8c-1.53,1.49-2.91,3.56-2.72,5.81
						c0.24,2.91,2.9,4.7,5.34,5.79c0.19,0.08,0.19,0.41-0.06,0.38c-3.2-0.35-7,0.62-9.13,3.19c-1.21,1.47-1.83,3.42-1.43,5.32
						c0.44,2.12,2,2.76,4.02,2.42c0.21-0.04,0.35,0.26,0.14,0.36c-1.22,0.6-2.8,1.61-2.69,3.18c0.08,1.25,1.02,2.29,1.99,3.03
						c2.74,0.78,4.6-1.79,4.6-1.79s0.98,3.25,2.9,3.13c2.4-0.13,1.7-3.84,1.7-3.84s3.26,3.39,7.62,3.78
						c4.35,0.39,6.36-2.61,6.36-2.61s0.42,1.68,2.96,2.98c2.54,1.3,4.14-0.06,4.14-0.06s-0.44,3.4,2.13,4.64
						c2.57,1.24,3.24-1.29,3.24-1.29c1.2,1.44,1.98,0.4,1.98,0.4s1.76,5.36,9.04,5.77c7.28,0.41,8.52-4.64,8.52-4.64
						s0.83,1.81,2.05,1.4c1.21-0.41,0.68-1.59,0.68-1.59s2.2,2.17,4.17,1.83c2.06-0.36,1.79-2.81,1.79-2.81s4.54,2.4,8.05-0.3
						C195.81,444.49,191.76,439.82,191.76,439.82z"/>
					<path class="st69" d="M90.99,422.84c0,0,1.12,4.82-2.29,10.04c-2.86,4.37-7.49,3.34-7.49,3.34s-1.3,8.19-12.34,7.64
						c-11.63-0.58-11.2-11.58-11.2-11.58s-7.59,1.77-9.73-4.93c-2.05-6.43,4.89-9.78,4.89-9.78s-7.45-0.9-5.27-7.72
						c0,0-6.82-1.16-7.73-6.69c-0.89-5.49,1.8-6.82,1.8-6.82s-6.74-2.49-4.12-10.55c1.8-5.54,7.65-5.98,7.65-5.98
						s-1.72-2.59,0.07-4.44c1.71-1.77,5.15-0.83,5.15-0.83s-1.22-0.97-0.29-2.29c0.93-1.32,2.83,0.16,2.83,0.16
						s-1.82-6.61,5.52-11.24c7.33-4.63,12.25,0.24,12.25,0.24s0.15-1.74,2.17-0.93c0,0-0.87-3.35,2.38-3.73
						c3.25-0.39,4.85,3.8,4.85,3.8s0.74-2.67,3.99-2.96c3.25-0.29,4.67,1.32,4.67,1.32s0.16-4.82,4.63-7.43
						c4.48-2.61,9.68-1.03,9.68-1.03s-2.9-3.73-0.64-5.57c1.8-1.46,4.7,1.55,4.7,1.55s0.32-5.12,4.41-5.47
						c4.09-0.36,4.57,6.4,4.57,6.4s4.93-7.07,15.54-3.57c9.12,3.01,10.68,10.05,10.68,10.05s1.53-3.67,5-2.27
						c2.75,1.11,1.95,5.15,0.48,6.22c0,0,2.24-0.43,3.02,0.99c0.77,1.42,0,2.46,0,2.46s2.29-0.51,3.4,1.4c1.11,1.91,0,5.72,0,5.72
						s3.06-4.12,7.4-4.05c4.34,0.06,4.21,3.96,4.21,3.96s1.96-2.41,4.31-1.13c2.35,1.29,0.51,4.54,0.51,4.54s9.88-4.73,16.12,3.44
						c6.24,8.17-0.77,12.93-0.77,12.93s4.24,0.64,6.82,5.34c2.57,4.7,2.06,14.41-8.75,15.06c0,0,3.22,6.17,0.26,10.16
						c-2.96,3.99-10.29,2.32-10.29,2.32s5.08,12.87-4.76,18.66c-9.84,5.79-16.79-5.21-16.79-5.21s-0.45,3.79-4.05,3.02
						c-3.6-0.77-3.48-4.89-3.48-4.89s-7.14,4.12-12.61,0.9c-4.77-2.81,0.52-8.62,0.52-8.62s-3.27,0.12-4.18-1.48
						c-1.29-2.25,2.57-3.93,2.57-3.93s-2.83,0.36-3.47-1.86c-0.64-2.22,2.64-4.09,2.64-4.09s-2.6-0.77-2.51-2.8
						c0,0-2.09,6.79-11.45,6.18c-9.36-0.62-10.87-6.73-10.87-6.73s-1.06,3.09-8.33,2.67c0,0,3.34,1,2.67,3.83
						c-0.67,2.82-5.44,2.96-5.44,2.96s3.31,1.86,1.87,3.25C94.92,424.15,90.99,422.84,90.99,422.84z"/>
					<path class="st70" d="M185.92,417.43c-0.1-0.97-0.68-1.74-1.72-1.81c-1.45-0.09-2.56,1.16-3.3,2.22
						c-1.21,1.72-2.11,3.6-3.22,5.38c-0.18-1.16-0.35-2.32-0.52-3.47c-0.22-1.55-0.32-3.06-0.43-4.62
						c-0.04-0.65-0.02-1.29-0.03-1.94c-0.46,0.34-0.93,0.67-1.41,0.99c-1.31,3.6-1.01,7.63,0.43,11.17
						c0.07,0.17,0.02,0.31-0.07,0.41c-0.01,0.14-0.07,0.28-0.21,0.36c-0.01,0.01-0.02,0.01-0.02,0.02c0.01,0.02,0.02,0.03,0.04,0.05
						c-1.71,2.01-4.4,3.86-4.94,4.1c-5.77,2.6-11.95,3.94-18.06,5.5c-3.11,0.49-5.38,1.41-8.5,1.88c-2.76,0.41-6.53,2.77-9.1,3.82
						c-2.25,0.92-7.15,4.64-9.1,6.19c0.38-0.73,3.41-5.59,3.8-6.32c1.14-2.13,2.42-4.26,3.63-6.42c2.09-2.87,3.21-6.66,4.43-9.91
						c1.3-3.49,1.96-7.06,2.81-10.67c0.04-0.14-0.15-0.08-0.2-0.01c-1.98,2.98-3.35,6.34-5.04,9.49c-0.96,1.79-2.07,3.51-3,5.31
						c-0.84,1.62-1.49,3.26-2.65,4.68c-1.17,1.43-2.24,2.98-3.22,4.62c-0.01,0.01-0.01,0.01-0.02,0.02
						c-0.59,0.83-1.12,1.71-1.62,2.59c0.01-1.21-0.03-2.43-0.1-3.63c-0.09-0.1-0.14-0.24-0.14-0.41c0.04-2.82-0.42-5.57-0.73-8.33
						c0.01-0.2,0.01-0.4,0.02-0.61c0.09-1.55,0.54-3.06,0.62-4.61c0.14-2.65,0.83-5.26,1.01-7.92c0.09-1.32,0.3-2.87,0.74-4.11
						c0.26-0.73,0.56-1.64,0.35-2.39c-0.05-0.17-0.28-0.04-0.28,0.09c-0.03,1.06-1.04,2.17-1.55,3.03
						c-0.71,1.18-1.47,2.33-2.06,3.58c-1.18,2.46-2.36,5.73-2.31,8.49c0.02,1.55-0.32,3.07-0.41,4.63c-0.08,1.43,0.03,2.92,0.1,4.36
						c0.07,1.38,0.28,2.79,0.59,4.18c0.22,2.59,0.41,5.18-0.07,7.79c-0.51,2.77-2.02,5.09-3.39,7.49c-1.42,2.48-2.99,4.87-4.52,7.28
						c-0.6,0.95-1.19,1.91-1.76,2.89c-1.44-5.98-3.82-11.66-4.35-17.83c-0.06-0.71-0.1-1.42-0.13-2.14
						c-0.1-0.89-0.19-1.79-0.23-2.69c-0.21-4.43,0.62-8.78,1.23-13.14c0.89-6.36,1.85-13.99-1.01-20.01
						c0.01,0.27,0.07,0.54,0.14,0.8c0.07,0.24,0.12,0.48,0.16,0.71c-0.36,3.78-1.17,7.61-1.89,11.31c-0.83,4.26-1.63,8.51-2.33,12.8
						c-0.64,3.91-1.18,7.84-1.12,11.81c-0.6-0.75-1.22-1.5-1.86-2.22c-2.05-2.36-4.21-4.7-6.34-7.08
						c-8.07-7.97-16.09-16.4-18.34-27.73c-1.43,1.52-0.73,4.19-0.46,6.17c0.09,0.69,0.32,1.37,0.62,2.03
						c0.6,2.63,1.62,5.31,2.71,7.68c1.23,2.68,2.56,5.38,4.32,7.77c-2.65-2.49-5.61-4.65-8.02-7.38c-2.45-2.76-4.04-6.15-5.39-9.56
						c0.11,1.4,0.31,2.79,0.67,4.14c0.85,3.14,2.42,5.71,4.42,8.24c1.23,1.55,2.51,3.05,3.8,4.55c0.5,0.43,0.99,0.86,1.48,1.29
						c3.67,3.23,6.75,6.74,9.33,10.65c0.57,1.31,1.09,2.63,1.56,3.97c2.37,6.67,3.87,13.5,3.05,20.61
						c-0.38,3.33-1.46,6.58-1.61,9.93c-0.03,0.62-0.04,1.24-0.05,1.87c-0.43-1.18-0.88-2.36-1.38-3.52c-1.2-2.82-3.05-5.23-4.4-7.95
						c-1.3-2.6-1.37-5.59-1.56-8.42c-0.31-4.48-0.74-8.9-2.36-13.05c-0.26,0.2-0.45,0.47-0.48,0.7c-0.06,0.53,0.24,1.08,0.3,1.6
						c0.14,1.24,0.34,2.46,0.41,3.71c0.13,2.54,0.2,5.08,0.37,7.61c0.04,0.69,0.1,1.4,0.15,2.12c0,0.28-0.02,0.56-0.04,0.85
						c-1.17-1.67-2.34-3.34-3.36-5.1c-0.97-1.67-1.89-3.37-2.8-5.07c-0.48-1.23-0.94-2.46-1.38-3.7c-0.82-1.71-1.59-3.44-2.27-5.2
						c-1.63-4.19-3.39-8.54-7.08-11.25c0.92,2.11,1.86,4.22,2.8,6.33c0.05,0.2,0.1,0.41,0.15,0.62c0.74,3.09,1.74,6.14,2.69,9.17
						c1,3.21,2.5,6.32,4.01,9.31c-1.32-1.18-2.74-2.21-4.17-3.26c-0.09-0.02-0.17-0.07-0.25-0.14c-0.09-0.09-0.19-0.17-0.28-0.25
						c-0.32-0.24-0.64-0.47-0.95-0.7c0,0-0.01-0.01-0.02-0.01c-0.3-0.31-0.59-0.63-0.88-0.95c-3.96-3.68-7.41-7.73-10.13-12.44
						c0.26,1.48,0.66,2.92,1.38,4.22c0.62,1.12,1.5,2.38,1.85,3.69c0.85,1.32,1.76,2.61,2.74,3.82c-0.94-0.26-1.96-0.35-2.87-0.47
						c-0.4-0.05-0.78-0.11-1.17-0.18c-1.62-0.61-3.12-1.53-4.49-2.58c-0.4-0.3-1.46-1.21-2.46-1.69c2.34,3.65,5.68,6.1,9.95,7.55
						c0.58,0.2,1.14,0.43,1.68,0.68c0.46,0.11,0.91,0.23,1.34,0.4c2.73,1.04,5.17,2.83,7.33,4.77c5.18,4.66,8.62,10.48,11.7,16.64
						c2.48,4.98,2.86,10.38,2.14,15.85c-0.73,5.48-2.73,9.91-5.36,14.69c-3.73,6.77-8.99,12.14-15.64,16.02
						c-2.25,1.32-4.57,2.6-6.93,3.73c-2.2,1.05-4.42,1.92-6.58,3.08c0.87,0.45,1.78,0.8,2.71,1.1c5.35-0.31,10.72-0.09,16.07,0.1
						c0.12,0.01,0.22,0.04,0.3,0.08c1.06,0.04,2.12,0.07,3.17,0.11c0.67,0.03,1.36,0.09,2.06,0.12c-2.06,1.14-4.23,2.04-6.31,3.16
						c0.47,0.04,0.93,0.09,1.35,0.18c1.01,0.22,2,0.41,2.99,0.56c1.01-0.12,2.06-0.15,3.05-0.25c3.51-0.33,7.02-0.46,10.51-0.95
						c3.27-0.46,6.39-0.98,9.43-2.29c1.33-0.58,2.72-0.96,4.09-1.37l0.01,0.04c0.06,0.41,0.24,0.81,0.49,1.18
						c5.06,3.73,11.79,3.81,17.9,3.81c1.05,0,2.12-0.02,3.2-0.06c-2.48-1.92-4.5-4.59-6.21-7.02c-1.48-2.09-2.97-4.25-3.74-6.73
						c-0.92-2.97-0.92-5.75-0.54-8.81c0.48-3.82,0.92-7.64,1.38-11.46c0-0.09,0-0.19,0-0.29c0.1-1.06,0.2-2.12,0.31-3.18
						c0.61-5.75,0.86-11.46,1.24-17.23c0.41-6.38,1.03-14.95,4.49-20.43c4.69-7.42,12.75-11.95,20.62-15.3
						c4.26-1.81,8.62-3.57,13.03-4.97c2.24-0.71,4.49-1.42,6.69-2.24c0.24-0.09,0.49-0.17,0.74-0.25c2.78-0.92,5.49-2.01,8.07-3.41
						c5.2-2.79,9.35-6.49,13.02-11.07C184.2,422.16,186.15,419.64,185.92,417.43z"/>
					<path class="st71" d="M185.92,417.43c-0.1-0.97-0.68-1.74-1.72-1.81c-0.02,0-0.03,0-0.04,0c-1.18,3.86-3.75,7.61-6.4,10.36
						c-4.28,4.46-10.17,6.97-15.95,8.87c-6.6,2.16-13.2,4.24-19.68,6.75c-3.29,1.27-6.42,2.83-9.62,4.3
						c-2.63,1.21-5.35,2.42-7.44,4.49c-0.39,0.39-0.98-0.1-0.74-0.58c0.54-1.06,1.2-2.03,1.92-2.96c0.98-1.63,3-4.9,3.32-5.49
						c1.14-2.13,2.42-4.26,3.63-6.42c2.09-2.87,3.21-6.66,4.43-9.91c1.3-3.49,1.96-7.06,2.81-10.67c0.04-0.14-0.15-0.08-0.2-0.01
						c-0.02,0.02-0.03,0.05-0.05,0.07c-1.06,4.98-3.38,9.58-5.99,13.93c-2.88,4.8-5.84,9.6-8.88,14.29
						c-6.06,9.37-13.6,18.33-16.38,29.36c-0.12,0.49-0.76,0.41-0.91,0c-0.79-2.08-1.64-4.12-2.52-6.16
						c0.22,1.97,0.58,3.91,0.83,5.88c0.36,2.96,0.31,5.92-0.01,8.88c-0.62,5.5-1.63,11.03-2.83,16.43
						c-1.28,5.72-3.25,11.67-3.17,17.58c0.07,5.12,2.25,9.41,5.29,13.42c0.25,0.33-0.16,0.83-0.53,0.69
						c-3.32-1.19-6.14-3.36-8.6-5.85c-1.92,4.66-7.62,7.5-12.12,9.15c-4.07,1.5-8.42,2.65-12.81,3.33c0.21,0.02,0.41,0.05,0.61,0.1
						c1.01,0.22,2,0.41,2.99,0.56c1.01-0.12,2.06-0.15,3.05-0.25c3.51-0.33,7.02-0.46,10.51-0.95c3.27-0.46,6.39-0.98,9.43-2.29
						c1.33-0.58,2.72-0.96,4.09-1.37l0.01,0.04c0.06,0.41,0.24,0.81,0.49,1.18c5.06,3.73,11.79,3.81,17.9,3.81
						c1.05,0,2.12-0.02,3.2-0.06c-2.48-1.92-4.5-4.59-6.21-7.02c-1.48-2.09-2.97-4.25-3.74-6.73c-0.92-2.97-0.92-5.75-0.54-8.81
						c0.48-3.82,0.92-7.64,1.38-11.46c0-0.09,0-0.19,0-0.29c0.1-1.06,0.2-2.12,0.31-3.18c0.61-5.75,0.86-11.46,1.24-17.23
						c0.41-6.38,1.03-14.95,4.49-20.43c4.69-7.42,12.75-11.95,20.62-15.3c4.26-1.81,8.62-3.57,13.03-4.97
						c2.24-0.71,4.49-1.42,6.69-2.24c0.24-0.09,0.49-0.17,0.74-0.25c2.78-0.92,5.49-2.01,8.07-3.41c5.2-2.79,9.35-6.49,13.02-11.07
						C184.2,422.16,186.15,419.64,185.92,417.43z"/>
					<path class="st71" d="M145.57,443.85c-10.04,3.49-20.32,6.92-27.22,15.55c-0.06,0.07-0.11,0.15-0.17,0.22
						c-7.51,15.17-4.05,18.26-7.26,55c-0.3,3.49,0.83,7.02,2.35,10.22c1.8,3.79,4.61,6.64,7.95,8.86c-1.34-1.46-2.53-3.07-3.6-4.58
						c-1.48-2.09-2.97-4.25-3.74-6.73c-0.92-2.97-0.92-5.75-0.54-8.81c0.48-3.82,0.92-7.64,1.38-11.46c0-0.09,0-0.19,0-0.29
						c0.1-1.06,0.2-2.12,0.31-3.18c0.61-5.75,0.86-11.46,1.24-17.23c0.41-6.38,1.03-14.95,4.49-20.43
						c4.69-7.42,12.75-11.95,20.62-15.3c2.09-0.89,4.2-1.76,6.33-2.59C147,443.35,146.28,443.6,145.57,443.85z"/>
					<path class="st71" d="M154.22,440.79c0.06-0.03,0.13-0.04,0.19-0.07c2.24-0.71,4.49-1.42,6.69-2.24
						c0.24-0.09,0.49-0.17,0.74-0.25c2.78-0.92,5.49-2.01,8.07-3.41c1.44-0.77,2.79-1.61,4.07-2.52
						C167.62,435.65,160.96,438.33,154.22,440.79z"/>
					<path class="st72" d="M104.59,416.39c0,0,1.89,0.28,2.99-2.62c1.12-2.94-2.33-5.82-2.33-5.82c3.2-2.49-0.67-5.46-0.67-5.46
						s4.83,0.78,5.57-2.97c0.77-3.91-3.96-5.66-3.96-5.66s3.45-5.07-2.84-9.32c-5.96-4.03-9.08-0.58-9.08-0.58s-2.27-2.07-5.14-0.97
						c-3.41,1.31-4.2,3.99-4.2,3.99s-1.79-1.97-3-1.8c-1.21,0.16,0.09,2.18,0.09,2.18s-2.68-1.56-3.88-0.45
						c-1.2,1.11,0.37,2.73,0.37,2.73c-2.29-1.56-3.74-1.84-4.56-1.79c-0.23,0.03-0.48,0.09-0.72,0.15
						c-0.09,0.04-0.13,0.07-0.13,0.07s0.01-0.01,0.01-0.04c-2.46,0.71-4.86,2.87-2.82,5.18c0.11,0.12-0.05,0.33-0.19,0.23
						c-1.41-1-3.49-1.1-5.1-0.56c-0.73,0.24-1.62,0.68-1.9,1.46c-0.19,0.51-0.12,1.01,0.07,1.48c0.23,0.3,0.44,0.63,0.61,1.02
						c0.06,0.15-0.13,0.31-0.24,0.17c-0.25-0.32-0.49-0.7-0.67-1.11c-0.03-0.03-0.05-0.07-0.09-0.11c-2.47-2.75-6.99-0.79-9.17,1.34
						c-1.14,1.11-2.17,2.66-2.03,4.33c0.18,2.17,2.16,3.5,3.97,4.31c0.14,0.06,0.14,0.31-0.04,0.29c-2.39-0.27-5.22,0.46-6.8,2.37
						c-0.9,1.09-1.36,2.55-1.07,3.96c0.33,1.58,1.49,2.06,3,1.8c0.16-0.03,0.26,0.2,0.1,0.28c-0.91,0.44-2.08,1.2-2.01,2.36
						c0.06,0.94,0.76,1.71,1.48,2.25c2.04,0.59,3.43-1.33,3.43-1.33s0.73,2.42,2.16,2.34c1.79-0.1,1.27-2.86,1.27-2.86
						s2.43,2.52,5.67,2.82c3.24,0.29,4.74-1.95,4.74-1.95s0.32,1.25,2.2,2.22c1.89,0.97,3.08-0.04,3.08-0.04s-0.33,2.53,1.59,3.46
						c1.92,0.92,2.41-0.96,2.41-0.96c0.89,1.07,1.48,0.3,1.48,0.3s1.31,3.99,6.73,4.3c5.42,0.31,6.34-3.45,6.34-3.45
						s0.62,1.35,1.52,1.04c0.9-0.31,0.51-1.18,0.51-1.18s1.64,1.61,3.1,1.36c1.53-0.28,1.33-2.09,1.33-2.09s3.38,1.78,6-0.23
						C107.61,419.87,104.59,416.39,104.59,416.39z"/>
					<g>
						<path class="st73" d="M35.53,443.13c0,0-6.5-1.44-7.47,4.73c-0.97,6.17,6.58,7,6.58,7s-0.55,2.47,1.45,3.21
							c2,0.75,3.52-1.49,3.52-1.49s1.57,7.05,10.08,4.18c8.51-2.86,6.1-9.24,6.1-9.24s8.41-1.01,7.2-8.51
							c-1.29-7.99-10.05-5.27-10.05-5.27s-1.44-3.33-5.44-3.18c-4.01,0.15-5.41,3.54-5.41,3.54s-2.65-3.49-5.86-1.26
							C33.03,439.07,35.53,443.13,35.53,443.13z"/>
						<g>
							<path class="st73" d="M58.82,438.13c0,0-2.11,6.14-4.8,2.89c-1.35,5.8-4.32,4.83-6.5,3.99c-2.18-0.84-1.94-6.26-1.94-6.26
								s-4.46,2.95-8.14-1.99c-2.31-3.42,0.5-7.58,1.8-7.71c-2.27-0.97-0.68-3.48,0.48-4.1c-3.73,0.05-6.73-4.07-2.38-10.4
								c2.68-4.07,7.33-3.38,8.45-2.49c-0.76-3.03,1.08-3.54,2.73-1.04c0.09-5.91,6.01-9.89,11.83-10.62
								c5.82-0.74,9.05,3.42,9.43,5.93c1.62-2.63,5.32-1.17,4.45,1.81c2.46-1.43,4.12,1.06,3.86,3.23c4.19-1.37,8.62,2.53,8.43,7.03
								c-0.19,4.5-4.09,4.87-4.09,4.87s3.62,1.9,0.64,3.71c2.96,1.67,1.6,6.9-2.22,8.1c-3.81,1.2-5.17-1.01-5.17-1.01
								s-1.16,2-3.5,0.09c0.04,3.15-4.35,5.64-9.39,1.87C62.66,438.1,59.81,439.12,58.82,438.13z"/>
						</g>
					</g>
					<path class="st73" d="M95.88,396.59c0,0-7.03-3.96-10.32,2.86c-3.3,6.81,5.16,10.44,5.16,10.44s-1.51,2.66,0.55,4.23
						c2.06,1.57,4.61-0.49,4.61-0.49s-0.66,8.74,10.22,8.4c10.88-0.33,10.33-8.57,10.33-8.57s10.11,1.78,11.34-7.33
						c1.32-9.72-9.81-9.64-9.81-9.64s-0.49-4.37-5.19-5.6c-4.7-1.24-7.52,2.2-7.52,2.2s-1.85-4.98-6.35-3.52
						C94.42,391.01,95.88,396.59,95.88,396.59z"/>
					<path class="st69" d="M72.85,437.7c0,0-5.69-3.2-8.36,2.32c-2.67,5.51,4.18,8.45,4.18,8.45s-1.22,2.16,0.45,3.43
						c1.67,1.27,3.74-0.4,3.74-0.4s-0.53,7.07,8.28,6.81c8.81-0.27,8.36-6.94,8.36-6.94s8.19,1.45,9.19-5.94
						c1.07-7.87-7.94-7.81-7.94-7.81s-0.4-3.54-4.21-4.54c-3.8-1-6.09,1.78-6.09,1.78s-1.5-4.03-5.14-2.85
						C71.66,433.18,72.85,437.7,72.85,437.7z"/>
					<g>
						<path class="st74" d="M95.87,475.23c0.12-0.54,0.25-1.09,0.41-1.62c0.85-2.86,1.37-5.91,1.35-8.9
							c-0.01-2.68-0.55-5.41-1.11-8.03c-0.22-1.03-0.47-2.06-0.78-3.07c-0.35-0.99-0.74-1.97-1.13-2.94
							c-0.05-0.1-0.1-0.22-0.16-0.32c-0.02,0.01-0.03,0.03-0.03,0.04c0.76,3.89,1.39,7.78,2.04,11.68c0.39,2.34,0.19,4.98-0.01,7.34
							C96.3,471.35,96.15,473.31,95.87,475.23z"/>
						<path class="st74" d="M98.77,484.8c0-0.04-0.06-0.01-0.06,0.02c-0.38,3.09-1.09,6.38-2.03,9.34c-0.84,2.65-1.12,5.3-1.64,8.01
							c-0.59,3.08-0.6,6.85-2.33,9.55c-1.3,2.03-2.45,4.15-3.7,6.21c0.82-0.99,1.7-1.93,2.58-2.88c0.66-0.98,1.28-1.99,1.84-3.04
							c1.4-2.66,1.78-5.62,2.31-8.57c0.6-3.33,1.42-6.61,2.39-9.86C98.92,490.85,98.95,487.63,98.77,484.8z"/>
						<path class="st74" d="M86.05,508.76c-3.85,8.37-10.84,14.77-19.54,17.93c-0.02,0.01-0.04,0.02-0.05,0.04
							c0.19-0.01,0.39-0.04,0.58-0.07c2.16-0.77,4.18-1.78,6.19-2.88c2.13-1.16,4.4-2.29,6.3-3.8c3.56-2.84,5.24-6.69,6.55-10.91
							C86.08,508.96,86.07,508.86,86.05,508.76z"/>
						<path class="st74" d="M89.74,488.49c0.21-1.59,0.43-3.17,0.36-4.77c-0.11-2.84-1.26-5.31-2.76-7.63
							C88.33,480.24,89.56,484.2,89.74,488.49z"/>
					</g>
					<path class="st73" d="M169.54,412.14c0,0-2.47-3.16-0.02-7.45c2.33-4.1,6.93-2.83,6.93-2.83s-0.78-1.61,0.54-2.31
						c1.32-0.71,2.22,0.52,2.22,0.52s-0.14-5.38,4.67-5.14c4.81,0.24,4.52,4.62,4.52,4.62s4.11-2.93,8.34,0.8
						c3.16,2.78,0.66,7.83,0.66,7.83s5.7-0.97,5.92,3.96c0.21,4.93-6.44,5.64-6.44,5.64s4.31,7.7-2.9,11.1
						c-7.21,3.39-10.75-1.7-10.75-1.7s-0.73,2-3.5,2.48c-3.71,0.63-5.02-2.87-5.02-2.87s-9.55,2.96-11.98-4.84
						C160.44,414.64,169.54,412.14,169.54,412.14z"/>
				</g>
				<g>
					<path class="st37" d="M132.65,418.82c0,0-5.35,5.06-6.34,0.37c-4.41,5.12-6.88,2.57-8.62,0.58c-1.74-1.99,1.35-7.3,1.35-7.3
						s-6.03,0.61-7.12-6.28c-0.52-4.65,4.49-7.35,5.86-6.79c-1.76-2.17,1.16-3.86,2.64-3.86c-3.77-1.91-4.61-7.63,3.09-11.69
						c4.83-2.67,9.13,0.47,9.79,1.95c0.84-3.44,2.94-2.98,3.29,0.4c3.21-5.88,11.24-6.75,17.46-4.43c6.23,2.33,7.28,8.2,6.34,10.92
						c3-1.78,5.95,1.62,3.51,4.16c3.22-0.14,3.57,3.23,2.17,5.27c4.92,0.83,7.32,7.08,4.75,11.49c-2.57,4.41-6.68,2.73-6.68,2.73
						s2.63,3.82-1.32,4.06c2.1,3.25-2.03,7.77-6.48,6.96c-4.46-0.8-4.65-3.73-4.65-3.73s-2.22,1.4-3.56-1.75
						c-1.62,3.17-7.33,3.37-10.4-3.07C136.52,420.81,133.13,420.34,132.65,418.82z"/>
				</g>
			</g>
		</g>
		<g>
			<g>
				<g>
					<path class="st37" d="M235.75,439.82c0,0-2.53,0.38-4.02-3.52c-1.5-3.94,3.14-7.8,3.14-7.8c-4.3-3.35,0.9-7.34,0.9-7.34
						s-6.49,1.05-7.48-3.99c-1.03-5.26,5.32-7.61,5.32-7.61s-4.63-6.81,3.81-12.51c8.01-5.41,12.19-0.78,12.19-0.78
						s3.05-2.78,6.9-1.3c4.58,1.76,5.63,5.35,5.63,5.35s2.41-2.64,4.03-2.42c1.62,0.22-0.12,2.93-0.12,2.93s3.6-2.1,5.21-0.61
						c1.61,1.49-0.49,3.66-0.49,3.66c3.07-2.1,5.02-2.47,6.12-2.41c0.32,0.05,0.64,0.11,0.96,0.2c0.11,0.05,0.17,0.09,0.17,0.09
						s0-0.02-0.01-0.05c3.31,0.95,6.52,3.85,3.79,6.96c-0.14,0.16,0.06,0.44,0.25,0.3c1.89-1.34,4.69-1.47,6.85-0.75
						c0.98,0.33,2.18,0.91,2.56,1.96c0.25,0.69,0.16,1.36-0.1,1.98c-0.31,0.39-0.59,0.85-0.82,1.37c-0.09,0.19,0.17,0.41,0.32,0.23
						c0.33-0.44,0.67-0.95,0.89-1.49c0.04-0.05,0.08-0.1,0.12-0.15c3.32-3.69,9.38-1.05,12.31,1.8c1.54,1.49,2.91,3.56,2.73,5.81
						c-0.24,2.91-2.9,4.7-5.33,5.79c-0.19,0.08-0.19,0.41,0.06,0.38c3.2-0.35,7,0.62,9.13,3.19c1.21,1.47,1.83,3.42,1.43,5.32
						c-0.45,2.12-2,2.76-4.02,2.42c-0.21-0.04-0.35,0.26-0.14,0.36c1.22,0.6,2.8,1.61,2.69,3.18c-0.08,1.25-1.02,2.29-1.98,3.03
						c-2.74,0.78-4.61-1.79-4.61-1.79s-0.98,3.25-2.89,3.13c-2.4-0.13-1.7-3.84-1.7-3.84s-3.26,3.39-7.62,3.78
						c-4.35,0.39-6.37-2.61-6.37-2.61s-0.42,1.68-2.96,2.98c-2.53,1.3-4.13-0.06-4.13-0.06s0.44,3.4-2.14,4.64
						c-2.57,1.24-3.24-1.29-3.24-1.29c-1.2,1.44-1.98,0.4-1.98,0.4s-1.76,5.36-9.04,5.77c-7.28,0.41-8.51-4.64-8.51-4.64
						s-0.84,1.81-2.05,1.4c-1.21-0.41-0.68-1.59-0.68-1.59s-2.2,2.17-4.16,1.83c-2.06-0.36-1.79-2.81-1.79-2.81s-4.54,2.4-8.05-0.3
						C231.69,444.49,235.75,439.82,235.75,439.82z"/>
					<path class="st69" d="M336.51,422.84c0,0-1.12,4.82,2.28,10.04c2.86,4.37,7.5,3.34,7.5,3.34s1.3,8.19,12.34,7.64
						c11.63-0.58,11.19-11.58,11.19-11.58s7.59,1.77,9.73-4.93c2.06-6.43-4.89-9.78-4.89-9.78s7.45-0.9,5.27-7.72
						c0,0,6.83-1.16,7.73-6.69c0.89-5.49-1.8-6.82-1.8-6.82s6.74-2.49,4.12-10.55c-1.8-5.54-7.66-5.98-7.66-5.98
						s1.72-2.59-0.06-4.44c-1.71-1.77-5.15-0.83-5.15-0.83s1.22-0.97,0.29-2.29c-0.93-1.32-2.83,0.16-2.83,0.16
						s1.82-6.61-5.52-11.24c-7.33-4.63-12.25,0.24-12.25,0.24s-0.14-1.74-2.17-0.93c0,0,0.87-3.35-2.38-3.73
						c-3.25-0.39-4.86,3.8-4.86,3.8s-0.74-2.67-3.99-2.96c-3.25-0.29-4.66,1.32-4.66,1.32s-0.16-4.82-4.63-7.43
						c-4.47-2.61-9.68-1.03-9.68-1.03s2.9-3.73,0.64-5.57c-1.8-1.46-4.7,1.55-4.7,1.55s-0.32-5.12-4.41-5.47
						c-4.09-0.36-4.57,6.4-4.57,6.4s-4.93-7.07-15.54-3.57c-9.12,3.01-10.68,10.05-10.68,10.05s-1.53-3.67-5-2.27
						c-2.75,1.11-1.95,5.15-0.48,6.22c0,0-2.25-0.43-3.02,0.99c-0.77,1.42,0,2.46,0,2.46s-2.29-0.51-3.4,1.4
						c-1.11,1.91,0,5.72,0,5.72s-3.06-4.12-7.4-4.05c-4.34,0.06-4.22,3.96-4.22,3.96s-1.96-2.41-4.31-1.13
						c-2.35,1.29-0.51,4.54-0.51,4.54s-9.88-4.73-16.12,3.44c-6.24,8.17,0.77,12.93,0.77,12.93s-4.25,0.64-6.82,5.34
						c-2.58,4.7-2.06,14.41,8.75,15.06c0,0-3.22,6.17-0.26,10.16c2.96,3.99,10.29,2.32,10.29,2.32s-5.08,12.87,4.76,18.66
						c9.84,5.79,16.79-5.21,16.79-5.21s0.45,3.79,4.05,3.02c3.6-0.77,3.47-4.89,3.47-4.89s7.14,4.12,12.61,0.9
						c4.77-2.81-0.52-8.62-0.52-8.62s3.27,0.12,4.18-1.48c1.29-2.25-2.57-3.93-2.57-3.93s2.83,0.36,3.47-1.86
						c0.64-2.22-2.64-4.09-2.64-4.09s2.6-0.77,2.51-2.8c0,0,2.09,6.79,11.45,6.18c9.36-0.62,10.88-6.73,10.88-6.73
						s1.06,3.09,8.33,2.67c0,0-3.35,1-2.67,3.83c0.67,2.82,5.43,2.96,5.43,2.96s-3.31,1.86-1.86,3.25
						C332.59,424.15,336.51,422.84,336.51,422.84z"/>
					<path class="st70" d="M241.59,417.43c0.1-0.97,0.68-1.74,1.72-1.81c1.46-0.09,2.56,1.16,3.3,2.22c1.21,1.72,2.11,3.6,3.21,5.38
						c0.18-1.16,0.35-2.32,0.52-3.47c0.23-1.55,0.32-3.06,0.43-4.62c0.04-0.65,0.03-1.29,0.03-1.94c0.46,0.34,0.93,0.67,1.41,0.99
						c1.31,3.6,1.02,7.63-0.43,11.17c-0.07,0.17-0.03,0.31,0.07,0.41c0.01,0.14,0.07,0.28,0.21,0.36c0.01,0.01,0.01,0.01,0.02,0.02
						c-0.02,0.02-0.03,0.03-0.04,0.05c1.71,2.01,4.4,3.86,4.93,4.1c5.77,2.6,11.95,3.94,18.05,5.5c3.11,0.49,5.38,1.41,8.51,1.88
						c2.76,0.41,6.53,2.77,9.1,3.82c2.25,0.92,7.15,4.64,9.1,6.19c-0.37-0.73-3.41-5.59-3.8-6.32c-1.14-2.13-2.42-4.26-3.63-6.42
						c-2.09-2.87-3.22-6.66-4.43-9.91c-1.3-3.49-1.96-7.06-2.82-10.67c-0.03-0.14,0.16-0.08,0.2-0.01c1.98,2.98,3.35,6.34,5.04,9.49
						c0.96,1.79,2.07,3.51,3.01,5.31c0.83,1.62,1.49,3.26,2.65,4.68c1.17,1.43,2.24,2.98,3.22,4.62c0,0.01,0.01,0.01,0.02,0.02
						c0.59,0.83,1.12,1.71,1.62,2.59c-0.02-1.21,0.03-2.43,0.1-3.63c0.09-0.1,0.14-0.24,0.14-0.41c-0.04-2.82,0.43-5.57,0.73-8.33
						c-0.01-0.2-0.01-0.4-0.02-0.61c-0.09-1.55-0.54-3.06-0.62-4.61c-0.14-2.65-0.83-5.26-1.01-7.92c-0.09-1.32-0.29-2.87-0.73-4.11
						c-0.26-0.73-0.56-1.64-0.35-2.39c0.05-0.17,0.28-0.04,0.28,0.09c0.03,1.06,1.04,2.17,1.55,3.03c0.71,1.18,1.46,2.33,2.06,3.58
						c1.18,2.46,2.36,5.73,2.31,8.49c-0.02,1.55,0.32,3.07,0.41,4.63c0.09,1.43-0.02,2.92-0.1,4.36c-0.07,1.38-0.28,2.79-0.59,4.18
						c-0.22,2.59-0.41,5.18,0.07,7.79c0.52,2.77,2.02,5.09,3.39,7.49c1.42,2.48,2.99,4.87,4.52,7.28c0.6,0.95,1.19,1.91,1.76,2.89
						c1.45-5.98,3.83-11.66,4.36-17.83c0.06-0.71,0.1-1.42,0.13-2.14c0.1-0.89,0.18-1.79,0.22-2.69c0.21-4.43-0.62-8.78-1.23-13.14
						c-0.89-6.36-1.85-13.99,1.01-20.01c-0.01,0.27-0.07,0.54-0.14,0.8c-0.07,0.24-0.12,0.48-0.16,0.71
						c0.36,3.78,1.16,7.61,1.89,11.31c0.83,4.26,1.63,8.51,2.33,12.8c0.64,3.91,1.18,7.84,1.12,11.81c0.6-0.75,1.22-1.5,1.86-2.22
						c2.05-2.36,4.21-4.7,6.34-7.08c8.07-7.97,16.1-16.4,18.34-27.73c1.44,1.52,0.73,4.19,0.46,6.17c-0.09,0.69-0.32,1.37-0.62,2.03
						c-0.6,2.63-1.62,5.31-2.7,7.68c-1.23,2.68-2.56,5.38-4.32,7.77c2.65-2.49,5.61-4.65,8.02-7.38c2.45-2.76,4.04-6.15,5.39-9.56
						c-0.11,1.4-0.31,2.79-0.67,4.14c-0.85,3.14-2.42,5.71-4.43,8.24c-1.23,1.55-2.51,3.05-3.79,4.55c-0.5,0.43-0.99,0.86-1.48,1.29
						c-3.67,3.23-6.75,6.74-9.33,10.65c-0.56,1.31-1.09,2.63-1.56,3.97c-2.37,6.67-3.87,13.5-3.05,20.61
						c0.38,3.33,1.45,6.58,1.61,9.93c0.03,0.62,0.04,1.24,0.05,1.87c0.43-1.18,0.88-2.36,1.38-3.52c1.2-2.82,3.05-5.23,4.4-7.95
						c1.29-2.6,1.36-5.59,1.56-8.42c0.31-4.48,0.74-8.9,2.36-13.05c0.25,0.2,0.45,0.47,0.48,0.7c0.06,0.53-0.25,1.08-0.3,1.6
						c-0.15,1.24-0.34,2.46-0.4,3.71c-0.13,2.54-0.21,5.08-0.37,7.61c-0.04,0.69-0.1,1.4-0.15,2.12c0.01,0.28,0.02,0.56,0.05,0.85
						c1.16-1.67,2.34-3.34,3.35-5.1c0.97-1.67,1.89-3.37,2.8-5.07c0.48-1.23,0.94-2.46,1.38-3.7c0.82-1.71,1.58-3.44,2.27-5.2
						c1.63-4.19,3.39-8.54,7.08-11.25c-0.93,2.11-1.86,4.22-2.8,6.33c-0.05,0.2-0.11,0.41-0.15,0.62c-0.74,3.09-1.74,6.14-2.69,9.17
						c-1,3.21-2.5,6.32-4.02,9.31c1.32-1.18,2.74-2.21,4.17-3.26c0.08-0.02,0.17-0.07,0.25-0.14c0.1-0.09,0.19-0.17,0.29-0.25
						c0.32-0.24,0.64-0.47,0.95-0.7c0.01,0,0.01-0.01,0.02-0.01c0.3-0.31,0.59-0.63,0.88-0.95c3.96-3.68,7.41-7.73,10.13-12.44
						c-0.26,1.48-0.66,2.92-1.38,4.22c-0.62,1.12-1.5,2.38-1.86,3.69c-0.86,1.32-1.76,2.61-2.74,3.82c0.94-0.26,1.96-0.35,2.87-0.47
						c0.4-0.05,0.78-0.11,1.17-0.18c1.62-0.61,3.12-1.53,4.49-2.58c0.4-0.3,1.46-1.21,2.46-1.69c-2.34,3.65-5.69,6.1-9.95,7.55
						c-0.58,0.2-1.14,0.43-1.68,0.68c-0.46,0.11-0.91,0.23-1.34,0.4c-2.73,1.04-5.17,2.83-7.32,4.77
						c-5.18,4.66-8.63,10.48-11.7,16.64c-2.48,4.98-2.86,10.38-2.14,15.85c0.73,5.48,2.72,9.91,5.36,14.69
						c3.74,6.77,8.99,12.14,15.64,16.02c2.25,1.32,4.58,2.6,6.93,3.73c2.2,1.05,4.42,1.92,6.58,3.08c-0.87,0.45-1.78,0.8-2.71,1.1
						c-5.35-0.31-10.72-0.09-16.07,0.1c-0.12,0.01-0.22,0.04-0.3,0.08c-1.06,0.04-2.12,0.07-3.17,0.11
						c-0.66,0.03-1.36,0.09-2.06,0.12c2.06,1.14,4.22,2.04,6.31,3.16c-0.47,0.04-0.93,0.09-1.36,0.18c-1,0.22-1.99,0.41-2.98,0.56
						c-1.01-0.12-2.06-0.15-3.06-0.25c-3.5-0.33-7.02-0.46-10.51-0.95c-3.27-0.46-6.39-0.98-9.43-2.29
						c-1.33-0.58-2.72-0.96-4.1-1.37l-0.01,0.04c-0.06,0.41-0.23,0.81-0.49,1.18c-5.06,3.73-11.8,3.81-17.9,3.81
						c-1.05,0-2.12-0.02-3.2-0.06c2.48-1.92,4.5-4.59,6.21-7.02c1.48-2.09,2.97-4.25,3.74-6.73c0.92-2.97,0.92-5.75,0.54-8.81
						c-0.48-3.82-0.92-7.64-1.38-11.46c0-0.09,0-0.19,0-0.29c-0.1-1.06-0.19-2.12-0.3-3.18c-0.61-5.75-0.87-11.46-1.24-17.23
						c-0.41-6.38-1.03-14.95-4.49-20.43c-4.69-7.42-12.75-11.95-20.62-15.3c-4.26-1.81-8.62-3.57-13.03-4.97
						c-2.25-0.71-4.49-1.42-6.69-2.24c-0.25-0.09-0.49-0.17-0.74-0.25c-2.78-0.92-5.49-2.01-8.07-3.41
						c-5.19-2.79-9.34-6.49-13.01-11.07C243.3,422.16,241.35,419.64,241.59,417.43z"/>
					<path class="st71" d="M241.59,417.43c0.1-0.97,0.68-1.74,1.72-1.81c0.01,0,0.03,0,0.05,0c1.18,3.86,3.75,7.61,6.39,10.36
						c4.28,4.46,10.17,6.97,15.96,8.87c6.59,2.16,13.2,4.24,19.68,6.75c3.29,1.27,6.42,2.83,9.61,4.3c2.63,1.21,5.36,2.42,7.44,4.49
						c0.4,0.39,0.98-0.1,0.74-0.58c-0.54-1.06-1.2-2.03-1.92-2.96c-0.97-1.63-3-4.9-3.32-5.49c-1.14-2.13-2.42-4.26-3.63-6.42
						c-2.09-2.87-3.22-6.66-4.43-9.91c-1.3-3.49-1.96-7.06-2.82-10.67c-0.03-0.14,0.16-0.08,0.2-0.01c0.02,0.02,0.03,0.05,0.05,0.07
						c1.06,4.98,3.38,9.58,5.99,13.93c2.89,4.8,5.85,9.6,8.89,14.29c6.06,9.37,13.6,18.33,16.38,29.36c0.12,0.49,0.75,0.41,0.91,0
						c0.79-2.08,1.65-4.12,2.52-6.16c-0.22,1.97-0.59,3.91-0.83,5.88c-0.37,2.96-0.32,5.92,0.01,8.88
						c0.61,5.5,1.63,11.03,2.83,16.43c1.28,5.72,3.25,11.67,3.17,17.58c-0.06,5.12-2.25,9.41-5.29,13.42
						c-0.25,0.33,0.16,0.83,0.53,0.69c3.32-1.19,6.14-3.36,8.6-5.85c1.91,4.66,7.62,7.5,12.12,9.15c4.07,1.5,8.42,2.65,12.81,3.33
						c-0.21,0.02-0.41,0.05-0.61,0.1c-1,0.22-1.99,0.41-2.98,0.56c-1.01-0.12-2.06-0.15-3.06-0.25c-3.5-0.33-7.02-0.46-10.51-0.95
						c-3.27-0.46-6.39-0.98-9.43-2.29c-1.33-0.58-2.72-0.96-4.1-1.37l-0.01,0.04c-0.06,0.41-0.23,0.81-0.49,1.18
						c-5.06,3.73-11.8,3.81-17.9,3.81c-1.05,0-2.12-0.02-3.2-0.06c2.48-1.92,4.5-4.59,6.21-7.02c1.48-2.09,2.97-4.25,3.74-6.73
						c0.92-2.97,0.92-5.75,0.54-8.81c-0.48-3.82-0.92-7.64-1.38-11.46c0-0.09,0-0.19,0-0.29c-0.1-1.06-0.19-2.12-0.3-3.18
						c-0.61-5.75-0.87-11.46-1.24-17.23c-0.41-6.38-1.03-14.95-4.49-20.43c-4.69-7.42-12.75-11.95-20.62-15.3
						c-4.26-1.81-8.62-3.57-13.03-4.97c-2.25-0.71-4.49-1.42-6.69-2.24c-0.25-0.09-0.49-0.17-0.74-0.25
						c-2.78-0.92-5.49-2.01-8.07-3.41c-5.19-2.79-9.34-6.49-13.01-11.07C243.3,422.16,241.35,419.64,241.59,417.43z"/>
					<path class="st71" d="M281.94,443.85c10.04,3.49,20.33,6.92,27.22,15.55c0.06,0.07,0.11,0.15,0.17,0.22
						c7.51,15.17,4.05,18.26,7.26,55c0.31,3.49-0.83,7.02-2.35,10.22c-1.8,3.79-4.61,6.64-7.95,8.86c1.34-1.46,2.52-3.07,3.59-4.58
						c1.48-2.09,2.97-4.25,3.74-6.73c0.92-2.97,0.92-5.75,0.54-8.81c-0.48-3.82-0.92-7.64-1.38-11.46c0-0.09,0-0.19,0-0.29
						c-0.1-1.06-0.19-2.12-0.3-3.18c-0.61-5.75-0.87-11.46-1.24-17.23c-0.41-6.38-1.03-14.95-4.49-20.43
						c-4.69-7.42-12.75-11.95-20.62-15.3c-2.09-0.89-4.2-1.76-6.34-2.59C280.51,443.35,281.22,443.6,281.94,443.85z"/>
					<path class="st71" d="M273.29,440.79c-0.07-0.03-0.13-0.04-0.19-0.07c-2.25-0.71-4.49-1.42-6.69-2.24
						c-0.25-0.09-0.49-0.17-0.74-0.25c-2.78-0.92-5.49-2.01-8.07-3.41c-1.43-0.77-2.78-1.61-4.07-2.52
						C259.88,435.65,266.54,438.33,273.29,440.79z"/>
					<path class="st72" d="M322.92,416.39c0,0-1.88,0.28-2.99-2.62c-1.12-2.94,2.34-5.82,2.34-5.82c-3.2-2.49,0.67-5.46,0.67-5.46
						s-4.83,0.78-5.57-2.97c-0.77-3.91,3.96-5.66,3.96-5.66s-3.46-5.07,2.83-9.32c5.97-4.03,9.08-0.58,9.08-0.58
						s2.27-2.07,5.14-0.97c3.42,1.31,4.2,3.99,4.2,3.99s1.79-1.97,3-1.8c1.21,0.16-0.09,2.18-0.09,2.18s2.68-1.56,3.88-0.45
						c1.2,1.11-0.36,2.73-0.36,2.73c2.28-1.56,3.74-1.84,4.56-1.79c0.24,0.03,0.48,0.09,0.72,0.15c0.09,0.04,0.13,0.07,0.13,0.07
						s0-0.01-0.01-0.04c2.46,0.71,4.85,2.87,2.82,5.18c-0.1,0.12,0.04,0.33,0.19,0.23c1.41-1,3.5-1.1,5.1-0.56
						c0.73,0.24,1.62,0.68,1.91,1.46c0.19,0.51,0.12,1.01-0.07,1.48c-0.23,0.3-0.44,0.63-0.61,1.02c-0.06,0.15,0.13,0.31,0.24,0.17
						c0.25-0.32,0.5-0.7,0.67-1.11c0.03-0.03,0.06-0.07,0.09-0.11c2.47-2.75,6.99-0.79,9.17,1.34c1.14,1.11,2.17,2.66,2.03,4.33
						c-0.18,2.17-2.16,3.5-3.97,4.31c-0.14,0.06-0.14,0.31,0.04,0.29c2.39-0.27,5.22,0.46,6.8,2.37c0.9,1.09,1.36,2.55,1.07,3.96
						c-0.33,1.58-1.5,2.06-3,1.8c-0.16-0.03-0.26,0.2-0.11,0.28c0.91,0.44,2.09,1.2,2.01,2.36c-0.06,0.94-0.76,1.71-1.48,2.25
						c-2.04,0.59-3.43-1.33-3.43-1.33s-0.73,2.42-2.15,2.34c-1.79-0.1-1.27-2.86-1.27-2.86s-2.43,2.52-5.67,2.82
						c-3.24,0.29-4.74-1.95-4.74-1.95s-0.32,1.25-2.21,2.22c-1.88,0.97-3.08-0.04-3.08-0.04s0.33,2.53-1.59,3.46
						c-1.92,0.92-2.41-0.96-2.41-0.96c-0.89,1.07-1.48,0.3-1.48,0.3s-1.31,3.99-6.73,4.3c-5.42,0.31-6.35-3.45-6.35-3.45
						s-0.62,1.35-1.52,1.04c-0.9-0.31-0.51-1.18-0.51-1.18s-1.63,1.61-3.1,1.36c-1.53-0.28-1.33-2.09-1.33-2.09s-3.38,1.78-6-0.23
						C319.9,419.87,322.92,416.39,322.92,416.39z"/>
					<g>
						<path class="st73" d="M391.98,443.13c0,0,6.5-1.44,7.47,4.73c0.97,6.17-6.58,7-6.58,7s0.55,2.47-1.45,3.21
							c-2,0.75-3.53-1.49-3.53-1.49s-1.57,7.05-10.08,4.18c-8.51-2.86-6.1-9.24-6.1-9.24s-8.41-1.01-7.2-8.51
							c1.29-7.99,10.05-5.27,10.05-5.27s1.44-3.33,5.44-3.18c4,0.15,5.41,3.54,5.41,3.54s2.65-3.49,5.86-1.26
							C394.48,439.07,391.98,443.13,391.98,443.13z"/>
						<g>
							<path class="st73" d="M368.69,438.13c0,0,2.1,6.14,4.8,2.89c1.35,5.8,4.32,4.83,6.5,3.99c2.18-0.84,1.94-6.26,1.94-6.26
								s4.46,2.95,8.14-1.99c2.31-3.42-0.5-7.58-1.8-7.71c2.27-0.97,0.68-3.48-0.48-4.1c3.73,0.05,6.73-4.07,2.38-10.4
								c-2.68-4.07-7.32-3.38-8.45-2.49c0.76-3.03-1.08-3.54-2.73-1.04c-0.09-5.91-6.01-9.89-11.83-10.62
								c-5.82-0.74-9.06,3.42-9.44,5.93c-1.62-2.63-5.32-1.17-4.45,1.81c-2.45-1.43-4.11,1.06-3.86,3.23
								c-4.18-1.37-8.62,2.53-8.43,7.03c0.2,4.5,4.1,4.87,4.1,4.87s-3.62,1.9-0.64,3.71c-2.97,1.67-1.59,6.9,2.21,8.1
								c3.81,1.2,5.17-1.01,5.17-1.01s1.16,2,3.5,0.09c-0.04,3.15,4.35,5.64,9.39,1.87C364.85,438.1,367.69,439.12,368.69,438.13z"
								/>
						</g>
					</g>
					<path class="st73" d="M331.62,396.59c0,0,7.03-3.96,10.33,2.86c3.29,6.81-5.16,10.44-5.16,10.44s1.51,2.66-0.55,4.23
						c-2.06,1.57-4.61-0.49-4.61-0.49s0.66,8.74-10.22,8.4c-10.88-0.33-10.33-8.57-10.33-8.57s-10.1,1.78-11.34-7.33
						c-1.32-9.72,9.8-9.64,9.8-9.64s0.5-4.37,5.19-5.6c4.7-1.24,7.52,2.2,7.52,2.2s1.85-4.98,6.35-3.52
						C333.09,391.01,331.62,396.59,331.62,396.59z"/>
					<path class="st69" d="M354.65,437.7c0,0,5.7-3.2,8.37,2.32c2.67,5.51-4.19,8.45-4.19,8.45s1.22,2.16-0.44,3.43
						c-1.67,1.27-3.74-0.4-3.74-0.4s0.54,7.07-8.27,6.81c-8.81-0.27-8.37-6.94-8.37-6.94s-8.18,1.45-9.18-5.94
						c-1.07-7.87,7.94-7.81,7.94-7.81s0.4-3.54,4.2-4.54c3.8-1,6.09,1.78,6.09,1.78s1.49-4.03,5.14-2.85
						C355.84,433.18,354.65,437.7,354.65,437.7z"/>
					<g>
						<path class="st74" d="M331.63,475.23c-0.12-0.54-0.25-1.09-0.4-1.62c-0.85-2.86-1.37-5.91-1.35-8.9
							c0.01-2.68,0.55-5.41,1.11-8.03c0.22-1.03,0.47-2.06,0.77-3.07c0.35-0.99,0.74-1.97,1.13-2.94c0.05-0.1,0.1-0.22,0.16-0.32
							c0.02,0.01,0.03,0.03,0.03,0.04c-0.77,3.89-1.4,7.78-2.04,11.68c-0.39,2.34-0.2,4.98,0,7.34
							C331.21,471.35,331.36,473.31,331.63,475.23z"/>
						<path class="st74" d="M328.74,484.8c0-0.04,0.06-0.01,0.06,0.02c0.38,3.09,1.09,6.38,2.03,9.34c0.84,2.65,1.12,5.3,1.64,8.01
							c0.6,3.08,0.6,6.85,2.33,9.55c1.3,2.03,2.45,4.15,3.71,6.21c-0.83-0.99-1.7-1.93-2.58-2.88c-0.66-0.98-1.28-1.99-1.84-3.04
							c-1.4-2.66-1.78-5.62-2.31-8.57c-0.6-3.33-1.42-6.61-2.39-9.86C328.58,490.85,328.55,487.63,328.74,484.8z"/>
						<path class="st74" d="M341.45,508.76c3.85,8.37,10.84,14.77,19.54,17.93c0.02,0.01,0.03,0.02,0.05,0.04
							c-0.2-0.01-0.39-0.04-0.58-0.07c-2.16-0.77-4.18-1.78-6.19-2.88c-2.13-1.16-4.4-2.29-6.3-3.8c-3.56-2.84-5.24-6.69-6.55-10.91
							C341.42,508.96,341.44,508.86,341.45,508.76z"/>
						<path class="st74" d="M337.77,488.49c-0.21-1.59-0.43-3.17-0.36-4.77c0.11-2.84,1.27-5.31,2.76-7.63
							C339.17,480.24,337.95,484.2,337.77,488.49z"/>
					</g>
					<path class="st73" d="M257.97,412.14c0,0,2.46-3.16,0.02-7.45c-2.34-4.1-6.93-2.83-6.93-2.83s0.78-1.61-0.54-2.31
						c-1.32-0.71-2.21,0.52-2.21,0.52s0.14-5.38-4.67-5.14c-4.81,0.24-4.53,4.62-4.53,4.62s-4.11-2.93-8.35,0.8
						c-3.16,2.78-0.66,7.83-0.66,7.83s-5.71-0.97-5.92,3.96c-0.21,4.93,6.43,5.64,6.43,5.64s-4.31,7.7,2.9,11.1
						c7.21,3.39,10.75-1.7,10.75-1.7s0.73,2,3.5,2.48c3.71,0.63,5.02-2.87,5.02-2.87s9.55,2.96,11.99-4.84
						C267.06,414.64,257.97,412.14,257.97,412.14z"/>
				</g>
				<g>
					<path class="st37" d="M294.86,418.82c0,0,5.35,5.06,6.33,0.37c4.42,5.12,6.88,2.57,8.62,0.58c1.74-1.99-1.35-7.3-1.35-7.3
						s6.03,0.61,7.12-6.28c0.52-4.65-4.49-7.35-5.86-6.79c1.77-2.17-1.16-3.86-2.64-3.86c3.77-1.91,4.61-7.63-3.09-11.69
						c-4.83-2.67-9.13,0.47-9.79,1.95c-0.84-3.44-2.94-2.98-3.29,0.4c-3.2-5.88-11.23-6.75-17.46-4.43
						c-6.23,2.33-7.28,8.2-6.34,10.92c-3-1.78-5.95,1.62-3.51,4.16c-3.22-0.14-3.57,3.23-2.17,5.27c-4.92,0.83-7.32,7.08-4.75,11.49
						c2.56,4.41,6.67,2.73,6.67,2.73s-2.63,3.82,1.32,4.06c-2.09,3.25,2.03,7.77,6.49,6.96c4.45-0.8,4.66-3.73,4.66-3.73
						s2.22,1.4,3.56-1.75c1.62,3.17,7.33,3.37,10.4-3.07C290.98,420.81,294.38,420.34,294.86,418.82z"/>
				</g>
			</g>
		</g>
	</g>
	<g>
		<g>
			<path class="st75" d="M260.16,492.11v-57.84c0-0.4-0.2-0.72-0.45-0.72c-0.25,0-0.45,0.32-0.45,0.72v57.84H260.16z"/>
			<path class="st75" d="M166.17,492.11v-56.87c0-0.4-0.2-0.72-0.45-0.72c-0.25,0-0.45,0.32-0.45,0.72v56.87H166.17z"/>
			<g>
				<path class="st75" d="M166.21,437.95c-0.03,0-0.07-0.01-0.1-0.02c-0.25-0.09-0.4-0.47-0.35-0.86c0.59-4.25-1.08-5.88-1.14-5.95
					c-0.22-0.2-0.29-0.64-0.16-0.99c0.12-0.34,0.4-0.46,0.61-0.26c0.1,0.09,2.32,2.19,1.58,7.52
					C166.6,437.72,166.41,437.95,166.21,437.95z"/>
				<path class="st76" d="M165.53,438.61c-0.03,0-0.07-0.01-0.1-0.02c-0.25-0.09-0.4-0.47-0.35-0.86c0.61-4.34-1.08-6.2-1.09-6.22
					c-0.2-0.22-0.26-0.67-0.12-1c0.14-0.34,0.42-0.42,0.63-0.2c0.09,0.09,2.21,2.44,1.47,7.72
					C165.93,438.38,165.73,438.61,165.53,438.61z"/>
			</g>
			<g>
				<path class="st75" d="M259.96,435.43c-0.03,0-0.06,0-0.1-0.01c-0.24-0.09-0.4-0.48-0.34-0.86c0.42-3.03-0.75-4.18-0.8-4.23
					c-0.21-0.2-0.28-0.64-0.16-0.98c0.12-0.35,0.4-0.46,0.61-0.26c0.07,0.07,1.8,1.7,1.23,5.79
					C260.36,435.2,260.17,435.43,259.96,435.43z"/>
				<path class="st76" d="M259.46,435.92c-0.03,0-0.06-0.01-0.1-0.02c-0.25-0.09-0.4-0.47-0.35-0.86c0.43-3.07-0.72-4.38-0.77-4.43
					c-0.2-0.23-0.26-0.67-0.11-1c0.14-0.33,0.42-0.42,0.62-0.19c0.07,0.07,1.71,1.88,1.14,5.94
					C259.86,435.69,259.67,435.92,259.46,435.92z"/>
			</g>
		</g>
		<path class="st76" d="M164.28,507.01c-0.02,0-0.03,0-0.05-0.01c-0.17-0.04-0.29-0.32-0.26-0.62l1.42-15.77
			c0.02-0.25,0.14-0.45,0.29-0.46c0.15-0.01,0.28,0.15,0.32,0.4l1.42,8.92c0.05,0.29-0.05,0.59-0.22,0.66
			c-0.17,0.08-0.34-0.09-0.39-0.38l-1.03-6.47l-1.19,13.26C164.57,506.82,164.43,507.01,164.28,507.01z"/>
		<path class="st76" d="M260.75,507.77c-0.17,0-0.32-0.21-0.34-0.48l-0.86-13.65l-1.05,6.11c-0.05,0.29-0.24,0.46-0.41,0.38
			c-0.18-0.07-0.29-0.37-0.24-0.66l1.53-8.92c0.05-0.25,0.19-0.41,0.36-0.4c0.16,0.02,0.29,0.22,0.31,0.48l1.05,16.55
			c0.02,0.3-0.12,0.56-0.31,0.59C260.78,507.77,260.77,507.77,260.75,507.77z"/>
		<g>
			<g>
				<polygon class="st77" points="258,498.44 166.97,498.44 163.94,505.87 250.94,507.55 261.03,505.87 				"/>
				<rect x="163.94" y="505.87" class="st78" width="97.09" height="2.56"/>
			</g>
		</g>
	</g>
</g>
</svg>
