<svg xmlns="http://www.w3.org/2000/svg" xmlns:xlink="http://www.w3.org/1999/xlink" viewBox="0 0 600 300"><defs><style>.cls-1{mask:url(#mask);filter:url(#luminosity-noclip-2);}.cls-2,.cls-43,.cls-58,.cls-7{mix-blend-mode:multiply;}.cls-2{fill:url(#linear-gradient);}.cls-3{isolation:isolate;}.cls-4{fill:#cef4f1;}.cls-5{fill:#c1e4db;}.cls-6{fill:#a4d2c6;}.cls-43,.cls-7{opacity:0.5;}.cls-43,.cls-8{fill:#ba581d;}.cls-9{fill:#994116;}.cls-10{fill:#525a66;}.cls-11{fill:#3c434c;}.cls-12{fill:#cb7c72;}.cls-13{fill:#b26964;}.cls-14{fill:#5b070c;}.cls-15{fill:#050505;}.cls-16,.cls-37{fill:#8f5012;}.cls-16{stroke:#4c3300;stroke-linecap:round;stroke-linejoin:round;}.cls-17{fill:#3a1503;}.cls-18{fill:#9ab954;}.cls-19{fill:#b1d35f;}.cls-20{fill:#48cae4;}.cls-21{fill:#e0e2e0;}.cls-22{fill:#228500;}.cls-23{fill:#174f02;}.cls-24{fill:#ffee32;}.cls-25{fill:#8ed3d4;}.cls-26{fill:#007834;}.cls-27{fill:#4e932a;}.cls-28{fill:#503413;}.cls-29{fill:#6c3408;}.cls-30{fill:#b2c9b0;}.cls-31{fill:#d1d8d0;}.cls-32{fill:#d4d293;}.cls-33{fill:#c75864;}.cls-34{fill:#8b1308;}.cls-35{fill:#613d14;}.cls-36{fill:#683d0c;}.cls-38{fill:#a7c192;}.cls-39{fill:#d5171b;}.cls-40{fill:#a61713;}.cls-41{fill:#e98e2e;}.cls-42{fill:#452b09;}.cls-44{mask:url(#mask-2);}.cls-45{fill:url(#linear-gradient-2);}.cls-46{fill:#440c00;}.cls-47{fill:#36b0c1;}.cls-48{fill:#319fa8;}.cls-49{fill:#fdc889;}.cls-50{fill:#c28963;}.cls-50,.cls-51{opacity:0.7;}.cls-51{fill:#dc9e71;}.cls-52{fill:#2a1d07;}.cls-53{fill:#694c2e;}.cls-54{fill:#503a21;}.cls-55{fill:#31220d;}.cls-56{fill:#3fa000;}.cls-57,.cls-58{fill:#925f2d;}.cls-58{opacity:0.4;}.cls-59{fill:#00943b;}.cls-60{fill:#5cc11a;}.cls-61{fill:#814525;}.cls-62{fill:#673a1d;}.cls-63{fill:#542f14;}.cls-64{fill:#ffd060;}.cls-65{fill:#faa53c;}.cls-66{filter:url(#luminosity-noclip);}</style><filter id="luminosity-noclip" x="481.07" y="-8342" width="33.69" height="32766" filterUnits="userSpaceOnUse" color-interpolation-filters="sRGB"><feFlood flood-color="#fff" result="bg"/><feBlend in="SourceGraphic" in2="bg"/></filter><mask id="mask" x="481.07" y="-8342" width="33.69" height="32766" maskUnits="userSpaceOnUse"><g class="cls-66"/></mask><linearGradient id="linear-gradient" x1="488.56" y1="101.27" x2="507.82" y2="123.43" gradientUnits="userSpaceOnUse"><stop offset="0" stop-color="#fff"/><stop offset="0.12" stop-color="#c8c8c8"/><stop offset="0.24" stop-color="#939393"/><stop offset="0.37" stop-color="#666"/><stop offset="0.5" stop-color="#414141"/><stop offset="0.63" stop-color="#252525"/><stop offset="0.75" stop-color="#101010"/><stop offset="0.88" stop-color="#040404"/><stop offset="1"/></linearGradient><filter id="luminosity-noclip-2" x="481.07" y="95.12" width="33.69" height="33.82" filterUnits="userSpaceOnUse" color-interpolation-filters="sRGB"><feFlood flood-color="#fff" result="bg"/><feBlend in="SourceGraphic" in2="bg"/></filter><mask id="mask-2" x="481.07" y="95.12" width="33.69" height="33.82" maskUnits="userSpaceOnUse"><g class="cls-1"><polygon class="cls-2" points="481.07 128.94 514.75 95.12 514.2 102.99 489.63 128.94 481.07 128.94"/></g></mask><linearGradient id="linear-gradient-2" x1="488.56" y1="101.27" x2="507.82" y2="123.43" gradientUnits="userSpaceOnUse"><stop offset="0" stop-color="#fff"/><stop offset="1" stop-color="#fff"/></linearGradient></defs><title>hut_Scenery</title><g class="cls-3"><g id="Layer_1" data-name="Layer 1"><rect class="cls-4" y="0.35" width="600.69" height="212.19"/><polygon class="cls-5" points="377.48 118.22 377.48 97.42 353.55 97.42 353.55 118.75 333.96 118.75 333.96 129.57 319.53 129.57 319.53 105.58 300.91 105.58 300.91 120.55 282.62 120.55 282.62 89.82 268.41 89.82 268.41 115.48 253.18 115.48 253.18 133.36 227.88 133.36 227.88 137.65 207.01 137.65 207.01 119.76 191.78 119.76 191.78 94.11 177.57 94.11 177.57 124.83 159.27 124.83 159.27 109.86 140.66 109.86 140.66 133.85 126.22 133.85 126.22 123.03 106.64 123.03 106.64 101.7 82.71 101.7 82.71 122.5 75.17 122.5 75.17 234.01 88.86 234.01 88.86 230.03 104.58 230.03 104.58 234.01 241.23 234.01 241.23 229.73 355.61 229.73 355.61 225.74 371.32 225.74 371.32 229.73 385.02 229.73 385.02 118.22 377.48 118.22"/><polygon class="cls-6" points="378.55 164.34 378.55 146.49 358.03 146.49 358.03 164.79 344.24 164.79 344.24 176.3 340.99 176.3 340.99 148.69 334.52 148.69 334.52 130.84 314 130.84 314 149.14 297.19 149.14 297.19 158.43 284.8 158.43 284.8 137.84 268.84 137.84 268.84 150.69 253.14 150.69 253.14 124.33 240.95 124.33 240.95 146.34 227.89 146.34 227.89 161.68 206.18 161.68 206.18 165.35 188.27 165.35 188.27 150.01 175.21 150.01 175.21 128 163.01 128 163.01 154.36 147.32 154.36 147.32 141.52 131.35 141.52 131.35 162.1 118.97 162.1 118.97 152.82 102.16 152.82 102.16 134.51 81.64 134.51 81.64 152.36 75.17 152.36 75.17 248.03 86.92 248.03 86.92 244.61 100.4 244.61 100.4 248.03 217.63 248.03 217.63 244.35 315.75 244.35 315.75 240.93 329.24 240.93 329.24 244.35 340.99 244.35 340.99 233.64 344.24 233.64 344.24 260 359.79 260 359.79 256.58 373.27 256.58 373.27 260 385.02 260 385.02 164.34 378.55 164.34"/><g class="cls-7"><path class="cls-8" d="M532.38,123l-.59-45.92c6.41-.47,12.91-.72,19.34-.72,2.11,0,4.24,0,6.35.08,8.61.21,17.3.86,25.85,1.92l-3,45.83Z"/><path class="cls-9" d="M551.13,75.88v1c2.1,0,4.24,0,6.34.08,8.43.21,16.95.83,25.33,1.86l-1.46,22.38-1.46,22.5-47-1.16-.58-45c6.24-.46,12.57-.69,18.83-.69v-1m0,0c-7.07,0-13.71.29-19.85.76l.61,46.87,48.93,1.21q1.51-23.39,3-46.78a262.27,262.27,0,0,0-26.37-2q-3.24-.08-6.36-.08Z"/></g><path class="cls-10" d="M548,118.92l.33-13.19a7.41,7.41,0,0,1,7.36-7.19l2.5.06a7.38,7.38,0,0,1,7.18,7.55l-.32,13.19Z"/><path class="cls-11" d="M555.7,98v1h.18l2.3.06a6.87,6.87,0,0,1,6.7,7l-.31,12.69-16.05-.4.32-12.69A6.91,6.91,0,0,1,555.7,99V98m0,0a7.87,7.87,0,0,0-7.86,7.68l-.34,13.68,18,.45.34-13.69a7.87,7.87,0,0,0-7.67-8.06L555.9,98Z"/><path class="cls-12" d="M531.24,169.41l-.6-45.92c6.41-.48,12.91-.72,19.34-.72,2.11,0,4.24,0,6.35.08,8.61.21,17.3.85,25.85,1.92l-3,45.83Z"/><path class="cls-13" d="M550,122.27v1c2.1,0,4.24,0,6.34.08,8.43.21,16.95.83,25.33,1.86l-2.92,44.88-47-1.17-.58-45c6.24-.45,12.57-.68,18.83-.68v-1m0,0c-7.07,0-13.71.29-19.85.76l.61,46.87,48.93,1.21q1.51-23.38,3-46.78a259.36,259.36,0,0,0-26.37-2c-2.15,0-4.28-.08-6.36-.08Z"/><path class="cls-14" d="M528.65,123l.07-3a207.31,207.31,0,0,1,22.69-1.25c1.67,0,3.36,0,5.08.06a208.63,208.63,0,0,1,27.78,2.56l-.07,3Z"/><path class="cls-15" d="M551.41,118.2v1c1.68,0,3.38,0,5.07.06a208,208,0,0,1,27.28,2.49l0,2.1-54.55-1.35.05-2.1a205.84,205.84,0,0,1,22.2-1.2v-1m0,0a208.8,208.8,0,0,0-23.18,1.3l-.1,4,56.55,1.41.1-4a207.52,207.52,0,0,0-28.28-2.64c-1.73,0-3.42-.06-5.09-.06Z"/><polygon class="cls-16" points="558.66 24.4 572.17 49.2 586.87 75.09 557.45 73.29 528.22 73.83 543.94 48.5 558.66 24.4"/><path class="cls-10" d="M546.75,169.8l.33-13.19a7.32,7.32,0,0,1,7.36-7.19l2.5.06a7.38,7.38,0,0,1,7.18,7.55l-.32,13.19Z"/><path class="cls-11" d="M554.44,148.92v1h.18l2.3.06a6.87,6.87,0,0,1,6.7,7l-.31,12.69-16-.4.32-12.69a6.91,6.91,0,0,1,6.86-6.7v-1m0,0a7.87,7.87,0,0,0-7.86,7.68l-.34,13.68,18,.45.34-13.68A7.87,7.87,0,0,0,557,149l-2.31-.06Z"/><path class="cls-14" d="M528.12,76.56l.07-3a232.4,232.4,0,0,1,23.74-1.21c1.89,0,3.81,0,5.7.07A232.57,232.57,0,0,1,587.1,75L587,78Z"/><path class="cls-17" d="M551.93,71.81v1c1.89,0,3.8,0,5.69.07a230.35,230.35,0,0,1,29,2.53l-.06,2.09-57.9-1.43,0-2.1c7.7-.77,15.51-1.16,23.25-1.16v-1m0,0a231.6,231.6,0,0,0-24.23,1.26l-.1,4,59.91,1.48c0-1.33.07-2.65.1-4a232.31,232.31,0,0,0-30-2.67c-1.94,0-3.85-.07-5.72-.07Z"/><g id="HILLTOP"><path id="Hill" class="cls-18" d="M0,181.67s247.54-10.9,396.4,117.5H0Z"/><path id="Hill-2" data-name="Hill" class="cls-19" d="M600,168S140.5,151.7,91.41,299.17H600Z"/></g><path class="cls-20" d="M0,223.83S50.16,198.76,114.53,214c0,0,45.94,7.2,109.38,2.49,0,0,72.5-15.51,127.81,0,0,0,49.06,15.24,98.12-4.15,0,0,57.82-28.57,150.16-10v88.38H.16Z"/><path class="cls-21" d="M437.77,219.19s.18-3.33-.88-5.27a4.91,4.91,0,0,1,1.5,3.43,10.18,10.18,0,0,0,0-3.51,6.89,6.89,0,0,1,.7,3.16,12.8,12.8,0,0,1,.53-3.87,15.21,15.21,0,0,1,0,4.57s.7-4.22,1.4-5.09a12.78,12.78,0,0,0,0,6.67A2.23,2.23,0,0,1,437.77,219.19Z"/><ellipse class="cls-22" cx="446.82" cy="219.19" rx="10.8" ry="4.22"/><ellipse class="cls-23" cx="446.54" cy="217.04" rx="7.2" ry="1.25"/><path class="cls-21" d="M462.14,220.68a8.27,8.27,0,0,0-.6-3.58,3.34,3.34,0,0,1,1,2.33,6.87,6.87,0,0,0,0-2.39,4.67,4.67,0,0,1,.48,2.15,8.84,8.84,0,0,1,.35-2.62,10.2,10.2,0,0,1,0,3.1,13.86,13.86,0,0,1,1-3.46,8.6,8.6,0,0,0,0,4.53A1.51,1.51,0,0,1,462.14,220.68Z"/><ellipse class="cls-22" cx="468.29" cy="220.68" rx="7.34" ry="2.86"/><ellipse class="cls-23" cx="468.1" cy="219.22" rx="4.89" ry="0.85"/><path class="cls-24" d="M432.75,35.14A29.88,29.88,0,1,0,378,51.7h49.74A29.74,29.74,0,0,0,432.75,35.14Z"/><path class="cls-25" d="M348.4,51.75H517s-9.68-7.62-29.19-3.81c0,0-6.66-23.32-25.21-7.61,0,0,.37-16.66-17.9-16.18S427.38,42.7,427.38,42.7s-12.84-21.41-30.92-1.42c0,0-11.9-4.76-15.7,7.14Z"/><path class="cls-25" d="M16.44,46.35H162L127.18,41.6S130,29,117.43,27c-14.36-2.34-15.87,9.79-16.19,11.24,0,0,.33-24-22.3-24-24.45,0-22.8,21.15-22.8,21.15s-15.49-14.88-27,8.89Z"/><path class="cls-26" d="M570.06,174.52c7.42-17.13-3-12.73-3-12.73-1.6-14.25-6.3-.22-6.3-.22-3.2-8.15-5.74,3.81-5.74,3.81s.5-5.88-1.7-7.72-7.1,4.24-7.1,4.24-.2-5.55-2.3-7-5.5,5.81-5.5,5.81-2.2-4.4-3.8-4.62-1,7-1,7c-3.7-1.19-6.1,3.38-6.1,3.38-.7-9.14-6.9-2.29-6.9-2.29s-.1-5.11-1.9-6.2-6.2,4.57-6.2,4.57a9,9,0,0,0-2.55-5.87c-2.55-2.5-6.36,5.11-6.36,5.11s.11-5.77-2.3-7-5.2,5-5.2,5c-3.71-3.9-6,8-6,8s-.2-4.79-2.8-6-6,4.13-6,4.13c-2-5.33-6.6-1.2-6.6-1.2s-.3-5-2.8-6.3-5.24,4-5.24,4,.64-6.74-1.47-8.16-5.61,4.14-5.61,4.14-.29-4.46-2.59-4.9-2.66,11.21-2.66,11.21c-8.34-6-3.78,4.31-1.05,9.68Z"/><path class="cls-27" d="M538.46,174.77c5.26-12.13-2.12-9-2.12-9-1.13-10.1-4.47-.16-4.47-.16-2.27-5.78-4.06,2.7-4.06,2.7s.35-4.16-1.21-5.47-5,3-5,3-.14-3.93-1.63-4.93S516,165,516,165s-1.56-3.12-2.69-3.27-.71,4.93-.71,4.93c-2.62-.85-4.33,2.39-4.33,2.39-.49-6.47-4.89-1.62-4.89-1.62s-.07-3.62-1.34-4.39-4.4,3.23-4.4,3.23a6.39,6.39,0,0,0-1.8-4.16c-1.81-1.77-4.51,3.62-4.51,3.62s.07-4.08-1.63-4.93-3.68,3.55-3.68,3.55c-2.64-2.77-4.26,5.7-4.26,5.7s-.14-3.39-2-4.24-4.25,2.93-4.25,2.93c-1.42-3.78-4.68-.85-4.68-.85s-.21-3.54-2-4.47-3.7,2.85-3.7,2.85.44-4.77-1.05-5.78-4,2.93-4,2.93-.21-3.16-1.84-3.47-1.89,7.95-1.89,7.95c-5.91-4.25-2.67,3.05-.73,6.85Z"/><polygon class="cls-28" points="550.65 173.8 553.82 173.39 553.69 175.6 547.1 181.65 544.02 178.91 550.65 173.8"/><polygon class="cls-29" points="557.76 125.83 551.96 174.49 545.72 179.44 544.92 127.9 557.76 125.83"/><path class="cls-30" d="M553.79,136.66l2.85-1.49.75-6.24-1.41.46c-3.66,1.19-7.26,2.66-11,3.63l.13,8.71C548.09,140.19,550.85,138.2,553.79,136.66Z"/><path class="cls-31" d="M555.75,142.66l.81-6.74-2.72,1.46c-2.91,1.59-5.7,3.58-8.69,5.09l.07,5C548.76,146,552.2,144.14,555.75,142.66Z"/><path class="cls-32" d="M554.19,149.4l.81-.46.66-5.54c-3.51,1.48-6.92,3.3-10.43,4.78l.11,6.89C548.34,153.26,551.17,151.09,554.19,149.4Z"/><path class="cls-30" d="M545.52,163.45c2.76-2.52,5.68-4.83,8.61-7.14l.78-6.58-1.06.61c-2.91,1.66-5.62,3.72-8.5,5.46l.12,7.69Z"/><path class="cls-30" d="M552.36,171.11l.7-5.88c-1.46.66-2.91,1.36-4.34,2.12-1.06.57-2.11,1.15-3.16,1.74l.08,5.4Q549,172.77,552.36,171.11Z"/><path class="cls-32" d="M545.66,175.22l.06,4.22,6.24-4.95.31-2.6C550.05,173,547.85,174.09,545.66,175.22Z"/><path class="cls-32" d="M548.72,166.6c1.46-.76,2.94-1.46,4.43-2.13l.87-7.24c-2.74,2.15-5.46,4.33-8,6.68l-.5.46.06,4C546.6,167.74,547.66,167.16,548.72,166.6Z"/><path class="cls-32" d="M555.81,128.75l1.66-.54.29-2.38-12.84,2.07.07,4.44C548.66,131.36,552.2,129.92,555.81,128.75Z"/><polygon class="cls-33" points="557.86 124.58 551.96 174.49 550.51 175.87 554.79 126.31 557.86 124.58"/><polygon class="cls-34" points="515.72 96.42 515.49 93.74 533.53 95.28 560.45 123.44 551.93 129.89 515.72 96.42"/><rect class="cls-35" x="485.9" y="179.26" width="61.2" height="2.38"/><polygon class="cls-29" points="545.78 177.65 487.45 177.65 483.83 128.74 515.72 101.81 545.78 125.84 545.78 177.65"/><path class="cls-31" d="M518.43,123.26c-6.75.22-13.51.7-20.24,1.35q-5.08.49-10.16,1.12l-.75.09-3.45,2.92.23,3.19h61.72v-6.09l-3.43-2.74C534.38,123.11,526.4,123,518.43,123.26Z"/><path class="cls-30" d="M528.18,122.45c4.45,0,8.91,0,13.36,0l-25.82-20.64-27.53,23.24A342.74,342.74,0,0,1,528.18,122.45Z"/><path class="cls-32" d="M502.38,139.55q20.5,0,41,1.54l2.44.18v-8.69H484.11l.54,7.3Q493.52,139.55,502.38,139.55Z"/><path class="cls-30" d="M490.31,148.88q6.75-.47,13.51-.82c13.65-.7,27.32-1,41-1.32l1,0V142c-9.13-.66-18.25-1.26-27.39-1.52-11.23-.31-22.47-.31-33.69.11l.65,8.81C487,149.19,488.66,149,490.31,148.88Z"/><path class="cls-31" d="M545.78,158.16v-10.8c-9.49.23-19,.46-28.45.78q-10.23.36-20.47,1c-3.34.2-6.68.39-10,.73l-1.45.14.61,8.18Z"/><path class="cls-30" d="M489.48,165.37c4.49.17,9,.3,13.49.43,14.27.43,28.54,1.1,42.81,1.67v-8.66H486.05l.48,6.48C487.52,165.31,488.5,165.33,489.48,165.37Z"/><path class="cls-31" d="M515.64,166.9c-6.81-.3-13.63-.46-20.44-.67-2.87-.1-5.74-.2-8.62-.28l.87,11.7h58.33V168.2C535.73,167.81,525.68,167.34,515.64,166.9Z"/><rect class="cls-36" x="518.41" y="156.18" width="2.9" height="21.03"/><rect class="cls-36" x="524.49" y="156.13" width="1.85" height="21.07"/><rect class="cls-36" x="529.44" y="156.13" width="1.85" height="21.07"/><rect class="cls-36" x="534.39" y="156.13" width="1.86" height="21.07"/><rect class="cls-36" x="539.34" y="156.13" width="1.86" height="21.07"/><polygon class="cls-37" points="543.55 157.03 517.38 158.56 516.96 154 543.55 154.14 543.55 157.03"/><rect class="cls-38" x="489" y="176.35" width="54.96" height="3.09"/><polygon class="cls-12" points="490.76 179.44 487.24 179.44 483.62 128.11 490.76 124.98 490.76 179.44"/><polygon class="cls-12" points="545.72 179.44 542.2 179.44 542.2 124.98 548.23 127.91 545.72 179.44"/><polygon class="cls-33" points="545.72 179.44 547.2 178.32 549.78 128.21 548.23 127.91 545.72 179.44"/><polygon class="cls-39" points="536.85 129.89 551.93 129.89 515.5 93.73 479.58 129.89 490.73 129.75 515.5 103.61 536.85 129.89"/><path class="cls-40" d="M515.5,93.73h0c-.09,3.55,0,9.87,0,9.87l21.35,26.28h15.08Z"/><path class="cls-41" d="M520.41,156.3a.76.76,0,1,1-.74-.78A.76.76,0,0,1,520.41,156.3Z"/><path class="cls-41" d="M525.85,156.25a.51.51,0,0,1-.52.5.51.51,0,1,1,0-1A.5.5,0,0,1,525.85,156.25Z"/><path class="cls-41" d="M530.72,156a.51.51,0,0,1-.52.5.51.51,0,1,1,.52-.5Z"/><path class="cls-41" d="M536,155.78a.52.52,0,0,1-.52.5.51.51,0,1,1,.52-.5Z"/><path class="cls-41" d="M540.15,155.77a.51.51,0,0,1-.52.5.51.51,0,0,1-.5-.52.51.51,0,0,1,.52-.5A.52.52,0,0,1,540.15,155.77Z"/><polygon class="cls-12" points="514.07 176.39 495.53 176.53 492.25 139.99 515.86 139.12 514.07 176.39"/><polygon class="cls-42" points="513.06 176.39 497.22 176.39 494.7 141.47 513.75 141.26 513.06 176.39"/><polygon class="cls-43" points="490.73 176.3 490.73 129.75 515.5 103.61 536.85 129.89 542.17 129.87 542.37 154.07 540.71 131.43 535.05 131.29 515.44 105.75 492.11 130.19 490.73 176.3"/><g class="cls-44"><polygon class="cls-45" points="481.07 128.94 514.75 95.12 514.2 102.99 489.63 128.94 481.07 128.94"/></g><polygon class="cls-46" points="519.45 97.32 535.6 97.66 536.36 98.35 519.45 97.32"/><polygon class="cls-46" points="548.03 125.48 556.86 120.23 557.62 120.92 548.03 125.48"/><polygon class="cls-46" points="534.43 111.33 544.99 107.81 545.75 108.5 534.43 111.33"/><polygon class="cls-46" points="542.57 120.31 552.37 115.4 553.13 116.09 542.57 120.31"/><polygon class="cls-46" points="538.5 115.68 548.58 111.67 549.34 112.36 538.5 115.68"/><polygon class="cls-46" points="524.76 102.22 538.43 100.77 539.19 101.46 524.76 102.22"/><polygon class="cls-46" points="529.59 106.84 541.54 104.22 542.3 104.91 529.59 106.84"/><path class="cls-47" d="M.78,242.82s30-4.59,49.32-14.44c0,0,21.86,10.52,45.89,14.44,0,0,39-4.32,59.63-14.44,0,0,26.38,12.21,68.52,14.37,0,0,50.57-4.72,68.37-14.44,0,0,15,7.69,70.55,14.44,0,0,53.69-2.3,96.77-14.44,0,0,30,9.18,82.73,14.44,0,0,26.85-1.49,57.44-17.54V246H.94Z"/><path class="cls-48" d="M0,228.94s31.22,15.11,50.57,15.44c0,0,30.44-2.66,44.49-12.16,0,0,20,11.43,61.5,13.36,0,0,46.82-3.06,67.11-14.17,0,0,34.65,12.88,68.37,12.88,0,0,61.19-2.25,76.48-12.07,0,0,29.35,9.66,90.85,12.07,0,0,66.18-3.54,82.72-15.3,0,0,13.43,8.59,57.29,16.54H0Z"/><rect class="cls-19" x="0.14" y="245.99" width="598.86" height="43.89"/><rect class="cls-18" x="0.14" y="245.99" width="598.86" height="9.67"/><rect class="cls-18" x="0.14" y="266.82" width="598.86" height="23.06"/><rect class="cls-49" x="0.14" y="272.77" width="598.86" height="26.41"/><path class="cls-50" d="M112.35,284c0,1.87-15.94,3.38-35.59,3.38S41.18,285.84,41.18,284s15.93-3.39,35.58-3.39S112.35,282.1,112.35,284Z"/><path class="cls-50" d="M548.76,283.13c0,1.87-15.93,3.38-35.58,3.38s-35.59-1.51-35.59-3.38,15.93-3.39,35.59-3.39S548.76,281.26,548.76,283.13Z"/><rect class="cls-51" x="0.14" y="288.76" width="598.86" height="10.41"/><ellipse class="cls-18" cx="417.31" cy="180.09" rx="26.18" ry="4.16"/><rect class="cls-52" x="398.23" y="159.32" width="2.28" height="10.28"/><rect class="cls-52" x="433.66" y="159.32" width="2.28" height="10.28"/><rect class="cls-53" x="396.22" y="158.21" width="41.73" height="2.44"/><rect class="cls-53" x="396.22" y="162.05" width="41.73" height="2.44"/><rect class="cls-53" x="396.22" y="165.89" width="41.73" height="2.44"/><path class="cls-52" d="M435.05,159.33a.33.33,0,0,1-.33.33.33.33,0,0,1,0-.66A.33.33,0,0,1,435.05,159.33Z"/><path class="cls-52" d="M435.05,163.22a.33.33,0,0,1-.33.33.33.33,0,0,1,0-.66A.33.33,0,0,1,435.05,163.22Z"/><path class="cls-52" d="M435.05,167.11a.33.33,0,0,1-.33.33.33.33,0,0,1,0-.66A.33.33,0,0,1,435.05,167.11Z"/><path class="cls-52" d="M399.7,159.33a.33.33,0,0,1-.33.33.33.33,0,0,1,0-.66A.33.33,0,0,1,399.7,159.33Z"/><path class="cls-52" d="M399.7,163.22a.33.33,0,0,1-.33.33.33.33,0,0,1,0-.66A.33.33,0,0,1,399.7,163.22Z"/><path class="cls-52" d="M399.7,167.11a.33.33,0,0,1-.33.33.33.33,0,0,1,0-.66A.33.33,0,0,1,399.7,167.11Z"/><rect class="cls-53" x="395.71" y="172.18" width="1.02" height="8.74"/><rect class="cls-54" x="395.49" y="171.95" width="1.45" height="0.56"/><rect class="cls-53" x="437.44" y="172.18" width="1.02" height="8.74"/><rect class="cls-54" x="437.22" y="171.95" width="1.46" height="0.56"/><rect class="cls-54" x="397.25" y="170.63" width="0.92" height="7.9"/><rect class="cls-54" x="397.05" y="170.42" width="1.31" height="0.51"/><rect class="cls-54" x="436.01" y="170.63" width="0.92" height="7.9"/><rect class="cls-54" x="435.81" y="170.42" width="1.31" height="0.51"/><polygon class="cls-53" points="440.72 171.51 393.45 171.51 396.26 169.21 437.94 169.21 440.72 171.51"/><rect class="cls-55" x="393.45" y="171.51" width="47.27" height="0.75"/><path class="cls-26" d="M67.71,162.66s1,.14,1.51-1.33S68,158.4,68,158.4c1.62-1.25-.34-2.75-.34-2.75s2.44.4,2.81-1.5-2-2.85-2-2.85,1.74-2.56-1.42-4.7-4.58-.29-4.58-.29a2.63,2.63,0,0,0-2.59-.49,3.42,3.42,0,0,0-2.11,2s-.91-1-1.52-.91.05,1.1.05,1.1-1.35-.79-2-.23.19,1.37.19,1.37a4,4,0,0,0-2.3-.9,2.33,2.33,0,0,0-.36.08.14.14,0,0,0-.07,0v0c-1.24.36-2.45,1.45-1.42,2.61,0,.07,0,.17-.1.12a3,3,0,0,0-2.57-.28,1.44,1.44,0,0,0-1,.73,1,1,0,0,0,0,.75,2.1,2.1,0,0,1,.31.51c0,.07-.07.16-.12.09a2.88,2.88,0,0,1-.34-.56l0-.06c-1.25-1.38-3.52-.39-4.62.68a2.87,2.87,0,0,0-1,2.18,2.92,2.92,0,0,0,2,2.17c.07,0,.07.16,0,.15a4,4,0,0,0-3.42,1.19,2.39,2.39,0,0,0-.54,2,1.15,1.15,0,0,0,1.51.91c.08,0,.13.1,0,.14-.46.22-1,.6-1,1.19a1.7,1.7,0,0,0,.75,1.14,1.72,1.72,0,0,0,1.73-.67s.37,1.21,1.08,1.17c.91,0,.64-1.44.64-1.44a5.09,5.09,0,0,0,2.86,1.42,2.6,2.6,0,0,0,2.39-1,2,2,0,0,0,1.11,1.12,1.4,1.4,0,0,0,1.55,0,1.77,1.77,0,0,0,.8,1.74.8.8,0,0,0,1.22-.49c.45.55.74.16.74.16a3.59,3.59,0,0,0,3.4,2.16c2.73.15,3.19-1.74,3.19-1.74s.32.68.77.52a.42.42,0,0,0,.26-.59s.82.81,1.56.68.67-1.05.67-1.05a3,3,0,0,0,3-.11A2.15,2.15,0,0,0,67.71,162.66Z"/><path class="cls-56" d="M29.89,156.28a5.24,5.24,0,0,1-.86,3.77,2.76,2.76,0,0,1-2.81,1.25s-.49,3.08-4.63,2.87a4.18,4.18,0,0,1-4.21-4.35s-2.84.67-3.65-1.85,1.84-3.67,1.84-3.67-2.8-.34-2-2.9c0,0-2.56-.43-2.9-2.51s.67-2.56.67-2.56-2.53-.93-1.54-4a3.42,3.42,0,0,1,2.87-2.25s-.64-1,0-1.66,1.93-.32,1.93-.32a.61.61,0,0,1-.11-.85c.35-.5,1.06.06,1.06.06a3.94,3.94,0,0,1,2.07-4.22c2.76-1.74,4.6.09,4.6.09s.06-.65.82-.35c0,0-.33-1.26.89-1.4s1.83,1.42,1.83,1.42a1.64,1.64,0,0,1,1.49-1.11,2.09,2.09,0,0,1,1.75.49,3.57,3.57,0,0,1,1.74-2.78,5.07,5.07,0,0,1,3.64-.39s-1.09-1.4-.24-2.09c.67-.55,1.76.58,1.76.58s.12-1.92,1.65-2,1.72,2.4,1.72,2.4,1.85-2.65,5.83-1.34a5.75,5.75,0,0,1,4,3.77,1.46,1.46,0,0,1,1.88-.85c1,.42.73,1.93.18,2.34,0,0,.84-.16,1.13.37a.87.87,0,0,1,0,.92,1.22,1.22,0,0,1,1.28.53,3.61,3.61,0,0,1,0,2.15,3.86,3.86,0,0,1,2.77-1.53A1.47,1.47,0,0,1,58,135.79a1.34,1.34,0,0,1,1.61-.42c.89.48.2,1.7.2,1.7s3.7-1.78,6,1.29-.29,4.86-.29,4.86a3.85,3.85,0,0,1,2.56,2c1,1.76.77,5.41-3.29,5.65,0,0,1.21,2.32.1,3.82s-3.86.87-3.86.87,1.9,4.83-1.79,7-6.3-2-6.3-2a1.26,1.26,0,0,1-1.53,1.14c-1.35-.29-1.3-1.84-1.3-1.84s-2.68,1.55-4.73.34c-1.8-1.05.19-3.23.19-3.23s-1.23,0-1.57-.56c-.48-.85,1-1.47,1-1.47s-1.06.13-1.3-.7,1-1.54,1-1.54-1-.29-.94-1.05c0,0-.78,2.55-4.3,2.32s-4.08-2.52-4.08-2.52-.4,1.16-3.13,1c0,0,1.26.37,1,1.44s-2,1.11-2,1.11,1.25.7.7,1.22S29.89,156.28,29.89,156.28Z"/><path class="cls-57" d="M65.52,154.25a.69.69,0,0,0-.64-.68c-.55,0-1,.44-1.24.84-.46.64-.8,1.35-1.21,2-.07-.44-.13-.87-.19-1.31s-.12-1.14-.16-1.73c0-.24,0-.49,0-.73-.17.13-.35.25-.53.37a5.86,5.86,0,0,0,.17,4.2.16.16,0,0,1,0,.15.17.17,0,0,1-.08.14h0l0,0a8.06,8.06,0,0,1-1.85,1.54A41.13,41.13,0,0,1,53,161.15c-1.17.18-2,.53-3.2.7a18.39,18.39,0,0,0-3.41,1.43,22.7,22.7,0,0,0-3.42,2.33c.15-.28,1.29-2.1,1.43-2.38.43-.8.91-1.59,1.36-2.41a15,15,0,0,0,1.66-3.72,32.26,32.26,0,0,0,1.06-4s-.06,0-.07,0c-.75,1.12-1.26,2.39-1.89,3.57-.37.67-.78,1.31-1.13,2a9.86,9.86,0,0,1-1,1.76,13.66,13.66,0,0,0-1.21,1.73h0c-.22.31-.42.64-.61,1,0-.46,0-.91,0-1.36a.25.25,0,0,1,0-.16,25.27,25.27,0,0,0-.28-3.13,1.62,1.62,0,0,0,0-.22c0-.59.21-1.15.24-1.73,0-1,.31-2,.38-3a6.22,6.22,0,0,1,.27-1.54,1.57,1.57,0,0,0,.13-.9c0-.06-.1,0-.1,0,0,.39-.39.81-.58,1.13a15.21,15.21,0,0,0-.78,1.35,7.76,7.76,0,0,0-.87,3.19c0,.58-.12,1.15-.15,1.73a15,15,0,0,0,0,1.64,10.59,10.59,0,0,0,.22,1.57,10.21,10.21,0,0,1,0,2.92,8.91,8.91,0,0,1-1.27,2.81c-.53.93-1.12,1.83-1.69,2.73-.23.36-.45.72-.67,1.09-.54-2.25-1.43-4.38-1.63-6.69,0-.27,0-.54,0-.81s-.07-.67-.08-1a26.38,26.38,0,0,1,.46-4.93c.33-2.38.69-5.25-.38-7.51a1.57,1.57,0,0,0,0,.3,2.68,2.68,0,0,1,.07.27c-.14,1.42-.44,2.85-.71,4.24-.32,1.6-.62,3.2-.88,4.81a25.36,25.36,0,0,0-.42,4.43c-.22-.28-.46-.56-.7-.83-.76-.89-1.57-1.77-2.38-2.66-3-3-6-6.16-6.88-10.41-.54.57-.28,1.57-.18,2.32a3,3,0,0,0,.24.76,15.59,15.59,0,0,0,1,2.88,16.33,16.33,0,0,0,1.62,2.92c-1-.94-2.1-1.75-3-2.77a12,12,0,0,1-2-3.59,8.21,8.21,0,0,0,.25,1.55,8.5,8.5,0,0,0,1.66,3.09c.46.58.94,1.15,1.43,1.71l.55.48a19.68,19.68,0,0,1,3.5,4c.22.49.41,1,.59,1.49a17.2,17.2,0,0,1,1.15,7.74c-.15,1.24-.55,2.47-.61,3.72,0,.24,0,.47,0,.7q-.24-.66-.51-1.32c-.46-1.05-1.15-2-1.66-3a8.28,8.28,0,0,1-.58-3.16,16.51,16.51,0,0,0-.89-4.9.45.45,0,0,0-.18.27,3.16,3.16,0,0,0,.11.6c.06.46.13.92.16,1.39,0,.95.07,1.91.13,2.86l.06.79c0,.11,0,.21,0,.32-.44-.63-.87-1.25-1.26-1.92s-.71-1.26-1.05-1.9c-.18-.46-.35-.92-.52-1.39-.3-.64-.59-1.29-.85-1.95A8.88,8.88,0,0,0,20.22,160l1.05,2.37.06.24c.28,1.16.65,2.3,1,3.44a24,24,0,0,0,1.51,3.5,18.45,18.45,0,0,0-1.57-1.23.2.2,0,0,1-.09-.05l-.11-.09-.36-.27h0l-.34-.36a20.15,20.15,0,0,1-3.8-4.67,5.06,5.06,0,0,0,.52,1.58,7.24,7.24,0,0,1,.7,1.39,14.85,14.85,0,0,0,1,1.43,8.61,8.61,0,0,0-1.08-.17l-.44-.07a6.93,6.93,0,0,1-1.69-1,6.83,6.83,0,0,0-.92-.64,6.89,6.89,0,0,0,3.73,2.84,5.9,5.9,0,0,1,.63.25,3.8,3.8,0,0,1,.51.16,8.87,8.87,0,0,1,2.75,1.79,20.39,20.39,0,0,1,4.39,6.24,10.13,10.13,0,0,1,.8,6,15.1,15.1,0,0,1-2,5.52,15.55,15.55,0,0,1-5.87,6c-.85.5-1.72,1-2.6,1.4s-1.66.72-2.47,1.16a6.92,6.92,0,0,0,1,.42c2-.12,4,0,6,0a.35.35,0,0,1,.12,0l1.19,0,.77.05c-.77.43-1.59.77-2.37,1.19a4,4,0,0,1,.51.06c.38.09.75.16,1.12.21s.77-.05,1.15-.09c1.32-.13,2.63-.17,3.94-.36a13,13,0,0,0,3.54-.86,13.88,13.88,0,0,1,1.54-.51h0a1.11,1.11,0,0,0,.19.45c1.9,1.39,4.42,1.43,6.72,1.43l1.2,0a12.37,12.37,0,0,1-2.34-2.63,9.49,9.49,0,0,1-1.4-2.53,7.37,7.37,0,0,1-.2-3.3c.18-1.44.34-2.87.51-4.31a.37.37,0,0,0,0-.11c0-.39.07-.79.11-1.19.23-2.16.32-4.3.47-6.47.15-2.39.38-5.61,1.68-7.67,1.76-2.78,4.79-4.48,7.74-5.74,1.6-.68,3.24-1.34,4.89-1.87.85-.26,1.69-.53,2.52-.84l.27-.09a18.72,18.72,0,0,0,3-1.28,15.62,15.62,0,0,0,4.89-4.15A3.87,3.87,0,0,0,65.52,154.25Z"/><path class="cls-58" d="M65.52,154.25a.69.69,0,0,0-.64-.68h0a10.24,10.24,0,0,1-2.4,3.89,14.3,14.3,0,0,1-6,3.33c-2.48.81-5,1.59-7.39,2.53-1.23.48-2.4,1.06-3.61,1.62a9.23,9.23,0,0,0-2.79,1.68c-.14.15-.36,0-.27-.21a6.89,6.89,0,0,1,.72-1.12c.36-.61,1.12-1.84,1.24-2.06.43-.8.91-1.59,1.36-2.41a15,15,0,0,0,1.66-3.72,32.26,32.26,0,0,0,1.06-4s-.06,0-.07,0l0,0a17.33,17.33,0,0,1-2.25,5.23c-1.08,1.8-2.19,3.6-3.33,5.37-2.28,3.51-5.11,6.88-6.15,11a.19.19,0,0,1-.35,0c-.29-.78-.61-1.55-.94-2.31.08.74.22,1.47.31,2.21a14.27,14.27,0,0,1,0,3.33,61.69,61.69,0,0,1-1.07,6.17,29.25,29.25,0,0,0-1.19,6.6,8.49,8.49,0,0,0,2,5c.09.12-.06.31-.2.26a8.85,8.85,0,0,1-3.23-2.2c-.72,1.75-2.86,2.82-4.55,3.44a25.74,25.74,0,0,1-4.81,1.25l.23,0c.38.09.75.16,1.12.21s.77-.05,1.15-.09c1.32-.13,2.63-.17,3.94-.36a13,13,0,0,0,3.54-.86,13.88,13.88,0,0,1,1.54-.51h0a1.11,1.11,0,0,0,.19.45c1.9,1.39,4.42,1.43,6.72,1.43l1.2,0a12.37,12.37,0,0,1-2.34-2.63,9.49,9.49,0,0,1-1.4-2.53,7.37,7.37,0,0,1-.2-3.3c.18-1.44.34-2.87.51-4.31a.37.37,0,0,0,0-.11c0-.39.07-.79.11-1.19.23-2.16.32-4.3.47-6.47.15-2.39.38-5.61,1.68-7.67,1.76-2.78,4.79-4.48,7.74-5.74,1.6-.68,3.24-1.34,4.89-1.87.85-.26,1.69-.53,2.52-.84l.27-.09a18.72,18.72,0,0,0,3-1.28,15.62,15.62,0,0,0,4.89-4.15A3.87,3.87,0,0,0,65.52,154.25Z"/><path class="cls-58" d="M50.37,164.17c-3.76,1.31-7.63,2.6-10.21,5.84,0,0,0,.05-.07.08-2.81,5.7-1.52,6.86-2.72,20.65a7.51,7.51,0,0,0,.88,3.83,8.22,8.22,0,0,0,3,3.33,17.52,17.52,0,0,1-1.35-1.72,9.49,9.49,0,0,1-1.4-2.53,7.37,7.37,0,0,1-.2-3.3c.18-1.44.34-2.87.51-4.31a.37.37,0,0,0,0-.11c0-.39.07-.79.11-1.19.23-2.16.32-4.3.47-6.47.15-2.39.38-5.61,1.68-7.67,1.76-2.78,4.79-4.48,7.74-5.74.79-.33,1.58-.66,2.38-1Z"/><path class="cls-58" d="M53.62,163l.07,0c.85-.26,1.69-.53,2.52-.84l.27-.09a18.72,18.72,0,0,0,3-1.28,14.54,14.54,0,0,0,1.53-.94A60.67,60.67,0,0,1,53.62,163Z"/><path class="cls-59" d="M35,153.86s.71.11,1.12-1-.87-2.19-.87-2.19c1.2-.93-.26-2.05-.26-2.05s1.82.3,2.09-1.11-1.48-2.13-1.48-2.13,1.29-1.9-1.07-3.5-3.4-.22-3.4-.22a2,2,0,0,0-1.93-.36,2.58,2.58,0,0,0-1.58,1.5s-.67-.74-1.12-.68,0,.82,0,.82-1-.59-1.46-.17.14,1,.14,1a3,3,0,0,0-1.71-.67l-.27.06,0,0h0c-.92.27-1.82,1.08-1.06,1.94,0,0,0,.13-.07.09a2.21,2.21,0,0,0-1.91-.21,1,1,0,0,0-.71.55.7.7,0,0,0,0,.55,1.6,1.6,0,0,1,.23.38c0,.06-.05.12-.09.07a2.45,2.45,0,0,1-.25-.42l0,0c-.93-1-2.62-.29-3.44.51a2.09,2.09,0,0,0-.76,1.62c.06.81.81,1.31,1.49,1.62.05,0,.05.11,0,.1a3,3,0,0,0-2.55.9,1.76,1.76,0,0,0-.4,1.48c.12.6.56.77,1.12.68.06,0,.1.08,0,.1-.34.17-.78.46-.75.89a1.28,1.28,0,0,0,.55.85,1.28,1.28,0,0,0,1.29-.5s.28.91.81.88.48-1.08.48-1.08a3.8,3.8,0,0,0,2.13,1.06,1.94,1.94,0,0,0,1.78-.73,1.5,1.5,0,0,0,.82.83,1.06,1.06,0,0,0,1.16,0,1.32,1.32,0,0,0,.6,1.3.58.58,0,0,0,.9-.36c.34.4.56.11.56.11A2.68,2.68,0,0,0,27.63,158c2,.11,2.39-1.3,2.39-1.3s.23.51.57.39a.31.31,0,0,0,.19-.44s.61.6,1.16.51.5-.78.5-.78a2.25,2.25,0,0,0,2.25-.09A1.61,1.61,0,0,0,35,153.86Z"/><path class="cls-60" d="M9.07,163.9s-2.44-.54-2.81,1.77,2.47,2.63,2.47,2.63-.21.93.55,1.21S10.6,169,10.6,169s.59,2.64,3.78,1.57,2.29-3.47,2.29-3.47,3.16-.38,2.71-3.2c-.49-3-3.78-2-3.78-2a2.15,2.15,0,0,0-2-1.2,2.34,2.34,0,0,0-2,1.33,1.65,1.65,0,0,0-2.2-.47C8.13,162.37,9.07,163.9,9.07,163.9Z"/><path class="cls-60" d="M17.81,162s-.79,2.31-1.8,1.09c-.51,2.18-1.62,1.81-2.44,1.5s-.73-2.36-.73-2.36a2.21,2.21,0,0,1-3.05-.74,2.07,2.07,0,0,1,.67-2.9c-.85-.36-.25-1.3.18-1.53-1.4,0-2.53-1.53-.89-3.91a2.44,2.44,0,0,1,3.17-.93c-.29-1.14.4-1.33,1-.39,0-2.22,2.26-3.72,4.44-4a3.08,3.08,0,0,1,3.55,2.22.9.9,0,0,1,1.67.69c.92-.54,1.54.39,1.44,1.21a2.58,2.58,0,0,1,3.17,2.64,1.79,1.79,0,0,1-1.54,1.83s1.36.71.24,1.39c1.11.63.6,2.59-.83,3s-1.94-.38-1.94-.38-.44.75-1.32,0c0,1.18-1.63,2.12-3.52.7C19.25,162,18.18,162.39,17.81,162Z"/><path class="cls-60" d="M31.72,146.43s-2.64-1.49-3.87,1.07,1.94,3.92,1.94,3.92-.57,1,.2,1.59,1.73-.19,1.73-.19-.24,3.28,3.84,3.16,3.88-3.22,3.88-3.22,3.79.67,4.25-2.75c.5-3.65-3.68-3.62-3.68-3.62a2.6,2.6,0,0,0-1.95-2.11,2.82,2.82,0,0,0-2.82.83s-.69-1.87-2.38-1.32S31.72,146.43,31.72,146.43Z"/><path class="cls-56" d="M23.08,161.86s-2.14-1.2-3.14.87,1.57,3.17,1.57,3.17-.46.81.17,1.29,1.4-.15,1.4-.15-.2,2.65,3.1,2.55,3.14-2.6,3.14-2.6,3.08.54,3.45-2.23c.4-3-3-2.93-3-2.93a2.09,2.09,0,0,0-1.58-1.7,2.27,2.27,0,0,0-2.28.66s-.56-1.51-1.93-1.07S23.08,161.86,23.08,161.86Z"/><path class="cls-61" d="M31.72,176c0-.2.09-.41.15-.61a11.46,11.46,0,0,0,.51-3.34,15.37,15.37,0,0,0-.42-3,11.38,11.38,0,0,0-.29-1.15c-.13-.37-.28-.74-.43-1.11l0-.12s0,0,0,0c.28,1.46.52,2.92.76,4.39a11.5,11.5,0,0,1,0,2.75C31.88,174.49,31.82,175.23,31.72,176Z"/><path class="cls-61" d="M32.81,179.54s0,0,0,0a20,20,0,0,1-.76,3.51,25.76,25.76,0,0,0-.62,3c-.22,1.16-.22,2.58-.87,3.59-.49.76-.92,1.55-1.39,2.33.31-.37.64-.73,1-1.08s.48-.75.69-1.15a10.67,10.67,0,0,0,.86-3.21,36.25,36.25,0,0,1,.9-3.7A9.65,9.65,0,0,0,32.81,179.54Z"/><path class="cls-61" d="M28,188.53a12.81,12.81,0,0,1-7.33,6.73l0,0a.83.83,0,0,0,.22,0,16.3,16.3,0,0,0,2.32-1.08,15.87,15.87,0,0,0,2.37-1.43,7.94,7.94,0,0,0,2.46-4.09S28,188.57,28,188.53Z"/><path class="cls-61" d="M29.42,180.93a9.81,9.81,0,0,0,.13-1.79,5.67,5.67,0,0,0-1-2.87A24.6,24.6,0,0,1,29.42,180.93Z"/><path class="cls-60" d="M59.37,152.27a2.57,2.57,0,0,1,0-2.8A2.35,2.35,0,0,1,62,148.41s-.3-.61.2-.87a.65.65,0,0,1,.83.19s0-2,1.75-1.92a1.63,1.63,0,0,1,1.7,1.73,2.53,2.53,0,0,1,3.13.3c1.19,1,.25,2.94.25,2.94s2.14-.36,2.22,1.49-2.41,2.11-2.41,2.11,1.62,2.89-1.09,4.17-4-.64-4-.64a1.64,1.64,0,0,1-1.31.93,1.73,1.73,0,0,1-1.89-1.08s-3.58,1.11-4.49-1.81C56,153.2,59.37,152.27,59.37,152.27Z"/><path class="cls-26" d="M45.52,154.78s-2,1.89-2.37.13c-1.66,1.93-2.58,1-3.24.22s.51-2.74.51-2.74A2.51,2.51,0,0,1,37.75,150c-.2-1.74,1.68-2.75,2.2-2.54-.67-.82.43-1.45,1-1.45-1.42-.72-1.74-2.87,1.15-4.39a2.77,2.77,0,0,1,3.68.73c.31-1.29,1.1-1.12,1.23.15,1.21-2.21,4.22-2.54,6.56-1.66A3.47,3.47,0,0,1,55.94,145a1,1,0,0,1,1.32,1.57c1.2-.06,1.34,1.21.81,2a2.93,2.93,0,0,1,1.79,4.32,2,2,0,0,1-2.51,1s1,1.44-.49,1.53c.78,1.21-.77,2.91-2.44,2.61s-1.75-1.4-1.75-1.4-.83.52-1.33-.66c-.61,1.19-2.75,1.27-3.91-1.15C47,155.52,45.7,155.34,45.52,154.78Z"/><path class="cls-26" d="M84.22,162.66s-1,.14-1.5-1.33,1.17-2.93,1.17-2.93c-1.61-1.25.34-2.75.34-2.75s-2.43.4-2.8-1.5,2-2.85,2-2.85-1.74-2.56,1.43-4.7c3-2,4.58-.29,4.58-.29a2.63,2.63,0,0,1,2.59-.49,3.42,3.42,0,0,1,2.11,2s.9-1,1.51-.91,0,1.1,0,1.1,1.35-.79,2-.23-.18,1.37-.18,1.37a4,4,0,0,1,2.3-.9,2.33,2.33,0,0,1,.36.08.14.14,0,0,1,.06,0v0c1.24.36,2.45,1.45,1.42,2.61-.05.07,0,.17.09.12a3,3,0,0,1,2.58-.28,1.48,1.48,0,0,1,1,.73,1,1,0,0,1,0,.75,2.1,2.1,0,0,0-.31.51c0,.07.06.16.12.09a3.48,3.48,0,0,0,.34-.56l0-.06c1.25-1.38,3.52-.39,4.62.68a2.86,2.86,0,0,1,1,2.18,2.89,2.89,0,0,1-2,2.17c-.07,0-.07.16,0,.15a4,4,0,0,1,3.43,1.19,2.42,2.42,0,0,1,.54,2,1.15,1.15,0,0,1-1.51.91c-.08,0-.14.1-.06.14.46.22,1.05.6,1,1.19a1.69,1.69,0,0,1-.74,1.14,1.72,1.72,0,0,1-1.73-.67s-.37,1.21-1.09,1.17c-.9,0-.64-1.44-.64-1.44a5,5,0,0,1-2.86,1.42,2.59,2.59,0,0,1-2.38-1,2,2,0,0,1-1.12,1.12,1.4,1.4,0,0,1-1.55,0,1.75,1.75,0,0,1-.8,1.74.79.79,0,0,1-1.21-.49c-.45.55-.75.16-.75.16a3.59,3.59,0,0,1-3.39,2.16c-2.73.15-3.2-1.74-3.2-1.74s-.31.68-.77.52a.42.42,0,0,1-.25-.59s-.83.81-1.56.68-.67-1.05-.67-1.05a3.05,3.05,0,0,1-3-.11A2.15,2.15,0,0,1,84.22,162.66Z"/><path class="cls-56" d="M122.05,156.28a5.24,5.24,0,0,0,.86,3.77,2.76,2.76,0,0,0,2.81,1.25s.49,3.08,4.63,2.87a4.17,4.17,0,0,0,4.2-4.35s2.85.67,3.66-1.85-1.84-3.67-1.84-3.67,2.8-.34,2-2.9c0,0,2.56-.43,2.9-2.51s-.68-2.56-.68-2.56a3,3,0,0,0,1.55-4,3.44,3.44,0,0,0-2.88-2.25s.65-1,0-1.66-1.93-.32-1.93-.32a.61.61,0,0,0,.11-.85c-.35-.5-1.06.06-1.06.06a3.93,3.93,0,0,0-2.08-4.22,3.64,3.64,0,0,0-4.6.09s0-.65-.81-.35c0,0,.32-1.26-.89-1.4s-1.83,1.42-1.83,1.42a1.67,1.67,0,0,0-1.5-1.11,2.09,2.09,0,0,0-1.75.49,3.57,3.57,0,0,0-1.74-2.78,5,5,0,0,0-3.63-.39s1.09-1.4.24-2.09c-.67-.55-1.76.58-1.76.58s-.12-1.92-1.66-2-1.71,2.4-1.71,2.4-1.85-2.65-5.83-1.34a5.72,5.72,0,0,0-4,3.77,1.47,1.47,0,0,0-1.88-.85c-1,.42-.73,1.93-.18,2.34,0,0-.84-.16-1.13.37a.87.87,0,0,0,0,.92,1.22,1.22,0,0,0-1.28.53,3.53,3.53,0,0,0,0,2.15,3.9,3.9,0,0,0-2.78-1.53A1.46,1.46,0,0,0,94,135.79a1.35,1.35,0,0,0-1.62-.42c-.88.48-.19,1.7-.19,1.7s-3.71-1.78-6,1.29.29,4.86.29,4.86a3.85,3.85,0,0,0-2.56,2c-1,1.76-.77,5.41,3.29,5.65,0,0-1.21,2.32-.1,3.82s3.86.87,3.86.87-1.91,4.83,1.79,7,6.3-2,6.3-2a1.25,1.25,0,0,0,1.52,1.14,1.82,1.82,0,0,0,1.31-1.84s2.68,1.55,4.73.34c1.79-1.05-.19-3.23-.19-3.23s1.23,0,1.57-.56c.48-.85-1-1.47-1-1.47s1.06.13,1.31-.7-1-1.54-1-1.54,1-.29.94-1.05c0,0,.78,2.55,4.3,2.32s4.08-2.52,4.08-2.52.4,1.16,3.13,1c0,0-1.26.37-1,1.44s2,1.11,2,1.11-1.24.7-.7,1.22S122.05,156.28,122.05,156.28Z"/><path class="cls-57" d="M86.42,154.25a.69.69,0,0,1,.64-.68c.55,0,1,.44,1.24.84.45.64.79,1.35,1.21,2,.07-.44.13-.87.19-1.31s.12-1.14.16-1.73c0-.24,0-.49,0-.73l.53.37a5.8,5.8,0,0,1-.16,4.2.14.14,0,0,0,0,.15.17.17,0,0,0,.08.14h0l0,0a7.85,7.85,0,0,0,1.85,1.54A41.13,41.13,0,0,0,99,161.15c1.17.18,2,.53,3.19.7a18.48,18.48,0,0,1,3.42,1.43,22.61,22.61,0,0,1,3.41,2.33c-.14-.28-1.28-2.1-1.42-2.38-.43-.8-.91-1.59-1.36-2.41a15.36,15.36,0,0,1-1.67-3.72,32.22,32.22,0,0,1-1.05-4s.06,0,.07,0c.74,1.12,1.26,2.39,1.89,3.57.36.67.78,1.31,1.13,2a9.28,9.28,0,0,0,1,1.76,13.6,13.6,0,0,1,1.2,1.73h0c.22.31.42.64.61,1,0-.46,0-.91,0-1.36a.25.25,0,0,0,0-.16,25.26,25.26,0,0,1,.27-3.13,1.62,1.62,0,0,0,0-.22c0-.59-.2-1.15-.23-1.73,0-1-.31-2-.38-3a5.81,5.81,0,0,0-.28-1.54,1.75,1.75,0,0,1-.13-.9c0-.06.11,0,.11,0,0,.39.39.81.58,1.13s.55.88.78,1.35a7.91,7.91,0,0,1,.87,3.19c0,.58.12,1.15.15,1.73s0,1.1,0,1.64a9.44,9.44,0,0,1-.23,1.57,11,11,0,0,0,0,2.92,9.17,9.17,0,0,0,1.28,2.81c.53.93,1.12,1.83,1.69,2.73.23.36.45.72.66,1.09.54-2.25,1.44-4.38,1.64-6.69,0-.27,0-.54,0-.81s.06-.67.08-1a26.38,26.38,0,0,0-.46-4.93c-.34-2.38-.7-5.25.38-7.51a1.59,1.59,0,0,1-.06.3l-.06.27c.14,1.42.44,2.85.71,4.24.31,1.6.61,3.2.88,4.81a24.42,24.42,0,0,1,.41,4.43c.23-.28.46-.56.7-.83.77-.89,1.58-1.77,2.38-2.66,3-3,6-6.16,6.89-10.41.54.57.27,1.57.17,2.32a2.66,2.66,0,0,1-.23.76,15.59,15.59,0,0,1-1,2.88,17,17,0,0,1-1.63,2.92c1-.94,2.11-1.75,3-2.77a12,12,0,0,0,2-3.59,9.1,9.1,0,0,1-.25,1.55,8.5,8.5,0,0,1-1.66,3.09c-.47.58-1,1.15-1.43,1.71l-.55.48a20,20,0,0,0-3.51,4c-.21.49-.41,1-.58,1.49a17.07,17.07,0,0,0-1.15,7.74c.14,1.24.55,2.47.61,3.72,0,.24,0,.47,0,.7q.24-.66.51-1.32c.45-1.05,1.15-2,1.65-3a8.29,8.29,0,0,0,.59-3.16,16.51,16.51,0,0,1,.89-4.9.5.5,0,0,1,.18.27,2.55,2.55,0,0,1-.12.6c0,.46-.12.92-.15,1.39,0,.95-.08,1.91-.14,2.86,0,.26,0,.52,0,.79,0,.11,0,.21,0,.32.43-.63.87-1.25,1.25-1.92s.72-1.26,1.06-1.9c.17-.46.35-.92.51-1.39.31-.64.6-1.29.86-1.95a8.88,8.88,0,0,1,2.66-4.22l-1.05,2.37-.06.24c-.28,1.16-.66,2.3-1,3.44a24,24,0,0,1-1.51,3.5,18.45,18.45,0,0,1,1.57-1.23.2.2,0,0,0,.09-.05l.11-.09.35-.27h0l.33-.36a20.19,20.19,0,0,0,3.81-4.67,5.06,5.06,0,0,1-.52,1.58,7.24,7.24,0,0,0-.7,1.39,14.85,14.85,0,0,1-1,1.43,8.61,8.61,0,0,1,1.08-.17l.44-.07a6.93,6.93,0,0,0,1.69-1,6.23,6.23,0,0,1,.92-.64,6.87,6.87,0,0,1-3.74,2.84c-.21.07-.42.16-.63.25a4.16,4.16,0,0,0-.5.16,8.87,8.87,0,0,0-2.75,1.79,20.22,20.22,0,0,0-4.39,6.24,10.05,10.05,0,0,0-.8,6,15.1,15.1,0,0,0,2,5.52,15.48,15.48,0,0,0,5.87,6c.85.5,1.72,1,2.6,1.4s1.66.72,2.47,1.16a7.54,7.54,0,0,1-1,.42c-2-.12-4,0-6,0a.35.35,0,0,0-.11,0l-1.19,0-.77.05c.77.43,1.58.77,2.36,1.19a4,4,0,0,0-.5.06c-.38.09-.75.16-1.12.21s-.78-.05-1.15-.09c-1.32-.13-2.63-.17-3.95-.36a13.09,13.09,0,0,1-3.54-.86,14.44,14.44,0,0,0-1.53-.51h0a1,1,0,0,1-.18.45c-1.9,1.39-4.43,1.43-6.72,1.43l-1.2,0a12.06,12.06,0,0,0,2.33-2.63,9.26,9.26,0,0,0,1.41-2.53,7.51,7.51,0,0,0,.2-3.3c-.18-1.44-.34-2.87-.52-4.31v-.11c0-.39-.07-.79-.11-1.19-.23-2.16-.33-4.3-.47-6.47-.15-2.39-.38-5.61-1.68-7.67-1.76-2.78-4.79-4.48-7.74-5.74-1.61-.68-3.24-1.34-4.9-1.87-.84-.26-1.68-.53-2.51-.84l-.27-.09a18,18,0,0,1-3-1.28,15.62,15.62,0,0,1-4.89-4.15A3.87,3.87,0,0,1,86.42,154.25Z"/><path class="cls-58" d="M86.42,154.25a.69.69,0,0,1,.64-.68h0a10.24,10.24,0,0,0,2.4,3.89,14.3,14.3,0,0,0,6,3.33c2.47.81,5,1.59,7.38,2.53,1.24.48,2.41,1.06,3.61,1.62a9.11,9.11,0,0,1,2.79,1.68.18.18,0,0,0,.28-.21,6.89,6.89,0,0,0-.72-1.12c-.36-.61-1.13-1.84-1.24-2.06-.43-.8-.91-1.59-1.36-2.41a15.36,15.36,0,0,1-1.67-3.72,32.22,32.22,0,0,1-1.05-4s.06,0,.07,0l0,0a17.33,17.33,0,0,0,2.25,5.23c1.08,1.8,2.19,3.6,3.33,5.37,2.28,3.51,5.11,6.88,6.15,11a.18.18,0,0,0,.34,0c.3-.78.62-1.55.95-2.31-.08.74-.22,1.47-.31,2.21a14.27,14.27,0,0,0,0,3.33,61.65,61.65,0,0,0,1.06,6.17,29.26,29.26,0,0,1,1.2,6.6,8.49,8.49,0,0,1-2,5c-.1.12.06.31.2.26a9,9,0,0,0,3.23-2.2c.72,1.75,2.86,2.82,4.55,3.44a25.54,25.54,0,0,0,4.81,1.25l-.23,0c-.38.09-.75.16-1.12.21s-.78-.05-1.15-.09c-1.32-.13-2.63-.17-3.95-.36a13.09,13.09,0,0,1-3.54-.86,14.44,14.44,0,0,0-1.53-.51h0a1,1,0,0,1-.18.45c-1.9,1.39-4.43,1.43-6.72,1.43l-1.2,0a12.06,12.06,0,0,0,2.33-2.63,9.26,9.26,0,0,0,1.41-2.53,7.51,7.51,0,0,0,.2-3.3c-.18-1.44-.34-2.87-.52-4.31v-.11c0-.39-.07-.79-.11-1.19-.23-2.16-.33-4.3-.47-6.47-.15-2.39-.38-5.61-1.68-7.67-1.76-2.78-4.79-4.48-7.74-5.74-1.61-.68-3.24-1.34-4.9-1.87-.84-.26-1.68-.53-2.51-.84l-.27-.09a18,18,0,0,1-3-1.28,15.62,15.62,0,0,1-4.89-4.15A3.87,3.87,0,0,1,86.42,154.25Z"/><path class="cls-58" d="M101.56,164.17c3.77,1.31,7.63,2.6,10.22,5.84l.06.08c2.82,5.7,1.52,6.86,2.73,20.65a7.62,7.62,0,0,1-.88,3.83,8.29,8.29,0,0,1-3,3.33,17.39,17.39,0,0,0,1.34-1.72,9.26,9.26,0,0,0,1.41-2.53,7.51,7.51,0,0,0,.2-3.3c-.18-1.44-.34-2.87-.52-4.31v-.11c0-.39-.07-.79-.11-1.19-.23-2.16-.33-4.3-.47-6.47-.15-2.39-.38-5.61-1.68-7.67-1.76-2.78-4.79-4.48-7.74-5.74-.79-.33-1.58-.66-2.38-1Z"/><path class="cls-58" d="M98.32,163l-.08,0c-.84-.26-1.68-.53-2.51-.84l-.27-.09a18,18,0,0,1-3-1.28,14.54,14.54,0,0,1-1.53-.94A59.36,59.36,0,0,0,98.32,163Z"/><path class="cls-59" d="M117,153.86s-.71.11-1.13-1,.88-2.19.88-2.19c-1.2-.93.25-2.05.25-2.05s-1.81.3-2.09-1.11,1.49-2.13,1.49-2.13-1.3-1.9,1.06-3.5,3.41-.22,3.41-.22a2,2,0,0,1,1.93-.36,2.58,2.58,0,0,1,1.58,1.5s.67-.74,1.12-.68,0,.82,0,.82,1-.59,1.46-.17-.14,1-.14,1a2.94,2.94,0,0,1,1.71-.67l.27.06.05,0h0c.92.27,1.82,1.08,1,1.94,0,0,0,.13.07.09a2.23,2.23,0,0,1,1.92-.21,1,1,0,0,1,.71.55.74.74,0,0,1,0,.55,1.6,1.6,0,0,0-.23.38c0,.06,0,.12.08.07a1.61,1.61,0,0,0,.25-.42s0,0,0,0c.93-1,2.62-.29,3.44.51a2.12,2.12,0,0,1,.76,1.62c-.07.81-.81,1.31-1.49,1.62,0,0,0,.11,0,.1a3,3,0,0,1,2.55.9,1.76,1.76,0,0,1,.4,1.48c-.13.6-.56.77-1.13.68-.06,0-.09.08,0,.1.35.17.79.46.76.89a1.26,1.26,0,0,1-.56.85,1.29,1.29,0,0,1-1.29-.5s-.27.91-.8.88-.48-1.08-.48-1.08a3.8,3.8,0,0,1-2.13,1.06,1.94,1.94,0,0,1-1.78-.73,1.5,1.5,0,0,1-.83.83,1,1,0,0,1-1.15,0,1.32,1.32,0,0,1-.6,1.3.59.59,0,0,1-.91-.36c-.33.4-.55.11-.55.11A2.69,2.69,0,0,1,124.3,158c-2,.11-2.38-1.3-2.38-1.3s-.23.51-.57.39a.31.31,0,0,1-.19-.44s-.61.6-1.16.51-.5-.78-.5-.78a2.27,2.27,0,0,1-2.26-.09A1.61,1.61,0,0,1,117,153.86Z"/><path class="cls-60" d="M142.87,163.9s2.44-.54,2.81,1.77-2.47,2.63-2.47,2.63.2.93-.55,1.21-1.32-.56-1.32-.56-.59,2.64-3.79,1.57-2.29-3.47-2.29-3.47-3.15-.38-2.7-3.2c.48-3,3.77-2,3.77-2a2.16,2.16,0,0,1,2-1.2,2.34,2.34,0,0,1,2,1.33,1.65,1.65,0,0,1,2.2-.47C143.81,162.37,142.87,163.9,142.87,163.9Z"/><path class="cls-60" d="M134.13,162s.79,2.31,1.8,1.09c.5,2.18,1.62,1.81,2.44,1.5s.73-2.36.73-2.36a2.21,2.21,0,0,0,3.05-.74,2.08,2.08,0,0,0-.67-2.9c.85-.36.25-1.3-.18-1.53,1.4,0,2.52-1.53.89-3.91a2.44,2.44,0,0,0-3.17-.93c.28-1.14-.4-1.33-1-.39,0-2.22-2.25-3.72-4.44-4a3.07,3.07,0,0,0-3.54,2.22.9.9,0,0,0-1.67.69c-.92-.54-1.54.39-1.45,1.21a2.57,2.57,0,0,0-3.16,2.64,1.78,1.78,0,0,0,1.54,1.83s-1.36.71-.24,1.39c-1.12.63-.6,2.59.83,3s1.94-.38,1.94-.38.43.75,1.31,0c0,1.18,1.64,2.12,3.53.7C132.68,162,133.75,162.39,134.13,162Z"/><path class="cls-60" d="M120.21,146.43s2.64-1.49,3.88,1.07-1.94,3.92-1.94,3.92.57,1-.2,1.59-1.74-.19-1.74-.19.25,3.28-3.83,3.16-3.88-3.22-3.88-3.22-3.79.67-4.26-2.75c-.49-3.65,3.68-3.62,3.68-3.62a2.62,2.62,0,0,1,2-2.11,2.83,2.83,0,0,1,2.83.83s.69-1.87,2.38-1.32S120.21,146.43,120.21,146.43Z"/><path class="cls-56" d="M128.86,161.86s2.14-1.2,3.14.87-1.57,3.17-1.57,3.17.46.81-.17,1.29-1.4-.15-1.4-.15.2,2.65-3.11,2.55-3.14-2.6-3.14-2.6-3.07.54-3.45-2.23c-.4-3,3-2.93,3-2.93a2.09,2.09,0,0,1,1.57-1.7,2.28,2.28,0,0,1,2.29.66s.56-1.51,1.93-1.07S128.86,161.86,128.86,161.86Z"/><path class="cls-61" d="M120.22,176c0-.2-.1-.41-.16-.61a11.45,11.45,0,0,1-.5-3.34,14.65,14.65,0,0,1,.42-3,11.38,11.38,0,0,1,.29-1.15q.2-.56.42-1.11l.06-.12v0c-.28,1.46-.52,2.92-.76,4.39a11,11,0,0,0,0,2.75C120.06,174.49,120.11,175.23,120.22,176Z"/><path class="cls-61" d="M119.13,179.54s0,0,0,0a20,20,0,0,0,.77,3.51,25.72,25.72,0,0,1,.61,3c.23,1.16.23,2.58.88,3.59.49.76.92,1.55,1.39,2.33-.31-.37-.64-.73-1-1.08a12.06,12.06,0,0,1-.69-1.15,10.68,10.68,0,0,1-.87-3.21,33.75,33.75,0,0,0-.89-3.7A9.65,9.65,0,0,1,119.13,179.54Z"/><path class="cls-61" d="M123.9,188.53a12.83,12.83,0,0,0,7.34,6.73l0,0a.78.78,0,0,1-.22,0,16.3,16.3,0,0,1-2.32-1.08,15.38,15.38,0,0,1-2.37-1.43,7.81,7.81,0,0,1-2.46-4.09S123.9,188.57,123.9,188.53Z"/><path class="cls-61" d="M122.52,180.93a10.8,10.8,0,0,1-.14-1.79,5.68,5.68,0,0,1,1-2.87A24.6,24.6,0,0,0,122.52,180.93Z"/><path class="cls-60" d="M92.57,152.27a2.56,2.56,0,0,0,0-2.8,2.33,2.33,0,0,0-2.6-1.06s.29-.61-.2-.87a.64.64,0,0,0-.83.19s0-2-1.75-1.92a1.63,1.63,0,0,0-1.7,1.73,2.54,2.54,0,0,0-3.14.3c-1.18,1-.24,2.94-.24,2.94s-2.15-.36-2.23,1.49,2.42,2.11,2.42,2.11-1.62,2.89,1.09,4.17,4-.64,4-.64a1.67,1.67,0,0,0,1.32.93,1.71,1.71,0,0,0,1.88-1.08s3.59,1.11,4.5-1.81C96,153.2,92.57,152.27,92.57,152.27Z"/><path class="cls-26" d="M106.41,154.78s2,1.89,2.38.13c1.66,1.93,2.58,1,3.24.22s-.51-2.74-.51-2.74a2.51,2.51,0,0,0,2.67-2.36c.2-1.74-1.68-2.75-2.2-2.54.66-.82-.43-1.45-1-1.45,1.42-.72,1.73-2.87-1.16-4.39a2.76,2.76,0,0,0-3.67.73c-.32-1.29-1.1-1.12-1.24.15-1.2-2.21-4.21-2.54-6.55-1.66A3.47,3.47,0,0,0,96,145a1,1,0,0,0-1.32,1.57c-1.21-.06-1.34,1.21-.81,2a2.93,2.93,0,0,0-1.79,4.32,2,2,0,0,0,2.51,1s-1,1.44.49,1.53c-.79,1.21.76,2.91,2.44,2.61s1.74-1.4,1.74-1.4.84.52,1.34-.66c.61,1.19,2.75,1.27,3.9-1.15C105,155.52,106.23,155.34,106.41,154.78Z"/><path class="cls-62" d="M93.39,182.29V160.57c0-.15-.08-.27-.17-.27s-.17.12-.17.27v21.72Z"/><path class="cls-62" d="M58.11,182.29V160.94c0-.15-.08-.27-.17-.27s-.17.12-.17.27v21.35Z"/><path class="cls-62" d="M58.12,162h0a.29.29,0,0,1-.13-.33,2.62,2.62,0,0,0-.43-2.23.35.35,0,0,1-.06-.37c0-.13.14-.17.23-.1s.87.82.59,2.82C58.27,161.87,58.2,162,58.12,162Z"/><path class="cls-63" d="M57.87,162.2h0a.29.29,0,0,1-.13-.32,2.89,2.89,0,0,0-.41-2.33.39.39,0,0,1,0-.38c.06-.12.16-.16.24-.07A3.55,3.55,0,0,1,58,162C58,162.12,57.94,162.2,57.87,162.2Z"/><path class="cls-62" d="M93.31,161h0c-.09,0-.15-.18-.13-.32a1.83,1.83,0,0,0-.3-1.59.36.36,0,0,1-.06-.37c0-.13.15-.17.23-.1a2.45,2.45,0,0,1,.46,2.18C93.46,160.92,93.39,161,93.31,161Z"/><path class="cls-63" d="M93.13,161.19h0a.32.32,0,0,1-.13-.33,2.07,2.07,0,0,0-.29-1.66.39.39,0,0,1,0-.38c.05-.12.15-.15.23-.07a2.74,2.74,0,0,1,.43,2.23C93.27,161.11,93.2,161.19,93.13,161.19Z"/><path class="cls-63" d="M57.4,187.88h0c-.07,0-.11-.12-.1-.23l.53-5.92a.19.19,0,0,1,.11-.17c.06,0,.11.06.12.15l.54,3.35c0,.11,0,.22-.09.25s-.12,0-.14-.14L58,182.73l-.45,5C57.51,187.81,57.45,187.88,57.4,187.88Z"/><path class="cls-63" d="M93.61,188.16c-.06,0-.12-.07-.12-.18l-.33-5.12-.39,2.3c0,.11-.09.17-.16.14a.23.23,0,0,1-.09-.25l.58-3.35c0-.1.07-.16.13-.15s.11.08.11.18l.4,6.21c0,.11,0,.21-.12.22Z"/><polygon class="cls-64" points="92.58 184.66 58.41 184.66 57.27 187.45 89.93 188.08 93.72 187.45 92.58 184.66"/><rect class="cls-65" x="57.27" y="187.45" width="36.45" height="0.96"/></g></g></svg>